%
M48
M72
T01C0.01300
T02C0.01969
T03C0.03900
T04C0.04528
%
T01
X111361Y21585
X143447Y32215
X148565Y34381
X148565Y39105
X148762Y46782
X143447Y47176
X162542Y46782
X133211Y55837
X123172Y51310
X146400Y60168
X168250Y59381
X193447Y55247
X203290Y55247
X220809Y53278
X222581Y56428
X226518Y56428
X230455Y56428
X234392Y56428
X220809Y49341
X220809Y45404
X220809Y41467
X220809Y37530
X220809Y33593
X220809Y29656
X220809Y25719
X222384Y22176
X226321Y22176
X230258Y22176
X234195Y22176
X208408Y23357
X203290Y23357
X198369Y23357
X193447Y23357
X188526Y23357
X183605Y23357
X170219Y18830
X166282Y18830
X162345Y18830
X152109Y16074
X152109Y12137
X152109Y8200
X162345Y22767
X162345Y26704
X148369Y27097
X183605Y36940
X188723Y36940
X193447Y36940
X198369Y36940
X203290Y36940
X208408Y36940
X208408Y41861
X198369Y41861
X201912Y18436
X206439Y18436
X225140Y5050
X229077Y5050
X233014Y5050
X89117Y51507
X89117Y55444
X103487Y64893
X123172Y64893
X158998Y73751
X162935Y73751
X166872Y73751
X225928Y73751
X229865Y73751
X233802Y73751
T02
X70809Y16270
X70809Y62333
T03
X118093Y48814
X118093Y48814
X138093Y44814
X138093Y44814
X118093Y40814
X118093Y40814
T04
X71085Y48160
X71085Y30444
M30
