G75*
%MOIN*%
%OFA0B0*%
%FSLAX25Y25*%
%IPPOS*%
%LPD*%
%AMOC8*
5,1,8,0,0,1.08239X$1,22.5*
%
%ADD10C,0.00000*%
%ADD11C,0.00300*%
%ADD12C,0.00600*%
%ADD13R,0.04000X0.03000*%
%ADD14R,0.04000X0.00200*%
%ADD15R,0.00200X0.02800*%
%ADD16C,0.00250*%
D10*
X0060180Y0001900D02*
X0060180Y0076704D01*
X0237345Y0076704D01*
X0237345Y0001900D01*
X0060180Y0001900D01*
X0068821Y0030444D02*
X0068823Y0030539D01*
X0068829Y0030633D01*
X0068839Y0030728D01*
X0068853Y0030822D01*
X0068870Y0030915D01*
X0068892Y0031007D01*
X0068918Y0031098D01*
X0068947Y0031189D01*
X0068980Y0031277D01*
X0069017Y0031365D01*
X0069057Y0031451D01*
X0069101Y0031535D01*
X0069148Y0031617D01*
X0069199Y0031697D01*
X0069253Y0031775D01*
X0069311Y0031850D01*
X0069371Y0031923D01*
X0069435Y0031994D01*
X0069501Y0032062D01*
X0069570Y0032126D01*
X0069642Y0032188D01*
X0069716Y0032247D01*
X0069793Y0032303D01*
X0069872Y0032356D01*
X0069953Y0032405D01*
X0070036Y0032450D01*
X0070121Y0032493D01*
X0070208Y0032531D01*
X0070296Y0032566D01*
X0070385Y0032597D01*
X0070476Y0032625D01*
X0070568Y0032648D01*
X0070661Y0032668D01*
X0070754Y0032684D01*
X0070848Y0032696D01*
X0070943Y0032704D01*
X0071038Y0032708D01*
X0071132Y0032708D01*
X0071227Y0032704D01*
X0071322Y0032696D01*
X0071416Y0032684D01*
X0071509Y0032668D01*
X0071602Y0032648D01*
X0071694Y0032625D01*
X0071785Y0032597D01*
X0071874Y0032566D01*
X0071962Y0032531D01*
X0072049Y0032493D01*
X0072134Y0032450D01*
X0072217Y0032405D01*
X0072298Y0032356D01*
X0072377Y0032303D01*
X0072454Y0032247D01*
X0072528Y0032188D01*
X0072600Y0032126D01*
X0072669Y0032062D01*
X0072735Y0031994D01*
X0072799Y0031923D01*
X0072859Y0031850D01*
X0072917Y0031775D01*
X0072971Y0031697D01*
X0073022Y0031617D01*
X0073069Y0031535D01*
X0073113Y0031451D01*
X0073153Y0031365D01*
X0073190Y0031277D01*
X0073223Y0031189D01*
X0073252Y0031098D01*
X0073278Y0031007D01*
X0073300Y0030915D01*
X0073317Y0030822D01*
X0073331Y0030728D01*
X0073341Y0030633D01*
X0073347Y0030539D01*
X0073349Y0030444D01*
X0073347Y0030349D01*
X0073341Y0030255D01*
X0073331Y0030160D01*
X0073317Y0030066D01*
X0073300Y0029973D01*
X0073278Y0029881D01*
X0073252Y0029790D01*
X0073223Y0029699D01*
X0073190Y0029611D01*
X0073153Y0029523D01*
X0073113Y0029437D01*
X0073069Y0029353D01*
X0073022Y0029271D01*
X0072971Y0029191D01*
X0072917Y0029113D01*
X0072859Y0029038D01*
X0072799Y0028965D01*
X0072735Y0028894D01*
X0072669Y0028826D01*
X0072600Y0028762D01*
X0072528Y0028700D01*
X0072454Y0028641D01*
X0072377Y0028585D01*
X0072298Y0028532D01*
X0072217Y0028483D01*
X0072134Y0028438D01*
X0072049Y0028395D01*
X0071962Y0028357D01*
X0071874Y0028322D01*
X0071785Y0028291D01*
X0071694Y0028263D01*
X0071602Y0028240D01*
X0071509Y0028220D01*
X0071416Y0028204D01*
X0071322Y0028192D01*
X0071227Y0028184D01*
X0071132Y0028180D01*
X0071038Y0028180D01*
X0070943Y0028184D01*
X0070848Y0028192D01*
X0070754Y0028204D01*
X0070661Y0028220D01*
X0070568Y0028240D01*
X0070476Y0028263D01*
X0070385Y0028291D01*
X0070296Y0028322D01*
X0070208Y0028357D01*
X0070121Y0028395D01*
X0070036Y0028438D01*
X0069953Y0028483D01*
X0069872Y0028532D01*
X0069793Y0028585D01*
X0069716Y0028641D01*
X0069642Y0028700D01*
X0069570Y0028762D01*
X0069501Y0028826D01*
X0069435Y0028894D01*
X0069371Y0028965D01*
X0069311Y0029038D01*
X0069253Y0029113D01*
X0069199Y0029191D01*
X0069148Y0029271D01*
X0069101Y0029353D01*
X0069057Y0029437D01*
X0069017Y0029523D01*
X0068980Y0029611D01*
X0068947Y0029699D01*
X0068918Y0029790D01*
X0068892Y0029881D01*
X0068870Y0029973D01*
X0068853Y0030066D01*
X0068839Y0030160D01*
X0068829Y0030255D01*
X0068823Y0030349D01*
X0068821Y0030444D01*
X0116143Y0040814D02*
X0116145Y0040902D01*
X0116151Y0040990D01*
X0116161Y0041078D01*
X0116175Y0041165D01*
X0116193Y0041251D01*
X0116214Y0041336D01*
X0116240Y0041421D01*
X0116269Y0041504D01*
X0116302Y0041586D01*
X0116339Y0041666D01*
X0116379Y0041744D01*
X0116423Y0041821D01*
X0116470Y0041895D01*
X0116521Y0041967D01*
X0116574Y0042037D01*
X0116631Y0042105D01*
X0116691Y0042169D01*
X0116754Y0042231D01*
X0116819Y0042290D01*
X0116887Y0042346D01*
X0116958Y0042399D01*
X0117030Y0042449D01*
X0117105Y0042495D01*
X0117182Y0042538D01*
X0117261Y0042578D01*
X0117342Y0042613D01*
X0117424Y0042646D01*
X0117507Y0042674D01*
X0117592Y0042699D01*
X0117678Y0042719D01*
X0117764Y0042736D01*
X0117851Y0042749D01*
X0117939Y0042758D01*
X0118027Y0042763D01*
X0118115Y0042764D01*
X0118203Y0042761D01*
X0118291Y0042754D01*
X0118378Y0042743D01*
X0118465Y0042728D01*
X0118551Y0042709D01*
X0118637Y0042687D01*
X0118721Y0042660D01*
X0118803Y0042630D01*
X0118885Y0042596D01*
X0118965Y0042558D01*
X0119042Y0042517D01*
X0119118Y0042473D01*
X0119192Y0042425D01*
X0119264Y0042373D01*
X0119333Y0042319D01*
X0119400Y0042261D01*
X0119464Y0042201D01*
X0119525Y0042137D01*
X0119584Y0042071D01*
X0119639Y0042003D01*
X0119691Y0041931D01*
X0119740Y0041858D01*
X0119785Y0041783D01*
X0119827Y0041705D01*
X0119866Y0041626D01*
X0119901Y0041545D01*
X0119932Y0041462D01*
X0119959Y0041379D01*
X0119983Y0041294D01*
X0120003Y0041208D01*
X0120019Y0041121D01*
X0120031Y0041034D01*
X0120039Y0040946D01*
X0120043Y0040858D01*
X0120043Y0040770D01*
X0120039Y0040682D01*
X0120031Y0040594D01*
X0120019Y0040507D01*
X0120003Y0040420D01*
X0119983Y0040334D01*
X0119959Y0040249D01*
X0119932Y0040166D01*
X0119901Y0040083D01*
X0119866Y0040002D01*
X0119827Y0039923D01*
X0119785Y0039845D01*
X0119740Y0039770D01*
X0119691Y0039697D01*
X0119639Y0039625D01*
X0119584Y0039557D01*
X0119525Y0039491D01*
X0119464Y0039427D01*
X0119400Y0039367D01*
X0119333Y0039309D01*
X0119264Y0039255D01*
X0119192Y0039203D01*
X0119118Y0039155D01*
X0119042Y0039111D01*
X0118965Y0039070D01*
X0118885Y0039032D01*
X0118803Y0038998D01*
X0118721Y0038968D01*
X0118637Y0038941D01*
X0118551Y0038919D01*
X0118465Y0038900D01*
X0118378Y0038885D01*
X0118291Y0038874D01*
X0118203Y0038867D01*
X0118115Y0038864D01*
X0118027Y0038865D01*
X0117939Y0038870D01*
X0117851Y0038879D01*
X0117764Y0038892D01*
X0117678Y0038909D01*
X0117592Y0038929D01*
X0117507Y0038954D01*
X0117424Y0038982D01*
X0117342Y0039015D01*
X0117261Y0039050D01*
X0117182Y0039090D01*
X0117105Y0039133D01*
X0117030Y0039179D01*
X0116958Y0039229D01*
X0116887Y0039282D01*
X0116819Y0039338D01*
X0116754Y0039397D01*
X0116691Y0039459D01*
X0116631Y0039523D01*
X0116574Y0039591D01*
X0116521Y0039661D01*
X0116470Y0039733D01*
X0116423Y0039807D01*
X0116379Y0039884D01*
X0116339Y0039962D01*
X0116302Y0040042D01*
X0116269Y0040124D01*
X0116240Y0040207D01*
X0116214Y0040292D01*
X0116193Y0040377D01*
X0116175Y0040463D01*
X0116161Y0040550D01*
X0116151Y0040638D01*
X0116145Y0040726D01*
X0116143Y0040814D01*
X0116145Y0040902D01*
X0116151Y0040990D01*
X0116161Y0041078D01*
X0116175Y0041165D01*
X0116193Y0041251D01*
X0116214Y0041336D01*
X0116240Y0041421D01*
X0116269Y0041504D01*
X0116302Y0041586D01*
X0116339Y0041666D01*
X0116379Y0041744D01*
X0116423Y0041821D01*
X0116470Y0041895D01*
X0116521Y0041967D01*
X0116574Y0042037D01*
X0116631Y0042105D01*
X0116691Y0042169D01*
X0116754Y0042231D01*
X0116819Y0042290D01*
X0116887Y0042346D01*
X0116958Y0042399D01*
X0117030Y0042449D01*
X0117105Y0042495D01*
X0117182Y0042538D01*
X0117261Y0042578D01*
X0117342Y0042613D01*
X0117424Y0042646D01*
X0117507Y0042674D01*
X0117592Y0042699D01*
X0117678Y0042719D01*
X0117764Y0042736D01*
X0117851Y0042749D01*
X0117939Y0042758D01*
X0118027Y0042763D01*
X0118115Y0042764D01*
X0118203Y0042761D01*
X0118291Y0042754D01*
X0118378Y0042743D01*
X0118465Y0042728D01*
X0118551Y0042709D01*
X0118637Y0042687D01*
X0118721Y0042660D01*
X0118803Y0042630D01*
X0118885Y0042596D01*
X0118965Y0042558D01*
X0119042Y0042517D01*
X0119118Y0042473D01*
X0119192Y0042425D01*
X0119264Y0042373D01*
X0119333Y0042319D01*
X0119400Y0042261D01*
X0119464Y0042201D01*
X0119525Y0042137D01*
X0119584Y0042071D01*
X0119639Y0042003D01*
X0119691Y0041931D01*
X0119740Y0041858D01*
X0119785Y0041783D01*
X0119827Y0041705D01*
X0119866Y0041626D01*
X0119901Y0041545D01*
X0119932Y0041462D01*
X0119959Y0041379D01*
X0119983Y0041294D01*
X0120003Y0041208D01*
X0120019Y0041121D01*
X0120031Y0041034D01*
X0120039Y0040946D01*
X0120043Y0040858D01*
X0120043Y0040770D01*
X0120039Y0040682D01*
X0120031Y0040594D01*
X0120019Y0040507D01*
X0120003Y0040420D01*
X0119983Y0040334D01*
X0119959Y0040249D01*
X0119932Y0040166D01*
X0119901Y0040083D01*
X0119866Y0040002D01*
X0119827Y0039923D01*
X0119785Y0039845D01*
X0119740Y0039770D01*
X0119691Y0039697D01*
X0119639Y0039625D01*
X0119584Y0039557D01*
X0119525Y0039491D01*
X0119464Y0039427D01*
X0119400Y0039367D01*
X0119333Y0039309D01*
X0119264Y0039255D01*
X0119192Y0039203D01*
X0119118Y0039155D01*
X0119042Y0039111D01*
X0118965Y0039070D01*
X0118885Y0039032D01*
X0118803Y0038998D01*
X0118721Y0038968D01*
X0118637Y0038941D01*
X0118551Y0038919D01*
X0118465Y0038900D01*
X0118378Y0038885D01*
X0118291Y0038874D01*
X0118203Y0038867D01*
X0118115Y0038864D01*
X0118027Y0038865D01*
X0117939Y0038870D01*
X0117851Y0038879D01*
X0117764Y0038892D01*
X0117678Y0038909D01*
X0117592Y0038929D01*
X0117507Y0038954D01*
X0117424Y0038982D01*
X0117342Y0039015D01*
X0117261Y0039050D01*
X0117182Y0039090D01*
X0117105Y0039133D01*
X0117030Y0039179D01*
X0116958Y0039229D01*
X0116887Y0039282D01*
X0116819Y0039338D01*
X0116754Y0039397D01*
X0116691Y0039459D01*
X0116631Y0039523D01*
X0116574Y0039591D01*
X0116521Y0039661D01*
X0116470Y0039733D01*
X0116423Y0039807D01*
X0116379Y0039884D01*
X0116339Y0039962D01*
X0116302Y0040042D01*
X0116269Y0040124D01*
X0116240Y0040207D01*
X0116214Y0040292D01*
X0116193Y0040377D01*
X0116175Y0040463D01*
X0116161Y0040550D01*
X0116151Y0040638D01*
X0116145Y0040726D01*
X0116143Y0040814D01*
X0136143Y0044814D02*
X0136145Y0044902D01*
X0136151Y0044990D01*
X0136161Y0045078D01*
X0136175Y0045165D01*
X0136193Y0045251D01*
X0136214Y0045336D01*
X0136240Y0045421D01*
X0136269Y0045504D01*
X0136302Y0045586D01*
X0136339Y0045666D01*
X0136379Y0045744D01*
X0136423Y0045821D01*
X0136470Y0045895D01*
X0136521Y0045967D01*
X0136574Y0046037D01*
X0136631Y0046105D01*
X0136691Y0046169D01*
X0136754Y0046231D01*
X0136819Y0046290D01*
X0136887Y0046346D01*
X0136958Y0046399D01*
X0137030Y0046449D01*
X0137105Y0046495D01*
X0137182Y0046538D01*
X0137261Y0046578D01*
X0137342Y0046613D01*
X0137424Y0046646D01*
X0137507Y0046674D01*
X0137592Y0046699D01*
X0137678Y0046719D01*
X0137764Y0046736D01*
X0137851Y0046749D01*
X0137939Y0046758D01*
X0138027Y0046763D01*
X0138115Y0046764D01*
X0138203Y0046761D01*
X0138291Y0046754D01*
X0138378Y0046743D01*
X0138465Y0046728D01*
X0138551Y0046709D01*
X0138637Y0046687D01*
X0138721Y0046660D01*
X0138803Y0046630D01*
X0138885Y0046596D01*
X0138965Y0046558D01*
X0139042Y0046517D01*
X0139118Y0046473D01*
X0139192Y0046425D01*
X0139264Y0046373D01*
X0139333Y0046319D01*
X0139400Y0046261D01*
X0139464Y0046201D01*
X0139525Y0046137D01*
X0139584Y0046071D01*
X0139639Y0046003D01*
X0139691Y0045931D01*
X0139740Y0045858D01*
X0139785Y0045783D01*
X0139827Y0045705D01*
X0139866Y0045626D01*
X0139901Y0045545D01*
X0139932Y0045462D01*
X0139959Y0045379D01*
X0139983Y0045294D01*
X0140003Y0045208D01*
X0140019Y0045121D01*
X0140031Y0045034D01*
X0140039Y0044946D01*
X0140043Y0044858D01*
X0140043Y0044770D01*
X0140039Y0044682D01*
X0140031Y0044594D01*
X0140019Y0044507D01*
X0140003Y0044420D01*
X0139983Y0044334D01*
X0139959Y0044249D01*
X0139932Y0044166D01*
X0139901Y0044083D01*
X0139866Y0044002D01*
X0139827Y0043923D01*
X0139785Y0043845D01*
X0139740Y0043770D01*
X0139691Y0043697D01*
X0139639Y0043625D01*
X0139584Y0043557D01*
X0139525Y0043491D01*
X0139464Y0043427D01*
X0139400Y0043367D01*
X0139333Y0043309D01*
X0139264Y0043255D01*
X0139192Y0043203D01*
X0139118Y0043155D01*
X0139042Y0043111D01*
X0138965Y0043070D01*
X0138885Y0043032D01*
X0138803Y0042998D01*
X0138721Y0042968D01*
X0138637Y0042941D01*
X0138551Y0042919D01*
X0138465Y0042900D01*
X0138378Y0042885D01*
X0138291Y0042874D01*
X0138203Y0042867D01*
X0138115Y0042864D01*
X0138027Y0042865D01*
X0137939Y0042870D01*
X0137851Y0042879D01*
X0137764Y0042892D01*
X0137678Y0042909D01*
X0137592Y0042929D01*
X0137507Y0042954D01*
X0137424Y0042982D01*
X0137342Y0043015D01*
X0137261Y0043050D01*
X0137182Y0043090D01*
X0137105Y0043133D01*
X0137030Y0043179D01*
X0136958Y0043229D01*
X0136887Y0043282D01*
X0136819Y0043338D01*
X0136754Y0043397D01*
X0136691Y0043459D01*
X0136631Y0043523D01*
X0136574Y0043591D01*
X0136521Y0043661D01*
X0136470Y0043733D01*
X0136423Y0043807D01*
X0136379Y0043884D01*
X0136339Y0043962D01*
X0136302Y0044042D01*
X0136269Y0044124D01*
X0136240Y0044207D01*
X0136214Y0044292D01*
X0136193Y0044377D01*
X0136175Y0044463D01*
X0136161Y0044550D01*
X0136151Y0044638D01*
X0136145Y0044726D01*
X0136143Y0044814D01*
X0136145Y0044902D01*
X0136151Y0044990D01*
X0136161Y0045078D01*
X0136175Y0045165D01*
X0136193Y0045251D01*
X0136214Y0045336D01*
X0136240Y0045421D01*
X0136269Y0045504D01*
X0136302Y0045586D01*
X0136339Y0045666D01*
X0136379Y0045744D01*
X0136423Y0045821D01*
X0136470Y0045895D01*
X0136521Y0045967D01*
X0136574Y0046037D01*
X0136631Y0046105D01*
X0136691Y0046169D01*
X0136754Y0046231D01*
X0136819Y0046290D01*
X0136887Y0046346D01*
X0136958Y0046399D01*
X0137030Y0046449D01*
X0137105Y0046495D01*
X0137182Y0046538D01*
X0137261Y0046578D01*
X0137342Y0046613D01*
X0137424Y0046646D01*
X0137507Y0046674D01*
X0137592Y0046699D01*
X0137678Y0046719D01*
X0137764Y0046736D01*
X0137851Y0046749D01*
X0137939Y0046758D01*
X0138027Y0046763D01*
X0138115Y0046764D01*
X0138203Y0046761D01*
X0138291Y0046754D01*
X0138378Y0046743D01*
X0138465Y0046728D01*
X0138551Y0046709D01*
X0138637Y0046687D01*
X0138721Y0046660D01*
X0138803Y0046630D01*
X0138885Y0046596D01*
X0138965Y0046558D01*
X0139042Y0046517D01*
X0139118Y0046473D01*
X0139192Y0046425D01*
X0139264Y0046373D01*
X0139333Y0046319D01*
X0139400Y0046261D01*
X0139464Y0046201D01*
X0139525Y0046137D01*
X0139584Y0046071D01*
X0139639Y0046003D01*
X0139691Y0045931D01*
X0139740Y0045858D01*
X0139785Y0045783D01*
X0139827Y0045705D01*
X0139866Y0045626D01*
X0139901Y0045545D01*
X0139932Y0045462D01*
X0139959Y0045379D01*
X0139983Y0045294D01*
X0140003Y0045208D01*
X0140019Y0045121D01*
X0140031Y0045034D01*
X0140039Y0044946D01*
X0140043Y0044858D01*
X0140043Y0044770D01*
X0140039Y0044682D01*
X0140031Y0044594D01*
X0140019Y0044507D01*
X0140003Y0044420D01*
X0139983Y0044334D01*
X0139959Y0044249D01*
X0139932Y0044166D01*
X0139901Y0044083D01*
X0139866Y0044002D01*
X0139827Y0043923D01*
X0139785Y0043845D01*
X0139740Y0043770D01*
X0139691Y0043697D01*
X0139639Y0043625D01*
X0139584Y0043557D01*
X0139525Y0043491D01*
X0139464Y0043427D01*
X0139400Y0043367D01*
X0139333Y0043309D01*
X0139264Y0043255D01*
X0139192Y0043203D01*
X0139118Y0043155D01*
X0139042Y0043111D01*
X0138965Y0043070D01*
X0138885Y0043032D01*
X0138803Y0042998D01*
X0138721Y0042968D01*
X0138637Y0042941D01*
X0138551Y0042919D01*
X0138465Y0042900D01*
X0138378Y0042885D01*
X0138291Y0042874D01*
X0138203Y0042867D01*
X0138115Y0042864D01*
X0138027Y0042865D01*
X0137939Y0042870D01*
X0137851Y0042879D01*
X0137764Y0042892D01*
X0137678Y0042909D01*
X0137592Y0042929D01*
X0137507Y0042954D01*
X0137424Y0042982D01*
X0137342Y0043015D01*
X0137261Y0043050D01*
X0137182Y0043090D01*
X0137105Y0043133D01*
X0137030Y0043179D01*
X0136958Y0043229D01*
X0136887Y0043282D01*
X0136819Y0043338D01*
X0136754Y0043397D01*
X0136691Y0043459D01*
X0136631Y0043523D01*
X0136574Y0043591D01*
X0136521Y0043661D01*
X0136470Y0043733D01*
X0136423Y0043807D01*
X0136379Y0043884D01*
X0136339Y0043962D01*
X0136302Y0044042D01*
X0136269Y0044124D01*
X0136240Y0044207D01*
X0136214Y0044292D01*
X0136193Y0044377D01*
X0136175Y0044463D01*
X0136161Y0044550D01*
X0136151Y0044638D01*
X0136145Y0044726D01*
X0136143Y0044814D01*
X0116143Y0048814D02*
X0116145Y0048902D01*
X0116151Y0048990D01*
X0116161Y0049078D01*
X0116175Y0049165D01*
X0116193Y0049251D01*
X0116214Y0049336D01*
X0116240Y0049421D01*
X0116269Y0049504D01*
X0116302Y0049586D01*
X0116339Y0049666D01*
X0116379Y0049744D01*
X0116423Y0049821D01*
X0116470Y0049895D01*
X0116521Y0049967D01*
X0116574Y0050037D01*
X0116631Y0050105D01*
X0116691Y0050169D01*
X0116754Y0050231D01*
X0116819Y0050290D01*
X0116887Y0050346D01*
X0116958Y0050399D01*
X0117030Y0050449D01*
X0117105Y0050495D01*
X0117182Y0050538D01*
X0117261Y0050578D01*
X0117342Y0050613D01*
X0117424Y0050646D01*
X0117507Y0050674D01*
X0117592Y0050699D01*
X0117678Y0050719D01*
X0117764Y0050736D01*
X0117851Y0050749D01*
X0117939Y0050758D01*
X0118027Y0050763D01*
X0118115Y0050764D01*
X0118203Y0050761D01*
X0118291Y0050754D01*
X0118378Y0050743D01*
X0118465Y0050728D01*
X0118551Y0050709D01*
X0118637Y0050687D01*
X0118721Y0050660D01*
X0118803Y0050630D01*
X0118885Y0050596D01*
X0118965Y0050558D01*
X0119042Y0050517D01*
X0119118Y0050473D01*
X0119192Y0050425D01*
X0119264Y0050373D01*
X0119333Y0050319D01*
X0119400Y0050261D01*
X0119464Y0050201D01*
X0119525Y0050137D01*
X0119584Y0050071D01*
X0119639Y0050003D01*
X0119691Y0049931D01*
X0119740Y0049858D01*
X0119785Y0049783D01*
X0119827Y0049705D01*
X0119866Y0049626D01*
X0119901Y0049545D01*
X0119932Y0049462D01*
X0119959Y0049379D01*
X0119983Y0049294D01*
X0120003Y0049208D01*
X0120019Y0049121D01*
X0120031Y0049034D01*
X0120039Y0048946D01*
X0120043Y0048858D01*
X0120043Y0048770D01*
X0120039Y0048682D01*
X0120031Y0048594D01*
X0120019Y0048507D01*
X0120003Y0048420D01*
X0119983Y0048334D01*
X0119959Y0048249D01*
X0119932Y0048166D01*
X0119901Y0048083D01*
X0119866Y0048002D01*
X0119827Y0047923D01*
X0119785Y0047845D01*
X0119740Y0047770D01*
X0119691Y0047697D01*
X0119639Y0047625D01*
X0119584Y0047557D01*
X0119525Y0047491D01*
X0119464Y0047427D01*
X0119400Y0047367D01*
X0119333Y0047309D01*
X0119264Y0047255D01*
X0119192Y0047203D01*
X0119118Y0047155D01*
X0119042Y0047111D01*
X0118965Y0047070D01*
X0118885Y0047032D01*
X0118803Y0046998D01*
X0118721Y0046968D01*
X0118637Y0046941D01*
X0118551Y0046919D01*
X0118465Y0046900D01*
X0118378Y0046885D01*
X0118291Y0046874D01*
X0118203Y0046867D01*
X0118115Y0046864D01*
X0118027Y0046865D01*
X0117939Y0046870D01*
X0117851Y0046879D01*
X0117764Y0046892D01*
X0117678Y0046909D01*
X0117592Y0046929D01*
X0117507Y0046954D01*
X0117424Y0046982D01*
X0117342Y0047015D01*
X0117261Y0047050D01*
X0117182Y0047090D01*
X0117105Y0047133D01*
X0117030Y0047179D01*
X0116958Y0047229D01*
X0116887Y0047282D01*
X0116819Y0047338D01*
X0116754Y0047397D01*
X0116691Y0047459D01*
X0116631Y0047523D01*
X0116574Y0047591D01*
X0116521Y0047661D01*
X0116470Y0047733D01*
X0116423Y0047807D01*
X0116379Y0047884D01*
X0116339Y0047962D01*
X0116302Y0048042D01*
X0116269Y0048124D01*
X0116240Y0048207D01*
X0116214Y0048292D01*
X0116193Y0048377D01*
X0116175Y0048463D01*
X0116161Y0048550D01*
X0116151Y0048638D01*
X0116145Y0048726D01*
X0116143Y0048814D01*
X0116145Y0048902D01*
X0116151Y0048990D01*
X0116161Y0049078D01*
X0116175Y0049165D01*
X0116193Y0049251D01*
X0116214Y0049336D01*
X0116240Y0049421D01*
X0116269Y0049504D01*
X0116302Y0049586D01*
X0116339Y0049666D01*
X0116379Y0049744D01*
X0116423Y0049821D01*
X0116470Y0049895D01*
X0116521Y0049967D01*
X0116574Y0050037D01*
X0116631Y0050105D01*
X0116691Y0050169D01*
X0116754Y0050231D01*
X0116819Y0050290D01*
X0116887Y0050346D01*
X0116958Y0050399D01*
X0117030Y0050449D01*
X0117105Y0050495D01*
X0117182Y0050538D01*
X0117261Y0050578D01*
X0117342Y0050613D01*
X0117424Y0050646D01*
X0117507Y0050674D01*
X0117592Y0050699D01*
X0117678Y0050719D01*
X0117764Y0050736D01*
X0117851Y0050749D01*
X0117939Y0050758D01*
X0118027Y0050763D01*
X0118115Y0050764D01*
X0118203Y0050761D01*
X0118291Y0050754D01*
X0118378Y0050743D01*
X0118465Y0050728D01*
X0118551Y0050709D01*
X0118637Y0050687D01*
X0118721Y0050660D01*
X0118803Y0050630D01*
X0118885Y0050596D01*
X0118965Y0050558D01*
X0119042Y0050517D01*
X0119118Y0050473D01*
X0119192Y0050425D01*
X0119264Y0050373D01*
X0119333Y0050319D01*
X0119400Y0050261D01*
X0119464Y0050201D01*
X0119525Y0050137D01*
X0119584Y0050071D01*
X0119639Y0050003D01*
X0119691Y0049931D01*
X0119740Y0049858D01*
X0119785Y0049783D01*
X0119827Y0049705D01*
X0119866Y0049626D01*
X0119901Y0049545D01*
X0119932Y0049462D01*
X0119959Y0049379D01*
X0119983Y0049294D01*
X0120003Y0049208D01*
X0120019Y0049121D01*
X0120031Y0049034D01*
X0120039Y0048946D01*
X0120043Y0048858D01*
X0120043Y0048770D01*
X0120039Y0048682D01*
X0120031Y0048594D01*
X0120019Y0048507D01*
X0120003Y0048420D01*
X0119983Y0048334D01*
X0119959Y0048249D01*
X0119932Y0048166D01*
X0119901Y0048083D01*
X0119866Y0048002D01*
X0119827Y0047923D01*
X0119785Y0047845D01*
X0119740Y0047770D01*
X0119691Y0047697D01*
X0119639Y0047625D01*
X0119584Y0047557D01*
X0119525Y0047491D01*
X0119464Y0047427D01*
X0119400Y0047367D01*
X0119333Y0047309D01*
X0119264Y0047255D01*
X0119192Y0047203D01*
X0119118Y0047155D01*
X0119042Y0047111D01*
X0118965Y0047070D01*
X0118885Y0047032D01*
X0118803Y0046998D01*
X0118721Y0046968D01*
X0118637Y0046941D01*
X0118551Y0046919D01*
X0118465Y0046900D01*
X0118378Y0046885D01*
X0118291Y0046874D01*
X0118203Y0046867D01*
X0118115Y0046864D01*
X0118027Y0046865D01*
X0117939Y0046870D01*
X0117851Y0046879D01*
X0117764Y0046892D01*
X0117678Y0046909D01*
X0117592Y0046929D01*
X0117507Y0046954D01*
X0117424Y0046982D01*
X0117342Y0047015D01*
X0117261Y0047050D01*
X0117182Y0047090D01*
X0117105Y0047133D01*
X0117030Y0047179D01*
X0116958Y0047229D01*
X0116887Y0047282D01*
X0116819Y0047338D01*
X0116754Y0047397D01*
X0116691Y0047459D01*
X0116631Y0047523D01*
X0116574Y0047591D01*
X0116521Y0047661D01*
X0116470Y0047733D01*
X0116423Y0047807D01*
X0116379Y0047884D01*
X0116339Y0047962D01*
X0116302Y0048042D01*
X0116269Y0048124D01*
X0116240Y0048207D01*
X0116214Y0048292D01*
X0116193Y0048377D01*
X0116175Y0048463D01*
X0116161Y0048550D01*
X0116151Y0048638D01*
X0116145Y0048726D01*
X0116143Y0048814D01*
X0068821Y0048160D02*
X0068823Y0048255D01*
X0068829Y0048349D01*
X0068839Y0048444D01*
X0068853Y0048538D01*
X0068870Y0048631D01*
X0068892Y0048723D01*
X0068918Y0048814D01*
X0068947Y0048905D01*
X0068980Y0048993D01*
X0069017Y0049081D01*
X0069057Y0049167D01*
X0069101Y0049251D01*
X0069148Y0049333D01*
X0069199Y0049413D01*
X0069253Y0049491D01*
X0069311Y0049566D01*
X0069371Y0049639D01*
X0069435Y0049710D01*
X0069501Y0049778D01*
X0069570Y0049842D01*
X0069642Y0049904D01*
X0069716Y0049963D01*
X0069793Y0050019D01*
X0069872Y0050072D01*
X0069953Y0050121D01*
X0070036Y0050166D01*
X0070121Y0050209D01*
X0070208Y0050247D01*
X0070296Y0050282D01*
X0070385Y0050313D01*
X0070476Y0050341D01*
X0070568Y0050364D01*
X0070661Y0050384D01*
X0070754Y0050400D01*
X0070848Y0050412D01*
X0070943Y0050420D01*
X0071038Y0050424D01*
X0071132Y0050424D01*
X0071227Y0050420D01*
X0071322Y0050412D01*
X0071416Y0050400D01*
X0071509Y0050384D01*
X0071602Y0050364D01*
X0071694Y0050341D01*
X0071785Y0050313D01*
X0071874Y0050282D01*
X0071962Y0050247D01*
X0072049Y0050209D01*
X0072134Y0050166D01*
X0072217Y0050121D01*
X0072298Y0050072D01*
X0072377Y0050019D01*
X0072454Y0049963D01*
X0072528Y0049904D01*
X0072600Y0049842D01*
X0072669Y0049778D01*
X0072735Y0049710D01*
X0072799Y0049639D01*
X0072859Y0049566D01*
X0072917Y0049491D01*
X0072971Y0049413D01*
X0073022Y0049333D01*
X0073069Y0049251D01*
X0073113Y0049167D01*
X0073153Y0049081D01*
X0073190Y0048993D01*
X0073223Y0048905D01*
X0073252Y0048814D01*
X0073278Y0048723D01*
X0073300Y0048631D01*
X0073317Y0048538D01*
X0073331Y0048444D01*
X0073341Y0048349D01*
X0073347Y0048255D01*
X0073349Y0048160D01*
X0073347Y0048065D01*
X0073341Y0047971D01*
X0073331Y0047876D01*
X0073317Y0047782D01*
X0073300Y0047689D01*
X0073278Y0047597D01*
X0073252Y0047506D01*
X0073223Y0047415D01*
X0073190Y0047327D01*
X0073153Y0047239D01*
X0073113Y0047153D01*
X0073069Y0047069D01*
X0073022Y0046987D01*
X0072971Y0046907D01*
X0072917Y0046829D01*
X0072859Y0046754D01*
X0072799Y0046681D01*
X0072735Y0046610D01*
X0072669Y0046542D01*
X0072600Y0046478D01*
X0072528Y0046416D01*
X0072454Y0046357D01*
X0072377Y0046301D01*
X0072298Y0046248D01*
X0072217Y0046199D01*
X0072134Y0046154D01*
X0072049Y0046111D01*
X0071962Y0046073D01*
X0071874Y0046038D01*
X0071785Y0046007D01*
X0071694Y0045979D01*
X0071602Y0045956D01*
X0071509Y0045936D01*
X0071416Y0045920D01*
X0071322Y0045908D01*
X0071227Y0045900D01*
X0071132Y0045896D01*
X0071038Y0045896D01*
X0070943Y0045900D01*
X0070848Y0045908D01*
X0070754Y0045920D01*
X0070661Y0045936D01*
X0070568Y0045956D01*
X0070476Y0045979D01*
X0070385Y0046007D01*
X0070296Y0046038D01*
X0070208Y0046073D01*
X0070121Y0046111D01*
X0070036Y0046154D01*
X0069953Y0046199D01*
X0069872Y0046248D01*
X0069793Y0046301D01*
X0069716Y0046357D01*
X0069642Y0046416D01*
X0069570Y0046478D01*
X0069501Y0046542D01*
X0069435Y0046610D01*
X0069371Y0046681D01*
X0069311Y0046754D01*
X0069253Y0046829D01*
X0069199Y0046907D01*
X0069148Y0046987D01*
X0069101Y0047069D01*
X0069057Y0047153D01*
X0069017Y0047239D01*
X0068980Y0047327D01*
X0068947Y0047415D01*
X0068918Y0047506D01*
X0068892Y0047597D01*
X0068870Y0047689D01*
X0068853Y0047782D01*
X0068839Y0047876D01*
X0068829Y0047971D01*
X0068823Y0048065D01*
X0068821Y0048160D01*
D11*
X0125611Y0052479D02*
X0127013Y0052479D01*
X0127013Y0050377D01*
X0127821Y0050377D02*
X0128522Y0051078D01*
X0128172Y0051078D02*
X0129222Y0051078D01*
X0129222Y0050377D02*
X0129222Y0052479D01*
X0128172Y0052479D01*
X0127821Y0052129D01*
X0127821Y0051428D01*
X0128172Y0051078D01*
X0127013Y0051428D02*
X0126312Y0051428D01*
X0147772Y0035896D02*
X0148390Y0036513D01*
X0149624Y0036513D01*
X0150241Y0035896D01*
X0150241Y0033427D01*
X0147772Y0035896D01*
X0147772Y0033427D01*
X0148390Y0032810D01*
X0149624Y0032810D01*
X0150241Y0033427D01*
X0151466Y0033427D02*
X0151466Y0032810D01*
X0152083Y0032810D01*
X0152083Y0033427D01*
X0151466Y0033427D01*
X0153297Y0032810D02*
X0155766Y0032810D01*
X0154532Y0032810D02*
X0154532Y0036513D01*
X0155766Y0035279D01*
X0156980Y0035279D02*
X0158215Y0032810D01*
X0159449Y0035279D01*
X0164347Y0034662D02*
X0164347Y0034045D01*
X0166815Y0034045D01*
X0166815Y0034662D02*
X0166198Y0035279D01*
X0164964Y0035279D01*
X0164347Y0034662D01*
X0166815Y0034662D02*
X0166815Y0033427D01*
X0166198Y0032810D01*
X0164964Y0032810D01*
X0168036Y0032810D02*
X0169271Y0032810D01*
X0168654Y0032810D02*
X0168654Y0036513D01*
X0169271Y0036513D01*
X0170485Y0035279D02*
X0172337Y0035279D01*
X0172954Y0034662D01*
X0172954Y0033427D01*
X0172337Y0032810D01*
X0170485Y0032810D01*
X0170485Y0032193D02*
X0170485Y0035279D01*
X0174168Y0034662D02*
X0174168Y0032810D01*
X0176637Y0032810D02*
X0176637Y0035279D01*
X0174786Y0035279D01*
X0174168Y0034662D01*
X0177852Y0034662D02*
X0177852Y0033427D01*
X0178469Y0032810D01*
X0179703Y0032810D01*
X0180320Y0033427D01*
X0180320Y0034662D01*
X0179703Y0035279D01*
X0178469Y0035279D01*
X0177852Y0034662D01*
X0181535Y0033427D02*
X0181535Y0035896D01*
X0182152Y0036513D01*
X0184003Y0036513D01*
X0184003Y0032810D01*
X0182152Y0032810D01*
X0181535Y0033427D01*
X0188901Y0033427D02*
X0188901Y0035896D01*
X0191370Y0033427D01*
X0190753Y0032810D01*
X0189518Y0032810D01*
X0188901Y0033427D01*
X0191370Y0033427D02*
X0191370Y0035896D01*
X0190753Y0036513D01*
X0189518Y0036513D01*
X0188901Y0035896D01*
X0193818Y0036513D02*
X0193818Y0032810D01*
X0192584Y0032810D02*
X0195053Y0032810D01*
X0196267Y0032810D02*
X0198736Y0032810D01*
X0199950Y0032810D02*
X0199950Y0036513D01*
X0201185Y0035279D01*
X0202419Y0036513D01*
X0202419Y0032810D01*
X0203634Y0033427D02*
X0203634Y0034662D01*
X0204868Y0034662D01*
X0206102Y0035896D02*
X0206102Y0033427D01*
X0205485Y0032810D01*
X0204251Y0032810D01*
X0203634Y0033427D01*
X0207317Y0032810D02*
X0207317Y0036513D01*
X0206102Y0035896D02*
X0205485Y0036513D01*
X0204251Y0036513D01*
X0203634Y0035896D01*
X0207317Y0032810D02*
X0208551Y0034045D01*
X0209785Y0032810D01*
X0209785Y0036513D01*
X0198736Y0035279D02*
X0197502Y0036513D01*
X0197502Y0032810D01*
X0195053Y0035279D02*
X0193818Y0036513D01*
X0208551Y0031131D02*
X0208551Y0030513D01*
X0208551Y0029279D02*
X0208551Y0026193D01*
X0209168Y0025576D01*
X0209785Y0025576D01*
X0207330Y0027427D02*
X0207330Y0028662D01*
X0206713Y0029279D01*
X0205478Y0029279D01*
X0204861Y0028662D01*
X0204861Y0028045D01*
X0207330Y0028045D01*
X0207330Y0027427D02*
X0206713Y0026810D01*
X0205478Y0026810D01*
X0203030Y0027427D02*
X0202412Y0026810D01*
X0203030Y0027427D02*
X0203030Y0029896D01*
X0203647Y0029279D02*
X0202412Y0029279D01*
X0201191Y0029279D02*
X0199340Y0029279D01*
X0198723Y0028662D01*
X0198723Y0026810D01*
X0197508Y0027427D02*
X0197508Y0028662D01*
X0196891Y0029279D01*
X0195657Y0029279D01*
X0195040Y0028662D01*
X0195040Y0028045D01*
X0197508Y0028045D01*
X0197508Y0027427D02*
X0196891Y0026810D01*
X0195657Y0026810D01*
X0193825Y0027427D02*
X0193208Y0026810D01*
X0191356Y0026810D01*
X0191356Y0026193D02*
X0191974Y0025576D01*
X0192591Y0025576D01*
X0191356Y0026193D02*
X0191356Y0029279D01*
X0193825Y0029279D02*
X0193825Y0027427D01*
X0190142Y0027427D02*
X0189525Y0027427D01*
X0189525Y0026810D01*
X0190142Y0026810D01*
X0190142Y0027427D01*
X0188300Y0027427D02*
X0187683Y0026810D01*
X0185832Y0026810D01*
X0184617Y0027427D02*
X0184000Y0026810D01*
X0182766Y0026810D01*
X0182149Y0027427D01*
X0182149Y0028662D01*
X0182766Y0029279D01*
X0184000Y0029279D01*
X0184617Y0028662D01*
X0184617Y0027427D01*
X0188300Y0027427D02*
X0188300Y0028662D01*
X0187683Y0029279D01*
X0185832Y0029279D01*
X0180934Y0029279D02*
X0180317Y0029279D01*
X0179700Y0028662D01*
X0179083Y0029279D01*
X0178465Y0028662D01*
X0178465Y0026810D01*
X0179700Y0026810D02*
X0179700Y0028662D01*
X0180934Y0029279D02*
X0180934Y0026810D01*
X0171720Y0031576D02*
X0171102Y0031576D01*
X0170485Y0032193D01*
X0201191Y0029279D02*
X0201191Y0026810D01*
D12*
X0196835Y0039160D02*
X0197735Y0040060D01*
X0196935Y0041360D01*
X0197435Y0042660D01*
X0198935Y0042960D01*
X0198935Y0044260D01*
X0197435Y0044460D01*
X0196835Y0045760D01*
X0197735Y0047060D01*
X0196835Y0047960D01*
X0195535Y0047060D01*
X0194335Y0047560D01*
X0194035Y0049160D01*
X0192735Y0049160D01*
X0192435Y0047560D01*
X0191235Y0047060D01*
X0189835Y0047960D01*
X0188935Y0047060D01*
X0189835Y0045760D01*
X0189335Y0044560D01*
X0187835Y0044260D01*
X0187835Y0042960D01*
X0189235Y0042660D01*
X0189835Y0041360D01*
X0188935Y0040060D01*
X0189835Y0039160D01*
X0191035Y0039960D01*
X0191635Y0039660D01*
X0192535Y0041960D01*
X0191935Y0041660D02*
X0190935Y0043660D01*
X0191935Y0045160D01*
X0193435Y0045660D01*
X0194935Y0045160D01*
X0195435Y0043660D01*
X0194935Y0042160D01*
X0194435Y0041660D01*
X0195435Y0040160D01*
X0196935Y0039660D01*
X0197435Y0040160D01*
X0196435Y0041660D01*
X0197435Y0043160D01*
X0198435Y0043160D01*
X0198435Y0044160D01*
X0196935Y0044160D01*
X0196435Y0045660D01*
X0197435Y0047160D01*
X0196935Y0047660D01*
X0195435Y0046660D01*
X0193935Y0047660D01*
X0193935Y0048660D01*
X0192935Y0048660D01*
X0192435Y0047160D01*
X0190935Y0046660D01*
X0189935Y0047660D01*
X0189435Y0047160D01*
X0189935Y0045660D01*
X0189435Y0044160D01*
X0187935Y0044160D01*
X0188435Y0043160D01*
X0189935Y0042660D01*
X0189935Y0041160D01*
X0189435Y0040160D01*
X0189935Y0039660D01*
X0190935Y0040160D01*
X0191435Y0040160D01*
X0191935Y0041660D01*
X0191849Y0041402D02*
X0189935Y0041402D01*
X0189935Y0042001D02*
X0191765Y0042001D01*
X0191466Y0042599D02*
X0189935Y0042599D01*
X0191167Y0043198D02*
X0188417Y0043198D01*
X0188117Y0043796D02*
X0191026Y0043796D01*
X0191425Y0044395D02*
X0189514Y0044395D01*
X0189713Y0044993D02*
X0191824Y0044993D01*
X0193230Y0045592D02*
X0189913Y0045592D01*
X0189759Y0046190D02*
X0196789Y0046190D01*
X0196458Y0045592D02*
X0193641Y0045592D01*
X0194991Y0044993D02*
X0196658Y0044993D01*
X0196857Y0044395D02*
X0195191Y0044395D01*
X0195390Y0043796D02*
X0198435Y0043796D01*
X0198435Y0043198D02*
X0195281Y0043198D01*
X0195082Y0042599D02*
X0197061Y0042599D01*
X0196662Y0042001D02*
X0194776Y0042001D01*
X0194607Y0041402D02*
X0196608Y0041402D01*
X0197007Y0040804D02*
X0195006Y0040804D01*
X0195406Y0040205D02*
X0197406Y0040205D01*
X0196835Y0039160D02*
X0195635Y0039960D01*
X0195135Y0039660D01*
X0194135Y0041960D01*
X0194209Y0041999D01*
X0194282Y0042042D01*
X0194352Y0042088D01*
X0194420Y0042138D01*
X0194486Y0042190D01*
X0194549Y0042246D01*
X0194609Y0042304D01*
X0194667Y0042365D01*
X0194721Y0042429D01*
X0194773Y0042495D01*
X0194821Y0042564D01*
X0194866Y0042635D01*
X0194908Y0042708D01*
X0194946Y0042783D01*
X0194981Y0042859D01*
X0195012Y0042937D01*
X0195040Y0043017D01*
X0195063Y0043098D01*
X0195083Y0043179D01*
X0195099Y0043262D01*
X0195111Y0043345D01*
X0195119Y0043429D01*
X0195123Y0043512D01*
X0195124Y0043597D01*
X0195120Y0043680D01*
X0195112Y0043764D01*
X0195101Y0043847D01*
X0195085Y0043930D01*
X0195066Y0044012D01*
X0195043Y0044093D01*
X0195016Y0044172D01*
X0194985Y0044251D01*
X0194951Y0044327D01*
X0194913Y0044402D01*
X0194872Y0044475D01*
X0194827Y0044547D01*
X0194779Y0044616D01*
X0194728Y0044682D01*
X0194674Y0044747D01*
X0194617Y0044808D01*
X0194557Y0044867D01*
X0194494Y0044923D01*
X0194429Y0044976D01*
X0194361Y0045026D01*
X0194291Y0045072D01*
X0194219Y0045115D01*
X0194145Y0045155D01*
X0194069Y0045191D01*
X0193992Y0045224D01*
X0193913Y0045253D01*
X0193833Y0045278D01*
X0193751Y0045300D01*
X0193669Y0045318D01*
X0193586Y0045331D01*
X0193503Y0045341D01*
X0193419Y0045347D01*
X0193335Y0045349D01*
X0193251Y0045347D01*
X0193167Y0045341D01*
X0193084Y0045331D01*
X0193001Y0045318D01*
X0192919Y0045300D01*
X0192837Y0045278D01*
X0192757Y0045253D01*
X0192678Y0045224D01*
X0192601Y0045191D01*
X0192525Y0045155D01*
X0192451Y0045115D01*
X0192379Y0045072D01*
X0192309Y0045026D01*
X0192241Y0044976D01*
X0192176Y0044923D01*
X0192113Y0044867D01*
X0192053Y0044808D01*
X0191996Y0044747D01*
X0191942Y0044682D01*
X0191891Y0044616D01*
X0191843Y0044547D01*
X0191798Y0044475D01*
X0191757Y0044402D01*
X0191719Y0044327D01*
X0191685Y0044251D01*
X0191654Y0044172D01*
X0191627Y0044093D01*
X0191604Y0044012D01*
X0191585Y0043930D01*
X0191569Y0043847D01*
X0191558Y0043764D01*
X0191550Y0043680D01*
X0191546Y0043597D01*
X0191547Y0043512D01*
X0191551Y0043429D01*
X0191559Y0043345D01*
X0191571Y0043262D01*
X0191587Y0043179D01*
X0191607Y0043098D01*
X0191630Y0043017D01*
X0191658Y0042937D01*
X0191689Y0042859D01*
X0191724Y0042783D01*
X0191762Y0042708D01*
X0191804Y0042635D01*
X0191849Y0042564D01*
X0191897Y0042495D01*
X0191949Y0042429D01*
X0192003Y0042365D01*
X0192061Y0042304D01*
X0192121Y0042246D01*
X0192184Y0042190D01*
X0192250Y0042138D01*
X0192318Y0042088D01*
X0192388Y0042042D01*
X0192461Y0041999D01*
X0192535Y0041960D01*
X0191650Y0040804D02*
X0189757Y0040804D01*
X0189458Y0040205D02*
X0191450Y0040205D01*
X0191321Y0046789D02*
X0195243Y0046789D01*
X0195628Y0046789D02*
X0197188Y0046789D01*
X0197208Y0047387D02*
X0196526Y0047387D01*
X0194345Y0047387D02*
X0192511Y0047387D01*
X0192711Y0047986D02*
X0193935Y0047986D01*
X0193935Y0048584D02*
X0192910Y0048584D01*
X0190208Y0047387D02*
X0189662Y0047387D01*
X0189559Y0046789D02*
X0190807Y0046789D01*
D13*
X0202935Y0044660D03*
X0202935Y0040660D03*
X0207935Y0040660D03*
D14*
X0202935Y0047260D03*
D15*
X0201035Y0048760D03*
D16*
X0201435Y0047660D02*
X0201935Y0050660D01*
X0202435Y0047660D01*
X0202935Y0050660D01*
X0203435Y0047660D01*
X0203935Y0050660D01*
X0204435Y0047660D01*
X0204935Y0050660D01*
X0205435Y0047660D01*
X0204435Y0047660D01*
X0203435Y0047660D01*
X0202435Y0047660D01*
X0201435Y0047660D01*
X0201435Y0050660D01*
X0201935Y0050660D01*
X0202935Y0050660D01*
X0203935Y0050660D01*
X0204935Y0050660D01*
X0205435Y0050660D01*
X0205435Y0047660D01*
M02*
