G75*
%MOIN*%
%OFA0B0*%
%FSLAX25Y25*%
%IPPOS*%
%LPD*%
%AMOC8*
5,1,8,0,0,1.08239X$1,22.5*
%
%ADD10R,0.03543X0.03937*%
%ADD11R,0.06693X0.03150*%
%ADD12R,0.04724X0.04724*%
%ADD13R,0.03937X0.04331*%
%ADD14R,0.07874X0.04724*%
%ADD15C,0.05512*%
%ADD16R,0.04331X0.03543*%
%ADD17R,0.03543X0.03543*%
%ADD18C,0.03100*%
%ADD19C,0.03937*%
%ADD20R,0.03150X0.04724*%
%ADD21R,0.02200X0.05000*%
%ADD22R,0.04331X0.03937*%
%ADD23C,0.01600*%
%ADD24C,0.02700*%
%ADD25C,0.00600*%
%ADD26C,0.01000*%
D10*
X0094388Y0062349D03*
X0110530Y0062349D03*
X0110530Y0068648D03*
X0094388Y0068648D03*
D11*
X0102459Y0060774D03*
D12*
X0119235Y0061152D03*
X0127502Y0061152D03*
X0127502Y0069420D03*
X0119235Y0069420D03*
D13*
X0132817Y0069420D03*
X0139510Y0069420D03*
X0139510Y0061152D03*
X0132817Y0061152D03*
X0123762Y0021192D03*
X0123762Y0014499D03*
D14*
X0081912Y0025522D03*
X0081912Y0035259D03*
X0081912Y0043345D03*
X0081912Y0053281D03*
D15*
X0073565Y0062333D02*
X0068054Y0062333D01*
X0068054Y0016270D02*
X0073565Y0016270D01*
D16*
X0099195Y0043436D03*
D17*
X0092030Y0043436D03*
X0092030Y0034774D03*
X0099589Y0034774D03*
D18*
X0123093Y0042314D03*
X0128093Y0042314D03*
X0133093Y0042314D03*
X0133093Y0047314D03*
X0128093Y0047314D03*
X0123093Y0047314D03*
D19*
X0153172Y0046684D02*
X0158290Y0046684D01*
X0153172Y0046684D02*
X0153172Y0046684D01*
X0158290Y0046684D01*
X0158290Y0046684D01*
X0158290Y0051605D02*
X0153172Y0051605D01*
X0153172Y0051605D01*
X0158290Y0051605D01*
X0158290Y0051605D01*
X0158290Y0056526D02*
X0153172Y0056526D01*
X0153172Y0056526D01*
X0158290Y0056526D01*
X0158290Y0056526D01*
X0183683Y0051015D02*
X0183683Y0045897D01*
X0183683Y0045897D01*
X0183683Y0051015D01*
X0183683Y0051015D01*
X0183683Y0049833D02*
X0183683Y0049833D01*
X0188605Y0051015D02*
X0188605Y0045897D01*
X0188605Y0045897D01*
X0188605Y0051015D01*
X0188605Y0051015D01*
X0188605Y0049833D02*
X0188605Y0049833D01*
X0193526Y0051015D02*
X0193526Y0045897D01*
X0193526Y0045897D01*
X0193526Y0051015D01*
X0193526Y0051015D01*
X0193526Y0049833D02*
X0193526Y0049833D01*
X0198447Y0051015D02*
X0198447Y0045897D01*
X0198447Y0045897D01*
X0198447Y0051015D01*
X0198447Y0051015D01*
X0198447Y0049833D02*
X0198447Y0049833D01*
X0203369Y0051015D02*
X0203369Y0045897D01*
X0203369Y0045897D01*
X0203369Y0051015D01*
X0203369Y0051015D01*
X0203369Y0049833D02*
X0203369Y0049833D01*
X0208290Y0051015D02*
X0208290Y0045897D01*
X0208290Y0045897D01*
X0208290Y0051015D01*
X0208290Y0051015D01*
X0208290Y0049833D02*
X0208290Y0049833D01*
X0208290Y0063810D02*
X0208290Y0068928D01*
X0208290Y0068928D01*
X0208290Y0063810D01*
X0208290Y0063810D01*
X0208290Y0067746D02*
X0208290Y0067746D01*
X0203369Y0068928D02*
X0203369Y0063810D01*
X0203369Y0068928D02*
X0203369Y0068928D01*
X0203369Y0063810D01*
X0203369Y0063810D01*
X0203369Y0067746D02*
X0203369Y0067746D01*
X0198447Y0068928D02*
X0198447Y0063810D01*
X0198447Y0068928D02*
X0198447Y0068928D01*
X0198447Y0063810D01*
X0198447Y0063810D01*
X0198447Y0067746D02*
X0198447Y0067746D01*
X0193526Y0068928D02*
X0193526Y0063810D01*
X0193526Y0068928D02*
X0193526Y0068928D01*
X0193526Y0063810D01*
X0193526Y0063810D01*
X0193526Y0067746D02*
X0193526Y0067746D01*
X0188605Y0068928D02*
X0188605Y0063810D01*
X0188605Y0068928D02*
X0188605Y0068928D01*
X0188605Y0063810D01*
X0188605Y0063810D01*
X0188605Y0067746D02*
X0188605Y0067746D01*
X0183683Y0068928D02*
X0183683Y0063810D01*
X0183683Y0068928D02*
X0183683Y0068928D01*
X0183683Y0063810D01*
X0183683Y0063810D01*
X0183683Y0067746D02*
X0183683Y0067746D01*
X0178762Y0068928D02*
X0178762Y0063810D01*
X0178762Y0068928D02*
X0178762Y0068928D01*
X0178762Y0063810D01*
X0178762Y0063810D01*
X0178762Y0067746D02*
X0178762Y0067746D01*
X0173841Y0068928D02*
X0173841Y0063810D01*
X0173841Y0068928D02*
X0173841Y0068928D01*
X0173841Y0063810D01*
X0173841Y0063810D01*
X0173841Y0067746D02*
X0173841Y0067746D01*
X0168920Y0068928D02*
X0168920Y0063810D01*
X0168920Y0068928D02*
X0168920Y0068928D01*
X0168920Y0063810D01*
X0168920Y0063810D01*
X0168920Y0067746D02*
X0168920Y0067746D01*
X0163998Y0068928D02*
X0163998Y0063810D01*
X0163998Y0068928D02*
X0163998Y0068928D01*
X0163998Y0063810D01*
X0163998Y0063810D01*
X0163998Y0067746D02*
X0163998Y0067746D01*
X0159077Y0068928D02*
X0159077Y0063810D01*
X0159077Y0068928D02*
X0159077Y0068928D01*
X0159077Y0063810D01*
X0159077Y0063810D01*
X0159077Y0067746D02*
X0159077Y0067746D01*
X0213211Y0068928D02*
X0213211Y0063810D01*
X0213211Y0068928D02*
X0213211Y0068928D01*
X0213211Y0063810D01*
X0213211Y0063810D01*
X0213211Y0067746D02*
X0213211Y0067746D01*
X0218132Y0068928D02*
X0218132Y0063810D01*
X0218132Y0068928D02*
X0218132Y0068928D01*
X0218132Y0063810D01*
X0218132Y0063810D01*
X0218132Y0067746D02*
X0218132Y0067746D01*
X0223054Y0068928D02*
X0223054Y0063810D01*
X0223054Y0068928D02*
X0223054Y0068928D01*
X0223054Y0063810D01*
X0223054Y0063810D01*
X0223054Y0067746D02*
X0223054Y0067746D01*
X0227975Y0068928D02*
X0227975Y0063810D01*
X0227975Y0068928D02*
X0227975Y0068928D01*
X0227975Y0063810D01*
X0227975Y0063810D01*
X0227975Y0067746D02*
X0227975Y0067746D01*
X0232896Y0068928D02*
X0232896Y0063810D01*
X0232896Y0068928D02*
X0232896Y0068928D01*
X0232896Y0063810D01*
X0232896Y0063810D01*
X0232896Y0067746D02*
X0232896Y0067746D01*
X0158290Y0041763D02*
X0153172Y0041763D01*
X0153172Y0041763D01*
X0158290Y0041763D01*
X0158290Y0041763D01*
X0158290Y0036841D02*
X0153172Y0036841D01*
X0153172Y0036841D01*
X0158290Y0036841D01*
X0158290Y0036841D01*
X0158290Y0031920D02*
X0153172Y0031920D01*
X0153172Y0031920D01*
X0158290Y0031920D01*
X0158290Y0031920D01*
X0158290Y0026999D02*
X0153172Y0026999D01*
X0153172Y0026999D01*
X0158290Y0026999D01*
X0158290Y0026999D01*
X0158290Y0022078D02*
X0153172Y0022078D01*
X0153172Y0022078D01*
X0158290Y0022078D01*
X0158290Y0022078D01*
X0183683Y0027589D02*
X0183683Y0032707D01*
X0183683Y0027589D02*
X0183683Y0027589D01*
X0183683Y0032707D01*
X0183683Y0032707D01*
X0183683Y0031525D02*
X0183683Y0031525D01*
X0188605Y0032707D02*
X0188605Y0027589D01*
X0188605Y0027589D01*
X0188605Y0032707D01*
X0188605Y0032707D01*
X0188605Y0031525D02*
X0188605Y0031525D01*
X0193526Y0032707D02*
X0193526Y0027589D01*
X0193526Y0027589D01*
X0193526Y0032707D01*
X0193526Y0032707D01*
X0193526Y0031525D02*
X0193526Y0031525D01*
X0198447Y0032707D02*
X0198447Y0027589D01*
X0198447Y0027589D01*
X0198447Y0032707D01*
X0198447Y0032707D01*
X0198447Y0031525D02*
X0198447Y0031525D01*
X0203369Y0032707D02*
X0203369Y0027589D01*
X0203369Y0027589D01*
X0203369Y0032707D01*
X0203369Y0032707D01*
X0203369Y0031525D02*
X0203369Y0031525D01*
X0208290Y0032707D02*
X0208290Y0027589D01*
X0208290Y0027589D01*
X0208290Y0032707D01*
X0208290Y0032707D01*
X0208290Y0031525D02*
X0208290Y0031525D01*
X0208290Y0014794D02*
X0208290Y0009676D01*
X0208290Y0009676D01*
X0208290Y0014794D01*
X0208290Y0014794D01*
X0208290Y0013612D02*
X0208290Y0013612D01*
X0203369Y0014794D02*
X0203369Y0009676D01*
X0203369Y0009676D01*
X0203369Y0014794D01*
X0203369Y0014794D01*
X0203369Y0013612D02*
X0203369Y0013612D01*
X0198447Y0014794D02*
X0198447Y0009676D01*
X0198447Y0009676D01*
X0198447Y0014794D01*
X0198447Y0014794D01*
X0198447Y0013612D02*
X0198447Y0013612D01*
X0193526Y0014794D02*
X0193526Y0009676D01*
X0193526Y0009676D01*
X0193526Y0014794D01*
X0193526Y0014794D01*
X0193526Y0013612D02*
X0193526Y0013612D01*
X0188605Y0014794D02*
X0188605Y0009676D01*
X0188605Y0009676D01*
X0188605Y0014794D01*
X0188605Y0014794D01*
X0188605Y0013612D02*
X0188605Y0013612D01*
X0183683Y0014794D02*
X0183683Y0009676D01*
X0183683Y0009676D01*
X0183683Y0014794D01*
X0183683Y0014794D01*
X0183683Y0013612D02*
X0183683Y0013612D01*
X0178762Y0014794D02*
X0178762Y0009676D01*
X0178762Y0009676D01*
X0178762Y0014794D01*
X0178762Y0014794D01*
X0178762Y0013612D02*
X0178762Y0013612D01*
X0173841Y0014794D02*
X0173841Y0009676D01*
X0173841Y0009676D01*
X0173841Y0014794D01*
X0173841Y0014794D01*
X0173841Y0013612D02*
X0173841Y0013612D01*
X0168920Y0014794D02*
X0168920Y0009676D01*
X0168920Y0009676D01*
X0168920Y0014794D01*
X0168920Y0014794D01*
X0168920Y0013612D02*
X0168920Y0013612D01*
X0163998Y0014794D02*
X0163998Y0009676D01*
X0163998Y0009676D01*
X0163998Y0014794D01*
X0163998Y0014794D01*
X0163998Y0013612D02*
X0163998Y0013612D01*
X0159077Y0014794D02*
X0159077Y0009676D01*
X0159077Y0009676D01*
X0159077Y0014794D01*
X0159077Y0014794D01*
X0159077Y0013612D02*
X0159077Y0013612D01*
X0213211Y0014794D02*
X0213211Y0009676D01*
X0213211Y0009676D01*
X0213211Y0014794D01*
X0213211Y0014794D01*
X0213211Y0013612D02*
X0213211Y0013612D01*
X0218132Y0014794D02*
X0218132Y0009676D01*
X0218132Y0009676D01*
X0218132Y0014794D01*
X0218132Y0014794D01*
X0218132Y0013612D02*
X0218132Y0013612D01*
X0223054Y0014794D02*
X0223054Y0009676D01*
X0223054Y0009676D01*
X0223054Y0014794D01*
X0223054Y0014794D01*
X0223054Y0013612D02*
X0223054Y0013612D01*
X0227975Y0014794D02*
X0227975Y0009676D01*
X0227975Y0009676D01*
X0227975Y0014794D01*
X0227975Y0014794D01*
X0227975Y0013612D02*
X0227975Y0013612D01*
X0232896Y0014794D02*
X0232896Y0009676D01*
X0232896Y0009676D01*
X0232896Y0014794D01*
X0232896Y0014794D01*
X0232896Y0013612D02*
X0232896Y0013612D01*
D20*
X0099156Y0025522D03*
X0092069Y0025522D03*
D21*
X0131283Y0022748D03*
X0134983Y0022748D03*
X0138683Y0022748D03*
X0138683Y0012548D03*
X0131283Y0012548D03*
D22*
X0098959Y0018830D03*
X0092266Y0018830D03*
D23*
X0062480Y0004200D02*
X0062480Y0074404D01*
X0235045Y0074404D01*
X0235045Y0072024D01*
X0234681Y0072268D01*
X0233995Y0072552D01*
X0233267Y0072696D01*
X0233080Y0072696D01*
X0233080Y0066553D01*
X0232712Y0066553D01*
X0232712Y0072696D01*
X0232525Y0072696D01*
X0231797Y0072552D01*
X0231111Y0072268D01*
X0230494Y0071855D01*
X0230435Y0071797D01*
X0230109Y0072123D01*
X0228724Y0072696D01*
X0227225Y0072696D01*
X0225840Y0072123D01*
X0225514Y0071797D01*
X0225188Y0072123D01*
X0223803Y0072696D01*
X0222304Y0072696D01*
X0220919Y0072123D01*
X0220593Y0071797D01*
X0220267Y0072123D01*
X0218882Y0072696D01*
X0217383Y0072696D01*
X0215998Y0072123D01*
X0215672Y0071797D01*
X0215346Y0072123D01*
X0213961Y0072696D01*
X0212461Y0072696D01*
X0211076Y0072123D01*
X0210750Y0071797D01*
X0210424Y0072123D01*
X0209039Y0072696D01*
X0207540Y0072696D01*
X0206155Y0072123D01*
X0205829Y0071797D01*
X0205503Y0072123D01*
X0204118Y0072696D01*
X0202619Y0072696D01*
X0201234Y0072123D01*
X0200908Y0071797D01*
X0200582Y0072123D01*
X0199197Y0072696D01*
X0197698Y0072696D01*
X0196313Y0072123D01*
X0195987Y0071797D01*
X0195661Y0072123D01*
X0194276Y0072696D01*
X0192776Y0072696D01*
X0191391Y0072123D01*
X0191065Y0071797D01*
X0190739Y0072123D01*
X0189354Y0072696D01*
X0187855Y0072696D01*
X0186470Y0072123D01*
X0186144Y0071797D01*
X0185818Y0072123D01*
X0184433Y0072696D01*
X0182934Y0072696D01*
X0181549Y0072123D01*
X0181223Y0071797D01*
X0180897Y0072123D01*
X0179512Y0072696D01*
X0178013Y0072696D01*
X0176628Y0072123D01*
X0176302Y0071797D01*
X0175976Y0072123D01*
X0174591Y0072696D01*
X0173091Y0072696D01*
X0171706Y0072123D01*
X0171380Y0071797D01*
X0171054Y0072123D01*
X0169669Y0072696D01*
X0168170Y0072696D01*
X0166785Y0072123D01*
X0166459Y0071797D01*
X0166133Y0072123D01*
X0164748Y0072696D01*
X0163249Y0072696D01*
X0161864Y0072123D01*
X0161538Y0071797D01*
X0161479Y0071855D01*
X0160862Y0072268D01*
X0160176Y0072552D01*
X0159448Y0072696D01*
X0159261Y0072696D01*
X0159261Y0066553D01*
X0158893Y0066553D01*
X0158893Y0066185D01*
X0155309Y0066185D01*
X0155309Y0063439D01*
X0155453Y0062711D01*
X0155554Y0062468D01*
X0148555Y0062468D01*
X0148184Y0062839D01*
X0147027Y0063318D01*
X0146503Y0063318D01*
X0143279Y0066542D01*
X0143279Y0072331D01*
X0142224Y0073385D01*
X0136796Y0073385D01*
X0136164Y0072753D01*
X0135531Y0073385D01*
X0130807Y0073385D01*
X0130610Y0073582D01*
X0124395Y0073582D01*
X0123340Y0072528D01*
X0123340Y0072231D01*
X0123274Y0072477D01*
X0123037Y0072888D01*
X0122702Y0073223D01*
X0122292Y0073460D01*
X0121834Y0073582D01*
X0119616Y0073582D01*
X0119616Y0069801D01*
X0118854Y0069801D01*
X0118854Y0073582D01*
X0116635Y0073582D01*
X0116178Y0073460D01*
X0115767Y0073223D01*
X0115432Y0072888D01*
X0115195Y0072477D01*
X0115072Y0072019D01*
X0115072Y0069801D01*
X0118853Y0069801D01*
X0118853Y0069039D01*
X0115072Y0069039D01*
X0115072Y0066821D01*
X0115195Y0066363D01*
X0115432Y0065953D01*
X0115767Y0065618D01*
X0116178Y0065381D01*
X0116424Y0065315D01*
X0116127Y0065315D01*
X0115072Y0064260D01*
X0115072Y0060214D01*
X0114102Y0061184D01*
X0114102Y0065063D01*
X0113666Y0065499D01*
X0113742Y0065575D01*
X0113979Y0065985D01*
X0114102Y0066443D01*
X0114102Y0068563D01*
X0110616Y0068563D01*
X0110616Y0068734D01*
X0114102Y0068734D01*
X0114102Y0070854D01*
X0113979Y0071312D01*
X0113742Y0071722D01*
X0113407Y0072057D01*
X0112996Y0072294D01*
X0112539Y0072417D01*
X0110616Y0072417D01*
X0110616Y0068734D01*
X0110444Y0068734D01*
X0110444Y0068563D01*
X0106958Y0068563D01*
X0106958Y0066993D01*
X0105841Y0066993D01*
X0105271Y0067563D01*
X0104113Y0068043D01*
X0102860Y0068043D01*
X0101702Y0067563D01*
X0101132Y0066993D01*
X0097960Y0066993D01*
X0097960Y0071363D01*
X0096905Y0072417D01*
X0091871Y0072417D01*
X0090817Y0071363D01*
X0090817Y0065934D01*
X0091252Y0065499D01*
X0090817Y0065063D01*
X0090817Y0059635D01*
X0091871Y0058581D01*
X0096905Y0058581D01*
X0097313Y0058988D01*
X0097313Y0058963D01*
X0097435Y0058505D01*
X0097672Y0058094D01*
X0098007Y0057759D01*
X0098418Y0057522D01*
X0098876Y0057400D01*
X0102459Y0057400D01*
X0106042Y0057400D01*
X0106500Y0057522D01*
X0106911Y0057759D01*
X0107246Y0058094D01*
X0107483Y0058505D01*
X0107605Y0058963D01*
X0107605Y0058988D01*
X0108013Y0058581D01*
X0110766Y0058581D01*
X0113198Y0056149D01*
X0114428Y0054919D01*
X0120530Y0054919D01*
X0120678Y0054771D01*
X0121908Y0053541D01*
X0124073Y0053541D01*
X0125993Y0051621D01*
X0125993Y0049951D01*
X0125593Y0049551D01*
X0125228Y0049916D01*
X0124680Y0050283D01*
X0124070Y0050535D01*
X0123423Y0050664D01*
X0123093Y0050664D01*
X0123093Y0047359D01*
X0123093Y0050664D01*
X0122763Y0050664D01*
X0122116Y0050535D01*
X0122000Y0050487D01*
X0121696Y0051221D01*
X0120500Y0052417D01*
X0118938Y0053064D01*
X0117248Y0053064D01*
X0115685Y0052417D01*
X0114490Y0051221D01*
X0113843Y0049659D01*
X0113843Y0047968D01*
X0114490Y0046406D01*
X0115685Y0045211D01*
X0116644Y0044814D01*
X0115685Y0044417D01*
X0114490Y0043221D01*
X0113843Y0041659D01*
X0113843Y0039968D01*
X0114490Y0038406D01*
X0115685Y0037211D01*
X0117248Y0036564D01*
X0118938Y0036564D01*
X0120500Y0037211D01*
X0121696Y0038406D01*
X0122000Y0039140D01*
X0122427Y0038964D01*
X0123759Y0038964D01*
X0124991Y0039474D01*
X0125593Y0040076D01*
X0126195Y0039474D01*
X0127427Y0038964D01*
X0128759Y0038964D01*
X0128933Y0039036D01*
X0131308Y0036660D01*
X0132538Y0035430D01*
X0144546Y0035430D01*
X0144991Y0034986D01*
X0144074Y0035365D01*
X0142821Y0035365D01*
X0141663Y0034886D01*
X0141092Y0034315D01*
X0113215Y0034315D01*
X0105734Y0041796D01*
X0103161Y0041796D01*
X0103161Y0043350D01*
X0099281Y0043350D01*
X0099281Y0043522D01*
X0099109Y0043522D01*
X0099109Y0047007D01*
X0096793Y0047007D01*
X0096335Y0046885D01*
X0095925Y0046648D01*
X0095590Y0046313D01*
X0095462Y0046092D01*
X0094547Y0047007D01*
X0089513Y0047007D01*
X0088458Y0045953D01*
X0088458Y0045445D01*
X0087649Y0045445D01*
X0087649Y0046453D01*
X0086594Y0047507D01*
X0077229Y0047507D01*
X0076175Y0046453D01*
X0076175Y0040237D01*
X0077110Y0039302D01*
X0076175Y0038366D01*
X0076175Y0032151D01*
X0077229Y0031096D01*
X0086594Y0031096D01*
X0087649Y0032151D01*
X0087649Y0033159D01*
X0088458Y0033159D01*
X0088458Y0032257D01*
X0089513Y0031203D01*
X0094547Y0031203D01*
X0095602Y0032257D01*
X0095602Y0035376D01*
X0096017Y0035792D01*
X0096017Y0032257D01*
X0096856Y0031419D01*
X0096856Y0029685D01*
X0096836Y0029685D01*
X0095781Y0028630D01*
X0095781Y0022415D01*
X0095823Y0022373D01*
X0095613Y0022162D01*
X0095537Y0022238D01*
X0095366Y0022337D01*
X0095444Y0022415D01*
X0095444Y0028630D01*
X0094390Y0029685D01*
X0089749Y0029685D01*
X0088694Y0028630D01*
X0088694Y0027822D01*
X0087649Y0027822D01*
X0087649Y0028630D01*
X0086594Y0029685D01*
X0077229Y0029685D01*
X0076175Y0028630D01*
X0076175Y0022415D01*
X0077229Y0021360D01*
X0086594Y0021360D01*
X0087649Y0022415D01*
X0087649Y0023222D01*
X0088694Y0023222D01*
X0088694Y0022415D01*
X0088933Y0022176D01*
X0088660Y0021903D01*
X0088423Y0021493D01*
X0088301Y0021035D01*
X0088301Y0019014D01*
X0092082Y0019014D01*
X0092082Y0018645D01*
X0092450Y0018645D01*
X0092450Y0015061D01*
X0094668Y0015061D01*
X0095126Y0015184D01*
X0095537Y0015421D01*
X0095613Y0015497D01*
X0096048Y0015061D01*
X0101870Y0015061D01*
X0102924Y0016115D01*
X0102924Y0021544D01*
X0102292Y0022176D01*
X0102531Y0022415D01*
X0102531Y0028630D01*
X0101476Y0029685D01*
X0101456Y0029685D01*
X0101456Y0031203D01*
X0102106Y0031203D01*
X0103161Y0032257D01*
X0103161Y0032474D01*
X0104109Y0032474D01*
X0108667Y0027916D01*
X0110014Y0026569D01*
X0128958Y0026569D01*
X0128383Y0025994D01*
X0128383Y0019503D01*
X0129437Y0018448D01*
X0133128Y0018448D01*
X0133238Y0018558D01*
X0133646Y0018448D01*
X0134983Y0018448D01*
X0136320Y0018448D01*
X0136728Y0018558D01*
X0136837Y0018448D01*
X0140528Y0018448D01*
X0141583Y0019503D01*
X0141583Y0024725D01*
X0145183Y0021125D01*
X0146530Y0019778D01*
X0150142Y0019778D01*
X0151037Y0018883D01*
X0152422Y0018309D01*
X0157715Y0018309D01*
X0157292Y0018134D01*
X0156675Y0017721D01*
X0156150Y0017196D01*
X0155738Y0016579D01*
X0155453Y0015893D01*
X0155309Y0015165D01*
X0155309Y0012419D01*
X0158893Y0012419D01*
X0158893Y0012051D01*
X0155309Y0012051D01*
X0155309Y0009305D01*
X0155453Y0008577D01*
X0155738Y0007891D01*
X0156099Y0007350D01*
X0147134Y0007350D01*
X0141583Y0012901D01*
X0141583Y0015794D01*
X0140528Y0016848D01*
X0136837Y0016848D01*
X0135783Y0015794D01*
X0135783Y0009890D01*
X0134030Y0008137D01*
X0116250Y0008137D01*
X0113661Y0010727D01*
X0113661Y0019431D01*
X0114031Y0019801D01*
X0114511Y0020959D01*
X0114511Y0022212D01*
X0114031Y0023370D01*
X0113145Y0024256D01*
X0111987Y0024735D01*
X0110734Y0024735D01*
X0109576Y0024256D01*
X0108690Y0023370D01*
X0108211Y0022212D01*
X0108211Y0020959D01*
X0108690Y0019801D01*
X0109061Y0019431D01*
X0109061Y0008822D01*
X0110408Y0007474D01*
X0113682Y0004200D01*
X0062480Y0004200D01*
X0062480Y0005097D02*
X0112785Y0005097D01*
X0111186Y0006696D02*
X0062480Y0006696D01*
X0062480Y0008294D02*
X0109588Y0008294D01*
X0109061Y0009893D02*
X0062480Y0009893D01*
X0062480Y0011491D02*
X0109061Y0011491D01*
X0109061Y0013090D02*
X0076828Y0013090D01*
X0077428Y0013690D02*
X0076146Y0012408D01*
X0074472Y0011715D01*
X0067147Y0011715D01*
X0065473Y0012408D01*
X0064191Y0013690D01*
X0063498Y0015364D01*
X0063498Y0017177D01*
X0064191Y0018851D01*
X0065473Y0020133D01*
X0067147Y0020826D01*
X0074472Y0020826D01*
X0076146Y0020133D01*
X0077428Y0018851D01*
X0078121Y0017177D01*
X0078121Y0015364D01*
X0077428Y0013690D01*
X0077841Y0014688D02*
X0109061Y0014688D01*
X0109061Y0016287D02*
X0102924Y0016287D01*
X0102924Y0017886D02*
X0109061Y0017886D01*
X0109007Y0019484D02*
X0102924Y0019484D01*
X0102924Y0021083D02*
X0108211Y0021083D01*
X0108405Y0022681D02*
X0102531Y0022681D01*
X0102531Y0024280D02*
X0109633Y0024280D01*
X0113088Y0024280D02*
X0120248Y0024280D01*
X0120353Y0024462D02*
X0120116Y0024052D01*
X0119994Y0023594D01*
X0119994Y0021376D01*
X0123578Y0021376D01*
X0123578Y0025157D01*
X0121557Y0025157D01*
X0121099Y0025034D01*
X0120688Y0024797D01*
X0120353Y0024462D01*
X0123578Y0024280D02*
X0123946Y0024280D01*
X0123946Y0025157D02*
X0123946Y0021376D01*
X0123578Y0021376D01*
X0123578Y0021007D01*
X0119994Y0021007D01*
X0119994Y0018789D01*
X0120116Y0018332D01*
X0120353Y0017921D01*
X0120429Y0017845D01*
X0119994Y0017410D01*
X0119994Y0011588D01*
X0121048Y0010533D01*
X0124475Y0010533D01*
X0124760Y0010248D01*
X0128383Y0010248D01*
X0128383Y0009303D01*
X0129437Y0008248D01*
X0133128Y0008248D01*
X0134183Y0009303D01*
X0134183Y0015794D01*
X0133128Y0016848D01*
X0129437Y0016848D01*
X0128383Y0015794D01*
X0128383Y0014848D01*
X0127531Y0014848D01*
X0127531Y0017410D01*
X0127095Y0017845D01*
X0127171Y0017921D01*
X0127408Y0018332D01*
X0127531Y0018789D01*
X0127531Y0021007D01*
X0123947Y0021007D01*
X0123947Y0021376D01*
X0127531Y0021376D01*
X0127531Y0023594D01*
X0127408Y0024052D01*
X0127171Y0024462D01*
X0126836Y0024797D01*
X0126425Y0025034D01*
X0125968Y0025157D01*
X0123946Y0025157D01*
X0127277Y0024280D02*
X0128383Y0024280D01*
X0128383Y0025878D02*
X0102531Y0025878D01*
X0102531Y0027477D02*
X0109107Y0027477D01*
X0107508Y0029075D02*
X0102086Y0029075D01*
X0101456Y0030674D02*
X0105910Y0030674D01*
X0104311Y0032272D02*
X0103161Y0032272D01*
X0096856Y0030674D02*
X0075649Y0030674D01*
X0075649Y0031351D02*
X0075649Y0029536D01*
X0074954Y0027859D01*
X0073670Y0026575D01*
X0071993Y0025880D01*
X0070177Y0025880D01*
X0068500Y0026575D01*
X0067216Y0027859D01*
X0066521Y0029536D01*
X0066521Y0031351D01*
X0067216Y0033029D01*
X0068500Y0034313D01*
X0070177Y0035007D01*
X0071993Y0035007D01*
X0073670Y0034313D01*
X0074954Y0033029D01*
X0075649Y0031351D01*
X0075267Y0032272D02*
X0076175Y0032272D01*
X0076175Y0033871D02*
X0074112Y0033871D01*
X0068058Y0033871D02*
X0062480Y0033871D01*
X0062480Y0032272D02*
X0066903Y0032272D01*
X0066521Y0030674D02*
X0062480Y0030674D01*
X0062480Y0029075D02*
X0066712Y0029075D01*
X0067598Y0027477D02*
X0062480Y0027477D01*
X0062480Y0025878D02*
X0076175Y0025878D01*
X0076175Y0024280D02*
X0062480Y0024280D01*
X0062480Y0022681D02*
X0076175Y0022681D01*
X0076795Y0019484D02*
X0088301Y0019484D01*
X0088301Y0018645D02*
X0088301Y0016624D01*
X0088423Y0016166D01*
X0088660Y0015756D01*
X0088996Y0015421D01*
X0089406Y0015184D01*
X0089864Y0015061D01*
X0092082Y0015061D01*
X0092082Y0018645D01*
X0088301Y0018645D01*
X0088301Y0017886D02*
X0077828Y0017886D01*
X0078121Y0016287D02*
X0088391Y0016287D01*
X0092082Y0016287D02*
X0092450Y0016287D01*
X0092450Y0017886D02*
X0092082Y0017886D01*
X0088314Y0021083D02*
X0062480Y0021083D01*
X0062480Y0019484D02*
X0064824Y0019484D01*
X0063791Y0017886D02*
X0062480Y0017886D01*
X0062480Y0016287D02*
X0063498Y0016287D01*
X0063778Y0014688D02*
X0062480Y0014688D01*
X0062480Y0013090D02*
X0064791Y0013090D01*
X0087649Y0022681D02*
X0088694Y0022681D01*
X0095444Y0022681D02*
X0095781Y0022681D01*
X0095781Y0024280D02*
X0095444Y0024280D01*
X0095444Y0025878D02*
X0095781Y0025878D01*
X0095781Y0027477D02*
X0095444Y0027477D01*
X0094999Y0029075D02*
X0096226Y0029075D01*
X0089139Y0029075D02*
X0087204Y0029075D01*
X0087649Y0032272D02*
X0088458Y0032272D01*
X0095602Y0032272D02*
X0096017Y0032272D01*
X0096017Y0033871D02*
X0095602Y0033871D01*
X0095694Y0035469D02*
X0096017Y0035469D01*
X0108864Y0038666D02*
X0114382Y0038666D01*
X0113843Y0040265D02*
X0107265Y0040265D01*
X0103161Y0041863D02*
X0113927Y0041863D01*
X0114730Y0043462D02*
X0099281Y0043462D01*
X0099281Y0043522D02*
X0103161Y0043522D01*
X0103161Y0045444D01*
X0103038Y0045902D01*
X0102801Y0046313D01*
X0102466Y0046648D01*
X0102055Y0046885D01*
X0101598Y0047007D01*
X0099281Y0047007D01*
X0099281Y0043522D01*
X0099281Y0045060D02*
X0099109Y0045060D01*
X0099109Y0046659D02*
X0099281Y0046659D01*
X0102447Y0046659D02*
X0114385Y0046659D01*
X0113843Y0048257D02*
X0075649Y0048257D01*
X0075649Y0049068D02*
X0074954Y0050745D01*
X0073670Y0052029D01*
X0071993Y0052724D01*
X0070177Y0052724D01*
X0068500Y0052029D01*
X0067216Y0050745D01*
X0066521Y0049068D01*
X0066521Y0047252D01*
X0067216Y0045575D01*
X0068500Y0044291D01*
X0070177Y0043596D01*
X0071993Y0043596D01*
X0073670Y0044291D01*
X0074954Y0045575D01*
X0075649Y0047252D01*
X0075649Y0049068D01*
X0075323Y0049856D02*
X0076510Y0049856D01*
X0076534Y0049814D02*
X0076870Y0049479D01*
X0077280Y0049242D01*
X0077738Y0049119D01*
X0081531Y0049119D01*
X0081531Y0052900D01*
X0082293Y0052900D01*
X0082293Y0049119D01*
X0086086Y0049119D01*
X0086544Y0049242D01*
X0086954Y0049479D01*
X0087289Y0049814D01*
X0087526Y0050225D01*
X0087649Y0050682D01*
X0087649Y0052900D01*
X0082293Y0052900D01*
X0082293Y0053663D01*
X0081531Y0053663D01*
X0081531Y0057444D01*
X0077738Y0057444D01*
X0077280Y0057321D01*
X0076870Y0057084D01*
X0076534Y0056749D01*
X0076297Y0056338D01*
X0076175Y0055881D01*
X0076175Y0053663D01*
X0081531Y0053663D01*
X0081531Y0052900D01*
X0076175Y0052900D01*
X0076175Y0050682D01*
X0076297Y0050225D01*
X0076534Y0049814D01*
X0076175Y0051454D02*
X0074245Y0051454D01*
X0067925Y0051454D02*
X0062480Y0051454D01*
X0062480Y0049856D02*
X0066848Y0049856D01*
X0066521Y0048257D02*
X0062480Y0048257D01*
X0062480Y0046659D02*
X0066767Y0046659D01*
X0067731Y0045060D02*
X0062480Y0045060D01*
X0062480Y0043462D02*
X0076175Y0043462D01*
X0076175Y0045060D02*
X0074439Y0045060D01*
X0075403Y0046659D02*
X0076380Y0046659D01*
X0081531Y0049856D02*
X0082293Y0049856D01*
X0082293Y0051454D02*
X0081531Y0051454D01*
X0081531Y0053053D02*
X0062480Y0053053D01*
X0062480Y0054651D02*
X0076175Y0054651D01*
X0076274Y0056250D02*
X0062480Y0056250D01*
X0062480Y0057848D02*
X0066977Y0057848D01*
X0067147Y0057778D02*
X0065473Y0058471D01*
X0064191Y0059753D01*
X0063498Y0061427D01*
X0063498Y0063240D01*
X0064191Y0064914D01*
X0065473Y0066196D01*
X0067147Y0066889D01*
X0074472Y0066889D01*
X0076146Y0066196D01*
X0077428Y0064914D01*
X0078121Y0063240D01*
X0078121Y0061427D01*
X0077428Y0059753D01*
X0076146Y0058471D01*
X0074472Y0057778D01*
X0067147Y0057778D01*
X0064497Y0059447D02*
X0062480Y0059447D01*
X0062480Y0061045D02*
X0063656Y0061045D01*
X0063498Y0062644D02*
X0062480Y0062644D01*
X0062480Y0064242D02*
X0063913Y0064242D01*
X0065118Y0065841D02*
X0062480Y0065841D01*
X0062480Y0067439D02*
X0090817Y0067439D01*
X0090817Y0069038D02*
X0062480Y0069038D01*
X0062480Y0070636D02*
X0090817Y0070636D01*
X0091689Y0072235D02*
X0062480Y0072235D01*
X0062480Y0073833D02*
X0235045Y0073833D01*
X0235045Y0072235D02*
X0234730Y0072235D01*
X0233080Y0072235D02*
X0232712Y0072235D01*
X0231062Y0072235D02*
X0229839Y0072235D01*
X0226111Y0072235D02*
X0224917Y0072235D01*
X0221190Y0072235D02*
X0219996Y0072235D01*
X0216268Y0072235D02*
X0215075Y0072235D01*
X0211347Y0072235D02*
X0210154Y0072235D01*
X0206426Y0072235D02*
X0205232Y0072235D01*
X0201505Y0072235D02*
X0200311Y0072235D01*
X0196583Y0072235D02*
X0195390Y0072235D01*
X0191662Y0072235D02*
X0190469Y0072235D01*
X0186741Y0072235D02*
X0185547Y0072235D01*
X0181820Y0072235D02*
X0180626Y0072235D01*
X0176898Y0072235D02*
X0175705Y0072235D01*
X0171977Y0072235D02*
X0170784Y0072235D01*
X0167056Y0072235D02*
X0165862Y0072235D01*
X0162135Y0072235D02*
X0160911Y0072235D01*
X0159261Y0072235D02*
X0158893Y0072235D01*
X0158893Y0072696D02*
X0158706Y0072696D01*
X0157978Y0072552D01*
X0157292Y0072268D01*
X0156675Y0071855D01*
X0156150Y0071330D01*
X0155738Y0070713D01*
X0155453Y0070027D01*
X0155309Y0069299D01*
X0155309Y0066553D01*
X0158893Y0066553D01*
X0158893Y0072696D01*
X0157243Y0072235D02*
X0143279Y0072235D01*
X0143279Y0070636D02*
X0155706Y0070636D01*
X0158893Y0070636D02*
X0159261Y0070636D01*
X0159261Y0069038D02*
X0158893Y0069038D01*
X0158893Y0067439D02*
X0159261Y0067439D01*
X0155309Y0067439D02*
X0143279Y0067439D01*
X0143279Y0069038D02*
X0155309Y0069038D01*
X0155309Y0065841D02*
X0143980Y0065841D01*
X0145578Y0064242D02*
X0155309Y0064242D01*
X0155481Y0062644D02*
X0148379Y0062644D01*
X0136796Y0057187D02*
X0136164Y0057819D01*
X0135906Y0057562D01*
X0136361Y0056464D01*
X0136361Y0055211D01*
X0135881Y0054053D01*
X0135393Y0053565D01*
X0135393Y0051444D01*
X0142431Y0051444D01*
X0143550Y0050326D01*
X0144074Y0050326D01*
X0145232Y0049846D01*
X0146118Y0048960D01*
X0146597Y0047803D01*
X0146597Y0046549D01*
X0146118Y0045392D01*
X0145232Y0044506D01*
X0144074Y0044026D01*
X0142821Y0044026D01*
X0142343Y0044224D01*
X0142343Y0043968D01*
X0141696Y0042406D01*
X0140500Y0041211D01*
X0140487Y0041205D01*
X0146211Y0041205D01*
X0146781Y0041776D01*
X0147939Y0042255D01*
X0149192Y0042255D01*
X0149403Y0042168D01*
X0149403Y0042512D01*
X0149977Y0043897D01*
X0150303Y0044223D01*
X0149977Y0044549D01*
X0149403Y0045934D01*
X0149403Y0047433D01*
X0149977Y0048819D01*
X0150303Y0049144D01*
X0149977Y0049470D01*
X0149403Y0050856D01*
X0149403Y0052355D01*
X0149977Y0053740D01*
X0150303Y0054066D01*
X0149977Y0054392D01*
X0149963Y0054426D01*
X0143266Y0054426D01*
X0142036Y0055657D01*
X0142036Y0055657D01*
X0140506Y0057187D01*
X0136796Y0057187D01*
X0136361Y0056250D02*
X0141443Y0056250D01*
X0143041Y0054651D02*
X0136129Y0054651D01*
X0135393Y0053053D02*
X0149692Y0053053D01*
X0149403Y0051454D02*
X0135393Y0051454D01*
X0125993Y0051454D02*
X0121463Y0051454D01*
X0123093Y0049856D02*
X0123093Y0049856D01*
X0125289Y0049856D02*
X0125897Y0049856D01*
X0123093Y0048257D02*
X0123093Y0048257D01*
X0123093Y0047359D02*
X0123093Y0047359D01*
X0116049Y0045060D02*
X0103161Y0045060D01*
X0095944Y0046659D02*
X0094896Y0046659D01*
X0089164Y0046659D02*
X0087443Y0046659D01*
X0087313Y0049856D02*
X0113924Y0049856D01*
X0114723Y0051454D02*
X0087649Y0051454D01*
X0082293Y0053053D02*
X0117221Y0053053D01*
X0118965Y0053053D02*
X0124561Y0053053D01*
X0120797Y0054651D02*
X0087649Y0054651D01*
X0087649Y0053663D02*
X0087649Y0055881D01*
X0087526Y0056338D01*
X0087289Y0056749D01*
X0086954Y0057084D01*
X0086544Y0057321D01*
X0086086Y0057444D01*
X0082293Y0057444D01*
X0082293Y0053663D01*
X0087649Y0053663D01*
X0082293Y0054651D02*
X0081531Y0054651D01*
X0081531Y0056250D02*
X0082293Y0056250D01*
X0087550Y0056250D02*
X0113097Y0056250D01*
X0111498Y0057848D02*
X0107000Y0057848D01*
X0102459Y0057848D02*
X0102459Y0057848D01*
X0102459Y0057400D02*
X0102459Y0060774D01*
X0102459Y0060774D01*
X0102459Y0057400D01*
X0097918Y0057848D02*
X0074642Y0057848D01*
X0077122Y0059447D02*
X0091005Y0059447D01*
X0090817Y0061045D02*
X0077963Y0061045D01*
X0078121Y0062644D02*
X0090817Y0062644D01*
X0090817Y0064242D02*
X0077706Y0064242D01*
X0076501Y0065841D02*
X0090910Y0065841D01*
X0097960Y0067439D02*
X0101579Y0067439D01*
X0105395Y0067439D02*
X0106958Y0067439D01*
X0106958Y0068734D02*
X0110444Y0068734D01*
X0110444Y0072417D01*
X0108521Y0072417D01*
X0108063Y0072294D01*
X0107653Y0072057D01*
X0107318Y0071722D01*
X0107081Y0071312D01*
X0106958Y0070854D01*
X0106958Y0068734D01*
X0106958Y0069038D02*
X0097960Y0069038D01*
X0097960Y0070636D02*
X0106958Y0070636D01*
X0107961Y0072235D02*
X0097087Y0072235D01*
X0110444Y0072235D02*
X0110616Y0072235D01*
X0113099Y0072235D02*
X0115130Y0072235D01*
X0118854Y0072235D02*
X0119616Y0072235D01*
X0119616Y0070636D02*
X0118854Y0070636D01*
X0115072Y0070636D02*
X0114102Y0070636D01*
X0110616Y0070636D02*
X0110444Y0070636D01*
X0110444Y0069038D02*
X0110616Y0069038D01*
X0114102Y0069038D02*
X0115072Y0069038D01*
X0115072Y0067439D02*
X0114102Y0067439D01*
X0113896Y0065841D02*
X0115544Y0065841D01*
X0115072Y0064242D02*
X0114102Y0064242D01*
X0114102Y0062644D02*
X0115072Y0062644D01*
X0115072Y0061045D02*
X0114241Y0061045D01*
X0102459Y0059447D02*
X0102459Y0059447D01*
X0123339Y0072235D02*
X0123340Y0072235D01*
X0161832Y0057822D02*
X0172151Y0047503D01*
X0173498Y0046156D01*
X0179915Y0046156D01*
X0179915Y0045147D01*
X0180489Y0043762D01*
X0180880Y0043370D01*
X0180766Y0043370D01*
X0179536Y0042140D01*
X0175599Y0038203D01*
X0175599Y0024653D01*
X0176829Y0023422D01*
X0181357Y0018895D01*
X0198762Y0018895D01*
X0198762Y0018563D01*
X0197698Y0018563D01*
X0196313Y0017989D01*
X0195987Y0017663D01*
X0195661Y0017989D01*
X0194276Y0018563D01*
X0192776Y0018563D01*
X0191391Y0017989D01*
X0191065Y0017663D01*
X0190739Y0017989D01*
X0189354Y0018563D01*
X0187855Y0018563D01*
X0186470Y0017989D01*
X0186144Y0017663D01*
X0185818Y0017989D01*
X0184433Y0018563D01*
X0182934Y0018563D01*
X0181549Y0017989D01*
X0181223Y0017663D01*
X0180897Y0017989D01*
X0179512Y0018563D01*
X0178013Y0018563D01*
X0176628Y0017989D01*
X0176302Y0017663D01*
X0175976Y0017989D01*
X0174591Y0018563D01*
X0173091Y0018563D01*
X0171706Y0017989D01*
X0171380Y0017663D01*
X0171054Y0017989D01*
X0169669Y0018563D01*
X0168170Y0018563D01*
X0166785Y0017989D01*
X0166459Y0017663D01*
X0166133Y0017989D01*
X0164748Y0018563D01*
X0163249Y0018563D01*
X0161864Y0017989D01*
X0161538Y0017663D01*
X0161479Y0017721D01*
X0160862Y0018134D01*
X0160176Y0018418D01*
X0159586Y0018535D01*
X0160424Y0018883D01*
X0161485Y0019943D01*
X0162058Y0021328D01*
X0162058Y0022827D01*
X0161485Y0024212D01*
X0161159Y0024538D01*
X0161485Y0024864D01*
X0162058Y0026249D01*
X0162058Y0027748D01*
X0161485Y0029134D01*
X0161159Y0029459D01*
X0161485Y0029785D01*
X0162058Y0031170D01*
X0162058Y0032670D01*
X0161485Y0034055D01*
X0161159Y0034381D01*
X0161485Y0034707D01*
X0162058Y0036092D01*
X0162058Y0037591D01*
X0161485Y0038976D01*
X0161159Y0039302D01*
X0161485Y0039628D01*
X0162058Y0041013D01*
X0162058Y0042512D01*
X0161485Y0043897D01*
X0161159Y0044223D01*
X0161485Y0044549D01*
X0162058Y0045934D01*
X0162058Y0047433D01*
X0161485Y0048819D01*
X0161159Y0049144D01*
X0161485Y0049470D01*
X0162058Y0050856D01*
X0162058Y0052355D01*
X0161485Y0053740D01*
X0161159Y0054066D01*
X0161485Y0054392D01*
X0162058Y0055777D01*
X0162058Y0057276D01*
X0161832Y0057822D01*
X0162058Y0056250D02*
X0163404Y0056250D01*
X0165003Y0054651D02*
X0161592Y0054651D01*
X0161769Y0053053D02*
X0166601Y0053053D01*
X0168200Y0051454D02*
X0162058Y0051454D01*
X0161644Y0049856D02*
X0169798Y0049856D01*
X0171397Y0048257D02*
X0161717Y0048257D01*
X0162058Y0046659D02*
X0172995Y0046659D01*
X0179951Y0045060D02*
X0161696Y0045060D01*
X0161665Y0043462D02*
X0180789Y0043462D01*
X0179259Y0041863D02*
X0162058Y0041863D01*
X0161748Y0040265D02*
X0177661Y0040265D01*
X0176062Y0038666D02*
X0161613Y0038666D01*
X0162058Y0037068D02*
X0175599Y0037068D01*
X0175599Y0035469D02*
X0161800Y0035469D01*
X0161561Y0033871D02*
X0175599Y0033871D01*
X0175599Y0032272D02*
X0162058Y0032272D01*
X0161852Y0030674D02*
X0175599Y0030674D01*
X0175599Y0029075D02*
X0161509Y0029075D01*
X0162058Y0027477D02*
X0175599Y0027477D01*
X0175599Y0025878D02*
X0161905Y0025878D01*
X0161417Y0024280D02*
X0175972Y0024280D01*
X0177571Y0022681D02*
X0162058Y0022681D01*
X0161957Y0021083D02*
X0179169Y0021083D01*
X0180768Y0019484D02*
X0161026Y0019484D01*
X0161234Y0017886D02*
X0161760Y0017886D01*
X0166236Y0017886D02*
X0166682Y0017886D01*
X0171158Y0017886D02*
X0171603Y0017886D01*
X0176079Y0017886D02*
X0176524Y0017886D01*
X0181000Y0017886D02*
X0181445Y0017886D01*
X0185922Y0017886D02*
X0186367Y0017886D01*
X0190843Y0017886D02*
X0191288Y0017886D01*
X0195764Y0017886D02*
X0196209Y0017886D01*
X0191676Y0023095D02*
X0191676Y0023984D01*
X0191499Y0024412D01*
X0191741Y0024250D01*
X0192427Y0023966D01*
X0193155Y0023821D01*
X0193342Y0023821D01*
X0193342Y0029964D01*
X0193710Y0029964D01*
X0193710Y0023821D01*
X0193897Y0023821D01*
X0194625Y0023966D01*
X0195311Y0024250D01*
X0195928Y0024662D01*
X0195987Y0024721D01*
X0196045Y0024662D01*
X0196662Y0024250D01*
X0197348Y0023966D01*
X0198076Y0023821D01*
X0198263Y0023821D01*
X0198263Y0029964D01*
X0198631Y0029964D01*
X0198631Y0023821D01*
X0198818Y0023821D01*
X0199546Y0023966D01*
X0200232Y0024250D01*
X0200850Y0024662D01*
X0200908Y0024721D01*
X0200966Y0024662D01*
X0201583Y0024250D01*
X0202269Y0023966D01*
X0202997Y0023821D01*
X0203184Y0023821D01*
X0203184Y0029964D01*
X0198632Y0029964D01*
X0198632Y0030333D01*
X0202216Y0030333D01*
X0203184Y0030333D01*
X0203184Y0036476D01*
X0202997Y0036476D01*
X0202269Y0036331D01*
X0201583Y0036047D01*
X0200966Y0035635D01*
X0200908Y0035576D01*
X0200850Y0035635D01*
X0200232Y0036047D01*
X0199546Y0036331D01*
X0198818Y0036476D01*
X0198631Y0036476D01*
X0198631Y0030333D01*
X0198263Y0030333D01*
X0198263Y0036476D01*
X0198076Y0036476D01*
X0197348Y0036331D01*
X0196662Y0036047D01*
X0196045Y0035635D01*
X0195987Y0035576D01*
X0195928Y0035635D01*
X0195311Y0036047D01*
X0194625Y0036331D01*
X0193897Y0036476D01*
X0193710Y0036476D01*
X0193710Y0030333D01*
X0193342Y0030333D01*
X0193342Y0036476D01*
X0193155Y0036476D01*
X0192427Y0036331D01*
X0191767Y0036058D01*
X0191873Y0036313D01*
X0191873Y0037566D01*
X0191393Y0038724D01*
X0190507Y0039610D01*
X0189349Y0040090D01*
X0188096Y0040090D01*
X0187852Y0039988D01*
X0189475Y0041611D01*
X0190441Y0042578D01*
X0190739Y0042702D01*
X0191065Y0043028D01*
X0191391Y0042702D01*
X0192776Y0042128D01*
X0194276Y0042128D01*
X0195234Y0042525D01*
X0195219Y0042488D01*
X0195219Y0041234D01*
X0195698Y0040077D01*
X0196584Y0039191D01*
X0197742Y0038711D01*
X0198995Y0038711D01*
X0200153Y0039191D01*
X0201039Y0040077D01*
X0201518Y0041234D01*
X0201518Y0042488D01*
X0201470Y0042604D01*
X0202619Y0042128D01*
X0204118Y0042128D01*
X0205314Y0042623D01*
X0205258Y0042488D01*
X0205258Y0041234D01*
X0205737Y0040077D01*
X0206624Y0039191D01*
X0207781Y0038711D01*
X0209034Y0038711D01*
X0210192Y0039191D01*
X0211078Y0040077D01*
X0211558Y0041234D01*
X0211558Y0042488D01*
X0211163Y0043440D01*
X0211485Y0043762D01*
X0212058Y0045147D01*
X0212058Y0051764D01*
X0211485Y0053149D01*
X0210424Y0054209D01*
X0209039Y0054783D01*
X0207540Y0054783D01*
X0206293Y0054267D01*
X0206440Y0054620D01*
X0206440Y0055873D01*
X0205960Y0057031D01*
X0205074Y0057917D01*
X0203916Y0058397D01*
X0202663Y0058397D01*
X0201505Y0057917D01*
X0200619Y0057031D01*
X0200140Y0055873D01*
X0200140Y0054620D01*
X0200254Y0054345D01*
X0199197Y0054783D01*
X0197698Y0054783D01*
X0196451Y0054267D01*
X0196597Y0054620D01*
X0196597Y0055873D01*
X0196118Y0057031D01*
X0195232Y0057917D01*
X0194074Y0058397D01*
X0192821Y0058397D01*
X0191663Y0057917D01*
X0190777Y0057031D01*
X0190297Y0055873D01*
X0190297Y0054620D01*
X0190411Y0054345D01*
X0189354Y0054783D01*
X0188810Y0054783D01*
X0188067Y0055526D01*
X0186837Y0056756D01*
X0173845Y0056756D01*
X0171400Y0059201D01*
X0171400Y0060007D01*
X0171121Y0060682D01*
X0171380Y0060941D01*
X0171706Y0060615D01*
X0173091Y0060041D01*
X0174591Y0060041D01*
X0175976Y0060615D01*
X0176302Y0060941D01*
X0176628Y0060615D01*
X0178013Y0060041D01*
X0179512Y0060041D01*
X0180897Y0060615D01*
X0181223Y0060941D01*
X0181549Y0060615D01*
X0182934Y0060041D01*
X0184433Y0060041D01*
X0185818Y0060615D01*
X0186144Y0060941D01*
X0186470Y0060615D01*
X0187855Y0060041D01*
X0189354Y0060041D01*
X0190739Y0060615D01*
X0191065Y0060941D01*
X0191391Y0060615D01*
X0192776Y0060041D01*
X0194276Y0060041D01*
X0195661Y0060615D01*
X0195987Y0060941D01*
X0196313Y0060615D01*
X0197698Y0060041D01*
X0199197Y0060041D01*
X0200582Y0060615D01*
X0200908Y0060941D01*
X0201234Y0060615D01*
X0202619Y0060041D01*
X0204118Y0060041D01*
X0205503Y0060615D01*
X0205829Y0060941D01*
X0206155Y0060615D01*
X0207540Y0060041D01*
X0209039Y0060041D01*
X0210424Y0060615D01*
X0210750Y0060941D01*
X0211076Y0060615D01*
X0212461Y0060041D01*
X0213961Y0060041D01*
X0215346Y0060615D01*
X0215672Y0060941D01*
X0215998Y0060615D01*
X0217383Y0060041D01*
X0218882Y0060041D01*
X0220267Y0060615D01*
X0220593Y0060941D01*
X0220919Y0060615D01*
X0222304Y0060041D01*
X0223803Y0060041D01*
X0225188Y0060615D01*
X0225514Y0060941D01*
X0225840Y0060615D01*
X0227225Y0060041D01*
X0228724Y0060041D01*
X0230109Y0060615D01*
X0230435Y0060941D01*
X0230494Y0060883D01*
X0231111Y0060470D01*
X0231797Y0060186D01*
X0232525Y0060041D01*
X0232712Y0060041D01*
X0232712Y0066185D01*
X0233080Y0066185D01*
X0233080Y0060041D01*
X0233267Y0060041D01*
X0233995Y0060186D01*
X0234681Y0060470D01*
X0235045Y0060713D01*
X0235045Y0055866D01*
X0222426Y0055866D01*
X0221372Y0054811D01*
X0221372Y0023793D01*
X0222426Y0022738D01*
X0235045Y0022738D01*
X0235045Y0017891D01*
X0234681Y0018134D01*
X0233995Y0018418D01*
X0233267Y0018563D01*
X0233080Y0018563D01*
X0233080Y0012419D01*
X0232712Y0012419D01*
X0232712Y0018563D01*
X0232525Y0018563D01*
X0231797Y0018418D01*
X0231111Y0018134D01*
X0230494Y0017721D01*
X0230435Y0017663D01*
X0230109Y0017989D01*
X0228724Y0018563D01*
X0227225Y0018563D01*
X0225840Y0017989D01*
X0225514Y0017663D01*
X0225188Y0017989D01*
X0223803Y0018563D01*
X0222304Y0018563D01*
X0220919Y0017989D01*
X0220593Y0017663D01*
X0220267Y0017989D01*
X0219760Y0018199D01*
X0219760Y0018518D01*
X0216413Y0021865D01*
X0215183Y0023095D01*
X0191676Y0023095D01*
X0191696Y0024280D02*
X0191553Y0024280D01*
X0193342Y0024280D02*
X0193710Y0024280D01*
X0195356Y0024280D02*
X0196618Y0024280D01*
X0198263Y0024280D02*
X0198631Y0024280D01*
X0200277Y0024280D02*
X0201539Y0024280D01*
X0203184Y0024280D02*
X0203553Y0024280D01*
X0203553Y0023821D02*
X0203740Y0023821D01*
X0204468Y0023966D01*
X0205154Y0024250D01*
X0205771Y0024662D01*
X0205829Y0024721D01*
X0205887Y0024662D01*
X0206505Y0024250D01*
X0207191Y0023966D01*
X0207919Y0023821D01*
X0208105Y0023821D01*
X0208105Y0029964D01*
X0203553Y0029964D01*
X0203553Y0030333D01*
X0203184Y0030333D01*
X0203184Y0029964D01*
X0203553Y0029964D01*
X0203553Y0023821D01*
X0205198Y0024280D02*
X0206460Y0024280D01*
X0208105Y0024280D02*
X0208474Y0024280D01*
X0208474Y0023821D02*
X0208661Y0023821D01*
X0209389Y0023966D01*
X0210075Y0024250D01*
X0210692Y0024662D01*
X0211217Y0025187D01*
X0211629Y0025804D01*
X0211913Y0026490D01*
X0212058Y0027218D01*
X0212058Y0029964D01*
X0208474Y0029964D01*
X0208474Y0023821D01*
X0210119Y0024280D02*
X0221372Y0024280D01*
X0221372Y0025878D02*
X0211660Y0025878D01*
X0208474Y0025878D02*
X0208105Y0025878D01*
X0203553Y0025878D02*
X0203184Y0025878D01*
X0203184Y0027477D02*
X0203553Y0027477D01*
X0208105Y0027477D02*
X0208474Y0027477D01*
X0212058Y0027477D02*
X0221372Y0027477D01*
X0221372Y0029075D02*
X0212058Y0029075D01*
X0208474Y0029075D02*
X0208105Y0029075D01*
X0203553Y0029075D02*
X0203184Y0029075D01*
X0203553Y0030333D02*
X0207137Y0030333D01*
X0208105Y0030333D01*
X0208105Y0029964D01*
X0208474Y0029964D01*
X0208474Y0030333D01*
X0208105Y0030333D01*
X0208105Y0036476D01*
X0207919Y0036476D01*
X0207191Y0036331D01*
X0206505Y0036047D01*
X0205887Y0035635D01*
X0205829Y0035576D01*
X0205771Y0035635D01*
X0205154Y0036047D01*
X0204468Y0036331D01*
X0203740Y0036476D01*
X0203553Y0036476D01*
X0203553Y0030333D01*
X0203553Y0030674D02*
X0203184Y0030674D01*
X0203184Y0032272D02*
X0203553Y0032272D01*
X0208105Y0032272D02*
X0208474Y0032272D01*
X0212058Y0032272D02*
X0221372Y0032272D01*
X0221372Y0030674D02*
X0212058Y0030674D01*
X0212058Y0030333D02*
X0212058Y0033079D01*
X0211913Y0033807D01*
X0211629Y0034493D01*
X0211217Y0035110D01*
X0210692Y0035635D01*
X0210075Y0036047D01*
X0209389Y0036331D01*
X0208661Y0036476D01*
X0208474Y0036476D01*
X0208474Y0030333D01*
X0212058Y0030333D01*
X0208474Y0030674D02*
X0208105Y0030674D01*
X0208105Y0033871D02*
X0208474Y0033871D01*
X0211887Y0033871D02*
X0221372Y0033871D01*
X0221372Y0035469D02*
X0210858Y0035469D01*
X0208474Y0035469D02*
X0208105Y0035469D01*
X0203553Y0035469D02*
X0203184Y0035469D01*
X0198631Y0035469D02*
X0198263Y0035469D01*
X0193710Y0035469D02*
X0193342Y0035469D01*
X0191873Y0037068D02*
X0221372Y0037068D01*
X0221372Y0038666D02*
X0191417Y0038666D01*
X0188128Y0040265D02*
X0195620Y0040265D01*
X0195219Y0041863D02*
X0189726Y0041863D01*
X0201117Y0040265D02*
X0205660Y0040265D01*
X0205258Y0041863D02*
X0201518Y0041863D01*
X0211156Y0040265D02*
X0221372Y0040265D01*
X0221372Y0041863D02*
X0211558Y0041863D01*
X0211184Y0043462D02*
X0221372Y0043462D01*
X0221372Y0045060D02*
X0212022Y0045060D01*
X0212058Y0046659D02*
X0221372Y0046659D01*
X0221372Y0048257D02*
X0212058Y0048257D01*
X0212058Y0049856D02*
X0221372Y0049856D01*
X0221372Y0051454D02*
X0212058Y0051454D01*
X0211525Y0053053D02*
X0221372Y0053053D01*
X0221372Y0054651D02*
X0209358Y0054651D01*
X0207222Y0054651D02*
X0206440Y0054651D01*
X0206284Y0056250D02*
X0235045Y0056250D01*
X0235045Y0057848D02*
X0205143Y0057848D01*
X0201436Y0057848D02*
X0195301Y0057848D01*
X0191594Y0057848D02*
X0172753Y0057848D01*
X0171400Y0059447D02*
X0235045Y0059447D01*
X0233080Y0061045D02*
X0232712Y0061045D01*
X0232712Y0062644D02*
X0233080Y0062644D01*
X0233080Y0064242D02*
X0232712Y0064242D01*
X0232712Y0065841D02*
X0233080Y0065841D01*
X0233080Y0067439D02*
X0232712Y0067439D01*
X0232712Y0069038D02*
X0233080Y0069038D01*
X0233080Y0070636D02*
X0232712Y0070636D01*
X0200296Y0056250D02*
X0196441Y0056250D01*
X0196597Y0054651D02*
X0197379Y0054651D01*
X0199515Y0054651D02*
X0200140Y0054651D01*
X0190453Y0056250D02*
X0187343Y0056250D01*
X0189672Y0054651D02*
X0190297Y0054651D01*
X0149817Y0049856D02*
X0145209Y0049856D01*
X0146409Y0048257D02*
X0149744Y0048257D01*
X0149403Y0046659D02*
X0146597Y0046659D01*
X0145786Y0045060D02*
X0149765Y0045060D01*
X0149796Y0043462D02*
X0142133Y0043462D01*
X0141153Y0041863D02*
X0146993Y0041863D01*
X0131308Y0036660D02*
X0131308Y0036660D01*
X0130901Y0037068D02*
X0120155Y0037068D01*
X0121803Y0038666D02*
X0129302Y0038666D01*
X0132499Y0035469D02*
X0112061Y0035469D01*
X0110462Y0037068D02*
X0116031Y0037068D01*
X0141583Y0024280D02*
X0142028Y0024280D01*
X0141583Y0022681D02*
X0143627Y0022681D01*
X0145225Y0021083D02*
X0141583Y0021083D01*
X0141564Y0019484D02*
X0150436Y0019484D01*
X0156921Y0017886D02*
X0127135Y0017886D01*
X0127531Y0019484D02*
X0128401Y0019484D01*
X0128383Y0021083D02*
X0123947Y0021083D01*
X0123578Y0021083D02*
X0114511Y0021083D01*
X0114316Y0022681D02*
X0119994Y0022681D01*
X0123578Y0022681D02*
X0123946Y0022681D01*
X0127531Y0022681D02*
X0128383Y0022681D01*
X0134983Y0022681D02*
X0134983Y0022681D01*
X0134983Y0022748D02*
X0134983Y0018448D01*
X0134983Y0022748D01*
X0134983Y0022748D01*
X0134983Y0021083D02*
X0134983Y0021083D01*
X0134983Y0019484D02*
X0134983Y0019484D01*
X0133690Y0016287D02*
X0136276Y0016287D01*
X0135783Y0014688D02*
X0134183Y0014688D01*
X0134183Y0013090D02*
X0135783Y0013090D01*
X0135783Y0011491D02*
X0134183Y0011491D01*
X0134183Y0009893D02*
X0135783Y0009893D01*
X0134187Y0008294D02*
X0133174Y0008294D01*
X0129391Y0008294D02*
X0116093Y0008294D01*
X0114495Y0009893D02*
X0128383Y0009893D01*
X0120090Y0011491D02*
X0113661Y0011491D01*
X0113661Y0013090D02*
X0119994Y0013090D01*
X0119994Y0014688D02*
X0113661Y0014688D01*
X0113661Y0016287D02*
X0119994Y0016287D01*
X0120389Y0017886D02*
X0113661Y0017886D01*
X0113714Y0019484D02*
X0119994Y0019484D01*
X0127531Y0016287D02*
X0128876Y0016287D01*
X0141090Y0016287D02*
X0155617Y0016287D01*
X0155309Y0014688D02*
X0141583Y0014688D01*
X0141583Y0013090D02*
X0155309Y0013090D01*
X0155309Y0011491D02*
X0142992Y0011491D01*
X0144591Y0009893D02*
X0155309Y0009893D01*
X0155570Y0008294D02*
X0146189Y0008294D01*
X0193342Y0025878D02*
X0193710Y0025878D01*
X0193710Y0027477D02*
X0193342Y0027477D01*
X0193342Y0029075D02*
X0193710Y0029075D01*
X0193710Y0029964D02*
X0193710Y0030333D01*
X0194679Y0030333D01*
X0198263Y0030333D01*
X0198263Y0029964D01*
X0193710Y0029964D01*
X0193710Y0030674D02*
X0193342Y0030674D01*
X0193342Y0032272D02*
X0193710Y0032272D01*
X0193710Y0033871D02*
X0193342Y0033871D01*
X0198263Y0033871D02*
X0198631Y0033871D01*
X0198631Y0032272D02*
X0198263Y0032272D01*
X0198263Y0030674D02*
X0198631Y0030674D01*
X0198631Y0029075D02*
X0198263Y0029075D01*
X0198263Y0027477D02*
X0198631Y0027477D01*
X0198631Y0025878D02*
X0198263Y0025878D01*
X0215597Y0022681D02*
X0235045Y0022681D01*
X0235045Y0021083D02*
X0217196Y0021083D01*
X0218794Y0019484D02*
X0235045Y0019484D01*
X0233080Y0017886D02*
X0232712Y0017886D01*
X0230740Y0017886D02*
X0230213Y0017886D01*
X0232712Y0016287D02*
X0233080Y0016287D01*
X0233080Y0014688D02*
X0232712Y0014688D01*
X0232712Y0013090D02*
X0233080Y0013090D01*
X0233080Y0012051D02*
X0233080Y0005907D01*
X0233267Y0005907D01*
X0233995Y0006052D01*
X0234681Y0006336D01*
X0235045Y0006579D01*
X0235045Y0004200D01*
X0223212Y0004200D01*
X0224006Y0004994D01*
X0225354Y0006341D01*
X0225354Y0006647D01*
X0225514Y0006807D01*
X0225840Y0006481D01*
X0227225Y0005907D01*
X0228724Y0005907D01*
X0230109Y0006481D01*
X0230435Y0006807D01*
X0230494Y0006749D01*
X0231111Y0006336D01*
X0231797Y0006052D01*
X0232525Y0005907D01*
X0232712Y0005907D01*
X0232712Y0012051D01*
X0233080Y0012051D01*
X0233080Y0011491D02*
X0232712Y0011491D01*
X0232712Y0009893D02*
X0233080Y0009893D01*
X0233080Y0008294D02*
X0232712Y0008294D01*
X0232712Y0006696D02*
X0233080Y0006696D01*
X0230573Y0006696D02*
X0230324Y0006696D01*
X0225625Y0006696D02*
X0225403Y0006696D01*
X0224110Y0005097D02*
X0235045Y0005097D01*
X0225737Y0017886D02*
X0225292Y0017886D01*
X0220815Y0017886D02*
X0220370Y0017886D01*
X0203553Y0033871D02*
X0203184Y0033871D01*
X0076620Y0029075D02*
X0075458Y0029075D01*
X0076175Y0027477D02*
X0074572Y0027477D01*
X0076175Y0035469D02*
X0062480Y0035469D01*
X0062480Y0037068D02*
X0076175Y0037068D01*
X0076475Y0038666D02*
X0062480Y0038666D01*
X0062480Y0040265D02*
X0076175Y0040265D01*
X0076175Y0041863D02*
X0062480Y0041863D01*
D24*
X0089117Y0051507D03*
X0089117Y0055444D03*
X0103487Y0064893D03*
X0123172Y0064893D03*
X0146400Y0060168D03*
X0133211Y0055837D03*
X0123172Y0051310D03*
X0143447Y0047176D03*
X0148762Y0046782D03*
X0162542Y0046782D03*
X0148565Y0039105D03*
X0148565Y0034381D03*
X0143447Y0032215D03*
X0148369Y0027097D03*
X0162345Y0026704D03*
X0162345Y0022767D03*
X0162345Y0018830D03*
X0166282Y0018830D03*
X0170219Y0018830D03*
X0183605Y0023357D03*
X0188526Y0023357D03*
X0193447Y0023357D03*
X0198369Y0023357D03*
X0203290Y0023357D03*
X0208408Y0023357D03*
X0220809Y0025719D03*
X0222384Y0022176D03*
X0226321Y0022176D03*
X0230258Y0022176D03*
X0234195Y0022176D03*
X0220809Y0029656D03*
X0220809Y0033593D03*
X0220809Y0037530D03*
X0220809Y0041467D03*
X0220809Y0045404D03*
X0220809Y0049341D03*
X0220809Y0053278D03*
X0222581Y0056428D03*
X0226518Y0056428D03*
X0230455Y0056428D03*
X0234392Y0056428D03*
X0203290Y0055247D03*
X0193447Y0055247D03*
X0168250Y0059381D03*
X0166872Y0073751D03*
X0162935Y0073751D03*
X0158998Y0073751D03*
X0225928Y0073751D03*
X0229865Y0073751D03*
X0233802Y0073751D03*
X0208408Y0041861D03*
X0198369Y0041861D03*
X0198369Y0036940D03*
X0203290Y0036940D03*
X0208408Y0036940D03*
X0193447Y0036940D03*
X0188723Y0036940D03*
X0183605Y0036940D03*
X0201912Y0018436D03*
X0206439Y0018436D03*
X0225140Y0005050D03*
X0229077Y0005050D03*
X0233014Y0005050D03*
X0152109Y0008200D03*
X0152109Y0012137D03*
X0152109Y0016074D03*
X0111361Y0021585D03*
D25*
X0111754Y0030641D02*
X0141479Y0030641D01*
X0142857Y0029263D01*
X0145809Y0029263D01*
X0148467Y0031920D01*
X0155731Y0031920D01*
X0148565Y0034381D02*
X0145416Y0037530D01*
X0133408Y0037530D01*
X0128624Y0042314D01*
X0128093Y0042314D01*
X0133093Y0042314D02*
X0133743Y0042314D01*
X0136951Y0039105D01*
X0148565Y0039105D01*
X0143447Y0032215D02*
X0112345Y0032215D01*
X0104865Y0039696D01*
X0095770Y0039696D01*
X0092030Y0043436D01*
X0092030Y0043345D01*
X0081912Y0043345D01*
X0092030Y0034774D02*
X0095376Y0038121D01*
X0104274Y0038121D01*
X0111754Y0030641D01*
X0092030Y0034774D02*
X0092030Y0035259D01*
X0081912Y0035259D01*
X0128093Y0047314D02*
X0128093Y0052491D01*
X0124943Y0055641D01*
X0122778Y0055641D01*
X0121400Y0057019D01*
X0115298Y0057019D01*
X0110530Y0061786D01*
X0110530Y0062349D01*
X0109967Y0062349D01*
X0107424Y0064893D01*
X0103487Y0064893D01*
X0096931Y0064893D01*
X0094388Y0062349D01*
X0119235Y0061152D02*
X0123369Y0057019D01*
X0131046Y0057019D01*
X0132817Y0058790D01*
X0132817Y0061152D01*
X0139510Y0061152D02*
X0144136Y0056526D01*
X0155731Y0056526D01*
X0168250Y0059381D02*
X0172975Y0054656D01*
X0185967Y0054656D01*
X0188605Y0052019D01*
X0188605Y0048456D01*
X0188605Y0043711D01*
X0186164Y0041270D01*
X0181636Y0041270D01*
X0177699Y0037333D01*
X0177699Y0025522D01*
X0182227Y0020995D01*
X0214313Y0020995D01*
X0217660Y0017648D01*
X0217660Y0012707D01*
X0218132Y0012235D01*
X0208290Y0012235D02*
X0208290Y0016585D01*
X0206439Y0018436D01*
X0203369Y0016979D02*
X0203369Y0012235D01*
X0203369Y0016979D02*
X0201912Y0018436D01*
X0188526Y0023357D02*
X0188526Y0030070D01*
X0188605Y0030148D01*
X0188723Y0030267D01*
X0188723Y0036940D01*
X0183605Y0036940D02*
X0183605Y0030227D01*
X0183683Y0030148D01*
X0183605Y0030070D01*
X0183605Y0023357D01*
X0155731Y0026999D02*
X0148467Y0026999D01*
X0148369Y0027097D01*
X0198369Y0041861D02*
X0198447Y0041940D01*
X0198447Y0048456D01*
X0203290Y0048534D02*
X0203369Y0048456D01*
X0203290Y0048534D02*
X0203290Y0055247D01*
X0193447Y0055247D02*
X0193447Y0048534D01*
X0193526Y0048456D01*
X0208290Y0048456D02*
X0208290Y0041979D01*
X0208408Y0041861D01*
X0132817Y0069420D02*
X0127502Y0069420D01*
D26*
X0137542Y0065089D02*
X0139510Y0067058D01*
X0146400Y0060168D01*
X0162739Y0060168D01*
X0174451Y0048456D01*
X0183683Y0048456D01*
X0143447Y0047176D02*
X0141479Y0049144D01*
X0134983Y0049144D01*
X0133152Y0047314D01*
X0133093Y0047314D01*
X0133093Y0055719D01*
X0133211Y0055837D01*
X0127502Y0061152D02*
X0123762Y0064893D01*
X0123172Y0064893D01*
X0127502Y0063515D02*
X0129077Y0065089D01*
X0137542Y0065089D01*
X0139510Y0067058D02*
X0139510Y0069420D01*
X0127502Y0063515D02*
X0127502Y0061152D01*
X0105061Y0034774D02*
X0099589Y0034774D01*
X0099156Y0034341D01*
X0099156Y0025522D01*
X0098959Y0025326D01*
X0098959Y0018830D01*
X0111361Y0021585D02*
X0111361Y0009774D01*
X0115298Y0005837D01*
X0134983Y0005837D01*
X0138683Y0009537D01*
X0138683Y0012548D01*
X0146181Y0005050D01*
X0220809Y0005050D01*
X0223054Y0007294D01*
X0223054Y0012235D01*
X0227975Y0012235D01*
X0155731Y0022078D02*
X0147483Y0022078D01*
X0140691Y0028869D01*
X0138683Y0028869D01*
X0138683Y0022748D01*
X0131283Y0022748D02*
X0131283Y0028869D01*
X0138683Y0028869D01*
X0131283Y0028869D02*
X0110967Y0028869D01*
X0105061Y0034774D01*
X0092069Y0025522D02*
X0081912Y0025522D01*
X0123762Y0014499D02*
X0125713Y0012548D01*
X0131283Y0012548D01*
M02*
