G75*
%MOIN*%
%OFA0B0*%
%FSLAX25Y25*%
%IPPOS*%
%LPD*%
%AMOC8*
5,1,8,0,0,1.08239X$1,22.5*
%
%ADD10C,0.05512*%
%ADD11C,0.03100*%
%ADD12C,0.01600*%
%ADD13C,0.02700*%
%ADD14C,0.00600*%
%ADD15C,0.01000*%
D10*
X0068054Y0016270D02*
X0073565Y0016270D01*
X0073565Y0062333D02*
X0068054Y0062333D01*
D11*
X0123093Y0047314D03*
X0128093Y0047314D03*
X0133093Y0047314D03*
X0133093Y0042314D03*
X0128093Y0042314D03*
X0123093Y0042314D03*
D12*
X0062480Y0074404D02*
X0062480Y0004200D01*
X0235045Y0004200D01*
X0235045Y0022738D01*
X0222426Y0022738D01*
X0221372Y0023793D01*
X0221372Y0054811D01*
X0222426Y0055866D01*
X0235045Y0055866D01*
X0235045Y0074404D01*
X0062480Y0074404D01*
X0062480Y0073833D02*
X0235045Y0073833D01*
X0235045Y0072235D02*
X0062480Y0072235D01*
X0062480Y0070636D02*
X0106261Y0070636D01*
X0106554Y0070930D02*
X0103667Y0068043D01*
X0102860Y0068043D01*
X0101702Y0067563D01*
X0100816Y0066677D01*
X0100337Y0065519D01*
X0100337Y0064266D01*
X0100816Y0063108D01*
X0101702Y0062222D01*
X0102860Y0061743D01*
X0104113Y0061743D01*
X0105271Y0062222D01*
X0106157Y0063108D01*
X0106637Y0064266D01*
X0106637Y0065073D01*
X0108293Y0066730D01*
X0120554Y0066730D01*
X0120501Y0066677D01*
X0120022Y0065519D01*
X0120022Y0064995D01*
X0109061Y0054034D01*
X0109061Y0023740D01*
X0108690Y0023370D01*
X0108211Y0022212D01*
X0108211Y0020959D01*
X0108690Y0019801D01*
X0109576Y0018915D01*
X0110734Y0018435D01*
X0111987Y0018435D01*
X0113145Y0018915D01*
X0114031Y0019801D01*
X0114511Y0020959D01*
X0114511Y0022212D01*
X0114031Y0023370D01*
X0113661Y0023740D01*
X0113661Y0052129D01*
X0123274Y0061743D01*
X0123798Y0061743D01*
X0124956Y0062222D01*
X0125842Y0063108D01*
X0126322Y0064266D01*
X0126322Y0065519D01*
X0125842Y0066677D01*
X0125789Y0066730D01*
X0141987Y0066730D01*
X0145508Y0063208D01*
X0144616Y0062839D01*
X0143730Y0061952D01*
X0143250Y0060795D01*
X0143250Y0060271D01*
X0141117Y0058137D01*
X0135366Y0058137D01*
X0134995Y0058508D01*
X0133838Y0058987D01*
X0132584Y0058987D01*
X0131427Y0058508D01*
X0130541Y0057622D01*
X0130061Y0056464D01*
X0130061Y0055211D01*
X0130541Y0054053D01*
X0131172Y0053422D01*
X0131111Y0053361D01*
X0128414Y0050664D01*
X0127427Y0050664D01*
X0126195Y0050154D01*
X0125593Y0049551D01*
X0125228Y0049916D01*
X0124680Y0050283D01*
X0124070Y0050535D01*
X0123423Y0050664D01*
X0123093Y0050664D01*
X0123093Y0047359D01*
X0123093Y0050664D01*
X0122763Y0050664D01*
X0122116Y0050535D01*
X0122000Y0050487D01*
X0121696Y0051221D01*
X0120500Y0052417D01*
X0118938Y0053064D01*
X0117248Y0053064D01*
X0115685Y0052417D01*
X0114490Y0051221D01*
X0113843Y0049659D01*
X0113843Y0047968D01*
X0114490Y0046406D01*
X0115685Y0045211D01*
X0116644Y0044814D01*
X0115685Y0044417D01*
X0114490Y0043221D01*
X0113843Y0041659D01*
X0113843Y0039968D01*
X0114490Y0038406D01*
X0115685Y0037211D01*
X0117248Y0036564D01*
X0118938Y0036564D01*
X0120500Y0037211D01*
X0121696Y0038406D01*
X0122000Y0039140D01*
X0122427Y0038964D01*
X0123473Y0038964D01*
X0127007Y0035430D01*
X0143727Y0035430D01*
X0144957Y0036660D01*
X0145814Y0037517D01*
X0145895Y0037321D01*
X0146473Y0036743D01*
X0145895Y0036165D01*
X0145415Y0035007D01*
X0145415Y0034702D01*
X0145232Y0034886D01*
X0144074Y0035365D01*
X0142821Y0035365D01*
X0141663Y0034886D01*
X0140777Y0034000D01*
X0140297Y0032842D01*
X0140297Y0031589D01*
X0140777Y0030431D01*
X0141663Y0029545D01*
X0142821Y0029065D01*
X0143627Y0029065D01*
X0145219Y0027474D01*
X0145219Y0026471D01*
X0145698Y0025313D01*
X0146584Y0024427D01*
X0147742Y0023947D01*
X0148995Y0023947D01*
X0150153Y0024427D01*
X0151039Y0025313D01*
X0151518Y0026471D01*
X0151518Y0027724D01*
X0151039Y0028882D01*
X0150153Y0029768D01*
X0148995Y0030247D01*
X0148385Y0030247D01*
X0147022Y0031610D01*
X0147939Y0031231D01*
X0149192Y0031231D01*
X0150350Y0031710D01*
X0150920Y0032281D01*
X0187034Y0032281D01*
X0188543Y0033790D01*
X0189349Y0033790D01*
X0190507Y0034269D01*
X0191393Y0035155D01*
X0191873Y0036313D01*
X0191873Y0037566D01*
X0191453Y0038580D01*
X0195136Y0038580D01*
X0196318Y0037399D01*
X0200616Y0037399D01*
X0201797Y0038580D01*
X0208490Y0038580D01*
X0208621Y0038711D01*
X0209034Y0038711D01*
X0210192Y0039191D01*
X0211078Y0040077D01*
X0211558Y0041234D01*
X0211558Y0042488D01*
X0211078Y0043645D01*
X0210192Y0044531D01*
X0209034Y0045011D01*
X0207781Y0045011D01*
X0206624Y0044531D01*
X0205737Y0043645D01*
X0205379Y0042780D01*
X0201397Y0042780D01*
X0201039Y0043645D01*
X0200153Y0044531D01*
X0198995Y0045011D01*
X0197742Y0045011D01*
X0196584Y0044531D01*
X0196211Y0044158D01*
X0155144Y0044158D01*
X0153766Y0045536D01*
X0146177Y0045536D01*
X0146597Y0046549D01*
X0146597Y0047803D01*
X0146177Y0048816D01*
X0189986Y0048816D01*
X0193267Y0052097D01*
X0194074Y0052097D01*
X0195232Y0052576D01*
X0196118Y0053463D01*
X0196597Y0054620D01*
X0196597Y0055509D01*
X0200058Y0055509D01*
X0200140Y0055427D01*
X0200140Y0054620D01*
X0200619Y0053463D01*
X0201505Y0052576D01*
X0202663Y0052097D01*
X0203916Y0052097D01*
X0205074Y0052576D01*
X0205960Y0053463D01*
X0206440Y0054620D01*
X0206440Y0055873D01*
X0205960Y0057031D01*
X0205074Y0057917D01*
X0203916Y0058397D01*
X0203110Y0058397D01*
X0201797Y0059709D01*
X0191199Y0059709D01*
X0189969Y0058479D01*
X0186081Y0054591D01*
X0144075Y0054591D01*
X0146503Y0057018D01*
X0147027Y0057018D01*
X0148184Y0057498D01*
X0149070Y0058384D01*
X0149440Y0059276D01*
X0151436Y0057281D01*
X0165896Y0057281D01*
X0166466Y0056710D01*
X0167624Y0056231D01*
X0168877Y0056231D01*
X0170035Y0056710D01*
X0170921Y0057596D01*
X0171400Y0058754D01*
X0171400Y0060007D01*
X0170921Y0061165D01*
X0170035Y0062051D01*
X0168877Y0062531D01*
X0167624Y0062531D01*
X0166466Y0062051D01*
X0165896Y0061481D01*
X0153175Y0061481D01*
X0143727Y0070930D01*
X0106554Y0070930D01*
X0104662Y0069038D02*
X0062480Y0069038D01*
X0062480Y0067439D02*
X0101579Y0067439D01*
X0100470Y0065841D02*
X0076501Y0065841D01*
X0076146Y0066196D02*
X0074472Y0066889D01*
X0067147Y0066889D01*
X0065473Y0066196D01*
X0064191Y0064914D01*
X0063498Y0063240D01*
X0063498Y0061427D01*
X0064191Y0059753D01*
X0065473Y0058471D01*
X0067147Y0057778D01*
X0074472Y0057778D01*
X0076146Y0058471D01*
X0077428Y0059753D01*
X0078121Y0061427D01*
X0078121Y0063240D01*
X0077428Y0064914D01*
X0076146Y0066196D01*
X0077706Y0064242D02*
X0100346Y0064242D01*
X0101281Y0062644D02*
X0078121Y0062644D01*
X0077963Y0061045D02*
X0116072Y0061045D01*
X0114473Y0059447D02*
X0077122Y0059447D01*
X0074642Y0057848D02*
X0112875Y0057848D01*
X0111276Y0056250D02*
X0062480Y0056250D01*
X0062480Y0057848D02*
X0066977Y0057848D01*
X0064497Y0059447D02*
X0062480Y0059447D01*
X0062480Y0061045D02*
X0063656Y0061045D01*
X0063498Y0062644D02*
X0062480Y0062644D01*
X0062480Y0064242D02*
X0063913Y0064242D01*
X0065118Y0065841D02*
X0062480Y0065841D01*
X0062480Y0054651D02*
X0109678Y0054651D01*
X0109061Y0053053D02*
X0062480Y0053053D01*
X0062480Y0051454D02*
X0067925Y0051454D01*
X0068500Y0052029D02*
X0067216Y0050745D01*
X0066521Y0049068D01*
X0066521Y0047252D01*
X0067216Y0045575D01*
X0068500Y0044291D01*
X0070177Y0043596D01*
X0071993Y0043596D01*
X0073670Y0044291D01*
X0074954Y0045575D01*
X0075649Y0047252D01*
X0075649Y0049068D01*
X0074954Y0050745D01*
X0073670Y0052029D01*
X0071993Y0052724D01*
X0070177Y0052724D01*
X0068500Y0052029D01*
X0066848Y0049856D02*
X0062480Y0049856D01*
X0062480Y0048257D02*
X0066521Y0048257D01*
X0066767Y0046659D02*
X0062480Y0046659D01*
X0062480Y0045060D02*
X0067731Y0045060D01*
X0062480Y0043462D02*
X0109061Y0043462D01*
X0109061Y0045060D02*
X0074439Y0045060D01*
X0075403Y0046659D02*
X0109061Y0046659D01*
X0109061Y0048257D02*
X0075649Y0048257D01*
X0075323Y0049856D02*
X0109061Y0049856D01*
X0109061Y0051454D02*
X0074245Y0051454D01*
X0062480Y0041863D02*
X0109061Y0041863D01*
X0109061Y0040265D02*
X0062480Y0040265D01*
X0062480Y0038666D02*
X0109061Y0038666D01*
X0109061Y0037068D02*
X0062480Y0037068D01*
X0062480Y0035469D02*
X0109061Y0035469D01*
X0113661Y0035469D02*
X0126968Y0035469D01*
X0125369Y0037068D02*
X0120155Y0037068D01*
X0121803Y0038666D02*
X0123771Y0038666D01*
X0116031Y0037068D02*
X0113661Y0037068D01*
X0113661Y0038666D02*
X0114382Y0038666D01*
X0113843Y0040265D02*
X0113661Y0040265D01*
X0113661Y0041863D02*
X0113927Y0041863D01*
X0113661Y0043462D02*
X0114730Y0043462D01*
X0113661Y0045060D02*
X0116049Y0045060D01*
X0114385Y0046659D02*
X0113661Y0046659D01*
X0113661Y0048257D02*
X0113843Y0048257D01*
X0113924Y0049856D02*
X0113661Y0049856D01*
X0113661Y0051454D02*
X0114723Y0051454D01*
X0114585Y0053053D02*
X0117221Y0053053D01*
X0118965Y0053053D02*
X0130803Y0053053D01*
X0130293Y0054651D02*
X0116183Y0054651D01*
X0117782Y0056250D02*
X0130061Y0056250D01*
X0130767Y0057848D02*
X0119380Y0057848D01*
X0120979Y0059447D02*
X0142426Y0059447D01*
X0143354Y0061045D02*
X0122577Y0061045D01*
X0125378Y0062644D02*
X0144421Y0062644D01*
X0144474Y0064242D02*
X0126312Y0064242D01*
X0126188Y0065841D02*
X0142876Y0065841D01*
X0147217Y0067439D02*
X0235045Y0067439D01*
X0235045Y0065841D02*
X0148815Y0065841D01*
X0150414Y0064242D02*
X0235045Y0064242D01*
X0235045Y0062644D02*
X0152012Y0062644D01*
X0150868Y0057848D02*
X0148535Y0057848D01*
X0145734Y0056250D02*
X0167578Y0056250D01*
X0168923Y0056250D02*
X0187740Y0056250D01*
X0189339Y0057848D02*
X0171025Y0057848D01*
X0171400Y0059447D02*
X0190937Y0059447D01*
X0202060Y0059447D02*
X0235045Y0059447D01*
X0235045Y0061045D02*
X0170970Y0061045D01*
X0186142Y0054651D02*
X0144136Y0054651D01*
X0129204Y0051454D02*
X0121463Y0051454D01*
X0123093Y0049856D02*
X0123093Y0049856D01*
X0125289Y0049856D02*
X0125897Y0049856D01*
X0123093Y0048257D02*
X0123093Y0048257D01*
X0123093Y0047359D02*
X0123093Y0047359D01*
X0146409Y0048257D02*
X0221372Y0048257D01*
X0221372Y0046659D02*
X0146597Y0046659D01*
X0154242Y0045060D02*
X0221372Y0045060D01*
X0221372Y0043462D02*
X0211154Y0043462D01*
X0211558Y0041863D02*
X0221372Y0041863D01*
X0221372Y0040265D02*
X0211156Y0040265D01*
X0208577Y0038666D02*
X0221372Y0038666D01*
X0221372Y0037068D02*
X0191873Y0037068D01*
X0191523Y0035469D02*
X0221372Y0035469D01*
X0221372Y0033871D02*
X0189545Y0033871D01*
X0189153Y0026507D02*
X0187899Y0026507D01*
X0186742Y0026028D01*
X0186065Y0025351D01*
X0185389Y0026028D01*
X0184231Y0026507D01*
X0182978Y0026507D01*
X0181820Y0026028D01*
X0180934Y0025141D01*
X0180455Y0023984D01*
X0180455Y0022730D01*
X0180934Y0021573D01*
X0181820Y0020687D01*
X0182978Y0020207D01*
X0183785Y0020207D01*
X0188985Y0015007D01*
X0190215Y0013777D01*
X0205144Y0013777D01*
X0206653Y0015286D01*
X0207066Y0015286D01*
X0208224Y0015765D01*
X0209110Y0016651D01*
X0209589Y0017809D01*
X0209589Y0019062D01*
X0209110Y0020220D01*
X0208224Y0021106D01*
X0207066Y0021586D01*
X0205813Y0021586D01*
X0204655Y0021106D01*
X0204176Y0020627D01*
X0203696Y0021106D01*
X0202538Y0021586D01*
X0201285Y0021586D01*
X0200127Y0021106D01*
X0199557Y0020536D01*
X0194317Y0020536D01*
X0191676Y0023177D01*
X0191676Y0023984D01*
X0191196Y0025141D01*
X0190310Y0026028D01*
X0189153Y0026507D01*
X0190460Y0025878D02*
X0221372Y0025878D01*
X0221372Y0024280D02*
X0191553Y0024280D01*
X0192172Y0022681D02*
X0235045Y0022681D01*
X0235045Y0021083D02*
X0208247Y0021083D01*
X0204631Y0021083D02*
X0203720Y0021083D01*
X0200104Y0021083D02*
X0193770Y0021083D01*
X0184508Y0019484D02*
X0113714Y0019484D01*
X0114511Y0021083D02*
X0181424Y0021083D01*
X0180475Y0022681D02*
X0114316Y0022681D01*
X0113661Y0024280D02*
X0146940Y0024280D01*
X0149797Y0024280D02*
X0180577Y0024280D01*
X0181671Y0025878D02*
X0151273Y0025878D01*
X0151518Y0027477D02*
X0221372Y0027477D01*
X0221372Y0029075D02*
X0150845Y0029075D01*
X0147959Y0030674D02*
X0221372Y0030674D01*
X0221372Y0032272D02*
X0150912Y0032272D01*
X0142797Y0029075D02*
X0113661Y0029075D01*
X0113661Y0027477D02*
X0145216Y0027477D01*
X0145464Y0025878D02*
X0113661Y0025878D01*
X0109061Y0025878D02*
X0062480Y0025878D01*
X0062480Y0024280D02*
X0109061Y0024280D01*
X0108405Y0022681D02*
X0062480Y0022681D01*
X0062480Y0021083D02*
X0108211Y0021083D01*
X0109007Y0019484D02*
X0076795Y0019484D01*
X0077428Y0018851D02*
X0076146Y0020133D01*
X0074472Y0020826D01*
X0067147Y0020826D01*
X0065473Y0020133D01*
X0064191Y0018851D01*
X0063498Y0017177D01*
X0063498Y0015364D01*
X0064191Y0013690D01*
X0065473Y0012408D01*
X0067147Y0011715D01*
X0074472Y0011715D01*
X0076146Y0012408D01*
X0077428Y0013690D01*
X0078121Y0015364D01*
X0078121Y0017177D01*
X0077428Y0018851D01*
X0077828Y0017886D02*
X0186106Y0017886D01*
X0187705Y0016287D02*
X0078121Y0016287D01*
X0077841Y0014688D02*
X0189303Y0014688D01*
X0206056Y0014688D02*
X0235045Y0014688D01*
X0235045Y0013090D02*
X0076828Y0013090D01*
X0064791Y0013090D02*
X0062480Y0013090D01*
X0062480Y0014688D02*
X0063778Y0014688D01*
X0063498Y0016287D02*
X0062480Y0016287D01*
X0062480Y0017886D02*
X0063791Y0017886D01*
X0064824Y0019484D02*
X0062480Y0019484D01*
X0068500Y0026575D02*
X0070177Y0025880D01*
X0071993Y0025880D01*
X0073670Y0026575D01*
X0074954Y0027859D01*
X0075649Y0029536D01*
X0075649Y0031351D01*
X0074954Y0033029D01*
X0073670Y0034313D01*
X0071993Y0035007D01*
X0070177Y0035007D01*
X0068500Y0034313D01*
X0067216Y0033029D01*
X0066521Y0031351D01*
X0066521Y0029536D01*
X0067216Y0027859D01*
X0068500Y0026575D01*
X0067598Y0027477D02*
X0062480Y0027477D01*
X0062480Y0029075D02*
X0066712Y0029075D01*
X0066521Y0030674D02*
X0062480Y0030674D01*
X0062480Y0032272D02*
X0066903Y0032272D01*
X0068058Y0033871D02*
X0062480Y0033871D01*
X0074112Y0033871D02*
X0109061Y0033871D01*
X0109061Y0032272D02*
X0075267Y0032272D01*
X0075649Y0030674D02*
X0109061Y0030674D01*
X0109061Y0029075D02*
X0075458Y0029075D01*
X0074572Y0027477D02*
X0109061Y0027477D01*
X0113661Y0030674D02*
X0140676Y0030674D01*
X0140297Y0032272D02*
X0113661Y0032272D01*
X0113661Y0033871D02*
X0140723Y0033871D01*
X0143765Y0035469D02*
X0145607Y0035469D01*
X0145364Y0037068D02*
X0146148Y0037068D01*
X0185539Y0025878D02*
X0186592Y0025878D01*
X0209415Y0019484D02*
X0235045Y0019484D01*
X0235045Y0017886D02*
X0209589Y0017886D01*
X0208745Y0016287D02*
X0235045Y0016287D01*
X0235045Y0011491D02*
X0062480Y0011491D01*
X0062480Y0009893D02*
X0235045Y0009893D01*
X0235045Y0008294D02*
X0062480Y0008294D01*
X0062480Y0006696D02*
X0235045Y0006696D01*
X0235045Y0005097D02*
X0062480Y0005097D01*
X0191026Y0049856D02*
X0221372Y0049856D01*
X0221372Y0051454D02*
X0192624Y0051454D01*
X0195708Y0053053D02*
X0201029Y0053053D01*
X0200140Y0054651D02*
X0196597Y0054651D01*
X0205550Y0053053D02*
X0221372Y0053053D01*
X0221372Y0054651D02*
X0206440Y0054651D01*
X0206284Y0056250D02*
X0235045Y0056250D01*
X0235045Y0057848D02*
X0205143Y0057848D01*
X0235045Y0069038D02*
X0145618Y0069038D01*
X0144020Y0070636D02*
X0235045Y0070636D01*
X0205661Y0043462D02*
X0201115Y0043462D01*
X0120155Y0065841D02*
X0107405Y0065841D01*
X0106627Y0064242D02*
X0119269Y0064242D01*
X0117670Y0062644D02*
X0105693Y0062644D01*
D13*
X0103487Y0064893D03*
X0123172Y0064893D03*
X0146400Y0060168D03*
X0133211Y0055837D03*
X0123172Y0051310D03*
X0143447Y0047176D03*
X0148762Y0046782D03*
X0162542Y0046782D03*
X0148565Y0039105D03*
X0148565Y0034381D03*
X0143447Y0032215D03*
X0148369Y0027097D03*
X0162345Y0026704D03*
X0162345Y0022767D03*
X0162345Y0018830D03*
X0166282Y0018830D03*
X0170219Y0018830D03*
X0183605Y0023357D03*
X0188526Y0023357D03*
X0193447Y0023357D03*
X0198369Y0023357D03*
X0203290Y0023357D03*
X0208408Y0023357D03*
X0220809Y0025719D03*
X0222384Y0022176D03*
X0226321Y0022176D03*
X0230258Y0022176D03*
X0234195Y0022176D03*
X0220809Y0029656D03*
X0220809Y0033593D03*
X0220809Y0037530D03*
X0220809Y0041467D03*
X0220809Y0045404D03*
X0220809Y0049341D03*
X0220809Y0053278D03*
X0222581Y0056428D03*
X0226518Y0056428D03*
X0230455Y0056428D03*
X0234392Y0056428D03*
X0203290Y0055247D03*
X0193447Y0055247D03*
X0168250Y0059381D03*
X0166872Y0073751D03*
X0162935Y0073751D03*
X0158998Y0073751D03*
X0225928Y0073751D03*
X0229865Y0073751D03*
X0233802Y0073751D03*
X0208408Y0041861D03*
X0198369Y0041861D03*
X0198369Y0036940D03*
X0203290Y0036940D03*
X0208408Y0036940D03*
X0193447Y0036940D03*
X0188723Y0036940D03*
X0183605Y0036940D03*
X0201912Y0018436D03*
X0206439Y0018436D03*
X0225140Y0005050D03*
X0229077Y0005050D03*
X0233014Y0005050D03*
X0152109Y0008200D03*
X0152109Y0012137D03*
X0152109Y0016074D03*
X0111361Y0021585D03*
X0089117Y0051507D03*
X0089117Y0055444D03*
D14*
X0103487Y0064893D02*
X0107424Y0068830D01*
X0142857Y0068830D01*
X0152306Y0059381D01*
X0168250Y0059381D01*
X0186951Y0052491D02*
X0192069Y0057609D01*
X0200928Y0057609D01*
X0203290Y0055247D01*
X0193447Y0055247D02*
X0189117Y0050916D01*
X0134589Y0050916D01*
X0133093Y0049420D01*
X0133093Y0047314D01*
X0128093Y0047314D02*
X0128093Y0047373D01*
X0133211Y0052491D01*
X0186951Y0052491D01*
X0198172Y0042058D02*
X0198369Y0041861D01*
X0198172Y0042058D02*
X0154274Y0042058D01*
X0152896Y0043436D01*
X0145022Y0043436D01*
X0140691Y0039105D01*
X0131833Y0039105D01*
X0128624Y0042314D01*
X0128093Y0042314D01*
X0127876Y0037530D02*
X0123093Y0042314D01*
X0127876Y0037530D02*
X0142857Y0037530D01*
X0147187Y0041861D01*
X0149746Y0041861D01*
X0150928Y0040680D01*
X0196006Y0040680D01*
X0197187Y0039499D01*
X0199746Y0039499D01*
X0200928Y0040680D01*
X0207620Y0040680D01*
X0208408Y0041467D01*
X0208408Y0041861D01*
X0188723Y0036940D02*
X0186164Y0034381D01*
X0148565Y0034381D01*
X0143447Y0032215D02*
X0148369Y0027294D01*
X0148369Y0027097D01*
X0148565Y0039105D02*
X0181439Y0039105D01*
X0183605Y0036940D01*
X0183605Y0023357D02*
X0191085Y0015877D01*
X0204274Y0015877D01*
X0206439Y0018042D01*
X0206439Y0018436D01*
X0201912Y0018436D02*
X0193447Y0018436D01*
X0188526Y0023357D01*
D15*
X0143447Y0044420D02*
X0139707Y0040680D01*
X0134727Y0040680D01*
X0133093Y0042314D01*
X0143447Y0044420D02*
X0143447Y0047176D01*
X0142069Y0055837D02*
X0133211Y0055837D01*
X0142069Y0055837D02*
X0146400Y0060168D01*
X0146794Y0059774D01*
X0123172Y0064893D02*
X0111361Y0053081D01*
X0111361Y0021585D01*
M02*
