G75*
G70*
%OFA0B0*%
%FSLAX24Y24*%
%IPPOS*%
%LPD*%
%AMOC8*
5,1,8,0,0,1.08239X$1,22.5*
%
%ADD10C,0.0000*%
%ADD11C,0.0040*%
%ADD12C,0.0160*%
%ADD13R,0.0500X0.0500*%
%ADD14C,0.0060*%
%ADD15C,0.0050*%
%ADD16C,0.0030*%
%ADD17C,0.0080*%
%ADD18R,0.0200X0.0200*%
%ADD19R,0.0197X0.0374*%
%ADD20R,0.0180X0.0300*%
%ADD21C,0.0020*%
%ADD22R,0.0197X0.0128*%
%ADD23R,0.0098X0.0059*%
%ADD24R,0.0069X0.0157*%
%ADD25R,0.0079X0.0079*%
%ADD26R,0.0118X0.0118*%
%ADD27R,0.0030X0.0128*%
%ADD28R,0.0160X0.0340*%
%ADD29C,0.0220*%
%ADD30R,0.0256X0.0197*%
D10*
X000750Y001050D02*
X000750Y010050D01*
X015750Y010050D01*
X015750Y001050D01*
X000750Y001050D01*
D11*
X000870Y002170D02*
X000870Y002402D01*
X000986Y002402D01*
X001025Y002363D01*
X001025Y002286D01*
X000986Y002247D01*
X000870Y002247D01*
X001120Y002170D02*
X001275Y002170D01*
X001198Y002170D02*
X001198Y002402D01*
X001120Y002325D01*
X001371Y002363D02*
X001410Y002402D01*
X001487Y002402D01*
X001526Y002363D01*
X001526Y002325D01*
X001371Y002170D01*
X001526Y002170D01*
X001872Y002170D02*
X001872Y002402D01*
X001988Y002402D01*
X002027Y002363D01*
X002027Y002286D01*
X001988Y002247D01*
X001872Y002247D01*
X002122Y002170D02*
X002277Y002170D01*
X002200Y002170D02*
X002200Y002402D01*
X002122Y002325D01*
X002373Y002325D02*
X002450Y002402D01*
X002450Y002170D01*
X002373Y002170D02*
X002528Y002170D01*
X002874Y002170D02*
X002874Y002402D01*
X002990Y002402D01*
X003028Y002363D01*
X003028Y002286D01*
X002990Y002247D01*
X002874Y002247D01*
X003124Y002170D02*
X003279Y002170D01*
X003201Y002170D02*
X003201Y002402D01*
X003124Y002325D01*
X003375Y002363D02*
X003375Y002209D01*
X003529Y002363D01*
X003529Y002209D01*
X003491Y002170D01*
X003413Y002170D01*
X003375Y002209D01*
X003375Y002363D02*
X003413Y002402D01*
X003491Y002402D01*
X003529Y002363D01*
X003875Y002402D02*
X003875Y002170D01*
X003875Y002247D02*
X003992Y002247D01*
X004030Y002286D01*
X004030Y002363D01*
X003992Y002402D01*
X003875Y002402D01*
X004126Y002363D02*
X004126Y002209D01*
X004281Y002363D01*
X004281Y002209D01*
X004242Y002170D01*
X004165Y002170D01*
X004126Y002209D01*
X004376Y002209D02*
X004376Y002170D01*
X004376Y002209D02*
X004531Y002363D01*
X004531Y002402D01*
X004376Y002402D01*
X004281Y002363D02*
X004242Y002402D01*
X004165Y002402D01*
X004126Y002363D01*
X004877Y002402D02*
X004877Y002247D01*
X004955Y002170D01*
X005032Y002247D01*
X005032Y002402D01*
X005128Y002402D02*
X005244Y002402D01*
X005283Y002363D01*
X005283Y002209D01*
X005244Y002170D01*
X005128Y002170D01*
X005128Y002402D01*
X005378Y002402D02*
X005494Y002402D01*
X005533Y002363D01*
X005533Y002209D01*
X005494Y002170D01*
X005378Y002170D01*
X005378Y002402D01*
X005395Y002670D02*
X005362Y002703D01*
X005395Y002670D02*
X005462Y002670D01*
X005495Y002703D01*
X005495Y002737D01*
X005462Y002770D01*
X005395Y002770D01*
X005362Y002803D01*
X005362Y002837D01*
X005395Y002870D01*
X005462Y002870D01*
X005495Y002837D01*
X005583Y002870D02*
X005583Y002670D01*
X005716Y002670D01*
X005650Y002770D02*
X005583Y002770D01*
X005583Y002870D02*
X005716Y002870D01*
X005804Y002870D02*
X005937Y002870D01*
X005871Y002870D02*
X005871Y002670D01*
X005918Y002402D02*
X005879Y002363D01*
X005879Y002209D01*
X005918Y002170D01*
X005995Y002170D01*
X006034Y002209D01*
X006034Y002286D01*
X005956Y002286D01*
X006034Y002363D02*
X005995Y002402D01*
X005918Y002402D01*
X006130Y002402D02*
X006130Y002170D01*
X006284Y002170D02*
X006284Y002402D01*
X006380Y002402D02*
X006496Y002402D01*
X006535Y002363D01*
X006535Y002209D01*
X006496Y002170D01*
X006380Y002170D01*
X006380Y002402D01*
X006130Y002402D02*
X006284Y002170D01*
X006881Y002170D02*
X006881Y002402D01*
X006997Y002402D01*
X007036Y002363D01*
X007036Y002286D01*
X006997Y002247D01*
X006881Y002247D01*
X007131Y002209D02*
X007286Y002363D01*
X007286Y002209D01*
X007247Y002170D01*
X007170Y002170D01*
X007131Y002209D01*
X007131Y002363D01*
X007170Y002402D01*
X007247Y002402D01*
X007286Y002363D01*
X007382Y002286D02*
X007498Y002286D01*
X007537Y002247D01*
X007537Y002209D01*
X007498Y002170D01*
X007421Y002170D01*
X007382Y002209D01*
X007382Y002286D01*
X007459Y002363D01*
X007537Y002402D01*
X007883Y002402D02*
X007883Y002170D01*
X007883Y002247D02*
X007999Y002247D01*
X008038Y002286D01*
X008038Y002363D01*
X007999Y002402D01*
X007883Y002402D01*
X008133Y002363D02*
X008133Y002209D01*
X008288Y002363D01*
X008288Y002209D01*
X008249Y002170D01*
X008172Y002170D01*
X008133Y002209D01*
X008384Y002209D02*
X008422Y002170D01*
X008500Y002170D01*
X008538Y002209D01*
X008538Y002286D01*
X008500Y002325D01*
X008461Y002325D01*
X008384Y002286D01*
X008384Y002402D01*
X008538Y002402D01*
X008288Y002363D02*
X008249Y002402D01*
X008172Y002402D01*
X008133Y002363D01*
X008885Y002402D02*
X008885Y002170D01*
X008885Y002247D02*
X009001Y002247D01*
X009039Y002286D01*
X009039Y002363D01*
X009001Y002402D01*
X008885Y002402D01*
X009135Y002363D02*
X009135Y002209D01*
X009290Y002363D01*
X009290Y002209D01*
X009251Y002170D01*
X009174Y002170D01*
X009135Y002209D01*
X009385Y002286D02*
X009540Y002286D01*
X009502Y002170D02*
X009502Y002402D01*
X009385Y002286D01*
X009290Y002363D02*
X009251Y002402D01*
X009174Y002402D01*
X009135Y002363D01*
X009886Y002402D02*
X009886Y002170D01*
X009886Y002247D02*
X010002Y002247D01*
X010041Y002286D01*
X010041Y002363D01*
X010002Y002402D01*
X009886Y002402D01*
X010137Y002363D02*
X010137Y002209D01*
X010292Y002363D01*
X010292Y002209D01*
X010253Y002170D01*
X010175Y002170D01*
X010137Y002209D01*
X010137Y002363D02*
X010175Y002402D01*
X010253Y002402D01*
X010292Y002363D01*
X010387Y002363D02*
X010426Y002402D01*
X010503Y002402D01*
X010542Y002363D01*
X010542Y002325D01*
X010503Y002286D01*
X010542Y002247D01*
X010542Y002209D01*
X010503Y002170D01*
X010426Y002170D01*
X010387Y002209D01*
X010465Y002286D02*
X010503Y002286D01*
X010888Y002247D02*
X011004Y002247D01*
X011043Y002286D01*
X011043Y002363D01*
X011004Y002402D01*
X010888Y002402D01*
X010888Y002170D01*
X011139Y002209D02*
X011293Y002363D01*
X011293Y002209D01*
X011255Y002170D01*
X011177Y002170D01*
X011139Y002209D01*
X011139Y002363D01*
X011177Y002402D01*
X011255Y002402D01*
X011293Y002363D01*
X011389Y002363D02*
X011428Y002402D01*
X011505Y002402D01*
X011544Y002363D01*
X011544Y002325D01*
X011389Y002170D01*
X011544Y002170D01*
X011890Y002170D02*
X011890Y002402D01*
X012006Y002402D01*
X012045Y002363D01*
X012045Y002286D01*
X012006Y002247D01*
X011890Y002247D01*
X012140Y002209D02*
X012295Y002363D01*
X012295Y002209D01*
X012257Y002170D01*
X012179Y002170D01*
X012140Y002209D01*
X012140Y002363D01*
X012179Y002402D01*
X012257Y002402D01*
X012295Y002363D01*
X012391Y002325D02*
X012468Y002402D01*
X012468Y002170D01*
X012391Y002170D02*
X012546Y002170D01*
X012892Y002170D02*
X012892Y002402D01*
X013008Y002402D01*
X013047Y002363D01*
X013047Y002286D01*
X013008Y002247D01*
X012892Y002247D01*
X013142Y002209D02*
X013297Y002363D01*
X013297Y002209D01*
X013258Y002170D01*
X013181Y002170D01*
X013142Y002209D01*
X013142Y002363D01*
X013181Y002402D01*
X013258Y002402D01*
X013297Y002363D01*
X013393Y002363D02*
X013431Y002402D01*
X013509Y002402D01*
X013547Y002363D01*
X013393Y002209D01*
X013431Y002170D01*
X013509Y002170D01*
X013547Y002209D01*
X013547Y002363D01*
X013393Y002363D02*
X013393Y002209D01*
X013894Y002247D02*
X014010Y002247D01*
X014048Y002286D01*
X014048Y002363D01*
X014010Y002402D01*
X013894Y002402D01*
X013894Y002170D01*
X013971Y002247D02*
X014048Y002170D01*
X014144Y002170D02*
X014299Y002170D01*
X014395Y002209D02*
X014433Y002170D01*
X014511Y002170D01*
X014549Y002209D01*
X014549Y002247D01*
X014511Y002286D01*
X014433Y002286D01*
X014395Y002325D01*
X014395Y002363D01*
X014433Y002402D01*
X014511Y002402D01*
X014549Y002363D01*
X014299Y002402D02*
X014144Y002402D01*
X014144Y002170D01*
X014144Y002286D02*
X014221Y002286D01*
X014895Y002209D02*
X014934Y002170D01*
X015012Y002170D01*
X015050Y002209D01*
X015050Y002286D01*
X014973Y002286D01*
X015050Y002363D02*
X015012Y002402D01*
X014934Y002402D01*
X014895Y002363D01*
X014895Y002209D01*
X015146Y002170D02*
X015146Y002402D01*
X015301Y002170D01*
X015301Y002402D01*
X015396Y002402D02*
X015512Y002402D01*
X015551Y002363D01*
X015551Y002209D01*
X015512Y002170D01*
X015396Y002170D01*
X015396Y002402D01*
X014800Y004870D02*
X014800Y005177D01*
X014646Y005330D01*
X014493Y005177D01*
X014493Y004870D01*
X014493Y005100D02*
X014800Y005100D01*
X014339Y005100D02*
X014032Y005100D01*
X013879Y005177D02*
X013879Y005254D01*
X013802Y005330D01*
X013649Y005330D01*
X013572Y005254D01*
X013265Y005330D02*
X013265Y004870D01*
X013112Y004870D02*
X013418Y004870D01*
X013572Y004870D02*
X013879Y005177D01*
X013879Y004870D02*
X013572Y004870D01*
X013112Y005177D02*
X013265Y005330D01*
X013188Y005517D02*
X013112Y005517D01*
X013188Y005517D02*
X013265Y005593D01*
X013265Y005977D01*
X013035Y005977D01*
X012958Y005900D01*
X012958Y005747D01*
X013035Y005670D01*
X013265Y005670D01*
X013418Y005670D02*
X013572Y005670D01*
X013495Y005670D02*
X013495Y005977D01*
X013418Y005977D01*
X013495Y006130D02*
X013495Y006207D01*
X013725Y005900D02*
X013725Y005747D01*
X013802Y005670D01*
X014032Y005670D01*
X014032Y005593D02*
X014032Y005977D01*
X013802Y005977D01*
X013725Y005900D01*
X014032Y005593D02*
X013956Y005517D01*
X013879Y005517D01*
X014186Y005747D02*
X014263Y005823D01*
X014493Y005823D01*
X014493Y005900D02*
X014493Y005670D01*
X014263Y005670D01*
X014186Y005747D01*
X014263Y005977D02*
X014416Y005977D01*
X014493Y005900D01*
X012805Y005900D02*
X012805Y005823D01*
X012498Y005823D01*
X012498Y005747D02*
X012498Y005900D01*
X012574Y005977D01*
X012728Y005977D01*
X012805Y005900D01*
X012728Y005670D02*
X012574Y005670D01*
X012498Y005747D01*
X012344Y005670D02*
X012344Y005977D01*
X012037Y005977D02*
X012037Y005747D01*
X012114Y005670D01*
X012344Y005670D01*
X011884Y005670D02*
X011730Y005670D01*
X011807Y005670D02*
X011807Y006130D01*
X011730Y006130D01*
X011577Y006054D02*
X011577Y005977D01*
X011500Y005900D01*
X011270Y005900D01*
X011500Y005900D02*
X011577Y005823D01*
X011577Y005747D01*
X011500Y005670D01*
X011270Y005670D01*
X011270Y006130D01*
X011500Y006130D01*
X011577Y006054D01*
X011500Y005330D02*
X011270Y005330D01*
X011270Y004870D01*
X011500Y004870D01*
X011577Y004947D01*
X011577Y005023D01*
X011500Y005100D01*
X011270Y005100D01*
X011500Y005100D02*
X011577Y005177D01*
X011577Y005254D01*
X011500Y005330D01*
X011730Y005330D02*
X011730Y004870D01*
X012037Y004870D01*
X012191Y004870D02*
X012498Y004870D01*
X012651Y004870D02*
X012958Y004870D01*
X012805Y004870D02*
X012805Y005330D01*
X012651Y005177D01*
X012498Y005330D02*
X012191Y005330D01*
X012191Y004870D01*
X012191Y005100D02*
X012344Y005100D01*
X007490Y005185D02*
X007210Y005185D01*
X007210Y005520D02*
X007490Y005520D01*
X007490Y005985D02*
X007210Y005985D01*
X007210Y006320D02*
X007490Y006320D01*
X007490Y006785D02*
X007210Y006785D01*
X007210Y007120D02*
X007490Y007120D01*
X006432Y007630D02*
X006366Y007697D01*
X006399Y007697D02*
X006299Y007697D01*
X006299Y007630D02*
X006299Y007830D01*
X006399Y007830D01*
X006432Y007797D01*
X006432Y007730D01*
X006399Y007697D01*
X006211Y007697D02*
X006211Y007663D01*
X006178Y007630D01*
X006111Y007630D01*
X006078Y007663D01*
X006111Y007730D02*
X006078Y007763D01*
X006078Y007797D01*
X006111Y007830D01*
X006178Y007830D01*
X006211Y007797D01*
X006178Y007730D02*
X006211Y007697D01*
X006178Y007730D02*
X006111Y007730D01*
X005990Y007663D02*
X005957Y007630D01*
X005890Y007630D01*
X005857Y007663D01*
X005857Y007830D01*
X005786Y007924D02*
X006347Y007924D01*
X006515Y008013D02*
X006493Y008018D01*
X006473Y008026D01*
X006455Y008037D01*
X006438Y008052D01*
X006424Y008068D01*
X006412Y008087D01*
X006404Y008107D01*
X006399Y008128D01*
X006397Y008150D01*
X006399Y008172D01*
X006404Y008193D01*
X006412Y008213D01*
X006424Y008232D01*
X006438Y008248D01*
X006455Y008263D01*
X006473Y008274D01*
X006493Y008282D01*
X006515Y008287D01*
X006357Y008376D02*
X005943Y008376D01*
X005785Y008287D02*
X005807Y008282D01*
X005827Y008274D01*
X005845Y008263D01*
X005862Y008248D01*
X005876Y008232D01*
X005888Y008213D01*
X005896Y008193D01*
X005901Y008172D01*
X005903Y008150D01*
X005901Y008128D01*
X005896Y008107D01*
X005888Y008087D01*
X005876Y008068D01*
X005862Y008052D01*
X005845Y008037D01*
X005827Y008026D01*
X005807Y008018D01*
X005785Y008013D01*
X005774Y007973D02*
X005776Y007985D01*
X005781Y007996D01*
X005789Y008005D01*
X005800Y008011D01*
X005812Y008014D01*
X005824Y008013D01*
X005836Y008009D01*
X005845Y008001D01*
X005852Y007991D01*
X005856Y007979D01*
X005856Y007967D01*
X005852Y007955D01*
X005845Y007945D01*
X005835Y007937D01*
X005824Y007933D01*
X005812Y007932D01*
X005800Y007935D01*
X005789Y007941D01*
X005781Y007950D01*
X005776Y007961D01*
X005774Y007973D01*
X005990Y007830D02*
X005990Y007663D01*
X005115Y008013D02*
X005093Y008018D01*
X005073Y008026D01*
X005055Y008037D01*
X005038Y008052D01*
X005024Y008068D01*
X005012Y008087D01*
X005004Y008107D01*
X004999Y008128D01*
X004997Y008150D01*
X004999Y008172D01*
X005004Y008193D01*
X005012Y008213D01*
X005024Y008232D01*
X005038Y008248D01*
X005055Y008263D01*
X005073Y008274D01*
X005093Y008282D01*
X005115Y008287D01*
X004957Y008376D02*
X004543Y008376D01*
X004385Y008287D02*
X004407Y008282D01*
X004427Y008274D01*
X004445Y008263D01*
X004462Y008248D01*
X004476Y008232D01*
X004488Y008213D01*
X004496Y008193D01*
X004501Y008172D01*
X004503Y008150D01*
X004501Y008128D01*
X004496Y008107D01*
X004488Y008087D01*
X004476Y008068D01*
X004462Y008052D01*
X004445Y008037D01*
X004427Y008026D01*
X004407Y008018D01*
X004385Y008013D01*
X004374Y007973D02*
X004376Y007985D01*
X004381Y007996D01*
X004389Y008005D01*
X004400Y008011D01*
X004412Y008014D01*
X004424Y008013D01*
X004436Y008009D01*
X004445Y008001D01*
X004452Y007991D01*
X004456Y007979D01*
X004456Y007967D01*
X004452Y007955D01*
X004445Y007945D01*
X004435Y007937D01*
X004424Y007933D01*
X004412Y007932D01*
X004400Y007935D01*
X004389Y007941D01*
X004381Y007950D01*
X004376Y007961D01*
X004374Y007973D01*
X004386Y007924D02*
X004947Y007924D01*
X004949Y007830D02*
X005049Y007830D01*
X005082Y007797D01*
X005082Y007730D01*
X005049Y007697D01*
X004949Y007697D01*
X005016Y007697D02*
X005082Y007630D01*
X004949Y007630D02*
X004949Y007830D01*
X004861Y007830D02*
X004861Y007630D01*
X004795Y007697D01*
X004728Y007630D01*
X004728Y007830D01*
X004640Y007797D02*
X004640Y007730D01*
X004607Y007697D01*
X004507Y007697D01*
X004507Y007630D02*
X004507Y007830D01*
X004607Y007830D01*
X004640Y007797D01*
X003690Y007115D02*
X003410Y007115D01*
X003410Y006780D02*
X003690Y006780D01*
X003690Y006315D02*
X003410Y006315D01*
X003410Y005980D02*
X003690Y005980D01*
X003690Y005520D02*
X003410Y005520D01*
X003410Y005185D02*
X003690Y005185D01*
X003690Y004720D02*
X003410Y004720D01*
X003410Y004385D02*
X003690Y004385D01*
X005036Y004397D02*
X005136Y004397D01*
X005169Y004430D01*
X005169Y004497D01*
X005136Y004530D01*
X005036Y004530D01*
X005036Y004330D01*
X005257Y004330D02*
X005257Y004530D01*
X005357Y004530D01*
X005390Y004497D01*
X005390Y004430D01*
X005357Y004397D01*
X005257Y004397D01*
X005324Y004397D02*
X005390Y004330D01*
X005478Y004363D02*
X005478Y004497D01*
X005511Y004530D01*
X005578Y004530D01*
X005611Y004497D01*
X005611Y004363D01*
X005578Y004330D01*
X005511Y004330D01*
X005478Y004363D01*
X005699Y004363D02*
X005699Y004497D01*
X005732Y004530D01*
X005799Y004530D01*
X005832Y004497D01*
X005832Y004430D02*
X005766Y004430D01*
X005832Y004430D02*
X005832Y004363D01*
X005799Y004330D01*
X005732Y004330D01*
X005699Y004363D01*
X007210Y004385D02*
X007490Y004385D01*
X007490Y004720D02*
X007210Y004720D01*
X007210Y003920D02*
X007490Y003920D01*
X007490Y003585D02*
X007210Y003585D01*
X007210Y003115D02*
X007490Y003115D01*
X007490Y002780D02*
X007210Y002780D01*
X005274Y002870D02*
X005141Y002870D01*
X005141Y002670D01*
X005274Y002670D01*
X005208Y002770D02*
X005141Y002770D01*
X005053Y002770D02*
X005053Y002837D01*
X005020Y002870D01*
X004920Y002870D01*
X004920Y002670D01*
X004920Y002737D02*
X005020Y002737D01*
X005053Y002770D01*
X004987Y002737D02*
X005053Y002670D01*
X001057Y007037D02*
X000890Y007037D01*
X000890Y007170D02*
X001057Y007170D01*
X001090Y007137D01*
X001090Y007070D01*
X001057Y007037D01*
X001057Y007258D02*
X001090Y007291D01*
X001090Y007358D01*
X001057Y007391D01*
X001023Y007391D01*
X000990Y007358D01*
X000990Y007291D01*
X000957Y007258D01*
X000923Y007258D01*
X000890Y007291D01*
X000890Y007358D01*
X000923Y007391D01*
X000890Y007479D02*
X000890Y007579D01*
X000923Y007612D01*
X000957Y007612D01*
X000990Y007579D01*
X000990Y007479D01*
X001090Y007479D02*
X001090Y007579D01*
X001057Y007612D01*
X001023Y007612D01*
X000990Y007579D01*
X001090Y007479D02*
X000890Y007479D01*
X002070Y007470D02*
X002070Y007370D01*
X002137Y007403D01*
X002170Y007403D01*
X002203Y007370D01*
X002203Y007303D01*
X002170Y007270D01*
X002103Y007270D01*
X002070Y007303D01*
X002291Y007337D02*
X002358Y007270D01*
X002424Y007337D01*
X002424Y007470D01*
X002291Y007470D02*
X002291Y007337D01*
X002203Y007470D02*
X002070Y007470D01*
X002122Y008670D02*
X002277Y008670D01*
X002200Y008670D02*
X002200Y008902D01*
X002122Y008825D01*
X002027Y008863D02*
X002027Y008786D01*
X001988Y008747D01*
X001872Y008747D01*
X001872Y008670D02*
X001872Y008902D01*
X001988Y008902D01*
X002027Y008863D01*
X002373Y008786D02*
X002528Y008786D01*
X002489Y008670D02*
X002489Y008902D01*
X002373Y008786D01*
X002874Y008747D02*
X002990Y008747D01*
X003028Y008786D01*
X003028Y008863D01*
X002990Y008902D01*
X002874Y008902D01*
X002874Y008670D01*
X003124Y008670D02*
X003279Y008670D01*
X003201Y008670D02*
X003201Y008902D01*
X003124Y008825D01*
X003375Y008786D02*
X003452Y008825D01*
X003491Y008825D01*
X003529Y008786D01*
X003529Y008709D01*
X003491Y008670D01*
X003413Y008670D01*
X003375Y008709D01*
X003375Y008786D02*
X003375Y008902D01*
X003529Y008902D01*
X004070Y008902D02*
X004070Y008709D01*
X004109Y008670D01*
X004186Y008670D01*
X004225Y008709D01*
X004225Y008902D01*
X004320Y008786D02*
X004475Y008786D01*
X005072Y008709D02*
X005111Y008670D01*
X005188Y008670D01*
X005227Y008709D01*
X005227Y008902D01*
X005322Y008786D02*
X005477Y008786D01*
X005400Y008863D02*
X005400Y008709D01*
X005072Y008709D02*
X005072Y008902D01*
X005879Y008863D02*
X005879Y008709D01*
X005918Y008670D01*
X005995Y008670D01*
X006034Y008709D01*
X006034Y008786D01*
X005956Y008786D01*
X005879Y008863D02*
X005918Y008902D01*
X005995Y008902D01*
X006034Y008863D01*
X006130Y008902D02*
X006130Y008670D01*
X006284Y008670D02*
X006284Y008902D01*
X006380Y008902D02*
X006496Y008902D01*
X006535Y008863D01*
X006535Y008709D01*
X006496Y008670D01*
X006380Y008670D01*
X006380Y008902D01*
X006130Y008902D02*
X006284Y008670D01*
X006881Y008747D02*
X006958Y008670D01*
X007036Y008747D01*
X007036Y008902D01*
X007131Y008902D02*
X007247Y008902D01*
X007286Y008863D01*
X007286Y008709D01*
X007247Y008670D01*
X007131Y008670D01*
X007131Y008902D01*
X007382Y008902D02*
X007498Y008902D01*
X007537Y008863D01*
X007537Y008709D01*
X007498Y008670D01*
X007382Y008670D01*
X007382Y008902D01*
X007883Y008902D02*
X007883Y008670D01*
X007883Y008747D02*
X007999Y008747D01*
X008038Y008786D01*
X008038Y008863D01*
X007999Y008902D01*
X007883Y008902D01*
X008133Y008825D02*
X008211Y008902D01*
X008211Y008670D01*
X008288Y008670D02*
X008133Y008670D01*
X008384Y008709D02*
X008384Y008786D01*
X008500Y008786D01*
X008538Y008747D01*
X008538Y008709D01*
X008500Y008670D01*
X008422Y008670D01*
X008384Y008709D01*
X008384Y008786D02*
X008461Y008863D01*
X008538Y008902D01*
X008885Y008902D02*
X008885Y008670D01*
X008885Y008747D02*
X009001Y008747D01*
X009039Y008786D01*
X009039Y008863D01*
X009001Y008902D01*
X008885Y008902D01*
X009135Y008825D02*
X009212Y008902D01*
X009212Y008670D01*
X009135Y008670D02*
X009290Y008670D01*
X009385Y008670D02*
X009385Y008709D01*
X009540Y008863D01*
X009540Y008902D01*
X009385Y008902D01*
X009886Y008902D02*
X009886Y008670D01*
X009886Y008747D02*
X010002Y008747D01*
X010041Y008786D01*
X010041Y008863D01*
X010002Y008902D01*
X009886Y008902D01*
X010137Y008863D02*
X010175Y008902D01*
X010253Y008902D01*
X010292Y008863D01*
X010292Y008825D01*
X010137Y008670D01*
X010292Y008670D01*
X010387Y008709D02*
X010542Y008863D01*
X010542Y008709D01*
X010503Y008670D01*
X010426Y008670D01*
X010387Y008709D01*
X010387Y008863D01*
X010426Y008902D01*
X010503Y008902D01*
X010542Y008863D01*
X010888Y008902D02*
X010888Y008670D01*
X010888Y008747D02*
X011004Y008747D01*
X011043Y008786D01*
X011043Y008863D01*
X011004Y008902D01*
X010888Y008902D01*
X011139Y008863D02*
X011177Y008902D01*
X011255Y008902D01*
X011293Y008863D01*
X011293Y008825D01*
X011139Y008670D01*
X011293Y008670D01*
X011389Y008670D02*
X011544Y008670D01*
X011466Y008670D02*
X011466Y008902D01*
X011389Y008825D01*
X011890Y008902D02*
X011890Y008670D01*
X011890Y008747D02*
X012006Y008747D01*
X012045Y008786D01*
X012045Y008863D01*
X012006Y008902D01*
X011890Y008902D01*
X012140Y008863D02*
X012179Y008902D01*
X012257Y008902D01*
X012295Y008863D01*
X012295Y008825D01*
X012140Y008670D01*
X012295Y008670D01*
X012391Y008670D02*
X012546Y008825D01*
X012546Y008863D01*
X012507Y008902D01*
X012430Y008902D01*
X012391Y008863D01*
X012391Y008670D02*
X012546Y008670D01*
X012892Y008747D02*
X012892Y008902D01*
X013047Y008902D02*
X013047Y008747D01*
X012969Y008670D01*
X012892Y008747D01*
X013142Y008670D02*
X013258Y008670D01*
X013297Y008709D01*
X013297Y008863D01*
X013258Y008902D01*
X013142Y008902D01*
X013142Y008670D01*
X013393Y008670D02*
X013393Y008902D01*
X013509Y008902D01*
X013547Y008863D01*
X013547Y008709D01*
X013509Y008670D01*
X013393Y008670D01*
X013894Y008747D02*
X013971Y008670D01*
X014048Y008747D01*
X014048Y008902D01*
X014144Y008902D02*
X014260Y008902D01*
X014299Y008863D01*
X014299Y008709D01*
X014260Y008670D01*
X014144Y008670D01*
X014144Y008902D01*
X013894Y008902D02*
X013894Y008747D01*
X014395Y008670D02*
X014511Y008670D01*
X014549Y008709D01*
X014549Y008863D01*
X014511Y008902D01*
X014395Y008902D01*
X014395Y008670D01*
X014895Y008709D02*
X014934Y008670D01*
X015012Y008670D01*
X015050Y008709D01*
X015050Y008786D01*
X014973Y008786D01*
X015050Y008863D02*
X015012Y008902D01*
X014934Y008902D01*
X014895Y008863D01*
X014895Y008709D01*
X015146Y008670D02*
X015146Y008902D01*
X015301Y008670D01*
X015301Y008902D01*
X015396Y008902D02*
X015512Y008902D01*
X015551Y008863D01*
X015551Y008709D01*
X015512Y008670D01*
X015396Y008670D01*
X015396Y008902D01*
X006881Y008902D02*
X006881Y008747D01*
X001526Y008747D02*
X001526Y008709D01*
X001487Y008670D01*
X001410Y008670D01*
X001371Y008709D01*
X001275Y008670D02*
X001120Y008670D01*
X001198Y008670D02*
X001198Y008902D01*
X001120Y008825D01*
X001025Y008863D02*
X001025Y008786D01*
X000986Y008747D01*
X000870Y008747D01*
X000870Y008670D02*
X000870Y008902D01*
X000986Y008902D01*
X001025Y008863D01*
X001371Y008863D02*
X001410Y008902D01*
X001487Y008902D01*
X001526Y008863D01*
X001526Y008825D01*
X001487Y008786D01*
X001526Y008747D01*
X001487Y008786D02*
X001448Y008786D01*
D12*
X005750Y009050D02*
X005750Y010050D01*
X006750Y010050D01*
X006750Y009050D01*
X005750Y009050D01*
X014750Y009050D02*
X014750Y010050D01*
X015750Y010050D01*
X015750Y009050D01*
X014750Y009050D01*
X014750Y002050D02*
X014750Y001050D01*
X015750Y001050D01*
X015750Y002050D01*
X014750Y002050D01*
X006750Y002050D02*
X006750Y001050D01*
X005750Y001050D01*
X005750Y002050D01*
X006750Y002050D01*
D13*
X015300Y002800D03*
X001200Y008200D03*
D14*
X001750Y008300D02*
X001750Y007800D01*
X002000Y007550D01*
X002500Y007550D01*
X002750Y007800D01*
X002750Y008300D01*
X002500Y008550D01*
X002000Y008550D01*
X001750Y008300D01*
X001500Y009050D02*
X001000Y009050D01*
X000750Y009300D01*
X000750Y009800D01*
X001000Y010050D01*
X001500Y010050D01*
X001750Y009800D01*
X002000Y010050D01*
X002500Y010050D01*
X002750Y009800D01*
X003000Y010050D01*
X003500Y010050D01*
X003750Y009800D01*
X004000Y010050D01*
X004500Y010050D01*
X004750Y009800D01*
X005000Y010050D01*
X005500Y010050D01*
X005750Y009800D01*
X006000Y010050D01*
X006500Y010050D01*
X006750Y009800D01*
X007000Y010050D01*
X007500Y010050D01*
X007750Y009800D01*
X008000Y010050D01*
X008500Y010050D01*
X008750Y009800D01*
X009000Y010050D01*
X009500Y010050D01*
X009750Y009800D01*
X010000Y010050D01*
X010500Y010050D01*
X010750Y009800D01*
X011000Y010050D01*
X011500Y010050D01*
X011750Y009800D01*
X012000Y010050D01*
X012500Y010050D01*
X012750Y009800D01*
X013000Y010050D01*
X013500Y010050D01*
X013750Y009800D01*
X014000Y010050D01*
X014500Y010050D01*
X014750Y009800D01*
X015000Y010050D01*
X015500Y010050D01*
X015750Y009800D01*
X015750Y009300D01*
X015500Y009050D01*
X015000Y009050D01*
X014750Y009300D01*
X014500Y009050D01*
X014000Y009050D01*
X013750Y009300D01*
X013750Y009800D01*
X013750Y009300D02*
X013500Y009050D01*
X013000Y009050D01*
X012750Y009300D01*
X012500Y009050D01*
X012000Y009050D01*
X011750Y009300D01*
X011500Y009050D01*
X011000Y009050D01*
X010750Y009300D01*
X010750Y009800D01*
X010750Y009300D02*
X010500Y009050D01*
X010000Y009050D01*
X009750Y009300D01*
X009500Y009050D01*
X009000Y009050D01*
X008750Y009300D01*
X008500Y009050D01*
X008000Y009050D01*
X007750Y009300D01*
X007750Y009800D01*
X007750Y009300D02*
X007500Y009050D01*
X007000Y009050D01*
X006750Y009300D01*
X006500Y009050D01*
X006000Y009050D01*
X005750Y009300D01*
X005500Y009050D01*
X005000Y009050D01*
X004750Y009300D01*
X004750Y009800D01*
X004750Y009300D02*
X004500Y009050D01*
X004000Y009050D01*
X003750Y009300D01*
X003500Y009050D01*
X003000Y009050D01*
X002750Y009300D01*
X002500Y009050D01*
X002000Y009050D01*
X001750Y009300D01*
X001500Y009050D01*
X001750Y009300D02*
X001750Y009800D01*
X002750Y009800D02*
X002750Y009300D01*
X003750Y009300D02*
X003750Y009800D01*
X005750Y009800D02*
X005750Y009300D01*
X006750Y009300D02*
X006750Y009800D01*
X008750Y009800D02*
X008750Y009300D01*
X009750Y009300D02*
X009750Y009800D01*
X011750Y009800D02*
X011750Y009300D01*
X012750Y009300D02*
X012750Y009800D01*
X014750Y009800D02*
X014750Y009300D01*
X007620Y008290D02*
X007280Y008290D01*
X007280Y008010D02*
X007620Y008010D01*
X003620Y008010D02*
X003280Y008010D01*
X003280Y008290D02*
X003620Y008290D01*
X004450Y004450D02*
X004350Y004250D01*
X004550Y004250D01*
X004450Y004450D01*
X004447Y004443D02*
X004453Y004443D01*
X004483Y004385D02*
X004417Y004385D01*
X004388Y004326D02*
X004512Y004326D01*
X004541Y004268D02*
X004359Y004268D01*
X003669Y004010D02*
X003669Y003973D01*
X003669Y004010D02*
X003669Y002890D01*
X003669Y002927D01*
X003669Y002890D02*
X003031Y002890D01*
X003031Y002927D01*
X003031Y002890D02*
X003031Y004010D01*
X003031Y003973D01*
X003031Y004010D02*
X003669Y004010D01*
X003669Y003656D02*
X003669Y003244D01*
X003031Y003244D02*
X003031Y003281D01*
X003031Y003619D02*
X003031Y003656D01*
X001968Y003386D02*
X001732Y003386D01*
X001732Y002914D02*
X001968Y002914D01*
X002000Y002050D02*
X002500Y002050D01*
X002750Y001800D01*
X002750Y001300D01*
X002500Y001050D01*
X002000Y001050D01*
X001750Y001300D01*
X001500Y001050D01*
X001000Y001050D01*
X000750Y001300D01*
X000750Y001800D01*
X001000Y002050D01*
X001500Y002050D01*
X001750Y001800D01*
X002000Y002050D01*
X001750Y001800D02*
X001750Y001300D01*
X002750Y001300D02*
X003000Y001050D01*
X003500Y001050D01*
X003750Y001300D01*
X004000Y001050D01*
X004500Y001050D01*
X004750Y001300D01*
X005000Y001050D01*
X005500Y001050D01*
X005750Y001300D01*
X005750Y001800D01*
X005500Y002050D01*
X005000Y002050D01*
X004750Y001800D01*
X004750Y001300D01*
X004750Y001800D02*
X004500Y002050D01*
X004000Y002050D01*
X003750Y001800D01*
X003750Y001300D01*
X003750Y001800D02*
X003500Y002050D01*
X003000Y002050D01*
X002750Y001800D01*
X005750Y001800D02*
X006000Y002050D01*
X006500Y002050D01*
X006750Y001800D01*
X007000Y002050D01*
X007500Y002050D01*
X007750Y001800D01*
X008000Y002050D01*
X008500Y002050D01*
X008750Y001800D01*
X008750Y001300D01*
X008500Y001050D01*
X008000Y001050D01*
X007750Y001300D01*
X007500Y001050D01*
X007000Y001050D01*
X006750Y001300D01*
X006500Y001050D01*
X006000Y001050D01*
X005750Y001300D01*
X006750Y001300D02*
X006750Y001800D01*
X007750Y001800D02*
X007750Y001300D01*
X008750Y001300D02*
X009000Y001050D01*
X009500Y001050D01*
X009750Y001300D01*
X010000Y001050D01*
X010500Y001050D01*
X010750Y001300D01*
X011000Y001050D01*
X011500Y001050D01*
X011750Y001300D01*
X011750Y001800D01*
X011500Y002050D01*
X011000Y002050D01*
X010750Y001800D01*
X010750Y001300D01*
X010750Y001800D02*
X010500Y002050D01*
X010000Y002050D01*
X009750Y001800D01*
X009750Y001300D01*
X009750Y001800D02*
X009500Y002050D01*
X009000Y002050D01*
X008750Y001800D01*
X011750Y001800D02*
X012000Y002050D01*
X012500Y002050D01*
X012750Y001800D01*
X013000Y002050D01*
X013500Y002050D01*
X013750Y001800D01*
X014000Y002050D01*
X014500Y002050D01*
X014750Y001800D01*
X015000Y002050D01*
X015500Y002050D01*
X015750Y001800D01*
X015750Y001300D01*
X015500Y001050D01*
X015000Y001050D01*
X014750Y001300D01*
X014500Y001050D01*
X014000Y001050D01*
X013750Y001300D01*
X013500Y001050D01*
X013000Y001050D01*
X012750Y001300D01*
X012500Y001050D01*
X012000Y001050D01*
X011750Y001300D01*
X012750Y001300D02*
X012750Y001800D01*
X013750Y001800D02*
X013750Y001300D01*
X014750Y001300D02*
X014750Y001800D01*
D15*
X015713Y003188D02*
X008587Y003188D01*
X008587Y007932D01*
X015713Y007932D01*
X015713Y003188D01*
X006700Y004966D02*
X004200Y004966D01*
X004200Y006934D01*
X006700Y006934D01*
X006700Y004966D01*
X006670Y004966D01*
X006700Y004966D02*
X006700Y006934D01*
X006670Y006934D01*
X006239Y006934D02*
X006161Y006934D01*
X005739Y006934D02*
X005661Y006934D01*
X005239Y006934D02*
X005161Y006934D01*
X004739Y006934D02*
X004661Y006934D01*
X004230Y006934D02*
X004200Y006934D01*
X004200Y004966D01*
X004230Y004966D01*
X004661Y004966D02*
X004739Y004966D01*
X005161Y004966D02*
X005200Y004966D01*
X005200Y005812D01*
X005700Y005812D01*
X005700Y004966D01*
X005700Y005812D01*
X005200Y005812D01*
X005200Y004966D01*
X005239Y004966D01*
X005661Y004966D02*
X005700Y004966D01*
X005739Y004966D01*
X006161Y004966D02*
X006239Y004966D01*
X006148Y004101D02*
X006148Y002999D01*
X005794Y002999D01*
X005006Y002999D01*
X004652Y002999D01*
X004652Y004101D01*
X006148Y004101D01*
X002672Y004211D02*
X000979Y004211D01*
X000979Y006889D01*
X002672Y006889D01*
X002672Y006416D01*
X002121Y006416D01*
X002121Y004684D01*
X002672Y004684D01*
X002672Y004211D01*
X000979Y004211D02*
X000704Y004211D01*
X000704Y004369D01*
X000526Y004369D01*
X000526Y004368D02*
X000509Y004372D01*
X000494Y004380D01*
X000480Y004390D01*
X000468Y004402D01*
X000458Y004417D01*
X000451Y004433D01*
X000448Y004450D01*
X000447Y004467D01*
X000448Y004467D02*
X000448Y006652D01*
X000447Y006653D02*
X000451Y006670D01*
X000459Y006685D01*
X000469Y006699D01*
X000481Y006711D01*
X000496Y006721D01*
X000512Y006728D01*
X000529Y006731D01*
X000546Y006732D01*
X000546Y006731D02*
X000704Y006731D01*
X000704Y006889D01*
X000979Y006889D01*
D16*
X009311Y006808D02*
X009311Y006905D01*
X009359Y006953D01*
X009311Y007054D02*
X009311Y007248D01*
X009311Y007151D02*
X009601Y007151D01*
X009504Y007248D01*
X009553Y006953D02*
X009601Y006905D01*
X009601Y006808D01*
X009553Y006759D01*
X009504Y006759D01*
X009456Y006808D01*
X009407Y006759D01*
X009359Y006759D01*
X009311Y006808D01*
X009456Y006808D02*
X009456Y006856D01*
X009553Y004354D02*
X009601Y004306D01*
X009601Y004209D01*
X009553Y004160D01*
X009504Y004160D01*
X009311Y004354D01*
X009311Y004160D01*
X009311Y004059D02*
X009504Y003866D01*
X009553Y003866D01*
X009601Y003914D01*
X009601Y004011D01*
X009553Y004059D01*
X009311Y004059D02*
X009311Y003866D01*
X013248Y003914D02*
X013296Y003866D01*
X013490Y003866D01*
X013296Y004059D01*
X013248Y004011D01*
X013248Y003914D01*
X013296Y004059D02*
X013490Y004059D01*
X013538Y004011D01*
X013538Y003914D01*
X013490Y003866D01*
X013490Y004160D02*
X013441Y004160D01*
X013393Y004209D01*
X013344Y004160D01*
X013296Y004160D01*
X013248Y004209D01*
X013248Y004306D01*
X013296Y004354D01*
X013393Y004257D02*
X013393Y004209D01*
X013490Y004160D02*
X013538Y004209D01*
X013538Y004306D01*
X013490Y004354D01*
X015236Y007054D02*
X015236Y007248D01*
X015236Y007151D02*
X015526Y007151D01*
X015429Y007248D01*
D17*
X004890Y003969D02*
X004892Y003977D01*
X004897Y003984D01*
X004904Y003988D01*
X004912Y003989D01*
X004920Y003986D01*
X004926Y003981D01*
X004930Y003973D01*
X004930Y003965D01*
X004926Y003957D01*
X004920Y003952D01*
X004912Y003949D01*
X004904Y003950D01*
X004897Y003954D01*
X004892Y003961D01*
X004890Y003969D01*
X002672Y004211D02*
X002042Y004211D01*
X002672Y004211D02*
X002672Y004684D01*
X002121Y004684D01*
X002121Y006416D01*
X002672Y006416D01*
X002672Y006889D01*
X002042Y006889D01*
X000979Y006889D02*
X000979Y004211D01*
X000704Y004211D02*
X000467Y003975D01*
X000704Y006889D02*
X000467Y007125D01*
D18*
X002250Y008050D03*
X002250Y009550D03*
X001250Y009550D03*
X003250Y009550D03*
X004250Y009550D03*
X005250Y009550D03*
X006250Y009550D03*
X007250Y009550D03*
X008250Y009550D03*
X009250Y009550D03*
X010250Y009550D03*
X011250Y009550D03*
X012250Y009550D03*
X013250Y009550D03*
X014250Y009550D03*
X015250Y009550D03*
X015250Y001550D03*
X014250Y001550D03*
X013250Y001550D03*
X012250Y001550D03*
X011250Y001550D03*
X010250Y001550D03*
X009250Y001550D03*
X008250Y001550D03*
X007250Y001550D03*
X006250Y001550D03*
X005250Y001550D03*
X004250Y001550D03*
X003250Y001550D03*
X002250Y001550D03*
X001250Y001550D03*
D19*
X003318Y004552D03*
X003778Y004552D03*
X003778Y005352D03*
X003318Y005352D03*
X003322Y006148D03*
X003782Y006148D03*
X003782Y006948D03*
X003322Y006948D03*
X007118Y006952D03*
X007578Y006952D03*
X007578Y006152D03*
X007118Y006152D03*
X007118Y005352D03*
X007578Y005352D03*
X007578Y004552D03*
X007118Y004552D03*
X007118Y003752D03*
X007578Y003752D03*
X007582Y002948D03*
X007122Y002948D03*
D20*
X003550Y004550D03*
X003550Y005350D03*
X003550Y006150D03*
X003550Y006950D03*
D21*
X003428Y007210D02*
X003281Y007210D01*
X003354Y007210D02*
X003354Y007430D01*
X003281Y007357D01*
X003207Y007393D02*
X003207Y007320D01*
X003170Y007283D01*
X003060Y007283D01*
X003060Y007210D02*
X003060Y007430D01*
X003170Y007430D01*
X003207Y007393D01*
X003133Y007283D02*
X003207Y007210D01*
X003170Y006630D02*
X003060Y006630D01*
X003060Y006410D01*
X003060Y006483D02*
X003170Y006483D01*
X003207Y006520D01*
X003207Y006593D01*
X003170Y006630D01*
X003281Y006593D02*
X003318Y006630D01*
X003391Y006630D01*
X003428Y006593D01*
X003428Y006557D01*
X003281Y006410D01*
X003428Y006410D01*
X003207Y006410D02*
X003133Y006483D01*
X003170Y005830D02*
X003060Y005830D01*
X003060Y005610D01*
X003060Y005683D02*
X003170Y005683D01*
X003207Y005720D01*
X003207Y005793D01*
X003170Y005830D01*
X003281Y005793D02*
X003318Y005830D01*
X003391Y005830D01*
X003428Y005793D01*
X003428Y005757D01*
X003391Y005720D01*
X003428Y005683D01*
X003428Y005647D01*
X003391Y005610D01*
X003318Y005610D01*
X003281Y005647D01*
X003207Y005610D02*
X003133Y005683D01*
X003354Y005720D02*
X003391Y005720D01*
X003391Y005030D02*
X003281Y004920D01*
X003428Y004920D01*
X003391Y004810D02*
X003391Y005030D01*
X003207Y004993D02*
X003207Y004920D01*
X003170Y004883D01*
X003060Y004883D01*
X003060Y004810D02*
X003060Y005030D01*
X003170Y005030D01*
X003207Y004993D01*
X003133Y004883D02*
X003207Y004810D01*
X003847Y003636D02*
X003810Y003599D01*
X003810Y003526D01*
X003847Y003489D01*
X003810Y003415D02*
X003993Y003415D01*
X004030Y003378D01*
X004030Y003305D01*
X003993Y003268D01*
X003810Y003268D01*
X004030Y003489D02*
X003883Y003636D01*
X003847Y003636D01*
X004030Y003636D02*
X004030Y003489D01*
X001686Y002595D02*
X001539Y002595D01*
X001612Y002595D02*
X001612Y002815D01*
X001539Y002742D01*
X001465Y002815D02*
X001318Y002815D01*
X001318Y002595D01*
X001318Y002705D02*
X001391Y002705D01*
X007510Y003247D02*
X007547Y003210D01*
X007620Y003210D01*
X007657Y003247D01*
X007731Y003247D02*
X007768Y003210D01*
X007841Y003210D01*
X007878Y003247D01*
X007878Y003283D01*
X007841Y003320D01*
X007731Y003320D01*
X007731Y003247D01*
X007731Y003320D02*
X007804Y003393D01*
X007878Y003430D01*
X007657Y003393D02*
X007620Y003430D01*
X007547Y003430D01*
X007510Y003393D01*
X007510Y003247D01*
X007547Y004010D02*
X007620Y004010D01*
X007657Y004047D01*
X007731Y004047D02*
X007768Y004010D01*
X007841Y004010D01*
X007878Y004047D01*
X007878Y004120D01*
X007841Y004157D01*
X007804Y004157D01*
X007731Y004120D01*
X007731Y004230D01*
X007878Y004230D01*
X007657Y004193D02*
X007620Y004230D01*
X007547Y004230D01*
X007510Y004193D01*
X007510Y004047D01*
X007547Y004010D01*
X007547Y004810D02*
X007620Y004810D01*
X007657Y004847D01*
X007731Y004920D02*
X007878Y004920D01*
X007841Y004810D02*
X007841Y005030D01*
X007731Y004920D01*
X007657Y004993D02*
X007620Y005030D01*
X007547Y005030D01*
X007510Y004993D01*
X007510Y004847D01*
X007547Y004810D01*
X007547Y005610D02*
X007620Y005610D01*
X007657Y005647D01*
X007731Y005647D02*
X007768Y005610D01*
X007841Y005610D01*
X007878Y005647D01*
X007878Y005683D01*
X007841Y005720D01*
X007804Y005720D01*
X007841Y005720D02*
X007878Y005757D01*
X007878Y005793D01*
X007841Y005830D01*
X007768Y005830D01*
X007731Y005793D01*
X007657Y005793D02*
X007620Y005830D01*
X007547Y005830D01*
X007510Y005793D01*
X007510Y005647D01*
X007547Y005610D01*
X007547Y006410D02*
X007620Y006410D01*
X007657Y006447D01*
X007731Y006410D02*
X007878Y006557D01*
X007878Y006593D01*
X007841Y006630D01*
X007768Y006630D01*
X007731Y006593D01*
X007657Y006593D02*
X007620Y006630D01*
X007547Y006630D01*
X007510Y006593D01*
X007510Y006447D01*
X007547Y006410D01*
X007731Y006410D02*
X007878Y006410D01*
X007878Y007210D02*
X007731Y007210D01*
X007804Y007210D02*
X007804Y007430D01*
X007731Y007357D01*
X007657Y007393D02*
X007620Y007430D01*
X007547Y007430D01*
X007510Y007393D01*
X007510Y007247D01*
X007547Y007210D01*
X007620Y007210D01*
X007657Y007247D01*
X007341Y007660D02*
X007378Y007697D01*
X007378Y007733D01*
X007341Y007770D01*
X007231Y007770D01*
X007231Y007697D01*
X007268Y007660D01*
X007341Y007660D01*
X007231Y007770D02*
X007304Y007843D01*
X007378Y007880D01*
X007157Y007843D02*
X007157Y007770D01*
X007120Y007733D01*
X007010Y007733D01*
X007010Y007660D02*
X007010Y007880D01*
X007120Y007880D01*
X007157Y007843D01*
X007083Y007733D02*
X007157Y007660D01*
X003978Y007697D02*
X003941Y007660D01*
X003868Y007660D01*
X003831Y007697D01*
X003831Y007770D02*
X003904Y007807D01*
X003941Y007807D01*
X003978Y007770D01*
X003978Y007697D01*
X003831Y007770D02*
X003831Y007880D01*
X003978Y007880D01*
X003757Y007843D02*
X003757Y007770D01*
X003720Y007733D01*
X003610Y007733D01*
X003610Y007660D02*
X003610Y007880D01*
X003720Y007880D01*
X003757Y007843D01*
X003683Y007733D02*
X003757Y007660D01*
D22*
X004455Y008332D03*
X005045Y008332D03*
X005045Y007968D03*
X005855Y008332D03*
X006445Y008332D03*
X006445Y007968D03*
D23*
X006396Y008052D03*
X006396Y008248D03*
X005904Y008248D03*
X005904Y008052D03*
X004996Y008052D03*
X004996Y008248D03*
X004504Y008248D03*
X004504Y008052D03*
D24*
X004519Y008150D03*
X004981Y008150D03*
X005919Y008150D03*
X006381Y008150D03*
D25*
X006111Y008150D03*
X004711Y008150D03*
D26*
X004494Y007973D03*
X005894Y007973D03*
D27*
X005771Y007968D03*
X004371Y007968D03*
D28*
X003700Y008150D03*
X003200Y008150D03*
X007200Y008150D03*
X007700Y008150D03*
D29*
X007350Y006962D02*
X007350Y006938D01*
X007350Y006162D02*
X007350Y006138D01*
X007350Y005362D02*
X007350Y005338D01*
X007350Y004562D02*
X007350Y004538D01*
X007350Y003762D02*
X007350Y003738D01*
X007350Y002962D02*
X007350Y002938D01*
D30*
X003813Y003076D03*
X002887Y003450D03*
X003813Y003824D03*
M02*
