G75*
G70*
%OFA0B0*%
%FSLAX24Y24*%
%IPPOS*%
%LPD*%
%AMOC8*
5,1,8,0,0,1.08239X$1,22.5*
%
%ADD10OC8,0.0680*%
%ADD11R,0.0540X0.0710*%
%ADD12R,0.0060X0.0720*%
%ADD13OC8,0.0840*%
%ADD14R,0.0710X0.0540*%
%ADD15R,0.0720X0.0060*%
D10*
X001250Y001550D03*
X002250Y001550D03*
X003250Y001550D03*
X004250Y001550D03*
X005250Y001550D03*
X006250Y001550D03*
X007250Y001550D03*
X008250Y001550D03*
X009250Y001550D03*
X010250Y001550D03*
X011250Y001550D03*
X012250Y001550D03*
X013250Y001550D03*
X014250Y001550D03*
X015250Y001550D03*
X015250Y009550D03*
X014250Y009550D03*
X013250Y009550D03*
X012250Y009550D03*
X011250Y009550D03*
X010250Y009550D03*
X009250Y009550D03*
X008250Y009550D03*
X007250Y009550D03*
X006250Y009550D03*
X005250Y009550D03*
X004250Y009550D03*
X003250Y009550D03*
X002250Y009550D03*
X001250Y009550D03*
D11*
X003150Y008150D03*
X003750Y008150D03*
X007150Y008150D03*
X007750Y008150D03*
X005750Y005350D03*
X005150Y005350D03*
D12*
X005450Y005350D03*
X003450Y008150D03*
X007450Y008150D03*
D13*
X002250Y008050D03*
D14*
X001750Y005850D03*
X001750Y005250D03*
D15*
X001750Y005550D03*
M02*
