G75*
G70*
%OFA0B0*%
%FSLAX24Y24*%
%IPPOS*%
%LPD*%
%AMOC8*
5,1,8,0,0,1.08239X$1,22.5*
%
%ADD10C,0.0335*%
%ADD11R,0.0551X0.0138*%
%ADD12R,0.0748X0.0709*%
%ADD13C,0.0058*%
%ADD14R,0.0291X0.1102*%
%ADD15R,0.0354X0.0394*%
%ADD16R,0.0669X0.0315*%
%ADD17R,0.0433X0.0394*%
%ADD18R,0.0472X0.0472*%
%ADD19R,0.0394X0.0433*%
%ADD20R,0.0315X0.0472*%
%ADD21R,0.0472X0.0217*%
D10*
X009010Y003837D02*
X009010Y003837D01*
X008164Y003837D01*
X008164Y003837D01*
X009010Y003837D01*
X009010Y004330D02*
X009010Y004330D01*
X008164Y004330D01*
X008164Y004330D01*
X009010Y004330D01*
X009010Y004822D02*
X009010Y004822D01*
X008164Y004822D01*
X008164Y004822D01*
X009010Y004822D01*
X009010Y005314D02*
X009010Y005314D01*
X008164Y005314D01*
X008164Y005314D01*
X009010Y005314D01*
X009010Y005806D02*
X009010Y005806D01*
X008164Y005806D01*
X008164Y005806D01*
X009010Y005806D01*
X009010Y006298D02*
X009010Y006298D01*
X008164Y006298D01*
X008164Y006298D01*
X009010Y006298D01*
X009010Y006790D02*
X009010Y006790D01*
X008164Y006790D01*
X008164Y006790D01*
X009010Y006790D01*
X009010Y007282D02*
X009010Y007282D01*
X008164Y007282D01*
X008164Y007282D01*
X009010Y007282D01*
X009453Y007509D02*
X009453Y007509D01*
X009453Y008355D01*
X009453Y008355D01*
X009453Y007509D01*
X009453Y007843D02*
X009453Y007843D01*
X009453Y008177D02*
X009453Y008177D01*
X009945Y007509D02*
X009945Y007509D01*
X009945Y008355D01*
X009945Y008355D01*
X009945Y007509D01*
X009945Y007843D02*
X009945Y007843D01*
X009945Y008177D02*
X009945Y008177D01*
X010437Y007509D02*
X010437Y007509D01*
X010437Y008355D01*
X010437Y008355D01*
X010437Y007509D01*
X010437Y007843D02*
X010437Y007843D01*
X010437Y008177D02*
X010437Y008177D01*
X010930Y007509D02*
X010930Y007509D01*
X010930Y008355D01*
X010930Y008355D01*
X010930Y007509D01*
X010930Y007843D02*
X010930Y007843D01*
X010930Y008177D02*
X010930Y008177D01*
X011422Y007509D02*
X011422Y007509D01*
X011422Y008355D01*
X011422Y008355D01*
X011422Y007509D01*
X011422Y007843D02*
X011422Y007843D01*
X011422Y008177D02*
X011422Y008177D01*
X011914Y007509D02*
X011914Y007509D01*
X011914Y008355D01*
X011914Y008355D01*
X011914Y007509D01*
X011914Y007843D02*
X011914Y007843D01*
X011914Y008177D02*
X011914Y008177D01*
X012406Y007509D02*
X012406Y007509D01*
X012406Y008355D01*
X012406Y008355D01*
X012406Y007509D01*
X012406Y007843D02*
X012406Y007843D01*
X012406Y008177D02*
X012406Y008177D01*
X012898Y007509D02*
X012898Y007509D01*
X012898Y008355D01*
X012898Y008355D01*
X012898Y007509D01*
X012898Y007843D02*
X012898Y007843D01*
X012898Y008177D02*
X012898Y008177D01*
X013390Y007509D02*
X013390Y007509D01*
X013390Y008355D01*
X013390Y008355D01*
X013390Y007509D01*
X013390Y007843D02*
X013390Y007843D01*
X013390Y008177D02*
X013390Y008177D01*
X013882Y007509D02*
X013882Y007509D01*
X013882Y008355D01*
X013882Y008355D01*
X013882Y007509D01*
X013882Y007843D02*
X013882Y007843D01*
X013882Y008177D02*
X013882Y008177D01*
X014374Y007509D02*
X014374Y007509D01*
X014374Y008355D01*
X014374Y008355D01*
X014374Y007509D01*
X014374Y007843D02*
X014374Y007843D01*
X014374Y008177D02*
X014374Y008177D01*
X014867Y007509D02*
X014867Y007509D01*
X014867Y008355D01*
X014867Y008355D01*
X014867Y007509D01*
X014867Y007843D02*
X014867Y007843D01*
X014867Y008177D02*
X014867Y008177D01*
X015359Y007509D02*
X015359Y007509D01*
X015359Y008355D01*
X015359Y008355D01*
X015359Y007509D01*
X015359Y007843D02*
X015359Y007843D01*
X015359Y008177D02*
X015359Y008177D01*
X013390Y002765D02*
X013390Y002765D01*
X013390Y003611D01*
X013390Y003611D01*
X013390Y002765D01*
X013390Y003099D02*
X013390Y003099D01*
X013390Y003433D02*
X013390Y003433D01*
X012898Y002765D02*
X012898Y002765D01*
X012898Y003611D01*
X012898Y003611D01*
X012898Y002765D01*
X012898Y003099D02*
X012898Y003099D01*
X012898Y003433D02*
X012898Y003433D01*
X012406Y002765D02*
X012406Y002765D01*
X012406Y003611D01*
X012406Y003611D01*
X012406Y002765D01*
X012406Y003099D02*
X012406Y003099D01*
X012406Y003433D02*
X012406Y003433D01*
X011914Y002765D02*
X011914Y002765D01*
X011914Y003611D01*
X011914Y003611D01*
X011914Y002765D01*
X011914Y003099D02*
X011914Y003099D01*
X011914Y003433D02*
X011914Y003433D01*
X011422Y002765D02*
X011422Y002765D01*
X011422Y003611D01*
X011422Y003611D01*
X011422Y002765D01*
X011422Y003099D02*
X011422Y003099D01*
X011422Y003433D02*
X011422Y003433D01*
X010930Y002765D02*
X010930Y002765D01*
X010930Y003611D01*
X010930Y003611D01*
X010930Y002765D01*
X010930Y003099D02*
X010930Y003099D01*
X010930Y003433D02*
X010930Y003433D01*
X010437Y002765D02*
X010437Y002765D01*
X010437Y003611D01*
X010437Y003611D01*
X010437Y002765D01*
X010437Y003099D02*
X010437Y003099D01*
X010437Y003433D02*
X010437Y003433D01*
X009945Y002765D02*
X009945Y002765D01*
X009945Y003611D01*
X009945Y003611D01*
X009945Y002765D01*
X009945Y003099D02*
X009945Y003099D01*
X009945Y003433D02*
X009945Y003433D01*
X009453Y002765D02*
X009453Y002765D01*
X009453Y003611D01*
X009453Y003611D01*
X009453Y002765D01*
X009453Y003099D02*
X009453Y003099D01*
X009453Y003433D02*
X009453Y003433D01*
D11*
X002593Y005038D03*
X002593Y005294D03*
X002593Y005550D03*
X002593Y005806D03*
X002593Y006062D03*
D12*
X001550Y007125D03*
X001550Y003975D03*
D13*
X004566Y004629D02*
X004566Y005673D01*
X004566Y004629D02*
X004334Y004629D01*
X004334Y005673D01*
X004566Y005673D01*
X004566Y004686D02*
X004334Y004686D01*
X004334Y004743D02*
X004566Y004743D01*
X004566Y004800D02*
X004334Y004800D01*
X004334Y004857D02*
X004566Y004857D01*
X004566Y004914D02*
X004334Y004914D01*
X004334Y004971D02*
X004566Y004971D01*
X004566Y005028D02*
X004334Y005028D01*
X004334Y005085D02*
X004566Y005085D01*
X004566Y005142D02*
X004334Y005142D01*
X004334Y005199D02*
X004566Y005199D01*
X004566Y005256D02*
X004334Y005256D01*
X004334Y005313D02*
X004566Y005313D01*
X004566Y005370D02*
X004334Y005370D01*
X004334Y005427D02*
X004566Y005427D01*
X004566Y005484D02*
X004334Y005484D01*
X004334Y005541D02*
X004566Y005541D01*
X004566Y005598D02*
X004334Y005598D01*
X004334Y005655D02*
X004566Y005655D01*
D14*
X004950Y005151D03*
X005450Y005151D03*
X005950Y005151D03*
X006450Y005151D03*
X006450Y006749D03*
X005950Y006749D03*
X005450Y006749D03*
X004950Y006749D03*
X004450Y006749D03*
D15*
X004593Y003865D03*
X004593Y003235D03*
X006207Y003235D03*
X006207Y003865D03*
D16*
X005400Y004022D03*
D17*
X003885Y004550D03*
X003215Y004550D03*
X003215Y005350D03*
X003885Y005350D03*
X003885Y006150D03*
X003215Y006150D03*
X003215Y006950D03*
X003885Y006950D03*
X007015Y006950D03*
X007685Y006950D03*
X007685Y006150D03*
X007015Y006150D03*
X007015Y005350D03*
X007685Y005350D03*
X007685Y004550D03*
X007015Y004550D03*
X007015Y003750D03*
X007685Y003750D03*
X007685Y002950D03*
X007015Y002950D03*
D18*
X006563Y008150D03*
X005737Y008150D03*
X005163Y008150D03*
X004337Y008150D03*
D19*
X003785Y008150D03*
X003115Y008150D03*
X007115Y008150D03*
X007785Y008150D03*
D20*
X002204Y003150D03*
X001496Y003150D03*
D21*
X003862Y003076D03*
X002838Y003450D03*
X003862Y003824D03*
M02*
