G75*
G70*
%OFA0B0*%
%FSLAX24Y24*%
%IPPOS*%
%LPD*%
%AMOC8*
5,1,8,0,0,1.08239X$1,22.5*
%
%ADD10OC8,0.0600*%
%ADD11R,0.0460X0.0630*%
%ADD12OC8,0.0760*%
%ADD13R,0.0630X0.0460*%
%ADD14C,0.0160*%
%ADD15C,0.0100*%
%ADD16C,0.0270*%
%ADD17C,0.0060*%
D10*
X001250Y001550D03*
X002250Y001550D03*
X003250Y001550D03*
X004250Y001550D03*
X005250Y001550D03*
X006250Y001550D03*
X007250Y001550D03*
X008250Y001550D03*
X009250Y001550D03*
X010250Y001550D03*
X011250Y001550D03*
X012250Y001550D03*
X013250Y001550D03*
X014250Y001550D03*
X015250Y001550D03*
X015250Y009550D03*
X014250Y009550D03*
X013250Y009550D03*
X012250Y009550D03*
X011250Y009550D03*
X010250Y009550D03*
X009250Y009550D03*
X008250Y009550D03*
X007250Y009550D03*
X006250Y009550D03*
X005250Y009550D03*
X004250Y009550D03*
X003250Y009550D03*
X002250Y009550D03*
X001250Y009550D03*
D11*
X003150Y008150D03*
X003750Y008150D03*
X007150Y008150D03*
X007750Y008150D03*
X005750Y005350D03*
X005150Y005350D03*
D12*
X002250Y008050D03*
D13*
X001750Y005850D03*
X001750Y005250D03*
D14*
X002205Y005236D02*
X002205Y005064D01*
X002240Y005029D01*
X002240Y004949D01*
X002283Y004906D01*
X002325Y004805D01*
X002325Y004695D01*
X002283Y004594D01*
X002206Y004517D01*
X002105Y004475D01*
X001995Y004475D01*
X001894Y004517D01*
X001817Y004594D01*
X001775Y004695D01*
X001775Y004805D01*
X001806Y004880D01*
X001409Y004880D01*
X001483Y004806D01*
X001525Y004705D01*
X001525Y004615D01*
X003380Y002760D01*
X003380Y002820D01*
X003480Y002920D01*
X004280Y003720D01*
X004731Y003720D01*
X004794Y003783D01*
X004895Y003825D01*
X005005Y003825D01*
X005106Y003783D01*
X005183Y003706D01*
X005225Y003605D01*
X005225Y003495D01*
X005183Y003394D01*
X005106Y003317D01*
X005005Y003275D01*
X004895Y003275D01*
X004794Y003317D01*
X004731Y003380D01*
X004420Y003380D01*
X003948Y002907D01*
X004006Y002883D01*
X004083Y002806D01*
X004125Y002705D01*
X004125Y002620D01*
X005780Y002620D01*
X006080Y002920D01*
X006920Y002920D01*
X007020Y002820D01*
X007120Y002720D01*
X008706Y002720D01*
X008675Y002795D01*
X008675Y002905D01*
X008717Y003006D01*
X008794Y003083D01*
X008895Y003125D01*
X009005Y003125D01*
X009106Y003083D01*
X009169Y003020D01*
X009180Y003020D01*
X009340Y003180D01*
X006969Y003180D01*
X006906Y003117D01*
X006805Y003075D01*
X006695Y003075D01*
X006594Y003117D01*
X006517Y003194D01*
X006475Y003295D01*
X006475Y003405D01*
X006517Y003506D01*
X006594Y003583D01*
X006695Y003625D01*
X006805Y003625D01*
X006906Y003583D01*
X006969Y003520D01*
X009480Y003520D01*
X009652Y003693D01*
X009594Y003717D01*
X009531Y003780D01*
X008180Y003780D01*
X007680Y004280D01*
X007220Y004280D01*
X007020Y004080D01*
X006920Y003980D01*
X006869Y003980D01*
X006806Y003917D01*
X006705Y003875D01*
X006595Y003875D01*
X006494Y003917D01*
X006417Y003994D01*
X006393Y004052D01*
X005920Y003580D01*
X005920Y003469D01*
X005983Y003406D01*
X006025Y003305D01*
X006025Y003195D01*
X005983Y003094D01*
X005906Y003017D01*
X005805Y002975D01*
X005695Y002975D01*
X005594Y003017D01*
X005517Y003094D01*
X005475Y003195D01*
X005475Y003305D01*
X005517Y003406D01*
X005580Y003469D01*
X005580Y003720D01*
X005680Y003820D01*
X006480Y004620D01*
X006880Y004620D01*
X006956Y004696D01*
X006905Y004675D01*
X006795Y004675D01*
X006694Y004717D01*
X006651Y004760D01*
X006229Y004760D01*
X006129Y004660D01*
X004740Y004660D01*
X004740Y004625D01*
X004775Y004625D01*
X004876Y004583D01*
X004953Y004506D01*
X004995Y004405D01*
X004995Y004295D01*
X004953Y004194D01*
X004876Y004117D01*
X004775Y004075D01*
X004665Y004075D01*
X004564Y004117D01*
X004487Y004194D01*
X004445Y004295D01*
X004445Y004356D01*
X004360Y004441D01*
X004360Y004929D01*
X004471Y005040D01*
X004471Y005040D01*
X004780Y005349D01*
X004780Y005723D01*
X004862Y005805D01*
X004912Y005805D01*
X004474Y005805D01*
X004632Y005964D02*
X004875Y005964D01*
X004875Y006005D02*
X004875Y005895D01*
X004912Y005805D01*
X004875Y006005D02*
X004898Y006060D01*
X004729Y006060D01*
X002825Y004156D01*
X002825Y004095D01*
X002783Y003994D01*
X002706Y003917D01*
X002605Y003875D01*
X002495Y003875D01*
X002394Y003917D01*
X002317Y003994D01*
X002275Y004095D01*
X002275Y004205D01*
X002317Y004306D01*
X002394Y004383D01*
X002495Y004425D01*
X002556Y004425D01*
X003606Y005475D01*
X003595Y005475D01*
X003494Y005517D01*
X003417Y005594D01*
X003375Y005695D01*
X003375Y005805D01*
X002674Y005805D01*
X002740Y005871D02*
X002740Y006151D01*
X002783Y006194D01*
X002825Y006295D01*
X002825Y006386D01*
X002894Y006317D01*
X002995Y006275D01*
X003105Y006275D01*
X003206Y006317D01*
X003283Y006394D01*
X003325Y006495D01*
X003325Y006605D01*
X003283Y006706D01*
X003220Y006769D01*
X003220Y007620D01*
X003145Y007695D01*
X003438Y007695D01*
X003450Y007707D01*
X003462Y007695D01*
X003560Y007695D01*
X003560Y007371D01*
X003760Y007171D01*
X003871Y007060D01*
X004229Y007060D01*
X004444Y007275D01*
X004505Y007275D01*
X004606Y007317D01*
X004683Y007394D01*
X004725Y007495D01*
X004725Y007605D01*
X004683Y007706D01*
X004606Y007783D01*
X004548Y007807D01*
X004620Y007880D01*
X004980Y007880D01*
X005035Y007825D01*
X004995Y007825D01*
X004894Y007783D01*
X004817Y007706D01*
X004775Y007605D01*
X004775Y007495D01*
X004817Y007394D01*
X004894Y007317D01*
X004995Y007275D01*
X005085Y007275D01*
X005540Y006820D01*
X004420Y006820D01*
X004320Y006920D01*
X004220Y007020D01*
X003880Y007020D01*
X003580Y006720D01*
X003480Y006620D01*
X003480Y005969D01*
X003417Y005906D01*
X003375Y005805D01*
X003475Y005964D02*
X002740Y005964D01*
X002740Y005871D02*
X002440Y005571D01*
X002440Y005471D01*
X002205Y005236D01*
X002205Y005171D02*
X003302Y005171D01*
X003144Y005013D02*
X002240Y005013D01*
X002305Y004854D02*
X002985Y004854D01*
X002827Y004696D02*
X002325Y004696D01*
X002226Y004537D02*
X002668Y004537D01*
X002390Y004379D02*
X001762Y004379D01*
X001874Y004537D02*
X001603Y004537D01*
X001525Y004696D02*
X001775Y004696D01*
X001795Y004854D02*
X001435Y004854D01*
X001920Y004220D02*
X002281Y004220D01*
X002289Y004062D02*
X002079Y004062D01*
X002237Y003903D02*
X002428Y003903D01*
X002396Y003745D02*
X004756Y003745D01*
X005144Y003745D02*
X005604Y003745D01*
X005580Y003586D02*
X005225Y003586D01*
X005197Y003428D02*
X005539Y003428D01*
X005475Y003269D02*
X004309Y003269D01*
X004151Y003111D02*
X005510Y003111D01*
X005990Y003111D02*
X006610Y003111D01*
X006486Y003269D02*
X006025Y003269D01*
X005961Y003428D02*
X006484Y003428D01*
X006601Y003586D02*
X005926Y003586D01*
X006085Y003745D02*
X009567Y003745D01*
X009546Y003586D02*
X006899Y003586D01*
X006772Y003903D02*
X008057Y003903D01*
X007898Y004062D02*
X007002Y004062D01*
X007160Y004220D02*
X007740Y004220D01*
X006954Y004696D02*
X006955Y004696D01*
X006746Y004696D02*
X006164Y004696D01*
X006397Y004537D02*
X004922Y004537D01*
X004995Y004379D02*
X006238Y004379D01*
X006080Y004220D02*
X004964Y004220D01*
X004476Y004220D02*
X002889Y004220D01*
X003047Y004379D02*
X004423Y004379D01*
X004360Y004537D02*
X003206Y004537D01*
X003364Y004696D02*
X004360Y004696D01*
X004360Y004854D02*
X003523Y004854D01*
X003681Y005013D02*
X004444Y005013D01*
X004602Y005171D02*
X003840Y005171D01*
X003998Y005330D02*
X004761Y005330D01*
X004780Y005488D02*
X004157Y005488D01*
X004315Y005647D02*
X004780Y005647D01*
X003564Y005488D02*
X002440Y005488D01*
X002515Y005647D02*
X003395Y005647D01*
X003461Y005330D02*
X002298Y005330D01*
X002740Y006122D02*
X003480Y006122D01*
X003480Y006281D02*
X003118Y006281D01*
X002982Y006281D02*
X002819Y006281D01*
X003302Y006439D02*
X003480Y006439D01*
X003480Y006598D02*
X003325Y006598D01*
X003233Y006756D02*
X003616Y006756D01*
X003774Y006915D02*
X003220Y006915D01*
X003220Y007073D02*
X003858Y007073D01*
X003700Y007232D02*
X003220Y007232D01*
X003220Y007390D02*
X003560Y007390D01*
X003560Y007549D02*
X003220Y007549D01*
X004242Y007073D02*
X005287Y007073D01*
X005445Y006915D02*
X004326Y006915D01*
X004400Y007232D02*
X005128Y007232D01*
X004821Y007390D02*
X004679Y007390D01*
X004725Y007549D02*
X004775Y007549D01*
X004818Y007707D02*
X004682Y007707D01*
X004606Y007866D02*
X004994Y007866D01*
X004920Y008980D02*
X004060Y008980D01*
X004120Y008920D01*
X007811Y008920D01*
X007527Y009205D01*
X007432Y009110D01*
X007068Y009110D01*
X006810Y009368D01*
X006810Y009732D01*
X006898Y009820D01*
X006659Y009820D01*
X006730Y009749D01*
X006730Y009570D01*
X006270Y009570D01*
X006270Y009530D01*
X006730Y009530D01*
X006730Y009351D01*
X006449Y009070D01*
X006270Y009070D01*
X006270Y009530D01*
X006230Y009530D01*
X006230Y009070D01*
X006051Y009070D01*
X005770Y009351D01*
X005770Y009530D01*
X006230Y009530D01*
X006230Y009570D01*
X005770Y009570D01*
X005770Y009749D01*
X005841Y009820D01*
X005602Y009820D01*
X005690Y009732D01*
X005690Y009368D01*
X005432Y009110D01*
X005068Y009110D01*
X005059Y009119D01*
X004920Y008980D01*
X005456Y009134D02*
X005988Y009134D01*
X005829Y009292D02*
X005614Y009292D01*
X005690Y009451D02*
X005770Y009451D01*
X005770Y009609D02*
X005690Y009609D01*
X005655Y009768D02*
X005789Y009768D01*
X006230Y009451D02*
X006270Y009451D01*
X006270Y009292D02*
X006230Y009292D01*
X006230Y009134D02*
X006270Y009134D01*
X006512Y009134D02*
X007044Y009134D01*
X006886Y009292D02*
X006671Y009292D01*
X006730Y009451D02*
X006810Y009451D01*
X006810Y009609D02*
X006730Y009609D01*
X006711Y009768D02*
X006845Y009768D01*
X007456Y009134D02*
X007598Y009134D01*
X007756Y008975D02*
X004065Y008975D01*
X002811Y004062D02*
X005921Y004062D01*
X005763Y003903D02*
X002672Y003903D01*
X002554Y003586D02*
X004146Y003586D01*
X003987Y003428D02*
X002713Y003428D01*
X002871Y003269D02*
X003829Y003269D01*
X003670Y003111D02*
X003030Y003111D01*
X003188Y002952D02*
X003512Y002952D01*
X003380Y002794D02*
X003347Y002794D01*
X003992Y002952D02*
X008695Y002952D01*
X008676Y002794D02*
X007047Y002794D01*
X006890Y003111D02*
X008860Y003111D01*
X009040Y003111D02*
X009270Y003111D01*
X010075Y002635D02*
X012580Y002635D01*
X012580Y002477D02*
X009917Y002477D01*
X009758Y002318D02*
X012580Y002318D01*
X012580Y002160D02*
X009600Y002160D01*
X009441Y002001D02*
X012580Y002001D01*
X012580Y001980D02*
X012819Y001741D01*
X012810Y001732D01*
X012810Y001368D01*
X012898Y001280D01*
X012602Y001280D01*
X012690Y001368D01*
X012690Y001732D01*
X012432Y001990D01*
X012068Y001990D01*
X011810Y001732D01*
X011810Y001368D01*
X011898Y001280D01*
X011602Y001280D01*
X011690Y001368D01*
X011690Y001732D01*
X011432Y001990D01*
X011068Y001990D01*
X010810Y001732D01*
X010810Y001368D01*
X010898Y001280D01*
X010602Y001280D01*
X010690Y001368D01*
X010690Y001732D01*
X010432Y001990D01*
X010068Y001990D01*
X009810Y001732D01*
X009810Y001368D01*
X009898Y001280D01*
X009602Y001280D01*
X009690Y001368D01*
X009690Y001732D01*
X009432Y001990D01*
X009430Y001990D01*
X013215Y005775D01*
X013305Y005775D01*
X013406Y005817D01*
X013483Y005894D01*
X013525Y005995D01*
X013525Y006105D01*
X013483Y006206D01*
X013406Y006283D01*
X013305Y006325D01*
X013195Y006325D01*
X013094Y006283D01*
X013017Y006206D01*
X012975Y006105D01*
X012975Y006015D01*
X011240Y004280D01*
X011240Y005671D01*
X011729Y006160D01*
X011840Y006271D01*
X011840Y006629D01*
X011579Y006890D01*
X011583Y006894D01*
X011600Y006935D01*
X011617Y006894D01*
X011694Y006817D01*
X011795Y006775D01*
X011905Y006775D01*
X012006Y006817D01*
X012083Y006894D01*
X012100Y006935D01*
X012117Y006894D01*
X012194Y006817D01*
X012295Y006775D01*
X012405Y006775D01*
X012506Y006817D01*
X012583Y006894D01*
X012600Y006935D01*
X012617Y006894D01*
X012694Y006817D01*
X012795Y006775D01*
X012905Y006775D01*
X013006Y006817D01*
X013050Y006861D01*
X013094Y006817D01*
X013195Y006775D01*
X013305Y006775D01*
X013406Y006817D01*
X013483Y006894D01*
X013525Y006995D01*
X013525Y007105D01*
X013483Y007206D01*
X013406Y007283D01*
X013305Y007325D01*
X013215Y007325D01*
X011430Y009110D01*
X011432Y009110D01*
X011690Y009368D01*
X011690Y009732D01*
X011602Y009820D01*
X011898Y009820D01*
X011810Y009732D01*
X011810Y009368D01*
X012068Y009110D01*
X012432Y009110D01*
X012441Y009119D01*
X012980Y008580D01*
X013531Y008580D01*
X013594Y008517D01*
X013695Y008475D01*
X013805Y008475D01*
X013906Y008517D01*
X013983Y008594D01*
X014025Y008695D01*
X014025Y008805D01*
X013983Y008906D01*
X013906Y008983D01*
X013805Y009025D01*
X013695Y009025D01*
X013594Y008983D01*
X013531Y008920D01*
X013120Y008920D01*
X012681Y009359D01*
X012690Y009368D01*
X012690Y009732D01*
X012602Y009820D01*
X012898Y009820D01*
X012810Y009732D01*
X012810Y009368D01*
X013068Y009110D01*
X013432Y009110D01*
X013690Y009368D01*
X013690Y009732D01*
X013602Y009820D01*
X013898Y009820D01*
X013810Y009732D01*
X013810Y009368D01*
X014068Y009110D01*
X014432Y009110D01*
X014690Y009368D01*
X014690Y009732D01*
X014602Y009820D01*
X014841Y009820D01*
X014770Y009749D01*
X014770Y009570D01*
X015230Y009570D01*
X015230Y009530D01*
X015270Y009530D01*
X015270Y009070D01*
X015449Y009070D01*
X015520Y009141D01*
X015520Y005580D01*
X013567Y005580D01*
X013520Y005533D01*
X013520Y002217D01*
X013567Y002170D01*
X015520Y002170D01*
X015520Y001959D01*
X015449Y002030D01*
X015270Y002030D01*
X015270Y001570D01*
X015230Y001570D01*
X015230Y002030D01*
X015051Y002030D01*
X014770Y001749D01*
X014770Y001570D01*
X015230Y001570D01*
X015230Y001530D01*
X014770Y001530D01*
X014770Y001351D01*
X014841Y001280D01*
X014602Y001280D01*
X014690Y001368D01*
X014690Y001732D01*
X014432Y001990D01*
X014068Y001990D01*
X013810Y001732D01*
X013810Y001368D01*
X013898Y001280D01*
X013602Y001280D01*
X013690Y001368D01*
X013690Y001732D01*
X013432Y001990D01*
X013068Y001990D01*
X013059Y001981D01*
X012920Y002120D01*
X012920Y004331D01*
X012983Y004394D01*
X013025Y004495D01*
X013025Y004605D01*
X012983Y004706D01*
X012906Y004783D01*
X012805Y004825D01*
X012695Y004825D01*
X012594Y004783D01*
X012517Y004706D01*
X012475Y004605D01*
X012475Y004495D01*
X012517Y004394D01*
X012580Y004331D01*
X012580Y001980D01*
X012580Y001843D02*
X012717Y001843D01*
X012690Y001684D02*
X012810Y001684D01*
X012810Y001526D02*
X012690Y001526D01*
X012689Y001367D02*
X012811Y001367D01*
X013580Y001843D02*
X013920Y001843D01*
X013810Y001684D02*
X013690Y001684D01*
X013690Y001526D02*
X013810Y001526D01*
X013811Y001367D02*
X013689Y001367D01*
X014580Y001843D02*
X014864Y001843D01*
X014770Y001684D02*
X014690Y001684D01*
X014690Y001526D02*
X014770Y001526D01*
X014770Y001367D02*
X014689Y001367D01*
X015230Y001684D02*
X015270Y001684D01*
X015270Y001843D02*
X015230Y001843D01*
X015230Y002001D02*
X015270Y002001D01*
X015478Y002001D02*
X015520Y002001D01*
X015520Y002160D02*
X012920Y002160D01*
X012920Y002318D02*
X013520Y002318D01*
X013520Y002477D02*
X012920Y002477D01*
X012920Y002635D02*
X013520Y002635D01*
X013520Y002794D02*
X012920Y002794D01*
X012920Y002952D02*
X013520Y002952D01*
X013520Y003111D02*
X012920Y003111D01*
X012920Y003269D02*
X013520Y003269D01*
X013520Y003428D02*
X012920Y003428D01*
X012920Y003586D02*
X013520Y003586D01*
X013520Y003745D02*
X012920Y003745D01*
X012920Y003903D02*
X013520Y003903D01*
X013520Y004062D02*
X012920Y004062D01*
X012920Y004220D02*
X013520Y004220D01*
X013520Y004379D02*
X012967Y004379D01*
X013025Y004537D02*
X013520Y004537D01*
X013520Y004696D02*
X012987Y004696D01*
X012513Y004696D02*
X012136Y004696D01*
X012294Y004854D02*
X013520Y004854D01*
X013520Y005013D02*
X012453Y005013D01*
X012611Y005171D02*
X013520Y005171D01*
X013520Y005330D02*
X012770Y005330D01*
X012928Y005488D02*
X013520Y005488D01*
X013377Y005805D02*
X015520Y005805D01*
X015520Y005964D02*
X013512Y005964D01*
X013518Y006122D02*
X015520Y006122D01*
X015520Y006281D02*
X013408Y006281D01*
X013092Y006281D02*
X011840Y006281D01*
X011691Y006122D02*
X012982Y006122D01*
X012923Y005964D02*
X011532Y005964D01*
X011374Y005805D02*
X012765Y005805D01*
X012606Y005647D02*
X011240Y005647D01*
X011240Y005488D02*
X012448Y005488D01*
X012289Y005330D02*
X011240Y005330D01*
X011240Y005171D02*
X012131Y005171D01*
X011972Y005013D02*
X011240Y005013D01*
X011240Y004854D02*
X011814Y004854D01*
X011655Y004696D02*
X011240Y004696D01*
X011240Y004537D02*
X011497Y004537D01*
X011338Y004379D02*
X011240Y004379D01*
X011660Y004220D02*
X012580Y004220D01*
X012533Y004379D02*
X011819Y004379D01*
X011977Y004537D02*
X012475Y004537D01*
X012580Y004062D02*
X011502Y004062D01*
X011343Y003903D02*
X012580Y003903D01*
X012580Y003745D02*
X011185Y003745D01*
X011026Y003586D02*
X012580Y003586D01*
X012580Y003428D02*
X010868Y003428D01*
X010709Y003269D02*
X012580Y003269D01*
X012580Y003111D02*
X010551Y003111D01*
X010392Y002952D02*
X012580Y002952D01*
X012580Y002794D02*
X010234Y002794D01*
X009920Y001843D02*
X009580Y001843D01*
X009690Y001684D02*
X009810Y001684D01*
X009810Y001526D02*
X009690Y001526D01*
X009689Y001367D02*
X009811Y001367D01*
X010689Y001367D02*
X010811Y001367D01*
X010810Y001526D02*
X010690Y001526D01*
X010690Y001684D02*
X010810Y001684D01*
X010920Y001843D02*
X010580Y001843D01*
X011580Y001843D02*
X011920Y001843D01*
X011810Y001684D02*
X011690Y001684D01*
X011690Y001526D02*
X011810Y001526D01*
X011811Y001367D02*
X011689Y001367D01*
X013039Y002001D02*
X015022Y002001D01*
X015520Y005647D02*
X013087Y005647D01*
X011840Y006439D02*
X015520Y006439D01*
X015520Y006598D02*
X011840Y006598D01*
X011713Y006756D02*
X015520Y006756D01*
X015520Y006915D02*
X013492Y006915D01*
X013525Y007073D02*
X015520Y007073D01*
X015520Y007232D02*
X013457Y007232D01*
X013150Y007390D02*
X015520Y007390D01*
X015520Y007549D02*
X012992Y007549D01*
X012833Y007707D02*
X015520Y007707D01*
X015520Y007866D02*
X012675Y007866D01*
X012516Y008024D02*
X015520Y008024D01*
X015520Y008183D02*
X012358Y008183D01*
X012199Y008341D02*
X015520Y008341D01*
X015520Y008500D02*
X013864Y008500D01*
X014010Y008658D02*
X015520Y008658D01*
X015520Y008817D02*
X014020Y008817D01*
X013914Y008975D02*
X015520Y008975D01*
X015512Y009134D02*
X015520Y009134D01*
X015270Y009134D02*
X015230Y009134D01*
X015230Y009070D02*
X015051Y009070D01*
X014770Y009351D01*
X014770Y009530D01*
X015230Y009530D01*
X015230Y009070D01*
X015230Y009292D02*
X015270Y009292D01*
X015270Y009451D02*
X015230Y009451D01*
X014988Y009134D02*
X014456Y009134D01*
X014614Y009292D02*
X014829Y009292D01*
X014770Y009451D02*
X014690Y009451D01*
X014690Y009609D02*
X014770Y009609D01*
X014789Y009768D02*
X014655Y009768D01*
X013845Y009768D02*
X013655Y009768D01*
X013690Y009609D02*
X013810Y009609D01*
X013810Y009451D02*
X013690Y009451D01*
X013614Y009292D02*
X013886Y009292D01*
X014044Y009134D02*
X013456Y009134D01*
X013586Y008975D02*
X013065Y008975D01*
X013044Y009134D02*
X012907Y009134D01*
X012886Y009292D02*
X012748Y009292D01*
X012690Y009451D02*
X012810Y009451D01*
X012810Y009609D02*
X012690Y009609D01*
X012655Y009768D02*
X012845Y009768D01*
X011886Y009292D02*
X011614Y009292D01*
X011456Y009134D02*
X012044Y009134D01*
X011810Y009451D02*
X011690Y009451D01*
X011690Y009609D02*
X011810Y009609D01*
X011845Y009768D02*
X011655Y009768D01*
X011565Y008975D02*
X012585Y008975D01*
X012743Y008817D02*
X011724Y008817D01*
X011882Y008658D02*
X012902Y008658D01*
X013636Y008500D02*
X012041Y008500D01*
X012092Y006915D02*
X012108Y006915D01*
X012592Y006915D02*
X012608Y006915D01*
X011608Y006915D02*
X011592Y006915D01*
X006528Y003903D02*
X006243Y003903D01*
X005953Y002794D02*
X004088Y002794D01*
X004125Y002635D02*
X005795Y002635D01*
X005801Y001780D02*
X005642Y001780D01*
X005690Y001732D01*
X005690Y001368D01*
X005602Y001280D01*
X005841Y001280D01*
X005770Y001351D01*
X005770Y001530D01*
X006230Y001530D01*
X006230Y001570D01*
X005770Y001570D01*
X005770Y001749D01*
X005801Y001780D01*
X005770Y001684D02*
X005690Y001684D01*
X005690Y001526D02*
X005770Y001526D01*
X005770Y001367D02*
X005689Y001367D01*
X006270Y001530D02*
X006270Y001570D01*
X006730Y001570D01*
X006730Y001749D01*
X006699Y001780D01*
X006858Y001780D01*
X006810Y001732D01*
X006810Y001368D01*
X006898Y001280D01*
X006659Y001280D01*
X006730Y001351D01*
X006730Y001530D01*
X006270Y001530D01*
X006730Y001526D02*
X006810Y001526D01*
X006811Y001367D02*
X006730Y001367D01*
X006730Y001684D02*
X006810Y001684D01*
D15*
X007050Y002350D02*
X009350Y002350D01*
X011050Y004050D01*
X011050Y005850D01*
X010950Y005850D01*
X011050Y005850D02*
X011150Y005850D01*
X011650Y006350D01*
X011650Y006550D01*
X011250Y006950D01*
X011350Y007050D01*
X011250Y006950D02*
X009450Y008750D01*
X008250Y008750D01*
X007450Y009550D01*
X007250Y009550D01*
X006250Y009550D02*
X005750Y009050D01*
X005350Y009050D01*
X003750Y008150D02*
X003750Y007450D01*
X003950Y007250D01*
X004150Y007250D01*
X004450Y007550D01*
X004750Y007450D02*
X004350Y007050D01*
X003950Y007050D01*
X002450Y005550D01*
X002450Y004450D01*
X002250Y004250D01*
X002250Y004050D01*
X002450Y003850D01*
X005150Y003850D01*
X005350Y003650D01*
X005350Y003250D01*
X005650Y002950D01*
X008150Y002950D01*
X007050Y002350D02*
X006925Y002475D01*
X006725Y002475D01*
X005150Y003850D02*
X004950Y004050D01*
X004250Y004050D01*
X003950Y004350D01*
X003950Y004950D01*
X004550Y004850D02*
X004550Y004520D01*
X004720Y004350D01*
X004550Y004850D02*
X006050Y004850D01*
X006150Y004950D01*
X006850Y004950D01*
X005750Y005350D02*
X005750Y005950D01*
X005850Y006250D02*
X004650Y006250D01*
X002550Y004150D01*
X002050Y004750D02*
X002050Y004950D01*
X001850Y005150D01*
X001750Y005250D01*
X001850Y005150D02*
X002250Y005550D01*
X002250Y005650D01*
X002550Y005950D01*
X002550Y006350D01*
X001750Y005850D02*
X001750Y007550D01*
X002250Y008050D01*
X003150Y008150D02*
X003150Y008750D01*
X004750Y007750D02*
X004750Y007450D01*
X005850Y006250D02*
X006150Y005950D01*
X006550Y005950D01*
X005150Y005950D02*
X005150Y005450D01*
X005150Y005350D01*
X005150Y005450D02*
X004550Y004850D01*
X011650Y009050D02*
X012350Y009050D01*
X012950Y008450D01*
X013550Y008450D01*
X013550Y006650D01*
X013950Y006650D01*
X013550Y006650D02*
X013550Y005650D01*
X013450Y005650D01*
X013550Y005650D02*
X013950Y005650D01*
X013550Y005650D02*
X013550Y002150D01*
X014250Y002150D01*
X014850Y001550D01*
X015250Y001550D01*
X014150Y008450D02*
X013550Y008450D01*
X014150Y008450D02*
X015250Y009550D01*
D16*
X013750Y008750D03*
X011650Y009050D03*
X008850Y007950D03*
X008250Y008150D03*
X007250Y007350D03*
X006650Y007650D03*
X005450Y007650D03*
X005050Y007550D03*
X004750Y007750D03*
X004450Y007550D03*
X004050Y007550D03*
X004050Y006550D03*
X003050Y006550D03*
X002550Y006350D03*
X003650Y005750D03*
X003950Y004950D03*
X004720Y004350D03*
X005350Y003650D03*
X004950Y003550D03*
X005750Y003250D03*
X006750Y003350D03*
X006650Y004150D03*
X006850Y004950D03*
X007350Y005750D03*
X006550Y005950D03*
X005750Y005950D03*
X005150Y005950D03*
X002550Y004150D03*
X002050Y004750D03*
X001250Y004650D03*
X003850Y002650D03*
X006725Y002475D03*
X007750Y001650D03*
X008950Y002850D03*
X008150Y002950D03*
X009750Y003950D03*
X009450Y004750D03*
X009450Y005350D03*
X009450Y005850D03*
X010450Y005750D03*
X010950Y005850D03*
X010450Y006150D03*
X009950Y006750D03*
X010250Y007050D03*
X011350Y007050D03*
X011850Y007050D03*
X012350Y007050D03*
X012850Y007050D03*
X013250Y007050D03*
X013950Y006650D03*
X014450Y006650D03*
X014950Y006650D03*
X015450Y006650D03*
X015450Y006150D03*
X014950Y006150D03*
X014450Y006150D03*
X013950Y006150D03*
X013250Y006050D03*
X013450Y005650D03*
X013950Y005650D03*
X014450Y005650D03*
X014950Y005650D03*
X015450Y005650D03*
X013450Y005150D03*
X012950Y005150D03*
X013450Y004650D03*
X013450Y004150D03*
X012750Y004550D03*
X012150Y004350D03*
X011450Y005150D03*
X011950Y006150D03*
X012450Y006150D03*
X011350Y006450D03*
X014450Y007150D03*
X014950Y007150D03*
X015450Y007150D03*
X005350Y009050D03*
X003750Y009450D03*
X003150Y008750D03*
D17*
X003450Y009150D02*
X002650Y009150D01*
X002250Y009550D01*
X003250Y009550D02*
X004050Y008750D01*
X008050Y008750D01*
X008850Y007950D01*
X008250Y008150D02*
X007750Y008150D01*
X007650Y008150D02*
X007250Y008150D01*
X007150Y008150D02*
X007350Y007950D01*
X007350Y007850D01*
X008150Y007050D01*
X010250Y007050D01*
X009950Y006750D02*
X008050Y006750D01*
X007450Y007350D01*
X007250Y007350D01*
X006650Y007650D02*
X005850Y007650D01*
X004950Y008550D01*
X004050Y008550D01*
X003450Y009150D01*
X003750Y009450D02*
X004050Y009150D01*
X004850Y009150D01*
X005250Y009550D01*
X003650Y008150D02*
X003250Y008150D01*
X002750Y008250D02*
X002750Y007850D01*
X003050Y007550D01*
X003050Y006550D01*
X003650Y006550D02*
X003650Y005750D01*
X004150Y006450D02*
X004050Y006550D01*
X004150Y006450D02*
X006450Y006450D01*
X007150Y005750D01*
X007350Y005750D01*
X006850Y006250D02*
X006450Y006650D01*
X004350Y006650D01*
X004150Y006850D01*
X003950Y006850D01*
X003650Y006550D01*
X004050Y007550D02*
X004550Y008050D01*
X005050Y008050D01*
X005450Y007650D01*
X005050Y007550D02*
X005750Y006850D01*
X007750Y006850D01*
X008150Y006450D01*
X011350Y006450D01*
X011850Y007050D02*
X009950Y008950D01*
X008850Y008950D01*
X008250Y009550D01*
X009250Y009550D02*
X009650Y009150D01*
X010250Y009150D01*
X012350Y007050D01*
X012850Y007050D02*
X010350Y009550D01*
X010250Y009550D01*
X011250Y009550D02*
X011250Y009050D01*
X013250Y007050D01*
X013250Y006050D02*
X009350Y002150D01*
X003950Y002150D01*
X003550Y002550D01*
X003550Y002750D01*
X004350Y003550D01*
X004950Y003550D01*
X005750Y003650D02*
X005750Y003250D01*
X005750Y003650D02*
X006550Y004450D01*
X006950Y004450D01*
X008350Y005850D01*
X009450Y005850D01*
X009750Y005950D02*
X009750Y005650D01*
X009450Y005350D01*
X010150Y005850D02*
X010150Y004250D01*
X010250Y004150D01*
X010250Y003850D01*
X009250Y002850D01*
X008950Y002850D01*
X009350Y002550D02*
X007050Y002550D01*
X006850Y002750D01*
X006150Y002750D01*
X005850Y002450D01*
X004050Y002450D01*
X003850Y002650D01*
X003950Y001950D02*
X001250Y004650D01*
X000950Y003850D02*
X003250Y001550D01*
X003950Y001950D02*
X007450Y001950D01*
X007750Y001650D01*
X009350Y002550D02*
X010850Y004050D01*
X010850Y005050D01*
X010450Y005450D01*
X010450Y005750D01*
X010150Y005850D02*
X010450Y006150D01*
X009750Y005950D02*
X009450Y006250D01*
X006850Y006250D01*
X005650Y005350D02*
X005250Y005350D01*
X006650Y004150D02*
X006850Y004150D01*
X007150Y004450D01*
X007750Y004450D01*
X008250Y003950D01*
X009750Y003950D01*
X010050Y003850D02*
X009550Y003350D01*
X006750Y003350D01*
X009450Y004750D02*
X010050Y004150D01*
X010050Y003850D01*
X012750Y004550D02*
X012750Y002050D01*
X013250Y001550D01*
X002750Y008250D02*
X002450Y008550D01*
X002050Y008550D01*
X000950Y007450D01*
X000950Y003850D01*
X001750Y005350D02*
X001750Y005750D01*
X012250Y009550D02*
X013050Y008750D01*
X013750Y008750D01*
M02*
