G75*
%MOIN*%
%OFA0B0*%
%FSLAX24Y24*%
%IPPOS*%
%LPD*%
%AMOC8*
5,1,8,0,0,1.08239X$1,22.5*
%
%ADD10R,0.0354X0.0394*%
%ADD11R,0.0669X0.0315*%
%ADD12R,0.0433X0.0394*%
%ADD13R,0.0472X0.0472*%
%ADD14R,0.0394X0.0433*%
%ADD15C,0.0276*%
D10*
X004243Y008965D03*
X004243Y009595D03*
X005857Y009595D03*
X005857Y008965D03*
D11*
X005050Y009752D03*
D12*
X004765Y010380D03*
X005435Y010380D03*
X015465Y007380D03*
X016135Y007380D03*
D13*
X006163Y012030D03*
X005337Y012030D03*
X004763Y012030D03*
X003937Y012030D03*
D14*
X003385Y012030D03*
X002715Y012030D03*
X006715Y012030D03*
X007385Y012030D03*
D15*
X011616Y011361D02*
X012126Y011361D01*
X012126Y010967D02*
X011616Y010967D01*
X011616Y010574D02*
X012126Y010574D01*
X012126Y010180D02*
X011616Y010180D01*
X011616Y009786D02*
X012126Y009786D01*
X012126Y009393D02*
X011616Y009393D01*
X011616Y008999D02*
X012126Y008999D01*
X012088Y008427D02*
X012088Y007917D01*
X012481Y007917D02*
X012481Y008427D01*
X012875Y008427D02*
X012875Y007917D01*
X013269Y007917D02*
X013269Y008427D01*
X013663Y008427D02*
X013663Y007917D01*
X014056Y007917D02*
X014056Y008427D01*
X014450Y008427D02*
X014450Y007917D01*
X014844Y007917D02*
X014844Y008427D01*
X015237Y008427D02*
X015237Y007917D01*
X015631Y007917D02*
X015631Y008427D01*
X016025Y008427D02*
X016025Y007917D01*
X016419Y007917D02*
X016419Y008427D01*
X016812Y008427D02*
X016812Y007917D01*
X016812Y011933D02*
X016812Y012443D01*
X016419Y012443D02*
X016419Y011933D01*
X016025Y011933D02*
X016025Y012443D01*
X015631Y012443D02*
X015631Y011933D01*
X015237Y011933D02*
X015237Y012443D01*
X014844Y012443D02*
X014844Y011933D01*
X014450Y011933D02*
X014450Y012443D01*
X014056Y012443D02*
X014056Y011933D01*
X013663Y011933D02*
X013663Y012443D01*
X013269Y012443D02*
X013269Y011933D01*
X012875Y011933D02*
X012875Y012443D01*
X012481Y012443D02*
X012481Y011933D01*
X012088Y011933D02*
X012088Y012443D01*
M02*
