G75*
%MOIN*%
%OFA0B0*%
%FSLAX24Y24*%
%IPPOS*%
%LPD*%
%AMOC8*
5,1,8,0,0,1.08239X$1,22.5*
%
%ADD10C,0.0000*%
%ADD11C,0.0030*%
%ADD12C,0.0160*%
%ADD13C,0.0040*%
%ADD14C,0.0060*%
%ADD15C,0.0050*%
%ADD16C,0.0020*%
%ADD17R,0.0400X0.0300*%
%ADD18R,0.0400X0.0020*%
%ADD19R,0.0020X0.0280*%
%ADD20C,0.0025*%
D10*
X000200Y005680D02*
X000200Y014680D01*
X013200Y014680D01*
X013200Y018380D01*
X014700Y019880D01*
X017200Y019880D01*
X017200Y000480D01*
X014700Y000480D01*
X013200Y001980D01*
X013200Y005680D01*
X000200Y005680D01*
D11*
X010903Y009207D02*
X010964Y009145D01*
X011088Y009145D01*
X011149Y009207D01*
X010903Y009454D01*
X010903Y009207D01*
X010903Y009454D02*
X010964Y009515D01*
X011088Y009515D01*
X011149Y009454D01*
X011149Y009207D01*
X011272Y009207D02*
X011272Y009145D01*
X011334Y009145D01*
X011334Y009207D01*
X011272Y009207D01*
X011455Y009145D02*
X011702Y009145D01*
X011578Y009145D02*
X011578Y009515D01*
X011702Y009392D01*
X011823Y009392D02*
X011947Y009145D01*
X012070Y009392D01*
X012560Y009392D02*
X012622Y009330D01*
X012807Y009330D01*
X012928Y009268D02*
X012928Y009207D01*
X012990Y009145D01*
X013175Y009145D01*
X013175Y009515D01*
X012990Y009515D01*
X012928Y009454D01*
X012928Y009392D01*
X012990Y009330D01*
X013175Y009330D01*
X012990Y009330D02*
X012928Y009268D01*
X012807Y009145D02*
X012622Y009145D01*
X012560Y009207D01*
X012560Y009268D01*
X012622Y009330D01*
X012560Y009392D02*
X012560Y009454D01*
X012622Y009515D01*
X012807Y009515D01*
X012807Y009145D01*
X012806Y008792D02*
X012683Y008792D01*
X012621Y008730D01*
X012621Y008607D01*
X012683Y008545D01*
X012806Y008545D01*
X012868Y008607D01*
X012868Y008730D01*
X012806Y008792D01*
X012990Y008792D02*
X013175Y008792D01*
X013236Y008730D01*
X013236Y008607D01*
X013175Y008545D01*
X012990Y008545D01*
X013359Y008545D02*
X013421Y008545D01*
X013421Y008607D01*
X013359Y008607D01*
X013359Y008545D01*
X013542Y008545D02*
X013727Y008545D01*
X013789Y008607D01*
X013789Y008792D01*
X013910Y008730D02*
X013910Y008668D01*
X014157Y008668D01*
X014157Y008607D02*
X014157Y008730D01*
X014096Y008792D01*
X013972Y008792D01*
X013910Y008730D01*
X013972Y008545D02*
X014096Y008545D01*
X014157Y008607D01*
X014279Y008545D02*
X014279Y008730D01*
X014340Y008792D01*
X014526Y008792D01*
X014526Y008545D01*
X014648Y008545D02*
X014709Y008607D01*
X014709Y008854D01*
X014648Y008792D02*
X014771Y008792D01*
X014893Y008730D02*
X014893Y008668D01*
X015139Y008668D01*
X015139Y008607D02*
X015139Y008730D01*
X015078Y008792D01*
X014954Y008792D01*
X014893Y008730D01*
X014954Y008545D02*
X015078Y008545D01*
X015139Y008607D01*
X015262Y008483D02*
X015262Y008792D01*
X015262Y008915D02*
X015262Y008977D01*
X015200Y009145D02*
X015385Y009145D01*
X015385Y009515D01*
X015200Y009515D01*
X015138Y009454D01*
X015138Y009392D01*
X015200Y009330D01*
X015385Y009330D01*
X015200Y009330D02*
X015138Y009268D01*
X015138Y009207D01*
X015200Y009145D01*
X014893Y009145D02*
X014893Y009515D01*
X014770Y009515D02*
X015017Y009515D01*
X014648Y009392D02*
X014525Y009515D01*
X014525Y009145D01*
X014648Y009145D02*
X014401Y009145D01*
X014280Y009145D02*
X014033Y009392D01*
X014033Y009454D01*
X014095Y009515D01*
X014218Y009515D01*
X014280Y009454D01*
X014280Y009145D02*
X014033Y009145D01*
X013912Y009145D02*
X013665Y009145D01*
X013788Y009145D02*
X013788Y009515D01*
X013912Y009392D01*
X013542Y008792D02*
X013542Y008483D01*
X013604Y008422D01*
X013666Y008422D01*
X012500Y008545D02*
X012500Y008792D01*
X012438Y008792D01*
X012376Y008730D01*
X012315Y008792D01*
X012253Y008730D01*
X012253Y008545D01*
X012376Y008545D02*
X012376Y008730D01*
X015262Y008483D02*
X015323Y008422D01*
X015385Y008422D01*
D12*
X013200Y006680D02*
X013200Y005680D01*
X012200Y005680D01*
X012200Y006680D01*
X013200Y006680D01*
D13*
X006630Y011383D02*
X006597Y011350D01*
X006530Y011350D01*
X006497Y011383D01*
X006497Y011550D01*
X006409Y011517D02*
X006409Y011483D01*
X006376Y011450D01*
X006309Y011450D01*
X006276Y011417D01*
X006276Y011383D01*
X006309Y011350D01*
X006376Y011350D01*
X006409Y011383D01*
X006409Y011517D02*
X006376Y011550D01*
X006309Y011550D01*
X006276Y011517D01*
X006188Y011550D02*
X006188Y011350D01*
X006188Y011417D02*
X006088Y011417D01*
X006055Y011450D01*
X006055Y011517D01*
X006088Y011550D01*
X006188Y011550D01*
X006121Y011417D02*
X006055Y011350D01*
X006113Y011250D02*
X006047Y011183D01*
X006047Y011050D01*
X005959Y011050D02*
X005826Y011050D01*
X005892Y011050D02*
X005892Y011250D01*
X005959Y011183D01*
X006047Y011150D02*
X006180Y011150D01*
X006180Y011183D02*
X006113Y011250D01*
X006180Y011183D02*
X006180Y011050D01*
X005746Y011350D02*
X005746Y011550D01*
X005746Y011350D02*
X005613Y011350D01*
X005525Y011350D02*
X005525Y011550D01*
X005392Y011550D01*
X005304Y011550D02*
X005204Y011550D01*
X005171Y011517D01*
X005171Y011383D01*
X005204Y011350D01*
X005304Y011350D01*
X005304Y011550D01*
X005458Y011450D02*
X005525Y011450D01*
X005525Y011350D02*
X005392Y011350D01*
X005638Y011250D02*
X005738Y011150D01*
X005605Y011150D01*
X005638Y011050D02*
X005638Y011250D01*
X004930Y011350D02*
X004930Y011550D01*
X004830Y011550D01*
X004797Y011517D01*
X004797Y011450D01*
X004830Y011417D01*
X004930Y011417D01*
X004709Y011350D02*
X004642Y011417D01*
X004576Y011350D01*
X004576Y011550D01*
X004488Y011550D02*
X004488Y011350D01*
X004488Y011417D02*
X004388Y011417D01*
X004355Y011450D01*
X004355Y011517D01*
X004388Y011550D01*
X004488Y011550D01*
X004421Y011417D02*
X004355Y011350D01*
X004046Y011350D02*
X003913Y011350D01*
X003825Y011350D02*
X003825Y011550D01*
X003692Y011550D01*
X003604Y011550D02*
X003604Y011350D01*
X003504Y011350D01*
X003471Y011383D01*
X003471Y011517D01*
X003504Y011550D01*
X003604Y011550D01*
X003758Y011450D02*
X003825Y011450D01*
X003825Y011350D02*
X003692Y011350D01*
X004046Y011350D02*
X004046Y011550D01*
X004709Y011550D02*
X004709Y011350D01*
X006630Y011383D02*
X006630Y011550D01*
X001580Y011507D02*
X001580Y011391D01*
X001541Y011352D01*
X001387Y011352D01*
X001348Y011391D01*
X001348Y011507D01*
X001580Y011507D01*
X001580Y011603D02*
X001348Y011758D01*
X001387Y011853D02*
X001464Y011853D01*
X001503Y011892D01*
X001503Y012008D01*
X001580Y012008D02*
X001348Y012008D01*
X001348Y011892D01*
X001387Y011853D01*
X001503Y011931D02*
X001580Y011853D01*
X001580Y011758D02*
X001348Y011603D01*
X001348Y011006D02*
X001348Y010852D01*
X001348Y010929D02*
X001580Y010929D01*
X001580Y010756D02*
X001348Y010601D01*
X001348Y010505D02*
X001348Y010389D01*
X001387Y010351D01*
X001541Y010351D01*
X001580Y010389D01*
X001580Y010505D01*
X001348Y010505D01*
X001348Y010756D02*
X001580Y010601D01*
X001541Y010005D02*
X001387Y010005D01*
X001348Y009966D01*
X001348Y009888D01*
X001387Y009850D01*
X001464Y009850D02*
X001464Y009927D01*
X001464Y009850D02*
X001541Y009850D01*
X001580Y009888D01*
X001580Y009966D01*
X001541Y010005D01*
X001580Y009754D02*
X001348Y009754D01*
X001580Y009599D01*
X001348Y009599D01*
X001348Y009504D02*
X001348Y009388D01*
X001387Y009349D01*
X001541Y009349D01*
X001580Y009388D01*
X001580Y009504D01*
X001348Y009504D01*
X001387Y009003D02*
X001348Y008964D01*
X001348Y008887D01*
X001387Y008848D01*
X001425Y008848D01*
X001464Y008887D01*
X001503Y008848D01*
X001541Y008848D01*
X001580Y008887D01*
X001580Y008964D01*
X001541Y009003D01*
X001464Y008925D02*
X001464Y008887D01*
X001503Y008752D02*
X001348Y008752D01*
X001348Y008597D02*
X001503Y008597D01*
X001580Y008675D01*
X001503Y008752D01*
X001541Y008502D02*
X001580Y008463D01*
X001580Y008386D01*
X001541Y008347D01*
X001503Y008347D01*
X001464Y008386D01*
X001464Y008424D01*
X001464Y008386D02*
X001425Y008347D01*
X001387Y008347D01*
X001348Y008386D01*
X001348Y008463D01*
X001387Y008502D01*
X001387Y008001D02*
X001541Y008001D01*
X001580Y007962D01*
X001580Y007885D01*
X001541Y007846D01*
X001387Y007846D02*
X001348Y007885D01*
X001348Y007962D01*
X001387Y008001D01*
X001348Y007750D02*
X001348Y007596D01*
X001348Y007673D02*
X001580Y007673D01*
X001541Y007500D02*
X001580Y007461D01*
X001580Y007384D01*
X001541Y007345D01*
X001503Y007345D01*
X001464Y007384D01*
X001464Y007461D01*
X001425Y007500D01*
X001387Y007500D01*
X001348Y007461D01*
X001348Y007384D01*
X001387Y007345D01*
X001387Y012354D02*
X001348Y012393D01*
X001348Y012470D01*
X001387Y012509D01*
X001425Y012509D01*
X001464Y012470D01*
X001464Y012393D01*
X001503Y012354D01*
X001541Y012354D01*
X001580Y012393D01*
X001580Y012470D01*
X001541Y012509D01*
X001580Y012682D02*
X001348Y012682D01*
X001348Y012605D02*
X001348Y012760D01*
X001387Y012855D02*
X001464Y012855D01*
X001503Y012894D01*
X001503Y013010D01*
X001580Y013010D02*
X001348Y013010D01*
X001348Y012894D01*
X001387Y012855D01*
X001503Y012933D02*
X001580Y012855D01*
D14*
X003700Y012330D02*
X003700Y011730D01*
X003702Y011713D01*
X003706Y011696D01*
X003713Y011680D01*
X003723Y011666D01*
X003736Y011653D01*
X003750Y011643D01*
X003766Y011636D01*
X003783Y011632D01*
X003800Y011630D01*
X004900Y011630D01*
X004917Y011632D01*
X004934Y011636D01*
X004950Y011643D01*
X004964Y011653D01*
X004977Y011666D01*
X004987Y011680D01*
X004994Y011696D01*
X004998Y011713D01*
X005000Y011730D01*
X005000Y012330D01*
X004998Y012347D01*
X004994Y012364D01*
X004987Y012380D01*
X004977Y012394D01*
X004964Y012407D01*
X004950Y012417D01*
X004934Y012424D01*
X004917Y012428D01*
X004900Y012430D01*
X003800Y012430D01*
X003783Y012428D01*
X003766Y012424D01*
X003750Y012417D01*
X003736Y012407D01*
X003723Y012394D01*
X003713Y012380D01*
X003706Y012364D01*
X003702Y012347D01*
X003700Y012330D01*
X003750Y012030D02*
X003950Y012030D01*
X004750Y012030D02*
X004950Y012030D01*
X005150Y012030D02*
X005350Y012030D01*
X005100Y012330D02*
X005102Y012347D01*
X005106Y012364D01*
X005113Y012380D01*
X005123Y012394D01*
X005136Y012407D01*
X005150Y012417D01*
X005166Y012424D01*
X005183Y012428D01*
X005200Y012430D01*
X006300Y012430D01*
X006317Y012428D01*
X006334Y012424D01*
X006350Y012417D01*
X006364Y012407D01*
X006377Y012394D01*
X006387Y012380D01*
X006394Y012364D01*
X006398Y012347D01*
X006400Y012330D01*
X006400Y011730D01*
X006398Y011713D01*
X006394Y011696D01*
X006387Y011680D01*
X006377Y011666D01*
X006364Y011653D01*
X006350Y011643D01*
X006334Y011636D01*
X006317Y011632D01*
X006300Y011630D01*
X005200Y011630D01*
X005183Y011632D01*
X005166Y011636D01*
X005150Y011643D01*
X005136Y011653D01*
X005123Y011666D01*
X005113Y011680D01*
X005106Y011696D01*
X005102Y011713D01*
X005100Y011730D01*
X005100Y012330D01*
X006150Y012030D02*
X006350Y012030D01*
X013190Y010290D02*
X013190Y010160D01*
X013330Y010130D01*
X013390Y010000D01*
X013300Y009870D01*
X013390Y009780D01*
X013510Y009860D01*
X013570Y009830D01*
X013660Y010060D01*
X013600Y010030D02*
X013500Y010230D01*
X013600Y010380D01*
X013750Y010430D01*
X013900Y010380D01*
X013950Y010230D01*
X013900Y010080D01*
X013850Y010030D01*
X013950Y009880D01*
X014100Y009830D01*
X014150Y009880D01*
X014050Y010030D01*
X014150Y010180D01*
X014250Y010180D01*
X014250Y010280D01*
X014100Y010280D01*
X014050Y010430D01*
X014150Y010580D01*
X014100Y010630D01*
X013950Y010530D01*
X013800Y010630D01*
X013800Y010730D01*
X013700Y010730D01*
X013650Y010580D01*
X013500Y010530D01*
X013400Y010630D01*
X013350Y010580D01*
X013400Y010430D01*
X013350Y010280D01*
X013200Y010280D01*
X013250Y010180D01*
X013400Y010130D01*
X013400Y009980D01*
X013350Y009880D01*
X013400Y009830D01*
X013500Y009880D01*
X013550Y009880D01*
X013600Y010030D01*
X013593Y010009D02*
X013400Y010009D01*
X013400Y010068D02*
X013581Y010068D01*
X013552Y010126D02*
X013400Y010126D01*
X013523Y010185D02*
X013248Y010185D01*
X013218Y010243D02*
X013509Y010243D01*
X013548Y010302D02*
X013357Y010302D01*
X013340Y010320D02*
X013190Y010290D01*
X013340Y010320D02*
X013390Y010440D01*
X013300Y010570D01*
X013390Y010660D01*
X013530Y010570D01*
X013650Y010620D01*
X013680Y010780D01*
X013810Y010780D01*
X013840Y010620D01*
X013960Y010570D01*
X014090Y010660D01*
X014180Y010570D01*
X014090Y010440D01*
X014150Y010310D01*
X014300Y010290D01*
X014300Y010160D01*
X014150Y010130D01*
X014100Y010000D01*
X014180Y009870D01*
X014090Y009780D01*
X013970Y009860D01*
X013920Y009830D01*
X013820Y010060D01*
X013864Y010009D02*
X014064Y010009D01*
X014075Y010068D02*
X013888Y010068D01*
X013915Y010126D02*
X014114Y010126D01*
X014250Y010185D02*
X013935Y010185D01*
X013946Y010243D02*
X014250Y010243D01*
X014093Y010302D02*
X013926Y010302D01*
X013907Y010360D02*
X014073Y010360D01*
X014054Y010419D02*
X013784Y010419D01*
X013716Y010419D02*
X013396Y010419D01*
X013384Y010477D02*
X014081Y010477D01*
X014120Y010536D02*
X013958Y010536D01*
X013942Y010536D02*
X013517Y010536D01*
X013494Y010536D02*
X013365Y010536D01*
X013364Y010594D02*
X013436Y010594D01*
X013655Y010594D02*
X013854Y010594D01*
X013800Y010653D02*
X013674Y010653D01*
X013694Y010711D02*
X013800Y010711D01*
X014046Y010594D02*
X014136Y010594D01*
X013820Y010060D02*
X013842Y010073D01*
X013862Y010089D01*
X013880Y010108D01*
X013895Y010130D01*
X013906Y010153D01*
X013914Y010178D01*
X013918Y010203D01*
X013919Y010229D01*
X013916Y010255D01*
X013909Y010280D01*
X013898Y010303D01*
X013885Y010325D01*
X013868Y010345D01*
X013849Y010362D01*
X013827Y010377D01*
X013803Y010387D01*
X013779Y010395D01*
X013753Y010399D01*
X013727Y010399D01*
X013701Y010395D01*
X013677Y010387D01*
X013653Y010377D01*
X013631Y010362D01*
X013612Y010345D01*
X013595Y010325D01*
X013582Y010303D01*
X013571Y010280D01*
X013564Y010255D01*
X013561Y010229D01*
X013562Y010203D01*
X013566Y010178D01*
X013574Y010153D01*
X013585Y010130D01*
X013600Y010108D01*
X013618Y010089D01*
X013638Y010073D01*
X013660Y010060D01*
X013574Y009951D02*
X013385Y009951D01*
X013356Y009892D02*
X013554Y009892D01*
X013407Y009834D02*
X013396Y009834D01*
X013377Y010360D02*
X013587Y010360D01*
X013903Y009951D02*
X014103Y009951D01*
X014142Y009892D02*
X013942Y009892D01*
X014089Y009834D02*
X014104Y009834D01*
D15*
X005874Y011757D02*
X005851Y012030D01*
X005851Y012030D01*
X005874Y012303D01*
X005875Y012304D01*
X005907Y012299D01*
X005939Y012290D01*
X005969Y012278D01*
X005997Y012262D01*
X006024Y012243D01*
X006048Y012221D01*
X006069Y012197D01*
X006087Y012170D01*
X006102Y012141D01*
X006113Y012110D01*
X006121Y012079D01*
X006125Y012046D01*
X006125Y012014D01*
X006121Y011981D01*
X006113Y011950D01*
X006102Y011919D01*
X006087Y011890D01*
X006069Y011863D01*
X006048Y011839D01*
X006024Y011817D01*
X005997Y011798D01*
X005969Y011782D01*
X005939Y011770D01*
X005907Y011761D01*
X005875Y011756D01*
X005875Y011803D01*
X005903Y011808D01*
X005931Y011817D01*
X005957Y011829D01*
X005982Y011844D01*
X006005Y011862D01*
X006025Y011883D01*
X006042Y011907D01*
X006056Y011932D01*
X006067Y011959D01*
X006074Y011987D01*
X006078Y012016D01*
X006078Y012044D01*
X006074Y012073D01*
X006067Y012101D01*
X006056Y012128D01*
X006042Y012153D01*
X006025Y012177D01*
X006005Y012198D01*
X005982Y012216D01*
X005957Y012231D01*
X005931Y012243D01*
X005903Y012252D01*
X005875Y012257D01*
X005875Y012209D01*
X005900Y012204D01*
X005925Y012195D01*
X005947Y012183D01*
X005968Y012167D01*
X005987Y012149D01*
X006002Y012128D01*
X006015Y012105D01*
X006024Y012081D01*
X006029Y012056D01*
X006031Y012030D01*
X006029Y012004D01*
X006024Y011979D01*
X006015Y011955D01*
X006002Y011932D01*
X005987Y011911D01*
X005968Y011893D01*
X005947Y011877D01*
X005925Y011865D01*
X005900Y011856D01*
X005875Y011851D01*
X005875Y011898D01*
X005896Y011904D01*
X005916Y011913D01*
X005934Y011925D01*
X005950Y011940D01*
X005963Y011958D01*
X005973Y011977D01*
X005980Y011998D01*
X005984Y012019D01*
X005984Y012041D01*
X005980Y012062D01*
X005973Y012083D01*
X005963Y012102D01*
X005950Y012120D01*
X005934Y012135D01*
X005916Y012147D01*
X005896Y012156D01*
X005875Y012162D01*
X005875Y012113D01*
X005891Y012107D01*
X005905Y012098D01*
X005917Y012085D01*
X005927Y012071D01*
X005933Y012055D01*
X005937Y012039D01*
X005937Y012021D01*
X005933Y012005D01*
X005927Y011989D01*
X005917Y011975D01*
X005905Y011962D01*
X005891Y011953D01*
X005875Y011947D01*
X005873Y011998D01*
X005881Y012005D01*
X005887Y012014D01*
X005890Y012025D01*
X005890Y012035D01*
X005887Y012046D01*
X005881Y012055D01*
X005873Y012062D01*
X005626Y012303D02*
X005649Y012030D01*
X005649Y012030D01*
X005626Y011757D01*
X005625Y011756D01*
X005593Y011761D01*
X005561Y011770D01*
X005531Y011782D01*
X005503Y011798D01*
X005476Y011817D01*
X005452Y011839D01*
X005431Y011863D01*
X005413Y011890D01*
X005398Y011919D01*
X005387Y011950D01*
X005379Y011981D01*
X005375Y012014D01*
X005375Y012046D01*
X005379Y012079D01*
X005387Y012110D01*
X005398Y012141D01*
X005413Y012170D01*
X005431Y012197D01*
X005452Y012221D01*
X005476Y012243D01*
X005503Y012262D01*
X005531Y012278D01*
X005561Y012290D01*
X005593Y012299D01*
X005625Y012304D01*
X005625Y012257D01*
X005597Y012252D01*
X005569Y012243D01*
X005543Y012231D01*
X005518Y012216D01*
X005495Y012198D01*
X005475Y012177D01*
X005458Y012153D01*
X005444Y012128D01*
X005433Y012101D01*
X005426Y012073D01*
X005422Y012044D01*
X005422Y012016D01*
X005426Y011987D01*
X005433Y011959D01*
X005444Y011932D01*
X005458Y011907D01*
X005475Y011883D01*
X005495Y011862D01*
X005518Y011844D01*
X005543Y011829D01*
X005569Y011817D01*
X005597Y011808D01*
X005625Y011803D01*
X005625Y011851D01*
X005600Y011856D01*
X005575Y011865D01*
X005553Y011877D01*
X005532Y011893D01*
X005513Y011911D01*
X005498Y011932D01*
X005485Y011955D01*
X005476Y011979D01*
X005471Y012004D01*
X005469Y012030D01*
X005471Y012056D01*
X005476Y012081D01*
X005485Y012105D01*
X005498Y012128D01*
X005513Y012149D01*
X005532Y012167D01*
X005553Y012183D01*
X005575Y012195D01*
X005600Y012204D01*
X005625Y012209D01*
X005625Y012162D01*
X005604Y012156D01*
X005584Y012147D01*
X005566Y012135D01*
X005550Y012120D01*
X005537Y012102D01*
X005527Y012083D01*
X005520Y012062D01*
X005516Y012041D01*
X005516Y012019D01*
X005520Y011998D01*
X005527Y011977D01*
X005537Y011958D01*
X005550Y011940D01*
X005566Y011925D01*
X005584Y011913D01*
X005604Y011904D01*
X005625Y011898D01*
X005625Y011947D01*
X005609Y011953D01*
X005595Y011962D01*
X005583Y011975D01*
X005573Y011989D01*
X005567Y012005D01*
X005563Y012021D01*
X005563Y012039D01*
X005567Y012055D01*
X005573Y012071D01*
X005583Y012085D01*
X005595Y012098D01*
X005609Y012107D01*
X005625Y012113D01*
X005627Y012062D01*
X005619Y012055D01*
X005613Y012046D01*
X005610Y012035D01*
X005610Y012025D01*
X005613Y012014D01*
X005619Y012005D01*
X005627Y011998D01*
X004474Y011757D02*
X004451Y012030D01*
X004451Y012030D01*
X004474Y012303D01*
X004475Y012304D01*
X004507Y012299D01*
X004539Y012290D01*
X004569Y012278D01*
X004597Y012262D01*
X004624Y012243D01*
X004648Y012221D01*
X004669Y012197D01*
X004687Y012170D01*
X004702Y012141D01*
X004713Y012110D01*
X004721Y012079D01*
X004725Y012046D01*
X004725Y012014D01*
X004721Y011981D01*
X004713Y011950D01*
X004702Y011919D01*
X004687Y011890D01*
X004669Y011863D01*
X004648Y011839D01*
X004624Y011817D01*
X004597Y011798D01*
X004569Y011782D01*
X004539Y011770D01*
X004507Y011761D01*
X004475Y011756D01*
X004475Y011803D01*
X004503Y011808D01*
X004531Y011817D01*
X004557Y011829D01*
X004582Y011844D01*
X004605Y011862D01*
X004625Y011883D01*
X004642Y011907D01*
X004656Y011932D01*
X004667Y011959D01*
X004674Y011987D01*
X004678Y012016D01*
X004678Y012044D01*
X004674Y012073D01*
X004667Y012101D01*
X004656Y012128D01*
X004642Y012153D01*
X004625Y012177D01*
X004605Y012198D01*
X004582Y012216D01*
X004557Y012231D01*
X004531Y012243D01*
X004503Y012252D01*
X004475Y012257D01*
X004475Y012209D01*
X004500Y012204D01*
X004525Y012195D01*
X004547Y012183D01*
X004568Y012167D01*
X004587Y012149D01*
X004602Y012128D01*
X004615Y012105D01*
X004624Y012081D01*
X004629Y012056D01*
X004631Y012030D01*
X004629Y012004D01*
X004624Y011979D01*
X004615Y011955D01*
X004602Y011932D01*
X004587Y011911D01*
X004568Y011893D01*
X004547Y011877D01*
X004525Y011865D01*
X004500Y011856D01*
X004475Y011851D01*
X004475Y011898D01*
X004496Y011904D01*
X004516Y011913D01*
X004534Y011925D01*
X004550Y011940D01*
X004563Y011958D01*
X004573Y011977D01*
X004580Y011998D01*
X004584Y012019D01*
X004584Y012041D01*
X004580Y012062D01*
X004573Y012083D01*
X004563Y012102D01*
X004550Y012120D01*
X004534Y012135D01*
X004516Y012147D01*
X004496Y012156D01*
X004475Y012162D01*
X004475Y012113D01*
X004491Y012107D01*
X004505Y012098D01*
X004517Y012085D01*
X004527Y012071D01*
X004533Y012055D01*
X004537Y012039D01*
X004537Y012021D01*
X004533Y012005D01*
X004527Y011989D01*
X004517Y011975D01*
X004505Y011962D01*
X004491Y011953D01*
X004475Y011947D01*
X004473Y011998D01*
X004481Y012005D01*
X004487Y012014D01*
X004490Y012025D01*
X004490Y012035D01*
X004487Y012046D01*
X004481Y012055D01*
X004473Y012062D01*
X004226Y012303D02*
X004249Y012030D01*
X004249Y012030D01*
X004226Y011757D01*
X004225Y011756D01*
X004193Y011761D01*
X004161Y011770D01*
X004131Y011782D01*
X004103Y011798D01*
X004076Y011817D01*
X004052Y011839D01*
X004031Y011863D01*
X004013Y011890D01*
X003998Y011919D01*
X003987Y011950D01*
X003979Y011981D01*
X003975Y012014D01*
X003975Y012046D01*
X003979Y012079D01*
X003987Y012110D01*
X003998Y012141D01*
X004013Y012170D01*
X004031Y012197D01*
X004052Y012221D01*
X004076Y012243D01*
X004103Y012262D01*
X004131Y012278D01*
X004161Y012290D01*
X004193Y012299D01*
X004225Y012304D01*
X004225Y012257D01*
X004197Y012252D01*
X004169Y012243D01*
X004143Y012231D01*
X004118Y012216D01*
X004095Y012198D01*
X004075Y012177D01*
X004058Y012153D01*
X004044Y012128D01*
X004033Y012101D01*
X004026Y012073D01*
X004022Y012044D01*
X004022Y012016D01*
X004026Y011987D01*
X004033Y011959D01*
X004044Y011932D01*
X004058Y011907D01*
X004075Y011883D01*
X004095Y011862D01*
X004118Y011844D01*
X004143Y011829D01*
X004169Y011817D01*
X004197Y011808D01*
X004225Y011803D01*
X004225Y011851D01*
X004200Y011856D01*
X004175Y011865D01*
X004153Y011877D01*
X004132Y011893D01*
X004113Y011911D01*
X004098Y011932D01*
X004085Y011955D01*
X004076Y011979D01*
X004071Y012004D01*
X004069Y012030D01*
X004071Y012056D01*
X004076Y012081D01*
X004085Y012105D01*
X004098Y012128D01*
X004113Y012149D01*
X004132Y012167D01*
X004153Y012183D01*
X004175Y012195D01*
X004200Y012204D01*
X004225Y012209D01*
X004225Y012162D01*
X004204Y012156D01*
X004184Y012147D01*
X004166Y012135D01*
X004150Y012120D01*
X004137Y012102D01*
X004127Y012083D01*
X004120Y012062D01*
X004116Y012041D01*
X004116Y012019D01*
X004120Y011998D01*
X004127Y011977D01*
X004137Y011958D01*
X004150Y011940D01*
X004166Y011925D01*
X004184Y011913D01*
X004204Y011904D01*
X004225Y011898D01*
X004225Y011947D01*
X004209Y011953D01*
X004195Y011962D01*
X004183Y011975D01*
X004173Y011989D01*
X004167Y012005D01*
X004163Y012021D01*
X004163Y012039D01*
X004167Y012055D01*
X004173Y012071D01*
X004183Y012085D01*
X004195Y012098D01*
X004209Y012107D01*
X004225Y012113D01*
X004227Y012062D01*
X004219Y012055D01*
X004213Y012046D01*
X004210Y012035D01*
X004210Y012025D01*
X004213Y012014D01*
X004219Y012005D01*
X004227Y011998D01*
D16*
X003640Y012021D02*
X003640Y012095D01*
X003640Y012058D02*
X003457Y012058D01*
X003420Y012021D01*
X003420Y011985D01*
X003457Y011948D01*
X003457Y011874D02*
X003420Y011837D01*
X003420Y011764D01*
X003457Y011727D01*
X003530Y011764D02*
X003530Y011837D01*
X003493Y011874D01*
X003457Y011874D01*
X003530Y011764D02*
X003567Y011727D01*
X003603Y011727D01*
X003640Y011764D01*
X003640Y011837D01*
X003603Y011874D01*
X003603Y012169D02*
X003640Y012206D01*
X003640Y012279D01*
X003603Y012316D01*
X003567Y012316D01*
X003420Y012169D01*
X003420Y012316D01*
X006460Y012242D02*
X006460Y012169D01*
X006497Y012132D01*
X006570Y012205D02*
X006570Y012242D01*
X006533Y012279D01*
X006497Y012279D01*
X006460Y012242D01*
X006570Y012242D02*
X006607Y012279D01*
X006643Y012279D01*
X006680Y012242D01*
X006680Y012169D01*
X006643Y012132D01*
X006680Y012058D02*
X006680Y011984D01*
X006680Y012021D02*
X006497Y012021D01*
X006460Y011984D01*
X006460Y011948D01*
X006497Y011911D01*
X006497Y011837D02*
X006460Y011800D01*
X006460Y011727D01*
X006497Y011690D01*
X006570Y011727D02*
X006570Y011800D01*
X006533Y011837D01*
X006497Y011837D01*
X006570Y011727D02*
X006607Y011690D01*
X006643Y011690D01*
X006680Y011727D01*
X006680Y011800D01*
X006643Y011837D01*
D17*
X014700Y010330D03*
X014700Y009930D03*
X015200Y009930D03*
D18*
X014700Y010590D03*
D19*
X014510Y010740D03*
D20*
X014550Y010630D02*
X014600Y010930D01*
X014650Y010630D01*
X014700Y010930D01*
X014750Y010630D01*
X014800Y010930D01*
X014850Y010630D01*
X014900Y010930D01*
X014950Y010630D01*
X014850Y010630D01*
X014750Y010630D01*
X014650Y010630D01*
X014550Y010630D01*
X014550Y010930D01*
X014600Y010930D01*
X014700Y010930D01*
X014800Y010930D01*
X014900Y010930D01*
X014950Y010930D01*
X014950Y010630D01*
M02*
