%
M48
M72
T01C0.0130
T02C0.0400
%
T01
X3020Y6640
X2480Y8020
X3560Y8440
X3920Y8380
X3080Y9940
X1760Y9340
X3140Y12460
X5240Y10780
X6260Y11500
X6920Y11560
X7580Y11560
X8000Y11140
X8360Y11140
X8840Y10840
X9080Y10600
X9440Y10600
X9440Y11020
X9380Y11380
X9380Y11740
X9320Y12100
X8720Y12400
X10220Y13000
X11720Y11740
X13340Y13480
X13100Y13720
X13580Y13240
X13880Y13000
X13500Y14330
X13500Y14830
X13500Y15330
X13500Y15830
X13500Y16330
X13500Y16830
X13500Y17330
X13500Y17830
X13600Y18330
X14100Y18830
X14600Y19330
X15050Y19580
X15550Y19580
X16050Y19580
X16550Y19580
X16900Y19330
X16900Y18830
X16900Y18330
X16900Y17830
X16900Y17330
X16900Y16830
X16900Y16330
X16900Y15830
X16900Y15330
X16900Y14830
X16900Y14330
X16900Y13830
X16900Y13330
X16900Y12830
X15700Y11580
X15700Y11230
X15700Y10880
X15700Y10530
X15700Y10180
X15700Y9830
X15700Y9480
X15700Y9130
X15700Y8780
X16900Y7530
X16900Y7030
X16900Y6530
X16900Y6030
X16900Y5530
X16900Y5030
X16900Y4530
X16900Y4030
X16900Y3530
X16900Y3030
X16900Y2530
X16900Y2030
X16900Y1530
X16900Y1030
X16550Y780
X16050Y780
X15550Y780
X15050Y780
X14600Y980
X14100Y1480
X13600Y1980
X13500Y2530
X13500Y3030
X13500Y3530
X13500Y4030
X13500Y4530
X13500Y5030
X13500Y5530
X13500Y6030
X13340Y7060
X13280Y7540
X13640Y7540
X14000Y7540
X14420Y7540
X14660Y7300
X11720Y8200
X11180Y8680
X10280Y8140
X11660Y7300
X8840Y8620
X8600Y8860
X8360Y8620
X8000Y8620
X8600Y10420
X6380Y7300
X7040Y6640
T02
X700Y6180
X1700Y6180
X2700Y6180
X3700Y6180
X4700Y6180
X5700Y6180
X6700Y6180
X7700Y6180
X8700Y6180
X9700Y6180
X10700Y6180
X11700Y6180
X12700Y6180
X12700Y14180
X11700Y14180
X10700Y14180
X9700Y14180
X8700Y14180
X7700Y14180
X6700Y14180
X5700Y14180
X4700Y14180
X3700Y14180
X2700Y14180
X1700Y14180
X700Y14180
X700Y12680
X700Y11680
X700Y10680
X700Y9680
X700Y8680
X700Y7680
M30
