G75*
%MOIN*%
%OFA0B0*%
%FSLAX24Y24*%
%IPPOS*%
%LPD*%
%AMOC8*
5,1,8,0,0,1.08239X$1,22.5*
%
%ADD10C,0.0000*%
%ADD11C,0.0050*%
%ADD12C,0.0040*%
%ADD13C,0.0160*%
%ADD14C,0.0080*%
%ADD15R,0.0197X0.0374*%
%ADD16R,0.0180X0.0300*%
%ADD17C,0.0020*%
%ADD18R,0.0197X0.0128*%
%ADD19R,0.0098X0.0059*%
%ADD20R,0.0069X0.0157*%
%ADD21R,0.0079X0.0079*%
%ADD22R,0.0118X0.0118*%
%ADD23R,0.0030X0.0128*%
%ADD24C,0.0060*%
%ADD25R,0.0160X0.0340*%
%ADD26C,0.0220*%
%ADD27R,0.0394X0.1181*%
%ADD28R,0.0200X0.0200*%
D10*
X000200Y005680D02*
X000200Y014680D01*
X013200Y014680D01*
X013200Y018380D01*
X014700Y019880D01*
X017200Y019880D01*
X017200Y000480D01*
X014700Y000480D01*
X013200Y001980D01*
X013200Y005680D01*
X000200Y005680D01*
D11*
X004302Y008729D02*
X004302Y009831D01*
X005798Y009831D01*
X005798Y008729D01*
X005444Y008729D01*
X004656Y008729D01*
X004302Y008729D01*
X008300Y013610D02*
X009000Y013610D01*
X011714Y012345D02*
X011714Y008015D01*
X017186Y008015D01*
X017186Y012345D01*
X011714Y012345D01*
X012792Y011220D02*
X012761Y011189D01*
X012737Y011151D01*
X012723Y011110D01*
X012718Y011066D01*
X012718Y010672D01*
X012723Y010628D01*
X012737Y010587D01*
X012761Y010549D01*
X012792Y010518D01*
X012829Y010495D01*
X012871Y010480D01*
X012915Y010475D01*
X012958Y010480D01*
X013000Y010495D01*
X013037Y010518D01*
X013068Y010549D01*
X013092Y010587D01*
X013106Y010628D01*
X013111Y010672D01*
X013111Y011066D01*
X013106Y011110D01*
X013092Y011151D01*
X013068Y011189D01*
X013037Y011220D01*
X013000Y011243D01*
X012958Y011258D01*
X012915Y011263D01*
X012871Y011258D01*
X012829Y011243D01*
X012792Y011220D01*
X012781Y011209D02*
X013048Y011209D01*
X013086Y011161D02*
X012743Y011161D01*
X012723Y011112D02*
X013106Y011112D01*
X013111Y011064D02*
X012718Y011064D01*
X012718Y011015D02*
X013111Y011015D01*
X013111Y010967D02*
X012718Y010967D01*
X012718Y010918D02*
X013111Y010918D01*
X013111Y010870D02*
X012718Y010870D01*
X012718Y010821D02*
X013111Y010821D01*
X013111Y010773D02*
X012718Y010773D01*
X012718Y010724D02*
X013111Y010724D01*
X013111Y010676D02*
X012718Y010676D01*
X012723Y010627D02*
X013106Y010627D01*
X013087Y010579D02*
X012742Y010579D01*
X012780Y010530D02*
X013049Y010530D01*
X012962Y010482D02*
X012867Y010482D01*
X012886Y010355D02*
X013061Y010355D01*
X013119Y010297D01*
X013119Y010239D01*
X013061Y010180D01*
X012886Y010180D01*
X012886Y010005D02*
X012886Y010355D01*
X013061Y010180D02*
X013119Y010122D01*
X013119Y010063D01*
X013061Y010005D01*
X012886Y010005D01*
X012915Y009885D02*
X012871Y009880D01*
X012829Y009865D01*
X012792Y009842D01*
X012761Y009811D01*
X012737Y009773D01*
X012723Y009732D01*
X012718Y009688D01*
X012718Y009294D01*
X012723Y009250D01*
X012737Y009209D01*
X012761Y009171D01*
X012792Y009140D01*
X012829Y009117D01*
X012871Y009102D01*
X012915Y009097D01*
X012958Y009102D01*
X013000Y009117D01*
X013037Y009140D01*
X013068Y009171D01*
X013092Y009209D01*
X013106Y009250D01*
X013111Y009294D01*
X013111Y009688D01*
X013106Y009732D01*
X013092Y009773D01*
X013068Y009811D01*
X013037Y009842D01*
X013000Y009865D01*
X012958Y009880D01*
X012915Y009885D01*
X012807Y009851D02*
X013023Y009851D01*
X013074Y009803D02*
X012756Y009803D01*
X012730Y009754D02*
X013099Y009754D01*
X013109Y009706D02*
X012720Y009706D01*
X012718Y009657D02*
X013111Y009657D01*
X013111Y009609D02*
X012718Y009609D01*
X012718Y009560D02*
X013111Y009560D01*
X013111Y009512D02*
X012718Y009512D01*
X012718Y009463D02*
X013111Y009463D01*
X013111Y009415D02*
X012718Y009415D01*
X012718Y009366D02*
X013111Y009366D01*
X013111Y009318D02*
X012718Y009318D01*
X012721Y009269D02*
X013109Y009269D01*
X013096Y009221D02*
X012733Y009221D01*
X012760Y009172D02*
X013069Y009172D01*
X013011Y009124D02*
X012818Y009124D01*
X013510Y009250D02*
X013505Y009294D01*
X013505Y009688D01*
X013510Y009732D01*
X013525Y009773D01*
X013548Y009811D01*
X013579Y009842D01*
X013617Y009865D01*
X013658Y009880D01*
X013702Y009885D01*
X013746Y009880D01*
X013787Y009865D01*
X013825Y009842D01*
X013856Y009811D01*
X013879Y009773D01*
X013894Y009732D01*
X013899Y009688D01*
X013899Y009294D01*
X013894Y009250D01*
X013879Y009209D01*
X013856Y009171D01*
X013825Y009140D01*
X013787Y009117D01*
X013746Y009102D01*
X013702Y009097D01*
X013658Y009102D01*
X013617Y009117D01*
X013579Y009140D01*
X013548Y009171D01*
X013525Y009209D01*
X013510Y009250D01*
X013508Y009269D02*
X013896Y009269D01*
X013899Y009318D02*
X013505Y009318D01*
X013505Y009366D02*
X013899Y009366D01*
X013899Y009415D02*
X013505Y009415D01*
X013505Y009463D02*
X013899Y009463D01*
X013899Y009512D02*
X013505Y009512D01*
X013505Y009560D02*
X013899Y009560D01*
X013899Y009609D02*
X013505Y009609D01*
X013505Y009657D02*
X013899Y009657D01*
X013897Y009706D02*
X013507Y009706D01*
X013518Y009754D02*
X013886Y009754D01*
X013861Y009803D02*
X013543Y009803D01*
X013594Y009851D02*
X013810Y009851D01*
X013856Y010005D02*
X013623Y010005D01*
X013739Y010005D02*
X013739Y010355D01*
X013623Y010239D01*
X013488Y010355D02*
X013254Y010355D01*
X013371Y010355D02*
X013371Y010005D01*
X013617Y010495D02*
X013579Y010518D01*
X013548Y010549D01*
X013525Y010587D01*
X013510Y010628D01*
X013505Y010672D01*
X013505Y011066D01*
X013510Y011110D01*
X013525Y011151D01*
X013548Y011189D01*
X013579Y011220D01*
X013617Y011243D01*
X013658Y011258D01*
X013702Y011263D01*
X013746Y011258D01*
X013787Y011243D01*
X013825Y011220D01*
X013856Y011189D01*
X013879Y011151D01*
X013894Y011110D01*
X013899Y011066D01*
X013899Y010672D01*
X013894Y010628D01*
X013879Y010587D01*
X013856Y010549D01*
X013825Y010518D01*
X013787Y010495D01*
X013746Y010480D01*
X013702Y010475D01*
X013658Y010480D01*
X013617Y010495D01*
X013654Y010482D02*
X013750Y010482D01*
X013837Y010530D02*
X013567Y010530D01*
X013530Y010579D02*
X013874Y010579D01*
X013893Y010627D02*
X013511Y010627D01*
X013505Y010676D02*
X013899Y010676D01*
X013899Y010724D02*
X013505Y010724D01*
X013505Y010773D02*
X013899Y010773D01*
X013899Y010821D02*
X013505Y010821D01*
X013505Y010870D02*
X013899Y010870D01*
X013899Y010918D02*
X013505Y010918D01*
X013505Y010967D02*
X013899Y010967D01*
X013899Y011015D02*
X013505Y011015D01*
X013505Y011064D02*
X013899Y011064D01*
X013893Y011112D02*
X013511Y011112D01*
X013530Y011161D02*
X013873Y011161D01*
X013835Y011209D02*
X013569Y011209D01*
X013658Y011258D02*
X013746Y011258D01*
X014297Y011110D02*
X014312Y011151D01*
X014335Y011189D01*
X014367Y011220D01*
X014404Y011243D01*
X014446Y011258D01*
X014489Y011263D01*
X014533Y011258D01*
X014575Y011243D01*
X014612Y011220D01*
X014643Y011189D01*
X014667Y011151D01*
X014681Y011110D01*
X014686Y011066D01*
X014686Y010672D01*
X014681Y010628D01*
X014667Y010587D01*
X014643Y010549D01*
X014612Y010518D01*
X014575Y010495D01*
X014533Y010480D01*
X014489Y010475D01*
X014446Y010480D01*
X014404Y010495D01*
X014367Y010518D01*
X014335Y010549D01*
X014312Y010587D01*
X014297Y010628D01*
X014293Y010672D01*
X014293Y011066D01*
X014297Y011110D01*
X014298Y011112D02*
X014680Y011112D01*
X014686Y011064D02*
X014293Y011064D01*
X014293Y011015D02*
X014686Y011015D01*
X014686Y010967D02*
X014293Y010967D01*
X014293Y010918D02*
X014686Y010918D01*
X014686Y010870D02*
X014293Y010870D01*
X014293Y010821D02*
X014686Y010821D01*
X014686Y010773D02*
X014293Y010773D01*
X014293Y010724D02*
X014686Y010724D01*
X014686Y010676D02*
X014293Y010676D01*
X014298Y010627D02*
X014681Y010627D01*
X014662Y010579D02*
X014317Y010579D01*
X014355Y010530D02*
X014624Y010530D01*
X014537Y010482D02*
X014442Y010482D01*
X014476Y010355D02*
X014359Y010239D01*
X014224Y010239D02*
X014224Y010297D01*
X014166Y010355D01*
X014049Y010355D01*
X013991Y010297D01*
X014224Y010239D02*
X013991Y010005D01*
X014224Y010005D01*
X014359Y010005D02*
X014593Y010005D01*
X014476Y010005D02*
X014476Y010355D01*
X014727Y010180D02*
X014961Y010180D01*
X015096Y010180D02*
X015329Y010180D01*
X015329Y010239D02*
X015329Y010005D01*
X015321Y009880D02*
X015277Y009885D01*
X015233Y009880D01*
X015191Y009865D01*
X015154Y009842D01*
X015123Y009811D01*
X015099Y009773D01*
X015085Y009732D01*
X015080Y009688D01*
X015080Y009294D01*
X015085Y009250D01*
X015099Y009209D01*
X015123Y009171D01*
X015154Y009140D01*
X015191Y009117D01*
X015233Y009102D01*
X015277Y009097D01*
X015321Y009102D01*
X015362Y009117D01*
X015400Y009140D01*
X015431Y009171D01*
X015454Y009209D01*
X015469Y009250D01*
X015474Y009294D01*
X015474Y009688D01*
X015469Y009732D01*
X015454Y009773D01*
X015431Y009811D01*
X015400Y009842D01*
X015362Y009865D01*
X015321Y009880D01*
X015385Y009851D02*
X015169Y009851D01*
X015118Y009803D02*
X015436Y009803D01*
X015461Y009754D02*
X015093Y009754D01*
X015082Y009706D02*
X015472Y009706D01*
X015474Y009657D02*
X015080Y009657D01*
X015080Y009609D02*
X015474Y009609D01*
X015474Y009560D02*
X015080Y009560D01*
X015080Y009512D02*
X015474Y009512D01*
X015474Y009463D02*
X015080Y009463D01*
X015080Y009415D02*
X015474Y009415D01*
X015474Y009366D02*
X015080Y009366D01*
X015080Y009318D02*
X015474Y009318D01*
X015471Y009269D02*
X015083Y009269D01*
X015095Y009221D02*
X015458Y009221D01*
X015431Y009172D02*
X015123Y009172D01*
X015181Y009124D02*
X015373Y009124D01*
X014681Y009250D02*
X014667Y009209D01*
X014643Y009171D01*
X014612Y009140D01*
X014575Y009117D01*
X014533Y009102D01*
X014489Y009097D01*
X014446Y009102D01*
X014404Y009117D01*
X014367Y009140D01*
X014335Y009171D01*
X014312Y009209D01*
X014297Y009250D01*
X014293Y009294D01*
X014293Y009688D01*
X014297Y009732D01*
X014312Y009773D01*
X014335Y009811D01*
X014367Y009842D01*
X014404Y009865D01*
X014446Y009880D01*
X014489Y009885D01*
X014533Y009880D01*
X014575Y009865D01*
X014612Y009842D01*
X014643Y009811D01*
X014667Y009773D01*
X014681Y009732D01*
X014686Y009688D01*
X014686Y009294D01*
X014681Y009250D01*
X014683Y009269D02*
X014295Y009269D01*
X014293Y009318D02*
X014686Y009318D01*
X014686Y009366D02*
X014293Y009366D01*
X014293Y009415D02*
X014686Y009415D01*
X014686Y009463D02*
X014293Y009463D01*
X014293Y009512D02*
X014686Y009512D01*
X014686Y009560D02*
X014293Y009560D01*
X014293Y009609D02*
X014686Y009609D01*
X014686Y009657D02*
X014293Y009657D01*
X014295Y009706D02*
X014684Y009706D01*
X014673Y009754D02*
X014305Y009754D01*
X014330Y009803D02*
X014648Y009803D01*
X014597Y009851D02*
X014381Y009851D01*
X014308Y009221D02*
X014671Y009221D01*
X014644Y009172D02*
X014335Y009172D01*
X014393Y009124D02*
X014585Y009124D01*
X013883Y009221D02*
X013521Y009221D01*
X013548Y009172D02*
X013856Y009172D01*
X013798Y009124D02*
X013606Y009124D01*
X015096Y010005D02*
X015096Y010239D01*
X015213Y010355D01*
X015329Y010239D01*
X015321Y010480D02*
X015277Y010475D01*
X015233Y010480D01*
X015191Y010495D01*
X015154Y010518D01*
X015123Y010549D01*
X015099Y010587D01*
X015085Y010628D01*
X015080Y010672D01*
X015080Y011066D01*
X015085Y011110D01*
X015099Y011151D01*
X015123Y011189D01*
X015154Y011220D01*
X015191Y011243D01*
X015233Y011258D01*
X015277Y011263D01*
X015321Y011258D01*
X015362Y011243D01*
X015400Y011220D01*
X015431Y011189D01*
X015454Y011151D01*
X015469Y011110D01*
X015474Y011066D01*
X015474Y010672D01*
X015469Y010628D01*
X015454Y010587D01*
X015431Y010549D01*
X015400Y010518D01*
X015362Y010495D01*
X015321Y010480D01*
X015324Y010482D02*
X015229Y010482D01*
X015142Y010530D02*
X015411Y010530D01*
X015449Y010579D02*
X015105Y010579D01*
X015085Y010627D02*
X015468Y010627D01*
X015474Y010676D02*
X015080Y010676D01*
X015080Y010724D02*
X015474Y010724D01*
X015474Y010773D02*
X015080Y010773D01*
X015080Y010821D02*
X015474Y010821D01*
X015474Y010870D02*
X015080Y010870D01*
X015080Y010918D02*
X015474Y010918D01*
X015474Y010967D02*
X015080Y010967D01*
X015080Y011015D02*
X015474Y011015D01*
X015474Y011064D02*
X015080Y011064D01*
X015086Y011112D02*
X015468Y011112D01*
X015448Y011161D02*
X015105Y011161D01*
X015143Y011209D02*
X015410Y011209D01*
X015321Y011258D02*
X015232Y011258D01*
X014661Y011161D02*
X014318Y011161D01*
X014356Y011209D02*
X014623Y011209D01*
X014534Y011258D02*
X014445Y011258D01*
X012959Y011258D02*
X012870Y011258D01*
D12*
X012910Y013300D02*
X012871Y013339D01*
X013026Y013493D01*
X013026Y013339D01*
X012987Y013300D01*
X012910Y013300D01*
X012871Y013339D02*
X012871Y013493D01*
X012910Y013532D01*
X012987Y013532D01*
X013026Y013493D01*
X012775Y013532D02*
X012620Y013532D01*
X012698Y013532D02*
X012698Y013300D01*
X012525Y013339D02*
X012486Y013300D01*
X012370Y013300D01*
X012370Y013532D01*
X012486Y013532D01*
X012525Y013493D01*
X012525Y013455D01*
X012486Y013416D01*
X012370Y013416D01*
X012486Y013416D02*
X012525Y013377D01*
X012525Y013339D01*
X011936Y013339D02*
X011897Y013300D01*
X011820Y013300D01*
X011781Y013339D01*
X011686Y013339D02*
X011647Y013300D01*
X011531Y013300D01*
X011531Y013532D01*
X011647Y013532D01*
X011686Y013493D01*
X011686Y013455D01*
X011647Y013416D01*
X011531Y013416D01*
X011647Y013416D02*
X011686Y013377D01*
X011686Y013339D01*
X011781Y013493D02*
X011820Y013532D01*
X011897Y013532D01*
X011936Y013493D01*
X011936Y013455D01*
X011897Y013416D01*
X011936Y013377D01*
X011936Y013339D01*
X011897Y013416D02*
X011859Y013416D01*
X010934Y013416D02*
X010780Y013416D01*
X010896Y013532D01*
X010896Y013300D01*
X010684Y013339D02*
X010645Y013300D01*
X010529Y013300D01*
X010529Y013532D01*
X010645Y013532D01*
X010684Y013493D01*
X010684Y013455D01*
X010645Y013416D01*
X010529Y013416D01*
X010645Y013416D02*
X010684Y013377D01*
X010684Y013339D01*
X009933Y013339D02*
X009894Y013300D01*
X009816Y013300D01*
X009778Y013339D01*
X009778Y013416D02*
X009855Y013455D01*
X009894Y013455D01*
X009933Y013416D01*
X009933Y013339D01*
X009778Y013416D02*
X009778Y013532D01*
X009933Y013532D01*
X009682Y013493D02*
X009682Y013455D01*
X009643Y013416D01*
X009527Y013416D01*
X009527Y013300D02*
X009643Y013300D01*
X009682Y013339D01*
X009682Y013377D01*
X009643Y013416D01*
X009682Y013493D02*
X009643Y013532D01*
X009527Y013532D01*
X009527Y013300D01*
X008931Y013339D02*
X008931Y013377D01*
X008892Y013416D01*
X008776Y013416D01*
X008776Y013339D01*
X008815Y013300D01*
X008892Y013300D01*
X008931Y013339D01*
X008853Y013493D02*
X008776Y013416D01*
X008680Y013377D02*
X008680Y013339D01*
X008642Y013300D01*
X008525Y013300D01*
X008525Y013532D01*
X008642Y013532D01*
X008680Y013493D01*
X008680Y013455D01*
X008642Y013416D01*
X008525Y013416D01*
X008642Y013416D02*
X008680Y013377D01*
X008853Y013493D02*
X008931Y013532D01*
X007929Y013532D02*
X007929Y013493D01*
X007774Y013339D01*
X007774Y013300D01*
X007678Y013339D02*
X007640Y013300D01*
X007524Y013300D01*
X007524Y013532D01*
X007640Y013532D01*
X007678Y013493D01*
X007678Y013455D01*
X007640Y013416D01*
X007524Y013416D01*
X007640Y013416D02*
X007678Y013377D01*
X007678Y013339D01*
X007774Y013532D02*
X007929Y013532D01*
X006927Y013493D02*
X006927Y013455D01*
X006888Y013416D01*
X006811Y013416D01*
X006772Y013455D01*
X006772Y013493D01*
X006811Y013532D01*
X006888Y013532D01*
X006927Y013493D01*
X006888Y013416D02*
X006927Y013377D01*
X006927Y013339D01*
X006888Y013300D01*
X006811Y013300D01*
X006772Y013339D01*
X006772Y013377D01*
X006811Y013416D01*
X006677Y013377D02*
X006677Y013339D01*
X006638Y013300D01*
X006522Y013300D01*
X006522Y013532D01*
X006638Y013532D01*
X006677Y013493D01*
X006677Y013455D01*
X006638Y013416D01*
X006522Y013416D01*
X006638Y013416D02*
X006677Y013377D01*
X005925Y013339D02*
X005925Y013493D01*
X005887Y013532D01*
X005809Y013532D01*
X005770Y013493D01*
X005770Y013455D01*
X005809Y013416D01*
X005925Y013416D01*
X005925Y013339D02*
X005887Y013300D01*
X005809Y013300D01*
X005770Y013339D01*
X005675Y013339D02*
X005636Y013300D01*
X005520Y013300D01*
X005520Y013532D01*
X005636Y013532D01*
X005675Y013493D01*
X005675Y013455D01*
X005636Y013416D01*
X005520Y013416D01*
X005636Y013416D02*
X005675Y013377D01*
X005675Y013339D01*
X004983Y013339D02*
X004944Y013300D01*
X004867Y013300D01*
X004828Y013339D01*
X004983Y013493D01*
X004983Y013339D01*
X004983Y013493D02*
X004944Y013532D01*
X004867Y013532D01*
X004828Y013493D01*
X004828Y013339D01*
X004733Y013300D02*
X004578Y013300D01*
X004655Y013300D02*
X004655Y013532D01*
X004578Y013455D01*
X004482Y013455D02*
X004443Y013416D01*
X004327Y013416D01*
X004327Y013300D02*
X004443Y013300D01*
X004482Y013339D01*
X004482Y013377D01*
X004443Y013416D01*
X004482Y013455D02*
X004482Y013493D01*
X004443Y013532D01*
X004327Y013532D01*
X004327Y013300D01*
X003981Y013300D02*
X003826Y013300D01*
X003981Y013455D01*
X003981Y013493D01*
X003942Y013532D01*
X003865Y013532D01*
X003826Y013493D01*
X003653Y013532D02*
X003653Y013300D01*
X003576Y013300D02*
X003731Y013300D01*
X003576Y013455D02*
X003653Y013532D01*
X003480Y013493D02*
X003480Y013455D01*
X003442Y013416D01*
X003325Y013416D01*
X003325Y013300D02*
X003442Y013300D01*
X003480Y013339D01*
X003480Y013377D01*
X003442Y013416D01*
X003480Y013493D02*
X003442Y013532D01*
X003325Y013532D01*
X003325Y013300D01*
X002979Y013339D02*
X002941Y013300D01*
X002863Y013300D01*
X002825Y013339D01*
X002729Y013300D02*
X002574Y013300D01*
X002651Y013300D02*
X002651Y013532D01*
X002574Y013455D01*
X002478Y013455D02*
X002440Y013416D01*
X002324Y013416D01*
X002440Y013416D02*
X002478Y013377D01*
X002478Y013339D01*
X002440Y013300D01*
X002324Y013300D01*
X002324Y013532D01*
X002440Y013532D01*
X002478Y013493D01*
X002478Y013455D01*
X002825Y013493D02*
X002863Y013532D01*
X002941Y013532D01*
X002979Y013493D01*
X002979Y013455D01*
X002941Y013416D01*
X002979Y013377D01*
X002979Y013339D01*
X002941Y013416D02*
X002902Y013416D01*
X001978Y013416D02*
X001823Y013416D01*
X001939Y013532D01*
X001939Y013300D01*
X001727Y013300D02*
X001572Y013300D01*
X001650Y013300D02*
X001650Y013532D01*
X001572Y013455D01*
X001477Y013455D02*
X001438Y013416D01*
X001322Y013416D01*
X001438Y013416D02*
X001477Y013377D01*
X001477Y013339D01*
X001438Y013300D01*
X001322Y013300D01*
X001322Y013532D01*
X001438Y013532D01*
X001477Y013493D01*
X001477Y013455D01*
X001552Y013010D02*
X001320Y013010D01*
X001397Y013010D02*
X001397Y012894D01*
X001436Y012855D01*
X001513Y012855D01*
X001552Y012894D01*
X001552Y013010D01*
X001397Y012933D02*
X001320Y012855D01*
X001320Y012682D02*
X001552Y012682D01*
X001552Y012605D02*
X001552Y012760D01*
X001513Y012509D02*
X001475Y012509D01*
X001436Y012470D01*
X001436Y012393D01*
X001397Y012354D01*
X001359Y012354D01*
X001320Y012393D01*
X001320Y012470D01*
X001359Y012509D01*
X001513Y012509D02*
X001552Y012470D01*
X001552Y012393D01*
X001513Y012354D01*
X001552Y012008D02*
X001320Y012008D01*
X001397Y012008D02*
X001397Y011892D01*
X001436Y011853D01*
X001513Y011853D01*
X001552Y011892D01*
X001552Y012008D01*
X001397Y011931D02*
X001320Y011853D01*
X001320Y011758D02*
X001552Y011603D01*
X001552Y011507D02*
X001552Y011391D01*
X001513Y011352D01*
X001359Y011352D01*
X001320Y011391D01*
X001320Y011507D01*
X001552Y011507D01*
X001552Y011758D02*
X001320Y011603D01*
X001552Y011006D02*
X001552Y010852D01*
X001552Y010929D02*
X001320Y010929D01*
X001320Y010756D02*
X001552Y010601D01*
X001552Y010505D02*
X001320Y010505D01*
X001320Y010389D01*
X001359Y010351D01*
X001513Y010351D01*
X001552Y010389D01*
X001552Y010505D01*
X001552Y010756D02*
X001320Y010601D01*
X001359Y010005D02*
X001320Y009966D01*
X001320Y009888D01*
X001359Y009850D01*
X001436Y009850D01*
X001436Y009927D01*
X001513Y009850D02*
X001552Y009888D01*
X001552Y009966D01*
X001513Y010005D01*
X001359Y010005D01*
X001320Y009754D02*
X001552Y009754D01*
X001320Y009599D01*
X001552Y009599D01*
X001552Y009504D02*
X001320Y009504D01*
X001320Y009388D01*
X001359Y009349D01*
X001513Y009349D01*
X001552Y009388D01*
X001552Y009504D01*
X001513Y009003D02*
X001552Y008964D01*
X001552Y008887D01*
X001513Y008848D01*
X001475Y008848D01*
X001436Y008887D01*
X001397Y008848D01*
X001359Y008848D01*
X001320Y008887D01*
X001320Y008964D01*
X001359Y009003D01*
X001436Y008925D02*
X001436Y008887D01*
X001397Y008752D02*
X001320Y008675D01*
X001397Y008597D01*
X001552Y008597D01*
X001513Y008502D02*
X001552Y008463D01*
X001552Y008386D01*
X001513Y008347D01*
X001475Y008347D01*
X001436Y008386D01*
X001397Y008347D01*
X001359Y008347D01*
X001320Y008386D01*
X001320Y008463D01*
X001359Y008502D01*
X001436Y008424D02*
X001436Y008386D01*
X001397Y008752D02*
X001552Y008752D01*
X001513Y008001D02*
X001359Y008001D01*
X001320Y007962D01*
X001320Y007885D01*
X001359Y007846D01*
X001513Y007846D02*
X001552Y007885D01*
X001552Y007962D01*
X001513Y008001D01*
X001552Y007750D02*
X001552Y007596D01*
X001552Y007673D02*
X001320Y007673D01*
X001359Y007500D02*
X001320Y007461D01*
X001320Y007384D01*
X001359Y007345D01*
X001397Y007345D01*
X001436Y007384D01*
X001436Y007461D01*
X001475Y007500D01*
X001513Y007500D01*
X001552Y007461D01*
X001552Y007384D01*
X001513Y007345D01*
X001399Y007032D02*
X001322Y006955D01*
X001322Y006800D01*
X001322Y006916D02*
X001477Y006916D01*
X001477Y006955D02*
X001477Y006800D01*
X001572Y006800D02*
X001727Y006800D01*
X001650Y006800D02*
X001650Y007032D01*
X001572Y006955D01*
X001477Y006955D02*
X001399Y007032D01*
X001823Y006993D02*
X001861Y007032D01*
X001939Y007032D01*
X001978Y006993D01*
X001978Y006955D01*
X001939Y006916D01*
X001978Y006877D01*
X001978Y006839D01*
X001939Y006800D01*
X001861Y006800D01*
X001823Y006839D01*
X001900Y006916D02*
X001939Y006916D01*
X002324Y006916D02*
X002478Y006916D01*
X002478Y006955D02*
X002478Y006800D01*
X002574Y006800D02*
X002729Y006800D01*
X002651Y006800D02*
X002651Y007032D01*
X002574Y006955D01*
X002478Y006955D02*
X002401Y007032D01*
X002324Y006955D01*
X002324Y006800D01*
X002825Y006800D02*
X002979Y006955D01*
X002979Y006993D01*
X002941Y007032D01*
X002863Y007032D01*
X002825Y006993D01*
X002825Y006800D02*
X002979Y006800D01*
X003325Y006800D02*
X003325Y006955D01*
X003403Y007032D01*
X003480Y006955D01*
X003480Y006800D01*
X003576Y006800D02*
X003731Y006800D01*
X003653Y006800D02*
X003653Y007032D01*
X003576Y006955D01*
X003480Y006916D02*
X003325Y006916D01*
X003826Y006955D02*
X003904Y007032D01*
X003904Y006800D01*
X003981Y006800D02*
X003826Y006800D01*
X004327Y006800D02*
X004327Y006955D01*
X004405Y007032D01*
X004482Y006955D01*
X004482Y006800D01*
X004578Y006800D02*
X004733Y006800D01*
X004655Y006800D02*
X004655Y007032D01*
X004578Y006955D01*
X004482Y006916D02*
X004327Y006916D01*
X004828Y006839D02*
X004983Y006993D01*
X004983Y006839D01*
X004944Y006800D01*
X004867Y006800D01*
X004828Y006839D01*
X004828Y006993D01*
X004867Y007032D01*
X004944Y007032D01*
X004983Y006993D01*
X005470Y006955D02*
X005470Y006800D01*
X005470Y006916D02*
X005625Y006916D01*
X005625Y006955D02*
X005625Y006800D01*
X005720Y006839D02*
X005759Y006800D01*
X005837Y006800D01*
X005875Y006839D01*
X005875Y006993D01*
X005837Y007032D01*
X005759Y007032D01*
X005720Y006993D01*
X005720Y006955D01*
X005759Y006916D01*
X005875Y006916D01*
X005625Y006955D02*
X005547Y007032D01*
X005470Y006955D01*
X006472Y006955D02*
X006472Y006800D01*
X006472Y006916D02*
X006627Y006916D01*
X006627Y006955D02*
X006627Y006800D01*
X006722Y006800D02*
X006722Y006839D01*
X006877Y006993D01*
X006877Y007032D01*
X006722Y007032D01*
X006627Y006955D02*
X006549Y007032D01*
X006472Y006955D01*
X007474Y006955D02*
X007474Y006800D01*
X007474Y006916D02*
X007628Y006916D01*
X007628Y006955D02*
X007628Y006800D01*
X007724Y006839D02*
X007763Y006800D01*
X007840Y006800D01*
X007879Y006839D01*
X007879Y006877D01*
X007840Y006916D01*
X007724Y006916D01*
X007724Y006839D01*
X007724Y006916D02*
X007801Y006993D01*
X007879Y007032D01*
X007628Y006955D02*
X007551Y007032D01*
X007474Y006955D01*
X008475Y006955D02*
X008475Y006800D01*
X008475Y006916D02*
X008630Y006916D01*
X008630Y006955D02*
X008630Y006800D01*
X008726Y006839D02*
X008765Y006800D01*
X008842Y006800D01*
X008881Y006839D01*
X008881Y006916D01*
X008842Y006955D01*
X008803Y006955D01*
X008726Y006916D01*
X008726Y007032D01*
X008881Y007032D01*
X008630Y006955D02*
X008553Y007032D01*
X008475Y006955D01*
X009477Y006955D02*
X009477Y006800D01*
X009477Y006916D02*
X009632Y006916D01*
X009632Y006955D02*
X009632Y006800D01*
X009728Y006916D02*
X009883Y006916D01*
X009844Y006800D02*
X009844Y007032D01*
X009728Y006916D01*
X009632Y006955D02*
X009555Y007032D01*
X009477Y006955D01*
X010338Y007032D02*
X010338Y006800D01*
X010338Y006877D02*
X010454Y006877D01*
X010493Y006916D01*
X010493Y006993D01*
X010454Y007032D01*
X010338Y007032D01*
X010416Y006877D02*
X010493Y006800D01*
X010589Y006800D02*
X010743Y006800D01*
X010839Y006839D02*
X010878Y006800D01*
X010955Y006800D01*
X010994Y006839D01*
X010994Y006877D01*
X010955Y006916D01*
X010878Y006916D01*
X010839Y006955D01*
X010839Y006993D01*
X010878Y007032D01*
X010955Y007032D01*
X010994Y006993D01*
X010743Y007032D02*
X010589Y007032D01*
X010589Y006800D01*
X010589Y006916D02*
X010666Y006916D01*
X011340Y006839D02*
X011379Y006800D01*
X011456Y006800D01*
X011495Y006839D01*
X011495Y006877D01*
X011456Y006916D01*
X011417Y006916D01*
X011456Y006916D02*
X011495Y006955D01*
X011495Y006993D01*
X011456Y007032D01*
X011379Y007032D01*
X011340Y006993D01*
X011590Y007032D02*
X011590Y006877D01*
X011668Y006800D01*
X011745Y006877D01*
X011745Y007032D01*
X011841Y006993D02*
X011880Y007032D01*
X011957Y007032D01*
X011996Y006993D01*
X011996Y006955D01*
X011957Y006916D01*
X011996Y006877D01*
X011996Y006839D01*
X011957Y006800D01*
X011880Y006800D01*
X011841Y006839D01*
X011918Y006916D02*
X011957Y006916D01*
X012342Y006839D02*
X012380Y006800D01*
X012458Y006800D01*
X012497Y006839D01*
X012497Y006916D01*
X012419Y006916D01*
X012342Y006993D02*
X012342Y006839D01*
X012342Y006993D02*
X012380Y007032D01*
X012458Y007032D01*
X012497Y006993D01*
X012592Y007032D02*
X012592Y006800D01*
X012747Y006800D02*
X012592Y007032D01*
X012747Y007032D02*
X012747Y006800D01*
X012843Y006800D02*
X012959Y006800D01*
X012997Y006839D01*
X012997Y006993D01*
X012959Y007032D01*
X012843Y007032D01*
X012843Y006800D01*
X015660Y007215D02*
X015940Y007215D01*
X015940Y007550D02*
X015660Y007550D01*
X006115Y011893D02*
X006093Y011898D01*
X006073Y011906D01*
X006055Y011917D01*
X006038Y011932D01*
X006024Y011948D01*
X006012Y011967D01*
X006004Y011987D01*
X005999Y012008D01*
X005997Y012030D01*
X005999Y012052D01*
X006004Y012073D01*
X006012Y012093D01*
X006024Y012112D01*
X006038Y012128D01*
X006055Y012143D01*
X006073Y012154D01*
X006093Y012162D01*
X006115Y012167D01*
X005957Y012256D02*
X005543Y012256D01*
X005385Y012167D02*
X005407Y012162D01*
X005427Y012154D01*
X005445Y012143D01*
X005462Y012128D01*
X005476Y012112D01*
X005488Y012093D01*
X005496Y012073D01*
X005501Y012052D01*
X005503Y012030D01*
X005501Y012008D01*
X005496Y011987D01*
X005488Y011967D01*
X005476Y011948D01*
X005462Y011932D01*
X005445Y011917D01*
X005427Y011906D01*
X005407Y011898D01*
X005385Y011893D01*
X005374Y011853D02*
X005376Y011865D01*
X005381Y011876D01*
X005389Y011885D01*
X005400Y011891D01*
X005412Y011894D01*
X005424Y011893D01*
X005436Y011889D01*
X005445Y011881D01*
X005452Y011871D01*
X005456Y011859D01*
X005456Y011847D01*
X005452Y011835D01*
X005445Y011825D01*
X005435Y011817D01*
X005424Y011813D01*
X005412Y011812D01*
X005400Y011815D01*
X005389Y011821D01*
X005381Y011830D01*
X005376Y011841D01*
X005374Y011853D01*
X005386Y011804D02*
X005947Y011804D01*
X005962Y011650D02*
X005995Y011617D01*
X005995Y011550D01*
X005962Y011517D01*
X005862Y011517D01*
X005929Y011517D02*
X005995Y011450D01*
X005862Y011450D02*
X005862Y011650D01*
X005962Y011650D01*
X005774Y011617D02*
X005741Y011650D01*
X005674Y011650D01*
X005641Y011617D01*
X005641Y011583D01*
X005674Y011550D01*
X005741Y011550D01*
X005774Y011517D01*
X005774Y011483D01*
X005741Y011450D01*
X005674Y011450D01*
X005641Y011483D01*
X005553Y011483D02*
X005553Y011650D01*
X005420Y011650D02*
X005420Y011483D01*
X005453Y011450D01*
X005520Y011450D01*
X005553Y011483D01*
X004715Y011893D02*
X004693Y011898D01*
X004673Y011906D01*
X004655Y011917D01*
X004638Y011932D01*
X004624Y011948D01*
X004612Y011967D01*
X004604Y011987D01*
X004599Y012008D01*
X004597Y012030D01*
X004599Y012052D01*
X004604Y012073D01*
X004612Y012093D01*
X004624Y012112D01*
X004638Y012128D01*
X004655Y012143D01*
X004673Y012154D01*
X004693Y012162D01*
X004715Y012167D01*
X004644Y012207D02*
X004646Y012219D01*
X004651Y012230D01*
X004659Y012239D01*
X004670Y012245D01*
X004682Y012248D01*
X004694Y012247D01*
X004706Y012243D01*
X004715Y012235D01*
X004722Y012225D01*
X004726Y012213D01*
X004726Y012201D01*
X004722Y012189D01*
X004715Y012179D01*
X004705Y012171D01*
X004694Y012167D01*
X004682Y012166D01*
X004670Y012169D01*
X004659Y012175D01*
X004651Y012184D01*
X004646Y012195D01*
X004644Y012207D01*
X004714Y012256D02*
X004153Y012256D01*
X003985Y012167D02*
X004007Y012162D01*
X004027Y012154D01*
X004045Y012143D01*
X004062Y012128D01*
X004076Y012112D01*
X004088Y012093D01*
X004096Y012073D01*
X004101Y012052D01*
X004103Y012030D01*
X004101Y012008D01*
X004096Y011987D01*
X004088Y011967D01*
X004076Y011948D01*
X004062Y011932D01*
X004045Y011917D01*
X004027Y011906D01*
X004007Y011898D01*
X003985Y011893D01*
X004143Y011804D02*
X004557Y011804D01*
X004512Y011650D02*
X004612Y011650D01*
X004645Y011617D01*
X004645Y011550D01*
X004612Y011517D01*
X004512Y011517D01*
X004579Y011517D02*
X004645Y011450D01*
X004512Y011450D02*
X004512Y011650D01*
X004424Y011650D02*
X004424Y011450D01*
X004358Y011517D01*
X004291Y011450D01*
X004291Y011650D01*
X004203Y011617D02*
X004203Y011550D01*
X004170Y011517D01*
X004070Y011517D01*
X004070Y011450D02*
X004070Y011650D01*
X004170Y011650D01*
X004203Y011617D01*
X004960Y010550D02*
X005240Y010550D01*
X005240Y010215D02*
X004960Y010215D01*
X004924Y008600D02*
X004791Y008600D01*
X004791Y008400D01*
X004924Y008400D01*
X005012Y008433D02*
X005045Y008400D01*
X005112Y008400D01*
X005145Y008433D01*
X005145Y008467D01*
X005112Y008500D01*
X005045Y008500D01*
X005012Y008533D01*
X005012Y008567D01*
X005045Y008600D01*
X005112Y008600D01*
X005145Y008567D01*
X005233Y008600D02*
X005233Y008400D01*
X005366Y008400D01*
X005300Y008500D02*
X005233Y008500D01*
X005233Y008600D02*
X005366Y008600D01*
X005454Y008600D02*
X005587Y008600D01*
X005521Y008600D02*
X005521Y008400D01*
X004858Y008500D02*
X004791Y008500D01*
X004703Y008500D02*
X004670Y008467D01*
X004570Y008467D01*
X004637Y008467D02*
X004703Y008400D01*
X004703Y008500D02*
X004703Y008567D01*
X004670Y008600D01*
X004570Y008600D01*
X004570Y008400D01*
X000937Y007032D02*
X000937Y006800D01*
X000976Y006916D02*
X000821Y006916D01*
X000937Y007032D01*
X000725Y006800D02*
X000570Y006800D01*
X000648Y006800D02*
X000648Y007032D01*
X000570Y006955D01*
X000475Y006955D02*
X000475Y006800D01*
X000475Y006916D02*
X000320Y006916D01*
X000320Y006955D02*
X000320Y006800D01*
X000320Y006955D02*
X000397Y007032D01*
X000475Y006955D01*
X000436Y013300D02*
X000320Y013300D01*
X000320Y013532D01*
X000436Y013532D01*
X000475Y013493D01*
X000475Y013455D01*
X000436Y013416D01*
X000320Y013416D01*
X000436Y013416D02*
X000475Y013377D01*
X000475Y013339D01*
X000436Y013300D01*
X000570Y013300D02*
X000725Y013300D01*
X000648Y013300D02*
X000648Y013532D01*
X000570Y013455D01*
X000821Y013416D02*
X000898Y013455D01*
X000937Y013455D01*
X000976Y013416D01*
X000976Y013339D01*
X000937Y013300D01*
X000860Y013300D01*
X000821Y013339D01*
X000821Y013416D02*
X000821Y013532D01*
X000976Y013532D01*
D13*
X012200Y006680D02*
X012200Y005680D01*
X013200Y005680D01*
X013200Y006680D01*
X012200Y006680D01*
D14*
X004540Y009699D02*
X004542Y009707D01*
X004547Y009714D01*
X004554Y009718D01*
X004562Y009719D01*
X004570Y009716D01*
X004576Y009711D01*
X004580Y009703D01*
X004580Y009695D01*
X004576Y009687D01*
X004570Y009682D01*
X004562Y009679D01*
X004554Y009680D01*
X004547Y009684D01*
X004542Y009691D01*
X004540Y009699D01*
D15*
X004868Y010382D03*
X005328Y010382D03*
X015568Y007382D03*
X016028Y007382D03*
D16*
X005100Y010380D03*
D17*
X004490Y010411D02*
X004490Y010558D01*
X004490Y010484D02*
X004270Y010484D01*
X004343Y010411D01*
X004307Y010337D02*
X004380Y010337D01*
X004417Y010300D01*
X004417Y010190D01*
X004490Y010190D02*
X004270Y010190D01*
X004270Y010300D01*
X004307Y010337D01*
X004417Y010263D02*
X004490Y010337D01*
X002440Y011840D02*
X002220Y011840D01*
X002220Y011950D01*
X002257Y011987D01*
X002330Y011987D01*
X002367Y011950D01*
X002367Y011840D01*
X002367Y011913D02*
X002440Y011987D01*
X002440Y012061D02*
X002293Y012208D01*
X002257Y012208D01*
X002220Y012171D01*
X002220Y012098D01*
X002257Y012061D01*
X002440Y012061D02*
X002440Y012208D01*
X007660Y012179D02*
X007697Y012216D01*
X007733Y012216D01*
X007770Y012179D01*
X007807Y012216D01*
X007843Y012216D01*
X007880Y012179D01*
X007880Y012106D01*
X007843Y012069D01*
X007880Y011995D02*
X007807Y011921D01*
X007807Y011958D02*
X007807Y011848D01*
X007880Y011848D02*
X007660Y011848D01*
X007660Y011958D01*
X007697Y011995D01*
X007770Y011995D01*
X007807Y011958D01*
X007697Y012069D02*
X007660Y012106D01*
X007660Y012179D01*
X007770Y012179D02*
X007770Y012142D01*
X012334Y011419D02*
X012407Y011493D01*
X012407Y011273D01*
X012334Y011273D02*
X012481Y011273D01*
X012555Y011383D02*
X012665Y011493D01*
X012665Y011273D01*
X012702Y011383D02*
X012555Y011383D01*
X012592Y009131D02*
X012665Y009131D01*
X012702Y009094D01*
X012555Y008947D01*
X012592Y008910D01*
X012665Y008910D01*
X012702Y008947D01*
X012702Y009094D01*
X012592Y009131D02*
X012555Y009094D01*
X012555Y008947D01*
X012481Y008910D02*
X012334Y008910D01*
X012481Y009057D01*
X012481Y009094D01*
X012444Y009131D01*
X012371Y009131D01*
X012334Y009094D01*
X014960Y007492D02*
X015180Y007492D01*
X015180Y007419D02*
X015180Y007566D01*
X015033Y007419D02*
X014960Y007492D01*
X014997Y007345D02*
X014960Y007308D01*
X014960Y007235D01*
X014997Y007198D01*
X015143Y007198D01*
X015180Y007235D01*
X015180Y007308D01*
X015143Y007345D01*
X016704Y008658D02*
X016704Y008731D01*
X016741Y008768D01*
X016741Y008842D02*
X016704Y008879D01*
X016704Y008952D01*
X016741Y008989D01*
X016814Y008916D02*
X016814Y008879D01*
X016777Y008842D01*
X016741Y008842D01*
X016814Y008879D02*
X016851Y008842D01*
X016888Y008842D01*
X016924Y008879D01*
X016924Y008952D01*
X016888Y008989D01*
X016888Y008768D02*
X016924Y008731D01*
X016924Y008658D01*
X016888Y008621D01*
X016851Y008621D01*
X016814Y008658D01*
X016777Y008621D01*
X016741Y008621D01*
X016704Y008658D01*
X016814Y008658D02*
X016814Y008695D01*
X016704Y011598D02*
X016704Y011745D01*
X016704Y011671D02*
X016924Y011671D01*
X016851Y011745D01*
D18*
X006045Y011848D03*
X006045Y012212D03*
X005455Y012212D03*
X004645Y011848D03*
X004055Y011848D03*
X004055Y012212D03*
D19*
X004104Y012128D03*
X004104Y011932D03*
X004596Y011932D03*
X004596Y012128D03*
X005504Y012128D03*
X005504Y011932D03*
X005996Y011932D03*
X005996Y012128D03*
D20*
X005981Y012030D03*
X005519Y012030D03*
X004581Y012030D03*
X004119Y012030D03*
D21*
X004389Y012030D03*
X005711Y012030D03*
D22*
X005494Y011853D03*
X004606Y012207D03*
D23*
X004729Y012212D03*
X005371Y011848D03*
D24*
X006880Y011890D02*
X007220Y011890D01*
X007220Y012170D02*
X006880Y012170D01*
X006950Y013680D02*
X006450Y013680D01*
X006200Y013930D01*
X005950Y013680D01*
X005450Y013680D01*
X005200Y013930D01*
X005200Y014430D01*
X005450Y014680D01*
X005950Y014680D01*
X006200Y014430D01*
X006450Y014680D01*
X006950Y014680D01*
X007200Y014430D01*
X007450Y014680D01*
X007950Y014680D01*
X008200Y014430D01*
X008450Y014680D01*
X008950Y014680D01*
X009200Y014430D01*
X009450Y014680D01*
X009950Y014680D01*
X010200Y014430D01*
X010450Y014680D01*
X010950Y014680D01*
X011200Y014430D01*
X011450Y014680D01*
X011950Y014680D01*
X012200Y014430D01*
X012450Y014680D01*
X012950Y014680D01*
X013200Y014430D01*
X013200Y013930D01*
X012950Y013680D01*
X012450Y013680D01*
X012200Y013930D01*
X011950Y013680D01*
X011450Y013680D01*
X011200Y013930D01*
X011200Y014430D01*
X011200Y013930D02*
X010950Y013680D01*
X010450Y013680D01*
X010200Y013930D01*
X009950Y013680D01*
X009450Y013680D01*
X009200Y013930D01*
X008950Y013680D01*
X008450Y013680D01*
X008200Y013930D01*
X008200Y014430D01*
X008200Y013930D02*
X007950Y013680D01*
X007450Y013680D01*
X007200Y013930D01*
X006950Y013680D01*
X007200Y013930D02*
X007200Y014430D01*
X006200Y014430D02*
X006200Y013930D01*
X005200Y013930D02*
X004950Y013680D01*
X004450Y013680D01*
X004200Y013930D01*
X003950Y013680D01*
X003450Y013680D01*
X003200Y013930D01*
X002950Y013680D01*
X002450Y013680D01*
X002200Y013930D01*
X002200Y014430D01*
X002450Y014680D01*
X002950Y014680D01*
X003200Y014430D01*
X003450Y014680D01*
X003950Y014680D01*
X004200Y014430D01*
X004450Y014680D01*
X004950Y014680D01*
X005200Y014430D01*
X004200Y014430D02*
X004200Y013930D01*
X003200Y013930D02*
X003200Y014430D01*
X002200Y014430D02*
X001950Y014680D01*
X001450Y014680D01*
X001200Y014430D01*
X000950Y014680D01*
X000450Y014680D01*
X000200Y014430D01*
X000200Y013930D01*
X000450Y013680D01*
X000950Y013680D01*
X001200Y013930D01*
X001200Y014430D01*
X001200Y013930D02*
X001450Y013680D01*
X001950Y013680D01*
X002200Y013930D01*
X001200Y012930D02*
X000950Y013180D01*
X000450Y013180D01*
X000200Y012930D01*
X000200Y012430D01*
X000450Y012180D01*
X000200Y011930D01*
X000200Y011430D01*
X000450Y011180D01*
X000950Y011180D01*
X001200Y011430D01*
X001200Y011930D01*
X000950Y012180D01*
X000450Y012180D01*
X000950Y012180D02*
X001200Y012430D01*
X001200Y012930D01*
X000950Y011180D02*
X001200Y010930D01*
X001200Y010430D01*
X000950Y010180D01*
X001200Y009930D01*
X001200Y009430D01*
X000950Y009180D01*
X001200Y008930D01*
X001200Y008430D01*
X000950Y008180D01*
X001200Y007930D01*
X001200Y007430D01*
X000950Y007180D01*
X000450Y007180D01*
X000200Y007430D01*
X000200Y007930D01*
X000450Y008180D01*
X000200Y008430D01*
X000200Y008930D01*
X000450Y009180D01*
X000200Y009430D01*
X000200Y009930D01*
X000450Y010180D01*
X000200Y010430D01*
X000200Y010930D01*
X000450Y011180D01*
X000450Y010180D02*
X000950Y010180D01*
X000950Y009180D02*
X000450Y009180D01*
X000450Y008180D02*
X000950Y008180D01*
X000950Y006680D02*
X000450Y006680D01*
X000200Y006430D01*
X000200Y005930D01*
X000450Y005680D01*
X000950Y005680D01*
X001200Y005930D01*
X001200Y006430D01*
X000950Y006680D01*
X001200Y006430D02*
X001450Y006680D01*
X001950Y006680D01*
X002200Y006430D01*
X002450Y006680D01*
X002950Y006680D01*
X003200Y006430D01*
X003450Y006680D01*
X003950Y006680D01*
X004200Y006430D01*
X004450Y006680D01*
X004950Y006680D01*
X005200Y006430D01*
X005450Y006680D01*
X005950Y006680D01*
X006200Y006430D01*
X006450Y006680D01*
X006950Y006680D01*
X007200Y006430D01*
X007450Y006680D01*
X007950Y006680D01*
X008200Y006430D01*
X008450Y006680D01*
X008950Y006680D01*
X009200Y006430D01*
X009450Y006680D01*
X009950Y006680D01*
X010200Y006430D01*
X010450Y006680D01*
X010950Y006680D01*
X011200Y006430D01*
X011450Y006680D01*
X011950Y006680D01*
X012200Y006430D01*
X012450Y006680D01*
X012950Y006680D01*
X013200Y006430D01*
X013200Y005930D01*
X012950Y005680D01*
X012450Y005680D01*
X012200Y005930D01*
X011950Y005680D01*
X011450Y005680D01*
X011200Y005930D01*
X011200Y006430D01*
X011200Y005930D02*
X010950Y005680D01*
X010450Y005680D01*
X010200Y005930D01*
X009950Y005680D01*
X009450Y005680D01*
X009200Y005930D01*
X008950Y005680D01*
X008450Y005680D01*
X008200Y005930D01*
X008200Y006430D01*
X008200Y005930D02*
X007950Y005680D01*
X007450Y005680D01*
X007200Y005930D01*
X006950Y005680D01*
X006450Y005680D01*
X006200Y005930D01*
X005950Y005680D01*
X005450Y005680D01*
X005200Y005930D01*
X005200Y006430D01*
X005200Y005930D02*
X004950Y005680D01*
X004450Y005680D01*
X004200Y005930D01*
X003950Y005680D01*
X003450Y005680D01*
X003200Y005930D01*
X002950Y005680D01*
X002450Y005680D01*
X002200Y005930D01*
X002200Y006430D01*
X002200Y005930D02*
X001950Y005680D01*
X001450Y005680D01*
X001200Y005930D01*
X003200Y005930D02*
X003200Y006430D01*
X004200Y006430D02*
X004200Y005930D01*
X006200Y005930D02*
X006200Y006430D01*
X007200Y006430D02*
X007200Y005930D01*
X009200Y005930D02*
X009200Y006430D01*
X010200Y006430D02*
X010200Y005930D01*
X012200Y005930D02*
X012200Y006430D01*
X013700Y006430D02*
X013760Y006500D01*
X013850Y006440D01*
X013940Y006480D01*
X013960Y006580D01*
X014050Y006580D01*
X014070Y006470D01*
X014160Y006440D01*
X014250Y006500D01*
X014320Y006430D01*
X014250Y006340D01*
X014290Y006260D01*
X014400Y006230D01*
X014400Y006140D01*
X014290Y006120D01*
X014250Y006040D01*
X014320Y005950D01*
X014250Y005880D01*
X014160Y005940D01*
X014070Y005900D01*
X014050Y005800D01*
X013960Y005800D01*
X013940Y005900D01*
X013850Y005940D01*
X013760Y005880D01*
X013700Y005950D01*
X013760Y006030D01*
X013740Y006070D01*
X013900Y006130D01*
X013890Y006080D02*
X013990Y006020D01*
X014100Y006060D01*
X014160Y006170D01*
X014120Y006300D01*
X013990Y006340D01*
X013880Y006300D01*
X013780Y006330D01*
X013730Y006420D01*
X013760Y006470D01*
X013860Y006410D01*
X013970Y006460D01*
X013990Y006560D01*
X014020Y006560D01*
X014060Y006460D01*
X014170Y006420D01*
X014260Y006470D01*
X014290Y006430D01*
X014230Y006350D01*
X014290Y006240D01*
X014380Y006210D01*
X014380Y006160D01*
X014270Y006130D01*
X014230Y006040D01*
X014290Y005960D01*
X014250Y005910D01*
X014170Y005960D01*
X014050Y005910D01*
X014030Y005830D01*
X013980Y005820D01*
X013960Y005910D01*
X013850Y005960D01*
X013770Y005920D01*
X013740Y005960D01*
X013790Y006050D01*
X013890Y006080D01*
X013972Y006031D02*
X013779Y006031D01*
X013747Y005973D02*
X014281Y005973D01*
X014253Y005914D02*
X014244Y005914D01*
X014237Y006031D02*
X014020Y006031D01*
X014116Y006090D02*
X014252Y006090D01*
X014336Y006148D02*
X014148Y006148D01*
X014149Y006207D02*
X014380Y006207D01*
X014276Y006265D02*
X014131Y006265D01*
X014044Y006324D02*
X014244Y006324D01*
X014254Y006382D02*
X013751Y006382D01*
X013760Y006350D02*
X013700Y006430D01*
X013742Y006441D02*
X013809Y006441D01*
X013760Y006350D02*
X013740Y006310D01*
X013900Y006250D01*
X013945Y006324D02*
X013802Y006324D01*
X013927Y006441D02*
X014114Y006441D01*
X014044Y006499D02*
X013978Y006499D01*
X013990Y006558D02*
X014021Y006558D01*
X014207Y006441D02*
X014282Y006441D01*
X013900Y006250D02*
X013912Y006267D01*
X013927Y006282D01*
X013944Y006295D01*
X013963Y006304D01*
X013984Y006309D01*
X014005Y006311D01*
X014026Y006309D01*
X014046Y006304D01*
X014065Y006295D01*
X014083Y006283D01*
X014098Y006268D01*
X014110Y006251D01*
X014119Y006231D01*
X014124Y006211D01*
X014126Y006190D01*
X014124Y006169D01*
X014119Y006149D01*
X014110Y006129D01*
X014098Y006112D01*
X014083Y006097D01*
X014065Y006085D01*
X014046Y006076D01*
X014026Y006071D01*
X014005Y006069D01*
X013984Y006071D01*
X013963Y006076D01*
X013944Y006085D01*
X013927Y006098D01*
X013912Y006113D01*
X013900Y006130D01*
X013951Y005914D02*
X014060Y005914D01*
X014036Y005856D02*
X013972Y005856D01*
X012200Y013930D02*
X012200Y014430D01*
X010200Y014430D02*
X010200Y013930D01*
X009200Y013930D02*
X009200Y014430D01*
X003220Y012170D02*
X002880Y012170D01*
X002880Y011890D02*
X003220Y011890D01*
D25*
X003300Y012030D03*
X002800Y012030D03*
X006800Y012030D03*
X007300Y012030D03*
D26*
X015800Y007392D02*
X015800Y007368D01*
D27*
X016793Y010377D03*
D28*
X012700Y014180D03*
X011700Y014180D03*
X010700Y014180D03*
X009700Y014180D03*
X008700Y014180D03*
X007700Y014180D03*
X006700Y014180D03*
X005700Y014180D03*
X004700Y014180D03*
X003700Y014180D03*
X002700Y014180D03*
X001700Y014180D03*
X000700Y014180D03*
X000700Y012680D03*
X000700Y011680D03*
X000700Y010680D03*
X000700Y009680D03*
X000700Y008680D03*
X000700Y007680D03*
X000700Y006180D03*
X001700Y006180D03*
X002700Y006180D03*
X003700Y006180D03*
X004700Y006180D03*
X005700Y006180D03*
X006700Y006180D03*
X007700Y006180D03*
X008700Y006180D03*
X009700Y006180D03*
X010700Y006180D03*
X011700Y006180D03*
X012700Y006180D03*
M02*
