G75*
G70*
%OFA0B0*%
%FSLAX24Y24*%
%IPPOS*%
%LPD*%
%AMOC8*
5,1,8,0,0,1.08239X$1,22.5*
%
%ADD10OC8,0.0700*%
%ADD11R,0.0630X0.0460*%
%ADD12C,0.0100*%
%ADD13C,0.0270*%
%ADD14C,0.0160*%
D10*
X001487Y002649D03*
X001487Y003649D03*
X001487Y004649D03*
X001487Y005649D03*
X001487Y006649D03*
X001487Y007649D03*
X004487Y005649D03*
X004487Y004649D03*
X004487Y002649D03*
D11*
X003437Y002499D03*
X003437Y003099D03*
D12*
X003187Y003349D01*
X002137Y003349D01*
X001487Y002699D01*
X001487Y002649D01*
X002787Y002499D02*
X003437Y002499D01*
X002787Y002499D02*
X002787Y002999D01*
X001487Y003649D02*
X001487Y003699D01*
X003487Y005699D01*
X003487Y007199D01*
X003587Y007599D02*
X003087Y007599D01*
X002237Y006749D01*
X001487Y007549D01*
X001487Y007649D01*
X002237Y006749D02*
X002237Y004949D01*
X003187Y004299D02*
X003687Y004799D01*
X003687Y005599D01*
X004287Y006199D01*
X004687Y006199D01*
X005887Y004999D01*
X006387Y004999D01*
X006987Y004399D01*
X007187Y004399D01*
X006287Y004799D02*
X005287Y004799D01*
X004487Y005599D01*
X004487Y005649D01*
X005387Y006299D02*
X006287Y005399D01*
X006287Y005899D02*
X008987Y005899D01*
X008287Y005399D02*
X008287Y003099D01*
X007887Y002699D01*
X005187Y002699D01*
X004987Y003199D02*
X004487Y002699D01*
X004487Y002649D01*
X004987Y003199D02*
X006787Y003199D01*
X007387Y003199D02*
X005987Y004599D01*
X004487Y004599D01*
X004487Y004649D01*
X004987Y004199D02*
X004987Y003599D01*
X005387Y003599D01*
X004987Y003599D02*
X004087Y003599D01*
X003737Y003949D01*
X002237Y003949D01*
X006287Y004799D02*
X007887Y003199D01*
X011187Y006799D02*
X004387Y006799D01*
X003587Y007599D01*
X005527Y007199D02*
X013587Y007199D01*
D13*
X013587Y007199D03*
X013987Y006999D03*
X014487Y007499D03*
X014987Y007949D03*
X015487Y007499D03*
X014987Y006999D03*
X015487Y006499D03*
X014987Y005999D03*
X014487Y006499D03*
X013987Y005999D03*
X013487Y006499D03*
X012987Y006999D03*
X012487Y006499D03*
X012987Y005999D03*
X013487Y005499D03*
X014487Y005499D03*
X015487Y005499D03*
X014987Y004999D03*
X015487Y004499D03*
X014987Y003999D03*
X014487Y004499D03*
X013987Y004999D03*
X013487Y004499D03*
X012987Y004999D03*
X012487Y004499D03*
X011987Y004999D03*
X011487Y004499D03*
X011987Y003999D03*
X012487Y003499D03*
X012987Y003999D03*
X013487Y003499D03*
X013987Y003999D03*
X014487Y003499D03*
X014987Y002999D03*
X015487Y003499D03*
X013987Y002999D03*
X014487Y002499D03*
X015487Y002499D03*
X009987Y003499D03*
X008987Y003499D03*
X007887Y003199D03*
X007387Y003199D03*
X006787Y003199D03*
X005387Y003599D03*
X005987Y003999D03*
X004987Y004199D03*
X003187Y004299D03*
X002237Y003949D03*
X002237Y004949D03*
X005387Y006299D03*
X006287Y005899D03*
X006287Y005399D03*
X006487Y006449D03*
X007487Y006449D03*
X008737Y006449D03*
X008987Y005899D03*
X008287Y005399D03*
X009987Y005499D03*
X010487Y005999D03*
X011187Y006799D03*
X012487Y005499D03*
X013987Y007949D03*
X007187Y004399D03*
X005187Y002699D03*
X002787Y002999D03*
X003487Y007199D03*
X002487Y007949D03*
X005527Y007199D03*
D14*
X003932Y003403D02*
X003932Y002229D01*
X004157Y002229D01*
X003957Y002429D01*
X003957Y002868D01*
X004267Y003179D01*
X004641Y003179D01*
X004891Y003429D01*
X006571Y003429D01*
X006608Y003466D01*
X006724Y003514D01*
X006746Y003514D01*
X005891Y004369D01*
X004956Y004369D01*
X004706Y004119D01*
X004267Y004119D01*
X003957Y004429D01*
X003957Y004868D01*
X004237Y005149D01*
X003957Y005429D01*
X003957Y005543D01*
X003917Y005503D01*
X003917Y004703D01*
X003502Y004288D01*
X003502Y004236D01*
X003454Y004120D01*
X003365Y004032D01*
X003249Y003984D01*
X003124Y003984D01*
X003008Y004032D01*
X002920Y004120D01*
X002872Y004236D01*
X002872Y004361D01*
X002920Y004477D01*
X003008Y004566D01*
X003124Y004614D01*
X003176Y004614D01*
X003457Y004894D01*
X003457Y005343D01*
X001999Y003886D01*
X002017Y003868D01*
X002017Y003554D01*
X002041Y003579D01*
X003282Y003579D01*
X003352Y003509D01*
X003826Y003509D01*
X003932Y003403D01*
X003910Y003425D02*
X004888Y003425D01*
X004729Y003267D02*
X003932Y003267D01*
X003932Y003108D02*
X004197Y003108D01*
X004038Y002950D02*
X003932Y002950D01*
X003932Y002791D02*
X003957Y002791D01*
X003957Y002633D02*
X003932Y002633D01*
X003932Y002474D02*
X003957Y002474D01*
X003932Y002316D02*
X004070Y002316D01*
X004816Y002229D02*
X005016Y002428D01*
X005124Y002384D01*
X005249Y002384D01*
X005365Y002432D01*
X005402Y002469D01*
X007982Y002469D01*
X008117Y002603D01*
X008517Y003003D01*
X008517Y005183D01*
X008554Y005220D01*
X008602Y005336D01*
X008602Y005461D01*
X008554Y005577D01*
X008465Y005666D01*
X008458Y005669D01*
X008771Y005669D01*
X008808Y005632D01*
X008924Y005584D01*
X009049Y005584D01*
X009165Y005632D01*
X009254Y005720D01*
X009302Y005836D01*
X009302Y005961D01*
X015757Y005961D01*
X015757Y005803D02*
X009288Y005803D01*
X009302Y005961D02*
X009254Y006077D01*
X009165Y006166D01*
X009049Y006214D01*
X008924Y006214D01*
X008808Y006166D01*
X008771Y006129D01*
X006502Y006129D01*
X006465Y006166D01*
X006349Y006214D01*
X006224Y006214D01*
X006108Y006166D01*
X006020Y006077D01*
X005994Y006016D01*
X005702Y006309D01*
X005702Y006361D01*
X005654Y006477D01*
X005565Y006566D01*
X005558Y006569D01*
X010971Y006569D01*
X011008Y006532D01*
X011124Y006484D01*
X011249Y006484D01*
X011365Y006532D01*
X011454Y006620D01*
X011502Y006736D01*
X011502Y006861D01*
X011454Y006977D01*
X011365Y007066D01*
X011249Y007114D01*
X011124Y007114D01*
X011008Y007066D01*
X010971Y007029D01*
X004482Y007029D01*
X003817Y007694D01*
X003682Y007829D01*
X002991Y007829D01*
X002242Y007079D01*
X001964Y007376D01*
X002017Y007429D01*
X002017Y007868D01*
X001820Y008065D01*
X015757Y008065D01*
X015757Y002229D01*
X004816Y002229D01*
X004903Y002316D02*
X015757Y002316D01*
X015757Y002474D02*
X007987Y002474D01*
X008146Y002633D02*
X015757Y002633D01*
X015757Y002791D02*
X008304Y002791D01*
X008463Y002950D02*
X015757Y002950D01*
X015757Y003108D02*
X008517Y003108D01*
X008517Y003267D02*
X015757Y003267D01*
X015757Y003425D02*
X008517Y003425D01*
X008517Y003584D02*
X015757Y003584D01*
X015757Y003742D02*
X008517Y003742D01*
X008517Y003901D02*
X015757Y003901D01*
X015757Y004059D02*
X008517Y004059D01*
X008517Y004218D02*
X015757Y004218D01*
X015757Y004376D02*
X008517Y004376D01*
X008517Y004535D02*
X015757Y004535D01*
X015757Y004693D02*
X008517Y004693D01*
X008517Y004852D02*
X015757Y004852D01*
X015757Y005010D02*
X008517Y005010D01*
X008517Y005169D02*
X015757Y005169D01*
X015757Y005327D02*
X008598Y005327D01*
X008592Y005486D02*
X015757Y005486D01*
X015757Y005644D02*
X009178Y005644D01*
X008796Y005644D02*
X008487Y005644D01*
X009211Y006120D02*
X015757Y006120D01*
X015757Y006278D02*
X005732Y006278D01*
X005670Y006437D02*
X015757Y006437D01*
X015757Y006595D02*
X011429Y006595D01*
X011502Y006754D02*
X015757Y006754D01*
X015757Y006912D02*
X011481Y006912D01*
X011353Y007071D02*
X015757Y007071D01*
X015757Y007229D02*
X004281Y007229D01*
X004123Y007388D02*
X015757Y007388D01*
X015757Y007546D02*
X003964Y007546D01*
X003817Y007694D02*
X003817Y007694D01*
X003806Y007705D02*
X015757Y007705D01*
X015757Y007863D02*
X002017Y007863D01*
X002017Y007705D02*
X002867Y007705D01*
X002709Y007546D02*
X002017Y007546D01*
X001975Y007388D02*
X002550Y007388D01*
X002392Y007229D02*
X002101Y007229D01*
X001863Y008022D02*
X015757Y008022D01*
X011020Y007071D02*
X004440Y007071D01*
X005891Y006120D02*
X006062Y006120D01*
X004217Y005169D02*
X003917Y005169D01*
X003917Y005010D02*
X004099Y005010D01*
X003957Y004852D02*
X003917Y004852D01*
X003906Y004693D02*
X003957Y004693D01*
X003957Y004535D02*
X003748Y004535D01*
X003589Y004376D02*
X004010Y004376D01*
X004168Y004218D02*
X003494Y004218D01*
X003393Y004059D02*
X006201Y004059D01*
X006042Y004218D02*
X004805Y004218D01*
X003414Y004852D02*
X002965Y004852D01*
X003123Y005010D02*
X003457Y005010D01*
X003457Y005169D02*
X003282Y005169D01*
X003440Y005327D02*
X003457Y005327D01*
X003917Y005327D02*
X004059Y005327D01*
X003957Y005486D02*
X003917Y005486D01*
X003256Y004693D02*
X002806Y004693D01*
X002648Y004535D02*
X002977Y004535D01*
X002878Y004376D02*
X002489Y004376D01*
X002331Y004218D02*
X002879Y004218D01*
X002981Y004059D02*
X002172Y004059D01*
X002014Y003901D02*
X006359Y003901D01*
X006518Y003742D02*
X002017Y003742D01*
X002017Y003584D02*
X006676Y003584D01*
X002119Y004656D02*
X002017Y004554D01*
X002017Y004629D01*
X001507Y004629D01*
X001507Y004669D01*
X002017Y004669D01*
X002017Y004723D01*
X002058Y004682D01*
X002119Y004656D01*
X002047Y004693D02*
X002017Y004693D01*
M02*
