%
M48
M72
T01C0.0130
T02C0.0400
%
T01
X5187Y2699
X6787Y3199
X7387Y3199
X7887Y3199
X8987Y3499
X9987Y3499
X11487Y4499
X11987Y4999
X12487Y4499
X12987Y4999
X13487Y4499
X13987Y4999
X14487Y4499
X14987Y4999
X15487Y4499
X14987Y3999
X15487Y3499
X14987Y2999
X14487Y3499
X13987Y3999
X13487Y3499
X12987Y3999
X12487Y3499
X11987Y3999
X13987Y2999
X14487Y2499
X15487Y2499
X15487Y5499
X14987Y5999
X15487Y6499
X14987Y6999
X15487Y7499
X14987Y7949
X14487Y7499
X13587Y7199
X13987Y6999
X14487Y6499
X13987Y5999
X13487Y6499
X12987Y6999
X12487Y6499
X12987Y5999
X13487Y5499
X14487Y5499
X12487Y5499
X10487Y5999
X9987Y5499
X8987Y5899
X8737Y6449
X7487Y6449
X6487Y6449
X6287Y5899
X6287Y5399
X5387Y6299
X5527Y7199
X3487Y7199
X2487Y7949
X8287Y5399
X7187Y4399
X5987Y3999
X5387Y3599
X4987Y4199
X3187Y4299
X2237Y3949
X2237Y4949
X2787Y2999
X11187Y6799
X13987Y7949
T02
X1487Y2649
X1487Y3649
X1487Y4649
X1487Y5649
X1487Y6649
X1487Y7649
X4487Y5649
X4487Y4649
X4487Y2649
M30
