G75*
G70*
%OFA0B0*%
%FSLAX24Y24*%
%IPPOS*%
%LPD*%
%AMOC8*
5,1,8,0,0,1.08239X$1,22.5*
%
%ADD10R,0.0425X0.0413*%
%ADD11R,0.0394X0.0394*%
%ADD12C,0.0108*%
%ADD13C,0.0072*%
D10*
X004937Y007154D03*
X004937Y007843D03*
D11*
X004087Y007892D03*
X004087Y007105D03*
D12*
X005967Y002728D02*
X005967Y002254D01*
X005715Y002254D01*
X005715Y002728D01*
X005967Y002728D01*
X005967Y002361D02*
X005715Y002361D01*
X005715Y002468D02*
X005967Y002468D01*
X005967Y002575D02*
X005715Y002575D01*
X005715Y002682D02*
X005967Y002682D01*
X006558Y002846D02*
X006558Y002254D01*
X006306Y002254D01*
X006306Y002846D01*
X006558Y002846D01*
X006558Y002361D02*
X006306Y002361D01*
X006306Y002468D02*
X006558Y002468D01*
X006558Y002575D02*
X006306Y002575D01*
X006306Y002682D02*
X006558Y002682D01*
X006558Y002789D02*
X006306Y002789D01*
X007148Y002846D02*
X007148Y002254D01*
X006896Y002254D01*
X006896Y002846D01*
X007148Y002846D01*
X007148Y002361D02*
X006896Y002361D01*
X006896Y002468D02*
X007148Y002468D01*
X007148Y002575D02*
X006896Y002575D01*
X006896Y002682D02*
X007148Y002682D01*
X007148Y002789D02*
X006896Y002789D01*
X007739Y002846D02*
X007739Y002254D01*
X007487Y002254D01*
X007487Y002846D01*
X007739Y002846D01*
X007739Y002361D02*
X007487Y002361D01*
X007487Y002468D02*
X007739Y002468D01*
X007739Y002575D02*
X007487Y002575D01*
X007487Y002682D02*
X007739Y002682D01*
X007739Y002789D02*
X007487Y002789D01*
X008329Y002846D02*
X008329Y002254D01*
X008077Y002254D01*
X008077Y002846D01*
X008329Y002846D01*
X008329Y002361D02*
X008077Y002361D01*
X008077Y002468D02*
X008329Y002468D01*
X008329Y002575D02*
X008077Y002575D01*
X008077Y002682D02*
X008329Y002682D01*
X008329Y002789D02*
X008077Y002789D01*
X008920Y002846D02*
X008920Y002254D01*
X008668Y002254D01*
X008668Y002846D01*
X008920Y002846D01*
X008920Y002361D02*
X008668Y002361D01*
X008668Y002468D02*
X008920Y002468D01*
X008920Y002575D02*
X008668Y002575D01*
X008668Y002682D02*
X008920Y002682D01*
X008920Y002789D02*
X008668Y002789D01*
X009510Y002846D02*
X009510Y002254D01*
X009258Y002254D01*
X009258Y002846D01*
X009510Y002846D01*
X009510Y002361D02*
X009258Y002361D01*
X009258Y002468D02*
X009510Y002468D01*
X009510Y002575D02*
X009258Y002575D01*
X009258Y002682D02*
X009510Y002682D01*
X009510Y002789D02*
X009258Y002789D01*
X010101Y002846D02*
X010101Y002254D01*
X009849Y002254D01*
X009849Y002846D01*
X010101Y002846D01*
X010101Y002361D02*
X009849Y002361D01*
X009849Y002468D02*
X010101Y002468D01*
X010101Y002575D02*
X009849Y002575D01*
X009849Y002682D02*
X010101Y002682D01*
X010101Y002789D02*
X009849Y002789D01*
X010691Y002846D02*
X010691Y002254D01*
X010439Y002254D01*
X010439Y002846D01*
X010691Y002846D01*
X010691Y002361D02*
X010439Y002361D01*
X010439Y002468D02*
X010691Y002468D01*
X010691Y002575D02*
X010439Y002575D01*
X010439Y002682D02*
X010691Y002682D01*
X010691Y002789D02*
X010439Y002789D01*
X011282Y002846D02*
X011282Y002254D01*
X011030Y002254D01*
X011030Y002846D01*
X011282Y002846D01*
X011282Y002361D02*
X011030Y002361D01*
X011030Y002468D02*
X011282Y002468D01*
X011282Y002575D02*
X011030Y002575D01*
X011030Y002682D02*
X011282Y002682D01*
X011282Y002789D02*
X011030Y002789D01*
X011873Y002846D02*
X011873Y002254D01*
X011621Y002254D01*
X011621Y002846D01*
X011873Y002846D01*
X011873Y002361D02*
X011621Y002361D01*
X011621Y002468D02*
X011873Y002468D01*
X011873Y002575D02*
X011621Y002575D01*
X011621Y002682D02*
X011873Y002682D01*
X011873Y002789D02*
X011621Y002789D01*
X012463Y002846D02*
X012463Y002254D01*
X012211Y002254D01*
X012211Y002846D01*
X012463Y002846D01*
X012463Y002361D02*
X012211Y002361D01*
X012211Y002468D02*
X012463Y002468D01*
X012463Y002575D02*
X012211Y002575D01*
X012211Y002682D02*
X012463Y002682D01*
X012463Y002789D02*
X012211Y002789D01*
X013054Y002846D02*
X013054Y002254D01*
X012802Y002254D01*
X012802Y002846D01*
X013054Y002846D01*
X013054Y002361D02*
X012802Y002361D01*
X012802Y002468D02*
X013054Y002468D01*
X013054Y002575D02*
X012802Y002575D01*
X012802Y002682D02*
X013054Y002682D01*
X013054Y002789D02*
X012802Y002789D01*
X013644Y002728D02*
X013644Y002254D01*
X013392Y002254D01*
X013392Y002728D01*
X013644Y002728D01*
X013644Y002361D02*
X013392Y002361D01*
X013392Y002468D02*
X013644Y002468D01*
X013644Y002575D02*
X013392Y002575D01*
X013392Y002682D02*
X013644Y002682D01*
X013054Y007451D02*
X013054Y008043D01*
X013054Y007451D02*
X012802Y007451D01*
X012802Y008043D01*
X013054Y008043D01*
X013054Y007558D02*
X012802Y007558D01*
X012802Y007665D02*
X013054Y007665D01*
X013054Y007772D02*
X012802Y007772D01*
X012802Y007879D02*
X013054Y007879D01*
X013054Y007986D02*
X012802Y007986D01*
X012463Y008043D02*
X012463Y007451D01*
X012211Y007451D01*
X012211Y008043D01*
X012463Y008043D01*
X012463Y007558D02*
X012211Y007558D01*
X012211Y007665D02*
X012463Y007665D01*
X012463Y007772D02*
X012211Y007772D01*
X012211Y007879D02*
X012463Y007879D01*
X012463Y007986D02*
X012211Y007986D01*
X011873Y008043D02*
X011873Y007451D01*
X011621Y007451D01*
X011621Y008043D01*
X011873Y008043D01*
X011873Y007558D02*
X011621Y007558D01*
X011621Y007665D02*
X011873Y007665D01*
X011873Y007772D02*
X011621Y007772D01*
X011621Y007879D02*
X011873Y007879D01*
X011873Y007986D02*
X011621Y007986D01*
X011282Y008043D02*
X011282Y007451D01*
X011030Y007451D01*
X011030Y008043D01*
X011282Y008043D01*
X011282Y007558D02*
X011030Y007558D01*
X011030Y007665D02*
X011282Y007665D01*
X011282Y007772D02*
X011030Y007772D01*
X011030Y007879D02*
X011282Y007879D01*
X011282Y007986D02*
X011030Y007986D01*
X010691Y008043D02*
X010691Y007451D01*
X010439Y007451D01*
X010439Y008043D01*
X010691Y008043D01*
X010691Y007558D02*
X010439Y007558D01*
X010439Y007665D02*
X010691Y007665D01*
X010691Y007772D02*
X010439Y007772D01*
X010439Y007879D02*
X010691Y007879D01*
X010691Y007986D02*
X010439Y007986D01*
X010101Y008043D02*
X010101Y007451D01*
X009849Y007451D01*
X009849Y008043D01*
X010101Y008043D01*
X010101Y007558D02*
X009849Y007558D01*
X009849Y007665D02*
X010101Y007665D01*
X010101Y007772D02*
X009849Y007772D01*
X009849Y007879D02*
X010101Y007879D01*
X010101Y007986D02*
X009849Y007986D01*
X009510Y008043D02*
X009510Y007451D01*
X009258Y007451D01*
X009258Y008043D01*
X009510Y008043D01*
X009510Y007558D02*
X009258Y007558D01*
X009258Y007665D02*
X009510Y007665D01*
X009510Y007772D02*
X009258Y007772D01*
X009258Y007879D02*
X009510Y007879D01*
X009510Y007986D02*
X009258Y007986D01*
X008329Y008043D02*
X008329Y007451D01*
X008077Y007451D01*
X008077Y008043D01*
X008329Y008043D01*
X008329Y007558D02*
X008077Y007558D01*
X008077Y007665D02*
X008329Y007665D01*
X008329Y007772D02*
X008077Y007772D01*
X008077Y007879D02*
X008329Y007879D01*
X008329Y007986D02*
X008077Y007986D01*
X007739Y008043D02*
X007739Y007451D01*
X007487Y007451D01*
X007487Y008043D01*
X007739Y008043D01*
X007739Y007558D02*
X007487Y007558D01*
X007487Y007665D02*
X007739Y007665D01*
X007739Y007772D02*
X007487Y007772D01*
X007487Y007879D02*
X007739Y007879D01*
X007739Y007986D02*
X007487Y007986D01*
X007148Y008043D02*
X007148Y007451D01*
X006896Y007451D01*
X006896Y008043D01*
X007148Y008043D01*
X007148Y007558D02*
X006896Y007558D01*
X006896Y007665D02*
X007148Y007665D01*
X007148Y007772D02*
X006896Y007772D01*
X006896Y007879D02*
X007148Y007879D01*
X007148Y007986D02*
X006896Y007986D01*
X006558Y008043D02*
X006558Y007451D01*
X006306Y007451D01*
X006306Y008043D01*
X006558Y008043D01*
X006558Y007558D02*
X006306Y007558D01*
X006306Y007665D02*
X006558Y007665D01*
X006558Y007772D02*
X006306Y007772D01*
X006306Y007879D02*
X006558Y007879D01*
X006558Y007986D02*
X006306Y007986D01*
X005967Y008043D02*
X005967Y007569D01*
X005715Y007569D01*
X005715Y008043D01*
X005967Y008043D01*
X005967Y007676D02*
X005715Y007676D01*
X005715Y007783D02*
X005967Y007783D01*
X005967Y007890D02*
X005715Y007890D01*
X005715Y007997D02*
X005967Y007997D01*
X013644Y008043D02*
X013644Y007569D01*
X013392Y007569D01*
X013392Y008043D01*
X013644Y008043D01*
X013644Y007676D02*
X013392Y007676D01*
X013392Y007783D02*
X013644Y007783D01*
X013644Y007890D02*
X013392Y007890D01*
X013392Y007997D02*
X013644Y007997D01*
D13*
X008938Y008061D02*
X008938Y007433D01*
X008650Y007433D01*
X008650Y008061D01*
X008938Y008061D01*
X008938Y007504D02*
X008650Y007504D01*
X008650Y007575D02*
X008938Y007575D01*
X008938Y007646D02*
X008650Y007646D01*
X008650Y007717D02*
X008938Y007717D01*
X008938Y007788D02*
X008650Y007788D01*
X008650Y007859D02*
X008938Y007859D01*
X008938Y007930D02*
X008650Y007930D01*
X008650Y008001D02*
X008938Y008001D01*
M02*
