G75*
G70*
%OFA0B0*%
%FSLAX24Y24*%
%IPPOS*%
%LPD*%
%AMOC8*
5,1,8,0,0,1.08239X$1,22.5*
%
%ADD10C,0.0000*%
%ADD11C,0.0030*%
%ADD12C,0.0040*%
%ADD13C,0.0060*%
%ADD14R,0.0200X0.0200*%
%ADD15R,0.0315X0.0138*%
%ADD16R,0.0472X0.0118*%
%ADD17C,0.0050*%
D10*
X000987Y001999D02*
X000987Y008295D01*
X015987Y008295D01*
X015987Y001999D01*
X000987Y001999D01*
D11*
X002102Y002512D02*
X002150Y002464D01*
X002247Y002464D01*
X002295Y002512D01*
X002102Y002512D02*
X002102Y002706D01*
X002150Y002754D01*
X002247Y002754D01*
X002295Y002706D01*
X002396Y002754D02*
X002590Y002754D01*
X002493Y002754D02*
X002493Y002464D01*
X002691Y002512D02*
X002739Y002464D01*
X002836Y002464D01*
X002884Y002512D01*
X002884Y002560D01*
X002836Y002609D01*
X002739Y002609D01*
X002691Y002657D01*
X002691Y002706D01*
X002739Y002754D01*
X002836Y002754D01*
X002884Y002706D01*
X004102Y003264D02*
X004102Y003554D01*
X004247Y003554D01*
X004295Y003506D01*
X004295Y003409D01*
X004247Y003360D01*
X004102Y003360D01*
X004198Y003360D02*
X004295Y003264D01*
X004396Y003264D02*
X004590Y003264D01*
X004691Y003312D02*
X004739Y003264D01*
X004836Y003264D01*
X004884Y003312D01*
X004884Y003360D01*
X004836Y003409D01*
X004739Y003409D01*
X004691Y003457D01*
X004691Y003506D01*
X004739Y003554D01*
X004836Y003554D01*
X004884Y003506D01*
X004590Y003554D02*
X004396Y003554D01*
X004396Y003264D01*
X004396Y003409D02*
X004493Y003409D01*
X005702Y003440D02*
X005702Y003634D01*
X005702Y003537D02*
X005992Y003537D01*
X005895Y003634D01*
X005847Y003339D02*
X005895Y003242D01*
X005895Y003194D01*
X005847Y003146D01*
X005750Y003146D01*
X005702Y003194D01*
X005702Y003291D01*
X005750Y003339D01*
X005847Y003339D02*
X005992Y003339D01*
X005992Y003146D01*
X003872Y004114D02*
X003581Y004114D01*
X003581Y004259D01*
X003630Y004307D01*
X003727Y004307D01*
X003775Y004259D01*
X003775Y004114D01*
X003872Y004408D02*
X003872Y004505D01*
X003872Y004457D02*
X003581Y004457D01*
X003581Y004505D02*
X003581Y004408D01*
X003630Y004605D02*
X003823Y004605D01*
X003872Y004653D01*
X003872Y004750D01*
X003823Y004798D01*
X003630Y004798D01*
X003581Y004750D01*
X003581Y004653D01*
X003630Y004605D01*
X003727Y004899D02*
X003727Y005045D01*
X003775Y005093D01*
X003823Y005093D01*
X003872Y005045D01*
X003872Y004948D01*
X003823Y004899D01*
X003727Y004899D01*
X003630Y004996D01*
X003581Y005093D01*
X003581Y005264D02*
X003581Y005409D01*
X003630Y005457D01*
X003727Y005457D01*
X003775Y005409D01*
X003775Y005264D01*
X003872Y005264D02*
X003581Y005264D01*
X003581Y005558D02*
X003581Y005655D01*
X003581Y005607D02*
X003872Y005607D01*
X003872Y005655D02*
X003872Y005558D01*
X003823Y005755D02*
X003630Y005755D01*
X003581Y005803D01*
X003581Y005900D01*
X003630Y005948D01*
X003823Y005948D01*
X003872Y005900D01*
X003872Y005803D01*
X003823Y005755D01*
X003823Y006049D02*
X003872Y006049D01*
X003823Y006049D02*
X003630Y006243D01*
X003581Y006243D01*
X003581Y006049D01*
X002884Y005706D02*
X002836Y005754D01*
X002691Y005754D01*
X002691Y005464D01*
X002836Y005464D01*
X002884Y005512D01*
X002884Y005706D01*
X002590Y005754D02*
X002396Y005464D01*
X002590Y005464D02*
X002396Y005754D01*
X002295Y005754D02*
X002102Y005754D01*
X002198Y005754D02*
X002198Y005464D01*
X002150Y004754D02*
X002102Y004706D01*
X002102Y004512D01*
X002150Y004464D01*
X002247Y004464D01*
X002295Y004512D01*
X002295Y004609D01*
X002198Y004609D01*
X002295Y004706D02*
X002247Y004754D01*
X002150Y004754D01*
X002396Y004754D02*
X002590Y004464D01*
X002590Y004754D01*
X002691Y004754D02*
X002836Y004754D01*
X002884Y004706D01*
X002884Y004512D01*
X002836Y004464D01*
X002691Y004464D01*
X002691Y004754D01*
X002396Y004754D02*
X002396Y004464D01*
X002396Y003754D02*
X002396Y003560D01*
X002493Y003464D01*
X002590Y003560D01*
X002590Y003754D01*
X002691Y003706D02*
X002739Y003754D01*
X002836Y003754D01*
X002884Y003706D01*
X002884Y003657D01*
X002836Y003609D01*
X002884Y003560D01*
X002884Y003512D01*
X002836Y003464D01*
X002739Y003464D01*
X002691Y003512D01*
X002788Y003609D02*
X002836Y003609D01*
X002295Y003657D02*
X002247Y003609D01*
X002295Y003560D01*
X002295Y003512D01*
X002247Y003464D01*
X002150Y003464D01*
X002102Y003512D01*
X002198Y003609D02*
X002247Y003609D01*
X002295Y003657D02*
X002295Y003706D01*
X002247Y003754D01*
X002150Y003754D01*
X002102Y003706D01*
X002102Y006464D02*
X002102Y006754D01*
X002247Y006754D01*
X002295Y006706D01*
X002295Y006609D01*
X002247Y006560D01*
X002102Y006560D01*
X002198Y006560D02*
X002295Y006464D01*
X002396Y006464D02*
X002590Y006754D01*
X002691Y006754D02*
X002836Y006754D01*
X002884Y006706D01*
X002884Y006512D01*
X002836Y006464D01*
X002691Y006464D01*
X002691Y006754D01*
X002396Y006754D02*
X002590Y006464D01*
X003852Y006514D02*
X004045Y006514D01*
X004146Y006514D02*
X004340Y006514D01*
X004243Y006514D02*
X004243Y006804D01*
X004146Y006707D01*
X003852Y006804D02*
X003852Y006514D01*
X004652Y006562D02*
X004700Y006514D01*
X004797Y006514D01*
X004845Y006562D01*
X004946Y006514D02*
X005140Y006514D01*
X005043Y006514D02*
X005043Y006804D01*
X004946Y006707D01*
X004845Y006756D02*
X004797Y006804D01*
X004700Y006804D01*
X004652Y006756D01*
X004652Y006562D01*
X005702Y006819D02*
X005992Y006819D01*
X005847Y006964D01*
X005847Y006771D01*
X005702Y007065D02*
X005702Y007259D01*
X005702Y007162D02*
X005992Y007162D01*
X005895Y007259D01*
X002884Y007512D02*
X002836Y007464D01*
X002739Y007464D01*
X002691Y007512D01*
X002739Y007609D02*
X002836Y007609D01*
X002884Y007560D01*
X002884Y007512D01*
X002739Y007609D02*
X002691Y007657D01*
X002691Y007706D01*
X002739Y007754D01*
X002836Y007754D01*
X002884Y007706D01*
X002590Y007754D02*
X002396Y007754D01*
X002493Y007754D02*
X002493Y007464D01*
X002295Y007464D02*
X002198Y007560D01*
X002247Y007560D02*
X002102Y007560D01*
X002102Y007464D02*
X002102Y007754D01*
X002247Y007754D01*
X002295Y007706D01*
X002295Y007609D01*
X002247Y007560D01*
X013377Y007259D02*
X013377Y007065D01*
X013377Y007162D02*
X013667Y007162D01*
X013570Y007259D01*
X013619Y003634D02*
X013667Y003585D01*
X013667Y003489D01*
X013619Y003440D01*
X013570Y003440D01*
X013377Y003634D01*
X013377Y003440D01*
X013425Y003339D02*
X013473Y003339D01*
X013522Y003291D01*
X013522Y003194D01*
X013473Y003146D01*
X013425Y003146D01*
X013377Y003194D01*
X013377Y003291D01*
X013425Y003339D01*
X013522Y003291D02*
X013570Y003339D01*
X013619Y003339D01*
X013667Y003291D01*
X013667Y003194D01*
X013619Y003146D01*
X013570Y003146D01*
X013522Y003194D01*
D12*
X013102Y004969D02*
X013102Y005276D01*
X012949Y005429D01*
X012795Y005276D01*
X012795Y004969D01*
X012795Y005199D02*
X013102Y005199D01*
X012642Y005199D02*
X012335Y005199D01*
X012028Y005429D02*
X012028Y004969D01*
X012181Y004969D02*
X011874Y004969D01*
X011721Y004969D02*
X011414Y004969D01*
X011568Y004969D02*
X011568Y005429D01*
X011414Y005276D01*
X011261Y005429D02*
X010954Y005429D01*
X011107Y005429D02*
X011107Y004969D01*
X010800Y004969D02*
X010800Y005429D01*
X010493Y005429D02*
X010493Y004969D01*
X010647Y005122D01*
X010800Y004969D01*
X009879Y004969D02*
X009649Y004969D01*
X009572Y005045D01*
X009649Y005122D01*
X009879Y005122D01*
X009879Y005199D02*
X009879Y004969D01*
X009419Y004969D02*
X009189Y004969D01*
X009112Y005045D01*
X009112Y005199D01*
X009189Y005276D01*
X009419Y005276D01*
X009419Y004892D01*
X009342Y004815D01*
X009266Y004815D01*
X008959Y004969D02*
X008805Y004969D01*
X008882Y004969D02*
X008882Y005276D01*
X008805Y005276D01*
X008652Y005276D02*
X008422Y005276D01*
X008345Y005199D01*
X008345Y005045D01*
X008422Y004969D01*
X008652Y004969D01*
X008652Y004892D02*
X008652Y005276D01*
X008882Y005429D02*
X008882Y005506D01*
X009649Y005276D02*
X009803Y005276D01*
X009879Y005199D01*
X008652Y004892D02*
X008575Y004815D01*
X008498Y004815D01*
X008115Y004969D02*
X007961Y004969D01*
X007884Y005045D01*
X007884Y005199D01*
X007961Y005276D01*
X008115Y005276D01*
X008191Y005199D01*
X008191Y005122D01*
X007884Y005122D01*
X007731Y004969D02*
X007731Y005276D01*
X007424Y005276D02*
X007424Y005045D01*
X007501Y004969D01*
X007731Y004969D01*
X007271Y004969D02*
X007117Y004969D01*
X007194Y004969D02*
X007194Y005429D01*
X007117Y005429D01*
X006964Y005352D02*
X006964Y005276D01*
X006887Y005199D01*
X006657Y005199D01*
X006887Y005199D02*
X006964Y005122D01*
X006964Y005045D01*
X006887Y004969D01*
X006657Y004969D01*
X006657Y005429D01*
X006887Y005429D01*
X006964Y005352D01*
X005074Y007213D02*
X005074Y007784D01*
X004799Y007784D02*
X004799Y007213D01*
X004299Y007158D02*
X004299Y007839D01*
X003869Y007839D02*
X003869Y007158D01*
X011874Y005276D02*
X012028Y005429D01*
D13*
X004987Y005399D02*
X004737Y005149D01*
X004237Y005149D01*
X003987Y005399D01*
X003987Y005899D01*
X004237Y006149D01*
X004737Y006149D01*
X004987Y005899D01*
X004987Y005399D01*
X004737Y005149D02*
X004237Y005149D01*
X003987Y004899D01*
X003987Y004399D01*
X004237Y004149D01*
X004737Y004149D01*
X004987Y004399D01*
X004987Y004899D01*
X004737Y005149D01*
X001987Y005399D02*
X001987Y005899D01*
X001737Y006149D01*
X001987Y006399D01*
X001987Y006899D01*
X001737Y007149D01*
X001987Y007399D01*
X001987Y007899D01*
X001737Y008149D01*
X001237Y008149D01*
X000987Y007899D01*
X000987Y007399D01*
X001237Y007149D01*
X001737Y007149D01*
X001237Y007149D02*
X000987Y006899D01*
X000987Y006399D01*
X001237Y006149D01*
X001737Y006149D01*
X001237Y006149D02*
X000987Y005899D01*
X000987Y005399D01*
X001237Y005149D01*
X001737Y005149D01*
X001987Y005399D01*
X001737Y005149D02*
X001987Y004899D01*
X001987Y004399D01*
X001737Y004149D01*
X001987Y003899D01*
X001987Y003399D01*
X001737Y003149D01*
X001987Y002899D01*
X001987Y002399D01*
X001737Y002149D01*
X001237Y002149D01*
X000987Y002399D01*
X000987Y002899D01*
X001237Y003149D01*
X000987Y003399D01*
X000987Y003899D01*
X001237Y004149D01*
X001737Y004149D01*
X001237Y004149D02*
X000987Y004399D01*
X000987Y004899D01*
X001237Y005149D01*
X001237Y003149D02*
X001737Y003149D01*
X003987Y002899D02*
X003987Y002399D01*
X004237Y002149D01*
X004737Y002149D01*
X004987Y002399D01*
X004987Y002899D01*
X004737Y003149D01*
X004237Y003149D01*
X003987Y002899D01*
D14*
X004487Y002649D03*
X001487Y002649D03*
X001487Y003649D03*
X001487Y004649D03*
X001487Y005649D03*
X001487Y006649D03*
X001487Y007649D03*
X004487Y005649D03*
X004487Y004649D03*
D15*
X004937Y007253D03*
X004937Y007745D03*
D16*
X004083Y007890D03*
X004083Y007110D03*
D17*
X005447Y007905D02*
X005447Y002393D01*
X019345Y002393D01*
X019345Y007905D01*
X005447Y007905D01*
X014956Y007471D02*
X014958Y007497D01*
X014964Y007523D01*
X014973Y007547D01*
X014987Y007570D01*
X015003Y007591D01*
X015022Y007609D01*
X015044Y007623D01*
X015068Y007635D01*
X015093Y007643D01*
X015119Y007647D01*
X015145Y007647D01*
X015171Y007643D01*
X015196Y007635D01*
X015220Y007623D01*
X015242Y007609D01*
X015261Y007591D01*
X015277Y007570D01*
X015291Y007547D01*
X015300Y007523D01*
X015306Y007497D01*
X015308Y007471D01*
X015306Y007445D01*
X015300Y007419D01*
X015291Y007395D01*
X015277Y007372D01*
X015261Y007351D01*
X015242Y007333D01*
X015220Y007319D01*
X015196Y007307D01*
X015171Y007299D01*
X015145Y007295D01*
X015119Y007295D01*
X015093Y007299D01*
X015068Y007307D01*
X015044Y007319D01*
X015022Y007333D01*
X015003Y007351D01*
X014987Y007372D01*
X014973Y007395D01*
X014964Y007419D01*
X014958Y007445D01*
X014956Y007471D01*
M02*
