G75*
G70*
%OFA0B0*%
%FSLAX24Y24*%
%IPPOS*%
%LPD*%
%AMOC8*
5,1,8,0,0,1.08239X$1,22.5*
%
%ADD10C,0.0000*%
%ADD11C,0.0030*%
%ADD12C,0.0060*%
%ADD13C,0.0050*%
D10*
X000987Y001999D02*
X000987Y008295D01*
X015987Y008295D01*
X015987Y001999D01*
X000987Y001999D01*
D11*
X002089Y002512D02*
X002137Y002464D01*
X002234Y002464D01*
X002282Y002512D01*
X002234Y002609D02*
X002137Y002609D01*
X002089Y002560D01*
X002089Y002512D01*
X002234Y002609D02*
X002282Y002657D01*
X002282Y002706D01*
X002234Y002754D01*
X002137Y002754D01*
X002089Y002706D01*
X002384Y002754D02*
X002577Y002754D01*
X002480Y002754D02*
X002480Y002464D01*
X002678Y002512D02*
X002727Y002464D01*
X002823Y002464D01*
X002872Y002512D01*
X002872Y002706D01*
X002823Y002754D01*
X002727Y002754D01*
X002678Y002706D01*
X002727Y003464D02*
X002823Y003464D01*
X002872Y003512D01*
X002775Y003609D02*
X002727Y003609D01*
X002678Y003560D01*
X002678Y003512D01*
X002727Y003464D01*
X002577Y003560D02*
X002480Y003464D01*
X002384Y003560D01*
X002384Y003754D01*
X002282Y003706D02*
X002234Y003754D01*
X002137Y003754D01*
X002089Y003706D01*
X002089Y003657D01*
X002137Y003609D01*
X002089Y003560D01*
X002089Y003512D01*
X002137Y003464D01*
X002234Y003464D01*
X002282Y003512D01*
X002186Y003609D02*
X002137Y003609D01*
X002577Y003560D02*
X002577Y003754D01*
X002678Y003706D02*
X002678Y003657D01*
X002727Y003609D01*
X002678Y003706D02*
X002727Y003754D01*
X002823Y003754D01*
X002872Y003706D01*
X003073Y003594D02*
X003073Y003884D01*
X003266Y003884D02*
X003266Y003594D01*
X003170Y003690D01*
X003073Y003594D01*
X003367Y003642D02*
X003367Y003836D01*
X003416Y003884D01*
X003513Y003884D01*
X003561Y003836D01*
X003561Y003642D01*
X003513Y003594D01*
X003416Y003594D01*
X003367Y003642D01*
X003662Y003594D02*
X003856Y003594D01*
X003856Y003884D01*
X003957Y003884D02*
X004150Y003884D01*
X004150Y003594D01*
X004150Y003739D02*
X004054Y003739D01*
X002872Y004512D02*
X002823Y004464D01*
X002727Y004464D01*
X002678Y004512D01*
X002678Y004609D01*
X002775Y004609D01*
X002872Y004706D02*
X002872Y004512D01*
X002872Y004706D02*
X002823Y004754D01*
X002727Y004754D01*
X002678Y004706D01*
X002577Y004754D02*
X002384Y004464D01*
X002384Y004754D01*
X002282Y004754D02*
X002137Y004754D01*
X002089Y004706D01*
X002089Y004512D01*
X002137Y004464D01*
X002282Y004464D01*
X002282Y004754D01*
X002577Y004754D02*
X002577Y004464D01*
X002577Y005464D02*
X002384Y005754D01*
X002282Y005754D02*
X002137Y005754D01*
X002089Y005706D01*
X002089Y005512D01*
X002137Y005464D01*
X002282Y005464D01*
X002282Y005754D01*
X002577Y005754D02*
X002384Y005464D01*
X002775Y005464D02*
X002775Y005754D01*
X002872Y005754D02*
X002678Y005754D01*
X002678Y006464D02*
X002775Y006560D01*
X002727Y006560D02*
X002872Y006560D01*
X002872Y006464D02*
X002872Y006754D01*
X002727Y006754D01*
X002678Y006706D01*
X002678Y006609D01*
X002727Y006560D01*
X002577Y006464D02*
X002384Y006754D01*
X002282Y006754D02*
X002137Y006754D01*
X002089Y006706D01*
X002089Y006512D01*
X002137Y006464D01*
X002282Y006464D01*
X002282Y006754D01*
X002577Y006754D02*
X002384Y006464D01*
X002480Y007464D02*
X002480Y007754D01*
X002384Y007754D02*
X002577Y007754D01*
X002678Y007706D02*
X002678Y007609D01*
X002727Y007560D01*
X002872Y007560D01*
X002872Y007464D02*
X002872Y007754D01*
X002727Y007754D01*
X002678Y007706D01*
X002775Y007560D02*
X002678Y007464D01*
X002282Y007512D02*
X002234Y007464D01*
X002137Y007464D01*
X002089Y007512D01*
X002089Y007560D01*
X002137Y007609D01*
X002234Y007609D01*
X002282Y007657D01*
X002282Y007706D01*
X002234Y007754D01*
X002137Y007754D01*
X002089Y007706D01*
X008371Y003972D02*
X008618Y003725D01*
X008556Y003664D01*
X008433Y003664D01*
X008371Y003725D01*
X008371Y003972D01*
X008433Y004034D01*
X008556Y004034D01*
X008618Y003972D01*
X008618Y003725D01*
X008740Y003725D02*
X008740Y003664D01*
X008802Y003664D01*
X008802Y003725D01*
X008740Y003725D01*
X008923Y003664D02*
X009170Y003664D01*
X009047Y003664D02*
X009047Y004034D01*
X009170Y003911D01*
X009292Y003911D02*
X009415Y003664D01*
X009539Y003911D01*
X010028Y004034D02*
X010275Y004034D01*
X010152Y004034D02*
X010152Y003664D01*
X010397Y003664D02*
X010520Y003787D01*
X010458Y003787D02*
X010643Y003787D01*
X010643Y003664D02*
X010643Y004034D01*
X010458Y004034D01*
X010397Y003972D01*
X010397Y003849D01*
X010458Y003787D01*
X010765Y003849D02*
X011012Y003849D01*
X011012Y003911D02*
X011012Y003664D01*
X011133Y003725D02*
X011133Y004034D01*
X011012Y003911D02*
X010888Y004034D01*
X010765Y003911D01*
X010765Y003664D01*
X011013Y003502D02*
X011013Y003454D01*
X011013Y003357D02*
X011013Y003115D01*
X011062Y003067D01*
X011110Y003067D01*
X011260Y003164D02*
X011356Y003164D01*
X011405Y003212D01*
X011405Y003309D01*
X011356Y003357D01*
X011260Y003357D01*
X011211Y003309D01*
X011211Y003260D01*
X011405Y003260D01*
X011504Y003309D02*
X011601Y003309D01*
X011553Y003406D02*
X011504Y003454D01*
X011553Y003406D02*
X011553Y003164D01*
X011750Y003357D02*
X011847Y003260D01*
X011847Y003164D02*
X011847Y003357D01*
X011750Y003357D02*
X011702Y003357D01*
X011948Y003309D02*
X011948Y003212D01*
X011996Y003164D01*
X012093Y003164D01*
X012141Y003212D01*
X012141Y003309D01*
X012093Y003357D01*
X011996Y003357D01*
X011948Y003309D01*
X012241Y003357D02*
X012338Y003357D01*
X012289Y003406D02*
X012289Y003212D01*
X012241Y003164D01*
X012439Y003164D02*
X012584Y003164D01*
X012632Y003212D01*
X012632Y003309D01*
X012584Y003357D01*
X012439Y003357D01*
X012734Y003309D02*
X012734Y003260D01*
X012927Y003260D01*
X012927Y003212D02*
X012927Y003309D01*
X012879Y003357D01*
X012782Y003357D01*
X012734Y003309D01*
X012879Y003164D02*
X012927Y003212D01*
X012879Y003164D02*
X012782Y003164D01*
X013028Y003212D02*
X013077Y003260D01*
X013173Y003260D01*
X013222Y003309D01*
X013173Y003357D01*
X013028Y003357D01*
X013028Y003212D02*
X013077Y003164D01*
X013222Y003164D01*
X013222Y003664D02*
X013098Y003787D01*
X012975Y003664D01*
X012975Y004034D01*
X012853Y004034D02*
X012606Y004034D01*
X012730Y004034D02*
X012730Y003664D01*
X012485Y003664D02*
X012238Y003664D01*
X012117Y003664D02*
X011870Y003664D01*
X011993Y003664D02*
X011993Y004034D01*
X012117Y003911D01*
X012362Y004034D02*
X012362Y003664D01*
X012485Y003911D02*
X012362Y004034D01*
X013222Y004034D02*
X013222Y003664D01*
X011380Y003725D02*
X011318Y003664D01*
X011195Y003664D01*
X011133Y003725D01*
X011380Y003725D02*
X011380Y004034D01*
X010129Y003406D02*
X010129Y003212D01*
X010080Y003164D01*
X010278Y003260D02*
X010472Y003260D01*
X010472Y003212D02*
X010472Y003309D01*
X010423Y003357D01*
X010326Y003357D01*
X010278Y003309D01*
X010278Y003260D01*
X010326Y003164D02*
X010423Y003164D01*
X010472Y003212D01*
X010573Y003164D02*
X010573Y003309D01*
X010621Y003357D01*
X010766Y003357D01*
X010766Y003164D01*
X010865Y003164D02*
X010914Y003164D01*
X010914Y003212D01*
X010865Y003212D01*
X010865Y003164D01*
X010177Y003357D02*
X010080Y003357D01*
D12*
X003837Y003349D02*
X003837Y002249D01*
X003835Y002232D01*
X003831Y002215D01*
X003824Y002199D01*
X003814Y002185D01*
X003801Y002172D01*
X003787Y002162D01*
X003771Y002155D01*
X003754Y002151D01*
X003737Y002149D01*
X003137Y002149D01*
X003120Y002151D01*
X003103Y002155D01*
X003087Y002162D01*
X003073Y002172D01*
X003060Y002185D01*
X003050Y002199D01*
X003043Y002215D01*
X003039Y002232D01*
X003037Y002249D01*
X003037Y003349D01*
X003039Y003366D01*
X003043Y003383D01*
X003050Y003399D01*
X003060Y003413D01*
X003073Y003426D01*
X003087Y003436D01*
X003103Y003443D01*
X003120Y003447D01*
X003137Y003449D01*
X003737Y003449D01*
X003754Y003447D01*
X003771Y003443D01*
X003787Y003436D01*
X003801Y003426D01*
X003814Y003413D01*
X003824Y003399D01*
X003831Y003383D01*
X003835Y003366D01*
X003837Y003349D01*
X003437Y003399D02*
X003437Y003199D01*
X003437Y002399D02*
X003437Y002199D01*
D13*
X003164Y002675D02*
X003437Y002698D01*
X003437Y002698D01*
X003710Y002675D01*
X003711Y002674D01*
X003706Y002642D01*
X003697Y002610D01*
X003685Y002580D01*
X003669Y002552D01*
X003650Y002525D01*
X003628Y002501D01*
X003604Y002480D01*
X003577Y002462D01*
X003548Y002447D01*
X003517Y002436D01*
X003486Y002428D01*
X003453Y002424D01*
X003421Y002424D01*
X003388Y002428D01*
X003357Y002436D01*
X003326Y002447D01*
X003297Y002462D01*
X003270Y002480D01*
X003246Y002501D01*
X003224Y002525D01*
X003205Y002552D01*
X003189Y002580D01*
X003177Y002610D01*
X003168Y002642D01*
X003163Y002674D01*
X003210Y002674D01*
X003215Y002646D01*
X003224Y002618D01*
X003236Y002592D01*
X003251Y002567D01*
X003269Y002544D01*
X003290Y002524D01*
X003314Y002507D01*
X003339Y002493D01*
X003366Y002482D01*
X003394Y002475D01*
X003423Y002471D01*
X003451Y002471D01*
X003480Y002475D01*
X003508Y002482D01*
X003535Y002493D01*
X003560Y002507D01*
X003584Y002524D01*
X003605Y002544D01*
X003623Y002567D01*
X003638Y002592D01*
X003650Y002618D01*
X003659Y002646D01*
X003664Y002674D01*
X003616Y002674D01*
X003611Y002649D01*
X003602Y002624D01*
X003590Y002602D01*
X003574Y002581D01*
X003556Y002562D01*
X003535Y002547D01*
X003512Y002534D01*
X003488Y002525D01*
X003463Y002520D01*
X003437Y002518D01*
X003411Y002520D01*
X003386Y002525D01*
X003362Y002534D01*
X003339Y002547D01*
X003318Y002562D01*
X003300Y002581D01*
X003284Y002602D01*
X003272Y002624D01*
X003263Y002649D01*
X003258Y002674D01*
X003305Y002674D01*
X003311Y002653D01*
X003320Y002633D01*
X003332Y002615D01*
X003347Y002599D01*
X003365Y002586D01*
X003384Y002576D01*
X003405Y002569D01*
X003426Y002565D01*
X003448Y002565D01*
X003469Y002569D01*
X003490Y002576D01*
X003509Y002586D01*
X003527Y002599D01*
X003542Y002615D01*
X003554Y002633D01*
X003563Y002653D01*
X003569Y002674D01*
X003520Y002674D01*
X003514Y002658D01*
X003505Y002644D01*
X003492Y002632D01*
X003478Y002622D01*
X003462Y002616D01*
X003446Y002612D01*
X003428Y002612D01*
X003412Y002616D01*
X003396Y002622D01*
X003382Y002632D01*
X003369Y002644D01*
X003360Y002658D01*
X003354Y002674D01*
X003405Y002676D01*
X003412Y002668D01*
X003421Y002662D01*
X003432Y002659D01*
X003442Y002659D01*
X003453Y002662D01*
X003462Y002668D01*
X003469Y002676D01*
X003710Y002923D02*
X003437Y002900D01*
X003437Y002900D01*
X003164Y002923D01*
X003163Y002924D01*
X003168Y002956D01*
X003177Y002988D01*
X003189Y003018D01*
X003205Y003046D01*
X003224Y003073D01*
X003246Y003097D01*
X003270Y003118D01*
X003297Y003136D01*
X003326Y003151D01*
X003357Y003162D01*
X003388Y003170D01*
X003421Y003174D01*
X003453Y003174D01*
X003486Y003170D01*
X003517Y003162D01*
X003548Y003151D01*
X003577Y003136D01*
X003604Y003118D01*
X003628Y003097D01*
X003650Y003073D01*
X003669Y003046D01*
X003685Y003018D01*
X003697Y002988D01*
X003706Y002956D01*
X003711Y002924D01*
X003664Y002924D01*
X003659Y002952D01*
X003650Y002980D01*
X003638Y003006D01*
X003623Y003031D01*
X003605Y003054D01*
X003584Y003074D01*
X003560Y003091D01*
X003535Y003105D01*
X003508Y003116D01*
X003480Y003123D01*
X003451Y003127D01*
X003423Y003127D01*
X003394Y003123D01*
X003366Y003116D01*
X003339Y003105D01*
X003314Y003091D01*
X003290Y003074D01*
X003269Y003054D01*
X003251Y003031D01*
X003236Y003006D01*
X003224Y002980D01*
X003215Y002952D01*
X003210Y002924D01*
X003258Y002924D01*
X003263Y002949D01*
X003272Y002974D01*
X003284Y002996D01*
X003300Y003017D01*
X003318Y003036D01*
X003339Y003051D01*
X003362Y003064D01*
X003386Y003073D01*
X003411Y003078D01*
X003437Y003080D01*
X003463Y003078D01*
X003488Y003073D01*
X003512Y003064D01*
X003535Y003051D01*
X003556Y003036D01*
X003574Y003017D01*
X003590Y002996D01*
X003602Y002974D01*
X003611Y002949D01*
X003616Y002924D01*
X003569Y002924D01*
X003563Y002945D01*
X003554Y002965D01*
X003542Y002983D01*
X003527Y002999D01*
X003509Y003012D01*
X003490Y003022D01*
X003469Y003029D01*
X003448Y003033D01*
X003426Y003033D01*
X003405Y003029D01*
X003384Y003022D01*
X003365Y003012D01*
X003347Y002999D01*
X003332Y002983D01*
X003320Y002965D01*
X003311Y002945D01*
X003305Y002924D01*
X003354Y002924D01*
X003360Y002940D01*
X003369Y002954D01*
X003382Y002966D01*
X003396Y002976D01*
X003412Y002982D01*
X003428Y002986D01*
X003446Y002986D01*
X003462Y002982D01*
X003478Y002976D01*
X003492Y002966D01*
X003505Y002954D01*
X003514Y002940D01*
X003520Y002924D01*
X003469Y002922D01*
X003462Y002930D01*
X003453Y002936D01*
X003442Y002939D01*
X003432Y002939D01*
X003421Y002936D01*
X003412Y002930D01*
X003405Y002922D01*
M02*
