G75*
%MOIN*%
%OFA0B0*%
%FSLAX25Y25*%
%IPPOS*%
%LPD*%
%AMOC8*
5,1,8,0,0,1.08239X$1,22.5*
%
%ADD10C,0.00000*%
%ADD11C,0.00400*%
%ADD12C,0.01600*%
%ADD13C,0.00500*%
%ADD14C,0.00800*%
%ADD15R,0.03740X0.01969*%
%ADD16R,0.03000X0.01800*%
%ADD17C,0.00300*%
%ADD18R,0.01969X0.01280*%
%ADD19R,0.00984X0.00591*%
%ADD20R,0.00689X0.01575*%
%ADD21R,0.00787X0.00787*%
%ADD22R,0.01181X0.01181*%
%ADD23R,0.00295X0.01280*%
%ADD24C,0.00600*%
%ADD25R,0.01600X0.03400*%
%ADD26C,0.02200*%
%ADD27R,0.01969X0.03740*%
%ADD28R,0.02000X0.02000*%
%ADD29C,0.00200*%
D10*
X0002050Y0002083D02*
X0002050Y0082083D01*
X0132050Y0082083D01*
X0132050Y0002083D01*
X0002050Y0002083D01*
D11*
X0003250Y0013783D02*
X0004411Y0013783D01*
X0004798Y0014170D01*
X0004798Y0015718D01*
X0004411Y0016105D01*
X0003250Y0016105D01*
X0003250Y0013783D01*
X0005755Y0013783D02*
X0007303Y0013783D01*
X0006529Y0013783D02*
X0006529Y0016105D01*
X0005755Y0015331D01*
X0008259Y0014944D02*
X0009033Y0015331D01*
X0009420Y0015331D01*
X0009807Y0014944D01*
X0009807Y0014170D01*
X0009420Y0013783D01*
X0008646Y0013783D01*
X0008259Y0014170D01*
X0008259Y0014944D02*
X0008259Y0016105D01*
X0009807Y0016105D01*
X0014750Y0015331D02*
X0014750Y0013783D01*
X0014750Y0014944D02*
X0016298Y0014944D01*
X0016298Y0015331D02*
X0016298Y0013783D01*
X0017255Y0014170D02*
X0018803Y0015718D01*
X0018803Y0014170D01*
X0018416Y0013783D01*
X0017642Y0013783D01*
X0017255Y0014170D01*
X0017255Y0015718D01*
X0017642Y0016105D01*
X0018416Y0016105D01*
X0018803Y0015718D01*
X0016298Y0015331D02*
X0015524Y0016105D01*
X0014750Y0015331D01*
X0023286Y0015718D02*
X0023286Y0014170D01*
X0023673Y0013783D01*
X0024447Y0013783D01*
X0024834Y0014170D01*
X0025791Y0013783D02*
X0027339Y0013783D01*
X0026565Y0013783D02*
X0026565Y0016105D01*
X0025791Y0015331D01*
X0024834Y0015718D02*
X0024447Y0016105D01*
X0023673Y0016105D01*
X0023286Y0015718D01*
X0028295Y0015331D02*
X0029069Y0016105D01*
X0029069Y0013783D01*
X0028295Y0013783D02*
X0029843Y0013783D01*
X0033304Y0014170D02*
X0033304Y0015718D01*
X0033691Y0016105D01*
X0034465Y0016105D01*
X0034852Y0015718D01*
X0035809Y0015331D02*
X0036583Y0016105D01*
X0036583Y0013783D01*
X0035809Y0013783D02*
X0037357Y0013783D01*
X0038314Y0014170D02*
X0039862Y0015718D01*
X0039862Y0014170D01*
X0039475Y0013783D01*
X0038701Y0013783D01*
X0038314Y0014170D01*
X0038314Y0015718D01*
X0038701Y0016105D01*
X0039475Y0016105D01*
X0039862Y0015718D01*
X0044804Y0016105D02*
X0044804Y0013783D01*
X0044804Y0014944D02*
X0045578Y0014944D01*
X0047309Y0015718D02*
X0047696Y0016105D01*
X0048470Y0016105D01*
X0048857Y0015718D01*
X0048857Y0015331D01*
X0047309Y0013783D01*
X0048857Y0013783D01*
X0046352Y0016105D02*
X0044804Y0016105D01*
X0054823Y0016105D02*
X0054823Y0013783D01*
X0054823Y0014944D02*
X0055597Y0014944D01*
X0057327Y0015718D02*
X0057714Y0016105D01*
X0058488Y0016105D01*
X0058875Y0015718D01*
X0058875Y0015331D01*
X0058488Y0014944D01*
X0058875Y0014557D01*
X0058875Y0014170D01*
X0058488Y0013783D01*
X0057714Y0013783D01*
X0057327Y0014170D01*
X0058101Y0014944D02*
X0058488Y0014944D01*
X0056371Y0016105D02*
X0054823Y0016105D01*
X0063359Y0016105D02*
X0063359Y0013783D01*
X0064520Y0013783D01*
X0064907Y0014170D01*
X0064907Y0015718D01*
X0064520Y0016105D01*
X0063359Y0016105D01*
X0065863Y0015331D02*
X0066637Y0016105D01*
X0066637Y0013783D01*
X0065863Y0013783D02*
X0067411Y0013783D01*
X0068368Y0014944D02*
X0069916Y0014944D01*
X0069529Y0013783D02*
X0069529Y0016105D01*
X0068368Y0014944D01*
X0073377Y0016105D02*
X0073377Y0013783D01*
X0074538Y0013783D01*
X0074925Y0014170D01*
X0074925Y0015718D01*
X0074538Y0016105D01*
X0073377Y0016105D01*
X0075882Y0015331D02*
X0076656Y0016105D01*
X0076656Y0013783D01*
X0075882Y0013783D02*
X0077430Y0013783D01*
X0078386Y0014170D02*
X0078773Y0013783D01*
X0079547Y0013783D01*
X0079934Y0014170D01*
X0079934Y0014557D01*
X0079547Y0014944D01*
X0079160Y0014944D01*
X0079547Y0014944D02*
X0079934Y0015331D01*
X0079934Y0015718D01*
X0079547Y0016105D01*
X0078773Y0016105D01*
X0078386Y0015718D01*
X0083395Y0016105D02*
X0083395Y0013783D01*
X0083395Y0014557D02*
X0084556Y0014557D01*
X0084943Y0014944D01*
X0084943Y0015718D01*
X0084556Y0016105D01*
X0083395Y0016105D01*
X0084169Y0014557D02*
X0084943Y0013783D01*
X0085900Y0013783D02*
X0087448Y0013783D01*
X0088404Y0014170D02*
X0088791Y0013783D01*
X0089565Y0013783D01*
X0089952Y0014170D01*
X0089952Y0014557D01*
X0089565Y0014944D01*
X0088791Y0014944D01*
X0088404Y0015331D01*
X0088404Y0015718D01*
X0088791Y0016105D01*
X0089565Y0016105D01*
X0089952Y0015718D01*
X0087448Y0016105D02*
X0085900Y0016105D01*
X0085900Y0013783D01*
X0085900Y0014944D02*
X0086674Y0014944D01*
X0093413Y0015718D02*
X0093800Y0016105D01*
X0094574Y0016105D01*
X0094961Y0015718D01*
X0094961Y0015331D01*
X0094574Y0014944D01*
X0094961Y0014557D01*
X0094961Y0014170D01*
X0094574Y0013783D01*
X0093800Y0013783D01*
X0093413Y0014170D01*
X0094187Y0014944D02*
X0094574Y0014944D01*
X0095918Y0014557D02*
X0096692Y0013783D01*
X0097466Y0014557D01*
X0097466Y0016105D01*
X0098423Y0015718D02*
X0098810Y0016105D01*
X0099584Y0016105D01*
X0099970Y0015718D01*
X0099970Y0015331D01*
X0099584Y0014944D01*
X0099970Y0014557D01*
X0099970Y0014170D01*
X0099584Y0013783D01*
X0098810Y0013783D01*
X0098423Y0014170D01*
X0099197Y0014944D02*
X0099584Y0014944D01*
X0095918Y0014557D02*
X0095918Y0016105D01*
X0103432Y0015718D02*
X0103432Y0014170D01*
X0103819Y0013783D01*
X0104593Y0013783D01*
X0104980Y0014170D01*
X0104980Y0014944D01*
X0104206Y0014944D01*
X0104980Y0015718D02*
X0104593Y0016105D01*
X0103819Y0016105D01*
X0103432Y0015718D01*
X0105936Y0016105D02*
X0105936Y0013783D01*
X0107484Y0013783D02*
X0107484Y0016105D01*
X0108441Y0016105D02*
X0109602Y0016105D01*
X0109989Y0015718D01*
X0109989Y0014170D01*
X0109602Y0013783D01*
X0108441Y0013783D01*
X0108441Y0016105D01*
X0105936Y0016105D02*
X0107484Y0013783D01*
X0106572Y0034283D02*
X0105037Y0034283D01*
X0104270Y0035050D01*
X0102735Y0034283D02*
X0099666Y0034283D01*
X0101200Y0034283D02*
X0101200Y0038887D01*
X0099666Y0037352D01*
X0096596Y0038887D02*
X0096596Y0034283D01*
X0095062Y0034283D02*
X0098131Y0034283D01*
X0095062Y0037352D02*
X0096596Y0038887D01*
X0096596Y0041283D02*
X0098898Y0041283D01*
X0099666Y0042050D01*
X0099666Y0043585D01*
X0098898Y0044352D01*
X0096596Y0044352D01*
X0096596Y0045887D02*
X0096596Y0041283D01*
X0095062Y0041283D02*
X0095062Y0043585D01*
X0094294Y0044352D01*
X0092760Y0044352D01*
X0092760Y0042817D02*
X0095062Y0042817D01*
X0092760Y0042817D02*
X0091992Y0042050D01*
X0092760Y0041283D01*
X0095062Y0041283D01*
X0093527Y0038887D02*
X0093527Y0034283D01*
X0090458Y0034283D02*
X0090458Y0038887D01*
X0091992Y0037352D01*
X0093527Y0038887D01*
X0090458Y0041283D02*
X0088923Y0041283D01*
X0089691Y0041283D02*
X0089691Y0045887D01*
X0088923Y0045887D01*
X0086621Y0045887D02*
X0086621Y0046654D01*
X0084319Y0045119D02*
X0083552Y0045887D01*
X0082017Y0045887D01*
X0081250Y0045119D01*
X0081250Y0044352D01*
X0082017Y0043585D01*
X0083552Y0043585D01*
X0084319Y0042817D01*
X0084319Y0042050D01*
X0083552Y0041283D01*
X0082017Y0041283D01*
X0081250Y0042050D01*
X0081250Y0038887D02*
X0083552Y0038887D01*
X0084319Y0038119D01*
X0084319Y0037352D01*
X0083552Y0036585D01*
X0081250Y0036585D01*
X0083552Y0036585D02*
X0084319Y0035817D01*
X0084319Y0035050D01*
X0083552Y0034283D01*
X0081250Y0034283D01*
X0081250Y0038887D01*
X0085854Y0038119D02*
X0085854Y0035050D01*
X0086621Y0034283D01*
X0088156Y0034283D01*
X0088923Y0035050D01*
X0088923Y0036585D01*
X0087389Y0036585D01*
X0088923Y0038119D02*
X0088156Y0038887D01*
X0086621Y0038887D01*
X0085854Y0038119D01*
X0085854Y0041283D02*
X0087389Y0041283D01*
X0086621Y0041283D02*
X0086621Y0044352D01*
X0085854Y0044352D01*
X0101200Y0043585D02*
X0101968Y0044352D01*
X0104270Y0044352D01*
X0103502Y0042817D02*
X0101968Y0042817D01*
X0101200Y0043585D01*
X0101200Y0041283D02*
X0103502Y0041283D01*
X0104270Y0042050D01*
X0103502Y0042817D01*
X0105037Y0038887D02*
X0106572Y0038887D01*
X0107339Y0038119D01*
X0107339Y0037352D01*
X0106572Y0036585D01*
X0107339Y0035817D01*
X0107339Y0035050D01*
X0106572Y0034283D01*
X0106572Y0036585D02*
X0105804Y0036585D01*
X0104270Y0038119D02*
X0105037Y0038887D01*
X0108874Y0036585D02*
X0111943Y0036585D01*
X0113477Y0036585D02*
X0116547Y0036585D01*
X0116547Y0037352D02*
X0116547Y0034283D01*
X0113477Y0034283D02*
X0113477Y0037352D01*
X0115012Y0038887D01*
X0116547Y0037352D01*
X0111452Y0062433D02*
X0108648Y0062433D01*
X0108648Y0065783D02*
X0111452Y0065783D01*
X0113450Y0068283D02*
X0114611Y0068283D01*
X0114998Y0068670D01*
X0114998Y0069057D01*
X0114611Y0069444D01*
X0113450Y0069444D01*
X0113450Y0068283D02*
X0113450Y0070605D01*
X0114611Y0070605D01*
X0114998Y0070218D01*
X0114998Y0069831D01*
X0114611Y0069444D01*
X0115954Y0069831D02*
X0116728Y0070605D01*
X0116728Y0068283D01*
X0115954Y0068283D02*
X0117502Y0068283D01*
X0118459Y0068283D02*
X0120007Y0068283D01*
X0119233Y0068283D02*
X0119233Y0070605D01*
X0118459Y0069831D01*
X0123468Y0069444D02*
X0124629Y0069444D01*
X0125016Y0069057D01*
X0125016Y0068670D01*
X0124629Y0068283D01*
X0123468Y0068283D01*
X0123468Y0070605D01*
X0124629Y0070605D01*
X0125016Y0070218D01*
X0125016Y0069831D01*
X0124629Y0069444D01*
X0125972Y0069831D02*
X0126746Y0070605D01*
X0126746Y0068283D01*
X0125972Y0068283D02*
X0127520Y0068283D01*
X0128477Y0068283D02*
X0130025Y0069831D01*
X0130025Y0070218D01*
X0129638Y0070605D01*
X0128864Y0070605D01*
X0128477Y0070218D01*
X0128477Y0068283D02*
X0130025Y0068283D01*
X0108966Y0068283D02*
X0107418Y0068283D01*
X0108192Y0068283D02*
X0108192Y0070605D01*
X0107418Y0069831D01*
X0106461Y0070605D02*
X0104913Y0070605D01*
X0104913Y0068283D01*
X0104913Y0069444D02*
X0105687Y0069444D01*
X0098948Y0070218D02*
X0098948Y0068670D01*
X0098561Y0068283D01*
X0097787Y0068283D01*
X0097400Y0068670D01*
X0098948Y0070218D01*
X0098561Y0070605D01*
X0097787Y0070605D01*
X0097400Y0070218D01*
X0097400Y0068670D01*
X0095669Y0069444D02*
X0094895Y0069444D01*
X0094895Y0068283D02*
X0094895Y0070605D01*
X0096443Y0070605D01*
X0089952Y0070218D02*
X0089952Y0069831D01*
X0089565Y0069444D01*
X0089952Y0069057D01*
X0089952Y0068670D01*
X0089565Y0068283D01*
X0088791Y0068283D01*
X0088404Y0068670D01*
X0087448Y0068283D02*
X0085900Y0068283D01*
X0086674Y0068283D02*
X0086674Y0070605D01*
X0085900Y0069831D01*
X0084943Y0070218D02*
X0084556Y0070605D01*
X0083395Y0070605D01*
X0083395Y0068283D01*
X0084556Y0068283D01*
X0084943Y0068670D01*
X0084943Y0070218D01*
X0088404Y0070218D02*
X0088791Y0070605D01*
X0089565Y0070605D01*
X0089952Y0070218D01*
X0089565Y0069444D02*
X0089178Y0069444D01*
X0078911Y0068283D02*
X0077363Y0068283D01*
X0078137Y0068283D02*
X0078137Y0070605D01*
X0077363Y0069831D01*
X0076407Y0069831D02*
X0075633Y0070605D01*
X0074859Y0069831D01*
X0074859Y0068283D01*
X0074859Y0069444D02*
X0076407Y0069444D01*
X0076407Y0069831D02*
X0076407Y0068283D01*
X0076452Y0065732D02*
X0073648Y0065732D01*
X0069916Y0068670D02*
X0069529Y0068283D01*
X0068755Y0068283D01*
X0068368Y0068670D01*
X0067411Y0068283D02*
X0065863Y0068283D01*
X0066637Y0068283D02*
X0066637Y0070605D01*
X0065863Y0069831D01*
X0064907Y0069831D02*
X0064520Y0069444D01*
X0063359Y0069444D01*
X0063359Y0068283D02*
X0063359Y0070605D01*
X0064520Y0070605D01*
X0064907Y0070218D01*
X0064907Y0069831D01*
X0064520Y0069444D02*
X0064907Y0069057D01*
X0064907Y0068670D01*
X0064520Y0068283D01*
X0063359Y0068283D01*
X0058875Y0068283D02*
X0057327Y0068283D01*
X0058875Y0069831D01*
X0058875Y0070218D01*
X0058488Y0070605D01*
X0057714Y0070605D01*
X0057327Y0070218D01*
X0056371Y0070605D02*
X0054823Y0070605D01*
X0054823Y0068283D01*
X0054823Y0069444D02*
X0055597Y0069444D01*
X0048857Y0069831D02*
X0048470Y0069444D01*
X0048857Y0069057D01*
X0048857Y0068670D01*
X0048470Y0068283D01*
X0047696Y0068283D01*
X0047309Y0068670D01*
X0048083Y0069444D02*
X0048470Y0069444D01*
X0048857Y0069831D02*
X0048857Y0070218D01*
X0048470Y0070605D01*
X0047696Y0070605D01*
X0047309Y0070218D01*
X0046352Y0070605D02*
X0044804Y0070605D01*
X0044804Y0068283D01*
X0044804Y0069444D02*
X0045578Y0069444D01*
X0039862Y0068283D02*
X0038314Y0068283D01*
X0039088Y0068283D02*
X0039088Y0070605D01*
X0038314Y0069831D01*
X0036583Y0070605D02*
X0036583Y0068283D01*
X0035809Y0068283D02*
X0037357Y0068283D01*
X0035809Y0069831D02*
X0036583Y0070605D01*
X0034852Y0070218D02*
X0034465Y0070605D01*
X0033691Y0070605D01*
X0033304Y0070218D01*
X0033304Y0068670D01*
X0033691Y0068283D01*
X0034465Y0068283D01*
X0034852Y0068670D01*
X0029843Y0068670D02*
X0029456Y0068283D01*
X0028682Y0068283D01*
X0028295Y0068670D01*
X0029843Y0070218D01*
X0029843Y0068670D01*
X0028295Y0068670D02*
X0028295Y0070218D01*
X0028682Y0070605D01*
X0029456Y0070605D01*
X0029843Y0070218D01*
X0027339Y0068283D02*
X0025791Y0068283D01*
X0026565Y0068283D02*
X0026565Y0070605D01*
X0025791Y0069831D01*
X0024834Y0070218D02*
X0024447Y0070605D01*
X0023673Y0070605D01*
X0023286Y0070218D01*
X0023286Y0068670D01*
X0023673Y0068283D01*
X0024447Y0068283D01*
X0024834Y0068670D01*
X0018803Y0068670D02*
X0018416Y0068283D01*
X0017642Y0068283D01*
X0017255Y0068670D01*
X0018803Y0070218D01*
X0018803Y0068670D01*
X0018803Y0070218D02*
X0018416Y0070605D01*
X0017642Y0070605D01*
X0017255Y0070218D01*
X0017255Y0068670D01*
X0016298Y0068283D02*
X0016298Y0069831D01*
X0015524Y0070605D01*
X0014750Y0069831D01*
X0014750Y0068283D01*
X0014750Y0069444D02*
X0016298Y0069444D01*
X0009807Y0069444D02*
X0009807Y0068670D01*
X0009420Y0068283D01*
X0008646Y0068283D01*
X0008259Y0068670D01*
X0008259Y0069444D02*
X0009033Y0069831D01*
X0009420Y0069831D01*
X0009807Y0069444D01*
X0008259Y0069444D02*
X0008259Y0070605D01*
X0009807Y0070605D01*
X0006529Y0070605D02*
X0006529Y0068283D01*
X0005755Y0068283D02*
X0007303Y0068283D01*
X0005755Y0069831D02*
X0006529Y0070605D01*
X0004798Y0070218D02*
X0004411Y0070605D01*
X0003250Y0070605D01*
X0003250Y0068283D01*
X0004411Y0068283D01*
X0004798Y0068670D01*
X0004798Y0070218D01*
X0026408Y0060461D02*
X0026480Y0060447D01*
X0026551Y0060431D01*
X0026622Y0060410D01*
X0026691Y0060386D01*
X0026758Y0060358D01*
X0026825Y0060327D01*
X0026889Y0060292D01*
X0026951Y0060254D01*
X0027012Y0060213D01*
X0027070Y0060168D01*
X0027126Y0060121D01*
X0027179Y0060071D01*
X0027229Y0060018D01*
X0027277Y0059962D01*
X0027322Y0059904D01*
X0027363Y0059844D01*
X0027401Y0059782D01*
X0027436Y0059717D01*
X0027468Y0059651D01*
X0027496Y0059584D01*
X0027520Y0059515D01*
X0027541Y0059445D01*
X0027558Y0059374D01*
X0027572Y0059302D01*
X0027581Y0059229D01*
X0027587Y0059156D01*
X0027589Y0059083D01*
X0027587Y0059010D01*
X0027581Y0058937D01*
X0027572Y0058864D01*
X0027558Y0058792D01*
X0027541Y0058721D01*
X0027520Y0058651D01*
X0027496Y0058582D01*
X0027468Y0058515D01*
X0027436Y0058449D01*
X0027401Y0058384D01*
X0027363Y0058322D01*
X0027322Y0058262D01*
X0027277Y0058204D01*
X0027229Y0058148D01*
X0027179Y0058095D01*
X0027126Y0058045D01*
X0027070Y0057998D01*
X0027012Y0057953D01*
X0026951Y0057912D01*
X0026889Y0057874D01*
X0026825Y0057839D01*
X0026758Y0057808D01*
X0026691Y0057780D01*
X0026622Y0057756D01*
X0026551Y0057735D01*
X0026480Y0057719D01*
X0026408Y0057705D01*
X0027983Y0056819D02*
X0032117Y0056819D01*
X0031670Y0055284D02*
X0032671Y0055284D01*
X0033004Y0054951D01*
X0033004Y0054284D01*
X0032671Y0053950D01*
X0031670Y0053950D01*
X0032337Y0053950D02*
X0033004Y0053283D01*
X0031670Y0053283D02*
X0031670Y0055284D01*
X0030794Y0055284D02*
X0030794Y0053283D01*
X0030127Y0053950D01*
X0029460Y0053283D01*
X0029460Y0055284D01*
X0028584Y0054951D02*
X0028584Y0054284D01*
X0028251Y0053950D01*
X0027250Y0053950D01*
X0027250Y0053283D02*
X0027250Y0055284D01*
X0028251Y0055284D01*
X0028584Y0054951D01*
X0033692Y0057705D02*
X0033620Y0057719D01*
X0033549Y0057735D01*
X0033478Y0057756D01*
X0033409Y0057780D01*
X0033342Y0057808D01*
X0033275Y0057839D01*
X0033211Y0057874D01*
X0033149Y0057912D01*
X0033088Y0057953D01*
X0033030Y0057998D01*
X0032974Y0058045D01*
X0032921Y0058095D01*
X0032871Y0058148D01*
X0032823Y0058204D01*
X0032778Y0058262D01*
X0032737Y0058322D01*
X0032699Y0058384D01*
X0032664Y0058449D01*
X0032632Y0058515D01*
X0032604Y0058582D01*
X0032580Y0058651D01*
X0032559Y0058721D01*
X0032542Y0058792D01*
X0032528Y0058864D01*
X0032519Y0058937D01*
X0032513Y0059010D01*
X0032511Y0059083D01*
X0032513Y0059156D01*
X0032519Y0059229D01*
X0032528Y0059302D01*
X0032542Y0059374D01*
X0032559Y0059445D01*
X0032580Y0059515D01*
X0032604Y0059584D01*
X0032632Y0059651D01*
X0032664Y0059717D01*
X0032699Y0059782D01*
X0032737Y0059844D01*
X0032778Y0059904D01*
X0032823Y0059962D01*
X0032871Y0060018D01*
X0032921Y0060071D01*
X0032974Y0060121D01*
X0033030Y0060168D01*
X0033088Y0060213D01*
X0033149Y0060254D01*
X0033211Y0060292D01*
X0033275Y0060327D01*
X0033342Y0060358D01*
X0033409Y0060386D01*
X0033478Y0060410D01*
X0033549Y0060431D01*
X0033620Y0060447D01*
X0033692Y0060461D01*
X0032990Y0060854D02*
X0032992Y0060894D01*
X0032998Y0060933D01*
X0033007Y0060972D01*
X0033021Y0061009D01*
X0033038Y0061045D01*
X0033058Y0061080D01*
X0033082Y0061112D01*
X0033109Y0061141D01*
X0033138Y0061168D01*
X0033170Y0061192D01*
X0033205Y0061212D01*
X0033241Y0061229D01*
X0033278Y0061243D01*
X0033317Y0061252D01*
X0033356Y0061258D01*
X0033396Y0061260D01*
X0033436Y0061258D01*
X0033475Y0061252D01*
X0033514Y0061243D01*
X0033551Y0061229D01*
X0033587Y0061212D01*
X0033622Y0061192D01*
X0033654Y0061168D01*
X0033683Y0061141D01*
X0033710Y0061112D01*
X0033734Y0061080D01*
X0033754Y0061045D01*
X0033771Y0061009D01*
X0033785Y0060972D01*
X0033794Y0060933D01*
X0033800Y0060894D01*
X0033802Y0060854D01*
X0033800Y0060814D01*
X0033794Y0060775D01*
X0033785Y0060736D01*
X0033771Y0060699D01*
X0033754Y0060663D01*
X0033734Y0060628D01*
X0033710Y0060596D01*
X0033683Y0060567D01*
X0033654Y0060540D01*
X0033622Y0060516D01*
X0033587Y0060496D01*
X0033551Y0060479D01*
X0033514Y0060465D01*
X0033475Y0060456D01*
X0033436Y0060450D01*
X0033396Y0060448D01*
X0033356Y0060450D01*
X0033317Y0060456D01*
X0033278Y0060465D01*
X0033241Y0060479D01*
X0033205Y0060496D01*
X0033170Y0060516D01*
X0033138Y0060540D01*
X0033109Y0060567D01*
X0033082Y0060596D01*
X0033058Y0060628D01*
X0033038Y0060663D01*
X0033021Y0060699D01*
X0033007Y0060736D01*
X0032998Y0060775D01*
X0032992Y0060814D01*
X0032990Y0060854D01*
X0033692Y0061346D02*
X0028081Y0061346D01*
X0040408Y0060461D02*
X0040480Y0060447D01*
X0040551Y0060431D01*
X0040622Y0060410D01*
X0040691Y0060386D01*
X0040758Y0060358D01*
X0040825Y0060327D01*
X0040889Y0060292D01*
X0040951Y0060254D01*
X0041012Y0060213D01*
X0041070Y0060168D01*
X0041126Y0060121D01*
X0041179Y0060071D01*
X0041229Y0060018D01*
X0041277Y0059962D01*
X0041322Y0059904D01*
X0041363Y0059844D01*
X0041401Y0059782D01*
X0041436Y0059717D01*
X0041468Y0059651D01*
X0041496Y0059584D01*
X0041520Y0059515D01*
X0041541Y0059445D01*
X0041558Y0059374D01*
X0041572Y0059302D01*
X0041581Y0059229D01*
X0041587Y0059156D01*
X0041589Y0059083D01*
X0041587Y0059010D01*
X0041581Y0058937D01*
X0041572Y0058864D01*
X0041558Y0058792D01*
X0041541Y0058721D01*
X0041520Y0058651D01*
X0041496Y0058582D01*
X0041468Y0058515D01*
X0041436Y0058449D01*
X0041401Y0058384D01*
X0041363Y0058322D01*
X0041322Y0058262D01*
X0041277Y0058204D01*
X0041229Y0058148D01*
X0041179Y0058095D01*
X0041126Y0058045D01*
X0041070Y0057998D01*
X0041012Y0057953D01*
X0040951Y0057912D01*
X0040889Y0057874D01*
X0040825Y0057839D01*
X0040758Y0057808D01*
X0040691Y0057780D01*
X0040622Y0057756D01*
X0040551Y0057735D01*
X0040480Y0057719D01*
X0040408Y0057705D01*
X0040298Y0057311D02*
X0040300Y0057351D01*
X0040306Y0057390D01*
X0040315Y0057429D01*
X0040329Y0057466D01*
X0040346Y0057502D01*
X0040366Y0057537D01*
X0040390Y0057569D01*
X0040417Y0057598D01*
X0040446Y0057625D01*
X0040478Y0057649D01*
X0040513Y0057669D01*
X0040549Y0057686D01*
X0040586Y0057700D01*
X0040625Y0057709D01*
X0040664Y0057715D01*
X0040704Y0057717D01*
X0040744Y0057715D01*
X0040783Y0057709D01*
X0040822Y0057700D01*
X0040859Y0057686D01*
X0040895Y0057669D01*
X0040930Y0057649D01*
X0040962Y0057625D01*
X0040991Y0057598D01*
X0041018Y0057569D01*
X0041042Y0057537D01*
X0041062Y0057502D01*
X0041079Y0057466D01*
X0041093Y0057429D01*
X0041102Y0057390D01*
X0041108Y0057351D01*
X0041110Y0057311D01*
X0041108Y0057271D01*
X0041102Y0057232D01*
X0041093Y0057193D01*
X0041079Y0057156D01*
X0041062Y0057120D01*
X0041042Y0057085D01*
X0041018Y0057053D01*
X0040991Y0057024D01*
X0040962Y0056997D01*
X0040930Y0056973D01*
X0040895Y0056953D01*
X0040859Y0056936D01*
X0040822Y0056922D01*
X0040783Y0056913D01*
X0040744Y0056907D01*
X0040704Y0056905D01*
X0040664Y0056907D01*
X0040625Y0056913D01*
X0040586Y0056922D01*
X0040549Y0056936D01*
X0040513Y0056953D01*
X0040478Y0056973D01*
X0040446Y0056997D01*
X0040417Y0057024D01*
X0040390Y0057053D01*
X0040366Y0057085D01*
X0040346Y0057120D01*
X0040329Y0057156D01*
X0040315Y0057193D01*
X0040306Y0057232D01*
X0040300Y0057271D01*
X0040298Y0057311D01*
X0040408Y0056819D02*
X0046019Y0056819D01*
X0046171Y0055284D02*
X0045170Y0055284D01*
X0045170Y0053283D01*
X0045170Y0053950D02*
X0046171Y0053950D01*
X0046504Y0054284D01*
X0046504Y0054951D01*
X0046171Y0055284D01*
X0045837Y0053950D02*
X0046504Y0053283D01*
X0044294Y0053616D02*
X0044294Y0053950D01*
X0043961Y0054284D01*
X0043293Y0054284D01*
X0042960Y0054617D01*
X0042960Y0054951D01*
X0043293Y0055284D01*
X0043961Y0055284D01*
X0044294Y0054951D01*
X0044294Y0053616D02*
X0043961Y0053283D01*
X0043293Y0053283D01*
X0042960Y0053616D01*
X0042084Y0053616D02*
X0042084Y0055284D01*
X0040750Y0055284D02*
X0040750Y0053616D01*
X0041084Y0053283D01*
X0041751Y0053283D01*
X0042084Y0053616D01*
X0047692Y0057705D02*
X0047620Y0057719D01*
X0047549Y0057735D01*
X0047478Y0057756D01*
X0047409Y0057780D01*
X0047342Y0057808D01*
X0047275Y0057839D01*
X0047211Y0057874D01*
X0047149Y0057912D01*
X0047088Y0057953D01*
X0047030Y0057998D01*
X0046974Y0058045D01*
X0046921Y0058095D01*
X0046871Y0058148D01*
X0046823Y0058204D01*
X0046778Y0058262D01*
X0046737Y0058322D01*
X0046699Y0058384D01*
X0046664Y0058449D01*
X0046632Y0058515D01*
X0046604Y0058582D01*
X0046580Y0058651D01*
X0046559Y0058721D01*
X0046542Y0058792D01*
X0046528Y0058864D01*
X0046519Y0058937D01*
X0046513Y0059010D01*
X0046511Y0059083D01*
X0046513Y0059156D01*
X0046519Y0059229D01*
X0046528Y0059302D01*
X0046542Y0059374D01*
X0046559Y0059445D01*
X0046580Y0059515D01*
X0046604Y0059584D01*
X0046632Y0059651D01*
X0046664Y0059717D01*
X0046699Y0059782D01*
X0046737Y0059844D01*
X0046778Y0059904D01*
X0046823Y0059962D01*
X0046871Y0060018D01*
X0046921Y0060071D01*
X0046974Y0060121D01*
X0047030Y0060168D01*
X0047088Y0060213D01*
X0047149Y0060254D01*
X0047211Y0060292D01*
X0047275Y0060327D01*
X0047342Y0060358D01*
X0047409Y0060386D01*
X0047478Y0060410D01*
X0047549Y0060431D01*
X0047620Y0060447D01*
X0047692Y0060461D01*
X0046117Y0061346D02*
X0041983Y0061346D01*
X0068368Y0070218D02*
X0068755Y0070605D01*
X0069529Y0070605D01*
X0069916Y0070218D01*
X0069916Y0069831D01*
X0069529Y0069444D01*
X0069916Y0069057D01*
X0069916Y0068670D01*
X0069529Y0069444D02*
X0069142Y0069444D01*
X0073648Y0062382D02*
X0076452Y0062382D01*
X0059848Y0038957D02*
X0059848Y0037622D01*
X0059848Y0038289D02*
X0061850Y0038289D01*
X0061850Y0036747D02*
X0061850Y0035412D01*
X0059848Y0035412D01*
X0059848Y0036747D01*
X0060849Y0036080D02*
X0060849Y0035412D01*
X0061183Y0034537D02*
X0061516Y0034537D01*
X0061850Y0034203D01*
X0061850Y0033536D01*
X0061516Y0033202D01*
X0060849Y0033536D02*
X0060849Y0034203D01*
X0061183Y0034537D01*
X0060182Y0034537D02*
X0059848Y0034203D01*
X0059848Y0033536D01*
X0060182Y0033202D01*
X0060516Y0033202D01*
X0060849Y0033536D01*
X0059848Y0032327D02*
X0059848Y0030993D01*
X0061850Y0030993D01*
X0061850Y0032327D01*
X0060849Y0031660D02*
X0060849Y0030993D01*
X0060849Y0030117D02*
X0060182Y0030117D01*
X0059848Y0029784D01*
X0059848Y0028783D01*
X0061850Y0028783D01*
X0061183Y0028783D02*
X0061183Y0029784D01*
X0060849Y0030117D01*
X0061183Y0029450D02*
X0061850Y0030117D01*
X0043700Y0032681D02*
X0043700Y0035484D01*
X0040349Y0035484D02*
X0040349Y0032681D01*
X0034852Y0014170D02*
X0034465Y0013783D01*
X0033691Y0013783D01*
X0033304Y0014170D01*
D12*
X0102050Y0012083D02*
X0102050Y0002083D01*
X0112050Y0002083D01*
X0112050Y0012083D01*
X0102050Y0012083D01*
D13*
X0090050Y0017083D02*
X0083050Y0017083D01*
X0070095Y0023571D02*
X0070095Y0059594D01*
X0132005Y0059594D01*
X0132005Y0023571D01*
X0070095Y0023571D01*
X0058562Y0026102D02*
X0047538Y0026102D01*
X0047538Y0041063D01*
X0058562Y0041063D01*
X0058562Y0037520D01*
X0058562Y0029646D01*
X0058562Y0026102D01*
X0029893Y0026189D02*
X0029893Y0026976D01*
X0029893Y0031189D02*
X0029893Y0031583D01*
X0021428Y0031583D01*
X0021428Y0036583D01*
X0029893Y0036583D01*
X0021428Y0036583D01*
X0021428Y0031583D01*
X0029893Y0031583D01*
X0029893Y0031976D01*
X0029893Y0036189D02*
X0029893Y0036583D01*
X0029893Y0036976D01*
X0029893Y0041189D02*
X0029893Y0041976D01*
X0029893Y0046287D02*
X0029893Y0046583D01*
X0029893Y0021583D01*
X0010207Y0021583D01*
X0010207Y0046583D01*
X0029893Y0046583D01*
X0010207Y0046583D01*
X0010207Y0046287D01*
X0010439Y0048081D02*
X0009989Y0048531D01*
X0010439Y0048081D02*
X0011340Y0048081D01*
X0011791Y0048531D01*
X0011791Y0048981D01*
X0011340Y0049432D01*
X0010439Y0049432D01*
X0009989Y0049882D01*
X0009989Y0050333D01*
X0010439Y0050783D01*
X0011340Y0050783D01*
X0011791Y0050333D01*
X0012935Y0050783D02*
X0012935Y0048081D01*
X0013836Y0048981D01*
X0014737Y0048081D01*
X0014737Y0050783D01*
X0015882Y0050783D02*
X0017233Y0050783D01*
X0017684Y0050333D01*
X0017684Y0048531D01*
X0017233Y0048081D01*
X0015882Y0048081D01*
X0015882Y0050783D01*
X0010207Y0041976D02*
X0010207Y0041189D01*
X0010207Y0036976D02*
X0010207Y0036189D01*
X0010207Y0031976D02*
X0010207Y0031189D01*
X0010207Y0026976D02*
X0010207Y0026189D01*
X0010207Y0021878D02*
X0010207Y0021583D01*
X0029893Y0021583D01*
X0029893Y0021878D01*
D14*
X0048657Y0028683D02*
X0048659Y0028711D01*
X0048665Y0028738D01*
X0048674Y0028764D01*
X0048687Y0028789D01*
X0048704Y0028812D01*
X0048723Y0028832D01*
X0048745Y0028849D01*
X0048769Y0028863D01*
X0048795Y0028873D01*
X0048822Y0028880D01*
X0048850Y0028883D01*
X0048878Y0028882D01*
X0048905Y0028877D01*
X0048932Y0028868D01*
X0048957Y0028856D01*
X0048980Y0028841D01*
X0049001Y0028822D01*
X0049019Y0028801D01*
X0049034Y0028777D01*
X0049045Y0028751D01*
X0049053Y0028725D01*
X0049057Y0028697D01*
X0049057Y0028669D01*
X0049053Y0028641D01*
X0049045Y0028615D01*
X0049034Y0028589D01*
X0049019Y0028565D01*
X0049001Y0028544D01*
X0048980Y0028525D01*
X0048957Y0028510D01*
X0048932Y0028498D01*
X0048905Y0028489D01*
X0048878Y0028484D01*
X0048850Y0028483D01*
X0048822Y0028486D01*
X0048795Y0028493D01*
X0048769Y0028503D01*
X0048745Y0028517D01*
X0048723Y0028534D01*
X0048704Y0028554D01*
X0048687Y0028577D01*
X0048674Y0028602D01*
X0048665Y0028628D01*
X0048659Y0028655D01*
X0048657Y0028683D01*
D15*
X0042030Y0031767D03*
X0042030Y0036367D03*
D16*
X0042050Y0034083D03*
D17*
X0041331Y0027934D02*
X0041681Y0027584D01*
X0041681Y0026884D01*
X0041331Y0026533D01*
X0040280Y0026533D01*
X0040280Y0025833D02*
X0040280Y0027934D01*
X0041331Y0027934D01*
X0042490Y0027234D02*
X0043191Y0027934D01*
X0043191Y0025833D01*
X0043891Y0025833D02*
X0042490Y0025833D01*
X0041681Y0025833D02*
X0040981Y0026533D01*
X0058700Y0062233D02*
X0058700Y0064334D01*
X0059751Y0064334D01*
X0060101Y0063984D01*
X0060101Y0063284D01*
X0059751Y0062933D01*
X0058700Y0062933D01*
X0059401Y0062933D02*
X0060101Y0062233D01*
X0060910Y0062583D02*
X0061260Y0062233D01*
X0061961Y0062233D01*
X0062311Y0062583D01*
X0062311Y0062933D01*
X0061961Y0063284D01*
X0061610Y0063284D01*
X0061961Y0063284D02*
X0062311Y0063634D01*
X0062311Y0063984D01*
X0061961Y0064334D01*
X0061260Y0064334D01*
X0060910Y0063984D01*
X0081698Y0063364D02*
X0081698Y0062663D01*
X0082049Y0062313D01*
X0083450Y0062313D01*
X0083800Y0062663D01*
X0083800Y0063364D01*
X0083450Y0063714D01*
X0083800Y0064523D02*
X0082399Y0065924D01*
X0082049Y0065924D01*
X0081698Y0065574D01*
X0081698Y0064873D01*
X0082049Y0064523D01*
X0082049Y0063714D02*
X0081698Y0063364D01*
X0083800Y0064523D02*
X0083800Y0065924D01*
X0101698Y0065223D02*
X0103800Y0065223D01*
X0103800Y0064523D02*
X0103800Y0065924D01*
X0102399Y0064523D02*
X0101698Y0065223D01*
X0102049Y0063714D02*
X0101698Y0063364D01*
X0101698Y0062663D01*
X0102049Y0062313D01*
X0103450Y0062313D01*
X0103800Y0062663D01*
X0103800Y0063364D01*
X0103450Y0063714D01*
X0015311Y0063634D02*
X0015311Y0063984D01*
X0014961Y0064334D01*
X0014260Y0064334D01*
X0013910Y0063984D01*
X0013101Y0063984D02*
X0013101Y0063284D01*
X0012751Y0062933D01*
X0011700Y0062933D01*
X0011700Y0062233D02*
X0011700Y0064334D01*
X0012751Y0064334D01*
X0013101Y0063984D01*
X0012401Y0062933D02*
X0013101Y0062233D01*
X0013910Y0062233D02*
X0015311Y0063634D01*
X0015311Y0062233D02*
X0013910Y0062233D01*
D18*
X0027097Y0060904D03*
X0027097Y0057262D03*
X0033003Y0057262D03*
X0041097Y0060904D03*
X0047003Y0060904D03*
X0047003Y0057262D03*
D19*
X0046511Y0058098D03*
X0046511Y0060067D03*
X0041589Y0060067D03*
X0041589Y0058098D03*
X0032511Y0058098D03*
X0032511Y0060067D03*
X0027589Y0060067D03*
X0027589Y0058098D03*
D20*
X0027737Y0059083D03*
X0032363Y0059083D03*
X0041737Y0059083D03*
X0046363Y0059083D03*
D21*
X0043656Y0059083D03*
X0030444Y0059083D03*
D22*
X0032609Y0060854D03*
X0041491Y0057311D03*
D23*
X0040261Y0057262D03*
X0033839Y0060904D03*
D24*
X0018751Y0060484D02*
X0015349Y0060484D01*
X0015349Y0057681D02*
X0018751Y0057681D01*
X0019550Y0072083D02*
X0014550Y0072083D01*
X0012050Y0074583D01*
X0009550Y0072083D01*
X0004550Y0072083D01*
X0002050Y0074583D01*
X0002050Y0079583D01*
X0004550Y0082083D01*
X0009550Y0082083D01*
X0012050Y0079583D01*
X0014550Y0082083D01*
X0019550Y0082083D01*
X0022050Y0079583D01*
X0024550Y0082083D01*
X0029550Y0082083D01*
X0032050Y0079583D01*
X0034550Y0082083D01*
X0039550Y0082083D01*
X0042050Y0079583D01*
X0044550Y0082083D01*
X0049550Y0082083D01*
X0052050Y0079583D01*
X0054550Y0082083D01*
X0059550Y0082083D01*
X0062050Y0079583D01*
X0064550Y0082083D01*
X0069550Y0082083D01*
X0072050Y0079583D01*
X0074550Y0082083D01*
X0079550Y0082083D01*
X0082050Y0079583D01*
X0084550Y0082083D01*
X0089550Y0082083D01*
X0092050Y0079583D01*
X0094550Y0082083D01*
X0099550Y0082083D01*
X0102050Y0079583D01*
X0104550Y0082083D01*
X0109550Y0082083D01*
X0112050Y0079583D01*
X0114550Y0082083D01*
X0119550Y0082083D01*
X0122050Y0079583D01*
X0124550Y0082083D01*
X0129550Y0082083D01*
X0132050Y0079583D01*
X0132050Y0074583D01*
X0129550Y0072083D01*
X0124550Y0072083D01*
X0122050Y0074583D01*
X0119550Y0072083D01*
X0114550Y0072083D01*
X0112050Y0074583D01*
X0112050Y0079583D01*
X0112050Y0074583D02*
X0109550Y0072083D01*
X0104550Y0072083D01*
X0102050Y0074583D01*
X0099550Y0072083D01*
X0094550Y0072083D01*
X0092050Y0074583D01*
X0089550Y0072083D01*
X0084550Y0072083D01*
X0082050Y0074583D01*
X0082050Y0079583D01*
X0082050Y0074583D02*
X0079550Y0072083D01*
X0074550Y0072083D01*
X0072050Y0074583D01*
X0069550Y0072083D01*
X0064550Y0072083D01*
X0062050Y0074583D01*
X0059550Y0072083D01*
X0054550Y0072083D01*
X0052050Y0074583D01*
X0052050Y0079583D01*
X0052050Y0074583D02*
X0049550Y0072083D01*
X0044550Y0072083D01*
X0042050Y0074583D01*
X0039550Y0072083D01*
X0034550Y0072083D01*
X0032050Y0074583D01*
X0029550Y0072083D01*
X0024550Y0072083D01*
X0022050Y0074583D01*
X0022050Y0079583D01*
X0022050Y0074583D02*
X0019550Y0072083D01*
X0012050Y0074583D02*
X0012050Y0079583D01*
X0032050Y0079583D02*
X0032050Y0074583D01*
X0042050Y0074583D02*
X0042050Y0079583D01*
X0062050Y0079583D02*
X0062050Y0074583D01*
X0072050Y0074583D02*
X0072050Y0079583D01*
X0092050Y0079583D02*
X0092050Y0074583D01*
X0102050Y0074583D02*
X0102050Y0079583D01*
X0122050Y0079583D02*
X0122050Y0074583D01*
X0058751Y0060484D02*
X0055349Y0060484D01*
X0055349Y0057681D02*
X0058751Y0057681D01*
X0059550Y0012083D02*
X0054550Y0012083D01*
X0052050Y0009583D01*
X0049550Y0012083D01*
X0044550Y0012083D01*
X0042050Y0009583D01*
X0039550Y0012083D01*
X0034550Y0012083D01*
X0032050Y0009583D01*
X0032050Y0004583D01*
X0034550Y0002083D01*
X0039550Y0002083D01*
X0042050Y0004583D01*
X0042050Y0009583D01*
X0042050Y0004583D02*
X0044550Y0002083D01*
X0049550Y0002083D01*
X0052050Y0004583D01*
X0052050Y0009583D01*
X0052050Y0004583D02*
X0054550Y0002083D01*
X0059550Y0002083D01*
X0062050Y0004583D01*
X0062050Y0009583D01*
X0064550Y0012083D01*
X0069550Y0012083D01*
X0072050Y0009583D01*
X0074550Y0012083D01*
X0079550Y0012083D01*
X0082050Y0009583D01*
X0084550Y0012083D01*
X0089550Y0012083D01*
X0092050Y0009583D01*
X0094550Y0012083D01*
X0099550Y0012083D01*
X0102050Y0009583D01*
X0104550Y0012083D01*
X0109550Y0012083D01*
X0112050Y0009583D01*
X0112050Y0004583D01*
X0109550Y0002083D01*
X0104550Y0002083D01*
X0102050Y0004583D01*
X0099550Y0002083D01*
X0094550Y0002083D01*
X0092050Y0004583D01*
X0092050Y0009583D01*
X0092050Y0004583D02*
X0089550Y0002083D01*
X0084550Y0002083D01*
X0082050Y0004583D01*
X0079550Y0002083D01*
X0074550Y0002083D01*
X0072050Y0004583D01*
X0069550Y0002083D01*
X0064550Y0002083D01*
X0062050Y0004583D01*
X0062050Y0009583D02*
X0059550Y0012083D01*
X0072050Y0009583D02*
X0072050Y0004583D01*
X0082050Y0004583D02*
X0082050Y0009583D01*
X0102050Y0009583D02*
X0102050Y0004583D01*
X0124050Y0004783D02*
X0124650Y0004083D01*
X0125550Y0004683D01*
X0126450Y0004283D01*
X0126650Y0003283D01*
X0127550Y0003283D01*
X0127750Y0004283D01*
X0128650Y0004683D01*
X0129550Y0004083D01*
X0130250Y0004783D01*
X0129550Y0005683D01*
X0129950Y0006483D01*
X0131050Y0006683D01*
X0131050Y0007583D01*
X0129950Y0007883D01*
X0129550Y0008683D01*
X0130250Y0009583D01*
X0129550Y0010283D01*
X0128650Y0009683D01*
X0127750Y0009983D01*
X0127550Y0011083D01*
X0126650Y0011083D01*
X0126450Y0010083D01*
X0125550Y0009683D01*
X0124650Y0010283D01*
X0124050Y0009583D01*
X0124650Y0008783D01*
X0124450Y0008383D01*
X0126050Y0007783D01*
X0125850Y0008283D02*
X0124850Y0008583D01*
X0124350Y0009483D01*
X0124650Y0009983D01*
X0125650Y0009383D01*
X0126750Y0009883D01*
X0126950Y0010883D01*
X0127250Y0010883D01*
X0127650Y0009883D01*
X0128750Y0009483D01*
X0129650Y0009983D01*
X0129950Y0009583D01*
X0129350Y0008783D01*
X0129950Y0007683D01*
X0130850Y0007383D01*
X0130850Y0006883D01*
X0129750Y0006583D01*
X0129350Y0005683D01*
X0129950Y0004883D01*
X0129550Y0004383D01*
X0128750Y0004883D01*
X0127550Y0004383D01*
X0127350Y0003583D01*
X0126850Y0003483D01*
X0126650Y0004383D01*
X0125550Y0004883D01*
X0124750Y0004483D01*
X0124450Y0004883D01*
X0124950Y0005783D01*
X0125950Y0006083D01*
X0126950Y0005483D01*
X0128050Y0005883D01*
X0128650Y0006983D01*
X0128250Y0008283D01*
X0126950Y0008683D01*
X0125850Y0008283D01*
X0124804Y0008666D02*
X0126905Y0008666D01*
X0127003Y0008666D02*
X0129413Y0008666D01*
X0129712Y0009265D02*
X0124471Y0009265D01*
X0124578Y0009863D02*
X0124849Y0009863D01*
X0126707Y0009863D02*
X0127703Y0009863D01*
X0127418Y0010462D02*
X0126866Y0010462D01*
X0129435Y0009863D02*
X0129740Y0009863D01*
X0129740Y0008068D02*
X0128316Y0008068D01*
X0128500Y0007469D02*
X0130590Y0007469D01*
X0130806Y0006871D02*
X0128589Y0006871D01*
X0128262Y0006272D02*
X0129612Y0006272D01*
X0129357Y0005674D02*
X0127475Y0005674D01*
X0126632Y0005674D02*
X0124889Y0005674D01*
X0124650Y0005583D02*
X0124050Y0004783D01*
X0124557Y0005075D02*
X0129806Y0005075D01*
X0129625Y0004477D02*
X0129400Y0004477D01*
X0127776Y0004477D02*
X0126443Y0004477D01*
X0126762Y0003878D02*
X0127424Y0003878D01*
X0126050Y0006583D02*
X0124450Y0005983D01*
X0124650Y0005583D01*
X0126050Y0006583D02*
X0126086Y0006524D01*
X0126125Y0006468D01*
X0126168Y0006413D01*
X0126213Y0006361D01*
X0126261Y0006312D01*
X0126312Y0006266D01*
X0126366Y0006222D01*
X0126422Y0006182D01*
X0126480Y0006145D01*
X0126540Y0006111D01*
X0126602Y0006081D01*
X0126666Y0006055D01*
X0126731Y0006032D01*
X0126797Y0006013D01*
X0126864Y0005997D01*
X0126932Y0005986D01*
X0127000Y0005978D01*
X0127069Y0005974D01*
X0127138Y0005975D01*
X0127207Y0005979D01*
X0127275Y0005987D01*
X0127343Y0005999D01*
X0127410Y0006015D01*
X0127476Y0006034D01*
X0127541Y0006057D01*
X0127605Y0006084D01*
X0127666Y0006115D01*
X0127726Y0006149D01*
X0127784Y0006186D01*
X0127840Y0006227D01*
X0127893Y0006271D01*
X0127944Y0006317D01*
X0127992Y0006367D01*
X0128037Y0006419D01*
X0128079Y0006474D01*
X0128118Y0006530D01*
X0128153Y0006590D01*
X0128185Y0006651D01*
X0128214Y0006713D01*
X0128239Y0006777D01*
X0128260Y0006843D01*
X0128278Y0006910D01*
X0128291Y0006977D01*
X0128301Y0007045D01*
X0128307Y0007114D01*
X0128309Y0007183D01*
X0128307Y0007252D01*
X0128301Y0007321D01*
X0128291Y0007389D01*
X0128278Y0007456D01*
X0128260Y0007523D01*
X0128239Y0007589D01*
X0128214Y0007653D01*
X0128185Y0007715D01*
X0128153Y0007776D01*
X0128118Y0007836D01*
X0128079Y0007892D01*
X0128037Y0007947D01*
X0127992Y0007999D01*
X0127944Y0008049D01*
X0127893Y0008095D01*
X0127840Y0008139D01*
X0127784Y0008180D01*
X0127726Y0008217D01*
X0127666Y0008251D01*
X0127605Y0008282D01*
X0127541Y0008309D01*
X0127476Y0008332D01*
X0127410Y0008351D01*
X0127343Y0008367D01*
X0127275Y0008379D01*
X0127207Y0008387D01*
X0127138Y0008391D01*
X0127069Y0008392D01*
X0127000Y0008388D01*
X0126932Y0008380D01*
X0126864Y0008369D01*
X0126797Y0008353D01*
X0126731Y0008334D01*
X0126666Y0008311D01*
X0126602Y0008285D01*
X0126540Y0008255D01*
X0126480Y0008221D01*
X0126422Y0008184D01*
X0126366Y0008144D01*
X0126312Y0008100D01*
X0126261Y0008054D01*
X0126213Y0008005D01*
X0126168Y0007953D01*
X0126125Y0007898D01*
X0126086Y0007842D01*
X0126050Y0007783D01*
X0032050Y0009583D02*
X0029550Y0012083D01*
X0024550Y0012083D01*
X0022050Y0009583D01*
X0019550Y0012083D01*
X0014550Y0012083D01*
X0012050Y0009583D01*
X0009550Y0012083D01*
X0004550Y0012083D01*
X0002050Y0009583D01*
X0002050Y0004583D01*
X0004550Y0002083D01*
X0009550Y0002083D01*
X0012050Y0004583D01*
X0012050Y0009583D01*
X0012050Y0004583D02*
X0014550Y0002083D01*
X0019550Y0002083D01*
X0022050Y0004583D01*
X0022050Y0009583D01*
X0022050Y0004583D02*
X0024550Y0002083D01*
X0029550Y0002083D01*
X0032050Y0004583D01*
D25*
X0019550Y0059083D03*
X0014550Y0059083D03*
X0054550Y0059083D03*
X0059550Y0059083D03*
D26*
X0075050Y0063963D02*
X0075050Y0064203D01*
X0110050Y0064203D02*
X0110050Y0063963D01*
D27*
X0112334Y0064103D03*
X0107734Y0064103D03*
X0077366Y0064063D03*
X0072766Y0064063D03*
D28*
X0077050Y0077083D03*
X0067050Y0077083D03*
X0057050Y0077083D03*
X0047050Y0077083D03*
X0037050Y0077083D03*
X0027050Y0077083D03*
X0017050Y0077083D03*
X0007050Y0077083D03*
X0087050Y0077083D03*
X0097050Y0077083D03*
X0107050Y0077083D03*
X0117050Y0077083D03*
X0127050Y0077083D03*
X0107050Y0007083D03*
X0097050Y0007083D03*
X0087050Y0007083D03*
X0077050Y0007083D03*
X0067050Y0007083D03*
X0057050Y0007083D03*
X0047050Y0007083D03*
X0037050Y0007083D03*
X0027050Y0007083D03*
X0017050Y0007083D03*
X0007050Y0007083D03*
D29*
X0071426Y0026361D02*
X0071793Y0025994D01*
X0072527Y0025994D01*
X0072894Y0026361D01*
X0072894Y0026728D01*
X0072527Y0027462D01*
X0073627Y0027462D01*
X0073627Y0025994D01*
X0071426Y0026361D02*
X0071426Y0027095D01*
X0071793Y0027462D01*
X0071426Y0028204D02*
X0071426Y0029672D01*
X0072894Y0028204D01*
X0073260Y0028204D01*
X0073627Y0028571D01*
X0073627Y0029305D01*
X0073260Y0029672D01*
X0109221Y0032857D02*
X0109588Y0032490D01*
X0109955Y0032490D01*
X0110322Y0032857D01*
X0110322Y0033958D01*
X0109588Y0033958D01*
X0109221Y0033591D01*
X0109221Y0032857D01*
X0110322Y0033958D02*
X0111056Y0033224D01*
X0111423Y0032490D01*
X0111056Y0034700D02*
X0110689Y0034700D01*
X0110322Y0035067D01*
X0109955Y0034700D01*
X0109588Y0034700D01*
X0109221Y0035067D01*
X0109221Y0035801D01*
X0109588Y0036168D01*
X0110322Y0035434D02*
X0110322Y0035067D01*
X0111056Y0034700D02*
X0111423Y0035067D01*
X0111423Y0035801D01*
X0111056Y0036168D01*
X0128119Y0049070D02*
X0128119Y0050538D01*
X0128119Y0049804D02*
X0130320Y0049804D01*
X0129586Y0050538D01*
X0073627Y0053920D02*
X0073260Y0053553D01*
X0072894Y0053553D01*
X0072527Y0053920D01*
X0072527Y0054654D01*
X0072894Y0055021D01*
X0073260Y0055021D01*
X0073627Y0054654D01*
X0073627Y0053920D01*
X0072527Y0053920D02*
X0072160Y0053553D01*
X0071793Y0053553D01*
X0071426Y0053920D01*
X0071426Y0054654D01*
X0071793Y0055021D01*
X0072160Y0055021D01*
X0072527Y0054654D01*
X0071426Y0055763D02*
X0071426Y0057231D01*
X0071426Y0056497D02*
X0073627Y0056497D01*
X0072894Y0057231D01*
M02*
