%
M48
M72
T01C0.01300
T02C0.04000
%
T01
X5050Y18083
X8550Y18083
X12050Y18083
X16050Y20583
X20050Y37083
X36050Y44083
X41650Y42283
X47450Y45483
X55450Y54283
X51850Y54883
X62050Y54883
X62050Y51283
X64450Y57883
X67450Y65683
X90250Y63883
X97450Y66283
X100450Y64483
X117850Y66283
X104050Y50083
X111050Y47583
X114550Y47583
X118050Y47583
X121550Y47583
X125050Y47583
X128550Y47583
X111050Y44083
X111050Y40583
X111050Y37083
X111050Y33583
X95550Y35083
X92150Y38583
X95750Y42183
X93250Y47683
X90850Y50083
X86650Y50683
X79550Y47583
X82250Y44683
X79550Y39083
X79550Y35583
X90550Y33083
X71650Y22483
X52450Y33883
X45250Y25483
X19050Y53583
X15550Y53583
X12050Y53583
X5050Y59583
X5050Y63083
X5050Y66583
X10550Y66583
X18850Y63883
X24050Y66583
X27550Y66583
X104050Y20583
X107550Y20583
X111050Y20583
T02
X7050Y7083
X17050Y7083
X27050Y7083
X37050Y7083
X47050Y7083
X57050Y7083
X67050Y7083
X77050Y7083
X87050Y7083
X97050Y7083
X107050Y7083
X107050Y77083
X97050Y77083
X87050Y77083
X77050Y77083
X67050Y77083
X57050Y77083
X47050Y77083
X37050Y77083
X27050Y77083
X17050Y77083
X7050Y77083
X117050Y77083
X127050Y77083
M30
