G75*
G70*
%OFA0B0*%
%FSLAX24Y24*%
%IPPOS*%
%LPD*%
%AMOC8*
5,1,8,0,0,1.08239X$1,22.5*
%
%ADD10C,0.0000*%
%ADD11C,0.0040*%
%ADD12C,0.0030*%
%ADD13C,0.0050*%
%ADD14C,0.0060*%
%ADD15C,0.0020*%
%ADD16C,0.0100*%
%ADD17R,0.0200X0.0150*%
D10*
X000756Y000554D02*
X000756Y010550D01*
X022376Y010550D01*
X022376Y000554D01*
X000756Y000554D01*
D11*
X002526Y003074D02*
X002986Y003381D01*
X002526Y003381D01*
X002679Y003535D02*
X002526Y003688D01*
X002679Y003842D01*
X002986Y003842D01*
X002986Y003995D02*
X002526Y003995D01*
X002679Y004148D01*
X002526Y004302D01*
X002986Y004302D01*
X002986Y004455D02*
X002526Y004455D01*
X002526Y004762D01*
X002756Y004609D02*
X002756Y004455D01*
X002986Y004455D02*
X002986Y004762D01*
X002756Y003842D02*
X002756Y003535D01*
X002679Y003535D02*
X002986Y003535D01*
X002986Y003074D02*
X002526Y003074D01*
X005526Y005324D02*
X005756Y005324D01*
X005833Y005401D01*
X005833Y005478D01*
X005756Y005554D01*
X005526Y005554D01*
X005756Y005554D02*
X005833Y005631D01*
X005833Y005708D01*
X005756Y005785D01*
X005526Y005785D01*
X005526Y005324D01*
X005986Y005324D02*
X006140Y005324D01*
X006063Y005324D02*
X006063Y005785D01*
X005986Y005785D01*
X006293Y005631D02*
X006293Y005401D01*
X006370Y005324D01*
X006600Y005324D01*
X006600Y005631D01*
X006754Y005554D02*
X006830Y005631D01*
X006984Y005631D01*
X007060Y005554D01*
X007060Y005478D01*
X006754Y005478D01*
X006754Y005554D02*
X006754Y005401D01*
X006830Y005324D01*
X006984Y005324D01*
X007214Y005401D02*
X007291Y005324D01*
X007521Y005324D01*
X007521Y005248D02*
X007521Y005631D01*
X007291Y005631D01*
X007214Y005554D01*
X007214Y005401D01*
X007444Y005171D02*
X007521Y005248D01*
X007444Y005171D02*
X007367Y005171D01*
X007674Y005324D02*
X007828Y005324D01*
X007751Y005324D02*
X007751Y005631D01*
X007674Y005631D01*
X007981Y005554D02*
X007981Y005401D01*
X008058Y005324D01*
X008288Y005324D01*
X008288Y005248D02*
X008288Y005631D01*
X008058Y005631D01*
X007981Y005554D01*
X007751Y005785D02*
X007751Y005861D01*
X008518Y005631D02*
X008672Y005631D01*
X008748Y005554D01*
X008748Y005324D01*
X008518Y005324D01*
X008441Y005401D01*
X008518Y005478D01*
X008748Y005478D01*
X008288Y005248D02*
X008211Y005171D01*
X008135Y005171D01*
X009362Y005324D02*
X009516Y005478D01*
X009669Y005324D01*
X009669Y005785D01*
X009823Y005785D02*
X010129Y005785D01*
X009976Y005785D02*
X009976Y005324D01*
X010283Y005324D02*
X010590Y005324D01*
X010743Y005324D02*
X011050Y005631D01*
X011050Y005708D01*
X010973Y005785D01*
X010820Y005785D01*
X010743Y005708D01*
X010436Y005785D02*
X010436Y005324D01*
X010743Y005324D02*
X011050Y005324D01*
X010436Y005785D02*
X010283Y005631D01*
X009362Y005785D02*
X009362Y005324D01*
X015376Y007324D02*
X015726Y007324D01*
X015726Y007558D01*
X015726Y007683D02*
X015726Y007917D01*
X015726Y007800D02*
X015376Y007800D01*
X015492Y007683D01*
X016776Y001535D02*
X016776Y001074D01*
X016929Y001228D01*
X017083Y001074D01*
X017083Y001535D01*
X017236Y001535D02*
X017543Y001535D01*
X017390Y001535D02*
X017390Y001074D01*
X017697Y001074D02*
X018004Y001074D01*
X018157Y001074D02*
X018464Y001381D01*
X018464Y001458D01*
X018387Y001535D01*
X018234Y001535D01*
X018157Y001458D01*
X017850Y001535D02*
X017850Y001074D01*
X018157Y001074D02*
X018464Y001074D01*
X019078Y001074D02*
X019308Y001074D01*
X019385Y001151D01*
X019385Y001228D01*
X019308Y001304D01*
X019078Y001304D01*
X019308Y001304D02*
X019385Y001381D01*
X019385Y001458D01*
X019308Y001535D01*
X019078Y001535D01*
X019078Y001074D01*
X019538Y001074D02*
X019768Y001074D01*
X019845Y001151D01*
X019845Y001228D01*
X019768Y001304D01*
X019538Y001304D01*
X019768Y001304D02*
X019845Y001381D01*
X019845Y001458D01*
X019768Y001535D01*
X019538Y001535D01*
X019538Y001074D01*
X020459Y001381D02*
X020612Y001074D01*
X020766Y001381D01*
X020919Y001381D02*
X021073Y001535D01*
X021073Y001074D01*
X021226Y001074D02*
X020919Y001074D01*
X021379Y001074D02*
X021456Y001074D01*
X021456Y001151D01*
X021379Y001151D01*
X021379Y001074D01*
X021610Y001074D02*
X021916Y001074D01*
X021763Y001074D02*
X021763Y001535D01*
X021610Y001381D01*
X017850Y001535D02*
X017697Y001381D01*
D12*
X017896Y001819D02*
X018081Y001819D01*
X018143Y001881D01*
X018081Y001943D01*
X017958Y001943D01*
X017896Y002004D01*
X017958Y002066D01*
X018143Y002066D01*
X018264Y002004D02*
X018326Y002066D01*
X018449Y002066D01*
X018511Y002004D01*
X018511Y001943D01*
X018264Y001943D01*
X018264Y002004D02*
X018264Y001881D01*
X018326Y001819D01*
X018449Y001819D01*
X018633Y001881D02*
X018694Y001819D01*
X018879Y001819D01*
X019063Y001881D02*
X019124Y001819D01*
X019063Y001881D02*
X019063Y002128D01*
X019124Y002066D02*
X019001Y002066D01*
X018879Y002066D02*
X018694Y002066D01*
X018633Y002004D01*
X018633Y001881D01*
X019246Y001881D02*
X019308Y001819D01*
X019431Y001819D01*
X019493Y001881D01*
X019493Y002004D01*
X019431Y002066D01*
X019308Y002066D01*
X019246Y002004D01*
X019246Y001881D01*
X019615Y001943D02*
X019738Y002066D01*
X019800Y002066D01*
X019922Y002004D02*
X020045Y002004D01*
X020167Y002004D02*
X020229Y002066D01*
X020352Y002066D01*
X020414Y002004D01*
X020414Y001943D01*
X020167Y001943D01*
X020167Y002004D02*
X020167Y001881D01*
X020229Y001819D01*
X020352Y001819D01*
X020535Y001696D02*
X020597Y001696D01*
X020659Y001758D01*
X020659Y002066D01*
X020659Y002190D02*
X020659Y002251D01*
X020965Y002066D02*
X021150Y002066D01*
X021212Y002004D01*
X021212Y001819D01*
X021333Y001881D02*
X021333Y002004D01*
X021395Y002066D01*
X021518Y002066D01*
X021580Y002004D01*
X021580Y001943D01*
X021333Y001943D01*
X021333Y001881D02*
X021395Y001819D01*
X021518Y001819D01*
X021763Y001881D02*
X021825Y001819D01*
X021763Y001881D02*
X021763Y002128D01*
X021702Y002066D02*
X021825Y002066D01*
X020965Y002066D02*
X020965Y001819D01*
X020843Y001819D02*
X020781Y001819D01*
X020781Y001881D01*
X020843Y001881D01*
X020843Y001819D01*
X019983Y001819D02*
X019983Y002128D01*
X020045Y002190D01*
X019615Y002066D02*
X019615Y001819D01*
X020118Y002944D02*
X020118Y003235D01*
X020214Y003235D02*
X020021Y003235D01*
X020316Y003235D02*
X020509Y002944D01*
X020610Y002944D02*
X020755Y002944D01*
X020804Y002993D01*
X020804Y003186D01*
X020755Y003235D01*
X020610Y003235D01*
X020610Y002944D01*
X020316Y002944D02*
X020509Y003235D01*
X020412Y003944D02*
X020412Y004235D01*
X020316Y004235D02*
X020509Y004235D01*
X020610Y004186D02*
X020610Y004138D01*
X020659Y004089D01*
X020755Y004089D01*
X020804Y004041D01*
X020804Y003993D01*
X020755Y003944D01*
X020659Y003944D01*
X020610Y003993D01*
X020610Y004186D02*
X020659Y004235D01*
X020755Y004235D01*
X020804Y004186D01*
X020214Y004186D02*
X020214Y004089D01*
X020166Y004041D01*
X020021Y004041D01*
X020021Y003944D02*
X020021Y004235D01*
X020166Y004235D01*
X020214Y004186D01*
X020118Y004041D02*
X020214Y003944D01*
X020166Y004944D02*
X020214Y004993D01*
X020166Y004944D02*
X020069Y004944D01*
X020021Y004993D01*
X020021Y005186D01*
X020069Y005235D01*
X020166Y005235D01*
X020214Y005186D01*
X020316Y005235D02*
X020509Y005235D01*
X020412Y005235D02*
X020412Y004944D01*
X020610Y004993D02*
X020659Y004944D01*
X020755Y004944D01*
X020804Y004993D01*
X020804Y005041D01*
X020755Y005089D01*
X020659Y005089D01*
X020610Y005138D01*
X020610Y005186D01*
X020659Y005235D01*
X020755Y005235D01*
X020804Y005186D01*
X020755Y005944D02*
X020610Y005944D01*
X020610Y006235D01*
X020755Y006235D01*
X020804Y006186D01*
X020804Y005993D01*
X020755Y005944D01*
X020509Y005944D02*
X020316Y006235D01*
X020214Y006186D02*
X020214Y006089D01*
X020166Y006041D01*
X020021Y006041D01*
X020021Y005944D02*
X020021Y006235D01*
X020166Y006235D01*
X020214Y006186D01*
X020118Y006041D02*
X020214Y005944D01*
X020316Y005944D02*
X020509Y006235D01*
X020388Y006819D02*
X020388Y007004D01*
X020511Y007128D01*
X020511Y007190D01*
X020633Y007190D02*
X020818Y007190D01*
X020879Y007128D01*
X020879Y007004D01*
X020818Y006943D01*
X020633Y006943D01*
X020633Y006819D02*
X020633Y007190D01*
X020388Y007004D02*
X020264Y007128D01*
X020264Y007190D01*
X020143Y007128D02*
X020143Y007066D01*
X020081Y007004D01*
X019896Y007004D01*
X019896Y006819D02*
X019896Y007190D01*
X020081Y007190D01*
X020143Y007128D01*
X020081Y007004D02*
X020143Y006943D01*
X020143Y006881D01*
X020081Y006819D01*
X019896Y006819D01*
X021001Y006819D02*
X021001Y007066D01*
X021124Y007190D01*
X021248Y007066D01*
X021248Y006819D01*
X021369Y006881D02*
X021431Y006819D01*
X021554Y006819D01*
X021616Y006881D01*
X021616Y006943D01*
X021554Y007004D01*
X021431Y007004D01*
X021369Y007066D01*
X021369Y007128D01*
X021431Y007190D01*
X021554Y007190D01*
X021616Y007128D01*
X021737Y007128D02*
X021737Y007066D01*
X021799Y007004D01*
X021923Y007004D01*
X021984Y006943D01*
X021984Y006881D01*
X021923Y006819D01*
X021799Y006819D01*
X021737Y006881D01*
X021248Y007004D02*
X021001Y007004D01*
X021737Y007128D02*
X021799Y007190D01*
X021923Y007190D01*
X021984Y007128D01*
X021866Y008069D02*
X021743Y008193D01*
X021804Y008193D02*
X021619Y008193D01*
X021619Y008069D02*
X021619Y008440D01*
X021804Y008440D01*
X021866Y008378D01*
X021866Y008254D01*
X021804Y008193D01*
X021498Y008069D02*
X021251Y008069D01*
X021251Y008440D01*
X021498Y008440D01*
X021374Y008254D02*
X021251Y008254D01*
X021129Y008069D02*
X021006Y008193D01*
X020883Y008069D01*
X020883Y008440D01*
X020761Y008378D02*
X020699Y008440D01*
X020576Y008440D01*
X020514Y008378D01*
X020514Y008131D01*
X020576Y008069D01*
X020699Y008069D01*
X020761Y008131D01*
X020761Y008378D01*
X021129Y008440D02*
X021129Y008069D01*
X020393Y008254D02*
X020393Y008378D01*
X020331Y008440D01*
X020146Y008440D01*
X020146Y008069D01*
X020146Y008193D02*
X020331Y008193D01*
X020393Y008254D01*
X020519Y008631D02*
X020519Y008878D01*
X020396Y008754D02*
X020643Y008754D01*
X021396Y008754D02*
X021643Y008754D01*
X018011Y008569D02*
X017764Y008569D01*
X017888Y008569D02*
X017888Y008940D01*
X017764Y008816D01*
X017643Y008878D02*
X017581Y008940D01*
X017458Y008940D01*
X017396Y008878D01*
X017396Y008631D01*
X017458Y008569D01*
X017581Y008569D01*
X017643Y008631D01*
X015616Y008684D02*
X015616Y008438D01*
X015616Y008316D02*
X015616Y008069D01*
X015246Y008069D01*
X015369Y008438D02*
X015246Y008561D01*
X015616Y008561D01*
X014643Y008569D02*
X014396Y008569D01*
X014519Y008569D02*
X014519Y008940D01*
X014396Y008816D01*
X014456Y007565D02*
X014518Y007503D01*
X014518Y007441D01*
X014456Y007379D01*
X014518Y007318D01*
X014518Y007256D01*
X014456Y007194D01*
X014333Y007194D01*
X014271Y007256D01*
X014394Y007379D02*
X014456Y007379D01*
X014639Y007441D02*
X014763Y007565D01*
X014763Y007194D01*
X014886Y007194D02*
X014639Y007194D01*
X014271Y007503D02*
X014333Y007565D01*
X014456Y007565D01*
X012787Y006360D02*
X012787Y006069D01*
X012691Y006069D02*
X012884Y006069D01*
X012589Y006118D02*
X012541Y006069D01*
X012444Y006069D01*
X012396Y006118D01*
X012493Y006214D02*
X012541Y006214D01*
X012589Y006166D01*
X012589Y006118D01*
X012541Y006214D02*
X012589Y006263D01*
X012589Y006311D01*
X012541Y006360D01*
X012444Y006360D01*
X012396Y006311D01*
X012691Y006263D02*
X012787Y006360D01*
X012739Y005735D02*
X012836Y005735D01*
X012884Y005686D01*
X012691Y005493D01*
X012739Y005444D01*
X012836Y005444D01*
X012884Y005493D01*
X012884Y005686D01*
X012739Y005735D02*
X012691Y005686D01*
X012691Y005493D01*
X012589Y005493D02*
X012541Y005444D01*
X012444Y005444D01*
X012396Y005493D01*
X012493Y005589D02*
X012541Y005589D01*
X012589Y005541D01*
X012589Y005493D01*
X012541Y005589D02*
X012589Y005638D01*
X012589Y005686D01*
X012541Y005735D01*
X012444Y005735D01*
X012396Y005686D01*
X012444Y005110D02*
X012396Y005061D01*
X012444Y005110D02*
X012541Y005110D01*
X012589Y005061D01*
X012589Y005013D01*
X012396Y004819D01*
X012589Y004819D01*
X012691Y004868D02*
X012739Y004819D01*
X012836Y004819D01*
X012884Y004868D01*
X012884Y005061D01*
X012836Y005110D01*
X012739Y005110D01*
X012691Y005061D01*
X012691Y005013D01*
X012739Y004964D01*
X012884Y004964D01*
X014271Y003878D02*
X014333Y003940D01*
X014456Y003940D01*
X014518Y003878D01*
X014518Y003816D01*
X014271Y003569D01*
X014518Y003569D01*
X014639Y003631D02*
X014701Y003569D01*
X014824Y003569D01*
X014886Y003631D01*
X014886Y003878D01*
X014824Y003940D01*
X014701Y003940D01*
X014639Y003878D01*
X014639Y003816D01*
X014701Y003754D01*
X014886Y003754D01*
X014824Y002565D02*
X014701Y002565D01*
X014639Y002503D01*
X014639Y002441D01*
X014701Y002379D01*
X014824Y002379D01*
X014886Y002318D01*
X014886Y002256D01*
X014824Y002194D01*
X014701Y002194D01*
X014639Y002256D01*
X014639Y002318D01*
X014701Y002379D01*
X014824Y002379D02*
X014886Y002441D01*
X014886Y002503D01*
X014824Y002565D01*
X014518Y002503D02*
X014518Y002441D01*
X014271Y002194D01*
X014518Y002194D01*
X014518Y002503D02*
X014456Y002565D01*
X014333Y002565D01*
X014271Y002503D01*
X011759Y003493D02*
X011711Y003444D01*
X011614Y003444D01*
X011566Y003493D01*
X011566Y003541D01*
X011614Y003589D01*
X011711Y003589D01*
X011759Y003541D01*
X011759Y003493D01*
X011711Y003589D02*
X011759Y003638D01*
X011759Y003686D01*
X011711Y003735D01*
X011614Y003735D01*
X011566Y003686D01*
X011566Y003638D01*
X011614Y003589D01*
X011464Y003638D02*
X011464Y003686D01*
X011416Y003735D01*
X011319Y003735D01*
X011271Y003686D01*
X011464Y003638D02*
X011271Y003444D01*
X011464Y003444D01*
X007886Y002194D02*
X007639Y002194D01*
X007518Y002194D02*
X007271Y002194D01*
X007518Y002441D01*
X007518Y002503D01*
X007456Y002565D01*
X007333Y002565D01*
X007271Y002503D01*
X007639Y002441D02*
X007763Y002565D01*
X007763Y002194D01*
X004134Y003493D02*
X004086Y003444D01*
X003989Y003444D01*
X003941Y003493D01*
X003941Y003589D02*
X004037Y003638D01*
X004086Y003638D01*
X004134Y003589D01*
X004134Y003493D01*
X003941Y003589D02*
X003941Y003735D01*
X004134Y003735D01*
X003743Y003735D02*
X003743Y003444D01*
X003839Y003444D02*
X003646Y003444D01*
X003646Y003638D02*
X003743Y003735D01*
X003254Y003881D02*
X003254Y003943D01*
X003193Y004004D01*
X003131Y004004D01*
X003193Y004004D02*
X003254Y004066D01*
X003254Y004128D01*
X003193Y004190D01*
X003069Y004190D01*
X003008Y004128D01*
X002886Y004190D02*
X002886Y003943D01*
X002763Y003819D01*
X002639Y003943D01*
X002639Y004190D01*
X002518Y004128D02*
X002518Y004066D01*
X002456Y004004D01*
X002518Y003943D01*
X002518Y003881D01*
X002456Y003819D01*
X002333Y003819D01*
X002271Y003881D01*
X002394Y004004D02*
X002456Y004004D01*
X002518Y004128D02*
X002456Y004190D01*
X002333Y004190D01*
X002271Y004128D01*
X003008Y003881D02*
X003069Y003819D01*
X003193Y003819D01*
X003254Y003881D01*
X003193Y003190D02*
X003069Y003190D01*
X003008Y003128D01*
X003008Y003066D01*
X003069Y003004D01*
X003193Y003004D01*
X003254Y002943D01*
X003254Y002881D01*
X003193Y002819D01*
X003069Y002819D01*
X003008Y002881D01*
X002763Y002819D02*
X002763Y003190D01*
X002886Y003190D02*
X002639Y003190D01*
X002518Y003128D02*
X002456Y003190D01*
X002333Y003190D01*
X002271Y003128D01*
X002271Y002881D01*
X002333Y002819D01*
X002456Y002819D01*
X002518Y002881D01*
X003193Y003190D02*
X003254Y003128D01*
X001761Y002565D02*
X001514Y002565D01*
X001514Y002379D01*
X001638Y002441D01*
X001699Y002441D01*
X001761Y002379D01*
X001761Y002256D01*
X001699Y002194D01*
X001576Y002194D01*
X001514Y002256D01*
X001393Y002194D02*
X001146Y002194D01*
X001269Y002194D02*
X001269Y002565D01*
X001146Y002441D01*
X002333Y004819D02*
X002271Y004881D01*
X002271Y005128D01*
X002333Y005190D01*
X002456Y005190D01*
X002518Y005128D01*
X002518Y005004D02*
X002394Y005004D01*
X002518Y005004D02*
X002518Y004881D01*
X002456Y004819D01*
X002333Y004819D01*
X002639Y004819D02*
X002639Y005190D01*
X002886Y004819D01*
X002886Y005190D01*
X003008Y005190D02*
X003193Y005190D01*
X003254Y005128D01*
X003254Y004881D01*
X003193Y004819D01*
X003008Y004819D01*
X003008Y005190D01*
X003008Y005819D02*
X003193Y005819D01*
X003254Y005881D01*
X003254Y006128D01*
X003193Y006190D01*
X003008Y006190D01*
X003008Y005819D01*
X002886Y005819D02*
X002639Y006190D01*
X002518Y006190D02*
X002271Y006190D01*
X002394Y006190D02*
X002394Y005819D01*
X002639Y005819D02*
X002886Y006190D01*
X002886Y006819D02*
X002639Y007190D01*
X002518Y007128D02*
X002518Y007004D01*
X002456Y006943D01*
X002271Y006943D01*
X002394Y006943D02*
X002518Y006819D01*
X002639Y006819D02*
X002886Y007190D01*
X003008Y007190D02*
X003193Y007190D01*
X003254Y007128D01*
X003254Y006881D01*
X003193Y006819D01*
X003008Y006819D01*
X003008Y007190D01*
X003646Y007319D02*
X003839Y007319D01*
X003743Y007319D02*
X003743Y007610D01*
X003646Y007513D01*
X003941Y007464D02*
X004134Y007464D01*
X004086Y007319D02*
X004086Y007610D01*
X003941Y007464D01*
X003254Y007881D02*
X003193Y007819D01*
X003069Y007819D01*
X003008Y007881D01*
X003193Y008004D02*
X003254Y007943D01*
X003254Y007881D01*
X003193Y008004D02*
X003069Y008004D01*
X003008Y008066D01*
X003008Y008128D01*
X003069Y008190D01*
X003193Y008190D01*
X003254Y008128D01*
X002886Y008190D02*
X002639Y008190D01*
X002763Y008190D02*
X002763Y007819D01*
X002518Y007819D02*
X002394Y007943D01*
X002456Y007943D02*
X002271Y007943D01*
X002271Y007819D02*
X002271Y008190D01*
X002456Y008190D01*
X002518Y008128D01*
X002518Y008004D01*
X002456Y007943D01*
X001824Y008569D02*
X001824Y008940D01*
X001639Y008754D01*
X001886Y008754D01*
X001518Y008569D02*
X001271Y008569D01*
X001394Y008569D02*
X001394Y008940D01*
X001271Y008816D01*
X002271Y007190D02*
X002456Y007190D01*
X002518Y007128D01*
X002271Y007190D02*
X002271Y006819D01*
X007396Y008631D02*
X007396Y008693D01*
X007458Y008754D01*
X007581Y008754D01*
X007643Y008693D01*
X007643Y008631D01*
X007581Y008569D01*
X007458Y008569D01*
X007396Y008631D01*
X007458Y008754D02*
X007396Y008816D01*
X007396Y008878D01*
X007458Y008940D01*
X007581Y008940D01*
X007643Y008878D01*
X007643Y008816D01*
X007581Y008754D01*
X011396Y007513D02*
X011493Y007610D01*
X011493Y007319D01*
X011589Y007319D02*
X011396Y007319D01*
X015121Y006053D02*
X015121Y005806D01*
X015121Y005684D02*
X015491Y005684D01*
X015121Y005438D01*
X015491Y005438D01*
X015491Y005316D02*
X015244Y005316D01*
X015121Y005193D01*
X015244Y005069D01*
X015491Y005069D01*
X015306Y005069D02*
X015306Y005316D01*
X015491Y005929D02*
X015121Y005929D01*
X016771Y005565D02*
X016771Y005194D01*
X016771Y005318D02*
X016956Y005318D01*
X017018Y005379D01*
X017018Y005503D01*
X016956Y005565D01*
X016771Y005565D01*
X017139Y005565D02*
X017139Y005194D01*
X017386Y005194D01*
X017508Y005256D02*
X017569Y005194D01*
X017693Y005194D01*
X017754Y005256D01*
X017754Y005318D01*
X017693Y005379D01*
X017569Y005379D01*
X017508Y005441D01*
X017508Y005503D01*
X017569Y005565D01*
X017693Y005565D01*
X017754Y005503D01*
X017876Y005565D02*
X017876Y005194D01*
X018123Y005194D01*
X018368Y005194D02*
X018368Y005565D01*
X018491Y005565D02*
X018244Y005565D01*
X018123Y005565D02*
X017876Y005565D01*
X017876Y005379D02*
X017999Y005379D01*
X017386Y005565D02*
X017139Y005565D01*
X017139Y005379D02*
X017263Y005379D01*
X017018Y005194D02*
X016894Y005318D01*
X017458Y006819D02*
X017581Y006819D01*
X017643Y006881D01*
X017764Y006819D02*
X018011Y007066D01*
X018011Y007128D01*
X017949Y007190D01*
X017826Y007190D01*
X017764Y007128D01*
X017643Y007128D02*
X017581Y007190D01*
X017458Y007190D01*
X017396Y007128D01*
X017396Y006881D01*
X017458Y006819D01*
X017764Y006819D02*
X018011Y006819D01*
D13*
X015781Y007754D02*
X015781Y007904D01*
X015706Y007980D01*
X015631Y007980D01*
X015556Y007904D01*
X015556Y007754D01*
X015481Y007679D01*
X015406Y007679D01*
X015331Y007754D01*
X015331Y007904D01*
X015406Y007980D01*
X015706Y008140D02*
X015781Y008215D01*
X015781Y008290D01*
X015706Y008365D01*
X015331Y008365D01*
X015331Y008290D02*
X015331Y008440D01*
X015481Y008600D02*
X015331Y008750D01*
X015781Y008750D01*
X015781Y008600D02*
X015781Y008900D01*
X014901Y008359D02*
X014600Y008359D01*
X014751Y008359D02*
X014751Y008810D01*
X014600Y008660D01*
X014440Y008735D02*
X014440Y008584D01*
X014365Y008509D01*
X014140Y008509D01*
X014140Y008359D02*
X014140Y008810D01*
X014365Y008810D01*
X014440Y008735D01*
X013980Y008810D02*
X013830Y008810D01*
X013905Y008810D02*
X013905Y008434D01*
X013830Y008359D01*
X013755Y008359D01*
X013680Y008434D01*
X013545Y008310D02*
X013545Y002798D01*
X003467Y002798D01*
X003467Y008310D01*
X013545Y008310D01*
X015706Y007679D02*
X015781Y007754D01*
X017381Y008504D02*
X017456Y008429D01*
X017606Y008429D01*
X017681Y008504D01*
X017841Y008429D02*
X018141Y008730D01*
X018141Y008805D01*
X018066Y008880D01*
X017916Y008880D01*
X017841Y008805D01*
X017681Y008805D02*
X017606Y008880D01*
X017456Y008880D01*
X017381Y008805D01*
X017381Y008504D01*
X017841Y008429D02*
X018141Y008429D01*
X018141Y010179D02*
X017841Y010179D01*
X017991Y010179D02*
X017991Y010630D01*
X017841Y010480D01*
X017681Y010555D02*
X017606Y010630D01*
X017456Y010630D01*
X017381Y010555D01*
X017381Y010254D01*
X017456Y010179D01*
X017606Y010179D01*
X017681Y010254D01*
X020001Y010374D02*
X020076Y010299D01*
X020151Y010299D01*
X020226Y010374D01*
X020226Y010750D01*
X020151Y010750D02*
X020301Y010750D01*
X020461Y010750D02*
X020686Y010750D01*
X020761Y010675D01*
X020761Y010524D01*
X020686Y010449D01*
X020461Y010449D01*
X020461Y010299D02*
X020461Y010750D01*
X020922Y010524D02*
X021147Y010524D01*
X021222Y010449D01*
X021222Y010374D01*
X021147Y010299D01*
X020997Y010299D01*
X020922Y010374D01*
X020922Y010524D01*
X021072Y010675D01*
X021222Y010750D01*
X017066Y005605D02*
X017066Y005154D01*
X016916Y005154D02*
X017216Y005154D01*
X016756Y005229D02*
X016681Y005154D01*
X016531Y005154D01*
X016456Y005229D01*
X016531Y005379D02*
X016681Y005379D01*
X016756Y005304D01*
X016756Y005229D01*
X016531Y005379D02*
X016456Y005455D01*
X016456Y005530D01*
X016531Y005605D01*
X016681Y005605D01*
X016756Y005530D01*
X016916Y005455D02*
X017066Y005605D01*
X013761Y005195D02*
X013761Y005045D01*
X013686Y004970D01*
X013536Y004810D02*
X013611Y004735D01*
X013611Y004510D01*
X013761Y004510D02*
X013311Y004510D01*
X013311Y004735D01*
X013386Y004810D01*
X013536Y004810D01*
X013386Y004970D02*
X013311Y005045D01*
X013311Y005195D01*
X013386Y005270D01*
X013461Y005270D01*
X013536Y005195D01*
X013611Y005270D01*
X013686Y005270D01*
X013761Y005195D01*
X013536Y005195D02*
X013536Y005120D01*
X013311Y004350D02*
X013311Y004199D01*
X013311Y004274D02*
X013686Y004274D01*
X013761Y004199D01*
X013761Y004124D01*
X013686Y004049D01*
X020311Y003770D02*
X020311Y003470D01*
X020536Y003470D01*
X020461Y003620D01*
X020461Y003695D01*
X020536Y003770D01*
X020686Y003770D01*
X020761Y003695D01*
X020761Y003545D01*
X020686Y003470D01*
X020536Y003310D02*
X020386Y003310D01*
X020311Y003235D01*
X020311Y003010D01*
X020761Y003010D01*
X020611Y003010D02*
X020611Y003235D01*
X020536Y003310D01*
X020311Y002850D02*
X020311Y002699D01*
X020311Y002774D02*
X020686Y002774D01*
X020761Y002699D01*
X020761Y002624D01*
X020686Y002549D01*
X002222Y002600D02*
X002222Y002675D01*
X002147Y002750D01*
X001997Y002750D01*
X001922Y002675D01*
X001761Y002675D02*
X001761Y002524D01*
X001686Y002449D01*
X001461Y002449D01*
X001226Y002374D02*
X001226Y002750D01*
X001151Y002750D02*
X001301Y002750D01*
X001461Y002750D02*
X001686Y002750D01*
X001761Y002675D01*
X001461Y002750D02*
X001461Y002299D01*
X001226Y002374D02*
X001151Y002299D01*
X001076Y002299D01*
X001001Y002374D01*
X000761Y002624D02*
X000761Y002699D01*
X000686Y002774D01*
X000311Y002774D01*
X000311Y002699D02*
X000311Y002850D01*
X000311Y003010D02*
X000311Y003235D01*
X000386Y003310D01*
X000536Y003310D01*
X000611Y003235D01*
X000611Y003010D01*
X000761Y003010D02*
X000311Y003010D01*
X000536Y003470D02*
X000536Y003770D01*
X000761Y003695D02*
X000311Y003695D01*
X000536Y003470D01*
X000761Y002624D02*
X000686Y002549D01*
X001922Y002299D02*
X002222Y002600D01*
X002222Y002299D02*
X001922Y002299D01*
D14*
X001756Y002054D02*
X002006Y001804D01*
X002256Y002054D01*
X002756Y002054D01*
X003006Y001804D01*
X003006Y001304D01*
X002756Y001054D01*
X002256Y001054D01*
X002006Y001304D01*
X001756Y001054D01*
X001256Y001054D01*
X001006Y001304D01*
X001006Y001804D01*
X001256Y002054D01*
X001756Y002054D01*
X002006Y001804D02*
X002006Y001304D01*
X003006Y001304D02*
X003256Y001054D01*
X003756Y001054D01*
X004006Y001304D01*
X004256Y001054D01*
X004756Y001054D01*
X005006Y001304D01*
X005256Y001054D01*
X005756Y001054D01*
X006006Y001304D01*
X006006Y001804D01*
X005756Y002054D01*
X005256Y002054D01*
X005006Y001804D01*
X005006Y001304D01*
X004006Y001304D02*
X004006Y001804D01*
X004256Y002054D01*
X004756Y002054D01*
X005006Y001804D01*
X004006Y001804D02*
X003756Y002054D01*
X003256Y002054D01*
X003006Y001804D01*
X002006Y002804D02*
X001756Y002554D01*
X001256Y002554D01*
X001006Y002804D01*
X001006Y003304D01*
X001256Y003554D01*
X001006Y003804D01*
X001006Y004304D01*
X001256Y004554D01*
X001756Y004554D01*
X002006Y004304D01*
X002006Y003804D01*
X001756Y003554D01*
X002006Y003304D01*
X002006Y002804D01*
X001756Y003554D02*
X001256Y003554D01*
X001256Y004554D02*
X001006Y004804D01*
X001006Y005304D01*
X001256Y005554D01*
X001006Y005804D01*
X001006Y006304D01*
X001256Y006554D01*
X001006Y006804D01*
X001006Y007304D01*
X001256Y007554D01*
X001006Y007804D01*
X001006Y008304D01*
X001256Y008554D01*
X001756Y008554D01*
X002006Y008304D01*
X002006Y007804D01*
X001756Y007554D01*
X002006Y007304D01*
X002006Y006804D01*
X001756Y006554D01*
X002006Y006304D01*
X002006Y005804D01*
X001756Y005554D01*
X002006Y005304D01*
X002006Y004804D01*
X001756Y004554D01*
X001756Y005554D02*
X001256Y005554D01*
X001256Y006554D02*
X001756Y006554D01*
X001756Y007554D02*
X001256Y007554D01*
X001256Y009054D02*
X001006Y009304D01*
X001006Y009804D01*
X001256Y010054D01*
X001756Y010054D01*
X002006Y009804D01*
X002256Y010054D01*
X002756Y010054D01*
X003006Y009804D01*
X003256Y010054D01*
X003756Y010054D01*
X004006Y009804D01*
X004256Y010054D01*
X004756Y010054D01*
X005006Y009804D01*
X005256Y010054D01*
X005756Y010054D01*
X006006Y009804D01*
X006256Y010054D01*
X006756Y010054D01*
X007006Y009804D01*
X007256Y010054D01*
X007756Y010054D01*
X008006Y009804D01*
X008256Y010054D01*
X008756Y010054D01*
X009006Y009804D01*
X009256Y010054D01*
X009756Y010054D01*
X010006Y009804D01*
X010256Y010054D01*
X010756Y010054D01*
X011006Y009804D01*
X011256Y010054D01*
X011756Y010054D01*
X012006Y009804D01*
X012256Y010054D01*
X012756Y010054D01*
X013006Y009804D01*
X013256Y010054D01*
X013756Y010054D01*
X014006Y009804D01*
X014256Y010054D01*
X014756Y010054D01*
X015006Y009804D01*
X015006Y009304D01*
X014756Y009054D01*
X014256Y009054D01*
X014006Y009304D01*
X013756Y009054D01*
X013256Y009054D01*
X013006Y009304D01*
X013006Y009804D01*
X014006Y009804D02*
X014006Y009304D01*
X013006Y009304D02*
X012756Y009054D01*
X012256Y009054D01*
X012006Y009304D01*
X011756Y009054D01*
X011256Y009054D01*
X011006Y009304D01*
X010756Y009054D01*
X010256Y009054D01*
X010006Y009304D01*
X010006Y009804D01*
X011006Y009804D02*
X011006Y009304D01*
X010006Y009304D02*
X009756Y009054D01*
X009256Y009054D01*
X009006Y009304D01*
X008756Y009054D01*
X008256Y009054D01*
X008006Y009304D01*
X007756Y009054D01*
X007256Y009054D01*
X007006Y009304D01*
X007006Y009804D01*
X008006Y009804D02*
X008006Y009304D01*
X007006Y009304D02*
X006756Y009054D01*
X006256Y009054D01*
X006006Y009304D01*
X005756Y009054D01*
X005256Y009054D01*
X005006Y009304D01*
X004756Y009054D01*
X004256Y009054D01*
X004006Y009304D01*
X004006Y009804D01*
X005006Y009804D02*
X005006Y009304D01*
X004006Y009304D02*
X003756Y009054D01*
X003256Y009054D01*
X003006Y009304D01*
X002756Y009054D01*
X002256Y009054D01*
X002006Y009304D01*
X001756Y009054D01*
X001256Y009054D01*
X002006Y009304D02*
X002006Y009804D01*
X003006Y009804D02*
X003006Y009304D01*
X006006Y009304D02*
X006006Y009804D01*
X009006Y009804D02*
X009006Y009304D01*
X012006Y009304D02*
X012006Y009804D01*
X015856Y009204D02*
X015856Y009054D01*
X015906Y009004D01*
X015906Y007604D01*
X015856Y007554D01*
X015856Y007404D01*
X015858Y007387D01*
X015862Y007370D01*
X015869Y007354D01*
X015879Y007340D01*
X015892Y007327D01*
X015906Y007317D01*
X015922Y007310D01*
X015939Y007306D01*
X015956Y007304D01*
X016556Y007304D01*
X016573Y007306D01*
X016590Y007310D01*
X016606Y007317D01*
X016620Y007327D01*
X016633Y007340D01*
X016643Y007354D01*
X016650Y007370D01*
X016654Y007387D01*
X016656Y007404D01*
X016656Y007554D01*
X016606Y007604D01*
X016606Y009004D01*
X016656Y009054D01*
X016656Y009204D01*
X016654Y009221D01*
X016650Y009238D01*
X016643Y009254D01*
X016633Y009268D01*
X016620Y009281D01*
X016606Y009291D01*
X016590Y009298D01*
X016573Y009302D01*
X016556Y009304D01*
X015956Y009304D01*
X015939Y009302D01*
X015922Y009298D01*
X015906Y009291D01*
X015892Y009281D01*
X015879Y009268D01*
X015869Y009254D01*
X015862Y009238D01*
X015858Y009221D01*
X015856Y009204D01*
X015956Y008954D02*
X016556Y008954D01*
X016573Y008952D01*
X016590Y008948D01*
X016606Y008941D01*
X016620Y008931D01*
X016633Y008918D01*
X016643Y008904D01*
X016650Y008888D01*
X016654Y008871D01*
X016656Y008854D01*
X016656Y007754D01*
X016654Y007737D01*
X016650Y007720D01*
X016643Y007704D01*
X016633Y007690D01*
X016620Y007677D01*
X016606Y007667D01*
X016590Y007660D01*
X016573Y007656D01*
X016556Y007654D01*
X015956Y007654D01*
X015939Y007656D01*
X015922Y007660D01*
X015906Y007667D01*
X015892Y007677D01*
X015879Y007690D01*
X015869Y007704D01*
X015862Y007720D01*
X015858Y007737D01*
X015856Y007754D01*
X015856Y008854D01*
X015858Y008871D01*
X015862Y008888D01*
X015869Y008904D01*
X015879Y008918D01*
X015892Y008931D01*
X015906Y008941D01*
X015922Y008948D01*
X015939Y008952D01*
X015956Y008954D01*
X017306Y009154D02*
X017306Y009954D01*
X017308Y009971D01*
X017312Y009988D01*
X017319Y010004D01*
X017329Y010018D01*
X017342Y010031D01*
X017356Y010041D01*
X017372Y010048D01*
X017389Y010052D01*
X017406Y010054D01*
X019106Y010054D01*
X019123Y010052D01*
X019140Y010048D01*
X019156Y010041D01*
X019170Y010031D01*
X019183Y010018D01*
X019193Y010004D01*
X019200Y009988D01*
X019204Y009971D01*
X019206Y009954D01*
X019206Y009154D01*
X019204Y009137D01*
X019200Y009120D01*
X019193Y009104D01*
X019183Y009090D01*
X019170Y009077D01*
X019156Y009067D01*
X019140Y009060D01*
X019123Y009056D01*
X019106Y009054D01*
X017406Y009054D01*
X017389Y009056D01*
X017372Y009060D01*
X017356Y009067D01*
X017342Y009077D01*
X017329Y009090D01*
X017319Y009104D01*
X017312Y009120D01*
X017308Y009137D01*
X017306Y009154D01*
X018106Y009554D02*
X018156Y009554D01*
X018356Y009554D02*
X018406Y009554D01*
X020006Y009304D02*
X020256Y009054D01*
X020756Y009054D01*
X021006Y009304D01*
X021256Y009054D01*
X021756Y009054D01*
X022006Y009304D01*
X022006Y009804D01*
X021756Y010054D01*
X021256Y010054D01*
X021006Y009804D01*
X021006Y009304D01*
X021006Y009804D02*
X020756Y010054D01*
X020256Y010054D01*
X020006Y009804D01*
X020006Y009304D01*
X019106Y008304D02*
X017406Y008304D01*
X017389Y008302D01*
X017372Y008298D01*
X017356Y008291D01*
X017342Y008281D01*
X017329Y008268D01*
X017319Y008254D01*
X017312Y008238D01*
X017308Y008221D01*
X017306Y008204D01*
X017306Y007404D01*
X017308Y007387D01*
X017312Y007370D01*
X017319Y007354D01*
X017329Y007340D01*
X017342Y007327D01*
X017356Y007317D01*
X017372Y007310D01*
X017389Y007306D01*
X017406Y007304D01*
X019106Y007304D01*
X019123Y007306D01*
X019140Y007310D01*
X019156Y007317D01*
X019170Y007327D01*
X019183Y007340D01*
X019193Y007354D01*
X019200Y007370D01*
X019204Y007387D01*
X019206Y007404D01*
X019206Y008204D01*
X019204Y008221D01*
X019200Y008238D01*
X019193Y008254D01*
X019183Y008268D01*
X019170Y008281D01*
X019156Y008291D01*
X019140Y008298D01*
X019123Y008302D01*
X019106Y008304D01*
X018406Y007804D02*
X018356Y007804D01*
X018156Y007804D02*
X018106Y007804D01*
X015006Y006804D02*
X015006Y006304D01*
X014756Y006054D01*
X015006Y005804D01*
X015006Y005304D01*
X014756Y005054D01*
X015006Y004804D01*
X015006Y004304D01*
X014756Y004054D01*
X014256Y004054D01*
X014006Y004304D01*
X014006Y004804D01*
X014256Y005054D01*
X014006Y005304D01*
X014006Y005804D01*
X014256Y006054D01*
X014006Y006304D01*
X014006Y006804D01*
X014256Y007054D01*
X014756Y007054D01*
X015006Y006804D01*
X014756Y006054D02*
X014256Y006054D01*
X014256Y005054D02*
X014756Y005054D01*
X016431Y004079D02*
X016431Y003979D01*
X016331Y003979D01*
X016331Y003379D01*
X016431Y003379D01*
X016431Y003279D01*
X017531Y003679D02*
X017533Y003699D01*
X017539Y003717D01*
X017548Y003735D01*
X017560Y003750D01*
X017575Y003762D01*
X017593Y003771D01*
X017611Y003777D01*
X017631Y003779D01*
X017651Y003777D01*
X017669Y003771D01*
X017687Y003762D01*
X017702Y003750D01*
X017714Y003735D01*
X017723Y003717D01*
X017729Y003699D01*
X017731Y003679D01*
X017729Y003659D01*
X017723Y003641D01*
X017714Y003623D01*
X017702Y003608D01*
X017687Y003596D01*
X017669Y003587D01*
X017651Y003581D01*
X017631Y003579D01*
X017611Y003581D01*
X017593Y003587D01*
X017575Y003596D01*
X017560Y003608D01*
X017548Y003623D01*
X017539Y003641D01*
X017533Y003659D01*
X017531Y003679D01*
X016931Y003679D02*
X016933Y003731D01*
X016939Y003783D01*
X016949Y003835D01*
X016962Y003885D01*
X016979Y003935D01*
X017000Y003983D01*
X017025Y004029D01*
X017053Y004073D01*
X017084Y004115D01*
X017118Y004155D01*
X017155Y004192D01*
X017195Y004226D01*
X017237Y004257D01*
X017281Y004285D01*
X017327Y004310D01*
X017375Y004331D01*
X017425Y004348D01*
X017475Y004361D01*
X017527Y004371D01*
X017579Y004377D01*
X017631Y004379D01*
X017683Y004377D01*
X017735Y004371D01*
X017787Y004361D01*
X017837Y004348D01*
X017887Y004331D01*
X017935Y004310D01*
X017981Y004285D01*
X018025Y004257D01*
X018067Y004226D01*
X018107Y004192D01*
X018144Y004155D01*
X018178Y004115D01*
X018209Y004073D01*
X018237Y004029D01*
X018262Y003983D01*
X018283Y003935D01*
X018300Y003885D01*
X018313Y003835D01*
X018323Y003783D01*
X018329Y003731D01*
X018331Y003679D01*
X018329Y003627D01*
X018323Y003575D01*
X018313Y003523D01*
X018300Y003473D01*
X018283Y003423D01*
X018262Y003375D01*
X018237Y003329D01*
X018209Y003285D01*
X018178Y003243D01*
X018144Y003203D01*
X018107Y003166D01*
X018067Y003132D01*
X018025Y003101D01*
X017981Y003073D01*
X017935Y003048D01*
X017887Y003027D01*
X017837Y003010D01*
X017787Y002997D01*
X017735Y002987D01*
X017683Y002981D01*
X017631Y002979D01*
X017579Y002981D01*
X017527Y002987D01*
X017475Y002997D01*
X017425Y003010D01*
X017375Y003027D01*
X017327Y003048D01*
X017281Y003073D01*
X017237Y003101D01*
X017195Y003132D01*
X017155Y003166D01*
X017118Y003203D01*
X017084Y003243D01*
X017053Y003285D01*
X017025Y003329D01*
X017000Y003375D01*
X016979Y003423D01*
X016962Y003473D01*
X016949Y003523D01*
X016939Y003575D01*
X016933Y003627D01*
X016931Y003679D01*
X018831Y003379D02*
X018831Y003279D01*
X018831Y003379D02*
X018931Y003379D01*
X018931Y003979D01*
X018831Y003979D01*
X018831Y004079D01*
X018481Y004879D02*
X018131Y004879D01*
X017131Y004879D01*
X016781Y004879D01*
X021006Y004804D02*
X021006Y005304D01*
X021256Y005554D01*
X021006Y005804D01*
X021006Y006304D01*
X021256Y006554D01*
X021756Y006554D01*
X022006Y006304D01*
X022006Y005804D01*
X021756Y005554D01*
X022006Y005304D01*
X022006Y004804D01*
X021756Y004554D01*
X022006Y004304D01*
X022006Y003804D01*
X021756Y003554D01*
X022006Y003304D01*
X022006Y002804D01*
X021756Y002554D01*
X021256Y002554D01*
X021006Y002804D01*
X021006Y003304D01*
X021256Y003554D01*
X021006Y003804D01*
X021006Y004304D01*
X021256Y004554D01*
X021756Y004554D01*
X021256Y004554D02*
X021006Y004804D01*
X021256Y005554D02*
X021756Y005554D01*
X021756Y003554D02*
X021256Y003554D01*
X018481Y002479D02*
X018081Y002479D01*
X017131Y002479D01*
X016781Y002479D01*
X015006Y001804D02*
X015006Y001304D01*
X014756Y001054D01*
X014256Y001054D01*
X014006Y001304D01*
X013756Y001054D01*
X013256Y001054D01*
X013006Y001304D01*
X012756Y001054D01*
X012256Y001054D01*
X012006Y001304D01*
X011756Y001054D01*
X011256Y001054D01*
X011006Y001304D01*
X010756Y001054D01*
X010256Y001054D01*
X010006Y001304D01*
X009756Y001054D01*
X009256Y001054D01*
X009006Y001304D01*
X008756Y001054D01*
X008256Y001054D01*
X008006Y001304D01*
X007756Y001054D01*
X007256Y001054D01*
X007006Y001304D01*
X006756Y001054D01*
X006256Y001054D01*
X006006Y001304D01*
X007006Y001304D02*
X007006Y001804D01*
X007256Y002054D01*
X007756Y002054D01*
X008006Y001804D01*
X008256Y002054D01*
X008756Y002054D01*
X009006Y001804D01*
X009006Y001304D01*
X010006Y001304D02*
X010006Y001804D01*
X010256Y002054D01*
X010756Y002054D01*
X011006Y001804D01*
X011256Y002054D01*
X011756Y002054D01*
X012006Y001804D01*
X012006Y001304D01*
X013006Y001304D02*
X013006Y001804D01*
X013256Y002054D01*
X013756Y002054D01*
X014006Y001804D01*
X014256Y002054D01*
X014756Y002054D01*
X015006Y001804D01*
X014006Y001804D02*
X014006Y001304D01*
X013006Y001804D02*
X012756Y002054D01*
X012256Y002054D01*
X012006Y001804D01*
X011006Y001804D02*
X011006Y001304D01*
X010006Y001804D02*
X009756Y002054D01*
X009256Y002054D01*
X009006Y001804D01*
X008006Y001804D02*
X008006Y001304D01*
X007006Y001804D02*
X006756Y002054D01*
X006256Y002054D01*
X006006Y001804D01*
D15*
X017131Y002479D02*
X017131Y002579D01*
X018081Y002579D01*
X018081Y002479D01*
X018131Y004779D02*
X017131Y004779D01*
X017131Y004879D01*
X018131Y004879D02*
X018131Y004779D01*
D16*
X018156Y007504D02*
X018156Y007804D01*
X018156Y008104D01*
X018356Y008104D02*
X018356Y007804D01*
X018356Y007504D01*
X018356Y009254D02*
X018356Y009554D01*
X018356Y009854D01*
X018156Y009854D02*
X018156Y009554D01*
X018156Y009254D01*
D17*
X016256Y009379D03*
X016256Y007229D03*
M02*
