%
M48
M72
T01C0.0200
T02C0.0320
T03C0.0400
%
T01
X9656Y4154
X10656Y3554
X12156Y2854
X11756Y4654
X11656Y5754
X11056Y5954
X9156Y6754
X10056Y7154
X10956Y6954
X10956Y7454
X12556Y7654
X12556Y8354
X12056Y8354
X10956Y8854
X10056Y8754
X6856Y7454
X8156Y6154
X6856Y6054
X8156Y5254
X7456Y4954
X4056Y6654
X2856Y8654
X14256Y7654
T02
X16256Y6804
X17756Y7804
X18756Y7804
X18756Y9554
X17756Y9554
X16256Y9804
T03
X1506Y1554
X2506Y1554
X3506Y1554
X4506Y1554
X5506Y1554
X6506Y1554
X7506Y1554
X8506Y1554
X9506Y1554
X10506Y1554
X11506Y1554
X12506Y1554
X13506Y1554
X14506Y1554
X16351Y2789
X18911Y2789
X21506Y3054
X21506Y4054
X21506Y5054
X21506Y6054
X18911Y4569
X16351Y4569
X14506Y4554
X14506Y5554
X14506Y6554
X14506Y9554
X13506Y9554
X12506Y9554
X11506Y9554
X10506Y9554
X9506Y9554
X8506Y9554
X7506Y9554
X6506Y9554
X5506Y9554
X4506Y9554
X3506Y9554
X2506Y9554
X1506Y9554
X1506Y8054
X1506Y7054
X1506Y6054
X1506Y5054
X1506Y4054
X1506Y3054
X20506Y9554
X21506Y9554
M30
