G75*
G70*
%OFA0B0*%
%FSLAX24Y24*%
%IPPOS*%
%LPD*%
%AMOC8*
5,1,8,0,0,1.08239X$1,22.5*
%
%ADD10C,0.0680*%
%ADD11OC8,0.0560*%
%ADD12R,0.0710X0.0540*%
%ADD13R,0.0720X0.0060*%
%ADD14C,0.0420*%
D10*
X001506Y001254D02*
X001506Y001854D01*
X002506Y001854D02*
X002506Y001254D01*
X003506Y001254D02*
X003506Y001854D01*
X004506Y001854D02*
X004506Y001254D01*
X005506Y001254D02*
X005506Y001854D01*
X006506Y001854D02*
X006506Y001254D01*
X007506Y001254D02*
X007506Y001854D01*
X008506Y001854D02*
X008506Y001254D01*
X009506Y001254D02*
X009506Y001854D01*
X010506Y001854D02*
X010506Y001254D01*
X011506Y001254D02*
X011506Y001854D01*
X012506Y001854D02*
X012506Y001254D01*
X013506Y001254D02*
X013506Y001854D01*
X014506Y001854D02*
X014506Y001254D01*
X016051Y002789D02*
X016651Y002789D01*
X018611Y002789D02*
X019211Y002789D01*
X021206Y003054D02*
X021806Y003054D01*
X021806Y004054D02*
X021206Y004054D01*
X019211Y004569D02*
X018611Y004569D01*
X016651Y004569D02*
X016051Y004569D01*
X014806Y004554D02*
X014206Y004554D01*
X014206Y005554D02*
X014806Y005554D01*
X014806Y006554D02*
X014206Y006554D01*
X014506Y009254D02*
X014506Y009854D01*
X013506Y009854D02*
X013506Y009254D01*
X012506Y009254D02*
X012506Y009854D01*
X011506Y009854D02*
X011506Y009254D01*
X010506Y009254D02*
X010506Y009854D01*
X009506Y009854D02*
X009506Y009254D01*
X008506Y009254D02*
X008506Y009854D01*
X007506Y009854D02*
X007506Y009254D01*
X006506Y009254D02*
X006506Y009854D01*
X005506Y009854D02*
X005506Y009254D01*
X004506Y009254D02*
X004506Y009854D01*
X003506Y009854D02*
X003506Y009254D01*
X002506Y009254D02*
X002506Y009854D01*
X001506Y009854D02*
X001506Y009254D01*
X001806Y008054D02*
X001206Y008054D01*
X001206Y007054D02*
X001806Y007054D01*
X001806Y006054D02*
X001206Y006054D01*
X001206Y005054D02*
X001806Y005054D01*
X001806Y004054D02*
X001206Y004054D01*
X001206Y003054D02*
X001806Y003054D01*
X020506Y009254D02*
X020506Y009854D01*
X021506Y009854D02*
X021506Y009254D01*
X021806Y006054D02*
X021206Y006054D01*
X021206Y005054D02*
X021806Y005054D01*
D11*
X016256Y006804D03*
X017756Y007804D03*
X018756Y007804D03*
X018756Y009554D03*
X017756Y009554D03*
X016256Y009804D03*
D12*
X008756Y005854D03*
X008756Y005254D03*
D13*
X008756Y005554D03*
D14*
X008156Y005254D03*
X007456Y004954D03*
X009656Y004154D03*
X010656Y003554D03*
X012156Y002854D03*
X011756Y004654D03*
X011656Y005754D03*
X011056Y005954D03*
X009156Y006754D03*
X010056Y007154D03*
X010956Y006954D03*
X010956Y007454D03*
X012556Y007654D03*
X012556Y008354D03*
X012056Y008354D03*
X010956Y008854D03*
X010056Y008754D03*
X006856Y007454D03*
X008156Y006154D03*
X006856Y006054D03*
X004056Y006654D03*
X002856Y008654D03*
X014256Y007654D03*
M02*
