G75*
G70*
%OFA0B0*%
%FSLAX24Y24*%
%IPPOS*%
%LPD*%
%AMOC8*
5,1,8,0,0,1.08239X$1,22.5*
%
%ADD10C,0.0072*%
%ADD11C,0.0600*%
%ADD12OC8,0.0480*%
%ADD13R,0.0630X0.0460*%
%ADD14C,0.0160*%
%ADD15C,0.0100*%
%ADD16C,0.0340*%
D10*
X004004Y002642D02*
X004004Y003152D01*
X004004Y002642D02*
X003716Y002642D01*
X003716Y003152D01*
X004004Y003152D01*
X004004Y002713D02*
X003716Y002713D01*
X003716Y002784D02*
X004004Y002784D01*
X004004Y002855D02*
X003716Y002855D01*
X003716Y002926D02*
X004004Y002926D01*
X004004Y002997D02*
X003716Y002997D01*
X003716Y003068D02*
X004004Y003068D01*
X004004Y003139D02*
X003716Y003139D01*
X004595Y003270D02*
X004595Y002642D01*
X004307Y002642D01*
X004307Y003270D01*
X004595Y003270D01*
X004595Y002713D02*
X004307Y002713D01*
X004307Y002784D02*
X004595Y002784D01*
X004595Y002855D02*
X004307Y002855D01*
X004307Y002926D02*
X004595Y002926D01*
X004595Y002997D02*
X004307Y002997D01*
X004307Y003068D02*
X004595Y003068D01*
X004595Y003139D02*
X004307Y003139D01*
X004307Y003210D02*
X004595Y003210D01*
X005185Y003270D02*
X005185Y002642D01*
X004897Y002642D01*
X004897Y003270D01*
X005185Y003270D01*
X005185Y002713D02*
X004897Y002713D01*
X004897Y002784D02*
X005185Y002784D01*
X005185Y002855D02*
X004897Y002855D01*
X004897Y002926D02*
X005185Y002926D01*
X005185Y002997D02*
X004897Y002997D01*
X004897Y003068D02*
X005185Y003068D01*
X005185Y003139D02*
X004897Y003139D01*
X004897Y003210D02*
X005185Y003210D01*
X005776Y003270D02*
X005776Y002642D01*
X005488Y002642D01*
X005488Y003270D01*
X005776Y003270D01*
X005776Y002713D02*
X005488Y002713D01*
X005488Y002784D02*
X005776Y002784D01*
X005776Y002855D02*
X005488Y002855D01*
X005488Y002926D02*
X005776Y002926D01*
X005776Y002997D02*
X005488Y002997D01*
X005488Y003068D02*
X005776Y003068D01*
X005776Y003139D02*
X005488Y003139D01*
X005488Y003210D02*
X005776Y003210D01*
X006366Y003270D02*
X006366Y002642D01*
X006078Y002642D01*
X006078Y003270D01*
X006366Y003270D01*
X006366Y002713D02*
X006078Y002713D01*
X006078Y002784D02*
X006366Y002784D01*
X006366Y002855D02*
X006078Y002855D01*
X006078Y002926D02*
X006366Y002926D01*
X006366Y002997D02*
X006078Y002997D01*
X006078Y003068D02*
X006366Y003068D01*
X006366Y003139D02*
X006078Y003139D01*
X006078Y003210D02*
X006366Y003210D01*
X006957Y003270D02*
X006957Y002642D01*
X006669Y002642D01*
X006669Y003270D01*
X006957Y003270D01*
X006957Y002713D02*
X006669Y002713D01*
X006669Y002784D02*
X006957Y002784D01*
X006957Y002855D02*
X006669Y002855D01*
X006669Y002926D02*
X006957Y002926D01*
X006957Y002997D02*
X006669Y002997D01*
X006669Y003068D02*
X006957Y003068D01*
X006957Y003139D02*
X006669Y003139D01*
X006669Y003210D02*
X006957Y003210D01*
X007548Y003270D02*
X007548Y002642D01*
X007260Y002642D01*
X007260Y003270D01*
X007548Y003270D01*
X007548Y002713D02*
X007260Y002713D01*
X007260Y002784D02*
X007548Y002784D01*
X007548Y002855D02*
X007260Y002855D01*
X007260Y002926D02*
X007548Y002926D01*
X007548Y002997D02*
X007260Y002997D01*
X007260Y003068D02*
X007548Y003068D01*
X007548Y003139D02*
X007260Y003139D01*
X007260Y003210D02*
X007548Y003210D01*
X008138Y003270D02*
X008138Y002642D01*
X007850Y002642D01*
X007850Y003270D01*
X008138Y003270D01*
X008138Y002713D02*
X007850Y002713D01*
X007850Y002784D02*
X008138Y002784D01*
X008138Y002855D02*
X007850Y002855D01*
X007850Y002926D02*
X008138Y002926D01*
X008138Y002997D02*
X007850Y002997D01*
X007850Y003068D02*
X008138Y003068D01*
X008138Y003139D02*
X007850Y003139D01*
X007850Y003210D02*
X008138Y003210D01*
X008729Y003270D02*
X008729Y002642D01*
X008441Y002642D01*
X008441Y003270D01*
X008729Y003270D01*
X008729Y002713D02*
X008441Y002713D01*
X008441Y002784D02*
X008729Y002784D01*
X008729Y002855D02*
X008441Y002855D01*
X008441Y002926D02*
X008729Y002926D01*
X008729Y002997D02*
X008441Y002997D01*
X008441Y003068D02*
X008729Y003068D01*
X008729Y003139D02*
X008441Y003139D01*
X008441Y003210D02*
X008729Y003210D01*
X009319Y003270D02*
X009319Y002642D01*
X009031Y002642D01*
X009031Y003270D01*
X009319Y003270D01*
X009319Y002713D02*
X009031Y002713D01*
X009031Y002784D02*
X009319Y002784D01*
X009319Y002855D02*
X009031Y002855D01*
X009031Y002926D02*
X009319Y002926D01*
X009319Y002997D02*
X009031Y002997D01*
X009031Y003068D02*
X009319Y003068D01*
X009319Y003139D02*
X009031Y003139D01*
X009031Y003210D02*
X009319Y003210D01*
X009910Y003270D02*
X009910Y002642D01*
X009622Y002642D01*
X009622Y003270D01*
X009910Y003270D01*
X009910Y002713D02*
X009622Y002713D01*
X009622Y002784D02*
X009910Y002784D01*
X009910Y002855D02*
X009622Y002855D01*
X009622Y002926D02*
X009910Y002926D01*
X009910Y002997D02*
X009622Y002997D01*
X009622Y003068D02*
X009910Y003068D01*
X009910Y003139D02*
X009622Y003139D01*
X009622Y003210D02*
X009910Y003210D01*
X010500Y003270D02*
X010500Y002642D01*
X010212Y002642D01*
X010212Y003270D01*
X010500Y003270D01*
X010500Y002713D02*
X010212Y002713D01*
X010212Y002784D02*
X010500Y002784D01*
X010500Y002855D02*
X010212Y002855D01*
X010212Y002926D02*
X010500Y002926D01*
X010500Y002997D02*
X010212Y002997D01*
X010212Y003068D02*
X010500Y003068D01*
X010500Y003139D02*
X010212Y003139D01*
X010212Y003210D02*
X010500Y003210D01*
X011091Y003270D02*
X011091Y002642D01*
X010803Y002642D01*
X010803Y003270D01*
X011091Y003270D01*
X011091Y002713D02*
X010803Y002713D01*
X010803Y002784D02*
X011091Y002784D01*
X011091Y002855D02*
X010803Y002855D01*
X010803Y002926D02*
X011091Y002926D01*
X011091Y002997D02*
X010803Y002997D01*
X010803Y003068D02*
X011091Y003068D01*
X011091Y003139D02*
X010803Y003139D01*
X010803Y003210D02*
X011091Y003210D01*
X011681Y003152D02*
X011681Y002642D01*
X011393Y002642D01*
X011393Y003152D01*
X011681Y003152D01*
X011681Y002713D02*
X011393Y002713D01*
X011393Y002784D02*
X011681Y002784D01*
X011681Y002855D02*
X011393Y002855D01*
X011393Y002926D02*
X011681Y002926D01*
X011681Y002997D02*
X011393Y002997D01*
X011393Y003068D02*
X011681Y003068D01*
X011681Y003139D02*
X011393Y003139D01*
X013231Y004820D02*
X013741Y004820D01*
X013231Y004820D02*
X013231Y005108D01*
X013741Y005108D01*
X013741Y004820D01*
X013741Y004891D02*
X013231Y004891D01*
X013231Y004962D02*
X013741Y004962D01*
X013741Y005033D02*
X013231Y005033D01*
X013231Y005104D02*
X013741Y005104D01*
X013741Y005410D02*
X013113Y005410D01*
X013113Y005698D01*
X013741Y005698D01*
X013741Y005410D01*
X013741Y005481D02*
X013113Y005481D01*
X013113Y005552D02*
X013741Y005552D01*
X013741Y005623D02*
X013113Y005623D01*
X013113Y005694D02*
X013741Y005694D01*
X013741Y006001D02*
X013231Y006001D01*
X013231Y006289D01*
X013741Y006289D01*
X013741Y006001D01*
X013741Y006072D02*
X013231Y006072D01*
X013231Y006143D02*
X013741Y006143D01*
X013741Y006214D02*
X013231Y006214D01*
X013231Y006285D02*
X013741Y006285D01*
X011681Y007957D02*
X011681Y008467D01*
X011681Y007957D02*
X011393Y007957D01*
X011393Y008467D01*
X011681Y008467D01*
X011681Y008028D02*
X011393Y008028D01*
X011393Y008099D02*
X011681Y008099D01*
X011681Y008170D02*
X011393Y008170D01*
X011393Y008241D02*
X011681Y008241D01*
X011681Y008312D02*
X011393Y008312D01*
X011393Y008383D02*
X011681Y008383D01*
X011681Y008454D02*
X011393Y008454D01*
X011091Y008467D02*
X011091Y007839D01*
X010803Y007839D01*
X010803Y008467D01*
X011091Y008467D01*
X011091Y007910D02*
X010803Y007910D01*
X010803Y007981D02*
X011091Y007981D01*
X011091Y008052D02*
X010803Y008052D01*
X010803Y008123D02*
X011091Y008123D01*
X011091Y008194D02*
X010803Y008194D01*
X010803Y008265D02*
X011091Y008265D01*
X011091Y008336D02*
X010803Y008336D01*
X010803Y008407D02*
X011091Y008407D01*
X010500Y008467D02*
X010500Y007839D01*
X010212Y007839D01*
X010212Y008467D01*
X010500Y008467D01*
X010500Y007910D02*
X010212Y007910D01*
X010212Y007981D02*
X010500Y007981D01*
X010500Y008052D02*
X010212Y008052D01*
X010212Y008123D02*
X010500Y008123D01*
X010500Y008194D02*
X010212Y008194D01*
X010212Y008265D02*
X010500Y008265D01*
X010500Y008336D02*
X010212Y008336D01*
X010212Y008407D02*
X010500Y008407D01*
X009910Y008467D02*
X009910Y007839D01*
X009622Y007839D01*
X009622Y008467D01*
X009910Y008467D01*
X009910Y007910D02*
X009622Y007910D01*
X009622Y007981D02*
X009910Y007981D01*
X009910Y008052D02*
X009622Y008052D01*
X009622Y008123D02*
X009910Y008123D01*
X009910Y008194D02*
X009622Y008194D01*
X009622Y008265D02*
X009910Y008265D01*
X009910Y008336D02*
X009622Y008336D01*
X009622Y008407D02*
X009910Y008407D01*
X009319Y008467D02*
X009319Y007839D01*
X009031Y007839D01*
X009031Y008467D01*
X009319Y008467D01*
X009319Y007910D02*
X009031Y007910D01*
X009031Y007981D02*
X009319Y007981D01*
X009319Y008052D02*
X009031Y008052D01*
X009031Y008123D02*
X009319Y008123D01*
X009319Y008194D02*
X009031Y008194D01*
X009031Y008265D02*
X009319Y008265D01*
X009319Y008336D02*
X009031Y008336D01*
X009031Y008407D02*
X009319Y008407D01*
X008729Y008467D02*
X008729Y007839D01*
X008441Y007839D01*
X008441Y008467D01*
X008729Y008467D01*
X008729Y007910D02*
X008441Y007910D01*
X008441Y007981D02*
X008729Y007981D01*
X008729Y008052D02*
X008441Y008052D01*
X008441Y008123D02*
X008729Y008123D01*
X008729Y008194D02*
X008441Y008194D01*
X008441Y008265D02*
X008729Y008265D01*
X008729Y008336D02*
X008441Y008336D01*
X008441Y008407D02*
X008729Y008407D01*
X008138Y008467D02*
X008138Y007839D01*
X007850Y007839D01*
X007850Y008467D01*
X008138Y008467D01*
X008138Y007910D02*
X007850Y007910D01*
X007850Y007981D02*
X008138Y007981D01*
X008138Y008052D02*
X007850Y008052D01*
X007850Y008123D02*
X008138Y008123D01*
X008138Y008194D02*
X007850Y008194D01*
X007850Y008265D02*
X008138Y008265D01*
X008138Y008336D02*
X007850Y008336D01*
X007850Y008407D02*
X008138Y008407D01*
X007548Y008467D02*
X007548Y007839D01*
X007260Y007839D01*
X007260Y008467D01*
X007548Y008467D01*
X007548Y007910D02*
X007260Y007910D01*
X007260Y007981D02*
X007548Y007981D01*
X007548Y008052D02*
X007260Y008052D01*
X007260Y008123D02*
X007548Y008123D01*
X007548Y008194D02*
X007260Y008194D01*
X007260Y008265D02*
X007548Y008265D01*
X007548Y008336D02*
X007260Y008336D01*
X007260Y008407D02*
X007548Y008407D01*
X006957Y008467D02*
X006957Y007839D01*
X006669Y007839D01*
X006669Y008467D01*
X006957Y008467D01*
X006957Y007910D02*
X006669Y007910D01*
X006669Y007981D02*
X006957Y007981D01*
X006957Y008052D02*
X006669Y008052D01*
X006669Y008123D02*
X006957Y008123D01*
X006957Y008194D02*
X006669Y008194D01*
X006669Y008265D02*
X006957Y008265D01*
X006957Y008336D02*
X006669Y008336D01*
X006669Y008407D02*
X006957Y008407D01*
X006366Y008467D02*
X006366Y007839D01*
X006078Y007839D01*
X006078Y008467D01*
X006366Y008467D01*
X006366Y007910D02*
X006078Y007910D01*
X006078Y007981D02*
X006366Y007981D01*
X006366Y008052D02*
X006078Y008052D01*
X006078Y008123D02*
X006366Y008123D01*
X006366Y008194D02*
X006078Y008194D01*
X006078Y008265D02*
X006366Y008265D01*
X006366Y008336D02*
X006078Y008336D01*
X006078Y008407D02*
X006366Y008407D01*
X005776Y008467D02*
X005776Y007839D01*
X005488Y007839D01*
X005488Y008467D01*
X005776Y008467D01*
X005776Y007910D02*
X005488Y007910D01*
X005488Y007981D02*
X005776Y007981D01*
X005776Y008052D02*
X005488Y008052D01*
X005488Y008123D02*
X005776Y008123D01*
X005776Y008194D02*
X005488Y008194D01*
X005488Y008265D02*
X005776Y008265D01*
X005776Y008336D02*
X005488Y008336D01*
X005488Y008407D02*
X005776Y008407D01*
X005185Y008467D02*
X005185Y007839D01*
X004897Y007839D01*
X004897Y008467D01*
X005185Y008467D01*
X005185Y007910D02*
X004897Y007910D01*
X004897Y007981D02*
X005185Y007981D01*
X005185Y008052D02*
X004897Y008052D01*
X004897Y008123D02*
X005185Y008123D01*
X005185Y008194D02*
X004897Y008194D01*
X004897Y008265D02*
X005185Y008265D01*
X005185Y008336D02*
X004897Y008336D01*
X004897Y008407D02*
X005185Y008407D01*
X004595Y008467D02*
X004595Y007839D01*
X004307Y007839D01*
X004307Y008467D01*
X004595Y008467D01*
X004595Y007910D02*
X004307Y007910D01*
X004307Y007981D02*
X004595Y007981D01*
X004595Y008052D02*
X004307Y008052D01*
X004307Y008123D02*
X004595Y008123D01*
X004595Y008194D02*
X004307Y008194D01*
X004307Y008265D02*
X004595Y008265D01*
X004595Y008336D02*
X004307Y008336D01*
X004307Y008407D02*
X004595Y008407D01*
X004004Y008467D02*
X004004Y007957D01*
X003716Y007957D01*
X003716Y008467D01*
X004004Y008467D01*
X004004Y008028D02*
X003716Y008028D01*
X003716Y008099D02*
X004004Y008099D01*
X004004Y008170D02*
X003716Y008170D01*
X003716Y008241D02*
X004004Y008241D01*
X004004Y008312D02*
X003716Y008312D01*
X003716Y008383D02*
X004004Y008383D01*
X004004Y008454D02*
X003716Y008454D01*
D11*
X003506Y009254D02*
X003506Y009854D01*
X004506Y009854D02*
X004506Y009254D01*
X005506Y009254D02*
X005506Y009854D01*
X006506Y009854D02*
X006506Y009254D01*
X007506Y009254D02*
X007506Y009854D01*
X008506Y009854D02*
X008506Y009254D01*
X009506Y009254D02*
X009506Y009854D01*
X010506Y009854D02*
X010506Y009254D01*
X011506Y009254D02*
X011506Y009854D01*
X012506Y009854D02*
X012506Y009254D01*
X013506Y009254D02*
X013506Y009854D01*
X014506Y009854D02*
X014506Y009254D01*
X014806Y006554D02*
X014206Y006554D01*
X014206Y005554D02*
X014806Y005554D01*
X014806Y004554D02*
X014206Y004554D01*
X016051Y004569D02*
X016651Y004569D01*
X018611Y004569D02*
X019211Y004569D01*
X021206Y005054D02*
X021806Y005054D01*
X021806Y004054D02*
X021206Y004054D01*
X021206Y003054D02*
X021806Y003054D01*
X019211Y002789D02*
X018611Y002789D01*
X016651Y002789D02*
X016051Y002789D01*
X014506Y001854D02*
X014506Y001254D01*
X013506Y001254D02*
X013506Y001854D01*
X012506Y001854D02*
X012506Y001254D01*
X011506Y001254D02*
X011506Y001854D01*
X010506Y001854D02*
X010506Y001254D01*
X009506Y001254D02*
X009506Y001854D01*
X008506Y001854D02*
X008506Y001254D01*
X007506Y001254D02*
X007506Y001854D01*
X006506Y001854D02*
X006506Y001254D01*
X005506Y001254D02*
X005506Y001854D01*
X004506Y001854D02*
X004506Y001254D01*
X003506Y001254D02*
X003506Y001854D01*
X002506Y001854D02*
X002506Y001254D01*
X001506Y001254D02*
X001506Y001854D01*
X001806Y003054D02*
X001206Y003054D01*
X001206Y004054D02*
X001806Y004054D01*
X001806Y005054D02*
X001206Y005054D01*
X001206Y006054D02*
X001806Y006054D01*
X001806Y007054D02*
X001206Y007054D01*
X001206Y008054D02*
X001806Y008054D01*
X001506Y009254D02*
X001506Y009854D01*
X002506Y009854D02*
X002506Y009254D01*
X020506Y009254D02*
X020506Y009854D01*
X021506Y009854D02*
X021506Y009254D01*
X021806Y006054D02*
X021206Y006054D01*
D12*
X018756Y007804D03*
X017756Y007804D03*
X016256Y006804D03*
X017756Y009554D03*
X018756Y009554D03*
X016256Y009804D03*
D13*
X016256Y008604D03*
X016256Y008004D03*
D14*
X000986Y002626D02*
X000986Y000784D01*
X001405Y000784D01*
X001393Y000786D01*
X001322Y000809D01*
X001254Y000844D01*
X001193Y000888D01*
X001140Y000942D01*
X001095Y001003D01*
X001061Y001070D01*
X001038Y001142D01*
X001026Y001217D01*
X001026Y001534D01*
X001486Y001534D01*
X001486Y001574D01*
X001026Y001574D01*
X001026Y001892D01*
X001038Y001967D01*
X001061Y002039D01*
X001095Y002106D01*
X001140Y002167D01*
X001193Y002220D01*
X001254Y002265D01*
X001322Y002299D01*
X001393Y002322D01*
X001468Y002334D01*
X001486Y002334D01*
X001486Y001575D01*
X001526Y001575D01*
X001526Y002334D01*
X001544Y002334D01*
X001618Y002322D01*
X001690Y002299D01*
X001757Y002265D01*
X001819Y002220D01*
X001872Y002167D01*
X001916Y002106D01*
X001951Y002039D01*
X001974Y001967D01*
X001986Y001892D01*
X001986Y001574D01*
X001526Y001574D01*
X001526Y001534D01*
X001986Y001534D01*
X001986Y001217D01*
X001974Y001142D01*
X001951Y001070D01*
X001916Y001003D01*
X001872Y000942D01*
X001819Y000888D01*
X001757Y000844D01*
X001690Y000809D01*
X001618Y000786D01*
X001606Y000784D01*
X002386Y000784D01*
X002234Y000847D01*
X002099Y000982D01*
X002026Y001159D01*
X002026Y001950D01*
X002099Y002126D01*
X002126Y002153D01*
X002126Y002550D01*
X002261Y002684D01*
X003461Y003884D01*
X003651Y003884D01*
X004251Y003884D01*
X004386Y003750D01*
X004586Y003550D01*
X004586Y003486D01*
X004684Y003486D01*
X004746Y003424D01*
X004808Y003486D01*
X005275Y003486D01*
X005337Y003424D01*
X005398Y003486D01*
X005865Y003486D01*
X005927Y003424D01*
X005989Y003486D01*
X006026Y003486D01*
X006026Y003850D01*
X006161Y003984D01*
X007106Y004930D01*
X007106Y005024D01*
X007159Y005153D01*
X007258Y005251D01*
X007312Y005273D01*
X006881Y005704D01*
X006786Y005704D01*
X006658Y005758D01*
X006559Y005856D01*
X006506Y005985D01*
X006506Y006124D01*
X006559Y006253D01*
X006658Y006351D01*
X006712Y006373D01*
X006161Y006924D01*
X006106Y006979D01*
X002283Y003156D01*
X002286Y003150D01*
X002286Y002959D01*
X002213Y002782D01*
X002078Y002647D01*
X001901Y002574D01*
X001110Y002574D01*
X000986Y002626D01*
X000986Y002615D02*
X001011Y002615D01*
X000986Y002457D02*
X002126Y002457D01*
X002192Y002615D02*
X002001Y002615D01*
X002204Y002774D02*
X002350Y002774D01*
X002275Y002932D02*
X002509Y002932D01*
X002667Y003091D02*
X002286Y003091D01*
X002376Y003250D02*
X002826Y003250D01*
X002984Y003408D02*
X002535Y003408D01*
X002693Y003567D02*
X003143Y003567D01*
X003302Y003725D02*
X002852Y003725D01*
X003011Y003884D02*
X003460Y003884D01*
X003169Y004042D02*
X006219Y004042D01*
X006377Y004201D02*
X003328Y004201D01*
X003486Y004359D02*
X006536Y004359D01*
X006694Y004518D02*
X003645Y004518D01*
X003803Y004676D02*
X006853Y004676D01*
X007011Y004835D02*
X003962Y004835D01*
X004120Y004994D02*
X007106Y004994D01*
X007159Y005152D02*
X004279Y005152D01*
X004437Y005311D02*
X007274Y005311D01*
X007116Y005469D02*
X004596Y005469D01*
X004755Y005628D02*
X006957Y005628D01*
X006629Y005786D02*
X004913Y005786D01*
X005072Y005945D02*
X006522Y005945D01*
X006506Y006103D02*
X005230Y006103D01*
X005389Y006262D02*
X006569Y006262D01*
X006665Y006420D02*
X005547Y006420D01*
X005706Y006579D02*
X006506Y006579D01*
X006347Y006738D02*
X005864Y006738D01*
X006023Y006896D02*
X006189Y006896D01*
X006522Y007213D02*
X008926Y007213D01*
X008926Y007055D02*
X006681Y007055D01*
X006839Y006896D02*
X008836Y006896D01*
X008859Y006953D02*
X008806Y006824D01*
X008806Y006685D01*
X008859Y006556D01*
X008958Y006458D01*
X009086Y006404D01*
X009226Y006404D01*
X009354Y006458D01*
X009453Y006556D01*
X009506Y006685D01*
X009506Y006824D01*
X009453Y006953D01*
X009386Y007019D01*
X009386Y007623D01*
X009409Y007623D01*
X009470Y007685D01*
X009532Y007623D01*
X009762Y007623D01*
X009912Y007473D01*
X009858Y007451D01*
X009759Y007353D01*
X009706Y007224D01*
X009706Y007085D01*
X009759Y006956D01*
X009858Y006858D01*
X009986Y006804D01*
X010006Y006804D01*
X010006Y005054D01*
X012031Y005054D01*
X013561Y003524D01*
X013751Y003524D01*
X019551Y003524D01*
X019686Y003659D01*
X020804Y004777D01*
X020934Y004647D01*
X021110Y004574D01*
X021901Y004574D01*
X022078Y004647D01*
X022146Y004716D01*
X022146Y004393D01*
X022078Y004461D01*
X021901Y004534D01*
X021110Y004534D01*
X020934Y004461D01*
X020799Y004326D01*
X020726Y004150D01*
X020726Y003959D01*
X020799Y003782D01*
X020934Y003647D01*
X021110Y003574D01*
X021901Y003574D01*
X022078Y003647D01*
X022146Y003716D01*
X022146Y003393D01*
X022078Y003461D01*
X021901Y003534D01*
X021110Y003534D01*
X020934Y003461D01*
X020799Y003326D01*
X020726Y003150D01*
X020726Y002959D01*
X020799Y002782D01*
X020934Y002647D01*
X021110Y002574D01*
X021901Y002574D01*
X022078Y002647D01*
X022146Y002716D01*
X022146Y000784D01*
X014606Y000784D01*
X014618Y000786D01*
X014690Y000809D01*
X014757Y000844D01*
X014819Y000888D01*
X014872Y000942D01*
X014916Y001003D01*
X014951Y001070D01*
X014974Y001142D01*
X014986Y001217D01*
X014986Y001534D01*
X014526Y001534D01*
X014526Y001574D01*
X014986Y001574D01*
X014986Y001892D01*
X014974Y001967D01*
X014951Y002039D01*
X014916Y002106D01*
X014872Y002167D01*
X014819Y002220D01*
X014757Y002265D01*
X014690Y002299D01*
X014618Y002322D01*
X014544Y002334D01*
X014526Y002334D01*
X014526Y001575D01*
X014486Y001575D01*
X014486Y002334D01*
X014468Y002334D01*
X014393Y002322D01*
X014322Y002299D01*
X014254Y002265D01*
X014193Y002220D01*
X014140Y002167D01*
X014095Y002106D01*
X014061Y002039D01*
X014038Y001967D01*
X014026Y001892D01*
X014026Y001574D01*
X014486Y001574D01*
X014486Y001534D01*
X014026Y001534D01*
X014026Y001217D01*
X014038Y001142D01*
X014061Y001070D01*
X014095Y001003D01*
X014140Y000942D01*
X014193Y000888D01*
X014254Y000844D01*
X014322Y000809D01*
X014393Y000786D01*
X014405Y000784D01*
X013625Y000784D01*
X013778Y000847D01*
X013913Y000982D01*
X013986Y001159D01*
X013986Y001950D01*
X013913Y002126D01*
X013778Y002261D01*
X013601Y002334D01*
X013501Y002334D01*
X013211Y002624D01*
X015600Y002624D01*
X015644Y002517D01*
X015779Y002382D01*
X015955Y002309D01*
X016746Y002309D01*
X016923Y002382D01*
X017058Y002517D01*
X017131Y002694D01*
X017131Y002885D01*
X017058Y003061D01*
X016923Y003196D01*
X016746Y003269D01*
X015955Y003269D01*
X015779Y003196D01*
X015667Y003084D01*
X013051Y003084D01*
X011751Y004384D01*
X011561Y004384D01*
X009921Y004384D01*
X009854Y004451D01*
X009726Y004504D01*
X009586Y004504D01*
X009458Y004451D01*
X009359Y004353D01*
X009306Y004224D01*
X009306Y004085D01*
X009348Y003984D01*
X009251Y003984D01*
X008300Y004935D01*
X008354Y004958D01*
X008453Y005056D01*
X008506Y005185D01*
X008506Y005324D01*
X008453Y005453D01*
X008354Y005551D01*
X008226Y005604D01*
X008131Y005604D01*
X006486Y007250D01*
X006486Y007359D01*
X006486Y007550D01*
X006486Y007653D01*
X006518Y007685D01*
X006579Y007623D01*
X007046Y007623D01*
X007108Y007685D01*
X007170Y007623D01*
X007637Y007623D01*
X007699Y007685D01*
X007761Y007623D01*
X008228Y007623D01*
X008289Y007685D01*
X008351Y007623D01*
X008818Y007623D01*
X008880Y007685D01*
X008926Y007639D01*
X008926Y007019D01*
X008859Y006953D01*
X008806Y006738D02*
X006998Y006738D01*
X007156Y006579D02*
X008850Y006579D01*
X009047Y006420D02*
X007315Y006420D01*
X007474Y006262D02*
X010006Y006262D01*
X010006Y006420D02*
X009264Y006420D01*
X009462Y006579D02*
X010006Y006579D01*
X010006Y006738D02*
X009506Y006738D01*
X009476Y006896D02*
X009819Y006896D01*
X009718Y007055D02*
X009386Y007055D01*
X009386Y007213D02*
X009706Y007213D01*
X009778Y007372D02*
X009386Y007372D01*
X009386Y007530D02*
X009855Y007530D01*
X008926Y007530D02*
X006486Y007530D01*
X006486Y007372D02*
X008926Y007372D01*
X010006Y006103D02*
X007632Y006103D01*
X007791Y005945D02*
X010006Y005945D01*
X010006Y005786D02*
X007949Y005786D01*
X008108Y005628D02*
X010006Y005628D01*
X010006Y005469D02*
X008436Y005469D01*
X008506Y005311D02*
X010006Y005311D01*
X010006Y005152D02*
X008492Y005152D01*
X008390Y004994D02*
X012091Y004994D01*
X012250Y004835D02*
X008400Y004835D01*
X008559Y004676D02*
X012409Y004676D01*
X012567Y004518D02*
X008718Y004518D01*
X008876Y004359D02*
X009366Y004359D01*
X009306Y004201D02*
X009035Y004201D01*
X009193Y004042D02*
X009323Y004042D01*
X011296Y003370D02*
X011351Y003424D01*
X011761Y003424D01*
X013087Y002098D01*
X013026Y001950D01*
X013026Y001159D01*
X013099Y000982D01*
X013234Y000847D01*
X013386Y000784D01*
X012625Y000784D01*
X012778Y000847D01*
X012913Y000982D01*
X012986Y001159D01*
X012986Y001950D01*
X012913Y002126D01*
X012778Y002261D01*
X012601Y002334D01*
X012410Y002334D01*
X012234Y002261D01*
X012099Y002126D01*
X012026Y001950D01*
X012026Y001159D01*
X012099Y000982D01*
X012234Y000847D01*
X012386Y000784D01*
X011625Y000784D01*
X011778Y000847D01*
X011913Y000982D01*
X011986Y001159D01*
X011986Y001950D01*
X011913Y002126D01*
X011778Y002261D01*
X011601Y002334D01*
X011410Y002334D01*
X011234Y002261D01*
X011154Y002181D01*
X010909Y002426D01*
X011180Y002426D01*
X011242Y002488D01*
X011261Y002469D01*
X011310Y002441D01*
X011365Y002426D01*
X011527Y002426D01*
X011527Y002887D01*
X011547Y002887D01*
X011547Y002426D01*
X011710Y002426D01*
X011765Y002441D01*
X011814Y002469D01*
X011854Y002509D01*
X011883Y002559D01*
X011897Y002613D01*
X011897Y002887D01*
X011548Y002887D01*
X011548Y002907D01*
X011897Y002907D01*
X011897Y003180D01*
X011883Y003235D01*
X011854Y003284D01*
X011814Y003325D01*
X011765Y003353D01*
X011710Y003368D01*
X011547Y003368D01*
X011547Y002907D01*
X011527Y002907D01*
X011527Y003368D01*
X011365Y003368D01*
X011310Y003353D01*
X011307Y003351D01*
X011307Y003359D01*
X011296Y003370D01*
X011335Y003408D02*
X011777Y003408D01*
X011874Y003250D02*
X011935Y003250D01*
X011547Y003250D02*
X011527Y003250D01*
X011527Y003091D02*
X011547Y003091D01*
X011547Y002932D02*
X011527Y002932D01*
X011527Y002774D02*
X011547Y002774D01*
X011547Y002615D02*
X011527Y002615D01*
X011527Y002457D02*
X011547Y002457D01*
X011793Y002457D02*
X012728Y002457D01*
X012570Y002615D02*
X011897Y002615D01*
X011897Y002774D02*
X012411Y002774D01*
X012253Y002932D02*
X011897Y002932D01*
X011897Y003091D02*
X012094Y003091D01*
X012727Y003408D02*
X020881Y003408D01*
X020767Y003250D02*
X019354Y003250D01*
X019306Y003269D02*
X019483Y003196D01*
X019618Y003061D01*
X019691Y002885D01*
X019691Y002694D01*
X019618Y002517D01*
X019483Y002382D01*
X019306Y002309D01*
X018515Y002309D01*
X018339Y002382D01*
X018204Y002517D01*
X018131Y002694D01*
X018131Y002885D01*
X018204Y003061D01*
X018339Y003196D01*
X018515Y003269D01*
X019306Y003269D01*
X019588Y003091D02*
X020726Y003091D01*
X020737Y002932D02*
X019671Y002932D01*
X019691Y002774D02*
X020807Y002774D01*
X021011Y002615D02*
X019658Y002615D01*
X019557Y002457D02*
X022146Y002457D01*
X022146Y002615D02*
X022001Y002615D01*
X022146Y002298D02*
X014692Y002298D01*
X014526Y002298D02*
X014486Y002298D01*
X014486Y002140D02*
X014526Y002140D01*
X014320Y002298D02*
X013688Y002298D01*
X013899Y002140D02*
X014120Y002140D01*
X014042Y001981D02*
X013973Y001981D01*
X013986Y001823D02*
X014026Y001823D01*
X014026Y001664D02*
X013986Y001664D01*
X013986Y001506D02*
X014026Y001506D01*
X014026Y001347D02*
X013986Y001347D01*
X013986Y001189D02*
X014030Y001189D01*
X014081Y001030D02*
X013932Y001030D01*
X013802Y000871D02*
X014216Y000871D01*
X014795Y000871D02*
X022146Y000871D01*
X022146Y001030D02*
X014930Y001030D01*
X014981Y001189D02*
X022146Y001189D01*
X022146Y001347D02*
X014986Y001347D01*
X014986Y001506D02*
X022146Y001506D01*
X022146Y001664D02*
X014986Y001664D01*
X014986Y001823D02*
X022146Y001823D01*
X022146Y001981D02*
X014969Y001981D01*
X014892Y002140D02*
X022146Y002140D01*
X022131Y003408D02*
X022146Y003408D01*
X022146Y003567D02*
X019593Y003567D01*
X019752Y003725D02*
X020856Y003725D01*
X020757Y003884D02*
X019911Y003884D01*
X020069Y004042D02*
X020726Y004042D01*
X020747Y004201D02*
X020228Y004201D01*
X020386Y004359D02*
X020832Y004359D01*
X021071Y004518D02*
X020545Y004518D01*
X020703Y004676D02*
X020905Y004676D01*
X020370Y004994D02*
X019441Y004994D01*
X019483Y004976D02*
X019306Y005049D01*
X018515Y005049D01*
X018339Y004976D01*
X018204Y004841D01*
X018131Y004665D01*
X018131Y004474D01*
X018204Y004297D01*
X018339Y004162D01*
X018515Y004089D01*
X019306Y004089D01*
X019483Y004162D01*
X019618Y004297D01*
X019691Y004474D01*
X019691Y004665D01*
X019618Y004841D01*
X019483Y004976D01*
X019620Y004835D02*
X020211Y004835D01*
X020053Y004676D02*
X019686Y004676D01*
X019691Y004518D02*
X019894Y004518D01*
X019736Y004359D02*
X019643Y004359D01*
X019577Y004201D02*
X019521Y004201D01*
X019419Y004042D02*
X013693Y004042D01*
X013751Y003984D02*
X012681Y005054D01*
X013015Y005054D01*
X013015Y004974D01*
X013476Y004974D01*
X013476Y004954D01*
X013015Y004954D01*
X013015Y004791D01*
X013030Y004736D01*
X013058Y004687D01*
X013099Y004647D01*
X013148Y004619D01*
X013203Y004604D01*
X013476Y004604D01*
X013476Y004954D01*
X013496Y004954D01*
X013496Y004974D01*
X013957Y004974D01*
X013957Y005054D01*
X016026Y005054D01*
X016026Y005049D01*
X015955Y005049D01*
X015779Y004976D01*
X015644Y004841D01*
X015571Y004665D01*
X015571Y004474D01*
X015644Y004297D01*
X015779Y004162D01*
X015955Y004089D01*
X016746Y004089D01*
X016923Y004162D01*
X017058Y004297D01*
X017131Y004474D01*
X017131Y004665D01*
X017058Y004841D01*
X016923Y004976D01*
X016746Y005049D01*
X016486Y005049D01*
X016486Y005054D01*
X017006Y005054D01*
X017006Y008279D01*
X017336Y007949D01*
X017336Y007630D01*
X017582Y007384D01*
X017930Y007384D01*
X018176Y007630D01*
X018176Y007978D01*
X017930Y008224D01*
X017711Y008224D01*
X017006Y008930D01*
X017006Y009324D01*
X017392Y009324D01*
X017582Y009134D01*
X017930Y009134D01*
X018176Y009380D01*
X018176Y009728D01*
X017930Y009974D01*
X017582Y009974D01*
X017392Y009784D01*
X017006Y009784D01*
X017006Y010320D01*
X020377Y010320D01*
X020234Y010261D01*
X020099Y010126D01*
X020026Y009950D01*
X020026Y009159D01*
X020099Y008982D01*
X020234Y008847D01*
X020410Y008774D01*
X020601Y008774D01*
X020778Y008847D01*
X020913Y008982D01*
X020986Y009159D01*
X020986Y009950D01*
X020913Y010126D01*
X020778Y010261D01*
X020635Y010320D01*
X021387Y010320D01*
X021322Y010299D01*
X021254Y010265D01*
X021193Y010220D01*
X021140Y010167D01*
X021095Y010106D01*
X021061Y010039D01*
X021038Y009967D01*
X021026Y009892D01*
X021026Y009574D01*
X021486Y009574D01*
X021486Y009534D01*
X021526Y009534D01*
X021526Y008774D01*
X021544Y008774D01*
X021618Y008786D01*
X021690Y008809D01*
X021757Y008844D01*
X021819Y008888D01*
X021872Y008942D01*
X021916Y009003D01*
X021951Y009070D01*
X021974Y009142D01*
X021986Y009217D01*
X021986Y009534D01*
X021526Y009534D01*
X021526Y009574D01*
X021986Y009574D01*
X021986Y009892D01*
X021974Y009967D01*
X021951Y010039D01*
X021916Y010106D01*
X021872Y010167D01*
X021819Y010220D01*
X021757Y010265D01*
X021690Y010299D01*
X021625Y010320D01*
X022146Y010320D01*
X022146Y006393D01*
X022078Y006461D01*
X021901Y006534D01*
X021110Y006534D01*
X020934Y006461D01*
X020799Y006326D01*
X020726Y006150D01*
X020726Y005959D01*
X020799Y005782D01*
X020934Y005647D01*
X021110Y005574D01*
X021901Y005574D01*
X022078Y005647D01*
X022146Y005716D01*
X022146Y005393D01*
X022078Y005461D01*
X021901Y005534D01*
X021110Y005534D01*
X020934Y005461D01*
X020799Y005326D01*
X020782Y005284D01*
X020661Y005284D01*
X020526Y005150D01*
X019361Y003984D01*
X013751Y003984D01*
X013893Y004188D02*
X013954Y004144D01*
X014022Y004109D01*
X014093Y004086D01*
X014168Y004074D01*
X014486Y004074D01*
X014486Y004534D01*
X014526Y004534D01*
X014526Y004074D01*
X014844Y004074D01*
X014918Y004086D01*
X014990Y004109D01*
X015057Y004144D01*
X015119Y004188D01*
X015172Y004242D01*
X015216Y004303D01*
X015251Y004370D01*
X015274Y004442D01*
X015286Y004517D01*
X015286Y004534D01*
X014526Y004534D01*
X014526Y004574D01*
X015286Y004574D01*
X015286Y004592D01*
X015274Y004667D01*
X015251Y004739D01*
X015216Y004806D01*
X015172Y004867D01*
X015119Y004920D01*
X015057Y004965D01*
X014990Y004999D01*
X014918Y005022D01*
X014844Y005034D01*
X014526Y005034D01*
X014526Y004575D01*
X014486Y004575D01*
X014486Y005034D01*
X014168Y005034D01*
X014093Y005022D01*
X014022Y004999D01*
X013954Y004965D01*
X013939Y004954D01*
X013496Y004954D01*
X013496Y004604D01*
X013728Y004604D01*
X013726Y004592D01*
X013726Y004574D01*
X014486Y004574D01*
X014486Y004534D01*
X013726Y004534D01*
X013726Y004517D01*
X013738Y004442D01*
X013761Y004370D01*
X013795Y004303D01*
X013840Y004242D01*
X013893Y004188D01*
X013881Y004201D02*
X013535Y004201D01*
X013376Y004359D02*
X013766Y004359D01*
X013726Y004518D02*
X013218Y004518D01*
X013069Y004676D02*
X013059Y004676D01*
X013015Y004835D02*
X012900Y004835D01*
X013015Y004994D02*
X012742Y004994D01*
X013476Y004835D02*
X013496Y004835D01*
X013496Y004676D02*
X013476Y004676D01*
X013957Y004994D02*
X014011Y004994D01*
X014486Y004994D02*
X014526Y004994D01*
X014526Y004835D02*
X014486Y004835D01*
X014486Y004676D02*
X014526Y004676D01*
X014526Y004518D02*
X014486Y004518D01*
X014486Y004359D02*
X014526Y004359D01*
X014526Y004201D02*
X014486Y004201D01*
X015131Y004201D02*
X015741Y004201D01*
X015618Y004359D02*
X015245Y004359D01*
X015286Y004518D02*
X015571Y004518D01*
X015576Y004676D02*
X015271Y004676D01*
X015195Y004835D02*
X015641Y004835D01*
X015821Y004994D02*
X015001Y004994D01*
X016881Y004994D02*
X018381Y004994D01*
X018201Y004835D02*
X017060Y004835D01*
X017126Y004676D02*
X018136Y004676D01*
X018131Y004518D02*
X017131Y004518D01*
X017083Y004359D02*
X018178Y004359D01*
X018301Y004201D02*
X016961Y004201D01*
X016794Y003250D02*
X018468Y003250D01*
X018234Y003091D02*
X017028Y003091D01*
X017111Y002932D02*
X018151Y002932D01*
X018131Y002774D02*
X017131Y002774D01*
X017098Y002615D02*
X018163Y002615D01*
X018265Y002457D02*
X016997Y002457D01*
X015705Y002457D02*
X013379Y002457D01*
X013220Y002615D02*
X015603Y002615D01*
X015674Y003091D02*
X013044Y003091D01*
X012886Y003250D02*
X015908Y003250D01*
X013518Y003567D02*
X012569Y003567D01*
X012410Y003725D02*
X013360Y003725D01*
X013201Y003884D02*
X012252Y003884D01*
X012093Y004042D02*
X013043Y004042D01*
X012884Y004201D02*
X011935Y004201D01*
X011776Y004359D02*
X012726Y004359D01*
X011282Y002457D02*
X011211Y002457D01*
X011324Y002298D02*
X011037Y002298D01*
X011688Y002298D02*
X012324Y002298D01*
X012113Y002140D02*
X011899Y002140D01*
X011973Y001981D02*
X012039Y001981D01*
X012026Y001823D02*
X011986Y001823D01*
X011986Y001664D02*
X012026Y001664D01*
X012026Y001506D02*
X011986Y001506D01*
X011986Y001347D02*
X012026Y001347D01*
X012026Y001189D02*
X011986Y001189D01*
X011932Y001030D02*
X012079Y001030D01*
X012210Y000871D02*
X011802Y000871D01*
X012802Y000871D02*
X013210Y000871D01*
X013079Y001030D02*
X012932Y001030D01*
X012986Y001189D02*
X013026Y001189D01*
X013026Y001347D02*
X012986Y001347D01*
X012986Y001506D02*
X013026Y001506D01*
X013026Y001664D02*
X012986Y001664D01*
X012986Y001823D02*
X013026Y001823D01*
X013039Y001981D02*
X012973Y001981D01*
X013045Y002140D02*
X012899Y002140D01*
X012887Y002298D02*
X012688Y002298D01*
X014486Y001981D02*
X014526Y001981D01*
X014526Y001823D02*
X014486Y001823D01*
X014486Y001664D02*
X014526Y001664D01*
X017006Y005152D02*
X020528Y005152D01*
X020793Y005311D02*
X017006Y005311D01*
X017006Y005469D02*
X020953Y005469D01*
X020981Y005628D02*
X017006Y005628D01*
X017006Y005786D02*
X020797Y005786D01*
X020732Y005945D02*
X017006Y005945D01*
X017006Y006103D02*
X020726Y006103D01*
X020772Y006262D02*
X017006Y006262D01*
X017006Y006420D02*
X020893Y006420D01*
X022119Y006420D02*
X022146Y006420D01*
X022146Y006579D02*
X017006Y006579D01*
X017006Y006738D02*
X022146Y006738D01*
X022146Y006896D02*
X017006Y006896D01*
X017006Y007055D02*
X022146Y007055D01*
X022146Y007213D02*
X017006Y007213D01*
X017006Y007372D02*
X022146Y007372D01*
X022146Y007530D02*
X019076Y007530D01*
X019176Y007630D02*
X018930Y007384D01*
X018756Y007384D01*
X018756Y007804D01*
X018756Y007804D01*
X018756Y007804D01*
X019176Y007804D01*
X019176Y007630D01*
X019176Y007689D02*
X022146Y007689D01*
X022146Y007847D02*
X019176Y007847D01*
X019176Y007804D02*
X019176Y007978D01*
X018930Y008224D01*
X018756Y008224D01*
X018756Y007805D01*
X018756Y007805D01*
X018756Y008224D01*
X018582Y008224D01*
X018336Y007978D01*
X018336Y007804D01*
X018336Y007630D01*
X018582Y007384D01*
X018756Y007384D01*
X018756Y007804D01*
X018755Y007804D02*
X018336Y007804D01*
X018755Y007804D01*
X018755Y007804D01*
X018756Y007804D02*
X019176Y007804D01*
X019148Y008006D02*
X022146Y008006D01*
X022146Y008164D02*
X018990Y008164D01*
X018756Y008164D02*
X018756Y008164D01*
X018756Y008006D02*
X018756Y008006D01*
X018522Y008164D02*
X017990Y008164D01*
X018148Y008006D02*
X018364Y008006D01*
X018336Y007847D02*
X018176Y007847D01*
X018176Y007689D02*
X018336Y007689D01*
X018436Y007530D02*
X018076Y007530D01*
X017436Y007530D02*
X017006Y007530D01*
X017006Y007689D02*
X017336Y007689D01*
X017336Y007847D02*
X017006Y007847D01*
X017006Y008006D02*
X017279Y008006D01*
X017121Y008164D02*
X017006Y008164D01*
X017454Y008481D02*
X022146Y008481D01*
X022146Y008640D02*
X017295Y008640D01*
X017137Y008799D02*
X020352Y008799D01*
X020124Y008957D02*
X017006Y008957D01*
X017006Y009116D02*
X020044Y009116D01*
X020026Y009274D02*
X019070Y009274D01*
X019176Y009380D02*
X018930Y009134D01*
X018756Y009134D01*
X018756Y009554D01*
X018756Y009554D01*
X018756Y009554D01*
X019176Y009554D01*
X019176Y009380D01*
X019176Y009433D02*
X020026Y009433D01*
X020026Y009591D02*
X019176Y009591D01*
X019176Y009554D02*
X019176Y009728D01*
X018930Y009974D01*
X018756Y009974D01*
X018756Y009555D01*
X018756Y009555D01*
X018756Y009974D01*
X018582Y009974D01*
X018336Y009728D01*
X018336Y009554D01*
X018336Y009380D01*
X018582Y009134D01*
X018756Y009134D01*
X018756Y009554D01*
X018755Y009554D02*
X018336Y009554D01*
X018755Y009554D01*
X018755Y009554D01*
X018756Y009554D02*
X019176Y009554D01*
X019154Y009750D02*
X020026Y009750D01*
X020026Y009908D02*
X018996Y009908D01*
X018756Y009908D02*
X018756Y009908D01*
X018516Y009908D02*
X017996Y009908D01*
X018154Y009750D02*
X018357Y009750D01*
X018336Y009591D02*
X018176Y009591D01*
X018176Y009433D02*
X018336Y009433D01*
X018442Y009274D02*
X018070Y009274D01*
X017442Y009274D02*
X017006Y009274D01*
X017006Y009908D02*
X017516Y009908D01*
X017006Y010067D02*
X020074Y010067D01*
X020198Y010225D02*
X017006Y010225D01*
X018756Y009750D02*
X018756Y009750D01*
X018756Y009591D02*
X018756Y009591D01*
X018756Y009433D02*
X018756Y009433D01*
X018756Y009274D02*
X018756Y009274D01*
X020660Y008799D02*
X021355Y008799D01*
X021322Y008809D02*
X021393Y008786D01*
X021468Y008774D01*
X021486Y008774D01*
X021486Y009534D01*
X021026Y009534D01*
X021026Y009217D01*
X021038Y009142D01*
X021061Y009070D01*
X021095Y009003D01*
X021140Y008942D01*
X021193Y008888D01*
X021254Y008844D01*
X021322Y008809D01*
X021486Y008799D02*
X021526Y008799D01*
X021657Y008799D02*
X022146Y008799D01*
X022146Y008957D02*
X021883Y008957D01*
X021526Y008957D02*
X021486Y008957D01*
X021486Y009116D02*
X021526Y009116D01*
X021526Y009274D02*
X021486Y009274D01*
X021486Y009433D02*
X021526Y009433D01*
X021986Y009433D02*
X022146Y009433D01*
X022146Y009274D02*
X021986Y009274D01*
X021966Y009116D02*
X022146Y009116D01*
X022146Y009591D02*
X021986Y009591D01*
X021986Y009750D02*
X022146Y009750D01*
X022146Y009908D02*
X021983Y009908D01*
X021936Y010067D02*
X022146Y010067D01*
X022146Y010225D02*
X021812Y010225D01*
X021200Y010225D02*
X020814Y010225D01*
X020937Y010067D02*
X021076Y010067D01*
X021029Y009908D02*
X020986Y009908D01*
X020986Y009750D02*
X021026Y009750D01*
X021026Y009591D02*
X020986Y009591D01*
X020986Y009433D02*
X021026Y009433D01*
X021026Y009274D02*
X020986Y009274D01*
X020968Y009116D02*
X021046Y009116D01*
X021128Y008957D02*
X020888Y008957D01*
X022146Y008323D02*
X017612Y008323D01*
X018756Y007847D02*
X018756Y007847D01*
X018756Y007689D02*
X018756Y007689D01*
X018756Y007530D02*
X018756Y007530D01*
X022030Y005628D02*
X022146Y005628D01*
X022146Y005469D02*
X022059Y005469D01*
X022107Y004676D02*
X022146Y004676D01*
X022146Y004518D02*
X021941Y004518D01*
X006060Y003884D02*
X004252Y003884D01*
X004410Y003725D02*
X006026Y003725D01*
X006026Y003567D02*
X004569Y003567D01*
X004108Y003377D02*
X004091Y003359D01*
X004091Y003351D01*
X004088Y003353D01*
X004033Y003368D01*
X003870Y003368D01*
X003870Y002907D01*
X003850Y002907D01*
X003850Y002887D01*
X003500Y002887D01*
X003500Y002613D01*
X003515Y002559D01*
X003543Y002509D01*
X003584Y002469D01*
X003633Y002441D01*
X003688Y002426D01*
X003850Y002426D01*
X003850Y002887D01*
X003870Y002887D01*
X003870Y002426D01*
X004033Y002426D01*
X004088Y002441D01*
X004137Y002469D01*
X004156Y002488D01*
X004160Y002483D01*
X003858Y002181D01*
X003778Y002261D01*
X003601Y002334D01*
X003410Y002334D01*
X003234Y002261D01*
X003099Y002126D01*
X003026Y001950D01*
X003026Y001159D01*
X003099Y000982D01*
X003234Y000847D01*
X003386Y000784D01*
X002625Y000784D01*
X002778Y000847D01*
X002913Y000982D01*
X002986Y001159D01*
X002986Y001950D01*
X002913Y002126D01*
X002778Y002261D01*
X002601Y002334D01*
X002586Y002334D01*
X002586Y002359D01*
X003651Y003424D01*
X004061Y003424D01*
X004108Y003377D01*
X004077Y003408D02*
X003635Y003408D01*
X003633Y003353D02*
X003584Y003325D01*
X003543Y003284D01*
X003515Y003235D01*
X003500Y003180D01*
X003500Y002907D01*
X003850Y002907D01*
X003850Y003368D01*
X003688Y003368D01*
X003633Y003353D01*
X003523Y003250D02*
X003476Y003250D01*
X003850Y003250D02*
X003870Y003250D01*
X003870Y003091D02*
X003850Y003091D01*
X003850Y002932D02*
X003870Y002932D01*
X003500Y002932D02*
X003159Y002932D01*
X003318Y003091D02*
X003500Y003091D01*
X003500Y002774D02*
X003001Y002774D01*
X002842Y002615D02*
X003500Y002615D01*
X003605Y002457D02*
X002684Y002457D01*
X002688Y002298D02*
X003324Y002298D01*
X003113Y002140D02*
X002899Y002140D01*
X002973Y001981D02*
X003039Y001981D01*
X003026Y001823D02*
X002986Y001823D01*
X002986Y001664D02*
X003026Y001664D01*
X003026Y001506D02*
X002986Y001506D01*
X002986Y001347D02*
X003026Y001347D01*
X003026Y001189D02*
X002986Y001189D01*
X002932Y001030D02*
X003079Y001030D01*
X003210Y000871D02*
X002802Y000871D01*
X002210Y000871D02*
X001795Y000871D01*
X001930Y001030D02*
X002079Y001030D01*
X002026Y001189D02*
X001981Y001189D01*
X001986Y001347D02*
X002026Y001347D01*
X002026Y001506D02*
X001986Y001506D01*
X001986Y001664D02*
X002026Y001664D01*
X002026Y001823D02*
X001986Y001823D01*
X001969Y001981D02*
X002039Y001981D01*
X002113Y002140D02*
X001892Y002140D01*
X001692Y002298D02*
X002126Y002298D01*
X001526Y002298D02*
X001486Y002298D01*
X001486Y002140D02*
X001526Y002140D01*
X001320Y002298D02*
X000986Y002298D01*
X000986Y002140D02*
X001120Y002140D01*
X001042Y001981D02*
X000986Y001981D01*
X000986Y001823D02*
X001026Y001823D01*
X001026Y001664D02*
X000986Y001664D01*
X000986Y001506D02*
X001026Y001506D01*
X001026Y001347D02*
X000986Y001347D01*
X000986Y001189D02*
X001030Y001189D01*
X000986Y001030D02*
X001081Y001030D01*
X000986Y000871D02*
X001216Y000871D01*
X001486Y001664D02*
X001526Y001664D01*
X001526Y001823D02*
X001486Y001823D01*
X001486Y001981D02*
X001526Y001981D01*
X003688Y002298D02*
X003975Y002298D01*
X003870Y002457D02*
X003850Y002457D01*
X003850Y002615D02*
X003870Y002615D01*
X003870Y002774D02*
X003850Y002774D01*
X004116Y002457D02*
X004133Y002457D01*
X001979Y003502D02*
X001901Y003534D01*
X001110Y003534D01*
X000986Y003483D01*
X000986Y003626D01*
X001110Y003574D01*
X001901Y003574D01*
X002078Y003647D01*
X002213Y003782D01*
X002286Y003959D01*
X002286Y004150D01*
X002213Y004326D01*
X002078Y004461D01*
X001901Y004534D01*
X001110Y004534D01*
X000986Y004483D01*
X000986Y004628D01*
X001022Y004609D01*
X001093Y004586D01*
X001168Y004574D01*
X001486Y004574D01*
X001486Y005034D01*
X001526Y005034D01*
X001526Y004574D01*
X001844Y004574D01*
X001918Y004586D01*
X001990Y004609D01*
X002057Y004644D01*
X002119Y004688D01*
X002172Y004742D01*
X002216Y004803D01*
X002251Y004870D01*
X002274Y004942D01*
X002286Y005017D01*
X002286Y005034D01*
X001526Y005034D01*
X001526Y005074D01*
X002286Y005074D01*
X002286Y005092D01*
X002274Y005167D01*
X002251Y005239D01*
X002216Y005306D01*
X002172Y005367D01*
X002119Y005420D01*
X002057Y005465D01*
X001990Y005499D01*
X001918Y005522D01*
X001844Y005534D01*
X001526Y005534D01*
X001526Y005075D01*
X001486Y005075D01*
X001486Y005534D01*
X001168Y005534D01*
X001093Y005522D01*
X001022Y005499D01*
X000986Y005481D01*
X000986Y005626D01*
X001110Y005574D01*
X001901Y005574D01*
X002078Y005647D01*
X002213Y005782D01*
X002286Y005959D01*
X002286Y006150D01*
X002213Y006326D01*
X002078Y006461D01*
X001901Y006534D01*
X001110Y006534D01*
X000986Y006483D01*
X000986Y006626D01*
X001110Y006574D01*
X001901Y006574D01*
X002078Y006647D01*
X002213Y006782D01*
X002286Y006959D01*
X002286Y007150D01*
X002213Y007326D01*
X002078Y007461D01*
X001901Y007534D01*
X001110Y007534D01*
X000986Y007483D01*
X000986Y007626D01*
X001110Y007574D01*
X001901Y007574D01*
X002078Y007647D01*
X002213Y007782D01*
X002230Y007824D01*
X002561Y007824D01*
X003706Y006679D01*
X003706Y006585D01*
X003759Y006456D01*
X003858Y006358D01*
X003986Y006304D01*
X004126Y006304D01*
X004254Y006358D01*
X004353Y006456D01*
X004406Y006585D01*
X004406Y006724D01*
X004353Y006853D01*
X004254Y006951D01*
X004126Y007004D01*
X004031Y007004D01*
X003811Y007224D01*
X004251Y007224D01*
X004386Y007359D01*
X004586Y007559D01*
X004586Y007623D01*
X004684Y007623D01*
X004746Y007685D01*
X004808Y007623D01*
X005275Y007623D01*
X005337Y007685D01*
X005398Y007623D01*
X005865Y007623D01*
X005927Y007685D01*
X005989Y007623D01*
X006026Y007623D01*
X006026Y007550D01*
X001979Y003502D01*
X002043Y003567D02*
X000986Y003567D01*
X002156Y003725D02*
X002202Y003725D01*
X002255Y003884D02*
X002360Y003884D01*
X002286Y004042D02*
X002519Y004042D01*
X002677Y004201D02*
X002265Y004201D01*
X002180Y004359D02*
X002836Y004359D01*
X002994Y004518D02*
X001941Y004518D01*
X002102Y004676D02*
X003153Y004676D01*
X003311Y004835D02*
X002233Y004835D01*
X002282Y004994D02*
X003470Y004994D01*
X003628Y005152D02*
X002276Y005152D01*
X002213Y005311D02*
X003787Y005311D01*
X003946Y005469D02*
X002049Y005469D01*
X002030Y005628D02*
X004104Y005628D01*
X004263Y005786D02*
X002214Y005786D01*
X002280Y005945D02*
X004421Y005945D01*
X004580Y006103D02*
X002286Y006103D01*
X002239Y006262D02*
X004738Y006262D01*
X004897Y006420D02*
X004317Y006420D01*
X004403Y006579D02*
X005055Y006579D01*
X005214Y006738D02*
X004400Y006738D01*
X004309Y006896D02*
X005372Y006896D01*
X005531Y007055D02*
X003981Y007055D01*
X003822Y007213D02*
X005689Y007213D01*
X005848Y007372D02*
X004399Y007372D01*
X004557Y007530D02*
X006007Y007530D01*
X004108Y007732D02*
X004061Y007684D01*
X003651Y007684D01*
X002586Y008750D01*
X002586Y008774D01*
X002601Y008774D01*
X002778Y008847D01*
X002913Y008982D01*
X002986Y009159D01*
X002986Y009950D01*
X002913Y010126D01*
X002778Y010261D01*
X002635Y010320D01*
X003377Y010320D01*
X003234Y010261D01*
X003099Y010126D01*
X003026Y009950D01*
X003026Y009159D01*
X003099Y008982D01*
X003234Y008847D01*
X003410Y008774D01*
X003601Y008774D01*
X003778Y008847D01*
X003858Y008927D01*
X004160Y008625D01*
X004155Y008621D01*
X004137Y008640D01*
X004088Y008668D01*
X004033Y008683D01*
X003870Y008683D01*
X003870Y008222D01*
X003850Y008222D01*
X003850Y008683D01*
X003688Y008683D01*
X003633Y008668D01*
X003584Y008640D01*
X002695Y008640D01*
X002854Y008481D02*
X003500Y008481D01*
X003500Y008495D02*
X003500Y008222D01*
X003850Y008222D01*
X003850Y008202D01*
X003500Y008202D01*
X003500Y007928D01*
X003515Y007873D01*
X003543Y007824D01*
X003584Y007784D01*
X003633Y007756D01*
X003688Y007741D01*
X003850Y007741D01*
X003850Y008202D01*
X003870Y008202D01*
X003870Y007741D01*
X004033Y007741D01*
X004088Y007756D01*
X004091Y007757D01*
X004091Y007749D01*
X004108Y007732D01*
X004065Y007689D02*
X003647Y007689D01*
X003530Y007847D02*
X003488Y007847D01*
X003850Y007847D02*
X003870Y007847D01*
X003870Y008006D02*
X003850Y008006D01*
X003850Y008164D02*
X003870Y008164D01*
X003870Y008323D02*
X003850Y008323D01*
X003500Y008323D02*
X003012Y008323D01*
X003171Y008164D02*
X003500Y008164D01*
X003500Y008006D02*
X003330Y008006D01*
X002696Y007689D02*
X002119Y007689D01*
X001911Y007530D02*
X002855Y007530D01*
X003013Y007372D02*
X002167Y007372D01*
X002260Y007213D02*
X003172Y007213D01*
X003330Y007055D02*
X002286Y007055D01*
X002260Y006896D02*
X003489Y006896D01*
X003647Y006738D02*
X002168Y006738D01*
X001913Y006579D02*
X003708Y006579D01*
X003795Y006420D02*
X002119Y006420D01*
X001099Y006579D02*
X000986Y006579D01*
X000986Y007530D02*
X001101Y007530D01*
X002078Y008461D02*
X002213Y008326D01*
X002230Y008284D01*
X002401Y008284D01*
X002261Y008424D01*
X002261Y008424D01*
X002126Y008559D01*
X002126Y008955D01*
X002099Y008982D01*
X002026Y009159D01*
X002026Y009950D01*
X002099Y010126D01*
X002234Y010261D01*
X002377Y010320D01*
X001625Y010320D01*
X001690Y010299D01*
X001757Y010265D01*
X001819Y010220D01*
X001872Y010167D01*
X001916Y010106D01*
X001951Y010039D01*
X001974Y009967D01*
X001986Y009892D01*
X001986Y009574D01*
X001526Y009574D01*
X001526Y009534D01*
X001526Y008774D01*
X001544Y008774D01*
X001618Y008786D01*
X001690Y008809D01*
X001757Y008844D01*
X001819Y008888D01*
X001872Y008942D01*
X001916Y009003D01*
X001951Y009070D01*
X001974Y009142D01*
X001986Y009217D01*
X001986Y009534D01*
X001526Y009534D01*
X001486Y009534D01*
X001486Y008774D01*
X001468Y008774D01*
X001393Y008786D01*
X001322Y008809D01*
X001254Y008844D01*
X001193Y008888D01*
X001140Y008942D01*
X001095Y009003D01*
X001061Y009070D01*
X001038Y009142D01*
X001026Y009217D01*
X001026Y009534D01*
X001486Y009534D01*
X001486Y009574D01*
X001026Y009574D01*
X001026Y009892D01*
X001038Y009967D01*
X001061Y010039D01*
X001095Y010106D01*
X001140Y010167D01*
X001193Y010220D01*
X001254Y010265D01*
X001322Y010299D01*
X001387Y010320D01*
X000986Y010320D01*
X000986Y008483D01*
X001110Y008534D01*
X001901Y008534D01*
X002078Y008461D01*
X002029Y008481D02*
X002203Y008481D01*
X002126Y008640D02*
X000986Y008640D01*
X000986Y008799D02*
X001355Y008799D01*
X001486Y008799D02*
X001526Y008799D01*
X001657Y008799D02*
X002126Y008799D01*
X002124Y008957D02*
X001883Y008957D01*
X001966Y009116D02*
X002044Y009116D01*
X002026Y009274D02*
X001986Y009274D01*
X001986Y009433D02*
X002026Y009433D01*
X002026Y009591D02*
X001986Y009591D01*
X001986Y009750D02*
X002026Y009750D01*
X002026Y009908D02*
X001983Y009908D01*
X001936Y010067D02*
X002074Y010067D01*
X002198Y010225D02*
X001812Y010225D01*
X001200Y010225D02*
X000986Y010225D01*
X000986Y010067D02*
X001076Y010067D01*
X001029Y009908D02*
X000986Y009908D01*
X000986Y009750D02*
X001026Y009750D01*
X001026Y009591D02*
X000986Y009591D01*
X000986Y009433D02*
X001026Y009433D01*
X001026Y009274D02*
X000986Y009274D01*
X000986Y009116D02*
X001046Y009116D01*
X000986Y008957D02*
X001128Y008957D01*
X001486Y008957D02*
X001526Y008957D01*
X001526Y009116D02*
X001486Y009116D01*
X001486Y009274D02*
X001526Y009274D01*
X001526Y009433D02*
X001486Y009433D01*
X002660Y008799D02*
X003352Y008799D01*
X003124Y008957D02*
X002888Y008957D01*
X002968Y009116D02*
X003044Y009116D01*
X003026Y009274D02*
X002986Y009274D01*
X002986Y009433D02*
X003026Y009433D01*
X003026Y009591D02*
X002986Y009591D01*
X002986Y009750D02*
X003026Y009750D01*
X003026Y009908D02*
X002986Y009908D01*
X002937Y010067D02*
X003074Y010067D01*
X003198Y010225D02*
X002814Y010225D01*
X003660Y008799D02*
X003986Y008799D01*
X003870Y008640D02*
X003850Y008640D01*
X003850Y008481D02*
X003870Y008481D01*
X004136Y008640D02*
X004145Y008640D01*
X003584Y008640D02*
X003543Y008599D01*
X003515Y008550D01*
X003500Y008495D01*
X002362Y008323D02*
X002214Y008323D01*
X001526Y005469D02*
X001486Y005469D01*
X001486Y005311D02*
X001526Y005311D01*
X001526Y005152D02*
X001486Y005152D01*
X001486Y004994D02*
X001526Y004994D01*
X001526Y004835D02*
X001486Y004835D01*
X001486Y004676D02*
X001526Y004676D01*
X001071Y004518D02*
X000986Y004518D01*
D15*
X002356Y002454D02*
X003556Y003654D01*
X004156Y003654D01*
X004356Y003454D01*
X004356Y003054D01*
X004451Y002956D01*
X004956Y002954D02*
X005041Y002956D01*
X004956Y002954D02*
X004956Y002654D01*
X004656Y002354D01*
X004356Y002354D01*
X003556Y001554D01*
X003506Y001554D01*
X004456Y001554D02*
X004506Y001554D01*
X004456Y001554D02*
X005556Y002654D01*
X005556Y002954D01*
X005632Y002956D01*
X006156Y002954D02*
X006156Y002754D01*
X005556Y002154D01*
X005556Y001554D01*
X005506Y001554D01*
X006456Y001554D02*
X006506Y001554D01*
X006456Y001554D02*
X006756Y001854D01*
X006756Y002954D01*
X006813Y002956D01*
X007356Y002954D02*
X007404Y002956D01*
X007356Y002954D02*
X007356Y001654D01*
X007456Y001554D01*
X007506Y001554D01*
X008056Y002254D02*
X008456Y001854D01*
X008456Y001554D01*
X008506Y001554D01*
X009456Y001554D02*
X009506Y001554D01*
X009456Y001554D02*
X009456Y001854D01*
X008656Y002654D01*
X008656Y002954D01*
X008585Y002956D01*
X009175Y002956D02*
X009256Y002954D01*
X009256Y002654D01*
X009556Y002354D01*
X009656Y002354D01*
X010456Y001554D01*
X010506Y001554D01*
X010656Y002354D02*
X011456Y001554D01*
X011506Y001554D01*
X012056Y001154D02*
X012056Y002054D01*
X012156Y002154D01*
X012156Y002854D01*
X012956Y002854D02*
X011656Y004154D01*
X009656Y004154D01*
X009156Y003754D02*
X010256Y003754D01*
X010556Y003454D01*
X010656Y003554D01*
X010556Y003454D02*
X010456Y003354D01*
X010456Y003054D01*
X010356Y002956D01*
X009856Y002954D02*
X009766Y002956D01*
X009856Y002954D02*
X009856Y002654D01*
X010156Y002354D01*
X010656Y002354D01*
X010947Y002956D02*
X010956Y003054D01*
X010956Y003354D01*
X011256Y003654D01*
X011856Y003654D01*
X013456Y002054D01*
X013456Y001554D01*
X013506Y001554D01*
X013625Y000784D02*
X013556Y000754D01*
X013456Y000754D01*
X013386Y000784D01*
X012056Y001154D02*
X011656Y000754D01*
X003456Y000754D01*
X003386Y000784D01*
X002625Y000784D02*
X002556Y000754D01*
X002456Y000754D01*
X002386Y000784D01*
X002456Y001554D02*
X002506Y001554D01*
X002456Y001554D02*
X002356Y001654D01*
X002356Y002454D01*
X001856Y003054D02*
X001506Y003054D01*
X001856Y003054D02*
X006256Y007454D01*
X006256Y007154D01*
X008156Y005254D01*
X007456Y004954D02*
X006256Y003754D01*
X006256Y003054D01*
X006222Y002956D01*
X006156Y002954D01*
X007994Y002956D02*
X008056Y002954D01*
X008056Y002254D01*
X009156Y003754D02*
X006856Y006054D01*
X008156Y006154D02*
X006856Y007454D01*
X006256Y007454D02*
X006256Y008054D01*
X006222Y008153D01*
X006156Y008154D01*
X006156Y008454D01*
X005556Y009054D01*
X005556Y009554D01*
X005506Y009554D01*
X006456Y009554D02*
X006506Y009554D01*
X006456Y009554D02*
X006756Y009254D01*
X006756Y008154D01*
X006813Y008153D01*
X007356Y008154D02*
X007404Y008153D01*
X007356Y008154D02*
X007356Y009454D01*
X007456Y009554D01*
X007506Y009554D01*
X008056Y008854D02*
X008456Y009254D01*
X008456Y009554D01*
X008506Y009554D01*
X009456Y009554D02*
X009456Y009254D01*
X008656Y008454D01*
X008656Y008154D01*
X008585Y008153D01*
X009156Y008054D02*
X009175Y008153D01*
X009156Y008054D02*
X009156Y006754D01*
X010056Y007154D02*
X010756Y007154D01*
X010956Y006954D01*
X011056Y006554D02*
X011356Y006854D01*
X011356Y007654D01*
X010956Y008054D01*
X010947Y008153D01*
X010956Y008154D01*
X010956Y008854D01*
X010356Y008454D02*
X010056Y008754D01*
X010356Y008454D02*
X010356Y008154D01*
X010356Y008153D01*
X009856Y008054D02*
X009766Y008153D01*
X009856Y008054D02*
X009856Y007854D01*
X010256Y007454D01*
X010956Y007454D01*
X011556Y008154D02*
X011537Y008212D01*
X011556Y008154D02*
X013156Y006554D01*
X014506Y006554D01*
X014556Y006554D01*
X015756Y005354D01*
X015756Y005054D01*
X016256Y004654D02*
X016256Y006804D01*
X016256Y008004D01*
X016256Y008054D01*
X015056Y008054D01*
X013556Y009554D01*
X013506Y009554D01*
X012556Y009554D02*
X012506Y009554D01*
X012556Y009554D02*
X012556Y008354D01*
X012056Y008354D02*
X012056Y009054D01*
X011556Y009554D01*
X011506Y009554D01*
X009506Y009554D02*
X009456Y009554D01*
X008056Y008854D02*
X008056Y008154D01*
X007994Y008153D01*
X005632Y008153D02*
X005556Y008154D01*
X005556Y008454D01*
X004456Y009554D01*
X004506Y009554D01*
X004356Y008754D02*
X003556Y009554D01*
X003506Y009554D01*
X002506Y009554D02*
X002456Y009554D01*
X002356Y009454D01*
X002356Y008654D01*
X003556Y007454D01*
X004156Y007454D01*
X004356Y007654D01*
X004356Y008054D01*
X004451Y008153D01*
X004956Y008154D02*
X005041Y008153D01*
X004956Y008154D02*
X004956Y008454D01*
X004656Y008754D01*
X004356Y008754D01*
X002656Y008054D02*
X001506Y008054D01*
X002656Y008054D02*
X004056Y006654D01*
X008156Y006154D02*
X008956Y005354D01*
X011056Y005354D01*
X011756Y004654D01*
X011656Y005754D02*
X013656Y003754D01*
X019456Y003754D01*
X020756Y005054D01*
X021506Y005054D01*
X016351Y004569D02*
X016256Y004654D01*
X014506Y005554D02*
X013427Y005554D01*
X013486Y006145D02*
X013556Y006154D01*
X013156Y006554D01*
X012556Y007654D02*
X014256Y007654D01*
X016256Y008604D02*
X016256Y009354D01*
X017756Y007854D01*
X017756Y007804D01*
X016256Y009354D02*
X016256Y009554D01*
X017756Y009554D01*
X017006Y010254D02*
X016056Y010254D01*
X015356Y009554D01*
X014506Y009554D01*
X016256Y009554D02*
X016256Y009804D01*
X011056Y006554D02*
X011056Y005954D01*
X012956Y002854D02*
X016256Y002854D01*
X016351Y002789D01*
D16*
X012156Y002854D03*
X010656Y003554D03*
X009656Y004154D03*
X011756Y004654D03*
X011656Y005754D03*
X011056Y005954D03*
X009156Y006754D03*
X010056Y007154D03*
X010956Y006954D03*
X010956Y007454D03*
X012556Y007654D03*
X012556Y008354D03*
X012056Y008354D03*
X010956Y008854D03*
X010056Y008754D03*
X006856Y007454D03*
X008156Y006154D03*
X006856Y006054D03*
X008156Y005254D03*
X007456Y004954D03*
X004056Y006654D03*
X002856Y008654D03*
X014256Y007654D03*
M02*
