G75*
%MOIN*%
%OFA0B0*%
%FSLAX24Y24*%
%IPPOS*%
%LPD*%
%AMOC8*
5,1,8,0,0,1.08239X$1,22.5*
%
%ADD10C,0.0000*%
%ADD11C,0.0030*%
%ADD12C,0.0160*%
%ADD13C,0.0040*%
%ADD14C,0.0060*%
%ADD15C,0.0050*%
%ADD16C,0.0020*%
%ADD17R,0.0400X0.0300*%
%ADD18R,0.0400X0.0020*%
%ADD19R,0.0020X0.0280*%
%ADD20C,0.0025*%
D10*
X000350Y000639D02*
X000350Y008639D01*
X013350Y008639D01*
X013350Y000639D01*
X000350Y000639D01*
D11*
X008184Y003604D02*
X008431Y003604D01*
X008554Y003604D02*
X008554Y003666D01*
X008615Y003666D01*
X008615Y003604D01*
X008554Y003604D01*
X008737Y003604D02*
X008984Y003604D01*
X008860Y003604D02*
X008860Y003975D01*
X008984Y003851D01*
X009105Y003851D02*
X009228Y003604D01*
X009352Y003851D01*
X009842Y003851D02*
X009903Y003790D01*
X010088Y003790D01*
X010210Y003851D02*
X010272Y003790D01*
X010457Y003790D01*
X010457Y003975D02*
X010457Y003604D01*
X010272Y003604D01*
X010210Y003666D01*
X010210Y003728D01*
X010272Y003790D01*
X010210Y003851D02*
X010210Y003913D01*
X010272Y003975D01*
X010457Y003975D01*
X010088Y003975D02*
X009903Y003975D01*
X009842Y003913D01*
X009842Y003851D01*
X009903Y003790D02*
X009842Y003728D01*
X009842Y003666D01*
X009903Y003604D01*
X010088Y003604D01*
X010088Y003975D01*
X010947Y003913D02*
X010947Y003851D01*
X011008Y003790D01*
X010947Y003728D01*
X010947Y003666D01*
X011008Y003604D01*
X011132Y003604D01*
X011193Y003666D01*
X011315Y003604D02*
X011562Y003604D01*
X011683Y003604D02*
X011930Y003604D01*
X012051Y003604D02*
X012298Y003604D01*
X012298Y003975D01*
X012051Y003975D01*
X011930Y003851D02*
X011807Y003975D01*
X011807Y003604D01*
X012175Y003790D02*
X012298Y003790D01*
X012420Y003604D02*
X012667Y003604D01*
X012667Y003975D01*
X012788Y003913D02*
X012788Y003851D01*
X012850Y003790D01*
X013035Y003790D01*
X013035Y003975D02*
X013035Y003604D01*
X012850Y003604D01*
X012788Y003666D01*
X012788Y003728D01*
X012850Y003790D01*
X012788Y003913D02*
X012850Y003975D01*
X013035Y003975D01*
X012912Y003436D02*
X012912Y003375D01*
X012912Y003251D02*
X012912Y002943D01*
X012973Y002881D01*
X013035Y002881D01*
X012789Y003066D02*
X012789Y003190D01*
X012728Y003251D01*
X012604Y003251D01*
X012543Y003190D01*
X012543Y003128D01*
X012789Y003128D01*
X012789Y003066D02*
X012728Y003004D01*
X012604Y003004D01*
X012359Y003066D02*
X012298Y003004D01*
X012359Y003066D02*
X012359Y003313D01*
X012298Y003251D02*
X012421Y003251D01*
X012176Y003251D02*
X012176Y003004D01*
X011929Y003004D02*
X011929Y003190D01*
X011990Y003251D01*
X012176Y003251D01*
X011807Y003190D02*
X011807Y003066D01*
X011746Y003004D01*
X011622Y003004D01*
X011560Y003128D02*
X011807Y003128D01*
X011807Y003190D02*
X011746Y003251D01*
X011622Y003251D01*
X011560Y003190D01*
X011560Y003128D01*
X011439Y003066D02*
X011377Y003004D01*
X011192Y003004D01*
X011192Y002943D02*
X011254Y002881D01*
X011316Y002881D01*
X011192Y002943D02*
X011192Y003251D01*
X011071Y003066D02*
X011009Y003066D01*
X011009Y003004D01*
X011071Y003004D01*
X011071Y003066D01*
X010886Y003066D02*
X010825Y003004D01*
X010640Y003004D01*
X010518Y003066D02*
X010456Y003004D01*
X010333Y003004D01*
X010271Y003066D01*
X010271Y003190D01*
X010333Y003251D01*
X010456Y003251D01*
X010518Y003190D01*
X010518Y003066D01*
X010640Y003251D02*
X010825Y003251D01*
X010886Y003190D01*
X010886Y003066D01*
X011439Y003066D02*
X011439Y003251D01*
X011438Y003604D02*
X011438Y003975D01*
X011562Y003851D01*
X011193Y003913D02*
X011132Y003975D01*
X011008Y003975D01*
X010947Y003913D01*
X011008Y003790D02*
X011070Y003790D01*
X010150Y003251D02*
X010088Y003251D01*
X010026Y003190D01*
X009965Y003251D01*
X009903Y003190D01*
X009903Y003004D01*
X010026Y003004D02*
X010026Y003190D01*
X010150Y003251D02*
X010150Y003004D01*
X008431Y003851D02*
X008308Y003975D01*
X008308Y003604D01*
D12*
X011350Y001639D02*
X011350Y000639D01*
X012350Y000639D01*
X012350Y001639D01*
X011350Y001639D01*
D13*
X005630Y006093D02*
X005597Y006059D01*
X005530Y006059D01*
X005497Y006093D01*
X005497Y006260D01*
X005409Y006226D02*
X005409Y006193D01*
X005376Y006160D01*
X005309Y006160D01*
X005276Y006126D01*
X005276Y006093D01*
X005309Y006059D01*
X005376Y006059D01*
X005409Y006093D01*
X005409Y006226D02*
X005376Y006260D01*
X005309Y006260D01*
X005276Y006226D01*
X005188Y006260D02*
X005088Y006260D01*
X005055Y006226D01*
X005055Y006160D01*
X005088Y006126D01*
X005188Y006126D01*
X005188Y006059D02*
X005188Y006260D01*
X005121Y006126D02*
X005055Y006059D01*
X004746Y006059D02*
X004746Y006260D01*
X004746Y006059D02*
X004613Y006059D01*
X004525Y006059D02*
X004392Y006059D01*
X004304Y006059D02*
X004204Y006059D01*
X004171Y006093D01*
X004171Y006226D01*
X004204Y006260D01*
X004304Y006260D01*
X004304Y006059D01*
X004458Y006160D02*
X004525Y006160D01*
X004525Y006260D02*
X004392Y006260D01*
X004525Y006260D02*
X004525Y006059D01*
X003930Y006059D02*
X003930Y006260D01*
X003830Y006260D01*
X003797Y006226D01*
X003797Y006160D01*
X003830Y006126D01*
X003930Y006126D01*
X003709Y006059D02*
X003642Y006126D01*
X003576Y006059D01*
X003576Y006260D01*
X003488Y006260D02*
X003388Y006260D01*
X003355Y006226D01*
X003355Y006160D01*
X003388Y006126D01*
X003488Y006126D01*
X003488Y006059D02*
X003488Y006260D01*
X003421Y006126D02*
X003355Y006059D01*
X003046Y006059D02*
X003046Y006260D01*
X003046Y006059D02*
X002913Y006059D01*
X002825Y006059D02*
X002692Y006059D01*
X002604Y006059D02*
X002504Y006059D01*
X002471Y006093D01*
X002471Y006226D01*
X002504Y006260D01*
X002604Y006260D01*
X002604Y006059D01*
X002758Y006160D02*
X002825Y006160D01*
X002825Y006260D02*
X002692Y006260D01*
X002825Y006260D02*
X002825Y006059D01*
X001970Y006085D02*
X001970Y005985D01*
X001770Y005985D01*
X001770Y006085D01*
X001803Y006119D01*
X001937Y006119D01*
X001970Y006085D01*
X001937Y005898D02*
X001803Y005898D01*
X001770Y005864D01*
X001770Y005764D01*
X001970Y005764D01*
X001970Y005864D01*
X001937Y005898D01*
X001970Y005677D02*
X001837Y005677D01*
X001770Y005610D01*
X001837Y005543D01*
X001970Y005543D01*
X001937Y005235D02*
X001970Y005201D01*
X001970Y005135D01*
X001937Y005101D01*
X001803Y005101D01*
X001770Y005135D01*
X001770Y005201D01*
X001803Y005235D01*
X001870Y005235D01*
X001870Y005168D01*
X001870Y005014D02*
X001837Y004980D01*
X001837Y004880D01*
X001770Y004880D02*
X001970Y004880D01*
X001970Y004980D01*
X001937Y005014D01*
X001870Y005014D01*
X001837Y004947D02*
X001770Y005014D01*
X001870Y004793D02*
X001837Y004760D01*
X001837Y004659D01*
X001770Y004659D02*
X001970Y004659D01*
X001970Y004760D01*
X001937Y004793D01*
X001870Y004793D01*
X003709Y006059D02*
X003709Y006260D01*
X005630Y006260D02*
X005630Y006093D01*
D14*
X005300Y006339D02*
X004200Y006339D01*
X004183Y006341D01*
X004166Y006345D01*
X004150Y006352D01*
X004136Y006362D01*
X004123Y006375D01*
X004113Y006389D01*
X004106Y006405D01*
X004102Y006422D01*
X004100Y006439D01*
X004100Y007039D01*
X004102Y007056D01*
X004106Y007073D01*
X004113Y007089D01*
X004123Y007103D01*
X004136Y007116D01*
X004150Y007126D01*
X004166Y007133D01*
X004183Y007137D01*
X004200Y007139D01*
X005300Y007139D01*
X005317Y007137D01*
X005334Y007133D01*
X005350Y007126D01*
X005364Y007116D01*
X005377Y007103D01*
X005387Y007089D01*
X005394Y007073D01*
X005398Y007056D01*
X005400Y007039D01*
X005400Y006439D01*
X005398Y006422D01*
X005394Y006405D01*
X005387Y006389D01*
X005377Y006375D01*
X005364Y006362D01*
X005350Y006352D01*
X005334Y006345D01*
X005317Y006341D01*
X005300Y006339D01*
X005350Y006739D02*
X005150Y006739D01*
X004350Y006739D02*
X004150Y006739D01*
X003950Y006739D02*
X003750Y006739D01*
X004000Y006439D02*
X003998Y006422D01*
X003994Y006405D01*
X003987Y006389D01*
X003977Y006375D01*
X003964Y006362D01*
X003950Y006352D01*
X003934Y006345D01*
X003917Y006341D01*
X003900Y006339D01*
X002800Y006339D01*
X002783Y006341D01*
X002766Y006345D01*
X002750Y006352D01*
X002736Y006362D01*
X002723Y006375D01*
X002713Y006389D01*
X002706Y006405D01*
X002702Y006422D01*
X002700Y006439D01*
X002700Y007039D01*
X002702Y007056D01*
X002706Y007073D01*
X002713Y007089D01*
X002723Y007103D01*
X002736Y007116D01*
X002750Y007126D01*
X002766Y007133D01*
X002783Y007137D01*
X002800Y007139D01*
X003900Y007139D01*
X003917Y007137D01*
X003934Y007133D01*
X003950Y007126D01*
X003964Y007116D01*
X003977Y007103D01*
X003987Y007089D01*
X003994Y007073D01*
X003998Y007056D01*
X004000Y007039D01*
X004000Y006439D01*
X002950Y006739D02*
X002750Y006739D01*
X001550Y005989D02*
X000950Y005989D01*
X000933Y005987D01*
X000916Y005983D01*
X000900Y005976D01*
X000886Y005966D01*
X000873Y005953D01*
X000863Y005939D01*
X000856Y005923D01*
X000852Y005906D01*
X000850Y005889D01*
X000850Y004789D01*
X000852Y004772D01*
X000856Y004755D01*
X000863Y004739D01*
X000873Y004725D01*
X000886Y004712D01*
X000900Y004702D01*
X000916Y004695D01*
X000933Y004691D01*
X000950Y004689D01*
X001550Y004689D01*
X001567Y004691D01*
X001584Y004695D01*
X001600Y004702D01*
X001614Y004712D01*
X001627Y004725D01*
X001637Y004739D01*
X001644Y004755D01*
X001648Y004772D01*
X001650Y004789D01*
X001650Y005889D01*
X001648Y005906D01*
X001644Y005923D01*
X001637Y005939D01*
X001627Y005953D01*
X001614Y005966D01*
X001600Y005976D01*
X001584Y005983D01*
X001567Y005987D01*
X001550Y005989D01*
X001250Y005939D02*
X001250Y005739D01*
X001250Y004939D02*
X001250Y004739D01*
X010840Y004749D02*
X010840Y004619D01*
X010980Y004589D01*
X011040Y004459D01*
X010950Y004329D01*
X011040Y004239D01*
X011160Y004319D01*
X011220Y004289D01*
X011310Y004519D01*
X011250Y004489D02*
X011150Y004689D01*
X011250Y004839D01*
X011400Y004889D01*
X011550Y004839D01*
X011600Y004689D01*
X011550Y004539D01*
X011500Y004489D01*
X011600Y004339D01*
X011750Y004289D01*
X011800Y004339D01*
X011700Y004489D01*
X011800Y004639D01*
X011900Y004639D01*
X011900Y004739D01*
X011750Y004739D01*
X011700Y004889D01*
X011800Y005039D01*
X011750Y005089D01*
X011600Y004989D01*
X011450Y005089D01*
X011450Y005189D01*
X011350Y005189D01*
X011300Y005039D01*
X011150Y004989D01*
X011050Y005089D01*
X011000Y005039D01*
X011050Y004889D01*
X011000Y004739D01*
X010850Y004739D01*
X010900Y004639D01*
X011050Y004589D01*
X011050Y004439D01*
X011000Y004339D01*
X011050Y004289D01*
X011150Y004339D01*
X011200Y004339D01*
X011250Y004489D01*
X011244Y004500D02*
X011050Y004500D01*
X011050Y004442D02*
X011234Y004442D01*
X011215Y004383D02*
X011022Y004383D01*
X011014Y004325D02*
X011121Y004325D01*
X011050Y004559D02*
X011215Y004559D01*
X011186Y004617D02*
X010966Y004617D01*
X010882Y004676D02*
X011157Y004676D01*
X011180Y004734D02*
X010852Y004734D01*
X010840Y004749D02*
X010990Y004779D01*
X011040Y004899D01*
X010950Y005029D01*
X011040Y005119D01*
X011180Y005029D01*
X011300Y005079D01*
X011330Y005239D01*
X011460Y005239D01*
X011490Y005079D01*
X011610Y005029D01*
X011740Y005119D01*
X011830Y005029D01*
X011740Y004899D01*
X011800Y004769D01*
X011950Y004749D01*
X011950Y004619D01*
X011800Y004589D01*
X011750Y004459D01*
X011830Y004329D01*
X011740Y004239D01*
X011620Y004319D01*
X011570Y004289D01*
X011470Y004519D01*
X011511Y004500D02*
X011707Y004500D01*
X011732Y004442D02*
X011532Y004442D01*
X011571Y004383D02*
X011771Y004383D01*
X011786Y004325D02*
X011643Y004325D01*
X011557Y004559D02*
X011746Y004559D01*
X011785Y004617D02*
X011576Y004617D01*
X011596Y004676D02*
X011900Y004676D01*
X011900Y004734D02*
X011585Y004734D01*
X011565Y004793D02*
X011732Y004793D01*
X011713Y004851D02*
X011514Y004851D01*
X011544Y005027D02*
X011263Y005027D01*
X011315Y005085D02*
X011456Y005085D01*
X011450Y005144D02*
X011335Y005144D01*
X011112Y005027D02*
X011004Y005027D01*
X011024Y004968D02*
X011753Y004968D01*
X011714Y004910D02*
X011043Y004910D01*
X011037Y004851D02*
X011286Y004851D01*
X011219Y004793D02*
X011018Y004793D01*
X011046Y005085D02*
X011054Y005085D01*
X011310Y004519D02*
X011288Y004532D01*
X011268Y004548D01*
X011250Y004567D01*
X011235Y004589D01*
X011224Y004612D01*
X011216Y004637D01*
X011212Y004662D01*
X011211Y004688D01*
X011214Y004714D01*
X011221Y004739D01*
X011232Y004762D01*
X011245Y004784D01*
X011262Y004804D01*
X011281Y004821D01*
X011303Y004836D01*
X011327Y004846D01*
X011351Y004854D01*
X011377Y004858D01*
X011403Y004858D01*
X011429Y004854D01*
X011453Y004846D01*
X011477Y004836D01*
X011499Y004821D01*
X011518Y004804D01*
X011535Y004784D01*
X011548Y004762D01*
X011559Y004739D01*
X011566Y004714D01*
X011569Y004688D01*
X011568Y004662D01*
X011564Y004637D01*
X011556Y004612D01*
X011545Y004589D01*
X011530Y004567D01*
X011512Y004548D01*
X011492Y004532D01*
X011470Y004519D01*
X011656Y005027D02*
X011792Y005027D01*
X011754Y005085D02*
X011744Y005085D01*
D15*
X004874Y006466D02*
X004851Y006739D01*
X004851Y006739D01*
X004874Y007012D01*
X004875Y007013D01*
X004907Y007008D01*
X004939Y006999D01*
X004969Y006987D01*
X004997Y006971D01*
X005024Y006952D01*
X005048Y006930D01*
X005069Y006906D01*
X005087Y006879D01*
X005102Y006850D01*
X005113Y006819D01*
X005121Y006788D01*
X005125Y006755D01*
X005125Y006723D01*
X005121Y006690D01*
X005113Y006659D01*
X005102Y006628D01*
X005087Y006599D01*
X005069Y006572D01*
X005048Y006548D01*
X005024Y006526D01*
X004997Y006507D01*
X004969Y006491D01*
X004939Y006479D01*
X004907Y006470D01*
X004875Y006465D01*
X004875Y006512D01*
X004903Y006517D01*
X004931Y006526D01*
X004957Y006538D01*
X004982Y006553D01*
X005005Y006571D01*
X005025Y006592D01*
X005042Y006616D01*
X005056Y006641D01*
X005067Y006668D01*
X005074Y006696D01*
X005078Y006725D01*
X005078Y006753D01*
X005074Y006782D01*
X005067Y006810D01*
X005056Y006837D01*
X005042Y006862D01*
X005025Y006886D01*
X005005Y006907D01*
X004982Y006925D01*
X004957Y006940D01*
X004931Y006952D01*
X004903Y006961D01*
X004875Y006966D01*
X004875Y006918D01*
X004900Y006913D01*
X004925Y006904D01*
X004947Y006892D01*
X004968Y006876D01*
X004987Y006858D01*
X005002Y006837D01*
X005015Y006814D01*
X005024Y006790D01*
X005029Y006765D01*
X005031Y006739D01*
X005029Y006713D01*
X005024Y006688D01*
X005015Y006664D01*
X005002Y006641D01*
X004987Y006620D01*
X004968Y006602D01*
X004947Y006586D01*
X004925Y006574D01*
X004900Y006565D01*
X004875Y006560D01*
X004875Y006607D01*
X004896Y006613D01*
X004916Y006622D01*
X004934Y006634D01*
X004950Y006649D01*
X004963Y006667D01*
X004973Y006686D01*
X004980Y006707D01*
X004984Y006728D01*
X004984Y006750D01*
X004980Y006771D01*
X004973Y006792D01*
X004963Y006811D01*
X004950Y006829D01*
X004934Y006844D01*
X004916Y006856D01*
X004896Y006865D01*
X004875Y006871D01*
X004875Y006822D01*
X004891Y006816D01*
X004905Y006807D01*
X004917Y006794D01*
X004927Y006780D01*
X004933Y006764D01*
X004937Y006748D01*
X004937Y006730D01*
X004933Y006714D01*
X004927Y006698D01*
X004917Y006684D01*
X004905Y006671D01*
X004891Y006662D01*
X004875Y006656D01*
X004873Y006707D01*
X004881Y006714D01*
X004887Y006723D01*
X004890Y006734D01*
X004890Y006744D01*
X004887Y006755D01*
X004881Y006764D01*
X004873Y006771D01*
X004626Y007012D02*
X004649Y006739D01*
X004649Y006739D01*
X004626Y006466D01*
X004625Y006465D01*
X004593Y006470D01*
X004561Y006479D01*
X004531Y006491D01*
X004503Y006507D01*
X004476Y006526D01*
X004452Y006548D01*
X004431Y006572D01*
X004413Y006599D01*
X004398Y006628D01*
X004387Y006659D01*
X004379Y006690D01*
X004375Y006723D01*
X004375Y006755D01*
X004379Y006788D01*
X004387Y006819D01*
X004398Y006850D01*
X004413Y006879D01*
X004431Y006906D01*
X004452Y006930D01*
X004476Y006952D01*
X004503Y006971D01*
X004531Y006987D01*
X004561Y006999D01*
X004593Y007008D01*
X004625Y007013D01*
X004625Y006966D01*
X004597Y006961D01*
X004569Y006952D01*
X004543Y006940D01*
X004518Y006925D01*
X004495Y006907D01*
X004475Y006886D01*
X004458Y006862D01*
X004444Y006837D01*
X004433Y006810D01*
X004426Y006782D01*
X004422Y006753D01*
X004422Y006725D01*
X004426Y006696D01*
X004433Y006668D01*
X004444Y006641D01*
X004458Y006616D01*
X004475Y006592D01*
X004495Y006571D01*
X004518Y006553D01*
X004543Y006538D01*
X004569Y006526D01*
X004597Y006517D01*
X004625Y006512D01*
X004625Y006560D01*
X004600Y006565D01*
X004575Y006574D01*
X004553Y006586D01*
X004532Y006602D01*
X004513Y006620D01*
X004498Y006641D01*
X004485Y006664D01*
X004476Y006688D01*
X004471Y006713D01*
X004469Y006739D01*
X004471Y006765D01*
X004476Y006790D01*
X004485Y006814D01*
X004498Y006837D01*
X004513Y006858D01*
X004532Y006876D01*
X004553Y006892D01*
X004575Y006904D01*
X004600Y006913D01*
X004625Y006918D01*
X004625Y006871D01*
X004604Y006865D01*
X004584Y006856D01*
X004566Y006844D01*
X004550Y006829D01*
X004537Y006811D01*
X004527Y006792D01*
X004520Y006771D01*
X004516Y006750D01*
X004516Y006728D01*
X004520Y006707D01*
X004527Y006686D01*
X004537Y006667D01*
X004550Y006649D01*
X004566Y006634D01*
X004584Y006622D01*
X004604Y006613D01*
X004625Y006607D01*
X004625Y006656D01*
X004609Y006662D01*
X004595Y006671D01*
X004583Y006684D01*
X004573Y006698D01*
X004567Y006714D01*
X004563Y006730D01*
X004563Y006748D01*
X004567Y006764D01*
X004573Y006780D01*
X004583Y006794D01*
X004595Y006807D01*
X004609Y006816D01*
X004625Y006822D01*
X004627Y006771D01*
X004619Y006764D01*
X004613Y006755D01*
X004610Y006744D01*
X004610Y006734D01*
X004613Y006723D01*
X004619Y006714D01*
X004627Y006707D01*
X003474Y006466D02*
X003451Y006739D01*
X003451Y006739D01*
X003474Y007012D01*
X003475Y007013D01*
X003507Y007008D01*
X003539Y006999D01*
X003569Y006987D01*
X003597Y006971D01*
X003624Y006952D01*
X003648Y006930D01*
X003669Y006906D01*
X003687Y006879D01*
X003702Y006850D01*
X003713Y006819D01*
X003721Y006788D01*
X003725Y006755D01*
X003725Y006723D01*
X003721Y006690D01*
X003713Y006659D01*
X003702Y006628D01*
X003687Y006599D01*
X003669Y006572D01*
X003648Y006548D01*
X003624Y006526D01*
X003597Y006507D01*
X003569Y006491D01*
X003539Y006479D01*
X003507Y006470D01*
X003475Y006465D01*
X003475Y006512D01*
X003503Y006517D01*
X003531Y006526D01*
X003557Y006538D01*
X003582Y006553D01*
X003605Y006571D01*
X003625Y006592D01*
X003642Y006616D01*
X003656Y006641D01*
X003667Y006668D01*
X003674Y006696D01*
X003678Y006725D01*
X003678Y006753D01*
X003674Y006782D01*
X003667Y006810D01*
X003656Y006837D01*
X003642Y006862D01*
X003625Y006886D01*
X003605Y006907D01*
X003582Y006925D01*
X003557Y006940D01*
X003531Y006952D01*
X003503Y006961D01*
X003475Y006966D01*
X003475Y006918D01*
X003500Y006913D01*
X003525Y006904D01*
X003547Y006892D01*
X003568Y006876D01*
X003587Y006858D01*
X003602Y006837D01*
X003615Y006814D01*
X003624Y006790D01*
X003629Y006765D01*
X003631Y006739D01*
X003629Y006713D01*
X003624Y006688D01*
X003615Y006664D01*
X003602Y006641D01*
X003587Y006620D01*
X003568Y006602D01*
X003547Y006586D01*
X003525Y006574D01*
X003500Y006565D01*
X003475Y006560D01*
X003475Y006607D01*
X003496Y006613D01*
X003516Y006622D01*
X003534Y006634D01*
X003550Y006649D01*
X003563Y006667D01*
X003573Y006686D01*
X003580Y006707D01*
X003584Y006728D01*
X003584Y006750D01*
X003580Y006771D01*
X003573Y006792D01*
X003563Y006811D01*
X003550Y006829D01*
X003534Y006844D01*
X003516Y006856D01*
X003496Y006865D01*
X003475Y006871D01*
X003475Y006822D01*
X003491Y006816D01*
X003505Y006807D01*
X003517Y006794D01*
X003527Y006780D01*
X003533Y006764D01*
X003537Y006748D01*
X003537Y006730D01*
X003533Y006714D01*
X003527Y006698D01*
X003517Y006684D01*
X003505Y006671D01*
X003491Y006662D01*
X003475Y006656D01*
X003473Y006707D01*
X003481Y006714D01*
X003487Y006723D01*
X003490Y006734D01*
X003490Y006744D01*
X003487Y006755D01*
X003481Y006764D01*
X003473Y006771D01*
X003226Y007012D02*
X003249Y006739D01*
X003249Y006739D01*
X003226Y006466D01*
X003225Y006465D01*
X003193Y006470D01*
X003161Y006479D01*
X003131Y006491D01*
X003103Y006507D01*
X003076Y006526D01*
X003052Y006548D01*
X003031Y006572D01*
X003013Y006599D01*
X002998Y006628D01*
X002987Y006659D01*
X002979Y006690D01*
X002975Y006723D01*
X002975Y006755D01*
X002979Y006788D01*
X002987Y006819D01*
X002998Y006850D01*
X003013Y006879D01*
X003031Y006906D01*
X003052Y006930D01*
X003076Y006952D01*
X003103Y006971D01*
X003131Y006987D01*
X003161Y006999D01*
X003193Y007008D01*
X003225Y007013D01*
X003225Y006966D01*
X003197Y006961D01*
X003169Y006952D01*
X003143Y006940D01*
X003118Y006925D01*
X003095Y006907D01*
X003075Y006886D01*
X003058Y006862D01*
X003044Y006837D01*
X003033Y006810D01*
X003026Y006782D01*
X003022Y006753D01*
X003022Y006725D01*
X003026Y006696D01*
X003033Y006668D01*
X003044Y006641D01*
X003058Y006616D01*
X003075Y006592D01*
X003095Y006571D01*
X003118Y006553D01*
X003143Y006538D01*
X003169Y006526D01*
X003197Y006517D01*
X003225Y006512D01*
X003225Y006560D01*
X003200Y006565D01*
X003175Y006574D01*
X003153Y006586D01*
X003132Y006602D01*
X003113Y006620D01*
X003098Y006641D01*
X003085Y006664D01*
X003076Y006688D01*
X003071Y006713D01*
X003069Y006739D01*
X003071Y006765D01*
X003076Y006790D01*
X003085Y006814D01*
X003098Y006837D01*
X003113Y006858D01*
X003132Y006876D01*
X003153Y006892D01*
X003175Y006904D01*
X003200Y006913D01*
X003225Y006918D01*
X003225Y006871D01*
X003204Y006865D01*
X003184Y006856D01*
X003166Y006844D01*
X003150Y006829D01*
X003137Y006811D01*
X003127Y006792D01*
X003120Y006771D01*
X003116Y006750D01*
X003116Y006728D01*
X003120Y006707D01*
X003127Y006686D01*
X003137Y006667D01*
X003150Y006649D01*
X003166Y006634D01*
X003184Y006622D01*
X003204Y006613D01*
X003225Y006607D01*
X003225Y006656D01*
X003209Y006662D01*
X003195Y006671D01*
X003183Y006684D01*
X003173Y006698D01*
X003167Y006714D01*
X003163Y006730D01*
X003163Y006748D01*
X003167Y006764D01*
X003173Y006780D01*
X003183Y006794D01*
X003195Y006807D01*
X003209Y006816D01*
X003225Y006822D01*
X003227Y006771D01*
X003219Y006764D01*
X003213Y006755D01*
X003210Y006744D01*
X003210Y006734D01*
X003213Y006723D01*
X003219Y006714D01*
X003227Y006707D01*
X001523Y005463D02*
X001250Y005440D01*
X001250Y005440D01*
X000977Y005463D01*
X000976Y005464D01*
X000981Y005496D01*
X000990Y005528D01*
X001002Y005558D01*
X001018Y005586D01*
X001037Y005613D01*
X001059Y005637D01*
X001083Y005658D01*
X001110Y005676D01*
X001139Y005691D01*
X001170Y005702D01*
X001201Y005710D01*
X001234Y005714D01*
X001266Y005714D01*
X001299Y005710D01*
X001330Y005702D01*
X001361Y005691D01*
X001390Y005676D01*
X001417Y005658D01*
X001441Y005637D01*
X001463Y005613D01*
X001482Y005586D01*
X001498Y005558D01*
X001510Y005528D01*
X001519Y005496D01*
X001524Y005464D01*
X001477Y005464D01*
X001472Y005492D01*
X001463Y005520D01*
X001451Y005546D01*
X001436Y005571D01*
X001418Y005594D01*
X001397Y005614D01*
X001373Y005631D01*
X001348Y005645D01*
X001321Y005656D01*
X001293Y005663D01*
X001264Y005667D01*
X001236Y005667D01*
X001207Y005663D01*
X001179Y005656D01*
X001152Y005645D01*
X001127Y005631D01*
X001103Y005614D01*
X001082Y005594D01*
X001064Y005571D01*
X001049Y005546D01*
X001037Y005520D01*
X001028Y005492D01*
X001023Y005464D01*
X001071Y005464D01*
X001076Y005489D01*
X001085Y005514D01*
X001097Y005536D01*
X001113Y005557D01*
X001131Y005576D01*
X001152Y005591D01*
X001175Y005604D01*
X001199Y005613D01*
X001224Y005618D01*
X001250Y005620D01*
X001276Y005618D01*
X001301Y005613D01*
X001325Y005604D01*
X001348Y005591D01*
X001369Y005576D01*
X001387Y005557D01*
X001403Y005536D01*
X001415Y005514D01*
X001424Y005489D01*
X001429Y005464D01*
X001382Y005464D01*
X001376Y005485D01*
X001367Y005505D01*
X001355Y005523D01*
X001340Y005539D01*
X001322Y005552D01*
X001303Y005562D01*
X001282Y005569D01*
X001261Y005573D01*
X001239Y005573D01*
X001218Y005569D01*
X001197Y005562D01*
X001178Y005552D01*
X001160Y005539D01*
X001145Y005523D01*
X001133Y005505D01*
X001124Y005485D01*
X001118Y005464D01*
X001167Y005464D01*
X001173Y005480D01*
X001182Y005494D01*
X001195Y005506D01*
X001209Y005516D01*
X001225Y005522D01*
X001241Y005526D01*
X001259Y005526D01*
X001275Y005522D01*
X001291Y005516D01*
X001305Y005506D01*
X001318Y005494D01*
X001327Y005480D01*
X001333Y005464D01*
X001282Y005462D01*
X001275Y005470D01*
X001266Y005476D01*
X001255Y005479D01*
X001245Y005479D01*
X001234Y005476D01*
X001225Y005470D01*
X001218Y005462D01*
X000977Y005215D02*
X001250Y005238D01*
X001250Y005238D01*
X001523Y005215D01*
X001524Y005214D01*
X001519Y005182D01*
X001510Y005150D01*
X001498Y005120D01*
X001482Y005092D01*
X001463Y005065D01*
X001441Y005041D01*
X001417Y005020D01*
X001390Y005002D01*
X001361Y004987D01*
X001330Y004976D01*
X001299Y004968D01*
X001266Y004964D01*
X001234Y004964D01*
X001201Y004968D01*
X001170Y004976D01*
X001139Y004987D01*
X001110Y005002D01*
X001083Y005020D01*
X001059Y005041D01*
X001037Y005065D01*
X001018Y005092D01*
X001002Y005120D01*
X000990Y005150D01*
X000981Y005182D01*
X000976Y005214D01*
X001023Y005214D01*
X001028Y005186D01*
X001037Y005158D01*
X001049Y005132D01*
X001064Y005107D01*
X001082Y005084D01*
X001103Y005064D01*
X001127Y005047D01*
X001152Y005033D01*
X001179Y005022D01*
X001207Y005015D01*
X001236Y005011D01*
X001264Y005011D01*
X001293Y005015D01*
X001321Y005022D01*
X001348Y005033D01*
X001373Y005047D01*
X001397Y005064D01*
X001418Y005084D01*
X001436Y005107D01*
X001451Y005132D01*
X001463Y005158D01*
X001472Y005186D01*
X001477Y005214D01*
X001429Y005214D01*
X001424Y005189D01*
X001415Y005164D01*
X001403Y005142D01*
X001387Y005121D01*
X001369Y005102D01*
X001348Y005087D01*
X001325Y005074D01*
X001301Y005065D01*
X001276Y005060D01*
X001250Y005058D01*
X001224Y005060D01*
X001199Y005065D01*
X001175Y005074D01*
X001152Y005087D01*
X001131Y005102D01*
X001113Y005121D01*
X001097Y005142D01*
X001085Y005164D01*
X001076Y005189D01*
X001071Y005214D01*
X001118Y005214D01*
X001124Y005193D01*
X001133Y005173D01*
X001145Y005155D01*
X001160Y005139D01*
X001178Y005126D01*
X001197Y005116D01*
X001218Y005109D01*
X001239Y005105D01*
X001261Y005105D01*
X001282Y005109D01*
X001303Y005116D01*
X001322Y005126D01*
X001340Y005139D01*
X001355Y005155D01*
X001367Y005173D01*
X001376Y005193D01*
X001382Y005214D01*
X001333Y005214D01*
X001327Y005198D01*
X001318Y005184D01*
X001305Y005172D01*
X001291Y005162D01*
X001275Y005156D01*
X001259Y005152D01*
X001241Y005152D01*
X001225Y005156D01*
X001209Y005162D01*
X001195Y005172D01*
X001182Y005184D01*
X001173Y005198D01*
X001167Y005214D01*
X001218Y005216D01*
X001225Y005208D01*
X001234Y005202D01*
X001245Y005199D01*
X001255Y005199D01*
X001266Y005202D01*
X001275Y005208D01*
X001282Y005216D01*
D16*
X001232Y006099D02*
X001196Y006099D01*
X001159Y006136D01*
X001159Y006320D01*
X001196Y006320D02*
X001122Y006320D01*
X001048Y006246D02*
X000975Y006320D01*
X000975Y006099D01*
X001048Y006099D02*
X000901Y006099D01*
X001232Y006099D02*
X001269Y006136D01*
X001343Y006136D02*
X001380Y006099D01*
X001453Y006099D01*
X001490Y006136D01*
X001453Y006210D02*
X001380Y006210D01*
X001343Y006173D01*
X001343Y006136D01*
X001453Y006210D02*
X001490Y006246D01*
X001490Y006283D01*
X001453Y006320D01*
X001380Y006320D01*
X001343Y006283D01*
X002420Y006473D02*
X002457Y006436D01*
X002420Y006473D02*
X002420Y006547D01*
X002457Y006583D01*
X002493Y006583D01*
X002530Y006547D01*
X002530Y006473D01*
X002567Y006436D01*
X002603Y006436D01*
X002640Y006473D01*
X002640Y006547D01*
X002603Y006583D01*
X002457Y006657D02*
X002420Y006694D01*
X002420Y006731D01*
X002457Y006768D01*
X002640Y006768D01*
X002640Y006804D02*
X002640Y006731D01*
X002603Y006878D02*
X002640Y006915D01*
X002640Y006989D01*
X002603Y007025D01*
X002567Y007025D01*
X002420Y006878D01*
X002420Y007025D01*
X005460Y006951D02*
X005460Y006878D01*
X005497Y006841D01*
X005570Y006915D02*
X005570Y006951D01*
X005533Y006988D01*
X005497Y006988D01*
X005460Y006951D01*
X005570Y006951D02*
X005607Y006988D01*
X005643Y006988D01*
X005680Y006951D01*
X005680Y006878D01*
X005643Y006841D01*
X005680Y006767D02*
X005680Y006694D01*
X005680Y006731D02*
X005497Y006731D01*
X005460Y006694D01*
X005460Y006657D01*
X005497Y006620D01*
X005497Y006546D02*
X005460Y006510D01*
X005460Y006436D01*
X005497Y006399D01*
X005570Y006436D02*
X005570Y006510D01*
X005533Y006546D01*
X005497Y006546D01*
X005643Y006546D02*
X005680Y006510D01*
X005680Y006436D01*
X005643Y006399D01*
X005607Y006399D01*
X005570Y006436D01*
D17*
X012350Y004789D03*
X012350Y004389D03*
X012850Y004389D03*
D18*
X012350Y005049D03*
D19*
X012160Y005199D03*
D20*
X012200Y005089D02*
X012250Y005389D01*
X012300Y005089D01*
X012350Y005389D01*
X012400Y005089D01*
X012450Y005389D01*
X012500Y005089D01*
X012550Y005389D01*
X012600Y005089D01*
X012500Y005089D01*
X012400Y005089D01*
X012300Y005089D01*
X012200Y005089D01*
X012200Y005389D01*
X012250Y005389D01*
X012350Y005389D01*
X012450Y005389D01*
X012550Y005389D01*
X012600Y005389D01*
X012600Y005089D01*
M02*
