G75*
%MOIN*%
%OFA0B0*%
%FSLAX24Y24*%
%IPPOS*%
%LPD*%
%AMOC8*
5,1,8,0,0,1.08239X$1,22.5*
%
%ADD10R,0.0630X0.0460*%
%ADD11R,0.0460X0.0630*%
%ADD12OC8,0.0700*%
%ADD13C,0.0160*%
%ADD14C,0.0270*%
%ADD15C,0.0060*%
%ADD16C,0.0100*%
D10*
X001250Y005039D03*
X001250Y005639D03*
D11*
X003050Y006739D03*
X003650Y006739D03*
X004450Y006739D03*
X005050Y006739D03*
D12*
X000850Y001139D03*
X001850Y001139D03*
X002850Y001139D03*
X003850Y001139D03*
X004850Y001139D03*
X005850Y001139D03*
X006850Y001139D03*
X007850Y001139D03*
X008850Y001139D03*
X009850Y001139D03*
X010850Y001139D03*
X011850Y001139D03*
X011850Y008139D03*
X010850Y008139D03*
X009850Y008139D03*
X008850Y008139D03*
X007850Y008139D03*
X006850Y008139D03*
X005850Y008139D03*
X004850Y008139D03*
X003850Y008139D03*
X002850Y008139D03*
X001850Y008139D03*
X000850Y008139D03*
X012850Y008139D03*
D13*
X013120Y007716D02*
X013120Y005493D01*
X011398Y005493D01*
X011351Y005446D01*
X011351Y003139D01*
X011350Y003139D01*
X011350Y001389D01*
X011322Y001361D01*
X011240Y001442D01*
X011240Y005368D01*
X011129Y005479D01*
X011125Y005483D01*
X011125Y005544D01*
X011083Y005645D01*
X011006Y005723D01*
X010905Y005764D01*
X010815Y005764D01*
X012700Y007649D01*
X013053Y007649D01*
X013120Y007716D01*
X013120Y007613D02*
X012664Y007613D01*
X012506Y007455D02*
X013120Y007455D01*
X013120Y007296D02*
X012347Y007296D01*
X012189Y007138D02*
X013120Y007138D01*
X013120Y006979D02*
X012030Y006979D01*
X011872Y006821D02*
X013120Y006821D01*
X013120Y006662D02*
X011713Y006662D01*
X011555Y006504D02*
X013120Y006504D01*
X013120Y006345D02*
X011396Y006345D01*
X011238Y006187D02*
X013120Y006187D01*
X013120Y006028D02*
X011079Y006028D01*
X010921Y005870D02*
X013120Y005870D01*
X013120Y005711D02*
X011017Y005711D01*
X011121Y005553D02*
X013120Y005553D01*
X011351Y005394D02*
X011214Y005394D01*
X011240Y005236D02*
X011351Y005236D01*
X011351Y005077D02*
X011240Y005077D01*
X011240Y004919D02*
X011351Y004919D01*
X011351Y004760D02*
X011240Y004760D01*
X011240Y004602D02*
X011351Y004602D01*
X011351Y004443D02*
X011240Y004443D01*
X011240Y004285D02*
X011351Y004285D01*
X011351Y004126D02*
X011240Y004126D01*
X011240Y003968D02*
X011351Y003968D01*
X011351Y003809D02*
X011240Y003809D01*
X011240Y003651D02*
X011351Y003651D01*
X011351Y003492D02*
X011240Y003492D01*
X011240Y003334D02*
X011351Y003334D01*
X011351Y003175D02*
X011240Y003175D01*
X011240Y003017D02*
X011350Y003017D01*
X011350Y002858D02*
X011240Y002858D01*
X011240Y002700D02*
X011350Y002700D01*
X011350Y002541D02*
X011240Y002541D01*
X011240Y002383D02*
X011350Y002383D01*
X011350Y002224D02*
X011240Y002224D01*
X011240Y002066D02*
X011350Y002066D01*
X011350Y001907D02*
X011240Y001907D01*
X011240Y001749D02*
X011350Y001749D01*
X011350Y001590D02*
X011240Y001590D01*
X011250Y001432D02*
X011350Y001432D01*
X010580Y003083D02*
X010505Y003114D01*
X010415Y003114D01*
X010020Y003509D01*
X006169Y003509D01*
X006106Y003573D01*
X006005Y003614D01*
X005895Y003614D01*
X005794Y003573D01*
X005776Y003554D01*
X005660Y003669D01*
X009620Y003669D01*
X009840Y003889D01*
X009930Y003889D01*
X010031Y003931D01*
X010108Y004009D01*
X010150Y004110D01*
X010150Y004219D01*
X010108Y004320D01*
X010031Y004398D01*
X009930Y004439D01*
X009820Y004439D01*
X009719Y004398D01*
X009642Y004320D01*
X009600Y004219D01*
X009600Y004130D01*
X009480Y004009D01*
X009194Y004009D01*
X009225Y004085D01*
X009225Y004174D01*
X010575Y005524D01*
X010575Y005435D01*
X010600Y005375D01*
X010594Y005373D01*
X010517Y005295D01*
X010475Y005194D01*
X010475Y005085D01*
X010517Y004984D01*
X010580Y004921D01*
X010580Y003083D01*
X010580Y003175D02*
X010354Y003175D01*
X010196Y003334D02*
X010580Y003334D01*
X010580Y003492D02*
X010037Y003492D01*
X009760Y003809D02*
X010580Y003809D01*
X010580Y003968D02*
X010067Y003968D01*
X010150Y004126D02*
X010580Y004126D01*
X010580Y004285D02*
X010123Y004285D01*
X009627Y004285D02*
X009336Y004285D01*
X009225Y004126D02*
X009597Y004126D01*
X009494Y004443D02*
X010580Y004443D01*
X010580Y004602D02*
X009653Y004602D01*
X009811Y004760D02*
X010580Y004760D01*
X010580Y004919D02*
X009970Y004919D01*
X010128Y005077D02*
X010478Y005077D01*
X010492Y005236D02*
X010287Y005236D01*
X010445Y005394D02*
X010592Y005394D01*
X010580Y003651D02*
X005679Y003651D01*
D14*
X005950Y003339D03*
X005850Y002939D03*
X004950Y003239D03*
X003750Y003739D03*
X004550Y004139D03*
X003750Y004539D03*
X003750Y004939D03*
X004550Y004939D03*
X005850Y004739D03*
X006250Y004839D03*
X005850Y004139D03*
X006950Y003589D03*
X008050Y002739D03*
X008350Y002914D03*
X008650Y002689D03*
X008350Y002539D03*
X008950Y002839D03*
X009250Y002689D03*
X009850Y002939D03*
X010150Y002689D03*
X010450Y002839D03*
X010750Y002439D03*
X010350Y004139D03*
X009875Y004164D03*
X010350Y004539D03*
X009950Y004739D03*
X010350Y004939D03*
X010750Y005139D03*
X010850Y005489D03*
X011450Y005564D03*
X011650Y005864D03*
X011850Y005564D03*
X012050Y005864D03*
X012250Y005564D03*
X012450Y005864D03*
X012650Y005564D03*
X012850Y005864D03*
X013050Y005564D03*
X010550Y007064D03*
X009750Y007039D03*
X009550Y005739D03*
X009250Y005539D03*
X008650Y005739D03*
X008150Y004839D03*
X008250Y004139D03*
X008950Y004139D03*
X007050Y002539D03*
X007650Y002339D03*
X005250Y001539D03*
X004250Y001539D03*
X004950Y002239D03*
X002850Y002439D03*
X002850Y002839D03*
X002050Y002339D03*
X001250Y003439D03*
X002150Y004339D03*
X002150Y005639D03*
X002250Y006139D03*
X003850Y005939D03*
X004050Y006239D03*
X005450Y006239D03*
X006350Y005939D03*
X006750Y005889D03*
X007150Y006089D03*
X006850Y006939D03*
X007400Y006989D03*
X010150Y005739D03*
X003250Y007739D03*
D15*
X002850Y008139D02*
X002250Y007539D01*
X002250Y006139D01*
X003150Y006739D02*
X003550Y006739D01*
X004050Y006339D02*
X004050Y006239D01*
X004050Y006339D02*
X004450Y006739D01*
X004550Y006739D02*
X004950Y006739D01*
X005050Y006739D02*
X005050Y006639D01*
X005450Y006239D01*
X005150Y005939D02*
X003850Y005939D01*
X004650Y005439D02*
X002850Y005439D01*
X001250Y003839D01*
X001250Y003439D01*
X002050Y003239D02*
X003650Y004839D01*
X003750Y004839D01*
X003750Y004939D01*
X003750Y004839D02*
X004250Y004839D01*
X005750Y003339D01*
X005950Y003339D01*
X009950Y003339D01*
X010450Y002839D01*
X010450Y001739D01*
X009850Y001139D01*
X008850Y001139D02*
X010150Y002439D01*
X010150Y002689D01*
X009850Y002939D02*
X008050Y001139D01*
X007850Y001139D01*
X008250Y001639D02*
X007350Y001639D01*
X006850Y001139D01*
X006550Y001839D02*
X005850Y001139D01*
X005250Y001539D02*
X006550Y002839D01*
X007750Y002839D01*
X007850Y002739D01*
X008050Y002739D01*
X007950Y002439D02*
X007750Y002639D01*
X007550Y002639D01*
X007450Y002539D01*
X007050Y002539D01*
X007650Y002339D02*
X007750Y002239D01*
X008450Y002239D01*
X008650Y002439D01*
X008650Y002689D01*
X008350Y002539D02*
X008250Y002439D01*
X007950Y002439D01*
X008350Y002914D02*
X008225Y003039D01*
X006350Y003039D01*
X005950Y002639D01*
X005750Y002639D01*
X005250Y003139D01*
X005250Y003339D01*
X005050Y003539D01*
X004850Y003539D01*
X003850Y002539D01*
X003850Y001139D01*
X004250Y001539D02*
X004250Y001939D01*
X004950Y002639D01*
X004950Y003239D01*
X004950Y003739D02*
X005050Y003739D01*
X005850Y002939D01*
X004950Y002239D02*
X004950Y001239D01*
X004850Y001139D01*
X006550Y001839D02*
X008250Y001839D01*
X008950Y002539D01*
X008950Y002839D01*
X009250Y002689D02*
X009250Y002639D01*
X008250Y001639D01*
X010750Y002439D02*
X010750Y005139D01*
X010150Y005739D02*
X008850Y004439D01*
X005450Y004439D01*
X004650Y005239D01*
X003650Y005239D01*
X002750Y004339D01*
X002150Y004339D01*
X001250Y005139D02*
X001250Y005539D01*
X004550Y004939D02*
X005650Y003839D01*
X009550Y003839D01*
X009875Y004164D01*
X008950Y004139D02*
X012850Y008039D01*
X012850Y008139D01*
X010850Y008139D02*
X010550Y007839D01*
X010550Y007064D01*
X009750Y007039D02*
X009750Y007239D01*
X008850Y008139D01*
X009850Y008139D02*
X010150Y007839D01*
X010150Y005739D01*
X009550Y005739D02*
X009550Y006439D01*
X007850Y008139D01*
X006850Y008139D02*
X009250Y005739D01*
X009250Y005539D01*
X008650Y005739D02*
X007400Y006989D01*
X006850Y006939D02*
X008150Y005639D01*
X008150Y004839D01*
X008250Y004139D02*
X005850Y004139D01*
X005850Y004739D02*
X005350Y004739D01*
X004650Y005439D01*
X005150Y005939D02*
X006250Y004839D01*
X006750Y005889D02*
X006750Y006239D01*
X004850Y008139D01*
X004850Y007639D02*
X004350Y007639D01*
X003850Y008139D01*
X004850Y007639D02*
X006350Y006139D01*
X006350Y005939D01*
X007150Y006089D02*
X007150Y006239D01*
X005850Y007539D01*
X005850Y008139D01*
X004550Y004139D02*
X004950Y003739D01*
X002050Y003239D02*
X002050Y002339D01*
D16*
X001950Y002039D02*
X000950Y003039D01*
X000950Y004039D01*
X003050Y006139D01*
X003050Y006739D01*
X003650Y006739D02*
X003650Y006939D01*
X003250Y007339D01*
X003250Y007739D01*
X002150Y005639D02*
X001250Y005639D01*
X001250Y005039D02*
X000950Y004739D01*
X000950Y004039D01*
X002850Y003239D02*
X002850Y002839D01*
X002850Y003239D02*
X003750Y004139D01*
X003750Y004539D01*
X003750Y003739D02*
X003750Y003339D01*
X002850Y002439D01*
X002450Y002039D01*
X001950Y002039D01*
X010850Y001139D02*
X011050Y001339D01*
X011050Y005289D01*
X010850Y005489D01*
M02*
