G75*
%MOIN*%
%OFA0B0*%
%FSLAX24Y24*%
%IPPOS*%
%LPD*%
%AMOC8*
5,1,8,0,0,1.08239X$1,22.5*
%
%ADD10C,0.0058*%
%ADD11R,0.1102X0.0291*%
%ADD12R,0.0394X0.0354*%
%ADD13R,0.0315X0.0669*%
%ADD14R,0.0394X0.0433*%
%ADD15R,0.0472X0.0472*%
%ADD16R,0.0433X0.0394*%
%ADD17R,0.0472X0.0315*%
%ADD18R,0.0472X0.0217*%
%ADD19OC8,0.0700*%
%ADD20C,0.0197*%
%ADD21C,0.0100*%
%ADD22C,0.0160*%
%ADD23C,0.0270*%
%ADD24C,0.0060*%
D10*
X002427Y003955D02*
X003471Y003955D01*
X003471Y003723D01*
X002427Y003723D01*
X002427Y003955D01*
X002427Y003780D02*
X003471Y003780D01*
X003471Y003837D02*
X002427Y003837D01*
X002427Y003894D02*
X003471Y003894D01*
X003471Y003951D02*
X002427Y003951D01*
D11*
X002949Y004339D03*
X002949Y004839D03*
X002949Y005339D03*
X002949Y005839D03*
X001351Y005839D03*
X001351Y005339D03*
X001351Y004839D03*
X001351Y004339D03*
X001351Y003839D03*
D12*
X005635Y003682D03*
X006265Y003682D03*
X006265Y005297D03*
X005635Y005297D03*
D13*
X005478Y004489D03*
D14*
X005350Y003074D03*
X005350Y002405D03*
X004350Y002405D03*
X004350Y003074D03*
X006350Y003074D03*
X006350Y002405D03*
X001650Y002405D03*
X001650Y003074D03*
X001715Y006739D03*
X002385Y006739D03*
X005715Y006739D03*
X006385Y006739D03*
D15*
X005163Y006739D03*
X004337Y006739D03*
X003763Y006739D03*
X002937Y006739D03*
D16*
X004215Y005339D03*
X004885Y005339D03*
X004885Y004539D03*
X004215Y004539D03*
X004215Y003739D03*
X004885Y003739D03*
D17*
X000850Y003094D03*
X000850Y002385D03*
D18*
X002338Y002739D03*
X003362Y002365D03*
X003362Y003113D03*
D19*
X000850Y001139D03*
X001850Y001139D03*
X002850Y001139D03*
X003850Y001139D03*
X004850Y001139D03*
X005850Y001139D03*
X006850Y001139D03*
X007850Y001139D03*
X008850Y001139D03*
X009850Y001139D03*
X010850Y001139D03*
X011850Y001139D03*
X011850Y008139D03*
X010850Y008139D03*
X009850Y008139D03*
X008850Y008139D03*
X007850Y008139D03*
X006850Y008139D03*
X005850Y008139D03*
X004850Y008139D03*
X003850Y008139D03*
X002850Y008139D03*
X001850Y008139D03*
X000850Y008139D03*
X012850Y008139D03*
D20*
X012745Y006161D02*
X012745Y006161D01*
X012745Y006751D01*
X012745Y006751D01*
X012745Y006161D01*
X012745Y006357D02*
X012745Y006357D01*
X012745Y006553D02*
X012745Y006553D01*
X012745Y006749D02*
X012745Y006749D01*
X012430Y006161D02*
X012430Y006161D01*
X012430Y006751D01*
X012430Y006751D01*
X012430Y006161D01*
X012430Y006357D02*
X012430Y006357D01*
X012430Y006553D02*
X012430Y006553D01*
X012430Y006749D02*
X012430Y006749D01*
X012115Y006161D02*
X012115Y006161D01*
X012115Y006751D01*
X012115Y006751D01*
X012115Y006161D01*
X012115Y006357D02*
X012115Y006357D01*
X012115Y006553D02*
X012115Y006553D01*
X012115Y006749D02*
X012115Y006749D01*
X011800Y006161D02*
X011800Y006161D01*
X011800Y006751D01*
X011800Y006751D01*
X011800Y006161D01*
X011800Y006357D02*
X011800Y006357D01*
X011800Y006553D02*
X011800Y006553D01*
X011800Y006749D02*
X011800Y006749D01*
X011485Y006161D02*
X011485Y006161D01*
X011485Y006751D01*
X011485Y006751D01*
X011485Y006161D01*
X011485Y006357D02*
X011485Y006357D01*
X011485Y006553D02*
X011485Y006553D01*
X011485Y006749D02*
X011485Y006749D01*
X011170Y006161D02*
X011170Y006161D01*
X011170Y006751D01*
X011170Y006751D01*
X011170Y006161D01*
X011170Y006357D02*
X011170Y006357D01*
X011170Y006553D02*
X011170Y006553D01*
X011170Y006749D02*
X011170Y006749D01*
X010855Y006161D02*
X010855Y006161D01*
X010855Y006751D01*
X010855Y006751D01*
X010855Y006161D01*
X010855Y006357D02*
X010855Y006357D01*
X010855Y006553D02*
X010855Y006553D01*
X010855Y006749D02*
X010855Y006749D01*
X010540Y006161D02*
X010540Y006161D01*
X010540Y006751D01*
X010540Y006751D01*
X010540Y006161D01*
X010540Y006357D02*
X010540Y006357D01*
X010540Y006553D02*
X010540Y006553D01*
X010540Y006749D02*
X010540Y006749D01*
X010225Y006161D02*
X010225Y006161D01*
X010225Y006751D01*
X010225Y006751D01*
X010225Y006161D01*
X010225Y006357D02*
X010225Y006357D01*
X010225Y006553D02*
X010225Y006553D01*
X010225Y006749D02*
X010225Y006749D01*
X009910Y006161D02*
X009910Y006161D01*
X009910Y006751D01*
X009910Y006751D01*
X009910Y006161D01*
X009910Y006357D02*
X009910Y006357D01*
X009910Y006553D02*
X009910Y006553D01*
X009910Y006749D02*
X009910Y006749D01*
X009595Y006161D02*
X009595Y006161D01*
X009595Y006751D01*
X009595Y006751D01*
X009595Y006161D01*
X009595Y006357D02*
X009595Y006357D01*
X009595Y006553D02*
X009595Y006553D01*
X009595Y006749D02*
X009595Y006749D01*
X009281Y006161D02*
X009281Y006161D01*
X009281Y006751D01*
X009281Y006751D01*
X009281Y006161D01*
X009281Y006357D02*
X009281Y006357D01*
X009281Y006553D02*
X009281Y006553D01*
X009281Y006749D02*
X009281Y006749D01*
X008966Y006161D02*
X008966Y006161D01*
X008966Y006751D01*
X008966Y006751D01*
X008966Y006161D01*
X008966Y006357D02*
X008966Y006357D01*
X008966Y006553D02*
X008966Y006553D01*
X008966Y006749D02*
X008966Y006749D01*
X008651Y006161D02*
X008651Y006161D01*
X008651Y006751D01*
X008651Y006751D01*
X008651Y006161D01*
X008651Y006357D02*
X008651Y006357D01*
X008651Y006553D02*
X008651Y006553D01*
X008651Y006749D02*
X008651Y006749D01*
X008336Y006161D02*
X008336Y006161D01*
X008336Y006751D01*
X008336Y006751D01*
X008336Y006161D01*
X008336Y006357D02*
X008336Y006357D01*
X008336Y006553D02*
X008336Y006553D01*
X008336Y006749D02*
X008336Y006749D01*
X008021Y006161D02*
X008021Y006161D01*
X008021Y006751D01*
X008021Y006751D01*
X008021Y006161D01*
X008021Y006357D02*
X008021Y006357D01*
X008021Y006553D02*
X008021Y006553D01*
X008021Y006749D02*
X008021Y006749D01*
X007706Y006161D02*
X007706Y006161D01*
X007706Y006751D01*
X007706Y006751D01*
X007706Y006161D01*
X007706Y006357D02*
X007706Y006357D01*
X007706Y006553D02*
X007706Y006553D01*
X007706Y006749D02*
X007706Y006749D01*
X007784Y005777D02*
X007784Y005777D01*
X007194Y005777D01*
X007194Y005777D01*
X007784Y005777D01*
X007784Y005462D02*
X007784Y005462D01*
X007194Y005462D01*
X007194Y005462D01*
X007784Y005462D01*
X007784Y005147D02*
X007784Y005147D01*
X007194Y005147D01*
X007194Y005147D01*
X007784Y005147D01*
X007194Y004832D02*
X007194Y004832D01*
X007784Y004832D01*
X007784Y004832D01*
X007194Y004832D01*
X007194Y004517D02*
X007194Y004517D01*
X007784Y004517D01*
X007784Y004517D01*
X007194Y004517D01*
X007194Y004202D02*
X007194Y004202D01*
X007784Y004202D01*
X007784Y004202D01*
X007194Y004202D01*
X007706Y003228D02*
X007706Y003228D01*
X007706Y003818D01*
X007706Y003818D01*
X007706Y003228D01*
X007706Y003424D02*
X007706Y003424D01*
X007706Y003620D02*
X007706Y003620D01*
X007706Y003816D02*
X007706Y003816D01*
X008021Y003228D02*
X008021Y003228D01*
X008021Y003818D01*
X008021Y003818D01*
X008021Y003228D01*
X008021Y003424D02*
X008021Y003424D01*
X008021Y003620D02*
X008021Y003620D01*
X008021Y003816D02*
X008021Y003816D01*
X008336Y003228D02*
X008336Y003228D01*
X008336Y003818D01*
X008336Y003818D01*
X008336Y003228D01*
X008336Y003424D02*
X008336Y003424D01*
X008336Y003620D02*
X008336Y003620D01*
X008336Y003816D02*
X008336Y003816D01*
X008651Y003228D02*
X008651Y003228D01*
X008651Y003818D01*
X008651Y003818D01*
X008651Y003228D01*
X008651Y003424D02*
X008651Y003424D01*
X008651Y003620D02*
X008651Y003620D01*
X008651Y003816D02*
X008651Y003816D01*
X008966Y003228D02*
X008966Y003228D01*
X008966Y003818D01*
X008966Y003818D01*
X008966Y003228D01*
X008966Y003424D02*
X008966Y003424D01*
X008966Y003620D02*
X008966Y003620D01*
X008966Y003816D02*
X008966Y003816D01*
X009281Y003228D02*
X009281Y003228D01*
X009281Y003818D01*
X009281Y003818D01*
X009281Y003228D01*
X009281Y003424D02*
X009281Y003424D01*
X009281Y003620D02*
X009281Y003620D01*
X009281Y003816D02*
X009281Y003816D01*
X009595Y003228D02*
X009595Y003228D01*
X009595Y003818D01*
X009595Y003818D01*
X009595Y003228D01*
X009595Y003424D02*
X009595Y003424D01*
X009595Y003620D02*
X009595Y003620D01*
X009595Y003816D02*
X009595Y003816D01*
X009910Y003228D02*
X009910Y003228D01*
X009910Y003818D01*
X009910Y003818D01*
X009910Y003228D01*
X009910Y003424D02*
X009910Y003424D01*
X009910Y003620D02*
X009910Y003620D01*
X009910Y003816D02*
X009910Y003816D01*
X010225Y003228D02*
X010225Y003228D01*
X010225Y003818D01*
X010225Y003818D01*
X010225Y003228D01*
X010225Y003424D02*
X010225Y003424D01*
X010225Y003620D02*
X010225Y003620D01*
X010225Y003816D02*
X010225Y003816D01*
X010540Y003228D02*
X010540Y003228D01*
X010540Y003818D01*
X010540Y003818D01*
X010540Y003228D01*
X010540Y003424D02*
X010540Y003424D01*
X010540Y003620D02*
X010540Y003620D01*
X010540Y003816D02*
X010540Y003816D01*
X010855Y003228D02*
X010855Y003228D01*
X010855Y003818D01*
X010855Y003818D01*
X010855Y003228D01*
X010855Y003424D02*
X010855Y003424D01*
X010855Y003620D02*
X010855Y003620D01*
X010855Y003816D02*
X010855Y003816D01*
X011170Y003228D02*
X011170Y003228D01*
X011170Y003818D01*
X011170Y003818D01*
X011170Y003228D01*
X011170Y003424D02*
X011170Y003424D01*
X011170Y003620D02*
X011170Y003620D01*
X011170Y003816D02*
X011170Y003816D01*
X013060Y006161D02*
X013060Y006161D01*
X013060Y006751D01*
X013060Y006751D01*
X013060Y006161D01*
X013060Y006357D02*
X013060Y006357D01*
X013060Y006553D02*
X013060Y006553D01*
X013060Y006749D02*
X013060Y006749D01*
D21*
X013050Y006139D02*
X013060Y006139D01*
X012115Y006456D02*
X012050Y006439D01*
X012115Y006456D01*
X010855Y006456D02*
X010850Y006539D01*
X010850Y007139D01*
X010650Y007339D01*
X008550Y007339D01*
X008050Y006839D01*
X008050Y006539D01*
X008021Y006456D01*
X005850Y006239D02*
X005350Y005739D01*
X004350Y006739D01*
X004337Y006739D01*
X003763Y006739D01*
X003150Y007639D02*
X002450Y007639D01*
X001750Y006939D01*
X001750Y006739D01*
X001715Y006739D01*
X002650Y005639D02*
X002850Y005839D01*
X002949Y005839D01*
X002650Y005639D02*
X002150Y005639D01*
X003750Y004539D02*
X004215Y004539D01*
X004250Y004539D01*
X004250Y005339D01*
X004215Y005339D01*
X004885Y005339D02*
X004950Y005339D01*
X005350Y005739D01*
X004950Y005339D02*
X004950Y004539D01*
X004885Y004539D01*
X004950Y004539D02*
X004950Y003739D01*
X004885Y003739D01*
X004950Y003739D02*
X004350Y003139D01*
X004350Y003074D01*
X004350Y003039D01*
X004450Y002939D01*
X005050Y002939D01*
X005150Y003039D01*
X005350Y003039D01*
X005350Y003074D01*
X005250Y002539D02*
X004850Y002539D01*
X004750Y002439D01*
X004350Y002439D01*
X004350Y002405D01*
X004350Y002339D01*
X003850Y002339D01*
X003650Y002139D01*
X003050Y002139D01*
X002950Y002239D01*
X002950Y002439D01*
X002850Y002439D01*
X002950Y002439D02*
X002950Y002539D01*
X003450Y003039D01*
X003362Y003113D01*
X003350Y003139D01*
X001650Y003139D01*
X001650Y003074D01*
X001650Y003139D02*
X001650Y003639D01*
X001450Y003839D01*
X001351Y003839D01*
X000850Y003094D02*
X000850Y003039D01*
X001050Y003039D01*
X001350Y002739D01*
X002338Y002739D01*
X002350Y002739D01*
X002450Y002839D01*
X002850Y002839D01*
X003350Y002439D02*
X003362Y002365D01*
X003450Y002439D01*
X003650Y002439D01*
X004150Y002939D01*
X003250Y003839D01*
X002949Y003839D01*
X003750Y003739D02*
X004215Y003739D01*
X004350Y003139D02*
X004150Y002939D01*
X005250Y002539D02*
X005350Y002439D01*
X005350Y002405D01*
X005350Y002439D02*
X006350Y002439D01*
X006350Y002405D01*
X006350Y002339D01*
X006450Y002239D01*
X007150Y002239D01*
X007550Y002639D01*
X007750Y002639D01*
X008350Y002039D01*
X009650Y002039D01*
X010550Y001139D01*
X010850Y001139D01*
X011250Y001739D02*
X011250Y003539D01*
X011250Y001739D02*
X011850Y001139D01*
X007650Y003639D02*
X006350Y003639D01*
X006265Y003682D01*
X006250Y003739D01*
X006250Y004139D01*
X005950Y004439D01*
X005550Y004439D01*
X005478Y004489D01*
X005450Y004539D01*
X004950Y004539D01*
X006350Y003639D02*
X006350Y003074D01*
X010850Y005489D02*
X010850Y006439D01*
X010855Y006456D01*
X003250Y007739D02*
X003150Y007639D01*
X000850Y002385D02*
X000850Y001139D01*
D22*
X003140Y002365D02*
X003140Y002365D01*
X003362Y002365D01*
X003362Y002329D01*
X003362Y002329D01*
X003362Y002365D01*
X003362Y002365D01*
X003607Y002365D01*
X003607Y002365D01*
X003362Y002365D01*
X003362Y002365D01*
X003362Y002365D01*
X003362Y002365D01*
X003362Y002654D01*
X003622Y002654D01*
X003668Y002641D01*
X003709Y002618D01*
X003742Y002584D01*
X003766Y002543D01*
X003770Y002528D01*
X003771Y002529D01*
X004013Y002529D01*
X004013Y002679D01*
X004046Y002712D01*
X004043Y002713D01*
X004009Y002747D01*
X003985Y002788D01*
X003973Y002834D01*
X003973Y003056D01*
X004332Y003056D01*
X004368Y003056D01*
X004368Y002761D01*
X004332Y002761D01*
X004332Y003056D01*
X004332Y003092D01*
X003973Y003092D01*
X003973Y003314D01*
X003985Y003360D01*
X004009Y003401D01*
X004011Y003403D01*
X003941Y003403D01*
X003859Y003485D01*
X003859Y003487D01*
X003805Y003464D01*
X003695Y003464D01*
X003594Y003506D01*
X003565Y003536D01*
X003552Y003528D01*
X003499Y003514D01*
X002949Y003514D01*
X002949Y003839D01*
X002949Y003839D01*
X002218Y003839D01*
X002218Y003695D01*
X002232Y003642D01*
X002260Y003594D01*
X002299Y003556D01*
X002346Y003528D01*
X002400Y003514D01*
X002949Y003514D01*
X002949Y003839D01*
X002949Y003839D01*
X003494Y003839D01*
X003494Y003839D01*
X002949Y003839D01*
X002949Y003839D01*
X002218Y003839D01*
X002218Y003983D01*
X002232Y004037D01*
X002260Y004084D01*
X002265Y004089D01*
X002205Y004064D01*
X002095Y004064D01*
X002007Y004101D01*
X001996Y004089D01*
X002042Y004043D01*
X002042Y003636D01*
X001960Y003554D01*
X001840Y003554D01*
X001840Y003431D01*
X001905Y003431D01*
X001987Y003349D01*
X001987Y003329D01*
X003035Y003329D01*
X003068Y003362D01*
X003656Y003362D01*
X003738Y003280D01*
X003738Y002947D01*
X003656Y002865D01*
X003552Y002865D01*
X003545Y002857D01*
X003535Y002856D01*
X003333Y002654D01*
X003362Y002654D01*
X003362Y002365D01*
X003140Y002365D01*
X003362Y002383D02*
X003362Y002383D01*
X003362Y002541D02*
X003362Y002541D01*
X003379Y002700D02*
X004034Y002700D01*
X004013Y002541D02*
X003766Y002541D01*
X003973Y002858D02*
X003546Y002858D01*
X003738Y003017D02*
X003973Y003017D01*
X003973Y003175D02*
X003738Y003175D01*
X003684Y003334D02*
X003978Y003334D01*
X004332Y003334D02*
X004368Y003334D01*
X004368Y003403D02*
X004332Y003403D01*
X004332Y003092D01*
X004368Y003092D01*
X004713Y003092D01*
X004717Y003084D01*
X004794Y003006D01*
X004895Y002964D01*
X004973Y002964D01*
X004973Y002834D01*
X004985Y002788D01*
X005009Y002747D01*
X005027Y002729D01*
X004771Y002729D01*
X004687Y002645D01*
X004687Y002679D01*
X004654Y002712D01*
X004657Y002713D01*
X004691Y002747D01*
X004715Y002788D01*
X004727Y002834D01*
X004727Y003056D01*
X004368Y003056D01*
X004368Y003092D01*
X004368Y003403D01*
X004368Y003175D02*
X004332Y003175D01*
X004332Y003017D02*
X004368Y003017D01*
X004368Y002858D02*
X004332Y002858D01*
X004666Y002700D02*
X004742Y002700D01*
X004727Y002858D02*
X004973Y002858D01*
X004784Y003017D02*
X004727Y003017D01*
X005332Y003017D02*
X005368Y003017D01*
X005368Y003056D02*
X005368Y002761D01*
X005332Y002761D01*
X005332Y003056D01*
X005368Y003056D01*
X005368Y002858D02*
X005332Y002858D01*
X006368Y003056D02*
X006368Y003092D01*
X006727Y003092D01*
X006727Y003314D01*
X006715Y003360D01*
X006691Y003401D01*
X006657Y003435D01*
X006633Y003449D01*
X006642Y003481D01*
X006642Y003674D01*
X006274Y003674D01*
X006274Y003691D01*
X006642Y003691D01*
X006642Y003883D01*
X006630Y003929D01*
X006606Y003970D01*
X006572Y004004D01*
X006531Y004027D01*
X006486Y004039D01*
X006274Y004039D01*
X006274Y003691D01*
X006256Y003691D01*
X006256Y004039D01*
X006106Y004039D01*
X006125Y004085D01*
X006125Y004194D01*
X006104Y004245D01*
X006280Y004069D01*
X006420Y004069D01*
X006989Y004069D01*
X007095Y003964D01*
X007468Y003964D01*
X007459Y003950D01*
X007438Y003899D01*
X007427Y003846D01*
X007427Y003523D01*
X007706Y003523D01*
X007782Y003523D01*
X007782Y003523D01*
X007706Y003523D01*
X007706Y003523D01*
X007706Y003523D01*
X007706Y003964D01*
X007706Y003964D01*
X007706Y003523D01*
X007706Y002949D01*
X007733Y002949D01*
X007787Y002960D01*
X007838Y002981D01*
X007880Y003009D01*
X007880Y002958D01*
X007817Y002895D01*
X007790Y002829D01*
X007471Y002829D01*
X007299Y002657D01*
X007283Y002695D01*
X007206Y002773D01*
X007105Y002814D01*
X007015Y002814D01*
X006920Y002909D01*
X006727Y002909D01*
X006727Y003056D01*
X006368Y003056D01*
X006727Y003017D02*
X007523Y003017D01*
X007528Y003011D02*
X007574Y002981D01*
X007624Y002960D01*
X007678Y002949D01*
X007706Y002949D01*
X007706Y003523D01*
X007706Y003523D01*
X007706Y003523D01*
X007427Y003523D01*
X007427Y003200D01*
X007438Y003146D01*
X007459Y003096D01*
X007489Y003050D01*
X007528Y003011D01*
X007706Y003017D02*
X007706Y003017D01*
X007706Y003175D02*
X007706Y003175D01*
X007706Y003334D02*
X007706Y003334D01*
X007706Y003492D02*
X007706Y003492D01*
X007706Y003651D02*
X007706Y003651D01*
X007706Y003809D02*
X007706Y003809D01*
X007427Y003809D02*
X006642Y003809D01*
X006607Y003968D02*
X007091Y003968D01*
X007427Y003651D02*
X006642Y003651D01*
X006642Y003492D02*
X007427Y003492D01*
X007427Y003334D02*
X006722Y003334D01*
X006727Y003175D02*
X007432Y003175D01*
X007802Y002858D02*
X006971Y002858D01*
X007278Y002700D02*
X007342Y002700D01*
X008394Y002264D02*
X008405Y002264D01*
X008461Y002288D01*
X008480Y002269D01*
X010531Y002269D01*
X010594Y002206D01*
X010695Y002164D01*
X010805Y002164D01*
X010906Y002206D01*
X010983Y002284D01*
X011025Y002385D01*
X011025Y002494D01*
X010983Y002595D01*
X010906Y002673D01*
X010805Y002714D01*
X010696Y002714D01*
X010725Y002785D01*
X010725Y002894D01*
X010683Y002995D01*
X010664Y003014D01*
X010698Y003048D01*
X010757Y002989D01*
X010954Y002989D01*
X010985Y003020D01*
X010993Y003011D01*
X011038Y002981D01*
X011089Y002960D01*
X011143Y002949D01*
X011170Y002949D01*
X011170Y003523D01*
X011170Y003523D01*
X011094Y003523D01*
X011094Y003523D01*
X011170Y003523D01*
X011170Y004097D01*
X011143Y004097D01*
X011089Y004086D01*
X011038Y004065D01*
X010993Y004034D01*
X010985Y004026D01*
X010954Y004057D01*
X010757Y004057D01*
X010698Y003998D01*
X010639Y004057D01*
X010442Y004057D01*
X010383Y003998D01*
X010324Y004057D01*
X010223Y004057D01*
X010220Y004059D01*
X010150Y004130D01*
X010150Y004219D01*
X010108Y004320D01*
X010031Y004398D01*
X009930Y004439D01*
X009820Y004439D01*
X009719Y004398D01*
X009642Y004320D01*
X009600Y004219D01*
X009600Y004110D01*
X009622Y004057D01*
X009497Y004057D01*
X009438Y003998D01*
X009379Y004057D01*
X009213Y004057D01*
X009225Y004085D01*
X009225Y004194D01*
X009183Y004295D01*
X009120Y004358D01*
X009120Y005296D01*
X009195Y005264D01*
X009305Y005264D01*
X009406Y005306D01*
X009483Y005384D01*
X009517Y005464D01*
X009605Y005464D01*
X009706Y005506D01*
X009783Y005584D01*
X009825Y005685D01*
X009825Y005794D01*
X009783Y005895D01*
X009725Y005953D01*
X009753Y005981D01*
X009812Y005922D01*
X009944Y005922D01*
X009917Y005895D01*
X009875Y005794D01*
X009875Y005685D01*
X009917Y005584D01*
X009994Y005506D01*
X010095Y005464D01*
X010205Y005464D01*
X010306Y005506D01*
X010380Y005581D01*
X010380Y005269D01*
X010475Y005174D01*
X010475Y005085D01*
X010517Y004984D01*
X010594Y004906D01*
X010695Y004864D01*
X010805Y004864D01*
X010906Y004906D01*
X010983Y004984D01*
X011025Y005085D01*
X011025Y005194D01*
X011000Y005254D01*
X011006Y005256D01*
X011083Y005334D01*
X011125Y005435D01*
X011125Y005544D01*
X011083Y005645D01*
X011040Y005688D01*
X011040Y005913D01*
X011089Y005893D01*
X011143Y005882D01*
X011170Y005882D01*
X011170Y006456D01*
X011170Y006456D01*
X011094Y006456D01*
X011094Y006456D01*
X011170Y006456D01*
X011170Y007030D01*
X011143Y007030D01*
X011089Y007019D01*
X011040Y006999D01*
X011040Y007218D01*
X010929Y007329D01*
X010789Y007469D01*
X011420Y007469D01*
X011624Y007673D01*
X011647Y007649D01*
X012053Y007649D01*
X012340Y007936D01*
X012340Y008342D01*
X012273Y008409D01*
X012427Y008409D01*
X012360Y008342D01*
X012360Y007936D01*
X012647Y007649D01*
X013053Y007649D01*
X013120Y007716D01*
X013120Y007023D01*
X013087Y007030D01*
X013060Y007030D01*
X013033Y007030D01*
X012979Y007019D01*
X012928Y006998D01*
X012903Y006981D01*
X012877Y006998D01*
X012826Y007019D01*
X012773Y007030D01*
X012745Y007030D01*
X012718Y007030D01*
X012664Y007019D01*
X012613Y006998D01*
X012588Y006981D01*
X012562Y006998D01*
X012511Y007019D01*
X012458Y007030D01*
X012430Y007030D01*
X012403Y007030D01*
X012349Y007019D01*
X012298Y006998D01*
X012273Y006981D01*
X012247Y006998D01*
X012196Y007019D01*
X012143Y007030D01*
X012115Y007030D01*
X012088Y007030D01*
X012034Y007019D01*
X011983Y006998D01*
X011958Y006981D01*
X011932Y006998D01*
X011881Y007019D01*
X011828Y007030D01*
X011800Y007030D01*
X011773Y007030D01*
X011719Y007019D01*
X011668Y006998D01*
X011643Y006981D01*
X011617Y006998D01*
X011566Y007019D01*
X011513Y007030D01*
X011485Y007030D01*
X011458Y007030D01*
X011404Y007019D01*
X011353Y006998D01*
X011328Y006981D01*
X011302Y006998D01*
X011251Y007019D01*
X011198Y007030D01*
X011170Y007030D01*
X011170Y006456D01*
X011170Y006456D01*
X011170Y006456D01*
X011170Y005882D01*
X011198Y005882D01*
X011251Y005893D01*
X011302Y005914D01*
X011328Y005931D01*
X011353Y005914D01*
X011404Y005893D01*
X011458Y005882D01*
X011485Y005882D01*
X011485Y006456D01*
X011485Y006456D01*
X011170Y006456D01*
X011170Y006456D01*
X011207Y006456D01*
X011485Y006456D01*
X011485Y007030D01*
X011485Y006456D01*
X011485Y006456D01*
X011485Y006456D01*
X011485Y005882D01*
X011513Y005882D01*
X011566Y005893D01*
X011617Y005914D01*
X011643Y005931D01*
X011668Y005914D01*
X011719Y005893D01*
X011773Y005882D01*
X011800Y005882D01*
X011800Y006456D01*
X011800Y006456D01*
X011485Y006456D01*
X011485Y006456D01*
X011522Y006456D01*
X011800Y006456D01*
X011800Y007030D01*
X011800Y006456D01*
X011800Y006456D01*
X011800Y006456D01*
X011800Y005882D01*
X011828Y005882D01*
X011881Y005893D01*
X011932Y005914D01*
X011958Y005931D01*
X011983Y005914D01*
X012034Y005893D01*
X012088Y005882D01*
X012115Y005882D01*
X012115Y006456D01*
X012115Y006456D01*
X011800Y006456D01*
X011800Y006456D01*
X011837Y006456D01*
X012115Y006456D01*
X012115Y007030D01*
X012115Y006456D01*
X012115Y006456D01*
X012115Y006456D01*
X012115Y005882D01*
X012143Y005882D01*
X012196Y005893D01*
X012247Y005914D01*
X012273Y005931D01*
X012298Y005914D01*
X012349Y005893D01*
X012403Y005882D01*
X012430Y005882D01*
X012430Y006456D01*
X012430Y006456D01*
X012115Y006456D01*
X012115Y006456D01*
X012152Y006456D01*
X012430Y006456D01*
X012430Y007030D01*
X012430Y006456D01*
X012430Y006456D01*
X012430Y006456D01*
X012430Y005882D01*
X012458Y005882D01*
X012511Y005893D01*
X012562Y005914D01*
X012588Y005931D01*
X012613Y005914D01*
X012664Y005893D01*
X012718Y005882D01*
X012745Y005882D01*
X012745Y006456D01*
X012745Y006456D01*
X012430Y006456D01*
X012430Y006456D01*
X012467Y006456D01*
X012745Y006456D01*
X012745Y007030D01*
X012745Y006456D01*
X012745Y006456D01*
X012745Y006456D01*
X013060Y006456D01*
X013060Y007030D01*
X013060Y006456D01*
X013060Y006456D01*
X013060Y006456D01*
X012782Y006456D01*
X012745Y006456D01*
X012745Y006456D01*
X012745Y005882D01*
X012773Y005882D01*
X012826Y005893D01*
X012877Y005914D01*
X012903Y005931D01*
X012928Y005914D01*
X012979Y005893D01*
X013033Y005882D01*
X013060Y005882D01*
X013060Y006456D01*
X013120Y006456D01*
X013120Y006456D01*
X013060Y006456D01*
X013060Y006456D01*
X013060Y006456D01*
X013060Y005882D01*
X013087Y005882D01*
X013120Y005889D01*
X013120Y005493D01*
X011398Y005493D01*
X011351Y005446D01*
X011351Y004031D01*
X011348Y004034D01*
X011302Y004065D01*
X011251Y004086D01*
X011198Y004097D01*
X011170Y004097D01*
X011170Y003523D01*
X011170Y003523D01*
X011170Y003523D01*
X011351Y003523D01*
X011351Y003523D01*
X011170Y003523D01*
X011170Y003523D01*
X011170Y002949D01*
X011198Y002949D01*
X011251Y002960D01*
X011302Y002981D01*
X011348Y003011D01*
X011350Y003014D01*
X011350Y001389D01*
X011322Y001361D01*
X011053Y001629D01*
X010647Y001629D01*
X010488Y001470D01*
X009840Y002118D01*
X009729Y002229D01*
X008429Y002229D01*
X008394Y002264D01*
X009734Y002224D02*
X010576Y002224D01*
X010924Y002224D02*
X011350Y002224D01*
X011350Y002066D02*
X009892Y002066D01*
X010051Y001907D02*
X011350Y001907D01*
X011350Y001749D02*
X010209Y001749D01*
X010368Y001590D02*
X010608Y001590D01*
X011092Y001590D02*
X011350Y001590D01*
X011350Y001432D02*
X011250Y001432D01*
X011350Y002383D02*
X011024Y002383D01*
X011005Y002541D02*
X011350Y002541D01*
X011350Y002700D02*
X010840Y002700D01*
X010725Y002858D02*
X011350Y002858D01*
X011170Y003017D02*
X011170Y003017D01*
X010987Y003017D02*
X010982Y003017D01*
X011170Y003175D02*
X011170Y003175D01*
X011170Y003334D02*
X011170Y003334D01*
X011170Y003492D02*
X011170Y003492D01*
X011170Y003651D02*
X011170Y003651D01*
X011170Y003809D02*
X011170Y003809D01*
X011170Y003968D02*
X011170Y003968D01*
X011351Y004126D02*
X010153Y004126D01*
X010123Y004285D02*
X011351Y004285D01*
X011351Y004443D02*
X009120Y004443D01*
X009120Y004602D02*
X011351Y004602D01*
X011351Y004760D02*
X009120Y004760D01*
X009120Y004919D02*
X010582Y004919D01*
X010478Y005077D02*
X009120Y005077D01*
X009120Y005236D02*
X010413Y005236D01*
X010380Y005394D02*
X009488Y005394D01*
X009752Y005553D02*
X009948Y005553D01*
X009875Y005711D02*
X009825Y005711D01*
X009794Y005870D02*
X009906Y005870D01*
X010352Y005553D02*
X010380Y005553D01*
X011040Y005711D02*
X013120Y005711D01*
X013120Y005553D02*
X011121Y005553D01*
X011108Y005394D02*
X011351Y005394D01*
X011351Y005236D02*
X011008Y005236D01*
X011022Y005077D02*
X011351Y005077D01*
X011351Y004919D02*
X010918Y004919D01*
X009627Y004285D02*
X009187Y004285D01*
X009225Y004126D02*
X009600Y004126D01*
X010667Y003017D02*
X010729Y003017D01*
X011040Y005870D02*
X013120Y005870D01*
X013060Y006028D02*
X013060Y006028D01*
X013060Y006187D02*
X013060Y006187D01*
X013060Y006345D02*
X013060Y006345D01*
X013060Y006504D02*
X013060Y006504D01*
X013060Y006662D02*
X013060Y006662D01*
X013060Y006821D02*
X013060Y006821D01*
X013060Y006979D02*
X013060Y006979D01*
X013120Y007138D02*
X011040Y007138D01*
X011170Y006979D02*
X011170Y006979D01*
X011170Y006821D02*
X011170Y006821D01*
X011170Y006662D02*
X011170Y006662D01*
X011170Y006504D02*
X011170Y006504D01*
X011170Y006345D02*
X011170Y006345D01*
X011170Y006187D02*
X011170Y006187D01*
X011170Y006028D02*
X011170Y006028D01*
X011485Y006028D02*
X011485Y006028D01*
X011485Y006187D02*
X011485Y006187D01*
X011485Y006345D02*
X011485Y006345D01*
X011485Y006504D02*
X011485Y006504D01*
X011485Y006662D02*
X011485Y006662D01*
X011485Y006821D02*
X011485Y006821D01*
X011485Y006979D02*
X011485Y006979D01*
X011800Y006979D02*
X011800Y006979D01*
X011800Y006821D02*
X011800Y006821D01*
X011800Y006662D02*
X011800Y006662D01*
X011800Y006504D02*
X011800Y006504D01*
X011800Y006345D02*
X011800Y006345D01*
X011800Y006187D02*
X011800Y006187D01*
X011800Y006028D02*
X011800Y006028D01*
X012115Y006028D02*
X012115Y006028D01*
X012115Y006187D02*
X012115Y006187D01*
X012115Y006345D02*
X012115Y006345D01*
X012115Y006504D02*
X012115Y006504D01*
X012115Y006662D02*
X012115Y006662D01*
X012115Y006821D02*
X012115Y006821D01*
X012115Y006979D02*
X012115Y006979D01*
X012430Y006979D02*
X012430Y006979D01*
X012430Y006821D02*
X012430Y006821D01*
X012430Y006662D02*
X012430Y006662D01*
X012430Y006504D02*
X012430Y006504D01*
X012430Y006345D02*
X012430Y006345D01*
X012430Y006187D02*
X012430Y006187D01*
X012430Y006028D02*
X012430Y006028D01*
X012745Y006028D02*
X012745Y006028D01*
X012745Y006187D02*
X012745Y006187D01*
X012745Y006345D02*
X012745Y006345D01*
X012745Y006504D02*
X012745Y006504D01*
X012745Y006662D02*
X012745Y006662D01*
X012745Y006821D02*
X012745Y006821D01*
X012745Y006979D02*
X012745Y006979D01*
X013120Y007296D02*
X010962Y007296D01*
X010803Y007455D02*
X013120Y007455D01*
X013120Y007613D02*
X011564Y007613D01*
X012175Y007772D02*
X012525Y007772D01*
X012366Y007930D02*
X012334Y007930D01*
X012340Y008089D02*
X012360Y008089D01*
X012360Y008247D02*
X012340Y008247D01*
X012276Y008406D02*
X012424Y008406D01*
X008533Y007763D02*
X008480Y007710D01*
X007930Y007159D01*
X007619Y007159D01*
X007556Y007223D01*
X007455Y007264D01*
X007345Y007264D01*
X007244Y007223D01*
X007167Y007145D01*
X007125Y007044D01*
X007125Y006935D01*
X007167Y006834D01*
X007244Y006756D01*
X007345Y006714D01*
X007427Y006714D01*
X007427Y006456D01*
X007706Y006456D01*
X007782Y006456D01*
X007782Y006456D01*
X007706Y006456D01*
X007706Y006456D01*
X007706Y006819D01*
X007706Y006819D01*
X007706Y006456D01*
X007706Y006456D01*
X007706Y006015D01*
X007706Y006015D01*
X007706Y006456D01*
X007706Y006456D01*
X007706Y006456D01*
X007427Y006456D01*
X007427Y006133D01*
X007438Y006079D01*
X007459Y006029D01*
X007468Y006015D01*
X007465Y006015D01*
X007425Y006055D01*
X007425Y006144D01*
X007383Y006245D01*
X007306Y006323D01*
X007205Y006364D01*
X007095Y006364D01*
X006994Y006323D01*
X006917Y006245D01*
X006875Y006144D01*
X006875Y006135D01*
X006805Y006164D01*
X006695Y006164D01*
X006594Y006123D01*
X006575Y006103D01*
X006506Y006173D01*
X006405Y006214D01*
X006295Y006214D01*
X006194Y006173D01*
X006117Y006095D01*
X006075Y005994D01*
X006075Y005885D01*
X006117Y005784D01*
X006194Y005706D01*
X006295Y005664D01*
X006385Y005664D01*
X006435Y005614D01*
X006010Y005614D01*
X005950Y005554D01*
X005890Y005614D01*
X005380Y005614D01*
X005298Y005532D01*
X005298Y005061D01*
X005355Y005004D01*
X005296Y005004D01*
X005251Y004992D01*
X005210Y004968D01*
X005176Y004935D01*
X005160Y004907D01*
X005125Y004916D01*
X004903Y004916D01*
X004903Y004558D01*
X004866Y004558D01*
X004866Y004916D01*
X004825Y004916D01*
X004825Y004963D01*
X004866Y004963D01*
X004866Y005321D01*
X004903Y005321D01*
X004903Y004963D01*
X005125Y004963D01*
X005171Y004975D01*
X005212Y004999D01*
X005245Y005032D01*
X005269Y005073D01*
X005281Y005119D01*
X005281Y005321D01*
X004903Y005321D01*
X004903Y005358D01*
X004866Y005358D01*
X004866Y005716D01*
X004720Y005716D01*
X004720Y005810D01*
X004620Y005909D01*
X004325Y006205D01*
X004325Y006294D01*
X004299Y006358D01*
X004299Y006701D01*
X004375Y006701D01*
X004375Y006778D01*
X004299Y006778D01*
X004299Y007156D01*
X004077Y007156D01*
X004050Y007148D01*
X004023Y007156D01*
X003801Y007156D01*
X003801Y006778D01*
X003725Y006778D01*
X003725Y007156D01*
X003503Y007156D01*
X003458Y007143D01*
X003417Y007120D01*
X003383Y007086D01*
X003359Y007045D01*
X003347Y006999D01*
X003347Y006778D01*
X003725Y006778D01*
X003725Y006701D01*
X003801Y006701D01*
X003801Y006358D01*
X003775Y006294D01*
X003775Y006255D01*
X003720Y006309D01*
X002469Y006309D01*
X002406Y006373D01*
X002381Y006383D01*
X002623Y006383D01*
X002642Y006363D01*
X003231Y006363D01*
X003313Y006445D01*
X003313Y007034D01*
X003231Y007116D01*
X002642Y007116D01*
X002623Y007096D01*
X002347Y007096D01*
X002420Y007169D01*
X005340Y007169D01*
X005286Y007116D01*
X004869Y007116D01*
X004787Y007034D01*
X004787Y006445D01*
X004869Y006363D01*
X005204Y006363D01*
X005175Y006294D01*
X005175Y006185D01*
X005217Y006084D01*
X005294Y006006D01*
X005395Y005964D01*
X005505Y005964D01*
X005606Y006006D01*
X005683Y006084D01*
X005725Y006185D01*
X005725Y006274D01*
X005820Y006369D01*
X005820Y006383D01*
X005970Y006383D01*
X006050Y006463D01*
X006130Y006383D01*
X006639Y006383D01*
X006721Y006465D01*
X006721Y006695D01*
X006795Y006664D01*
X006905Y006664D01*
X007006Y006706D01*
X007083Y006784D01*
X007125Y006885D01*
X007125Y006994D01*
X007083Y007095D01*
X007006Y007173D01*
X006905Y007214D01*
X006815Y007214D01*
X006620Y007410D01*
X006520Y007509D01*
X003409Y007509D01*
X003483Y007584D01*
X003525Y007685D01*
X003525Y007771D01*
X003647Y007649D01*
X004053Y007649D01*
X004340Y007936D01*
X004340Y008342D01*
X004273Y008409D01*
X004427Y008409D01*
X004360Y008342D01*
X004360Y007936D01*
X004647Y007649D01*
X005053Y007649D01*
X005340Y007936D01*
X005340Y008342D01*
X005273Y008409D01*
X005427Y008409D01*
X005360Y008342D01*
X005360Y007936D01*
X005647Y007649D01*
X006053Y007649D01*
X006340Y007936D01*
X006340Y008342D01*
X006273Y008409D01*
X006427Y008409D01*
X006360Y008342D01*
X006360Y007936D01*
X006647Y007649D01*
X007053Y007649D01*
X007340Y007936D01*
X007340Y008342D01*
X007273Y008409D01*
X007427Y008409D01*
X007360Y008342D01*
X007360Y007936D01*
X007647Y007649D01*
X008053Y007649D01*
X008340Y007936D01*
X008340Y008342D01*
X008273Y008409D01*
X008427Y008409D01*
X008360Y008342D01*
X008360Y007936D01*
X008533Y007763D01*
X008525Y007772D02*
X008175Y007772D01*
X008334Y007930D02*
X008366Y007930D01*
X008360Y008089D02*
X008340Y008089D01*
X008340Y008247D02*
X008360Y008247D01*
X008424Y008406D02*
X008276Y008406D01*
X007424Y008406D02*
X007276Y008406D01*
X007340Y008247D02*
X007360Y008247D01*
X007360Y008089D02*
X007340Y008089D01*
X007334Y007930D02*
X007366Y007930D01*
X007525Y007772D02*
X007175Y007772D01*
X006525Y007772D02*
X006175Y007772D01*
X006334Y007930D02*
X006366Y007930D01*
X006360Y008089D02*
X006340Y008089D01*
X006340Y008247D02*
X006360Y008247D01*
X006424Y008406D02*
X006276Y008406D01*
X005424Y008406D02*
X005276Y008406D01*
X005340Y008247D02*
X005360Y008247D01*
X005360Y008089D02*
X005340Y008089D01*
X005334Y007930D02*
X005366Y007930D01*
X005525Y007772D02*
X005175Y007772D01*
X004525Y007772D02*
X004175Y007772D01*
X004334Y007930D02*
X004366Y007930D01*
X004360Y008089D02*
X004340Y008089D01*
X004340Y008247D02*
X004360Y008247D01*
X004424Y008406D02*
X004276Y008406D01*
X003495Y007613D02*
X008384Y007613D01*
X008225Y007455D02*
X006575Y007455D01*
X006733Y007296D02*
X008067Y007296D01*
X007706Y006662D02*
X007706Y006662D01*
X007706Y006504D02*
X007706Y006504D01*
X007706Y006345D02*
X007706Y006345D01*
X007706Y006187D02*
X007706Y006187D01*
X007706Y006028D02*
X007706Y006028D01*
X007459Y006028D02*
X007451Y006028D01*
X007427Y006187D02*
X007407Y006187D01*
X007427Y006345D02*
X007251Y006345D01*
X007049Y006345D02*
X005796Y006345D01*
X005725Y006187D02*
X006229Y006187D01*
X006089Y006028D02*
X005628Y006028D01*
X005272Y006028D02*
X004501Y006028D01*
X004660Y005870D02*
X006081Y005870D01*
X006189Y005711D02*
X005143Y005711D01*
X005125Y005716D02*
X004903Y005716D01*
X004903Y005358D01*
X005281Y005358D01*
X005281Y005560D01*
X005269Y005606D01*
X005245Y005647D01*
X005212Y005680D01*
X005171Y005704D01*
X005125Y005716D01*
X004903Y005711D02*
X004866Y005711D01*
X004866Y005553D02*
X004903Y005553D01*
X004903Y005394D02*
X004866Y005394D01*
X004866Y005236D02*
X004903Y005236D01*
X004903Y005077D02*
X004866Y005077D01*
X004825Y004919D02*
X005167Y004919D01*
X005270Y005077D02*
X005298Y005077D01*
X005281Y005236D02*
X005298Y005236D01*
X005281Y005394D02*
X005298Y005394D01*
X005281Y005553D02*
X005319Y005553D01*
X005175Y006187D02*
X004343Y006187D01*
X004375Y006323D02*
X004597Y006323D01*
X004642Y006335D01*
X004683Y006359D01*
X004717Y006393D01*
X004741Y006434D01*
X004753Y006480D01*
X004753Y006701D01*
X004375Y006701D01*
X004375Y006323D01*
X004375Y006345D02*
X004304Y006345D01*
X004299Y006504D02*
X004375Y006504D01*
X004375Y006662D02*
X004299Y006662D01*
X004298Y006701D02*
X004180Y006701D01*
X003802Y006701D01*
X003802Y006778D01*
X004298Y006778D01*
X004298Y006701D01*
X004375Y006778D02*
X004375Y007156D01*
X004597Y007156D01*
X004642Y007143D01*
X004683Y007120D01*
X004717Y007086D01*
X004741Y007045D01*
X004753Y006999D01*
X004753Y006778D01*
X004375Y006778D01*
X004375Y006821D02*
X004299Y006821D01*
X004299Y006979D02*
X004375Y006979D01*
X004375Y007138D02*
X004299Y007138D01*
X004652Y007138D02*
X005308Y007138D01*
X004787Y006979D02*
X004753Y006979D01*
X004753Y006821D02*
X004787Y006821D01*
X004787Y006662D02*
X004753Y006662D01*
X004753Y006504D02*
X004787Y006504D01*
X004660Y006345D02*
X005196Y006345D01*
X006471Y006187D02*
X006893Y006187D01*
X006721Y006504D02*
X007427Y006504D01*
X007427Y006662D02*
X006721Y006662D01*
X007099Y006821D02*
X007180Y006821D01*
X007125Y006979D02*
X007125Y006979D01*
X007164Y007138D02*
X007040Y007138D01*
X003801Y007138D02*
X003725Y007138D01*
X003725Y006979D02*
X003801Y006979D01*
X003801Y006821D02*
X003725Y006821D01*
X003725Y006701D02*
X003347Y006701D01*
X003347Y006480D01*
X003359Y006434D01*
X003383Y006393D01*
X003417Y006359D01*
X003458Y006335D01*
X003503Y006323D01*
X003725Y006323D01*
X003725Y006701D01*
X003725Y006662D02*
X003801Y006662D01*
X003801Y006504D02*
X003725Y006504D01*
X003725Y006345D02*
X003796Y006345D01*
X003440Y006345D02*
X002433Y006345D01*
X003313Y006504D02*
X003347Y006504D01*
X003347Y006662D02*
X003313Y006662D01*
X003313Y006821D02*
X003347Y006821D01*
X003347Y006979D02*
X003313Y006979D01*
X003448Y007138D02*
X002389Y007138D01*
X004866Y004760D02*
X004903Y004760D01*
X004903Y004602D02*
X004866Y004602D01*
X004903Y004558D02*
X005140Y004558D01*
X005140Y004521D01*
X004903Y004521D01*
X004903Y004163D01*
X005125Y004163D01*
X005140Y004167D01*
X005140Y004131D01*
X005146Y004111D01*
X005125Y004116D01*
X004903Y004116D01*
X004903Y003758D01*
X004866Y003758D01*
X004866Y004116D01*
X004825Y004116D01*
X004825Y004163D01*
X004866Y004163D01*
X004866Y004521D01*
X004903Y004521D01*
X004903Y004558D01*
X004903Y004443D02*
X004866Y004443D01*
X004866Y004285D02*
X004903Y004285D01*
X004825Y004126D02*
X005141Y004126D01*
X004903Y003968D02*
X004866Y003968D01*
X004866Y003809D02*
X004903Y003809D01*
X004903Y003758D02*
X005080Y003758D01*
X005080Y003721D01*
X004903Y003721D01*
X004903Y003758D01*
X006125Y004126D02*
X006223Y004126D01*
X006256Y003968D02*
X006274Y003968D01*
X006274Y003809D02*
X006256Y003809D01*
X003628Y003492D02*
X001840Y003492D01*
X001987Y003334D02*
X003040Y003334D01*
X002949Y003651D02*
X002949Y003651D01*
X002949Y003809D02*
X002949Y003809D01*
X002218Y003809D02*
X002042Y003809D01*
X002042Y003968D02*
X002218Y003968D01*
X002230Y003651D02*
X002042Y003651D01*
D23*
X001250Y003439D03*
X002150Y004339D03*
X003750Y004539D03*
X003750Y004939D03*
X004550Y004939D03*
X004550Y004139D03*
X003750Y003739D03*
X004950Y003239D03*
X005850Y002939D03*
X005950Y003339D03*
X006950Y003589D03*
X005850Y004139D03*
X005850Y004739D03*
X006250Y004839D03*
X006750Y005889D03*
X006350Y005939D03*
X007150Y006089D03*
X006850Y006939D03*
X007400Y006989D03*
X008650Y005739D03*
X009250Y005539D03*
X009550Y005739D03*
X010150Y005739D03*
X010850Y005489D03*
X010750Y005139D03*
X010350Y004939D03*
X009950Y004739D03*
X010350Y004539D03*
X009875Y004164D03*
X010350Y004139D03*
X008950Y004139D03*
X008250Y004139D03*
X008150Y004839D03*
X005450Y006239D03*
X004050Y006239D03*
X003850Y005939D03*
X002250Y006139D03*
X002150Y005639D03*
X003250Y007739D03*
X009750Y007039D03*
X010550Y007064D03*
X011650Y005864D03*
X011450Y005564D03*
X011850Y005564D03*
X012050Y005864D03*
X012250Y005564D03*
X012450Y005864D03*
X012650Y005564D03*
X012850Y005864D03*
X013050Y005564D03*
X009850Y002939D03*
X010150Y002689D03*
X010450Y002839D03*
X010750Y002439D03*
X009250Y002689D03*
X008950Y002839D03*
X008650Y002689D03*
X008350Y002539D03*
X008050Y002739D03*
X008350Y002914D03*
X007650Y002339D03*
X007050Y002539D03*
X005250Y001539D03*
X004250Y001539D03*
X004950Y002239D03*
X002850Y002439D03*
X002850Y002839D03*
X002050Y002339D03*
D24*
X001650Y002339D01*
X001650Y002405D01*
X002550Y001839D02*
X001850Y001139D01*
X002550Y001839D02*
X004950Y001839D01*
X005250Y001539D01*
X005150Y002039D02*
X004950Y002239D01*
X005150Y002039D02*
X007150Y002039D01*
X007450Y002339D01*
X007650Y002339D01*
X007050Y002539D02*
X006850Y002739D01*
X006050Y002739D01*
X005850Y002939D01*
X005950Y003339D02*
X005650Y003639D01*
X005635Y003682D01*
X005450Y004039D02*
X005250Y003839D01*
X005250Y003539D01*
X004950Y003239D01*
X005450Y004039D02*
X005650Y004039D01*
X005750Y004139D01*
X005850Y004139D01*
X006350Y004239D02*
X005850Y004739D01*
X006250Y004839D02*
X007550Y004839D01*
X007489Y004832D01*
X007550Y004539D02*
X007489Y004517D01*
X007550Y004539D02*
X007850Y004539D01*
X008150Y004839D01*
X007550Y005139D02*
X007489Y005147D01*
X007550Y005139D02*
X007150Y005139D01*
X006350Y005939D01*
X006750Y005889D02*
X007200Y005439D01*
X007550Y005439D01*
X007489Y005462D01*
X007500Y005739D02*
X007150Y006089D01*
X007489Y005777D02*
X007550Y005739D01*
X007500Y005739D01*
X008650Y005739D02*
X008650Y006439D01*
X008651Y006456D01*
X008950Y006439D02*
X008966Y006456D01*
X008950Y006439D02*
X008950Y004139D01*
X008950Y003539D02*
X008966Y003523D01*
X008950Y003539D02*
X008950Y003239D01*
X008650Y002939D01*
X008650Y002689D01*
X008450Y002539D02*
X008350Y002539D01*
X008450Y002539D02*
X008550Y002439D01*
X010750Y002439D01*
X010450Y002839D02*
X010450Y003539D01*
X010540Y003523D01*
X010225Y003523D02*
X010150Y003514D01*
X010150Y003889D01*
X009875Y004164D01*
X009850Y003539D02*
X009910Y003523D01*
X009850Y003539D02*
X009850Y002939D01*
X009550Y002989D02*
X009250Y002689D01*
X008950Y002839D02*
X009250Y003139D01*
X009250Y003539D01*
X009281Y003523D01*
X009550Y003539D02*
X009595Y003523D01*
X009550Y003539D02*
X009550Y002989D01*
X010150Y002689D02*
X010150Y003514D01*
X008651Y003523D02*
X008650Y003539D01*
X008650Y003214D01*
X008350Y002914D01*
X008050Y002739D02*
X008050Y003539D01*
X008021Y003523D01*
X008250Y003539D02*
X008336Y003523D01*
X008250Y003539D02*
X008250Y004139D01*
X007550Y004239D02*
X007489Y004202D01*
X007550Y004239D02*
X006350Y004239D01*
X004550Y004139D02*
X003750Y004139D01*
X003550Y004339D01*
X002949Y004339D01*
X002150Y004339D02*
X001351Y004339D01*
X000650Y003639D02*
X000650Y007939D01*
X000850Y008139D01*
X001350Y007639D02*
X001850Y008139D01*
X001350Y007639D02*
X001350Y006539D01*
X001550Y006339D01*
X001950Y006339D01*
X002050Y006439D01*
X002050Y007039D01*
X002350Y007339D01*
X006450Y007339D01*
X006850Y006939D01*
X006385Y006739D02*
X006350Y006739D01*
X005950Y007139D01*
X005550Y007139D01*
X005150Y006739D01*
X005163Y006739D01*
X005650Y006739D02*
X005650Y006439D01*
X005450Y006239D01*
X005650Y006739D02*
X005715Y006739D01*
X004550Y005739D02*
X004550Y004939D01*
X003750Y004939D02*
X003350Y005339D01*
X002949Y005339D01*
X003650Y006139D02*
X003850Y005939D01*
X003650Y006139D02*
X002250Y006139D01*
X002385Y006739D02*
X002937Y006739D01*
X004050Y006239D02*
X004550Y005739D01*
X007400Y006989D02*
X008000Y006989D01*
X008650Y007639D01*
X011350Y007639D01*
X011850Y008139D01*
X010550Y007064D02*
X010550Y006539D01*
X010540Y006456D01*
X010550Y006339D01*
X010550Y005339D01*
X010750Y005139D01*
X010150Y005739D02*
X010150Y006439D01*
X010225Y006456D01*
X009910Y006456D02*
X009850Y006539D01*
X009850Y006339D01*
X009595Y006456D02*
X009550Y006439D01*
X009550Y005739D01*
X009250Y005539D02*
X009250Y006439D01*
X009281Y006456D01*
X009850Y006539D02*
X009850Y006939D01*
X009750Y007039D01*
X010550Y006539D02*
X010550Y006339D01*
X004150Y001539D02*
X004050Y001639D01*
X003350Y001639D01*
X002850Y001139D01*
X004150Y001539D02*
X004250Y001539D01*
X001250Y003439D02*
X000850Y003439D01*
X000650Y003639D01*
M02*
