G75*
%MOIN*%
%OFA0B0*%
%FSLAX25Y25*%
%IPPOS*%
%LPD*%
%AMOC8*
5,1,8,0,0,1.08239X$1,22.5*
%
%ADD10OC8,0.07000*%
%ADD11R,0.04724X0.04724*%
%ADD12R,0.04331X0.03937*%
%ADD13R,0.03937X0.04331*%
%ADD14R,0.03937X0.03543*%
%ADD15R,0.03150X0.06693*%
%ADD16C,0.01080*%
%ADD17C,0.01037*%
%ADD18C,0.00720*%
%ADD19C,0.00600*%
%ADD20C,0.02700*%
%ADD21C,0.01600*%
%ADD22C,0.01000*%
D10*
X0006800Y0006800D03*
X0016800Y0006800D03*
X0026800Y0006800D03*
X0036800Y0006800D03*
X0046800Y0006800D03*
X0056800Y0006800D03*
X0066800Y0006800D03*
X0076800Y0006800D03*
X0086800Y0006800D03*
X0096800Y0006800D03*
X0106800Y0006800D03*
X0006800Y0021800D03*
X0006800Y0031800D03*
X0006800Y0041800D03*
X0006800Y0051800D03*
X0006800Y0061800D03*
X0006800Y0071800D03*
X0006800Y0086800D03*
X0016800Y0086800D03*
X0026800Y0086800D03*
X0036800Y0086800D03*
X0046800Y0086800D03*
X0056800Y0086800D03*
X0066800Y0086800D03*
X0076800Y0086800D03*
X0086800Y0086800D03*
X0096800Y0086800D03*
X0106800Y0086800D03*
X0116800Y0086800D03*
D11*
X0040934Y0029800D03*
X0032666Y0029800D03*
X0032666Y0021800D03*
X0040934Y0021800D03*
D12*
X0027146Y0021800D03*
X0020454Y0021800D03*
X0020454Y0029800D03*
X0027146Y0029800D03*
X0027146Y0041800D03*
X0020454Y0041800D03*
D13*
X0040800Y0041454D03*
X0040800Y0048146D03*
X0040800Y0066454D03*
X0040800Y0073146D03*
D14*
X0027950Y0071871D03*
X0021650Y0071871D03*
X0021650Y0055729D03*
X0027950Y0055729D03*
D15*
X0020076Y0063800D03*
D16*
X0054353Y0071006D02*
X0054353Y0075744D01*
X0054353Y0071006D02*
X0051833Y0071006D01*
X0051833Y0075744D01*
X0054353Y0075744D01*
X0054353Y0072085D02*
X0051833Y0072085D01*
X0051833Y0073164D02*
X0054353Y0073164D01*
X0054353Y0074243D02*
X0051833Y0074243D01*
X0051833Y0075322D02*
X0054353Y0075322D01*
X0060259Y0075744D02*
X0060259Y0069824D01*
X0057739Y0069824D01*
X0057739Y0075744D01*
X0060259Y0075744D01*
X0060259Y0070903D02*
X0057739Y0070903D01*
X0057739Y0071982D02*
X0060259Y0071982D01*
X0060259Y0073061D02*
X0057739Y0073061D01*
X0057739Y0074140D02*
X0060259Y0074140D01*
X0060259Y0075219D02*
X0057739Y0075219D01*
X0066164Y0075744D02*
X0066164Y0069824D01*
X0063644Y0069824D01*
X0063644Y0075744D01*
X0066164Y0075744D01*
X0066164Y0070903D02*
X0063644Y0070903D01*
X0063644Y0071982D02*
X0066164Y0071982D01*
X0066164Y0073061D02*
X0063644Y0073061D01*
X0063644Y0074140D02*
X0066164Y0074140D01*
X0066164Y0075219D02*
X0063644Y0075219D01*
X0072070Y0075744D02*
X0072070Y0069824D01*
X0069550Y0069824D01*
X0069550Y0075744D01*
X0072070Y0075744D01*
X0072070Y0070903D02*
X0069550Y0070903D01*
X0069550Y0071982D02*
X0072070Y0071982D01*
X0072070Y0073061D02*
X0069550Y0073061D01*
X0069550Y0074140D02*
X0072070Y0074140D01*
X0072070Y0075219D02*
X0069550Y0075219D01*
X0077975Y0075744D02*
X0077975Y0069824D01*
X0075455Y0069824D01*
X0075455Y0075744D01*
X0077975Y0075744D01*
X0077975Y0070903D02*
X0075455Y0070903D01*
X0075455Y0071982D02*
X0077975Y0071982D01*
X0077975Y0073061D02*
X0075455Y0073061D01*
X0075455Y0074140D02*
X0077975Y0074140D01*
X0077975Y0075219D02*
X0075455Y0075219D01*
X0089786Y0075744D02*
X0089786Y0069824D01*
X0087266Y0069824D01*
X0087266Y0075744D01*
X0089786Y0075744D01*
X0089786Y0070903D02*
X0087266Y0070903D01*
X0087266Y0071982D02*
X0089786Y0071982D01*
X0089786Y0073061D02*
X0087266Y0073061D01*
X0087266Y0074140D02*
X0089786Y0074140D01*
X0089786Y0075219D02*
X0087266Y0075219D01*
X0095692Y0075744D02*
X0095692Y0069824D01*
X0093172Y0069824D01*
X0093172Y0075744D01*
X0095692Y0075744D01*
X0095692Y0070903D02*
X0093172Y0070903D01*
X0093172Y0071982D02*
X0095692Y0071982D01*
X0095692Y0073061D02*
X0093172Y0073061D01*
X0093172Y0074140D02*
X0095692Y0074140D01*
X0095692Y0075219D02*
X0093172Y0075219D01*
X0101597Y0075744D02*
X0101597Y0069824D01*
X0099077Y0069824D01*
X0099077Y0075744D01*
X0101597Y0075744D01*
X0101597Y0070903D02*
X0099077Y0070903D01*
X0099077Y0071982D02*
X0101597Y0071982D01*
X0101597Y0073061D02*
X0099077Y0073061D01*
X0099077Y0074140D02*
X0101597Y0074140D01*
X0101597Y0075219D02*
X0099077Y0075219D01*
X0107503Y0075744D02*
X0107503Y0069824D01*
X0104983Y0069824D01*
X0104983Y0075744D01*
X0107503Y0075744D01*
X0107503Y0070903D02*
X0104983Y0070903D01*
X0104983Y0071982D02*
X0107503Y0071982D01*
X0107503Y0073061D02*
X0104983Y0073061D01*
X0104983Y0074140D02*
X0107503Y0074140D01*
X0107503Y0075219D02*
X0104983Y0075219D01*
X0113408Y0075744D02*
X0113408Y0069824D01*
X0110888Y0069824D01*
X0110888Y0075744D01*
X0113408Y0075744D01*
X0113408Y0070903D02*
X0110888Y0070903D01*
X0110888Y0071982D02*
X0113408Y0071982D01*
X0113408Y0073061D02*
X0110888Y0073061D01*
X0110888Y0074140D02*
X0113408Y0074140D01*
X0113408Y0075219D02*
X0110888Y0075219D01*
X0119314Y0075744D02*
X0119314Y0069824D01*
X0116794Y0069824D01*
X0116794Y0075744D01*
X0119314Y0075744D01*
X0119314Y0070903D02*
X0116794Y0070903D01*
X0116794Y0071982D02*
X0119314Y0071982D01*
X0119314Y0073061D02*
X0116794Y0073061D01*
X0116794Y0074140D02*
X0119314Y0074140D01*
X0119314Y0075219D02*
X0116794Y0075219D01*
X0125219Y0075744D02*
X0125219Y0069824D01*
X0122699Y0069824D01*
X0122699Y0075744D01*
X0125219Y0075744D01*
X0125219Y0070903D02*
X0122699Y0070903D01*
X0122699Y0071982D02*
X0125219Y0071982D01*
X0125219Y0073061D02*
X0122699Y0073061D01*
X0122699Y0074140D02*
X0125219Y0074140D01*
X0125219Y0075219D02*
X0122699Y0075219D01*
X0131125Y0075744D02*
X0131125Y0071006D01*
X0128605Y0071006D01*
X0128605Y0075744D01*
X0131125Y0075744D01*
X0131125Y0072085D02*
X0128605Y0072085D01*
X0128605Y0073164D02*
X0131125Y0073164D01*
X0131125Y0074243D02*
X0128605Y0074243D01*
X0128605Y0075322D02*
X0131125Y0075322D01*
X0145999Y0045540D02*
X0149163Y0045540D01*
X0145999Y0045540D02*
X0145999Y0048060D01*
X0149163Y0048060D01*
X0149163Y0045540D01*
X0149163Y0046619D02*
X0145999Y0046619D01*
X0145999Y0047698D02*
X0149163Y0047698D01*
X0131125Y0022594D02*
X0131125Y0017856D01*
X0128605Y0017856D01*
X0128605Y0022594D01*
X0131125Y0022594D01*
X0131125Y0018935D02*
X0128605Y0018935D01*
X0128605Y0020014D02*
X0131125Y0020014D01*
X0131125Y0021093D02*
X0128605Y0021093D01*
X0128605Y0022172D02*
X0131125Y0022172D01*
X0125219Y0023776D02*
X0125219Y0017856D01*
X0122699Y0017856D01*
X0122699Y0023776D01*
X0125219Y0023776D01*
X0125219Y0018935D02*
X0122699Y0018935D01*
X0122699Y0020014D02*
X0125219Y0020014D01*
X0125219Y0021093D02*
X0122699Y0021093D01*
X0122699Y0022172D02*
X0125219Y0022172D01*
X0125219Y0023251D02*
X0122699Y0023251D01*
X0119314Y0023776D02*
X0119314Y0017856D01*
X0116794Y0017856D01*
X0116794Y0023776D01*
X0119314Y0023776D01*
X0119314Y0018935D02*
X0116794Y0018935D01*
X0116794Y0020014D02*
X0119314Y0020014D01*
X0119314Y0021093D02*
X0116794Y0021093D01*
X0116794Y0022172D02*
X0119314Y0022172D01*
X0119314Y0023251D02*
X0116794Y0023251D01*
X0113408Y0023776D02*
X0113408Y0017856D01*
X0110888Y0017856D01*
X0110888Y0023776D01*
X0113408Y0023776D01*
X0113408Y0018935D02*
X0110888Y0018935D01*
X0110888Y0020014D02*
X0113408Y0020014D01*
X0113408Y0021093D02*
X0110888Y0021093D01*
X0110888Y0022172D02*
X0113408Y0022172D01*
X0113408Y0023251D02*
X0110888Y0023251D01*
X0107503Y0023776D02*
X0107503Y0017856D01*
X0104983Y0017856D01*
X0104983Y0023776D01*
X0107503Y0023776D01*
X0107503Y0018935D02*
X0104983Y0018935D01*
X0104983Y0020014D02*
X0107503Y0020014D01*
X0107503Y0021093D02*
X0104983Y0021093D01*
X0104983Y0022172D02*
X0107503Y0022172D01*
X0107503Y0023251D02*
X0104983Y0023251D01*
X0101597Y0023776D02*
X0101597Y0017856D01*
X0099077Y0017856D01*
X0099077Y0023776D01*
X0101597Y0023776D01*
X0101597Y0018935D02*
X0099077Y0018935D01*
X0099077Y0020014D02*
X0101597Y0020014D01*
X0101597Y0021093D02*
X0099077Y0021093D01*
X0099077Y0022172D02*
X0101597Y0022172D01*
X0101597Y0023251D02*
X0099077Y0023251D01*
X0095692Y0023776D02*
X0095692Y0017856D01*
X0093172Y0017856D01*
X0093172Y0023776D01*
X0095692Y0023776D01*
X0095692Y0018935D02*
X0093172Y0018935D01*
X0093172Y0020014D02*
X0095692Y0020014D01*
X0095692Y0021093D02*
X0093172Y0021093D01*
X0093172Y0022172D02*
X0095692Y0022172D01*
X0095692Y0023251D02*
X0093172Y0023251D01*
X0089786Y0023776D02*
X0089786Y0017856D01*
X0087266Y0017856D01*
X0087266Y0023776D01*
X0089786Y0023776D01*
X0089786Y0018935D02*
X0087266Y0018935D01*
X0087266Y0020014D02*
X0089786Y0020014D01*
X0089786Y0021093D02*
X0087266Y0021093D01*
X0087266Y0022172D02*
X0089786Y0022172D01*
X0089786Y0023251D02*
X0087266Y0023251D01*
X0083881Y0023776D02*
X0083881Y0017856D01*
X0081361Y0017856D01*
X0081361Y0023776D01*
X0083881Y0023776D01*
X0083881Y0018935D02*
X0081361Y0018935D01*
X0081361Y0020014D02*
X0083881Y0020014D01*
X0083881Y0021093D02*
X0081361Y0021093D01*
X0081361Y0022172D02*
X0083881Y0022172D01*
X0083881Y0023251D02*
X0081361Y0023251D01*
X0077975Y0023776D02*
X0077975Y0017856D01*
X0075455Y0017856D01*
X0075455Y0023776D01*
X0077975Y0023776D01*
X0077975Y0018935D02*
X0075455Y0018935D01*
X0075455Y0020014D02*
X0077975Y0020014D01*
X0077975Y0021093D02*
X0075455Y0021093D01*
X0075455Y0022172D02*
X0077975Y0022172D01*
X0077975Y0023251D02*
X0075455Y0023251D01*
X0072070Y0023776D02*
X0072070Y0017856D01*
X0069550Y0017856D01*
X0069550Y0023776D01*
X0072070Y0023776D01*
X0072070Y0018935D02*
X0069550Y0018935D01*
X0069550Y0020014D02*
X0072070Y0020014D01*
X0072070Y0021093D02*
X0069550Y0021093D01*
X0069550Y0022172D02*
X0072070Y0022172D01*
X0072070Y0023251D02*
X0069550Y0023251D01*
X0066164Y0023776D02*
X0066164Y0017856D01*
X0063644Y0017856D01*
X0063644Y0023776D01*
X0066164Y0023776D01*
X0066164Y0018935D02*
X0063644Y0018935D01*
X0063644Y0020014D02*
X0066164Y0020014D01*
X0066164Y0021093D02*
X0063644Y0021093D01*
X0063644Y0022172D02*
X0066164Y0022172D01*
X0066164Y0023251D02*
X0063644Y0023251D01*
X0060259Y0023776D02*
X0060259Y0017856D01*
X0057739Y0017856D01*
X0057739Y0023776D01*
X0060259Y0023776D01*
X0060259Y0018935D02*
X0057739Y0018935D01*
X0057739Y0020014D02*
X0060259Y0020014D01*
X0060259Y0021093D02*
X0057739Y0021093D01*
X0057739Y0022172D02*
X0060259Y0022172D01*
X0060259Y0023251D02*
X0057739Y0023251D01*
X0054353Y0022594D02*
X0054353Y0017856D01*
X0051833Y0017856D01*
X0051833Y0022594D01*
X0054353Y0022594D01*
X0054353Y0018935D02*
X0051833Y0018935D01*
X0051833Y0020014D02*
X0054353Y0020014D01*
X0054353Y0021093D02*
X0051833Y0021093D01*
X0051833Y0022172D02*
X0054353Y0022172D01*
D17*
X0146765Y0039612D02*
X0149185Y0039612D01*
X0146765Y0039612D02*
X0146765Y0042176D01*
X0149185Y0042176D01*
X0149185Y0039612D01*
X0149185Y0040648D02*
X0146765Y0040648D01*
X0146765Y0041684D02*
X0149185Y0041684D01*
X0149185Y0051424D02*
X0146765Y0051424D01*
X0146765Y0053988D01*
X0149185Y0053988D01*
X0149185Y0051424D01*
X0149185Y0052460D02*
X0146765Y0052460D01*
X0146765Y0053496D02*
X0149185Y0053496D01*
D18*
X0084061Y0069644D02*
X0084061Y0075924D01*
X0084061Y0069644D02*
X0081181Y0069644D01*
X0081181Y0075924D01*
X0084061Y0075924D01*
X0084061Y0070363D02*
X0081181Y0070363D01*
X0081181Y0071082D02*
X0084061Y0071082D01*
X0084061Y0071801D02*
X0081181Y0071801D01*
X0081181Y0072520D02*
X0084061Y0072520D01*
X0084061Y0073239D02*
X0081181Y0073239D01*
X0081181Y0073958D02*
X0084061Y0073958D01*
X0084061Y0074677D02*
X0081181Y0074677D01*
X0081181Y0075396D02*
X0084061Y0075396D01*
D19*
X0082621Y0073200D02*
X0082621Y0072784D01*
X0082621Y0073200D02*
X0082200Y0073200D01*
X0079800Y0075600D01*
X0079800Y0076200D01*
X0073800Y0082200D01*
X0061200Y0082200D01*
X0061200Y0083400D01*
X0056800Y0086800D02*
X0055800Y0085800D01*
X0055800Y0056400D01*
X0058200Y0052800D02*
X0049200Y0043800D01*
X0055800Y0042000D02*
X0055800Y0016200D01*
X0046800Y0007200D01*
X0046800Y0006800D01*
X0036800Y0006800D02*
X0036600Y0007200D01*
X0036600Y0043800D01*
X0036000Y0046200D02*
X0032400Y0046200D01*
X0032400Y0040200D01*
X0034200Y0038400D01*
X0034200Y0036000D01*
X0033000Y0034800D01*
X0029400Y0034800D01*
X0027600Y0030000D02*
X0027146Y0029800D01*
X0027600Y0030000D02*
X0032400Y0030000D01*
X0032666Y0029800D01*
X0032666Y0021800D02*
X0032400Y0021600D01*
X0027600Y0021600D01*
X0027146Y0021800D01*
X0024000Y0018600D02*
X0024000Y0018000D01*
X0024000Y0018600D02*
X0021000Y0021600D01*
X0020454Y0021800D01*
X0049200Y0039000D02*
X0061800Y0051600D01*
X0061800Y0077400D01*
X0072600Y0077400D01*
X0073800Y0076200D01*
X0073800Y0075600D01*
X0076200Y0073200D01*
X0076200Y0072784D01*
X0076715Y0072784D01*
X0070810Y0072784D02*
X0070810Y0072600D01*
X0070800Y0072600D01*
X0067800Y0069600D01*
X0067800Y0007800D01*
X0066800Y0006800D01*
X0061200Y0010200D02*
X0064800Y0013800D01*
X0064800Y0020400D01*
X0064904Y0020400D01*
X0064904Y0020816D01*
X0064904Y0021000D01*
X0064800Y0021000D01*
X0064800Y0045000D01*
X0063600Y0046200D01*
X0063000Y0049200D02*
X0055800Y0042000D01*
X0063000Y0049200D02*
X0063000Y0070800D01*
X0064800Y0072600D01*
X0064800Y0072784D01*
X0064904Y0072784D01*
X0058999Y0072784D02*
X0058999Y0072600D01*
X0058800Y0072600D01*
X0058200Y0072000D01*
X0058200Y0052800D01*
X0037200Y0047400D02*
X0036000Y0046200D01*
X0037200Y0047400D02*
X0037200Y0086400D01*
X0036800Y0086800D01*
X0046800Y0086800D02*
X0046800Y0072000D01*
X0024600Y0066600D02*
X0024600Y0084600D01*
X0026800Y0086800D01*
X0016800Y0086800D02*
X0016800Y0086400D01*
X0012000Y0081600D01*
X0012000Y0049200D01*
X0010200Y0047400D01*
X0027950Y0055729D02*
X0028200Y0055200D01*
X0034800Y0048600D01*
X0061800Y0027600D02*
X0062400Y0028200D01*
X0061800Y0027600D02*
X0061800Y0014400D01*
X0057000Y0009600D01*
X0057000Y0007200D01*
X0056800Y0006800D01*
X0071400Y0020400D02*
X0073800Y0018000D01*
X0073800Y0017400D01*
X0075000Y0016200D01*
X0084600Y0016200D01*
X0085800Y0017400D01*
X0085800Y0024600D01*
X0087000Y0025800D01*
X0109200Y0025800D01*
X0109200Y0017400D01*
X0110400Y0016200D01*
X0115200Y0016200D01*
X0115200Y0063000D01*
X0109200Y0069000D01*
X0109200Y0084000D01*
X0106800Y0086400D01*
X0106800Y0086800D01*
X0111600Y0083400D02*
X0111600Y0072784D01*
X0112148Y0072784D01*
X0115200Y0070200D02*
X0115200Y0067800D01*
X0115200Y0070200D02*
X0117600Y0072600D01*
X0117600Y0072784D01*
X0118054Y0072784D01*
X0106243Y0072784D02*
X0106200Y0072784D01*
X0106200Y0072600D01*
X0105600Y0072000D01*
X0105600Y0067200D01*
X0100337Y0072600D02*
X0100337Y0072784D01*
X0100337Y0072600D02*
X0100200Y0072600D01*
X0097200Y0069600D01*
X0097200Y0067800D01*
X0094200Y0072600D02*
X0091800Y0070200D01*
X0091800Y0035400D01*
X0103200Y0034800D02*
X0111600Y0026400D01*
X0111600Y0020816D01*
X0112148Y0020816D01*
X0117600Y0020816D02*
X0118054Y0020816D01*
X0117600Y0020816D02*
X0117600Y0041400D01*
X0103200Y0034800D02*
X0103200Y0080400D01*
X0096800Y0086800D01*
X0086800Y0086800D02*
X0085800Y0085800D01*
X0085800Y0069600D01*
X0082800Y0066600D01*
X0082800Y0021000D01*
X0082621Y0021000D01*
X0082621Y0020816D01*
X0079800Y0024000D02*
X0076800Y0021000D01*
X0076715Y0021000D01*
X0076715Y0020816D01*
X0079800Y0024000D02*
X0079800Y0063600D01*
X0087000Y0071400D02*
X0087000Y0054000D01*
X0087000Y0071400D02*
X0088200Y0072600D01*
X0088200Y0072784D01*
X0088526Y0072784D01*
X0094200Y0072784D02*
X0094200Y0072600D01*
X0094200Y0072784D02*
X0094432Y0072784D01*
X0094432Y0020816D02*
X0094200Y0020816D01*
X0094200Y0020400D01*
X0091800Y0018000D01*
X0091800Y0012000D01*
X0087000Y0007200D01*
X0086800Y0006800D01*
X0076800Y0006800D02*
X0076800Y0006600D01*
X0087000Y0016800D01*
X0087000Y0019200D01*
X0088200Y0020400D01*
X0088526Y0020400D01*
X0088526Y0020816D01*
X0097200Y0017400D02*
X0097200Y0007200D01*
X0096800Y0006800D01*
X0106800Y0006800D02*
X0106800Y0020400D01*
X0106243Y0020400D01*
X0106243Y0020816D01*
X0100337Y0020816D02*
X0100200Y0020816D01*
X0100200Y0020400D01*
X0097200Y0017400D01*
X0071400Y0020400D02*
X0070810Y0020400D01*
X0070810Y0020816D01*
D20*
X0062400Y0028200D03*
X0058200Y0028200D03*
X0049200Y0039000D03*
X0049200Y0043800D03*
X0040800Y0035400D03*
X0029400Y0034800D03*
X0024000Y0033600D03*
X0018600Y0037800D03*
X0010200Y0047400D03*
X0034800Y0048600D03*
X0036600Y0043800D03*
X0041400Y0054000D03*
X0047400Y0059400D03*
X0055800Y0056400D03*
X0063600Y0046200D03*
X0087000Y0054000D03*
X0079800Y0063600D03*
X0097200Y0067800D03*
X0105600Y0067200D03*
X0115200Y0067800D03*
X0129800Y0064800D03*
X0129800Y0060800D03*
X0129800Y0056800D03*
X0129800Y0052800D03*
X0133800Y0052800D03*
X0137800Y0052800D03*
X0141800Y0052800D03*
X0121200Y0041400D03*
X0117600Y0041400D03*
X0111600Y0026400D03*
X0091800Y0035400D03*
X0061200Y0010200D03*
X0024000Y0018000D03*
X0032400Y0063600D03*
X0024600Y0066600D03*
X0046800Y0072000D03*
X0061200Y0083400D03*
X0111600Y0083400D03*
D21*
X0114194Y0082476D02*
X0114770Y0081900D01*
X0118830Y0081900D01*
X0121700Y0084770D01*
X0121700Y0088830D01*
X0121030Y0089500D01*
X0131030Y0089500D01*
X0131030Y0078084D01*
X0129965Y0078084D01*
X0129965Y0073475D01*
X0129765Y0073475D01*
X0129765Y0078084D01*
X0128374Y0078084D01*
X0127922Y0077994D01*
X0127497Y0077818D01*
X0127113Y0077562D01*
X0126787Y0077236D01*
X0126661Y0077046D01*
X0126023Y0077684D01*
X0121896Y0077684D01*
X0121007Y0076795D01*
X0120118Y0077684D01*
X0115990Y0077684D01*
X0115101Y0076795D01*
X0114212Y0077684D01*
X0113300Y0077684D01*
X0113300Y0081211D01*
X0113931Y0081842D01*
X0114194Y0082476D01*
X0113815Y0081726D02*
X0131030Y0081726D01*
X0131030Y0083324D02*
X0120254Y0083324D01*
X0121700Y0084923D02*
X0131030Y0084923D01*
X0131030Y0086521D02*
X0121700Y0086521D01*
X0121700Y0088120D02*
X0131030Y0088120D01*
X0131030Y0080127D02*
X0113300Y0080127D01*
X0113300Y0078529D02*
X0131030Y0078529D01*
X0129965Y0076930D02*
X0129765Y0076930D01*
X0129765Y0075332D02*
X0129965Y0075332D01*
X0129965Y0073733D02*
X0129765Y0073733D01*
X0129765Y0073275D02*
X0129965Y0073275D01*
X0129965Y0068665D01*
X0131033Y0068665D01*
X0131033Y0054343D01*
X0131502Y0053874D01*
X0144847Y0053874D01*
X0144847Y0050629D01*
X0145476Y0050000D01*
X0145196Y0050000D01*
X0144059Y0048864D01*
X0144059Y0044736D01*
X0145196Y0043600D01*
X0145476Y0043600D01*
X0144847Y0042971D01*
X0144847Y0038818D01*
X0145971Y0037694D01*
X0149500Y0037694D01*
X0149500Y0004100D01*
X0111030Y0004100D01*
X0111700Y0004770D01*
X0111700Y0008830D01*
X0108830Y0011700D01*
X0108500Y0011700D01*
X0108500Y0015696D01*
X0108700Y0015496D01*
X0109696Y0014500D01*
X0115904Y0014500D01*
X0116900Y0015496D01*
X0116900Y0015916D01*
X0120118Y0015916D01*
X0121007Y0016805D01*
X0121896Y0015916D01*
X0126023Y0015916D01*
X0126661Y0016554D01*
X0126787Y0016364D01*
X0127113Y0016038D01*
X0127497Y0015782D01*
X0127922Y0015606D01*
X0128374Y0015516D01*
X0129765Y0015516D01*
X0129765Y0020125D01*
X0129965Y0020125D01*
X0129965Y0015516D01*
X0131355Y0015516D01*
X0131808Y0015606D01*
X0132233Y0015782D01*
X0132617Y0016038D01*
X0132943Y0016364D01*
X0133199Y0016747D01*
X0133375Y0017173D01*
X0133465Y0017625D01*
X0133465Y0020125D01*
X0129965Y0020125D01*
X0129965Y0020325D01*
X0133465Y0020325D01*
X0133465Y0022825D01*
X0133375Y0023277D01*
X0133199Y0023703D01*
X0132943Y0024086D01*
X0132617Y0024412D01*
X0132233Y0024668D01*
X0131808Y0024845D01*
X0131355Y0024935D01*
X0129965Y0024935D01*
X0129965Y0020325D01*
X0129765Y0020325D01*
X0129765Y0024935D01*
X0128374Y0024935D01*
X0127922Y0024845D01*
X0127497Y0024668D01*
X0127159Y0024443D01*
X0127159Y0024579D01*
X0126023Y0025716D01*
X0121896Y0025716D01*
X0121007Y0024827D01*
X0120118Y0025716D01*
X0119300Y0025716D01*
X0119300Y0039211D01*
X0119400Y0039311D01*
X0119642Y0039069D01*
X0120653Y0038650D01*
X0121747Y0038650D01*
X0122758Y0039069D01*
X0123531Y0039842D01*
X0123950Y0040853D01*
X0123950Y0041947D01*
X0123531Y0042958D01*
X0123100Y0043389D01*
X0123100Y0067884D01*
X0126023Y0067884D01*
X0127159Y0069021D01*
X0127159Y0069157D01*
X0127497Y0068932D01*
X0127922Y0068755D01*
X0128374Y0068665D01*
X0129765Y0068665D01*
X0129765Y0073275D01*
X0129765Y0072134D02*
X0129965Y0072134D01*
X0129965Y0070536D02*
X0129765Y0070536D01*
X0129765Y0068937D02*
X0129965Y0068937D01*
X0131033Y0067339D02*
X0123100Y0067339D01*
X0123100Y0065740D02*
X0131033Y0065740D01*
X0131033Y0064142D02*
X0123100Y0064142D01*
X0123100Y0062543D02*
X0131033Y0062543D01*
X0131033Y0060945D02*
X0123100Y0060945D01*
X0123100Y0059346D02*
X0131033Y0059346D01*
X0131033Y0057748D02*
X0123100Y0057748D01*
X0123100Y0056149D02*
X0131033Y0056149D01*
X0131033Y0054551D02*
X0123100Y0054551D01*
X0123100Y0052952D02*
X0144847Y0052952D01*
X0144847Y0051354D02*
X0123100Y0051354D01*
X0123100Y0049755D02*
X0144951Y0049755D01*
X0144059Y0048157D02*
X0123100Y0048157D01*
X0123100Y0046558D02*
X0144059Y0046558D01*
X0144059Y0044960D02*
X0123100Y0044960D01*
X0123128Y0043361D02*
X0145238Y0043361D01*
X0144847Y0041763D02*
X0123950Y0041763D01*
X0123665Y0040164D02*
X0144847Y0040164D01*
X0145099Y0038566D02*
X0119300Y0038566D01*
X0119300Y0036967D02*
X0149500Y0036967D01*
X0149500Y0035369D02*
X0119300Y0035369D01*
X0119300Y0033770D02*
X0149500Y0033770D01*
X0149500Y0032172D02*
X0119300Y0032172D01*
X0119300Y0030573D02*
X0149500Y0030573D01*
X0149500Y0028975D02*
X0119300Y0028975D01*
X0119300Y0027376D02*
X0149500Y0027376D01*
X0149500Y0025778D02*
X0119300Y0025778D01*
X0129765Y0024179D02*
X0129965Y0024179D01*
X0129965Y0022581D02*
X0129765Y0022581D01*
X0129765Y0020982D02*
X0129965Y0020982D01*
X0129965Y0019384D02*
X0129765Y0019384D01*
X0129765Y0017785D02*
X0129965Y0017785D01*
X0129965Y0016187D02*
X0129765Y0016187D01*
X0126965Y0016187D02*
X0126294Y0016187D01*
X0121625Y0016187D02*
X0120388Y0016187D01*
X0115992Y0014588D02*
X0149500Y0014588D01*
X0149500Y0016187D02*
X0132765Y0016187D01*
X0133465Y0017785D02*
X0149500Y0017785D01*
X0149500Y0019384D02*
X0133465Y0019384D01*
X0133465Y0020982D02*
X0149500Y0020982D01*
X0149500Y0022581D02*
X0133465Y0022581D01*
X0132850Y0024179D02*
X0149500Y0024179D01*
X0149500Y0012990D02*
X0108500Y0012990D01*
X0108500Y0014588D02*
X0109608Y0014588D01*
X0109139Y0011391D02*
X0149500Y0011391D01*
X0149500Y0009793D02*
X0110737Y0009793D01*
X0111700Y0008194D02*
X0149500Y0008194D01*
X0149500Y0006596D02*
X0111700Y0006596D01*
X0111700Y0004997D02*
X0149500Y0004997D01*
X0056500Y0053504D02*
X0049546Y0046550D01*
X0048653Y0046550D01*
X0047642Y0046131D01*
X0046869Y0045358D01*
X0046450Y0044347D01*
X0046450Y0043253D01*
X0046869Y0042242D01*
X0047642Y0041469D01*
X0047808Y0041400D01*
X0047642Y0041331D01*
X0046869Y0040558D01*
X0046450Y0039547D01*
X0046450Y0038453D01*
X0046869Y0037442D01*
X0047642Y0036669D01*
X0048653Y0036250D01*
X0049747Y0036250D01*
X0050758Y0036669D01*
X0051531Y0037442D01*
X0051950Y0038453D01*
X0051950Y0039346D01*
X0054100Y0041496D01*
X0054100Y0024935D01*
X0053193Y0024935D01*
X0053193Y0020325D01*
X0052993Y0020325D01*
X0052993Y0020125D01*
X0049493Y0020125D01*
X0049493Y0017625D01*
X0049583Y0017173D01*
X0049760Y0016747D01*
X0050016Y0016364D01*
X0050342Y0016038D01*
X0050725Y0015782D01*
X0051151Y0015606D01*
X0051603Y0015516D01*
X0052712Y0015516D01*
X0048863Y0011667D01*
X0048830Y0011700D01*
X0044770Y0011700D01*
X0041900Y0008830D01*
X0041900Y0004770D01*
X0042570Y0004100D01*
X0041030Y0004100D01*
X0041700Y0004770D01*
X0041700Y0008830D01*
X0038830Y0011700D01*
X0038300Y0011700D01*
X0038300Y0017647D01*
X0038335Y0017638D01*
X0040553Y0017638D01*
X0040553Y0021419D01*
X0041315Y0021419D01*
X0041315Y0022181D01*
X0045096Y0022181D01*
X0045096Y0024399D01*
X0044973Y0024857D01*
X0044736Y0025267D01*
X0044401Y0025603D01*
X0044059Y0025800D01*
X0044401Y0025997D01*
X0044736Y0026333D01*
X0044973Y0026743D01*
X0045096Y0027201D01*
X0045096Y0029419D01*
X0041315Y0029419D01*
X0041315Y0030181D01*
X0045096Y0030181D01*
X0045096Y0032399D01*
X0044973Y0032857D01*
X0044736Y0033267D01*
X0044401Y0033603D01*
X0043991Y0033840D01*
X0043533Y0033962D01*
X0043181Y0033962D01*
X0043550Y0034853D01*
X0043550Y0035947D01*
X0043131Y0036958D01*
X0042700Y0037389D01*
X0042700Y0037888D01*
X0043348Y0037888D01*
X0044168Y0038708D01*
X0044168Y0042681D01*
X0045187Y0043700D01*
X0046300Y0044813D01*
X0046300Y0063187D01*
X0044168Y0065318D01*
X0044168Y0069199D01*
X0043844Y0069523D01*
X0043874Y0069541D01*
X0044209Y0069876D01*
X0044446Y0070286D01*
X0044484Y0070427D01*
X0045242Y0069669D01*
X0046253Y0069250D01*
X0047347Y0069250D01*
X0048358Y0069669D01*
X0049131Y0070442D01*
X0049493Y0071316D01*
X0049493Y0070775D01*
X0049583Y0070323D01*
X0049760Y0069897D01*
X0050016Y0069514D01*
X0050342Y0069188D01*
X0050725Y0068932D01*
X0051151Y0068755D01*
X0051603Y0068665D01*
X0052993Y0068665D01*
X0052993Y0073275D01*
X0049493Y0073275D01*
X0049493Y0072684D01*
X0049131Y0073558D01*
X0048500Y0074189D01*
X0048500Y0081900D01*
X0048830Y0081900D01*
X0051700Y0084770D01*
X0051700Y0088830D01*
X0051030Y0089500D01*
X0052570Y0089500D01*
X0051900Y0088830D01*
X0051900Y0084770D01*
X0054100Y0082570D01*
X0054100Y0078084D01*
X0053193Y0078084D01*
X0053193Y0073475D01*
X0052993Y0073475D01*
X0052993Y0073275D01*
X0053193Y0073275D01*
X0053193Y0068665D01*
X0054100Y0068665D01*
X0054100Y0058589D01*
X0053469Y0057958D01*
X0053050Y0056947D01*
X0053050Y0055853D01*
X0053469Y0054842D01*
X0054242Y0054069D01*
X0055253Y0053650D01*
X0056347Y0053650D01*
X0056500Y0053713D01*
X0056500Y0053504D01*
X0055948Y0052952D02*
X0046300Y0052952D01*
X0046300Y0051354D02*
X0054350Y0051354D01*
X0052751Y0049755D02*
X0046300Y0049755D01*
X0046300Y0048157D02*
X0051153Y0048157D01*
X0049554Y0046558D02*
X0046300Y0046558D01*
X0046300Y0044960D02*
X0046704Y0044960D01*
X0046450Y0043361D02*
X0044848Y0043361D01*
X0044168Y0041763D02*
X0047348Y0041763D01*
X0046706Y0040164D02*
X0044168Y0040164D01*
X0044026Y0038566D02*
X0046450Y0038566D01*
X0047344Y0036967D02*
X0043122Y0036967D01*
X0043550Y0035369D02*
X0054100Y0035369D01*
X0054100Y0036967D02*
X0051056Y0036967D01*
X0051950Y0038566D02*
X0054100Y0038566D01*
X0054100Y0040164D02*
X0052768Y0040164D01*
X0054100Y0033770D02*
X0044111Y0033770D01*
X0045096Y0032172D02*
X0054100Y0032172D01*
X0054100Y0030573D02*
X0045096Y0030573D01*
X0045096Y0028975D02*
X0054100Y0028975D01*
X0054100Y0027376D02*
X0045096Y0027376D01*
X0044098Y0025778D02*
X0054100Y0025778D01*
X0052993Y0024935D02*
X0051603Y0024935D01*
X0051151Y0024845D01*
X0050725Y0024668D01*
X0050342Y0024412D01*
X0050016Y0024086D01*
X0049760Y0023703D01*
X0049583Y0023277D01*
X0049493Y0022825D01*
X0049493Y0020325D01*
X0052993Y0020325D01*
X0052993Y0024935D01*
X0052993Y0024179D02*
X0053193Y0024179D01*
X0053193Y0022581D02*
X0052993Y0022581D01*
X0052993Y0020982D02*
X0053193Y0020982D01*
X0049493Y0020982D02*
X0045096Y0020982D01*
X0045096Y0021419D02*
X0045096Y0019201D01*
X0044973Y0018743D01*
X0044736Y0018333D01*
X0044401Y0017997D01*
X0043991Y0017760D01*
X0043533Y0017638D01*
X0041315Y0017638D01*
X0041315Y0021419D01*
X0045096Y0021419D01*
X0045096Y0022581D02*
X0049493Y0022581D01*
X0050109Y0024179D02*
X0045096Y0024179D01*
X0041315Y0024179D02*
X0040553Y0024179D01*
X0040553Y0022581D02*
X0041315Y0022581D01*
X0041315Y0022181D02*
X0040553Y0022181D01*
X0040553Y0025962D01*
X0040553Y0029419D01*
X0041315Y0029419D01*
X0041315Y0022181D01*
X0041315Y0020982D02*
X0040553Y0020982D01*
X0040553Y0019384D02*
X0041315Y0019384D01*
X0041315Y0017785D02*
X0040553Y0017785D01*
X0038300Y0016187D02*
X0050193Y0016187D01*
X0051784Y0014588D02*
X0038300Y0014588D01*
X0038300Y0012990D02*
X0050185Y0012990D01*
X0044461Y0011391D02*
X0039139Y0011391D01*
X0040737Y0009793D02*
X0042863Y0009793D01*
X0041900Y0008194D02*
X0041700Y0008194D01*
X0041700Y0006596D02*
X0041900Y0006596D01*
X0041900Y0004997D02*
X0041700Y0004997D01*
X0044034Y0017785D02*
X0049493Y0017785D01*
X0049493Y0019384D02*
X0045096Y0019384D01*
X0041315Y0025778D02*
X0040553Y0025778D01*
X0040553Y0027376D02*
X0041315Y0027376D01*
X0041315Y0028975D02*
X0040553Y0028975D01*
X0017989Y0035076D02*
X0017813Y0034900D01*
X0016013Y0034900D01*
X0014900Y0033787D01*
X0014900Y0011700D01*
X0014770Y0011700D01*
X0012083Y0009012D01*
X0008995Y0012100D01*
X0007000Y0012100D01*
X0007000Y0007000D01*
X0006600Y0007000D01*
X0006600Y0012100D01*
X0004605Y0012100D01*
X0004100Y0011595D01*
X0004100Y0017570D01*
X0004770Y0016900D01*
X0008830Y0016900D01*
X0011700Y0019770D01*
X0011700Y0023830D01*
X0008830Y0026700D01*
X0004770Y0026700D01*
X0004100Y0026030D01*
X0004100Y0027570D01*
X0004770Y0026900D01*
X0008830Y0026900D01*
X0011700Y0029770D01*
X0011700Y0033830D01*
X0009012Y0036517D01*
X0012100Y0039605D01*
X0012100Y0041600D01*
X0007000Y0041600D01*
X0007000Y0042000D01*
X0012100Y0042000D01*
X0012100Y0043995D01*
X0011241Y0044855D01*
X0011758Y0045069D01*
X0012531Y0045842D01*
X0012950Y0046853D01*
X0012950Y0047746D01*
X0013700Y0048496D01*
X0013700Y0080896D01*
X0014737Y0081933D01*
X0014770Y0081900D01*
X0018830Y0081900D01*
X0021700Y0084770D01*
X0021700Y0088830D01*
X0021030Y0089500D01*
X0022570Y0089500D01*
X0021900Y0088830D01*
X0021900Y0084770D01*
X0022900Y0083770D01*
X0022900Y0075043D01*
X0019102Y0075043D01*
X0018282Y0074222D01*
X0018282Y0069519D01*
X0018855Y0068946D01*
X0018264Y0068946D01*
X0017806Y0068824D01*
X0017396Y0068587D01*
X0017060Y0068252D01*
X0016823Y0067841D01*
X0016701Y0067383D01*
X0016701Y0063800D01*
X0020075Y0063800D01*
X0016701Y0063800D01*
X0016701Y0060217D01*
X0016823Y0059759D01*
X0017060Y0059348D01*
X0017396Y0059013D01*
X0017806Y0058776D01*
X0018264Y0058654D01*
X0018855Y0058654D01*
X0018282Y0058081D01*
X0018282Y0053378D01*
X0019102Y0052557D01*
X0022156Y0052557D01*
X0025100Y0049613D01*
X0025100Y0045168D01*
X0024401Y0045168D01*
X0023800Y0044567D01*
X0023199Y0045168D01*
X0017708Y0045168D01*
X0016888Y0044348D01*
X0016888Y0040575D01*
X0016700Y0040387D01*
X0016700Y0039789D01*
X0016269Y0039358D01*
X0015850Y0038347D01*
X0015850Y0037253D01*
X0016269Y0036242D01*
X0017042Y0035469D01*
X0017989Y0035076D01*
X0017283Y0035369D02*
X0010161Y0035369D01*
X0009463Y0036967D02*
X0015968Y0036967D01*
X0015941Y0038566D02*
X0011061Y0038566D01*
X0012100Y0040164D02*
X0016700Y0040164D01*
X0016888Y0041763D02*
X0007000Y0041763D01*
X0012100Y0043361D02*
X0016888Y0043361D01*
X0017500Y0044960D02*
X0011495Y0044960D01*
X0012828Y0046558D02*
X0025100Y0046558D01*
X0024193Y0044960D02*
X0023407Y0044960D01*
X0025100Y0048157D02*
X0013361Y0048157D01*
X0013700Y0049755D02*
X0024958Y0049755D01*
X0023359Y0051354D02*
X0013700Y0051354D01*
X0013700Y0052952D02*
X0018707Y0052952D01*
X0018282Y0054551D02*
X0013700Y0054551D01*
X0013700Y0056149D02*
X0018282Y0056149D01*
X0018282Y0057748D02*
X0013700Y0057748D01*
X0013700Y0059346D02*
X0017062Y0059346D01*
X0016701Y0060945D02*
X0013700Y0060945D01*
X0013700Y0062543D02*
X0016701Y0062543D01*
X0016701Y0064142D02*
X0013700Y0064142D01*
X0013700Y0065740D02*
X0016701Y0065740D01*
X0016701Y0067339D02*
X0013700Y0067339D01*
X0013700Y0068937D02*
X0018230Y0068937D01*
X0018282Y0070536D02*
X0013700Y0070536D01*
X0013700Y0072134D02*
X0018282Y0072134D01*
X0018282Y0073733D02*
X0013700Y0073733D01*
X0013700Y0075332D02*
X0022900Y0075332D01*
X0022900Y0076930D02*
X0013700Y0076930D01*
X0013700Y0078529D02*
X0022900Y0078529D01*
X0022900Y0080127D02*
X0013700Y0080127D01*
X0014530Y0081726D02*
X0022900Y0081726D01*
X0022900Y0083324D02*
X0020254Y0083324D01*
X0021700Y0084923D02*
X0021900Y0084923D01*
X0021900Y0086521D02*
X0021700Y0086521D01*
X0021700Y0088120D02*
X0021900Y0088120D01*
X0030254Y0083324D02*
X0033346Y0083324D01*
X0034770Y0081900D02*
X0031900Y0084770D01*
X0031900Y0088830D01*
X0032570Y0089500D01*
X0031030Y0089500D01*
X0031700Y0088830D01*
X0031700Y0084770D01*
X0028830Y0081900D01*
X0026300Y0081900D01*
X0026300Y0075043D01*
X0030498Y0075043D01*
X0031318Y0074222D01*
X0031318Y0069519D01*
X0030498Y0068699D01*
X0026390Y0068699D01*
X0026931Y0068158D01*
X0027350Y0067147D01*
X0027350Y0066053D01*
X0026931Y0065042D01*
X0026158Y0064269D01*
X0025147Y0063850D01*
X0024053Y0063850D01*
X0023450Y0064100D01*
X0023450Y0063800D01*
X0020076Y0063800D01*
X0020076Y0063800D01*
X0023450Y0063800D01*
X0023450Y0060217D01*
X0023328Y0059759D01*
X0023091Y0059348D01*
X0022756Y0059013D01*
X0022561Y0058901D01*
X0024199Y0058901D01*
X0024800Y0058300D01*
X0025401Y0058901D01*
X0030498Y0058901D01*
X0031318Y0058081D01*
X0031318Y0054486D01*
X0034454Y0051350D01*
X0035347Y0051350D01*
X0035500Y0051287D01*
X0035500Y0081900D01*
X0034770Y0081900D01*
X0035500Y0081726D02*
X0026300Y0081726D01*
X0026300Y0080127D02*
X0035500Y0080127D01*
X0035500Y0078529D02*
X0026300Y0078529D01*
X0026300Y0076930D02*
X0035500Y0076930D01*
X0035500Y0075332D02*
X0026300Y0075332D01*
X0031318Y0073733D02*
X0035500Y0073733D01*
X0035500Y0072134D02*
X0031318Y0072134D01*
X0031318Y0070536D02*
X0035500Y0070536D01*
X0035500Y0068937D02*
X0030736Y0068937D01*
X0027270Y0067339D02*
X0035500Y0067339D01*
X0035500Y0065740D02*
X0027221Y0065740D01*
X0025852Y0064142D02*
X0035500Y0064142D01*
X0035500Y0062543D02*
X0023450Y0062543D01*
X0023450Y0060945D02*
X0035500Y0060945D01*
X0035500Y0059346D02*
X0023089Y0059346D01*
X0020075Y0063800D02*
X0020075Y0063800D01*
X0031318Y0057748D02*
X0035500Y0057748D01*
X0035500Y0056149D02*
X0031318Y0056149D01*
X0031318Y0054551D02*
X0035500Y0054551D01*
X0035500Y0052952D02*
X0032852Y0052952D01*
X0034450Y0051354D02*
X0035500Y0051354D01*
X0038900Y0052112D02*
X0038900Y0062888D01*
X0041225Y0062888D01*
X0042500Y0061613D01*
X0042500Y0052112D01*
X0040984Y0052112D01*
X0040984Y0048331D01*
X0040616Y0048331D01*
X0040616Y0052112D01*
X0038900Y0052112D01*
X0038900Y0052952D02*
X0042500Y0052952D01*
X0042500Y0054551D02*
X0038900Y0054551D01*
X0038900Y0056149D02*
X0042500Y0056149D01*
X0042500Y0057748D02*
X0038900Y0057748D01*
X0038900Y0059346D02*
X0042500Y0059346D01*
X0042500Y0060945D02*
X0038900Y0060945D01*
X0038900Y0062543D02*
X0041570Y0062543D01*
X0045345Y0064142D02*
X0054100Y0064142D01*
X0054100Y0065740D02*
X0044168Y0065740D01*
X0044168Y0067339D02*
X0054100Y0067339D01*
X0053193Y0068937D02*
X0052993Y0068937D01*
X0052993Y0070536D02*
X0053193Y0070536D01*
X0053193Y0072134D02*
X0052993Y0072134D01*
X0052993Y0073475D02*
X0049493Y0073475D01*
X0049493Y0075975D01*
X0049583Y0076427D01*
X0049760Y0076853D01*
X0050016Y0077236D01*
X0050342Y0077562D01*
X0050725Y0077818D01*
X0051151Y0077994D01*
X0051603Y0078084D01*
X0052993Y0078084D01*
X0052993Y0073475D01*
X0052993Y0073733D02*
X0053193Y0073733D01*
X0053193Y0075332D02*
X0052993Y0075332D01*
X0052993Y0076930D02*
X0053193Y0076930D01*
X0054100Y0078529D02*
X0048500Y0078529D01*
X0048500Y0080127D02*
X0054100Y0080127D01*
X0054100Y0081726D02*
X0048500Y0081726D01*
X0050254Y0083324D02*
X0053346Y0083324D01*
X0051900Y0084923D02*
X0051700Y0084923D01*
X0051700Y0086521D02*
X0051900Y0086521D01*
X0051900Y0088120D02*
X0051700Y0088120D01*
X0043346Y0083324D02*
X0040254Y0083324D01*
X0038900Y0081970D02*
X0041700Y0084770D01*
X0041700Y0088830D01*
X0041030Y0089500D01*
X0042570Y0089500D01*
X0041900Y0088830D01*
X0041900Y0084770D01*
X0044770Y0081900D01*
X0045100Y0081900D01*
X0045100Y0074189D01*
X0044568Y0073658D01*
X0044568Y0075549D01*
X0044446Y0076007D01*
X0044209Y0076417D01*
X0043874Y0076752D01*
X0043463Y0076989D01*
X0043005Y0077112D01*
X0040984Y0077112D01*
X0040984Y0073331D01*
X0040616Y0073331D01*
X0040616Y0077112D01*
X0038900Y0077112D01*
X0038900Y0081970D01*
X0038900Y0081726D02*
X0045100Y0081726D01*
X0045100Y0080127D02*
X0038900Y0080127D01*
X0038900Y0078529D02*
X0045100Y0078529D01*
X0045100Y0076930D02*
X0043566Y0076930D01*
X0044568Y0075332D02*
X0045100Y0075332D01*
X0044644Y0073733D02*
X0044568Y0073733D01*
X0040984Y0073733D02*
X0040616Y0073733D01*
X0040616Y0072962D02*
X0040984Y0072962D01*
X0040984Y0070019D01*
X0040616Y0070019D01*
X0040616Y0072962D01*
X0040616Y0072134D02*
X0040984Y0072134D01*
X0040984Y0070536D02*
X0040616Y0070536D01*
X0044168Y0068937D02*
X0050716Y0068937D01*
X0049541Y0070536D02*
X0049170Y0070536D01*
X0048956Y0073733D02*
X0049493Y0073733D01*
X0049493Y0075332D02*
X0048500Y0075332D01*
X0048500Y0076930D02*
X0049811Y0076930D01*
X0040984Y0076930D02*
X0040616Y0076930D01*
X0040616Y0075332D02*
X0040984Y0075332D01*
X0041700Y0084923D02*
X0041900Y0084923D01*
X0041900Y0086521D02*
X0041700Y0086521D01*
X0041700Y0088120D02*
X0041900Y0088120D01*
X0031900Y0088120D02*
X0031700Y0088120D01*
X0031700Y0086521D02*
X0031900Y0086521D01*
X0031900Y0084923D02*
X0031700Y0084923D01*
X0046300Y0062543D02*
X0054100Y0062543D01*
X0054100Y0060945D02*
X0046300Y0060945D01*
X0046300Y0059346D02*
X0054100Y0059346D01*
X0053382Y0057748D02*
X0046300Y0057748D01*
X0046300Y0056149D02*
X0053050Y0056149D01*
X0053760Y0054551D02*
X0046300Y0054551D01*
X0040984Y0051354D02*
X0040616Y0051354D01*
X0040616Y0049755D02*
X0040984Y0049755D01*
X0014900Y0033770D02*
X0011700Y0033770D01*
X0011700Y0032172D02*
X0014900Y0032172D01*
X0014900Y0030573D02*
X0011700Y0030573D01*
X0010904Y0028975D02*
X0014900Y0028975D01*
X0014900Y0027376D02*
X0009306Y0027376D01*
X0009752Y0025778D02*
X0014900Y0025778D01*
X0014900Y0024179D02*
X0011350Y0024179D01*
X0011700Y0022581D02*
X0014900Y0022581D01*
X0014900Y0020982D02*
X0011700Y0020982D01*
X0011313Y0019384D02*
X0014900Y0019384D01*
X0014900Y0017785D02*
X0009715Y0017785D01*
X0014900Y0016187D02*
X0004100Y0016187D01*
X0004100Y0014588D02*
X0014900Y0014588D01*
X0014900Y0012990D02*
X0004100Y0012990D01*
X0006600Y0011391D02*
X0007000Y0011391D01*
X0007000Y0009793D02*
X0006600Y0009793D01*
X0006600Y0008194D02*
X0007000Y0008194D01*
X0009704Y0011391D02*
X0014461Y0011391D01*
X0012863Y0009793D02*
X0011303Y0009793D01*
X0004294Y0027376D02*
X0004100Y0027376D01*
X0114966Y0076930D02*
X0115236Y0076930D01*
X0120872Y0076930D02*
X0121142Y0076930D01*
X0127076Y0068937D02*
X0127488Y0068937D01*
D22*
X0130200Y0064800D02*
X0130200Y0073200D01*
X0123959Y0072784D02*
X0123959Y0072600D01*
X0123600Y0072600D01*
X0121200Y0070200D01*
X0121200Y0041400D01*
X0129800Y0052800D02*
X0130200Y0052800D01*
X0130200Y0020400D01*
X0130200Y0052800D02*
X0133800Y0052800D01*
X0137800Y0052800D01*
X0141800Y0052800D01*
X0130200Y0052800D02*
X0130200Y0056400D01*
X0129800Y0056800D01*
X0130200Y0056400D02*
X0130200Y0060600D01*
X0129800Y0060800D01*
X0130200Y0060600D02*
X0130200Y0064800D01*
X0129800Y0064800D01*
X0058200Y0028200D02*
X0058200Y0021600D01*
X0058800Y0021000D01*
X0058999Y0021000D01*
X0058999Y0020816D01*
X0052800Y0020400D02*
X0046200Y0020400D01*
X0046200Y0059400D01*
X0047400Y0059400D01*
X0046200Y0059400D02*
X0046200Y0069000D01*
X0044400Y0069000D01*
X0040800Y0072600D01*
X0040800Y0073146D01*
X0046200Y0069000D02*
X0052800Y0069000D01*
X0052800Y0073200D01*
X0044400Y0062400D02*
X0040800Y0066000D01*
X0040800Y0066454D01*
X0044400Y0062400D02*
X0044400Y0045600D01*
X0040800Y0042000D01*
X0040800Y0041454D01*
X0040800Y0035400D01*
X0040934Y0029800D02*
X0041400Y0029400D01*
X0041400Y0022200D01*
X0040934Y0021800D01*
X0041400Y0021600D01*
X0041400Y0020400D01*
X0046200Y0020400D01*
X0024000Y0033000D02*
X0024000Y0033600D01*
X0024000Y0033000D02*
X0021000Y0030000D01*
X0020454Y0029800D01*
X0018600Y0033000D02*
X0016800Y0033000D01*
X0016800Y0006800D01*
X0011400Y0011400D02*
X0011400Y0044400D01*
X0011100Y0044700D01*
X0013800Y0047400D01*
X0013800Y0057600D01*
X0019800Y0063600D01*
X0020076Y0063800D01*
X0020400Y0063600D01*
X0032400Y0063600D01*
X0022200Y0055200D02*
X0021650Y0055729D01*
X0022200Y0055200D02*
X0027000Y0050400D01*
X0027000Y0042000D01*
X0027146Y0041800D01*
X0027000Y0041400D01*
X0018600Y0033000D01*
X0018600Y0037800D02*
X0018600Y0039600D01*
X0020400Y0041400D01*
X0020454Y0041800D01*
X0011100Y0044700D02*
X0008400Y0042000D01*
X0007200Y0042000D01*
X0006800Y0041800D01*
X0040800Y0048146D02*
X0040800Y0048600D01*
X0041400Y0049200D01*
X0041400Y0054000D01*
X0011400Y0011400D02*
X0006800Y0006800D01*
M02*
