G75*
%MOIN*%
%OFA0B0*%
%FSLAX25Y25*%
%IPPOS*%
%LPD*%
%AMOC8*
5,1,8,0,0,1.08239X$1,22.5*
%
%ADD10OC8,0.07800*%
%ADD11R,0.05524X0.05524*%
%ADD12R,0.05131X0.04737*%
%ADD13R,0.04737X0.05131*%
%ADD14R,0.04737X0.04343*%
%ADD15R,0.03950X0.07493*%
%ADD16C,0.01320*%
%ADD17C,0.01277*%
%ADD18C,0.00880*%
D10*
X0006800Y0006800D03*
X0016800Y0006800D03*
X0026800Y0006800D03*
X0036800Y0006800D03*
X0046800Y0006800D03*
X0056800Y0006800D03*
X0066800Y0006800D03*
X0076800Y0006800D03*
X0086800Y0006800D03*
X0096800Y0006800D03*
X0106800Y0006800D03*
X0006800Y0021800D03*
X0006800Y0031800D03*
X0006800Y0041800D03*
X0006800Y0051800D03*
X0006800Y0061800D03*
X0006800Y0071800D03*
X0006800Y0086800D03*
X0016800Y0086800D03*
X0026800Y0086800D03*
X0036800Y0086800D03*
X0046800Y0086800D03*
X0056800Y0086800D03*
X0066800Y0086800D03*
X0076800Y0086800D03*
X0086800Y0086800D03*
X0096800Y0086800D03*
X0106800Y0086800D03*
X0116800Y0086800D03*
D11*
X0040934Y0029800D03*
X0032666Y0029800D03*
X0032666Y0021800D03*
X0040934Y0021800D03*
D12*
X0027146Y0021800D03*
X0020454Y0021800D03*
X0020454Y0029800D03*
X0027146Y0029800D03*
X0027146Y0041800D03*
X0020454Y0041800D03*
D13*
X0040800Y0041454D03*
X0040800Y0048146D03*
X0040800Y0066454D03*
X0040800Y0073146D03*
D14*
X0027950Y0071871D03*
X0021650Y0071871D03*
X0021650Y0055729D03*
X0027950Y0055729D03*
D15*
X0020076Y0063800D03*
D16*
X0054633Y0070726D02*
X0054633Y0076024D01*
X0054633Y0070726D02*
X0051553Y0070726D01*
X0051553Y0076024D01*
X0054633Y0076024D01*
X0054633Y0072045D02*
X0051553Y0072045D01*
X0051553Y0073364D02*
X0054633Y0073364D01*
X0054633Y0074683D02*
X0051553Y0074683D01*
X0051553Y0076002D02*
X0054633Y0076002D01*
X0060539Y0076024D02*
X0060539Y0069544D01*
X0057459Y0069544D01*
X0057459Y0076024D01*
X0060539Y0076024D01*
X0060539Y0070863D02*
X0057459Y0070863D01*
X0057459Y0072182D02*
X0060539Y0072182D01*
X0060539Y0073501D02*
X0057459Y0073501D01*
X0057459Y0074820D02*
X0060539Y0074820D01*
X0066444Y0076024D02*
X0066444Y0069544D01*
X0063364Y0069544D01*
X0063364Y0076024D01*
X0066444Y0076024D01*
X0066444Y0070863D02*
X0063364Y0070863D01*
X0063364Y0072182D02*
X0066444Y0072182D01*
X0066444Y0073501D02*
X0063364Y0073501D01*
X0063364Y0074820D02*
X0066444Y0074820D01*
X0072350Y0076024D02*
X0072350Y0069544D01*
X0069270Y0069544D01*
X0069270Y0076024D01*
X0072350Y0076024D01*
X0072350Y0070863D02*
X0069270Y0070863D01*
X0069270Y0072182D02*
X0072350Y0072182D01*
X0072350Y0073501D02*
X0069270Y0073501D01*
X0069270Y0074820D02*
X0072350Y0074820D01*
X0078255Y0076024D02*
X0078255Y0069544D01*
X0075175Y0069544D01*
X0075175Y0076024D01*
X0078255Y0076024D01*
X0078255Y0070863D02*
X0075175Y0070863D01*
X0075175Y0072182D02*
X0078255Y0072182D01*
X0078255Y0073501D02*
X0075175Y0073501D01*
X0075175Y0074820D02*
X0078255Y0074820D01*
X0090066Y0076024D02*
X0090066Y0069544D01*
X0086986Y0069544D01*
X0086986Y0076024D01*
X0090066Y0076024D01*
X0090066Y0070863D02*
X0086986Y0070863D01*
X0086986Y0072182D02*
X0090066Y0072182D01*
X0090066Y0073501D02*
X0086986Y0073501D01*
X0086986Y0074820D02*
X0090066Y0074820D01*
X0095972Y0076024D02*
X0095972Y0069544D01*
X0092892Y0069544D01*
X0092892Y0076024D01*
X0095972Y0076024D01*
X0095972Y0070863D02*
X0092892Y0070863D01*
X0092892Y0072182D02*
X0095972Y0072182D01*
X0095972Y0073501D02*
X0092892Y0073501D01*
X0092892Y0074820D02*
X0095972Y0074820D01*
X0101877Y0076024D02*
X0101877Y0069544D01*
X0098797Y0069544D01*
X0098797Y0076024D01*
X0101877Y0076024D01*
X0101877Y0070863D02*
X0098797Y0070863D01*
X0098797Y0072182D02*
X0101877Y0072182D01*
X0101877Y0073501D02*
X0098797Y0073501D01*
X0098797Y0074820D02*
X0101877Y0074820D01*
X0107783Y0076024D02*
X0107783Y0069544D01*
X0104703Y0069544D01*
X0104703Y0076024D01*
X0107783Y0076024D01*
X0107783Y0070863D02*
X0104703Y0070863D01*
X0104703Y0072182D02*
X0107783Y0072182D01*
X0107783Y0073501D02*
X0104703Y0073501D01*
X0104703Y0074820D02*
X0107783Y0074820D01*
X0113688Y0076024D02*
X0113688Y0069544D01*
X0110608Y0069544D01*
X0110608Y0076024D01*
X0113688Y0076024D01*
X0113688Y0070863D02*
X0110608Y0070863D01*
X0110608Y0072182D02*
X0113688Y0072182D01*
X0113688Y0073501D02*
X0110608Y0073501D01*
X0110608Y0074820D02*
X0113688Y0074820D01*
X0119594Y0076024D02*
X0119594Y0069544D01*
X0116514Y0069544D01*
X0116514Y0076024D01*
X0119594Y0076024D01*
X0119594Y0070863D02*
X0116514Y0070863D01*
X0116514Y0072182D02*
X0119594Y0072182D01*
X0119594Y0073501D02*
X0116514Y0073501D01*
X0116514Y0074820D02*
X0119594Y0074820D01*
X0125499Y0076024D02*
X0125499Y0069544D01*
X0122419Y0069544D01*
X0122419Y0076024D01*
X0125499Y0076024D01*
X0125499Y0070863D02*
X0122419Y0070863D01*
X0122419Y0072182D02*
X0125499Y0072182D01*
X0125499Y0073501D02*
X0122419Y0073501D01*
X0122419Y0074820D02*
X0125499Y0074820D01*
X0131405Y0076024D02*
X0131405Y0070726D01*
X0128325Y0070726D01*
X0128325Y0076024D01*
X0131405Y0076024D01*
X0131405Y0072045D02*
X0128325Y0072045D01*
X0128325Y0073364D02*
X0131405Y0073364D01*
X0131405Y0074683D02*
X0128325Y0074683D01*
X0128325Y0076002D02*
X0131405Y0076002D01*
X0145719Y0045260D02*
X0149443Y0045260D01*
X0145719Y0045260D02*
X0145719Y0048340D01*
X0149443Y0048340D01*
X0149443Y0045260D01*
X0149443Y0046579D02*
X0145719Y0046579D01*
X0145719Y0047898D02*
X0149443Y0047898D01*
X0131405Y0022874D02*
X0131405Y0017576D01*
X0128325Y0017576D01*
X0128325Y0022874D01*
X0131405Y0022874D01*
X0131405Y0018895D02*
X0128325Y0018895D01*
X0128325Y0020214D02*
X0131405Y0020214D01*
X0131405Y0021533D02*
X0128325Y0021533D01*
X0128325Y0022852D02*
X0131405Y0022852D01*
X0125499Y0024056D02*
X0125499Y0017576D01*
X0122419Y0017576D01*
X0122419Y0024056D01*
X0125499Y0024056D01*
X0125499Y0018895D02*
X0122419Y0018895D01*
X0122419Y0020214D02*
X0125499Y0020214D01*
X0125499Y0021533D02*
X0122419Y0021533D01*
X0122419Y0022852D02*
X0125499Y0022852D01*
X0119594Y0024056D02*
X0119594Y0017576D01*
X0116514Y0017576D01*
X0116514Y0024056D01*
X0119594Y0024056D01*
X0119594Y0018895D02*
X0116514Y0018895D01*
X0116514Y0020214D02*
X0119594Y0020214D01*
X0119594Y0021533D02*
X0116514Y0021533D01*
X0116514Y0022852D02*
X0119594Y0022852D01*
X0113688Y0024056D02*
X0113688Y0017576D01*
X0110608Y0017576D01*
X0110608Y0024056D01*
X0113688Y0024056D01*
X0113688Y0018895D02*
X0110608Y0018895D01*
X0110608Y0020214D02*
X0113688Y0020214D01*
X0113688Y0021533D02*
X0110608Y0021533D01*
X0110608Y0022852D02*
X0113688Y0022852D01*
X0107783Y0024056D02*
X0107783Y0017576D01*
X0104703Y0017576D01*
X0104703Y0024056D01*
X0107783Y0024056D01*
X0107783Y0018895D02*
X0104703Y0018895D01*
X0104703Y0020214D02*
X0107783Y0020214D01*
X0107783Y0021533D02*
X0104703Y0021533D01*
X0104703Y0022852D02*
X0107783Y0022852D01*
X0101877Y0024056D02*
X0101877Y0017576D01*
X0098797Y0017576D01*
X0098797Y0024056D01*
X0101877Y0024056D01*
X0101877Y0018895D02*
X0098797Y0018895D01*
X0098797Y0020214D02*
X0101877Y0020214D01*
X0101877Y0021533D02*
X0098797Y0021533D01*
X0098797Y0022852D02*
X0101877Y0022852D01*
X0095972Y0024056D02*
X0095972Y0017576D01*
X0092892Y0017576D01*
X0092892Y0024056D01*
X0095972Y0024056D01*
X0095972Y0018895D02*
X0092892Y0018895D01*
X0092892Y0020214D02*
X0095972Y0020214D01*
X0095972Y0021533D02*
X0092892Y0021533D01*
X0092892Y0022852D02*
X0095972Y0022852D01*
X0090066Y0024056D02*
X0090066Y0017576D01*
X0086986Y0017576D01*
X0086986Y0024056D01*
X0090066Y0024056D01*
X0090066Y0018895D02*
X0086986Y0018895D01*
X0086986Y0020214D02*
X0090066Y0020214D01*
X0090066Y0021533D02*
X0086986Y0021533D01*
X0086986Y0022852D02*
X0090066Y0022852D01*
X0084161Y0024056D02*
X0084161Y0017576D01*
X0081081Y0017576D01*
X0081081Y0024056D01*
X0084161Y0024056D01*
X0084161Y0018895D02*
X0081081Y0018895D01*
X0081081Y0020214D02*
X0084161Y0020214D01*
X0084161Y0021533D02*
X0081081Y0021533D01*
X0081081Y0022852D02*
X0084161Y0022852D01*
X0078255Y0024056D02*
X0078255Y0017576D01*
X0075175Y0017576D01*
X0075175Y0024056D01*
X0078255Y0024056D01*
X0078255Y0018895D02*
X0075175Y0018895D01*
X0075175Y0020214D02*
X0078255Y0020214D01*
X0078255Y0021533D02*
X0075175Y0021533D01*
X0075175Y0022852D02*
X0078255Y0022852D01*
X0072350Y0024056D02*
X0072350Y0017576D01*
X0069270Y0017576D01*
X0069270Y0024056D01*
X0072350Y0024056D01*
X0072350Y0018895D02*
X0069270Y0018895D01*
X0069270Y0020214D02*
X0072350Y0020214D01*
X0072350Y0021533D02*
X0069270Y0021533D01*
X0069270Y0022852D02*
X0072350Y0022852D01*
X0066444Y0024056D02*
X0066444Y0017576D01*
X0063364Y0017576D01*
X0063364Y0024056D01*
X0066444Y0024056D01*
X0066444Y0018895D02*
X0063364Y0018895D01*
X0063364Y0020214D02*
X0066444Y0020214D01*
X0066444Y0021533D02*
X0063364Y0021533D01*
X0063364Y0022852D02*
X0066444Y0022852D01*
X0060539Y0024056D02*
X0060539Y0017576D01*
X0057459Y0017576D01*
X0057459Y0024056D01*
X0060539Y0024056D01*
X0060539Y0018895D02*
X0057459Y0018895D01*
X0057459Y0020214D02*
X0060539Y0020214D01*
X0060539Y0021533D02*
X0057459Y0021533D01*
X0057459Y0022852D02*
X0060539Y0022852D01*
X0054633Y0022874D02*
X0054633Y0017576D01*
X0051553Y0017576D01*
X0051553Y0022874D01*
X0054633Y0022874D01*
X0054633Y0018895D02*
X0051553Y0018895D01*
X0051553Y0020214D02*
X0054633Y0020214D01*
X0054633Y0021533D02*
X0051553Y0021533D01*
X0051553Y0022852D02*
X0054633Y0022852D01*
D17*
X0146485Y0039332D02*
X0149465Y0039332D01*
X0146485Y0039332D02*
X0146485Y0042456D01*
X0149465Y0042456D01*
X0149465Y0039332D01*
X0149465Y0040608D02*
X0146485Y0040608D01*
X0146485Y0041884D02*
X0149465Y0041884D01*
X0149465Y0051144D02*
X0146485Y0051144D01*
X0146485Y0054268D01*
X0149465Y0054268D01*
X0149465Y0051144D01*
X0149465Y0052420D02*
X0146485Y0052420D01*
X0146485Y0053696D02*
X0149465Y0053696D01*
D18*
X0084381Y0069324D02*
X0084381Y0076244D01*
X0084381Y0069324D02*
X0080861Y0069324D01*
X0080861Y0076244D01*
X0084381Y0076244D01*
X0084381Y0070203D02*
X0080861Y0070203D01*
X0080861Y0071082D02*
X0084381Y0071082D01*
X0084381Y0071961D02*
X0080861Y0071961D01*
X0080861Y0072840D02*
X0084381Y0072840D01*
X0084381Y0073719D02*
X0080861Y0073719D01*
X0080861Y0074598D02*
X0084381Y0074598D01*
X0084381Y0075477D02*
X0080861Y0075477D01*
M02*
