G75*
%MOIN*%
%OFA0B0*%
%FSLAX25Y25*%
%IPPOS*%
%LPD*%
%AMOC8*
5,1,8,0,0,1.08239X$1,22.5*
%
%ADD10C,0.00000*%
%ADD11C,0.00400*%
%ADD12C,0.00300*%
%ADD13C,0.00500*%
%ADD14C,0.00600*%
%ADD15R,0.04000X0.03000*%
%ADD16R,0.04000X0.00200*%
%ADD17R,0.00200X0.02800*%
%ADD18C,0.00250*%
D10*
X0001800Y0001800D02*
X0001800Y0091800D01*
X0151800Y0091800D01*
X0151800Y0001800D01*
X0001800Y0001800D01*
D11*
X0013665Y0018652D02*
X0013278Y0019039D01*
X0013278Y0019813D01*
X0013665Y0020200D01*
X0014052Y0020200D01*
X0014439Y0019813D01*
X0014439Y0019039D01*
X0014826Y0018652D01*
X0015213Y0018652D01*
X0015600Y0019039D01*
X0015600Y0019813D01*
X0015213Y0020200D01*
X0015600Y0021931D02*
X0013278Y0021931D01*
X0013278Y0022705D02*
X0013278Y0021157D01*
X0013665Y0023661D02*
X0013278Y0024048D01*
X0013278Y0024822D01*
X0013665Y0025209D01*
X0015213Y0025209D01*
X0015600Y0024822D01*
X0015600Y0024048D01*
X0015213Y0023661D01*
X0015213Y0028670D02*
X0015600Y0029057D01*
X0015600Y0029831D01*
X0015213Y0030218D01*
X0014826Y0031175D02*
X0013278Y0031175D01*
X0013665Y0030218D02*
X0013278Y0029831D01*
X0013278Y0029057D01*
X0013665Y0028670D01*
X0014052Y0028670D01*
X0014439Y0029057D01*
X0014826Y0028670D01*
X0015213Y0028670D01*
X0014439Y0029057D02*
X0014439Y0029444D01*
X0014826Y0031175D02*
X0015600Y0031949D01*
X0014826Y0032723D01*
X0013278Y0032723D01*
X0013665Y0033679D02*
X0014052Y0033679D01*
X0014439Y0034066D01*
X0014826Y0033679D01*
X0015213Y0033679D01*
X0015600Y0034066D01*
X0015600Y0034840D01*
X0015213Y0035227D01*
X0014439Y0034453D02*
X0014439Y0034066D01*
X0013665Y0033679D02*
X0013278Y0034066D01*
X0013278Y0034840D01*
X0013665Y0035227D01*
X0013665Y0038688D02*
X0013278Y0039075D01*
X0013278Y0040236D01*
X0015600Y0040236D01*
X0015600Y0039075D01*
X0015213Y0038688D01*
X0013665Y0038688D01*
X0013278Y0041193D02*
X0015600Y0041193D01*
X0013278Y0042741D01*
X0015600Y0042741D01*
X0015213Y0043698D02*
X0014439Y0043698D01*
X0014439Y0044472D01*
X0013665Y0045246D02*
X0015213Y0045246D01*
X0015600Y0044859D01*
X0015600Y0044085D01*
X0015213Y0043698D01*
X0013665Y0043698D02*
X0013278Y0044085D01*
X0013278Y0044859D01*
X0013665Y0045246D01*
X0013665Y0048707D02*
X0013278Y0049094D01*
X0013278Y0050255D01*
X0015600Y0050255D01*
X0015600Y0049094D01*
X0015213Y0048707D01*
X0013665Y0048707D01*
X0013278Y0051211D02*
X0015600Y0052759D01*
X0015600Y0051211D02*
X0013278Y0052759D01*
X0013278Y0053716D02*
X0013278Y0055264D01*
X0013278Y0054490D02*
X0015600Y0054490D01*
X0015213Y0058725D02*
X0013665Y0058725D01*
X0013278Y0059112D01*
X0013278Y0060273D01*
X0015600Y0060273D01*
X0015600Y0059112D01*
X0015213Y0058725D01*
X0015600Y0061229D02*
X0013278Y0062777D01*
X0013665Y0063734D02*
X0014439Y0063734D01*
X0014826Y0064121D01*
X0014826Y0065282D01*
X0015600Y0065282D02*
X0013278Y0065282D01*
X0013278Y0064121D01*
X0013665Y0063734D01*
X0014826Y0064508D02*
X0015600Y0063734D01*
X0015600Y0062777D02*
X0013278Y0061229D01*
X0013665Y0068743D02*
X0013278Y0069130D01*
X0013278Y0069904D01*
X0013665Y0070291D01*
X0014052Y0070291D01*
X0014439Y0069904D01*
X0014439Y0069130D01*
X0014826Y0068743D01*
X0015213Y0068743D01*
X0015600Y0069130D01*
X0015600Y0069904D01*
X0015213Y0070291D01*
X0013278Y0071247D02*
X0013278Y0072795D01*
X0013278Y0072021D02*
X0015600Y0072021D01*
X0015600Y0073752D02*
X0014826Y0074526D01*
X0014826Y0074139D02*
X0014826Y0075300D01*
X0015600Y0075300D02*
X0013278Y0075300D01*
X0013278Y0074139D01*
X0013665Y0073752D01*
X0014439Y0073752D01*
X0014826Y0074139D01*
X0031000Y0034857D02*
X0031774Y0034083D01*
X0031774Y0034470D02*
X0031774Y0033309D01*
X0031000Y0033309D02*
X0033322Y0033309D01*
X0033322Y0034470D01*
X0032935Y0034857D01*
X0032161Y0034857D01*
X0031774Y0034470D01*
X0031000Y0032353D02*
X0033322Y0032353D01*
X0033322Y0030805D02*
X0031000Y0030805D01*
X0031774Y0031579D01*
X0031000Y0032353D01*
X0032161Y0029848D02*
X0031774Y0029461D01*
X0031774Y0028300D01*
X0031000Y0028300D02*
X0033322Y0028300D01*
X0033322Y0029461D01*
X0032935Y0029848D01*
X0032161Y0029848D01*
X0032161Y0025527D02*
X0031387Y0025527D01*
X0031000Y0025140D01*
X0031000Y0024366D01*
X0031387Y0023979D01*
X0032161Y0023979D02*
X0032548Y0024753D01*
X0032548Y0025140D01*
X0032161Y0025527D01*
X0033322Y0025527D02*
X0033322Y0023979D01*
X0032161Y0023979D01*
X0031387Y0023022D02*
X0032935Y0023022D01*
X0033322Y0022635D01*
X0033322Y0021861D01*
X0032935Y0021474D01*
X0031387Y0021474D01*
X0031000Y0021861D01*
X0031000Y0022635D01*
X0031387Y0023022D01*
X0031000Y0020579D02*
X0031000Y0019805D01*
X0031000Y0020192D02*
X0033322Y0020192D01*
X0033322Y0019805D02*
X0033322Y0020579D01*
X0032935Y0018848D02*
X0032161Y0018848D01*
X0031774Y0018461D01*
X0031774Y0017300D01*
X0031000Y0017300D02*
X0033322Y0017300D01*
X0033322Y0018461D01*
X0032935Y0018848D01*
D12*
X0117330Y0067450D02*
X0117330Y0069302D01*
X0117947Y0069919D01*
X0118564Y0069302D01*
X0118564Y0067450D01*
X0119799Y0067450D02*
X0119799Y0069919D01*
X0119182Y0069919D01*
X0118564Y0069302D01*
X0121013Y0069302D02*
X0121013Y0068067D01*
X0121630Y0067450D01*
X0122865Y0067450D01*
X0123482Y0068067D01*
X0123482Y0069302D01*
X0122865Y0069919D01*
X0121630Y0069919D01*
X0121013Y0069302D01*
X0124696Y0069919D02*
X0126548Y0069919D01*
X0127165Y0069302D01*
X0127165Y0068067D01*
X0126548Y0067450D01*
X0124696Y0067450D01*
X0128389Y0067450D02*
X0129007Y0067450D01*
X0129007Y0068067D01*
X0128389Y0068067D01*
X0128389Y0067450D01*
X0130221Y0067450D02*
X0132073Y0067450D01*
X0132690Y0068067D01*
X0132690Y0069919D01*
X0133904Y0069302D02*
X0133904Y0068684D01*
X0136373Y0068684D01*
X0136373Y0068067D02*
X0136373Y0069302D01*
X0135756Y0069919D01*
X0134521Y0069919D01*
X0133904Y0069302D01*
X0134521Y0067450D02*
X0135756Y0067450D01*
X0136373Y0068067D01*
X0137587Y0067450D02*
X0137587Y0069302D01*
X0138204Y0069919D01*
X0140056Y0069919D01*
X0140056Y0067450D01*
X0141277Y0067450D02*
X0141894Y0068067D01*
X0141894Y0070536D01*
X0142511Y0069919D02*
X0141277Y0069919D01*
X0143726Y0069302D02*
X0143726Y0068684D01*
X0146195Y0068684D01*
X0146195Y0068067D02*
X0146195Y0069302D01*
X0145577Y0069919D01*
X0144343Y0069919D01*
X0143726Y0069302D01*
X0144343Y0067450D02*
X0145577Y0067450D01*
X0146195Y0068067D01*
X0147416Y0066833D02*
X0147416Y0069919D01*
X0147416Y0071153D02*
X0147416Y0071770D01*
X0148650Y0072450D02*
X0147416Y0073684D01*
X0146181Y0072450D01*
X0146181Y0076153D01*
X0144967Y0076153D02*
X0142498Y0076153D01*
X0143732Y0076153D02*
X0143732Y0072450D01*
X0141284Y0072450D02*
X0138815Y0072450D01*
X0137601Y0072450D02*
X0135132Y0074919D01*
X0135132Y0075536D01*
X0135749Y0076153D01*
X0136983Y0076153D01*
X0137601Y0075536D01*
X0140049Y0076153D02*
X0140049Y0072450D01*
X0137601Y0072450D02*
X0135132Y0072450D01*
X0130234Y0072450D02*
X0128383Y0072450D01*
X0127766Y0073067D01*
X0127766Y0073684D01*
X0128383Y0074302D01*
X0130234Y0074302D01*
X0128383Y0074302D02*
X0127766Y0074919D01*
X0127766Y0075536D01*
X0128383Y0076153D01*
X0130234Y0076153D01*
X0130234Y0072450D01*
X0130221Y0069919D02*
X0130221Y0066833D01*
X0130838Y0066216D01*
X0131455Y0066216D01*
X0126551Y0072450D02*
X0124700Y0072450D01*
X0124082Y0073067D01*
X0124082Y0073684D01*
X0124700Y0074302D01*
X0126551Y0074302D01*
X0124700Y0074302D02*
X0124082Y0074919D01*
X0124082Y0075536D01*
X0124700Y0076153D01*
X0126551Y0076153D01*
X0126551Y0072450D01*
X0119185Y0074919D02*
X0117950Y0072450D01*
X0116716Y0074919D01*
X0115502Y0075536D02*
X0114885Y0076153D01*
X0113650Y0076153D01*
X0113033Y0075536D01*
X0113033Y0074919D01*
X0113650Y0074302D01*
X0113033Y0073684D01*
X0113033Y0073067D01*
X0113650Y0072450D01*
X0114885Y0072450D01*
X0115502Y0073067D01*
X0114267Y0074302D02*
X0113650Y0074302D01*
X0111819Y0073067D02*
X0111819Y0072450D01*
X0111201Y0072450D01*
X0111201Y0073067D01*
X0111819Y0073067D01*
X0109977Y0073067D02*
X0109360Y0072450D01*
X0108125Y0072450D01*
X0107508Y0073067D01*
X0107508Y0075536D01*
X0109977Y0073067D01*
X0109977Y0075536D01*
X0109360Y0076153D01*
X0108125Y0076153D01*
X0107508Y0075536D01*
X0140049Y0076153D02*
X0141284Y0074919D01*
X0148650Y0076153D02*
X0148650Y0072450D01*
X0147416Y0066833D02*
X0148033Y0066216D01*
X0148650Y0066216D01*
D13*
X0012300Y0068800D02*
X0012300Y0075300D01*
X0012300Y0025300D02*
X0012300Y0018800D01*
D14*
X0034469Y0017847D02*
X0034469Y0023753D01*
X0034469Y0023752D02*
X0034477Y0023815D01*
X0034488Y0023877D01*
X0034503Y0023939D01*
X0034521Y0023999D01*
X0034543Y0024059D01*
X0034568Y0024117D01*
X0034597Y0024173D01*
X0034629Y0024228D01*
X0034664Y0024280D01*
X0034702Y0024331D01*
X0034742Y0024379D01*
X0034786Y0024425D01*
X0034832Y0024468D01*
X0034881Y0024509D01*
X0034932Y0024547D01*
X0034984Y0024581D01*
X0035039Y0024613D01*
X0035096Y0024641D01*
X0035154Y0024666D01*
X0035214Y0024687D01*
X0035274Y0024705D01*
X0035336Y0024719D01*
X0035398Y0024730D01*
X0035461Y0024737D01*
X0035524Y0024741D01*
X0035587Y0024740D01*
X0035650Y0024737D01*
X0041950Y0024737D01*
X0042013Y0024740D01*
X0042076Y0024741D01*
X0042139Y0024737D01*
X0042202Y0024730D01*
X0042264Y0024719D01*
X0042326Y0024705D01*
X0042386Y0024687D01*
X0042446Y0024666D01*
X0042504Y0024641D01*
X0042561Y0024613D01*
X0042616Y0024581D01*
X0042668Y0024547D01*
X0042719Y0024509D01*
X0042768Y0024468D01*
X0042814Y0024425D01*
X0042858Y0024379D01*
X0042898Y0024331D01*
X0042936Y0024280D01*
X0042971Y0024228D01*
X0043003Y0024173D01*
X0043032Y0024117D01*
X0043057Y0024059D01*
X0043079Y0023999D01*
X0043097Y0023939D01*
X0043112Y0023877D01*
X0043123Y0023815D01*
X0043131Y0023752D01*
X0043131Y0023753D02*
X0043131Y0017847D01*
X0043123Y0017784D01*
X0043112Y0017722D01*
X0043097Y0017660D01*
X0043079Y0017600D01*
X0043057Y0017540D01*
X0043032Y0017482D01*
X0043003Y0017426D01*
X0042972Y0017371D01*
X0042937Y0017318D01*
X0042899Y0017268D01*
X0042858Y0017219D01*
X0042814Y0017174D01*
X0042768Y0017130D01*
X0042720Y0017090D01*
X0042669Y0017052D01*
X0042616Y0017018D01*
X0042561Y0016986D01*
X0042504Y0016958D01*
X0042446Y0016933D01*
X0042387Y0016912D01*
X0042326Y0016894D01*
X0042264Y0016880D01*
X0042202Y0016869D01*
X0042139Y0016862D01*
X0042076Y0016858D01*
X0042013Y0016859D01*
X0041950Y0016863D01*
X0035650Y0016863D01*
X0035587Y0016860D01*
X0035524Y0016859D01*
X0035461Y0016863D01*
X0035398Y0016870D01*
X0035336Y0016881D01*
X0035274Y0016895D01*
X0035214Y0016913D01*
X0035154Y0016934D01*
X0035096Y0016959D01*
X0035039Y0016987D01*
X0034984Y0017019D01*
X0034932Y0017053D01*
X0034881Y0017091D01*
X0034832Y0017132D01*
X0034786Y0017175D01*
X0034742Y0017221D01*
X0034702Y0017269D01*
X0034664Y0017320D01*
X0034629Y0017372D01*
X0034597Y0017427D01*
X0034568Y0017483D01*
X0034543Y0017541D01*
X0034521Y0017601D01*
X0034503Y0017661D01*
X0034488Y0017723D01*
X0034477Y0017785D01*
X0034469Y0017848D01*
X0035650Y0026863D02*
X0041950Y0026863D01*
X0042013Y0026859D01*
X0042076Y0026858D01*
X0042139Y0026862D01*
X0042202Y0026869D01*
X0042264Y0026880D01*
X0042326Y0026894D01*
X0042387Y0026912D01*
X0042446Y0026933D01*
X0042504Y0026958D01*
X0042561Y0026986D01*
X0042616Y0027018D01*
X0042669Y0027052D01*
X0042720Y0027090D01*
X0042768Y0027130D01*
X0042814Y0027174D01*
X0042858Y0027219D01*
X0042899Y0027268D01*
X0042937Y0027318D01*
X0042972Y0027371D01*
X0043003Y0027426D01*
X0043032Y0027482D01*
X0043057Y0027540D01*
X0043079Y0027600D01*
X0043097Y0027660D01*
X0043112Y0027722D01*
X0043123Y0027784D01*
X0043131Y0027847D01*
X0043131Y0033753D01*
X0043131Y0033752D02*
X0043123Y0033815D01*
X0043112Y0033877D01*
X0043097Y0033939D01*
X0043079Y0033999D01*
X0043057Y0034059D01*
X0043032Y0034117D01*
X0043003Y0034173D01*
X0042971Y0034228D01*
X0042936Y0034280D01*
X0042898Y0034331D01*
X0042858Y0034379D01*
X0042814Y0034425D01*
X0042768Y0034468D01*
X0042719Y0034509D01*
X0042668Y0034547D01*
X0042616Y0034581D01*
X0042561Y0034613D01*
X0042504Y0034641D01*
X0042446Y0034666D01*
X0042386Y0034687D01*
X0042326Y0034705D01*
X0042264Y0034719D01*
X0042202Y0034730D01*
X0042139Y0034737D01*
X0042076Y0034741D01*
X0042013Y0034740D01*
X0041950Y0034737D01*
X0035650Y0034737D01*
X0035587Y0034740D01*
X0035524Y0034741D01*
X0035461Y0034737D01*
X0035398Y0034730D01*
X0035336Y0034719D01*
X0035274Y0034705D01*
X0035214Y0034687D01*
X0035154Y0034666D01*
X0035096Y0034641D01*
X0035039Y0034613D01*
X0034984Y0034581D01*
X0034932Y0034547D01*
X0034881Y0034509D01*
X0034832Y0034468D01*
X0034786Y0034425D01*
X0034742Y0034379D01*
X0034702Y0034331D01*
X0034664Y0034280D01*
X0034629Y0034228D01*
X0034597Y0034173D01*
X0034568Y0034117D01*
X0034543Y0034059D01*
X0034521Y0033999D01*
X0034503Y0033939D01*
X0034488Y0033877D01*
X0034477Y0033815D01*
X0034469Y0033752D01*
X0034469Y0033753D02*
X0034469Y0027847D01*
X0034469Y0027848D02*
X0034477Y0027785D01*
X0034488Y0027723D01*
X0034503Y0027661D01*
X0034521Y0027601D01*
X0034543Y0027541D01*
X0034568Y0027483D01*
X0034597Y0027427D01*
X0034629Y0027372D01*
X0034664Y0027320D01*
X0034702Y0027269D01*
X0034742Y0027221D01*
X0034786Y0027175D01*
X0034832Y0027132D01*
X0034881Y0027091D01*
X0034932Y0027053D01*
X0034984Y0027019D01*
X0035039Y0026987D01*
X0035096Y0026959D01*
X0035154Y0026934D01*
X0035214Y0026913D01*
X0035274Y0026895D01*
X0035336Y0026881D01*
X0035398Y0026870D01*
X0035461Y0026863D01*
X0035524Y0026859D01*
X0035587Y0026860D01*
X0035650Y0026863D01*
X0130800Y0078400D02*
X0131500Y0077800D01*
X0132300Y0078400D01*
X0132700Y0078200D01*
X0133300Y0079800D01*
X0132800Y0079700D02*
X0132200Y0080700D01*
X0132600Y0081800D01*
X0133700Y0082400D01*
X0135000Y0082000D01*
X0135400Y0080700D01*
X0135000Y0079600D01*
X0135300Y0078600D01*
X0136200Y0078100D01*
X0136700Y0078400D01*
X0136100Y0079400D01*
X0136600Y0080500D01*
X0137600Y0080700D01*
X0137600Y0081000D01*
X0136600Y0081400D01*
X0136200Y0082500D01*
X0136700Y0083400D01*
X0136300Y0083700D01*
X0135500Y0083100D01*
X0134400Y0083700D01*
X0134100Y0084600D01*
X0133600Y0084600D01*
X0133300Y0083500D01*
X0132400Y0083100D01*
X0131600Y0083700D01*
X0131100Y0083300D01*
X0131600Y0082500D01*
X0131100Y0081300D01*
X0130300Y0081100D01*
X0130200Y0080600D01*
X0131100Y0080400D01*
X0131600Y0079300D01*
X0131200Y0078500D01*
X0131600Y0078200D01*
X0132500Y0078700D01*
X0132800Y0079700D01*
X0132772Y0079606D02*
X0131461Y0079606D01*
X0131400Y0079300D02*
X0130800Y0078400D01*
X0131321Y0078409D02*
X0131977Y0078409D01*
X0131454Y0079008D02*
X0132592Y0079008D01*
X0131400Y0079300D02*
X0131000Y0080200D01*
X0130000Y0080400D01*
X0130000Y0081300D01*
X0131000Y0081500D01*
X0131400Y0082400D01*
X0130800Y0083300D01*
X0131500Y0084000D01*
X0132400Y0083300D01*
X0133200Y0083700D01*
X0133400Y0084800D01*
X0134300Y0084800D01*
X0134600Y0083700D01*
X0135400Y0083300D01*
X0136300Y0084000D01*
X0137000Y0083300D01*
X0136400Y0082400D01*
X0136700Y0081500D01*
X0137800Y0081300D01*
X0137800Y0080400D01*
X0136800Y0080200D01*
X0136400Y0079300D01*
X0137000Y0078400D01*
X0136300Y0077800D01*
X0135500Y0078400D01*
X0135100Y0078200D01*
X0134500Y0079800D01*
X0135002Y0079606D02*
X0136194Y0079606D01*
X0136335Y0079008D02*
X0135178Y0079008D01*
X0135643Y0078409D02*
X0136694Y0078409D01*
X0136466Y0080205D02*
X0135220Y0080205D01*
X0135368Y0080803D02*
X0137600Y0080803D01*
X0136599Y0081402D02*
X0135184Y0081402D01*
X0134998Y0082001D02*
X0136382Y0082001D01*
X0136255Y0082599D02*
X0131538Y0082599D01*
X0131392Y0082001D02*
X0132968Y0082001D01*
X0132455Y0081402D02*
X0131143Y0081402D01*
X0130241Y0080803D02*
X0132238Y0080803D01*
X0132497Y0080205D02*
X0131189Y0080205D01*
X0133300Y0079800D02*
X0133241Y0079836D01*
X0133185Y0079875D01*
X0133130Y0079918D01*
X0133078Y0079963D01*
X0133029Y0080011D01*
X0132983Y0080062D01*
X0132939Y0080116D01*
X0132899Y0080172D01*
X0132862Y0080230D01*
X0132828Y0080290D01*
X0132798Y0080352D01*
X0132772Y0080416D01*
X0132749Y0080481D01*
X0132730Y0080547D01*
X0132714Y0080614D01*
X0132703Y0080682D01*
X0132695Y0080750D01*
X0132691Y0080819D01*
X0132692Y0080888D01*
X0132696Y0080957D01*
X0132704Y0081025D01*
X0132716Y0081093D01*
X0132732Y0081160D01*
X0132751Y0081226D01*
X0132774Y0081291D01*
X0132801Y0081355D01*
X0132832Y0081416D01*
X0132866Y0081476D01*
X0132903Y0081534D01*
X0132944Y0081590D01*
X0132988Y0081643D01*
X0133034Y0081694D01*
X0133084Y0081742D01*
X0133136Y0081787D01*
X0133191Y0081829D01*
X0133247Y0081868D01*
X0133307Y0081903D01*
X0133368Y0081935D01*
X0133430Y0081964D01*
X0133494Y0081989D01*
X0133560Y0082010D01*
X0133627Y0082028D01*
X0133694Y0082041D01*
X0133762Y0082051D01*
X0133831Y0082057D01*
X0133900Y0082059D01*
X0133969Y0082057D01*
X0134038Y0082051D01*
X0134106Y0082041D01*
X0134173Y0082028D01*
X0134240Y0082010D01*
X0134306Y0081989D01*
X0134370Y0081964D01*
X0134432Y0081935D01*
X0134493Y0081903D01*
X0134553Y0081868D01*
X0134609Y0081829D01*
X0134664Y0081787D01*
X0134716Y0081742D01*
X0134766Y0081694D01*
X0134812Y0081643D01*
X0134856Y0081590D01*
X0134897Y0081534D01*
X0134934Y0081476D01*
X0134968Y0081416D01*
X0134999Y0081355D01*
X0135026Y0081291D01*
X0135049Y0081226D01*
X0135068Y0081160D01*
X0135084Y0081093D01*
X0135096Y0081025D01*
X0135104Y0080957D01*
X0135108Y0080888D01*
X0135109Y0080819D01*
X0135105Y0080750D01*
X0135097Y0080682D01*
X0135086Y0080614D01*
X0135070Y0080547D01*
X0135051Y0080481D01*
X0135028Y0080416D01*
X0135002Y0080352D01*
X0134972Y0080290D01*
X0134938Y0080230D01*
X0134901Y0080172D01*
X0134861Y0080116D01*
X0134817Y0080062D01*
X0134771Y0080011D01*
X0134722Y0079963D01*
X0134670Y0079918D01*
X0134615Y0079875D01*
X0134559Y0079836D01*
X0134500Y0079800D01*
X0135321Y0083198D02*
X0132619Y0083198D01*
X0132270Y0083198D02*
X0131164Y0083198D01*
X0133381Y0083796D02*
X0134368Y0083796D01*
X0134168Y0084395D02*
X0133544Y0084395D01*
X0135630Y0083198D02*
X0136588Y0083198D01*
D15*
X0141800Y0083300D03*
X0141800Y0079300D03*
X0146800Y0079300D03*
D16*
X0141800Y0085900D03*
D17*
X0139900Y0087400D03*
D18*
X0140300Y0086300D02*
X0140800Y0089300D01*
X0141300Y0086300D01*
X0141800Y0089300D01*
X0142300Y0086300D01*
X0142800Y0089300D01*
X0143300Y0086300D01*
X0143800Y0089300D01*
X0144300Y0086300D01*
X0143300Y0086300D01*
X0142300Y0086300D01*
X0141300Y0086300D01*
X0140300Y0086300D01*
X0140300Y0089300D01*
X0140800Y0089300D01*
X0141800Y0089300D01*
X0142800Y0089300D01*
X0143800Y0089300D01*
X0144300Y0089300D01*
X0144300Y0086300D01*
M02*
