%
M48
M72
T01C0.01300
T02C0.04000
%
T01
X24000Y18000
X24000Y33600
X29400Y34800
X18600Y37800
X10200Y47400
X34800Y48600
X36600Y43800
X40800Y35400
X49200Y39000
X49200Y43800
X63600Y46200
X55800Y56400
X47400Y59400
X41400Y54000
X32400Y63600
X24600Y66600
X46800Y72000
X61200Y83400
X79800Y63600
X87000Y54000
X105600Y67200
X97200Y67800
X115200Y67800
X129800Y64800
X129800Y60800
X129800Y56800
X129800Y52800
X133800Y52800
X137800Y52800
X141800Y52800
X121200Y41400
X117600Y41400
X111600Y26400
X91800Y35400
X62400Y28200
X58200Y28200
X61200Y10200
X111600Y83400
T02
X6800Y6800
X16800Y6800
X26800Y6800
X36800Y6800
X46800Y6800
X56800Y6800
X66800Y6800
X76800Y6800
X86800Y6800
X96800Y6800
X106800Y6800
X6800Y21800
X6800Y31800
X6800Y41800
X6800Y51800
X6800Y61800
X6800Y71800
X6800Y86800
X16800Y86800
X26800Y86800
X36800Y86800
X46800Y86800
X56800Y86800
X66800Y86800
X76800Y86800
X86800Y86800
X96800Y86800
X106800Y86800
X116800Y86800
M30
