%
M48
M72
T01C0.0130
T02C0.0400
%
T01
X3380Y3200
X3320Y3980
X3500Y4280
X2480Y4820
X1640Y5240
X3260Y6200
X3860Y6560
X4100Y6800
X3620Y7040
X3440Y7340
X3620Y7640
X4340Y7400
X4820Y7640
X6320Y8240
X4760Y8960
X2840Y8960
X4580Y6320
X4760Y5960
X5720Y5600
X6080Y5540
X7220Y5300
X8120Y5060
X9380Y4460
X8660Y4220
X7400Y3680
X6140Y3860
X5720Y4040
X5120Y4760
X3800Y5360
X8120Y6200
X8900Y6200
X8600Y5720
X9560Y6800
X9800Y7040
X9920Y7460
X10760Y7340
X10700Y6440
X11660Y5720
X12500Y6080
X12860Y6080
X14800Y5900
X14800Y5500
X14800Y5100
X14120Y4760
X14800Y4700
X14800Y4300
X14800Y3900
X14800Y3500
X12440Y3440
X10220Y4460
X10700Y4700
X9860Y3200
X8780Y1640
X6800Y2360
X14000Y2000
X14400Y2000
X14800Y2000
X15200Y2000
X15600Y2000
X16000Y2000
X16400Y2000
X16800Y2000
X17200Y2000
X17600Y2000
X18000Y2000
X18400Y2000
X18800Y2000
X19200Y2000
X19600Y2000
X20000Y2000
X20400Y2000
X14800Y6300
X14800Y6700
X14800Y7100
X14660Y7520
X13940Y8480
X14400Y8600
X14800Y8600
X15200Y8600
X15600Y8600
X16000Y8600
X16400Y8600
X16800Y8600
X17200Y8600
X17600Y8600
X18000Y8600
X18400Y8600
X18800Y8600
X19200Y8600
X19600Y8600
X20000Y8600
X20400Y8600
X12860Y8960
X8420Y7340
T02
X1300Y1300
X2300Y1300
X3300Y1300
X4300Y1300
X5300Y1300
X6300Y1300
X7300Y1300
X8300Y1300
X9300Y1300
X10300Y1300
X11300Y1300
X12300Y1300
X13300Y1300
X1300Y2800
X1300Y3800
X1300Y4800
X1300Y5800
X1300Y6800
X1300Y7800
X1300Y9300
X2300Y9300
X3300Y9300
X4300Y9300
X5300Y9300
X6300Y9300
X7300Y9300
X8300Y9300
X9300Y9300
X10300Y9300
X11300Y9300
X12300Y9300
X13300Y9300
M30
