G75*
%MOIN*%
%OFA0B0*%
%FSLAX24Y24*%
%IPPOS*%
%LPD*%
%AMOC8*
5,1,8,0,0,1.08239X$1,22.5*
%
%ADD10C,0.0000*%
%ADD11C,0.0040*%
%ADD12C,0.0030*%
%ADD13C,0.0050*%
%ADD14C,0.0060*%
%ADD15R,0.0400X0.0300*%
%ADD16R,0.0400X0.0020*%
%ADD17R,0.0020X0.0280*%
%ADD18C,0.0025*%
D10*
X000800Y000800D02*
X000800Y009800D01*
X020800Y009800D01*
X020800Y000800D01*
X000800Y000800D01*
D11*
X003720Y002350D02*
X003952Y002350D01*
X003952Y002466D01*
X003913Y002505D01*
X003836Y002505D01*
X003797Y002466D01*
X003797Y002350D01*
X003720Y002600D02*
X003720Y002678D01*
X003720Y002639D02*
X003952Y002639D01*
X003952Y002600D02*
X003952Y002678D01*
X003913Y002767D02*
X003759Y002767D01*
X003720Y002806D01*
X003720Y002884D01*
X003759Y002922D01*
X003913Y002922D01*
X003952Y002884D01*
X003952Y002806D01*
X003913Y002767D01*
X003952Y003018D02*
X003836Y003018D01*
X003875Y003095D01*
X003875Y003134D01*
X003836Y003173D01*
X003759Y003173D01*
X003720Y003134D01*
X003720Y003057D01*
X003759Y003018D01*
X003952Y003018D02*
X003952Y003173D01*
X003952Y003450D02*
X003720Y003450D01*
X003797Y003450D02*
X003797Y003566D01*
X003836Y003605D01*
X003913Y003605D01*
X003952Y003566D01*
X003952Y003450D01*
X003550Y003452D02*
X003550Y003297D01*
X003473Y003220D01*
X003395Y003297D01*
X003395Y003452D01*
X003300Y003452D02*
X003183Y003452D01*
X003145Y003413D01*
X003145Y003259D01*
X003183Y003220D01*
X003300Y003220D01*
X003300Y003452D01*
X003049Y003452D02*
X002933Y003452D01*
X002894Y003413D01*
X002894Y003259D01*
X002933Y003220D01*
X003049Y003220D01*
X003049Y003452D01*
X002799Y003452D02*
X002683Y003452D01*
X002644Y003413D01*
X002644Y003336D01*
X002683Y003297D01*
X002799Y003297D01*
X002799Y003220D02*
X002799Y003452D01*
X002548Y003375D02*
X002548Y003220D01*
X002548Y003336D02*
X002393Y003336D01*
X002393Y003375D02*
X002393Y003220D01*
X002393Y003375D02*
X002471Y003452D01*
X002548Y003375D01*
X002180Y003526D02*
X002141Y003487D01*
X002180Y003526D02*
X002180Y003603D01*
X002141Y003642D01*
X001987Y003642D01*
X001948Y003603D01*
X001948Y003526D01*
X001987Y003487D01*
X001987Y003737D02*
X001948Y003776D01*
X001948Y003854D01*
X001987Y003892D01*
X002141Y003892D01*
X002180Y003854D01*
X002180Y003776D01*
X002141Y003737D01*
X002103Y003988D02*
X001948Y003988D01*
X002103Y003988D02*
X002180Y004065D01*
X002103Y004143D01*
X001948Y004143D01*
X001987Y004489D02*
X001948Y004528D01*
X001948Y004644D01*
X002180Y004644D01*
X002180Y004528D01*
X002141Y004489D01*
X001987Y004489D01*
X001948Y004739D02*
X002180Y004739D01*
X001948Y004894D01*
X002180Y004894D01*
X002141Y004990D02*
X002064Y004990D01*
X002064Y005067D01*
X002141Y004990D02*
X002180Y005028D01*
X002180Y005106D01*
X002141Y005145D01*
X001987Y005145D01*
X001948Y005106D01*
X001948Y005028D01*
X001987Y004990D01*
X001987Y005491D02*
X001948Y005529D01*
X001948Y005645D01*
X002180Y005645D01*
X002180Y005529D01*
X002141Y005491D01*
X001987Y005491D01*
X001948Y005741D02*
X002180Y005896D01*
X002180Y005741D02*
X001948Y005896D01*
X001948Y005992D02*
X001948Y006146D01*
X001948Y006069D02*
X002180Y006069D01*
X002141Y006492D02*
X001987Y006492D01*
X001948Y006531D01*
X001948Y006647D01*
X002180Y006647D01*
X002180Y006531D01*
X002141Y006492D01*
X002180Y006743D02*
X001948Y006898D01*
X001987Y006993D02*
X002064Y006993D01*
X002103Y007032D01*
X002103Y007148D01*
X002180Y007148D02*
X001948Y007148D01*
X001948Y007032D01*
X001987Y006993D01*
X002103Y007071D02*
X002180Y006993D01*
X002180Y006898D02*
X001948Y006743D01*
X001987Y007494D02*
X001948Y007533D01*
X001948Y007610D01*
X001987Y007649D01*
X002025Y007649D01*
X002064Y007610D01*
X002064Y007533D01*
X002103Y007494D01*
X002141Y007494D01*
X002180Y007533D01*
X002180Y007610D01*
X002141Y007649D01*
X001948Y007745D02*
X001948Y007900D01*
X001948Y007822D02*
X002180Y007822D01*
X002180Y007995D02*
X002103Y008073D01*
X002103Y008034D02*
X002103Y008150D01*
X002180Y008150D02*
X001948Y008150D01*
X001948Y008034D01*
X001987Y007995D01*
X002064Y007995D01*
X002103Y008034D01*
X003720Y004106D02*
X003797Y004028D01*
X003797Y004067D02*
X003797Y003951D01*
X003720Y003951D02*
X003952Y003951D01*
X003952Y004067D01*
X003913Y004106D01*
X003836Y004106D01*
X003797Y004067D01*
X003720Y003855D02*
X003952Y003855D01*
X003952Y003700D02*
X003720Y003700D01*
X003797Y003778D01*
X003720Y003855D01*
X002180Y003102D02*
X002180Y003025D01*
X002141Y002986D01*
X002180Y003102D02*
X002141Y003141D01*
X001987Y003141D01*
X001948Y003102D01*
X001948Y003025D01*
X001987Y002986D01*
X001948Y002890D02*
X001948Y002736D01*
X001948Y002813D02*
X002180Y002813D01*
X002141Y002640D02*
X002180Y002601D01*
X002180Y002524D01*
X002141Y002485D01*
X002103Y002485D01*
X002064Y002524D01*
X002064Y002601D01*
X002025Y002640D01*
X001987Y002640D01*
X001948Y002601D01*
X001948Y002524D01*
X001987Y002485D01*
D12*
X016371Y006465D02*
X016618Y006465D01*
X016740Y006465D02*
X016802Y006465D01*
X016802Y006527D01*
X016740Y006527D01*
X016740Y006465D01*
X016923Y006465D02*
X017170Y006465D01*
X016923Y006712D01*
X016923Y006774D01*
X016985Y006835D01*
X017108Y006835D01*
X017170Y006774D01*
X017292Y006712D02*
X017415Y006465D01*
X017538Y006712D01*
X018028Y006712D02*
X018090Y006650D01*
X018275Y006650D01*
X018397Y006588D02*
X018397Y006527D01*
X018458Y006465D01*
X018643Y006465D01*
X018643Y006835D01*
X018458Y006835D01*
X018397Y006774D01*
X018397Y006712D01*
X018458Y006650D01*
X018643Y006650D01*
X018458Y006650D02*
X018397Y006588D01*
X018275Y006465D02*
X018090Y006465D01*
X018028Y006527D01*
X018028Y006588D01*
X018090Y006650D01*
X018028Y006712D02*
X018028Y006774D01*
X018090Y006835D01*
X018275Y006835D01*
X018275Y006465D01*
X018275Y006212D02*
X018090Y006212D01*
X017968Y006150D02*
X017968Y006027D01*
X017906Y005965D01*
X017783Y005965D01*
X017721Y006027D01*
X017721Y006150D01*
X017783Y006212D01*
X017906Y006212D01*
X017968Y006150D01*
X018275Y006212D02*
X018336Y006150D01*
X018336Y006027D01*
X018275Y005965D01*
X018090Y005965D01*
X018459Y005965D02*
X018521Y005965D01*
X018521Y006027D01*
X018459Y006027D01*
X018459Y005965D01*
X018642Y005965D02*
X018827Y005965D01*
X018889Y006027D01*
X018889Y006212D01*
X019010Y006150D02*
X019010Y006088D01*
X019257Y006088D01*
X019257Y006027D02*
X019257Y006150D01*
X019196Y006212D01*
X019072Y006212D01*
X019010Y006150D01*
X019196Y005965D02*
X019257Y006027D01*
X019196Y005965D02*
X019072Y005965D01*
X019379Y005965D02*
X019379Y006150D01*
X019440Y006212D01*
X019626Y006212D01*
X019626Y005965D01*
X019748Y005965D02*
X019809Y006027D01*
X019809Y006274D01*
X019748Y006212D02*
X019871Y006212D01*
X019993Y006150D02*
X019993Y006088D01*
X020239Y006088D01*
X020239Y006027D02*
X020239Y006150D01*
X020178Y006212D01*
X020054Y006212D01*
X019993Y006150D01*
X020178Y005965D02*
X020239Y006027D01*
X020178Y005965D02*
X020054Y005965D01*
X020362Y005903D02*
X020362Y006212D01*
X020362Y006335D02*
X020362Y006397D01*
X020485Y006465D02*
X020362Y006588D01*
X020238Y006465D01*
X020238Y006835D01*
X020117Y006835D02*
X019870Y006835D01*
X019993Y006835D02*
X019993Y006465D01*
X019748Y006650D02*
X019501Y006650D01*
X019380Y006712D02*
X019257Y006835D01*
X019257Y006465D01*
X019380Y006465D02*
X019133Y006465D01*
X019563Y006465D02*
X019563Y006835D01*
X019748Y006650D01*
X020485Y006835D02*
X020485Y006465D01*
X020362Y005903D02*
X020423Y005842D01*
X020485Y005842D01*
X018766Y005842D02*
X018704Y005842D01*
X018642Y005903D01*
X018642Y006212D01*
X017600Y006212D02*
X017600Y005965D01*
X017476Y005965D02*
X017476Y006150D01*
X017415Y006212D01*
X017353Y006150D01*
X017353Y005965D01*
X017476Y006150D02*
X017538Y006212D01*
X017600Y006212D01*
X016618Y006712D02*
X016494Y006835D01*
X016494Y006465D01*
D13*
X001850Y007500D02*
X001850Y008150D01*
X001850Y003150D02*
X001850Y002500D01*
D14*
X002567Y002405D02*
X002567Y002995D01*
X002566Y002995D02*
X002570Y003014D01*
X002576Y003031D01*
X002586Y003048D01*
X002598Y003062D01*
X002613Y003074D01*
X002629Y003084D01*
X002647Y003090D01*
X002666Y003094D01*
X002685Y003094D01*
X003315Y003094D01*
X003334Y003094D01*
X003353Y003090D01*
X003371Y003084D01*
X003387Y003074D01*
X003402Y003062D01*
X003414Y003048D01*
X003424Y003031D01*
X003430Y003014D01*
X003434Y002995D01*
X003433Y002995D02*
X003433Y002405D01*
X003434Y002404D02*
X003430Y002386D01*
X003424Y002368D01*
X003414Y002351D01*
X003402Y002337D01*
X003387Y002324D01*
X003371Y002315D01*
X003353Y002309D01*
X003334Y002305D01*
X003315Y002305D01*
X003315Y002306D02*
X002685Y002306D01*
X002666Y002306D01*
X002647Y002310D01*
X002629Y002316D01*
X002613Y002326D01*
X002598Y002338D01*
X002586Y002352D01*
X002576Y002369D01*
X002570Y002386D01*
X002566Y002405D01*
X004067Y002405D02*
X004067Y002995D01*
X004066Y002995D02*
X004070Y003014D01*
X004076Y003031D01*
X004086Y003048D01*
X004098Y003062D01*
X004113Y003074D01*
X004129Y003084D01*
X004147Y003090D01*
X004166Y003094D01*
X004185Y003094D01*
X004815Y003094D01*
X004834Y003094D01*
X004853Y003090D01*
X004871Y003084D01*
X004887Y003074D01*
X004902Y003062D01*
X004914Y003048D01*
X004924Y003031D01*
X004930Y003014D01*
X004934Y002995D01*
X004933Y002995D02*
X004933Y002405D01*
X004934Y002404D02*
X004930Y002386D01*
X004924Y002368D01*
X004914Y002351D01*
X004902Y002337D01*
X004887Y002324D01*
X004871Y002315D01*
X004853Y002309D01*
X004834Y002305D01*
X004815Y002305D01*
X004815Y002306D02*
X004185Y002306D01*
X004166Y002306D01*
X004147Y002310D01*
X004129Y002316D01*
X004113Y002326D01*
X004098Y002338D01*
X004086Y002352D01*
X004076Y002369D01*
X004070Y002386D01*
X004066Y002405D01*
X004185Y003306D02*
X004815Y003306D01*
X004815Y003305D02*
X004834Y003305D01*
X004853Y003309D01*
X004871Y003315D01*
X004887Y003324D01*
X004902Y003337D01*
X004914Y003351D01*
X004924Y003368D01*
X004930Y003386D01*
X004934Y003404D01*
X004933Y003405D02*
X004933Y003995D01*
X004934Y003995D02*
X004930Y004014D01*
X004924Y004031D01*
X004914Y004048D01*
X004902Y004062D01*
X004887Y004074D01*
X004871Y004084D01*
X004853Y004090D01*
X004834Y004094D01*
X004815Y004094D01*
X004185Y004094D01*
X004166Y004094D01*
X004147Y004090D01*
X004129Y004084D01*
X004113Y004074D01*
X004098Y004062D01*
X004086Y004048D01*
X004076Y004031D01*
X004070Y004014D01*
X004066Y003995D01*
X004067Y003995D02*
X004067Y003405D01*
X004066Y003405D02*
X004070Y003386D01*
X004076Y003369D01*
X004086Y003352D01*
X004098Y003338D01*
X004113Y003326D01*
X004129Y003316D01*
X004147Y003310D01*
X004166Y003306D01*
X004185Y003306D01*
X018620Y007260D02*
X018720Y007240D01*
X018760Y007150D01*
X018700Y007060D01*
X018770Y007000D01*
X018850Y007060D01*
X018890Y007040D01*
X018950Y007200D01*
X018900Y007190D02*
X018840Y007290D01*
X018880Y007400D01*
X018990Y007460D01*
X019120Y007420D01*
X019160Y007290D01*
X019120Y007180D01*
X019150Y007080D01*
X019240Y007030D01*
X019290Y007060D01*
X019230Y007160D01*
X019280Y007270D01*
X019380Y007290D01*
X019380Y007320D01*
X019280Y007360D01*
X019240Y007470D01*
X019290Y007560D01*
X019250Y007590D01*
X019170Y007530D01*
X019060Y007590D01*
X019030Y007680D01*
X018980Y007680D01*
X018950Y007570D01*
X018860Y007530D01*
X018780Y007590D01*
X018730Y007550D01*
X018780Y007470D01*
X018730Y007350D01*
X018650Y007330D01*
X018640Y007280D01*
X018730Y007260D01*
X018780Y007150D01*
X018740Y007070D01*
X018780Y007040D01*
X018870Y007090D01*
X018900Y007190D01*
X018896Y007177D02*
X018768Y007177D01*
X018764Y007118D02*
X018878Y007118D01*
X018815Y007060D02*
X018754Y007060D01*
X018741Y007235D02*
X018873Y007235D01*
X018841Y007294D02*
X018643Y007294D01*
X018620Y007260D02*
X018620Y007350D01*
X018720Y007370D01*
X018760Y007460D01*
X018700Y007550D01*
X018770Y007620D01*
X018860Y007550D01*
X018940Y007590D01*
X018960Y007700D01*
X019050Y007700D01*
X019080Y007590D01*
X019160Y007550D01*
X019250Y007620D01*
X019320Y007550D01*
X019260Y007460D01*
X019290Y007370D01*
X019400Y007350D01*
X019400Y007260D01*
X019300Y007240D01*
X019260Y007150D01*
X019320Y007060D01*
X019250Y007000D01*
X019170Y007060D01*
X019130Y007040D01*
X019070Y007200D01*
X019121Y007177D02*
X019238Y007177D01*
X019255Y007118D02*
X019139Y007118D01*
X019187Y007060D02*
X019289Y007060D01*
X019264Y007235D02*
X019140Y007235D01*
X019159Y007294D02*
X019380Y007294D01*
X019300Y007352D02*
X019141Y007352D01*
X019123Y007411D02*
X019262Y007411D01*
X019240Y007469D02*
X018780Y007469D01*
X018755Y007411D02*
X018899Y007411D01*
X018863Y007352D02*
X018731Y007352D01*
X018744Y007528D02*
X019272Y007528D01*
X019255Y007586D02*
X019245Y007586D01*
X019067Y007586D02*
X018954Y007586D01*
X018970Y007645D02*
X019042Y007645D01*
X018785Y007586D02*
X018775Y007586D01*
X018950Y007200D02*
X018933Y007212D01*
X018918Y007227D01*
X018905Y007244D01*
X018896Y007263D01*
X018891Y007284D01*
X018889Y007305D01*
X018891Y007326D01*
X018896Y007346D01*
X018905Y007365D01*
X018917Y007383D01*
X018932Y007398D01*
X018949Y007410D01*
X018969Y007419D01*
X018989Y007424D01*
X019010Y007426D01*
X019031Y007424D01*
X019051Y007419D01*
X019071Y007410D01*
X019088Y007398D01*
X019103Y007383D01*
X019115Y007365D01*
X019124Y007346D01*
X019129Y007326D01*
X019131Y007305D01*
X019129Y007284D01*
X019124Y007263D01*
X019115Y007244D01*
X019102Y007227D01*
X019087Y007212D01*
X019070Y007200D01*
D15*
X019800Y007150D03*
X020300Y007150D03*
X019800Y007550D03*
D16*
X019800Y007810D03*
D17*
X019610Y007960D03*
D18*
X019650Y007850D02*
X019700Y008150D01*
X019750Y007850D01*
X019800Y008150D01*
X019850Y007850D01*
X019900Y008150D01*
X019950Y007850D01*
X020000Y008150D01*
X020050Y007850D01*
X019950Y007850D01*
X019850Y007850D01*
X019750Y007850D01*
X019650Y007850D01*
X019650Y008150D01*
X019700Y008150D01*
X019800Y008150D01*
X019900Y008150D01*
X020000Y008150D01*
X020050Y008150D01*
X020050Y007850D01*
M02*
