%
M48
M72
T01C0.0130
T02C0.0400
%
T01
X3320Y2420
X3380Y3200
X2480Y3920
X3320Y4400
X3440Y5240
X3260Y6200
X4040Y6200
X3560Y7040
X4340Y7100
X3620Y7640
X5300Y7580
X6260Y8240
X4760Y8960
X2840Y8960
X6440Y7340
X6740Y6740
X6020Y5900
X6800Y5480
X7340Y4580
X6560Y4460
X5720Y4040
X5240Y4880
X7040Y3260
X7880Y3260
X8300Y3380
X6140Y2360
X5360Y2360
X7760Y1640
X12980Y2120
X15700Y1100
X16100Y1100
X16500Y1100
X16500Y1500
X16500Y1900
X10580Y5060
X10820Y6260
X11180Y6260
X10340Y7220
X9620Y7220
X8780Y7220
X11420Y7340
X11780Y7340
X12920Y7220
X13820Y6740
X13520Y6440
X14400Y6300
X14400Y5900
X14800Y5900
X15200Y5900
X15600Y5900
X14400Y6700
X14400Y7100
X12980Y8420
X12740Y8960
X14400Y9000
X14400Y8600
X14400Y9400
T02
X1300Y1300
X2300Y1300
X3300Y1300
X4300Y1300
X5300Y1300
X6300Y1300
X7300Y1300
X8300Y1300
X9300Y1300
X10300Y1300
X11300Y1300
X12300Y1300
X1300Y2800
X1300Y3800
X1300Y4800
X1300Y5800
X1300Y6800
X1300Y7800
X1300Y9300
X2300Y9300
X3300Y9300
X4300Y9300
X5300Y9300
X6300Y9300
X7300Y9300
X8300Y9300
X9300Y9300
X10300Y9300
X11300Y9300
X12300Y9300
M30
