G75*
%MOIN*%
%OFA0B0*%
%FSLAX24Y24*%
%IPPOS*%
%LPD*%
%AMOC8*
5,1,8,0,0,1.08239X$1,22.5*
%
%ADD10OC8,0.0700*%
%ADD11R,0.0472X0.0217*%
%ADD12R,0.0472X0.0472*%
%ADD13R,0.0433X0.0394*%
%ADD14R,0.0354X0.0394*%
%ADD15R,0.0669X0.0315*%
%ADD16R,0.0120X0.0390*%
%ADD17C,0.0108*%
%ADD18C,0.0072*%
%ADD19C,0.0060*%
%ADD20C,0.0270*%
%ADD21C,0.0160*%
%ADD22C,0.0100*%
D10*
X001300Y001300D03*
X002300Y001300D03*
X003300Y001300D03*
X004300Y001300D03*
X005300Y001300D03*
X006300Y001300D03*
X007300Y001300D03*
X008300Y001300D03*
X009300Y001300D03*
X010300Y001300D03*
X011300Y001300D03*
X012300Y001300D03*
X001300Y002800D03*
X001300Y003800D03*
X001300Y004800D03*
X001300Y005800D03*
X001300Y006800D03*
X001300Y007800D03*
X001300Y009300D03*
X002300Y009300D03*
X003300Y009300D03*
X004300Y009300D03*
X005300Y009300D03*
X006300Y009300D03*
X007300Y009300D03*
X008300Y009300D03*
X009300Y009300D03*
X010300Y009300D03*
X011300Y009300D03*
X012300Y009300D03*
D11*
X003762Y004800D03*
X002738Y004426D03*
X002738Y005174D03*
D12*
X004787Y003600D03*
X005613Y003600D03*
X005613Y002800D03*
X004787Y002800D03*
D13*
X003635Y002800D03*
X002965Y002800D03*
X002965Y003600D03*
X003635Y003600D03*
X005165Y006300D03*
X005835Y006300D03*
X005835Y007150D03*
X005165Y007150D03*
X005165Y008000D03*
X005835Y008000D03*
D14*
X005907Y005115D03*
X005907Y004485D03*
X004293Y004485D03*
X004293Y005115D03*
D15*
X005100Y004328D03*
D16*
X004368Y005751D03*
X004112Y005751D03*
X003856Y005751D03*
X003600Y005751D03*
X003344Y005751D03*
X003088Y005751D03*
X002832Y005751D03*
X002832Y008049D03*
X003088Y008049D03*
X003344Y008049D03*
X003600Y008049D03*
X003856Y008049D03*
X004112Y008049D03*
X004368Y008049D03*
D17*
X006855Y008194D02*
X006855Y007720D01*
X006603Y007720D01*
X006603Y008194D01*
X006855Y008194D01*
X006855Y007827D02*
X006603Y007827D01*
X006603Y007934D02*
X006855Y007934D01*
X006855Y008041D02*
X006603Y008041D01*
X006603Y008148D02*
X006855Y008148D01*
X007446Y008194D02*
X007446Y007602D01*
X007194Y007602D01*
X007194Y008194D01*
X007446Y008194D01*
X007446Y007709D02*
X007194Y007709D01*
X007194Y007816D02*
X007446Y007816D01*
X007446Y007923D02*
X007194Y007923D01*
X007194Y008030D02*
X007446Y008030D01*
X007446Y008137D02*
X007194Y008137D01*
X008036Y008194D02*
X008036Y007602D01*
X007784Y007602D01*
X007784Y008194D01*
X008036Y008194D01*
X008036Y007709D02*
X007784Y007709D01*
X007784Y007816D02*
X008036Y007816D01*
X008036Y007923D02*
X007784Y007923D01*
X007784Y008030D02*
X008036Y008030D01*
X008036Y008137D02*
X007784Y008137D01*
X008627Y008194D02*
X008627Y007602D01*
X008375Y007602D01*
X008375Y008194D01*
X008627Y008194D01*
X008627Y007709D02*
X008375Y007709D01*
X008375Y007816D02*
X008627Y007816D01*
X008627Y007923D02*
X008375Y007923D01*
X008375Y008030D02*
X008627Y008030D01*
X008627Y008137D02*
X008375Y008137D01*
X009218Y008194D02*
X009218Y007602D01*
X008966Y007602D01*
X008966Y008194D01*
X009218Y008194D01*
X009218Y007709D02*
X008966Y007709D01*
X008966Y007816D02*
X009218Y007816D01*
X009218Y007923D02*
X008966Y007923D01*
X008966Y008030D02*
X009218Y008030D01*
X009218Y008137D02*
X008966Y008137D01*
X010399Y008194D02*
X010399Y007602D01*
X010147Y007602D01*
X010147Y008194D01*
X010399Y008194D01*
X010399Y007709D02*
X010147Y007709D01*
X010147Y007816D02*
X010399Y007816D01*
X010399Y007923D02*
X010147Y007923D01*
X010147Y008030D02*
X010399Y008030D01*
X010399Y008137D02*
X010147Y008137D01*
X010989Y008194D02*
X010989Y007602D01*
X010737Y007602D01*
X010737Y008194D01*
X010989Y008194D01*
X010989Y007709D02*
X010737Y007709D01*
X010737Y007816D02*
X010989Y007816D01*
X010989Y007923D02*
X010737Y007923D01*
X010737Y008030D02*
X010989Y008030D01*
X010989Y008137D02*
X010737Y008137D01*
X011580Y008194D02*
X011580Y007602D01*
X011328Y007602D01*
X011328Y008194D01*
X011580Y008194D01*
X011580Y007709D02*
X011328Y007709D01*
X011328Y007816D02*
X011580Y007816D01*
X011580Y007923D02*
X011328Y007923D01*
X011328Y008030D02*
X011580Y008030D01*
X011580Y008137D02*
X011328Y008137D01*
X012170Y008194D02*
X012170Y007602D01*
X011918Y007602D01*
X011918Y008194D01*
X012170Y008194D01*
X012170Y007709D02*
X011918Y007709D01*
X011918Y007816D02*
X012170Y007816D01*
X012170Y007923D02*
X011918Y007923D01*
X011918Y008030D02*
X012170Y008030D01*
X012170Y008137D02*
X011918Y008137D01*
X012761Y008194D02*
X012761Y007602D01*
X012509Y007602D01*
X012509Y008194D01*
X012761Y008194D01*
X012761Y007709D02*
X012509Y007709D01*
X012509Y007816D02*
X012761Y007816D01*
X012761Y007923D02*
X012509Y007923D01*
X012509Y008030D02*
X012761Y008030D01*
X012761Y008137D02*
X012509Y008137D01*
X013351Y008194D02*
X013351Y007602D01*
X013099Y007602D01*
X013099Y008194D01*
X013351Y008194D01*
X013351Y007709D02*
X013099Y007709D01*
X013099Y007816D02*
X013351Y007816D01*
X013351Y007923D02*
X013099Y007923D01*
X013099Y008030D02*
X013351Y008030D01*
X013351Y008137D02*
X013099Y008137D01*
X013942Y008194D02*
X013942Y007602D01*
X013690Y007602D01*
X013690Y008194D01*
X013942Y008194D01*
X013942Y007709D02*
X013690Y007709D01*
X013690Y007816D02*
X013942Y007816D01*
X013942Y007923D02*
X013690Y007923D01*
X013690Y008030D02*
X013942Y008030D01*
X013942Y008137D02*
X013690Y008137D01*
X014532Y008194D02*
X014532Y007720D01*
X014280Y007720D01*
X014280Y008194D01*
X014532Y008194D01*
X014532Y007827D02*
X014280Y007827D01*
X014280Y007934D02*
X014532Y007934D01*
X014532Y008041D02*
X014280Y008041D01*
X014280Y008148D02*
X014532Y008148D01*
X016079Y005765D02*
X016553Y005765D01*
X016079Y005765D02*
X016079Y006017D01*
X016553Y006017D01*
X016553Y005765D01*
X016553Y005872D02*
X016079Y005872D01*
X016079Y005979D02*
X016553Y005979D01*
X016553Y005174D02*
X015961Y005174D01*
X015961Y005426D01*
X016553Y005426D01*
X016553Y005174D01*
X016553Y005281D02*
X015961Y005281D01*
X015961Y005388D02*
X016553Y005388D01*
X016553Y004583D02*
X016079Y004583D01*
X016079Y004835D01*
X016553Y004835D01*
X016553Y004583D01*
X016553Y004690D02*
X016079Y004690D01*
X016079Y004797D02*
X016553Y004797D01*
X014532Y002880D02*
X014532Y002406D01*
X014280Y002406D01*
X014280Y002880D01*
X014532Y002880D01*
X014532Y002513D02*
X014280Y002513D01*
X014280Y002620D02*
X014532Y002620D01*
X014532Y002727D02*
X014280Y002727D01*
X014280Y002834D02*
X014532Y002834D01*
X013942Y002998D02*
X013942Y002406D01*
X013690Y002406D01*
X013690Y002998D01*
X013942Y002998D01*
X013942Y002513D02*
X013690Y002513D01*
X013690Y002620D02*
X013942Y002620D01*
X013942Y002727D02*
X013690Y002727D01*
X013690Y002834D02*
X013942Y002834D01*
X013942Y002941D02*
X013690Y002941D01*
X013351Y002998D02*
X013351Y002406D01*
X013099Y002406D01*
X013099Y002998D01*
X013351Y002998D01*
X013351Y002513D02*
X013099Y002513D01*
X013099Y002620D02*
X013351Y002620D01*
X013351Y002727D02*
X013099Y002727D01*
X013099Y002834D02*
X013351Y002834D01*
X013351Y002941D02*
X013099Y002941D01*
X012761Y002998D02*
X012761Y002406D01*
X012509Y002406D01*
X012509Y002998D01*
X012761Y002998D01*
X012761Y002513D02*
X012509Y002513D01*
X012509Y002620D02*
X012761Y002620D01*
X012761Y002727D02*
X012509Y002727D01*
X012509Y002834D02*
X012761Y002834D01*
X012761Y002941D02*
X012509Y002941D01*
X012170Y002998D02*
X012170Y002406D01*
X011918Y002406D01*
X011918Y002998D01*
X012170Y002998D01*
X012170Y002513D02*
X011918Y002513D01*
X011918Y002620D02*
X012170Y002620D01*
X012170Y002727D02*
X011918Y002727D01*
X011918Y002834D02*
X012170Y002834D01*
X012170Y002941D02*
X011918Y002941D01*
X011580Y002998D02*
X011580Y002406D01*
X011328Y002406D01*
X011328Y002998D01*
X011580Y002998D01*
X011580Y002513D02*
X011328Y002513D01*
X011328Y002620D02*
X011580Y002620D01*
X011580Y002727D02*
X011328Y002727D01*
X011328Y002834D02*
X011580Y002834D01*
X011580Y002941D02*
X011328Y002941D01*
X010989Y002998D02*
X010989Y002406D01*
X010737Y002406D01*
X010737Y002998D01*
X010989Y002998D01*
X010989Y002513D02*
X010737Y002513D01*
X010737Y002620D02*
X010989Y002620D01*
X010989Y002727D02*
X010737Y002727D01*
X010737Y002834D02*
X010989Y002834D01*
X010989Y002941D02*
X010737Y002941D01*
X010399Y002998D02*
X010399Y002406D01*
X010147Y002406D01*
X010147Y002998D01*
X010399Y002998D01*
X010399Y002513D02*
X010147Y002513D01*
X010147Y002620D02*
X010399Y002620D01*
X010399Y002727D02*
X010147Y002727D01*
X010147Y002834D02*
X010399Y002834D01*
X010399Y002941D02*
X010147Y002941D01*
X009808Y002998D02*
X009808Y002406D01*
X009556Y002406D01*
X009556Y002998D01*
X009808Y002998D01*
X009808Y002513D02*
X009556Y002513D01*
X009556Y002620D02*
X009808Y002620D01*
X009808Y002727D02*
X009556Y002727D01*
X009556Y002834D02*
X009808Y002834D01*
X009808Y002941D02*
X009556Y002941D01*
X009218Y002998D02*
X009218Y002406D01*
X008966Y002406D01*
X008966Y002998D01*
X009218Y002998D01*
X009218Y002513D02*
X008966Y002513D01*
X008966Y002620D02*
X009218Y002620D01*
X009218Y002727D02*
X008966Y002727D01*
X008966Y002834D02*
X009218Y002834D01*
X009218Y002941D02*
X008966Y002941D01*
X008627Y002998D02*
X008627Y002406D01*
X008375Y002406D01*
X008375Y002998D01*
X008627Y002998D01*
X008627Y002513D02*
X008375Y002513D01*
X008375Y002620D02*
X008627Y002620D01*
X008627Y002727D02*
X008375Y002727D01*
X008375Y002834D02*
X008627Y002834D01*
X008627Y002941D02*
X008375Y002941D01*
X008036Y002998D02*
X008036Y002406D01*
X007784Y002406D01*
X007784Y002998D01*
X008036Y002998D01*
X008036Y002513D02*
X007784Y002513D01*
X007784Y002620D02*
X008036Y002620D01*
X008036Y002727D02*
X007784Y002727D01*
X007784Y002834D02*
X008036Y002834D01*
X008036Y002941D02*
X007784Y002941D01*
X007446Y002998D02*
X007446Y002406D01*
X007194Y002406D01*
X007194Y002998D01*
X007446Y002998D01*
X007446Y002513D02*
X007194Y002513D01*
X007194Y002620D02*
X007446Y002620D01*
X007446Y002727D02*
X007194Y002727D01*
X007194Y002834D02*
X007446Y002834D01*
X007446Y002941D02*
X007194Y002941D01*
X006855Y002880D02*
X006855Y002406D01*
X006603Y002406D01*
X006603Y002880D01*
X006855Y002880D01*
X006855Y002513D02*
X006603Y002513D01*
X006603Y002620D02*
X006855Y002620D01*
X006855Y002727D02*
X006603Y002727D01*
X006603Y002834D02*
X006855Y002834D01*
D18*
X009826Y007584D02*
X009826Y008212D01*
X009826Y007584D02*
X009538Y007584D01*
X009538Y008212D01*
X009826Y008212D01*
X009826Y007655D02*
X009538Y007655D01*
X009538Y007726D02*
X009826Y007726D01*
X009826Y007797D02*
X009538Y007797D01*
X009538Y007868D02*
X009826Y007868D01*
X009826Y007939D02*
X009538Y007939D01*
X009538Y008010D02*
X009826Y008010D01*
X009826Y008081D02*
X009538Y008081D01*
X009538Y008152D02*
X009826Y008152D01*
D19*
X009682Y007898D02*
X009680Y007880D01*
X009620Y007820D01*
X009620Y007220D01*
X010340Y007220D02*
X010340Y007820D01*
X010280Y007880D01*
X010273Y007898D01*
X010820Y007880D02*
X010863Y007898D01*
X010820Y007880D02*
X010820Y006260D01*
X011180Y006260D02*
X011180Y009140D01*
X011300Y009260D01*
X011300Y009300D01*
X010580Y009020D02*
X010580Y005060D01*
X009980Y004100D02*
X012320Y006440D01*
X012320Y009260D01*
X012300Y009300D01*
X012740Y008960D02*
X012740Y008000D01*
X012680Y007940D01*
X012635Y007898D01*
X012980Y008180D02*
X012980Y008420D01*
X012980Y008180D02*
X013220Y007940D01*
X013225Y007898D01*
X012044Y007898D02*
X012020Y007880D01*
X011780Y007640D01*
X011780Y007340D01*
X011420Y007340D02*
X011420Y007880D01*
X011454Y007898D01*
X012920Y007220D02*
X012920Y003020D01*
X013220Y002720D01*
X013225Y002702D01*
X012680Y002660D02*
X012680Y002420D01*
X012980Y002120D01*
X012260Y002480D02*
X012260Y001340D01*
X012300Y001300D01*
X011300Y001300D02*
X011300Y002540D01*
X011420Y002660D01*
X011454Y002702D01*
X010863Y002702D02*
X010820Y002660D01*
X010580Y002420D01*
X010580Y001580D01*
X010300Y001300D01*
X010100Y002120D02*
X009320Y001340D01*
X009300Y001300D01*
X008780Y001820D02*
X008300Y001340D01*
X008300Y001300D01*
X007760Y001640D02*
X007640Y001760D01*
X007640Y007640D01*
X007880Y007880D01*
X007910Y007898D01*
X007320Y007898D02*
X007280Y007880D01*
X007040Y007640D01*
X007040Y003260D01*
X006800Y003140D02*
X007040Y002900D01*
X007040Y001580D01*
X007280Y001340D01*
X007300Y001300D01*
X008780Y001820D02*
X008780Y003080D01*
X008540Y003320D01*
X008540Y007880D01*
X008501Y007898D01*
X008780Y007580D02*
X008780Y007220D01*
X008780Y007580D02*
X009080Y007880D01*
X009092Y007898D01*
X010300Y009300D02*
X010580Y009020D01*
X009380Y009200D02*
X009320Y009260D01*
X009300Y009300D01*
X009380Y009200D02*
X009380Y003020D01*
X009680Y002720D01*
X009682Y002702D01*
X010100Y002540D02*
X010100Y002120D01*
X009980Y002240D02*
X009980Y004100D01*
X008300Y003380D02*
X008300Y002900D01*
X008480Y002720D01*
X008501Y002702D01*
X007910Y002702D02*
X007880Y002720D01*
X007880Y003260D01*
X006800Y003140D02*
X006800Y005480D01*
X005960Y005060D02*
X005907Y005115D01*
X005960Y005060D02*
X006560Y004460D01*
X004787Y003600D02*
X004760Y003620D01*
X003680Y003620D01*
X003635Y003600D01*
X003320Y004400D02*
X003320Y005000D01*
X003560Y005000D01*
X003800Y005240D01*
X003800Y005720D01*
X003856Y005751D01*
X004040Y005840D02*
X004040Y006200D01*
X004040Y005840D02*
X004100Y005780D01*
X004112Y005751D01*
X003600Y005751D02*
X003560Y005780D01*
X003560Y007040D01*
X003860Y007580D02*
X004340Y007100D01*
X003860Y007580D02*
X003860Y008000D01*
X003856Y008049D01*
X003860Y008060D01*
X003920Y008120D01*
X003920Y008900D01*
X004280Y009260D01*
X004300Y009300D01*
X004760Y008960D02*
X004160Y008360D01*
X004160Y008060D01*
X004112Y008049D01*
X003620Y008000D02*
X003600Y008049D01*
X003620Y008000D02*
X003620Y007640D01*
X003344Y008049D02*
X003320Y008060D01*
X003260Y008120D01*
X003260Y008540D01*
X002840Y008960D01*
X005300Y009260D02*
X005300Y009300D01*
X005300Y009260D02*
X005480Y009080D01*
X005480Y007760D01*
X005300Y007580D01*
X006260Y007520D02*
X006260Y008240D01*
X006260Y007520D02*
X006440Y007340D01*
X003344Y005751D02*
X003320Y005780D01*
X003260Y005840D01*
X003260Y006200D01*
X002965Y002800D02*
X003020Y002780D01*
X003320Y002480D01*
X003320Y002420D01*
X003635Y002800D02*
X003680Y002780D01*
X004760Y002780D01*
X004787Y002800D01*
X005360Y002360D02*
X004300Y001300D01*
X005300Y001300D02*
X005300Y001520D01*
X006140Y002360D01*
X009092Y002702D02*
X009140Y002660D01*
X009380Y002420D01*
X009380Y002360D01*
X009500Y002240D01*
X009980Y002240D01*
X010100Y002540D02*
X010220Y002660D01*
X010273Y002702D01*
X012044Y002702D02*
X012080Y002660D01*
X012260Y002480D01*
X012635Y002702D02*
X012680Y002660D01*
D20*
X012980Y002120D03*
X015700Y001100D03*
X016100Y001100D03*
X016500Y001100D03*
X016500Y001500D03*
X016500Y001900D03*
X010580Y005060D03*
X010820Y006260D03*
X011180Y006260D03*
X010340Y007220D03*
X009620Y007220D03*
X008780Y007220D03*
X006740Y006740D03*
X006440Y007340D03*
X005300Y007580D03*
X004340Y007100D03*
X003560Y007040D03*
X003620Y007640D03*
X002840Y008960D03*
X004760Y008960D03*
X006260Y008240D03*
X004040Y006200D03*
X003260Y006200D03*
X003440Y005240D03*
X003320Y004400D03*
X002480Y003920D03*
X003380Y003200D03*
X003320Y002420D03*
X005360Y002360D03*
X006140Y002360D03*
X007040Y003260D03*
X007880Y003260D03*
X008300Y003380D03*
X006560Y004460D03*
X007340Y004580D03*
X006800Y005480D03*
X006020Y005900D03*
X005240Y004880D03*
X005720Y004040D03*
X007760Y001640D03*
X014400Y005900D03*
X014800Y005900D03*
X015200Y005900D03*
X015600Y005900D03*
X014400Y006300D03*
X014400Y006700D03*
X013820Y006740D03*
X013520Y006440D03*
X014400Y007100D03*
X012920Y007220D03*
X011780Y007340D03*
X011420Y007340D03*
X012980Y008420D03*
X012740Y008960D03*
X014400Y009000D03*
X014400Y008600D03*
X014400Y009400D03*
D21*
X014523Y009359D02*
X012790Y009359D01*
X012790Y009235D02*
X012790Y009503D01*
X012723Y009570D01*
X014523Y009570D01*
X014523Y008428D01*
X014416Y008428D01*
X014416Y007967D01*
X014396Y007967D01*
X014396Y007947D01*
X014416Y007947D01*
X014416Y007487D01*
X014523Y007487D01*
X014523Y006054D01*
X014570Y006007D01*
X015885Y006007D01*
X015885Y005684D01*
X015949Y005620D01*
X015881Y005620D01*
X015767Y005506D01*
X015767Y005094D01*
X015881Y004980D01*
X015949Y004980D01*
X015885Y004916D01*
X015885Y004503D01*
X015999Y004389D01*
X016570Y004389D01*
X016570Y001030D01*
X012723Y001030D01*
X012790Y001097D01*
X012790Y001503D01*
X012503Y001790D01*
X012430Y001790D01*
X012430Y002212D01*
X012648Y002212D01*
X012705Y002155D01*
X012705Y002065D01*
X012747Y001964D01*
X012824Y001887D01*
X012925Y001845D01*
X013035Y001845D01*
X013136Y001887D01*
X013213Y001964D01*
X013255Y002065D01*
X013255Y002175D01*
X013240Y002212D01*
X013432Y002212D01*
X013521Y002300D01*
X013610Y002212D01*
X014022Y002212D01*
X014086Y002275D01*
X014099Y002256D01*
X014131Y002224D01*
X014170Y002198D01*
X014212Y002181D01*
X014257Y002172D01*
X014396Y002172D01*
X014396Y002633D01*
X014136Y002633D01*
X014136Y002653D01*
X014396Y002653D01*
X014396Y003113D01*
X014257Y003113D01*
X014212Y003104D01*
X014170Y003087D01*
X014136Y003064D01*
X014136Y003078D01*
X014022Y003192D01*
X013610Y003192D01*
X013521Y003103D01*
X013432Y003192D01*
X013090Y003192D01*
X013090Y007001D01*
X013153Y007064D01*
X013195Y007165D01*
X013195Y007275D01*
X013153Y007376D01*
X013120Y007408D01*
X013330Y007408D01*
X013330Y006639D01*
X013287Y006596D01*
X013245Y006495D01*
X013245Y006385D01*
X013287Y006284D01*
X013364Y006207D01*
X013465Y006165D01*
X013575Y006165D01*
X013676Y006207D01*
X013753Y006284D01*
X013795Y006385D01*
X013795Y006495D01*
X013753Y006596D01*
X013710Y006639D01*
X013710Y007408D01*
X014022Y007408D01*
X014136Y007522D01*
X014136Y007536D01*
X014170Y007513D01*
X014212Y007496D01*
X014257Y007487D01*
X014396Y007487D01*
X014396Y007947D01*
X014136Y007947D01*
X014136Y007967D01*
X014396Y007967D01*
X014396Y008428D01*
X014257Y008428D01*
X014212Y008419D01*
X014170Y008402D01*
X014131Y008376D01*
X014099Y008344D01*
X014086Y008325D01*
X014022Y008388D01*
X013610Y008388D01*
X013521Y008300D01*
X013432Y008388D01*
X013255Y008388D01*
X013255Y008475D01*
X013213Y008576D01*
X013136Y008653D01*
X013035Y008695D01*
X012925Y008695D01*
X012910Y008689D01*
X012910Y008741D01*
X012973Y008804D01*
X013015Y008905D01*
X013015Y009015D01*
X012973Y009116D01*
X012896Y009193D01*
X012795Y009235D01*
X012790Y009235D01*
X012878Y009201D02*
X014523Y009201D01*
X014523Y009042D02*
X013004Y009042D01*
X013006Y008884D02*
X014523Y008884D01*
X014523Y008725D02*
X012910Y008725D01*
X013217Y008567D02*
X014523Y008567D01*
X014416Y008408D02*
X014396Y008408D01*
X014396Y008250D02*
X014416Y008250D01*
X014185Y008408D02*
X013255Y008408D01*
X014396Y008091D02*
X014416Y008091D01*
X014417Y007967D02*
X014523Y007967D01*
X014523Y007947D01*
X014417Y007947D01*
X014417Y007967D01*
X014416Y007933D02*
X014396Y007933D01*
X014396Y007774D02*
X014416Y007774D01*
X014416Y007616D02*
X014396Y007616D01*
X014523Y007457D02*
X014071Y007457D01*
X013710Y007299D02*
X014523Y007299D01*
X014523Y007140D02*
X013710Y007140D01*
X013710Y006982D02*
X014523Y006982D01*
X014523Y006823D02*
X013710Y006823D01*
X013710Y006665D02*
X014523Y006665D01*
X014523Y006506D02*
X013790Y006506D01*
X013779Y006348D02*
X014523Y006348D01*
X014523Y006189D02*
X013633Y006189D01*
X013407Y006189D02*
X013090Y006189D01*
X013090Y006031D02*
X014547Y006031D01*
X013261Y006348D02*
X013090Y006348D01*
X013090Y006506D02*
X013250Y006506D01*
X013330Y006665D02*
X013090Y006665D01*
X013090Y006823D02*
X013330Y006823D01*
X013330Y006982D02*
X013090Y006982D01*
X013185Y007140D02*
X013330Y007140D01*
X013330Y007299D02*
X013185Y007299D01*
X013090Y005872D02*
X015885Y005872D01*
X015885Y005714D02*
X013090Y005714D01*
X013090Y005555D02*
X015816Y005555D01*
X015767Y005397D02*
X013090Y005397D01*
X013090Y005238D02*
X015767Y005238D01*
X015781Y005080D02*
X013090Y005080D01*
X013090Y004921D02*
X015890Y004921D01*
X015885Y004763D02*
X013090Y004763D01*
X013090Y004604D02*
X015885Y004604D01*
X015943Y004446D02*
X013090Y004446D01*
X013090Y004287D02*
X016570Y004287D01*
X016570Y004129D02*
X013090Y004129D01*
X013090Y003970D02*
X016570Y003970D01*
X016570Y003812D02*
X013090Y003812D01*
X013090Y003653D02*
X016570Y003653D01*
X016570Y003495D02*
X013090Y003495D01*
X013090Y003336D02*
X016570Y003336D01*
X016570Y003178D02*
X014036Y003178D01*
X014416Y003113D02*
X014416Y002653D01*
X014396Y002653D01*
X014396Y002633D01*
X014416Y002633D01*
X014416Y002172D01*
X014556Y002172D01*
X014601Y002181D01*
X014643Y002198D01*
X014682Y002224D01*
X014714Y002256D01*
X014740Y002295D01*
X014758Y002337D01*
X014766Y002383D01*
X014766Y002633D01*
X014417Y002633D01*
X014417Y002653D01*
X014766Y002653D01*
X014766Y002903D01*
X014758Y002948D01*
X014740Y002990D01*
X014714Y003029D01*
X014682Y003061D01*
X014643Y003087D01*
X014601Y003104D01*
X014556Y003113D01*
X014416Y003113D01*
X014416Y003019D02*
X014396Y003019D01*
X014396Y002861D02*
X014416Y002861D01*
X014416Y002702D02*
X014396Y002702D01*
X014396Y002544D02*
X014416Y002544D01*
X014416Y002385D02*
X014396Y002385D01*
X014396Y002227D02*
X014416Y002227D01*
X014129Y002227D02*
X014037Y002227D01*
X013595Y002227D02*
X013447Y002227D01*
X013255Y002068D02*
X016570Y002068D01*
X016570Y001910D02*
X013158Y001910D01*
X012802Y001910D02*
X012430Y001910D01*
X012430Y002068D02*
X012705Y002068D01*
X012542Y001751D02*
X016570Y001751D01*
X016570Y001593D02*
X012700Y001593D01*
X012790Y001434D02*
X016570Y001434D01*
X016570Y001276D02*
X012790Y001276D01*
X012790Y001117D02*
X016570Y001117D01*
X016570Y002227D02*
X014684Y002227D01*
X014766Y002385D02*
X016570Y002385D01*
X016570Y002544D02*
X014766Y002544D01*
X014766Y002702D02*
X016570Y002702D01*
X016570Y002861D02*
X014766Y002861D01*
X014721Y003019D02*
X016570Y003019D01*
X013596Y003178D02*
X013446Y003178D01*
X006870Y002653D02*
X006870Y002633D01*
X006739Y002633D01*
X006739Y002653D01*
X006739Y002960D01*
X006719Y002980D01*
X006719Y002653D01*
X006739Y002653D01*
X006870Y002653D01*
X006739Y002633D02*
X006739Y002172D01*
X006870Y002172D01*
X006870Y001563D01*
X006810Y001503D01*
X006810Y001097D01*
X006877Y001030D01*
X006723Y001030D01*
X006790Y001097D01*
X006790Y001503D01*
X006503Y001790D01*
X006097Y001790D01*
X005810Y001503D01*
X005810Y001097D01*
X005877Y001030D01*
X005723Y001030D01*
X005790Y001097D01*
X005790Y001503D01*
X005657Y001636D01*
X006105Y002085D01*
X006195Y002085D01*
X006296Y002127D01*
X006373Y002204D01*
X006405Y002281D01*
X006422Y002256D01*
X006454Y002224D01*
X006492Y002198D01*
X006535Y002181D01*
X006580Y002172D01*
X006719Y002172D01*
X006719Y002633D01*
X006369Y002633D01*
X006369Y002520D01*
X006296Y002593D01*
X006195Y002635D01*
X006085Y002635D01*
X006030Y002612D01*
X006030Y002762D01*
X005652Y002762D01*
X005652Y002838D01*
X006030Y002838D01*
X006030Y003060D01*
X006017Y003106D01*
X005994Y003147D01*
X005960Y003180D01*
X005926Y003200D01*
X005960Y003220D01*
X005994Y003253D01*
X006017Y003294D01*
X006030Y003340D01*
X006030Y003562D01*
X005652Y003562D01*
X005652Y003638D01*
X006030Y003638D01*
X006030Y003860D01*
X006017Y003906D01*
X005994Y003947D01*
X005983Y003957D01*
X005995Y003985D01*
X005995Y004095D01*
X005973Y004148D01*
X006142Y004148D01*
X006224Y004230D01*
X006224Y004555D01*
X006285Y004495D01*
X006285Y004405D01*
X006327Y004304D01*
X006404Y004227D01*
X006505Y004185D01*
X006615Y004185D01*
X006630Y004191D01*
X006630Y003210D01*
X006630Y003113D01*
X006580Y003113D01*
X006535Y003104D01*
X006492Y003087D01*
X006454Y003061D01*
X006422Y003029D01*
X006396Y002990D01*
X006378Y002948D01*
X006369Y002903D01*
X006369Y002653D01*
X006719Y002653D01*
X006719Y002633D01*
X006739Y002633D01*
X006739Y002702D02*
X006719Y002702D01*
X006719Y002544D02*
X006739Y002544D01*
X006739Y002385D02*
X006719Y002385D01*
X006719Y002227D02*
X006739Y002227D01*
X006451Y002227D02*
X006382Y002227D01*
X006088Y002068D02*
X006870Y002068D01*
X006870Y001910D02*
X005930Y001910D01*
X006058Y001751D02*
X005771Y001751D01*
X005700Y001593D02*
X005900Y001593D01*
X005810Y001434D02*
X005790Y001434D01*
X005790Y001276D02*
X005810Y001276D01*
X005810Y001117D02*
X005790Y001117D01*
X006790Y001117D02*
X006810Y001117D01*
X006810Y001276D02*
X006790Y001276D01*
X006790Y001434D02*
X006810Y001434D01*
X006870Y001593D02*
X006700Y001593D01*
X006542Y001751D02*
X006870Y001751D01*
X005865Y002325D02*
X005330Y001790D01*
X005097Y001790D01*
X004810Y001503D01*
X004810Y001097D01*
X004877Y001030D01*
X004723Y001030D01*
X004790Y001097D01*
X004790Y001503D01*
X004767Y001526D01*
X005325Y002085D01*
X005415Y002085D01*
X005516Y002127D01*
X005593Y002204D01*
X005635Y002305D01*
X005635Y002415D01*
X005593Y002516D01*
X005575Y002534D01*
X005575Y002762D01*
X005197Y002762D01*
X005197Y002586D01*
X005163Y002552D01*
X005163Y003094D01*
X005081Y003176D01*
X004492Y003176D01*
X004410Y003094D01*
X004410Y002950D01*
X003991Y002950D01*
X003991Y003055D01*
X003909Y003137D01*
X003651Y003137D01*
X003655Y003145D01*
X003655Y003255D01*
X003651Y003263D01*
X003909Y003263D01*
X003991Y003345D01*
X003991Y003450D01*
X004410Y003450D01*
X004410Y003306D01*
X004492Y003224D01*
X005081Y003224D01*
X005163Y003306D01*
X005163Y003894D01*
X005081Y003976D01*
X004605Y003976D01*
X004655Y004026D01*
X004696Y004002D01*
X004742Y003990D01*
X005100Y003990D01*
X005284Y003990D01*
X005267Y003980D01*
X005233Y003947D01*
X005209Y003906D01*
X005197Y003860D01*
X005197Y003638D01*
X005575Y003638D01*
X005575Y003562D01*
X005197Y003562D01*
X005197Y003340D01*
X005209Y003294D01*
X005233Y003253D01*
X005267Y003220D01*
X005301Y003200D01*
X005267Y003180D01*
X005233Y003147D01*
X005209Y003106D01*
X005197Y003060D01*
X005197Y002838D01*
X005575Y002838D01*
X005575Y002762D01*
X005651Y002762D01*
X005651Y002384D01*
X005865Y002384D01*
X005865Y002325D01*
X005766Y002227D02*
X005602Y002227D01*
X005635Y002385D02*
X005651Y002385D01*
X005651Y002544D02*
X005575Y002544D01*
X005575Y002702D02*
X005651Y002702D01*
X005651Y002838D02*
X005575Y002838D01*
X005575Y003216D01*
X005575Y003562D01*
X005651Y003562D01*
X005651Y002838D01*
X005651Y002861D02*
X005575Y002861D01*
X005575Y003019D02*
X005651Y003019D01*
X005651Y003178D02*
X005575Y003178D01*
X005575Y003336D02*
X005651Y003336D01*
X005651Y003495D02*
X005575Y003495D01*
X006030Y003495D02*
X006630Y003495D01*
X006630Y003653D02*
X006030Y003653D01*
X006030Y003812D02*
X006630Y003812D01*
X006630Y003970D02*
X005989Y003970D01*
X005981Y004129D02*
X006630Y004129D01*
X006344Y004287D02*
X006224Y004287D01*
X006224Y004446D02*
X006285Y004446D01*
X006525Y004735D02*
X006224Y005036D01*
X006224Y005370D01*
X006142Y005452D01*
X005672Y005452D01*
X005590Y005370D01*
X005590Y004860D01*
X005650Y004800D01*
X005590Y004740D01*
X005590Y004576D01*
X005579Y004596D01*
X005545Y004629D01*
X005504Y004653D01*
X005458Y004665D01*
X005414Y004665D01*
X005473Y004724D01*
X005515Y004825D01*
X005515Y004935D01*
X005473Y005036D01*
X005396Y005113D01*
X005295Y005155D01*
X005234Y005155D01*
X005010Y005379D01*
X005010Y005923D01*
X005147Y005923D01*
X005147Y006282D01*
X005184Y006282D01*
X005184Y005923D01*
X005406Y005923D01*
X005451Y005935D01*
X005492Y005959D01*
X005526Y005993D01*
X005528Y005996D01*
X005560Y005963D01*
X005688Y005963D01*
X005745Y005906D01*
X005745Y005845D01*
X005787Y005744D01*
X005864Y005667D01*
X005965Y005625D01*
X006075Y005625D01*
X006176Y005667D01*
X006253Y005744D01*
X006295Y005845D01*
X006295Y005955D01*
X006253Y006056D01*
X006191Y006118D01*
X006191Y006555D01*
X006109Y006637D01*
X006030Y006637D01*
X006030Y006813D01*
X006109Y006813D01*
X006191Y006895D01*
X006191Y007222D01*
X006207Y007184D01*
X006284Y007107D01*
X006385Y007065D01*
X006495Y007065D01*
X006596Y007107D01*
X006673Y007184D01*
X006715Y007285D01*
X006715Y007395D01*
X006677Y007487D01*
X006719Y007487D01*
X006719Y007947D01*
X006739Y007947D01*
X006739Y007487D01*
X006870Y007487D01*
X006870Y005749D01*
X006855Y005755D01*
X006745Y005755D01*
X006644Y005713D01*
X006567Y005636D01*
X006525Y005535D01*
X006525Y005425D01*
X006567Y005324D01*
X006630Y005261D01*
X006630Y004729D01*
X006615Y004735D01*
X006525Y004735D01*
X006498Y004763D02*
X006630Y004763D01*
X006630Y004921D02*
X006339Y004921D01*
X006224Y005080D02*
X006630Y005080D01*
X006630Y005238D02*
X006224Y005238D01*
X006198Y005397D02*
X006537Y005397D01*
X006533Y005555D02*
X005010Y005555D01*
X005010Y005397D02*
X005617Y005397D01*
X005590Y005238D02*
X005151Y005238D01*
X005429Y005080D02*
X005590Y005080D01*
X005590Y004921D02*
X005515Y004921D01*
X005489Y004763D02*
X005613Y004763D01*
X005590Y004604D02*
X005570Y004604D01*
X005100Y004328D02*
X005100Y003990D01*
X005100Y004328D01*
X005100Y004328D01*
X005100Y004287D02*
X005100Y004287D01*
X005100Y004129D02*
X005100Y004129D01*
X005087Y003970D02*
X005256Y003970D01*
X005197Y003812D02*
X005163Y003812D01*
X005163Y003653D02*
X005197Y003653D01*
X005197Y003495D02*
X005163Y003495D01*
X005163Y003336D02*
X005198Y003336D01*
X005264Y003178D02*
X003655Y003178D01*
X003982Y003336D02*
X004410Y003336D01*
X004410Y003019D02*
X003991Y003019D01*
X005163Y003019D02*
X005197Y003019D01*
X005197Y002861D02*
X005163Y002861D01*
X005163Y002702D02*
X005197Y002702D01*
X006030Y002702D02*
X006369Y002702D01*
X006369Y002544D02*
X006345Y002544D01*
X006369Y002861D02*
X006030Y002861D01*
X006030Y003019D02*
X006415Y003019D01*
X006630Y003178D02*
X005963Y003178D01*
X006029Y003336D02*
X006630Y003336D01*
X006719Y002861D02*
X006739Y002861D01*
X005608Y002068D02*
X005308Y002068D01*
X005449Y001910D02*
X005150Y001910D01*
X005058Y001751D02*
X004991Y001751D01*
X004900Y001593D02*
X004833Y001593D01*
X004810Y001434D02*
X004790Y001434D01*
X004790Y001276D02*
X004810Y001276D01*
X004810Y001117D02*
X004790Y001117D01*
X002110Y001790D02*
X002097Y001790D01*
X001828Y001521D01*
X001520Y001830D01*
X001320Y001830D01*
X001320Y001320D01*
X001280Y001320D01*
X001280Y001830D01*
X001080Y001830D01*
X001030Y001780D01*
X001030Y002377D01*
X001097Y002310D01*
X001503Y002310D01*
X001790Y002597D01*
X001790Y003003D01*
X001503Y003290D01*
X001097Y003290D01*
X001030Y003223D01*
X001030Y003377D01*
X001097Y003310D01*
X001503Y003310D01*
X001790Y003597D01*
X001790Y004003D01*
X001521Y004272D01*
X001830Y004580D01*
X001830Y004780D01*
X001320Y004780D01*
X001320Y004820D01*
X001830Y004820D01*
X001830Y005020D01*
X001521Y005328D01*
X001790Y005597D01*
X001790Y006003D01*
X001503Y006290D01*
X001097Y006290D01*
X001030Y006223D01*
X001030Y006377D01*
X001097Y006310D01*
X001503Y006310D01*
X001790Y006597D01*
X001790Y007003D01*
X001503Y007290D01*
X001097Y007290D01*
X001030Y007223D01*
X001030Y007377D01*
X001097Y007310D01*
X001503Y007310D01*
X001790Y007597D01*
X001790Y008003D01*
X001503Y008290D01*
X001097Y008290D01*
X001030Y008223D01*
X001030Y008877D01*
X001097Y008810D01*
X001503Y008810D01*
X001790Y009097D01*
X001790Y009503D01*
X001723Y009570D01*
X001877Y009570D01*
X001810Y009503D01*
X001810Y009097D01*
X002097Y008810D01*
X002503Y008810D01*
X002575Y008882D01*
X002607Y008804D01*
X002684Y008727D01*
X002785Y008685D01*
X002875Y008685D01*
X003090Y008470D01*
X003090Y008384D01*
X003007Y008384D01*
X003003Y008388D01*
X002962Y008411D01*
X002916Y008424D01*
X002832Y008424D01*
X002749Y008424D01*
X002703Y008411D01*
X002662Y008388D01*
X002628Y008354D01*
X002605Y008313D01*
X002592Y008267D01*
X002592Y008049D01*
X002832Y008049D01*
X002832Y008424D01*
X002832Y008049D01*
X002832Y008049D01*
X002832Y008049D01*
X002592Y008049D01*
X002592Y007830D01*
X002605Y007784D01*
X002628Y007743D01*
X002662Y007710D01*
X002703Y007686D01*
X002749Y007674D01*
X002832Y007674D01*
X002832Y008049D01*
X002832Y008049D01*
X002832Y007674D01*
X002916Y007674D01*
X002962Y007686D01*
X003003Y007710D01*
X003007Y007714D01*
X003206Y007714D01*
X003216Y007724D01*
X003226Y007714D01*
X003353Y007714D01*
X003345Y007695D01*
X003345Y007585D01*
X003387Y007484D01*
X003464Y007407D01*
X003565Y007365D01*
X003675Y007365D01*
X003776Y007407D01*
X003784Y007415D01*
X003790Y007410D01*
X004065Y007135D01*
X004065Y007045D01*
X004107Y006944D01*
X004184Y006867D01*
X004285Y006825D01*
X004395Y006825D01*
X004496Y006867D01*
X004573Y006944D01*
X004615Y007045D01*
X004615Y007155D01*
X004573Y007256D01*
X004496Y007333D01*
X004395Y007375D01*
X004305Y007375D01*
X004030Y007650D01*
X004030Y007714D01*
X004230Y007714D01*
X004240Y007724D01*
X004250Y007714D01*
X004486Y007714D01*
X004568Y007796D01*
X004568Y007810D01*
X004630Y007810D01*
X004630Y005759D01*
X004589Y005800D01*
X004589Y005802D01*
X004568Y005822D01*
X004568Y006004D01*
X004486Y006086D01*
X004291Y006086D01*
X004315Y006145D01*
X004315Y006255D01*
X004273Y006356D01*
X004196Y006433D01*
X004095Y006475D01*
X003985Y006475D01*
X003884Y006433D01*
X003807Y006356D01*
X003765Y006255D01*
X003765Y006145D01*
X003789Y006086D01*
X003738Y006086D01*
X003730Y006078D01*
X003730Y006821D01*
X003793Y006884D01*
X003835Y006985D01*
X003835Y007095D01*
X003793Y007196D01*
X003716Y007273D01*
X003615Y007315D01*
X003505Y007315D01*
X003404Y007273D01*
X003327Y007196D01*
X003285Y007095D01*
X003285Y006985D01*
X003327Y006884D01*
X003390Y006821D01*
X003390Y006444D01*
X003315Y006475D01*
X003205Y006475D01*
X003104Y006433D01*
X003027Y006356D01*
X002985Y006255D01*
X002985Y006145D01*
X003009Y006086D01*
X002970Y006086D01*
X002960Y006076D01*
X002950Y006086D01*
X002714Y006086D01*
X002632Y006004D01*
X002632Y005788D01*
X002629Y005782D01*
X002632Y005769D01*
X002632Y005498D01*
X002668Y005462D01*
X002478Y005462D01*
X002432Y005450D01*
X002391Y005426D01*
X002358Y005393D01*
X002334Y005352D01*
X002322Y005306D01*
X002322Y005174D01*
X002322Y005042D01*
X002334Y004996D01*
X002358Y004955D01*
X002391Y004922D01*
X002432Y004898D01*
X002478Y004886D01*
X002738Y004886D01*
X002738Y005174D01*
X002322Y005174D01*
X002738Y005174D01*
X002738Y005174D01*
X002738Y005174D01*
X002738Y005373D01*
X002738Y005373D01*
X002738Y005174D01*
X002738Y005174D01*
X002738Y004886D01*
X002937Y004886D01*
X002726Y004674D01*
X002444Y004674D01*
X002362Y004592D01*
X002362Y004260D01*
X002427Y004195D01*
X002425Y004195D01*
X002324Y004153D01*
X002281Y004110D01*
X002221Y004110D01*
X002110Y003999D01*
X002110Y001790D01*
X002058Y001751D02*
X001599Y001751D01*
X001757Y001593D02*
X001900Y001593D01*
X002110Y001910D02*
X001030Y001910D01*
X001030Y002068D02*
X002110Y002068D01*
X002110Y002227D02*
X001030Y002227D01*
X001578Y002385D02*
X002110Y002385D01*
X002110Y002544D02*
X001736Y002544D01*
X001790Y002702D02*
X002110Y002702D01*
X002110Y002861D02*
X001790Y002861D01*
X001774Y003019D02*
X002110Y003019D01*
X002110Y003178D02*
X001615Y003178D01*
X001529Y003336D02*
X002110Y003336D01*
X002110Y003495D02*
X001687Y003495D01*
X001790Y003653D02*
X002110Y003653D01*
X002110Y003812D02*
X001790Y003812D01*
X001790Y003970D02*
X002110Y003970D01*
X002300Y004129D02*
X001664Y004129D01*
X001537Y004287D02*
X002362Y004287D01*
X002362Y004446D02*
X001695Y004446D01*
X001830Y004604D02*
X002374Y004604D01*
X002393Y004921D02*
X001830Y004921D01*
X001830Y004763D02*
X002814Y004763D01*
X002738Y004921D02*
X002738Y004921D01*
X002738Y005080D02*
X002738Y005080D01*
X002738Y005174D02*
X002950Y005174D01*
X002950Y005174D01*
X002738Y005174D01*
X002738Y005174D01*
X002738Y005238D02*
X002738Y005238D01*
X002362Y005397D02*
X001589Y005397D01*
X001748Y005555D02*
X002632Y005555D01*
X002632Y005714D02*
X001790Y005714D01*
X001790Y005872D02*
X002632Y005872D01*
X002659Y006031D02*
X001762Y006031D01*
X001604Y006189D02*
X002985Y006189D01*
X003023Y006348D02*
X001540Y006348D01*
X001699Y006506D02*
X003390Y006506D01*
X003390Y006665D02*
X001790Y006665D01*
X001790Y006823D02*
X003388Y006823D01*
X003287Y006982D02*
X001790Y006982D01*
X001653Y007140D02*
X003304Y007140D01*
X003465Y007299D02*
X001030Y007299D01*
X001650Y007457D02*
X003414Y007457D01*
X003655Y007299D02*
X003901Y007299D01*
X003816Y007140D02*
X004060Y007140D01*
X004091Y006982D02*
X003833Y006982D01*
X003732Y006823D02*
X004630Y006823D01*
X004630Y006665D02*
X003730Y006665D01*
X003730Y006506D02*
X004630Y006506D01*
X004630Y006348D02*
X004277Y006348D01*
X004315Y006189D02*
X004630Y006189D01*
X004630Y006031D02*
X004541Y006031D01*
X004568Y005872D02*
X004630Y005872D01*
X005010Y005872D02*
X005745Y005872D01*
X005818Y005714D02*
X005010Y005714D01*
X005147Y006031D02*
X005184Y006031D01*
X005184Y006189D02*
X005147Y006189D01*
X005147Y006318D02*
X005147Y006677D01*
X005010Y006677D01*
X005010Y006773D01*
X005147Y006773D01*
X005147Y007132D01*
X005184Y007132D01*
X005184Y006773D01*
X005406Y006773D01*
X005451Y006785D01*
X005492Y006809D01*
X005526Y006843D01*
X005528Y006846D01*
X005560Y006813D01*
X005650Y006813D01*
X005650Y006637D01*
X005560Y006637D01*
X005528Y006604D01*
X005526Y006607D01*
X005492Y006641D01*
X005451Y006665D01*
X005406Y006677D01*
X005184Y006677D01*
X005184Y006318D01*
X005147Y006318D01*
X005147Y006348D02*
X005184Y006348D01*
X005184Y006506D02*
X005147Y006506D01*
X005147Y006665D02*
X005184Y006665D01*
X005184Y006823D02*
X005147Y006823D01*
X005147Y006982D02*
X005184Y006982D01*
X005506Y006823D02*
X005550Y006823D01*
X005451Y006665D02*
X005650Y006665D01*
X006030Y006665D02*
X006870Y006665D01*
X006870Y006823D02*
X006119Y006823D01*
X006191Y006982D02*
X006870Y006982D01*
X006870Y007140D02*
X006629Y007140D01*
X006715Y007299D02*
X006870Y007299D01*
X006870Y007457D02*
X006689Y007457D01*
X006719Y007616D02*
X006739Y007616D01*
X006739Y007774D02*
X006719Y007774D01*
X006719Y007933D02*
X006739Y007933D01*
X006739Y007947D02*
X007000Y007947D01*
X007000Y007967D01*
X006739Y007967D01*
X006739Y007947D01*
X006719Y007947D02*
X006430Y007947D01*
X006430Y007967D01*
X006719Y007967D01*
X006719Y007947D01*
X006719Y007967D02*
X006719Y008428D01*
X006580Y008428D01*
X006535Y008419D01*
X006492Y008402D01*
X006489Y008400D01*
X006416Y008473D01*
X006315Y008515D01*
X006205Y008515D01*
X006104Y008473D01*
X006027Y008396D01*
X006002Y008337D01*
X005650Y008337D01*
X005650Y008957D01*
X005790Y009097D01*
X005790Y009503D01*
X005723Y009570D01*
X005877Y009570D01*
X005810Y009503D01*
X005810Y009097D01*
X006097Y008810D01*
X006503Y008810D01*
X006790Y009097D01*
X006790Y009503D01*
X006723Y009570D01*
X006877Y009570D01*
X006810Y009503D01*
X006810Y009097D01*
X007097Y008810D01*
X007503Y008810D01*
X007790Y009097D01*
X007790Y009503D01*
X007723Y009570D01*
X007877Y009570D01*
X007810Y009503D01*
X007810Y009097D01*
X008097Y008810D01*
X008503Y008810D01*
X008790Y009097D01*
X008790Y009503D01*
X008723Y009570D01*
X008877Y009570D01*
X008810Y009503D01*
X008810Y009097D01*
X009097Y008810D01*
X009210Y008810D01*
X009210Y008388D01*
X008885Y008388D01*
X008796Y008300D01*
X008707Y008388D01*
X008295Y008388D01*
X008206Y008300D01*
X008117Y008388D01*
X007704Y008388D01*
X007615Y008300D01*
X007526Y008388D01*
X007114Y008388D01*
X007050Y008325D01*
X007037Y008344D01*
X007004Y008376D01*
X006966Y008402D01*
X006924Y008419D01*
X006878Y008428D01*
X006739Y008428D01*
X006739Y007967D01*
X006719Y007967D01*
X006719Y008091D02*
X006739Y008091D01*
X006739Y008250D02*
X006719Y008250D01*
X006719Y008408D02*
X006739Y008408D01*
X006951Y008408D02*
X009210Y008408D01*
X009210Y008567D02*
X005650Y008567D01*
X005650Y008725D02*
X009210Y008725D01*
X009024Y008884D02*
X008576Y008884D01*
X008735Y009042D02*
X008865Y009042D01*
X008810Y009201D02*
X008790Y009201D01*
X008790Y009359D02*
X008810Y009359D01*
X008825Y009518D02*
X008775Y009518D01*
X007865Y009042D02*
X007735Y009042D01*
X007576Y008884D02*
X008024Y008884D01*
X007810Y009201D02*
X007790Y009201D01*
X007790Y009359D02*
X007810Y009359D01*
X007825Y009518D02*
X007775Y009518D01*
X006825Y009518D02*
X006775Y009518D01*
X006790Y009359D02*
X006810Y009359D01*
X006810Y009201D02*
X006790Y009201D01*
X006735Y009042D02*
X006865Y009042D01*
X007024Y008884D02*
X006576Y008884D01*
X006024Y008884D02*
X005650Y008884D01*
X005735Y009042D02*
X005865Y009042D01*
X005810Y009201D02*
X005790Y009201D01*
X005790Y009359D02*
X005810Y009359D01*
X005825Y009518D02*
X005775Y009518D01*
X005650Y008408D02*
X006039Y008408D01*
X006481Y008408D02*
X006508Y008408D01*
X004630Y007774D02*
X004546Y007774D01*
X004630Y007616D02*
X004065Y007616D01*
X004223Y007457D02*
X004630Y007457D01*
X004630Y007299D02*
X004530Y007299D01*
X004615Y007140D02*
X004630Y007140D01*
X004630Y006982D02*
X004589Y006982D01*
X003803Y006348D02*
X003730Y006348D01*
X003730Y006189D02*
X003765Y006189D01*
X002322Y005238D02*
X001612Y005238D01*
X001770Y005080D02*
X002322Y005080D01*
X001060Y006348D02*
X001030Y006348D01*
X001790Y007616D02*
X003345Y007616D01*
X002832Y007774D02*
X002832Y007774D01*
X002832Y007933D02*
X002832Y007933D01*
X002832Y008091D02*
X002832Y008091D01*
X002832Y008250D02*
X002832Y008250D01*
X002832Y008408D02*
X002832Y008408D01*
X002697Y008408D02*
X001030Y008408D01*
X001030Y008250D02*
X001057Y008250D01*
X001543Y008250D02*
X002592Y008250D01*
X002592Y008091D02*
X001702Y008091D01*
X001790Y007933D02*
X002592Y007933D01*
X002610Y007774D02*
X001790Y007774D01*
X002968Y008408D02*
X003090Y008408D01*
X002993Y008567D02*
X001030Y008567D01*
X001030Y008725D02*
X002689Y008725D01*
X002024Y008884D02*
X001576Y008884D01*
X001735Y009042D02*
X001865Y009042D01*
X001810Y009201D02*
X001790Y009201D01*
X001790Y009359D02*
X001810Y009359D01*
X001825Y009518D02*
X001775Y009518D01*
X006191Y007140D02*
X006251Y007140D01*
X006191Y006506D02*
X006870Y006506D01*
X006870Y006348D02*
X006191Y006348D01*
X006191Y006189D02*
X006870Y006189D01*
X006870Y006031D02*
X006264Y006031D01*
X006295Y005872D02*
X006870Y005872D01*
X006645Y005714D02*
X006222Y005714D01*
X004655Y004026D02*
X004655Y004026D01*
X001071Y003336D02*
X001030Y003336D01*
X001280Y001751D02*
X001320Y001751D01*
X001320Y001593D02*
X001280Y001593D01*
X001280Y001434D02*
X001320Y001434D01*
X012775Y009518D02*
X014523Y009518D01*
D22*
X014420Y007940D02*
X014420Y006740D01*
X013820Y006740D01*
X013520Y006440D02*
X013520Y007640D01*
X013760Y007880D01*
X013816Y007898D01*
X014420Y006740D02*
X014420Y002660D01*
X007340Y002720D02*
X007320Y002702D01*
X007340Y002720D02*
X007340Y004580D01*
X005907Y004485D02*
X005900Y004460D01*
X005720Y004280D01*
X005720Y004040D01*
X005600Y003800D02*
X005600Y003620D01*
X005613Y003600D01*
X005660Y003560D01*
X005660Y002840D01*
X005613Y002800D01*
X005660Y002780D01*
X005660Y002660D01*
X006680Y002660D01*
X005600Y003800D02*
X005120Y004280D01*
X005100Y004328D01*
X005120Y004340D01*
X005540Y004760D01*
X005540Y005600D01*
X006080Y005600D01*
X006740Y006260D01*
X006740Y006740D01*
X006740Y007940D01*
X005840Y008000D02*
X005835Y008000D01*
X005840Y008000D02*
X005840Y007160D01*
X005835Y007150D01*
X005840Y007100D01*
X005840Y006320D01*
X005835Y006300D01*
X005840Y006260D01*
X005840Y006080D01*
X006020Y005900D01*
X005540Y005600D02*
X005180Y005600D01*
X005180Y006260D01*
X005165Y006300D01*
X005180Y006320D01*
X005180Y007100D01*
X005165Y007150D01*
X005165Y008000D02*
X004820Y008000D01*
X004820Y005300D01*
X005240Y004880D01*
X004640Y004280D02*
X004520Y004160D01*
X003800Y004160D01*
X003440Y004160D01*
X003200Y003920D01*
X002480Y003920D01*
X002300Y003920D01*
X002300Y001300D01*
X001760Y001760D02*
X001760Y004280D01*
X002660Y005180D01*
X002738Y005174D01*
X002780Y005180D01*
X002738Y005174D02*
X002720Y005180D01*
X002660Y005240D01*
X002660Y007880D01*
X002780Y008000D01*
X002832Y008049D01*
X004368Y008049D02*
X004400Y008000D01*
X004820Y008000D01*
X004368Y005751D02*
X004400Y005720D01*
X004640Y005480D01*
X004640Y004280D01*
X003800Y004160D02*
X003800Y004760D01*
X003762Y004800D01*
X003140Y004820D02*
X002780Y004460D01*
X002738Y004426D01*
X003140Y004820D02*
X003140Y005240D01*
X003440Y005240D01*
X003140Y005240D02*
X003140Y005420D01*
X002960Y005420D01*
X002900Y005480D01*
X002900Y005660D01*
X002840Y005720D01*
X002832Y005751D01*
X001760Y004340D02*
X001300Y004800D01*
X001760Y004340D02*
X001760Y004280D01*
X002965Y003600D02*
X003020Y003560D01*
X003380Y003200D01*
X001760Y001760D02*
X001300Y001300D01*
M02*
