G75*
%MOIN*%
%OFA0B0*%
%FSLAX24Y24*%
%IPPOS*%
%LPD*%
%AMOC8*
5,1,8,0,0,1.08239X$1,22.5*
%
%ADD10R,0.0472X0.0217*%
%ADD11R,0.0472X0.0472*%
%ADD12R,0.0433X0.0394*%
%ADD13R,0.0354X0.0394*%
%ADD14R,0.0669X0.0315*%
%ADD15R,0.0120X0.0390*%
%ADD16C,0.0108*%
%ADD17C,0.0072*%
D10*
X002738Y004426D03*
X003762Y004800D03*
X002738Y005174D03*
D11*
X004787Y003600D03*
X005613Y003600D03*
X005613Y002800D03*
X004787Y002800D03*
D12*
X002965Y002800D03*
X003635Y002800D03*
X003635Y003600D03*
X002965Y003600D03*
X005165Y006300D03*
X005835Y006300D03*
X005835Y007150D03*
X005165Y007150D03*
X005165Y008000D03*
X005835Y008000D03*
D13*
X005907Y005115D03*
X005907Y004485D03*
X004293Y004485D03*
X004293Y005115D03*
D14*
X005100Y004328D03*
D15*
X004368Y005751D03*
X004112Y005751D03*
X003856Y005751D03*
X003600Y005751D03*
X003344Y005751D03*
X003088Y005751D03*
X002832Y005751D03*
X002832Y008049D03*
X003088Y008049D03*
X003344Y008049D03*
X003600Y008049D03*
X003856Y008049D03*
X004112Y008049D03*
X004368Y008049D03*
D16*
X006855Y008194D02*
X006855Y007720D01*
X006603Y007720D01*
X006603Y008194D01*
X006855Y008194D01*
X006855Y007827D02*
X006603Y007827D01*
X006603Y007934D02*
X006855Y007934D01*
X006855Y008041D02*
X006603Y008041D01*
X006603Y008148D02*
X006855Y008148D01*
X007446Y008194D02*
X007446Y007602D01*
X007194Y007602D01*
X007194Y008194D01*
X007446Y008194D01*
X007446Y007709D02*
X007194Y007709D01*
X007194Y007816D02*
X007446Y007816D01*
X007446Y007923D02*
X007194Y007923D01*
X007194Y008030D02*
X007446Y008030D01*
X007446Y008137D02*
X007194Y008137D01*
X008036Y008194D02*
X008036Y007602D01*
X007784Y007602D01*
X007784Y008194D01*
X008036Y008194D01*
X008036Y007709D02*
X007784Y007709D01*
X007784Y007816D02*
X008036Y007816D01*
X008036Y007923D02*
X007784Y007923D01*
X007784Y008030D02*
X008036Y008030D01*
X008036Y008137D02*
X007784Y008137D01*
X008627Y008194D02*
X008627Y007602D01*
X008375Y007602D01*
X008375Y008194D01*
X008627Y008194D01*
X008627Y007709D02*
X008375Y007709D01*
X008375Y007816D02*
X008627Y007816D01*
X008627Y007923D02*
X008375Y007923D01*
X008375Y008030D02*
X008627Y008030D01*
X008627Y008137D02*
X008375Y008137D01*
X009218Y008194D02*
X009218Y007602D01*
X008966Y007602D01*
X008966Y008194D01*
X009218Y008194D01*
X009218Y007709D02*
X008966Y007709D01*
X008966Y007816D02*
X009218Y007816D01*
X009218Y007923D02*
X008966Y007923D01*
X008966Y008030D02*
X009218Y008030D01*
X009218Y008137D02*
X008966Y008137D01*
X010399Y008194D02*
X010399Y007602D01*
X010147Y007602D01*
X010147Y008194D01*
X010399Y008194D01*
X010399Y007709D02*
X010147Y007709D01*
X010147Y007816D02*
X010399Y007816D01*
X010399Y007923D02*
X010147Y007923D01*
X010147Y008030D02*
X010399Y008030D01*
X010399Y008137D02*
X010147Y008137D01*
X010989Y008194D02*
X010989Y007602D01*
X010737Y007602D01*
X010737Y008194D01*
X010989Y008194D01*
X010989Y007709D02*
X010737Y007709D01*
X010737Y007816D02*
X010989Y007816D01*
X010989Y007923D02*
X010737Y007923D01*
X010737Y008030D02*
X010989Y008030D01*
X010989Y008137D02*
X010737Y008137D01*
X011580Y008194D02*
X011580Y007602D01*
X011328Y007602D01*
X011328Y008194D01*
X011580Y008194D01*
X011580Y007709D02*
X011328Y007709D01*
X011328Y007816D02*
X011580Y007816D01*
X011580Y007923D02*
X011328Y007923D01*
X011328Y008030D02*
X011580Y008030D01*
X011580Y008137D02*
X011328Y008137D01*
X012170Y008194D02*
X012170Y007602D01*
X011918Y007602D01*
X011918Y008194D01*
X012170Y008194D01*
X012170Y007709D02*
X011918Y007709D01*
X011918Y007816D02*
X012170Y007816D01*
X012170Y007923D02*
X011918Y007923D01*
X011918Y008030D02*
X012170Y008030D01*
X012170Y008137D02*
X011918Y008137D01*
X012761Y008194D02*
X012761Y007602D01*
X012509Y007602D01*
X012509Y008194D01*
X012761Y008194D01*
X012761Y007709D02*
X012509Y007709D01*
X012509Y007816D02*
X012761Y007816D01*
X012761Y007923D02*
X012509Y007923D01*
X012509Y008030D02*
X012761Y008030D01*
X012761Y008137D02*
X012509Y008137D01*
X013351Y008194D02*
X013351Y007602D01*
X013099Y007602D01*
X013099Y008194D01*
X013351Y008194D01*
X013351Y007709D02*
X013099Y007709D01*
X013099Y007816D02*
X013351Y007816D01*
X013351Y007923D02*
X013099Y007923D01*
X013099Y008030D02*
X013351Y008030D01*
X013351Y008137D02*
X013099Y008137D01*
X013942Y008194D02*
X013942Y007602D01*
X013690Y007602D01*
X013690Y008194D01*
X013942Y008194D01*
X013942Y007709D02*
X013690Y007709D01*
X013690Y007816D02*
X013942Y007816D01*
X013942Y007923D02*
X013690Y007923D01*
X013690Y008030D02*
X013942Y008030D01*
X013942Y008137D02*
X013690Y008137D01*
X014532Y008194D02*
X014532Y007720D01*
X014280Y007720D01*
X014280Y008194D01*
X014532Y008194D01*
X014532Y007827D02*
X014280Y007827D01*
X014280Y007934D02*
X014532Y007934D01*
X014532Y008041D02*
X014280Y008041D01*
X014280Y008148D02*
X014532Y008148D01*
X016079Y005765D02*
X016553Y005765D01*
X016079Y005765D02*
X016079Y006017D01*
X016553Y006017D01*
X016553Y005765D01*
X016553Y005872D02*
X016079Y005872D01*
X016079Y005979D02*
X016553Y005979D01*
X016553Y005174D02*
X015961Y005174D01*
X015961Y005426D01*
X016553Y005426D01*
X016553Y005174D01*
X016553Y005281D02*
X015961Y005281D01*
X015961Y005388D02*
X016553Y005388D01*
X016553Y004583D02*
X016079Y004583D01*
X016079Y004835D01*
X016553Y004835D01*
X016553Y004583D01*
X016553Y004690D02*
X016079Y004690D01*
X016079Y004797D02*
X016553Y004797D01*
X014532Y002880D02*
X014532Y002406D01*
X014280Y002406D01*
X014280Y002880D01*
X014532Y002880D01*
X014532Y002513D02*
X014280Y002513D01*
X014280Y002620D02*
X014532Y002620D01*
X014532Y002727D02*
X014280Y002727D01*
X014280Y002834D02*
X014532Y002834D01*
X013942Y002998D02*
X013942Y002406D01*
X013690Y002406D01*
X013690Y002998D01*
X013942Y002998D01*
X013942Y002513D02*
X013690Y002513D01*
X013690Y002620D02*
X013942Y002620D01*
X013942Y002727D02*
X013690Y002727D01*
X013690Y002834D02*
X013942Y002834D01*
X013942Y002941D02*
X013690Y002941D01*
X013351Y002998D02*
X013351Y002406D01*
X013099Y002406D01*
X013099Y002998D01*
X013351Y002998D01*
X013351Y002513D02*
X013099Y002513D01*
X013099Y002620D02*
X013351Y002620D01*
X013351Y002727D02*
X013099Y002727D01*
X013099Y002834D02*
X013351Y002834D01*
X013351Y002941D02*
X013099Y002941D01*
X012761Y002998D02*
X012761Y002406D01*
X012509Y002406D01*
X012509Y002998D01*
X012761Y002998D01*
X012761Y002513D02*
X012509Y002513D01*
X012509Y002620D02*
X012761Y002620D01*
X012761Y002727D02*
X012509Y002727D01*
X012509Y002834D02*
X012761Y002834D01*
X012761Y002941D02*
X012509Y002941D01*
X012170Y002998D02*
X012170Y002406D01*
X011918Y002406D01*
X011918Y002998D01*
X012170Y002998D01*
X012170Y002513D02*
X011918Y002513D01*
X011918Y002620D02*
X012170Y002620D01*
X012170Y002727D02*
X011918Y002727D01*
X011918Y002834D02*
X012170Y002834D01*
X012170Y002941D02*
X011918Y002941D01*
X011580Y002998D02*
X011580Y002406D01*
X011328Y002406D01*
X011328Y002998D01*
X011580Y002998D01*
X011580Y002513D02*
X011328Y002513D01*
X011328Y002620D02*
X011580Y002620D01*
X011580Y002727D02*
X011328Y002727D01*
X011328Y002834D02*
X011580Y002834D01*
X011580Y002941D02*
X011328Y002941D01*
X010989Y002998D02*
X010989Y002406D01*
X010737Y002406D01*
X010737Y002998D01*
X010989Y002998D01*
X010989Y002513D02*
X010737Y002513D01*
X010737Y002620D02*
X010989Y002620D01*
X010989Y002727D02*
X010737Y002727D01*
X010737Y002834D02*
X010989Y002834D01*
X010989Y002941D02*
X010737Y002941D01*
X010399Y002998D02*
X010399Y002406D01*
X010147Y002406D01*
X010147Y002998D01*
X010399Y002998D01*
X010399Y002513D02*
X010147Y002513D01*
X010147Y002620D02*
X010399Y002620D01*
X010399Y002727D02*
X010147Y002727D01*
X010147Y002834D02*
X010399Y002834D01*
X010399Y002941D02*
X010147Y002941D01*
X009808Y002998D02*
X009808Y002406D01*
X009556Y002406D01*
X009556Y002998D01*
X009808Y002998D01*
X009808Y002513D02*
X009556Y002513D01*
X009556Y002620D02*
X009808Y002620D01*
X009808Y002727D02*
X009556Y002727D01*
X009556Y002834D02*
X009808Y002834D01*
X009808Y002941D02*
X009556Y002941D01*
X009218Y002998D02*
X009218Y002406D01*
X008966Y002406D01*
X008966Y002998D01*
X009218Y002998D01*
X009218Y002513D02*
X008966Y002513D01*
X008966Y002620D02*
X009218Y002620D01*
X009218Y002727D02*
X008966Y002727D01*
X008966Y002834D02*
X009218Y002834D01*
X009218Y002941D02*
X008966Y002941D01*
X008627Y002998D02*
X008627Y002406D01*
X008375Y002406D01*
X008375Y002998D01*
X008627Y002998D01*
X008627Y002513D02*
X008375Y002513D01*
X008375Y002620D02*
X008627Y002620D01*
X008627Y002727D02*
X008375Y002727D01*
X008375Y002834D02*
X008627Y002834D01*
X008627Y002941D02*
X008375Y002941D01*
X008036Y002998D02*
X008036Y002406D01*
X007784Y002406D01*
X007784Y002998D01*
X008036Y002998D01*
X008036Y002513D02*
X007784Y002513D01*
X007784Y002620D02*
X008036Y002620D01*
X008036Y002727D02*
X007784Y002727D01*
X007784Y002834D02*
X008036Y002834D01*
X008036Y002941D02*
X007784Y002941D01*
X007446Y002998D02*
X007446Y002406D01*
X007194Y002406D01*
X007194Y002998D01*
X007446Y002998D01*
X007446Y002513D02*
X007194Y002513D01*
X007194Y002620D02*
X007446Y002620D01*
X007446Y002727D02*
X007194Y002727D01*
X007194Y002834D02*
X007446Y002834D01*
X007446Y002941D02*
X007194Y002941D01*
X006855Y002880D02*
X006855Y002406D01*
X006603Y002406D01*
X006603Y002880D01*
X006855Y002880D01*
X006855Y002513D02*
X006603Y002513D01*
X006603Y002620D02*
X006855Y002620D01*
X006855Y002727D02*
X006603Y002727D01*
X006603Y002834D02*
X006855Y002834D01*
D17*
X009826Y007584D02*
X009826Y008212D01*
X009826Y007584D02*
X009538Y007584D01*
X009538Y008212D01*
X009826Y008212D01*
X009826Y007655D02*
X009538Y007655D01*
X009538Y007726D02*
X009826Y007726D01*
X009826Y007797D02*
X009538Y007797D01*
X009538Y007868D02*
X009826Y007868D01*
X009826Y007939D02*
X009538Y007939D01*
X009538Y008010D02*
X009826Y008010D01*
X009826Y008081D02*
X009538Y008081D01*
X009538Y008152D02*
X009826Y008152D01*
M02*
