G75*
%MOIN*%
%OFA0B0*%
%FSLAX24Y24*%
%IPPOS*%
%LPD*%
%AMOC8*
5,1,8,0,0,1.08239X$1,22.5*
%
%ADD10OC8,0.0780*%
%ADD11R,0.0552X0.0297*%
%ADD12R,0.0552X0.0552*%
%ADD13R,0.0513X0.0474*%
%ADD14R,0.0434X0.0474*%
%ADD15R,0.0749X0.0395*%
%ADD16R,0.0200X0.0470*%
%ADD17C,0.0132*%
%ADD18C,0.0088*%
D10*
X001300Y001300D03*
X002300Y001300D03*
X003300Y001300D03*
X004300Y001300D03*
X005300Y001300D03*
X006300Y001300D03*
X007300Y001300D03*
X008300Y001300D03*
X009300Y001300D03*
X010300Y001300D03*
X011300Y001300D03*
X012300Y001300D03*
X001300Y002800D03*
X001300Y003800D03*
X001300Y004800D03*
X001300Y005800D03*
X001300Y006800D03*
X001300Y007800D03*
X001300Y009300D03*
X002300Y009300D03*
X003300Y009300D03*
X004300Y009300D03*
X005300Y009300D03*
X006300Y009300D03*
X007300Y009300D03*
X008300Y009300D03*
X009300Y009300D03*
X010300Y009300D03*
X011300Y009300D03*
X012300Y009300D03*
D11*
X003762Y004800D03*
X002738Y004426D03*
X002738Y005174D03*
D12*
X004787Y003600D03*
X005613Y003600D03*
X005613Y002800D03*
X004787Y002800D03*
D13*
X003635Y002800D03*
X002965Y002800D03*
X002965Y003600D03*
X003635Y003600D03*
X005165Y006300D03*
X005835Y006300D03*
X005835Y007150D03*
X005165Y007150D03*
X005165Y008000D03*
X005835Y008000D03*
D14*
X005907Y005115D03*
X005907Y004485D03*
X004293Y004485D03*
X004293Y005115D03*
D15*
X005100Y004328D03*
D16*
X004368Y005751D03*
X004112Y005751D03*
X003856Y005751D03*
X003600Y005751D03*
X003344Y005751D03*
X003088Y005751D03*
X002832Y005751D03*
X002832Y008049D03*
X003088Y008049D03*
X003344Y008049D03*
X003600Y008049D03*
X003856Y008049D03*
X004112Y008049D03*
X004368Y008049D03*
D17*
X006883Y008222D02*
X006883Y007692D01*
X006575Y007692D01*
X006575Y008222D01*
X006883Y008222D01*
X006883Y007823D02*
X006575Y007823D01*
X006575Y007954D02*
X006883Y007954D01*
X006883Y008085D02*
X006575Y008085D01*
X006575Y008216D02*
X006883Y008216D01*
X007474Y008222D02*
X007474Y007574D01*
X007166Y007574D01*
X007166Y008222D01*
X007474Y008222D01*
X007474Y007705D02*
X007166Y007705D01*
X007166Y007836D02*
X007474Y007836D01*
X007474Y007967D02*
X007166Y007967D01*
X007166Y008098D02*
X007474Y008098D01*
X008064Y008222D02*
X008064Y007574D01*
X007756Y007574D01*
X007756Y008222D01*
X008064Y008222D01*
X008064Y007705D02*
X007756Y007705D01*
X007756Y007836D02*
X008064Y007836D01*
X008064Y007967D02*
X007756Y007967D01*
X007756Y008098D02*
X008064Y008098D01*
X008655Y008222D02*
X008655Y007574D01*
X008347Y007574D01*
X008347Y008222D01*
X008655Y008222D01*
X008655Y007705D02*
X008347Y007705D01*
X008347Y007836D02*
X008655Y007836D01*
X008655Y007967D02*
X008347Y007967D01*
X008347Y008098D02*
X008655Y008098D01*
X009246Y008222D02*
X009246Y007574D01*
X008938Y007574D01*
X008938Y008222D01*
X009246Y008222D01*
X009246Y007705D02*
X008938Y007705D01*
X008938Y007836D02*
X009246Y007836D01*
X009246Y007967D02*
X008938Y007967D01*
X008938Y008098D02*
X009246Y008098D01*
X010427Y008222D02*
X010427Y007574D01*
X010119Y007574D01*
X010119Y008222D01*
X010427Y008222D01*
X010427Y007705D02*
X010119Y007705D01*
X010119Y007836D02*
X010427Y007836D01*
X010427Y007967D02*
X010119Y007967D01*
X010119Y008098D02*
X010427Y008098D01*
X011017Y008222D02*
X011017Y007574D01*
X010709Y007574D01*
X010709Y008222D01*
X011017Y008222D01*
X011017Y007705D02*
X010709Y007705D01*
X010709Y007836D02*
X011017Y007836D01*
X011017Y007967D02*
X010709Y007967D01*
X010709Y008098D02*
X011017Y008098D01*
X011608Y008222D02*
X011608Y007574D01*
X011300Y007574D01*
X011300Y008222D01*
X011608Y008222D01*
X011608Y007705D02*
X011300Y007705D01*
X011300Y007836D02*
X011608Y007836D01*
X011608Y007967D02*
X011300Y007967D01*
X011300Y008098D02*
X011608Y008098D01*
X012198Y008222D02*
X012198Y007574D01*
X011890Y007574D01*
X011890Y008222D01*
X012198Y008222D01*
X012198Y007705D02*
X011890Y007705D01*
X011890Y007836D02*
X012198Y007836D01*
X012198Y007967D02*
X011890Y007967D01*
X011890Y008098D02*
X012198Y008098D01*
X012789Y008222D02*
X012789Y007574D01*
X012481Y007574D01*
X012481Y008222D01*
X012789Y008222D01*
X012789Y007705D02*
X012481Y007705D01*
X012481Y007836D02*
X012789Y007836D01*
X012789Y007967D02*
X012481Y007967D01*
X012481Y008098D02*
X012789Y008098D01*
X013379Y008222D02*
X013379Y007574D01*
X013071Y007574D01*
X013071Y008222D01*
X013379Y008222D01*
X013379Y007705D02*
X013071Y007705D01*
X013071Y007836D02*
X013379Y007836D01*
X013379Y007967D02*
X013071Y007967D01*
X013071Y008098D02*
X013379Y008098D01*
X013970Y008222D02*
X013970Y007574D01*
X013662Y007574D01*
X013662Y008222D01*
X013970Y008222D01*
X013970Y007705D02*
X013662Y007705D01*
X013662Y007836D02*
X013970Y007836D01*
X013970Y007967D02*
X013662Y007967D01*
X013662Y008098D02*
X013970Y008098D01*
X014560Y008222D02*
X014560Y007692D01*
X014252Y007692D01*
X014252Y008222D01*
X014560Y008222D01*
X014560Y007823D02*
X014252Y007823D01*
X014252Y007954D02*
X014560Y007954D01*
X014560Y008085D02*
X014252Y008085D01*
X014252Y008216D02*
X014560Y008216D01*
X016051Y005737D02*
X016581Y005737D01*
X016051Y005737D02*
X016051Y006045D01*
X016581Y006045D01*
X016581Y005737D01*
X016581Y005868D02*
X016051Y005868D01*
X016051Y005999D02*
X016581Y005999D01*
X016581Y005146D02*
X015933Y005146D01*
X015933Y005454D01*
X016581Y005454D01*
X016581Y005146D01*
X016581Y005277D02*
X015933Y005277D01*
X015933Y005408D02*
X016581Y005408D01*
X016581Y004555D02*
X016051Y004555D01*
X016051Y004863D01*
X016581Y004863D01*
X016581Y004555D01*
X016581Y004686D02*
X016051Y004686D01*
X016051Y004817D02*
X016581Y004817D01*
X014560Y002908D02*
X014560Y002378D01*
X014252Y002378D01*
X014252Y002908D01*
X014560Y002908D01*
X014560Y002509D02*
X014252Y002509D01*
X014252Y002640D02*
X014560Y002640D01*
X014560Y002771D02*
X014252Y002771D01*
X014252Y002902D02*
X014560Y002902D01*
X013970Y003026D02*
X013970Y002378D01*
X013662Y002378D01*
X013662Y003026D01*
X013970Y003026D01*
X013970Y002509D02*
X013662Y002509D01*
X013662Y002640D02*
X013970Y002640D01*
X013970Y002771D02*
X013662Y002771D01*
X013662Y002902D02*
X013970Y002902D01*
X013379Y003026D02*
X013379Y002378D01*
X013071Y002378D01*
X013071Y003026D01*
X013379Y003026D01*
X013379Y002509D02*
X013071Y002509D01*
X013071Y002640D02*
X013379Y002640D01*
X013379Y002771D02*
X013071Y002771D01*
X013071Y002902D02*
X013379Y002902D01*
X012789Y003026D02*
X012789Y002378D01*
X012481Y002378D01*
X012481Y003026D01*
X012789Y003026D01*
X012789Y002509D02*
X012481Y002509D01*
X012481Y002640D02*
X012789Y002640D01*
X012789Y002771D02*
X012481Y002771D01*
X012481Y002902D02*
X012789Y002902D01*
X012198Y003026D02*
X012198Y002378D01*
X011890Y002378D01*
X011890Y003026D01*
X012198Y003026D01*
X012198Y002509D02*
X011890Y002509D01*
X011890Y002640D02*
X012198Y002640D01*
X012198Y002771D02*
X011890Y002771D01*
X011890Y002902D02*
X012198Y002902D01*
X011608Y003026D02*
X011608Y002378D01*
X011300Y002378D01*
X011300Y003026D01*
X011608Y003026D01*
X011608Y002509D02*
X011300Y002509D01*
X011300Y002640D02*
X011608Y002640D01*
X011608Y002771D02*
X011300Y002771D01*
X011300Y002902D02*
X011608Y002902D01*
X011017Y003026D02*
X011017Y002378D01*
X010709Y002378D01*
X010709Y003026D01*
X011017Y003026D01*
X011017Y002509D02*
X010709Y002509D01*
X010709Y002640D02*
X011017Y002640D01*
X011017Y002771D02*
X010709Y002771D01*
X010709Y002902D02*
X011017Y002902D01*
X010427Y003026D02*
X010427Y002378D01*
X010119Y002378D01*
X010119Y003026D01*
X010427Y003026D01*
X010427Y002509D02*
X010119Y002509D01*
X010119Y002640D02*
X010427Y002640D01*
X010427Y002771D02*
X010119Y002771D01*
X010119Y002902D02*
X010427Y002902D01*
X009836Y003026D02*
X009836Y002378D01*
X009528Y002378D01*
X009528Y003026D01*
X009836Y003026D01*
X009836Y002509D02*
X009528Y002509D01*
X009528Y002640D02*
X009836Y002640D01*
X009836Y002771D02*
X009528Y002771D01*
X009528Y002902D02*
X009836Y002902D01*
X009246Y003026D02*
X009246Y002378D01*
X008938Y002378D01*
X008938Y003026D01*
X009246Y003026D01*
X009246Y002509D02*
X008938Y002509D01*
X008938Y002640D02*
X009246Y002640D01*
X009246Y002771D02*
X008938Y002771D01*
X008938Y002902D02*
X009246Y002902D01*
X008655Y003026D02*
X008655Y002378D01*
X008347Y002378D01*
X008347Y003026D01*
X008655Y003026D01*
X008655Y002509D02*
X008347Y002509D01*
X008347Y002640D02*
X008655Y002640D01*
X008655Y002771D02*
X008347Y002771D01*
X008347Y002902D02*
X008655Y002902D01*
X008064Y003026D02*
X008064Y002378D01*
X007756Y002378D01*
X007756Y003026D01*
X008064Y003026D01*
X008064Y002509D02*
X007756Y002509D01*
X007756Y002640D02*
X008064Y002640D01*
X008064Y002771D02*
X007756Y002771D01*
X007756Y002902D02*
X008064Y002902D01*
X007474Y003026D02*
X007474Y002378D01*
X007166Y002378D01*
X007166Y003026D01*
X007474Y003026D01*
X007474Y002509D02*
X007166Y002509D01*
X007166Y002640D02*
X007474Y002640D01*
X007474Y002771D02*
X007166Y002771D01*
X007166Y002902D02*
X007474Y002902D01*
X006883Y002908D02*
X006883Y002378D01*
X006575Y002378D01*
X006575Y002908D01*
X006883Y002908D01*
X006883Y002509D02*
X006575Y002509D01*
X006575Y002640D02*
X006883Y002640D01*
X006883Y002771D02*
X006575Y002771D01*
X006575Y002902D02*
X006883Y002902D01*
D18*
X009858Y007552D02*
X009858Y008244D01*
X009858Y007552D02*
X009506Y007552D01*
X009506Y008244D01*
X009858Y008244D01*
X009858Y007639D02*
X009506Y007639D01*
X009506Y007726D02*
X009858Y007726D01*
X009858Y007813D02*
X009506Y007813D01*
X009506Y007900D02*
X009858Y007900D01*
X009858Y007987D02*
X009506Y007987D01*
X009506Y008074D02*
X009858Y008074D01*
X009858Y008161D02*
X009506Y008161D01*
M02*
