G75*
%MOIN*%
%OFA0B0*%
%FSLAX24Y24*%
%IPPOS*%
%LPD*%
%AMOC8*
5,1,8,0,0,1.08239X$1,22.5*
%
%ADD10OC8,0.0700*%
%ADD11R,0.0250X0.0500*%
%ADD12C,0.0060*%
%ADD13C,0.0270*%
%ADD14C,0.0160*%
%ADD15C,0.0100*%
D10*
X001300Y001300D03*
X002300Y001300D03*
X003300Y001300D03*
X004300Y001300D03*
X005300Y001300D03*
X006300Y001300D03*
X007300Y001300D03*
X008300Y001300D03*
X009300Y001300D03*
X010300Y001300D03*
X011300Y001300D03*
X012300Y001300D03*
X001300Y002800D03*
X001300Y003800D03*
X001300Y004800D03*
X001300Y005800D03*
X001300Y006800D03*
X001300Y007800D03*
X001300Y009300D03*
X002300Y009300D03*
X003300Y009300D03*
X004300Y009300D03*
X005300Y009300D03*
X006300Y009300D03*
X007300Y009300D03*
X008300Y009300D03*
X009300Y009300D03*
X010300Y009300D03*
X011300Y009300D03*
X012300Y009300D03*
D11*
X004662Y003700D03*
X004338Y003700D03*
X004338Y002700D03*
X004662Y002700D03*
D12*
X004700Y002660D01*
X005240Y002120D01*
X010580Y002120D01*
X010580Y005060D01*
X010040Y005480D02*
X006800Y005480D01*
X006560Y004460D02*
X007040Y003980D01*
X006980Y003980D01*
X005360Y002360D01*
X004600Y002700D02*
X004400Y002700D01*
X004338Y002700D02*
X004280Y002660D01*
X003560Y002660D01*
X003320Y002420D01*
X001760Y002840D02*
X001340Y002840D01*
X001300Y002800D01*
X001760Y002840D02*
X003320Y004400D01*
X004400Y003700D02*
X004600Y003700D01*
X006140Y002360D02*
X007040Y003260D01*
X007760Y003260D02*
X007880Y003260D01*
X007760Y003260D02*
X007040Y003980D01*
X008300Y003380D02*
X011180Y006260D01*
X010820Y006260D02*
X010040Y005480D01*
X009380Y006980D02*
X004580Y006980D01*
X004460Y006860D01*
X004100Y006860D01*
X003560Y007400D01*
X003380Y007400D01*
X001520Y009260D01*
X001340Y009260D01*
X001300Y009300D01*
X002300Y009300D02*
X002300Y009140D01*
X003560Y007880D01*
X012080Y007880D01*
X012080Y007220D01*
X011960Y007100D01*
X010460Y007100D01*
X010340Y007220D01*
X009620Y007220D02*
X009380Y006980D01*
X008780Y007220D02*
X008660Y007100D01*
X004340Y007100D01*
X003560Y007040D02*
X002840Y007760D01*
X001340Y007760D01*
X001300Y007800D01*
X001300Y006800D02*
X003440Y006800D01*
X004040Y006200D01*
X003260Y006200D02*
X002900Y005840D01*
X001340Y005840D01*
X001300Y005800D01*
X003620Y007640D02*
X003680Y007580D01*
X005300Y007580D01*
X011540Y007580D01*
X011780Y007340D01*
X011420Y007340D02*
X011300Y007460D01*
X006560Y007460D01*
X006440Y007340D01*
X006380Y008000D02*
X006500Y008120D01*
X012020Y008120D01*
X012920Y007220D01*
X012980Y008420D02*
X012680Y008720D01*
X007880Y008720D01*
X007300Y009300D01*
X006500Y009260D02*
X006320Y009260D01*
X006300Y009300D01*
X006500Y009260D02*
X006500Y008120D01*
X006380Y008000D02*
X003800Y008000D01*
X002840Y008960D01*
X003320Y009260D02*
X003300Y009300D01*
X003320Y009260D02*
X003740Y008840D01*
X004640Y008840D01*
X005660Y008840D01*
X006260Y008240D01*
X004760Y008960D02*
X004640Y008840D01*
X008300Y009260D02*
X008300Y009300D01*
X008300Y009260D02*
X008720Y008840D01*
X012620Y008840D01*
X012740Y008960D01*
X012980Y002120D02*
X010580Y002120D01*
X007760Y001640D02*
X007640Y001760D01*
X006740Y001760D01*
X006320Y001340D01*
X006300Y001300D01*
D13*
X007760Y001640D03*
X006140Y002360D03*
X005360Y002360D03*
X007040Y003260D03*
X007880Y003260D03*
X008300Y003380D03*
X006560Y004460D03*
X007340Y004580D03*
X006800Y005480D03*
X006020Y005900D03*
X006740Y006740D03*
X006440Y007340D03*
X005300Y007580D03*
X004340Y007100D03*
X003560Y007040D03*
X003620Y007640D03*
X002840Y008960D03*
X004760Y008960D03*
X006260Y008240D03*
X008780Y007220D03*
X009620Y007220D03*
X010340Y007220D03*
X011420Y007340D03*
X011780Y007340D03*
X012920Y007220D03*
X013820Y006740D03*
X013520Y006440D03*
X014400Y006300D03*
X014400Y005900D03*
X014800Y005900D03*
X015200Y005900D03*
X015600Y005900D03*
X014400Y006700D03*
X014400Y007100D03*
X012980Y008420D03*
X012740Y008960D03*
X014400Y009000D03*
X014400Y008600D03*
X014400Y009400D03*
X011180Y006260D03*
X010820Y006260D03*
X010580Y005060D03*
X012980Y002120D03*
X015700Y001100D03*
X016100Y001100D03*
X016500Y001100D03*
X016500Y001500D03*
X016500Y001900D03*
X005720Y004040D03*
X005240Y004880D03*
X003440Y005240D03*
X003320Y004400D03*
X002480Y003920D03*
X003380Y003200D03*
X003320Y002420D03*
X003260Y006200D03*
X004040Y006200D03*
D14*
X004315Y006189D02*
X006820Y006189D01*
X006662Y006031D02*
X006264Y006031D01*
X006253Y006056D02*
X006176Y006133D01*
X006075Y006175D01*
X005965Y006175D01*
X005864Y006133D01*
X005787Y006056D01*
X005745Y005955D01*
X005745Y005845D01*
X005787Y005744D01*
X005864Y005667D01*
X005965Y005625D01*
X006026Y005625D01*
X006220Y005431D01*
X006331Y005320D01*
X007065Y004586D01*
X007065Y004525D01*
X007107Y004424D01*
X007184Y004347D01*
X007285Y004305D01*
X007395Y004305D01*
X007496Y004347D01*
X007573Y004424D01*
X007615Y004525D01*
X007615Y004635D01*
X007573Y004736D01*
X007496Y004813D01*
X007395Y004855D01*
X007334Y004855D01*
X006946Y005243D01*
X006956Y005247D01*
X007019Y005310D01*
X009990Y005310D01*
X008335Y003655D01*
X008245Y003655D01*
X008144Y003613D01*
X008067Y003536D01*
X008045Y003484D01*
X008036Y003493D01*
X007935Y003535D01*
X007825Y003535D01*
X007755Y003506D01*
X007210Y004050D01*
X007110Y004150D01*
X006835Y004425D01*
X006835Y004515D01*
X006793Y004616D01*
X006716Y004693D01*
X006615Y004735D01*
X006505Y004735D01*
X006404Y004693D01*
X006327Y004616D01*
X006285Y004515D01*
X006285Y004405D01*
X006327Y004304D01*
X006404Y004227D01*
X006505Y004185D01*
X006595Y004185D01*
X006770Y004010D01*
X005395Y002635D01*
X005305Y002635D01*
X005204Y002593D01*
X005127Y002516D01*
X005114Y002486D01*
X004927Y002673D01*
X004927Y003008D01*
X004845Y003090D01*
X004439Y003090D01*
X004479Y003130D01*
X004599Y003130D01*
X004779Y003310D01*
X004845Y003310D01*
X004927Y003392D01*
X004927Y003458D01*
X005019Y003550D01*
X005499Y003550D01*
X005610Y003661D01*
X005714Y003765D01*
X005775Y003765D01*
X005876Y003807D01*
X005953Y003884D01*
X005995Y003985D01*
X005995Y004095D01*
X005953Y004196D01*
X005876Y004273D01*
X005775Y004315D01*
X005665Y004315D01*
X005564Y004273D01*
X005487Y004196D01*
X005445Y004095D01*
X005445Y004034D01*
X005430Y004019D01*
X005430Y004681D01*
X005473Y004724D01*
X005515Y004825D01*
X005515Y004935D01*
X005473Y005036D01*
X005396Y005113D01*
X005295Y005155D01*
X005234Y005155D01*
X005199Y005190D01*
X003759Y005190D01*
X003715Y005234D01*
X003715Y005295D01*
X003673Y005396D01*
X003596Y005473D01*
X003495Y005515D01*
X003385Y005515D01*
X003284Y005473D01*
X003207Y005396D01*
X003165Y005295D01*
X003165Y005185D01*
X003207Y005084D01*
X003284Y005007D01*
X003385Y004965D01*
X003446Y004965D01*
X003490Y004921D01*
X001830Y004921D01*
X001830Y005020D02*
X001830Y004820D01*
X001320Y004820D01*
X001320Y004780D01*
X001830Y004780D01*
X001830Y004580D01*
X001521Y004272D01*
X001683Y004110D01*
X002281Y004110D01*
X002324Y004153D01*
X002425Y004195D01*
X002535Y004195D01*
X002636Y004153D01*
X002713Y004076D01*
X002725Y004046D01*
X003045Y004365D01*
X003045Y004455D01*
X003087Y004556D01*
X003164Y004633D01*
X003265Y004675D01*
X003375Y004675D01*
X003476Y004633D01*
X003553Y004556D01*
X003595Y004455D01*
X003595Y004345D01*
X003553Y004244D01*
X003476Y004167D01*
X003375Y004125D01*
X003285Y004125D01*
X001930Y002770D01*
X001830Y002670D01*
X001790Y002670D01*
X001790Y002597D01*
X001503Y002310D01*
X001097Y002310D01*
X001030Y002377D01*
X001030Y001780D01*
X001080Y001830D01*
X001280Y001830D01*
X001280Y001320D01*
X001320Y001320D01*
X001320Y001830D01*
X001520Y001830D01*
X001828Y001521D01*
X002097Y001790D01*
X002503Y001790D01*
X002790Y001503D01*
X002790Y001097D01*
X002723Y001030D01*
X002877Y001030D01*
X002810Y001097D01*
X002810Y001503D01*
X003070Y001763D01*
X003070Y002041D01*
X002941Y002170D01*
X002830Y002281D01*
X002830Y002979D01*
X002941Y003090D01*
X003128Y003090D01*
X003105Y003145D01*
X003105Y003255D01*
X003147Y003356D01*
X003224Y003433D01*
X003325Y003475D01*
X003386Y003475D01*
X003670Y003759D01*
X003781Y003870D01*
X004073Y003870D01*
X004073Y004008D01*
X004155Y004090D01*
X004845Y004090D01*
X004927Y004008D01*
X004927Y003930D01*
X005050Y003930D01*
X005050Y004681D01*
X005007Y004724D01*
X004971Y004810D01*
X003601Y004810D01*
X003490Y004921D01*
X003212Y005080D02*
X001770Y005080D01*
X001830Y005020D02*
X001521Y005328D01*
X001790Y005597D01*
X001790Y005670D01*
X002970Y005670D01*
X003225Y005925D01*
X003315Y005925D01*
X003416Y005967D01*
X003493Y006044D01*
X003535Y006145D01*
X003535Y006255D01*
X003493Y006356D01*
X003416Y006433D01*
X003315Y006475D01*
X003205Y006475D01*
X003104Y006433D01*
X003027Y006356D01*
X002985Y006255D01*
X002985Y006165D01*
X002830Y006010D01*
X001783Y006010D01*
X001503Y006290D01*
X001097Y006290D01*
X001030Y006223D01*
X001030Y006377D01*
X001097Y006310D01*
X001503Y006310D01*
X001790Y006597D01*
X001790Y006630D01*
X003370Y006630D01*
X003765Y006235D01*
X003765Y006145D01*
X003807Y006044D01*
X003884Y005967D01*
X003985Y005925D01*
X004095Y005925D01*
X004196Y005967D01*
X004273Y006044D01*
X004315Y006145D01*
X004315Y006255D01*
X004273Y006356D01*
X004196Y006433D01*
X004095Y006475D01*
X004005Y006475D01*
X003686Y006794D01*
X003716Y006807D01*
X003793Y006884D01*
X003805Y006914D01*
X004030Y006690D01*
X004530Y006690D01*
X004630Y006790D01*
X004650Y006810D01*
X009450Y006810D01*
X009550Y006910D01*
X009585Y006945D01*
X009675Y006945D01*
X009776Y006987D01*
X009853Y007064D01*
X009895Y007165D01*
X009895Y007275D01*
X009889Y007290D01*
X010071Y007290D01*
X010065Y007275D01*
X010065Y007165D01*
X010107Y007064D01*
X010184Y006987D01*
X010285Y006945D01*
X010375Y006945D01*
X010390Y006930D01*
X012030Y006930D01*
X012150Y007050D01*
X012250Y007150D01*
X012250Y007650D01*
X012645Y007255D01*
X012645Y007165D01*
X012687Y007064D01*
X012764Y006987D01*
X012865Y006945D01*
X012975Y006945D01*
X013076Y006987D01*
X013153Y007064D01*
X013195Y007165D01*
X013195Y007275D01*
X013153Y007376D01*
X013076Y007453D01*
X012975Y007495D01*
X012885Y007495D01*
X012190Y008190D01*
X012090Y008290D01*
X006670Y008290D01*
X006670Y008977D01*
X006790Y009097D01*
X006790Y009503D01*
X006723Y009570D01*
X006877Y009570D01*
X006810Y009503D01*
X006810Y009097D01*
X007097Y008810D01*
X007503Y008810D01*
X007526Y008833D01*
X007810Y008550D01*
X012610Y008550D01*
X012705Y008455D01*
X012705Y008365D01*
X012747Y008264D01*
X012824Y008187D01*
X012925Y008145D01*
X013035Y008145D01*
X013136Y008187D01*
X013213Y008264D01*
X013255Y008365D01*
X013255Y008475D01*
X013213Y008576D01*
X013136Y008653D01*
X013035Y008695D01*
X012945Y008695D01*
X012905Y008736D01*
X012973Y008804D01*
X013015Y008905D01*
X013015Y009015D01*
X012973Y009116D01*
X012896Y009193D01*
X012795Y009235D01*
X012790Y009235D01*
X012790Y009503D01*
X012723Y009570D01*
X014523Y009570D01*
X014523Y006054D01*
X014570Y006007D01*
X016570Y006007D01*
X016570Y001030D01*
X012723Y001030D01*
X012790Y001097D01*
X012790Y001503D01*
X012503Y001790D01*
X012097Y001790D01*
X011810Y001503D01*
X011810Y001097D01*
X011877Y001030D01*
X011723Y001030D01*
X011790Y001097D01*
X011790Y001503D01*
X011503Y001790D01*
X011097Y001790D01*
X010810Y001503D01*
X010810Y001097D01*
X010877Y001030D01*
X010723Y001030D01*
X010790Y001097D01*
X010790Y001503D01*
X010503Y001790D01*
X010097Y001790D01*
X009810Y001503D01*
X009810Y001097D01*
X009877Y001030D01*
X009723Y001030D01*
X009790Y001097D01*
X009790Y001503D01*
X009503Y001790D01*
X009097Y001790D01*
X008810Y001503D01*
X008810Y001097D01*
X008877Y001030D01*
X008723Y001030D01*
X008790Y001097D01*
X008790Y001503D01*
X008503Y001790D01*
X008097Y001790D01*
X008025Y001718D01*
X007993Y001796D01*
X007916Y001873D01*
X007815Y001915D01*
X007725Y001915D01*
X007710Y001930D01*
X006670Y001930D01*
X006516Y001777D01*
X006503Y001790D01*
X006097Y001790D01*
X005810Y001503D01*
X005810Y001097D01*
X005877Y001030D01*
X005723Y001030D01*
X005790Y001097D01*
X005790Y001503D01*
X005503Y001790D01*
X005097Y001790D01*
X004810Y001503D01*
X004810Y001097D01*
X004877Y001030D01*
X004723Y001030D01*
X004790Y001097D01*
X004790Y001503D01*
X004503Y001790D01*
X004097Y001790D01*
X003810Y001503D01*
X003810Y001097D01*
X003877Y001030D01*
X003723Y001030D01*
X003790Y001097D01*
X003790Y001503D01*
X003503Y001790D01*
X003450Y001790D01*
X003450Y002176D01*
X003476Y002187D01*
X003553Y002264D01*
X003595Y002365D01*
X003595Y002455D01*
X003630Y002490D01*
X004073Y002490D01*
X004073Y002392D01*
X004155Y002310D01*
X004810Y002310D01*
X005070Y002050D01*
X005070Y002050D01*
X005170Y001950D01*
X012761Y001950D01*
X012824Y001887D01*
X012925Y001845D01*
X013035Y001845D01*
X013136Y001887D01*
X013213Y001964D01*
X013255Y002065D01*
X013255Y002175D01*
X013213Y002276D01*
X013136Y002353D01*
X013035Y002395D01*
X012925Y002395D01*
X012824Y002353D01*
X012761Y002290D01*
X010750Y002290D01*
X010750Y004841D01*
X010813Y004904D01*
X010855Y005005D01*
X010855Y005115D01*
X010813Y005216D01*
X010736Y005293D01*
X010635Y005335D01*
X010525Y005335D01*
X010474Y005314D01*
X011145Y005985D01*
X011235Y005985D01*
X011336Y006027D01*
X011413Y006104D01*
X011455Y006205D01*
X011455Y006315D01*
X011432Y006370D01*
X013251Y006370D01*
X013287Y006284D01*
X013364Y006207D01*
X013465Y006165D01*
X013575Y006165D01*
X013676Y006207D01*
X013753Y006284D01*
X013795Y006385D01*
X013795Y006495D01*
X013753Y006596D01*
X013676Y006673D01*
X013575Y006715D01*
X013514Y006715D01*
X013479Y006750D01*
X007381Y006750D01*
X006410Y005779D01*
X006295Y005894D01*
X006295Y005955D01*
X006253Y006056D01*
X006317Y005872D02*
X006503Y005872D01*
X006096Y005555D02*
X001748Y005555D01*
X001589Y005397D02*
X003208Y005397D01*
X003165Y005238D02*
X001612Y005238D01*
X001830Y004763D02*
X004991Y004763D01*
X005050Y004604D02*
X003505Y004604D01*
X003595Y004446D02*
X005050Y004446D01*
X005050Y004287D02*
X003571Y004287D01*
X003383Y004129D02*
X005050Y004129D01*
X005050Y003970D02*
X004927Y003970D01*
X005430Y004129D02*
X005459Y004129D01*
X005430Y004287D02*
X005598Y004287D01*
X005842Y004287D02*
X006344Y004287D01*
X006285Y004446D02*
X005430Y004446D01*
X005430Y004604D02*
X006322Y004604D01*
X006798Y004604D02*
X007047Y004604D01*
X007098Y004446D02*
X006835Y004446D01*
X006973Y004287D02*
X008967Y004287D01*
X008808Y004129D02*
X007132Y004129D01*
X007290Y003970D02*
X008650Y003970D01*
X008491Y003812D02*
X007449Y003812D01*
X007607Y003653D02*
X008240Y003653D01*
X008050Y003495D02*
X008032Y003495D01*
X006730Y003970D02*
X005989Y003970D01*
X005880Y003812D02*
X006571Y003812D01*
X006413Y003653D02*
X005602Y003653D01*
X006096Y003336D02*
X004871Y003336D01*
X004646Y003178D02*
X005937Y003178D01*
X005779Y003019D02*
X004916Y003019D01*
X004927Y002861D02*
X005620Y002861D01*
X005462Y002702D02*
X004927Y002702D01*
X005057Y002544D02*
X005155Y002544D01*
X004893Y002227D02*
X003515Y002227D01*
X003595Y002385D02*
X004080Y002385D01*
X003450Y002068D02*
X005052Y002068D01*
X005058Y001751D02*
X004542Y001751D01*
X004700Y001593D02*
X004900Y001593D01*
X004810Y001434D02*
X004790Y001434D01*
X004790Y001276D02*
X004810Y001276D01*
X004810Y001117D02*
X004790Y001117D01*
X003900Y001593D02*
X003700Y001593D01*
X003542Y001751D02*
X004058Y001751D01*
X003810Y001434D02*
X003790Y001434D01*
X003790Y001276D02*
X003810Y001276D01*
X003810Y001117D02*
X003790Y001117D01*
X002810Y001117D02*
X002790Y001117D01*
X002790Y001276D02*
X002810Y001276D01*
X002810Y001434D02*
X002790Y001434D01*
X002700Y001593D02*
X002900Y001593D01*
X003058Y001751D02*
X002542Y001751D01*
X002058Y001751D02*
X001599Y001751D01*
X001757Y001593D02*
X001900Y001593D01*
X001320Y001593D02*
X001280Y001593D01*
X001280Y001751D02*
X001320Y001751D01*
X001030Y001910D02*
X003070Y001910D01*
X003043Y002068D02*
X001030Y002068D01*
X001030Y002227D02*
X002885Y002227D01*
X002830Y002385D02*
X001578Y002385D01*
X001736Y002544D02*
X002830Y002544D01*
X002830Y002702D02*
X001862Y002702D01*
X002021Y002861D02*
X002830Y002861D01*
X002870Y003019D02*
X002179Y003019D01*
X002338Y003178D02*
X003105Y003178D01*
X003139Y003336D02*
X002496Y003336D01*
X002655Y003495D02*
X003406Y003495D01*
X003564Y003653D02*
X002813Y003653D01*
X002972Y003812D02*
X003723Y003812D01*
X004073Y003970D02*
X003130Y003970D01*
X002808Y004129D02*
X002660Y004129D01*
X002967Y004287D02*
X001537Y004287D01*
X001664Y004129D02*
X002300Y004129D01*
X001830Y004604D02*
X003135Y004604D01*
X003045Y004446D02*
X001695Y004446D01*
X003014Y005714D02*
X005818Y005714D01*
X005745Y005872D02*
X003172Y005872D01*
X003479Y006031D02*
X003821Y006031D01*
X003765Y006189D02*
X003535Y006189D01*
X003497Y006348D02*
X003652Y006348D01*
X003494Y006506D02*
X001699Y006506D01*
X001540Y006348D02*
X003023Y006348D01*
X002985Y006189D02*
X001604Y006189D01*
X001762Y006031D02*
X002850Y006031D01*
X003672Y005397D02*
X006255Y005397D01*
X006413Y005238D02*
X003715Y005238D01*
X004259Y006031D02*
X005776Y006031D01*
X006979Y006348D02*
X004277Y006348D01*
X003974Y006506D02*
X007137Y006506D01*
X007296Y006665D02*
X003816Y006665D01*
X003897Y006823D02*
X003732Y006823D01*
X001060Y006348D02*
X001030Y006348D01*
X005429Y005080D02*
X006572Y005080D01*
X006730Y004921D02*
X005515Y004921D01*
X005489Y004763D02*
X006889Y004763D01*
X007268Y004921D02*
X009601Y004921D01*
X009442Y004763D02*
X007546Y004763D01*
X007615Y004604D02*
X009284Y004604D01*
X009125Y004446D02*
X007582Y004446D01*
X006651Y004129D02*
X005981Y004129D01*
X006254Y003495D02*
X004963Y003495D01*
X003450Y001910D02*
X006649Y001910D01*
X006058Y001751D02*
X005542Y001751D01*
X005700Y001593D02*
X005900Y001593D01*
X005810Y001434D02*
X005790Y001434D01*
X005790Y001276D02*
X005810Y001276D01*
X005810Y001117D02*
X005790Y001117D01*
X007828Y001910D02*
X012802Y001910D01*
X012542Y001751D02*
X016570Y001751D01*
X016570Y001593D02*
X012700Y001593D01*
X012790Y001434D02*
X016570Y001434D01*
X016570Y001276D02*
X012790Y001276D01*
X012790Y001117D02*
X016570Y001117D01*
X016570Y001910D02*
X013158Y001910D01*
X013255Y002068D02*
X016570Y002068D01*
X016570Y002227D02*
X013234Y002227D01*
X013059Y002385D02*
X016570Y002385D01*
X016570Y002544D02*
X010750Y002544D01*
X010750Y002702D02*
X016570Y002702D01*
X016570Y002861D02*
X010750Y002861D01*
X010750Y003019D02*
X016570Y003019D01*
X016570Y003178D02*
X010750Y003178D01*
X010750Y003336D02*
X016570Y003336D01*
X016570Y003495D02*
X010750Y003495D01*
X010750Y003653D02*
X016570Y003653D01*
X016570Y003812D02*
X010750Y003812D01*
X010750Y003970D02*
X016570Y003970D01*
X016570Y004129D02*
X010750Y004129D01*
X010750Y004287D02*
X016570Y004287D01*
X016570Y004446D02*
X010750Y004446D01*
X010750Y004604D02*
X016570Y004604D01*
X016570Y004763D02*
X010750Y004763D01*
X010820Y004921D02*
X016570Y004921D01*
X016570Y005080D02*
X010855Y005080D01*
X010791Y005238D02*
X016570Y005238D01*
X016570Y005397D02*
X010557Y005397D01*
X010715Y005555D02*
X016570Y005555D01*
X016570Y005714D02*
X010874Y005714D01*
X011032Y005872D02*
X016570Y005872D01*
X014547Y006031D02*
X011339Y006031D01*
X011448Y006189D02*
X013407Y006189D01*
X013261Y006348D02*
X011441Y006348D01*
X012082Y006982D02*
X012777Y006982D01*
X012655Y007140D02*
X012240Y007140D01*
X012250Y007299D02*
X012601Y007299D01*
X012443Y007457D02*
X012250Y007457D01*
X012250Y007616D02*
X012284Y007616D01*
X012606Y007774D02*
X014523Y007774D01*
X014523Y007616D02*
X012765Y007616D01*
X013066Y007457D02*
X014523Y007457D01*
X014523Y007299D02*
X013185Y007299D01*
X013185Y007140D02*
X014523Y007140D01*
X014523Y006982D02*
X013063Y006982D01*
X013684Y006665D02*
X014523Y006665D01*
X014523Y006823D02*
X009463Y006823D01*
X009763Y006982D02*
X010197Y006982D01*
X010075Y007140D02*
X009885Y007140D01*
X012131Y008250D02*
X012762Y008250D01*
X012705Y008408D02*
X006670Y008408D01*
X006670Y008567D02*
X007793Y008567D01*
X007635Y008725D02*
X006670Y008725D01*
X006670Y008884D02*
X007024Y008884D01*
X006865Y009042D02*
X006735Y009042D01*
X006790Y009201D02*
X006810Y009201D01*
X006810Y009359D02*
X006790Y009359D01*
X006775Y009518D02*
X006825Y009518D01*
X012289Y008091D02*
X014523Y008091D01*
X014523Y007933D02*
X012448Y007933D01*
X013198Y008250D02*
X014523Y008250D01*
X014523Y008408D02*
X013255Y008408D01*
X013217Y008567D02*
X014523Y008567D01*
X014523Y008725D02*
X012915Y008725D01*
X013006Y008884D02*
X014523Y008884D01*
X014523Y009042D02*
X013004Y009042D01*
X012878Y009201D02*
X014523Y009201D01*
X014523Y009359D02*
X012790Y009359D01*
X012775Y009518D02*
X014523Y009518D01*
X014523Y006506D02*
X013790Y006506D01*
X013779Y006348D02*
X014523Y006348D01*
X014523Y006189D02*
X013633Y006189D01*
X009918Y005238D02*
X006951Y005238D01*
X007109Y005080D02*
X009759Y005080D01*
X010750Y002385D02*
X012901Y002385D01*
X012058Y001751D02*
X011542Y001751D01*
X011700Y001593D02*
X011900Y001593D01*
X011810Y001434D02*
X011790Y001434D01*
X011790Y001276D02*
X011810Y001276D01*
X011810Y001117D02*
X011790Y001117D01*
X010810Y001117D02*
X010790Y001117D01*
X010790Y001276D02*
X010810Y001276D01*
X010810Y001434D02*
X010790Y001434D01*
X010700Y001593D02*
X010900Y001593D01*
X011058Y001751D02*
X010542Y001751D01*
X010058Y001751D02*
X009542Y001751D01*
X009700Y001593D02*
X009900Y001593D01*
X009810Y001434D02*
X009790Y001434D01*
X009790Y001276D02*
X009810Y001276D01*
X009810Y001117D02*
X009790Y001117D01*
X008900Y001593D02*
X008700Y001593D01*
X008542Y001751D02*
X009058Y001751D01*
X008810Y001434D02*
X008790Y001434D01*
X008790Y001276D02*
X008810Y001276D01*
X008810Y001117D02*
X008790Y001117D01*
X008058Y001751D02*
X008012Y001751D01*
X001320Y001434D02*
X001280Y001434D01*
D15*
X003020Y002360D02*
X003020Y002900D01*
X003980Y002900D01*
X004400Y003320D01*
X004520Y003320D01*
X004940Y003740D01*
X005240Y003740D01*
X005240Y004880D01*
X005120Y005000D01*
X003680Y005000D01*
X003440Y005240D01*
X003740Y005540D02*
X002060Y005540D01*
X001340Y004820D01*
X001300Y004800D01*
X001460Y003920D02*
X002480Y003920D01*
X001460Y003920D02*
X001340Y003800D01*
X001300Y003800D01*
X003380Y003200D02*
X003860Y003680D01*
X004280Y003680D01*
X004338Y003700D01*
X004662Y003700D02*
X004700Y003740D01*
X004940Y003740D01*
X005240Y003740D02*
X005420Y003740D01*
X005720Y004040D01*
X006410Y005510D02*
X007340Y004580D01*
X006410Y005510D02*
X007460Y006560D01*
X013400Y006560D01*
X013520Y006440D01*
X013820Y006740D02*
X006740Y006740D01*
X004940Y006740D01*
X003740Y005540D01*
X006020Y005900D02*
X006410Y005510D01*
X003020Y002360D02*
X003260Y002120D01*
X003260Y001340D01*
X003300Y001300D01*
M02*
