G75*
%MOIN*%
%OFA0B0*%
%FSLAX24Y24*%
%IPPOS*%
%LPD*%
%AMOC8*
5,1,8,0,0,1.08239X$1,22.5*
%
%ADD10R,0.0472X0.0217*%
%ADD11R,0.0472X0.0472*%
%ADD12R,0.0433X0.0394*%
%ADD13R,0.0354X0.0394*%
%ADD14R,0.0669X0.0315*%
%ADD15R,0.0120X0.0390*%
%ADD16C,0.0220*%
D10*
X002738Y004426D03*
X003762Y004800D03*
X002738Y005174D03*
D11*
X004787Y003600D03*
X005613Y003600D03*
X005613Y002800D03*
X004787Y002800D03*
D12*
X002965Y002800D03*
X003635Y002800D03*
X003635Y003600D03*
X002965Y003600D03*
X005165Y006300D03*
X005835Y006300D03*
X005835Y007150D03*
X005165Y007150D03*
X005165Y008000D03*
X005835Y008000D03*
D13*
X005907Y005115D03*
X005907Y004485D03*
X004293Y004485D03*
X004293Y005115D03*
D14*
X005100Y004328D03*
D15*
X004368Y005751D03*
X004112Y005751D03*
X003856Y005751D03*
X003600Y005751D03*
X003344Y005751D03*
X003088Y005751D03*
X002832Y005751D03*
X002832Y008049D03*
X003088Y008049D03*
X003344Y008049D03*
X003600Y008049D03*
X003856Y008049D03*
X004112Y008049D03*
X004368Y008049D03*
D16*
X006873Y007100D02*
X006873Y007044D01*
X006345Y007044D01*
X006345Y007100D01*
X006873Y007100D01*
X006873Y006509D02*
X006873Y006453D01*
X006345Y006453D01*
X006345Y006509D01*
X006873Y006509D01*
X006873Y005919D02*
X006873Y005863D01*
X006345Y005863D01*
X006345Y005919D01*
X006873Y005919D01*
X006873Y005328D02*
X006873Y005272D01*
X006345Y005272D01*
X006345Y005328D01*
X006873Y005328D01*
X006873Y004737D02*
X006873Y004681D01*
X006345Y004681D01*
X006345Y004737D01*
X006873Y004737D01*
X006873Y004147D02*
X006873Y004091D01*
X006345Y004091D01*
X006345Y004147D01*
X006873Y004147D01*
X006873Y003556D02*
X006873Y003500D01*
X006345Y003500D01*
X006345Y003556D01*
X006873Y003556D01*
X007250Y002398D02*
X007306Y002398D01*
X007250Y002398D02*
X007250Y002926D01*
X007306Y002926D01*
X007306Y002398D01*
X007306Y002617D02*
X007250Y002617D01*
X007250Y002836D02*
X007306Y002836D01*
X007841Y002398D02*
X007897Y002398D01*
X007841Y002398D02*
X007841Y002926D01*
X007897Y002926D01*
X007897Y002398D01*
X007897Y002617D02*
X007841Y002617D01*
X007841Y002836D02*
X007897Y002836D01*
X008431Y002398D02*
X008487Y002398D01*
X008431Y002398D02*
X008431Y002926D01*
X008487Y002926D01*
X008487Y002398D01*
X008487Y002617D02*
X008431Y002617D01*
X008431Y002836D02*
X008487Y002836D01*
X009022Y002398D02*
X009078Y002398D01*
X009022Y002398D02*
X009022Y002926D01*
X009078Y002926D01*
X009078Y002398D01*
X009078Y002617D02*
X009022Y002617D01*
X009022Y002836D02*
X009078Y002836D01*
X009612Y002398D02*
X009668Y002398D01*
X009612Y002398D02*
X009612Y002926D01*
X009668Y002926D01*
X009668Y002398D01*
X009668Y002617D02*
X009612Y002617D01*
X009612Y002836D02*
X009668Y002836D01*
X010203Y002398D02*
X010259Y002398D01*
X010203Y002398D02*
X010203Y002926D01*
X010259Y002926D01*
X010259Y002398D01*
X010259Y002617D02*
X010203Y002617D01*
X010203Y002836D02*
X010259Y002836D01*
X010793Y002398D02*
X010849Y002398D01*
X010793Y002398D02*
X010793Y002926D01*
X010849Y002926D01*
X010849Y002398D01*
X010849Y002617D02*
X010793Y002617D01*
X010793Y002836D02*
X010849Y002836D01*
X011384Y002398D02*
X011440Y002398D01*
X011384Y002398D02*
X011384Y002926D01*
X011440Y002926D01*
X011440Y002398D01*
X011440Y002617D02*
X011384Y002617D01*
X011384Y002836D02*
X011440Y002836D01*
X011974Y002398D02*
X012030Y002398D01*
X011974Y002398D02*
X011974Y002926D01*
X012030Y002926D01*
X012030Y002398D01*
X012030Y002617D02*
X011974Y002617D01*
X011974Y002836D02*
X012030Y002836D01*
X012565Y002398D02*
X012621Y002398D01*
X012565Y002398D02*
X012565Y002926D01*
X012621Y002926D01*
X012621Y002398D01*
X012621Y002617D02*
X012565Y002617D01*
X012565Y002836D02*
X012621Y002836D01*
X013155Y002398D02*
X013211Y002398D01*
X013155Y002398D02*
X013155Y002926D01*
X013211Y002926D01*
X013211Y002398D01*
X013211Y002617D02*
X013155Y002617D01*
X013155Y002836D02*
X013211Y002836D01*
X013746Y002398D02*
X013802Y002398D01*
X013746Y002398D02*
X013746Y002926D01*
X013802Y002926D01*
X013802Y002398D01*
X013802Y002617D02*
X013746Y002617D01*
X013746Y002836D02*
X013802Y002836D01*
X014337Y002398D02*
X014393Y002398D01*
X014337Y002398D02*
X014337Y002926D01*
X014393Y002926D01*
X014393Y002398D01*
X014393Y002617D02*
X014337Y002617D01*
X014337Y002836D02*
X014393Y002836D01*
X014927Y002398D02*
X014983Y002398D01*
X014927Y002398D02*
X014927Y002926D01*
X014983Y002926D01*
X014983Y002398D01*
X014983Y002617D02*
X014927Y002617D01*
X014927Y002836D02*
X014983Y002836D01*
X015518Y002398D02*
X015574Y002398D01*
X015518Y002398D02*
X015518Y002926D01*
X015574Y002926D01*
X015574Y002398D01*
X015574Y002617D02*
X015518Y002617D01*
X015518Y002836D02*
X015574Y002836D01*
X016108Y002398D02*
X016164Y002398D01*
X016108Y002398D02*
X016108Y002926D01*
X016164Y002926D01*
X016164Y002398D01*
X016164Y002617D02*
X016108Y002617D01*
X016108Y002836D02*
X016164Y002836D01*
X016699Y002398D02*
X016755Y002398D01*
X016699Y002398D02*
X016699Y002926D01*
X016755Y002926D01*
X016755Y002398D01*
X016755Y002617D02*
X016699Y002617D01*
X016699Y002836D02*
X016755Y002836D01*
X017289Y002398D02*
X017345Y002398D01*
X017289Y002398D02*
X017289Y002926D01*
X017345Y002926D01*
X017345Y002398D01*
X017345Y002617D02*
X017289Y002617D01*
X017289Y002836D02*
X017345Y002836D01*
X017880Y002398D02*
X017936Y002398D01*
X017880Y002398D02*
X017880Y002926D01*
X017936Y002926D01*
X017936Y002398D01*
X017936Y002617D02*
X017880Y002617D01*
X017880Y002836D02*
X017936Y002836D01*
X020436Y003500D02*
X020436Y003556D01*
X020436Y003500D02*
X019908Y003500D01*
X019908Y003556D01*
X020436Y003556D01*
X020436Y004091D02*
X020436Y004147D01*
X020436Y004091D02*
X019908Y004091D01*
X019908Y004147D01*
X020436Y004147D01*
X020436Y004681D02*
X020436Y004737D01*
X020436Y004681D02*
X019908Y004681D01*
X019908Y004737D01*
X020436Y004737D01*
X020436Y005272D02*
X020436Y005328D01*
X020436Y005272D02*
X019908Y005272D01*
X019908Y005328D01*
X020436Y005328D01*
X020436Y005863D02*
X020436Y005919D01*
X020436Y005863D02*
X019908Y005863D01*
X019908Y005919D01*
X020436Y005919D01*
X020436Y006453D02*
X020436Y006509D01*
X020436Y006453D02*
X019908Y006453D01*
X019908Y006509D01*
X020436Y006509D01*
X020436Y007044D02*
X020436Y007100D01*
X020436Y007044D02*
X019908Y007044D01*
X019908Y007100D01*
X020436Y007100D01*
X019708Y007674D02*
X019652Y007674D01*
X019652Y008202D01*
X019708Y008202D01*
X019708Y007674D01*
X019708Y007893D02*
X019652Y007893D01*
X019652Y008112D02*
X019708Y008112D01*
X019117Y007674D02*
X019061Y007674D01*
X019061Y008202D01*
X019117Y008202D01*
X019117Y007674D01*
X019117Y007893D02*
X019061Y007893D01*
X019061Y008112D02*
X019117Y008112D01*
X018526Y007674D02*
X018470Y007674D01*
X018470Y008202D01*
X018526Y008202D01*
X018526Y007674D01*
X018526Y007893D02*
X018470Y007893D01*
X018470Y008112D02*
X018526Y008112D01*
X017936Y007674D02*
X017880Y007674D01*
X017880Y008202D01*
X017936Y008202D01*
X017936Y007674D01*
X017936Y007893D02*
X017880Y007893D01*
X017880Y008112D02*
X017936Y008112D01*
X017345Y007674D02*
X017289Y007674D01*
X017289Y008202D01*
X017345Y008202D01*
X017345Y007674D01*
X017345Y007893D02*
X017289Y007893D01*
X017289Y008112D02*
X017345Y008112D01*
X016755Y007674D02*
X016699Y007674D01*
X016699Y008202D01*
X016755Y008202D01*
X016755Y007674D01*
X016755Y007893D02*
X016699Y007893D01*
X016699Y008112D02*
X016755Y008112D01*
X016164Y007674D02*
X016108Y007674D01*
X016108Y008202D01*
X016164Y008202D01*
X016164Y007674D01*
X016164Y007893D02*
X016108Y007893D01*
X016108Y008112D02*
X016164Y008112D01*
X015574Y007674D02*
X015518Y007674D01*
X015518Y008202D01*
X015574Y008202D01*
X015574Y007674D01*
X015574Y007893D02*
X015518Y007893D01*
X015518Y008112D02*
X015574Y008112D01*
X014983Y007674D02*
X014927Y007674D01*
X014927Y008202D01*
X014983Y008202D01*
X014983Y007674D01*
X014983Y007893D02*
X014927Y007893D01*
X014927Y008112D02*
X014983Y008112D01*
X014393Y007674D02*
X014337Y007674D01*
X014337Y008202D01*
X014393Y008202D01*
X014393Y007674D01*
X014393Y007893D02*
X014337Y007893D01*
X014337Y008112D02*
X014393Y008112D01*
X013802Y007674D02*
X013746Y007674D01*
X013746Y008202D01*
X013802Y008202D01*
X013802Y007674D01*
X013802Y007893D02*
X013746Y007893D01*
X013746Y008112D02*
X013802Y008112D01*
X013211Y007674D02*
X013155Y007674D01*
X013155Y008202D01*
X013211Y008202D01*
X013211Y007674D01*
X013211Y007893D02*
X013155Y007893D01*
X013155Y008112D02*
X013211Y008112D01*
X012621Y007674D02*
X012565Y007674D01*
X012565Y008202D01*
X012621Y008202D01*
X012621Y007674D01*
X012621Y007893D02*
X012565Y007893D01*
X012565Y008112D02*
X012621Y008112D01*
X012030Y007674D02*
X011974Y007674D01*
X011974Y008202D01*
X012030Y008202D01*
X012030Y007674D01*
X012030Y007893D02*
X011974Y007893D01*
X011974Y008112D02*
X012030Y008112D01*
X011440Y007674D02*
X011384Y007674D01*
X011384Y008202D01*
X011440Y008202D01*
X011440Y007674D01*
X011440Y007893D02*
X011384Y007893D01*
X011384Y008112D02*
X011440Y008112D01*
X010849Y007674D02*
X010793Y007674D01*
X010793Y008202D01*
X010849Y008202D01*
X010849Y007674D01*
X010849Y007893D02*
X010793Y007893D01*
X010793Y008112D02*
X010849Y008112D01*
X010259Y007674D02*
X010203Y007674D01*
X010203Y008202D01*
X010259Y008202D01*
X010259Y007674D01*
X010259Y007893D02*
X010203Y007893D01*
X010203Y008112D02*
X010259Y008112D01*
X009668Y007674D02*
X009612Y007674D01*
X009612Y008202D01*
X009668Y008202D01*
X009668Y007674D01*
X009668Y007893D02*
X009612Y007893D01*
X009612Y008112D02*
X009668Y008112D01*
X009078Y007674D02*
X009022Y007674D01*
X009022Y008202D01*
X009078Y008202D01*
X009078Y007674D01*
X009078Y007893D02*
X009022Y007893D01*
X009022Y008112D02*
X009078Y008112D01*
X008487Y007674D02*
X008431Y007674D01*
X008431Y008202D01*
X008487Y008202D01*
X008487Y007674D01*
X008487Y007893D02*
X008431Y007893D01*
X008431Y008112D02*
X008487Y008112D01*
X007897Y007674D02*
X007841Y007674D01*
X007841Y008202D01*
X007897Y008202D01*
X007897Y007674D01*
X007897Y007893D02*
X007841Y007893D01*
X007841Y008112D02*
X007897Y008112D01*
X007306Y007674D02*
X007250Y007674D01*
X007250Y008202D01*
X007306Y008202D01*
X007306Y007674D01*
X007306Y007893D02*
X007250Y007893D01*
X007250Y008112D02*
X007306Y008112D01*
M02*
