G75*
%MOIN*%
%OFA0B0*%
%FSLAX24Y24*%
%IPPOS*%
%LPD*%
%AMOC8*
5,1,8,0,0,1.08239X$1,22.5*
%
%ADD10OC8,0.0700*%
%ADD11R,0.0472X0.0217*%
%ADD12R,0.0472X0.0472*%
%ADD13R,0.0433X0.0394*%
%ADD14R,0.0354X0.0394*%
%ADD15R,0.0669X0.0315*%
%ADD16R,0.0120X0.0390*%
%ADD17C,0.0220*%
%ADD18C,0.0060*%
%ADD19C,0.0270*%
%ADD20C,0.0160*%
%ADD21C,0.0100*%
D10*
X001300Y001300D03*
X002300Y001300D03*
X003300Y001300D03*
X004300Y001300D03*
X005300Y001300D03*
X006300Y001300D03*
X007300Y001300D03*
X008300Y001300D03*
X009300Y001300D03*
X010300Y001300D03*
X011300Y001300D03*
X012300Y001300D03*
X013300Y001300D03*
X001300Y002800D03*
X001300Y003800D03*
X001300Y004800D03*
X001300Y005800D03*
X001300Y006800D03*
X001300Y007800D03*
X001300Y009300D03*
X002300Y009300D03*
X003300Y009300D03*
X004300Y009300D03*
X005300Y009300D03*
X006300Y009300D03*
X007300Y009300D03*
X008300Y009300D03*
X009300Y009300D03*
X010300Y009300D03*
X011300Y009300D03*
X012300Y009300D03*
X013300Y009300D03*
D11*
X003762Y004800D03*
X002738Y004426D03*
X002738Y005174D03*
D12*
X004787Y003600D03*
X005613Y003600D03*
X005613Y002800D03*
X004787Y002800D03*
D13*
X003635Y002800D03*
X002965Y002800D03*
X002965Y003600D03*
X003635Y003600D03*
X005165Y006300D03*
X005835Y006300D03*
X005835Y007150D03*
X005165Y007150D03*
X005165Y008000D03*
X005835Y008000D03*
D14*
X005907Y005115D03*
X005907Y004485D03*
X004293Y004485D03*
X004293Y005115D03*
D15*
X005100Y004328D03*
D16*
X004368Y005751D03*
X004112Y005751D03*
X003856Y005751D03*
X003600Y005751D03*
X003344Y005751D03*
X003088Y005751D03*
X002832Y005751D03*
X002832Y008049D03*
X003088Y008049D03*
X003344Y008049D03*
X003600Y008049D03*
X003856Y008049D03*
X004112Y008049D03*
X004368Y008049D03*
D17*
X006873Y007100D02*
X006873Y007044D01*
X006345Y007044D01*
X006345Y007100D01*
X006873Y007100D01*
X006873Y006509D02*
X006873Y006453D01*
X006345Y006453D01*
X006345Y006509D01*
X006873Y006509D01*
X006873Y005919D02*
X006873Y005863D01*
X006345Y005863D01*
X006345Y005919D01*
X006873Y005919D01*
X006873Y005328D02*
X006873Y005272D01*
X006345Y005272D01*
X006345Y005328D01*
X006873Y005328D01*
X006873Y004737D02*
X006873Y004681D01*
X006345Y004681D01*
X006345Y004737D01*
X006873Y004737D01*
X006873Y004147D02*
X006873Y004091D01*
X006345Y004091D01*
X006345Y004147D01*
X006873Y004147D01*
X006873Y003556D02*
X006873Y003500D01*
X006345Y003500D01*
X006345Y003556D01*
X006873Y003556D01*
X007250Y002398D02*
X007306Y002398D01*
X007250Y002398D02*
X007250Y002926D01*
X007306Y002926D01*
X007306Y002398D01*
X007306Y002617D02*
X007250Y002617D01*
X007250Y002836D02*
X007306Y002836D01*
X007841Y002398D02*
X007897Y002398D01*
X007841Y002398D02*
X007841Y002926D01*
X007897Y002926D01*
X007897Y002398D01*
X007897Y002617D02*
X007841Y002617D01*
X007841Y002836D02*
X007897Y002836D01*
X008431Y002398D02*
X008487Y002398D01*
X008431Y002398D02*
X008431Y002926D01*
X008487Y002926D01*
X008487Y002398D01*
X008487Y002617D02*
X008431Y002617D01*
X008431Y002836D02*
X008487Y002836D01*
X009022Y002398D02*
X009078Y002398D01*
X009022Y002398D02*
X009022Y002926D01*
X009078Y002926D01*
X009078Y002398D01*
X009078Y002617D02*
X009022Y002617D01*
X009022Y002836D02*
X009078Y002836D01*
X009612Y002398D02*
X009668Y002398D01*
X009612Y002398D02*
X009612Y002926D01*
X009668Y002926D01*
X009668Y002398D01*
X009668Y002617D02*
X009612Y002617D01*
X009612Y002836D02*
X009668Y002836D01*
X010203Y002398D02*
X010259Y002398D01*
X010203Y002398D02*
X010203Y002926D01*
X010259Y002926D01*
X010259Y002398D01*
X010259Y002617D02*
X010203Y002617D01*
X010203Y002836D02*
X010259Y002836D01*
X010793Y002398D02*
X010849Y002398D01*
X010793Y002398D02*
X010793Y002926D01*
X010849Y002926D01*
X010849Y002398D01*
X010849Y002617D02*
X010793Y002617D01*
X010793Y002836D02*
X010849Y002836D01*
X011384Y002398D02*
X011440Y002398D01*
X011384Y002398D02*
X011384Y002926D01*
X011440Y002926D01*
X011440Y002398D01*
X011440Y002617D02*
X011384Y002617D01*
X011384Y002836D02*
X011440Y002836D01*
X011974Y002398D02*
X012030Y002398D01*
X011974Y002398D02*
X011974Y002926D01*
X012030Y002926D01*
X012030Y002398D01*
X012030Y002617D02*
X011974Y002617D01*
X011974Y002836D02*
X012030Y002836D01*
X012565Y002398D02*
X012621Y002398D01*
X012565Y002398D02*
X012565Y002926D01*
X012621Y002926D01*
X012621Y002398D01*
X012621Y002617D02*
X012565Y002617D01*
X012565Y002836D02*
X012621Y002836D01*
X013155Y002398D02*
X013211Y002398D01*
X013155Y002398D02*
X013155Y002926D01*
X013211Y002926D01*
X013211Y002398D01*
X013211Y002617D02*
X013155Y002617D01*
X013155Y002836D02*
X013211Y002836D01*
X013746Y002398D02*
X013802Y002398D01*
X013746Y002398D02*
X013746Y002926D01*
X013802Y002926D01*
X013802Y002398D01*
X013802Y002617D02*
X013746Y002617D01*
X013746Y002836D02*
X013802Y002836D01*
X014337Y002398D02*
X014393Y002398D01*
X014337Y002398D02*
X014337Y002926D01*
X014393Y002926D01*
X014393Y002398D01*
X014393Y002617D02*
X014337Y002617D01*
X014337Y002836D02*
X014393Y002836D01*
X014927Y002398D02*
X014983Y002398D01*
X014927Y002398D02*
X014927Y002926D01*
X014983Y002926D01*
X014983Y002398D01*
X014983Y002617D02*
X014927Y002617D01*
X014927Y002836D02*
X014983Y002836D01*
X015518Y002398D02*
X015574Y002398D01*
X015518Y002398D02*
X015518Y002926D01*
X015574Y002926D01*
X015574Y002398D01*
X015574Y002617D02*
X015518Y002617D01*
X015518Y002836D02*
X015574Y002836D01*
X016108Y002398D02*
X016164Y002398D01*
X016108Y002398D02*
X016108Y002926D01*
X016164Y002926D01*
X016164Y002398D01*
X016164Y002617D02*
X016108Y002617D01*
X016108Y002836D02*
X016164Y002836D01*
X016699Y002398D02*
X016755Y002398D01*
X016699Y002398D02*
X016699Y002926D01*
X016755Y002926D01*
X016755Y002398D01*
X016755Y002617D02*
X016699Y002617D01*
X016699Y002836D02*
X016755Y002836D01*
X017289Y002398D02*
X017345Y002398D01*
X017289Y002398D02*
X017289Y002926D01*
X017345Y002926D01*
X017345Y002398D01*
X017345Y002617D02*
X017289Y002617D01*
X017289Y002836D02*
X017345Y002836D01*
X017880Y002398D02*
X017936Y002398D01*
X017880Y002398D02*
X017880Y002926D01*
X017936Y002926D01*
X017936Y002398D01*
X017936Y002617D02*
X017880Y002617D01*
X017880Y002836D02*
X017936Y002836D01*
X020436Y003500D02*
X020436Y003556D01*
X020436Y003500D02*
X019908Y003500D01*
X019908Y003556D01*
X020436Y003556D01*
X020436Y004091D02*
X020436Y004147D01*
X020436Y004091D02*
X019908Y004091D01*
X019908Y004147D01*
X020436Y004147D01*
X020436Y004681D02*
X020436Y004737D01*
X020436Y004681D02*
X019908Y004681D01*
X019908Y004737D01*
X020436Y004737D01*
X020436Y005272D02*
X020436Y005328D01*
X020436Y005272D02*
X019908Y005272D01*
X019908Y005328D01*
X020436Y005328D01*
X020436Y005863D02*
X020436Y005919D01*
X020436Y005863D02*
X019908Y005863D01*
X019908Y005919D01*
X020436Y005919D01*
X020436Y006453D02*
X020436Y006509D01*
X020436Y006453D02*
X019908Y006453D01*
X019908Y006509D01*
X020436Y006509D01*
X020436Y007044D02*
X020436Y007100D01*
X020436Y007044D02*
X019908Y007044D01*
X019908Y007100D01*
X020436Y007100D01*
X019708Y007674D02*
X019652Y007674D01*
X019652Y008202D01*
X019708Y008202D01*
X019708Y007674D01*
X019708Y007893D02*
X019652Y007893D01*
X019652Y008112D02*
X019708Y008112D01*
X019117Y007674D02*
X019061Y007674D01*
X019061Y008202D01*
X019117Y008202D01*
X019117Y007674D01*
X019117Y007893D02*
X019061Y007893D01*
X019061Y008112D02*
X019117Y008112D01*
X018526Y007674D02*
X018470Y007674D01*
X018470Y008202D01*
X018526Y008202D01*
X018526Y007674D01*
X018526Y007893D02*
X018470Y007893D01*
X018470Y008112D02*
X018526Y008112D01*
X017936Y007674D02*
X017880Y007674D01*
X017880Y008202D01*
X017936Y008202D01*
X017936Y007674D01*
X017936Y007893D02*
X017880Y007893D01*
X017880Y008112D02*
X017936Y008112D01*
X017345Y007674D02*
X017289Y007674D01*
X017289Y008202D01*
X017345Y008202D01*
X017345Y007674D01*
X017345Y007893D02*
X017289Y007893D01*
X017289Y008112D02*
X017345Y008112D01*
X016755Y007674D02*
X016699Y007674D01*
X016699Y008202D01*
X016755Y008202D01*
X016755Y007674D01*
X016755Y007893D02*
X016699Y007893D01*
X016699Y008112D02*
X016755Y008112D01*
X016164Y007674D02*
X016108Y007674D01*
X016108Y008202D01*
X016164Y008202D01*
X016164Y007674D01*
X016164Y007893D02*
X016108Y007893D01*
X016108Y008112D02*
X016164Y008112D01*
X015574Y007674D02*
X015518Y007674D01*
X015518Y008202D01*
X015574Y008202D01*
X015574Y007674D01*
X015574Y007893D02*
X015518Y007893D01*
X015518Y008112D02*
X015574Y008112D01*
X014983Y007674D02*
X014927Y007674D01*
X014927Y008202D01*
X014983Y008202D01*
X014983Y007674D01*
X014983Y007893D02*
X014927Y007893D01*
X014927Y008112D02*
X014983Y008112D01*
X014393Y007674D02*
X014337Y007674D01*
X014337Y008202D01*
X014393Y008202D01*
X014393Y007674D01*
X014393Y007893D02*
X014337Y007893D01*
X014337Y008112D02*
X014393Y008112D01*
X013802Y007674D02*
X013746Y007674D01*
X013746Y008202D01*
X013802Y008202D01*
X013802Y007674D01*
X013802Y007893D02*
X013746Y007893D01*
X013746Y008112D02*
X013802Y008112D01*
X013211Y007674D02*
X013155Y007674D01*
X013155Y008202D01*
X013211Y008202D01*
X013211Y007674D01*
X013211Y007893D02*
X013155Y007893D01*
X013155Y008112D02*
X013211Y008112D01*
X012621Y007674D02*
X012565Y007674D01*
X012565Y008202D01*
X012621Y008202D01*
X012621Y007674D01*
X012621Y007893D02*
X012565Y007893D01*
X012565Y008112D02*
X012621Y008112D01*
X012030Y007674D02*
X011974Y007674D01*
X011974Y008202D01*
X012030Y008202D01*
X012030Y007674D01*
X012030Y007893D02*
X011974Y007893D01*
X011974Y008112D02*
X012030Y008112D01*
X011440Y007674D02*
X011384Y007674D01*
X011384Y008202D01*
X011440Y008202D01*
X011440Y007674D01*
X011440Y007893D02*
X011384Y007893D01*
X011384Y008112D02*
X011440Y008112D01*
X010849Y007674D02*
X010793Y007674D01*
X010793Y008202D01*
X010849Y008202D01*
X010849Y007674D01*
X010849Y007893D02*
X010793Y007893D01*
X010793Y008112D02*
X010849Y008112D01*
X010259Y007674D02*
X010203Y007674D01*
X010203Y008202D01*
X010259Y008202D01*
X010259Y007674D01*
X010259Y007893D02*
X010203Y007893D01*
X010203Y008112D02*
X010259Y008112D01*
X009668Y007674D02*
X009612Y007674D01*
X009612Y008202D01*
X009668Y008202D01*
X009668Y007674D01*
X009668Y007893D02*
X009612Y007893D01*
X009612Y008112D02*
X009668Y008112D01*
X009078Y007674D02*
X009022Y007674D01*
X009022Y008202D01*
X009078Y008202D01*
X009078Y007674D01*
X009078Y007893D02*
X009022Y007893D01*
X009022Y008112D02*
X009078Y008112D01*
X008487Y007674D02*
X008431Y007674D01*
X008431Y008202D01*
X008487Y008202D01*
X008487Y007674D01*
X008487Y007893D02*
X008431Y007893D01*
X008431Y008112D02*
X008487Y008112D01*
X007897Y007674D02*
X007841Y007674D01*
X007841Y008202D01*
X007897Y008202D01*
X007897Y007674D01*
X007897Y007893D02*
X007841Y007893D01*
X007841Y008112D02*
X007897Y008112D01*
X007306Y007674D02*
X007250Y007674D01*
X007250Y008202D01*
X007306Y008202D01*
X007306Y007674D01*
X007306Y007893D02*
X007250Y007893D01*
X007250Y008112D02*
X007306Y008112D01*
D18*
X007869Y007938D02*
X007880Y007880D01*
X008420Y007340D01*
X008660Y007700D02*
X008660Y006020D01*
X008840Y005840D01*
X008840Y004400D01*
X008660Y004220D01*
X009320Y004520D02*
X009320Y009260D01*
X009300Y009300D01*
X010300Y009300D02*
X010460Y009140D01*
X010460Y004700D01*
X010220Y004460D01*
X010580Y004220D02*
X012260Y005900D01*
X012260Y009260D01*
X012300Y009300D01*
X012860Y008960D02*
X012860Y008240D01*
X013160Y007940D01*
X013183Y007938D01*
X012593Y007938D02*
X012560Y007880D01*
X012500Y007820D01*
X012500Y006080D01*
X012860Y006080D02*
X012860Y003620D01*
X013760Y002720D01*
X013774Y002662D01*
X014360Y002720D02*
X014365Y002662D01*
X014360Y002720D02*
X013760Y003320D01*
X013760Y007340D01*
X013460Y007640D01*
X013460Y009140D01*
X013300Y009300D01*
X013940Y008480D02*
X013940Y008060D01*
X013820Y007940D01*
X013774Y007938D01*
X012002Y007938D02*
X011960Y007880D01*
X011660Y007580D01*
X011660Y005720D01*
X010700Y006440D02*
X011180Y006920D01*
X011180Y009140D01*
X011300Y009260D01*
X011300Y009300D01*
X010821Y007938D02*
X010820Y007880D01*
X010760Y007820D01*
X010760Y007340D01*
X010220Y007880D02*
X009920Y007580D01*
X009920Y007460D01*
X009800Y007040D02*
X009860Y006980D01*
X009860Y003200D01*
X009320Y003020D02*
X009320Y001340D01*
X009300Y001300D01*
X008780Y001640D02*
X008480Y001940D01*
X008480Y002660D01*
X008459Y002662D01*
X008420Y002720D01*
X008420Y004760D01*
X008120Y005060D01*
X007640Y004880D02*
X007640Y002000D01*
X008300Y001340D01*
X008300Y001300D01*
X007520Y001520D02*
X007300Y001300D01*
X007520Y001520D02*
X007520Y003560D01*
X007400Y003680D01*
X006609Y004119D02*
X006560Y004100D01*
X006140Y004100D01*
X006140Y003860D01*
X004787Y003600D02*
X004760Y003620D01*
X003680Y003620D01*
X003635Y003600D01*
X003380Y003200D02*
X003020Y002840D01*
X002965Y002800D01*
X003635Y002800D02*
X003680Y002780D01*
X004760Y002780D01*
X004787Y002800D01*
X006320Y001880D02*
X006320Y001340D01*
X006300Y001300D01*
X006320Y001880D02*
X006800Y002360D01*
X009020Y002720D02*
X009050Y002662D01*
X009020Y002720D02*
X009020Y006080D01*
X008900Y006200D01*
X008600Y005720D02*
X008120Y006200D01*
X009560Y006800D02*
X009560Y007820D01*
X009620Y007880D01*
X009640Y007938D01*
X010220Y007880D02*
X010231Y007938D01*
X009140Y007820D02*
X009140Y003200D01*
X009320Y003020D01*
X009640Y002662D02*
X009680Y002660D01*
X009980Y002360D01*
X009980Y002300D01*
X010100Y002180D01*
X010580Y002180D01*
X010580Y004220D01*
X009380Y004460D02*
X009320Y004520D01*
X007640Y004880D02*
X007220Y005300D01*
X006080Y005240D02*
X006080Y005540D01*
X005720Y005600D02*
X006560Y006440D01*
X006609Y006481D01*
X004820Y006020D02*
X004760Y005960D01*
X004820Y006020D02*
X004820Y007640D01*
X005480Y007640D01*
X005480Y009080D01*
X005300Y009260D01*
X005300Y009300D01*
X004760Y008960D02*
X004160Y008360D01*
X004160Y008060D01*
X004112Y008049D01*
X004100Y008000D01*
X004100Y007280D01*
X004340Y007040D01*
X004340Y006560D01*
X004580Y006320D01*
X003860Y006560D02*
X003860Y008000D01*
X003856Y008049D01*
X003860Y008060D01*
X003920Y008120D01*
X003920Y008900D01*
X004280Y009260D01*
X004300Y009300D01*
X003260Y008540D02*
X002840Y008960D01*
X003260Y008540D02*
X003260Y008120D01*
X003320Y008060D01*
X003344Y008049D01*
X003600Y008049D02*
X003620Y008000D01*
X003620Y007640D01*
X003620Y007040D02*
X003620Y005780D01*
X003600Y005751D01*
X003800Y005720D02*
X003856Y005751D01*
X003800Y005720D02*
X003800Y005360D01*
X004112Y005751D02*
X004100Y005780D01*
X004100Y006800D01*
X003260Y006200D02*
X003260Y005840D01*
X003320Y005780D01*
X003344Y005751D01*
X001760Y005120D02*
X001760Y003260D01*
X001300Y002800D01*
X001760Y005120D02*
X001640Y005240D01*
X005907Y005115D02*
X005960Y005120D01*
X006080Y005240D01*
X008660Y007700D02*
X008480Y007880D01*
X008459Y007938D01*
X009050Y007938D02*
X009080Y007880D01*
X009140Y007820D01*
X006320Y008240D02*
X006320Y009260D01*
X006300Y009300D01*
X012440Y003440D02*
X013160Y002720D01*
X013183Y002662D01*
X012920Y002360D02*
X012620Y002660D01*
X012593Y002662D01*
X012260Y002420D02*
X012260Y001340D01*
X012300Y001300D01*
X012920Y001700D02*
X013280Y001340D01*
X013300Y001300D01*
X012920Y001700D02*
X012920Y002360D01*
X012260Y002420D02*
X012020Y002660D01*
X012002Y002662D01*
X011412Y002662D02*
X011360Y002660D01*
X011300Y002600D01*
X011300Y001300D01*
X010700Y001700D02*
X010300Y001300D01*
X010700Y001700D02*
X010700Y002540D01*
X010820Y002660D01*
X010821Y002662D01*
D19*
X009860Y003200D03*
X008660Y004220D03*
X009380Y004460D03*
X010220Y004460D03*
X010700Y004700D03*
X011660Y005720D03*
X012500Y006080D03*
X012860Y006080D03*
X014800Y005900D03*
X014800Y005500D03*
X014800Y005100D03*
X014120Y004760D03*
X014800Y004700D03*
X014800Y004300D03*
X014800Y003900D03*
X014800Y003500D03*
X012440Y003440D03*
X014000Y002000D03*
X014400Y002000D03*
X014800Y002000D03*
X015200Y002000D03*
X015600Y002000D03*
X016000Y002000D03*
X016400Y002000D03*
X016800Y002000D03*
X017200Y002000D03*
X017600Y002000D03*
X018000Y002000D03*
X018400Y002000D03*
X018800Y002000D03*
X019200Y002000D03*
X019600Y002000D03*
X020000Y002000D03*
X020400Y002000D03*
X014800Y006300D03*
X014800Y006700D03*
X014800Y007100D03*
X014660Y007520D03*
X013940Y008480D03*
X014400Y008600D03*
X014800Y008600D03*
X015200Y008600D03*
X015600Y008600D03*
X016000Y008600D03*
X016400Y008600D03*
X016800Y008600D03*
X017200Y008600D03*
X017600Y008600D03*
X018000Y008600D03*
X018400Y008600D03*
X018800Y008600D03*
X019200Y008600D03*
X019600Y008600D03*
X020000Y008600D03*
X020400Y008600D03*
X012860Y008960D03*
X009920Y007460D03*
X009800Y007040D03*
X009560Y006800D03*
X008420Y007340D03*
X006320Y008240D03*
X004820Y007640D03*
X004340Y007400D03*
X003620Y007640D03*
X003440Y007340D03*
X003620Y007040D03*
X004100Y006800D03*
X003860Y006560D03*
X004580Y006320D03*
X004760Y005960D03*
X005720Y005600D03*
X006080Y005540D03*
X007220Y005300D03*
X008120Y005060D03*
X008600Y005720D03*
X008900Y006200D03*
X008120Y006200D03*
X010700Y006440D03*
X010760Y007340D03*
X005120Y004760D03*
X003800Y005360D03*
X002480Y004820D03*
X001640Y005240D03*
X003260Y006200D03*
X003500Y004280D03*
X003320Y003980D03*
X003380Y003200D03*
X006140Y003860D03*
X007400Y003680D03*
X006800Y002360D03*
X008780Y001640D03*
X004760Y008960D03*
X002840Y008960D03*
D20*
X002575Y008882D02*
X002607Y008804D01*
X002684Y008727D01*
X002785Y008685D01*
X002875Y008685D01*
X003090Y008470D01*
X003090Y008384D01*
X003007Y008384D01*
X003003Y008388D01*
X002962Y008411D01*
X002916Y008424D01*
X002832Y008424D01*
X002749Y008424D01*
X002703Y008411D01*
X002662Y008388D01*
X002628Y008354D01*
X002605Y008313D01*
X002592Y008267D01*
X002592Y008049D01*
X002832Y008049D01*
X002832Y008424D01*
X002832Y008049D01*
X002832Y008049D01*
X002832Y008049D01*
X002592Y008049D01*
X002592Y007830D01*
X002605Y007784D01*
X002628Y007743D01*
X002662Y007710D01*
X002703Y007686D01*
X002749Y007674D01*
X002832Y007674D01*
X002832Y008049D01*
X002832Y008049D01*
X002832Y007674D01*
X002916Y007674D01*
X002962Y007686D01*
X003003Y007710D01*
X003007Y007714D01*
X003206Y007714D01*
X003216Y007724D01*
X003226Y007714D01*
X003353Y007714D01*
X003345Y007695D01*
X003345Y007598D01*
X003284Y007573D01*
X003207Y007496D01*
X003165Y007395D01*
X003165Y007334D01*
X002761Y006930D01*
X002650Y006819D01*
X002650Y006022D01*
X002632Y006004D01*
X002632Y005788D01*
X002629Y005782D01*
X002632Y005769D01*
X002632Y005739D01*
X002628Y005725D01*
X002632Y005718D01*
X002632Y005498D01*
X002668Y005462D01*
X002478Y005462D01*
X002432Y005450D01*
X002391Y005426D01*
X002358Y005393D01*
X002334Y005352D01*
X002322Y005306D01*
X002322Y005174D01*
X002322Y005042D01*
X002334Y004996D01*
X002358Y004955D01*
X002391Y004922D01*
X002432Y004898D01*
X002478Y004886D01*
X002738Y004886D01*
X002738Y005174D01*
X002322Y005174D01*
X002738Y005174D01*
X002738Y005174D01*
X002738Y005174D01*
X002738Y005373D01*
X002738Y005373D01*
X002738Y005174D01*
X002738Y005174D01*
X002738Y004886D01*
X002937Y004886D01*
X002726Y004674D01*
X002444Y004674D01*
X002362Y004592D01*
X002362Y004260D01*
X002410Y004212D01*
X002410Y001921D01*
X002819Y001512D01*
X002810Y001503D01*
X002810Y001097D01*
X002877Y001030D01*
X002723Y001030D01*
X002790Y001097D01*
X002790Y001503D01*
X002503Y001790D01*
X002097Y001790D01*
X001828Y001521D01*
X001520Y001830D01*
X001320Y001830D01*
X001320Y001320D01*
X001280Y001320D01*
X001280Y001830D01*
X001080Y001830D01*
X001030Y001780D01*
X001030Y002377D01*
X001097Y002310D01*
X001503Y002310D01*
X001790Y002597D01*
X001790Y003003D01*
X001767Y003026D01*
X001930Y003190D01*
X001930Y005190D01*
X001915Y005205D01*
X001915Y005295D01*
X001873Y005396D01*
X001796Y005473D01*
X001704Y005511D01*
X001790Y005597D01*
X001790Y006003D01*
X001503Y006290D01*
X001097Y006290D01*
X001030Y006223D01*
X001030Y006377D01*
X001097Y006310D01*
X001503Y006310D01*
X001790Y006597D01*
X001790Y007003D01*
X001503Y007290D01*
X001097Y007290D01*
X001030Y007223D01*
X001030Y007377D01*
X001097Y007310D01*
X001503Y007310D01*
X001790Y007597D01*
X001790Y008003D01*
X001503Y008290D01*
X001097Y008290D01*
X001030Y008223D01*
X001030Y008877D01*
X001097Y008810D01*
X001503Y008810D01*
X001790Y009097D01*
X001790Y009503D01*
X001723Y009570D01*
X001877Y009570D01*
X001810Y009503D01*
X001810Y009097D01*
X002097Y008810D01*
X002503Y008810D01*
X002575Y008882D01*
X002689Y008725D02*
X001030Y008725D01*
X001030Y008567D02*
X002993Y008567D01*
X002968Y008408D02*
X003090Y008408D01*
X002832Y008408D02*
X002832Y008408D01*
X002697Y008408D02*
X001030Y008408D01*
X001030Y008250D02*
X001057Y008250D01*
X001543Y008250D02*
X002592Y008250D01*
X002832Y008250D02*
X002832Y008250D01*
X002832Y008091D02*
X002832Y008091D01*
X002832Y007933D02*
X002832Y007933D01*
X002592Y007933D02*
X001790Y007933D01*
X001702Y008091D02*
X002592Y008091D01*
X002610Y007774D02*
X001790Y007774D01*
X001790Y007616D02*
X003345Y007616D01*
X003191Y007457D02*
X001650Y007457D01*
X001653Y007140D02*
X002971Y007140D01*
X002813Y006982D02*
X001790Y006982D01*
X001790Y006823D02*
X002654Y006823D01*
X002650Y006665D02*
X001790Y006665D01*
X001699Y006506D02*
X002650Y006506D01*
X002650Y006348D02*
X001540Y006348D01*
X001604Y006189D02*
X002650Y006189D01*
X002650Y006031D02*
X001762Y006031D01*
X001790Y005872D02*
X002632Y005872D01*
X002632Y005714D02*
X001790Y005714D01*
X001748Y005555D02*
X002632Y005555D01*
X002362Y005397D02*
X001872Y005397D01*
X001915Y005238D02*
X002322Y005238D01*
X002322Y005080D02*
X001930Y005080D01*
X001930Y004921D02*
X002393Y004921D01*
X002738Y004921D02*
X002738Y004921D01*
X002814Y004763D02*
X001930Y004763D01*
X001930Y004604D02*
X002374Y004604D01*
X002362Y004446D02*
X001930Y004446D01*
X001930Y004287D02*
X002362Y004287D01*
X002410Y004129D02*
X001930Y004129D01*
X001930Y003970D02*
X002410Y003970D01*
X002410Y003812D02*
X001930Y003812D01*
X001930Y003653D02*
X002410Y003653D01*
X002410Y003495D02*
X001930Y003495D01*
X001930Y003336D02*
X002410Y003336D01*
X002410Y003178D02*
X001918Y003178D01*
X001774Y003019D02*
X002410Y003019D01*
X002410Y002861D02*
X001790Y002861D01*
X001790Y002702D02*
X002410Y002702D01*
X002410Y002544D02*
X001736Y002544D01*
X001578Y002385D02*
X002410Y002385D01*
X002410Y002227D02*
X001030Y002227D01*
X001030Y002068D02*
X002410Y002068D01*
X002422Y001910D02*
X001030Y001910D01*
X001280Y001751D02*
X001320Y001751D01*
X001320Y001593D02*
X001280Y001593D01*
X001599Y001751D02*
X002058Y001751D01*
X001900Y001593D02*
X001757Y001593D01*
X001320Y001434D02*
X001280Y001434D01*
X002542Y001751D02*
X002580Y001751D01*
X002700Y001593D02*
X002739Y001593D01*
X002790Y001434D02*
X002810Y001434D01*
X002810Y001276D02*
X002790Y001276D01*
X002790Y001117D02*
X002810Y001117D01*
X003723Y001030D02*
X003790Y001097D01*
X003790Y001503D01*
X003503Y001790D01*
X003097Y001790D01*
X003088Y001781D01*
X002790Y002079D01*
X002790Y002463D01*
X003240Y002463D01*
X003300Y002523D01*
X003360Y002463D01*
X003909Y002463D01*
X003991Y002545D01*
X003991Y002610D01*
X004410Y002610D01*
X004410Y002506D01*
X004492Y002424D01*
X005081Y002424D01*
X005163Y002506D01*
X005163Y003094D01*
X005081Y003176D01*
X004492Y003176D01*
X004410Y003094D01*
X004410Y002950D01*
X003991Y002950D01*
X003991Y003055D01*
X003909Y003137D01*
X003651Y003137D01*
X003655Y003145D01*
X003655Y003255D01*
X003651Y003263D01*
X003909Y003263D01*
X003991Y003345D01*
X003991Y003450D01*
X004410Y003450D01*
X004410Y003306D01*
X004492Y003224D01*
X005081Y003224D01*
X005163Y003306D01*
X005163Y003894D01*
X005081Y003976D01*
X004605Y003976D01*
X004655Y004026D01*
X004696Y004002D01*
X004742Y003990D01*
X005100Y003990D01*
X005284Y003990D01*
X005267Y003980D01*
X005233Y003947D01*
X005209Y003906D01*
X005197Y003860D01*
X005197Y003638D01*
X005575Y003638D01*
X005575Y003562D01*
X005197Y003562D01*
X005197Y003340D01*
X005209Y003294D01*
X005233Y003253D01*
X005267Y003220D01*
X005301Y003200D01*
X005267Y003180D01*
X005233Y003147D01*
X005209Y003106D01*
X005197Y003060D01*
X005197Y002838D01*
X005575Y002838D01*
X005575Y002762D01*
X005197Y002762D01*
X005197Y002540D01*
X005209Y002494D01*
X005233Y002453D01*
X005267Y002420D01*
X005308Y002396D01*
X005353Y002384D01*
X005575Y002384D01*
X005575Y002762D01*
X005651Y002762D01*
X005651Y002384D01*
X005873Y002384D01*
X005919Y002396D01*
X005960Y002420D01*
X005994Y002453D01*
X006017Y002494D01*
X006030Y002540D01*
X006030Y002762D01*
X005652Y002762D01*
X005652Y002838D01*
X006030Y002838D01*
X006030Y003060D01*
X006017Y003106D01*
X005994Y003147D01*
X005960Y003180D01*
X005926Y003200D01*
X005960Y003220D01*
X005994Y003253D01*
X006017Y003294D01*
X006030Y003340D01*
X006030Y003562D01*
X005652Y003562D01*
X005652Y003638D01*
X005973Y003638D01*
X005984Y003627D01*
X006057Y003597D01*
X006055Y003584D01*
X006055Y003528D01*
X006055Y003472D01*
X006066Y003416D01*
X006088Y003363D01*
X006119Y003316D01*
X006160Y003275D01*
X006207Y003244D01*
X006260Y003222D01*
X006316Y003211D01*
X006609Y003211D01*
X006901Y003211D01*
X006957Y003222D01*
X007010Y003244D01*
X007057Y003275D01*
X007098Y003316D01*
X007130Y003363D01*
X007152Y003416D01*
X007163Y003472D01*
X007163Y003528D01*
X006609Y003528D01*
X006609Y003528D01*
X006609Y003211D01*
X006609Y003528D01*
X006609Y003528D01*
X007163Y003528D01*
X007163Y003534D01*
X007167Y003524D01*
X007244Y003447D01*
X007345Y003405D01*
X007350Y003405D01*
X007350Y003213D01*
X007334Y003216D01*
X007278Y003216D01*
X007278Y002662D01*
X007278Y002108D01*
X007334Y002108D01*
X007350Y002111D01*
X007350Y001790D01*
X007097Y001790D01*
X006810Y001503D01*
X006810Y001097D01*
X006877Y001030D01*
X006723Y001030D01*
X006790Y001097D01*
X006790Y001503D01*
X006503Y001790D01*
X006490Y001790D01*
X006490Y001810D01*
X006765Y002085D01*
X006855Y002085D01*
X006956Y002127D01*
X007033Y002204D01*
X007033Y002205D01*
X007065Y002173D01*
X007113Y002141D01*
X007166Y002119D01*
X007222Y002108D01*
X007278Y002108D01*
X007278Y002662D01*
X007278Y002662D01*
X007350Y002662D01*
X007350Y002662D01*
X007278Y002662D01*
X007278Y002662D01*
X006960Y002662D01*
X006960Y002589D01*
X006956Y002593D01*
X006855Y002635D01*
X006745Y002635D01*
X006644Y002593D01*
X006567Y002516D01*
X006525Y002415D01*
X006525Y002325D01*
X006250Y002050D01*
X006150Y001950D01*
X006150Y001790D01*
X006097Y001790D01*
X005810Y001503D01*
X005810Y001097D01*
X005877Y001030D01*
X005723Y001030D01*
X005790Y001097D01*
X005790Y001503D01*
X005503Y001790D01*
X005097Y001790D01*
X004810Y001503D01*
X004810Y001097D01*
X004877Y001030D01*
X004723Y001030D01*
X004790Y001097D01*
X004790Y001503D01*
X004503Y001790D01*
X004097Y001790D01*
X003810Y001503D01*
X003810Y001097D01*
X003877Y001030D01*
X003723Y001030D01*
X003790Y001117D02*
X003810Y001117D01*
X003810Y001276D02*
X003790Y001276D01*
X003790Y001434D02*
X003810Y001434D01*
X003900Y001593D02*
X003700Y001593D01*
X003542Y001751D02*
X004058Y001751D01*
X004542Y001751D02*
X005058Y001751D01*
X004900Y001593D02*
X004700Y001593D01*
X004790Y001434D02*
X004810Y001434D01*
X004810Y001276D02*
X004790Y001276D01*
X004790Y001117D02*
X004810Y001117D01*
X005790Y001117D02*
X005810Y001117D01*
X005810Y001276D02*
X005790Y001276D01*
X005790Y001434D02*
X005810Y001434D01*
X005900Y001593D02*
X005700Y001593D01*
X005542Y001751D02*
X006058Y001751D01*
X006150Y001910D02*
X002959Y001910D01*
X002801Y002068D02*
X006268Y002068D01*
X006590Y001910D02*
X007350Y001910D01*
X007350Y002068D02*
X006748Y002068D01*
X006426Y002227D02*
X002790Y002227D01*
X002790Y002385D02*
X005349Y002385D01*
X005575Y002385D02*
X005651Y002385D01*
X005878Y002385D02*
X006525Y002385D01*
X006595Y002544D02*
X006030Y002544D01*
X006030Y002702D02*
X006960Y002702D01*
X006960Y002662D02*
X007278Y002662D01*
X007278Y002662D01*
X007278Y002662D01*
X007278Y003216D01*
X007222Y003216D01*
X007166Y003205D01*
X007113Y003183D01*
X007065Y003151D01*
X007025Y003111D01*
X006993Y003063D01*
X006971Y003011D01*
X006960Y002955D01*
X006960Y002662D01*
X006960Y002861D02*
X006030Y002861D01*
X006030Y003019D02*
X006975Y003019D01*
X007104Y003178D02*
X005963Y003178D01*
X006029Y003336D02*
X006106Y003336D01*
X006055Y003495D02*
X006030Y003495D01*
X006055Y003528D02*
X006609Y003528D01*
X006609Y003528D01*
X006609Y003841D01*
X006609Y003841D01*
X006609Y003528D01*
X006609Y003528D01*
X006055Y003528D01*
X005651Y003495D02*
X005575Y003495D01*
X005575Y003562D02*
X005651Y003562D01*
X005651Y002838D01*
X005575Y002838D01*
X005575Y003216D01*
X005575Y003562D01*
X005575Y003638D02*
X005575Y004016D01*
X005528Y004016D01*
X005545Y004026D01*
X005579Y004060D01*
X005602Y004101D01*
X005615Y004146D01*
X005615Y004149D01*
X005619Y004144D01*
X005660Y004120D01*
X005706Y004108D01*
X005899Y004108D01*
X005899Y004476D01*
X005916Y004476D01*
X005916Y004108D01*
X005970Y004108D01*
X005970Y004079D01*
X005907Y004016D01*
X005904Y004008D01*
X005873Y004016D01*
X005651Y004016D01*
X005651Y003638D01*
X005575Y003638D01*
X005575Y003653D02*
X005651Y003653D01*
X005651Y003812D02*
X005575Y003812D01*
X005575Y003970D02*
X005651Y003970D01*
X005646Y004129D02*
X005610Y004129D01*
X005899Y004129D02*
X005916Y004129D01*
X005899Y004287D02*
X005916Y004287D01*
X005899Y004446D02*
X005916Y004446D01*
X005907Y004485D02*
X006131Y004709D01*
X006609Y004709D01*
X006609Y004397D01*
X006609Y004397D01*
X006609Y004709D01*
X006609Y004709D01*
X006609Y004709D01*
X007163Y004709D01*
X007163Y004653D01*
X007152Y004597D01*
X007130Y004544D01*
X007098Y004497D01*
X007057Y004456D01*
X007010Y004425D01*
X006957Y004403D01*
X006924Y004396D01*
X007014Y004359D01*
X007085Y004288D01*
X007123Y004196D01*
X007123Y004042D01*
X007085Y003950D01*
X007014Y003879D01*
X006924Y003842D01*
X006957Y003835D01*
X007010Y003813D01*
X007057Y003781D01*
X007098Y003741D01*
X007125Y003700D01*
X007125Y003735D01*
X007167Y003836D01*
X007244Y003913D01*
X007345Y003955D01*
X007455Y003955D01*
X007470Y003949D01*
X007470Y004810D01*
X007255Y005025D01*
X007165Y005025D01*
X007073Y005063D01*
X007057Y005047D01*
X007010Y005015D01*
X006985Y005005D01*
X007010Y004994D01*
X007057Y004962D01*
X007098Y004922D01*
X007130Y004874D01*
X007152Y004822D01*
X007163Y004766D01*
X007163Y004709D01*
X006609Y004709D01*
X006263Y004709D01*
X006263Y004709D01*
X006609Y004709D01*
X006609Y004709D01*
X006609Y004709D01*
X006609Y004982D01*
X006609Y005300D01*
X006945Y005300D01*
X006945Y005300D01*
X006609Y005300D01*
X006609Y005300D01*
X006609Y005300D01*
X006609Y005300D01*
X006609Y005891D01*
X006609Y006203D01*
X006609Y006203D01*
X006609Y005891D01*
X006609Y005891D01*
X007163Y005891D01*
X007163Y005947D01*
X007152Y006003D01*
X007130Y006056D01*
X007098Y006103D01*
X007057Y006144D01*
X007010Y006175D01*
X006957Y006197D01*
X006924Y006204D01*
X007014Y006241D01*
X007085Y006312D01*
X007123Y006404D01*
X007123Y006558D01*
X007085Y006650D01*
X007014Y006721D01*
X006924Y006758D01*
X006957Y006765D01*
X007010Y006787D01*
X007057Y006819D01*
X007098Y006859D01*
X007130Y006907D01*
X007152Y006959D01*
X007163Y007016D01*
X007163Y007072D01*
X007163Y007128D01*
X007152Y007184D01*
X007130Y007237D01*
X007098Y007284D01*
X007057Y007325D01*
X007010Y007356D01*
X006957Y007378D01*
X006901Y007389D01*
X006609Y007389D01*
X006609Y007072D01*
X006609Y007072D01*
X007163Y007072D01*
X006609Y007072D01*
X006609Y007072D01*
X006609Y007389D01*
X006316Y007389D01*
X006260Y007378D01*
X006207Y007356D01*
X006191Y007346D01*
X006191Y007405D01*
X006152Y007444D01*
X006810Y008101D01*
X006810Y008290D01*
X006973Y008290D01*
X006971Y008286D01*
X006960Y008230D01*
X006960Y007938D01*
X007278Y007938D01*
X007278Y008273D01*
X007278Y008273D01*
X007278Y007938D01*
X007278Y007938D01*
X007390Y007938D01*
X007390Y007938D01*
X007278Y007938D01*
X007278Y007938D01*
X007278Y007938D01*
X006960Y007938D01*
X006960Y007645D01*
X006971Y007589D01*
X006993Y007537D01*
X007025Y007489D01*
X007065Y007449D01*
X007113Y007417D01*
X007166Y007395D01*
X007222Y007384D01*
X007278Y007384D01*
X007334Y007384D01*
X007390Y007395D01*
X007443Y007417D01*
X007462Y007429D01*
X007501Y007390D01*
X007630Y007261D01*
X007630Y005130D01*
X007495Y005265D01*
X007495Y005355D01*
X007453Y005456D01*
X007376Y005533D01*
X007275Y005575D01*
X007165Y005575D01*
X007073Y005537D01*
X007057Y005553D01*
X007010Y005585D01*
X006985Y005595D01*
X007010Y005606D01*
X007057Y005638D01*
X007098Y005678D01*
X007130Y005726D01*
X007152Y005778D01*
X007163Y005834D01*
X007163Y005891D01*
X006609Y005891D01*
X006609Y005891D01*
X006251Y005891D01*
X006251Y005891D01*
X006609Y005891D01*
X006609Y005891D01*
X006609Y005891D01*
X006609Y005618D01*
X006609Y005300D01*
X006609Y004709D01*
X006609Y004763D02*
X006609Y004763D01*
X006609Y004921D02*
X006609Y004921D01*
X006609Y005080D02*
X006609Y005080D01*
X006609Y005238D02*
X006609Y005238D01*
X006609Y005300D02*
X006250Y005300D01*
X006609Y005300D01*
X006609Y005300D01*
X006609Y005397D02*
X006609Y005397D01*
X006609Y005555D02*
X006609Y005555D01*
X006609Y005714D02*
X006609Y005714D01*
X006609Y005872D02*
X006609Y005872D01*
X006609Y006031D02*
X006609Y006031D01*
X006609Y006189D02*
X006609Y006189D01*
X006977Y006189D02*
X007630Y006189D01*
X007630Y006031D02*
X007140Y006031D01*
X007163Y005872D02*
X007630Y005872D01*
X007630Y005714D02*
X007122Y005714D01*
X007117Y005555D02*
X007054Y005555D01*
X007323Y005555D02*
X007630Y005555D01*
X007630Y005397D02*
X007478Y005397D01*
X007522Y005238D02*
X007630Y005238D01*
X007359Y004921D02*
X007099Y004921D01*
X007163Y004763D02*
X007470Y004763D01*
X007470Y004604D02*
X007153Y004604D01*
X007041Y004446D02*
X007470Y004446D01*
X007470Y004287D02*
X007085Y004287D01*
X007123Y004129D02*
X007470Y004129D01*
X007470Y003970D02*
X007093Y003970D01*
X007157Y003812D02*
X007012Y003812D01*
X006609Y003812D02*
X006609Y003812D01*
X006609Y003653D02*
X006609Y003653D01*
X006609Y003495D02*
X006609Y003495D01*
X006609Y003336D02*
X006609Y003336D01*
X007111Y003336D02*
X007350Y003336D01*
X007278Y003178D02*
X007278Y003178D01*
X007278Y003019D02*
X007278Y003019D01*
X007278Y002861D02*
X007278Y002861D01*
X007278Y002702D02*
X007278Y002702D01*
X007278Y002544D02*
X007278Y002544D01*
X007278Y002385D02*
X007278Y002385D01*
X007278Y002227D02*
X007278Y002227D01*
X007058Y001751D02*
X006542Y001751D01*
X006700Y001593D02*
X006900Y001593D01*
X006810Y001434D02*
X006790Y001434D01*
X006790Y001276D02*
X006810Y001276D01*
X006810Y001117D02*
X006790Y001117D01*
X005651Y002544D02*
X005575Y002544D01*
X005575Y002702D02*
X005651Y002702D01*
X005651Y002861D02*
X005575Y002861D01*
X005575Y003019D02*
X005651Y003019D01*
X005651Y003178D02*
X005575Y003178D01*
X005575Y003336D02*
X005651Y003336D01*
X005264Y003178D02*
X003655Y003178D01*
X003982Y003336D02*
X004410Y003336D01*
X004410Y003019D02*
X003991Y003019D01*
X003990Y002544D02*
X004410Y002544D01*
X005163Y002544D02*
X005197Y002544D01*
X005197Y002702D02*
X005163Y002702D01*
X005163Y002861D02*
X005197Y002861D01*
X005197Y003019D02*
X005163Y003019D01*
X005163Y003336D02*
X005198Y003336D01*
X005197Y003495D02*
X005163Y003495D01*
X005163Y003653D02*
X005197Y003653D01*
X005197Y003812D02*
X005163Y003812D01*
X005087Y003970D02*
X005256Y003970D01*
X005100Y003990D02*
X005100Y004328D01*
X005100Y004665D01*
X004830Y004665D01*
X004830Y005559D01*
X004719Y005670D01*
X004703Y005686D01*
X004705Y005685D01*
X004815Y005685D01*
X004916Y005727D01*
X004993Y005804D01*
X005035Y005905D01*
X005035Y005923D01*
X005147Y005923D01*
X005147Y006282D01*
X005184Y006282D01*
X005184Y005923D01*
X005406Y005923D01*
X005451Y005935D01*
X005492Y005959D01*
X005526Y005993D01*
X005528Y005996D01*
X005560Y005963D01*
X005843Y005963D01*
X005755Y005875D01*
X005665Y005875D01*
X005564Y005833D01*
X005487Y005756D01*
X005445Y005655D01*
X005445Y005545D01*
X005487Y005444D01*
X005564Y005367D01*
X005590Y005356D01*
X005590Y004860D01*
X005622Y004828D01*
X005619Y004826D01*
X005586Y004792D01*
X005562Y004751D01*
X005550Y004706D01*
X005550Y004624D01*
X005545Y004629D01*
X005504Y004653D01*
X005458Y004665D01*
X005100Y004665D01*
X005100Y004328D01*
X005100Y004328D01*
X005100Y004328D01*
X005100Y003990D01*
X005100Y004129D02*
X005100Y004129D01*
X005100Y004287D02*
X005100Y004287D01*
X005100Y004446D02*
X005100Y004446D01*
X005100Y004604D02*
X005100Y004604D01*
X004830Y004763D02*
X005569Y004763D01*
X005590Y004921D02*
X004830Y004921D01*
X004830Y005080D02*
X005590Y005080D01*
X005590Y005238D02*
X004830Y005238D01*
X004830Y005397D02*
X005535Y005397D01*
X005445Y005555D02*
X004830Y005555D01*
X004884Y005714D02*
X005469Y005714D01*
X005658Y005872D02*
X005021Y005872D01*
X005147Y006031D02*
X005184Y006031D01*
X005184Y006189D02*
X005147Y006189D01*
X005147Y006318D02*
X005147Y006677D01*
X004990Y006677D01*
X004990Y006773D01*
X005147Y006773D01*
X005147Y007132D01*
X005184Y007132D01*
X005184Y006773D01*
X005406Y006773D01*
X005451Y006785D01*
X005492Y006809D01*
X005526Y006843D01*
X005528Y006846D01*
X005560Y006813D01*
X005650Y006813D01*
X005650Y006637D01*
X005560Y006637D01*
X005528Y006604D01*
X005526Y006607D01*
X005492Y006641D01*
X005451Y006665D01*
X005406Y006677D01*
X005184Y006677D01*
X005184Y006318D01*
X005147Y006318D01*
X005147Y006348D02*
X005184Y006348D01*
X005184Y006506D02*
X005147Y006506D01*
X005147Y006665D02*
X005184Y006665D01*
X005184Y006823D02*
X005147Y006823D01*
X005451Y006665D02*
X005650Y006665D01*
X005550Y006823D02*
X005506Y006823D01*
X005184Y006982D02*
X005147Y006982D01*
X006166Y007457D02*
X007057Y007457D01*
X007084Y007299D02*
X007593Y007299D01*
X007278Y007384D02*
X007278Y007938D01*
X007278Y007938D01*
X007278Y007384D01*
X007278Y007457D02*
X007278Y007457D01*
X007278Y007616D02*
X007278Y007616D01*
X007278Y007774D02*
X007278Y007774D01*
X007278Y007933D02*
X007278Y007933D01*
X007278Y008091D02*
X007278Y008091D01*
X007278Y008250D02*
X007278Y008250D01*
X006964Y008250D02*
X006810Y008250D01*
X006800Y008091D02*
X006960Y008091D01*
X006960Y007933D02*
X006641Y007933D01*
X006483Y007774D02*
X006960Y007774D01*
X006966Y007616D02*
X006324Y007616D01*
X006609Y007299D02*
X006609Y007299D01*
X006609Y007140D02*
X006609Y007140D01*
X006609Y007072D02*
X006609Y007072D01*
X006191Y007072D01*
X006191Y007072D01*
X006609Y007072D01*
X006609Y006759D01*
X006609Y006759D01*
X006609Y007072D01*
X006609Y007072D01*
X006609Y006982D02*
X006609Y006982D01*
X006609Y006823D02*
X006609Y006823D01*
X007062Y006823D02*
X007630Y006823D01*
X007630Y006665D02*
X007070Y006665D01*
X007123Y006506D02*
X007630Y006506D01*
X007630Y006348D02*
X007099Y006348D01*
X007156Y006982D02*
X007630Y006982D01*
X007630Y007140D02*
X007160Y007140D01*
X010630Y006171D02*
X010645Y006165D01*
X010755Y006165D01*
X010856Y006207D01*
X010933Y006284D01*
X010975Y006385D01*
X010975Y006475D01*
X011250Y006750D01*
X011350Y006850D01*
X011350Y007385D01*
X011356Y007384D01*
X011412Y007384D01*
X011468Y007384D01*
X011490Y007388D01*
X011490Y005939D01*
X011427Y005876D01*
X011385Y005775D01*
X011385Y005665D01*
X011427Y005564D01*
X011504Y005487D01*
X011577Y005457D01*
X010474Y004354D01*
X010495Y004405D01*
X010495Y004495D01*
X010630Y004630D01*
X010630Y006171D01*
X010630Y006031D02*
X011490Y006031D01*
X011490Y006189D02*
X010813Y006189D01*
X010959Y006348D02*
X011490Y006348D01*
X011490Y006506D02*
X011006Y006506D01*
X011165Y006665D02*
X011490Y006665D01*
X011490Y006823D02*
X011323Y006823D01*
X011350Y006982D02*
X011490Y006982D01*
X011490Y007140D02*
X011350Y007140D01*
X011350Y007299D02*
X011490Y007299D01*
X011412Y007384D02*
X011412Y007938D01*
X011725Y007938D01*
X011725Y007938D01*
X011412Y007938D01*
X011412Y007938D01*
X011412Y007938D01*
X011412Y008492D01*
X011468Y008492D01*
X011524Y008481D01*
X011577Y008459D01*
X011624Y008427D01*
X011665Y008387D01*
X011697Y008339D01*
X011718Y008286D01*
X011725Y008253D01*
X011763Y008343D01*
X011833Y008414D01*
X011925Y008452D01*
X012080Y008452D01*
X012090Y008448D01*
X012090Y008817D01*
X011810Y009097D01*
X011810Y009503D01*
X011877Y009570D01*
X011723Y009570D01*
X011790Y009503D01*
X011790Y009097D01*
X011503Y008810D01*
X011350Y008810D01*
X011350Y008491D01*
X011356Y008492D01*
X011412Y008492D01*
X011412Y007938D01*
X011350Y007938D01*
X011350Y007938D01*
X011412Y007938D01*
X011412Y007938D01*
X011412Y007938D01*
X011412Y007384D01*
X011412Y007457D02*
X011412Y007457D01*
X011412Y007616D02*
X011412Y007616D01*
X011412Y007774D02*
X011412Y007774D01*
X011412Y007933D02*
X011412Y007933D01*
X011412Y008091D02*
X011412Y008091D01*
X011412Y008250D02*
X011412Y008250D01*
X011412Y008408D02*
X011412Y008408D01*
X011643Y008408D02*
X011827Y008408D01*
X012090Y008567D02*
X011350Y008567D01*
X011350Y008725D02*
X012090Y008725D01*
X012024Y008884D02*
X011576Y008884D01*
X011735Y009042D02*
X011865Y009042D01*
X011810Y009201D02*
X011790Y009201D01*
X011790Y009359D02*
X011810Y009359D01*
X011825Y009518D02*
X011775Y009518D01*
X013630Y008937D02*
X013790Y009097D01*
X013790Y009503D01*
X013723Y009570D01*
X020570Y009570D01*
X020570Y007358D01*
X020520Y007378D01*
X020464Y007389D01*
X020172Y007389D01*
X020172Y007072D01*
X020570Y007072D01*
X020570Y007072D01*
X020172Y007072D01*
X020172Y007072D01*
X020172Y007072D01*
X020172Y007389D01*
X019879Y007389D01*
X019823Y007378D01*
X019770Y007356D01*
X019723Y007325D01*
X019682Y007284D01*
X019651Y007237D01*
X019629Y007184D01*
X019618Y007128D01*
X019618Y007072D01*
X020172Y007072D01*
X020172Y006481D01*
X020172Y006481D01*
X020570Y006481D01*
X020570Y006481D01*
X020172Y006481D01*
X020172Y006163D01*
X020172Y005891D01*
X020172Y005891D01*
X020570Y005891D01*
X020570Y005891D01*
X020172Y005891D01*
X020172Y005891D01*
X020172Y006481D01*
X020172Y006481D01*
X020172Y006481D01*
X020172Y006799D01*
X020172Y007072D01*
X020172Y007072D01*
X020172Y007072D01*
X019618Y007072D01*
X019618Y007016D01*
X019629Y006959D01*
X019651Y006907D01*
X019682Y006859D01*
X019723Y006819D01*
X019770Y006787D01*
X019796Y006776D01*
X019770Y006766D01*
X019723Y006734D01*
X019682Y006694D01*
X019651Y006646D01*
X019629Y006593D01*
X019618Y006537D01*
X019618Y006481D01*
X019618Y006425D01*
X019629Y006369D01*
X019651Y006316D01*
X019682Y006269D01*
X019723Y006228D01*
X019770Y006196D01*
X019796Y006186D01*
X019770Y006175D01*
X019723Y006144D01*
X019682Y006103D01*
X019651Y006056D01*
X019629Y006003D01*
X019618Y005947D01*
X019618Y005891D01*
X020172Y005891D01*
X020172Y005891D01*
X020172Y005300D01*
X020570Y005300D01*
X020570Y005300D01*
X020172Y005300D01*
X020172Y005300D01*
X020172Y005300D01*
X020172Y004982D01*
X020172Y004709D01*
X020172Y004119D01*
X020570Y004119D01*
X020570Y004119D01*
X020172Y004119D01*
X020172Y004119D01*
X020172Y004119D01*
X020172Y003846D01*
X020172Y003528D01*
X020172Y003528D01*
X020570Y003528D01*
X020570Y003528D01*
X020172Y003528D01*
X020172Y003211D01*
X020464Y003211D01*
X020520Y003222D01*
X020570Y003242D01*
X020570Y001030D01*
X013723Y001030D01*
X013790Y001097D01*
X013790Y001503D01*
X013503Y001790D01*
X013097Y001790D01*
X013090Y001783D01*
X013090Y002155D01*
X013106Y002148D01*
X013261Y002148D01*
X013353Y002186D01*
X013423Y002257D01*
X013461Y002349D01*
X013461Y002778D01*
X013496Y002743D01*
X013496Y002349D01*
X013534Y002257D01*
X013605Y002186D01*
X013697Y002148D01*
X013851Y002148D01*
X013943Y002186D01*
X014014Y002257D01*
X014052Y002349D01*
X014052Y002788D01*
X014087Y002753D01*
X014087Y002349D01*
X014125Y002257D01*
X014195Y002186D01*
X014287Y002148D01*
X014442Y002148D01*
X014534Y002186D01*
X014604Y002257D01*
X014642Y002347D01*
X014648Y002314D01*
X014670Y002261D01*
X014702Y002213D01*
X014743Y002173D01*
X014790Y002141D01*
X014843Y002119D01*
X014899Y002108D01*
X014955Y002108D01*
X014955Y002662D01*
X014955Y002662D01*
X014642Y002662D01*
X014642Y002662D01*
X014955Y002662D01*
X014955Y002662D01*
X014955Y002108D01*
X015011Y002108D01*
X015067Y002119D01*
X015120Y002141D01*
X015168Y002173D01*
X015208Y002213D01*
X015240Y002261D01*
X015250Y002286D01*
X015261Y002261D01*
X015293Y002213D01*
X015333Y002173D01*
X015381Y002141D01*
X015433Y002119D01*
X015490Y002108D01*
X015546Y002108D01*
X015602Y002108D01*
X015658Y002119D01*
X015711Y002141D01*
X015758Y002173D01*
X015799Y002213D01*
X015830Y002261D01*
X015841Y002286D01*
X015851Y002261D01*
X015883Y002213D01*
X015924Y002173D01*
X015971Y002141D01*
X016024Y002119D01*
X016080Y002108D01*
X016136Y002108D01*
X016136Y002662D01*
X015818Y002662D01*
X015546Y002662D01*
X015546Y002662D01*
X015546Y002108D01*
X015546Y002662D01*
X015546Y002662D01*
X016136Y002662D01*
X016136Y002662D01*
X016136Y002662D01*
X016136Y002108D01*
X016192Y002108D01*
X016248Y002119D01*
X016301Y002141D01*
X016349Y002173D01*
X016389Y002213D01*
X016421Y002261D01*
X016431Y002286D01*
X016442Y002261D01*
X016474Y002213D01*
X016514Y002173D01*
X016562Y002141D01*
X016615Y002119D01*
X016671Y002108D01*
X016727Y002108D01*
X016783Y002108D01*
X016839Y002119D01*
X016892Y002141D01*
X016939Y002173D01*
X016980Y002213D01*
X017012Y002261D01*
X017022Y002286D01*
X017033Y002261D01*
X017064Y002213D01*
X017105Y002173D01*
X017152Y002141D01*
X017205Y002119D01*
X017261Y002108D01*
X017317Y002108D01*
X017317Y002662D01*
X017000Y002662D01*
X016727Y002662D01*
X016727Y002662D01*
X016727Y002108D01*
X016727Y002662D01*
X016727Y002662D01*
X017317Y002662D01*
X017317Y002662D01*
X017317Y002662D01*
X017317Y002108D01*
X017373Y002108D01*
X017430Y002119D01*
X017482Y002141D01*
X017530Y002173D01*
X017570Y002213D01*
X017602Y002261D01*
X017613Y002286D01*
X017623Y002261D01*
X017655Y002213D01*
X017695Y002173D01*
X017743Y002141D01*
X017796Y002119D01*
X017852Y002108D01*
X017908Y002108D01*
X017964Y002108D01*
X018020Y002119D01*
X018073Y002141D01*
X018120Y002173D01*
X018161Y002213D01*
X018193Y002261D01*
X018215Y002314D01*
X018226Y002370D01*
X018226Y002662D01*
X017908Y002662D01*
X017908Y002108D01*
X017908Y002662D01*
X017908Y002662D01*
X017908Y002662D01*
X018226Y002662D01*
X018226Y002955D01*
X018215Y003011D01*
X018193Y003063D01*
X018161Y003111D01*
X018120Y003151D01*
X018073Y003183D01*
X018020Y003205D01*
X017964Y003216D01*
X017908Y003216D01*
X017908Y002662D01*
X017317Y002662D01*
X017317Y003216D01*
X017261Y003216D01*
X017205Y003205D01*
X017152Y003183D01*
X017105Y003151D01*
X017064Y003111D01*
X017033Y003063D01*
X017022Y003038D01*
X017012Y003063D01*
X016980Y003111D01*
X016939Y003151D01*
X016892Y003183D01*
X016839Y003205D01*
X016783Y003216D01*
X016727Y003216D01*
X016727Y002662D01*
X016136Y002662D01*
X016136Y003216D01*
X016080Y003216D01*
X016024Y003205D01*
X015971Y003183D01*
X015924Y003151D01*
X015883Y003111D01*
X015851Y003063D01*
X015841Y003038D01*
X015830Y003063D01*
X015799Y003111D01*
X015758Y003151D01*
X015711Y003183D01*
X015658Y003205D01*
X015602Y003216D01*
X015546Y003216D01*
X015546Y002662D01*
X015546Y002662D01*
X014955Y002662D01*
X014955Y002662D01*
X014955Y003216D01*
X014899Y003216D01*
X014843Y003205D01*
X014790Y003183D01*
X014743Y003151D01*
X014702Y003111D01*
X014670Y003063D01*
X014648Y003011D01*
X014642Y002977D01*
X014604Y003068D01*
X014534Y003138D01*
X014442Y003176D01*
X014287Y003176D01*
X014195Y003138D01*
X014189Y003132D01*
X013930Y003390D01*
X013930Y004561D01*
X013964Y004527D01*
X014065Y004485D01*
X014175Y004485D01*
X014276Y004527D01*
X014353Y004604D01*
X019627Y004604D01*
X019629Y004597D02*
X019651Y004544D01*
X019682Y004497D01*
X019723Y004456D01*
X019770Y004425D01*
X019796Y004414D01*
X019770Y004404D01*
X019723Y004372D01*
X019682Y004331D01*
X019651Y004284D01*
X019629Y004231D01*
X019618Y004175D01*
X019618Y004119D01*
X020172Y004119D01*
X020172Y004119D01*
X020172Y004437D01*
X020172Y004709D01*
X020172Y004709D01*
X020172Y004709D01*
X020570Y004709D01*
X020570Y004709D01*
X020172Y004709D01*
X019618Y004709D01*
X019618Y004653D01*
X019629Y004597D01*
X019618Y004709D02*
X020172Y004709D01*
X020172Y004709D01*
X020172Y004709D01*
X020172Y005300D01*
X020172Y005300D01*
X020172Y005618D01*
X020172Y005891D01*
X020172Y005891D01*
X019618Y005891D01*
X019618Y005834D01*
X019629Y005778D01*
X019651Y005726D01*
X019682Y005678D01*
X019723Y005638D01*
X019770Y005606D01*
X019796Y005595D01*
X019770Y005585D01*
X019723Y005553D01*
X019682Y005513D01*
X019651Y005465D01*
X019629Y005412D01*
X019618Y005356D01*
X019618Y005300D01*
X019618Y005244D01*
X019629Y005188D01*
X019651Y005135D01*
X019682Y005087D01*
X019723Y005047D01*
X019770Y005015D01*
X019796Y005005D01*
X019770Y004994D01*
X019723Y004962D01*
X019682Y004922D01*
X019651Y004874D01*
X019629Y004822D01*
X019618Y004766D01*
X019618Y004709D01*
X019618Y004763D02*
X014395Y004763D01*
X014395Y004815D02*
X014353Y004916D01*
X014310Y004959D01*
X014310Y007424D01*
X014442Y007424D01*
X014534Y007462D01*
X014604Y007532D01*
X014642Y007623D01*
X014648Y007589D01*
X014670Y007537D01*
X014702Y007489D01*
X014743Y007449D01*
X014790Y007417D01*
X014843Y007395D01*
X014899Y007384D01*
X014955Y007384D01*
X014955Y007938D01*
X014955Y008492D01*
X014899Y008492D01*
X014843Y008481D01*
X014790Y008459D01*
X014743Y008427D01*
X014702Y008387D01*
X014670Y008339D01*
X014648Y008286D01*
X014642Y008253D01*
X014604Y008343D01*
X014534Y008414D01*
X014442Y008452D01*
X014287Y008452D01*
X014213Y008421D01*
X014215Y008425D01*
X014215Y008535D01*
X014173Y008636D01*
X014096Y008713D01*
X013995Y008755D01*
X013885Y008755D01*
X013784Y008713D01*
X013707Y008636D01*
X013665Y008535D01*
X013665Y008439D01*
X013630Y008424D01*
X013630Y008937D01*
X013630Y008884D02*
X020570Y008884D01*
X020570Y009042D02*
X013735Y009042D01*
X013790Y009201D02*
X020570Y009201D01*
X020570Y009359D02*
X013790Y009359D01*
X013775Y009518D02*
X020570Y009518D01*
X020570Y008725D02*
X014067Y008725D01*
X014202Y008567D02*
X020570Y008567D01*
X020570Y008408D02*
X019911Y008408D01*
X019892Y008427D02*
X019845Y008459D01*
X019792Y008481D01*
X019736Y008492D01*
X019680Y008492D01*
X019680Y007938D01*
X019997Y007938D01*
X019997Y008230D01*
X019986Y008286D01*
X019964Y008339D01*
X019933Y008387D01*
X019892Y008427D01*
X019993Y008250D02*
X020570Y008250D01*
X020570Y008091D02*
X019997Y008091D01*
X019997Y007938D02*
X019680Y007938D01*
X019680Y007938D01*
X019680Y007938D01*
X019680Y007384D01*
X019736Y007384D01*
X019792Y007395D01*
X019845Y007417D01*
X019892Y007449D01*
X019933Y007489D01*
X019964Y007537D01*
X019986Y007589D01*
X019997Y007645D01*
X019997Y007938D01*
X019997Y007933D02*
X020570Y007933D01*
X020570Y007774D02*
X019997Y007774D01*
X019991Y007616D02*
X020570Y007616D01*
X020570Y007457D02*
X019901Y007457D01*
X019680Y007457D02*
X019680Y007457D01*
X019680Y007384D02*
X019680Y007938D01*
X019680Y007938D01*
X019680Y008492D01*
X019623Y008492D01*
X019567Y008481D01*
X019514Y008459D01*
X019467Y008427D01*
X019427Y008387D01*
X019395Y008339D01*
X019384Y008314D01*
X019374Y008339D01*
X019342Y008387D01*
X019302Y008427D01*
X019254Y008459D01*
X019201Y008481D01*
X019145Y008492D01*
X019089Y008492D01*
X019089Y007938D01*
X019089Y007938D01*
X019089Y008492D01*
X019033Y008492D01*
X018977Y008481D01*
X018924Y008459D01*
X018876Y008427D01*
X018836Y008387D01*
X018804Y008339D01*
X018794Y008314D01*
X018783Y008339D01*
X018751Y008387D01*
X018711Y008427D01*
X018663Y008459D01*
X018611Y008481D01*
X018555Y008492D01*
X018498Y008492D01*
X018442Y008492D01*
X018386Y008481D01*
X018333Y008459D01*
X018286Y008427D01*
X018245Y008387D01*
X018214Y008339D01*
X018203Y008314D01*
X018193Y008339D01*
X018161Y008387D01*
X018120Y008427D01*
X018073Y008459D01*
X018020Y008481D01*
X017964Y008492D01*
X017908Y008492D01*
X017908Y007938D01*
X017908Y007938D01*
X018498Y007938D01*
X018498Y007938D01*
X018498Y008492D01*
X018498Y007938D01*
X018498Y007938D01*
X018226Y007938D01*
X017908Y007938D01*
X017908Y007938D01*
X017908Y008492D01*
X017852Y008492D01*
X017796Y008481D01*
X017743Y008459D01*
X017695Y008427D01*
X017655Y008387D01*
X017623Y008339D01*
X017613Y008314D01*
X017602Y008339D01*
X017570Y008387D01*
X017530Y008427D01*
X017482Y008459D01*
X017430Y008481D01*
X017373Y008492D01*
X017317Y008492D01*
X017261Y008492D01*
X017205Y008481D01*
X017152Y008459D01*
X017105Y008427D01*
X017064Y008387D01*
X017033Y008339D01*
X017022Y008314D01*
X017012Y008339D01*
X016980Y008387D01*
X016939Y008427D01*
X016892Y008459D01*
X016839Y008481D01*
X016783Y008492D01*
X016727Y008492D01*
X016727Y007938D01*
X016727Y007938D01*
X017317Y007938D01*
X017317Y007938D01*
X017317Y008492D01*
X017317Y007938D01*
X017317Y007938D01*
X017045Y007938D01*
X016727Y007938D01*
X016727Y007938D01*
X016727Y008492D01*
X016671Y008492D01*
X016615Y008481D01*
X016562Y008459D01*
X016514Y008427D01*
X016474Y008387D01*
X016442Y008339D01*
X016431Y008314D01*
X016421Y008339D01*
X016389Y008387D01*
X016349Y008427D01*
X016301Y008459D01*
X016248Y008481D01*
X016192Y008492D01*
X016136Y008492D01*
X016080Y008492D01*
X016024Y008481D01*
X015971Y008459D01*
X015924Y008427D01*
X015883Y008387D01*
X015851Y008339D01*
X015841Y008314D01*
X015830Y008339D01*
X015799Y008387D01*
X015758Y008427D01*
X015711Y008459D01*
X015658Y008481D01*
X015602Y008492D01*
X015546Y008492D01*
X015546Y007938D01*
X016136Y007938D01*
X016136Y008492D01*
X016136Y007938D01*
X016136Y007938D01*
X016136Y007938D01*
X015863Y007938D01*
X015546Y007938D01*
X015546Y007938D01*
X015546Y007938D01*
X015546Y008492D01*
X015490Y008492D01*
X015433Y008481D01*
X015381Y008459D01*
X015333Y008427D01*
X015293Y008387D01*
X015261Y008339D01*
X015250Y008314D01*
X015240Y008339D01*
X015208Y008387D01*
X015168Y008427D01*
X015120Y008459D01*
X015067Y008481D01*
X015011Y008492D01*
X014955Y008492D01*
X014955Y007938D01*
X014955Y007938D01*
X014955Y007938D01*
X014642Y007938D01*
X014642Y007938D01*
X014955Y007938D01*
X015228Y007938D01*
X015546Y007938D01*
X015546Y007384D01*
X015602Y007384D01*
X015658Y007395D01*
X015711Y007417D01*
X015758Y007449D01*
X015799Y007489D01*
X015830Y007537D01*
X015841Y007562D01*
X015851Y007537D01*
X015883Y007489D01*
X015924Y007449D01*
X015971Y007417D01*
X016024Y007395D01*
X016080Y007384D01*
X016136Y007384D01*
X016136Y007938D01*
X016136Y007938D01*
X016409Y007938D01*
X016727Y007938D01*
X016727Y007384D01*
X016783Y007384D01*
X016839Y007395D01*
X016892Y007417D01*
X016939Y007449D01*
X016980Y007489D01*
X017012Y007537D01*
X017022Y007562D01*
X017033Y007537D01*
X017064Y007489D01*
X017105Y007449D01*
X017152Y007417D01*
X017205Y007395D01*
X017261Y007384D01*
X017317Y007384D01*
X017317Y007938D01*
X017317Y007938D01*
X017590Y007938D01*
X017908Y007938D01*
X017908Y007938D01*
X017908Y007384D01*
X017964Y007384D01*
X018020Y007395D01*
X018073Y007417D01*
X018120Y007449D01*
X018161Y007489D01*
X018193Y007537D01*
X018203Y007562D01*
X018214Y007537D01*
X018245Y007489D01*
X018286Y007449D01*
X018333Y007417D01*
X018386Y007395D01*
X018442Y007384D01*
X018498Y007384D01*
X018498Y007938D01*
X018498Y007938D01*
X018771Y007938D01*
X019089Y007938D01*
X019680Y007938D01*
X019680Y007938D01*
X019407Y007938D01*
X019089Y007938D01*
X019089Y007938D01*
X019089Y007938D01*
X018498Y007938D01*
X018498Y007938D01*
X018498Y007384D01*
X018555Y007384D01*
X018611Y007395D01*
X018663Y007417D01*
X018711Y007449D01*
X018751Y007489D01*
X018783Y007537D01*
X018794Y007562D01*
X018804Y007537D01*
X018836Y007489D01*
X018876Y007449D01*
X018924Y007417D01*
X018977Y007395D01*
X019033Y007384D01*
X019089Y007384D01*
X019145Y007384D01*
X019201Y007395D01*
X019254Y007417D01*
X019302Y007449D01*
X019342Y007489D01*
X019374Y007537D01*
X019384Y007562D01*
X019395Y007537D01*
X019427Y007489D01*
X019467Y007449D01*
X019514Y007417D01*
X019567Y007395D01*
X019623Y007384D01*
X019680Y007384D01*
X019697Y007299D02*
X014310Y007299D01*
X014522Y007457D02*
X014734Y007457D01*
X014955Y007457D02*
X014955Y007457D01*
X014955Y007384D02*
X015011Y007384D01*
X015067Y007395D01*
X015120Y007417D01*
X015168Y007449D01*
X015208Y007489D01*
X015240Y007537D01*
X015250Y007562D01*
X015261Y007537D01*
X015293Y007489D01*
X015333Y007449D01*
X015381Y007417D01*
X015433Y007395D01*
X015490Y007384D01*
X015546Y007384D01*
X015546Y007938D01*
X015546Y007938D01*
X015546Y007938D01*
X014955Y007938D01*
X014955Y007938D01*
X014955Y007938D01*
X014955Y007384D01*
X015176Y007457D02*
X015325Y007457D01*
X015546Y007457D02*
X015546Y007457D01*
X015767Y007457D02*
X015915Y007457D01*
X016136Y007457D02*
X016136Y007457D01*
X016136Y007384D02*
X016192Y007384D01*
X016248Y007395D01*
X016301Y007417D01*
X016349Y007449D01*
X016389Y007489D01*
X016421Y007537D01*
X016431Y007562D01*
X016442Y007537D01*
X016474Y007489D01*
X016514Y007449D01*
X016562Y007417D01*
X016615Y007395D01*
X016671Y007384D01*
X016727Y007384D01*
X016727Y007938D01*
X016727Y007938D01*
X016727Y007938D01*
X016136Y007938D01*
X016136Y007938D01*
X016136Y007384D01*
X016357Y007457D02*
X016506Y007457D01*
X016727Y007457D02*
X016727Y007457D01*
X016948Y007457D02*
X017096Y007457D01*
X017317Y007457D02*
X017317Y007457D01*
X017317Y007384D02*
X017373Y007384D01*
X017430Y007395D01*
X017482Y007417D01*
X017530Y007449D01*
X017570Y007489D01*
X017602Y007537D01*
X017613Y007562D01*
X017623Y007537D01*
X017655Y007489D01*
X017695Y007449D01*
X017743Y007417D01*
X017796Y007395D01*
X017852Y007384D01*
X017908Y007384D01*
X017908Y007938D01*
X017908Y007938D01*
X017317Y007938D01*
X017317Y007938D01*
X017317Y007384D01*
X017538Y007457D02*
X017687Y007457D01*
X017908Y007457D02*
X017908Y007457D01*
X018129Y007457D02*
X018277Y007457D01*
X018498Y007457D02*
X018498Y007457D01*
X018719Y007457D02*
X018868Y007457D01*
X019089Y007457D02*
X019089Y007457D01*
X019089Y007384D02*
X019089Y007938D01*
X019089Y007938D01*
X019089Y007384D01*
X019310Y007457D02*
X019459Y007457D01*
X019680Y007616D02*
X019680Y007616D01*
X019680Y007774D02*
X019680Y007774D01*
X019680Y007933D02*
X019680Y007933D01*
X019680Y008091D02*
X019680Y008091D01*
X019680Y008250D02*
X019680Y008250D01*
X019680Y008408D02*
X019680Y008408D01*
X019448Y008408D02*
X019321Y008408D01*
X019089Y008408D02*
X019089Y008408D01*
X019089Y008250D02*
X019089Y008250D01*
X018857Y008408D02*
X018730Y008408D01*
X018498Y008408D02*
X018498Y008408D01*
X018498Y008250D02*
X018498Y008250D01*
X018267Y008408D02*
X018139Y008408D01*
X017908Y008408D02*
X017908Y008408D01*
X017908Y008250D02*
X017908Y008250D01*
X017676Y008408D02*
X017549Y008408D01*
X017317Y008408D02*
X017317Y008408D01*
X017317Y008250D02*
X017317Y008250D01*
X017086Y008408D02*
X016958Y008408D01*
X016727Y008408D02*
X016727Y008408D01*
X016727Y008250D02*
X016727Y008250D01*
X016495Y008408D02*
X016368Y008408D01*
X016136Y008408D02*
X016136Y008408D01*
X016136Y008250D02*
X016136Y008250D01*
X015905Y008408D02*
X015777Y008408D01*
X015546Y008408D02*
X015546Y008408D01*
X015546Y008250D02*
X015546Y008250D01*
X015314Y008408D02*
X015187Y008408D01*
X014955Y008408D02*
X014955Y008408D01*
X014955Y008250D02*
X014955Y008250D01*
X014724Y008408D02*
X014540Y008408D01*
X014955Y008091D02*
X014955Y008091D01*
X014955Y007933D02*
X014955Y007933D01*
X014955Y007774D02*
X014955Y007774D01*
X014955Y007616D02*
X014955Y007616D01*
X014643Y007616D02*
X014639Y007616D01*
X015546Y007616D02*
X015546Y007616D01*
X015546Y007774D02*
X015546Y007774D01*
X015546Y007933D02*
X015546Y007933D01*
X015546Y008091D02*
X015546Y008091D01*
X016136Y008091D02*
X016136Y008091D01*
X016136Y007933D02*
X016136Y007933D01*
X016136Y007774D02*
X016136Y007774D01*
X016136Y007616D02*
X016136Y007616D01*
X016727Y007616D02*
X016727Y007616D01*
X016727Y007774D02*
X016727Y007774D01*
X016727Y007933D02*
X016727Y007933D01*
X016727Y008091D02*
X016727Y008091D01*
X017317Y008091D02*
X017317Y008091D01*
X017317Y007933D02*
X017317Y007933D01*
X017317Y007774D02*
X017317Y007774D01*
X017317Y007616D02*
X017317Y007616D01*
X017908Y007616D02*
X017908Y007616D01*
X017908Y007774D02*
X017908Y007774D01*
X017908Y007933D02*
X017908Y007933D01*
X017908Y008091D02*
X017908Y008091D01*
X018498Y008091D02*
X018498Y008091D01*
X018498Y007933D02*
X018498Y007933D01*
X018498Y007774D02*
X018498Y007774D01*
X018498Y007616D02*
X018498Y007616D01*
X019089Y007616D02*
X019089Y007616D01*
X019089Y007774D02*
X019089Y007774D01*
X019089Y007933D02*
X019089Y007933D01*
X019089Y008091D02*
X019089Y008091D01*
X020172Y007299D02*
X020172Y007299D01*
X020172Y007140D02*
X020172Y007140D01*
X020172Y006982D02*
X020172Y006982D01*
X020172Y006823D02*
X020172Y006823D01*
X020172Y006665D02*
X020172Y006665D01*
X020172Y006506D02*
X020172Y006506D01*
X020172Y006481D02*
X020172Y006481D01*
X019618Y006481D01*
X020172Y006481D01*
X020172Y006348D02*
X020172Y006348D01*
X020172Y006189D02*
X020172Y006189D01*
X020172Y006031D02*
X020172Y006031D01*
X020172Y005872D02*
X020172Y005872D01*
X020172Y005714D02*
X020172Y005714D01*
X020172Y005555D02*
X020172Y005555D01*
X020172Y005397D02*
X020172Y005397D01*
X020172Y005300D02*
X020172Y005300D01*
X019618Y005300D01*
X020172Y005300D01*
X020172Y005238D02*
X020172Y005238D01*
X020172Y005080D02*
X020172Y005080D01*
X020172Y004921D02*
X020172Y004921D01*
X020172Y004763D02*
X020172Y004763D01*
X020172Y004604D02*
X020172Y004604D01*
X020172Y004446D02*
X020172Y004446D01*
X020172Y004287D02*
X020172Y004287D01*
X020172Y004129D02*
X020172Y004129D01*
X020172Y004119D02*
X020172Y004119D01*
X020172Y003528D01*
X020172Y003528D01*
X020172Y003211D01*
X019879Y003211D01*
X019823Y003222D01*
X019770Y003244D01*
X019723Y003275D01*
X019682Y003316D01*
X019651Y003363D01*
X019629Y003416D01*
X019618Y003472D01*
X019618Y003528D01*
X020172Y003528D01*
X020172Y003528D01*
X020172Y003528D01*
X019618Y003528D01*
X019618Y003584D01*
X019629Y003641D01*
X019651Y003693D01*
X019682Y003741D01*
X019723Y003781D01*
X019770Y003813D01*
X019796Y003824D01*
X019770Y003834D01*
X019723Y003866D01*
X019682Y003906D01*
X019651Y003954D01*
X019629Y004007D01*
X019618Y004063D01*
X019618Y004119D01*
X020172Y004119D01*
X020172Y003970D02*
X020172Y003970D01*
X020172Y003812D02*
X020172Y003812D01*
X020172Y003653D02*
X020172Y003653D01*
X020172Y003495D02*
X020172Y003495D01*
X020172Y003336D02*
X020172Y003336D01*
X020570Y003178D02*
X018081Y003178D01*
X017908Y003178D02*
X017908Y003178D01*
X017908Y003216D02*
X017852Y003216D01*
X017796Y003205D01*
X017743Y003183D01*
X017695Y003151D01*
X017655Y003111D01*
X017623Y003063D01*
X017613Y003038D01*
X017602Y003063D01*
X017570Y003111D01*
X017530Y003151D01*
X017482Y003183D01*
X017430Y003205D01*
X017373Y003216D01*
X017317Y003216D01*
X017317Y002662D01*
X017317Y002662D01*
X017317Y002662D01*
X017590Y002662D01*
X017908Y002662D01*
X017908Y002662D01*
X017908Y002662D01*
X017908Y003216D01*
X017734Y003178D02*
X017491Y003178D01*
X017317Y003178D02*
X017317Y003178D01*
X017144Y003178D02*
X016900Y003178D01*
X016727Y003178D02*
X016727Y003178D01*
X016727Y003216D02*
X016671Y003216D01*
X016615Y003205D01*
X016562Y003183D01*
X016514Y003151D01*
X016474Y003111D01*
X016442Y003063D01*
X016431Y003038D01*
X016421Y003063D01*
X016389Y003111D01*
X016349Y003151D01*
X016301Y003183D01*
X016248Y003205D01*
X016192Y003216D01*
X016136Y003216D01*
X016136Y002662D01*
X016136Y002662D01*
X016136Y002662D01*
X016454Y002662D01*
X016727Y002662D01*
X016727Y002662D01*
X016727Y002662D01*
X016727Y003216D01*
X016553Y003178D02*
X016310Y003178D01*
X016136Y003178D02*
X016136Y003178D01*
X015963Y003178D02*
X015719Y003178D01*
X015546Y003178D02*
X015546Y003178D01*
X015546Y003216D02*
X015490Y003216D01*
X015433Y003205D01*
X015381Y003183D01*
X015333Y003151D01*
X015293Y003111D01*
X015261Y003063D01*
X015250Y003038D01*
X015240Y003063D01*
X015208Y003111D01*
X015168Y003151D01*
X015120Y003183D01*
X015067Y003205D01*
X015011Y003216D01*
X014955Y003216D01*
X014955Y002662D01*
X014955Y002662D01*
X015273Y002662D01*
X015546Y002662D01*
X015546Y002662D01*
X015546Y003216D01*
X015372Y003178D02*
X015129Y003178D01*
X014955Y003178D02*
X014955Y003178D01*
X014782Y003178D02*
X014143Y003178D01*
X013984Y003336D02*
X019669Y003336D01*
X019618Y003495D02*
X013930Y003495D01*
X013930Y003653D02*
X019634Y003653D01*
X019768Y003812D02*
X013930Y003812D01*
X013930Y003970D02*
X019644Y003970D01*
X019618Y004129D02*
X013930Y004129D01*
X013930Y004287D02*
X019653Y004287D01*
X019739Y004446D02*
X013930Y004446D01*
X014353Y004604D02*
X014395Y004705D01*
X014395Y004815D01*
X014348Y004921D02*
X019682Y004921D01*
X019690Y005080D02*
X014310Y005080D01*
X014310Y005238D02*
X019619Y005238D01*
X019626Y005397D02*
X014310Y005397D01*
X014310Y005555D02*
X019726Y005555D01*
X019659Y005714D02*
X014310Y005714D01*
X014310Y005872D02*
X019618Y005872D01*
X019640Y006031D02*
X014310Y006031D01*
X014310Y006189D02*
X019788Y006189D01*
X019638Y006348D02*
X014310Y006348D01*
X014310Y006506D02*
X019618Y006506D01*
X019663Y006665D02*
X014310Y006665D01*
X014310Y006823D02*
X019719Y006823D01*
X019624Y006982D02*
X014310Y006982D01*
X014310Y007140D02*
X019620Y007140D01*
X013813Y008725D02*
X013630Y008725D01*
X013630Y008567D02*
X013678Y008567D01*
X011425Y005872D02*
X010630Y005872D01*
X010630Y005714D02*
X011385Y005714D01*
X011436Y005555D02*
X010630Y005555D01*
X010630Y005397D02*
X011516Y005397D01*
X011358Y005238D02*
X010630Y005238D01*
X010630Y005080D02*
X011199Y005080D01*
X011041Y004921D02*
X010630Y004921D01*
X010630Y004763D02*
X010882Y004763D01*
X010724Y004604D02*
X010604Y004604D01*
X010565Y004446D02*
X010495Y004446D01*
X010410Y004261D02*
X010410Y003174D01*
X010396Y003183D01*
X010343Y003205D01*
X010287Y003216D01*
X010231Y003216D01*
X010231Y002662D01*
X010410Y002662D01*
X010410Y002662D01*
X010231Y002662D01*
X010231Y002662D01*
X010231Y002350D01*
X010231Y002350D01*
X010231Y002662D01*
X010231Y002662D01*
X010231Y002662D01*
X009918Y002662D01*
X010231Y002662D01*
X010231Y002662D01*
X010231Y003216D01*
X010175Y003216D01*
X010135Y003208D01*
X010135Y003255D01*
X010093Y003356D01*
X010030Y003419D01*
X010030Y004261D01*
X010064Y004227D01*
X010165Y004185D01*
X010275Y004185D01*
X010376Y004227D01*
X010410Y004261D01*
X010410Y004129D02*
X010030Y004129D01*
X010030Y003970D02*
X010410Y003970D01*
X010410Y003812D02*
X010030Y003812D01*
X010030Y003653D02*
X010410Y003653D01*
X010410Y003495D02*
X010030Y003495D01*
X010101Y003336D02*
X010410Y003336D01*
X010404Y003178D02*
X010410Y003178D01*
X010231Y003178D02*
X010231Y003178D01*
X010231Y003019D02*
X010231Y003019D01*
X010231Y002861D02*
X010231Y002861D01*
X010231Y002702D02*
X010231Y002702D01*
X010231Y002544D02*
X010231Y002544D01*
X009918Y002662D02*
X009918Y002662D01*
X010231Y002385D02*
X010231Y002385D01*
X013090Y002068D02*
X020570Y002068D01*
X020570Y001910D02*
X013090Y001910D01*
X013542Y001751D02*
X020570Y001751D01*
X020570Y001593D02*
X013700Y001593D01*
X013790Y001434D02*
X020570Y001434D01*
X020570Y001276D02*
X013790Y001276D01*
X013790Y001117D02*
X020570Y001117D01*
X020570Y002227D02*
X018170Y002227D01*
X018226Y002385D02*
X020570Y002385D01*
X020570Y002544D02*
X018226Y002544D01*
X018226Y002702D02*
X020570Y002702D01*
X020570Y002861D02*
X018226Y002861D01*
X018211Y003019D02*
X020570Y003019D01*
X017908Y003019D02*
X017908Y003019D01*
X017908Y002861D02*
X017908Y002861D01*
X017908Y002702D02*
X017908Y002702D01*
X017908Y002544D02*
X017908Y002544D01*
X017908Y002385D02*
X017908Y002385D01*
X017908Y002227D02*
X017908Y002227D01*
X017646Y002227D02*
X017579Y002227D01*
X017317Y002227D02*
X017317Y002227D01*
X017317Y002385D02*
X017317Y002385D01*
X017317Y002544D02*
X017317Y002544D01*
X017317Y002702D02*
X017317Y002702D01*
X017317Y002861D02*
X017317Y002861D01*
X017317Y003019D02*
X017317Y003019D01*
X016727Y003019D02*
X016727Y003019D01*
X016727Y002861D02*
X016727Y002861D01*
X016727Y002702D02*
X016727Y002702D01*
X016727Y002544D02*
X016727Y002544D01*
X016727Y002385D02*
X016727Y002385D01*
X016727Y002227D02*
X016727Y002227D01*
X016989Y002227D02*
X017056Y002227D01*
X016465Y002227D02*
X016398Y002227D01*
X016136Y002227D02*
X016136Y002227D01*
X016136Y002385D02*
X016136Y002385D01*
X015874Y002227D02*
X015807Y002227D01*
X015546Y002227D02*
X015546Y002227D01*
X015546Y002385D02*
X015546Y002385D01*
X015284Y002227D02*
X015217Y002227D01*
X014955Y002227D02*
X014955Y002227D01*
X014955Y002385D02*
X014955Y002385D01*
X014955Y002544D02*
X014955Y002544D01*
X014955Y002702D02*
X014955Y002702D01*
X014955Y002861D02*
X014955Y002861D01*
X014955Y003019D02*
X014955Y003019D01*
X014652Y003019D02*
X014624Y003019D01*
X014087Y002702D02*
X014052Y002702D01*
X014052Y002544D02*
X014087Y002544D01*
X014087Y002385D02*
X014052Y002385D01*
X013984Y002227D02*
X014155Y002227D01*
X014574Y002227D02*
X014693Y002227D01*
X015546Y002544D02*
X015546Y002544D01*
X015546Y002702D02*
X015546Y002702D01*
X015546Y002861D02*
X015546Y002861D01*
X015546Y003019D02*
X015546Y003019D01*
X016136Y003019D02*
X016136Y003019D01*
X016136Y002861D02*
X016136Y002861D01*
X016136Y002702D02*
X016136Y002702D01*
X016136Y002544D02*
X016136Y002544D01*
X013564Y002227D02*
X013393Y002227D01*
X013461Y002385D02*
X013496Y002385D01*
X013496Y002544D02*
X013461Y002544D01*
X013461Y002702D02*
X013496Y002702D01*
X007197Y003495D02*
X007163Y003495D01*
X006609Y004446D02*
X006609Y004446D01*
X006609Y004604D02*
X006609Y004604D01*
X006250Y005300D02*
X006250Y005300D01*
X004655Y004026D02*
X004655Y004026D01*
X002738Y005080D02*
X002738Y005080D01*
X002738Y005174D02*
X002950Y005174D01*
X002950Y005174D01*
X002738Y005174D01*
X002738Y005174D01*
X002738Y005238D02*
X002738Y005238D01*
X001060Y006348D02*
X001030Y006348D01*
X001030Y007299D02*
X003130Y007299D01*
X002832Y007774D02*
X002832Y007774D01*
X002024Y008884D02*
X001576Y008884D01*
X001735Y009042D02*
X001865Y009042D01*
X001810Y009201D02*
X001790Y009201D01*
X001790Y009359D02*
X001810Y009359D01*
X001825Y009518D02*
X001775Y009518D01*
D21*
X002832Y008049D02*
X002780Y008000D01*
X002660Y007880D01*
X002660Y005240D01*
X002720Y005180D01*
X002738Y005174D01*
X002720Y005120D01*
X002450Y004850D01*
X002480Y004820D01*
X002450Y004850D02*
X002360Y004760D01*
X002360Y002360D01*
X001300Y001300D01*
X002600Y002000D02*
X003300Y001300D01*
X002600Y002000D02*
X002600Y004280D01*
X002720Y004400D01*
X002738Y004426D01*
X002780Y004460D01*
X003140Y004820D01*
X003140Y005420D01*
X002960Y005420D01*
X002900Y005480D01*
X002900Y005660D01*
X002840Y005720D01*
X002832Y005751D01*
X002840Y005780D01*
X002840Y006740D01*
X003440Y007340D01*
X004340Y007400D02*
X004340Y008000D01*
X004368Y008049D01*
X004400Y008000D01*
X005165Y008000D01*
X005835Y008000D02*
X005840Y008000D01*
X005840Y007400D01*
X006620Y008180D01*
X006620Y008480D01*
X007340Y008480D01*
X007580Y008240D01*
X007580Y007580D01*
X007820Y007340D01*
X007820Y002720D01*
X007869Y002662D01*
X007280Y002660D02*
X007278Y002662D01*
X007220Y002720D01*
X007070Y002870D01*
X007100Y002900D01*
X007100Y004700D01*
X006620Y004700D01*
X006609Y004709D01*
X006620Y004760D01*
X006620Y005300D01*
X006609Y005300D01*
X006620Y005300D02*
X006620Y005840D01*
X006609Y005891D01*
X006620Y005900D01*
X007100Y005900D01*
X007100Y007520D01*
X007070Y007550D01*
X006620Y007100D01*
X006609Y007072D01*
X005840Y007100D02*
X005835Y007150D01*
X005840Y007160D01*
X005840Y007400D01*
X005840Y007100D02*
X005840Y006320D01*
X005835Y006300D01*
X005180Y006320D02*
X005165Y006300D01*
X005120Y006260D01*
X005120Y004760D01*
X005120Y004340D01*
X005100Y004328D01*
X005120Y004280D01*
X005600Y003800D01*
X005600Y003620D01*
X005613Y003600D01*
X005660Y003560D01*
X006560Y003560D01*
X006609Y003528D01*
X006620Y003560D01*
X006609Y003528D02*
X006620Y003500D01*
X006620Y003320D01*
X007070Y002870D01*
X005660Y002840D02*
X005613Y002800D01*
X005660Y002840D02*
X005660Y003560D01*
X004640Y004280D02*
X004520Y004160D01*
X003800Y004160D01*
X003800Y004280D01*
X003500Y004280D01*
X003800Y004280D02*
X003800Y004760D01*
X003762Y004800D01*
X002780Y005180D02*
X002738Y005174D01*
X004368Y005751D02*
X004400Y005720D01*
X004640Y005480D01*
X004640Y004280D01*
X003320Y003980D02*
X003320Y003920D01*
X003020Y003620D01*
X002965Y003600D01*
X005180Y006320D02*
X005180Y007100D01*
X005165Y007150D01*
X007070Y007550D02*
X007220Y007700D01*
X007220Y007880D01*
X007278Y007938D01*
X007280Y007940D01*
X011360Y007880D02*
X011412Y007938D01*
X011420Y007940D01*
X011360Y007880D02*
X011360Y005240D01*
X010790Y004670D01*
X010760Y004700D01*
X010700Y004700D01*
X010790Y004670D02*
X010400Y004280D01*
X010400Y002840D01*
X010280Y002720D01*
X010231Y002662D01*
X010220Y002660D01*
X014120Y004760D02*
X014120Y007640D01*
X014360Y007880D01*
X014365Y007938D01*
X014360Y007940D01*
X014660Y007640D02*
X014900Y007880D01*
X014955Y007938D01*
X014960Y007940D01*
X015500Y007940D01*
X015546Y007938D01*
X015560Y007940D01*
X016100Y007940D01*
X016136Y007938D01*
X016160Y007940D01*
X016700Y007940D01*
X016727Y007938D01*
X016760Y007940D01*
X017300Y007940D01*
X017317Y007938D01*
X017360Y007940D01*
X017900Y007940D01*
X017908Y007938D01*
X017960Y007940D01*
X018440Y007940D01*
X018498Y007938D01*
X018500Y007940D01*
X019040Y007940D01*
X019089Y007938D01*
X019100Y007940D01*
X019640Y007940D01*
X019680Y007938D01*
X019700Y007880D01*
X020120Y007460D01*
X020120Y007100D01*
X020172Y007072D01*
X020180Y007100D01*
X020172Y007072D02*
X020180Y007040D01*
X020180Y006500D01*
X020172Y006481D01*
X020180Y006440D01*
X020180Y005900D01*
X020172Y005891D01*
X020180Y005840D01*
X020180Y005300D01*
X020172Y005300D01*
X020180Y005300D02*
X020180Y004760D01*
X020172Y004709D01*
X020180Y004700D01*
X020180Y004160D01*
X020172Y004119D01*
X020180Y004100D01*
X020180Y003560D01*
X020172Y003528D01*
X020120Y003500D01*
X020120Y002720D01*
X017960Y002720D01*
X017908Y002662D01*
X017900Y002660D01*
X017360Y002660D01*
X017317Y002662D01*
X017300Y002660D01*
X016760Y002660D01*
X016727Y002662D01*
X016700Y002660D01*
X016160Y002660D01*
X016136Y002662D01*
X016100Y002660D01*
X015560Y002660D01*
X015546Y002662D01*
X015500Y002660D01*
X014960Y002660D01*
X014955Y002662D01*
X014660Y007520D02*
X014660Y007640D01*
X019680Y007938D02*
X019700Y007940D01*
M02*
