%
M48
M72
T01C0.0130
T02C0.0400
%
T01
X1767Y1670
X2607Y2390
X4467Y2450
X4707Y2690
X5907Y2870
X6447Y3170
X7587Y3290
X7587Y2930
X7767Y2630
X8127Y2630
X8247Y3530
X7887Y3590
X7587Y4010
X6327Y4850
X6387Y5270
X5907Y5210
X5907Y5690
X6687Y5870
X7827Y5450
X7587Y5150
X8427Y6470
X7827Y6710
X8127Y6890
X8907Y6890
X9507Y6830
X10167Y6830
X10527Y7430
X9267Y7970
X8127Y7730
X7947Y8810
X8307Y8930
X9507Y9290
X9747Y10010
X11727Y10010
X12747Y10010
X11727Y9050
X12687Y8270
X13347Y7970
X14307Y8090
X15087Y8270
X15567Y8270
X15387Y7970
X16107Y8270
X15267Y7490
X15147Y6590
X13587Y6710
X13107Y6830
X12687Y6590
X12207Y6350
X12447Y6110
X12927Y6110
X12507Y5690
X12027Y5870
X13287Y5630
X13947Y5630
X13767Y5030
X14007Y4430
X14367Y4430
X14847Y4130
X15247Y3930
X15627Y3710
X15987Y3530
X16407Y3410
X16547Y3930
X16947Y3930
X17347Y3930
X17747Y3930
X18147Y3930
X18147Y4330
X18147Y4730
X18147Y5130
X18147Y5530
X18147Y5930
X18147Y6330
X18147Y6730
X17967Y8270
X18747Y8630
X19147Y8630
X19547Y8630
X19947Y8630
X20347Y8630
X20347Y9030
X19947Y9030
X19547Y9030
X19147Y9030
X18747Y9030
X17727Y10010
X14727Y10010
X11907Y8210
X12027Y7430
X10767Y5630
X10287Y5630
X10527Y5150
X12027Y4130
X12987Y3950
X12267Y3410
X11367Y2570
X10887Y2450
X10107Y2390
X10707Y1670
X13767Y1670
X9987Y3470
X6687Y1670
X6387Y2390
X1587Y3890
X2607Y5630
X2607Y5990
X2487Y6350
X1587Y6890
X4767Y5450
X5607Y7310
X6147Y8450
X6807Y9050
X2427Y8810
X16147Y3930
X19887Y2750
X17787Y1670
T02
X1247Y1330
X2247Y1330
X3247Y1330
X4247Y1330
X5247Y1330
X6247Y1330
X7247Y1330
X8247Y1330
X9247Y1330
X10247Y1330
X11247Y1330
X12247Y1330
X13247Y1330
X14247Y1330
X15247Y1330
X16247Y1330
X17247Y1330
X18247Y1330
X19247Y1330
X20247Y1330
X7247Y6830
X7247Y7830
X5247Y7830
X4247Y7830
X3247Y7830
X3247Y6830
X4247Y6830
X5247Y6830
X5247Y4830
X4247Y4830
X3247Y4830
X3247Y3830
X4247Y3830
X5247Y3830
X1247Y3330
X1247Y4330
X1247Y5330
X1247Y6330
X1247Y7330
X1247Y8330
X1247Y10330
X2247Y10330
X3247Y10330
X4247Y10330
X5247Y10330
X6247Y10330
X7247Y10330
X8247Y10330
X9247Y10330
X10247Y10330
X11247Y10330
X12247Y10330
X13247Y10330
X14247Y10330
X15247Y10330
X16247Y10330
X17247Y10330
X18247Y10330
X19247Y10330
X20247Y10330
M30
