G75*
G70*
%OFA0B0*%
%FSLAX24Y24*%
%IPPOS*%
%LPD*%
%AMOC8*
5,1,8,0,0,1.08239X$1,22.5*
%
%ADD10C,0.0000*%
%ADD11C,0.0040*%
%ADD12C,0.0050*%
%ADD13C,0.0060*%
%ADD14C,0.0020*%
%ADD15C,0.0059*%
D10*
X000747Y000830D02*
X000747Y010830D01*
X020747Y010830D01*
X020747Y000830D01*
X000747Y000830D01*
D11*
X005967Y002580D02*
X006199Y002580D01*
X006199Y002696D01*
X006160Y002735D01*
X006083Y002735D01*
X006044Y002696D01*
X006044Y002580D01*
X005967Y002830D02*
X005967Y002908D01*
X005967Y002869D02*
X006199Y002869D01*
X006199Y002830D02*
X006199Y002908D01*
X006160Y002997D02*
X006199Y003036D01*
X006199Y003114D01*
X006160Y003152D01*
X006005Y003152D01*
X005967Y003114D01*
X005967Y003036D01*
X006005Y002997D01*
X006160Y002997D01*
X006199Y003248D02*
X006083Y003248D01*
X006121Y003325D01*
X006121Y003364D01*
X006083Y003403D01*
X006005Y003403D01*
X005967Y003364D01*
X005967Y003287D01*
X006005Y003248D01*
X006199Y003248D02*
X006199Y003403D01*
X006160Y003680D02*
X006005Y003680D01*
X005967Y003719D01*
X005967Y003796D01*
X006005Y003835D01*
X005967Y003930D02*
X006199Y003930D01*
X006160Y003835D02*
X006199Y003796D01*
X006199Y003719D01*
X006160Y003680D01*
X006083Y003930D02*
X006083Y004085D01*
X006199Y004085D02*
X005967Y004085D01*
X006005Y004181D02*
X005967Y004220D01*
X005967Y004297D01*
X006005Y004336D01*
X006083Y004336D01*
X006083Y004258D01*
X006160Y004181D02*
X006005Y004181D01*
X006160Y004181D02*
X006199Y004220D01*
X006199Y004297D01*
X006160Y004336D01*
X006199Y004680D02*
X005967Y004680D01*
X006044Y004680D02*
X006044Y004796D01*
X006083Y004835D01*
X006160Y004835D01*
X006199Y004796D01*
X006199Y004680D01*
X006199Y004930D02*
X005967Y004930D01*
X006044Y005008D01*
X005967Y005085D01*
X006199Y005085D01*
X006199Y005181D02*
X006199Y005297D01*
X006160Y005336D01*
X006083Y005336D01*
X006044Y005297D01*
X006044Y005181D01*
X006044Y005258D02*
X005967Y005336D01*
X005967Y005181D02*
X006199Y005181D01*
D12*
X016321Y007663D02*
X016379Y007605D01*
X016496Y007605D01*
X016554Y007663D01*
X016321Y007897D01*
X016321Y007663D01*
X016554Y007663D02*
X016554Y007897D01*
X016496Y007955D01*
X016379Y007955D01*
X016321Y007897D01*
X016680Y007663D02*
X016680Y007605D01*
X016739Y007605D01*
X016739Y007663D01*
X016680Y007663D01*
X016873Y007605D02*
X017107Y007605D01*
X016990Y007605D02*
X016990Y007955D01*
X017107Y007839D01*
X017242Y007839D02*
X017358Y007605D01*
X017475Y007839D01*
X017665Y007514D02*
X017665Y007455D01*
X017665Y007339D02*
X017665Y007047D01*
X017724Y006988D01*
X017782Y006988D01*
X017975Y007105D02*
X018092Y007105D01*
X018150Y007163D01*
X018150Y007280D01*
X018092Y007339D01*
X017975Y007339D01*
X017917Y007280D01*
X017917Y007222D01*
X018150Y007222D01*
X018279Y007280D02*
X018396Y007280D01*
X018338Y007397D02*
X018338Y007105D01*
X018338Y007397D02*
X018279Y007455D01*
X018212Y007605D02*
X018037Y007605D01*
X017978Y007663D01*
X017978Y007722D01*
X018037Y007780D01*
X018212Y007780D01*
X018347Y007722D02*
X018347Y007663D01*
X018405Y007605D01*
X018580Y007605D01*
X018580Y007955D01*
X018405Y007955D01*
X018347Y007897D01*
X018347Y007839D01*
X018405Y007780D01*
X018580Y007780D01*
X018405Y007780D02*
X018347Y007722D01*
X018212Y007605D02*
X018212Y007955D01*
X018037Y007955D01*
X017978Y007897D01*
X017978Y007839D01*
X018037Y007780D01*
X018528Y007339D02*
X018586Y007339D01*
X018703Y007222D01*
X018703Y007105D02*
X018703Y007339D01*
X018838Y007280D02*
X018896Y007339D01*
X019013Y007339D01*
X019071Y007280D01*
X019071Y007163D01*
X019013Y007105D01*
X018896Y007105D01*
X018838Y007163D01*
X018838Y007280D01*
X019200Y007339D02*
X019317Y007339D01*
X019258Y007397D02*
X019258Y007163D01*
X019200Y007105D01*
X019452Y007105D02*
X019627Y007105D01*
X019685Y007163D01*
X019685Y007280D01*
X019627Y007339D01*
X019452Y007339D01*
X019820Y007280D02*
X019820Y007222D01*
X020053Y007222D01*
X020053Y007280D02*
X019995Y007339D01*
X019878Y007339D01*
X019820Y007280D01*
X019878Y007105D02*
X019995Y007105D01*
X020053Y007163D01*
X020053Y007280D01*
X020188Y007339D02*
X020363Y007339D01*
X020422Y007280D01*
X020363Y007222D01*
X020247Y007222D01*
X020188Y007163D01*
X020247Y007105D01*
X020422Y007105D01*
X020422Y007605D02*
X020305Y007722D01*
X020188Y007605D01*
X020188Y007955D01*
X020053Y007955D02*
X019820Y007955D01*
X019937Y007955D02*
X019937Y007605D01*
X019685Y007663D02*
X019627Y007605D01*
X019510Y007605D01*
X019452Y007663D01*
X019452Y007722D01*
X019510Y007780D01*
X019568Y007780D01*
X019510Y007780D02*
X019452Y007839D01*
X019452Y007897D01*
X019510Y007955D01*
X019627Y007955D01*
X019685Y007897D01*
X019317Y007897D02*
X019258Y007955D01*
X019142Y007955D01*
X019083Y007897D01*
X019083Y007839D01*
X019317Y007605D01*
X019083Y007605D01*
X020422Y007605D02*
X020422Y007955D01*
X017537Y007163D02*
X017478Y007163D01*
X017478Y007105D01*
X017537Y007105D01*
X017537Y007163D01*
X017352Y007105D02*
X017352Y007339D01*
X017177Y007339D01*
X017119Y007280D01*
X017119Y007105D01*
X016984Y007163D02*
X016984Y007280D01*
X016926Y007339D01*
X016809Y007339D01*
X016751Y007280D01*
X016751Y007222D01*
X016984Y007222D01*
X016984Y007163D02*
X016926Y007105D01*
X016809Y007105D01*
X016557Y007163D02*
X016499Y007105D01*
X016557Y007163D02*
X016557Y007397D01*
X016616Y007339D02*
X016499Y007339D01*
D13*
X007480Y005325D02*
X007480Y004735D01*
X007476Y004716D01*
X007470Y004699D01*
X007460Y004682D01*
X007448Y004668D01*
X007433Y004656D01*
X007417Y004646D01*
X007399Y004640D01*
X007380Y004636D01*
X007361Y004636D01*
X007362Y004636D02*
X006732Y004636D01*
X006713Y004636D01*
X006694Y004640D01*
X006676Y004646D01*
X006660Y004656D01*
X006645Y004668D01*
X006633Y004682D01*
X006623Y004699D01*
X006617Y004716D01*
X006613Y004735D01*
X006614Y004735D02*
X006614Y005325D01*
X006613Y005326D02*
X006617Y005344D01*
X006623Y005362D01*
X006633Y005379D01*
X006645Y005393D01*
X006660Y005406D01*
X006676Y005415D01*
X006694Y005421D01*
X006713Y005425D01*
X006732Y005425D01*
X006732Y005424D02*
X007362Y005424D01*
X007361Y005424D02*
X007380Y005424D01*
X007399Y005420D01*
X007417Y005414D01*
X007433Y005404D01*
X007448Y005392D01*
X007460Y005378D01*
X007470Y005361D01*
X007476Y005344D01*
X007480Y005325D01*
X007362Y004424D02*
X006732Y004424D01*
X006732Y004425D02*
X006713Y004425D01*
X006694Y004421D01*
X006676Y004415D01*
X006660Y004406D01*
X006645Y004393D01*
X006633Y004379D01*
X006623Y004362D01*
X006617Y004344D01*
X006613Y004326D01*
X006614Y004325D02*
X006614Y003735D01*
X006613Y003735D02*
X006617Y003716D01*
X006623Y003699D01*
X006633Y003682D01*
X006645Y003668D01*
X006660Y003656D01*
X006676Y003646D01*
X006694Y003640D01*
X006713Y003636D01*
X006732Y003636D01*
X007362Y003636D01*
X007361Y003636D02*
X007380Y003636D01*
X007399Y003640D01*
X007417Y003646D01*
X007433Y003656D01*
X007448Y003668D01*
X007460Y003682D01*
X007470Y003699D01*
X007476Y003716D01*
X007480Y003735D01*
X007480Y004325D01*
X007476Y004344D01*
X007470Y004361D01*
X007460Y004378D01*
X007448Y004392D01*
X007433Y004404D01*
X007417Y004414D01*
X007399Y004420D01*
X007380Y004424D01*
X007361Y004424D01*
X007362Y003424D02*
X006732Y003424D01*
X006732Y003425D02*
X006713Y003425D01*
X006694Y003421D01*
X006676Y003415D01*
X006660Y003406D01*
X006645Y003393D01*
X006633Y003379D01*
X006623Y003362D01*
X006617Y003344D01*
X006613Y003326D01*
X006614Y003325D02*
X006614Y002735D01*
X006613Y002735D02*
X006617Y002716D01*
X006623Y002699D01*
X006633Y002682D01*
X006645Y002668D01*
X006660Y002656D01*
X006676Y002646D01*
X006694Y002640D01*
X006713Y002636D01*
X006732Y002636D01*
X007362Y002636D01*
X007361Y002636D02*
X007380Y002636D01*
X007399Y002640D01*
X007417Y002646D01*
X007433Y002656D01*
X007448Y002668D01*
X007460Y002682D01*
X007470Y002699D01*
X007476Y002716D01*
X007480Y002735D01*
X007480Y003325D01*
X007476Y003344D01*
X007470Y003361D01*
X007460Y003378D01*
X007448Y003392D01*
X007433Y003404D01*
X007417Y003414D01*
X007399Y003420D01*
X007380Y003424D01*
X007361Y003424D01*
D14*
X006537Y003240D02*
X006500Y003166D01*
X006427Y003093D01*
X006427Y003203D01*
X006390Y003240D01*
X006353Y003240D01*
X006317Y003203D01*
X006317Y003130D01*
X006353Y003093D01*
X006427Y003093D01*
X006427Y003019D02*
X006390Y002982D01*
X006390Y002872D01*
X006317Y002872D02*
X006537Y002872D01*
X006537Y002982D01*
X006500Y003019D01*
X006427Y003019D01*
X006537Y002798D02*
X006537Y002724D01*
X006537Y002761D02*
X006353Y002761D01*
X006317Y002724D01*
X006317Y002688D01*
X006353Y002651D01*
X006353Y003651D02*
X006317Y003688D01*
X006317Y003724D01*
X006353Y003761D01*
X006537Y003761D01*
X006537Y003724D02*
X006537Y003798D01*
X006537Y003872D02*
X006317Y003872D01*
X006390Y003872D02*
X006390Y003982D01*
X006427Y004019D01*
X006500Y004019D01*
X006537Y003982D01*
X006537Y003872D01*
X006537Y004093D02*
X006427Y004093D01*
X006463Y004166D01*
X006463Y004203D01*
X006427Y004240D01*
X006353Y004240D01*
X006317Y004203D01*
X006317Y004130D01*
X006353Y004093D01*
X006537Y004093D02*
X006537Y004240D01*
X006353Y004651D02*
X006317Y004688D01*
X006317Y004724D01*
X006353Y004761D01*
X006537Y004761D01*
X006537Y004724D02*
X006537Y004798D01*
X006537Y004872D02*
X006317Y004872D01*
X006390Y004872D02*
X006390Y004982D01*
X006427Y005019D01*
X006500Y005019D01*
X006537Y004982D01*
X006537Y004872D01*
X006427Y005093D02*
X006427Y005240D01*
X006317Y005203D02*
X006537Y005203D01*
X006427Y005093D01*
D15*
X018570Y005710D02*
X018570Y005950D01*
X018887Y005982D01*
X018921Y006089D01*
X018973Y006189D01*
X018771Y006436D01*
X018941Y006606D01*
X019188Y006404D01*
X019288Y006455D01*
X019394Y006489D01*
X019427Y006807D01*
X019667Y006807D01*
X019699Y006489D01*
X019806Y006455D01*
X019905Y006404D01*
X020153Y006606D01*
X020322Y006436D01*
X020121Y006189D01*
X020172Y006089D01*
X020206Y005982D01*
X020524Y005950D01*
X020524Y005710D01*
X020206Y005678D01*
X020172Y005571D01*
X020121Y005471D01*
X020322Y005224D01*
X020153Y005054D01*
X019905Y005256D01*
X019806Y005205D01*
X019664Y005546D01*
X019718Y005574D01*
X019764Y005612D01*
X019802Y005659D01*
X019831Y005712D01*
X019848Y005770D01*
X019854Y005830D01*
X019848Y005893D01*
X019829Y005953D01*
X019798Y006008D01*
X019756Y006055D01*
X019705Y006093D01*
X019648Y006120D01*
X019587Y006135D01*
X019524Y006137D01*
X019462Y006126D01*
X019403Y006102D01*
X019350Y006067D01*
X019306Y006022D01*
X019272Y005969D01*
X019250Y005910D01*
X019240Y005847D01*
X019243Y005784D01*
X019258Y005723D01*
X019286Y005666D01*
X019325Y005617D01*
X019373Y005576D01*
X019429Y005546D01*
X019288Y005205D01*
X019188Y005256D01*
X018941Y005054D01*
X018771Y005224D01*
X018973Y005471D01*
X018921Y005571D01*
X018887Y005678D01*
X018570Y005710D01*
X018570Y005722D02*
X019259Y005722D01*
X019244Y005780D02*
X018570Y005780D01*
X018570Y005837D02*
X019240Y005837D01*
X019247Y005895D02*
X018570Y005895D01*
X018594Y005952D02*
X019266Y005952D01*
X019299Y006010D02*
X018896Y006010D01*
X018915Y006068D02*
X019351Y006068D01*
X019460Y006125D02*
X018940Y006125D01*
X018970Y006183D02*
X020124Y006183D01*
X020153Y006125D02*
X019628Y006125D01*
X019740Y006068D02*
X020179Y006068D01*
X020197Y006010D02*
X019796Y006010D01*
X019829Y005952D02*
X020499Y005952D01*
X020524Y005895D02*
X019847Y005895D01*
X019854Y005837D02*
X020524Y005837D01*
X020524Y005780D02*
X019849Y005780D01*
X019834Y005722D02*
X020524Y005722D01*
X020202Y005665D02*
X019805Y005665D01*
X019758Y005607D02*
X020183Y005607D01*
X020161Y005550D02*
X019671Y005550D01*
X019687Y005492D02*
X020131Y005492D01*
X020151Y005434D02*
X019711Y005434D01*
X019734Y005377D02*
X020198Y005377D01*
X020245Y005319D02*
X019758Y005319D01*
X019782Y005262D02*
X020291Y005262D01*
X020302Y005204D02*
X019969Y005204D01*
X020040Y005147D02*
X020245Y005147D01*
X020187Y005089D02*
X020110Y005089D01*
X019359Y005377D02*
X018896Y005377D01*
X018943Y005434D02*
X019383Y005434D01*
X019407Y005492D02*
X018962Y005492D01*
X018933Y005550D02*
X019422Y005550D01*
X019336Y005607D02*
X018910Y005607D01*
X018892Y005665D02*
X019288Y005665D01*
X019335Y005319D02*
X018849Y005319D01*
X018802Y005262D02*
X019311Y005262D01*
X019124Y005204D02*
X018791Y005204D01*
X018848Y005147D02*
X019054Y005147D01*
X018983Y005089D02*
X018906Y005089D01*
X018931Y006240D02*
X020163Y006240D01*
X020210Y006298D02*
X018884Y006298D01*
X018837Y006355D02*
X020256Y006355D01*
X020303Y006413D02*
X019916Y006413D01*
X019888Y006413D02*
X019206Y006413D01*
X019177Y006413D02*
X018790Y006413D01*
X018806Y006470D02*
X019106Y006470D01*
X019036Y006528D02*
X018863Y006528D01*
X018921Y006586D02*
X018965Y006586D01*
X019335Y006470D02*
X019758Y006470D01*
X019695Y006528D02*
X019398Y006528D01*
X019404Y006586D02*
X019689Y006586D01*
X019683Y006643D02*
X019410Y006643D01*
X019416Y006701D02*
X019677Y006701D01*
X019672Y006758D02*
X019422Y006758D01*
X019987Y006470D02*
X020288Y006470D01*
X020230Y006528D02*
X020057Y006528D01*
X020128Y006586D02*
X020173Y006586D01*
M02*
