G75*
G70*
%OFA0B0*%
%FSLAX24Y24*%
%IPPOS*%
%LPD*%
%AMOC8*
5,1,8,0,0,1.08239X$1,22.5*
%
%ADD10C,0.0000*%
%ADD11C,0.0040*%
%ADD12C,0.0100*%
%ADD13C,0.0050*%
%ADD14C,0.0020*%
%ADD15C,0.0060*%
%ADD16R,0.0200X0.0200*%
%ADD17C,0.0030*%
%ADD18C,0.0080*%
%ADD19R,0.0197X0.0256*%
%ADD20C,0.0001*%
%ADD21R,0.0197X0.0128*%
%ADD22R,0.0098X0.0059*%
%ADD23R,0.0069X0.0157*%
%ADD24R,0.0079X0.0079*%
%ADD25R,0.0118X0.0118*%
%ADD26R,0.0030X0.0089*%
%ADD27R,0.0197X0.0374*%
%ADD28R,0.0180X0.0300*%
%ADD29C,0.0220*%
D10*
X000747Y000830D02*
X000747Y010830D01*
X020747Y010830D01*
X020747Y000830D01*
X000747Y000830D01*
D11*
X000935Y001950D02*
X000897Y001989D01*
X000935Y001950D02*
X001013Y001950D01*
X001051Y001989D01*
X001051Y002027D01*
X001013Y002066D01*
X000974Y002066D01*
X001013Y002066D02*
X001051Y002105D01*
X001051Y002143D01*
X001013Y002182D01*
X000935Y002182D01*
X000897Y002143D01*
X001147Y002182D02*
X001147Y002027D01*
X001225Y001950D01*
X001302Y002027D01*
X001302Y002182D01*
X001398Y002143D02*
X001436Y002182D01*
X001514Y002182D01*
X001552Y002143D01*
X001552Y002105D01*
X001514Y002066D01*
X001552Y002027D01*
X001552Y001989D01*
X001514Y001950D01*
X001436Y001950D01*
X001398Y001989D01*
X001475Y002066D02*
X001514Y002066D01*
X002067Y002066D02*
X002144Y002105D01*
X002183Y002105D01*
X002221Y002066D01*
X002221Y001989D01*
X002183Y001950D01*
X002105Y001950D01*
X002067Y001989D01*
X002067Y002066D02*
X002067Y002182D01*
X002221Y002182D01*
X002317Y002182D02*
X002317Y002027D01*
X002395Y001950D01*
X002472Y002027D01*
X002472Y002182D01*
X002900Y002182D02*
X003055Y002182D01*
X002978Y002182D02*
X002978Y001950D01*
X003151Y001950D02*
X003306Y002182D01*
X003401Y002182D02*
X003517Y002182D01*
X003556Y002143D01*
X003556Y001989D01*
X003517Y001950D01*
X003401Y001950D01*
X003401Y002182D01*
X003151Y002182D02*
X003306Y001950D01*
X003902Y001950D02*
X003902Y002182D01*
X004018Y002182D01*
X004057Y002143D01*
X004057Y002066D01*
X004018Y002027D01*
X003902Y002027D01*
X003980Y002027D02*
X004057Y001950D01*
X004230Y001950D02*
X004230Y002182D01*
X004153Y002182D02*
X004307Y002182D01*
X004403Y002143D02*
X004403Y002105D01*
X004442Y002066D01*
X004519Y002066D01*
X004558Y002027D01*
X004558Y001989D01*
X004519Y001950D01*
X004442Y001950D01*
X004403Y001989D01*
X004403Y002143D02*
X004442Y002182D01*
X004519Y002182D01*
X004558Y002143D01*
X004904Y002143D02*
X004904Y001989D01*
X004943Y001950D01*
X005020Y001950D01*
X005059Y001989D01*
X005059Y002143D02*
X005020Y002182D01*
X004943Y002182D01*
X004904Y002143D01*
X005154Y002182D02*
X005309Y002182D01*
X005232Y002182D02*
X005232Y001950D01*
X005405Y001989D02*
X005444Y001950D01*
X005521Y001950D01*
X005560Y001989D01*
X005560Y002027D01*
X005521Y002066D01*
X005444Y002066D01*
X005405Y002105D01*
X005405Y002143D01*
X005444Y002182D01*
X005521Y002182D01*
X005560Y002143D01*
X005906Y002182D02*
X006022Y002182D01*
X006061Y002143D01*
X006061Y002066D01*
X006022Y002027D01*
X005906Y002027D01*
X005906Y001950D02*
X005906Y002182D01*
X005983Y002027D02*
X006061Y001950D01*
X006156Y001950D02*
X006311Y002182D01*
X006407Y002182D02*
X006523Y002182D01*
X006561Y002143D01*
X006561Y001989D01*
X006523Y001950D01*
X006407Y001950D01*
X006407Y002182D01*
X006156Y002182D02*
X006311Y001950D01*
X006908Y001989D02*
X006946Y001950D01*
X007024Y001950D01*
X007062Y001989D01*
X007062Y002027D01*
X007024Y002066D01*
X006946Y002066D01*
X006908Y002105D01*
X006908Y002143D01*
X006946Y002182D01*
X007024Y002182D01*
X007062Y002143D01*
X007158Y002143D02*
X007235Y002066D01*
X007235Y001950D01*
X007235Y002066D02*
X007313Y002143D01*
X007313Y002182D01*
X007408Y002182D02*
X007563Y001950D01*
X007563Y002182D01*
X007408Y002182D02*
X007408Y001950D01*
X007158Y002143D02*
X007158Y002182D01*
X007909Y002143D02*
X007909Y001989D01*
X007948Y001950D01*
X008025Y001950D01*
X008064Y001989D01*
X008160Y001950D02*
X008315Y001950D01*
X008410Y001950D02*
X008410Y002182D01*
X008449Y002066D02*
X008565Y001950D01*
X008410Y002027D02*
X008565Y002182D01*
X008911Y002143D02*
X008911Y001989D01*
X008950Y001950D01*
X009027Y001950D01*
X009066Y001989D01*
X009066Y002143D01*
X009027Y002182D01*
X008950Y002182D01*
X008911Y002143D01*
X009162Y002182D02*
X009162Y001989D01*
X009200Y001950D01*
X009278Y001950D01*
X009316Y001989D01*
X009316Y002182D01*
X009412Y002182D02*
X009567Y002182D01*
X009490Y002182D02*
X009490Y001950D01*
X010097Y001950D02*
X010174Y001950D01*
X010135Y001950D02*
X010135Y002182D01*
X010097Y002182D02*
X010174Y002182D01*
X010264Y002182D02*
X010418Y001950D01*
X010418Y002182D01*
X010264Y002182D02*
X010264Y001950D01*
X010997Y001950D02*
X010997Y002182D01*
X011074Y002105D01*
X011151Y002182D01*
X011151Y001950D01*
X011247Y001950D02*
X011363Y001950D01*
X011402Y001989D01*
X011402Y002027D01*
X011363Y002066D01*
X011247Y002066D01*
X011247Y001950D02*
X011247Y002182D01*
X011363Y002182D01*
X011402Y002143D01*
X011402Y002105D01*
X011363Y002066D01*
X011498Y001950D02*
X011575Y001950D01*
X011536Y001950D02*
X011536Y002182D01*
X011498Y002182D02*
X011575Y002182D01*
X011997Y002182D02*
X012074Y002182D01*
X012035Y002182D02*
X012035Y001950D01*
X011997Y001950D02*
X012074Y001950D01*
X012164Y001950D02*
X012164Y002182D01*
X012280Y002182D01*
X012318Y002143D01*
X012318Y002066D01*
X012280Y002027D01*
X012164Y002027D01*
X012241Y002027D02*
X012318Y001950D01*
X012414Y001950D02*
X012414Y002182D01*
X012530Y002182D01*
X012569Y002143D01*
X012569Y002066D01*
X012530Y002027D01*
X012414Y002027D01*
X012997Y001950D02*
X013074Y001950D01*
X013035Y001950D02*
X013035Y002182D01*
X012997Y002182D02*
X013074Y002182D01*
X013164Y002182D02*
X013280Y002182D01*
X013318Y002143D01*
X013318Y002066D01*
X013280Y002027D01*
X013164Y002027D01*
X013164Y001950D02*
X013164Y002182D01*
X013241Y002027D02*
X013318Y001950D01*
X013414Y001950D02*
X013414Y002182D01*
X013569Y001950D01*
X013569Y002182D01*
X013997Y002182D02*
X014074Y002182D01*
X014035Y002182D02*
X014035Y001950D01*
X013997Y001950D02*
X014074Y001950D01*
X014164Y001950D02*
X014318Y001950D01*
X014414Y001950D02*
X014414Y002182D01*
X014530Y002182D01*
X014569Y002143D01*
X014569Y002066D01*
X014530Y002027D01*
X014414Y002027D01*
X014164Y001950D02*
X014164Y002182D01*
X014997Y002182D02*
X015074Y002182D01*
X015035Y002182D02*
X015035Y001950D01*
X014997Y001950D02*
X015074Y001950D01*
X015164Y001950D02*
X015318Y001950D01*
X015414Y001950D02*
X015414Y002182D01*
X015569Y001950D01*
X015569Y002182D01*
X015924Y002143D02*
X015924Y001989D01*
X015963Y001950D01*
X016040Y001950D01*
X016079Y001989D01*
X016079Y002143D01*
X016040Y002182D01*
X015963Y002182D01*
X015924Y002143D01*
X016174Y002182D02*
X016290Y002182D01*
X016329Y002143D01*
X016329Y002066D01*
X016290Y002027D01*
X016174Y002027D01*
X016174Y001950D02*
X016174Y002182D01*
X016252Y002027D02*
X016329Y001950D01*
X016425Y001950D02*
X016425Y002182D01*
X016541Y002182D01*
X016580Y002143D01*
X016580Y002066D01*
X016541Y002027D01*
X016425Y002027D01*
X016926Y001989D02*
X016964Y001950D01*
X017042Y001950D01*
X017081Y001989D01*
X017081Y002143D01*
X017042Y002182D01*
X016964Y002182D01*
X016926Y002143D01*
X016926Y001989D01*
X017176Y002027D02*
X017292Y002027D01*
X017331Y002066D01*
X017331Y002143D01*
X017292Y002182D01*
X017176Y002182D01*
X017176Y001950D01*
X017254Y002027D02*
X017331Y001950D01*
X017427Y001950D02*
X017427Y002182D01*
X017581Y001950D01*
X017581Y002182D01*
X017928Y002143D02*
X017928Y001989D01*
X017966Y001950D01*
X018044Y001950D01*
X018082Y001989D01*
X018082Y002143D01*
X018044Y002182D01*
X017966Y002182D01*
X017928Y002143D01*
X018178Y002182D02*
X018178Y001950D01*
X018333Y001950D01*
X018428Y001950D02*
X018428Y002182D01*
X018545Y002182D01*
X018583Y002143D01*
X018583Y002066D01*
X018545Y002027D01*
X018428Y002027D01*
X018929Y001989D02*
X018968Y001950D01*
X019045Y001950D01*
X019084Y001989D01*
X019084Y002143D01*
X019045Y002182D01*
X018968Y002182D01*
X018929Y002143D01*
X018929Y001989D01*
X019180Y001950D02*
X019335Y001950D01*
X019430Y001950D02*
X019430Y002182D01*
X019585Y001950D01*
X019585Y002182D01*
X019767Y002105D02*
X019844Y002182D01*
X019921Y002105D01*
X019921Y001950D01*
X020017Y001989D02*
X020056Y001950D01*
X020133Y001950D01*
X020172Y001989D01*
X020172Y002066D01*
X020095Y002066D01*
X020172Y002143D02*
X020133Y002182D01*
X020056Y002182D01*
X020017Y002143D01*
X020017Y001989D01*
X019921Y002066D02*
X019767Y002066D01*
X019767Y002105D02*
X019767Y001950D01*
X020268Y001950D02*
X020268Y002182D01*
X020422Y001950D01*
X020422Y002182D01*
X020518Y002182D02*
X020634Y002182D01*
X020673Y002143D01*
X020673Y001989D01*
X020634Y001950D01*
X020518Y001950D01*
X020518Y002182D01*
X019180Y002182D02*
X019180Y001950D01*
X015164Y001950D02*
X015164Y002182D01*
X010011Y003256D02*
X009450Y003256D01*
X009521Y003350D02*
X009488Y003383D01*
X009521Y003350D02*
X009588Y003350D01*
X009621Y003383D01*
X009621Y003417D01*
X009588Y003450D01*
X009521Y003450D01*
X009488Y003483D01*
X009488Y003517D01*
X009521Y003550D01*
X009588Y003550D01*
X009621Y003517D01*
X009709Y003550D02*
X009809Y003550D01*
X009842Y003517D01*
X009842Y003450D01*
X009809Y003417D01*
X009709Y003417D01*
X009775Y003417D02*
X009842Y003350D01*
X009709Y003350D02*
X009709Y003550D01*
X009400Y003550D02*
X009400Y003383D01*
X009367Y003350D01*
X009300Y003350D01*
X009267Y003383D01*
X009267Y003550D01*
X009282Y003804D02*
X009844Y003804D01*
X009271Y003853D02*
X009273Y003865D01*
X009278Y003876D01*
X009286Y003885D01*
X009297Y003891D01*
X009309Y003894D01*
X009321Y003893D01*
X009333Y003889D01*
X009342Y003881D01*
X009349Y003871D01*
X009353Y003859D01*
X009353Y003847D01*
X009349Y003835D01*
X009342Y003825D01*
X009332Y003817D01*
X009321Y003813D01*
X009309Y003812D01*
X009297Y003815D01*
X009286Y003821D01*
X009278Y003830D01*
X009273Y003841D01*
X009271Y003853D01*
X009440Y004256D02*
X009853Y004256D01*
X009809Y004350D02*
X009842Y004383D01*
X009842Y004450D01*
X009775Y004450D01*
X009709Y004383D02*
X009742Y004350D01*
X009809Y004350D01*
X009709Y004383D02*
X009709Y004517D01*
X009742Y004550D01*
X009809Y004550D01*
X009842Y004517D01*
X009621Y004550D02*
X009621Y004350D01*
X009621Y004450D02*
X009488Y004450D01*
X009488Y004350D02*
X009488Y004550D01*
X009400Y004517D02*
X009367Y004550D01*
X009300Y004550D01*
X009267Y004517D01*
X009267Y004383D01*
X009300Y004350D01*
X009367Y004350D01*
X009400Y004383D01*
X009440Y004804D02*
X009853Y004804D01*
X009940Y005207D02*
X009942Y005219D01*
X009947Y005230D01*
X009955Y005239D01*
X009966Y005245D01*
X009978Y005248D01*
X009990Y005247D01*
X010002Y005243D01*
X010011Y005235D01*
X010018Y005225D01*
X010022Y005213D01*
X010022Y005201D01*
X010018Y005189D01*
X010011Y005179D01*
X010001Y005171D01*
X009990Y005167D01*
X009978Y005166D01*
X009966Y005169D01*
X009955Y005175D01*
X009947Y005184D01*
X009942Y005195D01*
X009940Y005207D01*
X010011Y005256D02*
X009450Y005256D01*
X009488Y005350D02*
X009554Y005417D01*
X009621Y005350D01*
X009621Y005550D01*
X009709Y005550D02*
X009809Y005550D01*
X009842Y005517D01*
X009842Y005450D01*
X009809Y005417D01*
X009709Y005417D01*
X009775Y005417D02*
X009842Y005350D01*
X009709Y005350D02*
X009709Y005550D01*
X009488Y005550D02*
X009488Y005350D01*
X009400Y005450D02*
X009367Y005417D01*
X009267Y005417D01*
X009267Y005350D02*
X009267Y005550D01*
X009367Y005550D01*
X009400Y005517D01*
X009400Y005450D01*
X009507Y005865D02*
X009787Y005865D01*
X009787Y006200D02*
X009507Y006200D01*
X008487Y006195D02*
X008207Y006195D01*
X008207Y005860D02*
X008487Y005860D01*
X007512Y006003D02*
X007479Y005970D01*
X007379Y005970D01*
X007379Y006170D01*
X007479Y006170D01*
X007512Y006137D01*
X007512Y006103D01*
X007479Y006070D01*
X007379Y006070D01*
X007291Y006037D02*
X007291Y006003D01*
X007258Y005970D01*
X007191Y005970D01*
X007158Y006003D01*
X007191Y006070D02*
X007258Y006070D01*
X007291Y006037D01*
X007291Y006137D02*
X007258Y006170D01*
X007191Y006170D01*
X007158Y006137D01*
X007158Y006103D01*
X007191Y006070D01*
X007070Y006003D02*
X007037Y005970D01*
X006970Y005970D01*
X006937Y006003D01*
X006937Y006170D01*
X007070Y006170D02*
X007070Y006003D01*
X007479Y006070D02*
X007512Y006037D01*
X007512Y006003D01*
X006627Y006680D02*
X006394Y006680D01*
X006394Y006796D01*
X006433Y006835D01*
X006588Y006835D01*
X006627Y006796D01*
X006627Y006680D01*
X006511Y006930D02*
X006511Y007085D01*
X006588Y007008D02*
X006433Y007008D01*
X006394Y007680D02*
X006394Y007796D01*
X006433Y007835D01*
X006588Y007835D01*
X006627Y007796D01*
X006627Y007680D01*
X006394Y007680D01*
X006511Y007930D02*
X006511Y008085D01*
X005649Y008489D02*
X005649Y008643D01*
X005611Y008682D01*
X005533Y008682D01*
X005495Y008643D01*
X005495Y008489D01*
X005533Y008450D01*
X005611Y008450D01*
X005649Y008489D01*
X005399Y008489D02*
X005360Y008450D01*
X005283Y008450D01*
X005244Y008489D01*
X005283Y008566D02*
X005360Y008566D01*
X005399Y008527D01*
X005399Y008489D01*
X005283Y008566D02*
X005244Y008605D01*
X005244Y008643D01*
X005283Y008682D01*
X005360Y008682D01*
X005399Y008643D01*
X005155Y008682D02*
X005077Y008682D01*
X005116Y008682D02*
X005116Y008450D01*
X005077Y008450D02*
X005155Y008450D01*
X004981Y008450D02*
X004981Y008682D01*
X004904Y008605D01*
X004827Y008682D01*
X004827Y008450D01*
X004552Y008450D02*
X004436Y008566D01*
X004398Y008527D02*
X004552Y008682D01*
X004398Y008682D02*
X004398Y008450D01*
X004302Y008489D02*
X004263Y008450D01*
X004186Y008450D01*
X004147Y008489D01*
X004147Y008643D01*
X004186Y008682D01*
X004263Y008682D01*
X004302Y008643D01*
X004051Y008643D02*
X004013Y008682D01*
X003935Y008682D01*
X003897Y008643D01*
X003897Y008605D01*
X003935Y008566D01*
X004013Y008566D01*
X004051Y008527D01*
X004051Y008489D01*
X004013Y008450D01*
X003935Y008450D01*
X003897Y008489D01*
X003552Y008489D02*
X003514Y008450D01*
X003398Y008450D01*
X003398Y008682D01*
X003514Y008682D01*
X003552Y008643D01*
X003552Y008605D01*
X003514Y008566D01*
X003398Y008566D01*
X003302Y008527D02*
X003302Y008489D01*
X003263Y008450D01*
X003186Y008450D01*
X003147Y008489D01*
X003186Y008566D02*
X003263Y008566D01*
X003302Y008527D01*
X003302Y008643D02*
X003263Y008682D01*
X003186Y008682D01*
X003147Y008643D01*
X003147Y008605D01*
X003186Y008566D01*
X003051Y008489D02*
X003013Y008450D01*
X002935Y008450D01*
X002897Y008489D01*
X002897Y008643D01*
X002935Y008682D01*
X003013Y008682D01*
X003051Y008643D01*
X003514Y008566D02*
X003552Y008527D01*
X003552Y008489D01*
X002099Y008430D02*
X002099Y008275D01*
X002099Y008352D02*
X001867Y008352D01*
X001867Y008525D02*
X001944Y008603D01*
X001944Y008564D02*
X001944Y008680D01*
X001867Y008680D02*
X002099Y008680D01*
X002099Y008564D01*
X002060Y008525D01*
X001983Y008525D01*
X001944Y008564D01*
X001905Y008179D02*
X001867Y008140D01*
X001867Y008063D01*
X001905Y008024D01*
X001944Y008024D01*
X001983Y008063D01*
X001983Y008140D01*
X002021Y008179D01*
X002060Y008179D01*
X002099Y008140D01*
X002099Y008063D01*
X002060Y008024D01*
X002099Y007678D02*
X001867Y007678D01*
X001944Y007678D02*
X001944Y007562D01*
X001983Y007523D01*
X002060Y007523D01*
X002099Y007562D01*
X002099Y007678D01*
X001944Y007601D02*
X001867Y007523D01*
X001867Y007428D02*
X002099Y007273D01*
X002099Y007177D02*
X001867Y007177D01*
X001867Y007061D01*
X001905Y007022D01*
X002060Y007022D01*
X002099Y007061D01*
X002099Y007177D01*
X002099Y007428D02*
X001867Y007273D01*
X002099Y006676D02*
X002099Y006522D01*
X002099Y006599D02*
X001867Y006599D01*
X001867Y006426D02*
X002099Y006271D01*
X002099Y006175D02*
X001867Y006175D01*
X001867Y006059D01*
X001905Y006021D01*
X002060Y006021D01*
X002099Y006059D01*
X002099Y006175D01*
X002099Y006426D02*
X001867Y006271D01*
X001905Y005675D02*
X001867Y005636D01*
X001867Y005558D01*
X001905Y005520D01*
X001983Y005520D01*
X001983Y005597D01*
X002060Y005520D02*
X002099Y005558D01*
X002099Y005636D01*
X002060Y005675D01*
X001905Y005675D01*
X001867Y005424D02*
X002099Y005424D01*
X001867Y005269D01*
X002099Y005269D01*
X002099Y005174D02*
X001867Y005174D01*
X001867Y005058D01*
X001905Y005019D01*
X002060Y005019D01*
X002099Y005058D01*
X002099Y005174D01*
X002099Y004673D02*
X001944Y004673D01*
X001867Y004595D01*
X001944Y004518D01*
X002099Y004518D01*
X002060Y004422D02*
X001905Y004422D01*
X001867Y004384D01*
X001867Y004306D01*
X001905Y004267D01*
X001905Y004172D02*
X001867Y004133D01*
X001867Y004056D01*
X001905Y004017D01*
X002060Y004017D02*
X002099Y004056D01*
X002099Y004133D01*
X002060Y004172D01*
X001905Y004172D01*
X002060Y004267D02*
X002099Y004306D01*
X002099Y004384D01*
X002060Y004422D01*
X002060Y003671D02*
X001905Y003671D01*
X001867Y003632D01*
X001867Y003555D01*
X001905Y003516D01*
X002060Y003516D02*
X002099Y003555D01*
X002099Y003632D01*
X002060Y003671D01*
X002099Y003420D02*
X002099Y003266D01*
X002099Y003343D02*
X001867Y003343D01*
X001905Y003170D02*
X001867Y003131D01*
X001867Y003054D01*
X001905Y003015D01*
X001944Y003015D01*
X001983Y003054D01*
X001983Y003131D01*
X002021Y003170D01*
X002060Y003170D01*
X002099Y003131D01*
X002099Y003054D01*
X002060Y003015D01*
X002897Y003066D02*
X002974Y003066D01*
X002897Y002950D02*
X003051Y002950D01*
X003147Y002950D02*
X003147Y003182D01*
X003302Y002950D01*
X003302Y003182D01*
X003398Y003105D02*
X003475Y003182D01*
X003552Y003105D01*
X003552Y002950D01*
X003552Y003066D02*
X003398Y003066D01*
X003398Y003105D02*
X003398Y002950D01*
X003051Y003182D02*
X002897Y003182D01*
X002897Y002950D01*
X004097Y002950D02*
X004174Y002950D01*
X004135Y002950D02*
X004135Y003182D01*
X004097Y003182D02*
X004174Y003182D01*
X004264Y003143D02*
X004264Y002989D01*
X004302Y002950D01*
X004380Y002950D01*
X004418Y002989D01*
X004418Y003143D01*
X004380Y003182D01*
X004302Y003182D01*
X004264Y003143D01*
X004900Y003182D02*
X004900Y002950D01*
X005016Y002950D01*
X005055Y002989D01*
X005055Y003027D01*
X005016Y003066D01*
X004900Y003066D01*
X004900Y003182D02*
X005016Y003182D01*
X005055Y003143D01*
X005055Y003105D01*
X005016Y003066D01*
X005151Y003066D02*
X005306Y003066D01*
X005306Y003105D02*
X005306Y002950D01*
X005306Y003105D02*
X005228Y003182D01*
X005151Y003105D01*
X005151Y002950D01*
X005479Y002950D02*
X005479Y003182D01*
X005556Y003182D02*
X005401Y003182D01*
X007909Y002143D02*
X007948Y002182D01*
X008025Y002182D01*
X008064Y002143D01*
X008160Y002182D02*
X008160Y001950D01*
X008207Y002865D02*
X008487Y002865D01*
X008487Y003200D02*
X008207Y003200D01*
X008207Y003865D02*
X008487Y003865D01*
X008487Y004200D02*
X008207Y004200D01*
X008207Y004865D02*
X008487Y004865D01*
X008487Y005200D02*
X008207Y005200D01*
X005552Y005989D02*
X005552Y006143D01*
X005514Y006182D01*
X005398Y006182D01*
X005398Y005950D01*
X005514Y005950D01*
X005552Y005989D01*
X005302Y005989D02*
X005302Y006143D01*
X005263Y006182D01*
X005147Y006182D01*
X005147Y005950D01*
X005263Y005950D01*
X005302Y005989D01*
X005051Y006027D02*
X005051Y006182D01*
X004897Y006182D02*
X004897Y006027D01*
X004974Y005950D01*
X005051Y006027D01*
X004625Y005950D02*
X004548Y005950D01*
X004587Y005950D02*
X004587Y006182D01*
X004625Y006182D02*
X004548Y006182D01*
X004452Y006143D02*
X004414Y006182D01*
X004336Y006182D01*
X004298Y006143D01*
X004298Y006105D01*
X004336Y006066D01*
X004414Y006066D01*
X004452Y006027D01*
X004452Y005989D01*
X004414Y005950D01*
X004336Y005950D01*
X004298Y005989D01*
X004202Y005989D02*
X004202Y006143D01*
X004163Y006182D01*
X004086Y006182D01*
X004047Y006143D01*
X004047Y005989D01*
X004086Y005950D01*
X004163Y005950D01*
X004202Y005989D01*
X003951Y005950D02*
X003951Y006182D01*
X003874Y006105D01*
X003797Y006182D01*
X003797Y005950D01*
X003552Y005989D02*
X003552Y006143D01*
X003514Y006182D01*
X003398Y006182D01*
X003398Y005950D01*
X003514Y005950D01*
X003552Y005989D01*
X003302Y005950D02*
X003302Y006182D01*
X003147Y006182D02*
X003302Y005950D01*
X003147Y005950D02*
X003147Y006182D01*
X003051Y006143D02*
X003013Y006182D01*
X002935Y006182D01*
X002897Y006143D01*
X002897Y005989D01*
X002935Y005950D01*
X003013Y005950D01*
X003051Y005989D01*
X003051Y006066D01*
X002974Y006066D01*
X003917Y005682D02*
X003917Y005527D01*
X003994Y005450D01*
X004071Y005527D01*
X004071Y005682D01*
X004167Y005682D02*
X004283Y005682D01*
X004322Y005643D01*
X004322Y005489D01*
X004283Y005450D01*
X004167Y005450D01*
X004167Y005682D01*
X004418Y005682D02*
X004534Y005682D01*
X004572Y005643D01*
X004572Y005489D01*
X004534Y005450D01*
X004418Y005450D01*
X004418Y005682D01*
X008830Y008547D02*
X008830Y008747D01*
X008930Y008747D01*
X008963Y008714D01*
X008963Y008647D01*
X008930Y008614D01*
X008830Y008614D01*
X008896Y008614D02*
X008963Y008547D01*
X009051Y008547D02*
X009184Y008547D01*
X009272Y008580D02*
X009305Y008547D01*
X009372Y008547D01*
X009405Y008580D01*
X009405Y008614D01*
X009372Y008647D01*
X009305Y008647D01*
X009272Y008680D01*
X009272Y008714D01*
X009305Y008747D01*
X009372Y008747D01*
X009405Y008714D01*
X009493Y008747D02*
X009493Y008547D01*
X009626Y008547D01*
X009559Y008647D02*
X009493Y008647D01*
X009493Y008747D02*
X009626Y008747D01*
X009714Y008747D02*
X009847Y008747D01*
X009780Y008747D02*
X009780Y008547D01*
X009184Y008747D02*
X009051Y008747D01*
X009051Y008547D01*
X009051Y008647D02*
X009117Y008647D01*
X009079Y009500D02*
X009079Y009732D01*
X009195Y009732D01*
X009234Y009693D01*
X009234Y009616D01*
X009195Y009577D01*
X009079Y009577D01*
X009330Y009500D02*
X009485Y009655D01*
X009485Y009693D01*
X009446Y009732D01*
X009369Y009732D01*
X009330Y009693D01*
X009330Y009500D02*
X009485Y009500D01*
X010081Y009500D02*
X010081Y009732D01*
X010197Y009732D01*
X010236Y009693D01*
X010236Y009616D01*
X010197Y009577D01*
X010081Y009577D01*
X010332Y009500D02*
X010486Y009500D01*
X010409Y009500D02*
X010409Y009732D01*
X010332Y009655D01*
X011083Y009732D02*
X011083Y009500D01*
X011083Y009577D02*
X011199Y009577D01*
X011238Y009616D01*
X011238Y009693D01*
X011199Y009732D01*
X011083Y009732D01*
X011333Y009693D02*
X011333Y009539D01*
X011488Y009693D01*
X011488Y009539D01*
X011450Y009500D01*
X011372Y009500D01*
X011333Y009539D01*
X011333Y009693D02*
X011372Y009732D01*
X011450Y009732D01*
X011488Y009693D01*
X012085Y009655D02*
X012085Y009500D01*
X012085Y009616D02*
X012240Y009616D01*
X012240Y009655D02*
X012240Y009500D01*
X012335Y009500D02*
X012490Y009500D01*
X012413Y009500D02*
X012413Y009732D01*
X012335Y009655D01*
X012240Y009655D02*
X012162Y009732D01*
X012085Y009655D01*
X013087Y009655D02*
X013087Y009500D01*
X013087Y009616D02*
X013241Y009616D01*
X013241Y009655D02*
X013241Y009500D01*
X013337Y009539D02*
X013337Y009693D01*
X013376Y009732D01*
X013453Y009732D01*
X013492Y009693D01*
X013337Y009539D01*
X013376Y009500D01*
X013453Y009500D01*
X013492Y009539D01*
X013492Y009693D01*
X013241Y009655D02*
X013164Y009732D01*
X013087Y009655D01*
X013897Y009732D02*
X013897Y009500D01*
X014051Y009500D01*
X014147Y009500D02*
X014302Y009500D01*
X014398Y009500D02*
X014514Y009500D01*
X014552Y009539D01*
X014552Y009693D01*
X014514Y009732D01*
X014398Y009732D01*
X014398Y009500D01*
X014225Y009616D02*
X014147Y009616D01*
X014147Y009732D02*
X014147Y009500D01*
X014147Y009732D02*
X014302Y009732D01*
X014898Y009693D02*
X014898Y009539D01*
X014937Y009500D01*
X015015Y009500D01*
X015053Y009539D01*
X015149Y009500D02*
X015149Y009732D01*
X015053Y009693D02*
X015015Y009732D01*
X014937Y009732D01*
X014898Y009693D01*
X015149Y009616D02*
X015304Y009616D01*
X015304Y009732D02*
X015304Y009500D01*
X015399Y009539D02*
X015399Y009693D01*
X015438Y009732D01*
X015515Y009732D01*
X015554Y009693D01*
X015554Y009616D02*
X015477Y009616D01*
X015554Y009616D02*
X015554Y009539D01*
X015515Y009500D01*
X015438Y009500D01*
X015399Y009539D01*
X015900Y009500D02*
X015900Y009732D01*
X016016Y009732D01*
X016055Y009693D01*
X016055Y009655D01*
X016016Y009616D01*
X015900Y009616D01*
X015900Y009500D02*
X016016Y009500D01*
X016055Y009539D01*
X016055Y009577D01*
X016016Y009616D01*
X016151Y009616D02*
X016306Y009616D01*
X016306Y009655D02*
X016306Y009500D01*
X016306Y009655D02*
X016228Y009732D01*
X016151Y009655D01*
X016151Y009500D01*
X016479Y009500D02*
X016479Y009732D01*
X016556Y009732D02*
X016401Y009732D01*
X017094Y009732D02*
X017171Y009732D01*
X017133Y009732D02*
X017133Y009500D01*
X017171Y009500D02*
X017094Y009500D01*
X017261Y009539D02*
X017300Y009500D01*
X017377Y009500D01*
X017416Y009539D01*
X017416Y009693D01*
X017377Y009732D01*
X017300Y009732D01*
X017261Y009693D01*
X017261Y009539D01*
X017904Y009500D02*
X018059Y009500D01*
X018154Y009500D02*
X018154Y009732D01*
X018309Y009500D01*
X018309Y009732D01*
X018405Y009655D02*
X018482Y009732D01*
X018560Y009655D01*
X018560Y009500D01*
X018560Y009616D02*
X018405Y009616D01*
X018405Y009655D02*
X018405Y009500D01*
X018059Y009732D02*
X017904Y009732D01*
X017904Y009500D01*
X017904Y009616D02*
X017981Y009616D01*
X018906Y009577D02*
X019022Y009577D01*
X019061Y009616D01*
X019061Y009693D01*
X019022Y009732D01*
X018906Y009732D01*
X018906Y009500D01*
X018983Y009577D02*
X019061Y009500D01*
X019156Y009500D02*
X019311Y009500D01*
X019407Y009539D02*
X019445Y009500D01*
X019523Y009500D01*
X019561Y009539D01*
X019561Y009577D01*
X019523Y009616D01*
X019445Y009616D01*
X019407Y009655D01*
X019407Y009693D01*
X019445Y009732D01*
X019523Y009732D01*
X019561Y009693D01*
X019767Y009732D02*
X019767Y009500D01*
X019883Y009500D01*
X019921Y009539D01*
X019921Y009693D01*
X019883Y009732D01*
X019767Y009732D01*
X020017Y009693D02*
X020017Y009539D01*
X020056Y009500D01*
X020133Y009500D01*
X020172Y009539D01*
X020172Y009616D01*
X020095Y009616D01*
X020172Y009693D02*
X020133Y009732D01*
X020056Y009732D01*
X020017Y009693D01*
X020268Y009732D02*
X020268Y009500D01*
X020422Y009500D02*
X020422Y009732D01*
X020518Y009732D02*
X020634Y009732D01*
X020673Y009693D01*
X020673Y009539D01*
X020634Y009500D01*
X020518Y009500D01*
X020518Y009732D01*
X020268Y009732D02*
X020422Y009500D01*
X019311Y009732D02*
X019156Y009732D01*
X019156Y009500D01*
X019156Y009616D02*
X019234Y009616D01*
X008483Y009577D02*
X008483Y009539D01*
X008444Y009500D01*
X008367Y009500D01*
X008328Y009539D01*
X008405Y009616D02*
X008444Y009616D01*
X008483Y009577D01*
X008444Y009616D02*
X008483Y009655D01*
X008483Y009693D01*
X008444Y009732D01*
X008367Y009732D01*
X008328Y009693D01*
X008232Y009693D02*
X008232Y009616D01*
X008194Y009577D01*
X008078Y009577D01*
X008078Y009500D02*
X008078Y009732D01*
X008194Y009732D01*
X008232Y009693D01*
X007481Y009616D02*
X007326Y009616D01*
X007442Y009732D01*
X007442Y009500D01*
X007231Y009616D02*
X007192Y009577D01*
X007076Y009577D01*
X007076Y009500D02*
X007076Y009732D01*
X007192Y009732D01*
X007231Y009693D01*
X007231Y009616D01*
X006479Y009616D02*
X006479Y009539D01*
X006440Y009500D01*
X006363Y009500D01*
X006324Y009539D01*
X006324Y009616D02*
X006402Y009655D01*
X006440Y009655D01*
X006479Y009616D01*
X006479Y009732D02*
X006324Y009732D01*
X006324Y009616D01*
X006229Y009616D02*
X006190Y009577D01*
X006074Y009577D01*
X006074Y009500D02*
X006074Y009732D01*
X006190Y009732D01*
X006229Y009693D01*
X006229Y009616D01*
X005477Y009577D02*
X005439Y009616D01*
X005323Y009616D01*
X005323Y009539D01*
X005361Y009500D01*
X005439Y009500D01*
X005477Y009539D01*
X005477Y009577D01*
X005400Y009693D02*
X005323Y009616D01*
X005227Y009616D02*
X005188Y009577D01*
X005072Y009577D01*
X005072Y009500D02*
X005072Y009732D01*
X005188Y009732D01*
X005227Y009693D01*
X005227Y009616D01*
X005400Y009693D02*
X005477Y009732D01*
X004476Y009732D02*
X004476Y009693D01*
X004321Y009539D01*
X004321Y009500D01*
X004225Y009616D02*
X004186Y009577D01*
X004070Y009577D01*
X004070Y009500D02*
X004070Y009732D01*
X004186Y009732D01*
X004225Y009693D01*
X004225Y009616D01*
X004321Y009732D02*
X004476Y009732D01*
X003474Y009693D02*
X003474Y009655D01*
X003435Y009616D01*
X003358Y009616D01*
X003319Y009655D01*
X003319Y009693D01*
X003358Y009732D01*
X003435Y009732D01*
X003474Y009693D01*
X003435Y009616D02*
X003474Y009577D01*
X003474Y009539D01*
X003435Y009500D01*
X003358Y009500D01*
X003319Y009539D01*
X003319Y009577D01*
X003358Y009616D01*
X003223Y009616D02*
X003185Y009577D01*
X003068Y009577D01*
X003068Y009500D02*
X003068Y009732D01*
X003185Y009732D01*
X003223Y009693D01*
X003223Y009616D01*
X002472Y009616D02*
X002356Y009616D01*
X002317Y009655D01*
X002317Y009693D01*
X002356Y009732D01*
X002433Y009732D01*
X002472Y009693D01*
X002472Y009539D01*
X002433Y009500D01*
X002356Y009500D01*
X002317Y009539D01*
X002221Y009616D02*
X002183Y009577D01*
X002067Y009577D01*
X002067Y009500D02*
X002067Y009732D01*
X002183Y009732D01*
X002221Y009693D01*
X002221Y009616D01*
X001552Y009539D02*
X001514Y009500D01*
X001436Y009500D01*
X001398Y009539D01*
X001552Y009693D01*
X001552Y009539D01*
X001398Y009539D02*
X001398Y009693D01*
X001436Y009732D01*
X001514Y009732D01*
X001552Y009693D01*
X001302Y009500D02*
X001147Y009500D01*
X001225Y009500D02*
X001225Y009732D01*
X001147Y009655D01*
X001051Y009693D02*
X001013Y009732D01*
X000897Y009732D01*
X000897Y009500D01*
X000897Y009577D02*
X001013Y009577D01*
X001051Y009616D01*
X001051Y009693D01*
X009940Y003207D02*
X009942Y003219D01*
X009947Y003230D01*
X009955Y003239D01*
X009966Y003245D01*
X009978Y003248D01*
X009990Y003247D01*
X010002Y003243D01*
X010011Y003235D01*
X010018Y003225D01*
X010022Y003213D01*
X010022Y003201D01*
X010018Y003189D01*
X010011Y003179D01*
X010001Y003171D01*
X009990Y003167D01*
X009978Y003166D01*
X009966Y003169D01*
X009955Y003175D01*
X009947Y003184D01*
X009942Y003195D01*
X009940Y003207D01*
X009853Y002804D02*
X009440Y002804D01*
D12*
X010747Y001830D02*
X010747Y000830D01*
X006747Y000830D02*
X006747Y001830D01*
X002747Y001830D02*
X002747Y000830D01*
X002847Y005430D02*
X002747Y005530D01*
X002847Y005630D01*
X002747Y005530D02*
X003747Y005530D01*
X004747Y005530D02*
X005747Y005530D01*
X005647Y005430D01*
X005747Y005530D02*
X005647Y005630D01*
X011747Y009830D02*
X011747Y010830D01*
X013747Y010830D02*
X013747Y009830D01*
X019747Y009830D02*
X019747Y010830D01*
X020747Y010830D01*
X020747Y009830D01*
X019747Y009830D01*
X019747Y001830D02*
X019747Y000830D01*
X020747Y000830D01*
X020747Y001830D01*
X019747Y001830D01*
D13*
X020721Y002700D02*
X011312Y002700D01*
X011312Y008960D01*
X020721Y008960D01*
X020721Y002700D01*
X010095Y007279D02*
X010095Y008381D01*
X009740Y008381D01*
X008953Y008381D01*
X008599Y008381D01*
X008599Y007279D01*
X010095Y007279D01*
X006350Y008476D02*
X005997Y008830D01*
X005820Y008300D01*
X006350Y008476D01*
X006334Y008493D02*
X005884Y008493D01*
X005868Y008445D02*
X006254Y008445D01*
X006285Y008542D02*
X005901Y008542D01*
X005917Y008590D02*
X006237Y008590D01*
X006188Y008639D02*
X005933Y008639D01*
X005949Y008687D02*
X006140Y008687D01*
X006091Y008736D02*
X005965Y008736D01*
X005981Y008784D02*
X006043Y008784D01*
X006109Y008396D02*
X005852Y008396D01*
X005836Y008348D02*
X005963Y008348D01*
X003547Y008780D02*
X002897Y008780D01*
X002197Y008680D02*
X002197Y008030D01*
X002197Y003680D02*
X002197Y003030D01*
X003897Y002280D02*
X004547Y002280D01*
X004897Y002280D02*
X005547Y002280D01*
D14*
X008007Y003340D02*
X008007Y003560D01*
X008117Y003560D01*
X008153Y003523D01*
X008153Y003450D01*
X008117Y003413D01*
X008007Y003413D01*
X008080Y003413D02*
X008153Y003340D01*
X008228Y003377D02*
X008264Y003340D01*
X008338Y003340D01*
X008374Y003377D01*
X008374Y003413D01*
X008338Y003450D01*
X008301Y003450D01*
X008338Y003450D02*
X008374Y003487D01*
X008374Y003523D01*
X008338Y003560D01*
X008264Y003560D01*
X008228Y003523D01*
X008228Y004340D02*
X008374Y004487D01*
X008374Y004523D01*
X008338Y004560D01*
X008264Y004560D01*
X008228Y004523D01*
X008153Y004523D02*
X008153Y004450D01*
X008117Y004413D01*
X008007Y004413D01*
X008007Y004340D02*
X008007Y004560D01*
X008117Y004560D01*
X008153Y004523D01*
X008080Y004413D02*
X008153Y004340D01*
X008228Y004340D02*
X008374Y004340D01*
X008374Y005340D02*
X008228Y005340D01*
X008301Y005340D02*
X008301Y005560D01*
X008228Y005487D01*
X008153Y005523D02*
X008153Y005450D01*
X008117Y005413D01*
X008007Y005413D01*
X008007Y005340D02*
X008007Y005560D01*
X008117Y005560D01*
X008153Y005523D01*
X008080Y005413D02*
X008153Y005340D01*
X008117Y006340D02*
X008043Y006340D01*
X008007Y006377D01*
X008007Y006523D01*
X008043Y006560D01*
X008117Y006560D01*
X008153Y006523D01*
X008228Y006487D02*
X008301Y006560D01*
X008301Y006340D01*
X008228Y006340D02*
X008374Y006340D01*
X008153Y006377D02*
X008117Y006340D01*
X009307Y006377D02*
X009343Y006340D01*
X009417Y006340D01*
X009453Y006377D01*
X009528Y006340D02*
X009674Y006487D01*
X009674Y006523D01*
X009638Y006560D01*
X009564Y006560D01*
X009528Y006523D01*
X009453Y006523D02*
X009417Y006560D01*
X009343Y006560D01*
X009307Y006523D01*
X009307Y006377D01*
X009528Y006340D02*
X009674Y006340D01*
X006532Y005183D02*
X006496Y005220D01*
X006422Y005220D01*
X006386Y005183D01*
X006311Y005220D02*
X006311Y005037D01*
X006275Y005000D01*
X006201Y005000D01*
X006165Y005037D01*
X006165Y005220D01*
X006386Y005000D02*
X006532Y005147D01*
X006532Y005183D01*
X006532Y005000D02*
X006386Y005000D01*
X002637Y004129D02*
X002563Y004055D01*
X002563Y004092D02*
X002563Y003982D01*
X002637Y003982D02*
X002416Y003982D01*
X002416Y004092D01*
X002453Y004129D01*
X002527Y004129D01*
X002563Y004092D01*
X002637Y003908D02*
X002416Y003908D01*
X002416Y003761D02*
X002637Y003761D01*
X002563Y003834D01*
X002637Y003908D01*
X002527Y003687D02*
X002563Y003650D01*
X002563Y003540D01*
X002637Y003540D02*
X002416Y003540D01*
X002416Y003650D01*
X002453Y003687D01*
X002527Y003687D01*
X002490Y007540D02*
X002527Y007577D01*
X002527Y007650D01*
X002563Y007687D01*
X002600Y007687D01*
X002637Y007650D01*
X002637Y007577D01*
X002600Y007540D01*
X002490Y007540D02*
X002453Y007540D01*
X002416Y007577D01*
X002416Y007650D01*
X002453Y007687D01*
X002416Y007761D02*
X002416Y007871D01*
X002453Y007908D01*
X002527Y007908D01*
X002563Y007871D01*
X002563Y007761D01*
X002637Y007761D02*
X002416Y007761D01*
X002416Y007982D02*
X002416Y008055D01*
X002416Y008019D02*
X002637Y008019D01*
X002637Y008055D02*
X002637Y007982D01*
X020948Y008602D02*
X020948Y008749D01*
X020948Y008675D02*
X021168Y008675D01*
X021095Y008749D01*
X021168Y008823D02*
X020985Y008823D01*
X020948Y008860D01*
X020948Y008933D01*
X020985Y008970D01*
X021168Y008970D01*
D15*
X020497Y009830D02*
X019997Y009830D01*
X019747Y010080D01*
X019497Y009830D01*
X018997Y009830D01*
X018747Y010080D01*
X018747Y010580D01*
X018997Y010830D01*
X019497Y010830D01*
X019747Y010580D01*
X019997Y010830D01*
X020497Y010830D01*
X020747Y010580D01*
X020747Y010080D01*
X020497Y009830D01*
X019747Y010080D02*
X019747Y010580D01*
X018747Y010580D02*
X018497Y010830D01*
X017997Y010830D01*
X017747Y010580D01*
X017497Y010830D01*
X016997Y010830D01*
X016747Y010580D01*
X016497Y010830D01*
X015997Y010830D01*
X015747Y010580D01*
X015747Y010080D01*
X015997Y009830D01*
X016497Y009830D01*
X016747Y010080D01*
X016747Y010580D01*
X016747Y010080D02*
X016997Y009830D01*
X017497Y009830D01*
X017747Y010080D01*
X017747Y010580D01*
X017747Y010080D02*
X017997Y009830D01*
X018497Y009830D01*
X018747Y010080D01*
X015747Y010080D02*
X015497Y009830D01*
X014997Y009830D01*
X014747Y010080D01*
X014497Y009830D01*
X013997Y009830D01*
X013747Y010080D01*
X013497Y009830D01*
X012997Y009830D01*
X012747Y010080D01*
X012497Y009830D01*
X011997Y009830D01*
X011747Y010080D01*
X011747Y010580D01*
X011997Y010830D01*
X012497Y010830D01*
X012747Y010580D01*
X012997Y010830D01*
X013497Y010830D01*
X013747Y010580D01*
X013747Y010080D01*
X013747Y010580D01*
X013997Y010830D01*
X014497Y010830D01*
X014747Y010580D01*
X014997Y010830D01*
X015497Y010830D01*
X015747Y010580D01*
X014747Y010580D02*
X014747Y010080D01*
X012747Y010080D02*
X012747Y010580D01*
X011747Y010580D02*
X011497Y010830D01*
X010997Y010830D01*
X010747Y010580D01*
X010497Y010830D01*
X009997Y010830D01*
X009747Y010580D01*
X009497Y010830D01*
X008997Y010830D01*
X008747Y010580D01*
X008747Y010080D01*
X008997Y009830D01*
X009497Y009830D01*
X009747Y010080D01*
X009747Y010580D01*
X009747Y010080D02*
X009997Y009830D01*
X010497Y009830D01*
X010747Y010080D01*
X010747Y010580D01*
X010747Y010080D02*
X010997Y009830D01*
X011497Y009830D01*
X011747Y010080D01*
X008747Y010080D02*
X008497Y009830D01*
X007997Y009830D01*
X007747Y010080D01*
X007497Y009830D01*
X006997Y009830D01*
X006747Y010080D01*
X006497Y009830D01*
X005997Y009830D01*
X005747Y010080D01*
X005747Y010580D01*
X005997Y010830D01*
X006497Y010830D01*
X006747Y010580D01*
X006997Y010830D01*
X007497Y010830D01*
X007747Y010580D01*
X007997Y010830D01*
X008497Y010830D01*
X008747Y010580D01*
X007747Y010580D02*
X007747Y010080D01*
X006747Y010080D02*
X006747Y010580D01*
X005747Y010580D02*
X005497Y010830D01*
X004997Y010830D01*
X004747Y010580D01*
X004497Y010830D01*
X003997Y010830D01*
X003747Y010580D01*
X003497Y010830D01*
X002997Y010830D01*
X002747Y010580D01*
X002747Y010080D01*
X002997Y009830D01*
X003497Y009830D01*
X003747Y010080D01*
X003747Y010580D01*
X003747Y010080D02*
X003997Y009830D01*
X004497Y009830D01*
X004747Y010080D01*
X004747Y010580D01*
X004747Y010080D02*
X004997Y009830D01*
X005497Y009830D01*
X005747Y010080D01*
X002747Y010080D02*
X002497Y009830D01*
X001997Y009830D01*
X001747Y010080D01*
X001497Y009830D01*
X000997Y009830D01*
X000747Y010080D01*
X000747Y010580D01*
X000997Y010830D01*
X001497Y010830D01*
X001747Y010580D01*
X001997Y010830D01*
X002497Y010830D01*
X002747Y010580D01*
X001747Y010580D02*
X001747Y010080D01*
X001497Y008830D02*
X000997Y008830D01*
X000747Y008580D01*
X000747Y008080D01*
X000997Y007830D01*
X000747Y007580D01*
X000747Y007080D01*
X000997Y006830D01*
X001497Y006830D01*
X001747Y007080D01*
X001747Y007580D01*
X001497Y007830D01*
X000997Y007830D01*
X001497Y007830D02*
X001747Y008080D01*
X001747Y008580D01*
X001497Y008830D01*
X001497Y006830D02*
X001747Y006580D01*
X001747Y006080D01*
X001497Y005830D01*
X001747Y005580D01*
X001747Y005080D01*
X001497Y004830D01*
X001747Y004580D01*
X001747Y004080D01*
X001497Y003830D01*
X001747Y003580D01*
X001747Y003080D01*
X001497Y002830D01*
X000997Y002830D01*
X000747Y003080D01*
X000747Y003580D01*
X000997Y003830D01*
X000747Y004080D01*
X000747Y004580D01*
X000997Y004830D01*
X000747Y005080D01*
X000747Y005580D01*
X000997Y005830D01*
X000747Y006080D01*
X000747Y006580D01*
X000997Y006830D01*
X000997Y005830D02*
X001497Y005830D01*
X001497Y004830D02*
X000997Y004830D01*
X000997Y003830D02*
X001497Y003830D01*
X001497Y001830D02*
X000997Y001830D01*
X000747Y001580D01*
X000747Y001080D01*
X000997Y000830D01*
X001497Y000830D01*
X001747Y001080D01*
X001997Y000830D01*
X002497Y000830D01*
X002747Y001080D01*
X002747Y001580D01*
X002497Y001830D01*
X001997Y001830D01*
X001747Y001580D01*
X001747Y001080D01*
X001747Y001580D02*
X001497Y001830D01*
X002747Y001580D02*
X002997Y001830D01*
X003497Y001830D01*
X003747Y001580D01*
X003997Y001830D01*
X004497Y001830D01*
X004747Y001580D01*
X004997Y001830D01*
X005497Y001830D01*
X005747Y001580D01*
X005997Y001830D01*
X006497Y001830D01*
X006747Y001580D01*
X006747Y001080D01*
X006497Y000830D01*
X005997Y000830D01*
X005747Y001080D01*
X005497Y000830D01*
X004997Y000830D01*
X004747Y001080D01*
X004747Y001580D01*
X004747Y001080D02*
X004497Y000830D01*
X003997Y000830D01*
X003747Y001080D01*
X003497Y000830D01*
X002997Y000830D01*
X002747Y001080D01*
X002747Y001580D01*
X003747Y001580D02*
X003747Y001080D01*
X005747Y001080D02*
X005747Y001580D01*
X006747Y001580D02*
X006747Y001080D01*
X006997Y000830D01*
X007497Y000830D01*
X007747Y001080D01*
X007747Y001580D01*
X007497Y001830D01*
X006997Y001830D01*
X006747Y001580D01*
X007747Y001580D02*
X007997Y001830D01*
X008497Y001830D01*
X008747Y001580D01*
X008997Y001830D01*
X009497Y001830D01*
X009747Y001580D01*
X009997Y001830D01*
X010497Y001830D01*
X010747Y001580D01*
X010747Y001080D01*
X010497Y000830D01*
X009997Y000830D01*
X009747Y001080D01*
X009497Y000830D01*
X008997Y000830D01*
X008747Y001080D01*
X008747Y001580D01*
X008747Y001080D02*
X008497Y000830D01*
X007997Y000830D01*
X007747Y001080D01*
X009747Y001080D02*
X009747Y001580D01*
X010747Y001580D02*
X010747Y001080D01*
X010997Y000830D01*
X011497Y000830D01*
X011747Y001080D01*
X011747Y001580D01*
X011497Y001830D01*
X010997Y001830D01*
X010747Y001580D01*
X011747Y001580D02*
X011997Y001830D01*
X012497Y001830D01*
X012747Y001580D01*
X012997Y001830D01*
X013497Y001830D01*
X013747Y001580D01*
X013997Y001830D01*
X014497Y001830D01*
X014747Y001580D01*
X014997Y001830D01*
X015497Y001830D01*
X015747Y001580D01*
X015997Y001830D01*
X016497Y001830D01*
X016747Y001580D01*
X016997Y001830D01*
X017497Y001830D01*
X017747Y001580D01*
X017997Y001830D01*
X018497Y001830D01*
X018747Y001580D01*
X018997Y001830D01*
X019497Y001830D01*
X019747Y001580D01*
X019997Y001830D01*
X020497Y001830D01*
X020747Y001580D01*
X020747Y001080D01*
X020497Y000830D01*
X019997Y000830D01*
X019747Y001080D01*
X019497Y000830D01*
X018997Y000830D01*
X018747Y001080D01*
X018747Y001580D01*
X018747Y001080D02*
X018497Y000830D01*
X017997Y000830D01*
X017747Y001080D01*
X017497Y000830D01*
X016997Y000830D01*
X016747Y001080D01*
X016497Y000830D01*
X015997Y000830D01*
X015747Y001080D01*
X015747Y001580D01*
X015747Y001080D02*
X015497Y000830D01*
X014997Y000830D01*
X014747Y001080D01*
X014497Y000830D01*
X013997Y000830D01*
X013747Y001080D01*
X013497Y000830D01*
X012997Y000830D01*
X012747Y001080D01*
X012747Y001580D01*
X012747Y001080D02*
X012497Y000830D01*
X011997Y000830D01*
X011747Y001080D01*
X013747Y001080D02*
X013747Y001580D01*
X014747Y001580D02*
X014747Y001080D01*
X016747Y001080D02*
X016747Y001580D01*
X017747Y001580D02*
X017747Y001080D01*
X019747Y001080D02*
X019747Y001580D01*
X016726Y004960D02*
X016726Y005387D01*
X016513Y005601D01*
X016299Y005387D01*
X016299Y004960D01*
X016299Y005280D02*
X016726Y005280D01*
X016082Y005280D02*
X015655Y005280D01*
X015437Y005387D02*
X015437Y005494D01*
X015331Y005601D01*
X015117Y005601D01*
X015010Y005494D01*
X014793Y005494D02*
X014793Y005387D01*
X014686Y005280D01*
X014793Y005174D01*
X014793Y005067D01*
X014686Y004960D01*
X014473Y004960D01*
X014366Y005067D01*
X014579Y005280D02*
X014686Y005280D01*
X014793Y005494D02*
X014686Y005601D01*
X014473Y005601D01*
X014366Y005494D01*
X014148Y005601D02*
X013721Y005601D01*
X013935Y005601D02*
X013935Y004960D01*
X013504Y004960D02*
X013504Y005601D01*
X013077Y005601D02*
X013077Y004960D01*
X013290Y005174D01*
X013504Y004960D01*
X015010Y004960D02*
X015437Y005387D01*
X015437Y004960D02*
X015010Y004960D01*
X015654Y005796D02*
X015760Y005796D01*
X015867Y005903D01*
X015867Y006437D01*
X015547Y006437D01*
X015440Y006330D01*
X015440Y006117D01*
X015547Y006010D01*
X015867Y006010D01*
X016085Y006010D02*
X016298Y006010D01*
X016191Y006010D02*
X016191Y006437D01*
X016085Y006437D01*
X016191Y006651D02*
X016191Y006757D01*
X016514Y006330D02*
X016621Y006437D01*
X016941Y006437D01*
X016941Y005903D01*
X016835Y005796D01*
X016728Y005796D01*
X016621Y006010D02*
X016941Y006010D01*
X017159Y006117D02*
X017266Y006224D01*
X017586Y006224D01*
X017586Y006330D02*
X017586Y006010D01*
X017266Y006010D01*
X017159Y006117D01*
X017479Y006437D02*
X017586Y006330D01*
X017479Y006437D02*
X017266Y006437D01*
X016514Y006330D02*
X016514Y006117D01*
X016621Y006010D01*
X015222Y006224D02*
X014795Y006224D01*
X014795Y006330D02*
X014795Y006117D01*
X014902Y006010D01*
X015116Y006010D01*
X015222Y006224D02*
X015222Y006330D01*
X015116Y006437D01*
X014902Y006437D01*
X014795Y006330D01*
X014578Y006437D02*
X014578Y006010D01*
X014258Y006010D01*
X014151Y006117D01*
X014151Y006437D01*
X013828Y006651D02*
X013828Y006010D01*
X013721Y006010D02*
X013935Y006010D01*
X013504Y006117D02*
X013504Y006224D01*
X013397Y006330D01*
X013077Y006330D01*
X013397Y006330D02*
X013504Y006437D01*
X013504Y006544D01*
X013397Y006651D01*
X013077Y006651D01*
X013077Y006010D01*
X013397Y006010D01*
X013504Y006117D01*
X013721Y006651D02*
X013828Y006651D01*
X007747Y006580D02*
X007497Y006330D01*
X006997Y006330D01*
X006747Y006580D01*
X006747Y007080D01*
X006997Y007330D01*
X006747Y007580D01*
X006747Y008080D01*
X006997Y008330D01*
X007497Y008330D01*
X007747Y008080D01*
X007747Y007580D01*
X007497Y007330D01*
X007747Y007080D01*
X007747Y006580D01*
X006627Y006080D02*
X006627Y005990D01*
X006527Y005970D01*
X006487Y005880D01*
X006547Y005790D01*
X006477Y005730D01*
X006397Y005790D01*
X006357Y005770D01*
X006297Y005930D01*
X006347Y005920D02*
X006407Y006020D01*
X006367Y006130D01*
X006257Y006190D01*
X006127Y006150D01*
X006087Y006020D01*
X006127Y005910D01*
X006097Y005810D01*
X006007Y005760D01*
X005957Y005790D01*
X006017Y005890D01*
X005967Y006000D01*
X005867Y006020D01*
X005867Y006050D01*
X005967Y006090D01*
X006007Y006200D01*
X005957Y006290D01*
X005997Y006320D01*
X006077Y006260D01*
X006187Y006320D01*
X006217Y006410D01*
X006267Y006410D01*
X006297Y006300D01*
X006387Y006260D01*
X006467Y006320D01*
X006517Y006280D01*
X006467Y006200D01*
X006517Y006080D01*
X006597Y006060D01*
X006607Y006010D01*
X006517Y005990D01*
X006467Y005880D01*
X006507Y005800D01*
X006467Y005770D01*
X006377Y005820D01*
X006347Y005920D01*
X006485Y005920D01*
X006476Y005861D02*
X006364Y005861D01*
X006408Y005803D02*
X006505Y005803D01*
X006511Y005978D02*
X006381Y005978D01*
X006401Y006037D02*
X006601Y006037D01*
X006627Y006080D02*
X006527Y006100D01*
X006487Y006190D01*
X006547Y006280D01*
X006477Y006350D01*
X006387Y006280D01*
X006307Y006320D01*
X006287Y006430D01*
X006197Y006430D01*
X006167Y006320D01*
X006087Y006280D01*
X005997Y006350D01*
X005927Y006280D01*
X005987Y006190D01*
X005957Y006100D01*
X005847Y006080D01*
X005847Y005990D01*
X005947Y005970D01*
X005987Y005880D01*
X005927Y005790D01*
X005997Y005730D01*
X006077Y005790D01*
X006117Y005770D01*
X006177Y005930D01*
X006123Y005920D02*
X006003Y005920D01*
X005999Y005861D02*
X006112Y005861D01*
X006083Y005803D02*
X005964Y005803D01*
X005977Y005978D02*
X006102Y005978D01*
X006092Y006037D02*
X005867Y006037D01*
X005968Y006095D02*
X006110Y006095D01*
X006138Y006154D02*
X005990Y006154D01*
X006000Y006212D02*
X006474Y006212D01*
X006486Y006154D02*
X006324Y006154D01*
X006379Y006095D02*
X006510Y006095D01*
X006297Y005930D02*
X006314Y005942D01*
X006329Y005957D01*
X006342Y005974D01*
X006351Y005993D01*
X006356Y006014D01*
X006358Y006035D01*
X006356Y006056D01*
X006351Y006076D01*
X006342Y006095D01*
X006330Y006113D01*
X006315Y006128D01*
X006298Y006140D01*
X006278Y006149D01*
X006258Y006154D01*
X006237Y006156D01*
X006216Y006154D01*
X006196Y006149D01*
X006176Y006140D01*
X006159Y006128D01*
X006144Y006113D01*
X006132Y006095D01*
X006123Y006076D01*
X006118Y006056D01*
X006116Y006035D01*
X006118Y006014D01*
X006123Y005993D01*
X006132Y005974D01*
X006145Y005957D01*
X006160Y005942D01*
X006177Y005930D01*
X006096Y006271D02*
X006363Y006271D01*
X006401Y006271D02*
X006511Y006271D01*
X006289Y006329D02*
X006190Y006329D01*
X006209Y006388D02*
X006273Y006388D01*
X006063Y006271D02*
X005967Y006271D01*
X006997Y007330D02*
X007497Y007330D01*
X007307Y004899D02*
X006187Y004899D01*
X006224Y004899D01*
X006187Y004899D02*
X006187Y004261D01*
X006224Y004261D01*
X006187Y004261D02*
X007307Y004261D01*
X007270Y004261D01*
X007307Y004261D02*
X007307Y004899D01*
X007270Y004899D01*
X006952Y004899D02*
X006915Y004899D01*
X006578Y004899D02*
X006541Y004899D01*
X006541Y004261D02*
X006952Y004261D01*
D16*
X005247Y003830D03*
X004247Y003830D03*
X003247Y003830D03*
X003247Y004830D03*
X004247Y004830D03*
X005247Y004830D03*
X005247Y006830D03*
X004247Y006830D03*
X003247Y006830D03*
X003247Y007830D03*
X004247Y007830D03*
X005247Y007830D03*
X007247Y007830D03*
X007247Y006830D03*
X001247Y006330D03*
X001247Y005330D03*
X001247Y004330D03*
X001247Y003330D03*
X001247Y001330D03*
X002247Y001330D03*
X003247Y001330D03*
X004247Y001330D03*
X005247Y001330D03*
X006247Y001330D03*
X007247Y001330D03*
X008247Y001330D03*
X009247Y001330D03*
X010247Y001330D03*
X011247Y001330D03*
X012247Y001330D03*
X013247Y001330D03*
X014247Y001330D03*
X015247Y001330D03*
X016247Y001330D03*
X017247Y001330D03*
X018247Y001330D03*
X019247Y001330D03*
X020247Y001330D03*
X020247Y010330D03*
X019247Y010330D03*
X018247Y010330D03*
X017247Y010330D03*
X016247Y010330D03*
X015247Y010330D03*
X014247Y010330D03*
X013247Y010330D03*
X012247Y010330D03*
X011247Y010330D03*
X010247Y010330D03*
X009247Y010330D03*
X008247Y010330D03*
X007247Y010330D03*
X006247Y010330D03*
X005247Y010330D03*
X004247Y010330D03*
X003247Y010330D03*
X002247Y010330D03*
X001247Y010330D03*
X001247Y008330D03*
X001247Y007330D03*
D17*
X000732Y000605D02*
X000732Y000315D01*
X000732Y000412D02*
X000877Y000412D01*
X000925Y000460D01*
X000925Y000557D01*
X000877Y000605D01*
X000732Y000605D01*
X001026Y000605D02*
X001026Y000315D01*
X001220Y000315D01*
X001321Y000363D02*
X001369Y000315D01*
X001466Y000315D01*
X001514Y000363D01*
X001514Y000460D01*
X001418Y000460D01*
X001514Y000557D02*
X001466Y000605D01*
X001369Y000605D01*
X001321Y000557D01*
X001321Y000363D01*
X001123Y000460D02*
X001026Y000460D01*
X000925Y000315D02*
X000828Y000412D01*
X001026Y000605D02*
X001220Y000605D01*
X002732Y000605D02*
X002732Y000363D01*
X002780Y000315D01*
X002877Y000315D01*
X002925Y000363D01*
X002925Y000605D01*
X003026Y000508D02*
X003123Y000605D01*
X003220Y000508D01*
X003220Y000315D01*
X003321Y000315D02*
X003321Y000605D01*
X003466Y000605D01*
X003514Y000557D01*
X003514Y000460D01*
X003466Y000412D01*
X003321Y000412D01*
X003418Y000412D02*
X003514Y000315D01*
X003712Y000315D02*
X003712Y000605D01*
X003616Y000605D02*
X003809Y000605D01*
X003220Y000460D02*
X003026Y000460D01*
X003026Y000508D02*
X003026Y000315D01*
X006732Y000315D02*
X006732Y000605D01*
X006877Y000605D01*
X006925Y000557D01*
X006925Y000460D01*
X006877Y000412D01*
X006732Y000412D01*
X007026Y000363D02*
X007026Y000557D01*
X007075Y000605D01*
X007171Y000605D01*
X007220Y000557D01*
X007321Y000605D02*
X007418Y000508D01*
X007514Y000605D01*
X007514Y000315D01*
X007321Y000315D02*
X007321Y000605D01*
X007220Y000363D02*
X007171Y000315D01*
X007075Y000315D01*
X007026Y000363D01*
X011957Y003339D02*
X011957Y003532D01*
X011957Y003435D02*
X012247Y003435D01*
X012150Y003532D01*
X012150Y003633D02*
X012102Y003682D01*
X012054Y003633D01*
X012005Y003633D01*
X011957Y003682D01*
X011957Y003778D01*
X012005Y003827D01*
X012102Y003730D02*
X012102Y003682D01*
X012150Y003633D02*
X012199Y003633D01*
X012247Y003682D01*
X012247Y003778D01*
X012199Y003827D01*
X019417Y003778D02*
X019417Y003682D01*
X019466Y003633D01*
X019563Y003633D01*
X019611Y003682D01*
X019611Y003730D01*
X019563Y003827D01*
X019708Y003827D01*
X019708Y003633D01*
X019659Y003532D02*
X019466Y003532D01*
X019659Y003339D01*
X019466Y003339D01*
X019417Y003387D01*
X019417Y003484D01*
X019466Y003532D01*
X019659Y003532D02*
X019708Y003484D01*
X019708Y003387D01*
X019659Y003339D01*
X019417Y003778D02*
X019466Y003827D01*
X019578Y000605D02*
X019675Y000508D01*
X019675Y000315D01*
X019776Y000363D02*
X019825Y000315D01*
X019921Y000315D01*
X019970Y000363D01*
X019970Y000605D01*
X020071Y000605D02*
X020216Y000605D01*
X020264Y000557D01*
X020264Y000363D01*
X020216Y000315D01*
X020071Y000315D01*
X020071Y000605D01*
X019776Y000605D02*
X019776Y000363D01*
X019675Y000460D02*
X019482Y000460D01*
X019482Y000508D02*
X019482Y000315D01*
X019482Y000508D02*
X019578Y000605D01*
X020366Y000605D02*
X020462Y000605D01*
X020414Y000605D02*
X020414Y000315D01*
X020366Y000315D02*
X020462Y000315D01*
X020562Y000363D02*
X020610Y000315D01*
X020707Y000315D01*
X020756Y000363D01*
X020756Y000557D01*
X020707Y000605D01*
X020610Y000605D01*
X020562Y000557D01*
X020562Y000363D01*
X012247Y007787D02*
X012199Y007787D01*
X012005Y007981D01*
X011957Y007981D01*
X011957Y008082D02*
X011957Y008276D01*
X011957Y008179D02*
X012247Y008179D01*
X012150Y008276D01*
X012247Y007981D02*
X012247Y007787D01*
X018276Y008062D02*
X018276Y008256D01*
X018276Y008159D02*
X018566Y008159D01*
X018469Y008256D01*
X019232Y011065D02*
X019232Y011355D01*
X019377Y011355D01*
X019425Y011307D01*
X019425Y011210D01*
X019377Y011162D01*
X019232Y011162D01*
X019526Y011113D02*
X019575Y011065D01*
X019671Y011065D01*
X019720Y011113D01*
X019720Y011307D01*
X019671Y011355D01*
X019575Y011355D01*
X019526Y011307D01*
X019526Y011113D01*
X019821Y011065D02*
X019918Y011162D01*
X020014Y011065D01*
X020014Y011355D01*
X020116Y011355D02*
X020116Y011065D01*
X020309Y011065D01*
X020410Y011065D02*
X020410Y011355D01*
X020555Y011355D01*
X020604Y011307D01*
X020604Y011210D01*
X020555Y011162D01*
X020410Y011162D01*
X020507Y011162D02*
X020604Y011065D01*
X020212Y011210D02*
X020116Y011210D01*
X020116Y011355D02*
X020309Y011355D01*
X019821Y011355D02*
X019821Y011065D01*
X001122Y011113D02*
X001122Y011307D01*
X001073Y011355D01*
X000976Y011355D01*
X000928Y011307D01*
X000928Y011113D01*
X000976Y011065D01*
X001073Y011065D01*
X001122Y011113D01*
X000828Y011065D02*
X000732Y011065D01*
X000780Y011065D02*
X000780Y011355D01*
X000732Y011355D02*
X000828Y011355D01*
X000221Y004089D02*
X000221Y003895D01*
X000512Y003895D01*
X000512Y003794D02*
X000415Y003697D01*
X000415Y003746D02*
X000415Y003601D01*
X000512Y003601D02*
X000221Y003601D01*
X000221Y003746D01*
X000270Y003794D01*
X000367Y003794D01*
X000415Y003746D01*
X000367Y003895D02*
X000367Y003992D01*
X000512Y003501D02*
X000512Y003404D01*
X000512Y003453D02*
X000221Y003453D01*
X000221Y003501D02*
X000221Y003404D01*
X000221Y003303D02*
X000512Y003303D01*
X000318Y003206D02*
X000221Y003303D01*
X000318Y003206D02*
X000221Y003110D01*
X000512Y003110D01*
X000463Y003008D02*
X000415Y003008D01*
X000367Y002960D01*
X000367Y002863D01*
X000318Y002815D01*
X000270Y002815D01*
X000221Y002863D01*
X000221Y002960D01*
X000270Y003008D01*
X000463Y003008D02*
X000512Y002960D01*
X000512Y002863D01*
X000463Y002815D01*
D18*
X002747Y003580D02*
X002747Y004080D01*
X002997Y004330D01*
X002747Y004580D01*
X002747Y005080D01*
X002997Y005330D01*
X003497Y005330D01*
X003747Y005080D01*
X003747Y004580D01*
X003997Y004330D01*
X003747Y004080D01*
X003747Y003580D01*
X003997Y003330D01*
X004497Y003330D01*
X004747Y003580D01*
X004747Y004080D01*
X004997Y004330D01*
X004747Y004580D01*
X004747Y005080D01*
X004997Y005330D01*
X005497Y005330D01*
X005747Y005080D01*
X005747Y004580D01*
X005497Y004330D01*
X005747Y004080D01*
X005747Y003580D01*
X005497Y003330D01*
X004997Y003330D01*
X004747Y003580D01*
X004747Y004080D01*
X004497Y004330D01*
X004747Y004580D01*
X004747Y005080D01*
X004497Y005330D01*
X003997Y005330D01*
X003747Y005080D01*
X003747Y004580D01*
X003497Y004330D01*
X003747Y004080D01*
X003747Y003580D01*
X003497Y003330D01*
X002997Y003330D01*
X002747Y003580D01*
X002997Y006330D02*
X002747Y006580D01*
X002747Y008080D01*
X002997Y008330D01*
X003497Y008330D01*
X003747Y008080D01*
X003747Y006580D01*
X003497Y006330D01*
X002997Y006330D01*
X003747Y006580D02*
X003997Y006330D01*
X004497Y006330D01*
X004747Y006580D01*
X004747Y008080D01*
X004497Y008330D01*
X003997Y008330D01*
X003747Y008080D01*
X004747Y008080D02*
X004997Y008330D01*
X005497Y008330D01*
X005747Y008080D01*
X005747Y006580D01*
X005497Y006330D01*
X004997Y006330D01*
X004747Y006580D01*
X009817Y007411D02*
X009819Y007419D01*
X009824Y007426D01*
X009831Y007430D01*
X009839Y007431D01*
X009847Y007428D01*
X009853Y007423D01*
X009857Y007415D01*
X009857Y007407D01*
X009853Y007399D01*
X009847Y007394D01*
X009839Y007391D01*
X009831Y007392D01*
X009824Y007396D01*
X009819Y007403D01*
X009817Y007411D01*
D19*
X006747Y005043D03*
X007121Y004117D03*
X006373Y004117D03*
D20*
X009253Y003873D02*
X009253Y003912D01*
X009253Y003911D02*
X009274Y003913D01*
X009294Y003918D01*
X009313Y003927D01*
X009330Y003939D01*
X009344Y003954D01*
X009356Y003971D01*
X009365Y003989D01*
X009370Y004009D01*
X009372Y004030D01*
X009370Y004051D01*
X009365Y004071D01*
X009356Y004089D01*
X009344Y004106D01*
X009330Y004121D01*
X009313Y004133D01*
X009294Y004142D01*
X009274Y004147D01*
X009253Y004149D01*
X009253Y004187D01*
X009253Y004188D01*
X009278Y004186D01*
X009302Y004180D01*
X009325Y004171D01*
X009346Y004158D01*
X009365Y004142D01*
X009381Y004123D01*
X009394Y004102D01*
X009403Y004079D01*
X009409Y004055D01*
X009411Y004030D01*
X009409Y004005D01*
X009403Y003981D01*
X009394Y003958D01*
X009381Y003937D01*
X009365Y003918D01*
X009346Y003902D01*
X009325Y003889D01*
X009302Y003880D01*
X009278Y003874D01*
X009253Y003872D01*
X009253Y003873D01*
X009278Y003875D01*
X009302Y003881D01*
X009325Y003890D01*
X009346Y003903D01*
X009364Y003919D01*
X009380Y003938D01*
X009393Y003959D01*
X009402Y003982D01*
X009408Y004005D01*
X009410Y004030D01*
X009408Y004055D01*
X009402Y004078D01*
X009393Y004101D01*
X009380Y004122D01*
X009364Y004141D01*
X009346Y004157D01*
X009325Y004170D01*
X009302Y004179D01*
X009278Y004185D01*
X009253Y004187D01*
X009253Y004186D01*
X009278Y004184D01*
X009302Y004178D01*
X009324Y004169D01*
X009345Y004156D01*
X009363Y004140D01*
X009379Y004122D01*
X009392Y004101D01*
X009401Y004078D01*
X009407Y004054D01*
X009409Y004030D01*
X009407Y004006D01*
X009401Y003982D01*
X009392Y003959D01*
X009379Y003938D01*
X009363Y003920D01*
X009345Y003904D01*
X009324Y003891D01*
X009302Y003882D01*
X009278Y003876D01*
X009253Y003874D01*
X009253Y003875D01*
X009278Y003877D01*
X009301Y003883D01*
X009324Y003892D01*
X009344Y003905D01*
X009363Y003921D01*
X009379Y003939D01*
X009391Y003960D01*
X009400Y003982D01*
X009406Y004006D01*
X009408Y004030D01*
X009406Y004054D01*
X009400Y004078D01*
X009391Y004100D01*
X009379Y004121D01*
X009363Y004139D01*
X009344Y004155D01*
X009324Y004168D01*
X009301Y004177D01*
X009278Y004183D01*
X009253Y004185D01*
X009253Y004184D01*
X009278Y004182D01*
X009301Y004176D01*
X009323Y004167D01*
X009344Y004154D01*
X009362Y004139D01*
X009378Y004120D01*
X009390Y004100D01*
X009399Y004077D01*
X009405Y004054D01*
X009407Y004030D01*
X009405Y004006D01*
X009399Y003983D01*
X009390Y003960D01*
X009378Y003940D01*
X009362Y003921D01*
X009344Y003906D01*
X009323Y003893D01*
X009301Y003884D01*
X009278Y003878D01*
X009253Y003876D01*
X009253Y003877D01*
X009277Y003879D01*
X009301Y003885D01*
X009323Y003894D01*
X009343Y003906D01*
X009361Y003922D01*
X009377Y003940D01*
X009389Y003961D01*
X009399Y003983D01*
X009404Y004006D01*
X009406Y004030D01*
X009404Y004054D01*
X009399Y004077D01*
X009389Y004099D01*
X009377Y004120D01*
X009361Y004138D01*
X009343Y004154D01*
X009323Y004166D01*
X009301Y004175D01*
X009277Y004181D01*
X009253Y004183D01*
X009253Y004182D01*
X009277Y004180D01*
X009300Y004174D01*
X009322Y004165D01*
X009343Y004153D01*
X009361Y004137D01*
X009376Y004119D01*
X009389Y004099D01*
X009398Y004077D01*
X009403Y004054D01*
X009405Y004030D01*
X009403Y004006D01*
X009398Y003983D01*
X009389Y003961D01*
X009376Y003941D01*
X009361Y003923D01*
X009343Y003907D01*
X009322Y003895D01*
X009300Y003886D01*
X009277Y003880D01*
X009253Y003878D01*
X009253Y003879D01*
X009277Y003881D01*
X009300Y003887D01*
X009322Y003896D01*
X009342Y003908D01*
X009360Y003923D01*
X009375Y003941D01*
X009388Y003962D01*
X009397Y003983D01*
X009402Y004006D01*
X009404Y004030D01*
X009402Y004054D01*
X009397Y004077D01*
X009388Y004098D01*
X009375Y004119D01*
X009360Y004137D01*
X009342Y004152D01*
X009322Y004164D01*
X009300Y004173D01*
X009277Y004179D01*
X009253Y004181D01*
X009253Y004180D01*
X009277Y004178D01*
X009300Y004173D01*
X009321Y004163D01*
X009341Y004151D01*
X009359Y004136D01*
X009374Y004118D01*
X009387Y004098D01*
X009396Y004076D01*
X009401Y004053D01*
X009403Y004030D01*
X009401Y004007D01*
X009396Y003984D01*
X009387Y003962D01*
X009374Y003942D01*
X009359Y003924D01*
X009341Y003909D01*
X009321Y003897D01*
X009300Y003887D01*
X009277Y003882D01*
X009253Y003880D01*
X009253Y003881D01*
X009277Y003883D01*
X009299Y003888D01*
X009321Y003897D01*
X009341Y003910D01*
X009359Y003925D01*
X009374Y003943D01*
X009386Y003962D01*
X009395Y003984D01*
X009400Y004007D01*
X009402Y004030D01*
X009400Y004053D01*
X009395Y004076D01*
X009386Y004098D01*
X009374Y004117D01*
X009359Y004135D01*
X009341Y004150D01*
X009321Y004163D01*
X009299Y004172D01*
X009277Y004177D01*
X009253Y004179D01*
X009253Y004178D01*
X009277Y004176D01*
X009299Y004171D01*
X009321Y004162D01*
X009340Y004150D01*
X009358Y004134D01*
X009373Y004117D01*
X009385Y004097D01*
X009394Y004076D01*
X009399Y004053D01*
X009401Y004030D01*
X009399Y004007D01*
X009394Y003984D01*
X009385Y003963D01*
X009373Y003943D01*
X009358Y003926D01*
X009340Y003910D01*
X009321Y003898D01*
X009299Y003889D01*
X009277Y003884D01*
X009253Y003882D01*
X009253Y003883D01*
X009276Y003885D01*
X009299Y003890D01*
X009320Y003899D01*
X009340Y003911D01*
X009357Y003926D01*
X009372Y003944D01*
X009384Y003963D01*
X009393Y003985D01*
X009398Y004007D01*
X009400Y004030D01*
X009398Y004053D01*
X009393Y004075D01*
X009384Y004097D01*
X009372Y004116D01*
X009357Y004134D01*
X009340Y004149D01*
X009320Y004161D01*
X009299Y004170D01*
X009276Y004175D01*
X009253Y004177D01*
X009253Y004176D01*
X009276Y004174D01*
X009298Y004169D01*
X009320Y004160D01*
X009339Y004148D01*
X009356Y004133D01*
X009371Y004116D01*
X009383Y004096D01*
X009392Y004075D01*
X009397Y004053D01*
X009399Y004030D01*
X009397Y004007D01*
X009392Y003985D01*
X009383Y003964D01*
X009371Y003944D01*
X009356Y003927D01*
X009339Y003912D01*
X009320Y003900D01*
X009298Y003891D01*
X009276Y003886D01*
X009253Y003884D01*
X009253Y003885D01*
X009277Y003887D01*
X009300Y003893D01*
X009322Y003903D01*
X009342Y003916D01*
X009360Y003932D01*
X009374Y003951D01*
X009386Y003972D01*
X009394Y003994D01*
X009398Y004018D01*
X009398Y004042D01*
X009394Y004066D01*
X009386Y004088D01*
X009374Y004109D01*
X009360Y004128D01*
X009342Y004144D01*
X009322Y004157D01*
X009300Y004167D01*
X009277Y004173D01*
X009253Y004175D01*
X009253Y004174D01*
X009277Y004172D01*
X009300Y004166D01*
X009322Y004156D01*
X009342Y004143D01*
X009359Y004127D01*
X009374Y004109D01*
X009385Y004088D01*
X009393Y004065D01*
X009397Y004042D01*
X009397Y004018D01*
X009393Y003995D01*
X009385Y003972D01*
X009374Y003951D01*
X009359Y003933D01*
X009342Y003917D01*
X009322Y003904D01*
X009300Y003894D01*
X009277Y003888D01*
X009253Y003886D01*
X009253Y003887D01*
X009277Y003889D01*
X009300Y003895D01*
X009321Y003904D01*
X009341Y003917D01*
X009358Y003933D01*
X009373Y003952D01*
X009384Y003973D01*
X009392Y003995D01*
X009396Y004018D01*
X009396Y004042D01*
X009392Y004065D01*
X009384Y004087D01*
X009373Y004108D01*
X009358Y004127D01*
X009341Y004143D01*
X009321Y004156D01*
X009300Y004165D01*
X009277Y004171D01*
X009253Y004173D01*
X009253Y004172D01*
X009277Y004170D01*
X009299Y004164D01*
X009321Y004155D01*
X009340Y004142D01*
X009358Y004126D01*
X009372Y004108D01*
X009383Y004087D01*
X009391Y004065D01*
X009395Y004042D01*
X009395Y004018D01*
X009391Y003995D01*
X009383Y003973D01*
X009372Y003952D01*
X009358Y003934D01*
X009340Y003918D01*
X009321Y003905D01*
X009299Y003896D01*
X009277Y003890D01*
X009253Y003888D01*
X009253Y003889D01*
X009277Y003891D01*
X009299Y003897D01*
X009320Y003906D01*
X009340Y003919D01*
X009357Y003935D01*
X009371Y003953D01*
X009382Y003973D01*
X009390Y003995D01*
X009394Y004018D01*
X009394Y004042D01*
X009390Y004065D01*
X009382Y004087D01*
X009371Y004107D01*
X009357Y004125D01*
X009340Y004141D01*
X009320Y004154D01*
X009299Y004163D01*
X009277Y004169D01*
X009253Y004171D01*
X009253Y004170D01*
X009276Y004168D01*
X009299Y004162D01*
X009320Y004153D01*
X009339Y004140D01*
X009356Y004125D01*
X009370Y004106D01*
X009381Y004086D01*
X009389Y004064D01*
X009393Y004042D01*
X009393Y004018D01*
X009389Y003996D01*
X009381Y003974D01*
X009370Y003954D01*
X009356Y003935D01*
X009339Y003920D01*
X009320Y003907D01*
X009299Y003898D01*
X009276Y003892D01*
X009253Y003890D01*
X009253Y003891D01*
X009276Y003893D01*
X009299Y003899D01*
X009319Y003908D01*
X009339Y003920D01*
X009355Y003936D01*
X009369Y003954D01*
X009380Y003974D01*
X009388Y003996D01*
X009392Y004019D01*
X009392Y004041D01*
X009388Y004064D01*
X009380Y004086D01*
X009369Y004106D01*
X009355Y004124D01*
X009339Y004140D01*
X009319Y004152D01*
X009299Y004161D01*
X009276Y004167D01*
X009253Y004169D01*
X009253Y004168D01*
X009276Y004166D01*
X009298Y004160D01*
X009319Y004151D01*
X009338Y004139D01*
X009355Y004123D01*
X009369Y004105D01*
X009379Y004085D01*
X009387Y004064D01*
X009391Y004041D01*
X009391Y004019D01*
X009387Y003996D01*
X009379Y003975D01*
X009369Y003955D01*
X009355Y003937D01*
X009338Y003921D01*
X009319Y003909D01*
X009298Y003900D01*
X009276Y003894D01*
X009253Y003892D01*
X009253Y003893D01*
X009276Y003895D01*
X009298Y003901D01*
X009319Y003910D01*
X009337Y003922D01*
X009354Y003937D01*
X009368Y003955D01*
X009379Y003975D01*
X009386Y003996D01*
X009390Y004019D01*
X009390Y004041D01*
X009386Y004064D01*
X009379Y004085D01*
X009368Y004105D01*
X009354Y004123D01*
X009337Y004138D01*
X009319Y004150D01*
X009298Y004159D01*
X009276Y004165D01*
X009253Y004167D01*
X009253Y004166D01*
X009276Y004164D01*
X009298Y004159D01*
X009318Y004149D01*
X009337Y004137D01*
X009353Y004122D01*
X009367Y004104D01*
X009378Y004085D01*
X009385Y004063D01*
X009389Y004041D01*
X009389Y004019D01*
X009385Y003997D01*
X009378Y003975D01*
X009367Y003956D01*
X009353Y003938D01*
X009337Y003923D01*
X009318Y003911D01*
X009298Y003901D01*
X009276Y003896D01*
X009253Y003894D01*
X009253Y003895D01*
X009276Y003897D01*
X009297Y003902D01*
X009318Y003911D01*
X009336Y003924D01*
X009352Y003939D01*
X009366Y003956D01*
X009377Y003976D01*
X009384Y003997D01*
X009388Y004019D01*
X009388Y004041D01*
X009384Y004063D01*
X009377Y004084D01*
X009366Y004104D01*
X009352Y004121D01*
X009336Y004136D01*
X009318Y004149D01*
X009297Y004158D01*
X009276Y004163D01*
X009253Y004165D01*
X009253Y004164D01*
X009275Y004162D01*
X009297Y004157D01*
X009317Y004148D01*
X009336Y004136D01*
X009352Y004121D01*
X009365Y004103D01*
X009376Y004084D01*
X009383Y004063D01*
X009387Y004041D01*
X009387Y004019D01*
X009383Y003997D01*
X009376Y003976D01*
X009365Y003957D01*
X009352Y003939D01*
X009336Y003924D01*
X009317Y003912D01*
X009297Y003903D01*
X009275Y003898D01*
X009253Y003896D01*
X009253Y003897D01*
X009275Y003899D01*
X009297Y003904D01*
X009317Y003913D01*
X009335Y003925D01*
X009351Y003940D01*
X009364Y003957D01*
X009375Y003977D01*
X009382Y003997D01*
X009386Y004019D01*
X009386Y004041D01*
X009382Y004063D01*
X009375Y004083D01*
X009364Y004103D01*
X009351Y004120D01*
X009335Y004135D01*
X009317Y004147D01*
X009297Y004156D01*
X009275Y004161D01*
X009253Y004163D01*
X009253Y004162D01*
X009275Y004160D01*
X009296Y004155D01*
X009316Y004146D01*
X009334Y004134D01*
X009350Y004119D01*
X009364Y004102D01*
X009374Y004083D01*
X009381Y004062D01*
X009385Y004041D01*
X009385Y004019D01*
X009381Y003998D01*
X009374Y003977D01*
X009364Y003958D01*
X009350Y003941D01*
X009334Y003926D01*
X009316Y003914D01*
X009296Y003905D01*
X009275Y003900D01*
X009253Y003898D01*
X009253Y003899D01*
X009275Y003901D01*
X009296Y003906D01*
X009316Y003915D01*
X009334Y003927D01*
X009350Y003941D01*
X009363Y003959D01*
X009373Y003977D01*
X009380Y003998D01*
X009384Y004019D01*
X009384Y004041D01*
X009380Y004062D01*
X009373Y004083D01*
X009363Y004101D01*
X009350Y004119D01*
X009334Y004133D01*
X009316Y004145D01*
X009296Y004154D01*
X009275Y004159D01*
X009253Y004161D01*
X009253Y004160D01*
X009276Y004158D01*
X009298Y004152D01*
X009318Y004142D01*
X009337Y004129D01*
X009353Y004113D01*
X009366Y004095D01*
X009375Y004074D01*
X009381Y004053D01*
X009383Y004030D01*
X009381Y004007D01*
X009375Y003986D01*
X009366Y003965D01*
X009353Y003947D01*
X009337Y003931D01*
X009318Y003918D01*
X009298Y003908D01*
X009276Y003902D01*
X009253Y003900D01*
X009253Y003901D01*
X009276Y003903D01*
X009297Y003909D01*
X009318Y003918D01*
X009336Y003931D01*
X009352Y003947D01*
X009365Y003966D01*
X009374Y003986D01*
X009380Y004008D01*
X009382Y004030D01*
X009380Y004052D01*
X009374Y004074D01*
X009365Y004094D01*
X009352Y004113D01*
X009336Y004129D01*
X009318Y004142D01*
X009297Y004151D01*
X009276Y004157D01*
X009253Y004159D01*
X009253Y004158D01*
X009276Y004156D01*
X009297Y004150D01*
X009317Y004141D01*
X009335Y004128D01*
X009351Y004112D01*
X009364Y004094D01*
X009373Y004074D01*
X009379Y004052D01*
X009381Y004030D01*
X009379Y004008D01*
X009373Y003986D01*
X009364Y003966D01*
X009351Y003948D01*
X009335Y003932D01*
X009317Y003919D01*
X009297Y003910D01*
X009276Y003904D01*
X009253Y003902D01*
X009253Y003903D01*
X009275Y003905D01*
X009297Y003911D01*
X009317Y003920D01*
X009335Y003933D01*
X009350Y003949D01*
X009363Y003967D01*
X009372Y003987D01*
X009378Y004008D01*
X009380Y004030D01*
X009378Y004052D01*
X009372Y004073D01*
X009363Y004093D01*
X009350Y004111D01*
X009335Y004127D01*
X009317Y004140D01*
X009297Y004149D01*
X009275Y004155D01*
X009253Y004157D01*
X009253Y004156D01*
X009275Y004154D01*
X009296Y004148D01*
X009316Y004139D01*
X009334Y004126D01*
X009350Y004111D01*
X009362Y004093D01*
X009371Y004073D01*
X009377Y004052D01*
X009379Y004030D01*
X009377Y004008D01*
X009371Y003987D01*
X009362Y003967D01*
X009350Y003949D01*
X009334Y003934D01*
X009316Y003921D01*
X009296Y003912D01*
X009275Y003906D01*
X009253Y003904D01*
X009253Y003905D01*
X009275Y003907D01*
X009296Y003913D01*
X009316Y003922D01*
X009334Y003934D01*
X009349Y003950D01*
X009361Y003968D01*
X009370Y003987D01*
X009376Y004008D01*
X009378Y004030D01*
X009376Y004052D01*
X009370Y004073D01*
X009361Y004092D01*
X009349Y004110D01*
X009334Y004126D01*
X009316Y004138D01*
X009296Y004147D01*
X009275Y004153D01*
X009253Y004155D01*
X009253Y004154D01*
X009275Y004152D01*
X009296Y004146D01*
X009315Y004137D01*
X009333Y004125D01*
X009348Y004110D01*
X009360Y004092D01*
X009370Y004072D01*
X009375Y004051D01*
X009377Y004030D01*
X009375Y004009D01*
X009370Y003988D01*
X009360Y003968D01*
X009348Y003950D01*
X009333Y003935D01*
X009315Y003923D01*
X009296Y003914D01*
X009275Y003908D01*
X009253Y003906D01*
X009253Y003907D01*
X009275Y003909D01*
X009295Y003915D01*
X009315Y003924D01*
X009332Y003936D01*
X009347Y003951D01*
X009360Y003969D01*
X009369Y003988D01*
X009374Y004009D01*
X009376Y004030D01*
X009374Y004051D01*
X009369Y004072D01*
X009360Y004091D01*
X009347Y004109D01*
X009332Y004124D01*
X009315Y004136D01*
X009295Y004145D01*
X009275Y004151D01*
X009253Y004153D01*
X009253Y004152D01*
X009275Y004150D01*
X009295Y004145D01*
X009314Y004135D01*
X009332Y004123D01*
X009347Y004108D01*
X009359Y004091D01*
X009368Y004072D01*
X009373Y004051D01*
X009375Y004030D01*
X009373Y004009D01*
X009368Y003988D01*
X009359Y003969D01*
X009347Y003952D01*
X009332Y003937D01*
X009314Y003925D01*
X009295Y003915D01*
X009275Y003910D01*
X009253Y003908D01*
X009253Y003909D01*
X009274Y003911D01*
X009295Y003916D01*
X009314Y003925D01*
X009331Y003937D01*
X009346Y003952D01*
X009358Y003970D01*
X009367Y003989D01*
X009372Y004009D01*
X009374Y004030D01*
X009372Y004051D01*
X009367Y004071D01*
X009358Y004090D01*
X009346Y004108D01*
X009331Y004123D01*
X009314Y004135D01*
X009295Y004144D01*
X009274Y004149D01*
X009253Y004151D01*
X009253Y004150D01*
X009274Y004148D01*
X009294Y004143D01*
X009313Y004134D01*
X009330Y004122D01*
X009345Y004107D01*
X009357Y004090D01*
X009366Y004071D01*
X009371Y004051D01*
X009373Y004030D01*
X009371Y004009D01*
X009366Y003989D01*
X009357Y003970D01*
X009345Y003953D01*
X009330Y003938D01*
X009313Y003926D01*
X009294Y003917D01*
X009274Y003912D01*
X009253Y003910D01*
X010040Y004187D02*
X010040Y004148D01*
X010040Y004149D02*
X010019Y004147D01*
X009999Y004142D01*
X009980Y004133D01*
X009963Y004121D01*
X009949Y004106D01*
X009937Y004089D01*
X009928Y004071D01*
X009923Y004051D01*
X009921Y004030D01*
X009923Y004009D01*
X009928Y003989D01*
X009937Y003971D01*
X009949Y003954D01*
X009963Y003939D01*
X009980Y003927D01*
X009999Y003918D01*
X010019Y003913D01*
X010040Y003911D01*
X010040Y003873D01*
X010040Y003872D01*
X010015Y003874D01*
X009991Y003880D01*
X009968Y003889D01*
X009947Y003902D01*
X009928Y003918D01*
X009912Y003937D01*
X009899Y003958D01*
X009890Y003981D01*
X009884Y004005D01*
X009882Y004030D01*
X009884Y004055D01*
X009890Y004079D01*
X009899Y004102D01*
X009912Y004123D01*
X009928Y004142D01*
X009947Y004158D01*
X009968Y004171D01*
X009991Y004180D01*
X010015Y004186D01*
X010040Y004188D01*
X010040Y004187D01*
X010015Y004185D01*
X009991Y004179D01*
X009968Y004170D01*
X009947Y004157D01*
X009929Y004141D01*
X009913Y004122D01*
X009900Y004101D01*
X009891Y004078D01*
X009885Y004055D01*
X009883Y004030D01*
X009885Y004005D01*
X009891Y003982D01*
X009900Y003959D01*
X009913Y003938D01*
X009929Y003919D01*
X009947Y003903D01*
X009968Y003890D01*
X009991Y003881D01*
X010015Y003875D01*
X010040Y003873D01*
X010040Y003874D01*
X010015Y003876D01*
X009991Y003882D01*
X009969Y003891D01*
X009948Y003904D01*
X009930Y003920D01*
X009914Y003938D01*
X009901Y003959D01*
X009892Y003982D01*
X009886Y004006D01*
X009884Y004030D01*
X009886Y004054D01*
X009892Y004078D01*
X009901Y004101D01*
X009914Y004122D01*
X009930Y004140D01*
X009948Y004156D01*
X009969Y004169D01*
X009991Y004178D01*
X010015Y004184D01*
X010040Y004186D01*
X010040Y004185D01*
X010015Y004183D01*
X009992Y004177D01*
X009969Y004168D01*
X009949Y004155D01*
X009930Y004139D01*
X009914Y004121D01*
X009902Y004100D01*
X009893Y004078D01*
X009887Y004054D01*
X009885Y004030D01*
X009887Y004006D01*
X009893Y003982D01*
X009902Y003960D01*
X009914Y003939D01*
X009930Y003921D01*
X009949Y003905D01*
X009969Y003892D01*
X009992Y003883D01*
X010015Y003877D01*
X010040Y003875D01*
X010040Y003876D01*
X010015Y003878D01*
X009992Y003884D01*
X009970Y003893D01*
X009949Y003906D01*
X009931Y003921D01*
X009915Y003940D01*
X009903Y003960D01*
X009894Y003983D01*
X009888Y004006D01*
X009886Y004030D01*
X009888Y004054D01*
X009894Y004077D01*
X009903Y004100D01*
X009915Y004120D01*
X009931Y004139D01*
X009949Y004154D01*
X009970Y004167D01*
X009992Y004176D01*
X010015Y004182D01*
X010040Y004184D01*
X010040Y004183D01*
X010016Y004181D01*
X009992Y004175D01*
X009970Y004166D01*
X009950Y004154D01*
X009932Y004138D01*
X009916Y004120D01*
X009904Y004099D01*
X009894Y004077D01*
X009889Y004054D01*
X009887Y004030D01*
X009889Y004006D01*
X009894Y003983D01*
X009904Y003961D01*
X009916Y003940D01*
X009932Y003922D01*
X009950Y003906D01*
X009970Y003894D01*
X009992Y003885D01*
X010016Y003879D01*
X010040Y003877D01*
X010040Y003878D01*
X010016Y003880D01*
X009993Y003886D01*
X009971Y003895D01*
X009950Y003907D01*
X009932Y003923D01*
X009917Y003941D01*
X009904Y003961D01*
X009895Y003983D01*
X009890Y004006D01*
X009888Y004030D01*
X009890Y004054D01*
X009895Y004077D01*
X009904Y004099D01*
X009917Y004119D01*
X009932Y004137D01*
X009950Y004153D01*
X009971Y004165D01*
X009993Y004174D01*
X010016Y004180D01*
X010040Y004182D01*
X010040Y004181D01*
X010016Y004179D01*
X009993Y004173D01*
X009971Y004164D01*
X009951Y004152D01*
X009933Y004137D01*
X009918Y004119D01*
X009905Y004098D01*
X009896Y004077D01*
X009891Y004054D01*
X009889Y004030D01*
X009891Y004006D01*
X009896Y003983D01*
X009905Y003962D01*
X009918Y003941D01*
X009933Y003923D01*
X009951Y003908D01*
X009971Y003896D01*
X009993Y003887D01*
X010016Y003881D01*
X010040Y003879D01*
X010040Y003880D01*
X010016Y003882D01*
X009993Y003887D01*
X009972Y003897D01*
X009952Y003909D01*
X009934Y003924D01*
X009919Y003942D01*
X009906Y003962D01*
X009897Y003984D01*
X009892Y004007D01*
X009890Y004030D01*
X009892Y004053D01*
X009897Y004076D01*
X009906Y004098D01*
X009919Y004118D01*
X009934Y004136D01*
X009952Y004151D01*
X009972Y004163D01*
X009993Y004173D01*
X010016Y004178D01*
X010040Y004180D01*
X010040Y004179D01*
X010016Y004177D01*
X009994Y004172D01*
X009972Y004163D01*
X009952Y004150D01*
X009934Y004135D01*
X009919Y004117D01*
X009907Y004098D01*
X009898Y004076D01*
X009893Y004053D01*
X009891Y004030D01*
X009893Y004007D01*
X009898Y003984D01*
X009907Y003962D01*
X009919Y003943D01*
X009934Y003925D01*
X009952Y003910D01*
X009972Y003897D01*
X009994Y003888D01*
X010016Y003883D01*
X010040Y003881D01*
X010040Y003882D01*
X010016Y003884D01*
X009994Y003889D01*
X009972Y003898D01*
X009953Y003910D01*
X009935Y003926D01*
X009920Y003943D01*
X009908Y003963D01*
X009899Y003984D01*
X009894Y004007D01*
X009892Y004030D01*
X009894Y004053D01*
X009899Y004076D01*
X009908Y004097D01*
X009920Y004117D01*
X009935Y004134D01*
X009953Y004150D01*
X009972Y004162D01*
X009994Y004171D01*
X010016Y004176D01*
X010040Y004178D01*
X010040Y004177D01*
X010017Y004175D01*
X009994Y004170D01*
X009973Y004161D01*
X009953Y004149D01*
X009936Y004134D01*
X009921Y004116D01*
X009909Y004097D01*
X009900Y004075D01*
X009895Y004053D01*
X009893Y004030D01*
X009895Y004007D01*
X009900Y003985D01*
X009909Y003963D01*
X009921Y003944D01*
X009936Y003926D01*
X009953Y003911D01*
X009973Y003899D01*
X009994Y003890D01*
X010017Y003885D01*
X010040Y003883D01*
X010040Y003884D01*
X010017Y003886D01*
X009995Y003891D01*
X009973Y003900D01*
X009954Y003912D01*
X009937Y003927D01*
X009922Y003944D01*
X009910Y003964D01*
X009901Y003985D01*
X009896Y004007D01*
X009894Y004030D01*
X009896Y004053D01*
X009901Y004075D01*
X009910Y004096D01*
X009922Y004116D01*
X009937Y004133D01*
X009954Y004148D01*
X009973Y004160D01*
X009995Y004169D01*
X010017Y004174D01*
X010040Y004176D01*
X010040Y004175D01*
X010016Y004173D01*
X009993Y004167D01*
X009971Y004157D01*
X009951Y004144D01*
X009933Y004128D01*
X009919Y004109D01*
X009907Y004088D01*
X009899Y004066D01*
X009895Y004042D01*
X009895Y004018D01*
X009899Y003994D01*
X009907Y003972D01*
X009919Y003951D01*
X009933Y003932D01*
X009951Y003916D01*
X009971Y003903D01*
X009993Y003893D01*
X010016Y003887D01*
X010040Y003885D01*
X010040Y003886D01*
X010016Y003888D01*
X009993Y003894D01*
X009971Y003904D01*
X009951Y003917D01*
X009934Y003933D01*
X009919Y003951D01*
X009908Y003972D01*
X009900Y003995D01*
X009896Y004018D01*
X009896Y004042D01*
X009900Y004065D01*
X009908Y004088D01*
X009919Y004109D01*
X009934Y004127D01*
X009951Y004143D01*
X009971Y004156D01*
X009993Y004166D01*
X010016Y004172D01*
X010040Y004174D01*
X010040Y004173D01*
X010016Y004171D01*
X009993Y004165D01*
X009972Y004156D01*
X009952Y004143D01*
X009935Y004127D01*
X009920Y004108D01*
X009909Y004087D01*
X009901Y004065D01*
X009897Y004042D01*
X009897Y004018D01*
X009901Y003995D01*
X009909Y003973D01*
X009920Y003952D01*
X009935Y003933D01*
X009952Y003917D01*
X009972Y003904D01*
X009993Y003895D01*
X010016Y003889D01*
X010040Y003887D01*
X010040Y003888D01*
X010016Y003890D01*
X009994Y003896D01*
X009972Y003905D01*
X009953Y003918D01*
X009935Y003934D01*
X009921Y003952D01*
X009910Y003973D01*
X009902Y003995D01*
X009898Y004018D01*
X009898Y004042D01*
X009902Y004065D01*
X009910Y004087D01*
X009921Y004108D01*
X009935Y004126D01*
X009953Y004142D01*
X009972Y004155D01*
X009994Y004164D01*
X010016Y004170D01*
X010040Y004172D01*
X010040Y004171D01*
X010016Y004169D01*
X009994Y004163D01*
X009973Y004154D01*
X009953Y004141D01*
X009936Y004125D01*
X009922Y004107D01*
X009911Y004087D01*
X009903Y004065D01*
X009899Y004042D01*
X009899Y004018D01*
X009903Y003995D01*
X009911Y003973D01*
X009922Y003953D01*
X009936Y003935D01*
X009953Y003919D01*
X009973Y003906D01*
X009994Y003897D01*
X010016Y003891D01*
X010040Y003889D01*
X010040Y003890D01*
X010017Y003892D01*
X009994Y003898D01*
X009973Y003907D01*
X009954Y003920D01*
X009937Y003935D01*
X009923Y003954D01*
X009912Y003974D01*
X009904Y003996D01*
X009900Y004018D01*
X009900Y004042D01*
X009904Y004064D01*
X009912Y004086D01*
X009923Y004106D01*
X009937Y004125D01*
X009954Y004140D01*
X009973Y004153D01*
X009994Y004162D01*
X010017Y004168D01*
X010040Y004170D01*
X010040Y004169D01*
X010017Y004167D01*
X009994Y004161D01*
X009974Y004152D01*
X009954Y004140D01*
X009938Y004124D01*
X009924Y004106D01*
X009913Y004086D01*
X009905Y004064D01*
X009901Y004041D01*
X009901Y004019D01*
X009905Y003996D01*
X009913Y003974D01*
X009924Y003954D01*
X009938Y003936D01*
X009954Y003920D01*
X009974Y003908D01*
X009994Y003899D01*
X010017Y003893D01*
X010040Y003891D01*
X010040Y003892D01*
X010017Y003894D01*
X009995Y003900D01*
X009974Y003909D01*
X009955Y003921D01*
X009938Y003937D01*
X009924Y003955D01*
X009914Y003975D01*
X009906Y003996D01*
X009902Y004019D01*
X009902Y004041D01*
X009906Y004064D01*
X009914Y004085D01*
X009924Y004105D01*
X009938Y004123D01*
X009955Y004139D01*
X009974Y004151D01*
X009995Y004160D01*
X010017Y004166D01*
X010040Y004168D01*
X010040Y004167D01*
X010017Y004165D01*
X009995Y004159D01*
X009974Y004150D01*
X009956Y004138D01*
X009939Y004123D01*
X009925Y004105D01*
X009914Y004085D01*
X009907Y004064D01*
X009903Y004041D01*
X009903Y004019D01*
X009907Y003996D01*
X009914Y003975D01*
X009925Y003955D01*
X009939Y003937D01*
X009956Y003922D01*
X009974Y003910D01*
X009995Y003901D01*
X010017Y003895D01*
X010040Y003893D01*
X010040Y003894D01*
X010017Y003896D01*
X009995Y003901D01*
X009975Y003911D01*
X009956Y003923D01*
X009940Y003938D01*
X009926Y003956D01*
X009915Y003975D01*
X009908Y003997D01*
X009904Y004019D01*
X009904Y004041D01*
X009908Y004063D01*
X009915Y004085D01*
X009926Y004104D01*
X009940Y004122D01*
X009956Y004137D01*
X009975Y004149D01*
X009995Y004159D01*
X010017Y004164D01*
X010040Y004166D01*
X010040Y004165D01*
X010017Y004163D01*
X009996Y004158D01*
X009975Y004149D01*
X009957Y004136D01*
X009941Y004121D01*
X009927Y004104D01*
X009916Y004084D01*
X009909Y004063D01*
X009905Y004041D01*
X009905Y004019D01*
X009909Y003997D01*
X009916Y003976D01*
X009927Y003956D01*
X009941Y003939D01*
X009957Y003924D01*
X009975Y003911D01*
X009996Y003902D01*
X010017Y003897D01*
X010040Y003895D01*
X010040Y003896D01*
X010018Y003898D01*
X009996Y003903D01*
X009976Y003912D01*
X009957Y003924D01*
X009941Y003939D01*
X009928Y003957D01*
X009917Y003976D01*
X009910Y003997D01*
X009906Y004019D01*
X009906Y004041D01*
X009910Y004063D01*
X009917Y004084D01*
X009928Y004103D01*
X009941Y004121D01*
X009957Y004136D01*
X009976Y004148D01*
X009996Y004157D01*
X010018Y004162D01*
X010040Y004164D01*
X010040Y004163D01*
X010018Y004161D01*
X009996Y004156D01*
X009976Y004147D01*
X009958Y004135D01*
X009942Y004120D01*
X009929Y004103D01*
X009918Y004083D01*
X009911Y004063D01*
X009907Y004041D01*
X009907Y004019D01*
X009911Y003997D01*
X009918Y003977D01*
X009929Y003957D01*
X009942Y003940D01*
X009958Y003925D01*
X009976Y003913D01*
X009996Y003904D01*
X010018Y003899D01*
X010040Y003897D01*
X010040Y003898D01*
X010018Y003900D01*
X009997Y003905D01*
X009977Y003914D01*
X009959Y003926D01*
X009943Y003941D01*
X009929Y003958D01*
X009919Y003977D01*
X009912Y003998D01*
X009908Y004019D01*
X009908Y004041D01*
X009912Y004062D01*
X009919Y004083D01*
X009929Y004102D01*
X009943Y004119D01*
X009959Y004134D01*
X009977Y004146D01*
X009997Y004155D01*
X010018Y004160D01*
X010040Y004162D01*
X010040Y004161D01*
X010018Y004159D01*
X009997Y004154D01*
X009977Y004145D01*
X009959Y004133D01*
X009943Y004119D01*
X009930Y004101D01*
X009920Y004083D01*
X009913Y004062D01*
X009909Y004041D01*
X009909Y004019D01*
X009913Y003998D01*
X009920Y003977D01*
X009930Y003959D01*
X009943Y003941D01*
X009959Y003927D01*
X009977Y003915D01*
X009997Y003906D01*
X010018Y003901D01*
X010040Y003899D01*
X010040Y003900D01*
X010017Y003902D01*
X009995Y003908D01*
X009975Y003918D01*
X009956Y003931D01*
X009940Y003947D01*
X009927Y003965D01*
X009918Y003986D01*
X009912Y004007D01*
X009910Y004030D01*
X009912Y004053D01*
X009918Y004074D01*
X009927Y004095D01*
X009940Y004113D01*
X009956Y004129D01*
X009975Y004142D01*
X009995Y004152D01*
X010017Y004158D01*
X010040Y004160D01*
X010040Y004159D01*
X010017Y004157D01*
X009996Y004151D01*
X009975Y004142D01*
X009957Y004129D01*
X009941Y004113D01*
X009928Y004094D01*
X009919Y004074D01*
X009913Y004052D01*
X009911Y004030D01*
X009913Y004008D01*
X009919Y003986D01*
X009928Y003966D01*
X009941Y003947D01*
X009957Y003931D01*
X009975Y003918D01*
X009996Y003909D01*
X010017Y003903D01*
X010040Y003901D01*
X010040Y003902D01*
X010017Y003904D01*
X009996Y003910D01*
X009976Y003919D01*
X009958Y003932D01*
X009942Y003948D01*
X009929Y003966D01*
X009920Y003986D01*
X009914Y004008D01*
X009912Y004030D01*
X009914Y004052D01*
X009920Y004074D01*
X009929Y004094D01*
X009942Y004112D01*
X009958Y004128D01*
X009976Y004141D01*
X009996Y004150D01*
X010017Y004156D01*
X010040Y004158D01*
X010040Y004157D01*
X010018Y004155D01*
X009996Y004149D01*
X009976Y004140D01*
X009958Y004127D01*
X009943Y004111D01*
X009930Y004093D01*
X009921Y004073D01*
X009915Y004052D01*
X009913Y004030D01*
X009915Y004008D01*
X009921Y003987D01*
X009930Y003967D01*
X009943Y003949D01*
X009958Y003933D01*
X009976Y003920D01*
X009996Y003911D01*
X010018Y003905D01*
X010040Y003903D01*
X010040Y003904D01*
X010018Y003906D01*
X009997Y003912D01*
X009977Y003921D01*
X009959Y003934D01*
X009943Y003949D01*
X009931Y003967D01*
X009922Y003987D01*
X009916Y004008D01*
X009914Y004030D01*
X009916Y004052D01*
X009922Y004073D01*
X009931Y004093D01*
X009943Y004111D01*
X009959Y004126D01*
X009977Y004139D01*
X009997Y004148D01*
X010018Y004154D01*
X010040Y004156D01*
X010040Y004155D01*
X010018Y004153D01*
X009997Y004147D01*
X009977Y004138D01*
X009959Y004126D01*
X009944Y004110D01*
X009932Y004092D01*
X009923Y004073D01*
X009917Y004052D01*
X009915Y004030D01*
X009917Y004008D01*
X009923Y003987D01*
X009932Y003968D01*
X009944Y003950D01*
X009959Y003934D01*
X009977Y003922D01*
X009997Y003913D01*
X010018Y003907D01*
X010040Y003905D01*
X010040Y003906D01*
X010018Y003908D01*
X009997Y003914D01*
X009978Y003923D01*
X009960Y003935D01*
X009945Y003950D01*
X009933Y003968D01*
X009923Y003988D01*
X009918Y004009D01*
X009916Y004030D01*
X009918Y004051D01*
X009923Y004072D01*
X009933Y004092D01*
X009945Y004110D01*
X009960Y004125D01*
X009978Y004137D01*
X009997Y004146D01*
X010018Y004152D01*
X010040Y004154D01*
X010040Y004153D01*
X010018Y004151D01*
X009998Y004145D01*
X009978Y004136D01*
X009961Y004124D01*
X009946Y004109D01*
X009933Y004091D01*
X009924Y004072D01*
X009919Y004051D01*
X009917Y004030D01*
X009919Y004009D01*
X009924Y003988D01*
X009933Y003969D01*
X009946Y003951D01*
X009961Y003936D01*
X009978Y003924D01*
X009998Y003915D01*
X010018Y003909D01*
X010040Y003907D01*
X010040Y003908D01*
X010018Y003910D01*
X009998Y003915D01*
X009979Y003925D01*
X009961Y003937D01*
X009946Y003952D01*
X009934Y003969D01*
X009925Y003988D01*
X009920Y004009D01*
X009918Y004030D01*
X009920Y004051D01*
X009925Y004072D01*
X009934Y004091D01*
X009946Y004108D01*
X009961Y004123D01*
X009979Y004135D01*
X009998Y004145D01*
X010018Y004150D01*
X010040Y004152D01*
X010040Y004151D01*
X010019Y004149D01*
X009998Y004144D01*
X009979Y004135D01*
X009962Y004123D01*
X009947Y004108D01*
X009935Y004090D01*
X009926Y004071D01*
X009921Y004051D01*
X009919Y004030D01*
X009921Y004009D01*
X009926Y003989D01*
X009935Y003970D01*
X009947Y003952D01*
X009962Y003937D01*
X009979Y003925D01*
X009998Y003916D01*
X010019Y003911D01*
X010040Y003909D01*
X010040Y003910D01*
X010019Y003912D01*
X009999Y003917D01*
X009980Y003926D01*
X009963Y003938D01*
X009948Y003953D01*
X009936Y003970D01*
X009927Y003989D01*
X009922Y004009D01*
X009920Y004030D01*
X009922Y004051D01*
X009927Y004071D01*
X009936Y004090D01*
X009948Y004107D01*
X009963Y004122D01*
X009980Y004134D01*
X009999Y004143D01*
X010019Y004148D01*
X010040Y004150D01*
X010040Y005187D02*
X010040Y005148D01*
X010040Y005149D02*
X010019Y005147D01*
X009999Y005142D01*
X009980Y005133D01*
X009963Y005121D01*
X009949Y005106D01*
X009937Y005089D01*
X009928Y005071D01*
X009923Y005051D01*
X009921Y005030D01*
X009923Y005009D01*
X009928Y004989D01*
X009937Y004971D01*
X009949Y004954D01*
X009963Y004939D01*
X009980Y004927D01*
X009999Y004918D01*
X010019Y004913D01*
X010040Y004911D01*
X010040Y004873D01*
X010040Y004872D01*
X010015Y004874D01*
X009991Y004880D01*
X009968Y004889D01*
X009947Y004902D01*
X009928Y004918D01*
X009912Y004937D01*
X009899Y004958D01*
X009890Y004981D01*
X009884Y005005D01*
X009882Y005030D01*
X009884Y005055D01*
X009890Y005079D01*
X009899Y005102D01*
X009912Y005123D01*
X009928Y005142D01*
X009947Y005158D01*
X009968Y005171D01*
X009991Y005180D01*
X010015Y005186D01*
X010040Y005188D01*
X010040Y005187D01*
X010015Y005185D01*
X009991Y005179D01*
X009968Y005170D01*
X009947Y005157D01*
X009929Y005141D01*
X009913Y005122D01*
X009900Y005101D01*
X009891Y005078D01*
X009885Y005055D01*
X009883Y005030D01*
X009885Y005005D01*
X009891Y004982D01*
X009900Y004959D01*
X009913Y004938D01*
X009929Y004919D01*
X009947Y004903D01*
X009968Y004890D01*
X009991Y004881D01*
X010015Y004875D01*
X010040Y004873D01*
X010040Y004874D01*
X010015Y004876D01*
X009991Y004882D01*
X009969Y004891D01*
X009948Y004904D01*
X009930Y004920D01*
X009914Y004938D01*
X009901Y004959D01*
X009892Y004982D01*
X009886Y005006D01*
X009884Y005030D01*
X009886Y005054D01*
X009892Y005078D01*
X009901Y005101D01*
X009914Y005122D01*
X009930Y005140D01*
X009948Y005156D01*
X009969Y005169D01*
X009991Y005178D01*
X010015Y005184D01*
X010040Y005186D01*
X010040Y005185D01*
X010015Y005183D01*
X009992Y005177D01*
X009969Y005168D01*
X009949Y005155D01*
X009930Y005139D01*
X009914Y005121D01*
X009902Y005100D01*
X009893Y005078D01*
X009887Y005054D01*
X009885Y005030D01*
X009887Y005006D01*
X009893Y004982D01*
X009902Y004960D01*
X009914Y004939D01*
X009930Y004921D01*
X009949Y004905D01*
X009969Y004892D01*
X009992Y004883D01*
X010015Y004877D01*
X010040Y004875D01*
X010040Y004876D01*
X010015Y004878D01*
X009992Y004884D01*
X009970Y004893D01*
X009949Y004906D01*
X009931Y004921D01*
X009915Y004940D01*
X009903Y004960D01*
X009894Y004983D01*
X009888Y005006D01*
X009886Y005030D01*
X009888Y005054D01*
X009894Y005077D01*
X009903Y005100D01*
X009915Y005120D01*
X009931Y005139D01*
X009949Y005154D01*
X009970Y005167D01*
X009992Y005176D01*
X010015Y005182D01*
X010040Y005184D01*
X010040Y005183D01*
X010016Y005181D01*
X009992Y005175D01*
X009970Y005166D01*
X009950Y005154D01*
X009932Y005138D01*
X009916Y005120D01*
X009904Y005099D01*
X009894Y005077D01*
X009889Y005054D01*
X009887Y005030D01*
X009889Y005006D01*
X009894Y004983D01*
X009904Y004961D01*
X009916Y004940D01*
X009932Y004922D01*
X009950Y004906D01*
X009970Y004894D01*
X009992Y004885D01*
X010016Y004879D01*
X010040Y004877D01*
X010040Y004878D01*
X010016Y004880D01*
X009993Y004886D01*
X009971Y004895D01*
X009950Y004907D01*
X009932Y004923D01*
X009917Y004941D01*
X009904Y004961D01*
X009895Y004983D01*
X009890Y005006D01*
X009888Y005030D01*
X009890Y005054D01*
X009895Y005077D01*
X009904Y005099D01*
X009917Y005119D01*
X009932Y005137D01*
X009950Y005153D01*
X009971Y005165D01*
X009993Y005174D01*
X010016Y005180D01*
X010040Y005182D01*
X010040Y005181D01*
X010016Y005179D01*
X009993Y005173D01*
X009971Y005164D01*
X009951Y005152D01*
X009933Y005137D01*
X009918Y005119D01*
X009905Y005098D01*
X009896Y005077D01*
X009891Y005054D01*
X009889Y005030D01*
X009891Y005006D01*
X009896Y004983D01*
X009905Y004962D01*
X009918Y004941D01*
X009933Y004923D01*
X009951Y004908D01*
X009971Y004896D01*
X009993Y004887D01*
X010016Y004881D01*
X010040Y004879D01*
X010040Y004880D01*
X010016Y004882D01*
X009993Y004887D01*
X009972Y004897D01*
X009952Y004909D01*
X009934Y004924D01*
X009919Y004942D01*
X009906Y004962D01*
X009897Y004984D01*
X009892Y005007D01*
X009890Y005030D01*
X009892Y005053D01*
X009897Y005076D01*
X009906Y005098D01*
X009919Y005118D01*
X009934Y005136D01*
X009952Y005151D01*
X009972Y005163D01*
X009993Y005173D01*
X010016Y005178D01*
X010040Y005180D01*
X010040Y005179D01*
X010016Y005177D01*
X009994Y005172D01*
X009972Y005163D01*
X009952Y005150D01*
X009934Y005135D01*
X009919Y005117D01*
X009907Y005098D01*
X009898Y005076D01*
X009893Y005053D01*
X009891Y005030D01*
X009893Y005007D01*
X009898Y004984D01*
X009907Y004962D01*
X009919Y004943D01*
X009934Y004925D01*
X009952Y004910D01*
X009972Y004897D01*
X009994Y004888D01*
X010016Y004883D01*
X010040Y004881D01*
X010040Y004882D01*
X010016Y004884D01*
X009994Y004889D01*
X009972Y004898D01*
X009953Y004910D01*
X009935Y004926D01*
X009920Y004943D01*
X009908Y004963D01*
X009899Y004984D01*
X009894Y005007D01*
X009892Y005030D01*
X009894Y005053D01*
X009899Y005076D01*
X009908Y005097D01*
X009920Y005117D01*
X009935Y005134D01*
X009953Y005150D01*
X009972Y005162D01*
X009994Y005171D01*
X010016Y005176D01*
X010040Y005178D01*
X010040Y005177D01*
X010017Y005175D01*
X009994Y005170D01*
X009973Y005161D01*
X009953Y005149D01*
X009936Y005134D01*
X009921Y005116D01*
X009909Y005097D01*
X009900Y005075D01*
X009895Y005053D01*
X009893Y005030D01*
X009895Y005007D01*
X009900Y004985D01*
X009909Y004963D01*
X009921Y004944D01*
X009936Y004926D01*
X009953Y004911D01*
X009973Y004899D01*
X009994Y004890D01*
X010017Y004885D01*
X010040Y004883D01*
X010040Y004884D01*
X010017Y004886D01*
X009995Y004891D01*
X009973Y004900D01*
X009954Y004912D01*
X009937Y004927D01*
X009922Y004944D01*
X009910Y004964D01*
X009901Y004985D01*
X009896Y005007D01*
X009894Y005030D01*
X009896Y005053D01*
X009901Y005075D01*
X009910Y005096D01*
X009922Y005116D01*
X009937Y005133D01*
X009954Y005148D01*
X009973Y005160D01*
X009995Y005169D01*
X010017Y005174D01*
X010040Y005176D01*
X010040Y005175D01*
X010016Y005173D01*
X009993Y005167D01*
X009971Y005157D01*
X009951Y005144D01*
X009933Y005128D01*
X009919Y005109D01*
X009907Y005088D01*
X009899Y005066D01*
X009895Y005042D01*
X009895Y005018D01*
X009899Y004994D01*
X009907Y004972D01*
X009919Y004951D01*
X009933Y004932D01*
X009951Y004916D01*
X009971Y004903D01*
X009993Y004893D01*
X010016Y004887D01*
X010040Y004885D01*
X010040Y004886D01*
X010016Y004888D01*
X009993Y004894D01*
X009971Y004904D01*
X009951Y004917D01*
X009934Y004933D01*
X009919Y004951D01*
X009908Y004972D01*
X009900Y004995D01*
X009896Y005018D01*
X009896Y005042D01*
X009900Y005065D01*
X009908Y005088D01*
X009919Y005109D01*
X009934Y005127D01*
X009951Y005143D01*
X009971Y005156D01*
X009993Y005166D01*
X010016Y005172D01*
X010040Y005174D01*
X010040Y005173D01*
X010016Y005171D01*
X009993Y005165D01*
X009972Y005156D01*
X009952Y005143D01*
X009935Y005127D01*
X009920Y005108D01*
X009909Y005087D01*
X009901Y005065D01*
X009897Y005042D01*
X009897Y005018D01*
X009901Y004995D01*
X009909Y004973D01*
X009920Y004952D01*
X009935Y004933D01*
X009952Y004917D01*
X009972Y004904D01*
X009993Y004895D01*
X010016Y004889D01*
X010040Y004887D01*
X010040Y004888D01*
X010016Y004890D01*
X009994Y004896D01*
X009972Y004905D01*
X009953Y004918D01*
X009935Y004934D01*
X009921Y004952D01*
X009910Y004973D01*
X009902Y004995D01*
X009898Y005018D01*
X009898Y005042D01*
X009902Y005065D01*
X009910Y005087D01*
X009921Y005108D01*
X009935Y005126D01*
X009953Y005142D01*
X009972Y005155D01*
X009994Y005164D01*
X010016Y005170D01*
X010040Y005172D01*
X010040Y005171D01*
X010016Y005169D01*
X009994Y005163D01*
X009973Y005154D01*
X009953Y005141D01*
X009936Y005125D01*
X009922Y005107D01*
X009911Y005087D01*
X009903Y005065D01*
X009899Y005042D01*
X009899Y005018D01*
X009903Y004995D01*
X009911Y004973D01*
X009922Y004953D01*
X009936Y004935D01*
X009953Y004919D01*
X009973Y004906D01*
X009994Y004897D01*
X010016Y004891D01*
X010040Y004889D01*
X010040Y004890D01*
X010017Y004892D01*
X009994Y004898D01*
X009973Y004907D01*
X009954Y004920D01*
X009937Y004935D01*
X009923Y004954D01*
X009912Y004974D01*
X009904Y004996D01*
X009900Y005018D01*
X009900Y005042D01*
X009904Y005064D01*
X009912Y005086D01*
X009923Y005106D01*
X009937Y005125D01*
X009954Y005140D01*
X009973Y005153D01*
X009994Y005162D01*
X010017Y005168D01*
X010040Y005170D01*
X010040Y005169D01*
X010017Y005167D01*
X009994Y005161D01*
X009974Y005152D01*
X009954Y005140D01*
X009938Y005124D01*
X009924Y005106D01*
X009913Y005086D01*
X009905Y005064D01*
X009901Y005041D01*
X009901Y005019D01*
X009905Y004996D01*
X009913Y004974D01*
X009924Y004954D01*
X009938Y004936D01*
X009954Y004920D01*
X009974Y004908D01*
X009994Y004899D01*
X010017Y004893D01*
X010040Y004891D01*
X010040Y004892D01*
X010017Y004894D01*
X009995Y004900D01*
X009974Y004909D01*
X009955Y004921D01*
X009938Y004937D01*
X009924Y004955D01*
X009914Y004975D01*
X009906Y004996D01*
X009902Y005019D01*
X009902Y005041D01*
X009906Y005064D01*
X009914Y005085D01*
X009924Y005105D01*
X009938Y005123D01*
X009955Y005139D01*
X009974Y005151D01*
X009995Y005160D01*
X010017Y005166D01*
X010040Y005168D01*
X010040Y005167D01*
X010017Y005165D01*
X009995Y005159D01*
X009974Y005150D01*
X009956Y005138D01*
X009939Y005123D01*
X009925Y005105D01*
X009914Y005085D01*
X009907Y005064D01*
X009903Y005041D01*
X009903Y005019D01*
X009907Y004996D01*
X009914Y004975D01*
X009925Y004955D01*
X009939Y004937D01*
X009956Y004922D01*
X009974Y004910D01*
X009995Y004901D01*
X010017Y004895D01*
X010040Y004893D01*
X010040Y004894D01*
X010017Y004896D01*
X009995Y004901D01*
X009975Y004911D01*
X009956Y004923D01*
X009940Y004938D01*
X009926Y004956D01*
X009915Y004975D01*
X009908Y004997D01*
X009904Y005019D01*
X009904Y005041D01*
X009908Y005063D01*
X009915Y005085D01*
X009926Y005104D01*
X009940Y005122D01*
X009956Y005137D01*
X009975Y005149D01*
X009995Y005159D01*
X010017Y005164D01*
X010040Y005166D01*
X010040Y005165D01*
X010017Y005163D01*
X009996Y005158D01*
X009975Y005149D01*
X009957Y005136D01*
X009941Y005121D01*
X009927Y005104D01*
X009916Y005084D01*
X009909Y005063D01*
X009905Y005041D01*
X009905Y005019D01*
X009909Y004997D01*
X009916Y004976D01*
X009927Y004956D01*
X009941Y004939D01*
X009957Y004924D01*
X009975Y004911D01*
X009996Y004902D01*
X010017Y004897D01*
X010040Y004895D01*
X010040Y004896D01*
X010018Y004898D01*
X009996Y004903D01*
X009976Y004912D01*
X009957Y004924D01*
X009941Y004939D01*
X009928Y004957D01*
X009917Y004976D01*
X009910Y004997D01*
X009906Y005019D01*
X009906Y005041D01*
X009910Y005063D01*
X009917Y005084D01*
X009928Y005103D01*
X009941Y005121D01*
X009957Y005136D01*
X009976Y005148D01*
X009996Y005157D01*
X010018Y005162D01*
X010040Y005164D01*
X010040Y005163D01*
X010018Y005161D01*
X009996Y005156D01*
X009976Y005147D01*
X009958Y005135D01*
X009942Y005120D01*
X009929Y005103D01*
X009918Y005083D01*
X009911Y005063D01*
X009907Y005041D01*
X009907Y005019D01*
X009911Y004997D01*
X009918Y004977D01*
X009929Y004957D01*
X009942Y004940D01*
X009958Y004925D01*
X009976Y004913D01*
X009996Y004904D01*
X010018Y004899D01*
X010040Y004897D01*
X010040Y004898D01*
X010018Y004900D01*
X009997Y004905D01*
X009977Y004914D01*
X009959Y004926D01*
X009943Y004941D01*
X009929Y004958D01*
X009919Y004977D01*
X009912Y004998D01*
X009908Y005019D01*
X009908Y005041D01*
X009912Y005062D01*
X009919Y005083D01*
X009929Y005102D01*
X009943Y005119D01*
X009959Y005134D01*
X009977Y005146D01*
X009997Y005155D01*
X010018Y005160D01*
X010040Y005162D01*
X010040Y005161D01*
X010018Y005159D01*
X009997Y005154D01*
X009977Y005145D01*
X009959Y005133D01*
X009943Y005119D01*
X009930Y005101D01*
X009920Y005083D01*
X009913Y005062D01*
X009909Y005041D01*
X009909Y005019D01*
X009913Y004998D01*
X009920Y004977D01*
X009930Y004959D01*
X009943Y004941D01*
X009959Y004927D01*
X009977Y004915D01*
X009997Y004906D01*
X010018Y004901D01*
X010040Y004899D01*
X010040Y004900D01*
X010017Y004902D01*
X009995Y004908D01*
X009975Y004918D01*
X009956Y004931D01*
X009940Y004947D01*
X009927Y004965D01*
X009918Y004986D01*
X009912Y005007D01*
X009910Y005030D01*
X009912Y005053D01*
X009918Y005074D01*
X009927Y005095D01*
X009940Y005113D01*
X009956Y005129D01*
X009975Y005142D01*
X009995Y005152D01*
X010017Y005158D01*
X010040Y005160D01*
X010040Y005159D01*
X010017Y005157D01*
X009996Y005151D01*
X009975Y005142D01*
X009957Y005129D01*
X009941Y005113D01*
X009928Y005094D01*
X009919Y005074D01*
X009913Y005052D01*
X009911Y005030D01*
X009913Y005008D01*
X009919Y004986D01*
X009928Y004966D01*
X009941Y004947D01*
X009957Y004931D01*
X009975Y004918D01*
X009996Y004909D01*
X010017Y004903D01*
X010040Y004901D01*
X010040Y004902D01*
X010017Y004904D01*
X009996Y004910D01*
X009976Y004919D01*
X009958Y004932D01*
X009942Y004948D01*
X009929Y004966D01*
X009920Y004986D01*
X009914Y005008D01*
X009912Y005030D01*
X009914Y005052D01*
X009920Y005074D01*
X009929Y005094D01*
X009942Y005112D01*
X009958Y005128D01*
X009976Y005141D01*
X009996Y005150D01*
X010017Y005156D01*
X010040Y005158D01*
X010040Y005157D01*
X010018Y005155D01*
X009996Y005149D01*
X009976Y005140D01*
X009958Y005127D01*
X009943Y005111D01*
X009930Y005093D01*
X009921Y005073D01*
X009915Y005052D01*
X009913Y005030D01*
X009915Y005008D01*
X009921Y004987D01*
X009930Y004967D01*
X009943Y004949D01*
X009958Y004933D01*
X009976Y004920D01*
X009996Y004911D01*
X010018Y004905D01*
X010040Y004903D01*
X010040Y004904D01*
X010018Y004906D01*
X009997Y004912D01*
X009977Y004921D01*
X009959Y004934D01*
X009943Y004949D01*
X009931Y004967D01*
X009922Y004987D01*
X009916Y005008D01*
X009914Y005030D01*
X009916Y005052D01*
X009922Y005073D01*
X009931Y005093D01*
X009943Y005111D01*
X009959Y005126D01*
X009977Y005139D01*
X009997Y005148D01*
X010018Y005154D01*
X010040Y005156D01*
X010040Y005155D01*
X010018Y005153D01*
X009997Y005147D01*
X009977Y005138D01*
X009959Y005126D01*
X009944Y005110D01*
X009932Y005092D01*
X009923Y005073D01*
X009917Y005052D01*
X009915Y005030D01*
X009917Y005008D01*
X009923Y004987D01*
X009932Y004968D01*
X009944Y004950D01*
X009959Y004934D01*
X009977Y004922D01*
X009997Y004913D01*
X010018Y004907D01*
X010040Y004905D01*
X010040Y004906D01*
X010018Y004908D01*
X009997Y004914D01*
X009978Y004923D01*
X009960Y004935D01*
X009945Y004950D01*
X009933Y004968D01*
X009923Y004988D01*
X009918Y005009D01*
X009916Y005030D01*
X009918Y005051D01*
X009923Y005072D01*
X009933Y005092D01*
X009945Y005110D01*
X009960Y005125D01*
X009978Y005137D01*
X009997Y005146D01*
X010018Y005152D01*
X010040Y005154D01*
X010040Y005153D01*
X010018Y005151D01*
X009998Y005145D01*
X009978Y005136D01*
X009961Y005124D01*
X009946Y005109D01*
X009933Y005091D01*
X009924Y005072D01*
X009919Y005051D01*
X009917Y005030D01*
X009919Y005009D01*
X009924Y004988D01*
X009933Y004969D01*
X009946Y004951D01*
X009961Y004936D01*
X009978Y004924D01*
X009998Y004915D01*
X010018Y004909D01*
X010040Y004907D01*
X010040Y004908D01*
X010018Y004910D01*
X009998Y004915D01*
X009979Y004925D01*
X009961Y004937D01*
X009946Y004952D01*
X009934Y004969D01*
X009925Y004988D01*
X009920Y005009D01*
X009918Y005030D01*
X009920Y005051D01*
X009925Y005072D01*
X009934Y005091D01*
X009946Y005108D01*
X009961Y005123D01*
X009979Y005135D01*
X009998Y005145D01*
X010018Y005150D01*
X010040Y005152D01*
X010040Y005151D01*
X010019Y005149D01*
X009998Y005144D01*
X009979Y005135D01*
X009962Y005123D01*
X009947Y005108D01*
X009935Y005090D01*
X009926Y005071D01*
X009921Y005051D01*
X009919Y005030D01*
X009921Y005009D01*
X009926Y004989D01*
X009935Y004970D01*
X009947Y004952D01*
X009962Y004937D01*
X009979Y004925D01*
X009998Y004916D01*
X010019Y004911D01*
X010040Y004909D01*
X010040Y004910D01*
X010019Y004912D01*
X009999Y004917D01*
X009980Y004926D01*
X009963Y004938D01*
X009948Y004953D01*
X009936Y004970D01*
X009927Y004989D01*
X009922Y005009D01*
X009920Y005030D01*
X009922Y005051D01*
X009927Y005071D01*
X009936Y005090D01*
X009948Y005107D01*
X009963Y005122D01*
X009980Y005134D01*
X009999Y005143D01*
X010019Y005148D01*
X010040Y005150D01*
X009253Y004873D02*
X009253Y004912D01*
X009253Y004911D02*
X009274Y004913D01*
X009294Y004918D01*
X009313Y004927D01*
X009330Y004939D01*
X009344Y004954D01*
X009356Y004971D01*
X009365Y004989D01*
X009370Y005009D01*
X009372Y005030D01*
X009370Y005051D01*
X009365Y005071D01*
X009356Y005089D01*
X009344Y005106D01*
X009330Y005121D01*
X009313Y005133D01*
X009294Y005142D01*
X009274Y005147D01*
X009253Y005149D01*
X009253Y005187D01*
X009253Y005188D01*
X009278Y005186D01*
X009302Y005180D01*
X009325Y005171D01*
X009346Y005158D01*
X009365Y005142D01*
X009381Y005123D01*
X009394Y005102D01*
X009403Y005079D01*
X009409Y005055D01*
X009411Y005030D01*
X009409Y005005D01*
X009403Y004981D01*
X009394Y004958D01*
X009381Y004937D01*
X009365Y004918D01*
X009346Y004902D01*
X009325Y004889D01*
X009302Y004880D01*
X009278Y004874D01*
X009253Y004872D01*
X009253Y004873D01*
X009278Y004875D01*
X009302Y004881D01*
X009325Y004890D01*
X009346Y004903D01*
X009364Y004919D01*
X009380Y004938D01*
X009393Y004959D01*
X009402Y004982D01*
X009408Y005005D01*
X009410Y005030D01*
X009408Y005055D01*
X009402Y005078D01*
X009393Y005101D01*
X009380Y005122D01*
X009364Y005141D01*
X009346Y005157D01*
X009325Y005170D01*
X009302Y005179D01*
X009278Y005185D01*
X009253Y005187D01*
X009253Y005186D01*
X009278Y005184D01*
X009302Y005178D01*
X009324Y005169D01*
X009345Y005156D01*
X009363Y005140D01*
X009379Y005122D01*
X009392Y005101D01*
X009401Y005078D01*
X009407Y005054D01*
X009409Y005030D01*
X009407Y005006D01*
X009401Y004982D01*
X009392Y004959D01*
X009379Y004938D01*
X009363Y004920D01*
X009345Y004904D01*
X009324Y004891D01*
X009302Y004882D01*
X009278Y004876D01*
X009253Y004874D01*
X009253Y004875D01*
X009278Y004877D01*
X009301Y004883D01*
X009324Y004892D01*
X009344Y004905D01*
X009363Y004921D01*
X009379Y004939D01*
X009391Y004960D01*
X009400Y004982D01*
X009406Y005006D01*
X009408Y005030D01*
X009406Y005054D01*
X009400Y005078D01*
X009391Y005100D01*
X009379Y005121D01*
X009363Y005139D01*
X009344Y005155D01*
X009324Y005168D01*
X009301Y005177D01*
X009278Y005183D01*
X009253Y005185D01*
X009253Y005184D01*
X009278Y005182D01*
X009301Y005176D01*
X009323Y005167D01*
X009344Y005154D01*
X009362Y005139D01*
X009378Y005120D01*
X009390Y005100D01*
X009399Y005077D01*
X009405Y005054D01*
X009407Y005030D01*
X009405Y005006D01*
X009399Y004983D01*
X009390Y004960D01*
X009378Y004940D01*
X009362Y004921D01*
X009344Y004906D01*
X009323Y004893D01*
X009301Y004884D01*
X009278Y004878D01*
X009253Y004876D01*
X009253Y004877D01*
X009277Y004879D01*
X009301Y004885D01*
X009323Y004894D01*
X009343Y004906D01*
X009361Y004922D01*
X009377Y004940D01*
X009389Y004961D01*
X009399Y004983D01*
X009404Y005006D01*
X009406Y005030D01*
X009404Y005054D01*
X009399Y005077D01*
X009389Y005099D01*
X009377Y005120D01*
X009361Y005138D01*
X009343Y005154D01*
X009323Y005166D01*
X009301Y005175D01*
X009277Y005181D01*
X009253Y005183D01*
X009253Y005182D01*
X009277Y005180D01*
X009300Y005174D01*
X009322Y005165D01*
X009343Y005153D01*
X009361Y005137D01*
X009376Y005119D01*
X009389Y005099D01*
X009398Y005077D01*
X009403Y005054D01*
X009405Y005030D01*
X009403Y005006D01*
X009398Y004983D01*
X009389Y004961D01*
X009376Y004941D01*
X009361Y004923D01*
X009343Y004907D01*
X009322Y004895D01*
X009300Y004886D01*
X009277Y004880D01*
X009253Y004878D01*
X009253Y004879D01*
X009277Y004881D01*
X009300Y004887D01*
X009322Y004896D01*
X009342Y004908D01*
X009360Y004923D01*
X009375Y004941D01*
X009388Y004962D01*
X009397Y004983D01*
X009402Y005006D01*
X009404Y005030D01*
X009402Y005054D01*
X009397Y005077D01*
X009388Y005098D01*
X009375Y005119D01*
X009360Y005137D01*
X009342Y005152D01*
X009322Y005164D01*
X009300Y005173D01*
X009277Y005179D01*
X009253Y005181D01*
X009253Y005180D01*
X009277Y005178D01*
X009300Y005173D01*
X009321Y005163D01*
X009341Y005151D01*
X009359Y005136D01*
X009374Y005118D01*
X009387Y005098D01*
X009396Y005076D01*
X009401Y005053D01*
X009403Y005030D01*
X009401Y005007D01*
X009396Y004984D01*
X009387Y004962D01*
X009374Y004942D01*
X009359Y004924D01*
X009341Y004909D01*
X009321Y004897D01*
X009300Y004887D01*
X009277Y004882D01*
X009253Y004880D01*
X009253Y004881D01*
X009277Y004883D01*
X009299Y004888D01*
X009321Y004897D01*
X009341Y004910D01*
X009359Y004925D01*
X009374Y004943D01*
X009386Y004962D01*
X009395Y004984D01*
X009400Y005007D01*
X009402Y005030D01*
X009400Y005053D01*
X009395Y005076D01*
X009386Y005098D01*
X009374Y005117D01*
X009359Y005135D01*
X009341Y005150D01*
X009321Y005163D01*
X009299Y005172D01*
X009277Y005177D01*
X009253Y005179D01*
X009253Y005178D01*
X009277Y005176D01*
X009299Y005171D01*
X009321Y005162D01*
X009340Y005150D01*
X009358Y005134D01*
X009373Y005117D01*
X009385Y005097D01*
X009394Y005076D01*
X009399Y005053D01*
X009401Y005030D01*
X009399Y005007D01*
X009394Y004984D01*
X009385Y004963D01*
X009373Y004943D01*
X009358Y004926D01*
X009340Y004910D01*
X009321Y004898D01*
X009299Y004889D01*
X009277Y004884D01*
X009253Y004882D01*
X009253Y004883D01*
X009276Y004885D01*
X009299Y004890D01*
X009320Y004899D01*
X009340Y004911D01*
X009357Y004926D01*
X009372Y004944D01*
X009384Y004963D01*
X009393Y004985D01*
X009398Y005007D01*
X009400Y005030D01*
X009398Y005053D01*
X009393Y005075D01*
X009384Y005097D01*
X009372Y005116D01*
X009357Y005134D01*
X009340Y005149D01*
X009320Y005161D01*
X009299Y005170D01*
X009276Y005175D01*
X009253Y005177D01*
X009253Y005176D01*
X009276Y005174D01*
X009298Y005169D01*
X009320Y005160D01*
X009339Y005148D01*
X009356Y005133D01*
X009371Y005116D01*
X009383Y005096D01*
X009392Y005075D01*
X009397Y005053D01*
X009399Y005030D01*
X009397Y005007D01*
X009392Y004985D01*
X009383Y004964D01*
X009371Y004944D01*
X009356Y004927D01*
X009339Y004912D01*
X009320Y004900D01*
X009298Y004891D01*
X009276Y004886D01*
X009253Y004884D01*
X009253Y004885D01*
X009277Y004887D01*
X009300Y004893D01*
X009322Y004903D01*
X009342Y004916D01*
X009360Y004932D01*
X009374Y004951D01*
X009386Y004972D01*
X009394Y004994D01*
X009398Y005018D01*
X009398Y005042D01*
X009394Y005066D01*
X009386Y005088D01*
X009374Y005109D01*
X009360Y005128D01*
X009342Y005144D01*
X009322Y005157D01*
X009300Y005167D01*
X009277Y005173D01*
X009253Y005175D01*
X009253Y005174D01*
X009277Y005172D01*
X009300Y005166D01*
X009322Y005156D01*
X009342Y005143D01*
X009359Y005127D01*
X009374Y005109D01*
X009385Y005088D01*
X009393Y005065D01*
X009397Y005042D01*
X009397Y005018D01*
X009393Y004995D01*
X009385Y004972D01*
X009374Y004951D01*
X009359Y004933D01*
X009342Y004917D01*
X009322Y004904D01*
X009300Y004894D01*
X009277Y004888D01*
X009253Y004886D01*
X009253Y004887D01*
X009277Y004889D01*
X009300Y004895D01*
X009321Y004904D01*
X009341Y004917D01*
X009358Y004933D01*
X009373Y004952D01*
X009384Y004973D01*
X009392Y004995D01*
X009396Y005018D01*
X009396Y005042D01*
X009392Y005065D01*
X009384Y005087D01*
X009373Y005108D01*
X009358Y005127D01*
X009341Y005143D01*
X009321Y005156D01*
X009300Y005165D01*
X009277Y005171D01*
X009253Y005173D01*
X009253Y005172D01*
X009277Y005170D01*
X009299Y005164D01*
X009321Y005155D01*
X009340Y005142D01*
X009358Y005126D01*
X009372Y005108D01*
X009383Y005087D01*
X009391Y005065D01*
X009395Y005042D01*
X009395Y005018D01*
X009391Y004995D01*
X009383Y004973D01*
X009372Y004952D01*
X009358Y004934D01*
X009340Y004918D01*
X009321Y004905D01*
X009299Y004896D01*
X009277Y004890D01*
X009253Y004888D01*
X009253Y004889D01*
X009277Y004891D01*
X009299Y004897D01*
X009320Y004906D01*
X009340Y004919D01*
X009357Y004935D01*
X009371Y004953D01*
X009382Y004973D01*
X009390Y004995D01*
X009394Y005018D01*
X009394Y005042D01*
X009390Y005065D01*
X009382Y005087D01*
X009371Y005107D01*
X009357Y005125D01*
X009340Y005141D01*
X009320Y005154D01*
X009299Y005163D01*
X009277Y005169D01*
X009253Y005171D01*
X009253Y005170D01*
X009276Y005168D01*
X009299Y005162D01*
X009320Y005153D01*
X009339Y005140D01*
X009356Y005125D01*
X009370Y005106D01*
X009381Y005086D01*
X009389Y005064D01*
X009393Y005042D01*
X009393Y005018D01*
X009389Y004996D01*
X009381Y004974D01*
X009370Y004954D01*
X009356Y004935D01*
X009339Y004920D01*
X009320Y004907D01*
X009299Y004898D01*
X009276Y004892D01*
X009253Y004890D01*
X009253Y004891D01*
X009276Y004893D01*
X009299Y004899D01*
X009319Y004908D01*
X009339Y004920D01*
X009355Y004936D01*
X009369Y004954D01*
X009380Y004974D01*
X009388Y004996D01*
X009392Y005019D01*
X009392Y005041D01*
X009388Y005064D01*
X009380Y005086D01*
X009369Y005106D01*
X009355Y005124D01*
X009339Y005140D01*
X009319Y005152D01*
X009299Y005161D01*
X009276Y005167D01*
X009253Y005169D01*
X009253Y005168D01*
X009276Y005166D01*
X009298Y005160D01*
X009319Y005151D01*
X009338Y005139D01*
X009355Y005123D01*
X009369Y005105D01*
X009379Y005085D01*
X009387Y005064D01*
X009391Y005041D01*
X009391Y005019D01*
X009387Y004996D01*
X009379Y004975D01*
X009369Y004955D01*
X009355Y004937D01*
X009338Y004921D01*
X009319Y004909D01*
X009298Y004900D01*
X009276Y004894D01*
X009253Y004892D01*
X009253Y004893D01*
X009276Y004895D01*
X009298Y004901D01*
X009319Y004910D01*
X009337Y004922D01*
X009354Y004937D01*
X009368Y004955D01*
X009379Y004975D01*
X009386Y004996D01*
X009390Y005019D01*
X009390Y005041D01*
X009386Y005064D01*
X009379Y005085D01*
X009368Y005105D01*
X009354Y005123D01*
X009337Y005138D01*
X009319Y005150D01*
X009298Y005159D01*
X009276Y005165D01*
X009253Y005167D01*
X009253Y005166D01*
X009276Y005164D01*
X009298Y005159D01*
X009318Y005149D01*
X009337Y005137D01*
X009353Y005122D01*
X009367Y005104D01*
X009378Y005085D01*
X009385Y005063D01*
X009389Y005041D01*
X009389Y005019D01*
X009385Y004997D01*
X009378Y004975D01*
X009367Y004956D01*
X009353Y004938D01*
X009337Y004923D01*
X009318Y004911D01*
X009298Y004901D01*
X009276Y004896D01*
X009253Y004894D01*
X009253Y004895D01*
X009276Y004897D01*
X009297Y004902D01*
X009318Y004911D01*
X009336Y004924D01*
X009352Y004939D01*
X009366Y004956D01*
X009377Y004976D01*
X009384Y004997D01*
X009388Y005019D01*
X009388Y005041D01*
X009384Y005063D01*
X009377Y005084D01*
X009366Y005104D01*
X009352Y005121D01*
X009336Y005136D01*
X009318Y005149D01*
X009297Y005158D01*
X009276Y005163D01*
X009253Y005165D01*
X009253Y005164D01*
X009275Y005162D01*
X009297Y005157D01*
X009317Y005148D01*
X009336Y005136D01*
X009352Y005121D01*
X009365Y005103D01*
X009376Y005084D01*
X009383Y005063D01*
X009387Y005041D01*
X009387Y005019D01*
X009383Y004997D01*
X009376Y004976D01*
X009365Y004957D01*
X009352Y004939D01*
X009336Y004924D01*
X009317Y004912D01*
X009297Y004903D01*
X009275Y004898D01*
X009253Y004896D01*
X009253Y004897D01*
X009275Y004899D01*
X009297Y004904D01*
X009317Y004913D01*
X009335Y004925D01*
X009351Y004940D01*
X009364Y004957D01*
X009375Y004977D01*
X009382Y004997D01*
X009386Y005019D01*
X009386Y005041D01*
X009382Y005063D01*
X009375Y005083D01*
X009364Y005103D01*
X009351Y005120D01*
X009335Y005135D01*
X009317Y005147D01*
X009297Y005156D01*
X009275Y005161D01*
X009253Y005163D01*
X009253Y005162D01*
X009275Y005160D01*
X009296Y005155D01*
X009316Y005146D01*
X009334Y005134D01*
X009350Y005119D01*
X009364Y005102D01*
X009374Y005083D01*
X009381Y005062D01*
X009385Y005041D01*
X009385Y005019D01*
X009381Y004998D01*
X009374Y004977D01*
X009364Y004958D01*
X009350Y004941D01*
X009334Y004926D01*
X009316Y004914D01*
X009296Y004905D01*
X009275Y004900D01*
X009253Y004898D01*
X009253Y004899D01*
X009275Y004901D01*
X009296Y004906D01*
X009316Y004915D01*
X009334Y004927D01*
X009350Y004941D01*
X009363Y004959D01*
X009373Y004977D01*
X009380Y004998D01*
X009384Y005019D01*
X009384Y005041D01*
X009380Y005062D01*
X009373Y005083D01*
X009363Y005101D01*
X009350Y005119D01*
X009334Y005133D01*
X009316Y005145D01*
X009296Y005154D01*
X009275Y005159D01*
X009253Y005161D01*
X009253Y005160D01*
X009276Y005158D01*
X009298Y005152D01*
X009318Y005142D01*
X009337Y005129D01*
X009353Y005113D01*
X009366Y005095D01*
X009375Y005074D01*
X009381Y005053D01*
X009383Y005030D01*
X009381Y005007D01*
X009375Y004986D01*
X009366Y004965D01*
X009353Y004947D01*
X009337Y004931D01*
X009318Y004918D01*
X009298Y004908D01*
X009276Y004902D01*
X009253Y004900D01*
X009253Y004901D01*
X009276Y004903D01*
X009297Y004909D01*
X009318Y004918D01*
X009336Y004931D01*
X009352Y004947D01*
X009365Y004966D01*
X009374Y004986D01*
X009380Y005008D01*
X009382Y005030D01*
X009380Y005052D01*
X009374Y005074D01*
X009365Y005094D01*
X009352Y005113D01*
X009336Y005129D01*
X009318Y005142D01*
X009297Y005151D01*
X009276Y005157D01*
X009253Y005159D01*
X009253Y005158D01*
X009276Y005156D01*
X009297Y005150D01*
X009317Y005141D01*
X009335Y005128D01*
X009351Y005112D01*
X009364Y005094D01*
X009373Y005074D01*
X009379Y005052D01*
X009381Y005030D01*
X009379Y005008D01*
X009373Y004986D01*
X009364Y004966D01*
X009351Y004948D01*
X009335Y004932D01*
X009317Y004919D01*
X009297Y004910D01*
X009276Y004904D01*
X009253Y004902D01*
X009253Y004903D01*
X009275Y004905D01*
X009297Y004911D01*
X009317Y004920D01*
X009335Y004933D01*
X009350Y004949D01*
X009363Y004967D01*
X009372Y004987D01*
X009378Y005008D01*
X009380Y005030D01*
X009378Y005052D01*
X009372Y005073D01*
X009363Y005093D01*
X009350Y005111D01*
X009335Y005127D01*
X009317Y005140D01*
X009297Y005149D01*
X009275Y005155D01*
X009253Y005157D01*
X009253Y005156D01*
X009275Y005154D01*
X009296Y005148D01*
X009316Y005139D01*
X009334Y005126D01*
X009350Y005111D01*
X009362Y005093D01*
X009371Y005073D01*
X009377Y005052D01*
X009379Y005030D01*
X009377Y005008D01*
X009371Y004987D01*
X009362Y004967D01*
X009350Y004949D01*
X009334Y004934D01*
X009316Y004921D01*
X009296Y004912D01*
X009275Y004906D01*
X009253Y004904D01*
X009253Y004905D01*
X009275Y004907D01*
X009296Y004913D01*
X009316Y004922D01*
X009334Y004934D01*
X009349Y004950D01*
X009361Y004968D01*
X009370Y004987D01*
X009376Y005008D01*
X009378Y005030D01*
X009376Y005052D01*
X009370Y005073D01*
X009361Y005092D01*
X009349Y005110D01*
X009334Y005126D01*
X009316Y005138D01*
X009296Y005147D01*
X009275Y005153D01*
X009253Y005155D01*
X009253Y005154D01*
X009275Y005152D01*
X009296Y005146D01*
X009315Y005137D01*
X009333Y005125D01*
X009348Y005110D01*
X009360Y005092D01*
X009370Y005072D01*
X009375Y005051D01*
X009377Y005030D01*
X009375Y005009D01*
X009370Y004988D01*
X009360Y004968D01*
X009348Y004950D01*
X009333Y004935D01*
X009315Y004923D01*
X009296Y004914D01*
X009275Y004908D01*
X009253Y004906D01*
X009253Y004907D01*
X009275Y004909D01*
X009295Y004915D01*
X009315Y004924D01*
X009332Y004936D01*
X009347Y004951D01*
X009360Y004969D01*
X009369Y004988D01*
X009374Y005009D01*
X009376Y005030D01*
X009374Y005051D01*
X009369Y005072D01*
X009360Y005091D01*
X009347Y005109D01*
X009332Y005124D01*
X009315Y005136D01*
X009295Y005145D01*
X009275Y005151D01*
X009253Y005153D01*
X009253Y005152D01*
X009275Y005150D01*
X009295Y005145D01*
X009314Y005135D01*
X009332Y005123D01*
X009347Y005108D01*
X009359Y005091D01*
X009368Y005072D01*
X009373Y005051D01*
X009375Y005030D01*
X009373Y005009D01*
X009368Y004988D01*
X009359Y004969D01*
X009347Y004952D01*
X009332Y004937D01*
X009314Y004925D01*
X009295Y004915D01*
X009275Y004910D01*
X009253Y004908D01*
X009253Y004909D01*
X009274Y004911D01*
X009295Y004916D01*
X009314Y004925D01*
X009331Y004937D01*
X009346Y004952D01*
X009358Y004970D01*
X009367Y004989D01*
X009372Y005009D01*
X009374Y005030D01*
X009372Y005051D01*
X009367Y005071D01*
X009358Y005090D01*
X009346Y005108D01*
X009331Y005123D01*
X009314Y005135D01*
X009295Y005144D01*
X009274Y005149D01*
X009253Y005151D01*
X009253Y005150D01*
X009274Y005148D01*
X009294Y005143D01*
X009313Y005134D01*
X009330Y005122D01*
X009345Y005107D01*
X009357Y005090D01*
X009366Y005071D01*
X009371Y005051D01*
X009373Y005030D01*
X009371Y005009D01*
X009366Y004989D01*
X009357Y004970D01*
X009345Y004953D01*
X009330Y004938D01*
X009313Y004926D01*
X009294Y004917D01*
X009274Y004912D01*
X009253Y004910D01*
X009253Y002873D02*
X009253Y002912D01*
X009253Y002911D02*
X009274Y002913D01*
X009294Y002918D01*
X009313Y002927D01*
X009330Y002939D01*
X009344Y002954D01*
X009356Y002971D01*
X009365Y002989D01*
X009370Y003009D01*
X009372Y003030D01*
X009370Y003051D01*
X009365Y003071D01*
X009356Y003089D01*
X009344Y003106D01*
X009330Y003121D01*
X009313Y003133D01*
X009294Y003142D01*
X009274Y003147D01*
X009253Y003149D01*
X009253Y003187D01*
X009253Y003188D01*
X009278Y003186D01*
X009302Y003180D01*
X009325Y003171D01*
X009346Y003158D01*
X009365Y003142D01*
X009381Y003123D01*
X009394Y003102D01*
X009403Y003079D01*
X009409Y003055D01*
X009411Y003030D01*
X009409Y003005D01*
X009403Y002981D01*
X009394Y002958D01*
X009381Y002937D01*
X009365Y002918D01*
X009346Y002902D01*
X009325Y002889D01*
X009302Y002880D01*
X009278Y002874D01*
X009253Y002872D01*
X009253Y002873D01*
X009278Y002875D01*
X009302Y002881D01*
X009325Y002890D01*
X009346Y002903D01*
X009364Y002919D01*
X009380Y002938D01*
X009393Y002959D01*
X009402Y002982D01*
X009408Y003005D01*
X009410Y003030D01*
X009408Y003055D01*
X009402Y003078D01*
X009393Y003101D01*
X009380Y003122D01*
X009364Y003141D01*
X009346Y003157D01*
X009325Y003170D01*
X009302Y003179D01*
X009278Y003185D01*
X009253Y003187D01*
X009253Y003186D01*
X009278Y003184D01*
X009302Y003178D01*
X009324Y003169D01*
X009345Y003156D01*
X009363Y003140D01*
X009379Y003122D01*
X009392Y003101D01*
X009401Y003078D01*
X009407Y003054D01*
X009409Y003030D01*
X009407Y003006D01*
X009401Y002982D01*
X009392Y002959D01*
X009379Y002938D01*
X009363Y002920D01*
X009345Y002904D01*
X009324Y002891D01*
X009302Y002882D01*
X009278Y002876D01*
X009253Y002874D01*
X009253Y002875D01*
X009278Y002877D01*
X009301Y002883D01*
X009324Y002892D01*
X009344Y002905D01*
X009363Y002921D01*
X009379Y002939D01*
X009391Y002960D01*
X009400Y002982D01*
X009406Y003006D01*
X009408Y003030D01*
X009406Y003054D01*
X009400Y003078D01*
X009391Y003100D01*
X009379Y003121D01*
X009363Y003139D01*
X009344Y003155D01*
X009324Y003168D01*
X009301Y003177D01*
X009278Y003183D01*
X009253Y003185D01*
X009253Y003184D01*
X009278Y003182D01*
X009301Y003176D01*
X009323Y003167D01*
X009344Y003154D01*
X009362Y003139D01*
X009378Y003120D01*
X009390Y003100D01*
X009399Y003077D01*
X009405Y003054D01*
X009407Y003030D01*
X009405Y003006D01*
X009399Y002983D01*
X009390Y002960D01*
X009378Y002940D01*
X009362Y002921D01*
X009344Y002906D01*
X009323Y002893D01*
X009301Y002884D01*
X009278Y002878D01*
X009253Y002876D01*
X009253Y002877D01*
X009277Y002879D01*
X009301Y002885D01*
X009323Y002894D01*
X009343Y002906D01*
X009361Y002922D01*
X009377Y002940D01*
X009389Y002961D01*
X009399Y002983D01*
X009404Y003006D01*
X009406Y003030D01*
X009404Y003054D01*
X009399Y003077D01*
X009389Y003099D01*
X009377Y003120D01*
X009361Y003138D01*
X009343Y003154D01*
X009323Y003166D01*
X009301Y003175D01*
X009277Y003181D01*
X009253Y003183D01*
X009253Y003182D01*
X009277Y003180D01*
X009300Y003174D01*
X009322Y003165D01*
X009343Y003153D01*
X009361Y003137D01*
X009376Y003119D01*
X009389Y003099D01*
X009398Y003077D01*
X009403Y003054D01*
X009405Y003030D01*
X009403Y003006D01*
X009398Y002983D01*
X009389Y002961D01*
X009376Y002941D01*
X009361Y002923D01*
X009343Y002907D01*
X009322Y002895D01*
X009300Y002886D01*
X009277Y002880D01*
X009253Y002878D01*
X009253Y002879D01*
X009277Y002881D01*
X009300Y002887D01*
X009322Y002896D01*
X009342Y002908D01*
X009360Y002923D01*
X009375Y002941D01*
X009388Y002962D01*
X009397Y002983D01*
X009402Y003006D01*
X009404Y003030D01*
X009402Y003054D01*
X009397Y003077D01*
X009388Y003098D01*
X009375Y003119D01*
X009360Y003137D01*
X009342Y003152D01*
X009322Y003164D01*
X009300Y003173D01*
X009277Y003179D01*
X009253Y003181D01*
X009253Y003180D01*
X009277Y003178D01*
X009300Y003173D01*
X009321Y003163D01*
X009341Y003151D01*
X009359Y003136D01*
X009374Y003118D01*
X009387Y003098D01*
X009396Y003076D01*
X009401Y003053D01*
X009403Y003030D01*
X009401Y003007D01*
X009396Y002984D01*
X009387Y002962D01*
X009374Y002942D01*
X009359Y002924D01*
X009341Y002909D01*
X009321Y002897D01*
X009300Y002887D01*
X009277Y002882D01*
X009253Y002880D01*
X009253Y002881D01*
X009277Y002883D01*
X009299Y002888D01*
X009321Y002897D01*
X009341Y002910D01*
X009359Y002925D01*
X009374Y002943D01*
X009386Y002962D01*
X009395Y002984D01*
X009400Y003007D01*
X009402Y003030D01*
X009400Y003053D01*
X009395Y003076D01*
X009386Y003098D01*
X009374Y003117D01*
X009359Y003135D01*
X009341Y003150D01*
X009321Y003163D01*
X009299Y003172D01*
X009277Y003177D01*
X009253Y003179D01*
X009253Y003178D01*
X009277Y003176D01*
X009299Y003171D01*
X009321Y003162D01*
X009340Y003150D01*
X009358Y003134D01*
X009373Y003117D01*
X009385Y003097D01*
X009394Y003076D01*
X009399Y003053D01*
X009401Y003030D01*
X009399Y003007D01*
X009394Y002984D01*
X009385Y002963D01*
X009373Y002943D01*
X009358Y002926D01*
X009340Y002910D01*
X009321Y002898D01*
X009299Y002889D01*
X009277Y002884D01*
X009253Y002882D01*
X009253Y002883D01*
X009276Y002885D01*
X009299Y002890D01*
X009320Y002899D01*
X009340Y002911D01*
X009357Y002926D01*
X009372Y002944D01*
X009384Y002963D01*
X009393Y002985D01*
X009398Y003007D01*
X009400Y003030D01*
X009398Y003053D01*
X009393Y003075D01*
X009384Y003097D01*
X009372Y003116D01*
X009357Y003134D01*
X009340Y003149D01*
X009320Y003161D01*
X009299Y003170D01*
X009276Y003175D01*
X009253Y003177D01*
X009253Y003176D01*
X009276Y003174D01*
X009298Y003169D01*
X009320Y003160D01*
X009339Y003148D01*
X009356Y003133D01*
X009371Y003116D01*
X009383Y003096D01*
X009392Y003075D01*
X009397Y003053D01*
X009399Y003030D01*
X009397Y003007D01*
X009392Y002985D01*
X009383Y002964D01*
X009371Y002944D01*
X009356Y002927D01*
X009339Y002912D01*
X009320Y002900D01*
X009298Y002891D01*
X009276Y002886D01*
X009253Y002884D01*
X009253Y002885D01*
X009277Y002887D01*
X009300Y002893D01*
X009322Y002903D01*
X009342Y002916D01*
X009360Y002932D01*
X009374Y002951D01*
X009386Y002972D01*
X009394Y002994D01*
X009398Y003018D01*
X009398Y003042D01*
X009394Y003066D01*
X009386Y003088D01*
X009374Y003109D01*
X009360Y003128D01*
X009342Y003144D01*
X009322Y003157D01*
X009300Y003167D01*
X009277Y003173D01*
X009253Y003175D01*
X009253Y003174D01*
X009277Y003172D01*
X009300Y003166D01*
X009322Y003156D01*
X009342Y003143D01*
X009359Y003127D01*
X009374Y003109D01*
X009385Y003088D01*
X009393Y003065D01*
X009397Y003042D01*
X009397Y003018D01*
X009393Y002995D01*
X009385Y002972D01*
X009374Y002951D01*
X009359Y002933D01*
X009342Y002917D01*
X009322Y002904D01*
X009300Y002894D01*
X009277Y002888D01*
X009253Y002886D01*
X009253Y002887D01*
X009277Y002889D01*
X009300Y002895D01*
X009321Y002904D01*
X009341Y002917D01*
X009358Y002933D01*
X009373Y002952D01*
X009384Y002973D01*
X009392Y002995D01*
X009396Y003018D01*
X009396Y003042D01*
X009392Y003065D01*
X009384Y003087D01*
X009373Y003108D01*
X009358Y003127D01*
X009341Y003143D01*
X009321Y003156D01*
X009300Y003165D01*
X009277Y003171D01*
X009253Y003173D01*
X009253Y003172D01*
X009277Y003170D01*
X009299Y003164D01*
X009321Y003155D01*
X009340Y003142D01*
X009358Y003126D01*
X009372Y003108D01*
X009383Y003087D01*
X009391Y003065D01*
X009395Y003042D01*
X009395Y003018D01*
X009391Y002995D01*
X009383Y002973D01*
X009372Y002952D01*
X009358Y002934D01*
X009340Y002918D01*
X009321Y002905D01*
X009299Y002896D01*
X009277Y002890D01*
X009253Y002888D01*
X009253Y002889D01*
X009277Y002891D01*
X009299Y002897D01*
X009320Y002906D01*
X009340Y002919D01*
X009357Y002935D01*
X009371Y002953D01*
X009382Y002973D01*
X009390Y002995D01*
X009394Y003018D01*
X009394Y003042D01*
X009390Y003065D01*
X009382Y003087D01*
X009371Y003107D01*
X009357Y003125D01*
X009340Y003141D01*
X009320Y003154D01*
X009299Y003163D01*
X009277Y003169D01*
X009253Y003171D01*
X009253Y003170D01*
X009276Y003168D01*
X009299Y003162D01*
X009320Y003153D01*
X009339Y003140D01*
X009356Y003125D01*
X009370Y003106D01*
X009381Y003086D01*
X009389Y003064D01*
X009393Y003042D01*
X009393Y003018D01*
X009389Y002996D01*
X009381Y002974D01*
X009370Y002954D01*
X009356Y002935D01*
X009339Y002920D01*
X009320Y002907D01*
X009299Y002898D01*
X009276Y002892D01*
X009253Y002890D01*
X009253Y002891D01*
X009276Y002893D01*
X009299Y002899D01*
X009319Y002908D01*
X009339Y002920D01*
X009355Y002936D01*
X009369Y002954D01*
X009380Y002974D01*
X009388Y002996D01*
X009392Y003019D01*
X009392Y003041D01*
X009388Y003064D01*
X009380Y003086D01*
X009369Y003106D01*
X009355Y003124D01*
X009339Y003140D01*
X009319Y003152D01*
X009299Y003161D01*
X009276Y003167D01*
X009253Y003169D01*
X009253Y003168D01*
X009276Y003166D01*
X009298Y003160D01*
X009319Y003151D01*
X009338Y003139D01*
X009355Y003123D01*
X009369Y003105D01*
X009379Y003085D01*
X009387Y003064D01*
X009391Y003041D01*
X009391Y003019D01*
X009387Y002996D01*
X009379Y002975D01*
X009369Y002955D01*
X009355Y002937D01*
X009338Y002921D01*
X009319Y002909D01*
X009298Y002900D01*
X009276Y002894D01*
X009253Y002892D01*
X009253Y002893D01*
X009276Y002895D01*
X009298Y002901D01*
X009319Y002910D01*
X009337Y002922D01*
X009354Y002937D01*
X009368Y002955D01*
X009379Y002975D01*
X009386Y002996D01*
X009390Y003019D01*
X009390Y003041D01*
X009386Y003064D01*
X009379Y003085D01*
X009368Y003105D01*
X009354Y003123D01*
X009337Y003138D01*
X009319Y003150D01*
X009298Y003159D01*
X009276Y003165D01*
X009253Y003167D01*
X009253Y003166D01*
X009276Y003164D01*
X009298Y003159D01*
X009318Y003149D01*
X009337Y003137D01*
X009353Y003122D01*
X009367Y003104D01*
X009378Y003085D01*
X009385Y003063D01*
X009389Y003041D01*
X009389Y003019D01*
X009385Y002997D01*
X009378Y002975D01*
X009367Y002956D01*
X009353Y002938D01*
X009337Y002923D01*
X009318Y002911D01*
X009298Y002901D01*
X009276Y002896D01*
X009253Y002894D01*
X009253Y002895D01*
X009276Y002897D01*
X009297Y002902D01*
X009318Y002911D01*
X009336Y002924D01*
X009352Y002939D01*
X009366Y002956D01*
X009377Y002976D01*
X009384Y002997D01*
X009388Y003019D01*
X009388Y003041D01*
X009384Y003063D01*
X009377Y003084D01*
X009366Y003104D01*
X009352Y003121D01*
X009336Y003136D01*
X009318Y003149D01*
X009297Y003158D01*
X009276Y003163D01*
X009253Y003165D01*
X009253Y003164D01*
X009275Y003162D01*
X009297Y003157D01*
X009317Y003148D01*
X009336Y003136D01*
X009352Y003121D01*
X009365Y003103D01*
X009376Y003084D01*
X009383Y003063D01*
X009387Y003041D01*
X009387Y003019D01*
X009383Y002997D01*
X009376Y002976D01*
X009365Y002957D01*
X009352Y002939D01*
X009336Y002924D01*
X009317Y002912D01*
X009297Y002903D01*
X009275Y002898D01*
X009253Y002896D01*
X009253Y002897D01*
X009275Y002899D01*
X009297Y002904D01*
X009317Y002913D01*
X009335Y002925D01*
X009351Y002940D01*
X009364Y002957D01*
X009375Y002977D01*
X009382Y002997D01*
X009386Y003019D01*
X009386Y003041D01*
X009382Y003063D01*
X009375Y003083D01*
X009364Y003103D01*
X009351Y003120D01*
X009335Y003135D01*
X009317Y003147D01*
X009297Y003156D01*
X009275Y003161D01*
X009253Y003163D01*
X009253Y003162D01*
X009275Y003160D01*
X009296Y003155D01*
X009316Y003146D01*
X009334Y003134D01*
X009350Y003119D01*
X009364Y003102D01*
X009374Y003083D01*
X009381Y003062D01*
X009385Y003041D01*
X009385Y003019D01*
X009381Y002998D01*
X009374Y002977D01*
X009364Y002958D01*
X009350Y002941D01*
X009334Y002926D01*
X009316Y002914D01*
X009296Y002905D01*
X009275Y002900D01*
X009253Y002898D01*
X009253Y002899D01*
X009275Y002901D01*
X009296Y002906D01*
X009316Y002915D01*
X009334Y002927D01*
X009350Y002941D01*
X009363Y002959D01*
X009373Y002977D01*
X009380Y002998D01*
X009384Y003019D01*
X009384Y003041D01*
X009380Y003062D01*
X009373Y003083D01*
X009363Y003101D01*
X009350Y003119D01*
X009334Y003133D01*
X009316Y003145D01*
X009296Y003154D01*
X009275Y003159D01*
X009253Y003161D01*
X009253Y003160D01*
X009276Y003158D01*
X009298Y003152D01*
X009318Y003142D01*
X009337Y003129D01*
X009353Y003113D01*
X009366Y003095D01*
X009375Y003074D01*
X009381Y003053D01*
X009383Y003030D01*
X009381Y003007D01*
X009375Y002986D01*
X009366Y002965D01*
X009353Y002947D01*
X009337Y002931D01*
X009318Y002918D01*
X009298Y002908D01*
X009276Y002902D01*
X009253Y002900D01*
X009253Y002901D01*
X009276Y002903D01*
X009297Y002909D01*
X009318Y002918D01*
X009336Y002931D01*
X009352Y002947D01*
X009365Y002966D01*
X009374Y002986D01*
X009380Y003008D01*
X009382Y003030D01*
X009380Y003052D01*
X009374Y003074D01*
X009365Y003094D01*
X009352Y003113D01*
X009336Y003129D01*
X009318Y003142D01*
X009297Y003151D01*
X009276Y003157D01*
X009253Y003159D01*
X009253Y003158D01*
X009276Y003156D01*
X009297Y003150D01*
X009317Y003141D01*
X009335Y003128D01*
X009351Y003112D01*
X009364Y003094D01*
X009373Y003074D01*
X009379Y003052D01*
X009381Y003030D01*
X009379Y003008D01*
X009373Y002986D01*
X009364Y002966D01*
X009351Y002948D01*
X009335Y002932D01*
X009317Y002919D01*
X009297Y002910D01*
X009276Y002904D01*
X009253Y002902D01*
X009253Y002903D01*
X009275Y002905D01*
X009297Y002911D01*
X009317Y002920D01*
X009335Y002933D01*
X009350Y002949D01*
X009363Y002967D01*
X009372Y002987D01*
X009378Y003008D01*
X009380Y003030D01*
X009378Y003052D01*
X009372Y003073D01*
X009363Y003093D01*
X009350Y003111D01*
X009335Y003127D01*
X009317Y003140D01*
X009297Y003149D01*
X009275Y003155D01*
X009253Y003157D01*
X009253Y003156D01*
X009275Y003154D01*
X009296Y003148D01*
X009316Y003139D01*
X009334Y003126D01*
X009350Y003111D01*
X009362Y003093D01*
X009371Y003073D01*
X009377Y003052D01*
X009379Y003030D01*
X009377Y003008D01*
X009371Y002987D01*
X009362Y002967D01*
X009350Y002949D01*
X009334Y002934D01*
X009316Y002921D01*
X009296Y002912D01*
X009275Y002906D01*
X009253Y002904D01*
X009253Y002905D01*
X009275Y002907D01*
X009296Y002913D01*
X009316Y002922D01*
X009334Y002934D01*
X009349Y002950D01*
X009361Y002968D01*
X009370Y002987D01*
X009376Y003008D01*
X009378Y003030D01*
X009376Y003052D01*
X009370Y003073D01*
X009361Y003092D01*
X009349Y003110D01*
X009334Y003126D01*
X009316Y003138D01*
X009296Y003147D01*
X009275Y003153D01*
X009253Y003155D01*
X009253Y003154D01*
X009275Y003152D01*
X009296Y003146D01*
X009315Y003137D01*
X009333Y003125D01*
X009348Y003110D01*
X009360Y003092D01*
X009370Y003072D01*
X009375Y003051D01*
X009377Y003030D01*
X009375Y003009D01*
X009370Y002988D01*
X009360Y002968D01*
X009348Y002950D01*
X009333Y002935D01*
X009315Y002923D01*
X009296Y002914D01*
X009275Y002908D01*
X009253Y002906D01*
X009253Y002907D01*
X009275Y002909D01*
X009295Y002915D01*
X009315Y002924D01*
X009332Y002936D01*
X009347Y002951D01*
X009360Y002969D01*
X009369Y002988D01*
X009374Y003009D01*
X009376Y003030D01*
X009374Y003051D01*
X009369Y003072D01*
X009360Y003091D01*
X009347Y003109D01*
X009332Y003124D01*
X009315Y003136D01*
X009295Y003145D01*
X009275Y003151D01*
X009253Y003153D01*
X009253Y003152D01*
X009275Y003150D01*
X009295Y003145D01*
X009314Y003135D01*
X009332Y003123D01*
X009347Y003108D01*
X009359Y003091D01*
X009368Y003072D01*
X009373Y003051D01*
X009375Y003030D01*
X009373Y003009D01*
X009368Y002988D01*
X009359Y002969D01*
X009347Y002952D01*
X009332Y002937D01*
X009314Y002925D01*
X009295Y002915D01*
X009275Y002910D01*
X009253Y002908D01*
X009253Y002909D01*
X009274Y002911D01*
X009295Y002916D01*
X009314Y002925D01*
X009331Y002937D01*
X009346Y002952D01*
X009358Y002970D01*
X009367Y002989D01*
X009372Y003009D01*
X009374Y003030D01*
X009372Y003051D01*
X009367Y003071D01*
X009358Y003090D01*
X009346Y003108D01*
X009331Y003123D01*
X009314Y003135D01*
X009295Y003144D01*
X009274Y003149D01*
X009253Y003151D01*
X009253Y003150D01*
X009274Y003148D01*
X009294Y003143D01*
X009313Y003134D01*
X009330Y003122D01*
X009345Y003107D01*
X009357Y003090D01*
X009366Y003071D01*
X009371Y003051D01*
X009373Y003030D01*
X009371Y003009D01*
X009366Y002989D01*
X009357Y002970D01*
X009345Y002953D01*
X009330Y002938D01*
X009313Y002926D01*
X009294Y002917D01*
X009274Y002912D01*
X009253Y002910D01*
X010040Y003187D02*
X010040Y003148D01*
X010040Y003149D02*
X010019Y003147D01*
X009999Y003142D01*
X009980Y003133D01*
X009963Y003121D01*
X009949Y003106D01*
X009937Y003089D01*
X009928Y003071D01*
X009923Y003051D01*
X009921Y003030D01*
X009923Y003009D01*
X009928Y002989D01*
X009937Y002971D01*
X009949Y002954D01*
X009963Y002939D01*
X009980Y002927D01*
X009999Y002918D01*
X010019Y002913D01*
X010040Y002911D01*
X010040Y002873D01*
X010040Y002872D01*
X010015Y002874D01*
X009991Y002880D01*
X009968Y002889D01*
X009947Y002902D01*
X009928Y002918D01*
X009912Y002937D01*
X009899Y002958D01*
X009890Y002981D01*
X009884Y003005D01*
X009882Y003030D01*
X009884Y003055D01*
X009890Y003079D01*
X009899Y003102D01*
X009912Y003123D01*
X009928Y003142D01*
X009947Y003158D01*
X009968Y003171D01*
X009991Y003180D01*
X010015Y003186D01*
X010040Y003188D01*
X010040Y003187D01*
X010015Y003185D01*
X009991Y003179D01*
X009968Y003170D01*
X009947Y003157D01*
X009929Y003141D01*
X009913Y003122D01*
X009900Y003101D01*
X009891Y003078D01*
X009885Y003055D01*
X009883Y003030D01*
X009885Y003005D01*
X009891Y002982D01*
X009900Y002959D01*
X009913Y002938D01*
X009929Y002919D01*
X009947Y002903D01*
X009968Y002890D01*
X009991Y002881D01*
X010015Y002875D01*
X010040Y002873D01*
X010040Y002874D01*
X010015Y002876D01*
X009991Y002882D01*
X009969Y002891D01*
X009948Y002904D01*
X009930Y002920D01*
X009914Y002938D01*
X009901Y002959D01*
X009892Y002982D01*
X009886Y003006D01*
X009884Y003030D01*
X009886Y003054D01*
X009892Y003078D01*
X009901Y003101D01*
X009914Y003122D01*
X009930Y003140D01*
X009948Y003156D01*
X009969Y003169D01*
X009991Y003178D01*
X010015Y003184D01*
X010040Y003186D01*
X010040Y003185D01*
X010015Y003183D01*
X009992Y003177D01*
X009969Y003168D01*
X009949Y003155D01*
X009930Y003139D01*
X009914Y003121D01*
X009902Y003100D01*
X009893Y003078D01*
X009887Y003054D01*
X009885Y003030D01*
X009887Y003006D01*
X009893Y002982D01*
X009902Y002960D01*
X009914Y002939D01*
X009930Y002921D01*
X009949Y002905D01*
X009969Y002892D01*
X009992Y002883D01*
X010015Y002877D01*
X010040Y002875D01*
X010040Y002876D01*
X010015Y002878D01*
X009992Y002884D01*
X009970Y002893D01*
X009949Y002906D01*
X009931Y002921D01*
X009915Y002940D01*
X009903Y002960D01*
X009894Y002983D01*
X009888Y003006D01*
X009886Y003030D01*
X009888Y003054D01*
X009894Y003077D01*
X009903Y003100D01*
X009915Y003120D01*
X009931Y003139D01*
X009949Y003154D01*
X009970Y003167D01*
X009992Y003176D01*
X010015Y003182D01*
X010040Y003184D01*
X010040Y003183D01*
X010016Y003181D01*
X009992Y003175D01*
X009970Y003166D01*
X009950Y003154D01*
X009932Y003138D01*
X009916Y003120D01*
X009904Y003099D01*
X009894Y003077D01*
X009889Y003054D01*
X009887Y003030D01*
X009889Y003006D01*
X009894Y002983D01*
X009904Y002961D01*
X009916Y002940D01*
X009932Y002922D01*
X009950Y002906D01*
X009970Y002894D01*
X009992Y002885D01*
X010016Y002879D01*
X010040Y002877D01*
X010040Y002878D01*
X010016Y002880D01*
X009993Y002886D01*
X009971Y002895D01*
X009950Y002907D01*
X009932Y002923D01*
X009917Y002941D01*
X009904Y002961D01*
X009895Y002983D01*
X009890Y003006D01*
X009888Y003030D01*
X009890Y003054D01*
X009895Y003077D01*
X009904Y003099D01*
X009917Y003119D01*
X009932Y003137D01*
X009950Y003153D01*
X009971Y003165D01*
X009993Y003174D01*
X010016Y003180D01*
X010040Y003182D01*
X010040Y003181D01*
X010016Y003179D01*
X009993Y003173D01*
X009971Y003164D01*
X009951Y003152D01*
X009933Y003137D01*
X009918Y003119D01*
X009905Y003098D01*
X009896Y003077D01*
X009891Y003054D01*
X009889Y003030D01*
X009891Y003006D01*
X009896Y002983D01*
X009905Y002962D01*
X009918Y002941D01*
X009933Y002923D01*
X009951Y002908D01*
X009971Y002896D01*
X009993Y002887D01*
X010016Y002881D01*
X010040Y002879D01*
X010040Y002880D01*
X010016Y002882D01*
X009993Y002887D01*
X009972Y002897D01*
X009952Y002909D01*
X009934Y002924D01*
X009919Y002942D01*
X009906Y002962D01*
X009897Y002984D01*
X009892Y003007D01*
X009890Y003030D01*
X009892Y003053D01*
X009897Y003076D01*
X009906Y003098D01*
X009919Y003118D01*
X009934Y003136D01*
X009952Y003151D01*
X009972Y003163D01*
X009993Y003173D01*
X010016Y003178D01*
X010040Y003180D01*
X010040Y003179D01*
X010016Y003177D01*
X009994Y003172D01*
X009972Y003163D01*
X009952Y003150D01*
X009934Y003135D01*
X009919Y003117D01*
X009907Y003098D01*
X009898Y003076D01*
X009893Y003053D01*
X009891Y003030D01*
X009893Y003007D01*
X009898Y002984D01*
X009907Y002962D01*
X009919Y002943D01*
X009934Y002925D01*
X009952Y002910D01*
X009972Y002897D01*
X009994Y002888D01*
X010016Y002883D01*
X010040Y002881D01*
X010040Y002882D01*
X010016Y002884D01*
X009994Y002889D01*
X009972Y002898D01*
X009953Y002910D01*
X009935Y002926D01*
X009920Y002943D01*
X009908Y002963D01*
X009899Y002984D01*
X009894Y003007D01*
X009892Y003030D01*
X009894Y003053D01*
X009899Y003076D01*
X009908Y003097D01*
X009920Y003117D01*
X009935Y003134D01*
X009953Y003150D01*
X009972Y003162D01*
X009994Y003171D01*
X010016Y003176D01*
X010040Y003178D01*
X010040Y003177D01*
X010017Y003175D01*
X009994Y003170D01*
X009973Y003161D01*
X009953Y003149D01*
X009936Y003134D01*
X009921Y003116D01*
X009909Y003097D01*
X009900Y003075D01*
X009895Y003053D01*
X009893Y003030D01*
X009895Y003007D01*
X009900Y002985D01*
X009909Y002963D01*
X009921Y002944D01*
X009936Y002926D01*
X009953Y002911D01*
X009973Y002899D01*
X009994Y002890D01*
X010017Y002885D01*
X010040Y002883D01*
X010040Y002884D01*
X010017Y002886D01*
X009995Y002891D01*
X009973Y002900D01*
X009954Y002912D01*
X009937Y002927D01*
X009922Y002944D01*
X009910Y002964D01*
X009901Y002985D01*
X009896Y003007D01*
X009894Y003030D01*
X009896Y003053D01*
X009901Y003075D01*
X009910Y003096D01*
X009922Y003116D01*
X009937Y003133D01*
X009954Y003148D01*
X009973Y003160D01*
X009995Y003169D01*
X010017Y003174D01*
X010040Y003176D01*
X010040Y003175D01*
X010016Y003173D01*
X009993Y003167D01*
X009971Y003157D01*
X009951Y003144D01*
X009933Y003128D01*
X009919Y003109D01*
X009907Y003088D01*
X009899Y003066D01*
X009895Y003042D01*
X009895Y003018D01*
X009899Y002994D01*
X009907Y002972D01*
X009919Y002951D01*
X009933Y002932D01*
X009951Y002916D01*
X009971Y002903D01*
X009993Y002893D01*
X010016Y002887D01*
X010040Y002885D01*
X010040Y002886D01*
X010016Y002888D01*
X009993Y002894D01*
X009971Y002904D01*
X009951Y002917D01*
X009934Y002933D01*
X009919Y002951D01*
X009908Y002972D01*
X009900Y002995D01*
X009896Y003018D01*
X009896Y003042D01*
X009900Y003065D01*
X009908Y003088D01*
X009919Y003109D01*
X009934Y003127D01*
X009951Y003143D01*
X009971Y003156D01*
X009993Y003166D01*
X010016Y003172D01*
X010040Y003174D01*
X010040Y003173D01*
X010016Y003171D01*
X009993Y003165D01*
X009972Y003156D01*
X009952Y003143D01*
X009935Y003127D01*
X009920Y003108D01*
X009909Y003087D01*
X009901Y003065D01*
X009897Y003042D01*
X009897Y003018D01*
X009901Y002995D01*
X009909Y002973D01*
X009920Y002952D01*
X009935Y002933D01*
X009952Y002917D01*
X009972Y002904D01*
X009993Y002895D01*
X010016Y002889D01*
X010040Y002887D01*
X010040Y002888D01*
X010016Y002890D01*
X009994Y002896D01*
X009972Y002905D01*
X009953Y002918D01*
X009935Y002934D01*
X009921Y002952D01*
X009910Y002973D01*
X009902Y002995D01*
X009898Y003018D01*
X009898Y003042D01*
X009902Y003065D01*
X009910Y003087D01*
X009921Y003108D01*
X009935Y003126D01*
X009953Y003142D01*
X009972Y003155D01*
X009994Y003164D01*
X010016Y003170D01*
X010040Y003172D01*
X010040Y003171D01*
X010016Y003169D01*
X009994Y003163D01*
X009973Y003154D01*
X009953Y003141D01*
X009936Y003125D01*
X009922Y003107D01*
X009911Y003087D01*
X009903Y003065D01*
X009899Y003042D01*
X009899Y003018D01*
X009903Y002995D01*
X009911Y002973D01*
X009922Y002953D01*
X009936Y002935D01*
X009953Y002919D01*
X009973Y002906D01*
X009994Y002897D01*
X010016Y002891D01*
X010040Y002889D01*
X010040Y002890D01*
X010017Y002892D01*
X009994Y002898D01*
X009973Y002907D01*
X009954Y002920D01*
X009937Y002935D01*
X009923Y002954D01*
X009912Y002974D01*
X009904Y002996D01*
X009900Y003018D01*
X009900Y003042D01*
X009904Y003064D01*
X009912Y003086D01*
X009923Y003106D01*
X009937Y003125D01*
X009954Y003140D01*
X009973Y003153D01*
X009994Y003162D01*
X010017Y003168D01*
X010040Y003170D01*
X010040Y003169D01*
X010017Y003167D01*
X009994Y003161D01*
X009974Y003152D01*
X009954Y003140D01*
X009938Y003124D01*
X009924Y003106D01*
X009913Y003086D01*
X009905Y003064D01*
X009901Y003041D01*
X009901Y003019D01*
X009905Y002996D01*
X009913Y002974D01*
X009924Y002954D01*
X009938Y002936D01*
X009954Y002920D01*
X009974Y002908D01*
X009994Y002899D01*
X010017Y002893D01*
X010040Y002891D01*
X010040Y002892D01*
X010017Y002894D01*
X009995Y002900D01*
X009974Y002909D01*
X009955Y002921D01*
X009938Y002937D01*
X009924Y002955D01*
X009914Y002975D01*
X009906Y002996D01*
X009902Y003019D01*
X009902Y003041D01*
X009906Y003064D01*
X009914Y003085D01*
X009924Y003105D01*
X009938Y003123D01*
X009955Y003139D01*
X009974Y003151D01*
X009995Y003160D01*
X010017Y003166D01*
X010040Y003168D01*
X010040Y003167D01*
X010017Y003165D01*
X009995Y003159D01*
X009974Y003150D01*
X009956Y003138D01*
X009939Y003123D01*
X009925Y003105D01*
X009914Y003085D01*
X009907Y003064D01*
X009903Y003041D01*
X009903Y003019D01*
X009907Y002996D01*
X009914Y002975D01*
X009925Y002955D01*
X009939Y002937D01*
X009956Y002922D01*
X009974Y002910D01*
X009995Y002901D01*
X010017Y002895D01*
X010040Y002893D01*
X010040Y002894D01*
X010017Y002896D01*
X009995Y002901D01*
X009975Y002911D01*
X009956Y002923D01*
X009940Y002938D01*
X009926Y002956D01*
X009915Y002975D01*
X009908Y002997D01*
X009904Y003019D01*
X009904Y003041D01*
X009908Y003063D01*
X009915Y003085D01*
X009926Y003104D01*
X009940Y003122D01*
X009956Y003137D01*
X009975Y003149D01*
X009995Y003159D01*
X010017Y003164D01*
X010040Y003166D01*
X010040Y003165D01*
X010017Y003163D01*
X009996Y003158D01*
X009975Y003149D01*
X009957Y003136D01*
X009941Y003121D01*
X009927Y003104D01*
X009916Y003084D01*
X009909Y003063D01*
X009905Y003041D01*
X009905Y003019D01*
X009909Y002997D01*
X009916Y002976D01*
X009927Y002956D01*
X009941Y002939D01*
X009957Y002924D01*
X009975Y002911D01*
X009996Y002902D01*
X010017Y002897D01*
X010040Y002895D01*
X010040Y002896D01*
X010018Y002898D01*
X009996Y002903D01*
X009976Y002912D01*
X009957Y002924D01*
X009941Y002939D01*
X009928Y002957D01*
X009917Y002976D01*
X009910Y002997D01*
X009906Y003019D01*
X009906Y003041D01*
X009910Y003063D01*
X009917Y003084D01*
X009928Y003103D01*
X009941Y003121D01*
X009957Y003136D01*
X009976Y003148D01*
X009996Y003157D01*
X010018Y003162D01*
X010040Y003164D01*
X010040Y003163D01*
X010018Y003161D01*
X009996Y003156D01*
X009976Y003147D01*
X009958Y003135D01*
X009942Y003120D01*
X009929Y003103D01*
X009918Y003083D01*
X009911Y003063D01*
X009907Y003041D01*
X009907Y003019D01*
X009911Y002997D01*
X009918Y002977D01*
X009929Y002957D01*
X009942Y002940D01*
X009958Y002925D01*
X009976Y002913D01*
X009996Y002904D01*
X010018Y002899D01*
X010040Y002897D01*
X010040Y002898D01*
X010018Y002900D01*
X009997Y002905D01*
X009977Y002914D01*
X009959Y002926D01*
X009943Y002941D01*
X009929Y002958D01*
X009919Y002977D01*
X009912Y002998D01*
X009908Y003019D01*
X009908Y003041D01*
X009912Y003062D01*
X009919Y003083D01*
X009929Y003102D01*
X009943Y003119D01*
X009959Y003134D01*
X009977Y003146D01*
X009997Y003155D01*
X010018Y003160D01*
X010040Y003162D01*
X010040Y003161D01*
X010018Y003159D01*
X009997Y003154D01*
X009977Y003145D01*
X009959Y003133D01*
X009943Y003119D01*
X009930Y003101D01*
X009920Y003083D01*
X009913Y003062D01*
X009909Y003041D01*
X009909Y003019D01*
X009913Y002998D01*
X009920Y002977D01*
X009930Y002959D01*
X009943Y002941D01*
X009959Y002927D01*
X009977Y002915D01*
X009997Y002906D01*
X010018Y002901D01*
X010040Y002899D01*
X010040Y002900D01*
X010017Y002902D01*
X009995Y002908D01*
X009975Y002918D01*
X009956Y002931D01*
X009940Y002947D01*
X009927Y002965D01*
X009918Y002986D01*
X009912Y003007D01*
X009910Y003030D01*
X009912Y003053D01*
X009918Y003074D01*
X009927Y003095D01*
X009940Y003113D01*
X009956Y003129D01*
X009975Y003142D01*
X009995Y003152D01*
X010017Y003158D01*
X010040Y003160D01*
X010040Y003159D01*
X010017Y003157D01*
X009996Y003151D01*
X009975Y003142D01*
X009957Y003129D01*
X009941Y003113D01*
X009928Y003094D01*
X009919Y003074D01*
X009913Y003052D01*
X009911Y003030D01*
X009913Y003008D01*
X009919Y002986D01*
X009928Y002966D01*
X009941Y002947D01*
X009957Y002931D01*
X009975Y002918D01*
X009996Y002909D01*
X010017Y002903D01*
X010040Y002901D01*
X010040Y002902D01*
X010017Y002904D01*
X009996Y002910D01*
X009976Y002919D01*
X009958Y002932D01*
X009942Y002948D01*
X009929Y002966D01*
X009920Y002986D01*
X009914Y003008D01*
X009912Y003030D01*
X009914Y003052D01*
X009920Y003074D01*
X009929Y003094D01*
X009942Y003112D01*
X009958Y003128D01*
X009976Y003141D01*
X009996Y003150D01*
X010017Y003156D01*
X010040Y003158D01*
X010040Y003157D01*
X010018Y003155D01*
X009996Y003149D01*
X009976Y003140D01*
X009958Y003127D01*
X009943Y003111D01*
X009930Y003093D01*
X009921Y003073D01*
X009915Y003052D01*
X009913Y003030D01*
X009915Y003008D01*
X009921Y002987D01*
X009930Y002967D01*
X009943Y002949D01*
X009958Y002933D01*
X009976Y002920D01*
X009996Y002911D01*
X010018Y002905D01*
X010040Y002903D01*
X010040Y002904D01*
X010018Y002906D01*
X009997Y002912D01*
X009977Y002921D01*
X009959Y002934D01*
X009943Y002949D01*
X009931Y002967D01*
X009922Y002987D01*
X009916Y003008D01*
X009914Y003030D01*
X009916Y003052D01*
X009922Y003073D01*
X009931Y003093D01*
X009943Y003111D01*
X009959Y003126D01*
X009977Y003139D01*
X009997Y003148D01*
X010018Y003154D01*
X010040Y003156D01*
X010040Y003155D01*
X010018Y003153D01*
X009997Y003147D01*
X009977Y003138D01*
X009959Y003126D01*
X009944Y003110D01*
X009932Y003092D01*
X009923Y003073D01*
X009917Y003052D01*
X009915Y003030D01*
X009917Y003008D01*
X009923Y002987D01*
X009932Y002968D01*
X009944Y002950D01*
X009959Y002934D01*
X009977Y002922D01*
X009997Y002913D01*
X010018Y002907D01*
X010040Y002905D01*
X010040Y002906D01*
X010018Y002908D01*
X009997Y002914D01*
X009978Y002923D01*
X009960Y002935D01*
X009945Y002950D01*
X009933Y002968D01*
X009923Y002988D01*
X009918Y003009D01*
X009916Y003030D01*
X009918Y003051D01*
X009923Y003072D01*
X009933Y003092D01*
X009945Y003110D01*
X009960Y003125D01*
X009978Y003137D01*
X009997Y003146D01*
X010018Y003152D01*
X010040Y003154D01*
X010040Y003153D01*
X010018Y003151D01*
X009998Y003145D01*
X009978Y003136D01*
X009961Y003124D01*
X009946Y003109D01*
X009933Y003091D01*
X009924Y003072D01*
X009919Y003051D01*
X009917Y003030D01*
X009919Y003009D01*
X009924Y002988D01*
X009933Y002969D01*
X009946Y002951D01*
X009961Y002936D01*
X009978Y002924D01*
X009998Y002915D01*
X010018Y002909D01*
X010040Y002907D01*
X010040Y002908D01*
X010018Y002910D01*
X009998Y002915D01*
X009979Y002925D01*
X009961Y002937D01*
X009946Y002952D01*
X009934Y002969D01*
X009925Y002988D01*
X009920Y003009D01*
X009918Y003030D01*
X009920Y003051D01*
X009925Y003072D01*
X009934Y003091D01*
X009946Y003108D01*
X009961Y003123D01*
X009979Y003135D01*
X009998Y003145D01*
X010018Y003150D01*
X010040Y003152D01*
X010040Y003151D01*
X010019Y003149D01*
X009998Y003144D01*
X009979Y003135D01*
X009962Y003123D01*
X009947Y003108D01*
X009935Y003090D01*
X009926Y003071D01*
X009921Y003051D01*
X009919Y003030D01*
X009921Y003009D01*
X009926Y002989D01*
X009935Y002970D01*
X009947Y002952D01*
X009962Y002937D01*
X009979Y002925D01*
X009998Y002916D01*
X010019Y002911D01*
X010040Y002909D01*
X010040Y002910D01*
X010019Y002912D01*
X009999Y002917D01*
X009980Y002926D01*
X009963Y002938D01*
X009948Y002953D01*
X009936Y002970D01*
X009927Y002989D01*
X009922Y003009D01*
X009920Y003030D01*
X009922Y003051D01*
X009927Y003071D01*
X009936Y003090D01*
X009948Y003107D01*
X009963Y003122D01*
X009980Y003134D01*
X009999Y003143D01*
X010019Y003148D01*
X010040Y003150D01*
D21*
X009942Y002848D03*
X009351Y002848D03*
X009351Y003212D03*
X009942Y003848D03*
X009942Y004212D03*
X009351Y004212D03*
X009351Y004848D03*
X009942Y004848D03*
X009351Y005212D03*
D22*
X009401Y005128D03*
X009401Y004932D03*
X009893Y004932D03*
X009893Y005128D03*
X009893Y004128D03*
X009893Y003932D03*
X009401Y003932D03*
X009401Y004128D03*
X009401Y003128D03*
X009401Y002932D03*
X009893Y002932D03*
X009893Y003128D03*
D23*
X009878Y003030D03*
X009415Y003030D03*
X009415Y004030D03*
X009878Y004030D03*
X009878Y005030D03*
X009415Y005030D03*
D24*
X009686Y005030D03*
X009607Y004030D03*
X009686Y003030D03*
D25*
X009903Y003207D03*
X009391Y003853D03*
X009903Y005207D03*
D26*
X010026Y005232D03*
X009268Y003828D03*
X010026Y003232D03*
D27*
X008575Y003032D03*
X008115Y003032D03*
X008115Y004032D03*
X008575Y004032D03*
X008575Y005032D03*
X008115Y005032D03*
X008118Y006028D03*
X008578Y006028D03*
X009415Y006032D03*
X009875Y006032D03*
D28*
X008347Y005030D03*
X008347Y004030D03*
X008347Y003030D03*
D29*
X008347Y006018D02*
X008347Y006042D01*
X009647Y006042D02*
X009647Y006018D01*
M02*
