G75*
%MOIN*%
%OFA0B0*%
%FSLAX24Y24*%
%IPPOS*%
%LPD*%
%AMOC8*
5,1,8,0,0,1.08239X$1,22.5*
%
%ADD10R,0.0472X0.0217*%
%ADD11R,0.0472X0.0472*%
%ADD12R,0.0433X0.0394*%
%ADD13R,0.0120X0.0390*%
%ADD14C,0.0108*%
%ADD15C,0.0072*%
D10*
X002538Y002406D03*
X003562Y002780D03*
X002538Y003154D03*
D11*
X005700Y003093D03*
X005700Y002267D03*
X005700Y001393D03*
X005700Y000567D03*
D12*
X002575Y000780D03*
X003245Y000780D03*
X003235Y001680D03*
X002565Y001680D03*
X005165Y004280D03*
X005835Y004280D03*
X005835Y005130D03*
X005165Y005130D03*
X005165Y005980D03*
X005835Y005980D03*
D13*
X004268Y006029D03*
X004012Y006029D03*
X003756Y006029D03*
X003500Y006029D03*
X003244Y006029D03*
X002988Y006029D03*
X002732Y006029D03*
X002732Y003731D03*
X002988Y003731D03*
X003244Y003731D03*
X003500Y003731D03*
X003756Y003731D03*
X004012Y003731D03*
X004268Y003731D03*
D14*
X007471Y005582D02*
X007471Y006174D01*
X007471Y005582D02*
X007219Y005582D01*
X007219Y006174D01*
X007471Y006174D01*
X007471Y005689D02*
X007219Y005689D01*
X007219Y005796D02*
X007471Y005796D01*
X007471Y005903D02*
X007219Y005903D01*
X007219Y006010D02*
X007471Y006010D01*
X007471Y006117D02*
X007219Y006117D01*
X006880Y006174D02*
X006880Y005700D01*
X006628Y005700D01*
X006628Y006174D01*
X006880Y006174D01*
X006880Y005807D02*
X006628Y005807D01*
X006628Y005914D02*
X006880Y005914D01*
X006880Y006021D02*
X006628Y006021D01*
X006628Y006128D02*
X006880Y006128D01*
X008061Y006174D02*
X008061Y005582D01*
X007809Y005582D01*
X007809Y006174D01*
X008061Y006174D01*
X008061Y005689D02*
X007809Y005689D01*
X007809Y005796D02*
X008061Y005796D01*
X008061Y005903D02*
X007809Y005903D01*
X007809Y006010D02*
X008061Y006010D01*
X008061Y006117D02*
X007809Y006117D01*
X008652Y006174D02*
X008652Y005582D01*
X008400Y005582D01*
X008400Y006174D01*
X008652Y006174D01*
X008652Y005689D02*
X008400Y005689D01*
X008400Y005796D02*
X008652Y005796D01*
X008652Y005903D02*
X008400Y005903D01*
X008400Y006010D02*
X008652Y006010D01*
X008652Y006117D02*
X008400Y006117D01*
X009243Y006174D02*
X009243Y005582D01*
X008991Y005582D01*
X008991Y006174D01*
X009243Y006174D01*
X009243Y005689D02*
X008991Y005689D01*
X008991Y005796D02*
X009243Y005796D01*
X009243Y005903D02*
X008991Y005903D01*
X008991Y006010D02*
X009243Y006010D01*
X009243Y006117D02*
X008991Y006117D01*
X010424Y006174D02*
X010424Y005582D01*
X010172Y005582D01*
X010172Y006174D01*
X010424Y006174D01*
X010424Y005689D02*
X010172Y005689D01*
X010172Y005796D02*
X010424Y005796D01*
X010424Y005903D02*
X010172Y005903D01*
X010172Y006010D02*
X010424Y006010D01*
X010424Y006117D02*
X010172Y006117D01*
X011014Y006174D02*
X011014Y005582D01*
X010762Y005582D01*
X010762Y006174D01*
X011014Y006174D01*
X011014Y005689D02*
X010762Y005689D01*
X010762Y005796D02*
X011014Y005796D01*
X011014Y005903D02*
X010762Y005903D01*
X010762Y006010D02*
X011014Y006010D01*
X011014Y006117D02*
X010762Y006117D01*
X011605Y006174D02*
X011605Y005582D01*
X011353Y005582D01*
X011353Y006174D01*
X011605Y006174D01*
X011605Y005689D02*
X011353Y005689D01*
X011353Y005796D02*
X011605Y005796D01*
X011605Y005903D02*
X011353Y005903D01*
X011353Y006010D02*
X011605Y006010D01*
X011605Y006117D02*
X011353Y006117D01*
X012195Y006174D02*
X012195Y005582D01*
X011943Y005582D01*
X011943Y006174D01*
X012195Y006174D01*
X012195Y005689D02*
X011943Y005689D01*
X011943Y005796D02*
X012195Y005796D01*
X012195Y005903D02*
X011943Y005903D01*
X011943Y006010D02*
X012195Y006010D01*
X012195Y006117D02*
X011943Y006117D01*
X012786Y006174D02*
X012786Y005582D01*
X012534Y005582D01*
X012534Y006174D01*
X012786Y006174D01*
X012786Y005689D02*
X012534Y005689D01*
X012534Y005796D02*
X012786Y005796D01*
X012786Y005903D02*
X012534Y005903D01*
X012534Y006010D02*
X012786Y006010D01*
X012786Y006117D02*
X012534Y006117D01*
X013376Y006174D02*
X013376Y005582D01*
X013124Y005582D01*
X013124Y006174D01*
X013376Y006174D01*
X013376Y005689D02*
X013124Y005689D01*
X013124Y005796D02*
X013376Y005796D01*
X013376Y005903D02*
X013124Y005903D01*
X013124Y006010D02*
X013376Y006010D01*
X013376Y006117D02*
X013124Y006117D01*
X013967Y006174D02*
X013967Y005582D01*
X013715Y005582D01*
X013715Y006174D01*
X013967Y006174D01*
X013967Y005689D02*
X013715Y005689D01*
X013715Y005796D02*
X013967Y005796D01*
X013967Y005903D02*
X013715Y005903D01*
X013715Y006010D02*
X013967Y006010D01*
X013967Y006117D02*
X013715Y006117D01*
X014557Y006174D02*
X014557Y005700D01*
X014305Y005700D01*
X014305Y006174D01*
X014557Y006174D01*
X014557Y005807D02*
X014305Y005807D01*
X014305Y005914D02*
X014557Y005914D01*
X014557Y006021D02*
X014305Y006021D01*
X014305Y006128D02*
X014557Y006128D01*
X016104Y003745D02*
X016578Y003745D01*
X016104Y003745D02*
X016104Y003997D01*
X016578Y003997D01*
X016578Y003745D01*
X016578Y003852D02*
X016104Y003852D01*
X016104Y003959D02*
X016578Y003959D01*
X016578Y003154D02*
X015986Y003154D01*
X015986Y003406D01*
X016578Y003406D01*
X016578Y003154D01*
X016578Y003261D02*
X015986Y003261D01*
X015986Y003368D02*
X016578Y003368D01*
X016578Y002563D02*
X016104Y002563D01*
X016104Y002815D01*
X016578Y002815D01*
X016578Y002563D01*
X016578Y002670D02*
X016104Y002670D01*
X016104Y002777D02*
X016578Y002777D01*
X013967Y000978D02*
X013967Y000386D01*
X013715Y000386D01*
X013715Y000978D01*
X013967Y000978D01*
X013967Y000493D02*
X013715Y000493D01*
X013715Y000600D02*
X013967Y000600D01*
X013967Y000707D02*
X013715Y000707D01*
X013715Y000814D02*
X013967Y000814D01*
X013967Y000921D02*
X013715Y000921D01*
X013376Y000978D02*
X013376Y000386D01*
X013124Y000386D01*
X013124Y000978D01*
X013376Y000978D01*
X013376Y000493D02*
X013124Y000493D01*
X013124Y000600D02*
X013376Y000600D01*
X013376Y000707D02*
X013124Y000707D01*
X013124Y000814D02*
X013376Y000814D01*
X013376Y000921D02*
X013124Y000921D01*
X012786Y000978D02*
X012786Y000386D01*
X012534Y000386D01*
X012534Y000978D01*
X012786Y000978D01*
X012786Y000493D02*
X012534Y000493D01*
X012534Y000600D02*
X012786Y000600D01*
X012786Y000707D02*
X012534Y000707D01*
X012534Y000814D02*
X012786Y000814D01*
X012786Y000921D02*
X012534Y000921D01*
X012195Y000978D02*
X012195Y000386D01*
X011943Y000386D01*
X011943Y000978D01*
X012195Y000978D01*
X012195Y000493D02*
X011943Y000493D01*
X011943Y000600D02*
X012195Y000600D01*
X012195Y000707D02*
X011943Y000707D01*
X011943Y000814D02*
X012195Y000814D01*
X012195Y000921D02*
X011943Y000921D01*
X011605Y000978D02*
X011605Y000386D01*
X011353Y000386D01*
X011353Y000978D01*
X011605Y000978D01*
X011605Y000493D02*
X011353Y000493D01*
X011353Y000600D02*
X011605Y000600D01*
X011605Y000707D02*
X011353Y000707D01*
X011353Y000814D02*
X011605Y000814D01*
X011605Y000921D02*
X011353Y000921D01*
X011014Y000978D02*
X011014Y000386D01*
X010762Y000386D01*
X010762Y000978D01*
X011014Y000978D01*
X011014Y000493D02*
X010762Y000493D01*
X010762Y000600D02*
X011014Y000600D01*
X011014Y000707D02*
X010762Y000707D01*
X010762Y000814D02*
X011014Y000814D01*
X011014Y000921D02*
X010762Y000921D01*
X010424Y000978D02*
X010424Y000386D01*
X010172Y000386D01*
X010172Y000978D01*
X010424Y000978D01*
X010424Y000493D02*
X010172Y000493D01*
X010172Y000600D02*
X010424Y000600D01*
X010424Y000707D02*
X010172Y000707D01*
X010172Y000814D02*
X010424Y000814D01*
X010424Y000921D02*
X010172Y000921D01*
X009833Y000978D02*
X009833Y000386D01*
X009581Y000386D01*
X009581Y000978D01*
X009833Y000978D01*
X009833Y000493D02*
X009581Y000493D01*
X009581Y000600D02*
X009833Y000600D01*
X009833Y000707D02*
X009581Y000707D01*
X009581Y000814D02*
X009833Y000814D01*
X009833Y000921D02*
X009581Y000921D01*
X009243Y000978D02*
X009243Y000386D01*
X008991Y000386D01*
X008991Y000978D01*
X009243Y000978D01*
X009243Y000493D02*
X008991Y000493D01*
X008991Y000600D02*
X009243Y000600D01*
X009243Y000707D02*
X008991Y000707D01*
X008991Y000814D02*
X009243Y000814D01*
X009243Y000921D02*
X008991Y000921D01*
X008652Y000978D02*
X008652Y000386D01*
X008400Y000386D01*
X008400Y000978D01*
X008652Y000978D01*
X008652Y000493D02*
X008400Y000493D01*
X008400Y000600D02*
X008652Y000600D01*
X008652Y000707D02*
X008400Y000707D01*
X008400Y000814D02*
X008652Y000814D01*
X008652Y000921D02*
X008400Y000921D01*
X008061Y000978D02*
X008061Y000386D01*
X007809Y000386D01*
X007809Y000978D01*
X008061Y000978D01*
X008061Y000493D02*
X007809Y000493D01*
X007809Y000600D02*
X008061Y000600D01*
X008061Y000707D02*
X007809Y000707D01*
X007809Y000814D02*
X008061Y000814D01*
X008061Y000921D02*
X007809Y000921D01*
X007471Y000978D02*
X007471Y000386D01*
X007219Y000386D01*
X007219Y000978D01*
X007471Y000978D01*
X007471Y000493D02*
X007219Y000493D01*
X007219Y000600D02*
X007471Y000600D01*
X007471Y000707D02*
X007219Y000707D01*
X007219Y000814D02*
X007471Y000814D01*
X007471Y000921D02*
X007219Y000921D01*
X006880Y000860D02*
X006880Y000386D01*
X006628Y000386D01*
X006628Y000860D01*
X006880Y000860D01*
X006880Y000493D02*
X006628Y000493D01*
X006628Y000600D02*
X006880Y000600D01*
X006880Y000707D02*
X006628Y000707D01*
X006628Y000814D02*
X006880Y000814D01*
X014557Y000860D02*
X014557Y000386D01*
X014305Y000386D01*
X014305Y000860D01*
X014557Y000860D01*
X014557Y000493D02*
X014305Y000493D01*
X014305Y000600D02*
X014557Y000600D01*
X014557Y000707D02*
X014305Y000707D01*
X014305Y000814D02*
X014557Y000814D01*
D15*
X009851Y005564D02*
X009851Y006192D01*
X009851Y005564D02*
X009563Y005564D01*
X009563Y006192D01*
X009851Y006192D01*
X009851Y005635D02*
X009563Y005635D01*
X009563Y005706D02*
X009851Y005706D01*
X009851Y005777D02*
X009563Y005777D01*
X009563Y005848D02*
X009851Y005848D01*
X009851Y005919D02*
X009563Y005919D01*
X009563Y005990D02*
X009851Y005990D01*
X009851Y006061D02*
X009563Y006061D01*
X009563Y006132D02*
X009851Y006132D01*
M02*
