%
M48
M72
T01C0.0130
T02C0.0400
%
T01
X2780Y1200
X3620Y1140
X5240Y540
X7040Y1200
X7640Y1260
X6440Y1380
X6140Y1620
X6140Y2040
X7040Y2280
X8600Y2820
X7040Y3120
X6740Y3660
X5120Y3540
X4760Y3180
X3620Y3180
X2480Y2820
X1640Y3240
X3260Y4140
X3740Y4140
X2780Y4620
X3500Y5100
X3860Y5220
X3080Y5580
X4520Y5700
X3740Y4740
X8480Y5220
X9320Y5100
X11060Y5340
X11120Y4500
X12080Y3660
X11420Y3360
X14000Y3480
X14400Y3480
X14800Y3480
X15200Y3480
X15600Y3480
X15600Y3880
X15200Y3880
X14800Y3880
X14400Y3880
X14000Y3880
X14000Y4280
X14400Y4280
X14400Y4680
X14000Y4680
X14000Y5080
X14400Y5080
X5240Y2400
X4760Y2340
X2900Y2100
T02
X1300Y780
X1300Y1780
X1300Y2780
X1300Y3780
X1300Y4780
X1300Y5780
X4300Y2780
X4300Y1780
X4300Y780
M30
