G75*
%MOIN*%
%OFA0B0*%
%FSLAX24Y24*%
%IPPOS*%
%LPD*%
%AMOC8*
5,1,8,0,0,1.08239X$1,22.5*
%
%ADD10R,0.0472X0.0217*%
%ADD11R,0.0472X0.0472*%
%ADD12R,0.0433X0.0394*%
%ADD13OC8,0.0700*%
%ADD14R,0.0120X0.0390*%
%ADD15C,0.0108*%
%ADD16C,0.0072*%
%ADD17C,0.0060*%
%ADD18C,0.0270*%
%ADD19C,0.0160*%
%ADD20C,0.0100*%
D10*
X002538Y002406D03*
X003562Y002780D03*
X002538Y003154D03*
D11*
X005700Y003093D03*
X005700Y002267D03*
X005700Y001393D03*
X005700Y000567D03*
D12*
X003245Y000780D03*
X002575Y000780D03*
X002565Y001680D03*
X003235Y001680D03*
X005165Y004280D03*
X005835Y004280D03*
X005835Y005130D03*
X005165Y005130D03*
X005165Y005980D03*
X005835Y005980D03*
D13*
X001300Y000780D03*
X001300Y001780D03*
X001300Y002780D03*
X001300Y003780D03*
X001300Y004780D03*
X001300Y005780D03*
X004300Y002780D03*
X004300Y001780D03*
X004300Y000780D03*
D14*
X004268Y003731D03*
X004012Y003731D03*
X003756Y003731D03*
X003500Y003731D03*
X003244Y003731D03*
X002988Y003731D03*
X002732Y003731D03*
X002732Y006029D03*
X002988Y006029D03*
X003244Y006029D03*
X003500Y006029D03*
X003756Y006029D03*
X004012Y006029D03*
X004268Y006029D03*
D15*
X006880Y006174D02*
X006880Y005700D01*
X006628Y005700D01*
X006628Y006174D01*
X006880Y006174D01*
X006880Y005807D02*
X006628Y005807D01*
X006628Y005914D02*
X006880Y005914D01*
X006880Y006021D02*
X006628Y006021D01*
X006628Y006128D02*
X006880Y006128D01*
X007471Y006174D02*
X007471Y005582D01*
X007219Y005582D01*
X007219Y006174D01*
X007471Y006174D01*
X007471Y005689D02*
X007219Y005689D01*
X007219Y005796D02*
X007471Y005796D01*
X007471Y005903D02*
X007219Y005903D01*
X007219Y006010D02*
X007471Y006010D01*
X007471Y006117D02*
X007219Y006117D01*
X008061Y006174D02*
X008061Y005582D01*
X007809Y005582D01*
X007809Y006174D01*
X008061Y006174D01*
X008061Y005689D02*
X007809Y005689D01*
X007809Y005796D02*
X008061Y005796D01*
X008061Y005903D02*
X007809Y005903D01*
X007809Y006010D02*
X008061Y006010D01*
X008061Y006117D02*
X007809Y006117D01*
X008652Y006174D02*
X008652Y005582D01*
X008400Y005582D01*
X008400Y006174D01*
X008652Y006174D01*
X008652Y005689D02*
X008400Y005689D01*
X008400Y005796D02*
X008652Y005796D01*
X008652Y005903D02*
X008400Y005903D01*
X008400Y006010D02*
X008652Y006010D01*
X008652Y006117D02*
X008400Y006117D01*
X009243Y006174D02*
X009243Y005582D01*
X008991Y005582D01*
X008991Y006174D01*
X009243Y006174D01*
X009243Y005689D02*
X008991Y005689D01*
X008991Y005796D02*
X009243Y005796D01*
X009243Y005903D02*
X008991Y005903D01*
X008991Y006010D02*
X009243Y006010D01*
X009243Y006117D02*
X008991Y006117D01*
X010424Y006174D02*
X010424Y005582D01*
X010172Y005582D01*
X010172Y006174D01*
X010424Y006174D01*
X010424Y005689D02*
X010172Y005689D01*
X010172Y005796D02*
X010424Y005796D01*
X010424Y005903D02*
X010172Y005903D01*
X010172Y006010D02*
X010424Y006010D01*
X010424Y006117D02*
X010172Y006117D01*
X011014Y006174D02*
X011014Y005582D01*
X010762Y005582D01*
X010762Y006174D01*
X011014Y006174D01*
X011014Y005689D02*
X010762Y005689D01*
X010762Y005796D02*
X011014Y005796D01*
X011014Y005903D02*
X010762Y005903D01*
X010762Y006010D02*
X011014Y006010D01*
X011014Y006117D02*
X010762Y006117D01*
X011605Y006174D02*
X011605Y005582D01*
X011353Y005582D01*
X011353Y006174D01*
X011605Y006174D01*
X011605Y005689D02*
X011353Y005689D01*
X011353Y005796D02*
X011605Y005796D01*
X011605Y005903D02*
X011353Y005903D01*
X011353Y006010D02*
X011605Y006010D01*
X011605Y006117D02*
X011353Y006117D01*
X012195Y006174D02*
X012195Y005582D01*
X011943Y005582D01*
X011943Y006174D01*
X012195Y006174D01*
X012195Y005689D02*
X011943Y005689D01*
X011943Y005796D02*
X012195Y005796D01*
X012195Y005903D02*
X011943Y005903D01*
X011943Y006010D02*
X012195Y006010D01*
X012195Y006117D02*
X011943Y006117D01*
X012786Y006174D02*
X012786Y005582D01*
X012534Y005582D01*
X012534Y006174D01*
X012786Y006174D01*
X012786Y005689D02*
X012534Y005689D01*
X012534Y005796D02*
X012786Y005796D01*
X012786Y005903D02*
X012534Y005903D01*
X012534Y006010D02*
X012786Y006010D01*
X012786Y006117D02*
X012534Y006117D01*
X013376Y006174D02*
X013376Y005582D01*
X013124Y005582D01*
X013124Y006174D01*
X013376Y006174D01*
X013376Y005689D02*
X013124Y005689D01*
X013124Y005796D02*
X013376Y005796D01*
X013376Y005903D02*
X013124Y005903D01*
X013124Y006010D02*
X013376Y006010D01*
X013376Y006117D02*
X013124Y006117D01*
X013967Y006174D02*
X013967Y005582D01*
X013715Y005582D01*
X013715Y006174D01*
X013967Y006174D01*
X013967Y005689D02*
X013715Y005689D01*
X013715Y005796D02*
X013967Y005796D01*
X013967Y005903D02*
X013715Y005903D01*
X013715Y006010D02*
X013967Y006010D01*
X013967Y006117D02*
X013715Y006117D01*
X014557Y006174D02*
X014557Y005700D01*
X014305Y005700D01*
X014305Y006174D01*
X014557Y006174D01*
X014557Y005807D02*
X014305Y005807D01*
X014305Y005914D02*
X014557Y005914D01*
X014557Y006021D02*
X014305Y006021D01*
X014305Y006128D02*
X014557Y006128D01*
X016104Y003745D02*
X016578Y003745D01*
X016104Y003745D02*
X016104Y003997D01*
X016578Y003997D01*
X016578Y003745D01*
X016578Y003852D02*
X016104Y003852D01*
X016104Y003959D02*
X016578Y003959D01*
X016578Y003154D02*
X015986Y003154D01*
X015986Y003406D01*
X016578Y003406D01*
X016578Y003154D01*
X016578Y003261D02*
X015986Y003261D01*
X015986Y003368D02*
X016578Y003368D01*
X016578Y002563D02*
X016104Y002563D01*
X016104Y002815D01*
X016578Y002815D01*
X016578Y002563D01*
X016578Y002670D02*
X016104Y002670D01*
X016104Y002777D02*
X016578Y002777D01*
X013967Y000978D02*
X013967Y000386D01*
X013715Y000386D01*
X013715Y000978D01*
X013967Y000978D01*
X013967Y000493D02*
X013715Y000493D01*
X013715Y000600D02*
X013967Y000600D01*
X013967Y000707D02*
X013715Y000707D01*
X013715Y000814D02*
X013967Y000814D01*
X013967Y000921D02*
X013715Y000921D01*
X013376Y000978D02*
X013376Y000386D01*
X013124Y000386D01*
X013124Y000978D01*
X013376Y000978D01*
X013376Y000493D02*
X013124Y000493D01*
X013124Y000600D02*
X013376Y000600D01*
X013376Y000707D02*
X013124Y000707D01*
X013124Y000814D02*
X013376Y000814D01*
X013376Y000921D02*
X013124Y000921D01*
X012786Y000978D02*
X012786Y000386D01*
X012534Y000386D01*
X012534Y000978D01*
X012786Y000978D01*
X012786Y000493D02*
X012534Y000493D01*
X012534Y000600D02*
X012786Y000600D01*
X012786Y000707D02*
X012534Y000707D01*
X012534Y000814D02*
X012786Y000814D01*
X012786Y000921D02*
X012534Y000921D01*
X012195Y000978D02*
X012195Y000386D01*
X011943Y000386D01*
X011943Y000978D01*
X012195Y000978D01*
X012195Y000493D02*
X011943Y000493D01*
X011943Y000600D02*
X012195Y000600D01*
X012195Y000707D02*
X011943Y000707D01*
X011943Y000814D02*
X012195Y000814D01*
X012195Y000921D02*
X011943Y000921D01*
X011605Y000978D02*
X011605Y000386D01*
X011353Y000386D01*
X011353Y000978D01*
X011605Y000978D01*
X011605Y000493D02*
X011353Y000493D01*
X011353Y000600D02*
X011605Y000600D01*
X011605Y000707D02*
X011353Y000707D01*
X011353Y000814D02*
X011605Y000814D01*
X011605Y000921D02*
X011353Y000921D01*
X011014Y000978D02*
X011014Y000386D01*
X010762Y000386D01*
X010762Y000978D01*
X011014Y000978D01*
X011014Y000493D02*
X010762Y000493D01*
X010762Y000600D02*
X011014Y000600D01*
X011014Y000707D02*
X010762Y000707D01*
X010762Y000814D02*
X011014Y000814D01*
X011014Y000921D02*
X010762Y000921D01*
X010424Y000978D02*
X010424Y000386D01*
X010172Y000386D01*
X010172Y000978D01*
X010424Y000978D01*
X010424Y000493D02*
X010172Y000493D01*
X010172Y000600D02*
X010424Y000600D01*
X010424Y000707D02*
X010172Y000707D01*
X010172Y000814D02*
X010424Y000814D01*
X010424Y000921D02*
X010172Y000921D01*
X009833Y000978D02*
X009833Y000386D01*
X009581Y000386D01*
X009581Y000978D01*
X009833Y000978D01*
X009833Y000493D02*
X009581Y000493D01*
X009581Y000600D02*
X009833Y000600D01*
X009833Y000707D02*
X009581Y000707D01*
X009581Y000814D02*
X009833Y000814D01*
X009833Y000921D02*
X009581Y000921D01*
X009243Y000978D02*
X009243Y000386D01*
X008991Y000386D01*
X008991Y000978D01*
X009243Y000978D01*
X009243Y000493D02*
X008991Y000493D01*
X008991Y000600D02*
X009243Y000600D01*
X009243Y000707D02*
X008991Y000707D01*
X008991Y000814D02*
X009243Y000814D01*
X009243Y000921D02*
X008991Y000921D01*
X008652Y000978D02*
X008652Y000386D01*
X008400Y000386D01*
X008400Y000978D01*
X008652Y000978D01*
X008652Y000493D02*
X008400Y000493D01*
X008400Y000600D02*
X008652Y000600D01*
X008652Y000707D02*
X008400Y000707D01*
X008400Y000814D02*
X008652Y000814D01*
X008652Y000921D02*
X008400Y000921D01*
X008061Y000978D02*
X008061Y000386D01*
X007809Y000386D01*
X007809Y000978D01*
X008061Y000978D01*
X008061Y000493D02*
X007809Y000493D01*
X007809Y000600D02*
X008061Y000600D01*
X008061Y000707D02*
X007809Y000707D01*
X007809Y000814D02*
X008061Y000814D01*
X008061Y000921D02*
X007809Y000921D01*
X007471Y000978D02*
X007471Y000386D01*
X007219Y000386D01*
X007219Y000978D01*
X007471Y000978D01*
X007471Y000493D02*
X007219Y000493D01*
X007219Y000600D02*
X007471Y000600D01*
X007471Y000707D02*
X007219Y000707D01*
X007219Y000814D02*
X007471Y000814D01*
X007471Y000921D02*
X007219Y000921D01*
X006880Y000860D02*
X006880Y000386D01*
X006628Y000386D01*
X006628Y000860D01*
X006880Y000860D01*
X006880Y000493D02*
X006628Y000493D01*
X006628Y000600D02*
X006880Y000600D01*
X006880Y000707D02*
X006628Y000707D01*
X006628Y000814D02*
X006880Y000814D01*
X014557Y000860D02*
X014557Y000386D01*
X014305Y000386D01*
X014305Y000860D01*
X014557Y000860D01*
X014557Y000493D02*
X014305Y000493D01*
X014305Y000600D02*
X014557Y000600D01*
X014557Y000707D02*
X014305Y000707D01*
X014305Y000814D02*
X014557Y000814D01*
D16*
X009851Y005564D02*
X009851Y006192D01*
X009851Y005564D02*
X009563Y005564D01*
X009563Y006192D01*
X009851Y006192D01*
X009851Y005635D02*
X009563Y005635D01*
X009563Y005706D02*
X009851Y005706D01*
X009851Y005777D02*
X009563Y005777D01*
X009563Y005848D02*
X009851Y005848D01*
X009851Y005919D02*
X009563Y005919D01*
X009563Y005990D02*
X009851Y005990D01*
X009851Y006061D02*
X009563Y006061D01*
X009563Y006132D02*
X009851Y006132D01*
D17*
X009117Y005878D02*
X009080Y005820D01*
X008480Y005220D01*
X009320Y005100D02*
X013220Y001200D01*
X013220Y000720D01*
X013250Y000682D01*
X012660Y000682D02*
X012620Y000720D01*
X012620Y001140D01*
X010280Y001140D01*
X008600Y002820D01*
X008780Y001380D02*
X007040Y003120D01*
X007040Y002280D02*
X008240Y001080D01*
X008240Y000960D01*
X008480Y000720D01*
X008526Y000682D01*
X007935Y000682D02*
X007880Y000720D01*
X007640Y000960D01*
X007640Y001260D01*
X008780Y001380D02*
X008780Y001020D01*
X009080Y000720D01*
X009117Y000682D01*
X006140Y001620D02*
X006020Y001740D01*
X005120Y001740D01*
X005120Y001560D01*
X004340Y000780D01*
X004300Y000780D01*
X003620Y001140D02*
X003260Y000780D01*
X003245Y000780D01*
X004040Y001380D02*
X004100Y001320D01*
X004700Y001320D01*
X004700Y001500D01*
X005420Y002220D01*
X005660Y002220D01*
X005700Y002267D01*
X005240Y002400D02*
X004640Y001800D01*
X004340Y001800D01*
X004300Y001780D01*
X004040Y001380D02*
X002960Y001380D01*
X002900Y001440D01*
X002900Y001680D01*
X002565Y001680D01*
X003235Y001680D02*
X003260Y001680D01*
X003920Y002340D01*
X004760Y002340D01*
X005660Y001380D02*
X005700Y001393D01*
X005660Y001380D02*
X005360Y001080D01*
X005360Y000660D01*
X005240Y000540D01*
X001760Y001200D02*
X001340Y000780D01*
X001300Y000780D01*
X001760Y001200D02*
X001760Y003120D01*
X001640Y003240D01*
X003244Y003731D02*
X003260Y003780D01*
X003260Y004140D01*
X003740Y004140D02*
X003740Y003780D01*
X003756Y003731D01*
X003980Y003780D02*
X004012Y003731D01*
X003980Y003780D02*
X003980Y004500D01*
X003740Y004740D01*
X003500Y005100D02*
X003500Y003731D01*
X002780Y004620D02*
X002780Y004920D01*
X003440Y005580D01*
X003440Y005940D01*
X003500Y006000D01*
X003500Y006029D01*
X003756Y006029D02*
X003800Y006000D01*
X003860Y005940D01*
X003860Y005220D01*
X003140Y005640D02*
X003080Y005580D01*
X003140Y005640D02*
X003140Y005940D01*
X003200Y006000D01*
X003244Y006029D01*
X004012Y006029D02*
X004040Y006000D01*
X004100Y005940D01*
X004100Y005760D01*
X004160Y005700D01*
X004520Y005700D01*
X011060Y005340D02*
X011420Y005700D01*
X011420Y005820D01*
X011479Y005878D01*
X012020Y005820D02*
X012069Y005878D01*
X012020Y005820D02*
X012020Y005400D01*
X011120Y004500D01*
D18*
X011120Y004500D03*
X011060Y005340D03*
X009320Y005100D03*
X008480Y005220D03*
X006740Y003660D03*
X007040Y003120D03*
X008600Y002820D03*
X007040Y002280D03*
X006140Y002040D03*
X005240Y002400D03*
X004760Y002340D03*
X006140Y001620D03*
X006440Y001380D03*
X007040Y001200D03*
X007640Y001260D03*
X005240Y000540D03*
X003620Y001140D03*
X002780Y001200D03*
X002900Y002100D03*
X002480Y002820D03*
X001640Y003240D03*
X003620Y003180D03*
X004760Y003180D03*
X005120Y003540D03*
X003740Y004140D03*
X003260Y004140D03*
X002780Y004620D03*
X003500Y005100D03*
X003860Y005220D03*
X003080Y005580D03*
X004520Y005700D03*
X003740Y004740D03*
X011420Y003360D03*
X012080Y003660D03*
X014000Y003480D03*
X014400Y003480D03*
X014800Y003480D03*
X015200Y003480D03*
X015600Y003480D03*
X015600Y003880D03*
X015200Y003880D03*
X014800Y003880D03*
X014400Y003880D03*
X014000Y003880D03*
X014000Y004280D03*
X014400Y004280D03*
X014400Y004680D03*
X014000Y004680D03*
X014000Y005080D03*
X014400Y005080D03*
D19*
X014548Y005094D02*
X013422Y005094D01*
X013581Y005252D02*
X014548Y005252D01*
X014548Y005411D02*
X014069Y005411D01*
X014047Y005388D02*
X014161Y005502D01*
X014161Y005516D01*
X014195Y005493D01*
X014237Y005476D01*
X014282Y005467D01*
X014421Y005467D01*
X014421Y005927D01*
X014161Y005927D01*
X014161Y005947D01*
X014421Y005947D01*
X014421Y005927D01*
X014441Y005927D01*
X014441Y005467D01*
X014548Y005467D01*
X014548Y004034D01*
X014595Y003987D01*
X015910Y003987D01*
X015910Y003664D01*
X015974Y003600D01*
X015906Y003600D01*
X015792Y003486D01*
X015792Y003074D01*
X015906Y002960D01*
X015974Y002960D01*
X015910Y002896D01*
X015910Y002483D01*
X016024Y002369D01*
X016570Y002369D01*
X016570Y000410D01*
X014791Y000410D01*
X014791Y000613D01*
X014442Y000613D01*
X014442Y000633D01*
X014441Y000633D02*
X014421Y000633D01*
X014421Y001093D01*
X014282Y001093D01*
X014237Y001084D01*
X014195Y001067D01*
X014161Y001044D01*
X014161Y001058D01*
X014047Y001172D01*
X013635Y001172D01*
X013546Y001083D01*
X013457Y001172D01*
X013390Y001172D01*
X013390Y001270D01*
X013290Y001370D01*
X011546Y003114D01*
X011576Y003127D01*
X011653Y003204D01*
X011695Y003305D01*
X011695Y003366D01*
X013599Y005270D01*
X013599Y005270D01*
X013710Y005381D01*
X013710Y005388D01*
X014047Y005388D01*
X014421Y005569D02*
X014441Y005569D01*
X014441Y005728D02*
X014421Y005728D01*
X014421Y005886D02*
X014441Y005886D01*
X014442Y005927D02*
X014548Y005927D01*
X014548Y005947D01*
X014442Y005947D01*
X014442Y005927D01*
X014441Y005947D02*
X014421Y005947D01*
X014421Y006150D01*
X014441Y006150D01*
X014441Y005947D01*
X014441Y006045D02*
X014421Y006045D01*
X013180Y005388D02*
X013044Y005388D01*
X012955Y005477D01*
X012866Y005388D01*
X012453Y005388D01*
X012365Y005477D01*
X012276Y005388D01*
X012190Y005388D01*
X012190Y005330D01*
X012090Y005230D01*
X011395Y004535D01*
X011395Y004445D01*
X011353Y004344D01*
X011276Y004267D01*
X011175Y004225D01*
X011065Y004225D01*
X010964Y004267D01*
X010887Y004344D01*
X010845Y004445D01*
X010845Y004555D01*
X010887Y004656D01*
X010964Y004733D01*
X011065Y004775D01*
X011155Y004775D01*
X011815Y005436D01*
X011774Y005477D01*
X011685Y005388D01*
X011349Y005388D01*
X011335Y005375D01*
X011335Y005285D01*
X011293Y005184D01*
X011216Y005107D01*
X011115Y005065D01*
X011005Y005065D01*
X010904Y005107D01*
X010827Y005184D01*
X010785Y005285D01*
X010785Y005388D01*
X010682Y005388D01*
X010593Y005477D01*
X010504Y005388D01*
X010091Y005388D01*
X010008Y005472D01*
X009924Y005388D01*
X009490Y005388D01*
X009407Y005472D01*
X009323Y005388D01*
X008910Y005388D01*
X008900Y005399D01*
X008755Y005255D01*
X008755Y005165D01*
X008713Y005064D01*
X008636Y004987D01*
X008535Y004945D01*
X008425Y004945D01*
X008324Y004987D01*
X008247Y005064D01*
X008205Y005165D01*
X008205Y005275D01*
X008247Y005376D01*
X008290Y005418D01*
X008231Y005477D01*
X008142Y005388D01*
X007729Y005388D01*
X007640Y005477D01*
X007551Y005388D01*
X007139Y005388D01*
X007025Y005502D01*
X007025Y005516D01*
X006991Y005493D01*
X006949Y005476D01*
X006903Y005467D01*
X006764Y005467D01*
X006764Y005927D01*
X006744Y005927D01*
X006744Y005467D01*
X006605Y005467D01*
X006560Y005476D01*
X006517Y005493D01*
X006479Y005519D01*
X006447Y005551D01*
X006421Y005590D01*
X006403Y005632D01*
X006394Y005677D01*
X006394Y005927D01*
X006744Y005927D01*
X006744Y005947D01*
X006394Y005947D01*
X006394Y006150D01*
X006191Y006150D01*
X006191Y005725D01*
X006109Y005643D01*
X006030Y005643D01*
X006030Y005467D01*
X006109Y005467D01*
X006191Y005385D01*
X006191Y004875D01*
X006109Y004793D01*
X006030Y004793D01*
X006030Y004617D01*
X006109Y004617D01*
X006191Y004535D01*
X006191Y004178D01*
X006630Y003739D01*
X006630Y001579D01*
X006673Y001536D01*
X006715Y001435D01*
X006715Y001325D01*
X006673Y001224D01*
X006596Y001147D01*
X006495Y001105D01*
X006385Y001105D01*
X006284Y001147D01*
X006207Y001224D01*
X006165Y001325D01*
X006165Y001345D01*
X006085Y001345D01*
X006076Y001349D01*
X006076Y001099D01*
X005994Y001017D01*
X005538Y001017D01*
X005530Y001010D01*
X005530Y000983D01*
X005662Y000983D01*
X005662Y000605D01*
X005738Y000605D01*
X005738Y000983D01*
X005960Y000983D01*
X006006Y000971D01*
X006047Y000947D01*
X006080Y000913D01*
X006104Y000872D01*
X006116Y000827D01*
X006116Y000605D01*
X005738Y000605D01*
X005738Y000529D01*
X006116Y000529D01*
X006116Y000410D01*
X006394Y000410D01*
X006394Y000613D01*
X006744Y000613D01*
X006744Y000633D01*
X006744Y001093D01*
X006605Y001093D01*
X006560Y001084D01*
X006517Y001067D01*
X006479Y001041D01*
X006447Y001009D01*
X006421Y000970D01*
X006403Y000928D01*
X006394Y000883D01*
X006394Y000633D01*
X006744Y000633D01*
X006764Y000633D01*
X006764Y001093D01*
X006786Y001093D01*
X006765Y001145D01*
X006765Y001255D01*
X006807Y001356D01*
X006884Y001433D01*
X006985Y001475D01*
X007095Y001475D01*
X007196Y001433D01*
X007273Y001356D01*
X007315Y001255D01*
X007315Y001172D01*
X007379Y001172D01*
X007365Y001205D01*
X007365Y001315D01*
X007407Y001416D01*
X007484Y001493D01*
X007557Y001523D01*
X007075Y002005D01*
X006985Y002005D01*
X006884Y002047D01*
X006807Y002124D01*
X006765Y002225D01*
X006765Y002335D01*
X006807Y002436D01*
X006884Y002513D01*
X006985Y002555D01*
X007095Y002555D01*
X007196Y002513D01*
X007273Y002436D01*
X007315Y002335D01*
X007315Y002245D01*
X008389Y001172D01*
X008610Y001172D01*
X008610Y001310D01*
X007075Y002845D01*
X006985Y002845D01*
X006884Y002887D01*
X006807Y002964D01*
X006765Y003065D01*
X006765Y003175D01*
X006807Y003276D01*
X006884Y003353D01*
X006985Y003395D01*
X007095Y003395D01*
X007196Y003353D01*
X007273Y003276D01*
X007315Y003175D01*
X007315Y003085D01*
X008950Y001450D01*
X008950Y001172D01*
X009323Y001172D01*
X009412Y001083D01*
X009501Y001172D01*
X009913Y001172D01*
X010002Y001083D01*
X010050Y001130D01*
X008635Y002545D01*
X008545Y002545D01*
X008444Y002587D01*
X008367Y002664D01*
X008325Y002765D01*
X008325Y002875D01*
X008367Y002976D01*
X008444Y003053D01*
X008545Y003095D01*
X008655Y003095D01*
X008756Y003053D01*
X008833Y002976D01*
X008875Y002875D01*
X008875Y002785D01*
X010350Y001310D01*
X012690Y001310D01*
X012790Y001210D01*
X012790Y001172D01*
X012866Y001172D01*
X012955Y001083D01*
X013026Y001154D01*
X009355Y004825D01*
X009265Y004825D01*
X009164Y004867D01*
X009087Y004944D01*
X009045Y005045D01*
X009045Y005155D01*
X009087Y005256D01*
X009164Y005333D01*
X009265Y005375D01*
X009375Y005375D01*
X009476Y005333D01*
X009553Y005256D01*
X009595Y005155D01*
X009595Y005065D01*
X011174Y003486D01*
X011187Y003516D01*
X011264Y003593D01*
X011365Y003635D01*
X011426Y003635D01*
X013180Y005388D01*
X013022Y005411D02*
X012888Y005411D01*
X013043Y005252D02*
X012112Y005252D01*
X011954Y005094D02*
X012885Y005094D01*
X012726Y004935D02*
X011795Y004935D01*
X011637Y004777D02*
X012568Y004777D01*
X012409Y004618D02*
X011478Y004618D01*
X011395Y004460D02*
X012251Y004460D01*
X012092Y004301D02*
X011310Y004301D01*
X010930Y004301D02*
X010359Y004301D01*
X010201Y004460D02*
X010845Y004460D01*
X010871Y004618D02*
X010042Y004618D01*
X009884Y004777D02*
X011156Y004777D01*
X011315Y004935D02*
X009725Y004935D01*
X009595Y005094D02*
X010936Y005094D01*
X010799Y005252D02*
X009555Y005252D01*
X009468Y005411D02*
X009345Y005411D01*
X009085Y005252D02*
X008755Y005252D01*
X008725Y005094D02*
X009045Y005094D01*
X009096Y004935D02*
X006191Y004935D01*
X006191Y005094D02*
X008235Y005094D01*
X008205Y005252D02*
X006191Y005252D01*
X006166Y005411D02*
X007116Y005411D01*
X006764Y005569D02*
X006744Y005569D01*
X006744Y005728D02*
X006764Y005728D01*
X006764Y005886D02*
X006744Y005886D01*
X006764Y005927D02*
X007025Y005927D01*
X007025Y005947D01*
X006764Y005947D01*
X006764Y005927D01*
X006764Y005947D02*
X006744Y005947D01*
X006744Y006150D01*
X006764Y006150D01*
X006764Y005947D01*
X006764Y006045D02*
X006744Y006045D01*
X006394Y006045D02*
X006191Y006045D01*
X006191Y005886D02*
X006394Y005886D01*
X006394Y005728D02*
X006191Y005728D01*
X006030Y005569D02*
X006435Y005569D01*
X005650Y005569D02*
X005010Y005569D01*
X005010Y005507D02*
X005010Y005643D01*
X005440Y005643D01*
X005500Y005703D01*
X005560Y005643D01*
X005650Y005643D01*
X005650Y005467D01*
X005560Y005467D01*
X005528Y005434D01*
X005526Y005437D01*
X005492Y005471D01*
X005451Y005495D01*
X005406Y005507D01*
X005184Y005507D01*
X005184Y005148D01*
X005147Y005148D01*
X005147Y005507D01*
X005010Y005507D01*
X005147Y005411D02*
X005184Y005411D01*
X005184Y005252D02*
X005147Y005252D01*
X005147Y005112D02*
X005184Y005112D01*
X005184Y004753D01*
X005406Y004753D01*
X005451Y004765D01*
X005492Y004789D01*
X005526Y004823D01*
X005528Y004826D01*
X005560Y004793D01*
X005650Y004793D01*
X005650Y004617D01*
X005560Y004617D01*
X005528Y004584D01*
X005526Y004587D01*
X005492Y004621D01*
X005451Y004645D01*
X005406Y004657D01*
X005184Y004657D01*
X005184Y004298D01*
X005147Y004298D01*
X005147Y004657D01*
X005010Y004657D01*
X005010Y004753D01*
X005147Y004753D01*
X005147Y005112D01*
X005147Y005094D02*
X005184Y005094D01*
X005184Y004935D02*
X005147Y004935D01*
X005147Y004777D02*
X005184Y004777D01*
X005184Y004618D02*
X005147Y004618D01*
X005147Y004460D02*
X005184Y004460D01*
X005184Y004301D02*
X005147Y004301D01*
X005147Y004262D02*
X005184Y004262D01*
X005184Y003903D01*
X005406Y003903D01*
X005451Y003915D01*
X005492Y003939D01*
X005526Y003973D01*
X005528Y003976D01*
X005560Y003943D01*
X005888Y003943D01*
X006250Y003581D01*
X006250Y002619D01*
X006096Y002773D01*
X006104Y002788D01*
X006116Y002833D01*
X006116Y003055D01*
X005738Y003055D01*
X005738Y003131D01*
X006116Y003131D01*
X006116Y003353D01*
X006104Y003399D01*
X006080Y003440D01*
X006047Y003474D01*
X006006Y003497D01*
X005960Y003510D01*
X005738Y003510D01*
X005738Y003132D01*
X005662Y003132D01*
X005662Y003510D01*
X005440Y003510D01*
X005394Y003497D01*
X005353Y003474D01*
X005320Y003440D01*
X005296Y003399D01*
X005284Y003353D01*
X005284Y003131D01*
X005662Y003131D01*
X005662Y003055D01*
X005284Y003055D01*
X005284Y002890D01*
X005010Y002890D01*
X005010Y003065D01*
X005035Y003125D01*
X005035Y003235D01*
X005010Y003295D01*
X005010Y003903D01*
X005147Y003903D01*
X005147Y004262D01*
X005147Y004143D02*
X005184Y004143D01*
X005184Y003984D02*
X005147Y003984D01*
X005010Y003826D02*
X006006Y003826D01*
X006164Y003667D02*
X005010Y003667D01*
X005010Y003509D02*
X005436Y003509D01*
X005662Y003509D02*
X005738Y003509D01*
X005738Y003350D02*
X005662Y003350D01*
X005662Y003192D02*
X005738Y003192D01*
X005284Y003192D02*
X005035Y003192D01*
X005010Y003350D02*
X005284Y003350D01*
X005284Y003033D02*
X005010Y003033D01*
X005964Y003509D02*
X006250Y003509D01*
X006250Y003350D02*
X006116Y003350D01*
X006116Y003192D02*
X006250Y003192D01*
X006250Y003033D02*
X006116Y003033D01*
X006116Y002875D02*
X006250Y002875D01*
X006250Y002716D02*
X006153Y002716D01*
X006630Y002716D02*
X007204Y002716D01*
X007362Y002558D02*
X006630Y002558D01*
X006630Y002399D02*
X006792Y002399D01*
X006765Y002241D02*
X006630Y002241D01*
X006630Y002082D02*
X006849Y002082D01*
X006630Y001924D02*
X007156Y001924D01*
X007315Y001765D02*
X006630Y001765D01*
X006630Y001607D02*
X007473Y001607D01*
X007439Y001448D02*
X007160Y001448D01*
X007301Y001290D02*
X007365Y001290D01*
X006920Y001448D02*
X006709Y001448D01*
X006700Y001290D02*
X006779Y001290D01*
X006771Y001131D02*
X006557Y001131D01*
X006323Y001131D02*
X006076Y001131D01*
X006076Y001290D02*
X006180Y001290D01*
X005998Y000973D02*
X006422Y000973D01*
X006394Y000814D02*
X006116Y000814D01*
X006116Y000656D02*
X006394Y000656D01*
X006394Y000497D02*
X006116Y000497D01*
X005738Y000656D02*
X005662Y000656D01*
X005662Y000814D02*
X005738Y000814D01*
X005738Y000973D02*
X005662Y000973D01*
X006744Y000973D02*
X006764Y000973D01*
X006764Y000814D02*
X006744Y000814D01*
X006744Y000656D02*
X006764Y000656D01*
X006764Y000633D02*
X007025Y000633D01*
X007025Y000613D01*
X006764Y000613D01*
X006764Y000633D01*
X006764Y000613D02*
X006764Y000410D01*
X006744Y000410D01*
X006744Y000613D01*
X006764Y000613D01*
X006764Y000497D02*
X006744Y000497D01*
X008271Y001290D02*
X008610Y001290D01*
X008472Y001448D02*
X008112Y001448D01*
X007954Y001607D02*
X008313Y001607D01*
X008155Y001765D02*
X007795Y001765D01*
X007637Y001924D02*
X007996Y001924D01*
X007838Y002082D02*
X007478Y002082D01*
X007320Y002241D02*
X007679Y002241D01*
X007521Y002399D02*
X007288Y002399D01*
X007843Y002558D02*
X008515Y002558D01*
X008345Y002716D02*
X007684Y002716D01*
X007526Y002875D02*
X008325Y002875D01*
X008424Y003033D02*
X007367Y003033D01*
X007308Y003192D02*
X010988Y003192D01*
X010830Y003350D02*
X007199Y003350D01*
X006881Y003350D02*
X006630Y003350D01*
X006630Y003192D02*
X006772Y003192D01*
X006778Y003033D02*
X006630Y003033D01*
X006630Y002875D02*
X006914Y002875D01*
X008001Y002399D02*
X008781Y002399D01*
X008939Y002241D02*
X008160Y002241D01*
X008318Y002082D02*
X009098Y002082D01*
X009256Y001924D02*
X008477Y001924D01*
X008635Y001765D02*
X009415Y001765D01*
X009573Y001607D02*
X008794Y001607D01*
X008950Y001448D02*
X009732Y001448D01*
X009890Y001290D02*
X008950Y001290D01*
X009363Y001131D02*
X009460Y001131D01*
X009954Y001131D02*
X010049Y001131D01*
X010212Y001448D02*
X012732Y001448D01*
X012711Y001290D02*
X012890Y001290D01*
X012907Y001131D02*
X013003Y001131D01*
X013371Y001290D02*
X016570Y001290D01*
X016570Y001448D02*
X013212Y001448D01*
X013054Y001607D02*
X016570Y001607D01*
X016570Y001765D02*
X012895Y001765D01*
X012737Y001924D02*
X016570Y001924D01*
X016570Y002082D02*
X012578Y002082D01*
X012420Y002241D02*
X016570Y002241D01*
X015994Y002399D02*
X012261Y002399D01*
X012103Y002558D02*
X015910Y002558D01*
X015910Y002716D02*
X011944Y002716D01*
X011786Y002875D02*
X015910Y002875D01*
X015833Y003033D02*
X011627Y003033D01*
X011640Y003192D02*
X015792Y003192D01*
X015792Y003350D02*
X011695Y003350D01*
X011837Y003509D02*
X015814Y003509D01*
X015910Y003667D02*
X011996Y003667D01*
X012154Y003826D02*
X015910Y003826D01*
X015910Y003984D02*
X012313Y003984D01*
X012471Y004143D02*
X014548Y004143D01*
X014548Y004301D02*
X012630Y004301D01*
X012788Y004460D02*
X014548Y004460D01*
X014548Y004618D02*
X012947Y004618D01*
X013105Y004777D02*
X014548Y004777D01*
X014548Y004935D02*
X013264Y004935D01*
X012431Y005411D02*
X012298Y005411D01*
X011790Y005411D02*
X011707Y005411D01*
X011632Y005252D02*
X011321Y005252D01*
X011184Y005094D02*
X011473Y005094D01*
X010660Y005411D02*
X010526Y005411D01*
X010069Y005411D02*
X009946Y005411D01*
X009403Y004777D02*
X006030Y004777D01*
X006030Y004618D02*
X009562Y004618D01*
X009720Y004460D02*
X006191Y004460D01*
X006191Y004301D02*
X009879Y004301D01*
X010037Y004143D02*
X006226Y004143D01*
X006385Y003984D02*
X010196Y003984D01*
X010354Y003826D02*
X006543Y003826D01*
X006630Y003667D02*
X010513Y003667D01*
X010671Y003509D02*
X006630Y003509D01*
X008776Y003033D02*
X011147Y003033D01*
X011305Y002875D02*
X008875Y002875D01*
X008944Y002716D02*
X011464Y002716D01*
X011622Y002558D02*
X009103Y002558D01*
X009261Y002399D02*
X011781Y002399D01*
X011939Y002241D02*
X009420Y002241D01*
X009578Y002082D02*
X012098Y002082D01*
X012256Y001924D02*
X009737Y001924D01*
X009895Y001765D02*
X012415Y001765D01*
X012573Y001607D02*
X010054Y001607D01*
X013497Y001131D02*
X013594Y001131D01*
X014088Y001131D02*
X016570Y001131D01*
X016570Y000973D02*
X014763Y000973D01*
X014765Y000970D02*
X014739Y001009D01*
X014707Y001041D01*
X014668Y001067D01*
X014626Y001084D01*
X014581Y001093D01*
X014441Y001093D01*
X014441Y000633D01*
X014442Y000633D02*
X014791Y000633D01*
X014791Y000883D01*
X014783Y000928D01*
X014765Y000970D01*
X014791Y000814D02*
X016570Y000814D01*
X016570Y000656D02*
X014791Y000656D01*
X014791Y000497D02*
X016570Y000497D01*
X014441Y000497D02*
X014421Y000497D01*
X014421Y000410D02*
X014421Y000613D01*
X014161Y000613D01*
X014161Y000633D01*
X014421Y000633D01*
X014421Y000613D01*
X014441Y000613D01*
X014441Y000410D01*
X014421Y000410D01*
X014421Y000656D02*
X014441Y000656D01*
X014441Y000814D02*
X014421Y000814D01*
X014421Y000973D02*
X014441Y000973D01*
X011184Y003509D02*
X011152Y003509D01*
X010993Y003667D02*
X011458Y003667D01*
X011617Y003826D02*
X010835Y003826D01*
X010676Y003984D02*
X011775Y003984D01*
X011934Y004143D02*
X010518Y004143D01*
X008282Y005411D02*
X008164Y005411D01*
X007707Y005411D02*
X007573Y005411D01*
X005650Y004777D02*
X005471Y004777D01*
X005495Y004618D02*
X005650Y004618D01*
X003330Y004618D02*
X003055Y004618D01*
X003055Y004565D02*
X003055Y004675D01*
X003013Y004776D01*
X002950Y004839D01*
X002950Y004850D01*
X003225Y005125D01*
X003225Y005045D01*
X003267Y004944D01*
X003330Y004881D01*
X003330Y004409D01*
X003315Y004415D01*
X003205Y004415D01*
X003104Y004373D01*
X003027Y004296D01*
X002985Y004195D01*
X002985Y004085D01*
X002993Y004066D01*
X002870Y004066D01*
X002860Y004056D01*
X002850Y004066D01*
X002614Y004066D01*
X002532Y003984D01*
X001789Y003984D01*
X001790Y003983D02*
X001503Y004270D01*
X001097Y004270D01*
X001030Y004203D01*
X001030Y004357D01*
X001097Y004290D01*
X001503Y004290D01*
X001790Y004577D01*
X001790Y004983D01*
X001503Y005270D01*
X001097Y005270D01*
X001030Y005203D01*
X001030Y005357D01*
X001097Y005290D01*
X001503Y005290D01*
X001790Y005577D01*
X001790Y005983D01*
X001623Y006150D01*
X002492Y006150D01*
X002492Y006029D01*
X002732Y006029D01*
X002732Y006029D01*
X002492Y006029D01*
X002492Y005810D01*
X002505Y005764D01*
X002528Y005723D01*
X002562Y005690D01*
X002603Y005666D01*
X002649Y005654D01*
X002732Y005654D01*
X002732Y006029D01*
X002732Y006029D01*
X002732Y005654D01*
X002813Y005654D01*
X002805Y005635D01*
X002805Y005525D01*
X002847Y005424D01*
X002924Y005347D01*
X002954Y005334D01*
X002710Y005090D01*
X002610Y004990D01*
X002610Y004839D01*
X002547Y004776D01*
X002505Y004675D01*
X002505Y004565D01*
X002547Y004464D01*
X002624Y004387D01*
X002725Y004345D01*
X002835Y004345D01*
X002936Y004387D01*
X003013Y004464D01*
X003055Y004565D01*
X003008Y004460D02*
X003330Y004460D01*
X003032Y004301D02*
X001514Y004301D01*
X001630Y004143D02*
X002985Y004143D01*
X002532Y003984D02*
X002532Y003711D01*
X002529Y003698D01*
X002532Y003693D01*
X002532Y003478D01*
X002568Y003442D01*
X002538Y003442D01*
X002278Y003442D01*
X002232Y003430D01*
X002191Y003406D01*
X002158Y003373D01*
X002134Y003332D01*
X002122Y003286D01*
X002122Y003154D01*
X002122Y003022D01*
X002134Y002976D01*
X002158Y002935D01*
X002191Y002902D01*
X002232Y002878D01*
X002278Y002866D01*
X002538Y002866D01*
X002538Y003154D01*
X002122Y003154D01*
X002538Y003154D01*
X002538Y003154D01*
X002538Y003154D01*
X002538Y003442D01*
X002538Y003154D01*
X002538Y003154D01*
X002538Y002866D01*
X002677Y002866D01*
X002466Y002654D01*
X002244Y002654D01*
X002162Y002572D01*
X002162Y002240D01*
X002244Y002158D01*
X002626Y002158D01*
X002625Y002155D01*
X002625Y002045D01*
X002637Y002017D01*
X002291Y002017D01*
X002209Y001935D01*
X002209Y001425D01*
X002291Y001343D01*
X002542Y001343D01*
X002505Y001255D01*
X002505Y001145D01*
X002517Y001117D01*
X002301Y001117D01*
X002219Y001035D01*
X002219Y000525D01*
X002301Y000443D01*
X002850Y000443D01*
X002910Y000503D01*
X002970Y000443D01*
X003519Y000443D01*
X003601Y000525D01*
X003601Y000865D01*
X003675Y000865D01*
X003776Y000907D01*
X003810Y000941D01*
X003810Y000577D01*
X003977Y000410D01*
X001623Y000410D01*
X001790Y000577D01*
X001790Y000983D01*
X001787Y000986D01*
X001930Y001130D01*
X001930Y003190D01*
X001915Y003205D01*
X001915Y003295D01*
X001873Y003396D01*
X001796Y003473D01*
X001718Y003505D01*
X001790Y003577D01*
X001790Y003983D01*
X001790Y003826D02*
X002532Y003826D01*
X002532Y003667D02*
X001790Y003667D01*
X001721Y003509D02*
X002532Y003509D01*
X002538Y003350D02*
X002538Y003350D01*
X002538Y003192D02*
X002538Y003192D01*
X002538Y003154D02*
X002710Y003154D01*
X002538Y003154D01*
X002538Y003154D01*
X002538Y003033D02*
X002538Y003033D01*
X002710Y003154D02*
X002710Y003154D01*
X002538Y002875D02*
X002538Y002875D01*
X002527Y002716D02*
X001930Y002716D01*
X001930Y002558D02*
X002162Y002558D01*
X002162Y002399D02*
X001930Y002399D01*
X001930Y002241D02*
X002162Y002241D01*
X001930Y002082D02*
X002625Y002082D01*
X002209Y001924D02*
X001930Y001924D01*
X001930Y001765D02*
X002209Y001765D01*
X002209Y001607D02*
X001930Y001607D01*
X001930Y001448D02*
X002209Y001448D01*
X001930Y001290D02*
X002519Y001290D01*
X002511Y001131D02*
X001930Y001131D01*
X001790Y000973D02*
X002219Y000973D01*
X002219Y000814D02*
X001790Y000814D01*
X001790Y000656D02*
X002219Y000656D01*
X002247Y000497D02*
X001710Y000497D01*
X002904Y000497D02*
X002916Y000497D01*
X003573Y000497D02*
X003890Y000497D01*
X003810Y000656D02*
X003601Y000656D01*
X003601Y000814D02*
X003810Y000814D01*
X002246Y002875D02*
X001930Y002875D01*
X001930Y003033D02*
X002122Y003033D01*
X002122Y003192D02*
X001929Y003192D01*
X001892Y003350D02*
X002145Y003350D01*
X001086Y004301D02*
X001030Y004301D01*
X001672Y004460D02*
X002552Y004460D01*
X002505Y004618D02*
X001790Y004618D01*
X001790Y004777D02*
X002548Y004777D01*
X002610Y004935D02*
X001790Y004935D01*
X001679Y005094D02*
X002713Y005094D01*
X002872Y005252D02*
X001521Y005252D01*
X001623Y005411D02*
X002861Y005411D01*
X002805Y005569D02*
X001782Y005569D01*
X001790Y005728D02*
X002526Y005728D01*
X002732Y005728D02*
X002732Y005728D01*
X002732Y005886D02*
X002732Y005886D01*
X002492Y005886D02*
X001790Y005886D01*
X001728Y006045D02*
X002492Y006045D01*
X001079Y005252D02*
X001030Y005252D01*
X003035Y004935D02*
X003276Y004935D01*
X003225Y005094D02*
X003194Y005094D01*
X003330Y004777D02*
X003012Y004777D01*
D20*
X002780Y003720D02*
X002732Y003731D01*
X002780Y003720D02*
X002780Y003420D01*
X002900Y003300D01*
X002900Y003180D01*
X003620Y003180D01*
X003620Y002820D02*
X004220Y003420D01*
X004220Y003720D01*
X004268Y003731D01*
X005120Y003540D02*
X005180Y003540D01*
X005210Y003570D01*
X005660Y003120D01*
X005700Y003093D01*
X005900Y002700D02*
X004820Y002700D01*
X004820Y003180D01*
X004760Y003180D01*
X004820Y003180D02*
X004820Y006000D01*
X004280Y006000D01*
X004268Y006029D01*
X004820Y006000D02*
X005120Y006000D01*
X005165Y005980D01*
X005835Y005980D02*
X005840Y005940D01*
X005840Y005160D01*
X005835Y005130D01*
X005840Y005100D01*
X005840Y004320D01*
X005835Y004280D01*
X005840Y004260D01*
X006440Y003660D01*
X006440Y001380D01*
X007040Y001200D02*
X007040Y000960D01*
X007280Y000720D01*
X007340Y000720D01*
X007345Y000682D01*
X006740Y000660D02*
X006740Y003660D01*
X006740Y005880D01*
X005180Y005100D02*
X005165Y005130D01*
X005180Y005100D02*
X005180Y004320D01*
X005165Y004280D01*
X005180Y004260D01*
X005180Y003600D01*
X005210Y003570D01*
X003620Y002820D02*
X003562Y002780D01*
X003560Y002760D01*
X002900Y002100D01*
X002538Y002406D02*
X002540Y002460D01*
X002900Y002820D01*
X002900Y003180D01*
X002540Y003180D02*
X002538Y003154D01*
X002480Y003120D01*
X002480Y002820D01*
X002538Y003154D02*
X002480Y003180D01*
X002480Y005760D01*
X002720Y006000D01*
X002732Y006029D01*
X005900Y002700D02*
X006080Y002520D01*
X006080Y002100D01*
X006140Y002040D01*
X005720Y000600D02*
X005700Y000567D01*
X005720Y000600D02*
X006680Y000600D01*
X002780Y000960D02*
X002780Y001200D01*
X002780Y000960D02*
X002600Y000780D01*
X002575Y000780D01*
X011420Y003360D02*
X013520Y005460D01*
X013520Y005580D01*
X013760Y005820D01*
X013820Y005820D01*
X013841Y005878D01*
X014420Y005880D02*
X014420Y003660D01*
X012080Y003660D01*
X014420Y003660D02*
X014420Y000660D01*
M02*
