G75*
%MOIN*%
%OFA0B0*%
%FSLAX24Y24*%
%IPPOS*%
%LPD*%
%AMOC8*
5,1,8,0,0,1.08239X$1,22.5*
%
%ADD10C,0.0000*%
%ADD11C,0.0040*%
%ADD12C,0.0030*%
%ADD13C,0.0050*%
%ADD14C,0.0060*%
%ADD15R,0.0400X0.0300*%
%ADD16R,0.0400X0.0020*%
%ADD17R,0.0020X0.0280*%
%ADD18C,0.0025*%
D10*
X000800Y000180D02*
X000800Y006380D01*
X016800Y006380D01*
X016800Y000180D01*
X000800Y000180D01*
D11*
X001948Y000504D02*
X001987Y000465D01*
X001948Y000504D02*
X001948Y000581D01*
X001987Y000620D01*
X002025Y000620D01*
X002064Y000581D01*
X002064Y000504D01*
X002103Y000465D01*
X002141Y000465D01*
X002180Y000504D01*
X002180Y000581D01*
X002141Y000620D01*
X001948Y000716D02*
X001948Y000870D01*
X001948Y000793D02*
X002180Y000793D01*
X002141Y000966D02*
X002180Y001005D01*
X002180Y001082D01*
X002141Y001121D01*
X001987Y001121D01*
X001948Y001082D01*
X001948Y001005D01*
X001987Y000966D01*
X001987Y001467D02*
X001948Y001506D01*
X001948Y001583D01*
X001987Y001622D01*
X002141Y001622D01*
X002180Y001583D01*
X002180Y001506D01*
X002141Y001467D01*
X002141Y001717D02*
X002180Y001756D01*
X002180Y001834D01*
X002141Y001872D01*
X001987Y001872D01*
X001948Y001834D01*
X001948Y001756D01*
X001987Y001717D01*
X001948Y001968D02*
X002103Y001968D01*
X002180Y002045D01*
X002103Y002123D01*
X001948Y002123D01*
X001987Y002469D02*
X001948Y002508D01*
X001948Y002624D01*
X002180Y002624D01*
X002180Y002508D01*
X002141Y002469D01*
X001987Y002469D01*
X001948Y002719D02*
X002180Y002719D01*
X001948Y002874D01*
X002180Y002874D01*
X002141Y002970D02*
X002064Y002970D01*
X002064Y003047D01*
X002141Y002970D02*
X002180Y003008D01*
X002180Y003086D01*
X002141Y003125D01*
X001987Y003125D01*
X001948Y003086D01*
X001948Y003008D01*
X001987Y002970D01*
X001987Y003471D02*
X001948Y003509D01*
X001948Y003625D01*
X002180Y003625D01*
X002180Y003509D01*
X002141Y003471D01*
X001987Y003471D01*
X001948Y003721D02*
X002180Y003876D01*
X002180Y003721D02*
X001948Y003876D01*
X001948Y003972D02*
X001948Y004126D01*
X001948Y004049D02*
X002180Y004049D01*
X002141Y004472D02*
X001987Y004472D01*
X001948Y004511D01*
X001948Y004627D01*
X002180Y004627D01*
X002180Y004511D01*
X002141Y004472D01*
X002180Y004723D02*
X001948Y004878D01*
X001987Y004973D02*
X002064Y004973D01*
X002103Y005012D01*
X002103Y005128D01*
X002180Y005128D02*
X001948Y005128D01*
X001948Y005012D01*
X001987Y004973D01*
X002103Y005051D02*
X002180Y004973D01*
X002180Y004878D02*
X001948Y004723D01*
X001987Y005474D02*
X001948Y005513D01*
X001948Y005590D01*
X001987Y005629D01*
X002025Y005629D01*
X002064Y005590D01*
X002064Y005513D01*
X002103Y005474D01*
X002141Y005474D01*
X002180Y005513D01*
X002180Y005590D01*
X002141Y005629D01*
X001948Y005725D02*
X001948Y005880D01*
X001948Y005802D02*
X002180Y005802D01*
X002180Y005975D02*
X002103Y006053D01*
X002103Y006014D02*
X002103Y006130D01*
X002180Y006130D02*
X001948Y006130D01*
X001948Y006014D01*
X001987Y005975D01*
X002064Y005975D01*
X002103Y006014D01*
X006220Y003014D02*
X006220Y002937D01*
X006259Y002898D01*
X006336Y002898D02*
X006375Y002975D01*
X006375Y003014D01*
X006336Y003053D01*
X006259Y003053D01*
X006220Y003014D01*
X006452Y003053D02*
X006452Y002898D01*
X006336Y002898D01*
X006259Y002802D02*
X006413Y002802D01*
X006452Y002764D01*
X006452Y002686D01*
X006413Y002647D01*
X006259Y002647D01*
X006220Y002686D01*
X006220Y002764D01*
X006259Y002802D01*
X006220Y002558D02*
X006220Y002480D01*
X006220Y002519D02*
X006452Y002519D01*
X006452Y002480D02*
X006452Y002558D01*
X006413Y002385D02*
X006336Y002385D01*
X006297Y002346D01*
X006297Y002230D01*
X006220Y002230D02*
X006452Y002230D01*
X006452Y002346D01*
X006413Y002385D01*
X006413Y001286D02*
X006336Y001286D01*
X006297Y001247D01*
X006297Y001131D01*
X006220Y001131D02*
X006452Y001131D01*
X006452Y001247D01*
X006413Y001286D01*
X006297Y001208D02*
X006220Y001286D01*
X006220Y001035D02*
X006452Y001035D01*
X006297Y000958D02*
X006220Y001035D01*
X006297Y000958D02*
X006220Y000880D01*
X006452Y000880D01*
X006413Y000785D02*
X006336Y000785D01*
X006297Y000746D01*
X006297Y000630D01*
X006220Y000630D02*
X006452Y000630D01*
X006452Y000746D01*
X006413Y000785D01*
D12*
X013353Y003745D02*
X013353Y003930D01*
X013415Y003992D01*
X013476Y003930D01*
X013476Y003745D01*
X013600Y003745D02*
X013600Y003992D01*
X013538Y003992D01*
X013476Y003930D01*
X013721Y003930D02*
X013783Y003992D01*
X013906Y003992D01*
X013968Y003930D01*
X013968Y003807D01*
X013906Y003745D01*
X013783Y003745D01*
X013721Y003807D01*
X013721Y003930D01*
X014090Y003992D02*
X014275Y003992D01*
X014336Y003930D01*
X014336Y003807D01*
X014275Y003745D01*
X014090Y003745D01*
X014459Y003745D02*
X014521Y003745D01*
X014521Y003807D01*
X014459Y003807D01*
X014459Y003745D01*
X014642Y003745D02*
X014827Y003745D01*
X014889Y003807D01*
X014889Y003992D01*
X015010Y003930D02*
X015010Y003868D01*
X015257Y003868D01*
X015257Y003807D02*
X015257Y003930D01*
X015196Y003992D01*
X015072Y003992D01*
X015010Y003930D01*
X015072Y003745D02*
X015196Y003745D01*
X015257Y003807D01*
X015379Y003745D02*
X015379Y003930D01*
X015440Y003992D01*
X015626Y003992D01*
X015626Y003745D01*
X015748Y003745D02*
X015809Y003807D01*
X015809Y004054D01*
X015748Y003992D02*
X015871Y003992D01*
X015993Y003930D02*
X015993Y003868D01*
X016239Y003868D01*
X016239Y003807D02*
X016178Y003745D01*
X016054Y003745D01*
X016239Y003807D02*
X016239Y003930D01*
X016178Y003992D01*
X016054Y003992D01*
X015993Y003930D01*
X016362Y003992D02*
X016362Y003683D01*
X016423Y003622D01*
X016485Y003622D01*
X016362Y004115D02*
X016362Y004177D01*
X016485Y004345D02*
X016362Y004468D01*
X016238Y004345D01*
X016238Y004715D01*
X016117Y004715D02*
X015870Y004715D01*
X015993Y004715D02*
X015993Y004345D01*
X015748Y004345D02*
X015501Y004345D01*
X015380Y004345D02*
X015133Y004592D01*
X015133Y004654D01*
X015195Y004715D01*
X015318Y004715D01*
X015380Y004654D01*
X015625Y004715D02*
X015625Y004345D01*
X015380Y004345D02*
X015133Y004345D01*
X014643Y004407D02*
X014582Y004345D01*
X014458Y004345D01*
X014397Y004407D01*
X014397Y004715D01*
X014275Y004592D02*
X014152Y004715D01*
X014028Y004592D01*
X014028Y004345D01*
X013907Y004345D02*
X013907Y004715D01*
X013722Y004715D01*
X013660Y004654D01*
X013660Y004530D01*
X013722Y004468D01*
X013907Y004468D01*
X013783Y004468D02*
X013660Y004345D01*
X013415Y004345D02*
X013415Y004715D01*
X013538Y004715D02*
X013292Y004715D01*
X012802Y004715D02*
X012617Y004715D01*
X012555Y004654D01*
X012555Y004592D01*
X012617Y004530D01*
X012802Y004530D01*
X012617Y004530D02*
X012555Y004468D01*
X012555Y004407D01*
X012617Y004345D01*
X012802Y004345D01*
X012802Y004715D01*
X012434Y004715D02*
X012248Y004715D01*
X012187Y004654D01*
X012187Y004592D01*
X012248Y004530D01*
X012434Y004530D01*
X012248Y004530D02*
X012187Y004468D01*
X012187Y004407D01*
X012248Y004345D01*
X012434Y004345D01*
X012434Y004715D01*
X011697Y004592D02*
X011573Y004345D01*
X011450Y004592D01*
X011329Y004654D02*
X011267Y004715D01*
X011143Y004715D01*
X011082Y004654D01*
X011082Y004592D01*
X011329Y004345D01*
X011082Y004345D01*
X010960Y004345D02*
X010960Y004407D01*
X010899Y004407D01*
X010899Y004345D01*
X010960Y004345D01*
X010776Y004345D02*
X010529Y004345D01*
X010653Y004345D02*
X010653Y004715D01*
X010776Y004592D01*
X014028Y004530D02*
X014275Y004530D01*
X014275Y004592D02*
X014275Y004345D01*
X014643Y004407D02*
X014643Y004715D01*
X015625Y004715D02*
X015748Y004592D01*
X016485Y004715D02*
X016485Y004345D01*
X014766Y003622D02*
X014704Y003622D01*
X014642Y003683D01*
X014642Y003992D01*
D13*
X001850Y005480D02*
X001850Y006130D01*
X001850Y001130D02*
X001850Y000480D01*
D14*
X005306Y000665D02*
X005306Y001295D01*
X005306Y001314D01*
X005310Y001333D01*
X005316Y001351D01*
X005326Y001367D01*
X005338Y001382D01*
X005352Y001394D01*
X005369Y001404D01*
X005386Y001410D01*
X005405Y001414D01*
X005405Y001413D02*
X005995Y001413D01*
X005996Y001414D02*
X006014Y001410D01*
X006032Y001404D01*
X006049Y001394D01*
X006063Y001382D01*
X006076Y001367D01*
X006085Y001351D01*
X006091Y001333D01*
X006095Y001314D01*
X006095Y001295D01*
X006094Y001295D02*
X006094Y000665D01*
X006094Y000646D01*
X006090Y000627D01*
X006084Y000609D01*
X006074Y000593D01*
X006062Y000578D01*
X006048Y000566D01*
X006031Y000556D01*
X006014Y000550D01*
X005995Y000546D01*
X005995Y000547D02*
X005405Y000547D01*
X005405Y000546D02*
X005386Y000550D01*
X005369Y000556D01*
X005352Y000566D01*
X005338Y000578D01*
X005326Y000593D01*
X005316Y000609D01*
X005310Y000627D01*
X005306Y000646D01*
X005306Y000665D01*
X005405Y002247D02*
X005995Y002247D01*
X005995Y002246D02*
X006014Y002250D01*
X006031Y002256D01*
X006048Y002266D01*
X006062Y002278D01*
X006074Y002293D01*
X006084Y002309D01*
X006090Y002327D01*
X006094Y002346D01*
X006094Y002365D01*
X006094Y002995D01*
X006095Y002995D02*
X006095Y003014D01*
X006091Y003033D01*
X006085Y003051D01*
X006076Y003067D01*
X006063Y003082D01*
X006049Y003094D01*
X006032Y003104D01*
X006014Y003110D01*
X005996Y003114D01*
X005995Y003113D02*
X005405Y003113D01*
X005405Y003114D02*
X005386Y003110D01*
X005369Y003104D01*
X005352Y003094D01*
X005338Y003082D01*
X005326Y003067D01*
X005316Y003051D01*
X005310Y003033D01*
X005306Y003014D01*
X005306Y002995D01*
X005306Y002365D01*
X005306Y002346D01*
X005310Y002327D01*
X005316Y002309D01*
X005326Y002293D01*
X005338Y002278D01*
X005352Y002266D01*
X005369Y002256D01*
X005386Y002250D01*
X005405Y002246D01*
X014620Y005140D02*
X014720Y005120D01*
X014760Y005030D01*
X014700Y004940D01*
X014770Y004880D01*
X014850Y004940D01*
X014890Y004920D01*
X014950Y005080D01*
X014900Y005070D02*
X014840Y005170D01*
X014880Y005280D01*
X014990Y005340D01*
X015120Y005300D01*
X015160Y005170D01*
X015120Y005060D01*
X015150Y004960D01*
X015240Y004910D01*
X015290Y004940D01*
X015230Y005040D01*
X015280Y005150D01*
X015380Y005170D01*
X015380Y005200D01*
X015280Y005240D01*
X015240Y005350D01*
X015290Y005440D01*
X015250Y005470D01*
X015170Y005410D01*
X015060Y005470D01*
X015030Y005560D01*
X014980Y005560D01*
X014950Y005450D01*
X014860Y005410D01*
X014780Y005470D01*
X014730Y005430D01*
X014780Y005350D01*
X014730Y005230D01*
X014650Y005210D01*
X014640Y005160D01*
X014730Y005140D01*
X014780Y005030D01*
X014740Y004950D01*
X014780Y004920D01*
X014870Y004970D01*
X014900Y005070D01*
X014886Y005094D02*
X014751Y005094D01*
X014777Y005036D02*
X014890Y005036D01*
X014872Y004977D02*
X014754Y004977D01*
X014674Y005153D02*
X014850Y005153D01*
X014855Y005211D02*
X014654Y005211D01*
X014620Y005230D02*
X014720Y005250D01*
X014760Y005340D01*
X014700Y005430D01*
X014770Y005500D01*
X014860Y005430D01*
X014940Y005470D01*
X014960Y005580D01*
X015050Y005580D01*
X015080Y005470D01*
X015160Y005430D01*
X015250Y005500D01*
X015320Y005430D01*
X015260Y005340D01*
X015290Y005250D01*
X015400Y005230D01*
X015400Y005140D01*
X015300Y005120D01*
X015260Y005030D01*
X015320Y004940D01*
X015250Y004880D01*
X015170Y004940D01*
X015130Y004920D01*
X015070Y005080D01*
X015132Y005094D02*
X015255Y005094D01*
X015233Y005036D02*
X015127Y005036D01*
X015145Y004977D02*
X015268Y004977D01*
X015254Y004919D02*
X015225Y004919D01*
X015293Y005153D02*
X015154Y005153D01*
X015147Y005211D02*
X015352Y005211D01*
X015269Y005270D02*
X015129Y005270D01*
X015029Y005328D02*
X015248Y005328D01*
X015260Y005387D02*
X014757Y005387D01*
X014749Y005445D02*
X014813Y005445D01*
X014939Y005445D02*
X015106Y005445D01*
X015049Y005504D02*
X014965Y005504D01*
X014968Y005328D02*
X014771Y005328D01*
X014746Y005270D02*
X014876Y005270D01*
X014950Y005080D02*
X014933Y005092D01*
X014918Y005107D01*
X014905Y005124D01*
X014896Y005143D01*
X014891Y005164D01*
X014889Y005185D01*
X014891Y005206D01*
X014896Y005226D01*
X014905Y005245D01*
X014917Y005263D01*
X014932Y005278D01*
X014949Y005290D01*
X014969Y005299D01*
X014989Y005304D01*
X015010Y005306D01*
X015031Y005304D01*
X015051Y005299D01*
X015071Y005290D01*
X015088Y005278D01*
X015103Y005263D01*
X015115Y005245D01*
X015124Y005226D01*
X015129Y005206D01*
X015131Y005185D01*
X015129Y005164D01*
X015124Y005143D01*
X015115Y005124D01*
X015102Y005107D01*
X015087Y005092D01*
X015070Y005080D01*
X014620Y005140D02*
X014620Y005230D01*
X015217Y005445D02*
X015283Y005445D01*
D15*
X015800Y005430D03*
X015800Y005030D03*
X016300Y005030D03*
D16*
X015800Y005690D03*
D17*
X015610Y005840D03*
D18*
X015650Y005730D02*
X015700Y006030D01*
X015750Y005730D01*
X015800Y006030D01*
X015850Y005730D01*
X015900Y006030D01*
X015950Y005730D01*
X016000Y006030D01*
X016050Y005730D01*
X015950Y005730D01*
X015850Y005730D01*
X015750Y005730D01*
X015650Y005730D01*
X015650Y006030D01*
X015700Y006030D01*
X015800Y006030D01*
X015900Y006030D01*
X016000Y006030D01*
X016050Y006030D01*
X016050Y005730D01*
M02*
