G75*
G70*
%OFA0B0*%
%FSLAX24Y24*%
%IPPOS*%
%LPD*%
%AMOC8*
5,1,8,0,0,1.08239X$1,22.5*
%
%ADD10C,0.0108*%
%ADD11C,0.0072*%
%ADD12OC8,0.0700*%
%ADD13C,0.0600*%
%ADD14OC8,0.0480*%
%ADD15R,0.0460X0.0630*%
%ADD16C,0.0100*%
%ADD17C,0.0340*%
%ADD18C,0.0160*%
%ADD19OC8,0.0340*%
D10*
X009978Y002603D02*
X009978Y003077D01*
X009978Y002603D02*
X009726Y002603D01*
X009726Y003077D01*
X009978Y003077D01*
X009978Y002710D02*
X009726Y002710D01*
X009726Y002817D02*
X009978Y002817D01*
X009978Y002924D02*
X009726Y002924D01*
X009726Y003031D02*
X009978Y003031D01*
X010569Y003195D02*
X010569Y002603D01*
X010317Y002603D01*
X010317Y003195D01*
X010569Y003195D01*
X010569Y002710D02*
X010317Y002710D01*
X010317Y002817D02*
X010569Y002817D01*
X010569Y002924D02*
X010317Y002924D01*
X010317Y003031D02*
X010569Y003031D01*
X010569Y003138D02*
X010317Y003138D01*
X011159Y003195D02*
X011159Y002603D01*
X010907Y002603D01*
X010907Y003195D01*
X011159Y003195D01*
X011159Y002710D02*
X010907Y002710D01*
X010907Y002817D02*
X011159Y002817D01*
X011159Y002924D02*
X010907Y002924D01*
X010907Y003031D02*
X011159Y003031D01*
X011159Y003138D02*
X010907Y003138D01*
X011750Y003195D02*
X011750Y002603D01*
X011498Y002603D01*
X011498Y003195D01*
X011750Y003195D01*
X011750Y002710D02*
X011498Y002710D01*
X011498Y002817D02*
X011750Y002817D01*
X011750Y002924D02*
X011498Y002924D01*
X011498Y003031D02*
X011750Y003031D01*
X011750Y003138D02*
X011498Y003138D01*
X012340Y003195D02*
X012340Y002603D01*
X012088Y002603D01*
X012088Y003195D01*
X012340Y003195D01*
X012340Y002710D02*
X012088Y002710D01*
X012088Y002817D02*
X012340Y002817D01*
X012340Y002924D02*
X012088Y002924D01*
X012088Y003031D02*
X012340Y003031D01*
X012340Y003138D02*
X012088Y003138D01*
X012931Y003195D02*
X012931Y002603D01*
X012679Y002603D01*
X012679Y003195D01*
X012931Y003195D01*
X012931Y002710D02*
X012679Y002710D01*
X012679Y002817D02*
X012931Y002817D01*
X012931Y002924D02*
X012679Y002924D01*
X012679Y003031D02*
X012931Y003031D01*
X012931Y003138D02*
X012679Y003138D01*
X013521Y003195D02*
X013521Y002603D01*
X013269Y002603D01*
X013269Y003195D01*
X013521Y003195D01*
X013521Y002710D02*
X013269Y002710D01*
X013269Y002817D02*
X013521Y002817D01*
X013521Y002924D02*
X013269Y002924D01*
X013269Y003031D02*
X013521Y003031D01*
X013521Y003138D02*
X013269Y003138D01*
X014112Y003195D02*
X014112Y002603D01*
X013860Y002603D01*
X013860Y003195D01*
X014112Y003195D01*
X014112Y002710D02*
X013860Y002710D01*
X013860Y002817D02*
X014112Y002817D01*
X014112Y002924D02*
X013860Y002924D01*
X013860Y003031D02*
X014112Y003031D01*
X014112Y003138D02*
X013860Y003138D01*
X014703Y003195D02*
X014703Y002603D01*
X014451Y002603D01*
X014451Y003195D01*
X014703Y003195D01*
X014703Y002710D02*
X014451Y002710D01*
X014451Y002817D02*
X014703Y002817D01*
X014703Y002924D02*
X014451Y002924D01*
X014451Y003031D02*
X014703Y003031D01*
X014703Y003138D02*
X014451Y003138D01*
X015293Y003195D02*
X015293Y002603D01*
X015041Y002603D01*
X015041Y003195D01*
X015293Y003195D01*
X015293Y002710D02*
X015041Y002710D01*
X015041Y002817D02*
X015293Y002817D01*
X015293Y002924D02*
X015041Y002924D01*
X015041Y003031D02*
X015293Y003031D01*
X015293Y003138D02*
X015041Y003138D01*
X015884Y003195D02*
X015884Y002603D01*
X015632Y002603D01*
X015632Y003195D01*
X015884Y003195D01*
X015884Y002710D02*
X015632Y002710D01*
X015632Y002817D02*
X015884Y002817D01*
X015884Y002924D02*
X015632Y002924D01*
X015632Y003031D02*
X015884Y003031D01*
X015884Y003138D02*
X015632Y003138D01*
X016474Y003195D02*
X016474Y002603D01*
X016222Y002603D01*
X016222Y003195D01*
X016474Y003195D01*
X016474Y002710D02*
X016222Y002710D01*
X016222Y002817D02*
X016474Y002817D01*
X016474Y002924D02*
X016222Y002924D01*
X016222Y003031D02*
X016474Y003031D01*
X016474Y003138D02*
X016222Y003138D01*
X017065Y003195D02*
X017065Y002603D01*
X016813Y002603D01*
X016813Y003195D01*
X017065Y003195D01*
X017065Y002710D02*
X016813Y002710D01*
X016813Y002817D02*
X017065Y002817D01*
X017065Y002924D02*
X016813Y002924D01*
X016813Y003031D02*
X017065Y003031D01*
X017065Y003138D02*
X016813Y003138D01*
X017655Y003077D02*
X017655Y002603D01*
X017403Y002603D01*
X017403Y003077D01*
X017655Y003077D01*
X017655Y002710D02*
X017403Y002710D01*
X017403Y002817D02*
X017655Y002817D01*
X017655Y002924D02*
X017403Y002924D01*
X017403Y003031D02*
X017655Y003031D01*
X019241Y004781D02*
X019715Y004781D01*
X019241Y004781D02*
X019241Y005033D01*
X019715Y005033D01*
X019715Y004781D01*
X019715Y004888D02*
X019241Y004888D01*
X019241Y004995D02*
X019715Y004995D01*
X019715Y005372D02*
X019123Y005372D01*
X019123Y005624D01*
X019715Y005624D01*
X019715Y005372D01*
X019715Y005479D02*
X019123Y005479D01*
X019123Y005586D02*
X019715Y005586D01*
X019715Y005962D02*
X019241Y005962D01*
X019241Y006214D01*
X019715Y006214D01*
X019715Y005962D01*
X019715Y006069D02*
X019241Y006069D01*
X019241Y006176D02*
X019715Y006176D01*
X017065Y007800D02*
X017065Y008392D01*
X017065Y007800D02*
X016813Y007800D01*
X016813Y008392D01*
X017065Y008392D01*
X017065Y007907D02*
X016813Y007907D01*
X016813Y008014D02*
X017065Y008014D01*
X017065Y008121D02*
X016813Y008121D01*
X016813Y008228D02*
X017065Y008228D01*
X017065Y008335D02*
X016813Y008335D01*
X016474Y008392D02*
X016474Y007800D01*
X016222Y007800D01*
X016222Y008392D01*
X016474Y008392D01*
X016474Y007907D02*
X016222Y007907D01*
X016222Y008014D02*
X016474Y008014D01*
X016474Y008121D02*
X016222Y008121D01*
X016222Y008228D02*
X016474Y008228D01*
X016474Y008335D02*
X016222Y008335D01*
X015884Y008392D02*
X015884Y007800D01*
X015632Y007800D01*
X015632Y008392D01*
X015884Y008392D01*
X015884Y007907D02*
X015632Y007907D01*
X015632Y008014D02*
X015884Y008014D01*
X015884Y008121D02*
X015632Y008121D01*
X015632Y008228D02*
X015884Y008228D01*
X015884Y008335D02*
X015632Y008335D01*
X015293Y008392D02*
X015293Y007800D01*
X015041Y007800D01*
X015041Y008392D01*
X015293Y008392D01*
X015293Y007907D02*
X015041Y007907D01*
X015041Y008014D02*
X015293Y008014D01*
X015293Y008121D02*
X015041Y008121D01*
X015041Y008228D02*
X015293Y008228D01*
X015293Y008335D02*
X015041Y008335D01*
X014703Y008392D02*
X014703Y007800D01*
X014451Y007800D01*
X014451Y008392D01*
X014703Y008392D01*
X014703Y007907D02*
X014451Y007907D01*
X014451Y008014D02*
X014703Y008014D01*
X014703Y008121D02*
X014451Y008121D01*
X014451Y008228D02*
X014703Y008228D01*
X014703Y008335D02*
X014451Y008335D01*
X014112Y008392D02*
X014112Y007800D01*
X013860Y007800D01*
X013860Y008392D01*
X014112Y008392D01*
X014112Y007907D02*
X013860Y007907D01*
X013860Y008014D02*
X014112Y008014D01*
X014112Y008121D02*
X013860Y008121D01*
X013860Y008228D02*
X014112Y008228D01*
X014112Y008335D02*
X013860Y008335D01*
X013521Y008392D02*
X013521Y007800D01*
X013269Y007800D01*
X013269Y008392D01*
X013521Y008392D01*
X013521Y007907D02*
X013269Y007907D01*
X013269Y008014D02*
X013521Y008014D01*
X013521Y008121D02*
X013269Y008121D01*
X013269Y008228D02*
X013521Y008228D01*
X013521Y008335D02*
X013269Y008335D01*
X012340Y008392D02*
X012340Y007800D01*
X012088Y007800D01*
X012088Y008392D01*
X012340Y008392D01*
X012340Y007907D02*
X012088Y007907D01*
X012088Y008014D02*
X012340Y008014D01*
X012340Y008121D02*
X012088Y008121D01*
X012088Y008228D02*
X012340Y008228D01*
X012340Y008335D02*
X012088Y008335D01*
X011750Y008392D02*
X011750Y007800D01*
X011498Y007800D01*
X011498Y008392D01*
X011750Y008392D01*
X011750Y007907D02*
X011498Y007907D01*
X011498Y008014D02*
X011750Y008014D01*
X011750Y008121D02*
X011498Y008121D01*
X011498Y008228D02*
X011750Y008228D01*
X011750Y008335D02*
X011498Y008335D01*
X011159Y008392D02*
X011159Y007800D01*
X010907Y007800D01*
X010907Y008392D01*
X011159Y008392D01*
X011159Y007907D02*
X010907Y007907D01*
X010907Y008014D02*
X011159Y008014D01*
X011159Y008121D02*
X010907Y008121D01*
X010907Y008228D02*
X011159Y008228D01*
X011159Y008335D02*
X010907Y008335D01*
X010569Y008392D02*
X010569Y007800D01*
X010317Y007800D01*
X010317Y008392D01*
X010569Y008392D01*
X010569Y007907D02*
X010317Y007907D01*
X010317Y008014D02*
X010569Y008014D01*
X010569Y008121D02*
X010317Y008121D01*
X010317Y008228D02*
X010569Y008228D01*
X010569Y008335D02*
X010317Y008335D01*
X009978Y008392D02*
X009978Y007918D01*
X009726Y007918D01*
X009726Y008392D01*
X009978Y008392D01*
X009978Y008025D02*
X009726Y008025D01*
X009726Y008132D02*
X009978Y008132D01*
X009978Y008239D02*
X009726Y008239D01*
X009726Y008346D02*
X009978Y008346D01*
X017655Y008392D02*
X017655Y007918D01*
X017403Y007918D01*
X017403Y008392D01*
X017655Y008392D01*
X017655Y008025D02*
X017403Y008025D01*
X017403Y008132D02*
X017655Y008132D01*
X017655Y008239D02*
X017403Y008239D01*
X017403Y008346D02*
X017655Y008346D01*
D11*
X012949Y008410D02*
X012949Y007782D01*
X012661Y007782D01*
X012661Y008410D01*
X012949Y008410D01*
X012949Y007853D02*
X012661Y007853D01*
X012661Y007924D02*
X012949Y007924D01*
X012949Y007995D02*
X012661Y007995D01*
X012661Y008066D02*
X012949Y008066D01*
X012949Y008137D02*
X012661Y008137D01*
X012661Y008208D02*
X012949Y008208D01*
X012949Y008279D02*
X012661Y008279D01*
X012661Y008350D02*
X012949Y008350D01*
D12*
X012498Y009498D03*
X011498Y009498D03*
X010498Y009498D03*
X009498Y009498D03*
X008498Y009498D03*
X007498Y009498D03*
X006498Y009498D03*
X005498Y009498D03*
X001498Y007998D03*
X001498Y006998D03*
X001498Y005998D03*
X001498Y004998D03*
X001498Y003998D03*
X001498Y002998D03*
X005498Y002998D03*
X005498Y003998D03*
X005498Y004998D03*
X005498Y005998D03*
X013498Y009498D03*
X014498Y009498D03*
X015498Y009498D03*
X016498Y009498D03*
X017498Y009498D03*
X018498Y009498D03*
X019498Y009498D03*
X020498Y009498D03*
X020498Y006498D03*
X020498Y005498D03*
X020498Y004498D03*
X020498Y001498D03*
X019498Y001498D03*
X018498Y001498D03*
X017498Y001498D03*
X016498Y001498D03*
X015498Y001498D03*
X014498Y001498D03*
X013498Y001498D03*
X012498Y001498D03*
X011498Y001498D03*
X010498Y001498D03*
X009498Y001498D03*
X008498Y001498D03*
X007498Y001498D03*
D13*
X007008Y002868D02*
X007008Y003468D01*
X008788Y003468D02*
X008788Y002868D01*
X008788Y005428D02*
X008788Y006028D01*
X007008Y006028D02*
X007008Y005428D01*
D14*
X007698Y006798D03*
X008698Y006798D03*
X008698Y007998D03*
X007698Y007998D03*
X004498Y009398D03*
X001498Y009398D03*
D15*
X002698Y009398D03*
X003298Y009398D03*
D16*
X004498Y009398D01*
X004598Y009498D01*
X005498Y009498D01*
X006098Y008698D02*
X006398Y008998D01*
X007098Y008998D01*
X007498Y009398D01*
X007498Y009498D01*
X007498Y009398D02*
X008098Y008798D01*
X008898Y008798D01*
X009498Y008198D01*
X009798Y008198D01*
X009852Y008155D01*
X010398Y008098D02*
X010443Y008096D01*
X010398Y008098D02*
X010398Y008298D01*
X009698Y008998D01*
X008898Y008998D01*
X008498Y009398D01*
X008498Y009498D01*
X009498Y009498D02*
X009798Y009488D01*
X010998Y008278D01*
X010998Y008098D01*
X011033Y008096D01*
X011598Y008098D02*
X011598Y008298D01*
X010498Y009398D01*
X010498Y009498D01*
X011498Y009498D02*
X011498Y009398D01*
X012198Y008698D01*
X012198Y008098D01*
X012214Y008096D01*
X012198Y007998D01*
X012198Y007328D01*
X011098Y006598D02*
X010898Y006798D01*
X008698Y006798D01*
X008698Y007998D01*
X007698Y007998D02*
X007698Y007898D01*
X007198Y008398D01*
X006998Y008398D01*
X006798Y008198D01*
X006398Y008198D01*
X006098Y008498D01*
X006098Y008698D01*
X006498Y008598D02*
X008698Y008598D01*
X010298Y006998D01*
X014998Y006998D01*
X016298Y005698D01*
X016298Y002998D01*
X016348Y002899D01*
X016398Y002898D01*
X016398Y002698D01*
X016898Y002198D01*
X017598Y002198D01*
X018298Y001498D01*
X018498Y001498D01*
X017498Y001498D02*
X017498Y001598D01*
X017098Y001998D01*
X016498Y001998D01*
X015798Y002698D01*
X015798Y002898D01*
X015758Y002899D01*
X015198Y002898D02*
X015198Y002698D01*
X016398Y001498D01*
X016498Y001498D01*
X015498Y001498D02*
X015498Y001698D01*
X014598Y002598D01*
X014598Y002898D01*
X014577Y002899D01*
X015167Y002899D02*
X015198Y002898D01*
X013998Y002898D02*
X013986Y002899D01*
X013998Y002898D02*
X013998Y002098D01*
X014498Y001598D01*
X014498Y001498D01*
X013498Y001498D02*
X013398Y001598D01*
X013398Y002898D01*
X013395Y002899D01*
X012805Y002899D02*
X012798Y002898D01*
X012798Y001898D01*
X012498Y001598D01*
X012498Y001498D01*
X012198Y002298D02*
X011498Y001598D01*
X011498Y001498D01*
X010498Y001498D02*
X010498Y001598D01*
X011598Y002698D01*
X011598Y002898D01*
X011624Y002899D01*
X011598Y002998D01*
X011598Y003398D01*
X011398Y003598D01*
X011698Y003798D02*
X012198Y003298D01*
X012198Y002998D01*
X012214Y002899D01*
X012198Y002898D01*
X012198Y002298D01*
X011033Y002899D02*
X010998Y002998D01*
X010998Y003598D01*
X010898Y003598D01*
X010998Y003598D02*
X010998Y003898D01*
X009098Y005798D01*
X008798Y005798D01*
X008788Y005728D01*
X009898Y005598D02*
X010748Y006448D01*
X011098Y006598D02*
X014898Y006598D01*
X015098Y006098D02*
X012498Y003498D01*
X011698Y003798D02*
X011698Y004398D01*
X010198Y004198D02*
X008698Y004198D01*
X008598Y004598D02*
X008198Y004198D01*
X008198Y004098D01*
X008598Y004598D02*
X009798Y004598D01*
X009898Y003798D02*
X009498Y003398D01*
X009498Y002898D01*
X008998Y002398D01*
X008598Y002398D01*
X008098Y002898D01*
X007698Y002398D02*
X008098Y001998D01*
X008958Y001998D01*
X009698Y002738D01*
X009852Y002840D01*
X009798Y002798D01*
X009698Y002738D01*
X010078Y002318D01*
X010298Y001998D02*
X010498Y002198D01*
X010498Y002898D01*
X010443Y002899D01*
X010298Y001998D02*
X009258Y001998D01*
X008758Y001498D01*
X008498Y001498D01*
X007898Y001998D02*
X007598Y001698D01*
X007498Y001498D01*
X007498Y001598D01*
X007598Y001698D01*
X005698Y001698D01*
X002998Y004398D01*
X002398Y004398D01*
X002598Y005098D02*
X001498Y003998D01*
X002598Y005098D02*
X002598Y006898D01*
X002498Y007298D02*
X002198Y006998D01*
X001498Y006998D01*
X002498Y007298D02*
X002698Y007298D01*
X004698Y005298D01*
X006798Y005798D02*
X006998Y005798D01*
X007008Y005728D01*
X006798Y005798D02*
X004998Y007598D01*
X004198Y008398D02*
X003498Y008398D01*
X002698Y009198D01*
X002698Y009398D01*
X001498Y009398D01*
X001498Y007998D02*
X007098Y007998D01*
X007698Y007898D02*
X007698Y006798D01*
X007698Y002398D01*
X007898Y001998D02*
X008098Y001998D01*
X006298Y003998D02*
X005498Y003998D01*
X006298Y003998D02*
X007498Y005198D01*
X007498Y006198D01*
X006798Y006898D01*
X006798Y007598D01*
X011598Y008098D02*
X011624Y008096D01*
X012798Y008098D02*
X012805Y008096D01*
X012798Y008098D02*
X012798Y009098D01*
X012498Y009398D01*
X012498Y009498D01*
X013398Y009398D02*
X013498Y009498D01*
X013398Y009398D02*
X013398Y008098D01*
X013395Y008096D01*
X013986Y008096D02*
X013998Y008098D01*
X013998Y008898D01*
X014498Y009398D01*
X014498Y009498D01*
X015498Y009498D02*
X015498Y009298D01*
X014598Y008398D01*
X014598Y008098D01*
X014577Y008096D01*
X014498Y007998D01*
X014498Y007798D01*
X014098Y007398D01*
X013998Y007398D01*
X015167Y008096D02*
X015198Y008098D01*
X015198Y008298D01*
X016398Y009498D01*
X016498Y009498D01*
X016708Y008998D02*
X017208Y009498D01*
X017498Y009498D01*
X018048Y008998D02*
X018498Y009498D01*
X018048Y008998D02*
X017048Y008998D01*
X016398Y008398D01*
X016398Y007998D01*
X016348Y008096D01*
X016939Y008096D02*
X016998Y008098D01*
X016998Y008498D01*
X017198Y008668D01*
X016708Y008998D02*
X016498Y008998D01*
X015798Y008298D01*
X015798Y008098D01*
X015758Y008096D01*
X017498Y007898D02*
X017498Y006198D01*
X017598Y006098D01*
X018498Y006098D01*
X018498Y004798D01*
X018998Y004298D01*
X018398Y003698D01*
X020498Y001598D01*
X020498Y001498D01*
X018398Y003698D02*
X017598Y002898D01*
X017529Y002840D01*
X018998Y004298D02*
X019398Y004698D01*
X019398Y004898D01*
X019478Y004907D01*
X019498Y004898D01*
X019798Y004898D01*
X020198Y004498D01*
X020498Y004498D01*
X020498Y005498D02*
X019419Y005498D01*
X019478Y006088D02*
X019498Y006098D01*
X018498Y006098D01*
X019498Y006098D02*
X020498Y006098D01*
X020498Y006498D01*
X020498Y009498D01*
X017598Y008098D02*
X017529Y008155D01*
X017598Y008098D02*
X017498Y007898D01*
D17*
X017198Y008668D03*
X013998Y007398D03*
X014898Y006598D03*
X015098Y006098D03*
X012198Y007328D03*
X010748Y006448D03*
X009898Y005598D03*
X009798Y004598D03*
X010198Y004198D03*
X009898Y003798D03*
X010898Y003598D03*
X011398Y003598D03*
X012498Y003498D03*
X011698Y004398D03*
X008698Y004198D03*
X008198Y004098D03*
X008098Y002898D03*
X010078Y002318D03*
X004698Y005298D03*
X002398Y004398D03*
X001998Y006598D03*
X002598Y006898D03*
X001998Y007398D03*
X004198Y008398D03*
X004998Y007598D03*
X006798Y007598D03*
X007098Y007998D03*
X006498Y008598D03*
D18*
X001228Y002518D02*
X001228Y001228D01*
X007018Y001228D01*
X006968Y001278D01*
X006968Y001478D01*
X007478Y001478D01*
X007478Y001518D01*
X007478Y002028D01*
X007278Y002028D01*
X006968Y001717D01*
X006968Y001518D01*
X007478Y001518D01*
X007518Y001518D01*
X007518Y002028D01*
X007717Y002028D01*
X007998Y001747D01*
X008278Y002028D01*
X008717Y002028D01*
X008840Y001905D01*
X009163Y002228D01*
X009353Y002228D01*
X010203Y002228D01*
X010268Y002293D01*
X010268Y002369D01*
X010220Y002369D01*
X010147Y002442D01*
X010127Y002422D01*
X010089Y002396D01*
X010046Y002378D01*
X010001Y002369D01*
X009862Y002369D01*
X009862Y002830D01*
X009842Y002830D01*
X009842Y002369D01*
X009703Y002369D01*
X009658Y002378D01*
X009615Y002396D01*
X009577Y002422D01*
X009544Y002454D01*
X009519Y002492D01*
X009501Y002535D01*
X009494Y002569D01*
X009093Y002168D01*
X008903Y002168D01*
X008503Y002168D01*
X008368Y002303D01*
X008123Y002548D01*
X008028Y002548D01*
X007900Y002601D01*
X007801Y002700D01*
X007748Y002828D01*
X007748Y002967D01*
X007801Y003096D01*
X007900Y003194D01*
X008028Y003248D01*
X008167Y003248D01*
X008296Y003194D01*
X008308Y003183D01*
X008308Y003563D01*
X008381Y003740D01*
X008516Y003875D01*
X008540Y003884D01*
X008500Y003901D01*
X008496Y003904D01*
X008494Y003900D01*
X008396Y003801D01*
X008267Y003748D01*
X008128Y003748D01*
X008000Y003801D01*
X007901Y003900D01*
X007848Y004028D01*
X007848Y004167D01*
X007901Y004296D01*
X008000Y004394D01*
X008119Y004444D01*
X008368Y004693D01*
X008503Y004828D01*
X009533Y004828D01*
X009600Y004894D01*
X009654Y004917D01*
X009259Y005311D01*
X009195Y005156D01*
X009060Y005021D01*
X008883Y004948D01*
X008692Y004948D01*
X008516Y005021D01*
X008381Y005156D01*
X008308Y005332D01*
X008308Y006123D01*
X008381Y006300D01*
X008491Y006410D01*
X008278Y006624D01*
X008278Y006972D01*
X008468Y007162D01*
X008468Y007634D01*
X008278Y007824D01*
X008278Y008172D01*
X008474Y008368D01*
X007922Y008368D01*
X008118Y008172D01*
X008118Y007998D01*
X007698Y007998D01*
X007698Y007998D01*
X008118Y007998D01*
X008118Y007824D01*
X007872Y007578D01*
X007698Y007578D01*
X007698Y007997D01*
X007698Y007997D01*
X007698Y007578D01*
X007524Y007578D01*
X007348Y007753D01*
X007296Y007701D01*
X007167Y007648D01*
X007148Y007648D01*
X007148Y007528D01*
X007094Y007400D01*
X007028Y007333D01*
X007028Y006993D01*
X007278Y006743D01*
X007278Y006798D01*
X007697Y006798D01*
X007697Y006798D01*
X007278Y006798D01*
X007278Y006972D01*
X007524Y007218D01*
X007698Y007218D01*
X007698Y006798D01*
X007698Y006798D01*
X008118Y006798D01*
X008118Y006972D01*
X007872Y007218D01*
X007698Y007218D01*
X007698Y006798D01*
X007698Y006798D01*
X008118Y006798D01*
X008118Y006624D01*
X007872Y006378D01*
X007698Y006378D01*
X007698Y006797D01*
X007698Y006797D01*
X007698Y006378D01*
X007643Y006378D01*
X007728Y006293D01*
X007728Y006103D01*
X007728Y005103D01*
X007593Y004968D01*
X006393Y003768D01*
X006203Y003768D01*
X006017Y003768D01*
X005747Y003498D01*
X006028Y003217D01*
X006028Y002778D01*
X005717Y002468D01*
X005278Y002468D01*
X004968Y002778D01*
X004968Y003217D01*
X005248Y003498D01*
X004968Y003778D01*
X004968Y004217D01*
X005248Y004498D01*
X004968Y004778D01*
X004968Y005073D01*
X004896Y005001D01*
X004767Y004948D01*
X004628Y004948D01*
X004500Y005001D01*
X004401Y005100D01*
X004348Y005228D01*
X004348Y005323D01*
X002917Y006754D01*
X002894Y006700D01*
X002828Y006633D01*
X002828Y005003D01*
X002693Y004868D01*
X002028Y004203D01*
X002028Y003778D01*
X001747Y003498D01*
X002028Y003217D01*
X002028Y002778D01*
X001717Y002468D01*
X001278Y002468D01*
X001228Y002518D01*
X001228Y002425D02*
X006823Y002425D01*
X006736Y002461D02*
X006912Y002388D01*
X007103Y002388D01*
X007280Y002461D01*
X007415Y002596D01*
X007488Y002772D01*
X007488Y003563D01*
X007415Y003740D01*
X007280Y003875D01*
X007103Y003948D01*
X006912Y003948D01*
X006736Y003875D01*
X006601Y003740D01*
X006528Y003563D01*
X006528Y002772D01*
X006601Y002596D01*
X006736Y002461D01*
X006614Y002583D02*
X005833Y002583D01*
X005991Y002742D02*
X006540Y002742D01*
X006528Y002900D02*
X006028Y002900D01*
X006028Y003059D02*
X006528Y003059D01*
X006528Y003217D02*
X006028Y003217D01*
X005869Y003376D02*
X006528Y003376D01*
X006528Y003534D02*
X005784Y003534D01*
X005943Y003693D02*
X006582Y003693D01*
X006477Y003852D02*
X006713Y003852D01*
X006635Y004010D02*
X007855Y004010D01*
X007848Y004169D02*
X006794Y004169D01*
X006952Y004327D02*
X007932Y004327D01*
X008161Y004486D02*
X007111Y004486D01*
X007270Y004644D02*
X008319Y004644D01*
X008478Y004803D02*
X007428Y004803D01*
X007587Y004961D02*
X008659Y004961D01*
X008916Y004961D02*
X009609Y004961D01*
X009450Y005120D02*
X009159Y005120D01*
X009245Y005278D02*
X009292Y005278D01*
X009971Y005249D02*
X010096Y005301D01*
X010194Y005400D01*
X010248Y005528D01*
X010248Y005623D01*
X010723Y006098D01*
X010817Y006098D01*
X010946Y006151D01*
X011044Y006250D01*
X011093Y006368D01*
X011193Y006368D01*
X014633Y006368D01*
X014700Y006301D01*
X014828Y006248D01*
X014967Y006248D01*
X015096Y006301D01*
X015194Y006400D01*
X015217Y006454D01*
X016068Y005603D01*
X016068Y003372D01*
X016053Y003357D01*
X015981Y003429D01*
X015535Y003429D01*
X015462Y003357D01*
X015390Y003429D01*
X014944Y003429D01*
X014872Y003357D01*
X014799Y003429D01*
X014354Y003429D01*
X014281Y003357D01*
X014209Y003429D01*
X013763Y003429D01*
X013691Y003357D01*
X013618Y003429D01*
X013172Y003429D01*
X013100Y003357D01*
X013028Y003429D01*
X012582Y003429D01*
X012510Y003357D01*
X012437Y003429D01*
X012391Y003429D01*
X012293Y003528D01*
X011928Y003893D01*
X011928Y004133D01*
X011994Y004200D01*
X012048Y004328D01*
X012048Y004467D01*
X011994Y004596D01*
X011896Y004694D01*
X011767Y004748D01*
X011628Y004748D01*
X011500Y004694D01*
X011401Y004596D01*
X011348Y004467D01*
X011348Y004328D01*
X011401Y004200D01*
X011468Y004133D01*
X011468Y003948D01*
X011467Y003948D01*
X011328Y003948D01*
X011228Y003906D01*
X011228Y003993D01*
X009971Y005249D01*
X010041Y005278D02*
X016068Y005278D01*
X016068Y005437D02*
X010210Y005437D01*
X010248Y005596D02*
X016068Y005596D01*
X015916Y005754D02*
X010379Y005754D01*
X010538Y005913D02*
X015758Y005913D01*
X015599Y006071D02*
X010696Y006071D01*
X011025Y006230D02*
X015441Y006230D01*
X015282Y006388D02*
X015183Y006388D01*
X015615Y006705D02*
X017498Y006705D01*
X017498Y006547D02*
X015774Y006547D01*
X015933Y006388D02*
X017498Y006388D01*
X017498Y006230D02*
X016091Y006230D01*
X016250Y006071D02*
X019007Y006071D01*
X019007Y006078D02*
X019007Y005939D01*
X019016Y005894D01*
X019031Y005858D01*
X019026Y005858D01*
X018889Y005721D01*
X018889Y005275D01*
X019026Y005138D01*
X019031Y005138D01*
X019016Y005101D01*
X019007Y005056D01*
X019007Y004917D01*
X019468Y004917D01*
X019468Y004897D01*
X019488Y004897D01*
X019488Y004547D01*
X019738Y004547D01*
X019783Y004556D01*
X019826Y004574D01*
X019864Y004599D01*
X019897Y004632D01*
X019922Y004670D01*
X019940Y004713D01*
X019949Y004758D01*
X019949Y004897D01*
X019488Y004897D01*
X019488Y004917D01*
X019949Y004917D01*
X019949Y005056D01*
X019940Y005101D01*
X019922Y005144D01*
X019897Y005182D01*
X019877Y005203D01*
X019942Y005268D01*
X019978Y005268D01*
X020248Y004998D01*
X019968Y004717D01*
X019968Y004518D01*
X020478Y004518D01*
X020478Y004478D01*
X020518Y004478D01*
X020518Y003968D01*
X020717Y003968D01*
X020768Y004018D01*
X020768Y001977D01*
X020717Y002028D01*
X020518Y002028D01*
X020518Y001518D01*
X020478Y001518D01*
X020478Y002028D01*
X020278Y002028D01*
X019998Y001747D01*
X019717Y002028D01*
X019278Y002028D01*
X018998Y001747D01*
X018717Y002028D01*
X018278Y002028D01*
X018186Y001935D01*
X017737Y002384D01*
X017766Y002396D01*
X017804Y002422D01*
X017837Y002454D01*
X017863Y002492D01*
X017880Y002535D01*
X017889Y002580D01*
X017889Y002830D01*
X017540Y002830D01*
X017540Y002850D01*
X017889Y002850D01*
X017889Y003100D01*
X017880Y003146D01*
X017863Y003188D01*
X017837Y003226D01*
X017804Y003259D01*
X017766Y003285D01*
X017724Y003302D01*
X017678Y003311D01*
X017539Y003311D01*
X017539Y002851D01*
X017519Y002851D01*
X017519Y003311D01*
X017380Y003311D01*
X017335Y003302D01*
X017299Y003287D01*
X017299Y003292D01*
X017162Y003429D01*
X016716Y003429D01*
X016643Y003357D01*
X016571Y003429D01*
X016528Y003429D01*
X016528Y005793D01*
X016393Y005928D01*
X015093Y007228D01*
X014903Y007228D01*
X014306Y007228D01*
X014344Y007319D01*
X014591Y007566D01*
X014799Y007566D01*
X014872Y007639D01*
X014944Y007566D01*
X015390Y007566D01*
X015462Y007639D01*
X015535Y007566D01*
X015981Y007566D01*
X016053Y007639D01*
X016125Y007566D01*
X016571Y007566D01*
X016643Y007639D01*
X016716Y007566D01*
X017162Y007566D01*
X017299Y007703D01*
X017299Y007708D01*
X017335Y007693D01*
X017380Y007684D01*
X017498Y007684D01*
X017498Y006098D01*
X019468Y006098D01*
X019468Y006078D01*
X019007Y006078D01*
X019012Y005913D02*
X016408Y005913D01*
X016528Y005754D02*
X018922Y005754D01*
X018889Y005596D02*
X016528Y005596D01*
X016528Y005437D02*
X018889Y005437D01*
X018889Y005278D02*
X016528Y005278D01*
X016528Y005120D02*
X019024Y005120D01*
X019007Y004961D02*
X016528Y004961D01*
X016528Y004803D02*
X019007Y004803D01*
X019007Y004758D02*
X019016Y004713D01*
X019034Y004670D01*
X019059Y004632D01*
X019092Y004599D01*
X019130Y004574D01*
X019173Y004556D01*
X019218Y004547D01*
X019468Y004547D01*
X019468Y004897D01*
X019007Y004897D01*
X019007Y004758D01*
X019051Y004644D02*
X016528Y004644D01*
X016528Y004486D02*
X020478Y004486D01*
X020478Y004478D02*
X019968Y004478D01*
X019968Y004278D01*
X020278Y003968D01*
X020478Y003968D01*
X020478Y004478D01*
X020478Y004327D02*
X020518Y004327D01*
X020518Y004169D02*
X020478Y004169D01*
X020478Y004010D02*
X020518Y004010D01*
X020760Y004010D02*
X020768Y004010D01*
X020768Y003852D02*
X016528Y003852D01*
X016528Y004010D02*
X020236Y004010D01*
X020077Y004169D02*
X016528Y004169D01*
X016528Y004327D02*
X019968Y004327D01*
X019968Y004644D02*
X019905Y004644D01*
X019949Y004803D02*
X020053Y004803D01*
X019949Y004961D02*
X020212Y004961D01*
X020126Y005120D02*
X019932Y005120D01*
X019488Y004803D02*
X019468Y004803D01*
X019468Y004644D02*
X019488Y004644D01*
X020768Y003693D02*
X016528Y003693D01*
X016528Y003534D02*
X020768Y003534D01*
X020768Y003376D02*
X017215Y003376D01*
X017519Y003217D02*
X017539Y003217D01*
X017843Y003217D02*
X020768Y003217D01*
X020768Y003059D02*
X017889Y003059D01*
X017889Y002900D02*
X020768Y002900D01*
X020768Y002742D02*
X017889Y002742D01*
X017889Y002583D02*
X020768Y002583D01*
X020768Y002425D02*
X017808Y002425D01*
X017855Y002266D02*
X020768Y002266D01*
X020768Y002108D02*
X018013Y002108D01*
X018172Y001949D02*
X018200Y001949D01*
X018796Y001949D02*
X019200Y001949D01*
X019041Y001791D02*
X018955Y001791D01*
X019796Y001949D02*
X020200Y001949D01*
X020041Y001791D02*
X019955Y001791D01*
X020478Y001791D02*
X020518Y001791D01*
X020518Y001949D02*
X020478Y001949D01*
X020478Y001632D02*
X020518Y001632D01*
X017539Y002900D02*
X017519Y002900D01*
X017519Y003059D02*
X017539Y003059D01*
X016662Y003376D02*
X016624Y003376D01*
X016068Y003376D02*
X016034Y003376D01*
X016068Y003534D02*
X012286Y003534D01*
X012128Y003693D02*
X016068Y003693D01*
X016068Y003852D02*
X011969Y003852D01*
X011928Y004010D02*
X016068Y004010D01*
X016068Y004169D02*
X011964Y004169D01*
X012047Y004327D02*
X016068Y004327D01*
X016068Y004486D02*
X012040Y004486D01*
X011946Y004644D02*
X016068Y004644D01*
X016068Y004803D02*
X010418Y004803D01*
X010576Y004644D02*
X011449Y004644D01*
X011355Y004486D02*
X010735Y004486D01*
X010894Y004327D02*
X011348Y004327D01*
X011432Y004169D02*
X011052Y004169D01*
X011211Y004010D02*
X011468Y004010D01*
X010688Y003883D02*
X010601Y003796D01*
X010548Y003667D01*
X010548Y003528D01*
X010589Y003429D01*
X010220Y003429D01*
X010083Y003292D01*
X010083Y003287D01*
X010046Y003302D01*
X010001Y003311D01*
X009862Y003311D01*
X009862Y002851D01*
X009842Y002851D01*
X009842Y003311D01*
X009736Y003311D01*
X009873Y003448D01*
X009967Y003448D01*
X010096Y003501D01*
X010194Y003600D01*
X010248Y003728D01*
X010248Y003848D01*
X010267Y003848D01*
X010396Y003901D01*
X010494Y004000D01*
X010517Y004054D01*
X010688Y003883D01*
X010657Y003852D02*
X010276Y003852D01*
X010499Y004010D02*
X010560Y004010D01*
X010558Y003693D02*
X010233Y003693D01*
X010129Y003534D02*
X010548Y003534D01*
X010166Y003376D02*
X009801Y003376D01*
X009842Y003217D02*
X009862Y003217D01*
X009862Y003059D02*
X009842Y003059D01*
X009842Y002900D02*
X009862Y002900D01*
X009862Y002742D02*
X009842Y002742D01*
X009842Y002583D02*
X009862Y002583D01*
X009862Y002425D02*
X009842Y002425D01*
X009574Y002425D02*
X009350Y002425D01*
X009191Y002266D02*
X010241Y002266D01*
X010164Y002425D02*
X010130Y002425D01*
X009042Y002108D02*
X001228Y002108D01*
X001228Y002266D02*
X008404Y002266D01*
X008246Y002425D02*
X007192Y002425D01*
X007402Y002583D02*
X007943Y002583D01*
X007784Y002742D02*
X007475Y002742D01*
X007488Y002900D02*
X007748Y002900D01*
X007786Y003059D02*
X007488Y003059D01*
X007488Y003217D02*
X007955Y003217D01*
X008241Y003217D02*
X008308Y003217D01*
X008308Y003376D02*
X007488Y003376D01*
X007488Y003534D02*
X008308Y003534D01*
X008362Y003693D02*
X007434Y003693D01*
X007303Y003852D02*
X007949Y003852D01*
X008447Y003852D02*
X008493Y003852D01*
X006778Y004803D02*
X006028Y004803D01*
X006028Y004778D02*
X006028Y005217D01*
X005747Y005498D01*
X006028Y005778D01*
X006028Y006217D01*
X005717Y006528D01*
X005278Y006528D01*
X004968Y006217D01*
X004968Y005778D01*
X005248Y005498D01*
X005048Y005297D01*
X005048Y005367D01*
X004994Y005496D01*
X004896Y005594D01*
X004767Y005648D01*
X004673Y005648D01*
X002793Y007528D01*
X002603Y007528D01*
X002403Y007528D01*
X002346Y007471D01*
X002294Y007596D01*
X002196Y007694D01*
X002067Y007748D01*
X001997Y007748D01*
X002017Y007768D01*
X004689Y007768D01*
X004648Y007667D01*
X004648Y007528D01*
X004701Y007400D01*
X004800Y007301D01*
X004928Y007248D01*
X005023Y007248D01*
X006528Y005743D01*
X006528Y005332D01*
X006601Y005156D01*
X006736Y005021D01*
X006912Y004948D01*
X006923Y004948D01*
X006203Y004228D01*
X006017Y004228D01*
X005747Y004498D01*
X006028Y004778D01*
X005894Y004644D02*
X006619Y004644D01*
X006461Y004486D02*
X005759Y004486D01*
X005918Y004327D02*
X006302Y004327D01*
X005236Y004486D02*
X002311Y004486D01*
X002152Y004327D02*
X005078Y004327D01*
X004968Y004169D02*
X002028Y004169D01*
X002028Y004010D02*
X004968Y004010D01*
X004968Y003852D02*
X002028Y003852D01*
X001943Y003693D02*
X005053Y003693D01*
X005212Y003534D02*
X001784Y003534D01*
X001869Y003376D02*
X005126Y003376D01*
X004968Y003217D02*
X002028Y003217D01*
X002028Y003059D02*
X004968Y003059D01*
X004968Y002900D02*
X002028Y002900D01*
X001991Y002742D02*
X005004Y002742D01*
X005163Y002583D02*
X001833Y002583D01*
X001228Y001949D02*
X007200Y001949D01*
X007041Y001791D02*
X001228Y001791D01*
X001228Y001632D02*
X006968Y001632D01*
X006968Y001473D02*
X001228Y001473D01*
X001228Y001315D02*
X006968Y001315D01*
X007478Y001632D02*
X007518Y001632D01*
X007518Y001791D02*
X007478Y001791D01*
X007478Y001949D02*
X007518Y001949D01*
X007796Y001949D02*
X008200Y001949D01*
X008041Y001791D02*
X007955Y001791D01*
X008796Y001949D02*
X008884Y001949D01*
X012491Y003376D02*
X012529Y003376D01*
X013081Y003376D02*
X013119Y003376D01*
X013672Y003376D02*
X013710Y003376D01*
X014262Y003376D02*
X014300Y003376D01*
X014853Y003376D02*
X014891Y003376D01*
X015443Y003376D02*
X015481Y003376D01*
X016068Y004961D02*
X010259Y004961D01*
X010101Y005120D02*
X016068Y005120D01*
X015457Y006864D02*
X017498Y006864D01*
X017498Y007022D02*
X015298Y007022D01*
X015140Y007181D02*
X017498Y007181D01*
X017498Y007340D02*
X014365Y007340D01*
X014523Y007498D02*
X017498Y007498D01*
X017498Y007657D02*
X017252Y007657D01*
X019488Y006098D02*
X020148Y006098D01*
X020248Y005998D01*
X019978Y005728D01*
X019942Y005728D01*
X019877Y005793D01*
X019897Y005813D01*
X019922Y005851D01*
X019940Y005894D01*
X019949Y005939D01*
X019949Y006078D01*
X019488Y006078D01*
X019488Y006098D01*
X019949Y006071D02*
X020175Y006071D01*
X020478Y006071D02*
X020518Y006071D01*
X020518Y006098D02*
X020518Y006028D01*
X020478Y006028D01*
X020478Y006098D01*
X020518Y006098D01*
X020163Y005913D02*
X019944Y005913D01*
X019916Y005754D02*
X020005Y005754D01*
X009842Y008145D02*
X009492Y008145D01*
X009492Y008129D01*
X008853Y008768D01*
X008993Y008768D01*
X009603Y008768D01*
X009744Y008626D01*
X009703Y008626D01*
X009658Y008617D01*
X009615Y008600D01*
X009577Y008574D01*
X009544Y008541D01*
X009519Y008503D01*
X009501Y008460D01*
X009492Y008415D01*
X009492Y008165D01*
X009842Y008165D01*
X009842Y008145D01*
X009492Y008132D02*
X009489Y008132D01*
X009492Y008291D02*
X009330Y008291D01*
X009171Y008449D02*
X009499Y008449D01*
X009635Y008608D02*
X009013Y008608D01*
X008854Y008766D02*
X009604Y008766D01*
X008743Y008828D02*
X008603Y008828D01*
X006763Y008828D01*
X006696Y008894D01*
X006567Y008948D01*
X006428Y008948D01*
X006300Y008894D01*
X006201Y008796D01*
X006148Y008667D01*
X006148Y008528D01*
X006201Y008400D01*
X006300Y008301D01*
X006428Y008248D01*
X006567Y008248D01*
X006696Y008301D01*
X006763Y008368D01*
X007474Y008368D01*
X007348Y008242D01*
X007296Y008294D01*
X007167Y008348D01*
X007028Y008348D01*
X006900Y008294D01*
X006833Y008228D01*
X004506Y008228D01*
X004548Y008328D01*
X004548Y008467D01*
X004494Y008596D01*
X004396Y008694D01*
X004267Y008748D01*
X004128Y008748D01*
X004000Y008694D01*
X003933Y008628D01*
X003593Y008628D01*
X003318Y008903D01*
X003602Y008903D01*
X003708Y009008D01*
X003708Y009168D01*
X004134Y009168D01*
X004324Y008978D01*
X004672Y008978D01*
X004918Y009224D01*
X004918Y009268D01*
X004978Y009268D01*
X005278Y008968D01*
X005717Y008968D01*
X005998Y009248D01*
X006278Y008968D01*
X006478Y008968D01*
X006478Y009478D01*
X006518Y009478D01*
X006518Y009518D01*
X007028Y009518D01*
X007478Y009518D01*
X007478Y009478D01*
X007028Y009478D01*
X006518Y009478D01*
X006518Y008968D01*
X006717Y008968D01*
X006998Y009248D01*
X007278Y008968D01*
X007478Y008968D01*
X007478Y009478D01*
X007518Y009478D01*
X007518Y008968D01*
X007717Y008968D01*
X007998Y009248D01*
X008278Y008968D01*
X008603Y008968D01*
X008743Y008828D01*
X008645Y008925D02*
X006622Y008925D01*
X006518Y009084D02*
X006478Y009084D01*
X006373Y008925D02*
X003624Y008925D01*
X003708Y009084D02*
X004218Y009084D01*
X004777Y009084D02*
X005163Y009084D01*
X005004Y009242D02*
X004918Y009242D01*
X005833Y009084D02*
X006163Y009084D01*
X006004Y009242D02*
X005991Y009242D01*
X006478Y009242D02*
X006518Y009242D01*
X006518Y009401D02*
X006478Y009401D01*
X006992Y009242D02*
X007004Y009242D01*
X007163Y009084D02*
X006833Y009084D01*
X007478Y009084D02*
X007518Y009084D01*
X007833Y009084D02*
X008163Y009084D01*
X008004Y009242D02*
X007991Y009242D01*
X007518Y009242D02*
X007478Y009242D01*
X007478Y009401D02*
X007518Y009401D01*
X006189Y008766D02*
X003454Y008766D01*
X004483Y008608D02*
X006148Y008608D01*
X006180Y008449D02*
X004548Y008449D01*
X004532Y008291D02*
X006324Y008291D01*
X006671Y008291D02*
X006896Y008291D01*
X007300Y008291D02*
X007397Y008291D01*
X007698Y007974D02*
X007698Y007974D01*
X007698Y007815D02*
X007698Y007815D01*
X007698Y007657D02*
X007698Y007657D01*
X007445Y007657D02*
X007189Y007657D01*
X007135Y007498D02*
X008468Y007498D01*
X008445Y007657D02*
X007951Y007657D01*
X008109Y007815D02*
X008286Y007815D01*
X008278Y007974D02*
X008118Y007974D01*
X008118Y008132D02*
X008278Y008132D01*
X008397Y008291D02*
X007999Y008291D01*
X008468Y007340D02*
X007034Y007340D01*
X007028Y007181D02*
X007487Y007181D01*
X007698Y007181D02*
X007698Y007181D01*
X007909Y007181D02*
X008468Y007181D01*
X008329Y007022D02*
X008067Y007022D01*
X008118Y006864D02*
X008278Y006864D01*
X008278Y006705D02*
X008118Y006705D01*
X008041Y006547D02*
X008355Y006547D01*
X008469Y006388D02*
X007882Y006388D01*
X007698Y006388D02*
X007698Y006388D01*
X007698Y006547D02*
X007698Y006547D01*
X007698Y006705D02*
X007698Y006705D01*
X007698Y006864D02*
X007698Y006864D01*
X007698Y007022D02*
X007698Y007022D01*
X007329Y007022D02*
X007028Y007022D01*
X007157Y006864D02*
X007278Y006864D01*
X007728Y006230D02*
X008352Y006230D01*
X008308Y006071D02*
X007728Y006071D01*
X007728Y005913D02*
X008308Y005913D01*
X008308Y005754D02*
X007728Y005754D01*
X007728Y005596D02*
X008308Y005596D01*
X008308Y005437D02*
X007728Y005437D01*
X007728Y005278D02*
X008330Y005278D01*
X008417Y005120D02*
X007728Y005120D01*
X006879Y004961D02*
X006028Y004961D01*
X006028Y005120D02*
X006637Y005120D01*
X006550Y005278D02*
X005967Y005278D01*
X005808Y005437D02*
X006528Y005437D01*
X006528Y005596D02*
X005845Y005596D01*
X006004Y005754D02*
X006516Y005754D01*
X006358Y005913D02*
X006028Y005913D01*
X006028Y006071D02*
X006199Y006071D01*
X006041Y006230D02*
X006015Y006230D01*
X005882Y006388D02*
X005857Y006388D01*
X005724Y006547D02*
X003774Y006547D01*
X003933Y006388D02*
X005139Y006388D01*
X004980Y006230D02*
X004091Y006230D01*
X004250Y006071D02*
X004968Y006071D01*
X004968Y005913D02*
X004408Y005913D01*
X004567Y005754D02*
X004992Y005754D01*
X004893Y005596D02*
X005151Y005596D01*
X005188Y005437D02*
X005019Y005437D01*
X004348Y005278D02*
X002828Y005278D01*
X002828Y005437D02*
X004233Y005437D01*
X004075Y005596D02*
X002828Y005596D01*
X002828Y005754D02*
X003916Y005754D01*
X003758Y005913D02*
X002828Y005913D01*
X002828Y006071D02*
X003599Y006071D01*
X003441Y006230D02*
X002828Y006230D01*
X002828Y006388D02*
X003282Y006388D01*
X003124Y006547D02*
X002828Y006547D01*
X002897Y006705D02*
X002965Y006705D01*
X003457Y006864D02*
X005406Y006864D01*
X005248Y007022D02*
X003298Y007022D01*
X003140Y007181D02*
X005089Y007181D01*
X004761Y007340D02*
X002981Y007340D01*
X002823Y007498D02*
X004660Y007498D01*
X004648Y007657D02*
X002234Y007657D01*
X002335Y007498D02*
X002373Y007498D01*
X003615Y006705D02*
X005565Y006705D01*
X004393Y005120D02*
X002828Y005120D01*
X002787Y004961D02*
X004595Y004961D01*
X004800Y004961D02*
X004968Y004961D01*
X004968Y004803D02*
X002628Y004803D01*
X002469Y004644D02*
X005102Y004644D01*
X002368Y005193D02*
X002028Y004853D01*
X002028Y004978D01*
X001518Y004978D01*
X001518Y005018D01*
X002028Y005018D01*
X002028Y005217D01*
X001747Y005498D01*
X002028Y005778D01*
X002028Y006217D01*
X001997Y006248D01*
X002067Y006248D01*
X002196Y006301D01*
X002294Y006400D01*
X002348Y006528D01*
X002348Y006653D01*
X002368Y006633D01*
X002368Y005193D01*
X002368Y005278D02*
X001967Y005278D01*
X001808Y005437D02*
X002368Y005437D01*
X002368Y005596D02*
X001845Y005596D01*
X002004Y005754D02*
X002368Y005754D01*
X002368Y005913D02*
X002028Y005913D01*
X002028Y006071D02*
X002368Y006071D01*
X002368Y006230D02*
X002015Y006230D01*
X002283Y006388D02*
X002368Y006388D01*
X002368Y006547D02*
X002348Y006547D01*
X002295Y005120D02*
X002028Y005120D01*
X002028Y004961D02*
X002136Y004961D01*
D19*
X003498Y004498D03*
X003498Y003498D03*
X003498Y002498D03*
X002498Y002498D03*
X006498Y001498D03*
X006298Y005598D03*
X004498Y007498D03*
X003498Y007498D03*
X016998Y006998D03*
X016998Y005998D03*
X016998Y004998D03*
X017498Y004498D03*
X017998Y003998D03*
X016998Y003998D03*
X018498Y003498D03*
X018998Y002998D03*
X019998Y002998D03*
X020498Y003498D03*
X018998Y003998D03*
X017998Y002998D03*
X018498Y002498D03*
X019498Y002498D03*
M02*
