G75*
%MOIN*%
%OFA0B0*%
%FSLAX24Y24*%
%IPPOS*%
%LPD*%
%AMOC8*
5,1,8,0,0,1.08239X$1,22.5*
%
%ADD10C,0.0058*%
%ADD11R,0.1102X0.0291*%
%ADD12R,0.0354X0.0394*%
%ADD13R,0.0669X0.0315*%
%ADD14R,0.0394X0.0433*%
%ADD15R,0.0472X0.0472*%
%ADD16R,0.0433X0.0394*%
%ADD17R,0.0315X0.0472*%
%ADD18R,0.0217X0.0472*%
%ADD19R,0.0531X0.0157*%
%ADD20R,0.0591X0.0591*%
%ADD21R,0.0630X0.0630*%
%ADD22C,0.0020*%
%ADD23C,0.0335*%
D10*
X005517Y004040D02*
X006561Y004040D01*
X006561Y003808D01*
X005517Y003808D01*
X005517Y004040D01*
X005517Y003865D02*
X006561Y003865D01*
X006561Y003922D02*
X005517Y003922D01*
X005517Y003979D02*
X006561Y003979D01*
X006561Y004036D02*
X005517Y004036D01*
D11*
X006039Y004424D03*
X006039Y004924D03*
X006039Y005424D03*
X006039Y005924D03*
X004440Y005924D03*
X004440Y005424D03*
X004440Y004924D03*
X004440Y004424D03*
X004440Y003924D03*
D12*
X003682Y002839D03*
X003682Y002209D03*
X005297Y002209D03*
X005297Y002839D03*
D13*
X004489Y002997D03*
D14*
X003339Y003990D03*
X003339Y004659D03*
X003339Y005290D03*
X003339Y005959D03*
X003574Y007424D03*
X002905Y007424D03*
X006905Y007424D03*
X007574Y007424D03*
X007239Y005859D03*
X007239Y005190D03*
X007239Y004559D03*
X007239Y003890D03*
X014139Y008190D03*
X014939Y008190D03*
X014939Y008859D03*
X014139Y008859D03*
D15*
X006353Y007424D03*
X005526Y007424D03*
X004953Y007424D03*
X004126Y007424D03*
D16*
X001774Y007424D03*
X001105Y007424D03*
X005905Y003024D03*
X006574Y003024D03*
X006574Y002224D03*
X005905Y002224D03*
D17*
X001694Y002424D03*
X000985Y002424D03*
D18*
X002365Y002213D03*
X003113Y002213D03*
X002739Y003236D03*
D19*
X002489Y004313D03*
X002489Y004569D03*
X002489Y004824D03*
X002489Y005080D03*
X002489Y005336D03*
D20*
X001436Y005317D03*
X001436Y004332D03*
D21*
X001436Y003181D03*
X001436Y006468D03*
D22*
X002293Y005781D02*
X002411Y005899D01*
X002572Y005899D01*
X002686Y005785D01*
X002686Y005620D01*
X002572Y005506D01*
X002411Y005506D01*
X002293Y005624D01*
X002293Y005781D01*
X002293Y005780D02*
X002686Y005780D01*
X002686Y005762D02*
X002293Y005762D01*
X002293Y005744D02*
X002686Y005744D01*
X002686Y005725D02*
X002293Y005725D01*
X002293Y005707D02*
X002686Y005707D01*
X002686Y005689D02*
X002293Y005689D01*
X002293Y005671D02*
X002686Y005671D01*
X002686Y005653D02*
X002293Y005653D01*
X002293Y005635D02*
X002686Y005635D01*
X002683Y005616D02*
X002300Y005616D01*
X002318Y005598D02*
X002665Y005598D01*
X002647Y005580D02*
X002336Y005580D01*
X002354Y005562D02*
X002628Y005562D01*
X002610Y005544D02*
X002373Y005544D01*
X002391Y005525D02*
X002592Y005525D01*
X002574Y005507D02*
X002409Y005507D01*
X002310Y005798D02*
X002673Y005798D01*
X002655Y005816D02*
X002328Y005816D01*
X002346Y005835D02*
X002637Y005835D01*
X002619Y005853D02*
X002364Y005853D01*
X002382Y005871D02*
X002600Y005871D01*
X002582Y005889D02*
X002401Y005889D01*
X002411Y004147D02*
X002572Y004147D01*
X002686Y004033D01*
X002686Y003868D01*
X002572Y003754D01*
X002411Y003754D01*
X002293Y003872D01*
X002293Y004029D01*
X002411Y004147D01*
X002407Y004143D02*
X002576Y004143D01*
X002594Y004125D02*
X002389Y004125D01*
X002370Y004107D02*
X002612Y004107D01*
X002631Y004089D02*
X002352Y004089D01*
X002334Y004071D02*
X002649Y004071D01*
X002667Y004052D02*
X002316Y004052D01*
X002298Y004034D02*
X002685Y004034D01*
X002686Y004016D02*
X002293Y004016D01*
X002293Y003998D02*
X002686Y003998D01*
X002686Y003980D02*
X002293Y003980D01*
X002293Y003961D02*
X002686Y003961D01*
X002686Y003943D02*
X002293Y003943D01*
X002293Y003925D02*
X002686Y003925D01*
X002686Y003907D02*
X002293Y003907D01*
X002293Y003889D02*
X002686Y003889D01*
X002686Y003871D02*
X002294Y003871D01*
X002312Y003852D02*
X002671Y003852D01*
X002653Y003834D02*
X002330Y003834D01*
X002348Y003816D02*
X002635Y003816D01*
X002616Y003798D02*
X002366Y003798D01*
X002385Y003780D02*
X002598Y003780D01*
X002580Y003761D02*
X002403Y003761D01*
D23*
X008899Y003604D02*
X008899Y003604D01*
X008053Y003604D01*
X008053Y003604D01*
X008899Y003604D01*
X008899Y004096D02*
X008899Y004096D01*
X008053Y004096D01*
X008053Y004096D01*
X008899Y004096D01*
X008899Y004588D02*
X008899Y004588D01*
X008053Y004588D01*
X008053Y004588D01*
X008899Y004588D01*
X008899Y005080D02*
X008899Y005080D01*
X008053Y005080D01*
X008053Y005080D01*
X008899Y005080D01*
X008899Y005572D02*
X008899Y005572D01*
X008053Y005572D01*
X008053Y005572D01*
X008899Y005572D01*
X008899Y006065D02*
X008899Y006065D01*
X008053Y006065D01*
X008053Y006065D01*
X008899Y006065D01*
X008899Y006557D02*
X008899Y006557D01*
X008053Y006557D01*
X008053Y006557D01*
X008899Y006557D01*
X009343Y006783D02*
X009343Y006783D01*
X009343Y007629D01*
X009343Y007629D01*
X009343Y006783D01*
X009343Y007117D02*
X009343Y007117D01*
X009343Y007451D02*
X009343Y007451D01*
X009835Y006783D02*
X009835Y006783D01*
X009835Y007629D01*
X009835Y007629D01*
X009835Y006783D01*
X009835Y007117D02*
X009835Y007117D01*
X009835Y007451D02*
X009835Y007451D01*
X010327Y006783D02*
X010327Y006783D01*
X010327Y007629D01*
X010327Y007629D01*
X010327Y006783D01*
X010327Y007117D02*
X010327Y007117D01*
X010327Y007451D02*
X010327Y007451D01*
X010819Y006783D02*
X010819Y006783D01*
X010819Y007629D01*
X010819Y007629D01*
X010819Y006783D01*
X010819Y007117D02*
X010819Y007117D01*
X010819Y007451D02*
X010819Y007451D01*
X011311Y006783D02*
X011311Y006783D01*
X011311Y007629D01*
X011311Y007629D01*
X011311Y006783D01*
X011311Y007117D02*
X011311Y007117D01*
X011311Y007451D02*
X011311Y007451D01*
X011803Y006783D02*
X011803Y006783D01*
X011803Y007629D01*
X011803Y007629D01*
X011803Y006783D01*
X011803Y007117D02*
X011803Y007117D01*
X011803Y007451D02*
X011803Y007451D01*
X012295Y006783D02*
X012295Y006783D01*
X012295Y007629D01*
X012295Y007629D01*
X012295Y006783D01*
X012295Y007117D02*
X012295Y007117D01*
X012295Y007451D02*
X012295Y007451D01*
X012787Y006783D02*
X012787Y006783D01*
X012787Y007629D01*
X012787Y007629D01*
X012787Y006783D01*
X012787Y007117D02*
X012787Y007117D01*
X012787Y007451D02*
X012787Y007451D01*
X013280Y006783D02*
X013280Y006783D01*
X013280Y007629D01*
X013280Y007629D01*
X013280Y006783D01*
X013280Y007117D02*
X013280Y007117D01*
X013280Y007451D02*
X013280Y007451D01*
X013772Y006783D02*
X013772Y006783D01*
X013772Y007629D01*
X013772Y007629D01*
X013772Y006783D01*
X013772Y007117D02*
X013772Y007117D01*
X013772Y007451D02*
X013772Y007451D01*
X014264Y006783D02*
X014264Y006783D01*
X014264Y007629D01*
X014264Y007629D01*
X014264Y006783D01*
X014264Y007117D02*
X014264Y007117D01*
X014264Y007451D02*
X014264Y007451D01*
X014756Y006783D02*
X014756Y006783D01*
X014756Y007629D01*
X014756Y007629D01*
X014756Y006783D01*
X014756Y007117D02*
X014756Y007117D01*
X014756Y007451D02*
X014756Y007451D01*
X015248Y006783D02*
X015248Y006783D01*
X015248Y007629D01*
X015248Y007629D01*
X015248Y006783D01*
X015248Y007117D02*
X015248Y007117D01*
X015248Y007451D02*
X015248Y007451D01*
X008899Y003112D02*
X008899Y003112D01*
X008053Y003112D01*
X008053Y003112D01*
X008899Y003112D01*
X009343Y002039D02*
X009343Y002039D01*
X009343Y002885D01*
X009343Y002885D01*
X009343Y002039D01*
X009343Y002373D02*
X009343Y002373D01*
X009343Y002707D02*
X009343Y002707D01*
X009835Y002039D02*
X009835Y002039D01*
X009835Y002885D01*
X009835Y002885D01*
X009835Y002039D01*
X009835Y002373D02*
X009835Y002373D01*
X009835Y002707D02*
X009835Y002707D01*
X010327Y002039D02*
X010327Y002039D01*
X010327Y002885D01*
X010327Y002885D01*
X010327Y002039D01*
X010327Y002373D02*
X010327Y002373D01*
X010327Y002707D02*
X010327Y002707D01*
X010819Y002039D02*
X010819Y002039D01*
X010819Y002885D01*
X010819Y002885D01*
X010819Y002039D01*
X010819Y002373D02*
X010819Y002373D01*
X010819Y002707D02*
X010819Y002707D01*
X011311Y002039D02*
X011311Y002039D01*
X011311Y002885D01*
X011311Y002885D01*
X011311Y002039D01*
X011311Y002373D02*
X011311Y002373D01*
X011311Y002707D02*
X011311Y002707D01*
X011803Y002039D02*
X011803Y002039D01*
X011803Y002885D01*
X011803Y002885D01*
X011803Y002039D01*
X011803Y002373D02*
X011803Y002373D01*
X011803Y002707D02*
X011803Y002707D01*
X012295Y002039D02*
X012295Y002039D01*
X012295Y002885D01*
X012295Y002885D01*
X012295Y002039D01*
X012295Y002373D02*
X012295Y002373D01*
X012295Y002707D02*
X012295Y002707D01*
X012787Y002039D02*
X012787Y002039D01*
X012787Y002885D01*
X012787Y002885D01*
X012787Y002039D01*
X012787Y002373D02*
X012787Y002373D01*
X012787Y002707D02*
X012787Y002707D01*
X013280Y002039D02*
X013280Y002039D01*
X013280Y002885D01*
X013280Y002885D01*
X013280Y002039D01*
X013280Y002373D02*
X013280Y002373D01*
X013280Y002707D02*
X013280Y002707D01*
M02*
