G75*
%MOIN*%
%OFA0B0*%
%FSLAX24Y24*%
%IPPOS*%
%LPD*%
%AMOC8*
5,1,8,0,0,1.08239X$1,22.5*
%
%ADD10R,0.0540X0.0710*%
%ADD11R,0.0060X0.0720*%
%ADD12OC8,0.0474*%
%ADD13R,0.0768X0.0768*%
%ADD14OC8,0.0780*%
D10*
X001339Y002224D03*
X001939Y002224D03*
X002939Y007424D03*
X003539Y007424D03*
X004939Y007424D03*
X005539Y007424D03*
X006939Y007424D03*
X007539Y007424D03*
D11*
X007239Y007424D03*
X005239Y007424D03*
X003239Y007424D03*
X001639Y002224D03*
D12*
X002489Y003948D03*
X002489Y005700D03*
D13*
X001436Y006468D03*
X001436Y003181D03*
D14*
X001139Y000824D03*
X002139Y000824D03*
X003139Y000824D03*
X004139Y000824D03*
X005139Y000824D03*
X006139Y000824D03*
X007139Y000824D03*
X008139Y000824D03*
X009139Y000824D03*
X010139Y000824D03*
X011139Y000824D03*
X012139Y000824D03*
X012139Y008824D03*
X011139Y008824D03*
X010139Y008824D03*
X009139Y008824D03*
X008139Y008824D03*
X007139Y008824D03*
X006139Y008824D03*
X005139Y008824D03*
X004139Y008824D03*
X003139Y008824D03*
X002139Y008824D03*
X001139Y008824D03*
X013139Y008824D03*
M02*
