G75*
%MOIN*%
%OFA0B0*%
%FSLAX25Y25*%
%IPPOS*%
%LPD*%
%AMOC8*
5,1,8,0,0,1.08239X$1,22.5*
%
%ADD10C,0.00000*%
%ADD11C,0.00400*%
%ADD12C,0.01000*%
%ADD13C,0.00500*%
%ADD14C,0.00600*%
%ADD15C,0.00040*%
%ADD16R,0.01280X0.01969*%
%ADD17R,0.00591X0.00984*%
%ADD18R,0.01575X0.00689*%
%ADD19R,0.00787X0.00787*%
%ADD20R,0.01181X0.01181*%
%ADD21R,0.00886X0.00295*%
%ADD22R,0.03740X0.01969*%
%ADD23R,0.03000X0.01800*%
%ADD24C,0.00200*%
%ADD25R,0.02000X0.02000*%
%ADD26C,0.00300*%
%ADD27C,0.00800*%
%ADD28R,0.07300X0.12600*%
%ADD29R,0.07300X0.03400*%
%ADD30R,0.05906X0.11811*%
D10*
X0007467Y0008000D02*
X0007467Y0108000D01*
X0227467Y0108000D01*
X0227467Y0008000D01*
X0007467Y0008000D01*
D11*
X0008967Y0019200D02*
X0010128Y0019200D01*
X0010515Y0019587D01*
X0010515Y0019974D01*
X0010128Y0020361D01*
X0008967Y0020361D01*
X0010128Y0020361D02*
X0010515Y0020748D01*
X0010515Y0021135D01*
X0010128Y0021522D01*
X0008967Y0021522D01*
X0008967Y0019200D01*
X0011471Y0019200D02*
X0013019Y0019200D01*
X0012245Y0019200D02*
X0012245Y0021522D01*
X0011471Y0020748D01*
X0013976Y0020361D02*
X0014750Y0020748D01*
X0015137Y0020748D01*
X0015524Y0020361D01*
X0015524Y0019587D01*
X0015137Y0019200D01*
X0014363Y0019200D01*
X0013976Y0019587D01*
X0013976Y0020361D02*
X0013976Y0021522D01*
X0015524Y0021522D01*
X0018985Y0021522D02*
X0018985Y0019200D01*
X0020146Y0019200D01*
X0020533Y0019587D01*
X0020533Y0019974D01*
X0020146Y0020361D01*
X0018985Y0020361D01*
X0020146Y0020361D02*
X0020533Y0020748D01*
X0020533Y0021135D01*
X0020146Y0021522D01*
X0018985Y0021522D01*
X0021489Y0020748D02*
X0022263Y0021522D01*
X0022263Y0019200D01*
X0021489Y0019200D02*
X0023037Y0019200D01*
X0023994Y0020361D02*
X0025542Y0020361D01*
X0025155Y0019200D02*
X0025155Y0021522D01*
X0023994Y0020361D01*
X0029003Y0020361D02*
X0030164Y0020361D01*
X0030551Y0019974D01*
X0030551Y0019587D01*
X0030164Y0019200D01*
X0029003Y0019200D01*
X0029003Y0021522D01*
X0030164Y0021522D01*
X0030551Y0021135D01*
X0030551Y0020748D01*
X0030164Y0020361D01*
X0031508Y0020748D02*
X0032282Y0021522D01*
X0032282Y0019200D01*
X0033055Y0019200D02*
X0031508Y0019200D01*
X0034012Y0019587D02*
X0034399Y0019200D01*
X0035173Y0019200D01*
X0035560Y0019587D01*
X0035560Y0019974D01*
X0035173Y0020361D01*
X0034786Y0020361D01*
X0035173Y0020361D02*
X0035560Y0020748D01*
X0035560Y0021135D01*
X0035173Y0021522D01*
X0034399Y0021522D01*
X0034012Y0021135D01*
X0039021Y0021522D02*
X0039021Y0019200D01*
X0040182Y0019200D01*
X0040569Y0019587D01*
X0040569Y0019974D01*
X0040182Y0020361D01*
X0039021Y0020361D01*
X0039021Y0021522D02*
X0040182Y0021522D01*
X0040569Y0021135D01*
X0040569Y0020748D01*
X0040182Y0020361D01*
X0041526Y0020748D02*
X0042300Y0021522D01*
X0042300Y0019200D01*
X0041526Y0019200D02*
X0043074Y0019200D01*
X0044030Y0019200D02*
X0045578Y0020748D01*
X0045578Y0021135D01*
X0045191Y0021522D01*
X0044417Y0021522D01*
X0044030Y0021135D01*
X0044030Y0019200D02*
X0045578Y0019200D01*
X0049039Y0019200D02*
X0049039Y0021522D01*
X0050200Y0021522D01*
X0050587Y0021135D01*
X0050587Y0020748D01*
X0050200Y0020361D01*
X0049039Y0020361D01*
X0049039Y0019200D02*
X0050200Y0019200D01*
X0050587Y0019587D01*
X0050587Y0019974D01*
X0050200Y0020361D01*
X0051544Y0020748D02*
X0052318Y0021522D01*
X0052318Y0019200D01*
X0051544Y0019200D02*
X0053092Y0019200D01*
X0054048Y0019200D02*
X0055596Y0019200D01*
X0054822Y0019200D02*
X0054822Y0021522D01*
X0054048Y0020748D01*
X0059057Y0020361D02*
X0060218Y0020361D01*
X0060605Y0019974D01*
X0060605Y0019587D01*
X0060218Y0019200D01*
X0059057Y0019200D01*
X0059057Y0021522D01*
X0060218Y0021522D01*
X0060605Y0021135D01*
X0060605Y0020748D01*
X0060218Y0020361D01*
X0061562Y0020748D02*
X0062336Y0021522D01*
X0062336Y0019200D01*
X0061562Y0019200D02*
X0063110Y0019200D01*
X0064067Y0019587D02*
X0065615Y0021135D01*
X0065615Y0019587D01*
X0065228Y0019200D01*
X0064454Y0019200D01*
X0064067Y0019587D01*
X0064067Y0021135D01*
X0064454Y0021522D01*
X0065228Y0021522D01*
X0065615Y0021135D01*
X0070167Y0021522D02*
X0070167Y0019200D01*
X0071328Y0019200D01*
X0071715Y0019587D01*
X0071715Y0019974D01*
X0071328Y0020361D01*
X0070167Y0020361D01*
X0071328Y0020361D02*
X0071715Y0020748D01*
X0071715Y0021135D01*
X0071328Y0021522D01*
X0070167Y0021522D01*
X0072671Y0021135D02*
X0072671Y0020748D01*
X0073058Y0020361D01*
X0073832Y0020361D01*
X0074219Y0019974D01*
X0074219Y0019587D01*
X0073832Y0019200D01*
X0073058Y0019200D01*
X0072671Y0019587D01*
X0072671Y0019974D01*
X0073058Y0020361D01*
X0073832Y0020361D02*
X0074219Y0020748D01*
X0074219Y0021135D01*
X0073832Y0021522D01*
X0073058Y0021522D01*
X0072671Y0021135D01*
X0080185Y0021522D02*
X0080185Y0019200D01*
X0081346Y0019200D01*
X0081733Y0019587D01*
X0081733Y0019974D01*
X0081346Y0020361D01*
X0080185Y0020361D01*
X0081346Y0020361D02*
X0081733Y0020748D01*
X0081733Y0021135D01*
X0081346Y0021522D01*
X0080185Y0021522D01*
X0082689Y0021522D02*
X0082689Y0020361D01*
X0083463Y0020748D01*
X0083850Y0020748D01*
X0084237Y0020361D01*
X0084237Y0019587D01*
X0083850Y0019200D01*
X0083076Y0019200D01*
X0082689Y0019587D01*
X0082689Y0021522D02*
X0084237Y0021522D01*
X0090203Y0021522D02*
X0090203Y0019200D01*
X0090203Y0020361D02*
X0090977Y0020361D01*
X0090203Y0021522D02*
X0091751Y0021522D01*
X0092708Y0021522D02*
X0092708Y0020361D01*
X0093482Y0020748D01*
X0093869Y0020748D01*
X0094255Y0020361D01*
X0094255Y0019587D01*
X0093869Y0019200D01*
X0093095Y0019200D01*
X0092708Y0019587D01*
X0092708Y0021522D02*
X0094255Y0021522D01*
X0100221Y0021522D02*
X0100221Y0019200D01*
X0100221Y0020361D02*
X0100995Y0020361D01*
X0100221Y0021522D02*
X0101769Y0021522D01*
X0102726Y0020361D02*
X0104274Y0020361D01*
X0103887Y0019200D02*
X0103887Y0021522D01*
X0102726Y0020361D01*
X0110239Y0019200D02*
X0111400Y0019200D01*
X0111787Y0019587D01*
X0111787Y0021135D01*
X0111400Y0021522D01*
X0110239Y0021522D01*
X0110239Y0019200D01*
X0112744Y0019587D02*
X0114292Y0021135D01*
X0114292Y0019587D01*
X0113905Y0019200D01*
X0113131Y0019200D01*
X0112744Y0019587D01*
X0112744Y0021135D01*
X0113131Y0021522D01*
X0113905Y0021522D01*
X0114292Y0021135D01*
X0120257Y0021522D02*
X0120257Y0019200D01*
X0121418Y0019200D01*
X0121805Y0019587D01*
X0121805Y0021135D01*
X0121418Y0021522D01*
X0120257Y0021522D01*
X0122762Y0020748D02*
X0123536Y0021522D01*
X0123536Y0019200D01*
X0122762Y0019200D02*
X0124310Y0019200D01*
X0130276Y0019200D02*
X0130276Y0021522D01*
X0131437Y0021522D01*
X0131824Y0021135D01*
X0131824Y0019587D01*
X0131437Y0019200D01*
X0130276Y0019200D01*
X0132780Y0019200D02*
X0134328Y0020748D01*
X0134328Y0021135D01*
X0133941Y0021522D01*
X0133167Y0021522D01*
X0132780Y0021135D01*
X0132780Y0019200D02*
X0134328Y0019200D01*
X0140294Y0019200D02*
X0141455Y0019200D01*
X0141842Y0019587D01*
X0141842Y0021135D01*
X0141455Y0021522D01*
X0140294Y0021522D01*
X0140294Y0019200D01*
X0142798Y0019587D02*
X0143185Y0019200D01*
X0143959Y0019200D01*
X0144346Y0019587D01*
X0144346Y0019974D01*
X0143959Y0020361D01*
X0143572Y0020361D01*
X0143959Y0020361D02*
X0144346Y0020748D01*
X0144346Y0021135D01*
X0143959Y0021522D01*
X0143185Y0021522D01*
X0142798Y0021135D01*
X0150312Y0021522D02*
X0150312Y0019200D01*
X0151473Y0019200D01*
X0151860Y0019587D01*
X0151860Y0021135D01*
X0151473Y0021522D01*
X0150312Y0021522D01*
X0152816Y0020361D02*
X0154364Y0020361D01*
X0153977Y0019200D02*
X0153977Y0021522D01*
X0152816Y0020361D01*
X0160330Y0019200D02*
X0161491Y0019200D01*
X0161878Y0019587D01*
X0161878Y0021135D01*
X0161491Y0021522D01*
X0160330Y0021522D01*
X0160330Y0019200D01*
X0162835Y0019587D02*
X0163222Y0019200D01*
X0163996Y0019200D01*
X0164383Y0019587D01*
X0164383Y0020361D01*
X0163996Y0020748D01*
X0163609Y0020748D01*
X0162835Y0020361D01*
X0162835Y0021522D01*
X0164383Y0021522D01*
X0170348Y0021522D02*
X0170348Y0019200D01*
X0171509Y0019200D01*
X0171896Y0019587D01*
X0171896Y0021135D01*
X0171509Y0021522D01*
X0170348Y0021522D01*
X0172853Y0020361D02*
X0174014Y0020361D01*
X0174401Y0019974D01*
X0174401Y0019587D01*
X0174014Y0019200D01*
X0173240Y0019200D01*
X0172853Y0019587D01*
X0172853Y0020361D01*
X0173627Y0021135D01*
X0174401Y0021522D01*
X0180366Y0021522D02*
X0180366Y0019200D01*
X0181527Y0019200D01*
X0181914Y0019587D01*
X0181914Y0021135D01*
X0181527Y0021522D01*
X0180366Y0021522D01*
X0182871Y0021522D02*
X0184419Y0021522D01*
X0184419Y0021135D01*
X0182871Y0019587D01*
X0182871Y0019200D01*
X0190385Y0019200D02*
X0191546Y0019200D01*
X0191933Y0019587D01*
X0191933Y0021135D01*
X0191546Y0021522D01*
X0190385Y0021522D01*
X0190385Y0019200D01*
X0192889Y0019587D02*
X0193276Y0019200D01*
X0194050Y0019200D01*
X0194437Y0019587D01*
X0194437Y0021135D01*
X0194050Y0021522D01*
X0193276Y0021522D01*
X0192889Y0021135D01*
X0192889Y0020748D01*
X0193276Y0020361D01*
X0194437Y0020361D01*
X0198967Y0021522D02*
X0198967Y0019200D01*
X0200128Y0019200D01*
X0200515Y0019587D01*
X0200515Y0021135D01*
X0200128Y0021522D01*
X0198967Y0021522D01*
X0201471Y0020748D02*
X0202245Y0021522D01*
X0202245Y0019200D01*
X0201471Y0019200D02*
X0203019Y0019200D01*
X0203976Y0019587D02*
X0205524Y0021135D01*
X0205524Y0019587D01*
X0205137Y0019200D01*
X0204363Y0019200D01*
X0203976Y0019587D01*
X0203976Y0021135D01*
X0204363Y0021522D01*
X0205137Y0021522D01*
X0205524Y0021135D01*
X0208985Y0021522D02*
X0208985Y0019200D01*
X0210146Y0019200D01*
X0210533Y0019587D01*
X0210533Y0021135D01*
X0210146Y0021522D01*
X0208985Y0021522D01*
X0211489Y0020748D02*
X0212263Y0021522D01*
X0212263Y0019200D01*
X0211489Y0019200D02*
X0213037Y0019200D01*
X0213994Y0019200D02*
X0215542Y0019200D01*
X0214768Y0019200D02*
X0214768Y0021522D01*
X0213994Y0020748D01*
X0104255Y0039587D02*
X0103869Y0039200D01*
X0103095Y0039200D01*
X0102708Y0039587D01*
X0103482Y0040361D02*
X0103869Y0040361D01*
X0104255Y0039974D01*
X0104255Y0039587D01*
X0103869Y0040361D02*
X0104255Y0040748D01*
X0104255Y0041135D01*
X0103869Y0041522D01*
X0103095Y0041522D01*
X0102708Y0041135D01*
X0101751Y0041522D02*
X0100203Y0041522D01*
X0100203Y0039200D01*
X0100203Y0040361D02*
X0100977Y0040361D01*
X0094237Y0039974D02*
X0094237Y0039587D01*
X0093850Y0039200D01*
X0093076Y0039200D01*
X0092689Y0039587D01*
X0091733Y0039587D02*
X0091733Y0040361D01*
X0090959Y0040361D01*
X0091733Y0041135D02*
X0091346Y0041522D01*
X0090572Y0041522D01*
X0090185Y0041135D01*
X0090185Y0039587D01*
X0090572Y0039200D01*
X0091346Y0039200D01*
X0091733Y0039587D01*
X0092689Y0041135D02*
X0093076Y0041522D01*
X0093850Y0041522D01*
X0094237Y0041135D01*
X0094237Y0040748D01*
X0093850Y0040361D01*
X0094237Y0039974D01*
X0093850Y0040361D02*
X0093463Y0040361D01*
X0084219Y0040748D02*
X0082671Y0039200D01*
X0084219Y0039200D01*
X0084219Y0040748D02*
X0084219Y0041135D01*
X0083832Y0041522D01*
X0083058Y0041522D01*
X0082671Y0041135D01*
X0081715Y0041135D02*
X0081328Y0041522D01*
X0080554Y0041522D01*
X0080167Y0041135D01*
X0080167Y0039587D01*
X0080554Y0039200D01*
X0081328Y0039200D01*
X0081715Y0039587D01*
X0081715Y0040361D01*
X0080941Y0040361D01*
X0063730Y0045933D02*
X0063730Y0050067D01*
X0059289Y0051346D02*
X0059291Y0051386D01*
X0059297Y0051425D01*
X0059306Y0051464D01*
X0059320Y0051501D01*
X0059337Y0051537D01*
X0059357Y0051572D01*
X0059381Y0051604D01*
X0059408Y0051633D01*
X0059437Y0051660D01*
X0059469Y0051684D01*
X0059504Y0051704D01*
X0059540Y0051721D01*
X0059577Y0051735D01*
X0059616Y0051744D01*
X0059655Y0051750D01*
X0059695Y0051752D01*
X0059735Y0051750D01*
X0059774Y0051744D01*
X0059813Y0051735D01*
X0059850Y0051721D01*
X0059886Y0051704D01*
X0059921Y0051684D01*
X0059953Y0051660D01*
X0059982Y0051633D01*
X0060009Y0051604D01*
X0060033Y0051572D01*
X0060053Y0051537D01*
X0060070Y0051501D01*
X0060084Y0051464D01*
X0060093Y0051425D01*
X0060099Y0051386D01*
X0060101Y0051346D01*
X0060099Y0051306D01*
X0060093Y0051267D01*
X0060084Y0051228D01*
X0060070Y0051191D01*
X0060053Y0051155D01*
X0060033Y0051120D01*
X0060009Y0051088D01*
X0059982Y0051059D01*
X0059953Y0051032D01*
X0059921Y0051008D01*
X0059886Y0050988D01*
X0059850Y0050971D01*
X0059813Y0050957D01*
X0059774Y0050948D01*
X0059735Y0050942D01*
X0059695Y0050940D01*
X0059655Y0050942D01*
X0059616Y0050948D01*
X0059577Y0050957D01*
X0059540Y0050971D01*
X0059504Y0050988D01*
X0059469Y0051008D01*
X0059437Y0051032D01*
X0059408Y0051059D01*
X0059381Y0051088D01*
X0059357Y0051120D01*
X0059337Y0051155D01*
X0059320Y0051191D01*
X0059306Y0051228D01*
X0059297Y0051267D01*
X0059291Y0051306D01*
X0059289Y0051346D01*
X0059203Y0051642D02*
X0059203Y0046031D01*
X0058267Y0046743D02*
X0057933Y0046410D01*
X0058267Y0046743D02*
X0058267Y0047411D01*
X0057933Y0047744D01*
X0057599Y0047744D01*
X0057266Y0047411D01*
X0057266Y0046743D01*
X0056932Y0046410D01*
X0056599Y0046410D01*
X0056265Y0046743D01*
X0056265Y0047411D01*
X0056599Y0047744D01*
X0056265Y0048620D02*
X0056265Y0049621D01*
X0056599Y0049954D01*
X0057266Y0049954D01*
X0057599Y0049621D01*
X0057599Y0048620D01*
X0057599Y0049287D02*
X0058267Y0049954D01*
X0058267Y0048620D02*
X0056265Y0048620D01*
X0053730Y0050067D02*
X0053730Y0045933D01*
X0056265Y0045534D02*
X0057933Y0045534D01*
X0058267Y0045201D01*
X0058267Y0044534D01*
X0057933Y0044200D01*
X0056265Y0044200D01*
X0049203Y0046031D02*
X0049203Y0051642D01*
X0049289Y0051346D02*
X0049291Y0051386D01*
X0049297Y0051425D01*
X0049306Y0051464D01*
X0049320Y0051501D01*
X0049337Y0051537D01*
X0049357Y0051572D01*
X0049381Y0051604D01*
X0049408Y0051633D01*
X0049437Y0051660D01*
X0049469Y0051684D01*
X0049504Y0051704D01*
X0049540Y0051721D01*
X0049577Y0051735D01*
X0049616Y0051744D01*
X0049655Y0051750D01*
X0049695Y0051752D01*
X0049735Y0051750D01*
X0049774Y0051744D01*
X0049813Y0051735D01*
X0049850Y0051721D01*
X0049886Y0051704D01*
X0049921Y0051684D01*
X0049953Y0051660D01*
X0049982Y0051633D01*
X0050009Y0051604D01*
X0050033Y0051572D01*
X0050053Y0051537D01*
X0050070Y0051501D01*
X0050084Y0051464D01*
X0050093Y0051425D01*
X0050099Y0051386D01*
X0050101Y0051346D01*
X0050099Y0051306D01*
X0050093Y0051267D01*
X0050084Y0051228D01*
X0050070Y0051191D01*
X0050053Y0051155D01*
X0050033Y0051120D01*
X0050009Y0051088D01*
X0049982Y0051059D01*
X0049953Y0051032D01*
X0049921Y0051008D01*
X0049886Y0050988D01*
X0049850Y0050971D01*
X0049813Y0050957D01*
X0049774Y0050948D01*
X0049735Y0050942D01*
X0049695Y0050940D01*
X0049655Y0050942D01*
X0049616Y0050948D01*
X0049577Y0050957D01*
X0049540Y0050971D01*
X0049504Y0050988D01*
X0049469Y0051008D01*
X0049437Y0051032D01*
X0049408Y0051059D01*
X0049381Y0051088D01*
X0049357Y0051120D01*
X0049337Y0051155D01*
X0049320Y0051191D01*
X0049306Y0051228D01*
X0049297Y0051267D01*
X0049291Y0051306D01*
X0049289Y0051346D01*
X0048267Y0049954D02*
X0047599Y0049287D01*
X0047599Y0049621D02*
X0047599Y0048620D01*
X0048267Y0048620D02*
X0046265Y0048620D01*
X0046265Y0049621D01*
X0046599Y0049954D01*
X0047266Y0049954D01*
X0047599Y0049621D01*
X0048267Y0047744D02*
X0046265Y0047744D01*
X0046265Y0046410D02*
X0048267Y0046410D01*
X0047599Y0047077D01*
X0048267Y0047744D01*
X0047266Y0045534D02*
X0047599Y0045201D01*
X0047599Y0044200D01*
X0048267Y0044200D02*
X0046265Y0044200D01*
X0046265Y0045201D01*
X0046599Y0045534D01*
X0047266Y0045534D01*
X0040989Y0045285D02*
X0040602Y0044898D01*
X0039828Y0044898D01*
X0039441Y0045285D01*
X0039441Y0046446D01*
X0038667Y0046446D02*
X0040989Y0046446D01*
X0040989Y0045285D01*
X0040989Y0043941D02*
X0038667Y0043941D01*
X0038667Y0042780D01*
X0039054Y0042393D01*
X0039441Y0042393D01*
X0039828Y0042780D01*
X0039828Y0043941D01*
X0040989Y0043941D02*
X0040989Y0042780D01*
X0040602Y0042393D01*
X0040215Y0042393D01*
X0039828Y0042780D01*
X0038667Y0044898D02*
X0039441Y0045672D01*
X0039054Y0049907D02*
X0038667Y0050294D01*
X0038667Y0051068D01*
X0039054Y0051455D01*
X0040602Y0049907D01*
X0039054Y0049907D01*
X0039054Y0051455D02*
X0040602Y0051455D01*
X0040989Y0051068D01*
X0040989Y0050294D01*
X0040602Y0049907D01*
X0040602Y0052411D02*
X0040215Y0052411D01*
X0039828Y0052798D01*
X0039828Y0053959D01*
X0039828Y0054916D02*
X0039441Y0055303D01*
X0039441Y0056464D01*
X0039441Y0055690D02*
X0038667Y0054916D01*
X0038667Y0053959D02*
X0038667Y0052798D01*
X0039054Y0052411D01*
X0039441Y0052411D01*
X0039828Y0052798D01*
X0040602Y0052411D02*
X0040989Y0052798D01*
X0040989Y0053959D01*
X0038667Y0053959D01*
X0039828Y0054916D02*
X0040602Y0054916D01*
X0040989Y0055303D01*
X0040989Y0056464D01*
X0038667Y0056464D01*
X0039054Y0059925D02*
X0040602Y0059925D01*
X0040989Y0060312D01*
X0040989Y0061473D01*
X0038667Y0061473D01*
X0038667Y0060312D01*
X0039054Y0059925D01*
X0038667Y0062429D02*
X0040989Y0062429D01*
X0040989Y0063977D02*
X0038667Y0063977D01*
X0039054Y0064934D02*
X0038667Y0065321D01*
X0038667Y0066095D01*
X0039054Y0066482D01*
X0040602Y0066482D01*
X0040989Y0066095D01*
X0040989Y0065321D01*
X0040602Y0064934D01*
X0039828Y0064934D02*
X0039828Y0065708D01*
X0039828Y0064934D02*
X0039054Y0064934D01*
X0040989Y0063977D02*
X0038667Y0062429D01*
X0039054Y0069943D02*
X0038667Y0070330D01*
X0038667Y0071104D01*
X0039054Y0071491D01*
X0039441Y0072447D02*
X0040989Y0072447D01*
X0040602Y0071491D02*
X0040989Y0071104D01*
X0040989Y0070330D01*
X0040602Y0069943D01*
X0040215Y0069943D01*
X0039828Y0070330D01*
X0039441Y0069943D01*
X0039054Y0069943D01*
X0039828Y0070330D02*
X0039828Y0070717D01*
X0039441Y0072447D02*
X0038667Y0073221D01*
X0039441Y0073995D01*
X0040989Y0073995D01*
X0040602Y0074952D02*
X0040215Y0074952D01*
X0039828Y0075339D01*
X0039441Y0074952D01*
X0039054Y0074952D01*
X0038667Y0075339D01*
X0038667Y0076113D01*
X0039054Y0076500D01*
X0039828Y0075726D02*
X0039828Y0075339D01*
X0040602Y0074952D02*
X0040989Y0075339D01*
X0040989Y0076113D01*
X0040602Y0076500D01*
X0040602Y0078438D02*
X0039828Y0078438D01*
X0039441Y0078825D01*
X0039441Y0079986D01*
X0039441Y0079212D02*
X0038667Y0078438D01*
X0038667Y0079986D02*
X0040989Y0079986D01*
X0040989Y0078825D01*
X0040602Y0078438D01*
X0038667Y0080943D02*
X0038667Y0082491D01*
X0040989Y0082491D01*
X0040602Y0083447D02*
X0040989Y0083834D01*
X0040989Y0084608D01*
X0040602Y0084995D01*
X0039054Y0084995D01*
X0038667Y0084608D01*
X0038667Y0083834D01*
X0039054Y0083447D01*
X0038667Y0085952D02*
X0040989Y0085952D01*
X0040215Y0086726D01*
X0040989Y0087500D01*
X0038667Y0087500D01*
X0036631Y0089534D02*
X0036631Y0090201D01*
X0035964Y0090201D01*
X0036631Y0090868D02*
X0036297Y0091202D01*
X0035630Y0091202D01*
X0035296Y0090868D01*
X0035296Y0089534D01*
X0035630Y0089200D01*
X0036297Y0089200D01*
X0036631Y0089534D01*
X0034421Y0089534D02*
X0034421Y0090868D01*
X0034087Y0091202D01*
X0033420Y0091202D01*
X0033086Y0090868D01*
X0033086Y0089534D01*
X0033420Y0089200D01*
X0034087Y0089200D01*
X0034421Y0089534D01*
X0032211Y0089200D02*
X0031544Y0089867D01*
X0031877Y0089867D02*
X0030877Y0089867D01*
X0030877Y0089200D02*
X0030877Y0091202D01*
X0031877Y0091202D01*
X0032211Y0090868D01*
X0032211Y0090201D01*
X0031877Y0089867D01*
X0030001Y0090201D02*
X0029668Y0089867D01*
X0028667Y0089867D01*
X0028667Y0089200D02*
X0028667Y0091202D01*
X0029668Y0091202D01*
X0030001Y0090868D01*
X0030001Y0090201D01*
X0029846Y0094200D02*
X0029072Y0094200D01*
X0028685Y0094587D01*
X0028685Y0096135D01*
X0029072Y0096522D01*
X0029846Y0096522D01*
X0030233Y0096135D01*
X0031189Y0095748D02*
X0031963Y0096522D01*
X0031963Y0094200D01*
X0031189Y0094200D02*
X0032737Y0094200D01*
X0033694Y0095361D02*
X0035242Y0095361D01*
X0034855Y0094200D02*
X0034855Y0096522D01*
X0033694Y0095361D01*
X0030233Y0094587D02*
X0029846Y0094200D01*
X0025224Y0094587D02*
X0024837Y0094200D01*
X0024063Y0094200D01*
X0023676Y0094587D01*
X0023676Y0095361D02*
X0024450Y0095748D01*
X0024837Y0095748D01*
X0025224Y0095361D01*
X0025224Y0094587D01*
X0023676Y0095361D02*
X0023676Y0096522D01*
X0025224Y0096522D01*
X0021945Y0096522D02*
X0021945Y0094200D01*
X0021171Y0094200D02*
X0022719Y0094200D01*
X0020215Y0094587D02*
X0019828Y0094200D01*
X0019054Y0094200D01*
X0018667Y0094587D01*
X0018667Y0096135D01*
X0019054Y0096522D01*
X0019828Y0096522D01*
X0020215Y0096135D01*
X0021171Y0095748D02*
X0021945Y0096522D01*
X0014219Y0096522D02*
X0014219Y0094974D01*
X0013445Y0094200D01*
X0012671Y0094974D01*
X0012671Y0096522D01*
X0011715Y0096522D02*
X0010167Y0096522D01*
X0010167Y0095361D01*
X0010941Y0095748D01*
X0011328Y0095748D01*
X0011715Y0095361D01*
X0011715Y0094587D01*
X0011328Y0094200D01*
X0010554Y0094200D01*
X0010167Y0094587D01*
X0010001Y0091202D02*
X0010001Y0089534D01*
X0009668Y0089200D01*
X0009000Y0089200D01*
X0008667Y0089534D01*
X0008667Y0091202D01*
X0010877Y0090534D02*
X0011544Y0091202D01*
X0012211Y0090534D01*
X0012211Y0089200D01*
X0013086Y0089200D02*
X0013086Y0091202D01*
X0014087Y0091202D01*
X0014421Y0090868D01*
X0014421Y0090201D01*
X0014087Y0089867D01*
X0013086Y0089867D01*
X0013754Y0089867D02*
X0014421Y0089200D01*
X0015964Y0089200D02*
X0015964Y0091202D01*
X0016631Y0091202D02*
X0015296Y0091202D01*
X0017506Y0090868D02*
X0017840Y0091202D01*
X0018507Y0091202D01*
X0018841Y0090868D01*
X0018841Y0090534D01*
X0017506Y0089200D01*
X0018841Y0089200D01*
X0018667Y0086500D02*
X0020989Y0086500D01*
X0020989Y0085339D01*
X0020602Y0084952D01*
X0019828Y0084952D01*
X0019441Y0085339D01*
X0019441Y0086500D01*
X0019441Y0085726D02*
X0018667Y0084952D01*
X0018667Y0083221D02*
X0020989Y0083221D01*
X0020989Y0083995D02*
X0020989Y0082447D01*
X0020602Y0081491D02*
X0020215Y0081491D01*
X0019828Y0081104D01*
X0019828Y0080330D01*
X0019441Y0079943D01*
X0019054Y0079943D01*
X0018667Y0080330D01*
X0018667Y0081104D01*
X0019054Y0081491D01*
X0020602Y0081491D02*
X0020989Y0081104D01*
X0020989Y0080330D01*
X0020602Y0079943D01*
X0020989Y0076482D02*
X0018667Y0076482D01*
X0019441Y0076482D02*
X0019441Y0075321D01*
X0019828Y0074934D01*
X0020602Y0074934D01*
X0020989Y0075321D01*
X0020989Y0076482D01*
X0019441Y0075708D02*
X0018667Y0074934D01*
X0018667Y0073977D02*
X0020989Y0072429D01*
X0020989Y0071473D02*
X0020989Y0070312D01*
X0020602Y0069925D01*
X0019054Y0069925D01*
X0018667Y0070312D01*
X0018667Y0071473D01*
X0020989Y0071473D01*
X0020989Y0073977D02*
X0018667Y0072429D01*
X0020989Y0066464D02*
X0020989Y0064916D01*
X0020989Y0065690D02*
X0018667Y0065690D01*
X0018667Y0063959D02*
X0020989Y0062411D01*
X0020989Y0061455D02*
X0018667Y0061455D01*
X0018667Y0060294D01*
X0019054Y0059907D01*
X0020602Y0059907D01*
X0020989Y0060294D01*
X0020989Y0061455D01*
X0020989Y0063959D02*
X0018667Y0062411D01*
X0019054Y0056446D02*
X0018667Y0056059D01*
X0018667Y0055285D01*
X0019054Y0054898D01*
X0019828Y0054898D01*
X0019828Y0055672D01*
X0020602Y0056446D02*
X0019054Y0056446D01*
X0020602Y0056446D02*
X0020989Y0056059D01*
X0020989Y0055285D01*
X0020602Y0054898D01*
X0020989Y0053941D02*
X0018667Y0053941D01*
X0018667Y0052393D02*
X0020989Y0052393D01*
X0020989Y0051436D02*
X0018667Y0051436D01*
X0018667Y0050275D01*
X0019054Y0049888D01*
X0020602Y0049888D01*
X0020989Y0050275D01*
X0020989Y0051436D01*
X0020989Y0053941D02*
X0018667Y0052393D01*
X0019441Y0046427D02*
X0018667Y0045653D01*
X0019441Y0044879D01*
X0020989Y0044879D01*
X0020602Y0043923D02*
X0020989Y0043536D01*
X0020989Y0042762D01*
X0020602Y0042375D01*
X0020602Y0041418D02*
X0019054Y0041418D01*
X0018667Y0041031D01*
X0018667Y0040257D01*
X0019054Y0039870D01*
X0020602Y0039870D02*
X0020989Y0040257D01*
X0020989Y0041031D01*
X0020602Y0041418D01*
X0019054Y0042375D02*
X0018667Y0042762D01*
X0018667Y0043536D01*
X0019054Y0043923D01*
X0020602Y0043923D01*
X0020989Y0046427D02*
X0019441Y0046427D01*
X0038667Y0041436D02*
X0038667Y0039888D01*
X0038667Y0040662D02*
X0040989Y0040662D01*
X0040215Y0041436D01*
X0049766Y0036402D02*
X0049766Y0033598D01*
X0053116Y0033598D02*
X0053116Y0036402D01*
X0059766Y0036402D02*
X0059766Y0033598D01*
X0063116Y0033598D02*
X0063116Y0036402D01*
X0090167Y0054200D02*
X0091328Y0054200D01*
X0091715Y0054587D01*
X0091715Y0054974D01*
X0091328Y0055361D01*
X0090167Y0055361D01*
X0091328Y0055361D02*
X0091715Y0055748D01*
X0091715Y0056135D01*
X0091328Y0056522D01*
X0090167Y0056522D01*
X0090167Y0054200D01*
X0093445Y0054200D02*
X0093445Y0056522D01*
X0092671Y0056522D02*
X0094219Y0056522D01*
X0098967Y0055748D02*
X0098967Y0054200D01*
X0098967Y0055361D02*
X0100515Y0055361D01*
X0100515Y0055748D02*
X0100515Y0054200D01*
X0101471Y0054200D02*
X0101471Y0056522D01*
X0103019Y0054200D01*
X0103019Y0056522D01*
X0103976Y0056522D02*
X0105524Y0056522D01*
X0104750Y0056522D02*
X0104750Y0054200D01*
X0100515Y0055748D02*
X0099741Y0056522D01*
X0098967Y0055748D01*
X0099631Y0089169D02*
X0098964Y0089836D01*
X0099297Y0089836D02*
X0098297Y0089836D01*
X0098297Y0089169D02*
X0098297Y0091170D01*
X0099297Y0091170D01*
X0099631Y0090837D01*
X0099631Y0090169D01*
X0099297Y0089836D01*
X0100506Y0090169D02*
X0101174Y0090169D01*
X0100506Y0089169D02*
X0101841Y0089169D01*
X0102716Y0089502D02*
X0103050Y0089169D01*
X0103717Y0089169D01*
X0104051Y0089502D01*
X0104051Y0089836D01*
X0103717Y0090169D01*
X0103050Y0090169D01*
X0102716Y0090503D01*
X0102716Y0090837D01*
X0103050Y0091170D01*
X0103717Y0091170D01*
X0104051Y0090837D01*
X0104926Y0091170D02*
X0104926Y0089169D01*
X0106261Y0089169D01*
X0105593Y0090169D02*
X0104926Y0090169D01*
X0104926Y0091170D02*
X0106261Y0091170D01*
X0107136Y0091170D02*
X0108471Y0091170D01*
X0107803Y0091170D02*
X0107803Y0089169D01*
X0101841Y0091170D02*
X0100506Y0091170D01*
X0100506Y0089169D01*
X0100739Y0094200D02*
X0102287Y0094200D01*
X0103244Y0094587D02*
X0103631Y0094200D01*
X0104405Y0094200D01*
X0104792Y0094587D01*
X0104792Y0094974D01*
X0104405Y0095361D01*
X0104018Y0095361D01*
X0104405Y0095361D02*
X0104792Y0095748D01*
X0104792Y0096135D01*
X0104405Y0096522D01*
X0103631Y0096522D01*
X0103244Y0096135D01*
X0102287Y0096522D02*
X0100739Y0096522D01*
X0100739Y0094200D01*
X0100739Y0095361D02*
X0101513Y0095361D01*
X0094774Y0095361D02*
X0093226Y0095361D01*
X0094387Y0096522D01*
X0094387Y0094200D01*
X0092269Y0094200D02*
X0090721Y0094200D01*
X0090721Y0096522D01*
X0092269Y0096522D01*
X0091495Y0095361D02*
X0090721Y0095361D01*
X0084755Y0095361D02*
X0084755Y0094587D01*
X0084369Y0094200D01*
X0083595Y0094200D01*
X0083208Y0094587D01*
X0083208Y0095361D02*
X0083982Y0095748D01*
X0084369Y0095748D01*
X0084755Y0095361D01*
X0084755Y0096522D02*
X0083208Y0096522D01*
X0083208Y0095361D01*
X0082251Y0096522D02*
X0080703Y0096522D01*
X0080703Y0094200D01*
X0082251Y0094200D01*
X0081477Y0095361D02*
X0080703Y0095361D01*
X0074737Y0094974D02*
X0074350Y0095361D01*
X0073189Y0095361D01*
X0073189Y0094587D01*
X0073576Y0094200D01*
X0074350Y0094200D01*
X0074737Y0094587D01*
X0074737Y0094974D01*
X0073963Y0096135D02*
X0073189Y0095361D01*
X0073963Y0096135D02*
X0074737Y0096522D01*
X0072233Y0096522D02*
X0070685Y0096522D01*
X0070685Y0094200D01*
X0072233Y0094200D01*
X0071459Y0095361D02*
X0070685Y0095361D01*
X0064719Y0096135D02*
X0063171Y0094587D01*
X0063171Y0094200D01*
X0062215Y0094200D02*
X0060667Y0094200D01*
X0060667Y0096522D01*
X0062215Y0096522D01*
X0063171Y0096522D02*
X0064719Y0096522D01*
X0064719Y0096135D01*
X0061441Y0095361D02*
X0060667Y0095361D01*
X0055278Y0095748D02*
X0055278Y0096135D01*
X0054891Y0096522D01*
X0054117Y0096522D01*
X0053730Y0096135D01*
X0055278Y0095748D02*
X0053730Y0094200D01*
X0055278Y0094200D01*
X0052774Y0094200D02*
X0051226Y0094200D01*
X0052000Y0094200D02*
X0052000Y0096522D01*
X0051226Y0095748D01*
X0050269Y0096135D02*
X0049882Y0096522D01*
X0049108Y0096522D01*
X0048721Y0096135D01*
X0048721Y0094587D01*
X0049108Y0094200D01*
X0049882Y0094200D01*
X0050269Y0094587D01*
X0045260Y0094587D02*
X0044873Y0094200D01*
X0044099Y0094200D01*
X0043712Y0094587D01*
X0042755Y0094200D02*
X0041208Y0094200D01*
X0041982Y0094200D02*
X0041982Y0096522D01*
X0041208Y0095748D01*
X0040251Y0096135D02*
X0039864Y0096522D01*
X0039090Y0096522D01*
X0038703Y0096135D01*
X0038703Y0094587D01*
X0039090Y0094200D01*
X0039864Y0094200D01*
X0040251Y0094587D01*
X0043712Y0096135D02*
X0044099Y0096522D01*
X0044873Y0096522D01*
X0045260Y0096135D01*
X0045260Y0095748D01*
X0044873Y0095361D01*
X0045260Y0094974D01*
X0045260Y0094587D01*
X0044873Y0095361D02*
X0044486Y0095361D01*
X0012211Y0090201D02*
X0010877Y0090201D01*
X0010877Y0090534D02*
X0010877Y0089200D01*
X0110757Y0094200D02*
X0112305Y0094200D01*
X0113262Y0094200D02*
X0114810Y0095748D01*
X0114810Y0096135D01*
X0114423Y0096522D01*
X0113649Y0096522D01*
X0113262Y0096135D01*
X0112305Y0096522D02*
X0110757Y0096522D01*
X0110757Y0094200D01*
X0110757Y0095361D02*
X0111531Y0095361D01*
X0113262Y0094200D02*
X0114810Y0094200D01*
X0120776Y0094200D02*
X0120776Y0096522D01*
X0122324Y0096522D01*
X0123280Y0095748D02*
X0124054Y0096522D01*
X0124054Y0094200D01*
X0123280Y0094200D02*
X0124828Y0094200D01*
X0122324Y0094200D02*
X0120776Y0094200D01*
X0120776Y0095361D02*
X0121550Y0095361D01*
X0130794Y0095361D02*
X0131568Y0095361D01*
X0130794Y0094200D02*
X0132342Y0094200D01*
X0133298Y0094587D02*
X0134846Y0096135D01*
X0134846Y0094587D01*
X0134459Y0094200D01*
X0133685Y0094200D01*
X0133298Y0094587D01*
X0133298Y0096135D01*
X0133685Y0096522D01*
X0134459Y0096522D01*
X0134846Y0096135D01*
X0132342Y0096522D02*
X0130794Y0096522D01*
X0130794Y0094200D01*
X0137967Y0094200D02*
X0137967Y0096522D01*
X0138741Y0095748D01*
X0139515Y0096522D01*
X0139515Y0094200D01*
X0140471Y0094587D02*
X0140858Y0094200D01*
X0141632Y0094200D01*
X0142019Y0094587D01*
X0142976Y0094200D02*
X0144524Y0094200D01*
X0145480Y0094200D02*
X0145480Y0096522D01*
X0146641Y0096522D01*
X0147028Y0096135D01*
X0147028Y0095361D01*
X0146641Y0094974D01*
X0145480Y0094974D01*
X0146254Y0094974D02*
X0147028Y0094200D01*
X0148467Y0094974D02*
X0149241Y0094200D01*
X0150015Y0094974D01*
X0150015Y0096522D01*
X0150971Y0096522D02*
X0152132Y0096522D01*
X0152519Y0096135D01*
X0152519Y0095748D01*
X0152132Y0095361D01*
X0150971Y0095361D01*
X0150971Y0094200D02*
X0150971Y0096522D01*
X0152132Y0095361D02*
X0152519Y0094974D01*
X0152519Y0094587D01*
X0152132Y0094200D01*
X0150971Y0094200D01*
X0153476Y0094587D02*
X0153863Y0094200D01*
X0154637Y0094200D01*
X0155024Y0094587D01*
X0155024Y0096522D01*
X0155980Y0096135D02*
X0155980Y0095748D01*
X0156367Y0095361D01*
X0157141Y0095361D01*
X0157528Y0094974D01*
X0157528Y0094587D01*
X0157141Y0094200D01*
X0156367Y0094200D01*
X0155980Y0094587D01*
X0155980Y0096135D02*
X0156367Y0096522D01*
X0157141Y0096522D01*
X0157528Y0096135D01*
X0159167Y0096522D02*
X0159167Y0094974D01*
X0159941Y0094200D01*
X0160715Y0094974D01*
X0160715Y0096522D01*
X0161671Y0096522D02*
X0162832Y0096522D01*
X0163219Y0096135D01*
X0163219Y0095361D01*
X0162832Y0094974D01*
X0161671Y0094974D01*
X0161671Y0094200D02*
X0161671Y0096522D01*
X0164176Y0095748D02*
X0164950Y0096522D01*
X0165724Y0095748D01*
X0165724Y0094200D01*
X0165724Y0095361D02*
X0164176Y0095361D01*
X0164176Y0095748D02*
X0164176Y0094200D01*
X0169185Y0094587D02*
X0169572Y0094200D01*
X0170346Y0094200D01*
X0170733Y0094587D01*
X0170733Y0094974D01*
X0170346Y0095361D01*
X0169959Y0095361D01*
X0170346Y0095361D02*
X0170733Y0095748D01*
X0170733Y0096135D01*
X0170346Y0096522D01*
X0169572Y0096522D01*
X0169185Y0096135D01*
X0171689Y0096522D02*
X0171689Y0094974D01*
X0172463Y0094200D01*
X0173237Y0094974D01*
X0173237Y0096522D01*
X0174194Y0096135D02*
X0174581Y0096522D01*
X0175355Y0096522D01*
X0175742Y0096135D01*
X0175742Y0095748D01*
X0175355Y0095361D01*
X0175742Y0094974D01*
X0175742Y0094587D01*
X0175355Y0094200D01*
X0174581Y0094200D01*
X0174194Y0094587D01*
X0174968Y0095361D02*
X0175355Y0095361D01*
X0179203Y0094587D02*
X0179590Y0094200D01*
X0180364Y0094200D01*
X0180751Y0094587D01*
X0180751Y0095361D01*
X0179977Y0095361D01*
X0180751Y0096135D02*
X0180364Y0096522D01*
X0179590Y0096522D01*
X0179203Y0096135D01*
X0179203Y0094587D01*
X0181708Y0094200D02*
X0181708Y0096522D01*
X0183255Y0094200D01*
X0183255Y0096522D01*
X0184212Y0096522D02*
X0185373Y0096522D01*
X0185760Y0096135D01*
X0185760Y0094587D01*
X0185373Y0094200D01*
X0184212Y0094200D01*
X0184212Y0096522D01*
X0153476Y0096522D02*
X0153476Y0094587D01*
X0148467Y0094974D02*
X0148467Y0096522D01*
X0142976Y0096522D02*
X0142976Y0094200D01*
X0140471Y0094587D02*
X0140471Y0096135D01*
X0140858Y0096522D01*
X0141632Y0096522D01*
X0142019Y0096135D01*
X0020989Y0036022D02*
X0020602Y0036409D01*
X0019054Y0036409D01*
X0018667Y0036022D01*
X0018667Y0035248D01*
X0019054Y0034861D01*
X0020602Y0034861D02*
X0020989Y0035248D01*
X0020989Y0036022D01*
X0020989Y0033905D02*
X0020989Y0032357D01*
X0020989Y0033131D02*
X0018667Y0033131D01*
X0019054Y0031400D02*
X0018667Y0031013D01*
X0018667Y0030239D01*
X0019054Y0029852D01*
X0019441Y0029852D01*
X0019828Y0030239D01*
X0019828Y0031013D01*
X0020215Y0031400D01*
X0020602Y0031400D01*
X0020989Y0031013D01*
X0020989Y0030239D01*
X0020602Y0029852D01*
D12*
X0087467Y0018000D02*
X0087467Y0008000D01*
X0107467Y0008000D02*
X0107467Y0018000D01*
X0097467Y0028000D02*
X0097467Y0038000D01*
X0137467Y0098000D02*
X0137467Y0108000D01*
X0177467Y0108000D02*
X0177467Y0098000D01*
X0187467Y0098000D01*
X0187467Y0108000D01*
X0177467Y0108000D01*
X0057467Y0108000D02*
X0057467Y0098000D01*
X0017467Y0098000D02*
X0017467Y0108000D01*
D13*
X0021967Y0086500D02*
X0021967Y0080000D01*
X0044467Y0077500D02*
X0052467Y0077500D01*
X0095986Y0076488D02*
X0095986Y0087512D01*
X0099530Y0087512D01*
X0107404Y0087512D01*
X0110947Y0087512D01*
X0110947Y0076488D01*
X0095986Y0076488D01*
X0101967Y0070000D02*
X0101967Y0062000D01*
X0119892Y0088315D02*
X0223041Y0088315D01*
X0223041Y0027685D01*
X0119892Y0027685D01*
X0119892Y0088315D01*
X0137967Y0097200D02*
X0146967Y0097200D01*
X0021967Y0036500D02*
X0021967Y0030000D01*
D14*
X0017467Y0030500D02*
X0014967Y0028000D01*
X0009967Y0028000D01*
X0007467Y0030500D01*
X0007467Y0035500D01*
X0009967Y0038000D01*
X0007467Y0040500D01*
X0007467Y0045500D01*
X0009967Y0048000D01*
X0007467Y0050500D01*
X0007467Y0055500D01*
X0009967Y0058000D01*
X0007467Y0060500D01*
X0007467Y0065500D01*
X0009967Y0068000D01*
X0007467Y0070500D01*
X0007467Y0075500D01*
X0009967Y0078000D01*
X0007467Y0080500D01*
X0007467Y0085500D01*
X0009967Y0088000D01*
X0014967Y0088000D01*
X0017467Y0085500D01*
X0017467Y0080500D01*
X0014967Y0078000D01*
X0017467Y0075500D01*
X0017467Y0070500D01*
X0014967Y0068000D01*
X0009967Y0068000D01*
X0014967Y0068000D02*
X0017467Y0065500D01*
X0017467Y0060500D01*
X0014967Y0058000D01*
X0017467Y0055500D01*
X0017467Y0050500D01*
X0014967Y0048000D01*
X0017467Y0045500D01*
X0017467Y0040500D01*
X0014967Y0038000D01*
X0017467Y0035500D01*
X0017467Y0030500D01*
X0014967Y0038000D02*
X0009967Y0038000D01*
X0027467Y0040500D02*
X0027467Y0045500D01*
X0029967Y0048000D01*
X0027467Y0050500D01*
X0027467Y0055500D01*
X0029967Y0058000D01*
X0027467Y0060500D01*
X0027467Y0065500D01*
X0029967Y0068000D01*
X0027467Y0070500D01*
X0027467Y0075500D01*
X0029967Y0078000D01*
X0027467Y0080500D01*
X0027467Y0085500D01*
X0029967Y0088000D01*
X0034967Y0088000D01*
X0037467Y0085500D01*
X0037467Y0080500D01*
X0034967Y0078000D01*
X0037467Y0075500D01*
X0037467Y0070500D01*
X0034967Y0068000D01*
X0029967Y0068000D01*
X0034967Y0068000D02*
X0037467Y0065500D01*
X0037467Y0060500D01*
X0034967Y0058000D01*
X0037467Y0055500D01*
X0037467Y0050500D01*
X0034967Y0048000D01*
X0037467Y0045500D01*
X0037467Y0040500D01*
X0034967Y0038000D01*
X0029967Y0038000D01*
X0027467Y0040500D01*
X0029967Y0048000D02*
X0034967Y0048000D01*
X0034967Y0058000D02*
X0029967Y0058000D01*
X0014967Y0058000D02*
X0009967Y0058000D01*
X0009967Y0048000D02*
X0014967Y0048000D01*
X0014967Y0018000D02*
X0009967Y0018000D01*
X0007467Y0015500D01*
X0007467Y0010500D01*
X0009967Y0008000D01*
X0014967Y0008000D01*
X0017467Y0010500D01*
X0017467Y0015500D01*
X0014967Y0018000D01*
X0017467Y0015500D02*
X0019967Y0018000D01*
X0024967Y0018000D01*
X0027467Y0015500D01*
X0029967Y0018000D01*
X0034967Y0018000D01*
X0037467Y0015500D01*
X0039967Y0018000D01*
X0044967Y0018000D01*
X0047467Y0015500D01*
X0049967Y0018000D01*
X0054967Y0018000D01*
X0057467Y0015500D01*
X0059967Y0018000D01*
X0064967Y0018000D01*
X0067467Y0015500D01*
X0069967Y0018000D01*
X0074967Y0018000D01*
X0077467Y0015500D01*
X0079967Y0018000D01*
X0084967Y0018000D01*
X0087467Y0015500D01*
X0089967Y0018000D01*
X0094967Y0018000D01*
X0097467Y0015500D01*
X0099967Y0018000D01*
X0104967Y0018000D01*
X0107467Y0015500D01*
X0107467Y0010500D01*
X0104967Y0008000D01*
X0099967Y0008000D01*
X0097467Y0010500D01*
X0094967Y0008000D01*
X0089967Y0008000D01*
X0087467Y0010500D01*
X0087467Y0015500D01*
X0087467Y0010500D02*
X0084967Y0008000D01*
X0079967Y0008000D01*
X0077467Y0010500D01*
X0074967Y0008000D01*
X0069967Y0008000D01*
X0067467Y0010500D01*
X0064967Y0008000D01*
X0059967Y0008000D01*
X0057467Y0010500D01*
X0057467Y0015500D01*
X0057467Y0010500D02*
X0054967Y0008000D01*
X0049967Y0008000D01*
X0047467Y0010500D01*
X0044967Y0008000D01*
X0039967Y0008000D01*
X0037467Y0010500D01*
X0034967Y0008000D01*
X0029967Y0008000D01*
X0027467Y0010500D01*
X0027467Y0015500D01*
X0027467Y0010500D02*
X0024967Y0008000D01*
X0019967Y0008000D01*
X0017467Y0010500D01*
X0037467Y0010500D02*
X0037467Y0015500D01*
X0047467Y0015500D02*
X0047467Y0010500D01*
X0067467Y0010500D02*
X0067467Y0015500D01*
X0077467Y0015500D02*
X0077467Y0010500D01*
X0097467Y0010500D02*
X0097467Y0015500D01*
X0107467Y0015500D02*
X0107467Y0010500D01*
X0109967Y0008000D01*
X0114967Y0008000D01*
X0117467Y0010500D01*
X0119967Y0008000D01*
X0124967Y0008000D01*
X0127467Y0010500D01*
X0127467Y0015500D01*
X0124967Y0018000D01*
X0119967Y0018000D01*
X0117467Y0015500D01*
X0117467Y0010500D01*
X0117467Y0015500D02*
X0114967Y0018000D01*
X0109967Y0018000D01*
X0107467Y0015500D01*
X0127467Y0015500D02*
X0129967Y0018000D01*
X0134967Y0018000D01*
X0137467Y0015500D01*
X0139967Y0018000D01*
X0144967Y0018000D01*
X0147467Y0015500D01*
X0149967Y0018000D01*
X0154967Y0018000D01*
X0157467Y0015500D01*
X0157467Y0010500D01*
X0154967Y0008000D01*
X0149967Y0008000D01*
X0147467Y0010500D01*
X0144967Y0008000D01*
X0139967Y0008000D01*
X0137467Y0010500D01*
X0134967Y0008000D01*
X0129967Y0008000D01*
X0127467Y0010500D01*
X0137467Y0010500D02*
X0137467Y0015500D01*
X0147467Y0015500D02*
X0147467Y0010500D01*
X0157467Y0010500D02*
X0159967Y0008000D01*
X0164967Y0008000D01*
X0167467Y0010500D01*
X0169967Y0008000D01*
X0174967Y0008000D01*
X0177467Y0010500D01*
X0179967Y0008000D01*
X0184967Y0008000D01*
X0187467Y0010500D01*
X0187467Y0015500D01*
X0184967Y0018000D01*
X0179967Y0018000D01*
X0177467Y0015500D01*
X0177467Y0010500D01*
X0177467Y0015500D02*
X0174967Y0018000D01*
X0169967Y0018000D01*
X0167467Y0015500D01*
X0167467Y0010500D01*
X0167467Y0015500D02*
X0164967Y0018000D01*
X0159967Y0018000D01*
X0157467Y0015500D01*
X0187467Y0015500D02*
X0189967Y0018000D01*
X0194967Y0018000D01*
X0197467Y0015500D01*
X0199967Y0018000D01*
X0204967Y0018000D01*
X0207467Y0015500D01*
X0209967Y0018000D01*
X0214967Y0018000D01*
X0217467Y0015500D01*
X0217467Y0010500D01*
X0214967Y0008000D01*
X0209967Y0008000D01*
X0207467Y0010500D01*
X0204967Y0008000D01*
X0199967Y0008000D01*
X0197467Y0010500D01*
X0194967Y0008000D01*
X0189967Y0008000D01*
X0187467Y0010500D01*
X0197467Y0010500D02*
X0197467Y0015500D01*
X0207467Y0015500D02*
X0207467Y0010500D01*
X0183710Y0049300D02*
X0183710Y0053570D01*
X0181575Y0055705D01*
X0179440Y0053570D01*
X0179440Y0049300D01*
X0179440Y0052503D02*
X0183710Y0052503D01*
X0177264Y0052503D02*
X0172994Y0052503D01*
X0170819Y0049300D02*
X0166549Y0049300D01*
X0168684Y0049300D02*
X0168684Y0055705D01*
X0166549Y0053570D01*
X0164373Y0053570D02*
X0164373Y0054638D01*
X0163306Y0055705D01*
X0161171Y0055705D01*
X0160103Y0054638D01*
X0164373Y0053570D02*
X0160103Y0049300D01*
X0164373Y0049300D01*
X0157928Y0049300D02*
X0153658Y0049300D01*
X0155793Y0049300D02*
X0155793Y0055705D01*
X0153658Y0053570D01*
X0149347Y0052503D02*
X0147212Y0052503D01*
X0145037Y0049300D02*
X0142902Y0051435D01*
X0140767Y0049300D01*
X0140767Y0055705D01*
X0145037Y0055705D02*
X0145037Y0049300D01*
X0147212Y0049300D02*
X0147212Y0055705D01*
X0151482Y0055705D01*
X0152577Y0059800D02*
X0155779Y0059800D01*
X0155779Y0064070D01*
X0157955Y0063003D02*
X0159022Y0064070D01*
X0161157Y0064070D01*
X0162225Y0063003D01*
X0162225Y0061935D01*
X0157955Y0061935D01*
X0157955Y0060868D02*
X0157955Y0063003D01*
X0157955Y0060868D02*
X0159022Y0059800D01*
X0161157Y0059800D01*
X0164400Y0060868D02*
X0165468Y0059800D01*
X0168670Y0059800D01*
X0168670Y0058732D02*
X0168670Y0064070D01*
X0165468Y0064070D01*
X0164400Y0063003D01*
X0164400Y0060868D01*
X0166535Y0057665D02*
X0167603Y0057665D01*
X0168670Y0058732D01*
X0170846Y0059800D02*
X0172981Y0059800D01*
X0171913Y0059800D02*
X0171913Y0064070D01*
X0170846Y0064070D01*
X0171913Y0066205D02*
X0171913Y0067273D01*
X0175143Y0063003D02*
X0176210Y0064070D01*
X0179413Y0064070D01*
X0179413Y0058732D01*
X0178345Y0057665D01*
X0177278Y0057665D01*
X0176210Y0059800D02*
X0179413Y0059800D01*
X0181588Y0060868D02*
X0182656Y0061935D01*
X0185858Y0061935D01*
X0185858Y0063003D02*
X0185858Y0059800D01*
X0182656Y0059800D01*
X0181588Y0060868D01*
X0184791Y0064070D02*
X0185858Y0063003D01*
X0184791Y0064070D02*
X0182656Y0064070D01*
X0175143Y0063003D02*
X0175143Y0060868D01*
X0176210Y0059800D01*
X0152577Y0059800D02*
X0151509Y0060868D01*
X0151509Y0064070D01*
X0148280Y0066205D02*
X0148280Y0059800D01*
X0149347Y0059800D02*
X0147212Y0059800D01*
X0145037Y0060868D02*
X0143969Y0059800D01*
X0140767Y0059800D01*
X0140767Y0066205D01*
X0143969Y0066205D01*
X0145037Y0065138D01*
X0145037Y0064070D01*
X0143969Y0063003D01*
X0140767Y0063003D01*
X0143969Y0063003D02*
X0145037Y0061935D01*
X0145037Y0060868D01*
X0147212Y0066205D02*
X0148280Y0066205D01*
X0107467Y0050500D02*
X0107467Y0045500D01*
X0104967Y0043000D01*
X0099967Y0043000D01*
X0097467Y0045500D01*
X0094967Y0043000D01*
X0089967Y0043000D01*
X0087467Y0045500D01*
X0087467Y0050500D01*
X0089967Y0053000D01*
X0094967Y0053000D01*
X0097467Y0050500D01*
X0099967Y0053000D01*
X0104967Y0053000D01*
X0107467Y0050500D01*
X0097467Y0050500D02*
X0097467Y0045500D01*
X0099967Y0038000D02*
X0104967Y0038000D01*
X0107467Y0035500D01*
X0107467Y0030500D01*
X0104967Y0028000D01*
X0099967Y0028000D01*
X0097467Y0030500D01*
X0094967Y0028000D01*
X0089967Y0028000D01*
X0087467Y0030500D01*
X0084967Y0028000D01*
X0079967Y0028000D01*
X0077467Y0030500D01*
X0077467Y0035500D01*
X0079967Y0038000D01*
X0084967Y0038000D01*
X0087467Y0035500D01*
X0089967Y0038000D01*
X0094967Y0038000D01*
X0097467Y0035500D01*
X0099967Y0038000D01*
X0097467Y0035500D02*
X0097467Y0030500D01*
X0087467Y0030500D02*
X0087467Y0035500D01*
X0034967Y0078000D02*
X0029967Y0078000D01*
X0014967Y0078000D02*
X0009967Y0078000D01*
X0009967Y0098000D02*
X0014967Y0098000D01*
X0017467Y0100500D01*
X0017467Y0105500D01*
X0014967Y0108000D01*
X0009967Y0108000D01*
X0007467Y0105500D01*
X0007467Y0100500D01*
X0009967Y0098000D01*
X0017467Y0100500D02*
X0017467Y0105500D01*
X0019967Y0108000D01*
X0024967Y0108000D01*
X0027467Y0105500D01*
X0029967Y0108000D01*
X0034967Y0108000D01*
X0037467Y0105500D01*
X0039967Y0108000D01*
X0044967Y0108000D01*
X0047467Y0105500D01*
X0049967Y0108000D01*
X0054967Y0108000D01*
X0057467Y0105500D01*
X0057467Y0100500D01*
X0054967Y0098000D01*
X0049967Y0098000D01*
X0047467Y0100500D01*
X0044967Y0098000D01*
X0039967Y0098000D01*
X0037467Y0100500D01*
X0037467Y0105500D01*
X0037467Y0100500D02*
X0034967Y0098000D01*
X0029967Y0098000D01*
X0027467Y0100500D01*
X0024967Y0098000D01*
X0019967Y0098000D01*
X0017467Y0100500D01*
X0027467Y0100500D02*
X0027467Y0105500D01*
X0047467Y0105500D02*
X0047467Y0100500D01*
X0057467Y0100500D02*
X0057467Y0105500D01*
X0059967Y0108000D01*
X0064967Y0108000D01*
X0067467Y0105500D01*
X0069967Y0108000D01*
X0074967Y0108000D01*
X0077467Y0105500D01*
X0079967Y0108000D01*
X0084967Y0108000D01*
X0087467Y0105500D01*
X0089967Y0108000D01*
X0094967Y0108000D01*
X0097467Y0105500D01*
X0099967Y0108000D01*
X0104967Y0108000D01*
X0107467Y0105500D01*
X0109967Y0108000D01*
X0114967Y0108000D01*
X0117467Y0105500D01*
X0119967Y0108000D01*
X0124967Y0108000D01*
X0127467Y0105500D01*
X0129967Y0108000D01*
X0134967Y0108000D01*
X0137467Y0105500D01*
X0139967Y0108000D01*
X0144967Y0108000D01*
X0147467Y0105500D01*
X0149967Y0108000D01*
X0154967Y0108000D01*
X0157467Y0105500D01*
X0159967Y0108000D01*
X0164967Y0108000D01*
X0167467Y0105500D01*
X0169967Y0108000D01*
X0174967Y0108000D01*
X0177467Y0105500D01*
X0179967Y0108000D01*
X0184967Y0108000D01*
X0187467Y0105500D01*
X0187467Y0100500D01*
X0184967Y0098000D01*
X0179967Y0098000D01*
X0177467Y0100500D01*
X0174967Y0098000D01*
X0169967Y0098000D01*
X0167467Y0100500D01*
X0167467Y0105500D01*
X0167467Y0100500D02*
X0164967Y0098000D01*
X0159967Y0098000D01*
X0157467Y0100500D01*
X0154967Y0098000D01*
X0149967Y0098000D01*
X0147467Y0100500D01*
X0144967Y0098000D01*
X0139967Y0098000D01*
X0137467Y0100500D01*
X0137467Y0105500D01*
X0137467Y0100500D01*
X0134967Y0098000D01*
X0129967Y0098000D01*
X0127467Y0100500D01*
X0124967Y0098000D01*
X0119967Y0098000D01*
X0117467Y0100500D01*
X0117467Y0105500D01*
X0117467Y0100500D02*
X0114967Y0098000D01*
X0109967Y0098000D01*
X0107467Y0100500D01*
X0104967Y0098000D01*
X0099967Y0098000D01*
X0097467Y0100500D01*
X0094967Y0098000D01*
X0089967Y0098000D01*
X0087467Y0100500D01*
X0087467Y0105500D01*
X0087467Y0100500D02*
X0084967Y0098000D01*
X0079967Y0098000D01*
X0077467Y0100500D01*
X0074967Y0098000D01*
X0069967Y0098000D01*
X0067467Y0100500D01*
X0064967Y0098000D01*
X0059967Y0098000D01*
X0057467Y0100500D01*
X0067467Y0100500D02*
X0067467Y0105500D01*
X0077467Y0105500D02*
X0077467Y0100500D01*
X0097467Y0100500D02*
X0097467Y0105500D01*
X0107467Y0105500D02*
X0107467Y0100500D01*
X0127467Y0100500D02*
X0127467Y0105500D01*
X0147467Y0105500D02*
X0147467Y0100500D01*
X0157467Y0100500D02*
X0157467Y0105500D01*
X0177467Y0105500D02*
X0177467Y0100500D01*
X0209467Y0098100D02*
X0209467Y0096800D01*
X0210967Y0096500D01*
X0211467Y0095200D01*
X0210667Y0093900D01*
X0211567Y0093000D01*
X0212767Y0093800D01*
X0213267Y0093500D01*
X0214267Y0095800D01*
X0213967Y0095500D02*
X0213467Y0096000D01*
X0212967Y0097500D01*
X0213467Y0099000D01*
X0214967Y0099500D01*
X0216467Y0099000D01*
X0217467Y0097500D01*
X0216467Y0095500D01*
X0216967Y0094000D01*
X0217467Y0094000D01*
X0218467Y0093500D01*
X0218967Y0094000D01*
X0218467Y0095000D01*
X0218467Y0096500D01*
X0219967Y0097000D01*
X0220467Y0098000D01*
X0218967Y0098000D01*
X0218467Y0099500D01*
X0218967Y0101000D01*
X0218467Y0101500D01*
X0217467Y0100500D01*
X0215967Y0101000D01*
X0215467Y0102500D01*
X0214467Y0102500D01*
X0214467Y0101500D01*
X0212967Y0100500D01*
X0211467Y0101500D01*
X0210967Y0101000D01*
X0211967Y0099500D01*
X0211467Y0098000D01*
X0209967Y0098000D01*
X0209967Y0097000D01*
X0210967Y0097000D01*
X0211967Y0095500D01*
X0210967Y0094000D01*
X0211467Y0093500D01*
X0212967Y0094000D01*
X0213967Y0095500D01*
X0213888Y0095383D02*
X0211888Y0095383D01*
X0211646Y0095981D02*
X0213485Y0095981D01*
X0213273Y0096580D02*
X0211247Y0096580D01*
X0209967Y0097178D02*
X0213074Y0097178D01*
X0213059Y0097777D02*
X0209967Y0097777D01*
X0209467Y0098100D02*
X0210967Y0098300D01*
X0211567Y0099600D01*
X0210667Y0100900D01*
X0211567Y0101800D01*
X0212867Y0100900D01*
X0214067Y0101400D01*
X0214367Y0103000D01*
X0215667Y0103000D01*
X0215967Y0101400D01*
X0217167Y0100900D01*
X0218567Y0101800D01*
X0219467Y0100900D01*
X0218567Y0099600D01*
X0219067Y0098400D01*
X0220567Y0098100D01*
X0220567Y0096800D01*
X0219167Y0096500D01*
X0218567Y0095200D01*
X0219467Y0093900D01*
X0218567Y0093000D01*
X0217367Y0093800D01*
X0216767Y0093500D01*
X0215867Y0095800D01*
X0216506Y0095383D02*
X0218467Y0095383D01*
X0218467Y0095981D02*
X0216707Y0095981D01*
X0217006Y0096580D02*
X0218706Y0096580D01*
X0220056Y0097178D02*
X0217306Y0097178D01*
X0217282Y0097777D02*
X0220355Y0097777D01*
X0218842Y0098375D02*
X0216883Y0098375D01*
X0216484Y0098974D02*
X0218642Y0098974D01*
X0218491Y0099572D02*
X0211919Y0099572D01*
X0211791Y0098974D02*
X0213458Y0098974D01*
X0213258Y0098375D02*
X0211592Y0098375D01*
X0211520Y0100171D02*
X0218690Y0100171D01*
X0218890Y0100769D02*
X0217736Y0100769D01*
X0218334Y0101368D02*
X0218599Y0101368D01*
X0216659Y0100769D02*
X0213371Y0100769D01*
X0212563Y0100769D02*
X0211120Y0100769D01*
X0211334Y0101368D02*
X0211665Y0101368D01*
X0214268Y0101368D02*
X0215844Y0101368D01*
X0215645Y0101966D02*
X0214467Y0101966D01*
X0214267Y0095800D02*
X0214193Y0095839D01*
X0214120Y0095882D01*
X0214050Y0095928D01*
X0213982Y0095978D01*
X0213916Y0096030D01*
X0213853Y0096086D01*
X0213793Y0096144D01*
X0213735Y0096205D01*
X0213681Y0096269D01*
X0213629Y0096335D01*
X0213581Y0096404D01*
X0213536Y0096475D01*
X0213494Y0096548D01*
X0213456Y0096623D01*
X0213421Y0096699D01*
X0213390Y0096777D01*
X0213362Y0096857D01*
X0213339Y0096938D01*
X0213319Y0097019D01*
X0213303Y0097102D01*
X0213291Y0097185D01*
X0213283Y0097269D01*
X0213279Y0097352D01*
X0213278Y0097437D01*
X0213282Y0097520D01*
X0213290Y0097604D01*
X0213301Y0097687D01*
X0213317Y0097770D01*
X0213336Y0097852D01*
X0213359Y0097933D01*
X0213386Y0098012D01*
X0213417Y0098091D01*
X0213451Y0098167D01*
X0213489Y0098242D01*
X0213530Y0098315D01*
X0213575Y0098387D01*
X0213623Y0098456D01*
X0213674Y0098522D01*
X0213728Y0098587D01*
X0213785Y0098648D01*
X0213845Y0098707D01*
X0213908Y0098763D01*
X0213973Y0098816D01*
X0214041Y0098866D01*
X0214111Y0098912D01*
X0214183Y0098955D01*
X0214257Y0098995D01*
X0214333Y0099031D01*
X0214410Y0099064D01*
X0214489Y0099093D01*
X0214569Y0099118D01*
X0214651Y0099140D01*
X0214733Y0099158D01*
X0214816Y0099171D01*
X0214899Y0099181D01*
X0214983Y0099187D01*
X0215067Y0099189D01*
X0215151Y0099187D01*
X0215235Y0099181D01*
X0215318Y0099171D01*
X0215401Y0099158D01*
X0215483Y0099140D01*
X0215565Y0099118D01*
X0215645Y0099093D01*
X0215724Y0099064D01*
X0215801Y0099031D01*
X0215877Y0098995D01*
X0215951Y0098955D01*
X0216023Y0098912D01*
X0216093Y0098866D01*
X0216161Y0098816D01*
X0216226Y0098763D01*
X0216289Y0098707D01*
X0216349Y0098648D01*
X0216406Y0098587D01*
X0216460Y0098522D01*
X0216511Y0098456D01*
X0216559Y0098387D01*
X0216604Y0098315D01*
X0216645Y0098242D01*
X0216683Y0098167D01*
X0216717Y0098091D01*
X0216748Y0098012D01*
X0216775Y0097933D01*
X0216798Y0097852D01*
X0216817Y0097770D01*
X0216833Y0097687D01*
X0216844Y0097604D01*
X0216852Y0097520D01*
X0216856Y0097437D01*
X0216855Y0097352D01*
X0216851Y0097269D01*
X0216843Y0097185D01*
X0216831Y0097102D01*
X0216815Y0097019D01*
X0216795Y0096938D01*
X0216772Y0096857D01*
X0216744Y0096777D01*
X0216713Y0096699D01*
X0216678Y0096623D01*
X0216640Y0096548D01*
X0216598Y0096475D01*
X0216553Y0096404D01*
X0216505Y0096335D01*
X0216453Y0096269D01*
X0216399Y0096205D01*
X0216341Y0096144D01*
X0216281Y0096086D01*
X0216218Y0096030D01*
X0216152Y0095978D01*
X0216084Y0095928D01*
X0216014Y0095882D01*
X0215941Y0095839D01*
X0215867Y0095800D01*
X0216705Y0094784D02*
X0218575Y0094784D01*
X0218874Y0094186D02*
X0216905Y0094186D01*
X0218292Y0093587D02*
X0218554Y0093587D01*
X0213489Y0094784D02*
X0211489Y0094784D01*
X0211090Y0094186D02*
X0213090Y0094186D01*
X0211728Y0093587D02*
X0211380Y0093587D01*
D15*
X0059910Y0051918D02*
X0060270Y0051918D01*
X0060269Y0051917D02*
X0060272Y0051848D01*
X0060279Y0051780D01*
X0060290Y0051711D01*
X0060305Y0051644D01*
X0060324Y0051578D01*
X0060347Y0051513D01*
X0060373Y0051449D01*
X0060403Y0051387D01*
X0060436Y0051326D01*
X0060473Y0051268D01*
X0060513Y0051212D01*
X0060556Y0051158D01*
X0060603Y0051107D01*
X0060652Y0051059D01*
X0060704Y0051014D01*
X0060758Y0050971D01*
X0060815Y0050932D01*
X0060874Y0050896D01*
X0060935Y0050864D01*
X0060997Y0050835D01*
X0061061Y0050810D01*
X0061127Y0050788D01*
X0061194Y0050771D01*
X0061261Y0050757D01*
X0061329Y0050747D01*
X0061398Y0050741D01*
X0061467Y0050739D01*
X0061536Y0050741D01*
X0061605Y0050747D01*
X0061673Y0050757D01*
X0061740Y0050771D01*
X0061807Y0050788D01*
X0061873Y0050810D01*
X0061937Y0050835D01*
X0061999Y0050864D01*
X0062060Y0050896D01*
X0062119Y0050932D01*
X0062176Y0050971D01*
X0062230Y0051014D01*
X0062282Y0051059D01*
X0062331Y0051107D01*
X0062378Y0051158D01*
X0062421Y0051212D01*
X0062461Y0051268D01*
X0062498Y0051326D01*
X0062531Y0051387D01*
X0062561Y0051449D01*
X0062587Y0051513D01*
X0062610Y0051578D01*
X0062629Y0051644D01*
X0062644Y0051711D01*
X0062655Y0051780D01*
X0062662Y0051848D01*
X0062665Y0051917D01*
X0063024Y0051918D01*
X0063025Y0051917D01*
X0063022Y0051839D01*
X0063015Y0051761D01*
X0063004Y0051683D01*
X0062990Y0051606D01*
X0062971Y0051530D01*
X0062949Y0051455D01*
X0062923Y0051381D01*
X0062893Y0051309D01*
X0062859Y0051238D01*
X0062823Y0051169D01*
X0062782Y0051102D01*
X0062739Y0051037D01*
X0062692Y0050974D01*
X0062642Y0050914D01*
X0062589Y0050856D01*
X0062533Y0050801D01*
X0062475Y0050749D01*
X0062414Y0050700D01*
X0062351Y0050654D01*
X0062285Y0050611D01*
X0062217Y0050572D01*
X0062148Y0050536D01*
X0062077Y0050503D01*
X0062004Y0050474D01*
X0061930Y0050449D01*
X0061854Y0050428D01*
X0061778Y0050410D01*
X0061701Y0050397D01*
X0061623Y0050387D01*
X0061545Y0050381D01*
X0061467Y0050379D01*
X0061389Y0050381D01*
X0061311Y0050387D01*
X0061233Y0050397D01*
X0061156Y0050410D01*
X0061080Y0050428D01*
X0061004Y0050449D01*
X0060930Y0050474D01*
X0060857Y0050503D01*
X0060786Y0050536D01*
X0060717Y0050572D01*
X0060649Y0050611D01*
X0060583Y0050654D01*
X0060520Y0050700D01*
X0060459Y0050749D01*
X0060401Y0050801D01*
X0060345Y0050856D01*
X0060292Y0050914D01*
X0060242Y0050974D01*
X0060195Y0051037D01*
X0060152Y0051102D01*
X0060111Y0051169D01*
X0060075Y0051238D01*
X0060041Y0051309D01*
X0060011Y0051381D01*
X0059985Y0051455D01*
X0059963Y0051530D01*
X0059944Y0051606D01*
X0059930Y0051683D01*
X0059919Y0051761D01*
X0059912Y0051839D01*
X0059909Y0051917D01*
X0059946Y0051917D01*
X0059949Y0051839D01*
X0059956Y0051762D01*
X0059967Y0051685D01*
X0059982Y0051609D01*
X0060000Y0051533D01*
X0060023Y0051459D01*
X0060049Y0051386D01*
X0060079Y0051314D01*
X0060113Y0051244D01*
X0060150Y0051176D01*
X0060191Y0051110D01*
X0060234Y0051046D01*
X0060282Y0050984D01*
X0060332Y0050925D01*
X0060385Y0050868D01*
X0060441Y0050814D01*
X0060499Y0050763D01*
X0060561Y0050716D01*
X0060624Y0050671D01*
X0060690Y0050629D01*
X0060758Y0050592D01*
X0060827Y0050557D01*
X0060899Y0050526D01*
X0060971Y0050499D01*
X0061045Y0050476D01*
X0061121Y0050456D01*
X0061197Y0050440D01*
X0061273Y0050428D01*
X0061351Y0050420D01*
X0061428Y0050416D01*
X0061506Y0050416D01*
X0061583Y0050420D01*
X0061661Y0050428D01*
X0061737Y0050440D01*
X0061813Y0050456D01*
X0061889Y0050476D01*
X0061963Y0050499D01*
X0062035Y0050526D01*
X0062107Y0050557D01*
X0062176Y0050592D01*
X0062244Y0050629D01*
X0062310Y0050671D01*
X0062373Y0050716D01*
X0062435Y0050763D01*
X0062493Y0050814D01*
X0062549Y0050868D01*
X0062602Y0050925D01*
X0062652Y0050984D01*
X0062700Y0051046D01*
X0062743Y0051110D01*
X0062784Y0051176D01*
X0062821Y0051244D01*
X0062855Y0051314D01*
X0062885Y0051386D01*
X0062911Y0051459D01*
X0062934Y0051533D01*
X0062952Y0051609D01*
X0062967Y0051685D01*
X0062978Y0051762D01*
X0062985Y0051839D01*
X0062988Y0051917D01*
X0062951Y0051917D01*
X0062948Y0051841D01*
X0062941Y0051766D01*
X0062930Y0051691D01*
X0062916Y0051616D01*
X0062898Y0051543D01*
X0062876Y0051470D01*
X0062850Y0051399D01*
X0062821Y0051329D01*
X0062788Y0051261D01*
X0062752Y0051194D01*
X0062712Y0051130D01*
X0062669Y0051067D01*
X0062623Y0051007D01*
X0062575Y0050949D01*
X0062523Y0050894D01*
X0062468Y0050841D01*
X0062411Y0050792D01*
X0062351Y0050745D01*
X0062289Y0050702D01*
X0062225Y0050661D01*
X0062159Y0050624D01*
X0062091Y0050591D01*
X0062022Y0050560D01*
X0061951Y0050534D01*
X0061878Y0050511D01*
X0061805Y0050492D01*
X0061731Y0050477D01*
X0061656Y0050465D01*
X0061581Y0050457D01*
X0061505Y0050453D01*
X0061429Y0050453D01*
X0061353Y0050457D01*
X0061278Y0050465D01*
X0061203Y0050477D01*
X0061129Y0050492D01*
X0061056Y0050511D01*
X0060983Y0050534D01*
X0060912Y0050560D01*
X0060843Y0050591D01*
X0060775Y0050624D01*
X0060709Y0050661D01*
X0060645Y0050702D01*
X0060583Y0050745D01*
X0060523Y0050792D01*
X0060466Y0050841D01*
X0060411Y0050894D01*
X0060359Y0050949D01*
X0060311Y0051007D01*
X0060265Y0051067D01*
X0060222Y0051130D01*
X0060182Y0051194D01*
X0060146Y0051261D01*
X0060113Y0051329D01*
X0060084Y0051399D01*
X0060058Y0051470D01*
X0060036Y0051543D01*
X0060018Y0051616D01*
X0060004Y0051691D01*
X0059993Y0051766D01*
X0059986Y0051841D01*
X0059983Y0051917D01*
X0060020Y0051917D01*
X0060023Y0051842D01*
X0060030Y0051767D01*
X0060041Y0051693D01*
X0060055Y0051619D01*
X0060074Y0051546D01*
X0060096Y0051475D01*
X0060122Y0051404D01*
X0060151Y0051335D01*
X0060184Y0051268D01*
X0060221Y0051202D01*
X0060260Y0051138D01*
X0060303Y0051077D01*
X0060350Y0051018D01*
X0060399Y0050961D01*
X0060451Y0050907D01*
X0060506Y0050855D01*
X0060563Y0050807D01*
X0060623Y0050762D01*
X0060685Y0050719D01*
X0060749Y0050681D01*
X0060815Y0050645D01*
X0060883Y0050613D01*
X0060953Y0050584D01*
X0061024Y0050560D01*
X0061096Y0050538D01*
X0061169Y0050521D01*
X0061243Y0050508D01*
X0061317Y0050498D01*
X0061392Y0050492D01*
X0061467Y0050490D01*
X0061542Y0050492D01*
X0061617Y0050498D01*
X0061691Y0050508D01*
X0061765Y0050521D01*
X0061838Y0050538D01*
X0061910Y0050560D01*
X0061981Y0050584D01*
X0062051Y0050613D01*
X0062119Y0050645D01*
X0062185Y0050681D01*
X0062249Y0050719D01*
X0062311Y0050762D01*
X0062371Y0050807D01*
X0062428Y0050855D01*
X0062483Y0050907D01*
X0062535Y0050961D01*
X0062584Y0051018D01*
X0062631Y0051077D01*
X0062674Y0051138D01*
X0062713Y0051202D01*
X0062750Y0051268D01*
X0062783Y0051335D01*
X0062812Y0051404D01*
X0062838Y0051475D01*
X0062860Y0051546D01*
X0062879Y0051619D01*
X0062893Y0051693D01*
X0062904Y0051767D01*
X0062911Y0051842D01*
X0062914Y0051917D01*
X0062877Y0051917D01*
X0062874Y0051843D01*
X0062867Y0051769D01*
X0062856Y0051695D01*
X0062841Y0051622D01*
X0062823Y0051550D01*
X0062801Y0051479D01*
X0062775Y0051409D01*
X0062745Y0051341D01*
X0062712Y0051275D01*
X0062675Y0051210D01*
X0062635Y0051147D01*
X0062592Y0051087D01*
X0062545Y0051028D01*
X0062496Y0050973D01*
X0062444Y0050920D01*
X0062389Y0050870D01*
X0062331Y0050823D01*
X0062271Y0050779D01*
X0062209Y0050738D01*
X0062145Y0050700D01*
X0062078Y0050666D01*
X0062011Y0050636D01*
X0061941Y0050609D01*
X0061870Y0050586D01*
X0061799Y0050567D01*
X0061726Y0050551D01*
X0061652Y0050539D01*
X0061578Y0050531D01*
X0061504Y0050527D01*
X0061430Y0050527D01*
X0061356Y0050531D01*
X0061282Y0050539D01*
X0061208Y0050551D01*
X0061135Y0050567D01*
X0061064Y0050586D01*
X0060993Y0050609D01*
X0060923Y0050636D01*
X0060856Y0050666D01*
X0060789Y0050700D01*
X0060725Y0050738D01*
X0060663Y0050779D01*
X0060603Y0050823D01*
X0060545Y0050870D01*
X0060490Y0050920D01*
X0060438Y0050973D01*
X0060389Y0051028D01*
X0060342Y0051087D01*
X0060299Y0051147D01*
X0060259Y0051210D01*
X0060222Y0051275D01*
X0060189Y0051341D01*
X0060159Y0051409D01*
X0060133Y0051479D01*
X0060111Y0051550D01*
X0060093Y0051622D01*
X0060078Y0051695D01*
X0060067Y0051769D01*
X0060060Y0051843D01*
X0060057Y0051917D01*
X0060094Y0051917D01*
X0060097Y0051843D01*
X0060104Y0051770D01*
X0060115Y0051697D01*
X0060130Y0051625D01*
X0060149Y0051554D01*
X0060171Y0051484D01*
X0060197Y0051415D01*
X0060227Y0051347D01*
X0060260Y0051282D01*
X0060297Y0051218D01*
X0060338Y0051156D01*
X0060381Y0051097D01*
X0060428Y0051040D01*
X0060477Y0050985D01*
X0060530Y0050934D01*
X0060585Y0050885D01*
X0060643Y0050839D01*
X0060703Y0050796D01*
X0060765Y0050757D01*
X0060829Y0050721D01*
X0060896Y0050689D01*
X0060963Y0050660D01*
X0061033Y0050635D01*
X0061103Y0050613D01*
X0061175Y0050596D01*
X0061247Y0050582D01*
X0061320Y0050572D01*
X0061393Y0050566D01*
X0061467Y0050564D01*
X0061541Y0050566D01*
X0061614Y0050572D01*
X0061687Y0050582D01*
X0061759Y0050596D01*
X0061831Y0050613D01*
X0061901Y0050635D01*
X0061971Y0050660D01*
X0062038Y0050689D01*
X0062105Y0050721D01*
X0062169Y0050757D01*
X0062231Y0050796D01*
X0062291Y0050839D01*
X0062349Y0050885D01*
X0062404Y0050934D01*
X0062457Y0050985D01*
X0062506Y0051040D01*
X0062553Y0051097D01*
X0062596Y0051156D01*
X0062637Y0051218D01*
X0062674Y0051282D01*
X0062707Y0051347D01*
X0062737Y0051415D01*
X0062763Y0051484D01*
X0062785Y0051554D01*
X0062804Y0051625D01*
X0062819Y0051697D01*
X0062830Y0051770D01*
X0062837Y0051843D01*
X0062840Y0051917D01*
X0062803Y0051917D01*
X0062800Y0051844D01*
X0062793Y0051772D01*
X0062782Y0051699D01*
X0062767Y0051628D01*
X0062748Y0051558D01*
X0062725Y0051488D01*
X0062699Y0051420D01*
X0062669Y0051354D01*
X0062635Y0051289D01*
X0062598Y0051226D01*
X0062558Y0051166D01*
X0062514Y0051107D01*
X0062467Y0051051D01*
X0062417Y0050998D01*
X0062365Y0050948D01*
X0062310Y0050900D01*
X0062252Y0050856D01*
X0062192Y0050815D01*
X0062129Y0050777D01*
X0062065Y0050742D01*
X0061999Y0050711D01*
X0061931Y0050684D01*
X0061862Y0050661D01*
X0061792Y0050641D01*
X0061721Y0050625D01*
X0061649Y0050613D01*
X0061576Y0050605D01*
X0061503Y0050601D01*
X0061431Y0050601D01*
X0061358Y0050605D01*
X0061285Y0050613D01*
X0061213Y0050625D01*
X0061142Y0050641D01*
X0061072Y0050661D01*
X0061003Y0050684D01*
X0060935Y0050711D01*
X0060869Y0050742D01*
X0060805Y0050777D01*
X0060742Y0050815D01*
X0060682Y0050856D01*
X0060624Y0050900D01*
X0060569Y0050948D01*
X0060517Y0050998D01*
X0060467Y0051051D01*
X0060420Y0051107D01*
X0060376Y0051166D01*
X0060336Y0051226D01*
X0060299Y0051289D01*
X0060265Y0051354D01*
X0060235Y0051420D01*
X0060209Y0051488D01*
X0060186Y0051558D01*
X0060167Y0051628D01*
X0060152Y0051699D01*
X0060141Y0051772D01*
X0060134Y0051844D01*
X0060131Y0051917D01*
X0060168Y0051917D01*
X0060171Y0051846D01*
X0060178Y0051776D01*
X0060189Y0051706D01*
X0060203Y0051636D01*
X0060222Y0051568D01*
X0060244Y0051500D01*
X0060269Y0051434D01*
X0060298Y0051370D01*
X0060331Y0051307D01*
X0060367Y0051246D01*
X0060407Y0051187D01*
X0060449Y0051130D01*
X0060495Y0051076D01*
X0060543Y0051024D01*
X0060594Y0050975D01*
X0060648Y0050929D01*
X0060704Y0050886D01*
X0060763Y0050846D01*
X0060823Y0050809D01*
X0060886Y0050775D01*
X0060950Y0050745D01*
X0061016Y0050719D01*
X0061083Y0050696D01*
X0061151Y0050677D01*
X0061220Y0050662D01*
X0061290Y0050650D01*
X0061361Y0050642D01*
X0061432Y0050638D01*
X0061502Y0050638D01*
X0061573Y0050642D01*
X0061644Y0050650D01*
X0061714Y0050662D01*
X0061783Y0050677D01*
X0061851Y0050696D01*
X0061918Y0050719D01*
X0061984Y0050745D01*
X0062048Y0050775D01*
X0062111Y0050809D01*
X0062171Y0050846D01*
X0062230Y0050886D01*
X0062286Y0050929D01*
X0062340Y0050975D01*
X0062391Y0051024D01*
X0062439Y0051076D01*
X0062485Y0051130D01*
X0062527Y0051187D01*
X0062567Y0051246D01*
X0062603Y0051307D01*
X0062636Y0051370D01*
X0062665Y0051434D01*
X0062690Y0051500D01*
X0062712Y0051568D01*
X0062731Y0051636D01*
X0062745Y0051706D01*
X0062756Y0051776D01*
X0062763Y0051846D01*
X0062766Y0051917D01*
X0062729Y0051917D01*
X0062726Y0051847D01*
X0062719Y0051777D01*
X0062708Y0051708D01*
X0062693Y0051639D01*
X0062675Y0051572D01*
X0062653Y0051505D01*
X0062627Y0051440D01*
X0062598Y0051377D01*
X0062565Y0051315D01*
X0062529Y0051255D01*
X0062489Y0051197D01*
X0062447Y0051141D01*
X0062401Y0051088D01*
X0062352Y0051038D01*
X0062301Y0050990D01*
X0062247Y0050945D01*
X0062191Y0050903D01*
X0062132Y0050865D01*
X0062072Y0050829D01*
X0062009Y0050798D01*
X0061945Y0050769D01*
X0061880Y0050744D01*
X0061813Y0050723D01*
X0061745Y0050706D01*
X0061676Y0050692D01*
X0061607Y0050683D01*
X0061537Y0050677D01*
X0061467Y0050675D01*
X0061397Y0050677D01*
X0061327Y0050683D01*
X0061258Y0050692D01*
X0061189Y0050706D01*
X0061121Y0050723D01*
X0061054Y0050744D01*
X0060989Y0050769D01*
X0060925Y0050798D01*
X0060862Y0050829D01*
X0060802Y0050865D01*
X0060743Y0050903D01*
X0060687Y0050945D01*
X0060633Y0050990D01*
X0060582Y0051038D01*
X0060533Y0051088D01*
X0060487Y0051141D01*
X0060445Y0051197D01*
X0060405Y0051255D01*
X0060369Y0051315D01*
X0060336Y0051377D01*
X0060307Y0051440D01*
X0060281Y0051505D01*
X0060259Y0051572D01*
X0060241Y0051639D01*
X0060226Y0051708D01*
X0060215Y0051777D01*
X0060208Y0051847D01*
X0060205Y0051917D01*
X0060242Y0051917D01*
X0060245Y0051848D01*
X0060252Y0051779D01*
X0060263Y0051711D01*
X0060278Y0051643D01*
X0060296Y0051576D01*
X0060319Y0051511D01*
X0060345Y0051446D01*
X0060374Y0051384D01*
X0060407Y0051323D01*
X0060443Y0051264D01*
X0060483Y0051207D01*
X0060526Y0051153D01*
X0060572Y0051101D01*
X0060620Y0051052D01*
X0060672Y0051005D01*
X0060726Y0050962D01*
X0060782Y0050922D01*
X0060840Y0050884D01*
X0060901Y0050851D01*
X0060963Y0050820D01*
X0061027Y0050794D01*
X0061092Y0050771D01*
X0061159Y0050751D01*
X0061226Y0050736D01*
X0061294Y0050724D01*
X0061363Y0050716D01*
X0061432Y0050712D01*
X0061502Y0050712D01*
X0061571Y0050716D01*
X0061640Y0050724D01*
X0061708Y0050736D01*
X0061775Y0050751D01*
X0061842Y0050771D01*
X0061907Y0050794D01*
X0061971Y0050820D01*
X0062033Y0050851D01*
X0062094Y0050884D01*
X0062152Y0050922D01*
X0062208Y0050962D01*
X0062262Y0051005D01*
X0062314Y0051052D01*
X0062362Y0051101D01*
X0062408Y0051153D01*
X0062451Y0051207D01*
X0062491Y0051264D01*
X0062527Y0051323D01*
X0062560Y0051384D01*
X0062589Y0051446D01*
X0062615Y0051511D01*
X0062638Y0051576D01*
X0062656Y0051643D01*
X0062671Y0051711D01*
X0062682Y0051779D01*
X0062689Y0051848D01*
X0062692Y0051917D01*
X0049910Y0051918D02*
X0050270Y0051918D01*
X0050269Y0051917D02*
X0050272Y0051848D01*
X0050279Y0051780D01*
X0050290Y0051711D01*
X0050305Y0051644D01*
X0050324Y0051578D01*
X0050347Y0051513D01*
X0050373Y0051449D01*
X0050403Y0051387D01*
X0050436Y0051326D01*
X0050473Y0051268D01*
X0050513Y0051212D01*
X0050556Y0051158D01*
X0050603Y0051107D01*
X0050652Y0051059D01*
X0050704Y0051014D01*
X0050758Y0050971D01*
X0050815Y0050932D01*
X0050874Y0050896D01*
X0050935Y0050864D01*
X0050997Y0050835D01*
X0051061Y0050810D01*
X0051127Y0050788D01*
X0051194Y0050771D01*
X0051261Y0050757D01*
X0051329Y0050747D01*
X0051398Y0050741D01*
X0051467Y0050739D01*
X0051536Y0050741D01*
X0051605Y0050747D01*
X0051673Y0050757D01*
X0051740Y0050771D01*
X0051807Y0050788D01*
X0051873Y0050810D01*
X0051937Y0050835D01*
X0051999Y0050864D01*
X0052060Y0050896D01*
X0052119Y0050932D01*
X0052176Y0050971D01*
X0052230Y0051014D01*
X0052282Y0051059D01*
X0052331Y0051107D01*
X0052378Y0051158D01*
X0052421Y0051212D01*
X0052461Y0051268D01*
X0052498Y0051326D01*
X0052531Y0051387D01*
X0052561Y0051449D01*
X0052587Y0051513D01*
X0052610Y0051578D01*
X0052629Y0051644D01*
X0052644Y0051711D01*
X0052655Y0051780D01*
X0052662Y0051848D01*
X0052665Y0051917D01*
X0053024Y0051918D01*
X0053025Y0051917D01*
X0053022Y0051839D01*
X0053015Y0051761D01*
X0053004Y0051683D01*
X0052990Y0051606D01*
X0052971Y0051530D01*
X0052949Y0051455D01*
X0052923Y0051381D01*
X0052893Y0051309D01*
X0052859Y0051238D01*
X0052823Y0051169D01*
X0052782Y0051102D01*
X0052739Y0051037D01*
X0052692Y0050974D01*
X0052642Y0050914D01*
X0052589Y0050856D01*
X0052533Y0050801D01*
X0052475Y0050749D01*
X0052414Y0050700D01*
X0052351Y0050654D01*
X0052285Y0050611D01*
X0052217Y0050572D01*
X0052148Y0050536D01*
X0052077Y0050503D01*
X0052004Y0050474D01*
X0051930Y0050449D01*
X0051854Y0050428D01*
X0051778Y0050410D01*
X0051701Y0050397D01*
X0051623Y0050387D01*
X0051545Y0050381D01*
X0051467Y0050379D01*
X0051389Y0050381D01*
X0051311Y0050387D01*
X0051233Y0050397D01*
X0051156Y0050410D01*
X0051080Y0050428D01*
X0051004Y0050449D01*
X0050930Y0050474D01*
X0050857Y0050503D01*
X0050786Y0050536D01*
X0050717Y0050572D01*
X0050649Y0050611D01*
X0050583Y0050654D01*
X0050520Y0050700D01*
X0050459Y0050749D01*
X0050401Y0050801D01*
X0050345Y0050856D01*
X0050292Y0050914D01*
X0050242Y0050974D01*
X0050195Y0051037D01*
X0050152Y0051102D01*
X0050111Y0051169D01*
X0050075Y0051238D01*
X0050041Y0051309D01*
X0050011Y0051381D01*
X0049985Y0051455D01*
X0049963Y0051530D01*
X0049944Y0051606D01*
X0049930Y0051683D01*
X0049919Y0051761D01*
X0049912Y0051839D01*
X0049909Y0051917D01*
X0049946Y0051917D01*
X0049949Y0051839D01*
X0049956Y0051762D01*
X0049967Y0051685D01*
X0049982Y0051609D01*
X0050000Y0051533D01*
X0050023Y0051459D01*
X0050049Y0051386D01*
X0050079Y0051314D01*
X0050113Y0051244D01*
X0050150Y0051176D01*
X0050191Y0051110D01*
X0050234Y0051046D01*
X0050282Y0050984D01*
X0050332Y0050925D01*
X0050385Y0050868D01*
X0050441Y0050814D01*
X0050499Y0050763D01*
X0050561Y0050716D01*
X0050624Y0050671D01*
X0050690Y0050629D01*
X0050758Y0050592D01*
X0050827Y0050557D01*
X0050899Y0050526D01*
X0050971Y0050499D01*
X0051045Y0050476D01*
X0051121Y0050456D01*
X0051197Y0050440D01*
X0051273Y0050428D01*
X0051351Y0050420D01*
X0051428Y0050416D01*
X0051506Y0050416D01*
X0051583Y0050420D01*
X0051661Y0050428D01*
X0051737Y0050440D01*
X0051813Y0050456D01*
X0051889Y0050476D01*
X0051963Y0050499D01*
X0052035Y0050526D01*
X0052107Y0050557D01*
X0052176Y0050592D01*
X0052244Y0050629D01*
X0052310Y0050671D01*
X0052373Y0050716D01*
X0052435Y0050763D01*
X0052493Y0050814D01*
X0052549Y0050868D01*
X0052602Y0050925D01*
X0052652Y0050984D01*
X0052700Y0051046D01*
X0052743Y0051110D01*
X0052784Y0051176D01*
X0052821Y0051244D01*
X0052855Y0051314D01*
X0052885Y0051386D01*
X0052911Y0051459D01*
X0052934Y0051533D01*
X0052952Y0051609D01*
X0052967Y0051685D01*
X0052978Y0051762D01*
X0052985Y0051839D01*
X0052988Y0051917D01*
X0052951Y0051917D01*
X0052948Y0051841D01*
X0052941Y0051766D01*
X0052930Y0051691D01*
X0052916Y0051616D01*
X0052898Y0051543D01*
X0052876Y0051470D01*
X0052850Y0051399D01*
X0052821Y0051329D01*
X0052788Y0051261D01*
X0052752Y0051194D01*
X0052712Y0051130D01*
X0052669Y0051067D01*
X0052623Y0051007D01*
X0052575Y0050949D01*
X0052523Y0050894D01*
X0052468Y0050841D01*
X0052411Y0050792D01*
X0052351Y0050745D01*
X0052289Y0050702D01*
X0052225Y0050661D01*
X0052159Y0050624D01*
X0052091Y0050591D01*
X0052022Y0050560D01*
X0051951Y0050534D01*
X0051878Y0050511D01*
X0051805Y0050492D01*
X0051731Y0050477D01*
X0051656Y0050465D01*
X0051581Y0050457D01*
X0051505Y0050453D01*
X0051429Y0050453D01*
X0051353Y0050457D01*
X0051278Y0050465D01*
X0051203Y0050477D01*
X0051129Y0050492D01*
X0051056Y0050511D01*
X0050983Y0050534D01*
X0050912Y0050560D01*
X0050843Y0050591D01*
X0050775Y0050624D01*
X0050709Y0050661D01*
X0050645Y0050702D01*
X0050583Y0050745D01*
X0050523Y0050792D01*
X0050466Y0050841D01*
X0050411Y0050894D01*
X0050359Y0050949D01*
X0050311Y0051007D01*
X0050265Y0051067D01*
X0050222Y0051130D01*
X0050182Y0051194D01*
X0050146Y0051261D01*
X0050113Y0051329D01*
X0050084Y0051399D01*
X0050058Y0051470D01*
X0050036Y0051543D01*
X0050018Y0051616D01*
X0050004Y0051691D01*
X0049993Y0051766D01*
X0049986Y0051841D01*
X0049983Y0051917D01*
X0050020Y0051917D01*
X0050023Y0051842D01*
X0050030Y0051767D01*
X0050041Y0051693D01*
X0050055Y0051619D01*
X0050074Y0051546D01*
X0050096Y0051475D01*
X0050122Y0051404D01*
X0050151Y0051335D01*
X0050184Y0051268D01*
X0050221Y0051202D01*
X0050260Y0051138D01*
X0050303Y0051077D01*
X0050350Y0051018D01*
X0050399Y0050961D01*
X0050451Y0050907D01*
X0050506Y0050855D01*
X0050563Y0050807D01*
X0050623Y0050762D01*
X0050685Y0050719D01*
X0050749Y0050681D01*
X0050815Y0050645D01*
X0050883Y0050613D01*
X0050953Y0050584D01*
X0051024Y0050560D01*
X0051096Y0050538D01*
X0051169Y0050521D01*
X0051243Y0050508D01*
X0051317Y0050498D01*
X0051392Y0050492D01*
X0051467Y0050490D01*
X0051542Y0050492D01*
X0051617Y0050498D01*
X0051691Y0050508D01*
X0051765Y0050521D01*
X0051838Y0050538D01*
X0051910Y0050560D01*
X0051981Y0050584D01*
X0052051Y0050613D01*
X0052119Y0050645D01*
X0052185Y0050681D01*
X0052249Y0050719D01*
X0052311Y0050762D01*
X0052371Y0050807D01*
X0052428Y0050855D01*
X0052483Y0050907D01*
X0052535Y0050961D01*
X0052584Y0051018D01*
X0052631Y0051077D01*
X0052674Y0051138D01*
X0052713Y0051202D01*
X0052750Y0051268D01*
X0052783Y0051335D01*
X0052812Y0051404D01*
X0052838Y0051475D01*
X0052860Y0051546D01*
X0052879Y0051619D01*
X0052893Y0051693D01*
X0052904Y0051767D01*
X0052911Y0051842D01*
X0052914Y0051917D01*
X0052877Y0051917D01*
X0052874Y0051843D01*
X0052867Y0051769D01*
X0052856Y0051695D01*
X0052841Y0051622D01*
X0052823Y0051550D01*
X0052801Y0051479D01*
X0052775Y0051409D01*
X0052745Y0051341D01*
X0052712Y0051275D01*
X0052675Y0051210D01*
X0052635Y0051147D01*
X0052592Y0051087D01*
X0052545Y0051028D01*
X0052496Y0050973D01*
X0052444Y0050920D01*
X0052389Y0050870D01*
X0052331Y0050823D01*
X0052271Y0050779D01*
X0052209Y0050738D01*
X0052145Y0050700D01*
X0052078Y0050666D01*
X0052011Y0050636D01*
X0051941Y0050609D01*
X0051870Y0050586D01*
X0051799Y0050567D01*
X0051726Y0050551D01*
X0051652Y0050539D01*
X0051578Y0050531D01*
X0051504Y0050527D01*
X0051430Y0050527D01*
X0051356Y0050531D01*
X0051282Y0050539D01*
X0051208Y0050551D01*
X0051135Y0050567D01*
X0051064Y0050586D01*
X0050993Y0050609D01*
X0050923Y0050636D01*
X0050856Y0050666D01*
X0050789Y0050700D01*
X0050725Y0050738D01*
X0050663Y0050779D01*
X0050603Y0050823D01*
X0050545Y0050870D01*
X0050490Y0050920D01*
X0050438Y0050973D01*
X0050389Y0051028D01*
X0050342Y0051087D01*
X0050299Y0051147D01*
X0050259Y0051210D01*
X0050222Y0051275D01*
X0050189Y0051341D01*
X0050159Y0051409D01*
X0050133Y0051479D01*
X0050111Y0051550D01*
X0050093Y0051622D01*
X0050078Y0051695D01*
X0050067Y0051769D01*
X0050060Y0051843D01*
X0050057Y0051917D01*
X0050094Y0051917D01*
X0050097Y0051843D01*
X0050104Y0051770D01*
X0050115Y0051697D01*
X0050130Y0051625D01*
X0050149Y0051554D01*
X0050171Y0051484D01*
X0050197Y0051415D01*
X0050227Y0051347D01*
X0050260Y0051282D01*
X0050297Y0051218D01*
X0050338Y0051156D01*
X0050381Y0051097D01*
X0050428Y0051040D01*
X0050477Y0050985D01*
X0050530Y0050934D01*
X0050585Y0050885D01*
X0050643Y0050839D01*
X0050703Y0050796D01*
X0050765Y0050757D01*
X0050829Y0050721D01*
X0050896Y0050689D01*
X0050963Y0050660D01*
X0051033Y0050635D01*
X0051103Y0050613D01*
X0051175Y0050596D01*
X0051247Y0050582D01*
X0051320Y0050572D01*
X0051393Y0050566D01*
X0051467Y0050564D01*
X0051541Y0050566D01*
X0051614Y0050572D01*
X0051687Y0050582D01*
X0051759Y0050596D01*
X0051831Y0050613D01*
X0051901Y0050635D01*
X0051971Y0050660D01*
X0052038Y0050689D01*
X0052105Y0050721D01*
X0052169Y0050757D01*
X0052231Y0050796D01*
X0052291Y0050839D01*
X0052349Y0050885D01*
X0052404Y0050934D01*
X0052457Y0050985D01*
X0052506Y0051040D01*
X0052553Y0051097D01*
X0052596Y0051156D01*
X0052637Y0051218D01*
X0052674Y0051282D01*
X0052707Y0051347D01*
X0052737Y0051415D01*
X0052763Y0051484D01*
X0052785Y0051554D01*
X0052804Y0051625D01*
X0052819Y0051697D01*
X0052830Y0051770D01*
X0052837Y0051843D01*
X0052840Y0051917D01*
X0052803Y0051917D01*
X0052800Y0051844D01*
X0052793Y0051772D01*
X0052782Y0051699D01*
X0052767Y0051628D01*
X0052748Y0051558D01*
X0052725Y0051488D01*
X0052699Y0051420D01*
X0052669Y0051354D01*
X0052635Y0051289D01*
X0052598Y0051226D01*
X0052558Y0051166D01*
X0052514Y0051107D01*
X0052467Y0051051D01*
X0052417Y0050998D01*
X0052365Y0050948D01*
X0052310Y0050900D01*
X0052252Y0050856D01*
X0052192Y0050815D01*
X0052129Y0050777D01*
X0052065Y0050742D01*
X0051999Y0050711D01*
X0051931Y0050684D01*
X0051862Y0050661D01*
X0051792Y0050641D01*
X0051721Y0050625D01*
X0051649Y0050613D01*
X0051576Y0050605D01*
X0051503Y0050601D01*
X0051431Y0050601D01*
X0051358Y0050605D01*
X0051285Y0050613D01*
X0051213Y0050625D01*
X0051142Y0050641D01*
X0051072Y0050661D01*
X0051003Y0050684D01*
X0050935Y0050711D01*
X0050869Y0050742D01*
X0050805Y0050777D01*
X0050742Y0050815D01*
X0050682Y0050856D01*
X0050624Y0050900D01*
X0050569Y0050948D01*
X0050517Y0050998D01*
X0050467Y0051051D01*
X0050420Y0051107D01*
X0050376Y0051166D01*
X0050336Y0051226D01*
X0050299Y0051289D01*
X0050265Y0051354D01*
X0050235Y0051420D01*
X0050209Y0051488D01*
X0050186Y0051558D01*
X0050167Y0051628D01*
X0050152Y0051699D01*
X0050141Y0051772D01*
X0050134Y0051844D01*
X0050131Y0051917D01*
X0050168Y0051917D01*
X0050171Y0051846D01*
X0050178Y0051776D01*
X0050189Y0051706D01*
X0050203Y0051636D01*
X0050222Y0051568D01*
X0050244Y0051500D01*
X0050269Y0051434D01*
X0050298Y0051370D01*
X0050331Y0051307D01*
X0050367Y0051246D01*
X0050407Y0051187D01*
X0050449Y0051130D01*
X0050495Y0051076D01*
X0050543Y0051024D01*
X0050594Y0050975D01*
X0050648Y0050929D01*
X0050704Y0050886D01*
X0050763Y0050846D01*
X0050823Y0050809D01*
X0050886Y0050775D01*
X0050950Y0050745D01*
X0051016Y0050719D01*
X0051083Y0050696D01*
X0051151Y0050677D01*
X0051220Y0050662D01*
X0051290Y0050650D01*
X0051361Y0050642D01*
X0051432Y0050638D01*
X0051502Y0050638D01*
X0051573Y0050642D01*
X0051644Y0050650D01*
X0051714Y0050662D01*
X0051783Y0050677D01*
X0051851Y0050696D01*
X0051918Y0050719D01*
X0051984Y0050745D01*
X0052048Y0050775D01*
X0052111Y0050809D01*
X0052171Y0050846D01*
X0052230Y0050886D01*
X0052286Y0050929D01*
X0052340Y0050975D01*
X0052391Y0051024D01*
X0052439Y0051076D01*
X0052485Y0051130D01*
X0052527Y0051187D01*
X0052567Y0051246D01*
X0052603Y0051307D01*
X0052636Y0051370D01*
X0052665Y0051434D01*
X0052690Y0051500D01*
X0052712Y0051568D01*
X0052731Y0051636D01*
X0052745Y0051706D01*
X0052756Y0051776D01*
X0052763Y0051846D01*
X0052766Y0051917D01*
X0052729Y0051917D01*
X0052726Y0051847D01*
X0052719Y0051777D01*
X0052708Y0051708D01*
X0052693Y0051639D01*
X0052675Y0051572D01*
X0052653Y0051505D01*
X0052627Y0051440D01*
X0052598Y0051377D01*
X0052565Y0051315D01*
X0052529Y0051255D01*
X0052489Y0051197D01*
X0052447Y0051141D01*
X0052401Y0051088D01*
X0052352Y0051038D01*
X0052301Y0050990D01*
X0052247Y0050945D01*
X0052191Y0050903D01*
X0052132Y0050865D01*
X0052072Y0050829D01*
X0052009Y0050798D01*
X0051945Y0050769D01*
X0051880Y0050744D01*
X0051813Y0050723D01*
X0051745Y0050706D01*
X0051676Y0050692D01*
X0051607Y0050683D01*
X0051537Y0050677D01*
X0051467Y0050675D01*
X0051397Y0050677D01*
X0051327Y0050683D01*
X0051258Y0050692D01*
X0051189Y0050706D01*
X0051121Y0050723D01*
X0051054Y0050744D01*
X0050989Y0050769D01*
X0050925Y0050798D01*
X0050862Y0050829D01*
X0050802Y0050865D01*
X0050743Y0050903D01*
X0050687Y0050945D01*
X0050633Y0050990D01*
X0050582Y0051038D01*
X0050533Y0051088D01*
X0050487Y0051141D01*
X0050445Y0051197D01*
X0050405Y0051255D01*
X0050369Y0051315D01*
X0050336Y0051377D01*
X0050307Y0051440D01*
X0050281Y0051505D01*
X0050259Y0051572D01*
X0050241Y0051639D01*
X0050226Y0051708D01*
X0050215Y0051777D01*
X0050208Y0051847D01*
X0050205Y0051917D01*
X0050242Y0051917D01*
X0050245Y0051848D01*
X0050252Y0051779D01*
X0050263Y0051711D01*
X0050278Y0051643D01*
X0050296Y0051576D01*
X0050319Y0051511D01*
X0050345Y0051446D01*
X0050374Y0051384D01*
X0050407Y0051323D01*
X0050443Y0051264D01*
X0050483Y0051207D01*
X0050526Y0051153D01*
X0050572Y0051101D01*
X0050620Y0051052D01*
X0050672Y0051005D01*
X0050726Y0050962D01*
X0050782Y0050922D01*
X0050840Y0050884D01*
X0050901Y0050851D01*
X0050963Y0050820D01*
X0051027Y0050794D01*
X0051092Y0050771D01*
X0051159Y0050751D01*
X0051226Y0050736D01*
X0051294Y0050724D01*
X0051363Y0050716D01*
X0051432Y0050712D01*
X0051502Y0050712D01*
X0051571Y0050716D01*
X0051640Y0050724D01*
X0051708Y0050736D01*
X0051775Y0050751D01*
X0051842Y0050771D01*
X0051907Y0050794D01*
X0051971Y0050820D01*
X0052033Y0050851D01*
X0052094Y0050884D01*
X0052152Y0050922D01*
X0052208Y0050962D01*
X0052262Y0051005D01*
X0052314Y0051052D01*
X0052362Y0051101D01*
X0052408Y0051153D01*
X0052451Y0051207D01*
X0052491Y0051264D01*
X0052527Y0051323D01*
X0052560Y0051384D01*
X0052589Y0051446D01*
X0052615Y0051511D01*
X0052638Y0051576D01*
X0052656Y0051643D01*
X0052671Y0051711D01*
X0052682Y0051779D01*
X0052689Y0051848D01*
X0052692Y0051917D01*
X0053024Y0044082D02*
X0052664Y0044082D01*
X0052665Y0044083D02*
X0052662Y0044152D01*
X0052655Y0044220D01*
X0052644Y0044289D01*
X0052629Y0044356D01*
X0052610Y0044422D01*
X0052587Y0044487D01*
X0052561Y0044551D01*
X0052531Y0044613D01*
X0052498Y0044674D01*
X0052461Y0044732D01*
X0052421Y0044788D01*
X0052378Y0044842D01*
X0052331Y0044893D01*
X0052282Y0044941D01*
X0052230Y0044986D01*
X0052176Y0045029D01*
X0052119Y0045068D01*
X0052060Y0045104D01*
X0051999Y0045136D01*
X0051937Y0045165D01*
X0051873Y0045190D01*
X0051807Y0045212D01*
X0051740Y0045229D01*
X0051673Y0045243D01*
X0051605Y0045253D01*
X0051536Y0045259D01*
X0051467Y0045261D01*
X0051398Y0045259D01*
X0051329Y0045253D01*
X0051261Y0045243D01*
X0051194Y0045229D01*
X0051127Y0045212D01*
X0051061Y0045190D01*
X0050997Y0045165D01*
X0050935Y0045136D01*
X0050874Y0045104D01*
X0050815Y0045068D01*
X0050758Y0045029D01*
X0050704Y0044986D01*
X0050652Y0044941D01*
X0050603Y0044893D01*
X0050556Y0044842D01*
X0050513Y0044788D01*
X0050473Y0044732D01*
X0050436Y0044674D01*
X0050403Y0044613D01*
X0050373Y0044551D01*
X0050347Y0044487D01*
X0050324Y0044422D01*
X0050305Y0044356D01*
X0050290Y0044289D01*
X0050279Y0044220D01*
X0050272Y0044152D01*
X0050269Y0044083D01*
X0049910Y0044082D01*
X0049909Y0044083D01*
X0049912Y0044161D01*
X0049919Y0044239D01*
X0049930Y0044317D01*
X0049944Y0044394D01*
X0049963Y0044470D01*
X0049985Y0044545D01*
X0050011Y0044619D01*
X0050041Y0044691D01*
X0050075Y0044762D01*
X0050111Y0044831D01*
X0050152Y0044898D01*
X0050195Y0044963D01*
X0050242Y0045026D01*
X0050292Y0045086D01*
X0050345Y0045144D01*
X0050401Y0045199D01*
X0050459Y0045251D01*
X0050520Y0045300D01*
X0050583Y0045346D01*
X0050649Y0045389D01*
X0050717Y0045428D01*
X0050786Y0045464D01*
X0050857Y0045497D01*
X0050930Y0045526D01*
X0051004Y0045551D01*
X0051080Y0045572D01*
X0051156Y0045590D01*
X0051233Y0045603D01*
X0051311Y0045613D01*
X0051389Y0045619D01*
X0051467Y0045621D01*
X0051545Y0045619D01*
X0051623Y0045613D01*
X0051701Y0045603D01*
X0051778Y0045590D01*
X0051854Y0045572D01*
X0051930Y0045551D01*
X0052004Y0045526D01*
X0052077Y0045497D01*
X0052148Y0045464D01*
X0052217Y0045428D01*
X0052285Y0045389D01*
X0052351Y0045346D01*
X0052414Y0045300D01*
X0052475Y0045251D01*
X0052533Y0045199D01*
X0052589Y0045144D01*
X0052642Y0045086D01*
X0052692Y0045026D01*
X0052739Y0044963D01*
X0052782Y0044898D01*
X0052823Y0044831D01*
X0052859Y0044762D01*
X0052893Y0044691D01*
X0052923Y0044619D01*
X0052949Y0044545D01*
X0052971Y0044470D01*
X0052990Y0044394D01*
X0053004Y0044317D01*
X0053015Y0044239D01*
X0053022Y0044161D01*
X0053025Y0044083D01*
X0052988Y0044083D01*
X0052985Y0044161D01*
X0052978Y0044238D01*
X0052967Y0044315D01*
X0052952Y0044391D01*
X0052934Y0044467D01*
X0052911Y0044541D01*
X0052885Y0044614D01*
X0052855Y0044686D01*
X0052821Y0044756D01*
X0052784Y0044824D01*
X0052743Y0044890D01*
X0052700Y0044954D01*
X0052652Y0045016D01*
X0052602Y0045075D01*
X0052549Y0045132D01*
X0052493Y0045186D01*
X0052435Y0045237D01*
X0052373Y0045284D01*
X0052310Y0045329D01*
X0052244Y0045371D01*
X0052176Y0045408D01*
X0052107Y0045443D01*
X0052035Y0045474D01*
X0051963Y0045501D01*
X0051889Y0045524D01*
X0051813Y0045544D01*
X0051737Y0045560D01*
X0051661Y0045572D01*
X0051583Y0045580D01*
X0051506Y0045584D01*
X0051428Y0045584D01*
X0051351Y0045580D01*
X0051273Y0045572D01*
X0051197Y0045560D01*
X0051121Y0045544D01*
X0051045Y0045524D01*
X0050971Y0045501D01*
X0050899Y0045474D01*
X0050827Y0045443D01*
X0050758Y0045408D01*
X0050690Y0045371D01*
X0050624Y0045329D01*
X0050561Y0045284D01*
X0050499Y0045237D01*
X0050441Y0045186D01*
X0050385Y0045132D01*
X0050332Y0045075D01*
X0050282Y0045016D01*
X0050234Y0044954D01*
X0050191Y0044890D01*
X0050150Y0044824D01*
X0050113Y0044756D01*
X0050079Y0044686D01*
X0050049Y0044614D01*
X0050023Y0044541D01*
X0050000Y0044467D01*
X0049982Y0044391D01*
X0049967Y0044315D01*
X0049956Y0044238D01*
X0049949Y0044161D01*
X0049946Y0044083D01*
X0049983Y0044083D01*
X0049986Y0044159D01*
X0049993Y0044234D01*
X0050004Y0044309D01*
X0050018Y0044384D01*
X0050036Y0044457D01*
X0050058Y0044530D01*
X0050084Y0044601D01*
X0050113Y0044671D01*
X0050146Y0044739D01*
X0050182Y0044806D01*
X0050222Y0044870D01*
X0050265Y0044933D01*
X0050311Y0044993D01*
X0050359Y0045051D01*
X0050411Y0045106D01*
X0050466Y0045159D01*
X0050523Y0045208D01*
X0050583Y0045255D01*
X0050645Y0045298D01*
X0050709Y0045339D01*
X0050775Y0045376D01*
X0050843Y0045409D01*
X0050912Y0045440D01*
X0050983Y0045466D01*
X0051056Y0045489D01*
X0051129Y0045508D01*
X0051203Y0045523D01*
X0051278Y0045535D01*
X0051353Y0045543D01*
X0051429Y0045547D01*
X0051505Y0045547D01*
X0051581Y0045543D01*
X0051656Y0045535D01*
X0051731Y0045523D01*
X0051805Y0045508D01*
X0051878Y0045489D01*
X0051951Y0045466D01*
X0052022Y0045440D01*
X0052091Y0045409D01*
X0052159Y0045376D01*
X0052225Y0045339D01*
X0052289Y0045298D01*
X0052351Y0045255D01*
X0052411Y0045208D01*
X0052468Y0045159D01*
X0052523Y0045106D01*
X0052575Y0045051D01*
X0052623Y0044993D01*
X0052669Y0044933D01*
X0052712Y0044870D01*
X0052752Y0044806D01*
X0052788Y0044739D01*
X0052821Y0044671D01*
X0052850Y0044601D01*
X0052876Y0044530D01*
X0052898Y0044457D01*
X0052916Y0044384D01*
X0052930Y0044309D01*
X0052941Y0044234D01*
X0052948Y0044159D01*
X0052951Y0044083D01*
X0052914Y0044083D01*
X0052911Y0044158D01*
X0052904Y0044233D01*
X0052893Y0044307D01*
X0052879Y0044381D01*
X0052860Y0044454D01*
X0052838Y0044525D01*
X0052812Y0044596D01*
X0052783Y0044665D01*
X0052750Y0044732D01*
X0052713Y0044798D01*
X0052674Y0044862D01*
X0052631Y0044923D01*
X0052584Y0044982D01*
X0052535Y0045039D01*
X0052483Y0045093D01*
X0052428Y0045145D01*
X0052371Y0045193D01*
X0052311Y0045238D01*
X0052249Y0045281D01*
X0052185Y0045319D01*
X0052119Y0045355D01*
X0052051Y0045387D01*
X0051981Y0045416D01*
X0051910Y0045440D01*
X0051838Y0045462D01*
X0051765Y0045479D01*
X0051691Y0045492D01*
X0051617Y0045502D01*
X0051542Y0045508D01*
X0051467Y0045510D01*
X0051392Y0045508D01*
X0051317Y0045502D01*
X0051243Y0045492D01*
X0051169Y0045479D01*
X0051096Y0045462D01*
X0051024Y0045440D01*
X0050953Y0045416D01*
X0050883Y0045387D01*
X0050815Y0045355D01*
X0050749Y0045319D01*
X0050685Y0045281D01*
X0050623Y0045238D01*
X0050563Y0045193D01*
X0050506Y0045145D01*
X0050451Y0045093D01*
X0050399Y0045039D01*
X0050350Y0044982D01*
X0050303Y0044923D01*
X0050260Y0044862D01*
X0050221Y0044798D01*
X0050184Y0044732D01*
X0050151Y0044665D01*
X0050122Y0044596D01*
X0050096Y0044525D01*
X0050074Y0044454D01*
X0050055Y0044381D01*
X0050041Y0044307D01*
X0050030Y0044233D01*
X0050023Y0044158D01*
X0050020Y0044083D01*
X0050057Y0044083D01*
X0050060Y0044157D01*
X0050067Y0044231D01*
X0050078Y0044305D01*
X0050093Y0044378D01*
X0050111Y0044450D01*
X0050133Y0044521D01*
X0050159Y0044591D01*
X0050189Y0044659D01*
X0050222Y0044725D01*
X0050259Y0044790D01*
X0050299Y0044853D01*
X0050342Y0044913D01*
X0050389Y0044972D01*
X0050438Y0045027D01*
X0050490Y0045080D01*
X0050545Y0045130D01*
X0050603Y0045177D01*
X0050663Y0045221D01*
X0050725Y0045262D01*
X0050789Y0045300D01*
X0050856Y0045334D01*
X0050923Y0045364D01*
X0050993Y0045391D01*
X0051064Y0045414D01*
X0051135Y0045433D01*
X0051208Y0045449D01*
X0051282Y0045461D01*
X0051356Y0045469D01*
X0051430Y0045473D01*
X0051504Y0045473D01*
X0051578Y0045469D01*
X0051652Y0045461D01*
X0051726Y0045449D01*
X0051799Y0045433D01*
X0051870Y0045414D01*
X0051941Y0045391D01*
X0052011Y0045364D01*
X0052078Y0045334D01*
X0052145Y0045300D01*
X0052209Y0045262D01*
X0052271Y0045221D01*
X0052331Y0045177D01*
X0052389Y0045130D01*
X0052444Y0045080D01*
X0052496Y0045027D01*
X0052545Y0044972D01*
X0052592Y0044913D01*
X0052635Y0044853D01*
X0052675Y0044790D01*
X0052712Y0044725D01*
X0052745Y0044659D01*
X0052775Y0044591D01*
X0052801Y0044521D01*
X0052823Y0044450D01*
X0052841Y0044378D01*
X0052856Y0044305D01*
X0052867Y0044231D01*
X0052874Y0044157D01*
X0052877Y0044083D01*
X0052840Y0044083D01*
X0052837Y0044157D01*
X0052830Y0044230D01*
X0052819Y0044303D01*
X0052804Y0044375D01*
X0052785Y0044446D01*
X0052763Y0044516D01*
X0052737Y0044585D01*
X0052707Y0044653D01*
X0052674Y0044718D01*
X0052637Y0044782D01*
X0052596Y0044844D01*
X0052553Y0044903D01*
X0052506Y0044960D01*
X0052457Y0045015D01*
X0052404Y0045066D01*
X0052349Y0045115D01*
X0052291Y0045161D01*
X0052231Y0045204D01*
X0052169Y0045243D01*
X0052105Y0045279D01*
X0052038Y0045311D01*
X0051971Y0045340D01*
X0051901Y0045365D01*
X0051831Y0045387D01*
X0051759Y0045404D01*
X0051687Y0045418D01*
X0051614Y0045428D01*
X0051541Y0045434D01*
X0051467Y0045436D01*
X0051393Y0045434D01*
X0051320Y0045428D01*
X0051247Y0045418D01*
X0051175Y0045404D01*
X0051103Y0045387D01*
X0051033Y0045365D01*
X0050963Y0045340D01*
X0050896Y0045311D01*
X0050829Y0045279D01*
X0050765Y0045243D01*
X0050703Y0045204D01*
X0050643Y0045161D01*
X0050585Y0045115D01*
X0050530Y0045066D01*
X0050477Y0045015D01*
X0050428Y0044960D01*
X0050381Y0044903D01*
X0050338Y0044844D01*
X0050297Y0044782D01*
X0050260Y0044718D01*
X0050227Y0044653D01*
X0050197Y0044585D01*
X0050171Y0044516D01*
X0050149Y0044446D01*
X0050130Y0044375D01*
X0050115Y0044303D01*
X0050104Y0044230D01*
X0050097Y0044157D01*
X0050094Y0044083D01*
X0050131Y0044083D01*
X0050134Y0044156D01*
X0050141Y0044228D01*
X0050152Y0044301D01*
X0050167Y0044372D01*
X0050186Y0044442D01*
X0050209Y0044512D01*
X0050235Y0044580D01*
X0050265Y0044646D01*
X0050299Y0044711D01*
X0050336Y0044774D01*
X0050376Y0044834D01*
X0050420Y0044893D01*
X0050467Y0044949D01*
X0050517Y0045002D01*
X0050569Y0045052D01*
X0050624Y0045100D01*
X0050682Y0045144D01*
X0050742Y0045185D01*
X0050805Y0045223D01*
X0050869Y0045258D01*
X0050935Y0045289D01*
X0051003Y0045316D01*
X0051072Y0045339D01*
X0051142Y0045359D01*
X0051213Y0045375D01*
X0051285Y0045387D01*
X0051358Y0045395D01*
X0051431Y0045399D01*
X0051503Y0045399D01*
X0051576Y0045395D01*
X0051649Y0045387D01*
X0051721Y0045375D01*
X0051792Y0045359D01*
X0051862Y0045339D01*
X0051931Y0045316D01*
X0051999Y0045289D01*
X0052065Y0045258D01*
X0052129Y0045223D01*
X0052192Y0045185D01*
X0052252Y0045144D01*
X0052310Y0045100D01*
X0052365Y0045052D01*
X0052417Y0045002D01*
X0052467Y0044949D01*
X0052514Y0044893D01*
X0052558Y0044834D01*
X0052598Y0044774D01*
X0052635Y0044711D01*
X0052669Y0044646D01*
X0052699Y0044580D01*
X0052725Y0044512D01*
X0052748Y0044442D01*
X0052767Y0044372D01*
X0052782Y0044301D01*
X0052793Y0044228D01*
X0052800Y0044156D01*
X0052803Y0044083D01*
X0052766Y0044083D01*
X0052763Y0044154D01*
X0052756Y0044224D01*
X0052745Y0044294D01*
X0052731Y0044364D01*
X0052712Y0044432D01*
X0052690Y0044500D01*
X0052665Y0044566D01*
X0052636Y0044630D01*
X0052603Y0044693D01*
X0052567Y0044754D01*
X0052527Y0044813D01*
X0052485Y0044870D01*
X0052439Y0044924D01*
X0052391Y0044976D01*
X0052340Y0045025D01*
X0052286Y0045071D01*
X0052230Y0045114D01*
X0052171Y0045154D01*
X0052111Y0045191D01*
X0052048Y0045225D01*
X0051984Y0045255D01*
X0051918Y0045281D01*
X0051851Y0045304D01*
X0051783Y0045323D01*
X0051714Y0045338D01*
X0051644Y0045350D01*
X0051573Y0045358D01*
X0051502Y0045362D01*
X0051432Y0045362D01*
X0051361Y0045358D01*
X0051290Y0045350D01*
X0051220Y0045338D01*
X0051151Y0045323D01*
X0051083Y0045304D01*
X0051016Y0045281D01*
X0050950Y0045255D01*
X0050886Y0045225D01*
X0050823Y0045191D01*
X0050763Y0045154D01*
X0050704Y0045114D01*
X0050648Y0045071D01*
X0050594Y0045025D01*
X0050543Y0044976D01*
X0050495Y0044924D01*
X0050449Y0044870D01*
X0050407Y0044813D01*
X0050367Y0044754D01*
X0050331Y0044693D01*
X0050298Y0044630D01*
X0050269Y0044566D01*
X0050244Y0044500D01*
X0050222Y0044432D01*
X0050203Y0044364D01*
X0050189Y0044294D01*
X0050178Y0044224D01*
X0050171Y0044154D01*
X0050168Y0044083D01*
X0050205Y0044083D01*
X0050208Y0044153D01*
X0050215Y0044223D01*
X0050226Y0044292D01*
X0050241Y0044361D01*
X0050259Y0044428D01*
X0050281Y0044495D01*
X0050307Y0044560D01*
X0050336Y0044623D01*
X0050369Y0044685D01*
X0050405Y0044745D01*
X0050445Y0044803D01*
X0050487Y0044859D01*
X0050533Y0044912D01*
X0050582Y0044962D01*
X0050633Y0045010D01*
X0050687Y0045055D01*
X0050743Y0045097D01*
X0050802Y0045135D01*
X0050862Y0045171D01*
X0050925Y0045202D01*
X0050989Y0045231D01*
X0051054Y0045256D01*
X0051121Y0045277D01*
X0051189Y0045294D01*
X0051258Y0045308D01*
X0051327Y0045317D01*
X0051397Y0045323D01*
X0051467Y0045325D01*
X0051537Y0045323D01*
X0051607Y0045317D01*
X0051676Y0045308D01*
X0051745Y0045294D01*
X0051813Y0045277D01*
X0051880Y0045256D01*
X0051945Y0045231D01*
X0052009Y0045202D01*
X0052072Y0045171D01*
X0052132Y0045135D01*
X0052191Y0045097D01*
X0052247Y0045055D01*
X0052301Y0045010D01*
X0052352Y0044962D01*
X0052401Y0044912D01*
X0052447Y0044859D01*
X0052489Y0044803D01*
X0052529Y0044745D01*
X0052565Y0044685D01*
X0052598Y0044623D01*
X0052627Y0044560D01*
X0052653Y0044495D01*
X0052675Y0044428D01*
X0052693Y0044361D01*
X0052708Y0044292D01*
X0052719Y0044223D01*
X0052726Y0044153D01*
X0052729Y0044083D01*
X0052692Y0044083D01*
X0052689Y0044152D01*
X0052682Y0044221D01*
X0052671Y0044289D01*
X0052656Y0044357D01*
X0052638Y0044424D01*
X0052615Y0044489D01*
X0052589Y0044554D01*
X0052560Y0044616D01*
X0052527Y0044677D01*
X0052491Y0044736D01*
X0052451Y0044793D01*
X0052408Y0044847D01*
X0052362Y0044899D01*
X0052314Y0044948D01*
X0052262Y0044995D01*
X0052208Y0045038D01*
X0052152Y0045078D01*
X0052094Y0045116D01*
X0052033Y0045149D01*
X0051971Y0045180D01*
X0051907Y0045206D01*
X0051842Y0045229D01*
X0051775Y0045249D01*
X0051708Y0045264D01*
X0051640Y0045276D01*
X0051571Y0045284D01*
X0051502Y0045288D01*
X0051432Y0045288D01*
X0051363Y0045284D01*
X0051294Y0045276D01*
X0051226Y0045264D01*
X0051159Y0045249D01*
X0051092Y0045229D01*
X0051027Y0045206D01*
X0050963Y0045180D01*
X0050901Y0045149D01*
X0050840Y0045116D01*
X0050782Y0045078D01*
X0050726Y0045038D01*
X0050672Y0044995D01*
X0050620Y0044948D01*
X0050572Y0044899D01*
X0050526Y0044847D01*
X0050483Y0044793D01*
X0050443Y0044736D01*
X0050407Y0044677D01*
X0050374Y0044616D01*
X0050345Y0044554D01*
X0050319Y0044489D01*
X0050296Y0044424D01*
X0050278Y0044357D01*
X0050263Y0044289D01*
X0050252Y0044221D01*
X0050245Y0044152D01*
X0050242Y0044083D01*
X0063024Y0044082D02*
X0062664Y0044082D01*
X0062665Y0044083D02*
X0062662Y0044152D01*
X0062655Y0044220D01*
X0062644Y0044289D01*
X0062629Y0044356D01*
X0062610Y0044422D01*
X0062587Y0044487D01*
X0062561Y0044551D01*
X0062531Y0044613D01*
X0062498Y0044674D01*
X0062461Y0044732D01*
X0062421Y0044788D01*
X0062378Y0044842D01*
X0062331Y0044893D01*
X0062282Y0044941D01*
X0062230Y0044986D01*
X0062176Y0045029D01*
X0062119Y0045068D01*
X0062060Y0045104D01*
X0061999Y0045136D01*
X0061937Y0045165D01*
X0061873Y0045190D01*
X0061807Y0045212D01*
X0061740Y0045229D01*
X0061673Y0045243D01*
X0061605Y0045253D01*
X0061536Y0045259D01*
X0061467Y0045261D01*
X0061398Y0045259D01*
X0061329Y0045253D01*
X0061261Y0045243D01*
X0061194Y0045229D01*
X0061127Y0045212D01*
X0061061Y0045190D01*
X0060997Y0045165D01*
X0060935Y0045136D01*
X0060874Y0045104D01*
X0060815Y0045068D01*
X0060758Y0045029D01*
X0060704Y0044986D01*
X0060652Y0044941D01*
X0060603Y0044893D01*
X0060556Y0044842D01*
X0060513Y0044788D01*
X0060473Y0044732D01*
X0060436Y0044674D01*
X0060403Y0044613D01*
X0060373Y0044551D01*
X0060347Y0044487D01*
X0060324Y0044422D01*
X0060305Y0044356D01*
X0060290Y0044289D01*
X0060279Y0044220D01*
X0060272Y0044152D01*
X0060269Y0044083D01*
X0059910Y0044082D01*
X0059909Y0044083D01*
X0059912Y0044161D01*
X0059919Y0044239D01*
X0059930Y0044317D01*
X0059944Y0044394D01*
X0059963Y0044470D01*
X0059985Y0044545D01*
X0060011Y0044619D01*
X0060041Y0044691D01*
X0060075Y0044762D01*
X0060111Y0044831D01*
X0060152Y0044898D01*
X0060195Y0044963D01*
X0060242Y0045026D01*
X0060292Y0045086D01*
X0060345Y0045144D01*
X0060401Y0045199D01*
X0060459Y0045251D01*
X0060520Y0045300D01*
X0060583Y0045346D01*
X0060649Y0045389D01*
X0060717Y0045428D01*
X0060786Y0045464D01*
X0060857Y0045497D01*
X0060930Y0045526D01*
X0061004Y0045551D01*
X0061080Y0045572D01*
X0061156Y0045590D01*
X0061233Y0045603D01*
X0061311Y0045613D01*
X0061389Y0045619D01*
X0061467Y0045621D01*
X0061545Y0045619D01*
X0061623Y0045613D01*
X0061701Y0045603D01*
X0061778Y0045590D01*
X0061854Y0045572D01*
X0061930Y0045551D01*
X0062004Y0045526D01*
X0062077Y0045497D01*
X0062148Y0045464D01*
X0062217Y0045428D01*
X0062285Y0045389D01*
X0062351Y0045346D01*
X0062414Y0045300D01*
X0062475Y0045251D01*
X0062533Y0045199D01*
X0062589Y0045144D01*
X0062642Y0045086D01*
X0062692Y0045026D01*
X0062739Y0044963D01*
X0062782Y0044898D01*
X0062823Y0044831D01*
X0062859Y0044762D01*
X0062893Y0044691D01*
X0062923Y0044619D01*
X0062949Y0044545D01*
X0062971Y0044470D01*
X0062990Y0044394D01*
X0063004Y0044317D01*
X0063015Y0044239D01*
X0063022Y0044161D01*
X0063025Y0044083D01*
X0062988Y0044083D01*
X0062985Y0044161D01*
X0062978Y0044238D01*
X0062967Y0044315D01*
X0062952Y0044391D01*
X0062934Y0044467D01*
X0062911Y0044541D01*
X0062885Y0044614D01*
X0062855Y0044686D01*
X0062821Y0044756D01*
X0062784Y0044824D01*
X0062743Y0044890D01*
X0062700Y0044954D01*
X0062652Y0045016D01*
X0062602Y0045075D01*
X0062549Y0045132D01*
X0062493Y0045186D01*
X0062435Y0045237D01*
X0062373Y0045284D01*
X0062310Y0045329D01*
X0062244Y0045371D01*
X0062176Y0045408D01*
X0062107Y0045443D01*
X0062035Y0045474D01*
X0061963Y0045501D01*
X0061889Y0045524D01*
X0061813Y0045544D01*
X0061737Y0045560D01*
X0061661Y0045572D01*
X0061583Y0045580D01*
X0061506Y0045584D01*
X0061428Y0045584D01*
X0061351Y0045580D01*
X0061273Y0045572D01*
X0061197Y0045560D01*
X0061121Y0045544D01*
X0061045Y0045524D01*
X0060971Y0045501D01*
X0060899Y0045474D01*
X0060827Y0045443D01*
X0060758Y0045408D01*
X0060690Y0045371D01*
X0060624Y0045329D01*
X0060561Y0045284D01*
X0060499Y0045237D01*
X0060441Y0045186D01*
X0060385Y0045132D01*
X0060332Y0045075D01*
X0060282Y0045016D01*
X0060234Y0044954D01*
X0060191Y0044890D01*
X0060150Y0044824D01*
X0060113Y0044756D01*
X0060079Y0044686D01*
X0060049Y0044614D01*
X0060023Y0044541D01*
X0060000Y0044467D01*
X0059982Y0044391D01*
X0059967Y0044315D01*
X0059956Y0044238D01*
X0059949Y0044161D01*
X0059946Y0044083D01*
X0059983Y0044083D01*
X0059986Y0044159D01*
X0059993Y0044234D01*
X0060004Y0044309D01*
X0060018Y0044384D01*
X0060036Y0044457D01*
X0060058Y0044530D01*
X0060084Y0044601D01*
X0060113Y0044671D01*
X0060146Y0044739D01*
X0060182Y0044806D01*
X0060222Y0044870D01*
X0060265Y0044933D01*
X0060311Y0044993D01*
X0060359Y0045051D01*
X0060411Y0045106D01*
X0060466Y0045159D01*
X0060523Y0045208D01*
X0060583Y0045255D01*
X0060645Y0045298D01*
X0060709Y0045339D01*
X0060775Y0045376D01*
X0060843Y0045409D01*
X0060912Y0045440D01*
X0060983Y0045466D01*
X0061056Y0045489D01*
X0061129Y0045508D01*
X0061203Y0045523D01*
X0061278Y0045535D01*
X0061353Y0045543D01*
X0061429Y0045547D01*
X0061505Y0045547D01*
X0061581Y0045543D01*
X0061656Y0045535D01*
X0061731Y0045523D01*
X0061805Y0045508D01*
X0061878Y0045489D01*
X0061951Y0045466D01*
X0062022Y0045440D01*
X0062091Y0045409D01*
X0062159Y0045376D01*
X0062225Y0045339D01*
X0062289Y0045298D01*
X0062351Y0045255D01*
X0062411Y0045208D01*
X0062468Y0045159D01*
X0062523Y0045106D01*
X0062575Y0045051D01*
X0062623Y0044993D01*
X0062669Y0044933D01*
X0062712Y0044870D01*
X0062752Y0044806D01*
X0062788Y0044739D01*
X0062821Y0044671D01*
X0062850Y0044601D01*
X0062876Y0044530D01*
X0062898Y0044457D01*
X0062916Y0044384D01*
X0062930Y0044309D01*
X0062941Y0044234D01*
X0062948Y0044159D01*
X0062951Y0044083D01*
X0062914Y0044083D01*
X0062911Y0044158D01*
X0062904Y0044233D01*
X0062893Y0044307D01*
X0062879Y0044381D01*
X0062860Y0044454D01*
X0062838Y0044525D01*
X0062812Y0044596D01*
X0062783Y0044665D01*
X0062750Y0044732D01*
X0062713Y0044798D01*
X0062674Y0044862D01*
X0062631Y0044923D01*
X0062584Y0044982D01*
X0062535Y0045039D01*
X0062483Y0045093D01*
X0062428Y0045145D01*
X0062371Y0045193D01*
X0062311Y0045238D01*
X0062249Y0045281D01*
X0062185Y0045319D01*
X0062119Y0045355D01*
X0062051Y0045387D01*
X0061981Y0045416D01*
X0061910Y0045440D01*
X0061838Y0045462D01*
X0061765Y0045479D01*
X0061691Y0045492D01*
X0061617Y0045502D01*
X0061542Y0045508D01*
X0061467Y0045510D01*
X0061392Y0045508D01*
X0061317Y0045502D01*
X0061243Y0045492D01*
X0061169Y0045479D01*
X0061096Y0045462D01*
X0061024Y0045440D01*
X0060953Y0045416D01*
X0060883Y0045387D01*
X0060815Y0045355D01*
X0060749Y0045319D01*
X0060685Y0045281D01*
X0060623Y0045238D01*
X0060563Y0045193D01*
X0060506Y0045145D01*
X0060451Y0045093D01*
X0060399Y0045039D01*
X0060350Y0044982D01*
X0060303Y0044923D01*
X0060260Y0044862D01*
X0060221Y0044798D01*
X0060184Y0044732D01*
X0060151Y0044665D01*
X0060122Y0044596D01*
X0060096Y0044525D01*
X0060074Y0044454D01*
X0060055Y0044381D01*
X0060041Y0044307D01*
X0060030Y0044233D01*
X0060023Y0044158D01*
X0060020Y0044083D01*
X0060057Y0044083D01*
X0060060Y0044157D01*
X0060067Y0044231D01*
X0060078Y0044305D01*
X0060093Y0044378D01*
X0060111Y0044450D01*
X0060133Y0044521D01*
X0060159Y0044591D01*
X0060189Y0044659D01*
X0060222Y0044725D01*
X0060259Y0044790D01*
X0060299Y0044853D01*
X0060342Y0044913D01*
X0060389Y0044972D01*
X0060438Y0045027D01*
X0060490Y0045080D01*
X0060545Y0045130D01*
X0060603Y0045177D01*
X0060663Y0045221D01*
X0060725Y0045262D01*
X0060789Y0045300D01*
X0060856Y0045334D01*
X0060923Y0045364D01*
X0060993Y0045391D01*
X0061064Y0045414D01*
X0061135Y0045433D01*
X0061208Y0045449D01*
X0061282Y0045461D01*
X0061356Y0045469D01*
X0061430Y0045473D01*
X0061504Y0045473D01*
X0061578Y0045469D01*
X0061652Y0045461D01*
X0061726Y0045449D01*
X0061799Y0045433D01*
X0061870Y0045414D01*
X0061941Y0045391D01*
X0062011Y0045364D01*
X0062078Y0045334D01*
X0062145Y0045300D01*
X0062209Y0045262D01*
X0062271Y0045221D01*
X0062331Y0045177D01*
X0062389Y0045130D01*
X0062444Y0045080D01*
X0062496Y0045027D01*
X0062545Y0044972D01*
X0062592Y0044913D01*
X0062635Y0044853D01*
X0062675Y0044790D01*
X0062712Y0044725D01*
X0062745Y0044659D01*
X0062775Y0044591D01*
X0062801Y0044521D01*
X0062823Y0044450D01*
X0062841Y0044378D01*
X0062856Y0044305D01*
X0062867Y0044231D01*
X0062874Y0044157D01*
X0062877Y0044083D01*
X0062840Y0044083D01*
X0062837Y0044157D01*
X0062830Y0044230D01*
X0062819Y0044303D01*
X0062804Y0044375D01*
X0062785Y0044446D01*
X0062763Y0044516D01*
X0062737Y0044585D01*
X0062707Y0044653D01*
X0062674Y0044718D01*
X0062637Y0044782D01*
X0062596Y0044844D01*
X0062553Y0044903D01*
X0062506Y0044960D01*
X0062457Y0045015D01*
X0062404Y0045066D01*
X0062349Y0045115D01*
X0062291Y0045161D01*
X0062231Y0045204D01*
X0062169Y0045243D01*
X0062105Y0045279D01*
X0062038Y0045311D01*
X0061971Y0045340D01*
X0061901Y0045365D01*
X0061831Y0045387D01*
X0061759Y0045404D01*
X0061687Y0045418D01*
X0061614Y0045428D01*
X0061541Y0045434D01*
X0061467Y0045436D01*
X0061393Y0045434D01*
X0061320Y0045428D01*
X0061247Y0045418D01*
X0061175Y0045404D01*
X0061103Y0045387D01*
X0061033Y0045365D01*
X0060963Y0045340D01*
X0060896Y0045311D01*
X0060829Y0045279D01*
X0060765Y0045243D01*
X0060703Y0045204D01*
X0060643Y0045161D01*
X0060585Y0045115D01*
X0060530Y0045066D01*
X0060477Y0045015D01*
X0060428Y0044960D01*
X0060381Y0044903D01*
X0060338Y0044844D01*
X0060297Y0044782D01*
X0060260Y0044718D01*
X0060227Y0044653D01*
X0060197Y0044585D01*
X0060171Y0044516D01*
X0060149Y0044446D01*
X0060130Y0044375D01*
X0060115Y0044303D01*
X0060104Y0044230D01*
X0060097Y0044157D01*
X0060094Y0044083D01*
X0060131Y0044083D01*
X0060134Y0044156D01*
X0060141Y0044228D01*
X0060152Y0044301D01*
X0060167Y0044372D01*
X0060186Y0044442D01*
X0060209Y0044512D01*
X0060235Y0044580D01*
X0060265Y0044646D01*
X0060299Y0044711D01*
X0060336Y0044774D01*
X0060376Y0044834D01*
X0060420Y0044893D01*
X0060467Y0044949D01*
X0060517Y0045002D01*
X0060569Y0045052D01*
X0060624Y0045100D01*
X0060682Y0045144D01*
X0060742Y0045185D01*
X0060805Y0045223D01*
X0060869Y0045258D01*
X0060935Y0045289D01*
X0061003Y0045316D01*
X0061072Y0045339D01*
X0061142Y0045359D01*
X0061213Y0045375D01*
X0061285Y0045387D01*
X0061358Y0045395D01*
X0061431Y0045399D01*
X0061503Y0045399D01*
X0061576Y0045395D01*
X0061649Y0045387D01*
X0061721Y0045375D01*
X0061792Y0045359D01*
X0061862Y0045339D01*
X0061931Y0045316D01*
X0061999Y0045289D01*
X0062065Y0045258D01*
X0062129Y0045223D01*
X0062192Y0045185D01*
X0062252Y0045144D01*
X0062310Y0045100D01*
X0062365Y0045052D01*
X0062417Y0045002D01*
X0062467Y0044949D01*
X0062514Y0044893D01*
X0062558Y0044834D01*
X0062598Y0044774D01*
X0062635Y0044711D01*
X0062669Y0044646D01*
X0062699Y0044580D01*
X0062725Y0044512D01*
X0062748Y0044442D01*
X0062767Y0044372D01*
X0062782Y0044301D01*
X0062793Y0044228D01*
X0062800Y0044156D01*
X0062803Y0044083D01*
X0062766Y0044083D01*
X0062763Y0044154D01*
X0062756Y0044224D01*
X0062745Y0044294D01*
X0062731Y0044364D01*
X0062712Y0044432D01*
X0062690Y0044500D01*
X0062665Y0044566D01*
X0062636Y0044630D01*
X0062603Y0044693D01*
X0062567Y0044754D01*
X0062527Y0044813D01*
X0062485Y0044870D01*
X0062439Y0044924D01*
X0062391Y0044976D01*
X0062340Y0045025D01*
X0062286Y0045071D01*
X0062230Y0045114D01*
X0062171Y0045154D01*
X0062111Y0045191D01*
X0062048Y0045225D01*
X0061984Y0045255D01*
X0061918Y0045281D01*
X0061851Y0045304D01*
X0061783Y0045323D01*
X0061714Y0045338D01*
X0061644Y0045350D01*
X0061573Y0045358D01*
X0061502Y0045362D01*
X0061432Y0045362D01*
X0061361Y0045358D01*
X0061290Y0045350D01*
X0061220Y0045338D01*
X0061151Y0045323D01*
X0061083Y0045304D01*
X0061016Y0045281D01*
X0060950Y0045255D01*
X0060886Y0045225D01*
X0060823Y0045191D01*
X0060763Y0045154D01*
X0060704Y0045114D01*
X0060648Y0045071D01*
X0060594Y0045025D01*
X0060543Y0044976D01*
X0060495Y0044924D01*
X0060449Y0044870D01*
X0060407Y0044813D01*
X0060367Y0044754D01*
X0060331Y0044693D01*
X0060298Y0044630D01*
X0060269Y0044566D01*
X0060244Y0044500D01*
X0060222Y0044432D01*
X0060203Y0044364D01*
X0060189Y0044294D01*
X0060178Y0044224D01*
X0060171Y0044154D01*
X0060168Y0044083D01*
X0060205Y0044083D01*
X0060208Y0044153D01*
X0060215Y0044223D01*
X0060226Y0044292D01*
X0060241Y0044361D01*
X0060259Y0044428D01*
X0060281Y0044495D01*
X0060307Y0044560D01*
X0060336Y0044623D01*
X0060369Y0044685D01*
X0060405Y0044745D01*
X0060445Y0044803D01*
X0060487Y0044859D01*
X0060533Y0044912D01*
X0060582Y0044962D01*
X0060633Y0045010D01*
X0060687Y0045055D01*
X0060743Y0045097D01*
X0060802Y0045135D01*
X0060862Y0045171D01*
X0060925Y0045202D01*
X0060989Y0045231D01*
X0061054Y0045256D01*
X0061121Y0045277D01*
X0061189Y0045294D01*
X0061258Y0045308D01*
X0061327Y0045317D01*
X0061397Y0045323D01*
X0061467Y0045325D01*
X0061537Y0045323D01*
X0061607Y0045317D01*
X0061676Y0045308D01*
X0061745Y0045294D01*
X0061813Y0045277D01*
X0061880Y0045256D01*
X0061945Y0045231D01*
X0062009Y0045202D01*
X0062072Y0045171D01*
X0062132Y0045135D01*
X0062191Y0045097D01*
X0062247Y0045055D01*
X0062301Y0045010D01*
X0062352Y0044962D01*
X0062401Y0044912D01*
X0062447Y0044859D01*
X0062489Y0044803D01*
X0062529Y0044745D01*
X0062565Y0044685D01*
X0062598Y0044623D01*
X0062627Y0044560D01*
X0062653Y0044495D01*
X0062675Y0044428D01*
X0062693Y0044361D01*
X0062708Y0044292D01*
X0062719Y0044223D01*
X0062726Y0044153D01*
X0062729Y0044083D01*
X0062692Y0044083D01*
X0062689Y0044152D01*
X0062682Y0044221D01*
X0062671Y0044289D01*
X0062656Y0044357D01*
X0062638Y0044424D01*
X0062615Y0044489D01*
X0062589Y0044554D01*
X0062560Y0044616D01*
X0062527Y0044677D01*
X0062491Y0044736D01*
X0062451Y0044793D01*
X0062408Y0044847D01*
X0062362Y0044899D01*
X0062314Y0044948D01*
X0062262Y0044995D01*
X0062208Y0045038D01*
X0062152Y0045078D01*
X0062094Y0045116D01*
X0062033Y0045149D01*
X0061971Y0045180D01*
X0061907Y0045206D01*
X0061842Y0045229D01*
X0061775Y0045249D01*
X0061708Y0045264D01*
X0061640Y0045276D01*
X0061571Y0045284D01*
X0061502Y0045288D01*
X0061432Y0045288D01*
X0061363Y0045284D01*
X0061294Y0045276D01*
X0061226Y0045264D01*
X0061159Y0045249D01*
X0061092Y0045229D01*
X0061027Y0045206D01*
X0060963Y0045180D01*
X0060901Y0045149D01*
X0060840Y0045116D01*
X0060782Y0045078D01*
X0060726Y0045038D01*
X0060672Y0044995D01*
X0060620Y0044948D01*
X0060572Y0044899D01*
X0060526Y0044847D01*
X0060483Y0044793D01*
X0060443Y0044736D01*
X0060407Y0044677D01*
X0060374Y0044616D01*
X0060345Y0044554D01*
X0060319Y0044489D01*
X0060296Y0044424D01*
X0060278Y0044357D01*
X0060263Y0044289D01*
X0060252Y0044221D01*
X0060245Y0044152D01*
X0060242Y0044083D01*
D16*
X0059646Y0045047D03*
X0063288Y0045047D03*
X0053288Y0045047D03*
X0049646Y0045047D03*
X0053288Y0050953D03*
X0063288Y0050953D03*
D17*
X0062451Y0050461D03*
X0060482Y0050461D03*
X0060482Y0045539D03*
X0062451Y0045539D03*
X0052451Y0045539D03*
X0050482Y0045539D03*
X0050482Y0050461D03*
X0052451Y0050461D03*
D18*
X0051467Y0050313D03*
X0051467Y0045687D03*
X0061467Y0045687D03*
X0061467Y0050313D03*
D19*
X0061467Y0048394D03*
X0051467Y0048394D03*
D20*
X0049695Y0050559D03*
X0059695Y0050559D03*
D21*
X0059449Y0051789D03*
X0049449Y0051789D03*
D22*
X0051447Y0037284D03*
X0051447Y0032684D03*
X0061447Y0032684D03*
X0061447Y0037284D03*
D23*
X0061467Y0035000D03*
X0051467Y0035000D03*
D24*
X0048367Y0035278D02*
X0048367Y0033810D01*
X0048367Y0034544D02*
X0046165Y0034544D01*
X0046899Y0033810D01*
X0047266Y0033068D02*
X0047633Y0032701D01*
X0047633Y0031600D01*
X0048367Y0031600D02*
X0046165Y0031600D01*
X0046165Y0032701D01*
X0046532Y0033068D01*
X0047266Y0033068D01*
X0047633Y0032334D02*
X0048367Y0033068D01*
X0056165Y0032701D02*
X0056165Y0031600D01*
X0058367Y0031600D01*
X0057633Y0031600D02*
X0057633Y0032701D01*
X0057266Y0033068D01*
X0056532Y0033068D01*
X0056165Y0032701D01*
X0056532Y0033810D02*
X0056165Y0034177D01*
X0056165Y0034911D01*
X0056532Y0035278D01*
X0056899Y0035278D01*
X0058367Y0033810D01*
X0058367Y0035278D01*
X0058367Y0033068D02*
X0057633Y0032334D01*
X0052458Y0062263D02*
X0051724Y0062263D01*
X0051357Y0062630D01*
X0051357Y0063364D02*
X0052091Y0063731D01*
X0052458Y0063731D01*
X0052825Y0063364D01*
X0052825Y0062630D01*
X0052458Y0062263D01*
X0051357Y0063364D02*
X0051357Y0064465D01*
X0052825Y0064465D01*
X0050615Y0064098D02*
X0050248Y0064465D01*
X0049514Y0064465D01*
X0049147Y0064098D01*
X0049147Y0062630D01*
X0049514Y0062263D01*
X0050248Y0062263D01*
X0050615Y0062630D01*
X0081317Y0085217D02*
X0081684Y0084850D01*
X0082418Y0084850D01*
X0082785Y0085217D01*
X0082785Y0087052D01*
X0083527Y0086685D02*
X0083894Y0087052D01*
X0084627Y0087052D01*
X0084994Y0086685D01*
X0084994Y0086318D01*
X0083527Y0084850D01*
X0084994Y0084850D01*
X0081317Y0085217D02*
X0081317Y0087052D01*
X0108147Y0074098D02*
X0108147Y0072630D01*
X0108514Y0072263D01*
X0109248Y0072263D01*
X0109615Y0072630D01*
X0110357Y0072630D02*
X0110724Y0072263D01*
X0111458Y0072263D01*
X0111825Y0072630D01*
X0111825Y0072997D01*
X0111458Y0073364D01*
X0110357Y0073364D01*
X0110357Y0072630D01*
X0110357Y0073364D02*
X0111091Y0074098D01*
X0111825Y0074465D01*
X0109615Y0074098D02*
X0109248Y0074465D01*
X0108514Y0074465D01*
X0108147Y0074098D01*
D25*
X0102467Y0048000D03*
X0092467Y0048000D03*
X0092467Y0033000D03*
X0102467Y0033000D03*
X0082467Y0033000D03*
X0082467Y0013000D03*
X0072467Y0013000D03*
X0062467Y0013000D03*
X0052467Y0013000D03*
X0042467Y0013000D03*
X0032467Y0013000D03*
X0022467Y0013000D03*
X0012467Y0013000D03*
X0012467Y0033000D03*
X0012467Y0043000D03*
X0012467Y0053000D03*
X0012467Y0063000D03*
X0012467Y0073000D03*
X0012467Y0083000D03*
X0032467Y0083000D03*
X0032467Y0073000D03*
X0032467Y0063000D03*
X0032467Y0053000D03*
X0032467Y0043000D03*
X0092467Y0013000D03*
X0102467Y0013000D03*
X0112467Y0013000D03*
X0122467Y0013000D03*
X0132467Y0013000D03*
X0142467Y0013000D03*
X0152467Y0013000D03*
X0162467Y0013000D03*
X0172467Y0013000D03*
X0182467Y0013000D03*
X0192467Y0013000D03*
X0202467Y0013000D03*
X0212467Y0013000D03*
X0182467Y0103000D03*
X0172467Y0103000D03*
X0162467Y0103000D03*
X0152467Y0103000D03*
X0142467Y0103000D03*
X0132467Y0103000D03*
X0122467Y0103000D03*
X0112467Y0103000D03*
X0102467Y0103000D03*
X0092467Y0103000D03*
X0082467Y0103000D03*
X0072467Y0103000D03*
X0062467Y0103000D03*
X0052467Y0103000D03*
X0042467Y0103000D03*
X0032467Y0103000D03*
X0022467Y0103000D03*
X0012467Y0103000D03*
D26*
X0007617Y0006052D02*
X0007617Y0003150D01*
X0007617Y0004117D02*
X0009068Y0004117D01*
X0009552Y0004601D01*
X0009552Y0005569D01*
X0009068Y0006052D01*
X0007617Y0006052D01*
X0010563Y0005569D02*
X0010563Y0003634D01*
X0011047Y0003150D01*
X0012014Y0003150D01*
X0012498Y0003634D01*
X0012498Y0005569D01*
X0012014Y0006052D01*
X0011047Y0006052D01*
X0010563Y0005569D01*
X0013510Y0006052D02*
X0014961Y0006052D01*
X0015445Y0005569D01*
X0015445Y0004601D01*
X0014961Y0004117D01*
X0013510Y0004117D01*
X0013510Y0003150D02*
X0013510Y0006052D01*
X0014477Y0004117D02*
X0015445Y0003150D01*
X0017424Y0003150D02*
X0017424Y0006052D01*
X0018391Y0006052D02*
X0016456Y0006052D01*
X0019403Y0006052D02*
X0020854Y0006052D01*
X0021338Y0005569D01*
X0021338Y0005085D01*
X0020854Y0004601D01*
X0019403Y0004601D01*
X0020854Y0004601D02*
X0021338Y0004117D01*
X0021338Y0003634D01*
X0020854Y0003150D01*
X0019403Y0003150D01*
X0019403Y0006052D01*
X0004633Y0027850D02*
X0005117Y0028334D01*
X0005117Y0029301D01*
X0004633Y0029785D01*
X0004149Y0029785D01*
X0003665Y0029301D01*
X0003665Y0028334D01*
X0003182Y0027850D01*
X0002698Y0027850D01*
X0002214Y0028334D01*
X0002214Y0029301D01*
X0002698Y0029785D01*
X0002214Y0030797D02*
X0003182Y0031764D01*
X0002214Y0032731D01*
X0005117Y0032731D01*
X0005117Y0033743D02*
X0005117Y0034711D01*
X0005117Y0034227D02*
X0002214Y0034227D01*
X0002214Y0033743D02*
X0002214Y0034711D01*
X0002214Y0035707D02*
X0002214Y0037159D01*
X0002698Y0037642D01*
X0003665Y0037642D01*
X0004149Y0037159D01*
X0004149Y0035707D01*
X0005117Y0035707D02*
X0002214Y0035707D01*
X0004149Y0036675D02*
X0005117Y0037642D01*
X0005117Y0038654D02*
X0002214Y0038654D01*
X0002214Y0040589D01*
X0003665Y0039621D02*
X0003665Y0038654D01*
X0002214Y0030797D02*
X0005117Y0030797D01*
X0007617Y0110150D02*
X0007617Y0113052D01*
X0009068Y0113052D01*
X0009552Y0112569D01*
X0009552Y0111601D01*
X0009068Y0111117D01*
X0007617Y0111117D01*
X0008584Y0111117D02*
X0009552Y0110150D01*
X0010563Y0110150D02*
X0012498Y0110150D01*
X0013510Y0110634D02*
X0013993Y0110150D01*
X0014961Y0110150D01*
X0015445Y0110634D01*
X0015445Y0111601D01*
X0014477Y0111601D01*
X0013510Y0110634D02*
X0013510Y0112569D01*
X0013993Y0113052D01*
X0014961Y0113052D01*
X0015445Y0112569D01*
X0017617Y0113052D02*
X0019068Y0113052D01*
X0019552Y0112569D01*
X0019552Y0111601D01*
X0019068Y0111117D01*
X0017617Y0111117D01*
X0017617Y0110150D02*
X0017617Y0113052D01*
X0020563Y0112569D02*
X0020563Y0110634D01*
X0021047Y0110150D01*
X0022014Y0110150D01*
X0022498Y0110634D01*
X0022498Y0112569D01*
X0022014Y0113052D01*
X0021047Y0113052D01*
X0020563Y0112569D01*
X0023510Y0113052D02*
X0023510Y0110150D01*
X0023510Y0111117D02*
X0024961Y0111117D01*
X0025445Y0111601D01*
X0025445Y0112569D01*
X0024961Y0113052D01*
X0023510Y0113052D01*
X0026456Y0113052D02*
X0028391Y0113052D01*
X0027424Y0113052D02*
X0027424Y0110150D01*
X0025445Y0110150D02*
X0024477Y0111117D01*
X0029403Y0110634D02*
X0029886Y0110150D01*
X0030854Y0110150D01*
X0031338Y0110634D01*
X0029403Y0110634D02*
X0029403Y0112569D01*
X0029886Y0113052D01*
X0030854Y0113052D01*
X0031338Y0112569D01*
X0012498Y0113052D02*
X0010563Y0113052D01*
X0010563Y0110150D01*
X0010563Y0111601D02*
X0011531Y0111601D01*
X0057617Y0111117D02*
X0059068Y0111117D01*
X0059552Y0111601D01*
X0059552Y0112569D01*
X0059068Y0113052D01*
X0057617Y0113052D01*
X0057617Y0110150D01*
X0060563Y0110634D02*
X0061047Y0110150D01*
X0062014Y0110150D01*
X0062498Y0110634D01*
X0062498Y0112569D01*
X0062014Y0113052D01*
X0061047Y0113052D01*
X0060563Y0112569D01*
X0060563Y0110634D01*
X0063510Y0111117D02*
X0064961Y0111117D01*
X0065445Y0111601D01*
X0065445Y0112569D01*
X0064961Y0113052D01*
X0063510Y0113052D01*
X0063510Y0110150D01*
X0064477Y0111117D02*
X0065445Y0110150D01*
X0067424Y0110150D02*
X0067424Y0113052D01*
X0068391Y0113052D02*
X0066456Y0113052D01*
X0069403Y0113052D02*
X0069403Y0110150D01*
X0071338Y0110150D01*
X0070370Y0111601D02*
X0069403Y0111601D01*
X0069403Y0113052D02*
X0071338Y0113052D01*
X0137617Y0113052D02*
X0137617Y0110150D01*
X0137617Y0111117D02*
X0139068Y0111117D01*
X0139552Y0111601D01*
X0139552Y0112569D01*
X0139068Y0113052D01*
X0137617Y0113052D01*
X0140563Y0112569D02*
X0140563Y0110634D01*
X0141047Y0110150D01*
X0142014Y0110150D01*
X0142498Y0110634D01*
X0142498Y0112569D01*
X0142014Y0113052D01*
X0141047Y0113052D01*
X0140563Y0112569D01*
X0143510Y0113052D02*
X0143510Y0110150D01*
X0144477Y0111117D01*
X0145445Y0110150D01*
X0145445Y0113052D01*
X0146456Y0113052D02*
X0146456Y0110150D01*
X0148391Y0110150D01*
X0149403Y0110150D02*
X0149403Y0113052D01*
X0150854Y0113052D01*
X0151338Y0112569D01*
X0151338Y0111601D01*
X0150854Y0111117D01*
X0149403Y0111117D01*
X0150370Y0111117D02*
X0151338Y0110150D01*
X0147424Y0111601D02*
X0146456Y0111601D01*
X0146456Y0113052D02*
X0148391Y0113052D01*
X0202884Y0005852D02*
X0204335Y0005852D01*
X0204819Y0005369D01*
X0204819Y0004401D01*
X0204335Y0003917D01*
X0202884Y0003917D01*
X0202884Y0002950D02*
X0202884Y0005852D01*
X0205831Y0005369D02*
X0205831Y0003434D01*
X0206314Y0002950D01*
X0207282Y0002950D01*
X0207766Y0003434D01*
X0207766Y0005369D01*
X0207282Y0005852D01*
X0206314Y0005852D01*
X0205831Y0005369D01*
X0208777Y0005852D02*
X0210228Y0005852D01*
X0210712Y0005369D01*
X0210712Y0004401D01*
X0210228Y0003917D01*
X0208777Y0003917D01*
X0208777Y0002950D02*
X0208777Y0005852D01*
X0209745Y0003917D02*
X0210712Y0002950D01*
X0212691Y0002950D02*
X0212691Y0005852D01*
X0211724Y0005852D02*
X0213659Y0005852D01*
X0214670Y0005852D02*
X0216121Y0005852D01*
X0216605Y0005369D01*
X0216605Y0003434D01*
X0216121Y0002950D01*
X0214670Y0002950D01*
X0214670Y0005852D01*
D27*
X0113309Y0061276D02*
X0107404Y0061276D01*
X0113309Y0061276D02*
X0113309Y0070724D01*
X0107404Y0070724D01*
X0099530Y0070724D02*
X0095199Y0070724D01*
X0093624Y0069150D01*
X0093624Y0062850D01*
X0095199Y0061276D01*
X0099530Y0061276D01*
X0078967Y0063100D02*
X0078967Y0088900D01*
X0065967Y0088900D01*
X0065967Y0063100D01*
X0078967Y0063100D01*
X0053191Y0066157D02*
X0043742Y0066157D01*
X0043742Y0072063D01*
X0053191Y0072063D02*
X0053191Y0066157D01*
X0053191Y0079937D02*
X0053191Y0084268D01*
X0051616Y0085843D01*
X0045317Y0085843D01*
X0043742Y0084268D01*
X0043742Y0079937D01*
X0108167Y0077807D02*
X0108169Y0077835D01*
X0108175Y0077862D01*
X0108184Y0077888D01*
X0108197Y0077913D01*
X0108214Y0077936D01*
X0108233Y0077956D01*
X0108255Y0077973D01*
X0108279Y0077987D01*
X0108305Y0077997D01*
X0108332Y0078004D01*
X0108360Y0078007D01*
X0108388Y0078006D01*
X0108415Y0078001D01*
X0108442Y0077992D01*
X0108467Y0077980D01*
X0108490Y0077965D01*
X0108511Y0077946D01*
X0108529Y0077925D01*
X0108544Y0077901D01*
X0108555Y0077875D01*
X0108563Y0077849D01*
X0108567Y0077821D01*
X0108567Y0077793D01*
X0108563Y0077765D01*
X0108555Y0077739D01*
X0108544Y0077713D01*
X0108529Y0077689D01*
X0108511Y0077668D01*
X0108490Y0077649D01*
X0108467Y0077634D01*
X0108442Y0077622D01*
X0108415Y0077613D01*
X0108388Y0077608D01*
X0108360Y0077607D01*
X0108332Y0077610D01*
X0108305Y0077617D01*
X0108279Y0077627D01*
X0108255Y0077641D01*
X0108233Y0077658D01*
X0108214Y0077678D01*
X0108197Y0077701D01*
X0108184Y0077726D01*
X0108175Y0077752D01*
X0108169Y0077779D01*
X0108167Y0077807D01*
D28*
X0083217Y0076000D03*
X0083217Y0076000D03*
D29*
X0061717Y0076000D03*
X0061717Y0076000D03*
X0061717Y0066900D03*
X0061717Y0066900D03*
X0061717Y0085100D03*
X0061717Y0085100D03*
D30*
X0217727Y0079654D03*
M02*
