G75*
%MOIN*%
%OFA0B0*%
%FSLAX25Y25*%
%IPPOS*%
%LPD*%
%AMOC8*
5,1,8,0,0,1.08239X$1,22.5*
%
%ADD10C,0.00000*%
%ADD11C,0.00500*%
%ADD12C,0.00400*%
%ADD13C,0.00600*%
%ADD14R,0.01969X0.03740*%
%ADD15R,0.01800X0.03000*%
%ADD16C,0.00200*%
%ADD17C,0.02200*%
%ADD18R,0.03740X0.01969*%
%ADD19R,0.04000X0.03000*%
%ADD20R,0.04000X0.00200*%
%ADD21R,0.00200X0.02800*%
%ADD22C,0.00250*%
D10*
X0007467Y0008000D02*
X0007467Y0108000D01*
X0227467Y0108000D01*
X0227467Y0008000D01*
X0007467Y0008000D01*
D11*
X0142230Y0046701D02*
X0162703Y0046701D01*
X0158766Y0043953D02*
X0146167Y0043953D01*
X0146167Y0038047D01*
X0158766Y0038047D01*
X0158766Y0043953D01*
X0162703Y0059299D02*
X0142230Y0059299D01*
X0179525Y0076334D02*
X0179525Y0078669D01*
X0181860Y0076334D01*
X0181277Y0075750D01*
X0180109Y0075750D01*
X0179525Y0076334D01*
X0181860Y0076334D02*
X0181860Y0078669D01*
X0181277Y0079253D01*
X0180109Y0079253D01*
X0179525Y0078669D01*
X0183118Y0076334D02*
X0183118Y0075750D01*
X0183702Y0075750D01*
X0183702Y0076334D01*
X0183118Y0076334D01*
X0185050Y0075750D02*
X0187385Y0075750D01*
X0185050Y0078085D01*
X0185050Y0078669D01*
X0185634Y0079253D01*
X0186801Y0079253D01*
X0187385Y0078669D01*
X0188733Y0078085D02*
X0189901Y0075750D01*
X0191068Y0078085D01*
X0196099Y0078085D02*
X0196683Y0077501D01*
X0198435Y0077501D01*
X0199782Y0076918D02*
X0199782Y0076334D01*
X0200366Y0075750D01*
X0202118Y0075750D01*
X0202118Y0079253D01*
X0200366Y0079253D01*
X0199782Y0078669D01*
X0199782Y0078085D01*
X0200366Y0077501D01*
X0202118Y0077501D01*
X0200366Y0077501D02*
X0199782Y0076918D01*
X0198435Y0075750D02*
X0196683Y0075750D01*
X0196099Y0076334D01*
X0196099Y0076918D01*
X0196683Y0077501D01*
X0196099Y0078085D02*
X0196099Y0078669D01*
X0196683Y0079253D01*
X0198435Y0079253D01*
X0198435Y0075750D01*
X0198465Y0073085D02*
X0197297Y0073085D01*
X0196713Y0072501D01*
X0196713Y0071334D01*
X0197297Y0070750D01*
X0198465Y0070750D01*
X0199049Y0071334D01*
X0199049Y0072501D01*
X0198465Y0073085D01*
X0200396Y0073085D02*
X0202148Y0073085D01*
X0202732Y0072501D01*
X0202732Y0071334D01*
X0202148Y0070750D01*
X0200396Y0070750D01*
X0203989Y0070750D02*
X0204573Y0070750D01*
X0204573Y0071334D01*
X0203989Y0071334D01*
X0203989Y0070750D01*
X0205921Y0070750D02*
X0207673Y0070750D01*
X0208256Y0071334D01*
X0208256Y0073085D01*
X0209604Y0072501D02*
X0209604Y0071918D01*
X0211940Y0071918D01*
X0211940Y0072501D02*
X0211356Y0073085D01*
X0210188Y0073085D01*
X0209604Y0072501D01*
X0210188Y0070750D02*
X0211356Y0070750D01*
X0211940Y0071334D01*
X0211940Y0072501D01*
X0213287Y0072501D02*
X0213287Y0070750D01*
X0213287Y0072501D02*
X0213871Y0073085D01*
X0215623Y0073085D01*
X0215623Y0070750D01*
X0216910Y0070750D02*
X0217494Y0071334D01*
X0217494Y0073669D01*
X0218078Y0073085D02*
X0216910Y0073085D01*
X0219426Y0072501D02*
X0219426Y0071918D01*
X0221761Y0071918D01*
X0221761Y0072501D02*
X0221177Y0073085D01*
X0220010Y0073085D01*
X0219426Y0072501D01*
X0220010Y0070750D02*
X0221177Y0070750D01*
X0221761Y0071334D01*
X0221761Y0072501D01*
X0223049Y0073085D02*
X0223049Y0070166D01*
X0223633Y0069582D01*
X0224217Y0069582D01*
X0223049Y0074253D02*
X0223049Y0074837D01*
X0224217Y0075750D02*
X0223049Y0076918D01*
X0221881Y0075750D01*
X0221881Y0079253D01*
X0220534Y0079253D02*
X0218198Y0079253D01*
X0216850Y0078085D02*
X0215683Y0079253D01*
X0215683Y0075750D01*
X0216850Y0075750D02*
X0214515Y0075750D01*
X0213167Y0075750D02*
X0210832Y0078085D01*
X0210832Y0078669D01*
X0211416Y0079253D01*
X0212583Y0079253D01*
X0213167Y0078669D01*
X0209484Y0078085D02*
X0208316Y0079253D01*
X0208316Y0075750D01*
X0207149Y0075750D02*
X0209484Y0075750D01*
X0210832Y0075750D02*
X0213167Y0075750D01*
X0219366Y0077501D02*
X0220534Y0077501D01*
X0220534Y0075750D02*
X0220534Y0079253D01*
X0224217Y0079253D02*
X0224217Y0075750D01*
X0207089Y0069582D02*
X0206505Y0069582D01*
X0205921Y0070166D01*
X0205921Y0073085D01*
X0195365Y0073085D02*
X0195365Y0070750D01*
X0194198Y0070750D02*
X0194198Y0072501D01*
X0193614Y0073085D01*
X0193030Y0072501D01*
X0193030Y0070750D01*
X0194198Y0072501D02*
X0194782Y0073085D01*
X0195365Y0073085D01*
D12*
X0169167Y0055402D02*
X0169167Y0052598D01*
X0165817Y0052598D02*
X0165817Y0055402D01*
X0185065Y0044701D02*
X0187868Y0044701D01*
X0187868Y0041350D02*
X0185065Y0041350D01*
X0184453Y0040522D02*
X0182905Y0038200D01*
X0182905Y0040522D01*
X0181948Y0040135D02*
X0181562Y0040522D01*
X0180788Y0040522D01*
X0180401Y0040135D01*
X0180401Y0038587D01*
X0180788Y0038200D01*
X0181562Y0038200D01*
X0181948Y0038587D01*
X0181948Y0040135D01*
X0184453Y0040522D02*
X0184453Y0038200D01*
X0187914Y0038200D02*
X0189462Y0038200D01*
X0188688Y0038200D02*
X0188688Y0040522D01*
X0189462Y0039748D01*
X0190419Y0039361D02*
X0190419Y0038587D01*
X0190806Y0038200D01*
X0191580Y0038200D01*
X0191967Y0038587D01*
X0191967Y0039361D02*
X0191193Y0039748D01*
X0190806Y0039748D01*
X0190419Y0039361D01*
X0190419Y0040522D02*
X0191967Y0040522D01*
X0191967Y0039361D01*
X0176939Y0038587D02*
X0176552Y0038200D01*
X0175778Y0038200D01*
X0175391Y0038587D01*
X0174435Y0038587D02*
X0174048Y0038200D01*
X0173274Y0038200D01*
X0172887Y0038587D01*
X0172887Y0040135D01*
X0173274Y0040522D01*
X0174048Y0040522D01*
X0174435Y0040135D01*
X0174435Y0038587D01*
X0175391Y0040135D02*
X0175778Y0040522D01*
X0176552Y0040522D01*
X0176939Y0040135D01*
X0176939Y0038587D01*
X0171930Y0038200D02*
X0170382Y0038200D01*
X0169426Y0038200D02*
X0167878Y0040522D01*
X0169426Y0040522D02*
X0167878Y0038200D01*
X0171156Y0039361D02*
X0171930Y0039361D01*
X0171930Y0040522D02*
X0171930Y0038200D01*
X0171930Y0040522D02*
X0170382Y0040522D01*
X0164167Y0039598D02*
X0164167Y0042402D01*
X0160817Y0042402D02*
X0160817Y0039598D01*
X0144167Y0039598D02*
X0144167Y0042402D01*
X0140817Y0042402D02*
X0140817Y0039598D01*
X0139167Y0052598D02*
X0139167Y0055402D01*
X0135817Y0055402D02*
X0135817Y0052598D01*
X0063267Y0027202D02*
X0063267Y0025200D01*
X0062266Y0025200D01*
X0061932Y0025534D01*
X0061932Y0026868D01*
X0062266Y0027202D01*
X0063267Y0027202D01*
X0061057Y0026201D02*
X0059722Y0026201D01*
X0060056Y0027202D02*
X0061057Y0026201D01*
X0060056Y0025200D02*
X0060056Y0027202D01*
X0054267Y0027202D02*
X0054267Y0025200D01*
X0054267Y0025867D02*
X0053266Y0025867D01*
X0052932Y0026201D01*
X0052932Y0026868D01*
X0053266Y0027202D01*
X0054267Y0027202D01*
X0052057Y0027202D02*
X0052057Y0025200D01*
X0051390Y0025867D01*
X0050722Y0025200D01*
X0050722Y0027202D01*
X0049847Y0027202D02*
X0048846Y0027202D01*
X0048512Y0026868D01*
X0048512Y0026201D01*
X0048846Y0025867D01*
X0049847Y0025867D01*
X0049847Y0025200D02*
X0049847Y0027202D01*
X0049180Y0025867D02*
X0048512Y0025200D01*
D13*
X0048514Y0028669D02*
X0054419Y0028669D01*
X0054482Y0028677D01*
X0054544Y0028688D01*
X0054606Y0028703D01*
X0054666Y0028721D01*
X0054726Y0028743D01*
X0054784Y0028768D01*
X0054840Y0028797D01*
X0054895Y0028829D01*
X0054947Y0028864D01*
X0054998Y0028902D01*
X0055046Y0028942D01*
X0055092Y0028986D01*
X0055135Y0029032D01*
X0055176Y0029081D01*
X0055214Y0029132D01*
X0055248Y0029184D01*
X0055280Y0029239D01*
X0055308Y0029296D01*
X0055333Y0029354D01*
X0055354Y0029414D01*
X0055372Y0029474D01*
X0055386Y0029536D01*
X0055397Y0029598D01*
X0055404Y0029661D01*
X0055408Y0029724D01*
X0055407Y0029787D01*
X0055404Y0029850D01*
X0055404Y0036150D01*
X0055403Y0036150D02*
X0055407Y0036213D01*
X0055408Y0036276D01*
X0055404Y0036339D01*
X0055397Y0036402D01*
X0055386Y0036464D01*
X0055372Y0036526D01*
X0055354Y0036587D01*
X0055333Y0036646D01*
X0055308Y0036704D01*
X0055280Y0036761D01*
X0055248Y0036816D01*
X0055214Y0036869D01*
X0055176Y0036920D01*
X0055136Y0036968D01*
X0055092Y0037014D01*
X0055047Y0037058D01*
X0054998Y0037099D01*
X0054948Y0037137D01*
X0054895Y0037172D01*
X0054840Y0037203D01*
X0054784Y0037232D01*
X0054726Y0037257D01*
X0054666Y0037279D01*
X0054606Y0037297D01*
X0054544Y0037312D01*
X0054482Y0037323D01*
X0054419Y0037331D01*
X0048514Y0037331D01*
X0048448Y0037323D01*
X0048384Y0037311D01*
X0048320Y0037295D01*
X0048257Y0037276D01*
X0048196Y0037252D01*
X0048136Y0037225D01*
X0048078Y0037195D01*
X0048022Y0037161D01*
X0047968Y0037124D01*
X0047916Y0037083D01*
X0047867Y0037039D01*
X0047820Y0036993D01*
X0047777Y0036944D01*
X0047736Y0036892D01*
X0047699Y0036838D01*
X0047665Y0036782D01*
X0047635Y0036724D01*
X0047608Y0036664D01*
X0047584Y0036603D01*
X0047565Y0036540D01*
X0047549Y0036476D01*
X0047537Y0036412D01*
X0047529Y0036346D01*
X0047525Y0036281D01*
X0047525Y0036215D01*
X0047529Y0036150D01*
X0047530Y0036150D02*
X0047530Y0029850D01*
X0047529Y0029850D02*
X0047525Y0029785D01*
X0047525Y0029719D01*
X0047529Y0029654D01*
X0047537Y0029588D01*
X0047549Y0029524D01*
X0047565Y0029460D01*
X0047584Y0029397D01*
X0047608Y0029336D01*
X0047635Y0029276D01*
X0047665Y0029218D01*
X0047699Y0029162D01*
X0047736Y0029108D01*
X0047777Y0029056D01*
X0047820Y0029007D01*
X0047867Y0028961D01*
X0047916Y0028917D01*
X0047968Y0028876D01*
X0048022Y0028839D01*
X0048078Y0028805D01*
X0048136Y0028775D01*
X0048196Y0028748D01*
X0048257Y0028724D01*
X0048320Y0028705D01*
X0048384Y0028689D01*
X0048448Y0028677D01*
X0048514Y0028669D01*
X0057530Y0029850D02*
X0057530Y0036150D01*
X0057529Y0036150D02*
X0057525Y0036215D01*
X0057525Y0036281D01*
X0057529Y0036346D01*
X0057537Y0036412D01*
X0057549Y0036476D01*
X0057565Y0036540D01*
X0057584Y0036603D01*
X0057608Y0036664D01*
X0057635Y0036724D01*
X0057665Y0036782D01*
X0057699Y0036838D01*
X0057736Y0036892D01*
X0057777Y0036944D01*
X0057820Y0036993D01*
X0057867Y0037039D01*
X0057916Y0037083D01*
X0057968Y0037124D01*
X0058022Y0037161D01*
X0058078Y0037195D01*
X0058136Y0037225D01*
X0058196Y0037252D01*
X0058257Y0037276D01*
X0058320Y0037295D01*
X0058384Y0037311D01*
X0058448Y0037323D01*
X0058514Y0037331D01*
X0064419Y0037331D01*
X0064482Y0037323D01*
X0064544Y0037312D01*
X0064606Y0037297D01*
X0064666Y0037279D01*
X0064726Y0037257D01*
X0064784Y0037232D01*
X0064840Y0037203D01*
X0064895Y0037172D01*
X0064948Y0037137D01*
X0064998Y0037099D01*
X0065047Y0037058D01*
X0065092Y0037014D01*
X0065136Y0036968D01*
X0065176Y0036920D01*
X0065214Y0036869D01*
X0065248Y0036816D01*
X0065280Y0036761D01*
X0065308Y0036704D01*
X0065333Y0036646D01*
X0065354Y0036587D01*
X0065372Y0036526D01*
X0065386Y0036464D01*
X0065397Y0036402D01*
X0065404Y0036339D01*
X0065408Y0036276D01*
X0065407Y0036213D01*
X0065403Y0036150D01*
X0065404Y0036150D02*
X0065404Y0029850D01*
X0065407Y0029787D01*
X0065408Y0029724D01*
X0065404Y0029661D01*
X0065397Y0029598D01*
X0065386Y0029536D01*
X0065372Y0029474D01*
X0065354Y0029414D01*
X0065333Y0029354D01*
X0065308Y0029296D01*
X0065280Y0029239D01*
X0065248Y0029184D01*
X0065214Y0029132D01*
X0065176Y0029081D01*
X0065135Y0029032D01*
X0065092Y0028986D01*
X0065046Y0028942D01*
X0064998Y0028902D01*
X0064947Y0028864D01*
X0064895Y0028829D01*
X0064840Y0028797D01*
X0064784Y0028768D01*
X0064726Y0028743D01*
X0064666Y0028721D01*
X0064606Y0028703D01*
X0064544Y0028688D01*
X0064482Y0028677D01*
X0064419Y0028669D01*
X0058514Y0028669D01*
X0058448Y0028677D01*
X0058384Y0028689D01*
X0058320Y0028705D01*
X0058257Y0028724D01*
X0058196Y0028748D01*
X0058136Y0028775D01*
X0058078Y0028805D01*
X0058022Y0028839D01*
X0057968Y0028876D01*
X0057916Y0028917D01*
X0057867Y0028961D01*
X0057820Y0029007D01*
X0057777Y0029056D01*
X0057736Y0029108D01*
X0057699Y0029162D01*
X0057665Y0029218D01*
X0057635Y0029276D01*
X0057608Y0029336D01*
X0057584Y0029397D01*
X0057565Y0029460D01*
X0057549Y0029524D01*
X0057537Y0029588D01*
X0057529Y0029654D01*
X0057525Y0029719D01*
X0057525Y0029785D01*
X0057529Y0029850D01*
X0202367Y0084800D02*
X0203767Y0084500D01*
X0204367Y0083200D01*
X0203467Y0081900D01*
X0204367Y0081000D01*
X0205567Y0081800D01*
X0206167Y0081500D01*
X0207067Y0083800D01*
X0206467Y0083500D02*
X0205967Y0082000D01*
X0205467Y0082000D01*
X0204467Y0081500D01*
X0203967Y0082000D01*
X0204467Y0083000D01*
X0204467Y0084500D01*
X0202967Y0085000D01*
X0202467Y0086000D01*
X0203967Y0086000D01*
X0204467Y0087500D01*
X0203967Y0089000D01*
X0204467Y0089500D01*
X0205467Y0088500D01*
X0206967Y0089000D01*
X0207467Y0090500D01*
X0208467Y0090500D01*
X0208467Y0089500D01*
X0209967Y0088500D01*
X0211467Y0089500D01*
X0211967Y0089000D01*
X0210967Y0087500D01*
X0211467Y0086000D01*
X0212967Y0086000D01*
X0212967Y0085000D01*
X0211967Y0085000D01*
X0210967Y0083500D01*
X0211967Y0082000D01*
X0211467Y0081500D01*
X0209967Y0082000D01*
X0208967Y0083500D01*
X0209467Y0084000D01*
X0209967Y0085500D01*
X0209467Y0087000D01*
X0207967Y0087500D01*
X0206467Y0087000D01*
X0205467Y0085500D01*
X0206467Y0083500D01*
X0206437Y0083412D02*
X0204467Y0083412D01*
X0204467Y0084011D02*
X0206211Y0084011D01*
X0205912Y0084609D02*
X0204138Y0084609D01*
X0202863Y0085208D02*
X0205613Y0085208D01*
X0205671Y0085806D02*
X0202563Y0085806D01*
X0202367Y0086100D02*
X0202367Y0084800D01*
X0202367Y0086100D02*
X0203867Y0086400D01*
X0204367Y0087600D01*
X0203467Y0088900D01*
X0204367Y0089800D01*
X0205767Y0088900D01*
X0206967Y0089400D01*
X0207267Y0091000D01*
X0208567Y0091000D01*
X0208867Y0089400D01*
X0210067Y0088900D01*
X0211367Y0089800D01*
X0212267Y0088900D01*
X0211367Y0087600D01*
X0211967Y0086300D01*
X0213467Y0086100D01*
X0213467Y0084800D01*
X0211967Y0084500D01*
X0211467Y0083200D01*
X0212267Y0081900D01*
X0211367Y0081000D01*
X0210167Y0081800D01*
X0209667Y0081500D01*
X0208667Y0083800D01*
X0209025Y0083412D02*
X0211025Y0083412D01*
X0211307Y0084011D02*
X0209470Y0084011D01*
X0209670Y0084609D02*
X0211706Y0084609D01*
X0212967Y0085208D02*
X0209869Y0085208D01*
X0209864Y0085806D02*
X0212967Y0085806D01*
X0211332Y0086405D02*
X0209665Y0086405D01*
X0209456Y0087003D02*
X0211132Y0087003D01*
X0211035Y0087602D02*
X0204433Y0087602D01*
X0204301Y0087003D02*
X0206477Y0087003D01*
X0206070Y0086405D02*
X0204102Y0086405D01*
X0204233Y0088201D02*
X0211434Y0088201D01*
X0211833Y0088799D02*
X0210415Y0088799D01*
X0209518Y0088799D02*
X0206364Y0088799D01*
X0207099Y0089398D02*
X0208620Y0089398D01*
X0208467Y0089996D02*
X0207299Y0089996D01*
X0205168Y0088799D02*
X0204034Y0088799D01*
X0204364Y0089398D02*
X0204569Y0089398D01*
X0207067Y0083800D02*
X0206993Y0083839D01*
X0206920Y0083882D01*
X0206850Y0083928D01*
X0206782Y0083978D01*
X0206716Y0084030D01*
X0206653Y0084086D01*
X0206593Y0084144D01*
X0206535Y0084205D01*
X0206481Y0084269D01*
X0206429Y0084335D01*
X0206381Y0084404D01*
X0206336Y0084475D01*
X0206294Y0084548D01*
X0206256Y0084623D01*
X0206221Y0084699D01*
X0206190Y0084777D01*
X0206162Y0084857D01*
X0206139Y0084938D01*
X0206119Y0085019D01*
X0206103Y0085102D01*
X0206091Y0085185D01*
X0206083Y0085269D01*
X0206079Y0085352D01*
X0206078Y0085437D01*
X0206082Y0085520D01*
X0206090Y0085604D01*
X0206101Y0085687D01*
X0206117Y0085770D01*
X0206136Y0085852D01*
X0206159Y0085933D01*
X0206186Y0086012D01*
X0206217Y0086091D01*
X0206251Y0086167D01*
X0206289Y0086242D01*
X0206330Y0086315D01*
X0206375Y0086387D01*
X0206423Y0086456D01*
X0206474Y0086522D01*
X0206528Y0086587D01*
X0206585Y0086648D01*
X0206645Y0086707D01*
X0206708Y0086763D01*
X0206773Y0086816D01*
X0206841Y0086866D01*
X0206911Y0086912D01*
X0206983Y0086955D01*
X0207057Y0086995D01*
X0207133Y0087031D01*
X0207210Y0087064D01*
X0207289Y0087093D01*
X0207369Y0087118D01*
X0207451Y0087140D01*
X0207533Y0087158D01*
X0207616Y0087171D01*
X0207699Y0087181D01*
X0207783Y0087187D01*
X0207867Y0087189D01*
X0207951Y0087187D01*
X0208035Y0087181D01*
X0208118Y0087171D01*
X0208201Y0087158D01*
X0208283Y0087140D01*
X0208365Y0087118D01*
X0208445Y0087093D01*
X0208524Y0087064D01*
X0208601Y0087031D01*
X0208677Y0086995D01*
X0208751Y0086955D01*
X0208823Y0086912D01*
X0208893Y0086866D01*
X0208961Y0086816D01*
X0209026Y0086763D01*
X0209089Y0086707D01*
X0209149Y0086648D01*
X0209206Y0086587D01*
X0209260Y0086522D01*
X0209311Y0086456D01*
X0209359Y0086387D01*
X0209404Y0086315D01*
X0209445Y0086242D01*
X0209483Y0086167D01*
X0209517Y0086091D01*
X0209548Y0086012D01*
X0209575Y0085933D01*
X0209598Y0085852D01*
X0209617Y0085770D01*
X0209633Y0085687D01*
X0209644Y0085604D01*
X0209652Y0085520D01*
X0209656Y0085437D01*
X0209655Y0085352D01*
X0209651Y0085269D01*
X0209643Y0085185D01*
X0209631Y0085102D01*
X0209615Y0085019D01*
X0209595Y0084938D01*
X0209572Y0084857D01*
X0209544Y0084777D01*
X0209513Y0084699D01*
X0209478Y0084623D01*
X0209440Y0084548D01*
X0209398Y0084475D01*
X0209353Y0084404D01*
X0209305Y0084335D01*
X0209253Y0084269D01*
X0209199Y0084205D01*
X0209141Y0084144D01*
X0209081Y0084086D01*
X0209018Y0084030D01*
X0208952Y0083978D01*
X0208884Y0083928D01*
X0208814Y0083882D01*
X0208741Y0083839D01*
X0208667Y0083800D01*
X0209424Y0082814D02*
X0211424Y0082814D01*
X0211823Y0082215D02*
X0209823Y0082215D01*
X0211116Y0081617D02*
X0211584Y0081617D01*
X0206238Y0082814D02*
X0204374Y0082814D01*
X0204074Y0082215D02*
X0206038Y0082215D01*
X0204700Y0081617D02*
X0204350Y0081617D01*
X0211313Y0089398D02*
X0211569Y0089398D01*
D14*
X0188782Y0043020D03*
X0184182Y0043020D03*
D15*
X0186467Y0043000D03*
D16*
X0186556Y0046100D02*
X0187290Y0046100D01*
X0187657Y0046467D01*
X0188399Y0046100D02*
X0189133Y0046834D01*
X0188766Y0046834D02*
X0189867Y0046834D01*
X0189867Y0046100D02*
X0189867Y0048302D01*
X0188766Y0048302D01*
X0188399Y0047935D01*
X0188399Y0047201D01*
X0188766Y0046834D01*
X0187657Y0047935D02*
X0187290Y0048302D01*
X0186556Y0048302D01*
X0186189Y0047935D01*
X0186189Y0047568D01*
X0186556Y0047201D01*
X0186189Y0046834D01*
X0186189Y0046467D01*
X0186556Y0046100D01*
X0186556Y0047201D02*
X0186923Y0047201D01*
X0172769Y0050967D02*
X0172402Y0050600D01*
X0170934Y0050600D01*
X0170567Y0050967D01*
X0170567Y0051701D01*
X0170934Y0052068D01*
X0170567Y0052810D02*
X0170567Y0054278D01*
X0170567Y0053544D02*
X0172769Y0053544D01*
X0172035Y0052810D01*
X0172402Y0052068D02*
X0172769Y0051701D01*
X0172769Y0050967D01*
X0155769Y0051100D02*
X0153567Y0052568D01*
X0153567Y0053310D02*
X0153567Y0054778D01*
X0153567Y0054044D02*
X0155769Y0054044D01*
X0155035Y0053310D01*
X0155769Y0052568D02*
X0153567Y0051100D01*
X0142769Y0050967D02*
X0142402Y0050600D01*
X0140934Y0050600D01*
X0140567Y0050967D01*
X0140567Y0051701D01*
X0140934Y0052068D01*
X0140567Y0052810D02*
X0142035Y0054278D01*
X0142402Y0054278D01*
X0142769Y0053911D01*
X0142769Y0053177D01*
X0142402Y0052810D01*
X0142402Y0052068D02*
X0142769Y0051701D01*
X0142769Y0050967D01*
X0140567Y0052810D02*
X0140567Y0054278D01*
X0150504Y0043085D02*
X0150504Y0041617D01*
X0151972Y0043085D01*
X0152339Y0043085D01*
X0152706Y0042718D01*
X0152706Y0041984D01*
X0152339Y0041617D01*
X0152706Y0040875D02*
X0150504Y0039407D01*
X0150504Y0040875D02*
X0152706Y0039407D01*
X0160556Y0035302D02*
X0161657Y0034201D01*
X0160189Y0034201D01*
X0160556Y0033100D02*
X0160556Y0035302D01*
X0162399Y0034935D02*
X0162766Y0035302D01*
X0163500Y0035302D01*
X0163867Y0034935D01*
X0163867Y0033467D01*
X0163500Y0033100D01*
X0162766Y0033100D01*
X0162399Y0033467D01*
X0143867Y0033467D02*
X0143500Y0033100D01*
X0142766Y0033100D01*
X0142399Y0033467D01*
X0141657Y0033467D02*
X0141290Y0033100D01*
X0140556Y0033100D01*
X0140189Y0033467D01*
X0140189Y0033834D01*
X0140556Y0034201D01*
X0140923Y0034201D01*
X0140556Y0034201D02*
X0140189Y0034568D01*
X0140189Y0034935D01*
X0140556Y0035302D01*
X0141290Y0035302D01*
X0141657Y0034935D01*
X0142399Y0034935D02*
X0142766Y0035302D01*
X0143500Y0035302D01*
X0143867Y0034935D01*
X0143867Y0033467D01*
D17*
X0142587Y0041000D02*
X0142347Y0041000D01*
X0162347Y0041000D02*
X0162587Y0041000D01*
X0167347Y0054000D02*
X0167587Y0054000D01*
X0137587Y0054000D02*
X0137347Y0054000D01*
D18*
X0137487Y0056284D03*
X0137487Y0051684D03*
X0142487Y0043284D03*
X0142487Y0038684D03*
X0162487Y0038684D03*
X0162487Y0043284D03*
X0167487Y0051684D03*
X0167487Y0056284D03*
D19*
X0217467Y0082500D03*
X0222467Y0082500D03*
X0217467Y0086500D03*
D20*
X0217467Y0089100D03*
D21*
X0215567Y0090600D03*
D22*
X0215967Y0089500D02*
X0216467Y0092500D01*
X0216967Y0089500D01*
X0217467Y0092500D01*
X0217967Y0089500D01*
X0218467Y0092500D01*
X0218967Y0089500D01*
X0219467Y0092500D01*
X0219967Y0089500D01*
X0218967Y0089500D01*
X0217967Y0089500D01*
X0216967Y0089500D01*
X0215967Y0089500D01*
X0215967Y0092500D01*
X0216467Y0092500D01*
X0217467Y0092500D01*
X0218467Y0092500D01*
X0219467Y0092500D01*
X0219967Y0092500D01*
X0219967Y0089500D01*
M02*
