%
M48
M72
T01C0.01300
T02C0.04000
%
T01
X17967Y16400
X20067Y23600
X25467Y23600
X42267Y33200
X51867Y27200
X61467Y27200
X68067Y23600
X75267Y23600
X77667Y16400
X98667Y26000
X102267Y27200
X108267Y30800
X116067Y33200
X113067Y35000
X116967Y29600
X120267Y29600
X128667Y33800
X132867Y36800
X136167Y36200
X138267Y42200
X133467Y43400
X135867Y46400
X131067Y49400
X125667Y45800
X115467Y45800
X110667Y45800
X115467Y56000
X110667Y60800
X104067Y63200
X93267Y62000
X78267Y70400
X76467Y73400
X69867Y77600
X64467Y80600
X66867Y73100
X59667Y71600
X54267Y72200
X50067Y76400
X46467Y76100
X42867Y67400
X42867Y62600
X35667Y58400
X45867Y56000
X25467Y43400
X56067Y34400
X65667Y37400
X70467Y35000
X76467Y32600
X73467Y42800
X78867Y45800
X74067Y50000
X57267Y40400
X69867Y62000
X94467Y73400
X98067Y73400
X91467Y77600
X107667Y83000
X115467Y80600
X123267Y82400
X118467Y84800
X128667Y80600
X136467Y80000
X138867Y77600
X144267Y69200
X139467Y66800
X125667Y66800
X126267Y57800
X131067Y57800
X133467Y55400
X150867Y52400
X150867Y48800
X172467Y43000
X176467Y41000
X176467Y45000
X175467Y50000
X181467Y51000
X186467Y51000
X190467Y51000
X190467Y55000
X186467Y55000
X175467Y55000
X159867Y62000
X163467Y64400
X166467Y72000
X170467Y72000
X174467Y72000
X174467Y76000
X170467Y76000
X166467Y76000
X161067Y76400
X157467Y76400
X153867Y76400
X171867Y83000
X167067Y92600
X161067Y92600
X147267Y92600
X137667Y99800
X113067Y92000
X104067Y89000
X87267Y91400
X47067Y99800
X29367Y77900
X23667Y72200
X116667Y23600
X126867Y16400
X131667Y23600
X136467Y23600
X147267Y16400
X151467Y23600
X162267Y33200
X167067Y33200
X157467Y35000
X171267Y23600
X181467Y23600
X191667Y23600
X196467Y23600
X197067Y16400
X211467Y23600
X207267Y33200
X197067Y33200
X189467Y35000
X185467Y35000
X181467Y35000
X195267Y42200
X206667Y43400
X209067Y39200
X204267Y53000
X204467Y58000
X208467Y58000
X212467Y58000
X217467Y55400
X216467Y62000
X212467Y62000
X208467Y62000
X204467Y62000
X199467Y62000
X199467Y66000
X195267Y68600
X198867Y80600
X186867Y92600
X182067Y92600
X177267Y92600
X196467Y104000
X200467Y104000
X200467Y100000
X200467Y96000
T02
X12467Y13000
X22467Y13000
X32467Y13000
X42467Y13000
X52467Y13000
X62467Y13000
X72467Y13000
X82467Y13000
X92467Y13000
X102467Y13000
X112467Y13000
X122467Y13000
X132467Y13000
X142467Y13000
X152467Y13000
X162467Y13000
X172467Y13000
X182467Y13000
X192467Y13000
X202467Y13000
X212467Y13000
X102467Y33000
X92467Y33000
X82467Y33000
X92467Y48000
X102467Y48000
X32467Y43000
X32467Y53000
X32467Y63000
X32467Y73000
X32467Y83000
X12467Y83000
X12467Y73000
X12467Y63000
X12467Y53000
X12467Y43000
X12467Y33000
X12467Y103000
X22467Y103000
X32467Y103000
X42467Y103000
X52467Y103000
X62467Y103000
X72467Y103000
X82467Y103000
X92467Y103000
X102467Y103000
X112467Y103000
X122467Y103000
X132467Y103000
X142467Y103000
X152467Y103000
X162467Y103000
X172467Y103000
X182467Y103000
M30
