G75*
%MOIN*%
%OFA0B0*%
%FSLAX25Y25*%
%IPPOS*%
%LPD*%
%AMOC8*
5,1,8,0,0,1.08239X$1,22.5*
%
%ADD10R,0.05000X0.02500*%
%ADD11OC8,0.07000*%
%ADD12R,0.04331X0.03937*%
%ADD13R,0.06693X0.09449*%
%ADD14R,0.03937X0.07087*%
%ADD15R,0.03937X0.04331*%
%ADD16C,0.01600*%
%ADD17C,0.01000*%
%ADD18C,0.02700*%
%ADD19C,0.00600*%
D10*
X0051467Y0031378D03*
X0051467Y0034622D03*
X0061467Y0034622D03*
X0061467Y0031378D03*
D11*
X0012467Y0013000D03*
X0022467Y0013000D03*
X0032467Y0013000D03*
X0042467Y0013000D03*
X0052467Y0013000D03*
X0062467Y0013000D03*
X0072467Y0013000D03*
X0082467Y0013000D03*
X0092467Y0013000D03*
X0102467Y0013000D03*
X0112467Y0013000D03*
X0122467Y0013000D03*
X0132467Y0013000D03*
X0142467Y0013000D03*
X0152467Y0013000D03*
X0162467Y0013000D03*
X0172467Y0013000D03*
X0182467Y0013000D03*
X0192467Y0013000D03*
X0202467Y0013000D03*
X0212467Y0013000D03*
X0102467Y0033000D03*
X0092467Y0033000D03*
X0082467Y0033000D03*
X0092467Y0048000D03*
X0102467Y0048000D03*
X0032467Y0043000D03*
X0032467Y0053000D03*
X0032467Y0063000D03*
X0032467Y0073000D03*
X0032467Y0083000D03*
X0012467Y0083000D03*
X0012467Y0073000D03*
X0012467Y0063000D03*
X0012467Y0053000D03*
X0012467Y0043000D03*
X0012467Y0033000D03*
X0012467Y0103000D03*
X0022467Y0103000D03*
X0032467Y0103000D03*
X0042467Y0103000D03*
X0052467Y0103000D03*
X0062467Y0103000D03*
X0072467Y0103000D03*
X0082467Y0103000D03*
X0092467Y0103000D03*
X0102467Y0103000D03*
X0112467Y0103000D03*
X0122467Y0103000D03*
X0132467Y0103000D03*
X0142467Y0103000D03*
X0152467Y0103000D03*
X0162467Y0103000D03*
X0172467Y0103000D03*
X0182467Y0103000D03*
D12*
X0183120Y0043000D03*
X0189813Y0043000D03*
D13*
X0159750Y0053000D03*
X0145183Y0053000D03*
D14*
X0147545Y0041000D03*
X0157388Y0041000D03*
D15*
X0162467Y0037654D03*
X0162467Y0044346D03*
X0167467Y0050654D03*
X0167467Y0057346D03*
X0142467Y0044346D03*
X0137467Y0050654D03*
X0137467Y0057346D03*
X0142467Y0037654D03*
D16*
X0139098Y0040173D02*
X0136217Y0043054D01*
X0136217Y0043650D01*
X0136414Y0043650D01*
X0137424Y0044069D01*
X0138198Y0044842D01*
X0138617Y0045853D01*
X0138617Y0046947D01*
X0138558Y0047088D01*
X0138789Y0047088D01*
X0138698Y0046749D01*
X0138698Y0044531D01*
X0142282Y0044531D01*
X0142282Y0044162D01*
X0138698Y0044162D01*
X0138698Y0041944D01*
X0138821Y0041486D01*
X0139058Y0041076D01*
X0139393Y0040741D01*
X0139423Y0040723D01*
X0139098Y0040399D01*
X0139098Y0040173D01*
X0138799Y0041569D02*
X0137702Y0041569D01*
X0138698Y0043167D02*
X0136217Y0043167D01*
X0138121Y0044766D02*
X0138698Y0044766D01*
X0138698Y0046364D02*
X0138617Y0046364D01*
X0142282Y0046364D02*
X0142651Y0046364D01*
X0142651Y0046876D02*
X0142651Y0044531D01*
X0142282Y0044531D01*
X0142282Y0046876D01*
X0142651Y0046876D01*
X0142651Y0044766D02*
X0142282Y0044766D01*
X0142282Y0044162D02*
X0142651Y0044162D01*
X0142651Y0041219D01*
X0142282Y0041219D01*
X0142282Y0044162D01*
X0142282Y0043167D02*
X0142651Y0043167D01*
X0142651Y0041569D02*
X0142282Y0041569D01*
X0162651Y0044162D02*
X0162651Y0044531D01*
X0166235Y0044531D01*
X0166235Y0046749D01*
X0166144Y0047088D01*
X0170015Y0047088D01*
X0170835Y0047908D01*
X0170835Y0053399D01*
X0170510Y0053723D01*
X0170540Y0053741D01*
X0170876Y0054076D01*
X0171112Y0054486D01*
X0171235Y0054944D01*
X0171235Y0057162D01*
X0167651Y0057162D01*
X0167651Y0057531D01*
X0167282Y0057531D01*
X0167282Y0061312D01*
X0165261Y0061312D01*
X0164803Y0061189D01*
X0164393Y0060952D01*
X0164058Y0060617D01*
X0163821Y0060207D01*
X0163698Y0059749D01*
X0163698Y0059103D01*
X0163676Y0059124D01*
X0155824Y0059124D01*
X0155004Y0058304D01*
X0155004Y0054700D01*
X0152456Y0054700D01*
X0152424Y0054731D01*
X0151414Y0055150D01*
X0150320Y0055150D01*
X0149930Y0054988D01*
X0149930Y0058304D01*
X0149110Y0059124D01*
X0141257Y0059124D01*
X0141235Y0059103D01*
X0141235Y0059749D01*
X0141112Y0060207D01*
X0140876Y0060617D01*
X0140540Y0060952D01*
X0140130Y0061189D01*
X0139672Y0061312D01*
X0137651Y0061312D01*
X0137651Y0057531D01*
X0137282Y0057531D01*
X0137282Y0061312D01*
X0135261Y0061312D01*
X0134803Y0061189D01*
X0134393Y0060952D01*
X0134058Y0060617D01*
X0133821Y0060207D01*
X0133698Y0059749D01*
X0133698Y0058633D01*
X0133398Y0059358D01*
X0132624Y0060131D01*
X0131614Y0060550D01*
X0130520Y0060550D01*
X0129509Y0060131D01*
X0128735Y0059358D01*
X0128667Y0059192D01*
X0128598Y0059358D01*
X0127824Y0060131D01*
X0126814Y0060550D01*
X0125720Y0060550D01*
X0124709Y0060131D01*
X0124678Y0060100D01*
X0108162Y0060100D01*
X0106962Y0058900D01*
X0048971Y0058900D01*
X0048767Y0059104D01*
X0047771Y0060100D01*
X0037856Y0060100D01*
X0037459Y0060497D01*
X0037767Y0060805D01*
X0037767Y0062800D01*
X0032667Y0062800D01*
X0032667Y0063200D01*
X0037767Y0063200D01*
X0037767Y0065195D01*
X0037262Y0065700D01*
X0040678Y0065700D01*
X0041309Y0065069D01*
X0042320Y0064650D01*
X0043414Y0064650D01*
X0044424Y0065069D01*
X0045198Y0065842D01*
X0045617Y0066853D01*
X0045617Y0067947D01*
X0045553Y0068100D01*
X0053862Y0068100D01*
X0060667Y0061296D01*
X0061662Y0060300D01*
X0067678Y0060300D01*
X0068309Y0059669D01*
X0069320Y0059250D01*
X0070414Y0059250D01*
X0071424Y0059669D01*
X0072056Y0060300D01*
X0075371Y0060300D01*
X0076367Y0061296D01*
X0080171Y0065100D01*
X0093963Y0065100D01*
X0093612Y0064750D01*
X0092720Y0064750D01*
X0091709Y0064331D01*
X0090935Y0063558D01*
X0090517Y0062547D01*
X0090517Y0061453D01*
X0090935Y0060442D01*
X0091709Y0059669D01*
X0092720Y0059250D01*
X0093814Y0059250D01*
X0094824Y0059669D01*
X0095598Y0060442D01*
X0096017Y0061453D01*
X0096017Y0062346D01*
X0097571Y0063900D01*
X0101380Y0063900D01*
X0101317Y0063747D01*
X0101317Y0062653D01*
X0101735Y0061642D01*
X0102509Y0060869D01*
X0103520Y0060450D01*
X0104614Y0060450D01*
X0105624Y0060869D01*
X0106256Y0061500D01*
X0157117Y0061500D01*
X0157117Y0061453D01*
X0157535Y0060442D01*
X0158309Y0059669D01*
X0159320Y0059250D01*
X0160414Y0059250D01*
X0161424Y0059669D01*
X0162198Y0060442D01*
X0162617Y0061453D01*
X0162617Y0061776D01*
X0162920Y0061650D01*
X0164014Y0061650D01*
X0165024Y0062069D01*
X0165798Y0062842D01*
X0166217Y0063853D01*
X0166217Y0064947D01*
X0166153Y0065100D01*
X0181362Y0065100D01*
X0204134Y0042329D01*
X0204335Y0041842D01*
X0205109Y0041069D01*
X0206120Y0040650D01*
X0207214Y0040650D01*
X0208224Y0041069D01*
X0208998Y0041842D01*
X0209417Y0042853D01*
X0209417Y0043947D01*
X0208998Y0044958D01*
X0208224Y0045731D01*
X0207214Y0046150D01*
X0206120Y0046150D01*
X0205413Y0045857D01*
X0183767Y0067504D01*
X0182771Y0068500D01*
X0146953Y0068500D01*
X0147017Y0068653D01*
X0147017Y0069747D01*
X0146953Y0069900D01*
X0156971Y0069900D01*
X0157967Y0070896D01*
X0160721Y0073650D01*
X0161614Y0073650D01*
X0162624Y0074069D01*
X0163398Y0074842D01*
X0163817Y0075853D01*
X0163817Y0076947D01*
X0163398Y0077958D01*
X0163056Y0078300D01*
X0176562Y0078300D01*
X0201517Y0053346D01*
X0201517Y0052453D01*
X0201935Y0051442D01*
X0202709Y0050669D01*
X0203720Y0050250D01*
X0204814Y0050250D01*
X0205824Y0050669D01*
X0206598Y0051442D01*
X0207017Y0052453D01*
X0207017Y0053547D01*
X0206598Y0054558D01*
X0205824Y0055331D01*
X0204814Y0055750D01*
X0203921Y0055750D01*
X0178967Y0080704D01*
X0177971Y0081700D01*
X0174305Y0081700D01*
X0174617Y0082453D01*
X0174617Y0083547D01*
X0174198Y0084558D01*
X0173424Y0085331D01*
X0172414Y0085750D01*
X0171521Y0085750D01*
X0171171Y0086100D01*
X0199567Y0086100D01*
X0199567Y0075304D01*
X0195612Y0071350D01*
X0194720Y0071350D01*
X0193709Y0070931D01*
X0192935Y0070158D01*
X0192517Y0069147D01*
X0192517Y0068053D01*
X0192935Y0067042D01*
X0193709Y0066269D01*
X0194720Y0065850D01*
X0195814Y0065850D01*
X0196824Y0066269D01*
X0197598Y0067042D01*
X0198017Y0068053D01*
X0198017Y0068946D01*
X0201375Y0072305D01*
X0201375Y0063574D01*
X0201844Y0063106D01*
X0223373Y0063106D01*
X0223377Y0063110D01*
X0225167Y0063110D01*
X0225167Y0010300D01*
X0216696Y0010300D01*
X0217367Y0010970D01*
X0217367Y0015030D01*
X0214496Y0017900D01*
X0210437Y0017900D01*
X0210204Y0017667D01*
X0207371Y0020500D01*
X0186971Y0020500D01*
X0184217Y0023254D01*
X0184217Y0024147D01*
X0184153Y0024300D01*
X0188980Y0024300D01*
X0188917Y0024147D01*
X0188917Y0023053D01*
X0189335Y0022042D01*
X0190109Y0021269D01*
X0191120Y0020850D01*
X0192214Y0020850D01*
X0193224Y0021269D01*
X0193998Y0022042D01*
X0194067Y0022208D01*
X0194135Y0022042D01*
X0194909Y0021269D01*
X0195920Y0020850D01*
X0197014Y0020850D01*
X0198024Y0021269D01*
X0198656Y0021900D01*
X0209278Y0021900D01*
X0209909Y0021269D01*
X0210920Y0020850D01*
X0212014Y0020850D01*
X0213024Y0021269D01*
X0213798Y0022042D01*
X0214217Y0023053D01*
X0214217Y0024147D01*
X0213798Y0025158D01*
X0213024Y0025931D01*
X0212014Y0026350D01*
X0210920Y0026350D01*
X0209909Y0025931D01*
X0209278Y0025300D01*
X0201771Y0025300D01*
X0206921Y0030450D01*
X0207814Y0030450D01*
X0208824Y0030869D01*
X0209598Y0031642D01*
X0210017Y0032653D01*
X0210017Y0033747D01*
X0209598Y0034758D01*
X0208824Y0035531D01*
X0207814Y0035950D01*
X0206720Y0035950D01*
X0205709Y0035531D01*
X0204935Y0034758D01*
X0204517Y0033747D01*
X0204517Y0032854D01*
X0199362Y0027700D01*
X0193971Y0027700D01*
X0196721Y0030450D01*
X0197614Y0030450D01*
X0198624Y0030869D01*
X0199398Y0031642D01*
X0199817Y0032653D01*
X0199817Y0033747D01*
X0199398Y0034758D01*
X0198624Y0035531D01*
X0197614Y0035950D01*
X0196520Y0035950D01*
X0195509Y0035531D01*
X0194735Y0034758D01*
X0194317Y0033747D01*
X0194317Y0032854D01*
X0189162Y0027700D01*
X0176562Y0027700D01*
X0173722Y0024859D01*
X0173598Y0025158D01*
X0172824Y0025931D01*
X0171814Y0026350D01*
X0170720Y0026350D01*
X0169709Y0025931D01*
X0168935Y0025158D01*
X0168517Y0024147D01*
X0168517Y0023254D01*
X0168163Y0022900D01*
X0158171Y0022900D01*
X0154371Y0026700D01*
X0167771Y0026700D01*
X0168767Y0027696D01*
X0168767Y0031011D01*
X0169398Y0031642D01*
X0169817Y0032653D01*
X0169817Y0033747D01*
X0169398Y0034758D01*
X0168624Y0035531D01*
X0167614Y0035950D01*
X0166520Y0035950D01*
X0166367Y0035887D01*
X0166367Y0036304D01*
X0165835Y0036836D01*
X0165835Y0040399D01*
X0165510Y0040723D01*
X0165540Y0040741D01*
X0165876Y0041076D01*
X0166112Y0041486D01*
X0166235Y0041944D01*
X0166235Y0044162D01*
X0162651Y0044162D01*
X0166235Y0044766D02*
X0179155Y0044766D01*
X0179155Y0045205D02*
X0179155Y0043184D01*
X0182936Y0043184D01*
X0182936Y0042816D01*
X0179155Y0042816D01*
X0179155Y0040795D01*
X0179278Y0040337D01*
X0179514Y0039926D01*
X0179850Y0039591D01*
X0180260Y0039354D01*
X0180718Y0039231D01*
X0182936Y0039231D01*
X0182936Y0042816D01*
X0183304Y0042816D01*
X0183304Y0039231D01*
X0185523Y0039231D01*
X0185980Y0039354D01*
X0186391Y0039591D01*
X0186726Y0039926D01*
X0186743Y0039956D01*
X0187068Y0039631D01*
X0192558Y0039631D01*
X0193252Y0040325D01*
X0193709Y0039869D01*
X0194720Y0039450D01*
X0195814Y0039450D01*
X0196824Y0039869D01*
X0197598Y0040642D01*
X0198017Y0041653D01*
X0198017Y0042747D01*
X0197598Y0043758D01*
X0196824Y0044531D01*
X0195814Y0044950D01*
X0194720Y0044950D01*
X0193709Y0044531D01*
X0193378Y0044201D01*
X0193378Y0045548D01*
X0192558Y0046368D01*
X0187068Y0046368D01*
X0186743Y0046044D01*
X0186726Y0046074D01*
X0186391Y0046409D01*
X0185980Y0046646D01*
X0185523Y0046768D01*
X0183304Y0046768D01*
X0183304Y0043184D01*
X0182936Y0043184D01*
X0182936Y0046768D01*
X0180718Y0046768D01*
X0180260Y0046646D01*
X0179850Y0046409D01*
X0179514Y0046074D01*
X0179278Y0045663D01*
X0179155Y0045205D01*
X0179805Y0046364D02*
X0166235Y0046364D01*
X0170835Y0047963D02*
X0198500Y0047963D01*
X0200098Y0046364D02*
X0192563Y0046364D01*
X0193378Y0044766D02*
X0194275Y0044766D01*
X0196258Y0044766D02*
X0201697Y0044766D01*
X0203295Y0043167D02*
X0197843Y0043167D01*
X0197982Y0041569D02*
X0204609Y0041569D01*
X0208724Y0041569D02*
X0225167Y0041569D01*
X0225167Y0043167D02*
X0209417Y0043167D01*
X0209078Y0044766D02*
X0225167Y0044766D01*
X0225167Y0046364D02*
X0204907Y0046364D01*
X0203308Y0047963D02*
X0225167Y0047963D01*
X0225167Y0049561D02*
X0201710Y0049561D01*
X0202218Y0051160D02*
X0200111Y0051160D01*
X0201517Y0052758D02*
X0198512Y0052758D01*
X0195303Y0051160D02*
X0170835Y0051160D01*
X0170835Y0052758D02*
X0193704Y0052758D01*
X0192106Y0054357D02*
X0171038Y0054357D01*
X0171235Y0055955D02*
X0190507Y0055955D01*
X0188909Y0057554D02*
X0171235Y0057554D01*
X0171235Y0057531D02*
X0171235Y0059749D01*
X0171112Y0060207D01*
X0170876Y0060617D01*
X0170540Y0060952D01*
X0170130Y0061189D01*
X0169672Y0061312D01*
X0167651Y0061312D01*
X0167651Y0057531D01*
X0171235Y0057531D01*
X0167651Y0057554D02*
X0167282Y0057554D01*
X0167282Y0059152D02*
X0167651Y0059152D01*
X0167651Y0060751D02*
X0167282Y0060751D01*
X0164192Y0060751D02*
X0162326Y0060751D01*
X0163698Y0059152D02*
X0141235Y0059152D01*
X0140742Y0060751D02*
X0157407Y0060751D01*
X0155004Y0057554D02*
X0149930Y0057554D01*
X0149930Y0055955D02*
X0155004Y0055955D01*
X0165305Y0062349D02*
X0184113Y0062349D01*
X0182515Y0063948D02*
X0166217Y0063948D01*
X0170742Y0060751D02*
X0185712Y0060751D01*
X0187310Y0059152D02*
X0171235Y0059152D01*
X0185724Y0065546D02*
X0189316Y0065546D01*
X0190915Y0063948D02*
X0187323Y0063948D01*
X0188921Y0062349D02*
X0192513Y0062349D01*
X0194112Y0060751D02*
X0190520Y0060751D01*
X0192118Y0059152D02*
X0195710Y0059152D01*
X0198920Y0060751D02*
X0225167Y0060751D01*
X0225167Y0059152D02*
X0200518Y0059152D01*
X0202117Y0057554D02*
X0225167Y0057554D01*
X0225167Y0055955D02*
X0203715Y0055955D01*
X0200506Y0054357D02*
X0196914Y0054357D01*
X0195315Y0055955D02*
X0198907Y0055955D01*
X0197309Y0057554D02*
X0193717Y0057554D01*
X0197321Y0062349D02*
X0225167Y0062349D01*
X0225167Y0054357D02*
X0206681Y0054357D01*
X0207017Y0052758D02*
X0225167Y0052758D01*
X0225167Y0051160D02*
X0206316Y0051160D01*
X0196901Y0049561D02*
X0170835Y0049561D01*
X0166235Y0043167D02*
X0182936Y0043167D01*
X0182936Y0041569D02*
X0183304Y0041569D01*
X0179155Y0041569D02*
X0166135Y0041569D01*
X0165835Y0039970D02*
X0179489Y0039970D01*
X0182936Y0039970D02*
X0183304Y0039970D01*
X0183304Y0044766D02*
X0182936Y0044766D01*
X0182936Y0046364D02*
X0183304Y0046364D01*
X0186435Y0046364D02*
X0187064Y0046364D01*
X0192897Y0039970D02*
X0193607Y0039970D01*
X0196926Y0039970D02*
X0225167Y0039970D01*
X0225167Y0038372D02*
X0165835Y0038372D01*
X0165898Y0036773D02*
X0225167Y0036773D01*
X0225167Y0035175D02*
X0209181Y0035175D01*
X0210017Y0033576D02*
X0225167Y0033576D01*
X0225167Y0031978D02*
X0209737Y0031978D01*
X0206850Y0030379D02*
X0225167Y0030379D01*
X0225167Y0028781D02*
X0205251Y0028781D01*
X0203653Y0027182D02*
X0225167Y0027182D01*
X0225167Y0025584D02*
X0213372Y0025584D01*
X0209561Y0025584D02*
X0202054Y0025584D01*
X0200443Y0028781D02*
X0195051Y0028781D01*
X0196650Y0030379D02*
X0202042Y0030379D01*
X0203640Y0031978D02*
X0199537Y0031978D01*
X0199817Y0033576D02*
X0204517Y0033576D01*
X0205352Y0035175D02*
X0198981Y0035175D01*
X0195152Y0035175D02*
X0168981Y0035175D01*
X0169817Y0033576D02*
X0194317Y0033576D01*
X0193440Y0031978D02*
X0169537Y0031978D01*
X0168767Y0030379D02*
X0191842Y0030379D01*
X0190243Y0028781D02*
X0168767Y0028781D01*
X0168253Y0027182D02*
X0176045Y0027182D01*
X0174446Y0025584D02*
X0173172Y0025584D01*
X0169361Y0025584D02*
X0155487Y0025584D01*
X0157086Y0023985D02*
X0168517Y0023985D01*
X0184217Y0023985D02*
X0188917Y0023985D01*
X0189193Y0022387D02*
X0185084Y0022387D01*
X0186683Y0020788D02*
X0225167Y0020788D01*
X0225167Y0022387D02*
X0213941Y0022387D01*
X0214217Y0023985D02*
X0225167Y0023985D01*
X0225167Y0019190D02*
X0208681Y0019190D01*
X0214805Y0017591D02*
X0225167Y0017591D01*
X0225167Y0015993D02*
X0216404Y0015993D01*
X0217367Y0014394D02*
X0225167Y0014394D01*
X0225167Y0012796D02*
X0217367Y0012796D01*
X0217367Y0011197D02*
X0225167Y0011197D01*
X0137651Y0057554D02*
X0137282Y0057554D01*
X0137282Y0059152D02*
X0137651Y0059152D01*
X0137651Y0060751D02*
X0137282Y0060751D01*
X0134192Y0060751D02*
X0105340Y0060751D01*
X0107215Y0059152D02*
X0048718Y0059152D01*
X0058015Y0063948D02*
X0037767Y0063948D01*
X0037767Y0062349D02*
X0059613Y0062349D01*
X0061212Y0060751D02*
X0037713Y0060751D01*
X0032667Y0060751D02*
X0032267Y0060751D01*
X0032267Y0059152D02*
X0032667Y0059152D01*
X0032667Y0057900D02*
X0032267Y0057900D01*
X0032267Y0062800D01*
X0032667Y0062800D01*
X0032667Y0057900D01*
X0030254Y0057717D02*
X0027567Y0055030D01*
X0027567Y0050970D01*
X0030437Y0048100D01*
X0034496Y0048100D01*
X0037367Y0050970D01*
X0037367Y0051300D01*
X0044163Y0051300D01*
X0037962Y0045100D01*
X0037296Y0045100D01*
X0034496Y0047900D01*
X0030437Y0047900D01*
X0027646Y0045109D01*
X0027024Y0045731D01*
X0026014Y0046150D01*
X0024920Y0046150D01*
X0023909Y0045731D01*
X0023135Y0044958D01*
X0022717Y0043947D01*
X0022717Y0042853D01*
X0023135Y0041842D01*
X0023909Y0041069D01*
X0024920Y0040650D01*
X0025812Y0040650D01*
X0028567Y0037896D01*
X0029562Y0036900D01*
X0039363Y0036900D01*
X0030162Y0027700D01*
X0018162Y0027700D01*
X0012162Y0021700D01*
X0011167Y0020704D01*
X0011167Y0017900D01*
X0010437Y0017900D01*
X0009767Y0017230D01*
X0009767Y0028770D01*
X0010437Y0028100D01*
X0014496Y0028100D01*
X0017367Y0030970D01*
X0017367Y0035030D01*
X0014496Y0037900D01*
X0010437Y0037900D01*
X0009767Y0037230D01*
X0009767Y0038770D01*
X0010437Y0038100D01*
X0014496Y0038100D01*
X0017367Y0040970D01*
X0017367Y0045030D01*
X0014679Y0047717D01*
X0017767Y0050805D01*
X0017767Y0052800D01*
X0012667Y0052800D01*
X0012667Y0053200D01*
X0017767Y0053200D01*
X0017767Y0055195D01*
X0014679Y0058283D01*
X0017367Y0060970D01*
X0017367Y0061500D01*
X0027071Y0061500D01*
X0027167Y0061596D01*
X0027167Y0060805D01*
X0030254Y0057717D01*
X0030091Y0057554D02*
X0015408Y0057554D01*
X0017007Y0055955D02*
X0028492Y0055955D01*
X0027567Y0054357D02*
X0017767Y0054357D01*
X0017767Y0052758D02*
X0027567Y0052758D01*
X0027567Y0051160D02*
X0017767Y0051160D01*
X0016523Y0049561D02*
X0028976Y0049561D01*
X0028901Y0046364D02*
X0016032Y0046364D01*
X0014925Y0047963D02*
X0040825Y0047963D01*
X0039227Y0046364D02*
X0036032Y0046364D01*
X0035958Y0049561D02*
X0042424Y0049561D01*
X0044022Y0051160D02*
X0037367Y0051160D01*
X0023056Y0044766D02*
X0017367Y0044766D01*
X0017367Y0043167D02*
X0022717Y0043167D01*
X0023409Y0041569D02*
X0017367Y0041569D01*
X0016367Y0039970D02*
X0026492Y0039970D01*
X0028091Y0038372D02*
X0014768Y0038372D01*
X0015623Y0036773D02*
X0039236Y0036773D01*
X0037637Y0035175D02*
X0017222Y0035175D01*
X0017367Y0033576D02*
X0036039Y0033576D01*
X0034440Y0031978D02*
X0017367Y0031978D01*
X0016775Y0030379D02*
X0032842Y0030379D01*
X0031243Y0028781D02*
X0015177Y0028781D01*
X0017645Y0027182D02*
X0009767Y0027182D01*
X0009767Y0025584D02*
X0016046Y0025584D01*
X0014448Y0023985D02*
X0009767Y0023985D01*
X0009767Y0022387D02*
X0012849Y0022387D01*
X0011251Y0020788D02*
X0009767Y0020788D01*
X0009767Y0019190D02*
X0011167Y0019190D01*
X0010128Y0017591D02*
X0009767Y0017591D01*
X0009767Y0038372D02*
X0010165Y0038372D01*
X0015549Y0059152D02*
X0028819Y0059152D01*
X0027220Y0060751D02*
X0017147Y0060751D01*
X0032267Y0062349D02*
X0032667Y0062349D01*
X0037416Y0065546D02*
X0040831Y0065546D01*
X0044902Y0065546D02*
X0056416Y0065546D01*
X0054818Y0067145D02*
X0045617Y0067145D01*
X0027567Y0074004D02*
X0027567Y0075030D01*
X0028019Y0075482D01*
X0027809Y0075569D01*
X0027035Y0076342D01*
X0026617Y0077353D01*
X0026617Y0078447D01*
X0027035Y0079458D01*
X0027809Y0080231D01*
X0028160Y0080377D01*
X0027567Y0080970D01*
X0027567Y0085030D01*
X0030437Y0087900D01*
X0034496Y0087900D01*
X0037367Y0085030D01*
X0037367Y0084700D01*
X0105478Y0084700D01*
X0106109Y0085331D01*
X0107120Y0085750D01*
X0108214Y0085750D01*
X0109224Y0085331D01*
X0109998Y0084558D01*
X0110417Y0083547D01*
X0110417Y0082453D01*
X0110105Y0081700D01*
X0113171Y0081700D01*
X0115571Y0079300D01*
X0126229Y0079300D01*
X0125917Y0080053D01*
X0125917Y0080946D01*
X0123762Y0083100D01*
X0120656Y0083100D01*
X0120024Y0082469D01*
X0119014Y0082050D01*
X0117920Y0082050D01*
X0116909Y0082469D01*
X0116135Y0083242D01*
X0115717Y0084253D01*
X0115717Y0085347D01*
X0116135Y0086358D01*
X0116478Y0086700D01*
X0109362Y0086700D01*
X0108762Y0087300D01*
X0106256Y0087300D01*
X0105624Y0086669D01*
X0104614Y0086250D01*
X0103520Y0086250D01*
X0102509Y0086669D01*
X0101735Y0087442D01*
X0101317Y0088453D01*
X0101317Y0089547D01*
X0101380Y0089700D01*
X0089456Y0089700D01*
X0088824Y0089069D01*
X0087814Y0088650D01*
X0086720Y0088650D01*
X0085709Y0089069D01*
X0084935Y0089842D01*
X0084517Y0090853D01*
X0084517Y0091947D01*
X0084935Y0092958D01*
X0085709Y0093731D01*
X0086720Y0094150D01*
X0087814Y0094150D01*
X0088824Y0093731D01*
X0089456Y0093100D01*
X0109571Y0093100D01*
X0110317Y0092354D01*
X0110317Y0092547D01*
X0110735Y0093558D01*
X0111509Y0094331D01*
X0112520Y0094750D01*
X0113313Y0094750D01*
X0111162Y0096900D01*
X0076362Y0096900D01*
X0074829Y0098433D01*
X0074496Y0098100D01*
X0070437Y0098100D01*
X0067567Y0100970D01*
X0067567Y0105030D01*
X0068237Y0105700D01*
X0066696Y0105700D01*
X0067367Y0105030D01*
X0067367Y0100970D01*
X0064496Y0098100D01*
X0060437Y0098100D01*
X0057567Y0100970D01*
X0057567Y0105030D01*
X0058237Y0105700D01*
X0056696Y0105700D01*
X0057367Y0105030D01*
X0057367Y0100970D01*
X0054496Y0098100D01*
X0050437Y0098100D01*
X0049661Y0098876D01*
X0049398Y0098242D01*
X0048624Y0097469D01*
X0047614Y0097050D01*
X0047004Y0097050D01*
X0046054Y0096100D01*
X0016880Y0096100D01*
X0014688Y0098292D01*
X0014496Y0098100D01*
X0010437Y0098100D01*
X0009767Y0098770D01*
X0009767Y0087230D01*
X0010437Y0087900D01*
X0014496Y0087900D01*
X0017367Y0085030D01*
X0017367Y0084204D01*
X0027567Y0074004D01*
X0027675Y0075137D02*
X0026433Y0075137D01*
X0026872Y0076736D02*
X0024835Y0076736D01*
X0023236Y0078334D02*
X0026617Y0078334D01*
X0027511Y0079933D02*
X0021638Y0079933D01*
X0020039Y0081532D02*
X0027567Y0081532D01*
X0027567Y0083130D02*
X0018441Y0083130D01*
X0017367Y0084729D02*
X0027567Y0084729D01*
X0028864Y0086327D02*
X0016069Y0086327D01*
X0009767Y0087926D02*
X0101535Y0087926D01*
X0101317Y0089524D02*
X0089280Y0089524D01*
X0085253Y0089524D02*
X0009767Y0089524D01*
X0009767Y0091123D02*
X0084517Y0091123D01*
X0084837Y0092721D02*
X0009767Y0092721D01*
X0009767Y0094320D02*
X0111497Y0094320D01*
X0110389Y0092721D02*
X0109950Y0092721D01*
X0112144Y0095918D02*
X0009767Y0095918D01*
X0009767Y0097517D02*
X0015463Y0097517D01*
X0036069Y0086327D02*
X0103334Y0086327D01*
X0104800Y0086327D02*
X0116123Y0086327D01*
X0115717Y0084729D02*
X0109827Y0084729D01*
X0110417Y0083130D02*
X0116248Y0083130D01*
X0113339Y0081532D02*
X0125331Y0081532D01*
X0125966Y0079933D02*
X0114938Y0079933D01*
X0105506Y0084729D02*
X0037367Y0084729D01*
X0048672Y0097517D02*
X0075746Y0097517D01*
X0069422Y0099115D02*
X0065511Y0099115D01*
X0067110Y0100714D02*
X0067823Y0100714D01*
X0067567Y0102312D02*
X0067367Y0102312D01*
X0067367Y0103911D02*
X0067567Y0103911D01*
X0068046Y0105509D02*
X0066887Y0105509D01*
X0058046Y0105509D02*
X0056887Y0105509D01*
X0057367Y0103911D02*
X0057567Y0103911D01*
X0057567Y0102312D02*
X0057367Y0102312D01*
X0057110Y0100714D02*
X0057823Y0100714D01*
X0059422Y0099115D02*
X0055511Y0099115D01*
X0079019Y0063948D02*
X0091325Y0063948D01*
X0090517Y0062349D02*
X0077420Y0062349D01*
X0075822Y0060751D02*
X0090807Y0060751D01*
X0095726Y0060751D02*
X0102793Y0060751D01*
X0101442Y0062349D02*
X0096020Y0062349D01*
X0133483Y0059152D02*
X0133698Y0059152D01*
X0147017Y0068743D02*
X0186119Y0068743D01*
X0187718Y0067145D02*
X0184126Y0067145D01*
X0184521Y0070342D02*
X0157413Y0070342D01*
X0159011Y0071940D02*
X0182922Y0071940D01*
X0181324Y0073539D02*
X0160610Y0073539D01*
X0163520Y0075137D02*
X0179725Y0075137D01*
X0178127Y0076736D02*
X0163817Y0076736D01*
X0174617Y0083130D02*
X0199567Y0083130D01*
X0199567Y0084729D02*
X0174027Y0084729D01*
X0178139Y0081532D02*
X0199567Y0081532D01*
X0199567Y0079933D02*
X0179738Y0079933D01*
X0181336Y0078334D02*
X0199567Y0078334D01*
X0199567Y0076736D02*
X0182935Y0076736D01*
X0184533Y0075137D02*
X0199400Y0075137D01*
X0197801Y0073539D02*
X0186132Y0073539D01*
X0187730Y0071940D02*
X0196203Y0071940D01*
X0193120Y0070342D02*
X0189329Y0070342D01*
X0190927Y0068743D02*
X0192517Y0068743D01*
X0192526Y0067145D02*
X0192893Y0067145D01*
X0194124Y0065546D02*
X0201375Y0065546D01*
X0201375Y0063948D02*
X0195723Y0063948D01*
X0197641Y0067145D02*
X0201375Y0067145D01*
X0201375Y0068743D02*
X0198017Y0068743D01*
X0199413Y0070342D02*
X0201375Y0070342D01*
X0201375Y0071940D02*
X0201011Y0071940D01*
X0201382Y0089500D02*
X0176571Y0089500D01*
X0176921Y0089850D01*
X0177814Y0089850D01*
X0178824Y0090269D01*
X0179598Y0091042D01*
X0179667Y0091208D01*
X0179735Y0091042D01*
X0180509Y0090269D01*
X0181520Y0089850D01*
X0182614Y0089850D01*
X0183624Y0090269D01*
X0184398Y0091042D01*
X0184467Y0091208D01*
X0184535Y0091042D01*
X0185309Y0090269D01*
X0186320Y0089850D01*
X0187414Y0089850D01*
X0188424Y0090269D01*
X0189198Y0091042D01*
X0189617Y0092053D01*
X0189617Y0093147D01*
X0189198Y0094158D01*
X0188424Y0094931D01*
X0187414Y0095350D01*
X0186521Y0095350D01*
X0184171Y0097700D01*
X0184662Y0097700D01*
X0187767Y0100805D01*
X0187767Y0102800D01*
X0182667Y0102800D01*
X0182667Y0103200D01*
X0187767Y0103200D01*
X0187767Y0105195D01*
X0187262Y0105700D01*
X0201382Y0105700D01*
X0201382Y0089500D01*
X0201382Y0089524D02*
X0176595Y0089524D01*
X0179631Y0091123D02*
X0179702Y0091123D01*
X0184431Y0091123D02*
X0184502Y0091123D01*
X0189231Y0091123D02*
X0201382Y0091123D01*
X0201382Y0092721D02*
X0189617Y0092721D01*
X0189036Y0094320D02*
X0201382Y0094320D01*
X0201382Y0095918D02*
X0185953Y0095918D01*
X0184354Y0097517D02*
X0201382Y0097517D01*
X0201382Y0099115D02*
X0186077Y0099115D01*
X0187676Y0100714D02*
X0201382Y0100714D01*
X0201382Y0102312D02*
X0187767Y0102312D01*
X0187767Y0103911D02*
X0201382Y0103911D01*
X0201382Y0105509D02*
X0187453Y0105509D01*
D17*
X0167067Y0092600D02*
X0161067Y0092600D01*
X0157467Y0076400D02*
X0154467Y0073400D01*
X0098067Y0073400D01*
X0115467Y0080600D02*
X0121467Y0080600D01*
X0123267Y0082400D01*
X0134067Y0060800D02*
X0110667Y0060800D01*
X0108867Y0060800D01*
X0107067Y0059000D01*
X0069267Y0059000D01*
X0068067Y0060200D01*
X0045267Y0060200D01*
X0042867Y0062600D01*
X0032667Y0062600D01*
X0032467Y0063000D01*
X0027867Y0058400D01*
X0018267Y0058400D01*
X0012867Y0053000D01*
X0012467Y0053000D01*
X0032467Y0073000D02*
X0033267Y0072200D01*
X0054267Y0072200D01*
X0057867Y0068600D01*
X0060267Y0068600D01*
X0062067Y0070400D01*
X0078267Y0070400D01*
X0059667Y0071600D02*
X0054867Y0076400D01*
X0050067Y0076400D01*
X0045267Y0098000D02*
X0017667Y0098000D01*
X0012867Y0102800D01*
X0012467Y0103000D01*
X0045267Y0098000D02*
X0047067Y0099800D01*
X0134067Y0060800D02*
X0137067Y0057800D01*
X0137467Y0057346D01*
X0137667Y0057800D01*
X0138867Y0059000D01*
X0165867Y0059000D01*
X0167067Y0057800D01*
X0167467Y0057346D01*
X0167667Y0057200D01*
X0175167Y0049700D01*
X0175467Y0050000D01*
X0175167Y0049700D02*
X0180867Y0044000D01*
X0182067Y0044000D01*
X0182667Y0043400D01*
X0183120Y0043000D01*
X0183267Y0042800D01*
X0186867Y0039200D01*
X0209067Y0039200D01*
X0217467Y0039200D01*
X0217467Y0055400D01*
X0216867Y0056000D01*
X0204267Y0056000D01*
X0192867Y0067400D01*
X0192267Y0067400D01*
X0192267Y0074000D01*
X0198867Y0080600D01*
X0162267Y0044600D02*
X0161067Y0045800D01*
X0143667Y0045800D01*
X0142467Y0044600D01*
X0142467Y0044346D01*
X0142467Y0044000D01*
X0140067Y0044000D01*
X0138267Y0042200D01*
X0162267Y0044600D02*
X0162467Y0044346D01*
X0162867Y0044000D01*
X0180867Y0044000D01*
X0057267Y0040400D02*
X0051867Y0035000D01*
X0051467Y0034622D01*
X0051467Y0031378D02*
X0051867Y0030800D01*
X0051867Y0027200D01*
D18*
X0051867Y0027200D03*
X0061467Y0027200D03*
X0068067Y0023600D03*
X0075267Y0023600D03*
X0077667Y0016400D03*
X0098667Y0026000D03*
X0102267Y0027200D03*
X0108267Y0030800D03*
X0116067Y0033200D03*
X0113067Y0035000D03*
X0116967Y0029600D03*
X0120267Y0029600D03*
X0128667Y0033800D03*
X0132867Y0036800D03*
X0136167Y0036200D03*
X0138267Y0042200D03*
X0133467Y0043400D03*
X0135867Y0046400D03*
X0131067Y0049400D03*
X0125667Y0045800D03*
X0115467Y0045800D03*
X0110667Y0045800D03*
X0115467Y0056000D03*
X0110667Y0060800D03*
X0104067Y0063200D03*
X0093267Y0062000D03*
X0078267Y0070400D03*
X0076467Y0073400D03*
X0069867Y0077600D03*
X0064467Y0080600D03*
X0066867Y0073100D03*
X0059667Y0071600D03*
X0054267Y0072200D03*
X0050067Y0076400D03*
X0046467Y0076100D03*
X0042867Y0067400D03*
X0042867Y0062600D03*
X0035667Y0058400D03*
X0045867Y0056000D03*
X0025467Y0043400D03*
X0042267Y0033200D03*
X0056067Y0034400D03*
X0065667Y0037400D03*
X0070467Y0035000D03*
X0076467Y0032600D03*
X0073467Y0042800D03*
X0078867Y0045800D03*
X0074067Y0050000D03*
X0057267Y0040400D03*
X0025467Y0023600D03*
X0020067Y0023600D03*
X0017967Y0016400D03*
X0069867Y0062000D03*
X0094467Y0073400D03*
X0098067Y0073400D03*
X0091467Y0077600D03*
X0107667Y0083000D03*
X0115467Y0080600D03*
X0123267Y0082400D03*
X0118467Y0084800D03*
X0128667Y0080600D03*
X0136467Y0080000D03*
X0138867Y0077600D03*
X0144267Y0069200D03*
X0139467Y0066800D03*
X0125667Y0066800D03*
X0126267Y0057800D03*
X0131067Y0057800D03*
X0133467Y0055400D03*
X0150867Y0052400D03*
X0150867Y0048800D03*
X0172467Y0043000D03*
X0176467Y0041000D03*
X0176467Y0045000D03*
X0175467Y0050000D03*
X0181467Y0051000D03*
X0186467Y0051000D03*
X0190467Y0051000D03*
X0190467Y0055000D03*
X0186467Y0055000D03*
X0175467Y0055000D03*
X0159867Y0062000D03*
X0163467Y0064400D03*
X0166467Y0072000D03*
X0170467Y0072000D03*
X0174467Y0072000D03*
X0174467Y0076000D03*
X0170467Y0076000D03*
X0166467Y0076000D03*
X0161067Y0076400D03*
X0157467Y0076400D03*
X0153867Y0076400D03*
X0171867Y0083000D03*
X0167067Y0092600D03*
X0161067Y0092600D03*
X0147267Y0092600D03*
X0137667Y0099800D03*
X0113067Y0092000D03*
X0104067Y0089000D03*
X0087267Y0091400D03*
X0047067Y0099800D03*
X0029367Y0077900D03*
X0023667Y0072200D03*
X0116667Y0023600D03*
X0126867Y0016400D03*
X0131667Y0023600D03*
X0136467Y0023600D03*
X0147267Y0016400D03*
X0151467Y0023600D03*
X0162267Y0033200D03*
X0167067Y0033200D03*
X0157467Y0035000D03*
X0171267Y0023600D03*
X0181467Y0023600D03*
X0191667Y0023600D03*
X0196467Y0023600D03*
X0197067Y0016400D03*
X0211467Y0023600D03*
X0207267Y0033200D03*
X0197067Y0033200D03*
X0189467Y0035000D03*
X0185467Y0035000D03*
X0181467Y0035000D03*
X0195267Y0042200D03*
X0206667Y0043400D03*
X0209067Y0039200D03*
X0204267Y0053000D03*
X0204467Y0058000D03*
X0208467Y0058000D03*
X0212467Y0058000D03*
X0217467Y0055400D03*
X0216467Y0062000D03*
X0212467Y0062000D03*
X0208467Y0062000D03*
X0204467Y0062000D03*
X0199467Y0062000D03*
X0199467Y0066000D03*
X0195267Y0068600D03*
X0198867Y0080600D03*
X0186867Y0092600D03*
X0182067Y0092600D03*
X0177267Y0092600D03*
X0196467Y0104000D03*
X0200467Y0104000D03*
X0200467Y0100000D03*
X0200467Y0096000D03*
D19*
X0186867Y0092600D02*
X0182067Y0097400D01*
X0136467Y0097400D01*
X0132867Y0101000D01*
X0132867Y0102800D01*
X0132467Y0103000D01*
X0137667Y0099800D02*
X0138867Y0098600D01*
X0147867Y0098600D01*
X0152067Y0102800D01*
X0152467Y0103000D01*
X0144867Y0095000D02*
X0115467Y0095000D01*
X0111867Y0098600D01*
X0077067Y0098600D01*
X0072867Y0102800D01*
X0072467Y0103000D01*
X0087267Y0091400D02*
X0108867Y0091400D01*
X0110667Y0089600D01*
X0126867Y0089600D01*
X0128667Y0087800D01*
X0201267Y0087800D01*
X0201267Y0074600D01*
X0195267Y0068600D01*
X0182067Y0066800D02*
X0139467Y0066800D01*
X0143067Y0070400D02*
X0144267Y0069200D01*
X0143067Y0070400D02*
X0100467Y0070400D01*
X0099867Y0069800D01*
X0083667Y0069800D01*
X0075867Y0077600D01*
X0069867Y0077600D01*
X0068667Y0075500D02*
X0066267Y0075500D01*
X0061767Y0080000D01*
X0047067Y0080000D01*
X0044967Y0077900D01*
X0029367Y0077900D01*
X0023667Y0072200D02*
X0023067Y0072800D01*
X0012567Y0072800D01*
X0012467Y0073000D01*
X0016167Y0083000D02*
X0030567Y0068600D01*
X0040767Y0068600D01*
X0041967Y0069800D01*
X0054567Y0069800D01*
X0062367Y0062000D01*
X0069867Y0062000D01*
X0074667Y0062000D01*
X0079467Y0066800D01*
X0125667Y0066800D01*
X0125667Y0058400D02*
X0108867Y0058400D01*
X0107667Y0057200D01*
X0048267Y0057200D01*
X0047067Y0058400D01*
X0035667Y0058400D01*
X0030567Y0067400D02*
X0026367Y0063200D01*
X0012567Y0063200D01*
X0012467Y0063000D01*
X0030567Y0067400D02*
X0042867Y0067400D01*
X0046467Y0076100D02*
X0049167Y0078800D01*
X0061167Y0078800D01*
X0066867Y0073100D01*
X0068667Y0075500D02*
X0070767Y0073400D01*
X0076467Y0073400D01*
X0065067Y0080000D02*
X0112467Y0080000D01*
X0114867Y0077600D01*
X0138867Y0077600D01*
X0136467Y0080000D02*
X0177267Y0080000D01*
X0204267Y0053000D01*
X0205467Y0043400D02*
X0182067Y0066800D01*
X0163467Y0064400D02*
X0106467Y0064400D01*
X0105267Y0065600D01*
X0096867Y0065600D01*
X0093267Y0062000D01*
X0104067Y0063200D02*
X0158667Y0063200D01*
X0159867Y0062000D01*
X0159750Y0053000D02*
X0151467Y0053000D01*
X0150867Y0052400D01*
X0150867Y0048800D02*
X0146667Y0053000D01*
X0145183Y0053000D01*
X0139467Y0053000D01*
X0137667Y0051200D01*
X0137467Y0050654D01*
X0131067Y0049400D02*
X0114867Y0049400D01*
X0111867Y0052400D01*
X0055467Y0052400D01*
X0041667Y0038600D01*
X0030267Y0038600D01*
X0025467Y0043400D01*
X0032467Y0043000D02*
X0032667Y0043400D01*
X0038667Y0043400D01*
X0048867Y0053600D01*
X0112467Y0053600D01*
X0113667Y0052400D01*
X0130467Y0052400D01*
X0133467Y0055400D01*
X0131067Y0057800D02*
X0126867Y0053600D01*
X0114267Y0053600D01*
X0113067Y0054800D01*
X0048267Y0054800D01*
X0046467Y0053000D01*
X0032467Y0053000D01*
X0045867Y0056000D02*
X0115467Y0056000D01*
X0125667Y0058400D02*
X0126267Y0057800D01*
X0126867Y0048200D02*
X0102867Y0048200D01*
X0102467Y0048000D01*
X0107667Y0042800D02*
X0073467Y0042800D01*
X0075867Y0041600D02*
X0074067Y0039800D01*
X0061467Y0039800D01*
X0056067Y0034400D01*
X0051467Y0034000D02*
X0051467Y0032000D01*
X0050667Y0024800D02*
X0042267Y0033200D01*
X0030867Y0026000D02*
X0018867Y0026000D01*
X0012867Y0020000D01*
X0012867Y0013400D01*
X0012467Y0013000D01*
X0017967Y0016400D02*
X0019467Y0016400D01*
X0020667Y0017600D01*
X0067767Y0017600D01*
X0072267Y0013100D01*
X0072467Y0013000D01*
X0077667Y0016400D02*
X0078867Y0017600D01*
X0125667Y0017600D01*
X0126867Y0016400D01*
X0134067Y0021200D02*
X0146067Y0021200D01*
X0152067Y0015200D01*
X0152067Y0013400D01*
X0152467Y0013000D01*
X0147267Y0016400D02*
X0143667Y0020000D01*
X0023667Y0020000D01*
X0020067Y0023600D01*
X0025467Y0023600D02*
X0068067Y0023600D01*
X0069267Y0026000D02*
X0063867Y0026000D01*
X0062667Y0024800D01*
X0050667Y0024800D01*
X0061467Y0027200D02*
X0061467Y0031378D01*
X0061467Y0032000D02*
X0061467Y0034000D01*
X0061467Y0034400D02*
X0061467Y0034622D01*
X0061467Y0034400D02*
X0062067Y0033800D01*
X0065067Y0033800D01*
X0075267Y0023600D01*
X0074067Y0021200D02*
X0069267Y0026000D01*
X0074067Y0021200D02*
X0114267Y0021200D01*
X0116667Y0023600D01*
X0121467Y0027200D02*
X0102267Y0027200D01*
X0101067Y0028400D01*
X0080667Y0028400D01*
X0076467Y0032600D01*
X0082467Y0033000D02*
X0082467Y0033200D01*
X0088467Y0039200D01*
X0130467Y0039200D01*
X0132867Y0036800D01*
X0135567Y0036200D02*
X0130767Y0031400D01*
X0121767Y0031400D01*
X0121167Y0032000D01*
X0119367Y0032000D01*
X0116967Y0029600D01*
X0113667Y0030800D02*
X0108267Y0030800D01*
X0111267Y0033200D02*
X0102867Y0033200D01*
X0102467Y0033000D01*
X0096867Y0037400D02*
X0092467Y0033000D01*
X0096867Y0037400D02*
X0125067Y0037400D01*
X0128667Y0033800D01*
X0135567Y0036200D02*
X0136167Y0036200D01*
X0138867Y0038000D02*
X0142467Y0038000D01*
X0142467Y0037654D01*
X0142467Y0038000D02*
X0145467Y0041000D01*
X0147545Y0041000D01*
X0147867Y0041000D01*
X0156267Y0032600D01*
X0161667Y0032600D01*
X0162267Y0033200D01*
X0164667Y0035600D02*
X0164667Y0029600D01*
X0120267Y0029600D01*
X0121467Y0027200D02*
X0122667Y0028400D01*
X0167067Y0028400D01*
X0167067Y0033200D01*
X0164667Y0035600D02*
X0162867Y0037400D01*
X0162467Y0037654D01*
X0161667Y0038600D01*
X0161067Y0038600D01*
X0157467Y0035000D01*
X0161667Y0038600D02*
X0162267Y0038000D01*
X0162467Y0037654D01*
X0161667Y0038600D02*
X0159267Y0041000D01*
X0157388Y0041000D01*
X0167467Y0050654D02*
X0167067Y0051200D01*
X0165267Y0053000D01*
X0159750Y0053000D01*
X0135867Y0046400D02*
X0135267Y0047000D01*
X0128067Y0047000D01*
X0126867Y0048200D01*
X0125667Y0045800D02*
X0120267Y0040400D01*
X0076467Y0040400D01*
X0073467Y0037400D01*
X0065667Y0037400D01*
X0070467Y0035000D02*
X0079467Y0026000D01*
X0098667Y0026000D01*
X0099867Y0024800D01*
X0103467Y0024800D01*
X0104667Y0026000D01*
X0152667Y0026000D01*
X0157467Y0021200D01*
X0168867Y0021200D01*
X0171267Y0023600D01*
X0177267Y0026000D02*
X0164667Y0013400D01*
X0162867Y0013400D01*
X0162467Y0013000D01*
X0172467Y0013000D02*
X0172467Y0013400D01*
X0176667Y0017600D01*
X0195867Y0017600D01*
X0197067Y0016400D01*
X0206667Y0018800D02*
X0186267Y0018800D01*
X0181467Y0023600D01*
X0177267Y0026000D02*
X0189867Y0026000D01*
X0197067Y0033200D01*
X0200067Y0026000D02*
X0207267Y0033200D01*
X0200067Y0026000D02*
X0194067Y0026000D01*
X0191667Y0023600D01*
X0196467Y0023600D02*
X0211467Y0023600D01*
X0206667Y0018800D02*
X0212467Y0013000D01*
X0195267Y0042200D02*
X0190467Y0042200D01*
X0189867Y0042800D01*
X0189813Y0043000D01*
X0205467Y0043400D02*
X0206667Y0043400D01*
X0151467Y0023600D02*
X0136467Y0023600D01*
X0134067Y0021200D02*
X0131667Y0023600D01*
X0116067Y0033200D02*
X0113667Y0030800D01*
X0111267Y0033200D02*
X0113067Y0035000D01*
X0111267Y0041600D02*
X0075867Y0041600D01*
X0078867Y0045800D02*
X0050667Y0045800D01*
X0030867Y0026000D01*
X0074067Y0050000D02*
X0075867Y0048200D01*
X0092067Y0048200D01*
X0092467Y0048000D01*
X0107667Y0042800D02*
X0110667Y0045800D01*
X0111267Y0041600D02*
X0115467Y0045800D01*
X0133467Y0043400D02*
X0138867Y0038000D01*
X0142467Y0013400D02*
X0142467Y0013000D01*
X0099267Y0071000D02*
X0096867Y0071000D01*
X0094467Y0073400D01*
X0097467Y0077600D02*
X0099867Y0075200D01*
X0152667Y0075200D01*
X0153867Y0076400D01*
X0156267Y0071600D02*
X0161067Y0076400D01*
X0156267Y0071600D02*
X0099867Y0071600D01*
X0099267Y0071000D01*
X0097467Y0077600D02*
X0091467Y0077600D01*
X0107667Y0083000D02*
X0032467Y0083000D01*
X0016167Y0083000D02*
X0012467Y0083000D01*
X0064467Y0080600D02*
X0065067Y0080000D01*
X0104067Y0089000D02*
X0109467Y0089000D01*
X0110067Y0088400D01*
X0126267Y0088400D01*
X0128067Y0086600D01*
X0168267Y0086600D01*
X0171867Y0083000D01*
X0173667Y0089000D02*
X0129267Y0089000D01*
X0126267Y0092000D01*
X0113067Y0092000D01*
X0118467Y0084800D02*
X0124467Y0084800D01*
X0128667Y0080600D01*
X0144867Y0095000D02*
X0147267Y0092600D01*
X0129267Y0096200D02*
X0122467Y0103000D01*
X0129267Y0096200D02*
X0178467Y0096200D01*
X0182067Y0092600D01*
X0177267Y0092600D02*
X0173667Y0089000D01*
M02*
