G75*
%MOIN*%
%OFA0B0*%
%FSLAX25Y25*%
%IPPOS*%
%LPD*%
%AMOC8*
5,1,8,0,0,1.08239X$1,22.5*
%
%ADD10R,0.04724X0.04724*%
%ADD11R,0.03937X0.04331*%
%ADD12R,0.03543X0.03937*%
%ADD13R,0.06693X0.03150*%
%ADD14R,0.08800X0.04800*%
%ADD15R,0.08661X0.14173*%
%ADD16R,0.06299X0.05512*%
%ADD17R,0.05512X0.06299*%
%ADD18C,0.03543*%
%ADD19R,0.24016X0.10236*%
D10*
X0051467Y0043866D03*
X0061467Y0043866D03*
X0061467Y0052134D03*
X0051467Y0052134D03*
D11*
X0051467Y0031654D03*
X0061467Y0031654D03*
X0061467Y0038346D03*
X0051467Y0038346D03*
D12*
X0095396Y0078850D03*
X0095396Y0085150D03*
X0111538Y0085150D03*
X0111538Y0078850D03*
D13*
X0103467Y0077276D03*
D14*
X0060267Y0076000D03*
X0060267Y0066900D03*
X0060267Y0085100D03*
D15*
X0084667Y0076000D03*
D16*
X0048467Y0070488D03*
X0048467Y0081512D03*
D17*
X0097955Y0066000D03*
X0108978Y0066000D03*
D18*
X0118907Y0068000D02*
X0122057Y0068000D01*
X0118907Y0068000D02*
X0118907Y0068000D01*
X0122057Y0068000D01*
X0122057Y0068000D01*
X0122057Y0063000D02*
X0118907Y0063000D01*
X0118907Y0063000D01*
X0122057Y0063000D01*
X0122057Y0063000D01*
X0122057Y0058000D02*
X0118907Y0058000D01*
X0118907Y0058000D01*
X0122057Y0058000D01*
X0122057Y0058000D01*
X0122057Y0053000D02*
X0118907Y0053000D01*
X0118907Y0053000D01*
X0122057Y0053000D01*
X0122057Y0053000D01*
X0122057Y0048000D02*
X0118907Y0048000D01*
X0118907Y0048000D01*
X0122057Y0048000D01*
X0122057Y0048000D01*
X0122057Y0043000D02*
X0118907Y0043000D01*
X0118907Y0043000D01*
X0122057Y0043000D01*
X0122057Y0043000D01*
X0122057Y0038000D02*
X0118907Y0038000D01*
X0118907Y0038000D01*
X0122057Y0038000D01*
X0122057Y0038000D01*
X0124026Y0029851D02*
X0124026Y0026701D01*
X0124026Y0026701D01*
X0124026Y0029851D01*
X0124026Y0029851D01*
X0129026Y0029851D02*
X0129026Y0026701D01*
X0129026Y0026701D01*
X0129026Y0029851D01*
X0129026Y0029851D01*
X0134026Y0029851D02*
X0134026Y0026701D01*
X0134026Y0026701D01*
X0134026Y0029851D01*
X0134026Y0029851D01*
X0139026Y0029851D02*
X0139026Y0026701D01*
X0139026Y0026701D01*
X0139026Y0029851D01*
X0139026Y0029851D01*
X0144026Y0029851D02*
X0144026Y0026701D01*
X0144026Y0026701D01*
X0144026Y0029851D01*
X0144026Y0029851D01*
X0149026Y0029851D02*
X0149026Y0026701D01*
X0149026Y0026701D01*
X0149026Y0029851D01*
X0149026Y0029851D01*
X0154026Y0029851D02*
X0154026Y0026701D01*
X0154026Y0026701D01*
X0154026Y0029851D01*
X0154026Y0029851D01*
X0159026Y0029851D02*
X0159026Y0026701D01*
X0159026Y0026701D01*
X0159026Y0029851D01*
X0159026Y0029851D01*
X0164026Y0029851D02*
X0164026Y0026701D01*
X0164026Y0026701D01*
X0164026Y0029851D01*
X0164026Y0029851D01*
X0169026Y0029851D02*
X0169026Y0026701D01*
X0169026Y0026701D01*
X0169026Y0029851D01*
X0169026Y0029851D01*
X0174026Y0029851D02*
X0174026Y0026701D01*
X0174026Y0026701D01*
X0174026Y0029851D01*
X0174026Y0029851D01*
X0179026Y0029851D02*
X0179026Y0026701D01*
X0179026Y0026701D01*
X0179026Y0029851D01*
X0179026Y0029851D01*
X0184026Y0029851D02*
X0184026Y0026701D01*
X0184026Y0026701D01*
X0184026Y0029851D01*
X0184026Y0029851D01*
X0189026Y0029851D02*
X0189026Y0026701D01*
X0189026Y0026701D01*
X0189026Y0029851D01*
X0189026Y0029851D01*
X0194026Y0029851D02*
X0194026Y0026701D01*
X0194026Y0026701D01*
X0194026Y0029851D01*
X0194026Y0029851D01*
X0199026Y0029851D02*
X0199026Y0026701D01*
X0199026Y0026701D01*
X0199026Y0029851D01*
X0199026Y0029851D01*
X0204026Y0029851D02*
X0204026Y0026701D01*
X0204026Y0026701D01*
X0204026Y0029851D01*
X0204026Y0029851D01*
X0209026Y0029851D02*
X0209026Y0026701D01*
X0209026Y0026701D01*
X0209026Y0029851D01*
X0209026Y0029851D01*
X0214026Y0029851D02*
X0214026Y0026701D01*
X0214026Y0026701D01*
X0214026Y0029851D01*
X0214026Y0029851D01*
X0219026Y0029851D02*
X0219026Y0026701D01*
X0219026Y0026701D01*
X0219026Y0029851D01*
X0219026Y0029851D01*
X0220876Y0038000D02*
X0224026Y0038000D01*
X0224026Y0038000D01*
X0220876Y0038000D01*
X0220876Y0038000D01*
X0220876Y0043000D02*
X0224026Y0043000D01*
X0224026Y0043000D01*
X0220876Y0043000D01*
X0220876Y0043000D01*
X0220876Y0048000D02*
X0224026Y0048000D01*
X0224026Y0048000D01*
X0220876Y0048000D01*
X0220876Y0048000D01*
X0220876Y0053000D02*
X0224026Y0053000D01*
X0224026Y0053000D01*
X0220876Y0053000D01*
X0220876Y0053000D01*
X0220876Y0058000D02*
X0224026Y0058000D01*
X0224026Y0058000D01*
X0220876Y0058000D01*
X0220876Y0058000D01*
X0199026Y0072369D02*
X0199026Y0076701D01*
X0199026Y0076701D01*
X0199026Y0072369D01*
X0199026Y0072369D01*
X0199026Y0075911D02*
X0199026Y0075911D01*
X0194026Y0076701D02*
X0194026Y0072369D01*
X0194026Y0076701D02*
X0194026Y0076701D01*
X0194026Y0072369D01*
X0194026Y0072369D01*
X0194026Y0075911D02*
X0194026Y0075911D01*
X0189026Y0076701D02*
X0189026Y0072369D01*
X0189026Y0076701D02*
X0189026Y0076701D01*
X0189026Y0072369D01*
X0189026Y0072369D01*
X0189026Y0075911D02*
X0189026Y0075911D01*
X0184026Y0076701D02*
X0184026Y0072369D01*
X0184026Y0076701D02*
X0184026Y0076701D01*
X0184026Y0072369D01*
X0184026Y0072369D01*
X0184026Y0075911D02*
X0184026Y0075911D01*
X0184026Y0086149D02*
X0184026Y0089299D01*
X0184026Y0089299D01*
X0184026Y0086149D01*
X0184026Y0086149D01*
X0189026Y0086149D02*
X0189026Y0089299D01*
X0189026Y0089299D01*
X0189026Y0086149D01*
X0189026Y0086149D01*
X0194026Y0086149D02*
X0194026Y0089299D01*
X0194026Y0089299D01*
X0194026Y0086149D01*
X0194026Y0086149D01*
X0199026Y0086149D02*
X0199026Y0089299D01*
X0199026Y0089299D01*
X0199026Y0086149D01*
X0199026Y0086149D01*
X0179026Y0086149D02*
X0179026Y0089299D01*
X0179026Y0089299D01*
X0179026Y0086149D01*
X0179026Y0086149D01*
X0174026Y0086149D02*
X0174026Y0089299D01*
X0174026Y0089299D01*
X0174026Y0086149D01*
X0174026Y0086149D01*
X0169026Y0086149D02*
X0169026Y0089299D01*
X0169026Y0089299D01*
X0169026Y0086149D01*
X0169026Y0086149D01*
X0164026Y0086149D02*
X0164026Y0089299D01*
X0164026Y0089299D01*
X0164026Y0086149D01*
X0164026Y0086149D01*
X0159026Y0086149D02*
X0159026Y0089299D01*
X0159026Y0089299D01*
X0159026Y0086149D01*
X0159026Y0086149D01*
X0154026Y0086149D02*
X0154026Y0089299D01*
X0154026Y0089299D01*
X0154026Y0086149D01*
X0154026Y0086149D01*
X0149026Y0086149D02*
X0149026Y0089299D01*
X0149026Y0089299D01*
X0149026Y0086149D01*
X0149026Y0086149D01*
X0144026Y0086149D02*
X0144026Y0089299D01*
X0144026Y0089299D01*
X0144026Y0086149D01*
X0144026Y0086149D01*
X0139026Y0086149D02*
X0139026Y0089299D01*
X0139026Y0089299D01*
X0139026Y0086149D01*
X0139026Y0086149D01*
X0134026Y0086149D02*
X0134026Y0089299D01*
X0134026Y0089299D01*
X0134026Y0086149D01*
X0134026Y0086149D01*
X0129026Y0086149D02*
X0129026Y0089299D01*
X0129026Y0089299D01*
X0129026Y0086149D01*
X0129026Y0086149D01*
X0124026Y0086149D02*
X0124026Y0089299D01*
X0124026Y0089299D01*
X0124026Y0086149D01*
X0124026Y0086149D01*
X0122057Y0078000D02*
X0118907Y0078000D01*
X0118907Y0078000D01*
X0122057Y0078000D01*
X0122057Y0078000D01*
X0122057Y0073000D02*
X0118907Y0073000D01*
X0118907Y0073000D01*
X0122057Y0073000D01*
X0122057Y0073000D01*
D19*
X0181112Y0042646D03*
M02*
