G75*
%MOIN*%
%OFA0B0*%
%FSLAX25Y25*%
%IPPOS*%
%LPD*%
%AMOC8*
5,1,8,0,0,1.08239X$1,22.5*
%
%ADD10C,0.00000*%
%ADD11C,0.00400*%
%ADD12C,0.01600*%
%ADD13C,0.00500*%
%ADD14C,0.00800*%
%ADD15R,0.01969X0.01280*%
%ADD16R,0.00984X0.00591*%
%ADD17R,0.00689X0.01575*%
%ADD18R,0.00787X0.00787*%
%ADD19R,0.01181X0.01181*%
%ADD20R,0.00295X0.01280*%
%ADD21C,0.00600*%
%ADD22R,0.01600X0.03400*%
%ADD23C,0.00200*%
%ADD24C,0.00100*%
%ADD25C,0.00787*%
%ADD26R,0.02000X0.02000*%
D10*
X0002000Y0001800D02*
X0002000Y0091800D01*
X0172000Y0091800D01*
X0172000Y0001800D01*
X0002000Y0001800D01*
D11*
X0003200Y0013500D02*
X0004361Y0013500D01*
X0004748Y0013887D01*
X0004748Y0014274D01*
X0004361Y0014661D01*
X0003200Y0014661D01*
X0003200Y0013500D02*
X0003200Y0015822D01*
X0004361Y0015822D01*
X0004748Y0015435D01*
X0004748Y0015048D01*
X0004361Y0014661D01*
X0005705Y0015048D02*
X0006479Y0015822D01*
X0006479Y0013500D01*
X0005705Y0013500D02*
X0007253Y0013500D01*
X0008209Y0013500D02*
X0009757Y0013500D01*
X0008983Y0013500D02*
X0008983Y0015822D01*
X0008209Y0015048D01*
X0013218Y0014661D02*
X0014379Y0014661D01*
X0014766Y0014274D01*
X0014766Y0013887D01*
X0014379Y0013500D01*
X0013218Y0013500D01*
X0013218Y0015822D01*
X0014379Y0015822D01*
X0014766Y0015435D01*
X0014766Y0015048D01*
X0014379Y0014661D01*
X0015723Y0015048D02*
X0016497Y0015822D01*
X0016497Y0013500D01*
X0015723Y0013500D02*
X0017271Y0013500D01*
X0018227Y0013500D02*
X0019775Y0015048D01*
X0019775Y0015435D01*
X0019388Y0015822D01*
X0018614Y0015822D01*
X0018227Y0015435D01*
X0018227Y0013500D02*
X0019775Y0013500D01*
X0023236Y0013500D02*
X0023236Y0015822D01*
X0024397Y0015822D01*
X0024784Y0015435D01*
X0024784Y0015048D01*
X0024397Y0014661D01*
X0023236Y0014661D01*
X0023236Y0013500D02*
X0024397Y0013500D01*
X0024784Y0013887D01*
X0024784Y0014274D01*
X0024397Y0014661D01*
X0025741Y0015048D02*
X0026515Y0015822D01*
X0026515Y0013500D01*
X0025741Y0013500D02*
X0027289Y0013500D01*
X0028245Y0013887D02*
X0028632Y0013500D01*
X0029406Y0013500D01*
X0029793Y0013887D01*
X0029793Y0014274D01*
X0029406Y0014661D01*
X0029019Y0014661D01*
X0029406Y0014661D02*
X0029793Y0015048D01*
X0029793Y0015435D01*
X0029406Y0015822D01*
X0028632Y0015822D01*
X0028245Y0015435D01*
X0034700Y0015435D02*
X0034700Y0013887D01*
X0035087Y0013500D01*
X0035861Y0013500D01*
X0036248Y0013887D01*
X0037205Y0013887D02*
X0037205Y0014661D01*
X0038366Y0014661D01*
X0038753Y0014274D01*
X0038753Y0013887D01*
X0038366Y0013500D01*
X0037592Y0013500D01*
X0037205Y0013887D01*
X0037205Y0014661D02*
X0037979Y0015435D01*
X0038753Y0015822D01*
X0036248Y0015435D02*
X0035861Y0015822D01*
X0035087Y0015822D01*
X0034700Y0015435D01*
X0044718Y0015435D02*
X0044718Y0013887D01*
X0045105Y0013500D01*
X0045879Y0013500D01*
X0046266Y0013887D01*
X0047223Y0013887D02*
X0047223Y0013500D01*
X0047223Y0013887D02*
X0048771Y0015435D01*
X0048771Y0015822D01*
X0047223Y0015822D01*
X0046266Y0015435D02*
X0045879Y0015822D01*
X0045105Y0015822D01*
X0044718Y0015435D01*
X0054736Y0015435D02*
X0054736Y0013887D01*
X0055123Y0013500D01*
X0055897Y0013500D01*
X0056284Y0013887D01*
X0057241Y0013887D02*
X0057241Y0014274D01*
X0057628Y0014661D01*
X0058402Y0014661D01*
X0058789Y0014274D01*
X0058789Y0013887D01*
X0058402Y0013500D01*
X0057628Y0013500D01*
X0057241Y0013887D01*
X0057628Y0014661D02*
X0057241Y0015048D01*
X0057241Y0015435D01*
X0057628Y0015822D01*
X0058402Y0015822D01*
X0058789Y0015435D01*
X0058789Y0015048D01*
X0058402Y0014661D01*
X0056284Y0015435D02*
X0055897Y0015822D01*
X0055123Y0015822D01*
X0054736Y0015435D01*
X0064754Y0015435D02*
X0064754Y0013887D01*
X0065141Y0013500D01*
X0065915Y0013500D01*
X0066302Y0013887D01*
X0067259Y0013887D02*
X0067646Y0013500D01*
X0068420Y0013500D01*
X0068807Y0013887D01*
X0068807Y0015435D01*
X0068420Y0015822D01*
X0067646Y0015822D01*
X0067259Y0015435D01*
X0067259Y0015048D01*
X0067646Y0014661D01*
X0068807Y0014661D01*
X0066302Y0015435D02*
X0065915Y0015822D01*
X0065141Y0015822D01*
X0064754Y0015435D01*
X0073327Y0015435D02*
X0073327Y0013887D01*
X0073714Y0013500D01*
X0074488Y0013500D01*
X0074875Y0013887D01*
X0075832Y0013500D02*
X0077380Y0013500D01*
X0076606Y0013500D02*
X0076606Y0015822D01*
X0075832Y0015048D01*
X0074875Y0015435D02*
X0074488Y0015822D01*
X0073714Y0015822D01*
X0073327Y0015435D01*
X0078336Y0015435D02*
X0078336Y0013887D01*
X0079884Y0015435D01*
X0079884Y0013887D01*
X0079497Y0013500D01*
X0078723Y0013500D01*
X0078336Y0013887D01*
X0078336Y0015435D02*
X0078723Y0015822D01*
X0079497Y0015822D01*
X0079884Y0015435D01*
X0083345Y0015435D02*
X0083345Y0013887D01*
X0083732Y0013500D01*
X0084506Y0013500D01*
X0084893Y0013887D01*
X0085850Y0013500D02*
X0087398Y0013500D01*
X0086624Y0013500D02*
X0086624Y0015822D01*
X0085850Y0015048D01*
X0084893Y0015435D02*
X0084506Y0015822D01*
X0083732Y0015822D01*
X0083345Y0015435D01*
X0088354Y0015048D02*
X0089128Y0015822D01*
X0089128Y0013500D01*
X0088354Y0013500D02*
X0089902Y0013500D01*
X0094809Y0013500D02*
X0094809Y0015822D01*
X0096357Y0015822D01*
X0097313Y0015435D02*
X0097700Y0015822D01*
X0098474Y0015822D01*
X0098861Y0015435D01*
X0097313Y0013887D01*
X0097700Y0013500D01*
X0098474Y0013500D01*
X0098861Y0013887D01*
X0098861Y0015435D01*
X0097313Y0015435D02*
X0097313Y0013887D01*
X0095583Y0014661D02*
X0094809Y0014661D01*
X0104827Y0014661D02*
X0105601Y0014661D01*
X0104827Y0013500D02*
X0104827Y0015822D01*
X0106375Y0015822D01*
X0107332Y0015048D02*
X0108106Y0015822D01*
X0108106Y0013500D01*
X0107332Y0013500D02*
X0108880Y0013500D01*
X0114845Y0013500D02*
X0114845Y0015822D01*
X0116393Y0015822D01*
X0117350Y0015435D02*
X0117737Y0015822D01*
X0118511Y0015822D01*
X0118898Y0015435D01*
X0118898Y0015048D01*
X0117350Y0013500D01*
X0118898Y0013500D01*
X0115619Y0014661D02*
X0114845Y0014661D01*
X0124863Y0014661D02*
X0125637Y0014661D01*
X0124863Y0013500D02*
X0124863Y0015822D01*
X0126411Y0015822D01*
X0127368Y0015435D02*
X0127755Y0015822D01*
X0128529Y0015822D01*
X0128916Y0015435D01*
X0128916Y0015048D01*
X0128529Y0014661D01*
X0128916Y0014274D01*
X0128916Y0013887D01*
X0128529Y0013500D01*
X0127755Y0013500D01*
X0127368Y0013887D01*
X0128142Y0014661D02*
X0128529Y0014661D01*
X0134882Y0014661D02*
X0135656Y0014661D01*
X0134882Y0015822D02*
X0136430Y0015822D01*
X0137386Y0014661D02*
X0138934Y0014661D01*
X0138547Y0013500D02*
X0138547Y0015822D01*
X0137386Y0014661D01*
X0134882Y0013500D02*
X0134882Y0015822D01*
X0144900Y0015822D02*
X0144900Y0013500D01*
X0144900Y0014661D02*
X0145674Y0014661D01*
X0144900Y0015822D02*
X0146448Y0015822D01*
X0147404Y0015822D02*
X0147404Y0014661D01*
X0148178Y0015048D01*
X0148565Y0015048D01*
X0148952Y0014661D01*
X0148952Y0013887D01*
X0148565Y0013500D01*
X0147791Y0013500D01*
X0147404Y0013887D01*
X0147404Y0015822D02*
X0148952Y0015822D01*
X0154918Y0015822D02*
X0154918Y0013500D01*
X0154918Y0014661D02*
X0155692Y0014661D01*
X0154918Y0015822D02*
X0156466Y0015822D01*
X0157422Y0014661D02*
X0158583Y0014661D01*
X0158970Y0014274D01*
X0158970Y0013887D01*
X0158583Y0013500D01*
X0157809Y0013500D01*
X0157422Y0013887D01*
X0157422Y0014661D01*
X0158196Y0015435D01*
X0158970Y0015822D01*
X0164936Y0015822D02*
X0164936Y0013500D01*
X0164936Y0014661D02*
X0165710Y0014661D01*
X0164936Y0015822D02*
X0166484Y0015822D01*
X0167441Y0015822D02*
X0168989Y0015822D01*
X0168989Y0015435D01*
X0167441Y0013887D01*
X0167441Y0013500D01*
X0061800Y0028500D02*
X0059798Y0028500D01*
X0059798Y0029501D01*
X0060132Y0029834D01*
X0060799Y0029834D01*
X0061133Y0029501D01*
X0061133Y0028500D01*
X0061133Y0029167D02*
X0061800Y0029834D01*
X0061800Y0030710D02*
X0059798Y0030710D01*
X0059798Y0032044D01*
X0060132Y0032920D02*
X0060466Y0032920D01*
X0060799Y0033253D01*
X0060799Y0033921D01*
X0061133Y0034254D01*
X0061466Y0034254D01*
X0061800Y0033921D01*
X0061800Y0033253D01*
X0061466Y0032920D01*
X0061800Y0032044D02*
X0061800Y0030710D01*
X0060799Y0030710D02*
X0060799Y0031377D01*
X0060132Y0032920D02*
X0059798Y0033253D01*
X0059798Y0033921D01*
X0060132Y0034254D01*
X0059798Y0035130D02*
X0061800Y0035130D01*
X0061800Y0036464D01*
X0060799Y0035797D02*
X0060799Y0035130D01*
X0059798Y0035130D02*
X0059798Y0036464D01*
X0059798Y0037340D02*
X0059798Y0038674D01*
X0059798Y0038007D02*
X0061800Y0038007D01*
X0027719Y0047248D02*
X0026385Y0047248D01*
X0026385Y0049250D01*
X0025509Y0048916D02*
X0025509Y0048249D01*
X0025176Y0047915D01*
X0024175Y0047915D01*
X0024175Y0047248D02*
X0024175Y0049250D01*
X0025176Y0049250D01*
X0025509Y0048916D01*
X0023300Y0049250D02*
X0023300Y0047248D01*
X0021965Y0047248D02*
X0021965Y0049250D01*
X0022632Y0048583D01*
X0023300Y0049250D01*
X0021090Y0048916D02*
X0020756Y0049250D01*
X0020089Y0049250D01*
X0019755Y0048916D01*
X0019755Y0048583D01*
X0020089Y0048249D01*
X0020756Y0048249D01*
X0021090Y0047915D01*
X0021090Y0047582D01*
X0020756Y0047248D01*
X0020089Y0047248D01*
X0019755Y0047582D01*
X0018949Y0047248D02*
X0018282Y0047248D01*
X0018616Y0047248D02*
X0018616Y0049250D01*
X0018949Y0049250D02*
X0018282Y0049250D01*
X0017407Y0049250D02*
X0017407Y0047248D01*
X0016072Y0049250D01*
X0016072Y0047248D01*
X0015266Y0047248D02*
X0014599Y0047248D01*
X0014932Y0047248D02*
X0014932Y0049250D01*
X0014599Y0049250D02*
X0015266Y0049250D01*
X0013723Y0049250D02*
X0013056Y0048583D01*
X0012389Y0049250D01*
X0012389Y0047248D01*
X0013723Y0047248D02*
X0013723Y0049250D01*
X0027200Y0063000D02*
X0027200Y0065002D01*
X0028201Y0065002D01*
X0028534Y0064668D01*
X0028534Y0064001D01*
X0028201Y0063667D01*
X0027200Y0063667D01*
X0029410Y0063000D02*
X0030077Y0063667D01*
X0030744Y0063000D01*
X0030744Y0065002D01*
X0031620Y0065002D02*
X0032621Y0065002D01*
X0032954Y0064668D01*
X0032954Y0064001D01*
X0032621Y0063667D01*
X0031620Y0063667D01*
X0032287Y0063667D02*
X0032954Y0063000D01*
X0031620Y0063000D02*
X0031620Y0065002D01*
X0032067Y0066536D02*
X0027933Y0066536D01*
X0029410Y0065002D02*
X0029410Y0063000D01*
X0026358Y0067422D02*
X0026430Y0067436D01*
X0026501Y0067452D01*
X0026572Y0067473D01*
X0026641Y0067497D01*
X0026708Y0067525D01*
X0026775Y0067556D01*
X0026839Y0067591D01*
X0026901Y0067629D01*
X0026962Y0067670D01*
X0027020Y0067715D01*
X0027076Y0067762D01*
X0027129Y0067812D01*
X0027179Y0067865D01*
X0027227Y0067921D01*
X0027272Y0067979D01*
X0027313Y0068039D01*
X0027351Y0068101D01*
X0027386Y0068166D01*
X0027418Y0068232D01*
X0027446Y0068299D01*
X0027470Y0068368D01*
X0027491Y0068438D01*
X0027508Y0068509D01*
X0027522Y0068581D01*
X0027531Y0068654D01*
X0027537Y0068727D01*
X0027539Y0068800D01*
X0027537Y0068873D01*
X0027531Y0068946D01*
X0027522Y0069019D01*
X0027508Y0069091D01*
X0027491Y0069162D01*
X0027470Y0069232D01*
X0027446Y0069301D01*
X0027418Y0069368D01*
X0027386Y0069434D01*
X0027351Y0069499D01*
X0027313Y0069561D01*
X0027272Y0069621D01*
X0027227Y0069679D01*
X0027179Y0069735D01*
X0027129Y0069788D01*
X0027076Y0069838D01*
X0027020Y0069885D01*
X0026962Y0069930D01*
X0026901Y0069971D01*
X0026839Y0070009D01*
X0026775Y0070044D01*
X0026708Y0070075D01*
X0026641Y0070103D01*
X0026572Y0070127D01*
X0026501Y0070148D01*
X0026430Y0070164D01*
X0026358Y0070178D01*
X0028031Y0071064D02*
X0033642Y0071064D01*
X0032940Y0070572D02*
X0032942Y0070612D01*
X0032948Y0070651D01*
X0032957Y0070690D01*
X0032971Y0070727D01*
X0032988Y0070763D01*
X0033008Y0070798D01*
X0033032Y0070830D01*
X0033059Y0070859D01*
X0033088Y0070886D01*
X0033120Y0070910D01*
X0033155Y0070930D01*
X0033191Y0070947D01*
X0033228Y0070961D01*
X0033267Y0070970D01*
X0033306Y0070976D01*
X0033346Y0070978D01*
X0033386Y0070976D01*
X0033425Y0070970D01*
X0033464Y0070961D01*
X0033501Y0070947D01*
X0033537Y0070930D01*
X0033572Y0070910D01*
X0033604Y0070886D01*
X0033633Y0070859D01*
X0033660Y0070830D01*
X0033684Y0070798D01*
X0033704Y0070763D01*
X0033721Y0070727D01*
X0033735Y0070690D01*
X0033744Y0070651D01*
X0033750Y0070612D01*
X0033752Y0070572D01*
X0033750Y0070532D01*
X0033744Y0070493D01*
X0033735Y0070454D01*
X0033721Y0070417D01*
X0033704Y0070381D01*
X0033684Y0070346D01*
X0033660Y0070314D01*
X0033633Y0070285D01*
X0033604Y0070258D01*
X0033572Y0070234D01*
X0033537Y0070214D01*
X0033501Y0070197D01*
X0033464Y0070183D01*
X0033425Y0070174D01*
X0033386Y0070168D01*
X0033346Y0070166D01*
X0033306Y0070168D01*
X0033267Y0070174D01*
X0033228Y0070183D01*
X0033191Y0070197D01*
X0033155Y0070214D01*
X0033120Y0070234D01*
X0033088Y0070258D01*
X0033059Y0070285D01*
X0033032Y0070314D01*
X0033008Y0070346D01*
X0032988Y0070381D01*
X0032971Y0070417D01*
X0032957Y0070454D01*
X0032948Y0070493D01*
X0032942Y0070532D01*
X0032940Y0070572D01*
X0033642Y0070178D02*
X0033570Y0070164D01*
X0033499Y0070148D01*
X0033428Y0070127D01*
X0033359Y0070103D01*
X0033292Y0070075D01*
X0033225Y0070044D01*
X0033161Y0070009D01*
X0033099Y0069971D01*
X0033038Y0069930D01*
X0032980Y0069885D01*
X0032924Y0069838D01*
X0032871Y0069788D01*
X0032821Y0069735D01*
X0032773Y0069679D01*
X0032728Y0069621D01*
X0032687Y0069561D01*
X0032649Y0069499D01*
X0032614Y0069434D01*
X0032582Y0069368D01*
X0032554Y0069301D01*
X0032530Y0069232D01*
X0032509Y0069162D01*
X0032492Y0069091D01*
X0032478Y0069019D01*
X0032469Y0068946D01*
X0032463Y0068873D01*
X0032461Y0068800D01*
X0032463Y0068727D01*
X0032469Y0068654D01*
X0032478Y0068581D01*
X0032492Y0068509D01*
X0032509Y0068438D01*
X0032530Y0068368D01*
X0032554Y0068299D01*
X0032582Y0068232D01*
X0032614Y0068166D01*
X0032649Y0068101D01*
X0032687Y0068039D01*
X0032728Y0067979D01*
X0032773Y0067921D01*
X0032821Y0067865D01*
X0032871Y0067812D01*
X0032924Y0067762D01*
X0032980Y0067715D01*
X0033038Y0067670D01*
X0033099Y0067629D01*
X0033161Y0067591D01*
X0033225Y0067556D01*
X0033292Y0067525D01*
X0033359Y0067497D01*
X0033428Y0067473D01*
X0033499Y0067452D01*
X0033570Y0067436D01*
X0033642Y0067422D01*
X0040358Y0067422D02*
X0040430Y0067436D01*
X0040501Y0067452D01*
X0040572Y0067473D01*
X0040641Y0067497D01*
X0040708Y0067525D01*
X0040775Y0067556D01*
X0040839Y0067591D01*
X0040901Y0067629D01*
X0040962Y0067670D01*
X0041020Y0067715D01*
X0041076Y0067762D01*
X0041129Y0067812D01*
X0041179Y0067865D01*
X0041227Y0067921D01*
X0041272Y0067979D01*
X0041313Y0068039D01*
X0041351Y0068101D01*
X0041386Y0068166D01*
X0041418Y0068232D01*
X0041446Y0068299D01*
X0041470Y0068368D01*
X0041491Y0068438D01*
X0041508Y0068509D01*
X0041522Y0068581D01*
X0041531Y0068654D01*
X0041537Y0068727D01*
X0041539Y0068800D01*
X0041537Y0068873D01*
X0041531Y0068946D01*
X0041522Y0069019D01*
X0041508Y0069091D01*
X0041491Y0069162D01*
X0041470Y0069232D01*
X0041446Y0069301D01*
X0041418Y0069368D01*
X0041386Y0069434D01*
X0041351Y0069499D01*
X0041313Y0069561D01*
X0041272Y0069621D01*
X0041227Y0069679D01*
X0041179Y0069735D01*
X0041129Y0069788D01*
X0041076Y0069838D01*
X0041020Y0069885D01*
X0040962Y0069930D01*
X0040901Y0069971D01*
X0040839Y0070009D01*
X0040775Y0070044D01*
X0040708Y0070075D01*
X0040641Y0070103D01*
X0040572Y0070127D01*
X0040501Y0070148D01*
X0040430Y0070164D01*
X0040358Y0070178D01*
X0041933Y0071064D02*
X0046067Y0071064D01*
X0047642Y0070178D02*
X0047570Y0070164D01*
X0047499Y0070148D01*
X0047428Y0070127D01*
X0047359Y0070103D01*
X0047292Y0070075D01*
X0047225Y0070044D01*
X0047161Y0070009D01*
X0047099Y0069971D01*
X0047038Y0069930D01*
X0046980Y0069885D01*
X0046924Y0069838D01*
X0046871Y0069788D01*
X0046821Y0069735D01*
X0046773Y0069679D01*
X0046728Y0069621D01*
X0046687Y0069561D01*
X0046649Y0069499D01*
X0046614Y0069434D01*
X0046582Y0069368D01*
X0046554Y0069301D01*
X0046530Y0069232D01*
X0046509Y0069162D01*
X0046492Y0069091D01*
X0046478Y0069019D01*
X0046469Y0068946D01*
X0046463Y0068873D01*
X0046461Y0068800D01*
X0046463Y0068727D01*
X0046469Y0068654D01*
X0046478Y0068581D01*
X0046492Y0068509D01*
X0046509Y0068438D01*
X0046530Y0068368D01*
X0046554Y0068299D01*
X0046582Y0068232D01*
X0046614Y0068166D01*
X0046649Y0068101D01*
X0046687Y0068039D01*
X0046728Y0067979D01*
X0046773Y0067921D01*
X0046821Y0067865D01*
X0046871Y0067812D01*
X0046924Y0067762D01*
X0046980Y0067715D01*
X0047038Y0067670D01*
X0047099Y0067629D01*
X0047161Y0067591D01*
X0047225Y0067556D01*
X0047292Y0067525D01*
X0047359Y0067497D01*
X0047428Y0067473D01*
X0047499Y0067452D01*
X0047570Y0067436D01*
X0047642Y0067422D01*
X0045969Y0066536D02*
X0040358Y0066536D01*
X0040248Y0067028D02*
X0040250Y0067068D01*
X0040256Y0067107D01*
X0040265Y0067146D01*
X0040279Y0067183D01*
X0040296Y0067219D01*
X0040316Y0067254D01*
X0040340Y0067286D01*
X0040367Y0067315D01*
X0040396Y0067342D01*
X0040428Y0067366D01*
X0040463Y0067386D01*
X0040499Y0067403D01*
X0040536Y0067417D01*
X0040575Y0067426D01*
X0040614Y0067432D01*
X0040654Y0067434D01*
X0040694Y0067432D01*
X0040733Y0067426D01*
X0040772Y0067417D01*
X0040809Y0067403D01*
X0040845Y0067386D01*
X0040880Y0067366D01*
X0040912Y0067342D01*
X0040941Y0067315D01*
X0040968Y0067286D01*
X0040992Y0067254D01*
X0041012Y0067219D01*
X0041029Y0067183D01*
X0041043Y0067146D01*
X0041052Y0067107D01*
X0041058Y0067068D01*
X0041060Y0067028D01*
X0041058Y0066988D01*
X0041052Y0066949D01*
X0041043Y0066910D01*
X0041029Y0066873D01*
X0041012Y0066837D01*
X0040992Y0066802D01*
X0040968Y0066770D01*
X0040941Y0066741D01*
X0040912Y0066714D01*
X0040880Y0066690D01*
X0040845Y0066670D01*
X0040809Y0066653D01*
X0040772Y0066639D01*
X0040733Y0066630D01*
X0040694Y0066624D01*
X0040654Y0066622D01*
X0040614Y0066624D01*
X0040575Y0066630D01*
X0040536Y0066639D01*
X0040499Y0066653D01*
X0040463Y0066670D01*
X0040428Y0066690D01*
X0040396Y0066714D01*
X0040367Y0066741D01*
X0040340Y0066770D01*
X0040316Y0066802D01*
X0040296Y0066837D01*
X0040279Y0066873D01*
X0040265Y0066910D01*
X0040256Y0066949D01*
X0040250Y0066988D01*
X0040248Y0067028D01*
X0040700Y0065002D02*
X0040700Y0063334D01*
X0041034Y0063000D01*
X0041701Y0063000D01*
X0042034Y0063334D01*
X0042034Y0065002D01*
X0042910Y0064668D02*
X0042910Y0064334D01*
X0043243Y0064001D01*
X0043911Y0064001D01*
X0044244Y0063667D01*
X0044244Y0063334D01*
X0043911Y0063000D01*
X0043243Y0063000D01*
X0042910Y0063334D01*
X0045120Y0063667D02*
X0046121Y0063667D01*
X0046454Y0064001D01*
X0046454Y0064668D01*
X0046121Y0065002D01*
X0045120Y0065002D01*
X0045120Y0063000D01*
X0045787Y0063667D02*
X0046454Y0063000D01*
X0044244Y0064668D02*
X0043911Y0065002D01*
X0043243Y0065002D01*
X0042910Y0064668D01*
X0044773Y0078000D02*
X0044773Y0079548D01*
X0045547Y0080322D01*
X0046321Y0079548D01*
X0046321Y0078000D01*
X0047277Y0078000D02*
X0048825Y0078000D01*
X0048051Y0078000D02*
X0048051Y0080322D01*
X0047277Y0079548D01*
X0046321Y0079161D02*
X0044773Y0079161D01*
X0038807Y0079548D02*
X0038807Y0079935D01*
X0038420Y0080322D01*
X0037646Y0080322D01*
X0037259Y0079935D01*
X0036302Y0079548D02*
X0036302Y0078000D01*
X0037259Y0078000D02*
X0038807Y0079548D01*
X0038807Y0078000D02*
X0037259Y0078000D01*
X0036302Y0079161D02*
X0034754Y0079161D01*
X0034754Y0079548D02*
X0035528Y0080322D01*
X0036302Y0079548D01*
X0034754Y0079548D02*
X0034754Y0078000D01*
X0028789Y0078387D02*
X0028402Y0078000D01*
X0027628Y0078000D01*
X0027241Y0078387D01*
X0026284Y0078000D02*
X0026284Y0079548D01*
X0025510Y0080322D01*
X0024736Y0079548D01*
X0024736Y0078000D01*
X0024736Y0079161D02*
X0026284Y0079161D01*
X0027241Y0079935D02*
X0027628Y0080322D01*
X0028402Y0080322D01*
X0028789Y0079935D01*
X0028789Y0079548D01*
X0028402Y0079161D01*
X0028789Y0078774D01*
X0028789Y0078387D01*
X0028402Y0079161D02*
X0028015Y0079161D01*
X0018771Y0079161D02*
X0017223Y0079161D01*
X0018384Y0080322D01*
X0018384Y0078000D01*
X0016266Y0078000D02*
X0016266Y0079548D01*
X0015492Y0080322D01*
X0014718Y0079548D01*
X0014718Y0078000D01*
X0014718Y0079161D02*
X0016266Y0079161D01*
X0008753Y0079161D02*
X0008753Y0078387D01*
X0008366Y0078000D01*
X0007592Y0078000D01*
X0007205Y0078387D01*
X0007205Y0079161D02*
X0007979Y0079548D01*
X0008366Y0079548D01*
X0008753Y0079161D01*
X0008753Y0080322D02*
X0007205Y0080322D01*
X0007205Y0079161D01*
X0006248Y0079161D02*
X0004700Y0079161D01*
X0004700Y0079548D02*
X0005474Y0080322D01*
X0006248Y0079548D01*
X0006248Y0078000D01*
X0004700Y0078000D02*
X0004700Y0079548D01*
X0054791Y0079548D02*
X0054791Y0078000D01*
X0054791Y0079161D02*
X0056339Y0079161D01*
X0056339Y0079548D02*
X0056339Y0078000D01*
X0057295Y0078387D02*
X0058843Y0079935D01*
X0058843Y0078387D01*
X0058456Y0078000D01*
X0057682Y0078000D01*
X0057295Y0078387D01*
X0057295Y0079935D01*
X0057682Y0080322D01*
X0058456Y0080322D01*
X0058843Y0079935D01*
X0056339Y0079548D02*
X0055565Y0080322D01*
X0054791Y0079548D01*
X0063200Y0080322D02*
X0063200Y0078000D01*
X0064361Y0078000D01*
X0064748Y0078387D01*
X0064748Y0079935D01*
X0064361Y0080322D01*
X0063200Y0080322D01*
X0065705Y0079548D02*
X0066479Y0080322D01*
X0066479Y0078000D01*
X0065705Y0078000D02*
X0067253Y0078000D01*
X0068209Y0078387D02*
X0068596Y0078000D01*
X0069370Y0078000D01*
X0069757Y0078387D01*
X0069757Y0079161D01*
X0069370Y0079548D01*
X0068983Y0079548D01*
X0068209Y0079161D01*
X0068209Y0080322D01*
X0069757Y0080322D01*
X0073218Y0080322D02*
X0073218Y0078000D01*
X0074379Y0078000D01*
X0074766Y0078387D01*
X0074766Y0079935D01*
X0074379Y0080322D01*
X0073218Y0080322D01*
X0075723Y0079548D02*
X0076497Y0080322D01*
X0076497Y0078000D01*
X0075723Y0078000D02*
X0077271Y0078000D01*
X0078227Y0079161D02*
X0079775Y0079161D01*
X0079388Y0078000D02*
X0079388Y0080322D01*
X0078227Y0079161D01*
X0083236Y0078000D02*
X0084397Y0078000D01*
X0084784Y0078387D01*
X0084784Y0079935D01*
X0084397Y0080322D01*
X0083236Y0080322D01*
X0083236Y0078000D01*
X0085741Y0078000D02*
X0087289Y0078000D01*
X0086515Y0078000D02*
X0086515Y0080322D01*
X0085741Y0079548D01*
X0088245Y0079935D02*
X0088632Y0080322D01*
X0089406Y0080322D01*
X0089793Y0079935D01*
X0089793Y0079548D01*
X0089406Y0079161D01*
X0089793Y0078774D01*
X0089793Y0078387D01*
X0089406Y0078000D01*
X0088632Y0078000D01*
X0088245Y0078387D01*
X0089019Y0079161D02*
X0089406Y0079161D01*
X0093254Y0080322D02*
X0093254Y0078000D01*
X0094415Y0078000D01*
X0094802Y0078387D01*
X0094802Y0079935D01*
X0094415Y0080322D01*
X0093254Y0080322D01*
X0095759Y0079548D02*
X0096533Y0080322D01*
X0096533Y0078000D01*
X0095759Y0078000D02*
X0097307Y0078000D01*
X0098264Y0078000D02*
X0099812Y0079548D01*
X0099812Y0079935D01*
X0099425Y0080322D01*
X0098651Y0080322D01*
X0098264Y0079935D01*
X0098264Y0078000D02*
X0099812Y0078000D01*
X0103273Y0078000D02*
X0103273Y0080322D01*
X0104434Y0080322D01*
X0104821Y0079935D01*
X0104821Y0078387D01*
X0104434Y0078000D01*
X0103273Y0078000D01*
X0105777Y0078000D02*
X0107325Y0078000D01*
X0106551Y0078000D02*
X0106551Y0080322D01*
X0105777Y0079548D01*
X0108282Y0079548D02*
X0109056Y0080322D01*
X0109056Y0078000D01*
X0108282Y0078000D02*
X0109830Y0078000D01*
X0113291Y0078000D02*
X0113291Y0080322D01*
X0114452Y0080322D01*
X0114839Y0079935D01*
X0114839Y0078387D01*
X0114452Y0078000D01*
X0113291Y0078000D01*
X0115795Y0078000D02*
X0117343Y0078000D01*
X0116569Y0078000D02*
X0116569Y0080322D01*
X0115795Y0079548D01*
X0118300Y0079935D02*
X0118300Y0078387D01*
X0119848Y0079935D01*
X0119848Y0078387D01*
X0119461Y0078000D01*
X0118687Y0078000D01*
X0118300Y0078387D01*
X0118300Y0079935D02*
X0118687Y0080322D01*
X0119461Y0080322D01*
X0119848Y0079935D01*
X0124918Y0080322D02*
X0124918Y0078000D01*
X0126079Y0078000D01*
X0126466Y0078387D01*
X0126466Y0079935D01*
X0126079Y0080322D01*
X0124918Y0080322D01*
X0127422Y0079935D02*
X0127422Y0079548D01*
X0127809Y0079161D01*
X0128970Y0079161D01*
X0128970Y0079935D02*
X0128583Y0080322D01*
X0127809Y0080322D01*
X0127422Y0079935D01*
X0128970Y0079935D02*
X0128970Y0078387D01*
X0128583Y0078000D01*
X0127809Y0078000D01*
X0127422Y0078387D01*
X0133327Y0078000D02*
X0133327Y0080322D01*
X0134488Y0080322D01*
X0134875Y0079935D01*
X0134875Y0079161D01*
X0134488Y0078774D01*
X0133327Y0078774D01*
X0134101Y0078774D02*
X0134875Y0078000D01*
X0135832Y0078000D02*
X0137380Y0078000D01*
X0138336Y0078387D02*
X0138723Y0078000D01*
X0139497Y0078000D01*
X0139884Y0078387D01*
X0139884Y0078774D01*
X0139497Y0079161D01*
X0138723Y0079161D01*
X0138336Y0079548D01*
X0138336Y0079935D01*
X0138723Y0080322D01*
X0139497Y0080322D01*
X0139884Y0079935D01*
X0137380Y0080322D02*
X0135832Y0080322D01*
X0135832Y0078000D01*
X0135832Y0079161D02*
X0136606Y0079161D01*
X0143345Y0079548D02*
X0144119Y0080322D01*
X0144119Y0078000D01*
X0143345Y0078000D02*
X0144893Y0078000D01*
X0145850Y0078774D02*
X0146624Y0078000D01*
X0147398Y0078774D01*
X0147398Y0080322D01*
X0148354Y0079935D02*
X0148354Y0079548D01*
X0148741Y0079161D01*
X0149515Y0079161D01*
X0149902Y0078774D01*
X0149902Y0078387D01*
X0149515Y0078000D01*
X0148741Y0078000D01*
X0148354Y0078387D01*
X0148354Y0078774D01*
X0148741Y0079161D01*
X0149515Y0079161D02*
X0149902Y0079548D01*
X0149902Y0079935D01*
X0149515Y0080322D01*
X0148741Y0080322D01*
X0148354Y0079935D01*
X0145850Y0080322D02*
X0145850Y0078774D01*
X0153363Y0078774D02*
X0154137Y0078000D01*
X0154911Y0078774D01*
X0154911Y0080322D01*
X0155868Y0080322D02*
X0157029Y0080322D01*
X0157416Y0079935D01*
X0157416Y0078387D01*
X0157029Y0078000D01*
X0155868Y0078000D01*
X0155868Y0080322D01*
X0158373Y0080322D02*
X0159534Y0080322D01*
X0159920Y0079935D01*
X0159920Y0078387D01*
X0159534Y0078000D01*
X0158373Y0078000D01*
X0158373Y0080322D01*
X0153363Y0080322D02*
X0153363Y0078774D01*
X0163382Y0078387D02*
X0163769Y0078000D01*
X0164543Y0078000D01*
X0164930Y0078387D01*
X0164930Y0079161D01*
X0164156Y0079161D01*
X0164930Y0079935D02*
X0164543Y0080322D01*
X0163769Y0080322D01*
X0163382Y0079935D01*
X0163382Y0078387D01*
X0165886Y0078000D02*
X0165886Y0080322D01*
X0167434Y0078000D01*
X0167434Y0080322D01*
X0168391Y0080322D02*
X0169552Y0080322D01*
X0169939Y0079935D01*
X0169939Y0078387D01*
X0169552Y0078000D01*
X0168391Y0078000D01*
X0168391Y0080322D01*
D12*
X0172000Y0081800D02*
X0162000Y0081800D01*
X0162000Y0091800D01*
X0172000Y0091800D01*
X0172000Y0081800D01*
D13*
X0140000Y0080950D02*
X0133000Y0080950D01*
X0145205Y0061597D02*
X0145205Y0036105D01*
X0170795Y0036105D01*
X0170795Y0061597D01*
X0145205Y0061597D01*
X0058512Y0040780D02*
X0058512Y0037237D01*
X0058512Y0029363D01*
X0058512Y0025820D01*
X0047488Y0025820D01*
X0047488Y0040780D01*
X0058512Y0040780D01*
X0029843Y0040906D02*
X0029843Y0041694D01*
X0029843Y0046005D02*
X0029843Y0046300D01*
X0029843Y0021300D01*
X0010157Y0021300D01*
X0010157Y0046300D01*
X0029843Y0046300D01*
X0010157Y0046300D01*
X0010157Y0046005D01*
X0010157Y0041694D02*
X0010157Y0040906D01*
X0010157Y0036694D02*
X0010157Y0035906D01*
X0010157Y0031694D02*
X0010157Y0030906D01*
X0010157Y0026694D02*
X0010157Y0025906D01*
X0010157Y0021595D02*
X0010157Y0021300D01*
X0029843Y0021300D01*
X0029843Y0021595D01*
X0029843Y0025906D02*
X0029843Y0026694D01*
X0029843Y0030906D02*
X0029843Y0031300D01*
X0021378Y0031300D01*
X0021378Y0036300D01*
X0029843Y0036300D01*
X0021378Y0036300D01*
X0021378Y0031300D01*
X0029843Y0031300D01*
X0029843Y0031694D01*
X0029843Y0035906D02*
X0029843Y0036300D01*
X0029843Y0036694D01*
D14*
X0048607Y0028400D02*
X0048609Y0028428D01*
X0048615Y0028455D01*
X0048624Y0028481D01*
X0048637Y0028506D01*
X0048654Y0028529D01*
X0048673Y0028549D01*
X0048695Y0028566D01*
X0048719Y0028580D01*
X0048745Y0028590D01*
X0048772Y0028597D01*
X0048800Y0028600D01*
X0048828Y0028599D01*
X0048855Y0028594D01*
X0048882Y0028585D01*
X0048907Y0028573D01*
X0048930Y0028558D01*
X0048951Y0028539D01*
X0048969Y0028518D01*
X0048984Y0028494D01*
X0048995Y0028468D01*
X0049003Y0028442D01*
X0049007Y0028414D01*
X0049007Y0028386D01*
X0049003Y0028358D01*
X0048995Y0028332D01*
X0048984Y0028306D01*
X0048969Y0028282D01*
X0048951Y0028261D01*
X0048930Y0028242D01*
X0048907Y0028227D01*
X0048882Y0028215D01*
X0048855Y0028206D01*
X0048828Y0028201D01*
X0048800Y0028200D01*
X0048772Y0028203D01*
X0048745Y0028210D01*
X0048719Y0028220D01*
X0048695Y0028234D01*
X0048673Y0028251D01*
X0048654Y0028271D01*
X0048637Y0028294D01*
X0048624Y0028319D01*
X0048615Y0028345D01*
X0048609Y0028372D01*
X0048607Y0028400D01*
D15*
X0046953Y0066979D03*
X0046953Y0070621D03*
X0041047Y0070621D03*
X0032953Y0066979D03*
X0027047Y0066979D03*
X0027047Y0070621D03*
D16*
X0027539Y0069784D03*
X0027539Y0067816D03*
X0032461Y0067816D03*
X0032461Y0069784D03*
X0041539Y0069784D03*
X0041539Y0067816D03*
X0046461Y0067816D03*
X0046461Y0069784D03*
D17*
X0046313Y0068800D03*
X0041687Y0068800D03*
X0032313Y0068800D03*
X0027687Y0068800D03*
D18*
X0030394Y0068800D03*
X0043606Y0068800D03*
D19*
X0041441Y0067028D03*
X0032559Y0070572D03*
D20*
X0033789Y0070621D03*
X0040211Y0066979D03*
D21*
X0055299Y0067398D02*
X0058701Y0067398D01*
X0058701Y0070202D02*
X0055299Y0070202D01*
X0054500Y0081800D02*
X0052000Y0084300D01*
X0049500Y0081800D01*
X0044500Y0081800D01*
X0042000Y0084300D01*
X0039500Y0081800D01*
X0034500Y0081800D01*
X0032000Y0084300D01*
X0032000Y0089300D01*
X0034500Y0091800D01*
X0039500Y0091800D01*
X0042000Y0089300D01*
X0044500Y0091800D01*
X0049500Y0091800D01*
X0052000Y0089300D01*
X0054500Y0091800D01*
X0059500Y0091800D01*
X0062000Y0089300D01*
X0064500Y0091800D01*
X0069500Y0091800D01*
X0072000Y0089300D01*
X0074500Y0091800D01*
X0079500Y0091800D01*
X0082000Y0089300D01*
X0084500Y0091800D01*
X0089500Y0091800D01*
X0092000Y0089300D01*
X0094500Y0091800D01*
X0099500Y0091800D01*
X0102000Y0089300D01*
X0104500Y0091800D01*
X0109500Y0091800D01*
X0112000Y0089300D01*
X0114500Y0091800D01*
X0119500Y0091800D01*
X0122000Y0089300D01*
X0124500Y0091800D01*
X0129500Y0091800D01*
X0132000Y0089300D01*
X0134500Y0091800D01*
X0139500Y0091800D01*
X0142000Y0089300D01*
X0144500Y0091800D01*
X0149500Y0091800D01*
X0152000Y0089300D01*
X0154500Y0091800D01*
X0159500Y0091800D01*
X0162000Y0089300D01*
X0164500Y0091800D01*
X0169500Y0091800D01*
X0172000Y0089300D01*
X0172000Y0084300D01*
X0169500Y0081800D01*
X0164500Y0081800D01*
X0162000Y0084300D01*
X0159500Y0081800D01*
X0154500Y0081800D01*
X0152000Y0084300D01*
X0152000Y0089300D01*
X0152000Y0084300D02*
X0149500Y0081800D01*
X0144500Y0081800D01*
X0142000Y0084300D01*
X0139500Y0081800D01*
X0134500Y0081800D01*
X0132000Y0084300D01*
X0129500Y0081800D01*
X0124500Y0081800D01*
X0122000Y0084300D01*
X0122000Y0089300D01*
X0122000Y0084300D02*
X0119500Y0081800D01*
X0114500Y0081800D01*
X0112000Y0084300D01*
X0109500Y0081800D01*
X0104500Y0081800D01*
X0102000Y0084300D01*
X0099500Y0081800D01*
X0094500Y0081800D01*
X0092000Y0084300D01*
X0092000Y0089300D01*
X0092000Y0084300D02*
X0089500Y0081800D01*
X0084500Y0081800D01*
X0082000Y0084300D01*
X0079500Y0081800D01*
X0074500Y0081800D01*
X0072000Y0084300D01*
X0069500Y0081800D01*
X0064500Y0081800D01*
X0062000Y0084300D01*
X0062000Y0089300D01*
X0062000Y0084300D02*
X0059500Y0081800D01*
X0054500Y0081800D01*
X0052000Y0084300D02*
X0052000Y0089300D01*
X0042000Y0089300D02*
X0042000Y0084300D01*
X0032000Y0084300D02*
X0029500Y0081800D01*
X0024500Y0081800D01*
X0022000Y0084300D01*
X0019500Y0081800D01*
X0014500Y0081800D01*
X0012000Y0084300D01*
X0009500Y0081800D01*
X0004500Y0081800D01*
X0002000Y0084300D01*
X0002000Y0089300D01*
X0004500Y0091800D01*
X0009500Y0091800D01*
X0012000Y0089300D01*
X0014500Y0091800D01*
X0019500Y0091800D01*
X0022000Y0089300D01*
X0024500Y0091800D01*
X0029500Y0091800D01*
X0032000Y0089300D01*
X0022000Y0089300D02*
X0022000Y0084300D01*
X0012000Y0084300D02*
X0012000Y0089300D01*
X0015299Y0070202D02*
X0018701Y0070202D01*
X0018701Y0067398D02*
X0015299Y0067398D01*
X0072000Y0084300D02*
X0072000Y0089300D01*
X0082000Y0089300D02*
X0082000Y0084300D01*
X0102000Y0084300D02*
X0102000Y0089300D01*
X0112000Y0089300D02*
X0112000Y0084300D01*
X0132000Y0084300D02*
X0132000Y0089300D01*
X0142000Y0089300D02*
X0142000Y0084300D01*
X0162000Y0084300D02*
X0162000Y0089300D01*
X0162500Y0032200D02*
X0163400Y0032200D01*
X0163600Y0031100D01*
X0164500Y0030800D01*
X0165400Y0031400D01*
X0166100Y0030700D01*
X0165400Y0029800D01*
X0165800Y0029000D01*
X0166900Y0028700D01*
X0166900Y0027800D01*
X0165800Y0027600D01*
X0165400Y0026800D01*
X0166100Y0025900D01*
X0165400Y0025200D01*
X0164500Y0025800D01*
X0163600Y0025400D01*
X0163400Y0024400D01*
X0162500Y0024400D01*
X0162300Y0025400D01*
X0161400Y0025800D01*
X0160500Y0025200D01*
X0159900Y0025900D01*
X0160500Y0026700D01*
X0160300Y0027100D01*
X0161900Y0027700D01*
X0161800Y0027200D02*
X0162800Y0026600D01*
X0163900Y0027000D01*
X0164500Y0028100D01*
X0164100Y0029400D01*
X0162800Y0029800D01*
X0161700Y0029400D01*
X0160700Y0029700D01*
X0160200Y0030600D01*
X0160500Y0031100D01*
X0161500Y0030500D01*
X0162600Y0031000D01*
X0162800Y0032000D01*
X0163100Y0032000D01*
X0163500Y0031000D01*
X0164600Y0030600D01*
X0165500Y0031100D01*
X0165800Y0030700D01*
X0165200Y0029900D01*
X0165800Y0028800D01*
X0166700Y0028500D01*
X0166700Y0028000D01*
X0165600Y0027700D01*
X0165200Y0026800D01*
X0165800Y0026000D01*
X0165400Y0025500D01*
X0164600Y0026000D01*
X0163400Y0025500D01*
X0163200Y0024700D01*
X0162700Y0024600D01*
X0162500Y0025500D01*
X0161400Y0026000D01*
X0160600Y0025600D01*
X0160300Y0026000D01*
X0160800Y0026900D01*
X0161800Y0027200D01*
X0162238Y0026937D02*
X0160925Y0026937D01*
X0160488Y0026339D02*
X0165546Y0026339D01*
X0165592Y0025740D02*
X0165015Y0025740D01*
X0163977Y0025740D02*
X0161971Y0025740D01*
X0162580Y0025142D02*
X0163310Y0025142D01*
X0160881Y0025740D02*
X0160495Y0025740D01*
X0163728Y0026937D02*
X0165261Y0026937D01*
X0165527Y0027536D02*
X0164192Y0027536D01*
X0164489Y0028134D02*
X0166700Y0028134D01*
X0166001Y0028733D02*
X0164305Y0028733D01*
X0164121Y0029332D02*
X0165510Y0029332D01*
X0165223Y0029930D02*
X0160572Y0029930D01*
X0160500Y0029900D02*
X0159900Y0030700D01*
X0160500Y0031400D01*
X0161400Y0030800D01*
X0162300Y0031200D01*
X0162500Y0032200D01*
X0162745Y0031726D02*
X0163210Y0031726D01*
X0163449Y0031127D02*
X0162625Y0031127D01*
X0161563Y0030529D02*
X0165671Y0030529D01*
X0161900Y0028900D02*
X0161936Y0028959D01*
X0161975Y0029015D01*
X0162018Y0029070D01*
X0162063Y0029122D01*
X0162111Y0029171D01*
X0162162Y0029217D01*
X0162216Y0029261D01*
X0162272Y0029301D01*
X0162330Y0029338D01*
X0162390Y0029372D01*
X0162452Y0029402D01*
X0162516Y0029428D01*
X0162581Y0029451D01*
X0162647Y0029470D01*
X0162714Y0029486D01*
X0162782Y0029497D01*
X0162850Y0029505D01*
X0162919Y0029509D01*
X0162988Y0029508D01*
X0163057Y0029504D01*
X0163125Y0029496D01*
X0163193Y0029484D01*
X0163260Y0029468D01*
X0163326Y0029449D01*
X0163391Y0029426D01*
X0163455Y0029399D01*
X0163516Y0029368D01*
X0163576Y0029334D01*
X0163634Y0029297D01*
X0163690Y0029256D01*
X0163743Y0029212D01*
X0163794Y0029166D01*
X0163842Y0029116D01*
X0163887Y0029064D01*
X0163929Y0029009D01*
X0163968Y0028953D01*
X0164003Y0028893D01*
X0164035Y0028832D01*
X0164064Y0028770D01*
X0164089Y0028706D01*
X0164110Y0028640D01*
X0164128Y0028573D01*
X0164141Y0028506D01*
X0164151Y0028438D01*
X0164157Y0028369D01*
X0164159Y0028300D01*
X0164157Y0028231D01*
X0164151Y0028162D01*
X0164141Y0028094D01*
X0164128Y0028027D01*
X0164110Y0027960D01*
X0164089Y0027894D01*
X0164064Y0027830D01*
X0164035Y0027768D01*
X0164003Y0027707D01*
X0163968Y0027647D01*
X0163929Y0027591D01*
X0163887Y0027536D01*
X0163842Y0027484D01*
X0163794Y0027434D01*
X0163743Y0027388D01*
X0163690Y0027344D01*
X0163634Y0027303D01*
X0163576Y0027266D01*
X0163516Y0027232D01*
X0163455Y0027201D01*
X0163391Y0027174D01*
X0163326Y0027151D01*
X0163260Y0027132D01*
X0163193Y0027116D01*
X0163125Y0027104D01*
X0163057Y0027096D01*
X0162988Y0027092D01*
X0162919Y0027091D01*
X0162850Y0027095D01*
X0162782Y0027103D01*
X0162714Y0027114D01*
X0162647Y0027130D01*
X0162581Y0027149D01*
X0162516Y0027172D01*
X0162452Y0027198D01*
X0162390Y0027228D01*
X0162330Y0027262D01*
X0162272Y0027299D01*
X0162216Y0027339D01*
X0162162Y0027383D01*
X0162111Y0027429D01*
X0162063Y0027478D01*
X0162018Y0027530D01*
X0161975Y0027585D01*
X0161936Y0027641D01*
X0161900Y0027700D01*
X0161900Y0028900D02*
X0160300Y0029500D01*
X0160500Y0029900D01*
X0160240Y0030529D02*
X0161452Y0030529D01*
X0159500Y0011800D02*
X0154500Y0011800D01*
X0152000Y0009300D01*
X0152000Y0004300D01*
X0154500Y0001800D01*
X0159500Y0001800D01*
X0162000Y0004300D01*
X0162000Y0009300D01*
X0159500Y0011800D01*
X0162000Y0009300D02*
X0164500Y0011800D01*
X0169500Y0011800D01*
X0172000Y0009300D01*
X0172000Y0004300D01*
X0169500Y0001800D01*
X0164500Y0001800D01*
X0162000Y0004300D01*
X0152000Y0004300D02*
X0149500Y0001800D01*
X0144500Y0001800D01*
X0142000Y0004300D01*
X0139500Y0001800D01*
X0134500Y0001800D01*
X0132000Y0004300D01*
X0129500Y0001800D01*
X0124500Y0001800D01*
X0122000Y0004300D01*
X0122000Y0009300D01*
X0124500Y0011800D01*
X0129500Y0011800D01*
X0132000Y0009300D01*
X0134500Y0011800D01*
X0139500Y0011800D01*
X0142000Y0009300D01*
X0144500Y0011800D01*
X0149500Y0011800D01*
X0152000Y0009300D01*
X0142000Y0009300D02*
X0142000Y0004300D01*
X0132000Y0004300D02*
X0132000Y0009300D01*
X0122000Y0009300D02*
X0119500Y0011800D01*
X0114500Y0011800D01*
X0112000Y0009300D01*
X0109500Y0011800D01*
X0104500Y0011800D01*
X0102000Y0009300D01*
X0099500Y0011800D01*
X0094500Y0011800D01*
X0092000Y0009300D01*
X0092000Y0004300D01*
X0094500Y0001800D01*
X0099500Y0001800D01*
X0102000Y0004300D01*
X0102000Y0009300D01*
X0102000Y0004300D02*
X0104500Y0001800D01*
X0109500Y0001800D01*
X0112000Y0004300D01*
X0112000Y0009300D01*
X0112000Y0004300D02*
X0114500Y0001800D01*
X0119500Y0001800D01*
X0122000Y0004300D01*
X0092000Y0004300D02*
X0089500Y0001800D01*
X0084500Y0001800D01*
X0082000Y0004300D01*
X0079500Y0001800D01*
X0074500Y0001800D01*
X0072000Y0004300D01*
X0069500Y0001800D01*
X0064500Y0001800D01*
X0062000Y0004300D01*
X0062000Y0009300D01*
X0064500Y0011800D01*
X0069500Y0011800D01*
X0072000Y0009300D01*
X0074500Y0011800D01*
X0079500Y0011800D01*
X0082000Y0009300D01*
X0084500Y0011800D01*
X0089500Y0011800D01*
X0092000Y0009300D01*
X0082000Y0009300D02*
X0082000Y0004300D01*
X0072000Y0004300D02*
X0072000Y0009300D01*
X0062000Y0009300D02*
X0059500Y0011800D01*
X0054500Y0011800D01*
X0052000Y0009300D01*
X0049500Y0011800D01*
X0044500Y0011800D01*
X0042000Y0009300D01*
X0039500Y0011800D01*
X0034500Y0011800D01*
X0032000Y0009300D01*
X0032000Y0004300D01*
X0034500Y0001800D01*
X0039500Y0001800D01*
X0042000Y0004300D01*
X0042000Y0009300D01*
X0042000Y0004300D02*
X0044500Y0001800D01*
X0049500Y0001800D01*
X0052000Y0004300D01*
X0052000Y0009300D01*
X0052000Y0004300D02*
X0054500Y0001800D01*
X0059500Y0001800D01*
X0062000Y0004300D01*
X0032000Y0004300D02*
X0029500Y0001800D01*
X0024500Y0001800D01*
X0022000Y0004300D01*
X0019500Y0001800D01*
X0014500Y0001800D01*
X0012000Y0004300D01*
X0009500Y0001800D01*
X0004500Y0001800D01*
X0002000Y0004300D01*
X0002000Y0009300D01*
X0004500Y0011800D01*
X0009500Y0011800D01*
X0012000Y0009300D01*
X0014500Y0011800D01*
X0019500Y0011800D01*
X0022000Y0009300D01*
X0024500Y0011800D01*
X0029500Y0011800D01*
X0032000Y0009300D01*
X0022000Y0009300D02*
X0022000Y0004300D01*
X0012000Y0004300D02*
X0012000Y0009300D01*
D22*
X0014500Y0068800D03*
X0019500Y0068800D03*
X0054500Y0068800D03*
X0059500Y0068800D03*
D23*
X0059701Y0065102D02*
X0058600Y0065102D01*
X0058600Y0062900D01*
X0058600Y0063634D02*
X0059701Y0063634D01*
X0060068Y0064001D01*
X0060068Y0064735D01*
X0059701Y0065102D01*
X0060810Y0064735D02*
X0061177Y0065102D01*
X0061911Y0065102D01*
X0062278Y0064735D01*
X0062278Y0064368D01*
X0060810Y0062900D01*
X0062278Y0062900D01*
X0060068Y0062900D02*
X0059334Y0063634D01*
X0015278Y0062900D02*
X0013810Y0062900D01*
X0014544Y0062900D02*
X0014544Y0065102D01*
X0013810Y0064368D01*
X0013068Y0064735D02*
X0013068Y0064001D01*
X0012701Y0063634D01*
X0011600Y0063634D01*
X0012334Y0063634D02*
X0013068Y0062900D01*
X0011600Y0062900D02*
X0011600Y0065102D01*
X0012701Y0065102D01*
X0013068Y0064735D01*
X0166424Y0064885D02*
X0166424Y0063050D01*
X0166791Y0062683D01*
X0167525Y0062683D01*
X0167892Y0063050D01*
X0167892Y0064885D01*
X0168634Y0064151D02*
X0169367Y0064885D01*
X0169367Y0062683D01*
X0168634Y0062683D02*
X0170101Y0062683D01*
D24*
X0167666Y0045996D02*
X0167666Y0045096D01*
X0167966Y0045096D02*
X0167365Y0045096D01*
X0167365Y0045696D02*
X0167666Y0045996D01*
D25*
X0167252Y0047089D02*
X0167254Y0047128D01*
X0167260Y0047167D01*
X0167270Y0047205D01*
X0167283Y0047242D01*
X0167300Y0047277D01*
X0167320Y0047311D01*
X0167344Y0047342D01*
X0167371Y0047371D01*
X0167400Y0047397D01*
X0167432Y0047420D01*
X0167466Y0047440D01*
X0167502Y0047456D01*
X0167539Y0047468D01*
X0167578Y0047477D01*
X0167617Y0047482D01*
X0167656Y0047483D01*
X0167695Y0047480D01*
X0167734Y0047473D01*
X0167771Y0047462D01*
X0167808Y0047448D01*
X0167843Y0047430D01*
X0167876Y0047409D01*
X0167907Y0047384D01*
X0167935Y0047357D01*
X0167960Y0047327D01*
X0167982Y0047294D01*
X0168001Y0047260D01*
X0168016Y0047224D01*
X0168028Y0047186D01*
X0168036Y0047148D01*
X0168040Y0047109D01*
X0168040Y0047069D01*
X0168036Y0047030D01*
X0168028Y0046992D01*
X0168016Y0046954D01*
X0168001Y0046918D01*
X0167982Y0046884D01*
X0167960Y0046851D01*
X0167935Y0046821D01*
X0167907Y0046794D01*
X0167876Y0046769D01*
X0167843Y0046748D01*
X0167808Y0046730D01*
X0167771Y0046716D01*
X0167734Y0046705D01*
X0167695Y0046698D01*
X0167656Y0046695D01*
X0167617Y0046696D01*
X0167578Y0046701D01*
X0167539Y0046710D01*
X0167502Y0046722D01*
X0167466Y0046738D01*
X0167432Y0046758D01*
X0167400Y0046781D01*
X0167371Y0046807D01*
X0167344Y0046836D01*
X0167320Y0046867D01*
X0167300Y0046901D01*
X0167283Y0046936D01*
X0167270Y0046973D01*
X0167260Y0047011D01*
X0167254Y0047050D01*
X0167252Y0047089D01*
D26*
X0167000Y0086800D03*
X0157000Y0086800D03*
X0147000Y0086800D03*
X0137000Y0086800D03*
X0127000Y0086800D03*
X0117000Y0086800D03*
X0107000Y0086800D03*
X0097000Y0086800D03*
X0087000Y0086800D03*
X0077000Y0086800D03*
X0067000Y0086800D03*
X0057000Y0086800D03*
X0047000Y0086800D03*
X0037000Y0086800D03*
X0027000Y0086800D03*
X0017000Y0086800D03*
X0007000Y0086800D03*
X0007000Y0006800D03*
X0017000Y0006800D03*
X0027000Y0006800D03*
X0037000Y0006800D03*
X0047000Y0006800D03*
X0057000Y0006800D03*
X0067000Y0006800D03*
X0077000Y0006800D03*
X0087000Y0006800D03*
X0097000Y0006800D03*
X0107000Y0006800D03*
X0117000Y0006800D03*
X0127000Y0006800D03*
X0137000Y0006800D03*
X0147000Y0006800D03*
X0157000Y0006800D03*
X0167000Y0006800D03*
M02*
