G75*
%MOIN*%
%OFA0B0*%
%FSLAX25Y25*%
%IPPOS*%
%LPD*%
%AMOC8*
5,1,8,0,0,1.08239X$1,22.5*
%
%ADD10C,0.00000*%
%ADD11C,0.00300*%
%ADD12C,0.01600*%
%ADD13C,0.00400*%
%ADD14C,0.00600*%
%ADD15C,0.00500*%
%ADD16C,0.00200*%
%ADD17R,0.04000X0.03000*%
%ADD18R,0.04000X0.00200*%
%ADD19R,0.00200X0.02800*%
%ADD20C,0.00250*%
D10*
X0002000Y0001800D02*
X0002000Y0091800D01*
X0172000Y0091800D01*
X0172000Y0001800D01*
X0002000Y0001800D01*
D11*
X0085342Y0034167D02*
X0085959Y0033550D01*
X0087194Y0033550D01*
X0087811Y0034167D01*
X0085342Y0036636D01*
X0085342Y0034167D01*
X0087811Y0034167D02*
X0087811Y0036636D01*
X0087194Y0037253D01*
X0085959Y0037253D01*
X0085342Y0036636D01*
X0089035Y0034167D02*
X0089035Y0033550D01*
X0089652Y0033550D01*
X0089652Y0034167D01*
X0089035Y0034167D01*
X0090867Y0033550D02*
X0093335Y0033550D01*
X0092101Y0033550D02*
X0092101Y0037253D01*
X0093335Y0036019D01*
X0094550Y0036019D02*
X0095784Y0033550D01*
X0097019Y0036019D01*
X0101916Y0036019D02*
X0102533Y0035402D01*
X0104385Y0035402D01*
X0105599Y0036019D02*
X0106216Y0035402D01*
X0108068Y0035402D01*
X0108068Y0037253D02*
X0106216Y0037253D01*
X0105599Y0036636D01*
X0105599Y0036019D01*
X0106216Y0035402D02*
X0105599Y0034784D01*
X0105599Y0034167D01*
X0106216Y0033550D01*
X0108068Y0033550D01*
X0108068Y0037253D01*
X0112966Y0036019D02*
X0115434Y0033550D01*
X0116649Y0033550D02*
X0119117Y0033550D01*
X0116649Y0036019D01*
X0116649Y0036636D01*
X0117266Y0037253D01*
X0118500Y0037253D01*
X0119117Y0036636D01*
X0121566Y0037253D02*
X0121566Y0033550D01*
X0120332Y0033550D02*
X0122801Y0033550D01*
X0124015Y0033550D02*
X0124015Y0037253D01*
X0125249Y0036019D01*
X0126484Y0037253D01*
X0126484Y0033550D01*
X0127698Y0034167D02*
X0127698Y0035402D01*
X0128932Y0035402D01*
X0127698Y0034167D02*
X0128315Y0033550D01*
X0129550Y0033550D01*
X0130167Y0034167D01*
X0130167Y0036636D01*
X0129550Y0037253D01*
X0128315Y0037253D01*
X0127698Y0036636D01*
X0131381Y0036636D02*
X0131381Y0036019D01*
X0131998Y0035402D01*
X0133850Y0035402D01*
X0131998Y0035402D02*
X0131381Y0034784D01*
X0131381Y0034167D01*
X0131998Y0033550D01*
X0133850Y0033550D01*
X0133850Y0037253D01*
X0131998Y0037253D01*
X0131381Y0036636D01*
X0132616Y0031870D02*
X0132616Y0031253D01*
X0132616Y0030019D02*
X0132616Y0026933D01*
X0133233Y0026316D01*
X0133850Y0026316D01*
X0131395Y0028167D02*
X0130777Y0027550D01*
X0129543Y0027550D01*
X0128926Y0028784D02*
X0131395Y0028784D01*
X0131395Y0028167D02*
X0131395Y0029402D01*
X0130777Y0030019D01*
X0129543Y0030019D01*
X0128926Y0029402D01*
X0128926Y0028784D01*
X0127711Y0030019D02*
X0126477Y0030019D01*
X0127094Y0030636D02*
X0127094Y0028167D01*
X0126477Y0027550D01*
X0125256Y0027550D02*
X0125256Y0030019D01*
X0123404Y0030019D01*
X0122787Y0029402D01*
X0122787Y0027550D01*
X0121573Y0028167D02*
X0121573Y0029402D01*
X0120956Y0030019D01*
X0119721Y0030019D01*
X0119104Y0029402D01*
X0119104Y0028784D01*
X0121573Y0028784D01*
X0121573Y0028167D02*
X0120956Y0027550D01*
X0119721Y0027550D01*
X0117890Y0028167D02*
X0117273Y0027550D01*
X0115421Y0027550D01*
X0115421Y0026933D02*
X0116038Y0026316D01*
X0116655Y0026316D01*
X0115421Y0026933D02*
X0115421Y0030019D01*
X0117890Y0030019D02*
X0117890Y0028167D01*
X0114207Y0028167D02*
X0114207Y0027550D01*
X0113589Y0027550D01*
X0113589Y0028167D01*
X0114207Y0028167D01*
X0112365Y0028167D02*
X0111748Y0027550D01*
X0109896Y0027550D01*
X0108682Y0028167D02*
X0108065Y0027550D01*
X0106830Y0027550D01*
X0106213Y0028167D01*
X0106213Y0029402D01*
X0106830Y0030019D01*
X0108065Y0030019D01*
X0108682Y0029402D01*
X0108682Y0028167D01*
X0109896Y0030019D02*
X0111748Y0030019D01*
X0112365Y0029402D01*
X0112365Y0028167D01*
X0104999Y0027550D02*
X0104999Y0030019D01*
X0104382Y0030019D01*
X0103764Y0029402D01*
X0103147Y0030019D01*
X0102530Y0029402D01*
X0102530Y0027550D01*
X0103764Y0027550D02*
X0103764Y0029402D01*
X0104385Y0033550D02*
X0102533Y0033550D01*
X0101916Y0034167D01*
X0101916Y0034784D01*
X0102533Y0035402D01*
X0101916Y0036019D02*
X0101916Y0036636D01*
X0102533Y0037253D01*
X0104385Y0037253D01*
X0104385Y0033550D01*
X0112966Y0033550D02*
X0115434Y0036019D01*
X0121566Y0037253D02*
X0122801Y0036019D01*
D12*
X0162000Y0081800D02*
X0162000Y0091800D01*
X0172000Y0091800D01*
X0172000Y0081800D01*
X0162000Y0081800D01*
D13*
X0052800Y0064002D02*
X0052800Y0062334D01*
X0052466Y0062000D01*
X0051799Y0062000D01*
X0051466Y0062334D01*
X0051466Y0064002D01*
X0050590Y0063668D02*
X0050590Y0063334D01*
X0050257Y0063001D01*
X0049589Y0063001D01*
X0049256Y0062667D01*
X0049256Y0062334D01*
X0049589Y0062000D01*
X0050257Y0062000D01*
X0050590Y0062334D01*
X0050590Y0063668D02*
X0050257Y0064002D01*
X0049589Y0064002D01*
X0049256Y0063668D01*
X0048380Y0064002D02*
X0047379Y0064002D01*
X0047046Y0063668D01*
X0047046Y0063001D01*
X0047379Y0062667D01*
X0048380Y0062667D01*
X0047713Y0062667D02*
X0047046Y0062000D01*
X0048380Y0062000D02*
X0048380Y0064002D01*
X0043960Y0064002D02*
X0043960Y0062000D01*
X0042626Y0062000D01*
X0041751Y0062000D02*
X0040416Y0062000D01*
X0039541Y0062000D02*
X0038540Y0062000D01*
X0038206Y0062334D01*
X0038206Y0063668D01*
X0038540Y0064002D01*
X0039541Y0064002D01*
X0039541Y0062000D01*
X0041083Y0063001D02*
X0041751Y0063001D01*
X0041751Y0064002D02*
X0041751Y0062000D01*
X0041751Y0064002D02*
X0040416Y0064002D01*
X0035800Y0064002D02*
X0035800Y0062000D01*
X0035800Y0062667D02*
X0034799Y0062667D01*
X0034466Y0063001D01*
X0034466Y0063668D01*
X0034799Y0064002D01*
X0035800Y0064002D01*
X0033590Y0064002D02*
X0033590Y0062000D01*
X0032923Y0062667D01*
X0032256Y0062000D01*
X0032256Y0064002D01*
X0031380Y0064002D02*
X0030379Y0064002D01*
X0030046Y0063668D01*
X0030046Y0063001D01*
X0030379Y0062667D01*
X0031380Y0062667D01*
X0030713Y0062667D02*
X0030046Y0062000D01*
X0031380Y0062000D02*
X0031380Y0064002D01*
X0026960Y0064002D02*
X0026960Y0062000D01*
X0025626Y0062000D01*
X0024751Y0062000D02*
X0023416Y0062000D01*
X0022541Y0062000D02*
X0021540Y0062000D01*
X0021206Y0062334D01*
X0021206Y0063668D01*
X0021540Y0064002D01*
X0022541Y0064002D01*
X0022541Y0062000D01*
X0024083Y0063001D02*
X0024751Y0063001D01*
X0024751Y0064002D02*
X0023416Y0064002D01*
X0024751Y0064002D02*
X0024751Y0062000D01*
D14*
X0024500Y0064800D02*
X0035500Y0064800D01*
X0035560Y0064802D01*
X0035621Y0064807D01*
X0035680Y0064816D01*
X0035739Y0064829D01*
X0035798Y0064845D01*
X0035855Y0064865D01*
X0035910Y0064888D01*
X0035965Y0064915D01*
X0036017Y0064944D01*
X0036068Y0064977D01*
X0036117Y0065013D01*
X0036163Y0065051D01*
X0036207Y0065093D01*
X0036249Y0065137D01*
X0036287Y0065183D01*
X0036323Y0065232D01*
X0036356Y0065283D01*
X0036385Y0065335D01*
X0036412Y0065390D01*
X0036435Y0065445D01*
X0036455Y0065502D01*
X0036471Y0065561D01*
X0036484Y0065620D01*
X0036493Y0065679D01*
X0036498Y0065740D01*
X0036500Y0065800D01*
X0036500Y0071800D01*
X0036498Y0071860D01*
X0036493Y0071921D01*
X0036484Y0071980D01*
X0036471Y0072039D01*
X0036455Y0072098D01*
X0036435Y0072155D01*
X0036412Y0072210D01*
X0036385Y0072265D01*
X0036356Y0072317D01*
X0036323Y0072368D01*
X0036287Y0072417D01*
X0036249Y0072463D01*
X0036207Y0072507D01*
X0036163Y0072549D01*
X0036117Y0072587D01*
X0036068Y0072623D01*
X0036017Y0072656D01*
X0035965Y0072685D01*
X0035910Y0072712D01*
X0035855Y0072735D01*
X0035798Y0072755D01*
X0035739Y0072771D01*
X0035680Y0072784D01*
X0035621Y0072793D01*
X0035560Y0072798D01*
X0035500Y0072800D01*
X0024500Y0072800D01*
X0024440Y0072798D01*
X0024379Y0072793D01*
X0024320Y0072784D01*
X0024261Y0072771D01*
X0024202Y0072755D01*
X0024145Y0072735D01*
X0024090Y0072712D01*
X0024035Y0072685D01*
X0023983Y0072656D01*
X0023932Y0072623D01*
X0023883Y0072587D01*
X0023837Y0072549D01*
X0023793Y0072507D01*
X0023751Y0072463D01*
X0023713Y0072417D01*
X0023677Y0072368D01*
X0023644Y0072317D01*
X0023615Y0072265D01*
X0023588Y0072210D01*
X0023565Y0072155D01*
X0023545Y0072098D01*
X0023529Y0072039D01*
X0023516Y0071980D01*
X0023507Y0071921D01*
X0023502Y0071860D01*
X0023500Y0071800D01*
X0023500Y0065800D01*
X0023502Y0065740D01*
X0023507Y0065679D01*
X0023516Y0065620D01*
X0023529Y0065561D01*
X0023545Y0065502D01*
X0023565Y0065445D01*
X0023588Y0065390D01*
X0023615Y0065335D01*
X0023644Y0065283D01*
X0023677Y0065232D01*
X0023713Y0065183D01*
X0023751Y0065137D01*
X0023793Y0065093D01*
X0023837Y0065051D01*
X0023883Y0065013D01*
X0023932Y0064977D01*
X0023983Y0064944D01*
X0024035Y0064915D01*
X0024090Y0064888D01*
X0024145Y0064865D01*
X0024202Y0064845D01*
X0024261Y0064829D01*
X0024320Y0064816D01*
X0024379Y0064807D01*
X0024440Y0064802D01*
X0024500Y0064800D01*
X0024000Y0068800D02*
X0026000Y0068800D01*
X0034000Y0068800D02*
X0036000Y0068800D01*
X0038000Y0068800D02*
X0040000Y0068800D01*
X0037500Y0065800D02*
X0037502Y0065740D01*
X0037507Y0065679D01*
X0037516Y0065620D01*
X0037529Y0065561D01*
X0037545Y0065502D01*
X0037565Y0065445D01*
X0037588Y0065390D01*
X0037615Y0065335D01*
X0037644Y0065283D01*
X0037677Y0065232D01*
X0037713Y0065183D01*
X0037751Y0065137D01*
X0037793Y0065093D01*
X0037837Y0065051D01*
X0037883Y0065013D01*
X0037932Y0064977D01*
X0037983Y0064944D01*
X0038035Y0064915D01*
X0038090Y0064888D01*
X0038145Y0064865D01*
X0038202Y0064845D01*
X0038261Y0064829D01*
X0038320Y0064816D01*
X0038379Y0064807D01*
X0038440Y0064802D01*
X0038500Y0064800D01*
X0049500Y0064800D01*
X0049560Y0064802D01*
X0049621Y0064807D01*
X0049680Y0064816D01*
X0049739Y0064829D01*
X0049798Y0064845D01*
X0049855Y0064865D01*
X0049910Y0064888D01*
X0049965Y0064915D01*
X0050017Y0064944D01*
X0050068Y0064977D01*
X0050117Y0065013D01*
X0050163Y0065051D01*
X0050207Y0065093D01*
X0050249Y0065137D01*
X0050287Y0065183D01*
X0050323Y0065232D01*
X0050356Y0065283D01*
X0050385Y0065335D01*
X0050412Y0065390D01*
X0050435Y0065445D01*
X0050455Y0065502D01*
X0050471Y0065561D01*
X0050484Y0065620D01*
X0050493Y0065679D01*
X0050498Y0065740D01*
X0050500Y0065800D01*
X0050500Y0071800D01*
X0050498Y0071860D01*
X0050493Y0071921D01*
X0050484Y0071980D01*
X0050471Y0072039D01*
X0050455Y0072098D01*
X0050435Y0072155D01*
X0050412Y0072210D01*
X0050385Y0072265D01*
X0050356Y0072317D01*
X0050323Y0072368D01*
X0050287Y0072417D01*
X0050249Y0072463D01*
X0050207Y0072507D01*
X0050163Y0072549D01*
X0050117Y0072587D01*
X0050068Y0072623D01*
X0050017Y0072656D01*
X0049965Y0072685D01*
X0049910Y0072712D01*
X0049855Y0072735D01*
X0049798Y0072755D01*
X0049739Y0072771D01*
X0049680Y0072784D01*
X0049621Y0072793D01*
X0049560Y0072798D01*
X0049500Y0072800D01*
X0038500Y0072800D01*
X0038440Y0072798D01*
X0038379Y0072793D01*
X0038320Y0072784D01*
X0038261Y0072771D01*
X0038202Y0072755D01*
X0038145Y0072735D01*
X0038090Y0072712D01*
X0038035Y0072685D01*
X0037983Y0072656D01*
X0037932Y0072623D01*
X0037883Y0072587D01*
X0037837Y0072549D01*
X0037793Y0072507D01*
X0037751Y0072463D01*
X0037713Y0072417D01*
X0037677Y0072368D01*
X0037644Y0072317D01*
X0037615Y0072265D01*
X0037588Y0072210D01*
X0037565Y0072155D01*
X0037545Y0072098D01*
X0037529Y0072039D01*
X0037516Y0071980D01*
X0037507Y0071921D01*
X0037502Y0071860D01*
X0037500Y0071800D01*
X0037500Y0065800D01*
X0048000Y0068800D02*
X0050000Y0068800D01*
X0111900Y0045000D02*
X0111900Y0043700D01*
X0113300Y0043400D01*
X0113900Y0042100D01*
X0113000Y0040800D01*
X0113900Y0039900D01*
X0115100Y0040700D01*
X0115700Y0040400D01*
X0116600Y0042700D01*
X0116000Y0042400D02*
X0115000Y0044400D01*
X0116000Y0045900D01*
X0117500Y0046400D01*
X0119000Y0045900D01*
X0119500Y0044400D01*
X0119000Y0042900D01*
X0118500Y0042400D01*
X0119500Y0040900D01*
X0121000Y0040400D01*
X0121500Y0040900D01*
X0120500Y0042400D01*
X0121500Y0043900D01*
X0122500Y0043900D01*
X0122500Y0044900D01*
X0121000Y0044900D01*
X0120500Y0046400D01*
X0121500Y0047900D01*
X0121000Y0048400D01*
X0119500Y0047400D01*
X0118000Y0048400D01*
X0118000Y0049400D01*
X0117000Y0049400D01*
X0116500Y0047900D01*
X0115000Y0047400D01*
X0114000Y0048400D01*
X0113500Y0047900D01*
X0114000Y0046400D01*
X0113500Y0044900D01*
X0112000Y0044900D01*
X0112500Y0043900D01*
X0114000Y0043400D01*
X0114000Y0041900D01*
X0113500Y0040900D01*
X0114000Y0040400D01*
X0115000Y0040900D01*
X0115500Y0040900D01*
X0116000Y0042400D01*
X0115951Y0042499D02*
X0114000Y0042499D01*
X0114000Y0043097D02*
X0115651Y0043097D01*
X0115352Y0043696D02*
X0113113Y0043696D01*
X0112303Y0044294D02*
X0115053Y0044294D01*
X0115329Y0044893D02*
X0112004Y0044893D01*
X0111900Y0045000D02*
X0113400Y0045300D01*
X0113900Y0046500D01*
X0113000Y0047800D01*
X0113900Y0048700D01*
X0115300Y0047800D01*
X0116500Y0048300D01*
X0116800Y0049900D01*
X0118100Y0049900D01*
X0118400Y0048300D01*
X0119600Y0047800D01*
X0120900Y0048700D01*
X0121800Y0047800D01*
X0120900Y0046500D01*
X0121500Y0045200D01*
X0123000Y0045000D01*
X0123000Y0043700D01*
X0121500Y0043400D01*
X0121000Y0042100D01*
X0121800Y0040800D01*
X0120900Y0039900D01*
X0119700Y0040700D01*
X0119200Y0040400D01*
X0118200Y0042700D01*
X0118599Y0042499D02*
X0120566Y0042499D01*
X0120833Y0041900D02*
X0118833Y0041900D01*
X0119232Y0041302D02*
X0121232Y0041302D01*
X0121303Y0040703D02*
X0120090Y0040703D01*
X0115833Y0041900D02*
X0114000Y0041900D01*
X0113701Y0041302D02*
X0115634Y0041302D01*
X0114606Y0040703D02*
X0113697Y0040703D01*
X0119066Y0043097D02*
X0120965Y0043097D01*
X0121364Y0043696D02*
X0119265Y0043696D01*
X0119465Y0044294D02*
X0122500Y0044294D01*
X0122500Y0044893D02*
X0119336Y0044893D01*
X0119136Y0045491D02*
X0120803Y0045491D01*
X0120603Y0046090D02*
X0118430Y0046090D01*
X0120692Y0046688D02*
X0113904Y0046688D01*
X0113897Y0046090D02*
X0116570Y0046090D01*
X0115728Y0045491D02*
X0113697Y0045491D01*
X0113704Y0047287D02*
X0121091Y0047287D01*
X0121490Y0047885D02*
X0120228Y0047885D01*
X0118772Y0047885D02*
X0116456Y0047885D01*
X0116695Y0048484D02*
X0118000Y0048484D01*
X0118000Y0049082D02*
X0116894Y0049082D01*
X0114515Y0047885D02*
X0113505Y0047885D01*
X0116600Y0042700D02*
X0116526Y0042739D01*
X0116453Y0042782D01*
X0116383Y0042828D01*
X0116315Y0042878D01*
X0116249Y0042930D01*
X0116186Y0042986D01*
X0116126Y0043044D01*
X0116068Y0043105D01*
X0116014Y0043169D01*
X0115962Y0043235D01*
X0115914Y0043304D01*
X0115869Y0043375D01*
X0115827Y0043448D01*
X0115789Y0043523D01*
X0115754Y0043599D01*
X0115723Y0043677D01*
X0115695Y0043757D01*
X0115672Y0043838D01*
X0115652Y0043919D01*
X0115636Y0044002D01*
X0115624Y0044085D01*
X0115616Y0044169D01*
X0115612Y0044252D01*
X0115611Y0044337D01*
X0115615Y0044420D01*
X0115623Y0044504D01*
X0115634Y0044587D01*
X0115650Y0044670D01*
X0115669Y0044752D01*
X0115692Y0044833D01*
X0115719Y0044912D01*
X0115750Y0044991D01*
X0115784Y0045067D01*
X0115822Y0045142D01*
X0115863Y0045215D01*
X0115908Y0045287D01*
X0115956Y0045356D01*
X0116007Y0045422D01*
X0116061Y0045487D01*
X0116118Y0045548D01*
X0116178Y0045607D01*
X0116241Y0045663D01*
X0116306Y0045716D01*
X0116374Y0045766D01*
X0116444Y0045812D01*
X0116516Y0045855D01*
X0116590Y0045895D01*
X0116666Y0045931D01*
X0116743Y0045964D01*
X0116822Y0045993D01*
X0116902Y0046018D01*
X0116984Y0046040D01*
X0117066Y0046058D01*
X0117149Y0046071D01*
X0117232Y0046081D01*
X0117316Y0046087D01*
X0117400Y0046089D01*
X0117484Y0046087D01*
X0117568Y0046081D01*
X0117651Y0046071D01*
X0117734Y0046058D01*
X0117816Y0046040D01*
X0117898Y0046018D01*
X0117978Y0045993D01*
X0118057Y0045964D01*
X0118134Y0045931D01*
X0118210Y0045895D01*
X0118284Y0045855D01*
X0118356Y0045812D01*
X0118426Y0045766D01*
X0118494Y0045716D01*
X0118559Y0045663D01*
X0118622Y0045607D01*
X0118682Y0045548D01*
X0118739Y0045487D01*
X0118793Y0045422D01*
X0118844Y0045356D01*
X0118892Y0045287D01*
X0118937Y0045215D01*
X0118978Y0045142D01*
X0119016Y0045067D01*
X0119050Y0044991D01*
X0119081Y0044912D01*
X0119108Y0044833D01*
X0119131Y0044752D01*
X0119150Y0044670D01*
X0119166Y0044587D01*
X0119177Y0044504D01*
X0119185Y0044420D01*
X0119189Y0044337D01*
X0119188Y0044252D01*
X0119184Y0044169D01*
X0119176Y0044085D01*
X0119164Y0044002D01*
X0119148Y0043919D01*
X0119128Y0043838D01*
X0119105Y0043757D01*
X0119077Y0043677D01*
X0119046Y0043599D01*
X0119011Y0043523D01*
X0118973Y0043448D01*
X0118931Y0043375D01*
X0118886Y0043304D01*
X0118838Y0043235D01*
X0118786Y0043169D01*
X0118732Y0043105D01*
X0118674Y0043044D01*
X0118614Y0042986D01*
X0118551Y0042930D01*
X0118485Y0042878D01*
X0118417Y0042828D01*
X0118347Y0042782D01*
X0118274Y0042739D01*
X0118200Y0042700D01*
D15*
X0045249Y0066062D02*
X0045001Y0068800D01*
X0045001Y0068800D01*
X0045249Y0071538D01*
X0045250Y0071539D01*
X0045353Y0071527D01*
X0045457Y0071512D01*
X0045559Y0071493D01*
X0045661Y0071469D01*
X0045762Y0071442D01*
X0045861Y0071412D01*
X0045960Y0071377D01*
X0046057Y0071339D01*
X0046152Y0071297D01*
X0046246Y0071251D01*
X0046338Y0071202D01*
X0046429Y0071150D01*
X0046517Y0071094D01*
X0046603Y0071035D01*
X0046686Y0070972D01*
X0046767Y0070907D01*
X0046846Y0070838D01*
X0046922Y0070767D01*
X0046995Y0070692D01*
X0047066Y0070615D01*
X0047133Y0070536D01*
X0047197Y0070453D01*
X0047259Y0070369D01*
X0047316Y0070282D01*
X0047371Y0070193D01*
X0047422Y0070102D01*
X0047470Y0070009D01*
X0047514Y0069915D01*
X0047554Y0069819D01*
X0047591Y0069721D01*
X0047624Y0069622D01*
X0047654Y0069522D01*
X0047679Y0069421D01*
X0047701Y0069319D01*
X0047718Y0069216D01*
X0047732Y0069112D01*
X0047742Y0069009D01*
X0047748Y0068904D01*
X0047750Y0068800D01*
X0047748Y0068696D01*
X0047742Y0068591D01*
X0047732Y0068488D01*
X0047718Y0068384D01*
X0047701Y0068281D01*
X0047679Y0068179D01*
X0047654Y0068078D01*
X0047624Y0067978D01*
X0047591Y0067879D01*
X0047554Y0067781D01*
X0047514Y0067685D01*
X0047470Y0067591D01*
X0047422Y0067498D01*
X0047371Y0067407D01*
X0047316Y0067318D01*
X0047259Y0067231D01*
X0047197Y0067147D01*
X0047133Y0067064D01*
X0047066Y0066985D01*
X0046995Y0066908D01*
X0046922Y0066833D01*
X0046846Y0066762D01*
X0046767Y0066693D01*
X0046686Y0066628D01*
X0046603Y0066565D01*
X0046517Y0066506D01*
X0046429Y0066450D01*
X0046338Y0066398D01*
X0046246Y0066349D01*
X0046152Y0066303D01*
X0046057Y0066261D01*
X0045960Y0066223D01*
X0045861Y0066188D01*
X0045762Y0066158D01*
X0045661Y0066131D01*
X0045559Y0066107D01*
X0045457Y0066088D01*
X0045353Y0066073D01*
X0045250Y0066061D01*
X0045249Y0066538D01*
X0045344Y0066550D01*
X0045437Y0066566D01*
X0045530Y0066587D01*
X0045622Y0066611D01*
X0045713Y0066639D01*
X0045802Y0066670D01*
X0045891Y0066705D01*
X0045977Y0066744D01*
X0046062Y0066787D01*
X0046145Y0066833D01*
X0046226Y0066883D01*
X0046305Y0066935D01*
X0046382Y0066992D01*
X0046456Y0067051D01*
X0046528Y0067113D01*
X0046597Y0067178D01*
X0046663Y0067246D01*
X0046727Y0067317D01*
X0046787Y0067390D01*
X0046844Y0067466D01*
X0046898Y0067544D01*
X0046949Y0067625D01*
X0046996Y0067707D01*
X0047040Y0067791D01*
X0047081Y0067877D01*
X0047117Y0067965D01*
X0047150Y0068054D01*
X0047180Y0068144D01*
X0047205Y0068236D01*
X0047227Y0068328D01*
X0047244Y0068422D01*
X0047258Y0068516D01*
X0047268Y0068610D01*
X0047274Y0068705D01*
X0047276Y0068800D01*
X0047274Y0068895D01*
X0047268Y0068990D01*
X0047258Y0069084D01*
X0047244Y0069178D01*
X0047227Y0069272D01*
X0047205Y0069364D01*
X0047180Y0069456D01*
X0047150Y0069546D01*
X0047117Y0069635D01*
X0047081Y0069723D01*
X0047040Y0069809D01*
X0046996Y0069893D01*
X0046949Y0069975D01*
X0046898Y0070056D01*
X0046844Y0070134D01*
X0046787Y0070210D01*
X0046727Y0070283D01*
X0046663Y0070354D01*
X0046597Y0070422D01*
X0046528Y0070487D01*
X0046456Y0070549D01*
X0046382Y0070608D01*
X0046305Y0070665D01*
X0046226Y0070717D01*
X0046145Y0070767D01*
X0046062Y0070813D01*
X0045977Y0070856D01*
X0045891Y0070895D01*
X0045802Y0070930D01*
X0045713Y0070961D01*
X0045622Y0070989D01*
X0045530Y0071013D01*
X0045437Y0071034D01*
X0045344Y0071050D01*
X0045249Y0071062D01*
X0045249Y0070585D01*
X0045331Y0070571D01*
X0045413Y0070554D01*
X0045493Y0070533D01*
X0045573Y0070509D01*
X0045651Y0070480D01*
X0045728Y0070448D01*
X0045803Y0070413D01*
X0045877Y0070374D01*
X0045949Y0070332D01*
X0046019Y0070287D01*
X0046086Y0070238D01*
X0046151Y0070186D01*
X0046214Y0070132D01*
X0046274Y0070074D01*
X0046332Y0070014D01*
X0046386Y0069951D01*
X0046438Y0069886D01*
X0046487Y0069818D01*
X0046532Y0069749D01*
X0046574Y0069677D01*
X0046613Y0069603D01*
X0046648Y0069528D01*
X0046680Y0069451D01*
X0046709Y0069373D01*
X0046733Y0069293D01*
X0046754Y0069213D01*
X0046771Y0069131D01*
X0046785Y0069049D01*
X0046794Y0068966D01*
X0046800Y0068883D01*
X0046802Y0068800D01*
X0046800Y0068717D01*
X0046794Y0068634D01*
X0046785Y0068551D01*
X0046771Y0068469D01*
X0046754Y0068387D01*
X0046733Y0068307D01*
X0046709Y0068227D01*
X0046680Y0068149D01*
X0046648Y0068072D01*
X0046613Y0067997D01*
X0046574Y0067923D01*
X0046532Y0067851D01*
X0046487Y0067782D01*
X0046438Y0067714D01*
X0046386Y0067649D01*
X0046332Y0067586D01*
X0046274Y0067526D01*
X0046214Y0067468D01*
X0046151Y0067414D01*
X0046086Y0067362D01*
X0046019Y0067313D01*
X0045949Y0067268D01*
X0045877Y0067226D01*
X0045803Y0067187D01*
X0045728Y0067152D01*
X0045651Y0067120D01*
X0045573Y0067091D01*
X0045493Y0067067D01*
X0045413Y0067046D01*
X0045331Y0067029D01*
X0045249Y0067015D01*
X0045249Y0067495D01*
X0045319Y0067511D01*
X0045388Y0067530D01*
X0045456Y0067553D01*
X0045523Y0067579D01*
X0045589Y0067610D01*
X0045652Y0067643D01*
X0045714Y0067680D01*
X0045774Y0067721D01*
X0045831Y0067764D01*
X0045886Y0067811D01*
X0045938Y0067860D01*
X0045988Y0067912D01*
X0046035Y0067967D01*
X0046078Y0068025D01*
X0046119Y0068084D01*
X0046156Y0068146D01*
X0046189Y0068209D01*
X0046220Y0068275D01*
X0046246Y0068342D01*
X0046269Y0068410D01*
X0046289Y0068479D01*
X0046304Y0068550D01*
X0046316Y0068621D01*
X0046324Y0068692D01*
X0046328Y0068764D01*
X0046328Y0068836D01*
X0046324Y0068908D01*
X0046316Y0068979D01*
X0046304Y0069050D01*
X0046289Y0069121D01*
X0046269Y0069190D01*
X0046246Y0069258D01*
X0046220Y0069325D01*
X0046189Y0069391D01*
X0046156Y0069454D01*
X0046119Y0069516D01*
X0046078Y0069575D01*
X0046035Y0069633D01*
X0045988Y0069688D01*
X0045938Y0069740D01*
X0045886Y0069789D01*
X0045831Y0069836D01*
X0045774Y0069879D01*
X0045714Y0069920D01*
X0045652Y0069957D01*
X0045589Y0069990D01*
X0045523Y0070021D01*
X0045456Y0070047D01*
X0045388Y0070070D01*
X0045319Y0070089D01*
X0045249Y0070105D01*
X0045246Y0069618D01*
X0045301Y0069599D01*
X0045354Y0069577D01*
X0045405Y0069552D01*
X0045455Y0069523D01*
X0045502Y0069491D01*
X0045548Y0069455D01*
X0045591Y0069417D01*
X0045631Y0069376D01*
X0045668Y0069332D01*
X0045702Y0069286D01*
X0045733Y0069238D01*
X0045761Y0069187D01*
X0045785Y0069135D01*
X0045806Y0069082D01*
X0045823Y0069027D01*
X0045837Y0068971D01*
X0045846Y0068915D01*
X0045852Y0068857D01*
X0045854Y0068800D01*
X0045852Y0068743D01*
X0045846Y0068685D01*
X0045837Y0068629D01*
X0045823Y0068573D01*
X0045806Y0068518D01*
X0045785Y0068465D01*
X0045761Y0068413D01*
X0045733Y0068362D01*
X0045702Y0068314D01*
X0045668Y0068268D01*
X0045631Y0068224D01*
X0045591Y0068183D01*
X0045548Y0068145D01*
X0045502Y0068109D01*
X0045455Y0068077D01*
X0045405Y0068048D01*
X0045354Y0068023D01*
X0045301Y0068001D01*
X0045246Y0067982D01*
X0045232Y0068499D01*
X0045260Y0068523D01*
X0045286Y0068549D01*
X0045308Y0068578D01*
X0045328Y0068608D01*
X0045345Y0068641D01*
X0045359Y0068675D01*
X0045369Y0068710D01*
X0045376Y0068745D01*
X0045380Y0068782D01*
X0045380Y0068818D01*
X0045376Y0068855D01*
X0045369Y0068890D01*
X0045359Y0068925D01*
X0045345Y0068959D01*
X0045328Y0068992D01*
X0045308Y0069022D01*
X0045286Y0069051D01*
X0045260Y0069077D01*
X0045232Y0069101D01*
X0042751Y0071538D02*
X0042999Y0068800D01*
X0042999Y0068800D01*
X0042751Y0066062D01*
X0042750Y0066061D01*
X0042647Y0066073D01*
X0042543Y0066088D01*
X0042441Y0066107D01*
X0042339Y0066131D01*
X0042238Y0066158D01*
X0042139Y0066188D01*
X0042040Y0066223D01*
X0041943Y0066261D01*
X0041848Y0066303D01*
X0041754Y0066349D01*
X0041662Y0066398D01*
X0041571Y0066450D01*
X0041483Y0066506D01*
X0041397Y0066565D01*
X0041314Y0066628D01*
X0041233Y0066693D01*
X0041154Y0066762D01*
X0041078Y0066833D01*
X0041005Y0066908D01*
X0040934Y0066985D01*
X0040867Y0067064D01*
X0040803Y0067147D01*
X0040741Y0067231D01*
X0040684Y0067318D01*
X0040629Y0067407D01*
X0040578Y0067498D01*
X0040530Y0067591D01*
X0040486Y0067685D01*
X0040446Y0067781D01*
X0040409Y0067879D01*
X0040376Y0067978D01*
X0040346Y0068078D01*
X0040321Y0068179D01*
X0040299Y0068281D01*
X0040282Y0068384D01*
X0040268Y0068488D01*
X0040258Y0068591D01*
X0040252Y0068696D01*
X0040250Y0068800D01*
X0040252Y0068904D01*
X0040258Y0069009D01*
X0040268Y0069112D01*
X0040282Y0069216D01*
X0040299Y0069319D01*
X0040321Y0069421D01*
X0040346Y0069522D01*
X0040376Y0069622D01*
X0040409Y0069721D01*
X0040446Y0069819D01*
X0040486Y0069915D01*
X0040530Y0070009D01*
X0040578Y0070102D01*
X0040629Y0070193D01*
X0040684Y0070282D01*
X0040741Y0070369D01*
X0040803Y0070453D01*
X0040867Y0070536D01*
X0040934Y0070615D01*
X0041005Y0070692D01*
X0041078Y0070767D01*
X0041154Y0070838D01*
X0041233Y0070907D01*
X0041314Y0070972D01*
X0041397Y0071035D01*
X0041483Y0071094D01*
X0041571Y0071150D01*
X0041662Y0071202D01*
X0041754Y0071251D01*
X0041848Y0071297D01*
X0041943Y0071339D01*
X0042040Y0071377D01*
X0042139Y0071412D01*
X0042238Y0071442D01*
X0042339Y0071469D01*
X0042441Y0071493D01*
X0042543Y0071512D01*
X0042647Y0071527D01*
X0042750Y0071539D01*
X0042751Y0071062D01*
X0042656Y0071050D01*
X0042563Y0071034D01*
X0042470Y0071013D01*
X0042378Y0070989D01*
X0042287Y0070961D01*
X0042198Y0070930D01*
X0042109Y0070895D01*
X0042023Y0070856D01*
X0041938Y0070813D01*
X0041855Y0070767D01*
X0041774Y0070717D01*
X0041695Y0070665D01*
X0041618Y0070608D01*
X0041544Y0070549D01*
X0041472Y0070487D01*
X0041403Y0070422D01*
X0041337Y0070354D01*
X0041273Y0070283D01*
X0041213Y0070210D01*
X0041156Y0070134D01*
X0041102Y0070056D01*
X0041051Y0069975D01*
X0041004Y0069893D01*
X0040960Y0069809D01*
X0040919Y0069723D01*
X0040883Y0069635D01*
X0040850Y0069546D01*
X0040820Y0069456D01*
X0040795Y0069364D01*
X0040773Y0069272D01*
X0040756Y0069178D01*
X0040742Y0069084D01*
X0040732Y0068990D01*
X0040726Y0068895D01*
X0040724Y0068800D01*
X0040726Y0068705D01*
X0040732Y0068610D01*
X0040742Y0068516D01*
X0040756Y0068422D01*
X0040773Y0068328D01*
X0040795Y0068236D01*
X0040820Y0068144D01*
X0040850Y0068054D01*
X0040883Y0067965D01*
X0040919Y0067877D01*
X0040960Y0067791D01*
X0041004Y0067707D01*
X0041051Y0067625D01*
X0041102Y0067544D01*
X0041156Y0067466D01*
X0041213Y0067390D01*
X0041273Y0067317D01*
X0041337Y0067246D01*
X0041403Y0067178D01*
X0041472Y0067113D01*
X0041544Y0067051D01*
X0041618Y0066992D01*
X0041695Y0066935D01*
X0041774Y0066883D01*
X0041855Y0066833D01*
X0041938Y0066787D01*
X0042023Y0066744D01*
X0042109Y0066705D01*
X0042198Y0066670D01*
X0042287Y0066639D01*
X0042378Y0066611D01*
X0042470Y0066587D01*
X0042563Y0066566D01*
X0042656Y0066550D01*
X0042751Y0066538D01*
X0042751Y0067015D01*
X0042669Y0067029D01*
X0042587Y0067046D01*
X0042507Y0067067D01*
X0042427Y0067091D01*
X0042349Y0067120D01*
X0042272Y0067152D01*
X0042197Y0067187D01*
X0042123Y0067226D01*
X0042051Y0067268D01*
X0041981Y0067313D01*
X0041914Y0067362D01*
X0041849Y0067414D01*
X0041786Y0067468D01*
X0041726Y0067526D01*
X0041668Y0067586D01*
X0041614Y0067649D01*
X0041562Y0067714D01*
X0041513Y0067782D01*
X0041468Y0067851D01*
X0041426Y0067923D01*
X0041387Y0067997D01*
X0041352Y0068072D01*
X0041320Y0068149D01*
X0041291Y0068227D01*
X0041267Y0068307D01*
X0041246Y0068387D01*
X0041229Y0068469D01*
X0041215Y0068551D01*
X0041206Y0068634D01*
X0041200Y0068717D01*
X0041198Y0068800D01*
X0041200Y0068883D01*
X0041206Y0068966D01*
X0041215Y0069049D01*
X0041229Y0069131D01*
X0041246Y0069213D01*
X0041267Y0069293D01*
X0041291Y0069373D01*
X0041320Y0069451D01*
X0041352Y0069528D01*
X0041387Y0069603D01*
X0041426Y0069677D01*
X0041468Y0069749D01*
X0041513Y0069818D01*
X0041562Y0069886D01*
X0041614Y0069951D01*
X0041668Y0070014D01*
X0041726Y0070074D01*
X0041786Y0070132D01*
X0041849Y0070186D01*
X0041914Y0070238D01*
X0041981Y0070287D01*
X0042051Y0070332D01*
X0042123Y0070374D01*
X0042197Y0070413D01*
X0042272Y0070448D01*
X0042349Y0070480D01*
X0042427Y0070509D01*
X0042507Y0070533D01*
X0042587Y0070554D01*
X0042669Y0070571D01*
X0042751Y0070585D01*
X0042751Y0070105D01*
X0042681Y0070089D01*
X0042612Y0070070D01*
X0042544Y0070047D01*
X0042477Y0070021D01*
X0042411Y0069990D01*
X0042348Y0069957D01*
X0042286Y0069920D01*
X0042226Y0069879D01*
X0042169Y0069836D01*
X0042114Y0069789D01*
X0042062Y0069740D01*
X0042012Y0069688D01*
X0041965Y0069633D01*
X0041922Y0069575D01*
X0041881Y0069516D01*
X0041844Y0069454D01*
X0041811Y0069391D01*
X0041780Y0069325D01*
X0041754Y0069258D01*
X0041731Y0069190D01*
X0041711Y0069121D01*
X0041696Y0069050D01*
X0041684Y0068979D01*
X0041676Y0068908D01*
X0041672Y0068836D01*
X0041672Y0068764D01*
X0041676Y0068692D01*
X0041684Y0068621D01*
X0041696Y0068550D01*
X0041711Y0068479D01*
X0041731Y0068410D01*
X0041754Y0068342D01*
X0041780Y0068275D01*
X0041811Y0068209D01*
X0041844Y0068146D01*
X0041881Y0068084D01*
X0041922Y0068025D01*
X0041965Y0067967D01*
X0042012Y0067912D01*
X0042062Y0067860D01*
X0042114Y0067811D01*
X0042169Y0067764D01*
X0042226Y0067721D01*
X0042286Y0067680D01*
X0042348Y0067643D01*
X0042411Y0067610D01*
X0042477Y0067579D01*
X0042544Y0067553D01*
X0042612Y0067530D01*
X0042681Y0067511D01*
X0042751Y0067495D01*
X0042754Y0067982D01*
X0042699Y0068001D01*
X0042646Y0068023D01*
X0042595Y0068048D01*
X0042545Y0068077D01*
X0042498Y0068109D01*
X0042452Y0068145D01*
X0042409Y0068183D01*
X0042369Y0068224D01*
X0042332Y0068268D01*
X0042298Y0068314D01*
X0042267Y0068362D01*
X0042239Y0068413D01*
X0042215Y0068465D01*
X0042194Y0068518D01*
X0042177Y0068573D01*
X0042163Y0068629D01*
X0042154Y0068685D01*
X0042148Y0068743D01*
X0042146Y0068800D01*
X0042148Y0068857D01*
X0042154Y0068915D01*
X0042163Y0068971D01*
X0042177Y0069027D01*
X0042194Y0069082D01*
X0042215Y0069135D01*
X0042239Y0069187D01*
X0042267Y0069238D01*
X0042298Y0069286D01*
X0042332Y0069332D01*
X0042369Y0069376D01*
X0042409Y0069417D01*
X0042452Y0069455D01*
X0042498Y0069491D01*
X0042545Y0069523D01*
X0042595Y0069552D01*
X0042646Y0069577D01*
X0042699Y0069599D01*
X0042754Y0069618D01*
X0042768Y0069101D01*
X0042740Y0069077D01*
X0042714Y0069051D01*
X0042692Y0069022D01*
X0042672Y0068992D01*
X0042655Y0068959D01*
X0042641Y0068925D01*
X0042631Y0068890D01*
X0042624Y0068855D01*
X0042620Y0068818D01*
X0042620Y0068782D01*
X0042624Y0068745D01*
X0042631Y0068710D01*
X0042641Y0068675D01*
X0042655Y0068641D01*
X0042672Y0068608D01*
X0042692Y0068578D01*
X0042714Y0068549D01*
X0042740Y0068523D01*
X0042768Y0068499D01*
X0031249Y0066062D02*
X0031001Y0068800D01*
X0031001Y0068800D01*
X0031249Y0071538D01*
X0031250Y0071539D01*
X0031353Y0071527D01*
X0031457Y0071512D01*
X0031559Y0071493D01*
X0031661Y0071469D01*
X0031762Y0071442D01*
X0031861Y0071412D01*
X0031960Y0071377D01*
X0032057Y0071339D01*
X0032152Y0071297D01*
X0032246Y0071251D01*
X0032338Y0071202D01*
X0032429Y0071150D01*
X0032517Y0071094D01*
X0032603Y0071035D01*
X0032686Y0070972D01*
X0032767Y0070907D01*
X0032846Y0070838D01*
X0032922Y0070767D01*
X0032995Y0070692D01*
X0033066Y0070615D01*
X0033133Y0070536D01*
X0033197Y0070453D01*
X0033259Y0070369D01*
X0033316Y0070282D01*
X0033371Y0070193D01*
X0033422Y0070102D01*
X0033470Y0070009D01*
X0033514Y0069915D01*
X0033554Y0069819D01*
X0033591Y0069721D01*
X0033624Y0069622D01*
X0033654Y0069522D01*
X0033679Y0069421D01*
X0033701Y0069319D01*
X0033718Y0069216D01*
X0033732Y0069112D01*
X0033742Y0069009D01*
X0033748Y0068904D01*
X0033750Y0068800D01*
X0033748Y0068696D01*
X0033742Y0068591D01*
X0033732Y0068488D01*
X0033718Y0068384D01*
X0033701Y0068281D01*
X0033679Y0068179D01*
X0033654Y0068078D01*
X0033624Y0067978D01*
X0033591Y0067879D01*
X0033554Y0067781D01*
X0033514Y0067685D01*
X0033470Y0067591D01*
X0033422Y0067498D01*
X0033371Y0067407D01*
X0033316Y0067318D01*
X0033259Y0067231D01*
X0033197Y0067147D01*
X0033133Y0067064D01*
X0033066Y0066985D01*
X0032995Y0066908D01*
X0032922Y0066833D01*
X0032846Y0066762D01*
X0032767Y0066693D01*
X0032686Y0066628D01*
X0032603Y0066565D01*
X0032517Y0066506D01*
X0032429Y0066450D01*
X0032338Y0066398D01*
X0032246Y0066349D01*
X0032152Y0066303D01*
X0032057Y0066261D01*
X0031960Y0066223D01*
X0031861Y0066188D01*
X0031762Y0066158D01*
X0031661Y0066131D01*
X0031559Y0066107D01*
X0031457Y0066088D01*
X0031353Y0066073D01*
X0031250Y0066061D01*
X0031249Y0066538D01*
X0031344Y0066550D01*
X0031437Y0066566D01*
X0031530Y0066587D01*
X0031622Y0066611D01*
X0031713Y0066639D01*
X0031802Y0066670D01*
X0031891Y0066705D01*
X0031977Y0066744D01*
X0032062Y0066787D01*
X0032145Y0066833D01*
X0032226Y0066883D01*
X0032305Y0066935D01*
X0032382Y0066992D01*
X0032456Y0067051D01*
X0032528Y0067113D01*
X0032597Y0067178D01*
X0032663Y0067246D01*
X0032727Y0067317D01*
X0032787Y0067390D01*
X0032844Y0067466D01*
X0032898Y0067544D01*
X0032949Y0067625D01*
X0032996Y0067707D01*
X0033040Y0067791D01*
X0033081Y0067877D01*
X0033117Y0067965D01*
X0033150Y0068054D01*
X0033180Y0068144D01*
X0033205Y0068236D01*
X0033227Y0068328D01*
X0033244Y0068422D01*
X0033258Y0068516D01*
X0033268Y0068610D01*
X0033274Y0068705D01*
X0033276Y0068800D01*
X0033274Y0068895D01*
X0033268Y0068990D01*
X0033258Y0069084D01*
X0033244Y0069178D01*
X0033227Y0069272D01*
X0033205Y0069364D01*
X0033180Y0069456D01*
X0033150Y0069546D01*
X0033117Y0069635D01*
X0033081Y0069723D01*
X0033040Y0069809D01*
X0032996Y0069893D01*
X0032949Y0069975D01*
X0032898Y0070056D01*
X0032844Y0070134D01*
X0032787Y0070210D01*
X0032727Y0070283D01*
X0032663Y0070354D01*
X0032597Y0070422D01*
X0032528Y0070487D01*
X0032456Y0070549D01*
X0032382Y0070608D01*
X0032305Y0070665D01*
X0032226Y0070717D01*
X0032145Y0070767D01*
X0032062Y0070813D01*
X0031977Y0070856D01*
X0031891Y0070895D01*
X0031802Y0070930D01*
X0031713Y0070961D01*
X0031622Y0070989D01*
X0031530Y0071013D01*
X0031437Y0071034D01*
X0031344Y0071050D01*
X0031249Y0071062D01*
X0031249Y0070585D01*
X0031331Y0070571D01*
X0031413Y0070554D01*
X0031493Y0070533D01*
X0031573Y0070509D01*
X0031651Y0070480D01*
X0031728Y0070448D01*
X0031803Y0070413D01*
X0031877Y0070374D01*
X0031949Y0070332D01*
X0032019Y0070287D01*
X0032086Y0070238D01*
X0032151Y0070186D01*
X0032214Y0070132D01*
X0032274Y0070074D01*
X0032332Y0070014D01*
X0032386Y0069951D01*
X0032438Y0069886D01*
X0032487Y0069818D01*
X0032532Y0069749D01*
X0032574Y0069677D01*
X0032613Y0069603D01*
X0032648Y0069528D01*
X0032680Y0069451D01*
X0032709Y0069373D01*
X0032733Y0069293D01*
X0032754Y0069213D01*
X0032771Y0069131D01*
X0032785Y0069049D01*
X0032794Y0068966D01*
X0032800Y0068883D01*
X0032802Y0068800D01*
X0032800Y0068717D01*
X0032794Y0068634D01*
X0032785Y0068551D01*
X0032771Y0068469D01*
X0032754Y0068387D01*
X0032733Y0068307D01*
X0032709Y0068227D01*
X0032680Y0068149D01*
X0032648Y0068072D01*
X0032613Y0067997D01*
X0032574Y0067923D01*
X0032532Y0067851D01*
X0032487Y0067782D01*
X0032438Y0067714D01*
X0032386Y0067649D01*
X0032332Y0067586D01*
X0032274Y0067526D01*
X0032214Y0067468D01*
X0032151Y0067414D01*
X0032086Y0067362D01*
X0032019Y0067313D01*
X0031949Y0067268D01*
X0031877Y0067226D01*
X0031803Y0067187D01*
X0031728Y0067152D01*
X0031651Y0067120D01*
X0031573Y0067091D01*
X0031493Y0067067D01*
X0031413Y0067046D01*
X0031331Y0067029D01*
X0031249Y0067015D01*
X0031249Y0067495D01*
X0031319Y0067511D01*
X0031388Y0067530D01*
X0031456Y0067553D01*
X0031523Y0067579D01*
X0031589Y0067610D01*
X0031652Y0067643D01*
X0031714Y0067680D01*
X0031774Y0067721D01*
X0031831Y0067764D01*
X0031886Y0067811D01*
X0031938Y0067860D01*
X0031988Y0067912D01*
X0032035Y0067967D01*
X0032078Y0068025D01*
X0032119Y0068084D01*
X0032156Y0068146D01*
X0032189Y0068209D01*
X0032220Y0068275D01*
X0032246Y0068342D01*
X0032269Y0068410D01*
X0032289Y0068479D01*
X0032304Y0068550D01*
X0032316Y0068621D01*
X0032324Y0068692D01*
X0032328Y0068764D01*
X0032328Y0068836D01*
X0032324Y0068908D01*
X0032316Y0068979D01*
X0032304Y0069050D01*
X0032289Y0069121D01*
X0032269Y0069190D01*
X0032246Y0069258D01*
X0032220Y0069325D01*
X0032189Y0069391D01*
X0032156Y0069454D01*
X0032119Y0069516D01*
X0032078Y0069575D01*
X0032035Y0069633D01*
X0031988Y0069688D01*
X0031938Y0069740D01*
X0031886Y0069789D01*
X0031831Y0069836D01*
X0031774Y0069879D01*
X0031714Y0069920D01*
X0031652Y0069957D01*
X0031589Y0069990D01*
X0031523Y0070021D01*
X0031456Y0070047D01*
X0031388Y0070070D01*
X0031319Y0070089D01*
X0031249Y0070105D01*
X0031246Y0069618D01*
X0031301Y0069599D01*
X0031354Y0069577D01*
X0031405Y0069552D01*
X0031455Y0069523D01*
X0031502Y0069491D01*
X0031548Y0069455D01*
X0031591Y0069417D01*
X0031631Y0069376D01*
X0031668Y0069332D01*
X0031702Y0069286D01*
X0031733Y0069238D01*
X0031761Y0069187D01*
X0031785Y0069135D01*
X0031806Y0069082D01*
X0031823Y0069027D01*
X0031837Y0068971D01*
X0031846Y0068915D01*
X0031852Y0068857D01*
X0031854Y0068800D01*
X0031852Y0068743D01*
X0031846Y0068685D01*
X0031837Y0068629D01*
X0031823Y0068573D01*
X0031806Y0068518D01*
X0031785Y0068465D01*
X0031761Y0068413D01*
X0031733Y0068362D01*
X0031702Y0068314D01*
X0031668Y0068268D01*
X0031631Y0068224D01*
X0031591Y0068183D01*
X0031548Y0068145D01*
X0031502Y0068109D01*
X0031455Y0068077D01*
X0031405Y0068048D01*
X0031354Y0068023D01*
X0031301Y0068001D01*
X0031246Y0067982D01*
X0031232Y0068499D01*
X0031260Y0068523D01*
X0031286Y0068549D01*
X0031308Y0068578D01*
X0031328Y0068608D01*
X0031345Y0068641D01*
X0031359Y0068675D01*
X0031369Y0068710D01*
X0031376Y0068745D01*
X0031380Y0068782D01*
X0031380Y0068818D01*
X0031376Y0068855D01*
X0031369Y0068890D01*
X0031359Y0068925D01*
X0031345Y0068959D01*
X0031328Y0068992D01*
X0031308Y0069022D01*
X0031286Y0069051D01*
X0031260Y0069077D01*
X0031232Y0069101D01*
X0028751Y0071538D02*
X0028999Y0068800D01*
X0028999Y0068800D01*
X0028751Y0066062D01*
X0028750Y0066061D01*
X0028647Y0066073D01*
X0028543Y0066088D01*
X0028441Y0066107D01*
X0028339Y0066131D01*
X0028238Y0066158D01*
X0028139Y0066188D01*
X0028040Y0066223D01*
X0027943Y0066261D01*
X0027848Y0066303D01*
X0027754Y0066349D01*
X0027662Y0066398D01*
X0027571Y0066450D01*
X0027483Y0066506D01*
X0027397Y0066565D01*
X0027314Y0066628D01*
X0027233Y0066693D01*
X0027154Y0066762D01*
X0027078Y0066833D01*
X0027005Y0066908D01*
X0026934Y0066985D01*
X0026867Y0067064D01*
X0026803Y0067147D01*
X0026741Y0067231D01*
X0026684Y0067318D01*
X0026629Y0067407D01*
X0026578Y0067498D01*
X0026530Y0067591D01*
X0026486Y0067685D01*
X0026446Y0067781D01*
X0026409Y0067879D01*
X0026376Y0067978D01*
X0026346Y0068078D01*
X0026321Y0068179D01*
X0026299Y0068281D01*
X0026282Y0068384D01*
X0026268Y0068488D01*
X0026258Y0068591D01*
X0026252Y0068696D01*
X0026250Y0068800D01*
X0026252Y0068904D01*
X0026258Y0069009D01*
X0026268Y0069112D01*
X0026282Y0069216D01*
X0026299Y0069319D01*
X0026321Y0069421D01*
X0026346Y0069522D01*
X0026376Y0069622D01*
X0026409Y0069721D01*
X0026446Y0069819D01*
X0026486Y0069915D01*
X0026530Y0070009D01*
X0026578Y0070102D01*
X0026629Y0070193D01*
X0026684Y0070282D01*
X0026741Y0070369D01*
X0026803Y0070453D01*
X0026867Y0070536D01*
X0026934Y0070615D01*
X0027005Y0070692D01*
X0027078Y0070767D01*
X0027154Y0070838D01*
X0027233Y0070907D01*
X0027314Y0070972D01*
X0027397Y0071035D01*
X0027483Y0071094D01*
X0027571Y0071150D01*
X0027662Y0071202D01*
X0027754Y0071251D01*
X0027848Y0071297D01*
X0027943Y0071339D01*
X0028040Y0071377D01*
X0028139Y0071412D01*
X0028238Y0071442D01*
X0028339Y0071469D01*
X0028441Y0071493D01*
X0028543Y0071512D01*
X0028647Y0071527D01*
X0028750Y0071539D01*
X0028751Y0071062D01*
X0028656Y0071050D01*
X0028563Y0071034D01*
X0028470Y0071013D01*
X0028378Y0070989D01*
X0028287Y0070961D01*
X0028198Y0070930D01*
X0028109Y0070895D01*
X0028023Y0070856D01*
X0027938Y0070813D01*
X0027855Y0070767D01*
X0027774Y0070717D01*
X0027695Y0070665D01*
X0027618Y0070608D01*
X0027544Y0070549D01*
X0027472Y0070487D01*
X0027403Y0070422D01*
X0027337Y0070354D01*
X0027273Y0070283D01*
X0027213Y0070210D01*
X0027156Y0070134D01*
X0027102Y0070056D01*
X0027051Y0069975D01*
X0027004Y0069893D01*
X0026960Y0069809D01*
X0026919Y0069723D01*
X0026883Y0069635D01*
X0026850Y0069546D01*
X0026820Y0069456D01*
X0026795Y0069364D01*
X0026773Y0069272D01*
X0026756Y0069178D01*
X0026742Y0069084D01*
X0026732Y0068990D01*
X0026726Y0068895D01*
X0026724Y0068800D01*
X0026726Y0068705D01*
X0026732Y0068610D01*
X0026742Y0068516D01*
X0026756Y0068422D01*
X0026773Y0068328D01*
X0026795Y0068236D01*
X0026820Y0068144D01*
X0026850Y0068054D01*
X0026883Y0067965D01*
X0026919Y0067877D01*
X0026960Y0067791D01*
X0027004Y0067707D01*
X0027051Y0067625D01*
X0027102Y0067544D01*
X0027156Y0067466D01*
X0027213Y0067390D01*
X0027273Y0067317D01*
X0027337Y0067246D01*
X0027403Y0067178D01*
X0027472Y0067113D01*
X0027544Y0067051D01*
X0027618Y0066992D01*
X0027695Y0066935D01*
X0027774Y0066883D01*
X0027855Y0066833D01*
X0027938Y0066787D01*
X0028023Y0066744D01*
X0028109Y0066705D01*
X0028198Y0066670D01*
X0028287Y0066639D01*
X0028378Y0066611D01*
X0028470Y0066587D01*
X0028563Y0066566D01*
X0028656Y0066550D01*
X0028751Y0066538D01*
X0028751Y0067015D01*
X0028669Y0067029D01*
X0028587Y0067046D01*
X0028507Y0067067D01*
X0028427Y0067091D01*
X0028349Y0067120D01*
X0028272Y0067152D01*
X0028197Y0067187D01*
X0028123Y0067226D01*
X0028051Y0067268D01*
X0027981Y0067313D01*
X0027914Y0067362D01*
X0027849Y0067414D01*
X0027786Y0067468D01*
X0027726Y0067526D01*
X0027668Y0067586D01*
X0027614Y0067649D01*
X0027562Y0067714D01*
X0027513Y0067782D01*
X0027468Y0067851D01*
X0027426Y0067923D01*
X0027387Y0067997D01*
X0027352Y0068072D01*
X0027320Y0068149D01*
X0027291Y0068227D01*
X0027267Y0068307D01*
X0027246Y0068387D01*
X0027229Y0068469D01*
X0027215Y0068551D01*
X0027206Y0068634D01*
X0027200Y0068717D01*
X0027198Y0068800D01*
X0027200Y0068883D01*
X0027206Y0068966D01*
X0027215Y0069049D01*
X0027229Y0069131D01*
X0027246Y0069213D01*
X0027267Y0069293D01*
X0027291Y0069373D01*
X0027320Y0069451D01*
X0027352Y0069528D01*
X0027387Y0069603D01*
X0027426Y0069677D01*
X0027468Y0069749D01*
X0027513Y0069818D01*
X0027562Y0069886D01*
X0027614Y0069951D01*
X0027668Y0070014D01*
X0027726Y0070074D01*
X0027786Y0070132D01*
X0027849Y0070186D01*
X0027914Y0070238D01*
X0027981Y0070287D01*
X0028051Y0070332D01*
X0028123Y0070374D01*
X0028197Y0070413D01*
X0028272Y0070448D01*
X0028349Y0070480D01*
X0028427Y0070509D01*
X0028507Y0070533D01*
X0028587Y0070554D01*
X0028669Y0070571D01*
X0028751Y0070585D01*
X0028751Y0070105D01*
X0028681Y0070089D01*
X0028612Y0070070D01*
X0028544Y0070047D01*
X0028477Y0070021D01*
X0028411Y0069990D01*
X0028348Y0069957D01*
X0028286Y0069920D01*
X0028226Y0069879D01*
X0028169Y0069836D01*
X0028114Y0069789D01*
X0028062Y0069740D01*
X0028012Y0069688D01*
X0027965Y0069633D01*
X0027922Y0069575D01*
X0027881Y0069516D01*
X0027844Y0069454D01*
X0027811Y0069391D01*
X0027780Y0069325D01*
X0027754Y0069258D01*
X0027731Y0069190D01*
X0027711Y0069121D01*
X0027696Y0069050D01*
X0027684Y0068979D01*
X0027676Y0068908D01*
X0027672Y0068836D01*
X0027672Y0068764D01*
X0027676Y0068692D01*
X0027684Y0068621D01*
X0027696Y0068550D01*
X0027711Y0068479D01*
X0027731Y0068410D01*
X0027754Y0068342D01*
X0027780Y0068275D01*
X0027811Y0068209D01*
X0027844Y0068146D01*
X0027881Y0068084D01*
X0027922Y0068025D01*
X0027965Y0067967D01*
X0028012Y0067912D01*
X0028062Y0067860D01*
X0028114Y0067811D01*
X0028169Y0067764D01*
X0028226Y0067721D01*
X0028286Y0067680D01*
X0028348Y0067643D01*
X0028411Y0067610D01*
X0028477Y0067579D01*
X0028544Y0067553D01*
X0028612Y0067530D01*
X0028681Y0067511D01*
X0028751Y0067495D01*
X0028754Y0067982D01*
X0028699Y0068001D01*
X0028646Y0068023D01*
X0028595Y0068048D01*
X0028545Y0068077D01*
X0028498Y0068109D01*
X0028452Y0068145D01*
X0028409Y0068183D01*
X0028369Y0068224D01*
X0028332Y0068268D01*
X0028298Y0068314D01*
X0028267Y0068362D01*
X0028239Y0068413D01*
X0028215Y0068465D01*
X0028194Y0068518D01*
X0028177Y0068573D01*
X0028163Y0068629D01*
X0028154Y0068685D01*
X0028148Y0068743D01*
X0028146Y0068800D01*
X0028148Y0068857D01*
X0028154Y0068915D01*
X0028163Y0068971D01*
X0028177Y0069027D01*
X0028194Y0069082D01*
X0028215Y0069135D01*
X0028239Y0069187D01*
X0028267Y0069238D01*
X0028298Y0069286D01*
X0028332Y0069332D01*
X0028369Y0069376D01*
X0028409Y0069417D01*
X0028452Y0069455D01*
X0028498Y0069491D01*
X0028545Y0069523D01*
X0028595Y0069552D01*
X0028646Y0069577D01*
X0028699Y0069599D01*
X0028754Y0069618D01*
X0028768Y0069101D01*
X0028740Y0069077D01*
X0028714Y0069051D01*
X0028692Y0069022D01*
X0028672Y0068992D01*
X0028655Y0068959D01*
X0028641Y0068925D01*
X0028631Y0068890D01*
X0028624Y0068855D01*
X0028620Y0068818D01*
X0028620Y0068782D01*
X0028624Y0068745D01*
X0028631Y0068710D01*
X0028641Y0068675D01*
X0028655Y0068641D01*
X0028672Y0068608D01*
X0028692Y0068578D01*
X0028714Y0068549D01*
X0028740Y0068523D01*
X0028768Y0068499D01*
D16*
X0022902Y0068714D02*
X0022902Y0069448D01*
X0022902Y0069081D02*
X0021067Y0069081D01*
X0020700Y0068714D01*
X0020700Y0068347D01*
X0021067Y0067980D01*
X0021067Y0067238D02*
X0020700Y0066871D01*
X0020700Y0066137D01*
X0021067Y0065770D01*
X0021801Y0066137D02*
X0021801Y0066871D01*
X0021434Y0067238D01*
X0021067Y0067238D01*
X0021801Y0066137D02*
X0022168Y0065770D01*
X0022535Y0065770D01*
X0022902Y0066137D01*
X0022902Y0066871D01*
X0022535Y0067238D01*
X0022168Y0070190D02*
X0022902Y0070924D01*
X0020700Y0070924D01*
X0020700Y0070190D02*
X0020700Y0071658D01*
X0051100Y0071288D02*
X0051100Y0069820D01*
X0052568Y0071288D01*
X0052935Y0071288D01*
X0053302Y0070921D01*
X0053302Y0070187D01*
X0052935Y0069820D01*
X0053302Y0069078D02*
X0053302Y0068344D01*
X0053302Y0068711D02*
X0051467Y0068711D01*
X0051100Y0068344D01*
X0051100Y0067977D01*
X0051467Y0067610D01*
X0051467Y0066868D02*
X0051100Y0066501D01*
X0051100Y0065767D01*
X0051467Y0065400D01*
X0052201Y0065767D02*
X0052201Y0066501D01*
X0051834Y0066868D01*
X0051467Y0066868D01*
X0052201Y0065767D02*
X0052568Y0065400D01*
X0052935Y0065400D01*
X0053302Y0065767D01*
X0053302Y0066501D01*
X0052935Y0066868D01*
D17*
X0127000Y0045400D03*
X0127000Y0041400D03*
X0132000Y0041400D03*
D18*
X0127000Y0048000D03*
D19*
X0125100Y0049500D03*
D20*
X0125500Y0048400D02*
X0126000Y0051400D01*
X0126500Y0048400D01*
X0127000Y0051400D01*
X0127500Y0048400D01*
X0128000Y0051400D01*
X0128500Y0048400D01*
X0129000Y0051400D01*
X0129500Y0048400D01*
X0128500Y0048400D01*
X0127500Y0048400D01*
X0126500Y0048400D01*
X0125500Y0048400D01*
X0125500Y0051400D01*
X0126000Y0051400D01*
X0127000Y0051400D01*
X0128000Y0051400D01*
X0129000Y0051400D01*
X0129500Y0051400D01*
X0129500Y0048400D01*
M02*
