G75*
%MOIN*%
%OFA0B0*%
%FSLAX25Y25*%
%IPPOS*%
%LPD*%
%AMOC8*
5,1,8,0,0,1.08239X$1,22.5*
%
%ADD10R,0.04737X0.04343*%
%ADD11R,0.03950X0.07493*%
%ADD12R,0.05524X0.05524*%
%ADD13R,0.04737X0.05131*%
%ADD14C,0.00743*%
%ADD15R,0.11824X0.03713*%
%ADD16R,0.02375X0.01784*%
%ADD17R,0.01784X0.02375*%
%ADD18R,0.03162X0.03162*%
%ADD19OC8,0.07800*%
D10*
X0049850Y0025229D03*
X0056150Y0025229D03*
X0056150Y0041371D03*
X0049850Y0041371D03*
D11*
X0048276Y0033300D03*
D12*
X0048134Y0068800D03*
X0039866Y0068800D03*
X0034134Y0068800D03*
X0025866Y0068800D03*
D13*
X0020346Y0068800D03*
X0013654Y0068800D03*
X0053654Y0068800D03*
X0060346Y0068800D03*
D14*
X0033533Y0025285D02*
X0022451Y0025285D01*
X0033533Y0025285D02*
X0033533Y0022315D01*
X0022451Y0022315D01*
X0022451Y0025285D01*
X0022451Y0023057D02*
X0033533Y0023057D01*
X0033533Y0023799D02*
X0022451Y0023799D01*
X0022451Y0024541D02*
X0033533Y0024541D01*
X0033533Y0025283D02*
X0022451Y0025283D01*
D15*
X0027992Y0028800D03*
X0027992Y0033800D03*
X0027992Y0038800D03*
X0027992Y0043800D03*
X0012008Y0043800D03*
X0012008Y0038800D03*
X0012008Y0033800D03*
X0012008Y0028800D03*
X0012008Y0023800D03*
D16*
X0146583Y0039254D03*
X0146583Y0040829D03*
X0146583Y0042404D03*
X0146583Y0043979D03*
X0146583Y0045554D03*
X0146583Y0047128D03*
X0146583Y0048703D03*
X0146583Y0050278D03*
X0146583Y0051853D03*
X0146583Y0053428D03*
X0146583Y0055002D03*
X0146583Y0056577D03*
X0146583Y0058152D03*
X0169417Y0058152D03*
X0169417Y0056577D03*
X0169417Y0055002D03*
X0169417Y0053428D03*
X0169417Y0051853D03*
X0169417Y0050278D03*
X0169417Y0048703D03*
X0169417Y0047128D03*
X0169417Y0045554D03*
X0154555Y0043959D03*
X0154555Y0042384D03*
X0154555Y0040809D03*
D17*
X0154850Y0037483D03*
X0153276Y0037483D03*
X0151701Y0037483D03*
X0150126Y0037483D03*
X0148551Y0037483D03*
X0156327Y0045849D03*
X0157902Y0045849D03*
X0159476Y0045849D03*
X0161051Y0045849D03*
X0162626Y0045849D03*
X0164201Y0045849D03*
X0165776Y0045849D03*
X0165874Y0060120D03*
X0164299Y0060120D03*
X0162724Y0060120D03*
X0161150Y0060120D03*
X0159575Y0060120D03*
X0158000Y0060120D03*
X0156425Y0060120D03*
X0154850Y0060120D03*
X0153276Y0060120D03*
X0151701Y0060120D03*
X0150126Y0060120D03*
X0148551Y0060120D03*
X0167449Y0060120D03*
D18*
X0161839Y0053428D03*
X0153965Y0053428D03*
X0157508Y0041813D03*
X0157508Y0037876D03*
X0169024Y0037876D03*
X0169024Y0041813D03*
D19*
X0007000Y0006800D03*
X0017000Y0006800D03*
X0027000Y0006800D03*
X0037000Y0006800D03*
X0047000Y0006800D03*
X0057000Y0006800D03*
X0067000Y0006800D03*
X0077000Y0006800D03*
X0087000Y0006800D03*
X0097000Y0006800D03*
X0107000Y0006800D03*
X0117000Y0006800D03*
X0127000Y0006800D03*
X0137000Y0006800D03*
X0147000Y0006800D03*
X0157000Y0006800D03*
X0167000Y0006800D03*
X0167000Y0086800D03*
X0157000Y0086800D03*
X0147000Y0086800D03*
X0137000Y0086800D03*
X0127000Y0086800D03*
X0117000Y0086800D03*
X0107000Y0086800D03*
X0097000Y0086800D03*
X0087000Y0086800D03*
X0077000Y0086800D03*
X0067000Y0086800D03*
X0057000Y0086800D03*
X0047000Y0086800D03*
X0037000Y0086800D03*
X0027000Y0086800D03*
X0017000Y0086800D03*
X0007000Y0086800D03*
M02*
