G75*
%MOIN*%
%OFA0B0*%
%FSLAX25Y25*%
%IPPOS*%
%LPD*%
%AMOC8*
5,1,8,0,0,1.08239X$1,22.5*
%
%ADD10R,0.05400X0.07100*%
%ADD11R,0.00600X0.07200*%
%ADD12OC8,0.07800*%
D10*
X0027000Y0068800D03*
X0033000Y0068800D03*
X0041000Y0068800D03*
X0047000Y0068800D03*
D11*
X0044000Y0068800D03*
X0030000Y0068800D03*
D12*
X0007000Y0006800D03*
X0017000Y0006800D03*
X0027000Y0006800D03*
X0037000Y0006800D03*
X0047000Y0006800D03*
X0057000Y0006800D03*
X0067000Y0006800D03*
X0077000Y0006800D03*
X0087000Y0006800D03*
X0097000Y0006800D03*
X0107000Y0006800D03*
X0117000Y0006800D03*
X0127000Y0006800D03*
X0137000Y0006800D03*
X0147000Y0006800D03*
X0157000Y0006800D03*
X0167000Y0006800D03*
X0167000Y0086800D03*
X0157000Y0086800D03*
X0147000Y0086800D03*
X0137000Y0086800D03*
X0127000Y0086800D03*
X0117000Y0086800D03*
X0107000Y0086800D03*
X0097000Y0086800D03*
X0087000Y0086800D03*
X0077000Y0086800D03*
X0067000Y0086800D03*
X0057000Y0086800D03*
X0047000Y0086800D03*
X0037000Y0086800D03*
X0027000Y0086800D03*
X0017000Y0086800D03*
X0007000Y0086800D03*
M02*
