%
M48
M72
T01C0.01300
T02C0.04000
%
T01
X19800Y17800
X23300Y17800
X13600Y19100
X6500Y19100
X19800Y30200
X19800Y34900
X19800Y39100
X19800Y43800
X35900Y33700
X45500Y41600
X60500Y41600
X72000Y41800
X75500Y46600
X80500Y46600
X85500Y46600
X110500Y46600
X120500Y46600
X137000Y42900
X140600Y42900
X149700Y43600
X149700Y40300
X149700Y46900
X152000Y49500
X155300Y49500
X158600Y49500
X165400Y48800
X157800Y57100
X151800Y57100
X140500Y56600
X143800Y50300
X141300Y48100
X157500Y34400
X157500Y31300
X157500Y28200
X157500Y25100
X159500Y21899
X162700Y21899
X165900Y21899
X169100Y21899
X149700Y17700
X146300Y17700
X142400Y12200
X102000Y21800
X84600Y19300
X75500Y26600
X70500Y26600
X65500Y26600
X60500Y24900
X45500Y24900
X36000Y23800
X53000Y33400
X10500Y58000
X10500Y61600
X6700Y68800
X17600Y74500
X52200Y73100
X65500Y66600
X70500Y66600
X75500Y66600
X151800Y80100
X161600Y79100
X161900Y82400
T02
X7000Y6800
X17000Y6800
X27000Y6800
X37000Y6800
X47000Y6800
X57000Y6800
X67000Y6800
X77000Y6800
X87000Y6800
X97000Y6800
X107000Y6800
X117000Y6800
X127000Y6800
X137000Y6800
X147000Y6800
X157000Y6800
X167000Y6800
X167000Y86800
X157000Y86800
X147000Y86800
X137000Y86800
X127000Y86800
X117000Y86800
X107000Y86800
X97000Y86800
X87000Y86800
X77000Y86800
X67000Y86800
X57000Y86800
X47000Y86800
X37000Y86800
X27000Y86800
X17000Y86800
X7000Y86800
M30
