G75*
%MOIN*%
%OFA0B0*%
%FSLAX25Y25*%
%IPPOS*%
%LPD*%
%AMOC8*
5,1,8,0,0,1.08239X$1,22.5*
%
%ADD10R,0.04600X0.06300*%
%ADD11OC8,0.07000*%
%ADD12C,0.01600*%
%ADD13C,0.02700*%
%ADD14C,0.01000*%
%ADD15C,0.00600*%
D10*
X0027000Y0068800D03*
X0033000Y0068800D03*
X0041000Y0068800D03*
X0047000Y0068800D03*
D11*
X0047000Y0086800D03*
X0037000Y0086800D03*
X0027000Y0086800D03*
X0017000Y0086800D03*
X0007000Y0086800D03*
X0057000Y0086800D03*
X0067000Y0086800D03*
X0077000Y0086800D03*
X0087000Y0086800D03*
X0097000Y0086800D03*
X0107000Y0086800D03*
X0117000Y0086800D03*
X0127000Y0086800D03*
X0137000Y0086800D03*
X0147000Y0086800D03*
X0157000Y0086800D03*
X0167000Y0086800D03*
X0167000Y0006800D03*
X0157000Y0006800D03*
X0147000Y0006800D03*
X0137000Y0006800D03*
X0127000Y0006800D03*
X0117000Y0006800D03*
X0107000Y0006800D03*
X0097000Y0006800D03*
X0087000Y0006800D03*
X0077000Y0006800D03*
X0067000Y0006800D03*
X0057000Y0006800D03*
X0047000Y0006800D03*
X0037000Y0006800D03*
X0027000Y0006800D03*
X0017000Y0006800D03*
X0007000Y0006800D03*
D12*
X0011230Y0004100D02*
X0011900Y0004770D01*
X0011900Y0008830D01*
X0011667Y0009063D01*
X0012200Y0009596D01*
X0012200Y0055811D01*
X0012831Y0056442D01*
X0013250Y0057453D01*
X0013250Y0058547D01*
X0012831Y0059558D01*
X0012058Y0060331D01*
X0011047Y0060750D01*
X0009953Y0060750D01*
X0008942Y0060331D01*
X0008169Y0059558D01*
X0007750Y0058547D01*
X0007750Y0057453D01*
X0008169Y0056442D01*
X0008800Y0055811D01*
X0008800Y0011700D01*
X0004970Y0011700D01*
X0004300Y0011030D01*
X0004300Y0067408D01*
X0004369Y0067242D01*
X0005142Y0066469D01*
X0006153Y0066050D01*
X0007247Y0066050D01*
X0008258Y0066469D01*
X0009031Y0067242D01*
X0009450Y0068253D01*
X0009450Y0069146D01*
X0014850Y0074546D01*
X0014850Y0073953D01*
X0015269Y0072942D01*
X0016042Y0072169D01*
X0017053Y0071750D01*
X0018147Y0071750D01*
X0019158Y0072169D01*
X0019589Y0072600D01*
X0023370Y0072600D01*
X0023300Y0072530D01*
X0023300Y0065070D01*
X0024120Y0064250D01*
X0025100Y0064250D01*
X0025100Y0036204D01*
X0022550Y0038754D01*
X0022550Y0039647D01*
X0022131Y0040658D01*
X0021358Y0041431D01*
X0021313Y0041450D01*
X0021358Y0041469D01*
X0022131Y0042242D01*
X0022550Y0043253D01*
X0022550Y0044347D01*
X0022131Y0045358D01*
X0021358Y0046131D01*
X0020347Y0046550D01*
X0019253Y0046550D01*
X0018242Y0046131D01*
X0017469Y0045358D01*
X0017050Y0044347D01*
X0017050Y0043454D01*
X0016296Y0042700D01*
X0015300Y0041704D01*
X0015300Y0011700D01*
X0014970Y0011700D01*
X0012100Y0008830D01*
X0012100Y0004770D01*
X0012770Y0004100D01*
X0011230Y0004100D01*
X0011900Y0004997D02*
X0012100Y0004997D01*
X0012100Y0006596D02*
X0011900Y0006596D01*
X0011900Y0008194D02*
X0012100Y0008194D01*
X0012200Y0009793D02*
X0013063Y0009793D01*
X0012200Y0011391D02*
X0014661Y0011391D01*
X0015300Y0012990D02*
X0012200Y0012990D01*
X0012200Y0014588D02*
X0015300Y0014588D01*
X0015300Y0016187D02*
X0012200Y0016187D01*
X0012200Y0017785D02*
X0015300Y0017785D01*
X0015300Y0019384D02*
X0012200Y0019384D01*
X0012200Y0020982D02*
X0015300Y0020982D01*
X0015300Y0022581D02*
X0012200Y0022581D01*
X0012200Y0024179D02*
X0015300Y0024179D01*
X0015300Y0025778D02*
X0012200Y0025778D01*
X0012200Y0027376D02*
X0015300Y0027376D01*
X0015300Y0028975D02*
X0012200Y0028975D01*
X0012200Y0030573D02*
X0015300Y0030573D01*
X0015300Y0032172D02*
X0012200Y0032172D01*
X0012200Y0033770D02*
X0015300Y0033770D01*
X0015300Y0035369D02*
X0012200Y0035369D01*
X0012200Y0036967D02*
X0015300Y0036967D01*
X0015300Y0038566D02*
X0012200Y0038566D01*
X0012200Y0040164D02*
X0015300Y0040164D01*
X0015359Y0041763D02*
X0012200Y0041763D01*
X0012200Y0043361D02*
X0016957Y0043361D01*
X0017304Y0044960D02*
X0012200Y0044960D01*
X0012200Y0046558D02*
X0025100Y0046558D01*
X0025100Y0044960D02*
X0022296Y0044960D01*
X0022550Y0043361D02*
X0025100Y0043361D01*
X0025100Y0041763D02*
X0021652Y0041763D01*
X0022336Y0040164D02*
X0025100Y0040164D01*
X0025100Y0038566D02*
X0022738Y0038566D01*
X0024337Y0036967D02*
X0025100Y0036967D01*
X0028900Y0036967D02*
X0034200Y0036967D01*
X0034200Y0035889D02*
X0033569Y0035258D01*
X0033150Y0034247D01*
X0033150Y0033153D01*
X0033569Y0032142D01*
X0034342Y0031369D01*
X0035353Y0030950D01*
X0036447Y0030950D01*
X0037458Y0031369D01*
X0038231Y0032142D01*
X0038650Y0033153D01*
X0038650Y0034247D01*
X0038231Y0035258D01*
X0037600Y0035889D01*
X0037600Y0060496D01*
X0038600Y0061496D01*
X0038600Y0064250D01*
X0043880Y0064250D01*
X0044000Y0064370D01*
X0044120Y0064250D01*
X0049880Y0064250D01*
X0050700Y0065070D01*
X0050700Y0070745D01*
X0051653Y0070350D01*
X0052747Y0070350D01*
X0053758Y0070769D01*
X0054531Y0071542D01*
X0054950Y0072553D01*
X0054950Y0073647D01*
X0054531Y0074658D01*
X0053758Y0075431D01*
X0052747Y0075850D01*
X0051653Y0075850D01*
X0050642Y0075431D01*
X0050211Y0075000D01*
X0047604Y0075000D01*
X0053304Y0080700D01*
X0081298Y0080700D01*
X0081897Y0080628D01*
X0081988Y0080700D01*
X0082104Y0080700D01*
X0082530Y0081126D01*
X0084330Y0082540D01*
X0084970Y0081900D01*
X0089030Y0081900D01*
X0091900Y0084770D01*
X0091900Y0088830D01*
X0091230Y0089500D01*
X0092770Y0089500D01*
X0092100Y0088830D01*
X0092100Y0084770D01*
X0094970Y0081900D01*
X0099030Y0081900D01*
X0101900Y0084770D01*
X0101900Y0088830D01*
X0101230Y0089500D01*
X0102770Y0089500D01*
X0102100Y0088830D01*
X0102100Y0084770D01*
X0104970Y0081900D01*
X0109030Y0081900D01*
X0111900Y0084770D01*
X0111900Y0088830D01*
X0111230Y0089500D01*
X0112770Y0089500D01*
X0112100Y0088830D01*
X0112100Y0084770D01*
X0114970Y0081900D01*
X0119030Y0081900D01*
X0121900Y0084770D01*
X0121900Y0088830D01*
X0121230Y0089500D01*
X0122770Y0089500D01*
X0122100Y0088830D01*
X0122100Y0084770D01*
X0124970Y0081900D01*
X0129030Y0081900D01*
X0131900Y0084770D01*
X0131900Y0088830D01*
X0131230Y0089500D01*
X0132770Y0089500D01*
X0132100Y0088830D01*
X0132100Y0084770D01*
X0134970Y0081900D01*
X0135300Y0081900D01*
X0135300Y0045089D01*
X0134669Y0044458D01*
X0134250Y0043447D01*
X0134250Y0042353D01*
X0134669Y0041342D01*
X0135442Y0040569D01*
X0136453Y0040150D01*
X0137547Y0040150D01*
X0138558Y0040569D01*
X0139331Y0041342D01*
X0139750Y0042353D01*
X0139750Y0043447D01*
X0139331Y0044458D01*
X0138700Y0045089D01*
X0138700Y0047191D01*
X0138969Y0046542D01*
X0139742Y0045769D01*
X0140753Y0045350D01*
X0141363Y0045350D01*
X0141913Y0044800D01*
X0145196Y0044800D01*
X0144400Y0044004D01*
X0144400Y0021404D01*
X0141696Y0018700D01*
X0140700Y0017704D01*
X0140700Y0014389D01*
X0140069Y0013758D01*
X0139650Y0012747D01*
X0139650Y0011653D01*
X0140055Y0010674D01*
X0139030Y0011700D01*
X0134970Y0011700D01*
X0132100Y0008830D01*
X0132100Y0004770D01*
X0132770Y0004100D01*
X0131230Y0004100D01*
X0131900Y0004770D01*
X0131900Y0008830D01*
X0129030Y0011700D01*
X0124970Y0011700D01*
X0122100Y0008830D01*
X0122100Y0004770D01*
X0122770Y0004100D01*
X0121230Y0004100D01*
X0121900Y0004770D01*
X0121900Y0008830D01*
X0119030Y0011700D01*
X0114970Y0011700D01*
X0114737Y0011467D01*
X0104750Y0021454D01*
X0104750Y0022347D01*
X0104331Y0023358D01*
X0103558Y0024131D01*
X0102547Y0024550D01*
X0101453Y0024550D01*
X0100442Y0024131D01*
X0099669Y0023358D01*
X0099250Y0022347D01*
X0099250Y0021253D01*
X0099669Y0020242D01*
X0100442Y0019469D01*
X0101453Y0019050D01*
X0102346Y0019050D01*
X0112333Y0009063D01*
X0112100Y0008830D01*
X0112100Y0004770D01*
X0112770Y0004100D01*
X0111230Y0004100D01*
X0111900Y0004770D01*
X0111900Y0008830D01*
X0109030Y0011700D01*
X0104970Y0011700D01*
X0104737Y0011467D01*
X0074750Y0041454D01*
X0074750Y0042347D01*
X0074331Y0043358D01*
X0073558Y0044131D01*
X0072547Y0044550D01*
X0071453Y0044550D01*
X0070442Y0044131D01*
X0069669Y0043358D01*
X0069250Y0042347D01*
X0069250Y0041253D01*
X0069669Y0040242D01*
X0070442Y0039469D01*
X0071453Y0039050D01*
X0072346Y0039050D01*
X0102333Y0009063D01*
X0102100Y0008830D01*
X0102100Y0004770D01*
X0102770Y0004100D01*
X0101230Y0004100D01*
X0101900Y0004770D01*
X0101900Y0008830D01*
X0099030Y0011700D01*
X0094970Y0011700D01*
X0094737Y0011467D01*
X0087350Y0018854D01*
X0087350Y0019847D01*
X0086931Y0020858D01*
X0086158Y0021631D01*
X0085147Y0022050D01*
X0084053Y0022050D01*
X0083042Y0021631D01*
X0082269Y0020858D01*
X0081850Y0019847D01*
X0081850Y0018753D01*
X0082269Y0017742D01*
X0083042Y0016969D01*
X0084053Y0016550D01*
X0084846Y0016550D01*
X0092333Y0009063D01*
X0092100Y0008830D01*
X0092100Y0004770D01*
X0092770Y0004100D01*
X0091230Y0004100D01*
X0091900Y0004770D01*
X0091900Y0008830D01*
X0089030Y0011700D01*
X0084970Y0011700D01*
X0082100Y0008830D01*
X0082100Y0004770D01*
X0082770Y0004100D01*
X0081230Y0004100D01*
X0081900Y0004770D01*
X0081900Y0008830D01*
X0079030Y0011700D01*
X0074970Y0011700D01*
X0072100Y0008830D01*
X0072100Y0004770D01*
X0072770Y0004100D01*
X0071230Y0004100D01*
X0071900Y0004770D01*
X0071900Y0008830D01*
X0069030Y0011700D01*
X0064970Y0011700D01*
X0062100Y0008830D01*
X0062100Y0004770D01*
X0062770Y0004100D01*
X0061230Y0004100D01*
X0061900Y0004770D01*
X0061900Y0008830D01*
X0059030Y0011700D01*
X0054970Y0011700D01*
X0052100Y0008830D01*
X0052100Y0004770D01*
X0052770Y0004100D01*
X0051230Y0004100D01*
X0051900Y0004770D01*
X0051900Y0008830D01*
X0049030Y0011700D01*
X0044970Y0011700D01*
X0042100Y0008830D01*
X0042100Y0004770D01*
X0042770Y0004100D01*
X0041230Y0004100D01*
X0041900Y0004770D01*
X0041900Y0008830D01*
X0039030Y0011700D01*
X0034970Y0011700D01*
X0032100Y0008830D01*
X0032100Y0004770D01*
X0032770Y0004100D01*
X0031230Y0004100D01*
X0031900Y0004770D01*
X0031900Y0008830D01*
X0029030Y0011700D01*
X0027300Y0011700D01*
X0027300Y0029813D01*
X0033250Y0023863D01*
X0033250Y0023253D01*
X0033669Y0022242D01*
X0034442Y0021469D01*
X0035453Y0021050D01*
X0036547Y0021050D01*
X0037558Y0021469D01*
X0038331Y0022242D01*
X0038750Y0023253D01*
X0038750Y0024347D01*
X0038331Y0025358D01*
X0037558Y0026131D01*
X0036547Y0026550D01*
X0035937Y0026550D01*
X0028900Y0033587D01*
X0028900Y0064250D01*
X0029880Y0064250D01*
X0030000Y0064370D01*
X0030120Y0064250D01*
X0035200Y0064250D01*
X0035200Y0062904D01*
X0035196Y0062900D01*
X0034200Y0061904D01*
X0034200Y0035889D01*
X0033680Y0035369D02*
X0028900Y0035369D01*
X0028900Y0033770D02*
X0033150Y0033770D01*
X0033556Y0032172D02*
X0030315Y0032172D01*
X0031914Y0030573D02*
X0080823Y0030573D01*
X0082421Y0028975D02*
X0033512Y0028975D01*
X0035111Y0027376D02*
X0084020Y0027376D01*
X0085618Y0025778D02*
X0037911Y0025778D01*
X0038750Y0024179D02*
X0087217Y0024179D01*
X0088815Y0022581D02*
X0038471Y0022581D01*
X0033528Y0022581D02*
X0027300Y0022581D01*
X0027300Y0024179D02*
X0032934Y0024179D01*
X0031335Y0025778D02*
X0027300Y0025778D01*
X0027300Y0027376D02*
X0029737Y0027376D01*
X0028138Y0028975D02*
X0027300Y0028975D01*
X0038244Y0032172D02*
X0079224Y0032172D01*
X0077626Y0033770D02*
X0038650Y0033770D01*
X0038120Y0035369D02*
X0076027Y0035369D01*
X0074429Y0036967D02*
X0037600Y0036967D01*
X0037600Y0038566D02*
X0072830Y0038566D01*
X0069747Y0040164D02*
X0037600Y0040164D01*
X0037600Y0041763D02*
X0069250Y0041763D01*
X0069672Y0043361D02*
X0037600Y0043361D01*
X0037600Y0044960D02*
X0135171Y0044960D01*
X0135300Y0046558D02*
X0037600Y0046558D01*
X0037600Y0048157D02*
X0135300Y0048157D01*
X0135300Y0049755D02*
X0037600Y0049755D01*
X0037600Y0051354D02*
X0135300Y0051354D01*
X0135300Y0052952D02*
X0037600Y0052952D01*
X0037600Y0054551D02*
X0135300Y0054551D01*
X0135300Y0056149D02*
X0037600Y0056149D01*
X0037600Y0057748D02*
X0135300Y0057748D01*
X0135300Y0059346D02*
X0037600Y0059346D01*
X0038049Y0060945D02*
X0135300Y0060945D01*
X0135300Y0062543D02*
X0038600Y0062543D01*
X0038600Y0064142D02*
X0135300Y0064142D01*
X0135300Y0065740D02*
X0050700Y0065740D01*
X0050700Y0067339D02*
X0135300Y0067339D01*
X0135300Y0068937D02*
X0050700Y0068937D01*
X0050700Y0070536D02*
X0051204Y0070536D01*
X0053196Y0070536D02*
X0135300Y0070536D01*
X0135300Y0072134D02*
X0054777Y0072134D01*
X0054914Y0073733D02*
X0135300Y0073733D01*
X0135300Y0075332D02*
X0053858Y0075332D01*
X0050542Y0075332D02*
X0047936Y0075332D01*
X0049534Y0076930D02*
X0135300Y0076930D01*
X0135300Y0078529D02*
X0051133Y0078529D01*
X0052731Y0080127D02*
X0135300Y0080127D01*
X0135300Y0081726D02*
X0083293Y0081726D01*
X0090454Y0083324D02*
X0093546Y0083324D01*
X0092100Y0084923D02*
X0091900Y0084923D01*
X0091900Y0086521D02*
X0092100Y0086521D01*
X0092100Y0088120D02*
X0091900Y0088120D01*
X0100454Y0083324D02*
X0103546Y0083324D01*
X0102100Y0084923D02*
X0101900Y0084923D01*
X0101900Y0086521D02*
X0102100Y0086521D01*
X0102100Y0088120D02*
X0101900Y0088120D01*
X0110454Y0083324D02*
X0113546Y0083324D01*
X0112100Y0084923D02*
X0111900Y0084923D01*
X0111900Y0086521D02*
X0112100Y0086521D01*
X0112100Y0088120D02*
X0111900Y0088120D01*
X0120454Y0083324D02*
X0123546Y0083324D01*
X0122100Y0084923D02*
X0121900Y0084923D01*
X0121900Y0086521D02*
X0122100Y0086521D01*
X0122100Y0088120D02*
X0121900Y0088120D01*
X0130454Y0083324D02*
X0133546Y0083324D01*
X0132100Y0084923D02*
X0131900Y0084923D01*
X0131900Y0086521D02*
X0132100Y0086521D01*
X0132100Y0088120D02*
X0131900Y0088120D01*
X0140454Y0083324D02*
X0143546Y0083324D01*
X0144970Y0081900D02*
X0142100Y0084770D01*
X0142100Y0088830D01*
X0142770Y0089500D01*
X0141230Y0089500D01*
X0141900Y0088830D01*
X0141900Y0084770D01*
X0139030Y0081900D01*
X0138700Y0081900D01*
X0138700Y0049009D01*
X0138969Y0049658D01*
X0139742Y0050431D01*
X0140753Y0050850D01*
X0141051Y0050850D01*
X0141469Y0051858D01*
X0142242Y0052631D01*
X0143253Y0053050D01*
X0144347Y0053050D01*
X0145100Y0052738D01*
X0145100Y0081900D01*
X0144970Y0081900D01*
X0145100Y0081726D02*
X0138700Y0081726D01*
X0138700Y0080127D02*
X0145100Y0080127D01*
X0145100Y0078529D02*
X0138700Y0078529D01*
X0138700Y0076930D02*
X0145100Y0076930D01*
X0145100Y0075332D02*
X0138700Y0075332D01*
X0138700Y0073733D02*
X0145100Y0073733D01*
X0145100Y0072134D02*
X0138700Y0072134D01*
X0138700Y0070536D02*
X0145100Y0070536D01*
X0145100Y0068937D02*
X0138700Y0068937D01*
X0138700Y0067339D02*
X0145100Y0067339D01*
X0145100Y0065740D02*
X0138700Y0065740D01*
X0138700Y0064142D02*
X0145100Y0064142D01*
X0145100Y0062543D02*
X0138700Y0062543D01*
X0138700Y0060945D02*
X0145100Y0060945D01*
X0145100Y0059346D02*
X0138700Y0059346D01*
X0138700Y0057748D02*
X0145100Y0057748D01*
X0145100Y0056149D02*
X0138700Y0056149D01*
X0138700Y0054551D02*
X0145100Y0054551D01*
X0145100Y0052952D02*
X0144583Y0052952D01*
X0143017Y0052952D02*
X0138700Y0052952D01*
X0138700Y0051354D02*
X0141260Y0051354D01*
X0139066Y0049755D02*
X0138700Y0049755D01*
X0138700Y0046558D02*
X0138962Y0046558D01*
X0138829Y0044960D02*
X0141753Y0044960D01*
X0139750Y0043361D02*
X0144400Y0043361D01*
X0144400Y0041763D02*
X0139506Y0041763D01*
X0137581Y0040164D02*
X0144400Y0040164D01*
X0144400Y0038566D02*
X0077638Y0038566D01*
X0076040Y0040164D02*
X0136419Y0040164D01*
X0134494Y0041763D02*
X0074750Y0041763D01*
X0074328Y0043361D02*
X0134250Y0043361D01*
X0144400Y0036967D02*
X0079237Y0036967D01*
X0080835Y0035369D02*
X0144400Y0035369D01*
X0144400Y0033770D02*
X0082434Y0033770D01*
X0084032Y0032172D02*
X0144400Y0032172D01*
X0144400Y0030573D02*
X0085631Y0030573D01*
X0087229Y0028975D02*
X0144400Y0028975D01*
X0144400Y0027376D02*
X0088828Y0027376D01*
X0090426Y0025778D02*
X0144400Y0025778D01*
X0144400Y0024179D02*
X0103442Y0024179D01*
X0104653Y0022581D02*
X0144400Y0022581D01*
X0143978Y0020982D02*
X0105222Y0020982D01*
X0106821Y0019384D02*
X0142379Y0019384D01*
X0140781Y0017785D02*
X0108419Y0017785D01*
X0110018Y0016187D02*
X0140700Y0016187D01*
X0140700Y0014588D02*
X0111616Y0014588D01*
X0113215Y0012990D02*
X0139750Y0012990D01*
X0139758Y0011391D02*
X0139339Y0011391D01*
X0134661Y0011391D02*
X0129339Y0011391D01*
X0130937Y0009793D02*
X0133063Y0009793D01*
X0132100Y0008194D02*
X0131900Y0008194D01*
X0131900Y0006596D02*
X0132100Y0006596D01*
X0132100Y0004997D02*
X0131900Y0004997D01*
X0122100Y0004997D02*
X0121900Y0004997D01*
X0121900Y0006596D02*
X0122100Y0006596D01*
X0122100Y0008194D02*
X0121900Y0008194D01*
X0120937Y0009793D02*
X0123063Y0009793D01*
X0124661Y0011391D02*
X0119339Y0011391D01*
X0111603Y0009793D02*
X0110937Y0009793D01*
X0110005Y0011391D02*
X0109339Y0011391D01*
X0108406Y0012990D02*
X0103215Y0012990D01*
X0101616Y0014588D02*
X0106808Y0014588D01*
X0105209Y0016187D02*
X0100018Y0016187D01*
X0098419Y0017785D02*
X0103611Y0017785D01*
X0100648Y0019384D02*
X0096821Y0019384D01*
X0095222Y0020982D02*
X0099362Y0020982D01*
X0099347Y0022581D02*
X0093623Y0022581D01*
X0092025Y0024179D02*
X0100558Y0024179D01*
X0092012Y0019384D02*
X0087350Y0019384D01*
X0088419Y0017785D02*
X0093611Y0017785D01*
X0095209Y0016187D02*
X0090018Y0016187D01*
X0091616Y0014588D02*
X0096808Y0014588D01*
X0098406Y0012990D02*
X0093215Y0012990D01*
X0090005Y0011391D02*
X0089339Y0011391D01*
X0088406Y0012990D02*
X0027300Y0012990D01*
X0029339Y0011391D02*
X0034661Y0011391D01*
X0033063Y0009793D02*
X0030937Y0009793D01*
X0031900Y0008194D02*
X0032100Y0008194D01*
X0032100Y0006596D02*
X0031900Y0006596D01*
X0031900Y0004997D02*
X0032100Y0004997D01*
X0040937Y0009793D02*
X0043063Y0009793D01*
X0042100Y0008194D02*
X0041900Y0008194D01*
X0041900Y0006596D02*
X0042100Y0006596D01*
X0042100Y0004997D02*
X0041900Y0004997D01*
X0051900Y0004997D02*
X0052100Y0004997D01*
X0052100Y0006596D02*
X0051900Y0006596D01*
X0051900Y0008194D02*
X0052100Y0008194D01*
X0053063Y0009793D02*
X0050937Y0009793D01*
X0049339Y0011391D02*
X0054661Y0011391D01*
X0059339Y0011391D02*
X0064661Y0011391D01*
X0063063Y0009793D02*
X0060937Y0009793D01*
X0061900Y0008194D02*
X0062100Y0008194D01*
X0062100Y0006596D02*
X0061900Y0006596D01*
X0061900Y0004997D02*
X0062100Y0004997D01*
X0070937Y0009793D02*
X0073063Y0009793D01*
X0072100Y0008194D02*
X0071900Y0008194D01*
X0071900Y0006596D02*
X0072100Y0006596D01*
X0072100Y0004997D02*
X0071900Y0004997D01*
X0080937Y0009793D02*
X0083063Y0009793D01*
X0082100Y0008194D02*
X0081900Y0008194D01*
X0081900Y0006596D02*
X0082100Y0006596D01*
X0082100Y0004997D02*
X0081900Y0004997D01*
X0091900Y0004997D02*
X0092100Y0004997D01*
X0092100Y0006596D02*
X0091900Y0006596D01*
X0091900Y0008194D02*
X0092100Y0008194D01*
X0091603Y0009793D02*
X0090937Y0009793D01*
X0084661Y0011391D02*
X0079339Y0011391D01*
X0074661Y0011391D02*
X0069339Y0011391D01*
X0082251Y0017785D02*
X0027300Y0017785D01*
X0027300Y0019384D02*
X0081850Y0019384D01*
X0082393Y0020982D02*
X0027300Y0020982D01*
X0027300Y0016187D02*
X0085209Y0016187D01*
X0086808Y0014588D02*
X0027300Y0014588D01*
X0039339Y0011391D02*
X0044661Y0011391D01*
X0008800Y0012990D02*
X0004300Y0012990D01*
X0004300Y0011391D02*
X0004661Y0011391D01*
X0004300Y0014588D02*
X0008800Y0014588D01*
X0008800Y0016187D02*
X0004300Y0016187D01*
X0004300Y0017785D02*
X0008800Y0017785D01*
X0008800Y0019384D02*
X0004300Y0019384D01*
X0004300Y0020982D02*
X0008800Y0020982D01*
X0008800Y0022581D02*
X0004300Y0022581D01*
X0004300Y0024179D02*
X0008800Y0024179D01*
X0008800Y0025778D02*
X0004300Y0025778D01*
X0004300Y0027376D02*
X0008800Y0027376D01*
X0008800Y0028975D02*
X0004300Y0028975D01*
X0004300Y0030573D02*
X0008800Y0030573D01*
X0008800Y0032172D02*
X0004300Y0032172D01*
X0004300Y0033770D02*
X0008800Y0033770D01*
X0008800Y0035369D02*
X0004300Y0035369D01*
X0004300Y0036967D02*
X0008800Y0036967D01*
X0008800Y0038566D02*
X0004300Y0038566D01*
X0004300Y0040164D02*
X0008800Y0040164D01*
X0008800Y0041763D02*
X0004300Y0041763D01*
X0004300Y0043361D02*
X0008800Y0043361D01*
X0008800Y0044960D02*
X0004300Y0044960D01*
X0004300Y0046558D02*
X0008800Y0046558D01*
X0008800Y0048157D02*
X0004300Y0048157D01*
X0004300Y0049755D02*
X0008800Y0049755D01*
X0008800Y0051354D02*
X0004300Y0051354D01*
X0004300Y0052952D02*
X0008800Y0052952D01*
X0008800Y0054551D02*
X0004300Y0054551D01*
X0004300Y0056149D02*
X0008462Y0056149D01*
X0007750Y0057748D02*
X0004300Y0057748D01*
X0004300Y0059346D02*
X0008081Y0059346D01*
X0004300Y0060945D02*
X0025100Y0060945D01*
X0025100Y0062543D02*
X0004300Y0062543D01*
X0004300Y0064142D02*
X0025100Y0064142D01*
X0023300Y0065740D02*
X0004300Y0065740D01*
X0004300Y0067339D02*
X0004329Y0067339D01*
X0009071Y0067339D02*
X0023300Y0067339D01*
X0023300Y0068937D02*
X0009450Y0068937D01*
X0010840Y0070536D02*
X0023300Y0070536D01*
X0023300Y0072134D02*
X0019075Y0072134D01*
X0016125Y0072134D02*
X0012439Y0072134D01*
X0014037Y0073733D02*
X0014941Y0073733D01*
X0028900Y0064142D02*
X0035200Y0064142D01*
X0034839Y0062543D02*
X0028900Y0062543D01*
X0028900Y0060945D02*
X0034200Y0060945D01*
X0034200Y0059346D02*
X0028900Y0059346D01*
X0028900Y0057748D02*
X0034200Y0057748D01*
X0034200Y0056149D02*
X0028900Y0056149D01*
X0028900Y0054551D02*
X0034200Y0054551D01*
X0034200Y0052952D02*
X0028900Y0052952D01*
X0028900Y0051354D02*
X0034200Y0051354D01*
X0034200Y0049755D02*
X0028900Y0049755D01*
X0028900Y0048157D02*
X0034200Y0048157D01*
X0034200Y0046558D02*
X0028900Y0046558D01*
X0028900Y0044960D02*
X0034200Y0044960D01*
X0034200Y0043361D02*
X0028900Y0043361D01*
X0028900Y0041763D02*
X0034200Y0041763D01*
X0034200Y0040164D02*
X0028900Y0040164D01*
X0028900Y0038566D02*
X0034200Y0038566D01*
X0025100Y0048157D02*
X0012200Y0048157D01*
X0012200Y0049755D02*
X0025100Y0049755D01*
X0025100Y0051354D02*
X0012200Y0051354D01*
X0012200Y0052952D02*
X0025100Y0052952D01*
X0025100Y0054551D02*
X0012200Y0054551D01*
X0012538Y0056149D02*
X0025100Y0056149D01*
X0025100Y0057748D02*
X0013250Y0057748D01*
X0012919Y0059346D02*
X0025100Y0059346D01*
X0086807Y0020982D02*
X0090414Y0020982D01*
X0099339Y0011391D02*
X0100005Y0011391D01*
X0100937Y0009793D02*
X0101603Y0009793D01*
X0101900Y0008194D02*
X0102100Y0008194D01*
X0102100Y0006596D02*
X0101900Y0006596D01*
X0101900Y0004997D02*
X0102100Y0004997D01*
X0111900Y0004997D02*
X0112100Y0004997D01*
X0112100Y0006596D02*
X0111900Y0006596D01*
X0111900Y0008194D02*
X0112100Y0008194D01*
X0156500Y0014304D02*
X0156500Y0044996D01*
X0158254Y0046750D01*
X0159147Y0046750D01*
X0160158Y0047169D01*
X0160931Y0047942D01*
X0161350Y0048953D01*
X0161350Y0050047D01*
X0160931Y0051058D01*
X0160158Y0051831D01*
X0159147Y0052250D01*
X0158053Y0052250D01*
X0157042Y0051831D01*
X0156950Y0051739D01*
X0156858Y0051831D01*
X0155847Y0052250D01*
X0154753Y0052250D01*
X0153742Y0051831D01*
X0153650Y0051739D01*
X0153558Y0051831D01*
X0152547Y0052250D01*
X0151453Y0052250D01*
X0150600Y0051897D01*
X0150600Y0054620D01*
X0151253Y0054350D01*
X0152347Y0054350D01*
X0153358Y0054769D01*
X0154131Y0055542D01*
X0154550Y0056553D01*
X0154550Y0057647D01*
X0154131Y0058658D01*
X0153500Y0059289D01*
X0153500Y0077911D01*
X0154131Y0078542D01*
X0154550Y0079553D01*
X0154550Y0080647D01*
X0154131Y0081658D01*
X0153358Y0082431D01*
X0152347Y0082850D01*
X0152237Y0082850D01*
X0153129Y0083742D01*
X0154970Y0081900D01*
X0159030Y0081900D01*
X0159150Y0082020D01*
X0159150Y0081853D01*
X0159535Y0080924D01*
X0159269Y0080658D01*
X0158850Y0079647D01*
X0158850Y0078553D01*
X0159269Y0077542D01*
X0159900Y0076911D01*
X0159900Y0061604D01*
X0158146Y0059850D01*
X0157253Y0059850D01*
X0156242Y0059431D01*
X0155469Y0058658D01*
X0155050Y0057647D01*
X0155050Y0056553D01*
X0155469Y0055542D01*
X0156242Y0054769D01*
X0157253Y0054350D01*
X0158347Y0054350D01*
X0159358Y0054769D01*
X0160131Y0055542D01*
X0160550Y0056553D01*
X0160550Y0057446D01*
X0162200Y0059096D01*
X0162200Y0049596D01*
X0162650Y0049146D01*
X0162650Y0048253D01*
X0163069Y0047242D01*
X0163842Y0046469D01*
X0164853Y0046050D01*
X0165947Y0046050D01*
X0166958Y0046469D01*
X0167731Y0047242D01*
X0168150Y0048253D01*
X0168150Y0049347D01*
X0167731Y0050358D01*
X0166958Y0051131D01*
X0165947Y0051550D01*
X0165600Y0051550D01*
X0165600Y0081104D01*
X0165204Y0081500D01*
X0166800Y0081500D01*
X0166800Y0086600D01*
X0167200Y0086600D01*
X0167200Y0081500D01*
X0169195Y0081500D01*
X0169700Y0082005D01*
X0169700Y0043794D01*
X0158456Y0043794D01*
X0157987Y0043326D01*
X0157987Y0036364D01*
X0158100Y0036251D01*
X0158100Y0022969D01*
X0158569Y0022500D01*
X0169700Y0022500D01*
X0169700Y0011030D01*
X0169030Y0011700D01*
X0164970Y0011700D01*
X0162887Y0009617D01*
X0160600Y0011904D01*
X0159604Y0012900D01*
X0157904Y0012900D01*
X0156500Y0014304D01*
X0156500Y0014588D02*
X0169700Y0014588D01*
X0169700Y0012990D02*
X0157815Y0012990D01*
X0161113Y0011391D02*
X0164661Y0011391D01*
X0163063Y0009793D02*
X0162712Y0009793D01*
X0169339Y0011391D02*
X0169700Y0011391D01*
X0169700Y0016187D02*
X0156500Y0016187D01*
X0156500Y0017785D02*
X0169700Y0017785D01*
X0169700Y0019384D02*
X0156500Y0019384D01*
X0156500Y0020982D02*
X0169700Y0020982D01*
X0158488Y0022581D02*
X0156500Y0022581D01*
X0156500Y0024179D02*
X0158100Y0024179D01*
X0158100Y0025778D02*
X0156500Y0025778D01*
X0156500Y0027376D02*
X0158100Y0027376D01*
X0158100Y0028975D02*
X0156500Y0028975D01*
X0156500Y0030573D02*
X0158100Y0030573D01*
X0158100Y0032172D02*
X0156500Y0032172D01*
X0156500Y0033770D02*
X0158100Y0033770D01*
X0158100Y0035369D02*
X0156500Y0035369D01*
X0156500Y0036967D02*
X0157987Y0036967D01*
X0157987Y0038566D02*
X0156500Y0038566D01*
X0156500Y0040164D02*
X0157987Y0040164D01*
X0157987Y0041763D02*
X0156500Y0041763D01*
X0156500Y0043361D02*
X0158023Y0043361D01*
X0156500Y0044960D02*
X0169700Y0044960D01*
X0169700Y0046558D02*
X0167047Y0046558D01*
X0163753Y0046558D02*
X0158062Y0046558D01*
X0161020Y0048157D02*
X0162690Y0048157D01*
X0162200Y0049755D02*
X0161350Y0049755D01*
X0160635Y0051354D02*
X0162200Y0051354D01*
X0162200Y0052952D02*
X0150600Y0052952D01*
X0150600Y0054551D02*
X0150768Y0054551D01*
X0152832Y0054551D02*
X0156768Y0054551D01*
X0158832Y0054551D02*
X0162200Y0054551D01*
X0162200Y0056149D02*
X0160383Y0056149D01*
X0160852Y0057748D02*
X0162200Y0057748D01*
X0165600Y0057748D02*
X0169700Y0057748D01*
X0169700Y0059346D02*
X0165600Y0059346D01*
X0165600Y0060945D02*
X0169700Y0060945D01*
X0169700Y0062543D02*
X0165600Y0062543D01*
X0165600Y0064142D02*
X0169700Y0064142D01*
X0169700Y0065740D02*
X0165600Y0065740D01*
X0165600Y0067339D02*
X0169700Y0067339D01*
X0169700Y0068937D02*
X0165600Y0068937D01*
X0165600Y0070536D02*
X0169700Y0070536D01*
X0169700Y0072134D02*
X0165600Y0072134D01*
X0165600Y0073733D02*
X0169700Y0073733D01*
X0169700Y0075332D02*
X0165600Y0075332D01*
X0165600Y0076930D02*
X0169700Y0076930D01*
X0169700Y0078529D02*
X0165600Y0078529D01*
X0165600Y0080127D02*
X0169700Y0080127D01*
X0169700Y0081726D02*
X0169421Y0081726D01*
X0167200Y0081726D02*
X0166800Y0081726D01*
X0166800Y0083324D02*
X0167200Y0083324D01*
X0167200Y0084923D02*
X0166800Y0084923D01*
X0166800Y0086521D02*
X0167200Y0086521D01*
X0159203Y0081726D02*
X0154063Y0081726D01*
X0154550Y0080127D02*
X0159049Y0080127D01*
X0158860Y0078529D02*
X0154118Y0078529D01*
X0153500Y0076930D02*
X0159881Y0076930D01*
X0159900Y0075332D02*
X0153500Y0075332D01*
X0153500Y0073733D02*
X0159900Y0073733D01*
X0159900Y0072134D02*
X0153500Y0072134D01*
X0153500Y0070536D02*
X0159900Y0070536D01*
X0159900Y0068937D02*
X0153500Y0068937D01*
X0153500Y0067339D02*
X0159900Y0067339D01*
X0159900Y0065740D02*
X0153500Y0065740D01*
X0153500Y0064142D02*
X0159900Y0064142D01*
X0159900Y0062543D02*
X0153500Y0062543D01*
X0153500Y0060945D02*
X0159241Y0060945D01*
X0156157Y0059346D02*
X0153500Y0059346D01*
X0154508Y0057748D02*
X0155092Y0057748D01*
X0155217Y0056149D02*
X0154383Y0056149D01*
X0165600Y0056149D02*
X0169700Y0056149D01*
X0169700Y0054551D02*
X0165600Y0054551D01*
X0165600Y0052952D02*
X0169700Y0052952D01*
X0169700Y0051354D02*
X0166421Y0051354D01*
X0167981Y0049755D02*
X0169700Y0049755D01*
X0169700Y0048157D02*
X0168110Y0048157D01*
X0153546Y0083324D02*
X0152711Y0083324D01*
X0142100Y0084923D02*
X0141900Y0084923D01*
X0141900Y0086521D02*
X0142100Y0086521D01*
X0142100Y0088120D02*
X0141900Y0088120D01*
D13*
X0151800Y0080100D03*
X0161600Y0079100D03*
X0161900Y0082400D03*
X0157800Y0057100D03*
X0151800Y0057100D03*
X0140500Y0056600D03*
X0143800Y0050300D03*
X0141300Y0048100D03*
X0149700Y0046900D03*
X0152000Y0049500D03*
X0155300Y0049500D03*
X0158600Y0049500D03*
X0165400Y0048800D03*
X0149700Y0043600D03*
X0149700Y0040300D03*
X0140600Y0042900D03*
X0137000Y0042900D03*
X0120500Y0046600D03*
X0110500Y0046600D03*
X0085500Y0046600D03*
X0080500Y0046600D03*
X0075500Y0046600D03*
X0072000Y0041800D03*
X0060500Y0041600D03*
X0045500Y0041600D03*
X0035900Y0033700D03*
X0019800Y0034900D03*
X0019800Y0039100D03*
X0019800Y0043800D03*
X0019800Y0030200D03*
X0036000Y0023800D03*
X0045500Y0024900D03*
X0060500Y0024900D03*
X0065500Y0026600D03*
X0070500Y0026600D03*
X0075500Y0026600D03*
X0084600Y0019300D03*
X0102000Y0021800D03*
X0142400Y0012200D03*
X0146300Y0017700D03*
X0149700Y0017700D03*
X0159500Y0021899D03*
X0162700Y0021899D03*
X0165900Y0021899D03*
X0169100Y0021899D03*
X0157500Y0025100D03*
X0157500Y0028200D03*
X0157500Y0031300D03*
X0157500Y0034400D03*
X0075500Y0066600D03*
X0070500Y0066600D03*
X0065500Y0066600D03*
X0052200Y0073100D03*
X0017600Y0074500D03*
X0006700Y0068800D03*
X0010500Y0061600D03*
X0010500Y0058000D03*
X0053000Y0033400D03*
X0023300Y0017800D03*
X0019800Y0017800D03*
X0013600Y0019100D03*
X0006500Y0019100D03*
D14*
X0027000Y0032800D02*
X0036000Y0023800D01*
X0027000Y0032800D02*
X0027000Y0068800D01*
X0032000Y0069800D02*
X0032000Y0071800D01*
X0029300Y0074500D01*
X0017600Y0074500D01*
X0032000Y0069800D02*
X0033000Y0068800D01*
X0047000Y0068800D02*
X0047000Y0071800D01*
X0048300Y0073100D01*
X0052200Y0073100D01*
X0138700Y0053300D02*
X0138700Y0044800D01*
X0140600Y0042900D01*
X0142700Y0046700D02*
X0141300Y0048100D01*
X0142700Y0046700D02*
X0145900Y0046700D01*
X0148700Y0049500D01*
X0148700Y0082000D01*
X0153500Y0086800D01*
X0157000Y0086800D01*
X0147000Y0086800D02*
X0147000Y0050300D01*
X0143800Y0050300D01*
X0140500Y0055100D02*
X0138700Y0053300D01*
X0140500Y0055100D02*
X0140500Y0056600D01*
D15*
X0151800Y0057100D02*
X0151800Y0080100D01*
X0161600Y0079100D02*
X0161600Y0060900D01*
X0157800Y0057100D01*
X0163900Y0050300D02*
X0163900Y0080400D01*
X0161900Y0082400D01*
X0137000Y0086800D02*
X0137000Y0042900D01*
X0146100Y0043300D02*
X0146100Y0020700D01*
X0142400Y0017000D01*
X0142400Y0012200D01*
X0146300Y0017700D02*
X0147400Y0018800D01*
X0147400Y0041300D01*
X0149700Y0043600D01*
X0149700Y0046900D02*
X0146100Y0043300D01*
X0149700Y0040300D02*
X0149700Y0017700D01*
X0154800Y0013600D02*
X0154800Y0045700D01*
X0158600Y0049500D01*
X0155300Y0049500D02*
X0155300Y0047900D01*
X0153600Y0046200D01*
X0153600Y0010200D01*
X0157000Y0006800D01*
X0158900Y0011200D02*
X0163300Y0006800D01*
X0167000Y0006800D01*
X0158900Y0011200D02*
X0157200Y0011200D01*
X0154800Y0013600D01*
X0152400Y0012200D02*
X0147000Y0006800D01*
X0152400Y0012200D02*
X0152400Y0046100D01*
X0152000Y0046500D01*
X0152000Y0049500D01*
X0163900Y0050300D02*
X0165400Y0048800D01*
X0117000Y0006800D02*
X0102000Y0021800D01*
X0097000Y0006800D02*
X0084600Y0019200D01*
X0084600Y0019300D01*
X0107000Y0006800D02*
X0072000Y0041800D01*
X0035900Y0033700D02*
X0035900Y0061200D01*
X0036900Y0062200D01*
X0036900Y0072200D01*
X0037600Y0072900D01*
X0041400Y0072900D01*
X0052100Y0083600D01*
X0053800Y0083600D01*
X0057000Y0086800D01*
X0052600Y0082400D02*
X0041000Y0070800D01*
X0041000Y0068800D01*
X0042000Y0068800D02*
X0046000Y0068800D01*
X0032000Y0068800D02*
X0028000Y0068800D01*
X0010500Y0058000D02*
X0010500Y0010300D01*
X0007000Y0006800D01*
X0017000Y0006800D02*
X0017000Y0041000D01*
X0019800Y0043800D01*
X0019800Y0039100D02*
X0025600Y0033300D01*
X0025600Y0008200D01*
X0027000Y0006800D01*
X0023300Y0017800D02*
X0023300Y0031400D01*
X0019800Y0034900D01*
X0019800Y0030200D02*
X0019800Y0017800D01*
X0006700Y0068800D02*
X0019700Y0081800D01*
X0042000Y0081800D01*
X0047000Y0086800D01*
X0052600Y0082400D02*
X0081400Y0082400D01*
X0087000Y0086800D01*
M02*
