G75*
G70*
%OFA0B0*%
%FSLAX24Y24*%
%IPPOS*%
%LPD*%
%AMOC8*
5,1,8,0,0,1.08239X$1,22.5*
%
%ADD10C,0.0000*%
%ADD11C,0.0030*%
%ADD12C,0.0060*%
%ADD13C,0.0050*%
D10*
X000987Y000900D02*
X000987Y007196D01*
X015987Y007196D01*
X015987Y000900D01*
X000987Y000900D01*
D11*
X002089Y001413D02*
X002089Y001462D01*
X002137Y001510D01*
X002234Y001510D01*
X002282Y001558D01*
X002282Y001607D01*
X002234Y001655D01*
X002137Y001655D01*
X002089Y001607D01*
X002089Y001413D02*
X002137Y001365D01*
X002234Y001365D01*
X002282Y001413D01*
X002480Y001365D02*
X002480Y001655D01*
X002384Y001655D02*
X002577Y001655D01*
X002678Y001607D02*
X002727Y001655D01*
X002823Y001655D01*
X002872Y001607D01*
X002872Y001413D01*
X002823Y001365D01*
X002727Y001365D01*
X002678Y001413D01*
X002727Y002365D02*
X002823Y002365D01*
X002872Y002413D01*
X002775Y002510D02*
X002727Y002510D01*
X002678Y002462D01*
X002678Y002413D01*
X002727Y002365D01*
X002727Y002510D02*
X002678Y002558D01*
X002678Y002607D01*
X002727Y002655D01*
X002823Y002655D01*
X002872Y002607D01*
X003073Y002495D02*
X003073Y002785D01*
X003266Y002785D02*
X003266Y002495D01*
X003170Y002592D01*
X003073Y002495D01*
X003367Y002543D02*
X003416Y002495D01*
X003513Y002495D01*
X003561Y002543D01*
X003561Y002737D01*
X003513Y002785D01*
X003416Y002785D01*
X003367Y002737D01*
X003367Y002543D01*
X003662Y002495D02*
X003856Y002495D01*
X003856Y002785D01*
X003957Y002785D02*
X004150Y002785D01*
X004150Y002495D01*
X004150Y002640D02*
X004054Y002640D01*
X002872Y003413D02*
X002823Y003365D01*
X002727Y003365D01*
X002678Y003413D01*
X002678Y003510D01*
X002775Y003510D01*
X002872Y003607D02*
X002872Y003413D01*
X002872Y003607D02*
X002823Y003655D01*
X002727Y003655D01*
X002678Y003607D01*
X002577Y003655D02*
X002384Y003365D01*
X002384Y003655D01*
X002282Y003655D02*
X002137Y003655D01*
X002089Y003607D01*
X002089Y003413D01*
X002137Y003365D01*
X002282Y003365D01*
X002282Y003655D01*
X002577Y003655D02*
X002577Y003365D01*
X002577Y002655D02*
X002577Y002462D01*
X002480Y002365D01*
X002384Y002462D01*
X002384Y002655D01*
X002282Y002607D02*
X002234Y002655D01*
X002137Y002655D01*
X002089Y002607D01*
X002089Y002558D01*
X002137Y002510D01*
X002089Y002462D01*
X002089Y002413D01*
X002137Y002365D01*
X002234Y002365D01*
X002282Y002413D01*
X002186Y002510D02*
X002137Y002510D01*
X002137Y004365D02*
X002089Y004413D01*
X002089Y004607D01*
X002137Y004655D01*
X002282Y004655D01*
X002282Y004365D01*
X002137Y004365D01*
X002384Y004365D02*
X002577Y004655D01*
X002678Y004655D02*
X002872Y004655D01*
X002775Y004655D02*
X002775Y004365D01*
X002577Y004365D02*
X002384Y004655D01*
X002384Y005365D02*
X002577Y005655D01*
X002678Y005607D02*
X002678Y005510D01*
X002727Y005462D01*
X002872Y005462D01*
X002872Y005365D02*
X002872Y005655D01*
X002727Y005655D01*
X002678Y005607D01*
X002775Y005462D02*
X002678Y005365D01*
X002577Y005365D02*
X002384Y005655D01*
X002282Y005655D02*
X002137Y005655D01*
X002089Y005607D01*
X002089Y005413D01*
X002137Y005365D01*
X002282Y005365D01*
X002282Y005655D01*
X002234Y006365D02*
X002137Y006365D01*
X002089Y006413D01*
X002089Y006462D01*
X002137Y006510D01*
X002234Y006510D01*
X002282Y006558D01*
X002282Y006607D01*
X002234Y006655D01*
X002137Y006655D01*
X002089Y006607D01*
X002282Y006413D02*
X002234Y006365D01*
X002480Y006365D02*
X002480Y006655D01*
X002384Y006655D02*
X002577Y006655D01*
X002678Y006607D02*
X002678Y006510D01*
X002727Y006462D01*
X002872Y006462D01*
X002872Y006365D02*
X002872Y006655D01*
X002727Y006655D01*
X002678Y006607D01*
X002775Y006462D02*
X002678Y006365D01*
X008371Y002874D02*
X008433Y002935D01*
X008556Y002935D01*
X008618Y002874D01*
X008371Y002874D02*
X008371Y002812D01*
X008618Y002565D01*
X008371Y002565D01*
X008740Y002565D02*
X008802Y002565D01*
X008802Y002627D01*
X008740Y002627D01*
X008740Y002565D01*
X008923Y002565D02*
X009170Y002565D01*
X009047Y002565D02*
X009047Y002935D01*
X009170Y002812D01*
X009292Y002812D02*
X009415Y002565D01*
X009539Y002812D01*
X010028Y002935D02*
X010275Y002935D01*
X010152Y002935D02*
X010152Y002565D01*
X010397Y002565D02*
X010520Y002688D01*
X010458Y002688D02*
X010643Y002688D01*
X010765Y002750D02*
X011012Y002750D01*
X011012Y002812D02*
X010888Y002935D01*
X010765Y002812D01*
X010765Y002565D01*
X010643Y002565D02*
X010643Y002935D01*
X010458Y002935D01*
X010397Y002874D01*
X010397Y002750D01*
X010458Y002688D01*
X011012Y002565D02*
X011012Y002812D01*
X011133Y002935D02*
X011133Y002627D01*
X011195Y002565D01*
X011318Y002565D01*
X011380Y002627D01*
X011380Y002935D01*
X011870Y002874D02*
X011870Y002812D01*
X012117Y002565D01*
X011870Y002565D01*
X012238Y002565D02*
X012485Y002565D01*
X012362Y002565D02*
X012362Y002935D01*
X012485Y002812D01*
X012606Y002935D02*
X012853Y002935D01*
X012975Y002935D02*
X012975Y002565D01*
X013098Y002688D01*
X013222Y002565D01*
X013222Y002935D01*
X012730Y002935D02*
X012730Y002565D01*
X012289Y002307D02*
X012289Y002113D01*
X012241Y002065D01*
X012141Y002113D02*
X012093Y002065D01*
X011996Y002065D01*
X011948Y002113D01*
X011948Y002210D01*
X011996Y002258D01*
X012093Y002258D01*
X012141Y002210D01*
X012141Y002113D01*
X012241Y002258D02*
X012338Y002258D01*
X012439Y002258D02*
X012584Y002258D01*
X012632Y002210D01*
X012632Y002113D01*
X012584Y002065D01*
X012439Y002065D01*
X012734Y002162D02*
X012927Y002162D01*
X012927Y002210D02*
X012927Y002113D01*
X012879Y002065D01*
X012782Y002065D01*
X012734Y002162D02*
X012734Y002210D01*
X012782Y002258D01*
X012879Y002258D01*
X012927Y002210D01*
X013028Y002258D02*
X013173Y002258D01*
X013222Y002210D01*
X013173Y002162D01*
X013077Y002162D01*
X013028Y002113D01*
X013077Y002065D01*
X013222Y002065D01*
X011847Y002065D02*
X011847Y002258D01*
X011847Y002162D02*
X011750Y002258D01*
X011702Y002258D01*
X011601Y002210D02*
X011504Y002210D01*
X011405Y002210D02*
X011405Y002113D01*
X011356Y002065D01*
X011260Y002065D01*
X011211Y002162D02*
X011405Y002162D01*
X011405Y002210D02*
X011356Y002258D01*
X011260Y002258D01*
X011211Y002210D01*
X011211Y002162D01*
X011013Y002258D02*
X011013Y002017D01*
X011062Y001968D01*
X011110Y001968D01*
X010914Y002065D02*
X010914Y002113D01*
X010865Y002113D01*
X010865Y002065D01*
X010914Y002065D01*
X010766Y002065D02*
X010766Y002258D01*
X010621Y002258D01*
X010573Y002210D01*
X010573Y002065D01*
X010472Y002113D02*
X010472Y002210D01*
X010423Y002258D01*
X010326Y002258D01*
X010278Y002210D01*
X010278Y002162D01*
X010472Y002162D01*
X010472Y002113D02*
X010423Y002065D01*
X010326Y002065D01*
X010129Y002113D02*
X010080Y002065D01*
X010129Y002113D02*
X010129Y002307D01*
X010177Y002258D02*
X010080Y002258D01*
X011013Y002355D02*
X011013Y002404D01*
X011504Y002355D02*
X011553Y002307D01*
X011553Y002065D01*
X011870Y002874D02*
X011932Y002935D01*
X012055Y002935D01*
X012117Y002874D01*
D12*
X003837Y002250D02*
X003837Y001150D01*
X003835Y001133D01*
X003831Y001116D01*
X003824Y001100D01*
X003814Y001086D01*
X003801Y001073D01*
X003787Y001063D01*
X003771Y001056D01*
X003754Y001052D01*
X003737Y001050D01*
X003137Y001050D01*
X003120Y001052D01*
X003103Y001056D01*
X003087Y001063D01*
X003073Y001073D01*
X003060Y001086D01*
X003050Y001100D01*
X003043Y001116D01*
X003039Y001133D01*
X003037Y001150D01*
X003037Y002250D01*
X003039Y002267D01*
X003043Y002284D01*
X003050Y002300D01*
X003060Y002314D01*
X003073Y002327D01*
X003087Y002337D01*
X003103Y002344D01*
X003120Y002348D01*
X003137Y002350D01*
X003737Y002350D01*
X003754Y002348D01*
X003771Y002344D01*
X003787Y002337D01*
X003801Y002327D01*
X003814Y002314D01*
X003824Y002300D01*
X003831Y002284D01*
X003835Y002267D01*
X003837Y002250D01*
X003437Y002300D02*
X003437Y002100D01*
X003437Y001300D02*
X003437Y001100D01*
D13*
X003164Y001576D02*
X003437Y001599D01*
X003437Y001599D01*
X003710Y001576D01*
X003711Y001575D01*
X003706Y001543D01*
X003697Y001511D01*
X003685Y001481D01*
X003669Y001453D01*
X003650Y001426D01*
X003628Y001402D01*
X003604Y001381D01*
X003577Y001363D01*
X003548Y001348D01*
X003517Y001337D01*
X003486Y001329D01*
X003453Y001325D01*
X003421Y001325D01*
X003388Y001329D01*
X003357Y001337D01*
X003326Y001348D01*
X003297Y001363D01*
X003270Y001381D01*
X003246Y001402D01*
X003224Y001426D01*
X003205Y001453D01*
X003189Y001481D01*
X003177Y001511D01*
X003168Y001543D01*
X003163Y001575D01*
X003210Y001575D01*
X003215Y001547D01*
X003224Y001519D01*
X003236Y001493D01*
X003251Y001468D01*
X003269Y001445D01*
X003290Y001425D01*
X003314Y001408D01*
X003339Y001394D01*
X003366Y001383D01*
X003394Y001376D01*
X003423Y001372D01*
X003451Y001372D01*
X003480Y001376D01*
X003508Y001383D01*
X003535Y001394D01*
X003560Y001408D01*
X003584Y001425D01*
X003605Y001445D01*
X003623Y001468D01*
X003638Y001493D01*
X003650Y001519D01*
X003659Y001547D01*
X003664Y001575D01*
X003616Y001575D01*
X003611Y001550D01*
X003602Y001525D01*
X003590Y001503D01*
X003574Y001482D01*
X003556Y001463D01*
X003535Y001448D01*
X003512Y001435D01*
X003488Y001426D01*
X003463Y001421D01*
X003437Y001419D01*
X003411Y001421D01*
X003386Y001426D01*
X003362Y001435D01*
X003339Y001448D01*
X003318Y001463D01*
X003300Y001482D01*
X003284Y001503D01*
X003272Y001525D01*
X003263Y001550D01*
X003258Y001575D01*
X003305Y001575D01*
X003311Y001554D01*
X003320Y001534D01*
X003332Y001516D01*
X003347Y001500D01*
X003365Y001487D01*
X003384Y001477D01*
X003405Y001470D01*
X003426Y001466D01*
X003448Y001466D01*
X003469Y001470D01*
X003490Y001477D01*
X003509Y001487D01*
X003527Y001500D01*
X003542Y001516D01*
X003554Y001534D01*
X003563Y001554D01*
X003569Y001575D01*
X003520Y001575D01*
X003514Y001559D01*
X003505Y001545D01*
X003492Y001533D01*
X003478Y001523D01*
X003462Y001517D01*
X003446Y001513D01*
X003428Y001513D01*
X003412Y001517D01*
X003396Y001523D01*
X003382Y001533D01*
X003369Y001545D01*
X003360Y001559D01*
X003354Y001575D01*
X003405Y001577D01*
X003412Y001569D01*
X003421Y001563D01*
X003432Y001560D01*
X003442Y001560D01*
X003453Y001563D01*
X003462Y001569D01*
X003469Y001577D01*
X003710Y001824D02*
X003437Y001801D01*
X003437Y001801D01*
X003164Y001824D01*
X003163Y001825D01*
X003168Y001857D01*
X003177Y001889D01*
X003189Y001919D01*
X003205Y001947D01*
X003224Y001974D01*
X003246Y001998D01*
X003270Y002019D01*
X003297Y002037D01*
X003326Y002052D01*
X003357Y002063D01*
X003388Y002071D01*
X003421Y002075D01*
X003453Y002075D01*
X003486Y002071D01*
X003517Y002063D01*
X003548Y002052D01*
X003577Y002037D01*
X003604Y002019D01*
X003628Y001998D01*
X003650Y001974D01*
X003669Y001947D01*
X003685Y001919D01*
X003697Y001889D01*
X003706Y001857D01*
X003711Y001825D01*
X003664Y001825D01*
X003659Y001853D01*
X003650Y001881D01*
X003638Y001907D01*
X003623Y001932D01*
X003605Y001955D01*
X003584Y001975D01*
X003560Y001992D01*
X003535Y002006D01*
X003508Y002017D01*
X003480Y002024D01*
X003451Y002028D01*
X003423Y002028D01*
X003394Y002024D01*
X003366Y002017D01*
X003339Y002006D01*
X003314Y001992D01*
X003290Y001975D01*
X003269Y001955D01*
X003251Y001932D01*
X003236Y001907D01*
X003224Y001881D01*
X003215Y001853D01*
X003210Y001825D01*
X003258Y001825D01*
X003263Y001850D01*
X003272Y001875D01*
X003284Y001897D01*
X003300Y001918D01*
X003318Y001937D01*
X003339Y001952D01*
X003362Y001965D01*
X003386Y001974D01*
X003411Y001979D01*
X003437Y001981D01*
X003463Y001979D01*
X003488Y001974D01*
X003512Y001965D01*
X003535Y001952D01*
X003556Y001937D01*
X003574Y001918D01*
X003590Y001897D01*
X003602Y001875D01*
X003611Y001850D01*
X003616Y001825D01*
X003569Y001825D01*
X003563Y001846D01*
X003554Y001866D01*
X003542Y001884D01*
X003527Y001900D01*
X003509Y001913D01*
X003490Y001923D01*
X003469Y001930D01*
X003448Y001934D01*
X003426Y001934D01*
X003405Y001930D01*
X003384Y001923D01*
X003365Y001913D01*
X003347Y001900D01*
X003332Y001884D01*
X003320Y001866D01*
X003311Y001846D01*
X003305Y001825D01*
X003354Y001825D01*
X003360Y001841D01*
X003369Y001855D01*
X003382Y001867D01*
X003396Y001877D01*
X003412Y001883D01*
X003428Y001887D01*
X003446Y001887D01*
X003462Y001883D01*
X003478Y001877D01*
X003492Y001867D01*
X003505Y001855D01*
X003514Y001841D01*
X003520Y001825D01*
X003469Y001823D01*
X003462Y001831D01*
X003453Y001837D01*
X003442Y001840D01*
X003432Y001840D01*
X003421Y001837D01*
X003412Y001831D01*
X003405Y001823D01*
M02*
