G75*
G70*
%OFA0B0*%
%FSLAX24Y24*%
%IPPOS*%
%LPD*%
%AMOC8*
5,1,8,0,0,1.08239X$1,22.5*
%
%ADD10C,0.0108*%
%ADD11C,0.0072*%
%ADD12R,0.0425X0.0413*%
%ADD13R,0.0394X0.0394*%
D10*
X006017Y001156D02*
X006017Y001630D01*
X006017Y001156D02*
X005765Y001156D01*
X005765Y001630D01*
X006017Y001630D01*
X006017Y001263D02*
X005765Y001263D01*
X005765Y001370D02*
X006017Y001370D01*
X006017Y001477D02*
X005765Y001477D01*
X005765Y001584D02*
X006017Y001584D01*
X006608Y001748D02*
X006608Y001156D01*
X006356Y001156D01*
X006356Y001748D01*
X006608Y001748D01*
X006608Y001263D02*
X006356Y001263D01*
X006356Y001370D02*
X006608Y001370D01*
X006608Y001477D02*
X006356Y001477D01*
X006356Y001584D02*
X006608Y001584D01*
X006608Y001691D02*
X006356Y001691D01*
X007198Y001748D02*
X007198Y001156D01*
X006946Y001156D01*
X006946Y001748D01*
X007198Y001748D01*
X007198Y001263D02*
X006946Y001263D01*
X006946Y001370D02*
X007198Y001370D01*
X007198Y001477D02*
X006946Y001477D01*
X006946Y001584D02*
X007198Y001584D01*
X007198Y001691D02*
X006946Y001691D01*
X007789Y001748D02*
X007789Y001156D01*
X007537Y001156D01*
X007537Y001748D01*
X007789Y001748D01*
X007789Y001263D02*
X007537Y001263D01*
X007537Y001370D02*
X007789Y001370D01*
X007789Y001477D02*
X007537Y001477D01*
X007537Y001584D02*
X007789Y001584D01*
X007789Y001691D02*
X007537Y001691D01*
X008379Y001748D02*
X008379Y001156D01*
X008127Y001156D01*
X008127Y001748D01*
X008379Y001748D01*
X008379Y001263D02*
X008127Y001263D01*
X008127Y001370D02*
X008379Y001370D01*
X008379Y001477D02*
X008127Y001477D01*
X008127Y001584D02*
X008379Y001584D01*
X008379Y001691D02*
X008127Y001691D01*
X008970Y001748D02*
X008970Y001156D01*
X008718Y001156D01*
X008718Y001748D01*
X008970Y001748D01*
X008970Y001263D02*
X008718Y001263D01*
X008718Y001370D02*
X008970Y001370D01*
X008970Y001477D02*
X008718Y001477D01*
X008718Y001584D02*
X008970Y001584D01*
X008970Y001691D02*
X008718Y001691D01*
X009560Y001748D02*
X009560Y001156D01*
X009308Y001156D01*
X009308Y001748D01*
X009560Y001748D01*
X009560Y001263D02*
X009308Y001263D01*
X009308Y001370D02*
X009560Y001370D01*
X009560Y001477D02*
X009308Y001477D01*
X009308Y001584D02*
X009560Y001584D01*
X009560Y001691D02*
X009308Y001691D01*
X010151Y001748D02*
X010151Y001156D01*
X009899Y001156D01*
X009899Y001748D01*
X010151Y001748D01*
X010151Y001263D02*
X009899Y001263D01*
X009899Y001370D02*
X010151Y001370D01*
X010151Y001477D02*
X009899Y001477D01*
X009899Y001584D02*
X010151Y001584D01*
X010151Y001691D02*
X009899Y001691D01*
X010741Y001748D02*
X010741Y001156D01*
X010489Y001156D01*
X010489Y001748D01*
X010741Y001748D01*
X010741Y001263D02*
X010489Y001263D01*
X010489Y001370D02*
X010741Y001370D01*
X010741Y001477D02*
X010489Y001477D01*
X010489Y001584D02*
X010741Y001584D01*
X010741Y001691D02*
X010489Y001691D01*
X011332Y001748D02*
X011332Y001156D01*
X011080Y001156D01*
X011080Y001748D01*
X011332Y001748D01*
X011332Y001263D02*
X011080Y001263D01*
X011080Y001370D02*
X011332Y001370D01*
X011332Y001477D02*
X011080Y001477D01*
X011080Y001584D02*
X011332Y001584D01*
X011332Y001691D02*
X011080Y001691D01*
X011923Y001748D02*
X011923Y001156D01*
X011671Y001156D01*
X011671Y001748D01*
X011923Y001748D01*
X011923Y001263D02*
X011671Y001263D01*
X011671Y001370D02*
X011923Y001370D01*
X011923Y001477D02*
X011671Y001477D01*
X011671Y001584D02*
X011923Y001584D01*
X011923Y001691D02*
X011671Y001691D01*
X012513Y001748D02*
X012513Y001156D01*
X012261Y001156D01*
X012261Y001748D01*
X012513Y001748D01*
X012513Y001263D02*
X012261Y001263D01*
X012261Y001370D02*
X012513Y001370D01*
X012513Y001477D02*
X012261Y001477D01*
X012261Y001584D02*
X012513Y001584D01*
X012513Y001691D02*
X012261Y001691D01*
X013104Y001748D02*
X013104Y001156D01*
X012852Y001156D01*
X012852Y001748D01*
X013104Y001748D01*
X013104Y001263D02*
X012852Y001263D01*
X012852Y001370D02*
X013104Y001370D01*
X013104Y001477D02*
X012852Y001477D01*
X012852Y001584D02*
X013104Y001584D01*
X013104Y001691D02*
X012852Y001691D01*
X013694Y001630D02*
X013694Y001156D01*
X013442Y001156D01*
X013442Y001630D01*
X013694Y001630D01*
X013694Y001263D02*
X013442Y001263D01*
X013442Y001370D02*
X013694Y001370D01*
X013694Y001477D02*
X013442Y001477D01*
X013442Y001584D02*
X013694Y001584D01*
X015280Y003333D02*
X015754Y003333D01*
X015280Y003333D02*
X015280Y003585D01*
X015754Y003585D01*
X015754Y003333D01*
X015754Y003440D02*
X015280Y003440D01*
X015280Y003547D02*
X015754Y003547D01*
X015754Y003924D02*
X015162Y003924D01*
X015162Y004176D01*
X015754Y004176D01*
X015754Y003924D01*
X015754Y004031D02*
X015162Y004031D01*
X015162Y004138D02*
X015754Y004138D01*
X015754Y004515D02*
X015280Y004515D01*
X015280Y004767D01*
X015754Y004767D01*
X015754Y004515D01*
X015754Y004622D02*
X015280Y004622D01*
X015280Y004729D02*
X015754Y004729D01*
X013694Y006470D02*
X013694Y006944D01*
X013694Y006470D02*
X013442Y006470D01*
X013442Y006944D01*
X013694Y006944D01*
X013694Y006577D02*
X013442Y006577D01*
X013442Y006684D02*
X013694Y006684D01*
X013694Y006791D02*
X013442Y006791D01*
X013442Y006898D02*
X013694Y006898D01*
X013104Y006944D02*
X013104Y006352D01*
X012852Y006352D01*
X012852Y006944D01*
X013104Y006944D01*
X013104Y006459D02*
X012852Y006459D01*
X012852Y006566D02*
X013104Y006566D01*
X013104Y006673D02*
X012852Y006673D01*
X012852Y006780D02*
X013104Y006780D01*
X013104Y006887D02*
X012852Y006887D01*
X012513Y006944D02*
X012513Y006352D01*
X012261Y006352D01*
X012261Y006944D01*
X012513Y006944D01*
X012513Y006459D02*
X012261Y006459D01*
X012261Y006566D02*
X012513Y006566D01*
X012513Y006673D02*
X012261Y006673D01*
X012261Y006780D02*
X012513Y006780D01*
X012513Y006887D02*
X012261Y006887D01*
X011923Y006944D02*
X011923Y006352D01*
X011671Y006352D01*
X011671Y006944D01*
X011923Y006944D01*
X011923Y006459D02*
X011671Y006459D01*
X011671Y006566D02*
X011923Y006566D01*
X011923Y006673D02*
X011671Y006673D01*
X011671Y006780D02*
X011923Y006780D01*
X011923Y006887D02*
X011671Y006887D01*
X011332Y006944D02*
X011332Y006352D01*
X011080Y006352D01*
X011080Y006944D01*
X011332Y006944D01*
X011332Y006459D02*
X011080Y006459D01*
X011080Y006566D02*
X011332Y006566D01*
X011332Y006673D02*
X011080Y006673D01*
X011080Y006780D02*
X011332Y006780D01*
X011332Y006887D02*
X011080Y006887D01*
X010741Y006944D02*
X010741Y006352D01*
X010489Y006352D01*
X010489Y006944D01*
X010741Y006944D01*
X010741Y006459D02*
X010489Y006459D01*
X010489Y006566D02*
X010741Y006566D01*
X010741Y006673D02*
X010489Y006673D01*
X010489Y006780D02*
X010741Y006780D01*
X010741Y006887D02*
X010489Y006887D01*
X010151Y006944D02*
X010151Y006352D01*
X009899Y006352D01*
X009899Y006944D01*
X010151Y006944D01*
X010151Y006459D02*
X009899Y006459D01*
X009899Y006566D02*
X010151Y006566D01*
X010151Y006673D02*
X009899Y006673D01*
X009899Y006780D02*
X010151Y006780D01*
X010151Y006887D02*
X009899Y006887D01*
X009560Y006944D02*
X009560Y006352D01*
X009308Y006352D01*
X009308Y006944D01*
X009560Y006944D01*
X009560Y006459D02*
X009308Y006459D01*
X009308Y006566D02*
X009560Y006566D01*
X009560Y006673D02*
X009308Y006673D01*
X009308Y006780D02*
X009560Y006780D01*
X009560Y006887D02*
X009308Y006887D01*
X008379Y006944D02*
X008379Y006352D01*
X008127Y006352D01*
X008127Y006944D01*
X008379Y006944D01*
X008379Y006459D02*
X008127Y006459D01*
X008127Y006566D02*
X008379Y006566D01*
X008379Y006673D02*
X008127Y006673D01*
X008127Y006780D02*
X008379Y006780D01*
X008379Y006887D02*
X008127Y006887D01*
X007789Y006944D02*
X007789Y006352D01*
X007537Y006352D01*
X007537Y006944D01*
X007789Y006944D01*
X007789Y006459D02*
X007537Y006459D01*
X007537Y006566D02*
X007789Y006566D01*
X007789Y006673D02*
X007537Y006673D01*
X007537Y006780D02*
X007789Y006780D01*
X007789Y006887D02*
X007537Y006887D01*
X007198Y006944D02*
X007198Y006352D01*
X006946Y006352D01*
X006946Y006944D01*
X007198Y006944D01*
X007198Y006459D02*
X006946Y006459D01*
X006946Y006566D02*
X007198Y006566D01*
X007198Y006673D02*
X006946Y006673D01*
X006946Y006780D02*
X007198Y006780D01*
X007198Y006887D02*
X006946Y006887D01*
X006608Y006944D02*
X006608Y006352D01*
X006356Y006352D01*
X006356Y006944D01*
X006608Y006944D01*
X006608Y006459D02*
X006356Y006459D01*
X006356Y006566D02*
X006608Y006566D01*
X006608Y006673D02*
X006356Y006673D01*
X006356Y006780D02*
X006608Y006780D01*
X006608Y006887D02*
X006356Y006887D01*
X006017Y006944D02*
X006017Y006470D01*
X005765Y006470D01*
X005765Y006944D01*
X006017Y006944D01*
X006017Y006577D02*
X005765Y006577D01*
X005765Y006684D02*
X006017Y006684D01*
X006017Y006791D02*
X005765Y006791D01*
X005765Y006898D02*
X006017Y006898D01*
D11*
X008988Y006962D02*
X008988Y006334D01*
X008700Y006334D01*
X008700Y006962D01*
X008988Y006962D01*
X008988Y006405D02*
X008700Y006405D01*
X008700Y006476D02*
X008988Y006476D01*
X008988Y006547D02*
X008700Y006547D01*
X008700Y006618D02*
X008988Y006618D01*
X008988Y006689D02*
X008700Y006689D01*
X008700Y006760D02*
X008988Y006760D01*
X008988Y006831D02*
X008700Y006831D01*
X008700Y006902D02*
X008988Y006902D01*
D12*
X004937Y006744D03*
X004937Y006056D03*
D13*
X004087Y006006D03*
X004087Y006794D03*
M02*
