G75*
G70*
%OFA0B0*%
%FSLAX24Y24*%
%IPPOS*%
%LPD*%
%AMOC8*
5,1,8,0,0,1.08239X$1,22.5*
%
%ADD10C,0.0000*%
%ADD11C,0.0030*%
%ADD12C,0.0040*%
%ADD13C,0.0050*%
%ADD14C,0.0060*%
%ADD15R,0.0200X0.0200*%
%ADD16R,0.0315X0.0138*%
%ADD17R,0.0472X0.0118*%
D10*
X000987Y000900D02*
X000987Y007196D01*
X015987Y007196D01*
X015987Y000900D01*
X000987Y000900D01*
D11*
X002102Y001413D02*
X002150Y001365D01*
X002247Y001365D01*
X002295Y001413D01*
X002102Y001413D02*
X002102Y001607D01*
X002150Y001655D01*
X002247Y001655D01*
X002295Y001607D01*
X002396Y001655D02*
X002590Y001655D01*
X002493Y001655D02*
X002493Y001365D01*
X002691Y001413D02*
X002739Y001365D01*
X002836Y001365D01*
X002884Y001413D01*
X002884Y001462D01*
X002836Y001510D01*
X002739Y001510D01*
X002691Y001558D01*
X002691Y001607D01*
X002739Y001655D01*
X002836Y001655D01*
X002884Y001607D01*
X004102Y002165D02*
X004102Y002455D01*
X004247Y002455D01*
X004295Y002407D01*
X004295Y002310D01*
X004247Y002262D01*
X004102Y002262D01*
X004198Y002262D02*
X004295Y002165D01*
X004396Y002165D02*
X004590Y002165D01*
X004691Y002213D02*
X004739Y002165D01*
X004836Y002165D01*
X004884Y002213D01*
X004884Y002262D01*
X004836Y002310D01*
X004739Y002310D01*
X004691Y002358D01*
X004691Y002407D01*
X004739Y002455D01*
X004836Y002455D01*
X004884Y002407D01*
X004590Y002455D02*
X004396Y002455D01*
X004396Y002165D01*
X004396Y002310D02*
X004493Y002310D01*
X005752Y002342D02*
X005752Y002535D01*
X005752Y002438D02*
X006042Y002438D01*
X005945Y002535D01*
X005897Y002240D02*
X005945Y002144D01*
X005945Y002095D01*
X005897Y002047D01*
X005800Y002047D01*
X005752Y002095D01*
X005752Y002192D01*
X005800Y002240D01*
X005897Y002240D02*
X006042Y002240D01*
X006042Y002047D01*
X003872Y003015D02*
X003581Y003015D01*
X003581Y003160D01*
X003630Y003208D01*
X003727Y003208D01*
X003775Y003160D01*
X003775Y003015D01*
X003872Y003310D02*
X003872Y003406D01*
X003872Y003358D02*
X003581Y003358D01*
X003581Y003310D02*
X003581Y003406D01*
X003630Y003506D02*
X003823Y003506D01*
X003872Y003554D01*
X003872Y003651D01*
X003823Y003700D01*
X003630Y003700D01*
X003581Y003651D01*
X003581Y003554D01*
X003630Y003506D01*
X003727Y003801D02*
X003727Y003946D01*
X003775Y003994D01*
X003823Y003994D01*
X003872Y003946D01*
X003872Y003849D01*
X003823Y003801D01*
X003727Y003801D01*
X003630Y003897D01*
X003581Y003994D01*
X003581Y004165D02*
X003581Y004310D01*
X003630Y004358D01*
X003727Y004358D01*
X003775Y004310D01*
X003775Y004165D01*
X003872Y004165D02*
X003581Y004165D01*
X003581Y004460D02*
X003581Y004556D01*
X003581Y004508D02*
X003872Y004508D01*
X003872Y004460D02*
X003872Y004556D01*
X003823Y004656D02*
X003872Y004704D01*
X003872Y004801D01*
X003823Y004850D01*
X003630Y004850D01*
X003581Y004801D01*
X003581Y004704D01*
X003630Y004656D01*
X003823Y004656D01*
X003823Y004951D02*
X003872Y004951D01*
X003823Y004951D02*
X003630Y005144D01*
X003581Y005144D01*
X003581Y004951D01*
X002884Y004607D02*
X002836Y004655D01*
X002691Y004655D01*
X002691Y004365D01*
X002836Y004365D01*
X002884Y004413D01*
X002884Y004607D01*
X002590Y004655D02*
X002396Y004365D01*
X002590Y004365D02*
X002396Y004655D01*
X002295Y004655D02*
X002102Y004655D01*
X002198Y004655D02*
X002198Y004365D01*
X002150Y003655D02*
X002102Y003607D01*
X002102Y003413D01*
X002150Y003365D01*
X002247Y003365D01*
X002295Y003413D01*
X002295Y003510D01*
X002198Y003510D01*
X002295Y003607D02*
X002247Y003655D01*
X002150Y003655D01*
X002396Y003655D02*
X002590Y003365D01*
X002590Y003655D01*
X002691Y003655D02*
X002836Y003655D01*
X002884Y003607D01*
X002884Y003413D01*
X002836Y003365D01*
X002691Y003365D01*
X002691Y003655D01*
X002396Y003655D02*
X002396Y003365D01*
X002396Y002655D02*
X002396Y002462D01*
X002493Y002365D01*
X002590Y002462D01*
X002590Y002655D01*
X002691Y002607D02*
X002739Y002655D01*
X002836Y002655D01*
X002884Y002607D01*
X002884Y002558D01*
X002836Y002510D01*
X002884Y002462D01*
X002884Y002413D01*
X002836Y002365D01*
X002739Y002365D01*
X002691Y002413D01*
X002788Y002510D02*
X002836Y002510D01*
X002295Y002462D02*
X002295Y002413D01*
X002247Y002365D01*
X002150Y002365D01*
X002102Y002413D01*
X002198Y002510D02*
X002247Y002510D01*
X002295Y002462D01*
X002247Y002510D02*
X002295Y002558D01*
X002295Y002607D01*
X002247Y002655D01*
X002150Y002655D01*
X002102Y002607D01*
X002102Y005365D02*
X002102Y005655D01*
X002247Y005655D01*
X002295Y005607D01*
X002295Y005510D01*
X002247Y005462D01*
X002102Y005462D01*
X002198Y005462D02*
X002295Y005365D01*
X002396Y005365D02*
X002590Y005655D01*
X002691Y005655D02*
X002836Y005655D01*
X002884Y005607D01*
X002884Y005413D01*
X002836Y005365D01*
X002691Y005365D01*
X002691Y005655D01*
X002396Y005655D02*
X002590Y005365D01*
X003852Y005415D02*
X004045Y005415D01*
X004146Y005415D02*
X004340Y005415D01*
X004243Y005415D02*
X004243Y005705D01*
X004146Y005608D01*
X003852Y005705D02*
X003852Y005415D01*
X004652Y005463D02*
X004700Y005415D01*
X004797Y005415D01*
X004845Y005463D01*
X004946Y005415D02*
X005140Y005415D01*
X005043Y005415D02*
X005043Y005705D01*
X004946Y005608D01*
X004845Y005657D02*
X004797Y005705D01*
X004700Y005705D01*
X004652Y005657D01*
X004652Y005463D01*
X005752Y005720D02*
X006042Y005720D01*
X005897Y005865D01*
X005897Y005672D01*
X005752Y005967D02*
X005752Y006160D01*
X005752Y006063D02*
X006042Y006063D01*
X005945Y006160D01*
X002884Y006413D02*
X002836Y006365D01*
X002739Y006365D01*
X002691Y006413D01*
X002739Y006510D02*
X002836Y006510D01*
X002884Y006462D01*
X002884Y006413D01*
X002739Y006510D02*
X002691Y006558D01*
X002691Y006607D01*
X002739Y006655D01*
X002836Y006655D01*
X002884Y006607D01*
X002590Y006655D02*
X002396Y006655D01*
X002493Y006655D02*
X002493Y006365D01*
X002295Y006365D02*
X002198Y006462D01*
X002247Y006462D02*
X002102Y006462D01*
X002102Y006365D02*
X002102Y006655D01*
X002247Y006655D01*
X002295Y006607D01*
X002295Y006510D01*
X002247Y006462D01*
X013427Y006160D02*
X013427Y005967D01*
X013427Y006063D02*
X013717Y006063D01*
X013620Y006160D01*
X014475Y004855D02*
X014572Y004855D01*
X014620Y004807D01*
X014620Y004758D01*
X014572Y004710D01*
X014620Y004662D01*
X014620Y004613D01*
X014572Y004565D01*
X014475Y004565D01*
X014427Y004613D01*
X014721Y004565D02*
X014915Y004565D01*
X014818Y004565D02*
X014818Y004855D01*
X014721Y004758D01*
X014572Y004710D02*
X014523Y004710D01*
X014427Y004807D02*
X014475Y004855D01*
X014475Y004230D02*
X014572Y004230D01*
X014620Y004182D01*
X014620Y004133D01*
X014572Y004085D01*
X014620Y004037D01*
X014620Y003988D01*
X014572Y003940D01*
X014475Y003940D01*
X014427Y003988D01*
X014523Y004085D02*
X014572Y004085D01*
X014427Y004182D02*
X014475Y004230D01*
X014721Y004182D02*
X014770Y004230D01*
X014866Y004230D01*
X014915Y004182D01*
X014721Y003988D01*
X014770Y003940D01*
X014866Y003940D01*
X014915Y003988D01*
X014915Y004182D01*
X014721Y004182D02*
X014721Y003988D01*
X014165Y004230D02*
X013971Y004230D01*
X013971Y003940D01*
X013870Y003940D02*
X013773Y004037D01*
X013822Y004037D02*
X013677Y004037D01*
X013677Y003940D02*
X013677Y004230D01*
X013822Y004230D01*
X013870Y004182D01*
X013870Y004085D01*
X013822Y004037D01*
X013971Y004085D02*
X014068Y004085D01*
X014475Y003605D02*
X014427Y003557D01*
X014475Y003605D02*
X014572Y003605D01*
X014620Y003557D01*
X014620Y003508D01*
X014427Y003315D01*
X014620Y003315D01*
X014721Y003363D02*
X014770Y003315D01*
X014866Y003315D01*
X014915Y003363D01*
X014915Y003557D01*
X014866Y003605D01*
X014770Y003605D01*
X014721Y003557D01*
X014721Y003508D01*
X014770Y003460D01*
X014915Y003460D01*
X013717Y002487D02*
X013669Y002535D01*
X013717Y002487D02*
X013717Y002390D01*
X013669Y002342D01*
X013620Y002342D01*
X013427Y002535D01*
X013427Y002342D01*
X013475Y002240D02*
X013427Y002192D01*
X013427Y002095D01*
X013475Y002047D01*
X013523Y002047D01*
X013572Y002095D01*
X013572Y002192D01*
X013620Y002240D01*
X013669Y002240D01*
X013717Y002192D01*
X013717Y002095D01*
X013669Y002047D01*
X013620Y002047D01*
X013572Y002095D01*
X013572Y002192D02*
X013523Y002240D01*
X013475Y002240D01*
D12*
X013102Y003870D02*
X013102Y004177D01*
X012949Y004330D01*
X012795Y004177D01*
X012795Y003870D01*
X012795Y004100D02*
X013102Y004100D01*
X012642Y004100D02*
X012335Y004100D01*
X012181Y004177D02*
X012181Y004254D01*
X012105Y004330D01*
X011951Y004330D01*
X011874Y004254D01*
X011568Y004330D02*
X011568Y003870D01*
X011721Y003870D02*
X011414Y003870D01*
X011107Y003870D02*
X011107Y004330D01*
X010954Y004330D02*
X011261Y004330D01*
X011414Y004177D02*
X011568Y004330D01*
X011874Y003870D02*
X012181Y004177D01*
X012181Y003870D02*
X011874Y003870D01*
X010800Y003870D02*
X010800Y004330D01*
X010493Y004330D02*
X010493Y003870D01*
X010647Y004023D01*
X010800Y003870D01*
X009879Y003870D02*
X009649Y003870D01*
X009572Y003947D01*
X009649Y004023D01*
X009879Y004023D01*
X009879Y004100D02*
X009879Y003870D01*
X009879Y004100D02*
X009803Y004177D01*
X009649Y004177D01*
X009419Y004177D02*
X009189Y004177D01*
X009112Y004100D01*
X009112Y003947D01*
X009189Y003870D01*
X009419Y003870D01*
X009419Y003793D02*
X009419Y004177D01*
X008882Y004177D02*
X008882Y003870D01*
X008805Y003870D02*
X008959Y003870D01*
X008652Y003870D02*
X008422Y003870D01*
X008345Y003947D01*
X008345Y004100D01*
X008422Y004177D01*
X008652Y004177D01*
X008652Y003793D01*
X008575Y003717D01*
X008498Y003717D01*
X008115Y003870D02*
X007961Y003870D01*
X007884Y003947D01*
X007884Y004100D01*
X007961Y004177D01*
X008115Y004177D01*
X008191Y004100D01*
X008191Y004023D01*
X007884Y004023D01*
X007731Y003870D02*
X007501Y003870D01*
X007424Y003947D01*
X007424Y004177D01*
X007194Y004330D02*
X007117Y004330D01*
X007194Y004330D02*
X007194Y003870D01*
X007117Y003870D02*
X007271Y003870D01*
X006964Y003947D02*
X006964Y004023D01*
X006887Y004100D01*
X006657Y004100D01*
X006887Y004100D02*
X006964Y004177D01*
X006964Y004254D01*
X006887Y004330D01*
X006657Y004330D01*
X006657Y003870D01*
X006887Y003870D01*
X006964Y003947D01*
X007731Y003870D02*
X007731Y004177D01*
X008805Y004177D02*
X008882Y004177D01*
X008882Y004330D02*
X008882Y004407D01*
X009419Y003793D02*
X009342Y003717D01*
X009266Y003717D01*
X005074Y006115D02*
X005074Y006685D01*
X004799Y006685D02*
X004799Y006115D01*
X004299Y006060D02*
X004299Y006740D01*
X003869Y006740D02*
X003869Y006060D01*
D13*
X005497Y006806D02*
X005497Y001294D01*
X015576Y001294D01*
X015576Y006806D01*
X005497Y006806D01*
X015006Y006412D02*
X015008Y006438D01*
X015014Y006464D01*
X015023Y006488D01*
X015037Y006511D01*
X015053Y006532D01*
X015072Y006550D01*
X015094Y006564D01*
X015118Y006576D01*
X015143Y006584D01*
X015169Y006588D01*
X015195Y006588D01*
X015221Y006584D01*
X015246Y006576D01*
X015270Y006564D01*
X015292Y006550D01*
X015311Y006532D01*
X015327Y006511D01*
X015341Y006488D01*
X015350Y006464D01*
X015356Y006438D01*
X015358Y006412D01*
X015356Y006386D01*
X015350Y006360D01*
X015341Y006336D01*
X015327Y006313D01*
X015311Y006292D01*
X015292Y006274D01*
X015270Y006260D01*
X015246Y006248D01*
X015221Y006240D01*
X015195Y006236D01*
X015169Y006236D01*
X015143Y006240D01*
X015118Y006248D01*
X015094Y006260D01*
X015072Y006274D01*
X015053Y006292D01*
X015037Y006313D01*
X015023Y006336D01*
X015014Y006360D01*
X015008Y006386D01*
X015006Y006412D01*
D14*
X004987Y004800D02*
X004987Y004300D01*
X004737Y004050D01*
X004237Y004050D01*
X003987Y004300D01*
X003987Y004800D01*
X004237Y005050D01*
X004737Y005050D01*
X004987Y004800D01*
X004737Y004050D02*
X004237Y004050D01*
X003987Y003800D01*
X003987Y003300D01*
X004237Y003050D01*
X004737Y003050D01*
X004987Y003300D01*
X004987Y003800D01*
X004737Y004050D01*
X001987Y003800D02*
X001987Y003300D01*
X001737Y003050D01*
X001987Y002800D01*
X001987Y002300D01*
X001737Y002050D01*
X001987Y001800D01*
X001987Y001300D01*
X001737Y001050D01*
X001237Y001050D01*
X000987Y001300D01*
X000987Y001800D01*
X001237Y002050D01*
X000987Y002300D01*
X000987Y002800D01*
X001237Y003050D01*
X001737Y003050D01*
X001237Y003050D02*
X000987Y003300D01*
X000987Y003800D01*
X001237Y004050D01*
X000987Y004300D01*
X000987Y004800D01*
X001237Y005050D01*
X000987Y005300D01*
X000987Y005800D01*
X001237Y006050D01*
X000987Y006300D01*
X000987Y006800D01*
X001237Y007050D01*
X001737Y007050D01*
X001987Y006800D01*
X001987Y006300D01*
X001737Y006050D01*
X001987Y005800D01*
X001987Y005300D01*
X001737Y005050D01*
X001987Y004800D01*
X001987Y004300D01*
X001737Y004050D01*
X001987Y003800D01*
X001737Y004050D02*
X001237Y004050D01*
X001237Y005050D02*
X001737Y005050D01*
X001737Y006050D02*
X001237Y006050D01*
X001237Y002050D02*
X001737Y002050D01*
X003987Y001800D02*
X003987Y001300D01*
X004237Y001050D01*
X004737Y001050D01*
X004987Y001300D01*
X004987Y001800D01*
X004737Y002050D01*
X004237Y002050D01*
X003987Y001800D01*
D15*
X004487Y001550D03*
X001487Y001550D03*
X001487Y002550D03*
X001487Y003550D03*
X001487Y004550D03*
X001487Y005550D03*
X001487Y006550D03*
X004487Y004550D03*
X004487Y003550D03*
D16*
X004937Y006154D03*
X004937Y006646D03*
D17*
X004083Y006791D03*
X004083Y006011D03*
M02*
