G75*
G70*
%OFA0B0*%
%FSLAX24Y24*%
%IPPOS*%
%LPD*%
%AMOC8*
5,1,8,0,0,1.08239X$1,22.5*
%
%ADD10OC8,0.0700*%
%ADD11R,0.0630X0.0460*%
%ADD12C,0.0100*%
%ADD13C,0.0340*%
%ADD14C,0.0160*%
D10*
X001487Y001550D03*
X001487Y002550D03*
X001487Y003550D03*
X001487Y004550D03*
X001487Y005550D03*
X001487Y006550D03*
X004487Y004550D03*
X004487Y003550D03*
X004487Y001550D03*
D11*
X003437Y001400D03*
X003437Y002000D03*
D12*
X003437Y001400D02*
X002787Y001400D01*
X002787Y001900D01*
X003187Y002250D02*
X002137Y002250D01*
X001487Y001600D01*
X001487Y001550D01*
X003187Y002250D02*
X003437Y002000D01*
X004087Y002500D02*
X003737Y002850D01*
X002237Y002850D01*
X001487Y002600D02*
X001487Y002550D01*
X001487Y002600D02*
X003487Y004600D01*
X003487Y006100D01*
X003587Y006500D02*
X003087Y006500D01*
X002237Y005650D01*
X001487Y006450D01*
X001487Y006550D01*
X002237Y005650D02*
X002237Y003850D01*
X003187Y003200D02*
X003687Y003700D01*
X003687Y004500D01*
X004287Y005100D01*
X004687Y005100D01*
X005887Y003900D01*
X006387Y003900D01*
X006987Y003300D01*
X007187Y003300D01*
X006287Y003700D02*
X005287Y003700D01*
X004487Y004500D01*
X004487Y004550D01*
X005387Y005200D02*
X006287Y004300D01*
X006287Y004800D02*
X008987Y004800D01*
X008287Y004300D02*
X008287Y002000D01*
X007887Y001600D01*
X005187Y001600D01*
X004987Y002100D02*
X004487Y001600D01*
X004487Y001550D01*
X004987Y002100D02*
X006787Y002100D01*
X007387Y002100D02*
X005987Y003500D01*
X004487Y003500D01*
X004487Y003550D01*
X004987Y003100D02*
X004987Y002500D01*
X005387Y002500D01*
X004987Y002500D02*
X004087Y002500D01*
X006287Y003700D02*
X007887Y002100D01*
X011187Y005700D02*
X004387Y005700D01*
X003587Y006500D01*
X005527Y006100D02*
X013587Y006100D01*
D13*
X013587Y006100D03*
X012987Y005900D03*
X013487Y005400D03*
X012987Y004900D03*
X013487Y004400D03*
X012487Y004400D03*
X012487Y005400D03*
X011187Y005700D03*
X010487Y004900D03*
X009987Y004400D03*
X008987Y004800D03*
X008737Y005350D03*
X007487Y005350D03*
X006487Y005350D03*
X006287Y004800D03*
X005387Y005200D03*
X005527Y006100D03*
X003487Y006100D03*
X002487Y006850D03*
X006287Y004300D03*
X008287Y004300D03*
X007187Y003300D03*
X005987Y002900D03*
X005387Y002500D03*
X004987Y003100D03*
X003187Y003200D03*
X002237Y002850D03*
X002237Y003850D03*
X002787Y001900D03*
X005187Y001600D03*
X006787Y002100D03*
X007387Y002100D03*
X007887Y002100D03*
X008987Y002400D03*
X009987Y002400D03*
X011487Y003400D03*
X012487Y003400D03*
X013487Y003400D03*
X013987Y002900D03*
X014487Y002400D03*
X014987Y001900D03*
X015487Y001400D03*
X014487Y001400D03*
X013987Y001900D03*
X015487Y002400D03*
X014987Y002900D03*
D14*
X015757Y002961D02*
X008517Y002961D01*
X008517Y003119D02*
X015757Y003119D01*
X015757Y003278D02*
X008517Y003278D01*
X008517Y003436D02*
X015757Y003436D01*
X015757Y003595D02*
X008517Y003595D01*
X008517Y003753D02*
X015757Y003753D01*
X015757Y003912D02*
X008517Y003912D01*
X008517Y004035D02*
X008583Y004102D01*
X008637Y004230D01*
X008637Y004370D01*
X008583Y004498D01*
X008512Y004570D01*
X008722Y004570D01*
X008788Y004503D01*
X008917Y004450D01*
X009056Y004450D01*
X009185Y004503D01*
X009283Y004602D01*
X009337Y004730D01*
X009337Y004870D01*
X009283Y004998D01*
X009185Y005097D01*
X009056Y005150D01*
X008917Y005150D01*
X008788Y005097D01*
X008722Y005030D01*
X006552Y005030D01*
X006485Y005097D01*
X006356Y005150D01*
X006217Y005150D01*
X006088Y005097D01*
X005990Y004998D01*
X005968Y004944D01*
X005737Y005175D01*
X005737Y005270D01*
X005683Y005398D01*
X005612Y005470D01*
X010922Y005470D01*
X010988Y005403D01*
X011117Y005350D01*
X011256Y005350D01*
X011385Y005403D01*
X011483Y005502D01*
X011537Y005630D01*
X011537Y005770D01*
X011483Y005898D01*
X011385Y005997D01*
X011256Y006050D01*
X011117Y006050D01*
X010988Y005997D01*
X010922Y005930D01*
X004482Y005930D01*
X003817Y006595D01*
X003817Y006595D01*
X003682Y006730D01*
X002991Y006730D01*
X002242Y005981D01*
X001964Y006277D01*
X002017Y006330D01*
X002017Y006770D01*
X001820Y006966D01*
X013537Y006966D01*
X013537Y004700D01*
X015757Y004700D01*
X015757Y001130D01*
X004816Y001130D01*
X004989Y001303D01*
X005117Y001250D01*
X005256Y001250D01*
X005385Y001303D01*
X005452Y001370D01*
X007982Y001370D01*
X008117Y001505D01*
X008517Y001905D01*
X008517Y004035D01*
X008552Y004070D02*
X015757Y004070D01*
X015757Y004229D02*
X008636Y004229D01*
X008629Y004387D02*
X015757Y004387D01*
X015757Y004546D02*
X009227Y004546D01*
X009326Y004704D02*
X013537Y004704D01*
X013537Y004863D02*
X009337Y004863D01*
X009261Y005021D02*
X013537Y005021D01*
X013537Y005180D02*
X005737Y005180D01*
X005708Y005338D02*
X013537Y005338D01*
X013537Y005497D02*
X011478Y005497D01*
X011537Y005655D02*
X013537Y005655D01*
X013537Y005814D02*
X011518Y005814D01*
X011410Y005972D02*
X013537Y005972D01*
X013537Y006131D02*
X004281Y006131D01*
X004123Y006289D02*
X013537Y006289D01*
X013537Y006448D02*
X003964Y006448D01*
X003806Y006606D02*
X013537Y006606D01*
X013537Y006765D02*
X002017Y006765D01*
X002017Y006606D02*
X002867Y006606D01*
X002709Y006448D02*
X002017Y006448D01*
X001975Y006289D02*
X002550Y006289D01*
X002392Y006131D02*
X002101Y006131D01*
X001863Y006923D02*
X013537Y006923D01*
X010964Y005972D02*
X004440Y005972D01*
X005891Y005021D02*
X006013Y005021D01*
X004217Y004070D02*
X003917Y004070D01*
X003917Y003912D02*
X004099Y003912D01*
X004237Y004050D02*
X003957Y003770D01*
X003957Y003330D01*
X004267Y003020D01*
X004706Y003020D01*
X004956Y003270D01*
X005891Y003270D01*
X006713Y002448D01*
X006588Y002397D01*
X006522Y002330D01*
X004891Y002330D01*
X004641Y002080D01*
X004267Y002080D01*
X003957Y001770D01*
X003957Y001330D01*
X004157Y001130D01*
X003932Y001130D01*
X003932Y002305D01*
X003826Y002410D01*
X003352Y002410D01*
X003282Y002480D01*
X002041Y002480D01*
X002017Y002455D01*
X002017Y002770D01*
X001999Y002787D01*
X003457Y004245D01*
X003457Y003795D01*
X003211Y003550D01*
X003117Y003550D01*
X002988Y003497D01*
X002890Y003398D01*
X002837Y003270D01*
X002837Y003130D01*
X002890Y003002D01*
X002988Y002903D01*
X003117Y002850D01*
X003256Y002850D01*
X003385Y002903D01*
X003483Y003002D01*
X003537Y003130D01*
X003537Y003225D01*
X003917Y003605D01*
X003917Y004405D01*
X003957Y004445D01*
X003957Y004330D01*
X004237Y004050D01*
X004059Y004229D02*
X003917Y004229D01*
X003917Y004387D02*
X003957Y004387D01*
X003457Y004229D02*
X003440Y004229D01*
X003457Y004070D02*
X003282Y004070D01*
X003123Y003912D02*
X003457Y003912D01*
X003414Y003753D02*
X002965Y003753D01*
X002806Y003595D02*
X003256Y003595D01*
X002928Y003436D02*
X002648Y003436D01*
X002489Y003278D02*
X002840Y003278D01*
X002841Y003119D02*
X002331Y003119D01*
X002172Y002961D02*
X002931Y002961D01*
X003442Y002961D02*
X006201Y002961D01*
X006042Y003119D02*
X004805Y003119D01*
X004168Y003119D02*
X003532Y003119D01*
X003589Y003278D02*
X004010Y003278D01*
X003957Y003436D02*
X003748Y003436D01*
X003906Y003595D02*
X003957Y003595D01*
X003957Y003753D02*
X003917Y003753D01*
X002014Y002802D02*
X006359Y002802D01*
X006518Y002644D02*
X002017Y002644D01*
X002017Y002485D02*
X006676Y002485D01*
X008304Y001693D02*
X015757Y001693D01*
X015757Y001851D02*
X008463Y001851D01*
X008517Y002010D02*
X015757Y002010D01*
X015757Y002168D02*
X008517Y002168D01*
X008517Y002327D02*
X015757Y002327D01*
X015757Y002485D02*
X008517Y002485D01*
X008517Y002644D02*
X015757Y002644D01*
X015757Y002802D02*
X008517Y002802D01*
X008146Y001534D02*
X015757Y001534D01*
X015757Y001376D02*
X007987Y001376D01*
X004903Y001217D02*
X015757Y001217D01*
X008746Y004546D02*
X008536Y004546D01*
X004888Y002327D02*
X003910Y002327D01*
X003932Y002168D02*
X004729Y002168D01*
X004197Y002010D02*
X003932Y002010D01*
X003932Y001851D02*
X004038Y001851D01*
X003957Y001693D02*
X003932Y001693D01*
X003932Y001534D02*
X003957Y001534D01*
X003957Y001376D02*
X003932Y001376D01*
X003932Y001217D02*
X004070Y001217D01*
M02*
