%
M48
M72
T01C0.0200
T02C0.0400
%
T01
X2787Y1900
X2237Y2850
X3187Y3200
X2237Y3850
X4987Y3100
X5987Y2900
X5387Y2500
X6787Y2100
X7387Y2100
X7887Y2100
X8987Y2400
X9987Y2400
X11487Y3400
X12487Y3400
X13487Y3400
X13987Y2900
X14487Y2400
X14987Y1900
X15487Y1400
X14487Y1400
X13987Y1900
X15487Y2400
X14987Y2900
X13487Y4400
X12987Y4900
X13487Y5400
X12987Y5900
X13587Y6100
X12487Y5400
X11187Y5700
X10487Y4900
X9987Y4400
X8987Y4800
X8737Y5350
X7487Y5350
X6487Y5350
X6287Y4800
X5387Y5200
X5527Y6100
X3487Y6100
X2487Y6850
X6287Y4300
X8287Y4300
X7187Y3300
X5187Y1600
X12487Y4400
T02
X1487Y1550
X1487Y2550
X1487Y3550
X1487Y4550
X1487Y5550
X1487Y6550
X4487Y4550
X4487Y3550
X4487Y1550
M30
