G75*
%MOIN*%
%OFA0B0*%
%FSLAX24Y24*%
%IPPOS*%
%LPD*%
%AMOC8*
5,1,8,0,0,1.08239X$1,22.5*
%
%ADD10C,0.0074*%
%ADD11R,0.1182X0.0371*%
%ADD12R,0.0474X0.0434*%
%ADD13R,0.0395X0.0749*%
%ADD14R,0.0474X0.0513*%
%ADD15R,0.0552X0.0552*%
%ADD16R,0.0513X0.0474*%
%ADD17OC8,0.0780*%
%ADD18C,0.0277*%
D10*
X002250Y002528D02*
X003358Y002528D01*
X003358Y002232D01*
X002250Y002232D01*
X002250Y002528D01*
X002250Y002305D02*
X003358Y002305D01*
X003358Y002378D02*
X002250Y002378D01*
X002250Y002451D02*
X003358Y002451D01*
X003358Y002524D02*
X002250Y002524D01*
D11*
X002804Y002880D03*
X002804Y003380D03*
X002804Y003880D03*
X002804Y004380D03*
X001206Y004380D03*
X001206Y003880D03*
X001206Y003380D03*
X001206Y002880D03*
X001206Y002380D03*
D12*
X004990Y002523D03*
X005620Y002523D03*
X005620Y004137D03*
X004990Y004137D03*
D13*
X004833Y003330D03*
D14*
X004205Y003045D03*
X004205Y003715D03*
X005370Y005880D03*
X006040Y005880D03*
X002040Y005880D03*
X001370Y005880D03*
D15*
X002592Y005880D03*
X003418Y005880D03*
X003992Y005880D03*
X004818Y005880D03*
D16*
X007170Y006380D03*
X007840Y006380D03*
X010670Y006380D03*
X011340Y006380D03*
D17*
X000705Y000680D03*
X001705Y000680D03*
X002705Y000680D03*
X003705Y000680D03*
X004705Y000680D03*
X005705Y000680D03*
X006705Y000680D03*
X007705Y000680D03*
X008705Y000680D03*
X009705Y000680D03*
X010705Y000680D03*
X010705Y007680D03*
X009705Y007680D03*
X008705Y007680D03*
X007705Y007680D03*
X006705Y007680D03*
X005705Y007680D03*
X004705Y007680D03*
X003705Y007680D03*
X002705Y007680D03*
X001705Y007680D03*
X000705Y007680D03*
X011705Y007680D03*
X012705Y007680D03*
D18*
X012600Y005302D02*
X012600Y005302D01*
X012600Y005892D01*
X012600Y005892D01*
X012600Y005302D01*
X012600Y005578D02*
X012600Y005578D01*
X012600Y005854D02*
X012600Y005854D01*
X012285Y005302D02*
X012285Y005302D01*
X012285Y005892D01*
X012285Y005892D01*
X012285Y005302D01*
X012285Y005578D02*
X012285Y005578D01*
X012285Y005854D02*
X012285Y005854D01*
X011970Y005302D02*
X011970Y005302D01*
X011970Y005892D01*
X011970Y005892D01*
X011970Y005302D01*
X011970Y005578D02*
X011970Y005578D01*
X011970Y005854D02*
X011970Y005854D01*
X011655Y005302D02*
X011655Y005302D01*
X011655Y005892D01*
X011655Y005892D01*
X011655Y005302D01*
X011655Y005578D02*
X011655Y005578D01*
X011655Y005854D02*
X011655Y005854D01*
X011340Y005302D02*
X011340Y005302D01*
X011340Y005892D01*
X011340Y005892D01*
X011340Y005302D01*
X011340Y005578D02*
X011340Y005578D01*
X011340Y005854D02*
X011340Y005854D01*
X011025Y005302D02*
X011025Y005302D01*
X011025Y005892D01*
X011025Y005892D01*
X011025Y005302D01*
X011025Y005578D02*
X011025Y005578D01*
X011025Y005854D02*
X011025Y005854D01*
X010710Y005302D02*
X010710Y005302D01*
X010710Y005892D01*
X010710Y005892D01*
X010710Y005302D01*
X010710Y005578D02*
X010710Y005578D01*
X010710Y005854D02*
X010710Y005854D01*
X010395Y005302D02*
X010395Y005302D01*
X010395Y005892D01*
X010395Y005892D01*
X010395Y005302D01*
X010395Y005578D02*
X010395Y005578D01*
X010395Y005854D02*
X010395Y005854D01*
X010080Y005302D02*
X010080Y005302D01*
X010080Y005892D01*
X010080Y005892D01*
X010080Y005302D01*
X010080Y005578D02*
X010080Y005578D01*
X010080Y005854D02*
X010080Y005854D01*
X009765Y005302D02*
X009765Y005302D01*
X009765Y005892D01*
X009765Y005892D01*
X009765Y005302D01*
X009765Y005578D02*
X009765Y005578D01*
X009765Y005854D02*
X009765Y005854D01*
X009450Y005302D02*
X009450Y005302D01*
X009450Y005892D01*
X009450Y005892D01*
X009450Y005302D01*
X009450Y005578D02*
X009450Y005578D01*
X009450Y005854D02*
X009450Y005854D01*
X009136Y005302D02*
X009136Y005302D01*
X009136Y005892D01*
X009136Y005892D01*
X009136Y005302D01*
X009136Y005578D02*
X009136Y005578D01*
X009136Y005854D02*
X009136Y005854D01*
X008821Y005302D02*
X008821Y005302D01*
X008821Y005892D01*
X008821Y005892D01*
X008821Y005302D01*
X008821Y005578D02*
X008821Y005578D01*
X008821Y005854D02*
X008821Y005854D01*
X008506Y005302D02*
X008506Y005302D01*
X008506Y005892D01*
X008506Y005892D01*
X008506Y005302D01*
X008506Y005578D02*
X008506Y005578D01*
X008506Y005854D02*
X008506Y005854D01*
X008191Y005302D02*
X008191Y005302D01*
X008191Y005892D01*
X008191Y005892D01*
X008191Y005302D01*
X008191Y005578D02*
X008191Y005578D01*
X008191Y005854D02*
X008191Y005854D01*
X007876Y005302D02*
X007876Y005302D01*
X007876Y005892D01*
X007876Y005892D01*
X007876Y005302D01*
X007876Y005578D02*
X007876Y005578D01*
X007876Y005854D02*
X007876Y005854D01*
X007561Y005302D02*
X007561Y005302D01*
X007561Y005892D01*
X007561Y005892D01*
X007561Y005302D01*
X007561Y005578D02*
X007561Y005578D01*
X007561Y005854D02*
X007561Y005854D01*
X007639Y004917D02*
X007639Y004917D01*
X007049Y004917D01*
X007049Y004917D01*
X007639Y004917D01*
X007639Y004602D02*
X007639Y004602D01*
X007049Y004602D01*
X007049Y004602D01*
X007639Y004602D01*
X007639Y004287D02*
X007639Y004287D01*
X007049Y004287D01*
X007049Y004287D01*
X007639Y004287D01*
X007049Y003973D02*
X007049Y003973D01*
X007639Y003973D01*
X007639Y003973D01*
X007049Y003973D01*
X007049Y003658D02*
X007049Y003658D01*
X007639Y003658D01*
X007639Y003658D01*
X007049Y003658D01*
X007049Y003343D02*
X007049Y003343D01*
X007639Y003343D01*
X007639Y003343D01*
X007049Y003343D01*
X007561Y002368D02*
X007561Y002368D01*
X007561Y002958D01*
X007561Y002958D01*
X007561Y002368D01*
X007561Y002644D02*
X007561Y002644D01*
X007561Y002920D02*
X007561Y002920D01*
X007876Y002368D02*
X007876Y002368D01*
X007876Y002958D01*
X007876Y002958D01*
X007876Y002368D01*
X007876Y002644D02*
X007876Y002644D01*
X007876Y002920D02*
X007876Y002920D01*
X008191Y002368D02*
X008191Y002368D01*
X008191Y002958D01*
X008191Y002958D01*
X008191Y002368D01*
X008191Y002644D02*
X008191Y002644D01*
X008191Y002920D02*
X008191Y002920D01*
X008506Y002368D02*
X008506Y002368D01*
X008506Y002958D01*
X008506Y002958D01*
X008506Y002368D01*
X008506Y002644D02*
X008506Y002644D01*
X008506Y002920D02*
X008506Y002920D01*
X008821Y002368D02*
X008821Y002368D01*
X008821Y002958D01*
X008821Y002958D01*
X008821Y002368D01*
X008821Y002644D02*
X008821Y002644D01*
X008821Y002920D02*
X008821Y002920D01*
X009136Y002368D02*
X009136Y002368D01*
X009136Y002958D01*
X009136Y002958D01*
X009136Y002368D01*
X009136Y002644D02*
X009136Y002644D01*
X009136Y002920D02*
X009136Y002920D01*
X009450Y002368D02*
X009450Y002368D01*
X009450Y002958D01*
X009450Y002958D01*
X009450Y002368D01*
X009450Y002644D02*
X009450Y002644D01*
X009450Y002920D02*
X009450Y002920D01*
X009765Y002368D02*
X009765Y002368D01*
X009765Y002958D01*
X009765Y002958D01*
X009765Y002368D01*
X009765Y002644D02*
X009765Y002644D01*
X009765Y002920D02*
X009765Y002920D01*
X010080Y002368D02*
X010080Y002368D01*
X010080Y002958D01*
X010080Y002958D01*
X010080Y002368D01*
X010080Y002644D02*
X010080Y002644D01*
X010080Y002920D02*
X010080Y002920D01*
X010395Y002368D02*
X010395Y002368D01*
X010395Y002958D01*
X010395Y002958D01*
X010395Y002368D01*
X010395Y002644D02*
X010395Y002644D01*
X010395Y002920D02*
X010395Y002920D01*
X010710Y002368D02*
X010710Y002368D01*
X010710Y002958D01*
X010710Y002958D01*
X010710Y002368D01*
X010710Y002644D02*
X010710Y002644D01*
X010710Y002920D02*
X010710Y002920D01*
X011025Y002368D02*
X011025Y002368D01*
X011025Y002958D01*
X011025Y002958D01*
X011025Y002368D01*
X011025Y002644D02*
X011025Y002644D01*
X011025Y002920D02*
X011025Y002920D01*
X012915Y005302D02*
X012915Y005302D01*
X012915Y005892D01*
X012915Y005892D01*
X012915Y005302D01*
X012915Y005578D02*
X012915Y005578D01*
X012915Y005854D02*
X012915Y005854D01*
M02*
