G75*
%MOIN*%
%OFA0B0*%
%FSLAX24Y24*%
%IPPOS*%
%LPD*%
%AMOC8*
5,1,8,0,0,1.08239X$1,22.5*
%
%ADD10R,0.0630X0.0460*%
%ADD11R,0.0460X0.0630*%
%ADD12OC8,0.0700*%
%ADD13C,0.0160*%
%ADD14C,0.0270*%
%ADD15C,0.0060*%
%ADD16C,0.0100*%
D10*
X001405Y003680D03*
X001405Y004280D03*
D11*
X002705Y005880D03*
X003305Y005880D03*
X004105Y005880D03*
X004705Y005880D03*
D12*
X000705Y000680D03*
X001705Y000680D03*
X002705Y000680D03*
X003705Y000680D03*
X004705Y000680D03*
X005705Y000680D03*
X006705Y000680D03*
X007705Y000680D03*
X008705Y000680D03*
X009705Y000680D03*
X010705Y000680D03*
X010705Y007680D03*
X009705Y007680D03*
X008705Y007680D03*
X007705Y007680D03*
X006705Y007680D03*
X005705Y007680D03*
X004705Y007680D03*
X003705Y007680D03*
X002705Y007680D03*
X001705Y007680D03*
X000705Y007680D03*
X011705Y007680D03*
X012705Y007680D03*
D13*
X012215Y007630D02*
X012195Y007630D01*
X012195Y007477D02*
X012195Y007883D01*
X012128Y007950D01*
X012282Y007950D01*
X012215Y007883D01*
X012215Y007477D01*
X012502Y007190D01*
X012908Y007190D01*
X012975Y007257D01*
X012975Y004633D01*
X011253Y004633D01*
X011206Y004586D01*
X011206Y002680D01*
X011205Y002680D01*
X011205Y000930D01*
X010925Y001210D01*
X010725Y001210D01*
X010725Y000700D01*
X010685Y000700D01*
X010685Y001210D01*
X010485Y001210D01*
X010177Y000901D01*
X009908Y001170D01*
X009875Y001170D01*
X009875Y003799D01*
X009771Y003903D01*
X009781Y003907D01*
X009858Y003984D01*
X011206Y003984D01*
X011206Y003826D02*
X009848Y003826D01*
X009858Y003984D02*
X009900Y004085D01*
X009900Y004175D01*
X010430Y004705D01*
X010460Y004705D01*
X010561Y004747D01*
X010638Y004824D01*
X010680Y004925D01*
X010680Y005035D01*
X010638Y005136D01*
X010575Y005199D01*
X010575Y007190D01*
X010908Y007190D01*
X011195Y007477D01*
X011195Y007883D01*
X011128Y007950D01*
X011282Y007950D01*
X011215Y007883D01*
X011215Y007477D01*
X011502Y007190D01*
X011615Y007190D01*
X011615Y006819D01*
X011552Y006756D01*
X011510Y006655D01*
X011510Y006545D01*
X011552Y006444D01*
X011629Y006367D01*
X011730Y006325D01*
X011840Y006325D01*
X011941Y006367D01*
X012018Y006444D01*
X012060Y006545D01*
X012060Y006655D01*
X012018Y006756D01*
X011955Y006819D01*
X011955Y007237D01*
X012195Y007477D01*
X012189Y007471D02*
X012221Y007471D01*
X012380Y007313D02*
X012030Y007313D01*
X011955Y007154D02*
X012975Y007154D01*
X012975Y006996D02*
X011955Y006996D01*
X011955Y006837D02*
X012975Y006837D01*
X012975Y006679D02*
X012050Y006679D01*
X012050Y006520D02*
X012975Y006520D01*
X012975Y006362D02*
X011928Y006362D01*
X011642Y006362D02*
X010575Y006362D01*
X010575Y006520D02*
X011520Y006520D01*
X011520Y006679D02*
X010575Y006679D01*
X010575Y006837D02*
X011615Y006837D01*
X011615Y006996D02*
X010575Y006996D01*
X010575Y007154D02*
X011615Y007154D01*
X011380Y007313D02*
X011030Y007313D01*
X011189Y007471D02*
X011221Y007471D01*
X011215Y007630D02*
X011195Y007630D01*
X011195Y007788D02*
X011215Y007788D01*
X011279Y007947D02*
X011131Y007947D01*
X012131Y007947D02*
X012279Y007947D01*
X012215Y007788D02*
X012195Y007788D01*
X012975Y006203D02*
X010575Y006203D01*
X010575Y006045D02*
X012975Y006045D01*
X012975Y005886D02*
X010575Y005886D01*
X010575Y005728D02*
X012975Y005728D01*
X012975Y005569D02*
X010575Y005569D01*
X010575Y005411D02*
X012975Y005411D01*
X012975Y005252D02*
X010575Y005252D01*
X010656Y005094D02*
X012975Y005094D01*
X012975Y004935D02*
X010680Y004935D01*
X010590Y004777D02*
X012975Y004777D01*
X011238Y004618D02*
X010343Y004618D01*
X010185Y004460D02*
X011206Y004460D01*
X011206Y004301D02*
X010026Y004301D01*
X009900Y004143D02*
X011206Y004143D01*
X011206Y003667D02*
X009875Y003667D01*
X009875Y003509D02*
X011206Y003509D01*
X011206Y003350D02*
X009875Y003350D01*
X009875Y003192D02*
X011206Y003192D01*
X011206Y003033D02*
X009875Y003033D01*
X009875Y002875D02*
X011206Y002875D01*
X011206Y002716D02*
X009875Y002716D01*
X009875Y002558D02*
X011205Y002558D01*
X011205Y002399D02*
X009875Y002399D01*
X009875Y002241D02*
X011205Y002241D01*
X011205Y002082D02*
X009875Y002082D01*
X009875Y001924D02*
X011205Y001924D01*
X011205Y001765D02*
X009875Y001765D01*
X009875Y001607D02*
X011205Y001607D01*
X011205Y001448D02*
X009875Y001448D01*
X009875Y001290D02*
X011205Y001290D01*
X011205Y001131D02*
X011004Y001131D01*
X011162Y000973D02*
X011205Y000973D01*
X010725Y000973D02*
X010685Y000973D01*
X010685Y001131D02*
X010725Y001131D01*
X010406Y001131D02*
X009947Y001131D01*
X010105Y000973D02*
X010248Y000973D01*
X010685Y000814D02*
X010725Y000814D01*
X009495Y001163D02*
X009215Y000883D01*
X009215Y000477D01*
X009282Y000410D01*
X009128Y000410D01*
X009195Y000477D01*
X009195Y000883D01*
X008908Y001170D01*
X008502Y001170D01*
X008479Y001147D01*
X007440Y002185D01*
X007440Y002275D01*
X007398Y002376D01*
X007321Y002453D01*
X007220Y002495D01*
X007110Y002495D01*
X007009Y002453D01*
X006932Y002376D01*
X006890Y002275D01*
X006890Y002165D01*
X006932Y002064D01*
X007009Y001987D01*
X007110Y001945D01*
X007200Y001945D01*
X008238Y000906D01*
X008215Y000883D01*
X008215Y000477D01*
X008282Y000410D01*
X008128Y000410D01*
X008195Y000477D01*
X008195Y000883D01*
X007908Y001170D01*
X007502Y001170D01*
X007215Y000883D01*
X007215Y000477D01*
X007282Y000410D01*
X007128Y000410D01*
X007195Y000477D01*
X007195Y000883D01*
X006908Y001170D01*
X006502Y001170D01*
X006215Y000883D01*
X006215Y000477D01*
X006282Y000410D01*
X006128Y000410D01*
X006195Y000477D01*
X006195Y000883D01*
X005908Y001170D01*
X005502Y001170D01*
X005215Y000883D01*
X005215Y000477D01*
X005282Y000410D01*
X005128Y000410D01*
X005195Y000477D01*
X005195Y000883D01*
X004908Y001170D01*
X004502Y001170D01*
X004215Y000883D01*
X004215Y000477D01*
X004282Y000410D01*
X004128Y000410D01*
X004195Y000477D01*
X004195Y000883D01*
X003908Y001170D01*
X003502Y001170D01*
X003215Y000883D01*
X003215Y000477D01*
X003282Y000410D01*
X003128Y000410D01*
X003195Y000477D01*
X003195Y000883D01*
X002908Y001170D01*
X002502Y001170D01*
X002215Y000883D01*
X002215Y000477D01*
X002282Y000410D01*
X002128Y000410D01*
X002195Y000477D01*
X002195Y000883D01*
X001908Y001170D01*
X001502Y001170D01*
X001215Y000883D01*
X001215Y000477D01*
X001282Y000410D01*
X001128Y000410D01*
X001195Y000477D01*
X001195Y000883D01*
X000908Y001170D01*
X000502Y001170D01*
X000435Y001103D01*
X000435Y007257D01*
X000502Y007190D01*
X000575Y007190D01*
X000575Y003590D01*
X000675Y003490D01*
X000975Y003190D01*
X005026Y003190D01*
X005089Y003127D01*
X005190Y003085D01*
X005300Y003085D01*
X005401Y003127D01*
X005478Y003204D01*
X005520Y003305D01*
X005520Y003415D01*
X005478Y003516D01*
X005401Y003593D01*
X005300Y003635D01*
X005190Y003635D01*
X005089Y003593D01*
X005026Y003530D01*
X002274Y003530D01*
X002280Y003545D01*
X002280Y003655D01*
X002238Y003756D01*
X002184Y003810D01*
X003235Y004861D01*
X003890Y004206D01*
X003890Y004145D01*
X003932Y004044D01*
X004009Y003967D01*
X004110Y003925D01*
X004220Y003925D01*
X004280Y003950D01*
X009046Y003950D01*
X009032Y003936D01*
X008990Y003835D01*
X008990Y003745D01*
X008295Y003050D01*
X003964Y003050D01*
X003901Y003113D01*
X003800Y003155D01*
X003690Y003155D01*
X003589Y003113D01*
X003512Y003036D01*
X003470Y002935D01*
X003470Y002825D01*
X003512Y002724D01*
X003589Y002647D01*
X003690Y002605D01*
X003800Y002605D01*
X003901Y002647D01*
X003964Y002710D01*
X008435Y002710D01*
X009230Y003505D01*
X009320Y003505D01*
X009421Y003547D01*
X009495Y003621D01*
X009495Y001163D01*
X009463Y001131D02*
X008947Y001131D01*
X009105Y000973D02*
X009305Y000973D01*
X009215Y000814D02*
X009195Y000814D01*
X009195Y000656D02*
X009215Y000656D01*
X009215Y000497D02*
X009195Y000497D01*
X008215Y000497D02*
X008195Y000497D01*
X008195Y000656D02*
X008215Y000656D01*
X008215Y000814D02*
X008195Y000814D01*
X008172Y000973D02*
X008105Y000973D01*
X008014Y001131D02*
X007947Y001131D01*
X007855Y001290D02*
X000435Y001290D01*
X000435Y001448D02*
X007697Y001448D01*
X007538Y001607D02*
X000435Y001607D01*
X000435Y001765D02*
X007380Y001765D01*
X007221Y001924D02*
X000435Y001924D01*
X000435Y002082D02*
X006925Y002082D01*
X006890Y002241D02*
X000435Y002241D01*
X000435Y002399D02*
X006955Y002399D01*
X007375Y002399D02*
X009495Y002399D01*
X009495Y002241D02*
X007440Y002241D01*
X007543Y002082D02*
X009495Y002082D01*
X009495Y001924D02*
X007702Y001924D01*
X007860Y001765D02*
X009495Y001765D01*
X009495Y001607D02*
X008019Y001607D01*
X008177Y001448D02*
X009495Y001448D01*
X009495Y001290D02*
X008336Y001290D01*
X007463Y001131D02*
X006947Y001131D01*
X007105Y000973D02*
X007305Y000973D01*
X007215Y000814D02*
X007195Y000814D01*
X007195Y000656D02*
X007215Y000656D01*
X007215Y000497D02*
X007195Y000497D01*
X006305Y000973D02*
X006105Y000973D01*
X006195Y000814D02*
X006215Y000814D01*
X006215Y000656D02*
X006195Y000656D01*
X006195Y000497D02*
X006215Y000497D01*
X005305Y000973D02*
X005105Y000973D01*
X005195Y000814D02*
X005215Y000814D01*
X005215Y000656D02*
X005195Y000656D01*
X005195Y000497D02*
X005215Y000497D01*
X004305Y000973D02*
X004105Y000973D01*
X004195Y000814D02*
X004215Y000814D01*
X004215Y000656D02*
X004195Y000656D01*
X004195Y000497D02*
X004215Y000497D01*
X003305Y000973D02*
X003105Y000973D01*
X003195Y000814D02*
X003215Y000814D01*
X003215Y000656D02*
X003195Y000656D01*
X003195Y000497D02*
X003215Y000497D01*
X002305Y000973D02*
X002105Y000973D01*
X002195Y000814D02*
X002215Y000814D01*
X002215Y000656D02*
X002195Y000656D01*
X002195Y000497D02*
X002215Y000497D01*
X001215Y000497D02*
X001195Y000497D01*
X001195Y000656D02*
X001215Y000656D01*
X001215Y000814D02*
X001195Y000814D01*
X001105Y000973D02*
X001305Y000973D01*
X001463Y001131D02*
X000947Y001131D01*
X000463Y001131D02*
X000435Y001131D01*
X001947Y001131D02*
X002463Y001131D01*
X002947Y001131D02*
X003463Y001131D01*
X003947Y001131D02*
X004463Y001131D01*
X004947Y001131D02*
X005463Y001131D01*
X005947Y001131D02*
X006463Y001131D01*
X008441Y002716D02*
X009495Y002716D01*
X009495Y002558D02*
X000435Y002558D01*
X000435Y002716D02*
X003520Y002716D01*
X003470Y002875D02*
X000435Y002875D01*
X000435Y003033D02*
X003511Y003033D01*
X002275Y003667D02*
X008912Y003667D01*
X008990Y003826D02*
X002199Y003826D01*
X002358Y003984D02*
X003992Y003984D01*
X003891Y004143D02*
X002516Y004143D01*
X002675Y004301D02*
X003795Y004301D01*
X003637Y004460D02*
X002833Y004460D01*
X002992Y004618D02*
X003478Y004618D01*
X003320Y004777D02*
X003150Y004777D01*
X002930Y005094D02*
X000915Y005094D01*
X000915Y004935D02*
X002771Y004935D01*
X002613Y004777D02*
X000915Y004777D01*
X000915Y004618D02*
X001000Y004618D01*
X001032Y004650D02*
X000950Y004568D01*
X000950Y003992D01*
X000962Y003980D01*
X000950Y003968D01*
X000950Y003695D01*
X000915Y003730D01*
X000915Y007197D01*
X001195Y007477D01*
X001195Y007883D01*
X001128Y007950D01*
X001282Y007950D01*
X001215Y007883D01*
X001215Y007477D01*
X001502Y007190D01*
X001908Y007190D01*
X001931Y007213D01*
X002115Y007030D01*
X002595Y007030D01*
X003290Y006335D01*
X003259Y006335D01*
X003044Y006550D01*
X002084Y006550D01*
X002041Y006593D01*
X001940Y006635D01*
X001830Y006635D01*
X001729Y006593D01*
X001652Y006516D01*
X001610Y006415D01*
X001610Y006305D01*
X001652Y006204D01*
X001729Y006127D01*
X001830Y006085D01*
X001940Y006085D01*
X002041Y006127D01*
X002084Y006170D01*
X002335Y006170D01*
X002335Y005507D01*
X002417Y005425D01*
X002671Y005425D01*
X002966Y005130D01*
X002260Y004423D01*
X002238Y004476D01*
X002161Y004553D01*
X002060Y004595D01*
X001950Y004595D01*
X001860Y004558D01*
X001860Y004568D01*
X001778Y004650D01*
X001032Y004650D01*
X000950Y004460D02*
X000915Y004460D01*
X000915Y004301D02*
X000950Y004301D01*
X000950Y004143D02*
X000915Y004143D01*
X000915Y003984D02*
X000958Y003984D01*
X000950Y003826D02*
X000915Y003826D01*
X000575Y003826D02*
X000435Y003826D01*
X000435Y003984D02*
X000575Y003984D01*
X000575Y004143D02*
X000435Y004143D01*
X000435Y004301D02*
X000575Y004301D01*
X000575Y004460D02*
X000435Y004460D01*
X000435Y004618D02*
X000575Y004618D01*
X000575Y004777D02*
X000435Y004777D01*
X000435Y004935D02*
X000575Y004935D01*
X000575Y005094D02*
X000435Y005094D01*
X000435Y005252D02*
X000575Y005252D01*
X000575Y005411D02*
X000435Y005411D01*
X000435Y005569D02*
X000575Y005569D01*
X000575Y005728D02*
X000435Y005728D01*
X000435Y005886D02*
X000575Y005886D01*
X000575Y006045D02*
X000435Y006045D01*
X000435Y006203D02*
X000575Y006203D01*
X000575Y006362D02*
X000435Y006362D01*
X000435Y006520D02*
X000575Y006520D01*
X000575Y006679D02*
X000435Y006679D01*
X000435Y006837D02*
X000575Y006837D01*
X000575Y006996D02*
X000435Y006996D01*
X000435Y007154D02*
X000575Y007154D01*
X000915Y007154D02*
X001991Y007154D01*
X001380Y007313D02*
X001030Y007313D01*
X001189Y007471D02*
X001221Y007471D01*
X001215Y007630D02*
X001195Y007630D01*
X001195Y007788D02*
X001215Y007788D01*
X001279Y007947D02*
X001131Y007947D01*
X000915Y006996D02*
X002629Y006996D01*
X002788Y006837D02*
X000915Y006837D01*
X000915Y006679D02*
X002946Y006679D01*
X003074Y006520D02*
X003105Y006520D01*
X003232Y006362D02*
X003263Y006362D01*
X002335Y006045D02*
X000915Y006045D01*
X000915Y006203D02*
X001653Y006203D01*
X001610Y006362D02*
X000915Y006362D01*
X000915Y006520D02*
X001656Y006520D01*
X002335Y005886D02*
X000915Y005886D01*
X000915Y005728D02*
X002335Y005728D01*
X002335Y005569D02*
X000915Y005569D01*
X000915Y005411D02*
X002686Y005411D01*
X002844Y005252D02*
X000915Y005252D01*
X001810Y004618D02*
X002454Y004618D01*
X002296Y004460D02*
X002245Y004460D01*
X000575Y003667D02*
X000435Y003667D01*
X000435Y003509D02*
X000656Y003509D01*
X000815Y003350D02*
X000435Y003350D01*
X000435Y003192D02*
X000973Y003192D01*
X005465Y003192D02*
X008436Y003192D01*
X008595Y003350D02*
X005520Y003350D01*
X005481Y003509D02*
X008753Y003509D01*
X009075Y003350D02*
X009495Y003350D01*
X009495Y003509D02*
X009328Y003509D01*
X009495Y003192D02*
X008917Y003192D01*
X008758Y003033D02*
X009495Y003033D01*
X009495Y002875D02*
X008600Y002875D01*
D14*
X007955Y003530D03*
X007955Y003880D03*
X008125Y004440D03*
X008665Y005040D03*
X009085Y004980D03*
X009325Y004740D03*
X009625Y004140D03*
X009265Y003780D03*
X011105Y003680D03*
X011105Y004030D03*
X011105Y004380D03*
X011105Y004730D03*
X011455Y004730D03*
X011805Y004730D03*
X012155Y004730D03*
X012505Y004730D03*
X012855Y004730D03*
X011105Y003330D03*
X011105Y002030D03*
X010755Y002030D03*
X010405Y002030D03*
X007165Y002220D03*
X005245Y003360D03*
X004165Y004200D03*
X004745Y004520D03*
X005545Y005400D03*
X005185Y005460D03*
X006205Y005460D03*
X006445Y005760D03*
X006205Y005100D03*
X006745Y006540D03*
X009025Y006360D03*
X009745Y006600D03*
X010045Y006420D03*
X011785Y006600D03*
X010405Y004980D03*
X003745Y002880D03*
X002005Y003600D03*
X002005Y004320D03*
X001905Y005330D03*
X001555Y005330D03*
X001205Y005330D03*
X000505Y005930D03*
X000505Y006280D03*
X000505Y006630D03*
X001055Y006630D03*
X001885Y006360D03*
X002405Y006630D03*
X002755Y006630D03*
X001205Y001780D03*
X000855Y001780D03*
X000505Y001780D03*
D15*
X001045Y003360D02*
X000745Y003660D01*
X000745Y007680D01*
X000705Y007680D01*
X001705Y007680D02*
X002185Y007200D01*
X002665Y007200D01*
X003625Y006240D01*
X003625Y005640D01*
X004745Y004520D01*
X005425Y004440D02*
X008125Y004440D01*
X008245Y005040D02*
X006745Y006540D01*
X006445Y006960D02*
X005725Y007680D01*
X005705Y007680D01*
X004705Y007680D02*
X006205Y006180D01*
X006205Y005460D01*
X006445Y005760D02*
X006445Y006960D01*
X006705Y007680D02*
X006745Y007680D01*
X009085Y005340D01*
X009085Y004980D01*
X008665Y005040D02*
X008245Y005040D01*
X009625Y004140D02*
X010405Y004920D01*
X010405Y004980D01*
X010405Y007380D01*
X010705Y007680D01*
X010045Y007380D02*
X009745Y007680D01*
X009705Y007680D01*
X010045Y007380D02*
X010045Y006420D01*
X009745Y006600D02*
X008665Y007680D01*
X008705Y007680D01*
X007705Y007680D02*
X009025Y006360D01*
X011785Y006600D02*
X011785Y007620D01*
X011725Y007680D01*
X011705Y007680D01*
X006205Y005100D02*
X005725Y005580D01*
X005725Y005760D01*
X003805Y007680D01*
X003705Y007680D01*
X004105Y007200D02*
X003205Y007200D01*
X002725Y007680D01*
X002705Y007680D01*
X004105Y007200D02*
X005545Y005760D01*
X005545Y005400D01*
X005185Y005460D02*
X004765Y005880D01*
X004705Y005880D01*
X004605Y005880D02*
X004205Y005880D01*
X004105Y005880D02*
X004105Y005760D01*
X005425Y004440D01*
X005245Y003360D02*
X001045Y003360D01*
X001405Y003780D02*
X001405Y004180D01*
X003745Y002880D02*
X008365Y002880D01*
X009265Y003780D01*
X007165Y002220D02*
X008705Y000680D01*
X003205Y005880D02*
X002805Y005880D01*
D16*
X002725Y005880D02*
X002705Y005880D01*
X002725Y005880D02*
X002725Y005640D01*
X003235Y005130D01*
X001855Y003750D01*
X002005Y003600D01*
X001855Y003750D02*
X001825Y003720D01*
X001405Y003720D01*
X001405Y003680D01*
X001405Y004280D02*
X001405Y004320D01*
X002005Y004320D01*
X003235Y005130D02*
X004165Y004200D01*
X004225Y004140D01*
X009265Y004140D01*
X009295Y004110D01*
X009325Y004140D01*
X009325Y004740D01*
X009295Y004110D02*
X009685Y003720D01*
X009685Y000720D01*
X009705Y000680D01*
X003305Y005880D02*
X003265Y005880D01*
X003265Y006060D01*
X002965Y006360D01*
X001885Y006360D01*
M02*
