%
M48
M72
T01C0.0130
T02C0.0400
%
T01
X505Y1780
X855Y1780
X1205Y1780
X3745Y2880
X5245Y3360
X4165Y4200
X4745Y4520
X5545Y5400
X5185Y5460
X6205Y5460
X6445Y5760
X6205Y5100
X8125Y4440
X7955Y3880
X7955Y3530
X9265Y3780
X9625Y4140
X9325Y4740
X9085Y4980
X8665Y5040
X10405Y4980
X11105Y4730
X11455Y4730
X11805Y4730
X12155Y4730
X12505Y4730
X12855Y4730
X11105Y4380
X11105Y4030
X11105Y3680
X11105Y3330
X11105Y2030
X10755Y2030
X10405Y2030
X7165Y2220
X2005Y3600
X2005Y4320
X1905Y5330
X1555Y5330
X1205Y5330
X505Y5930
X505Y6280
X505Y6630
X1055Y6630
X1885Y6360
X2405Y6630
X2755Y6630
X6745Y6540
X9025Y6360
X9745Y6600
X10045Y6420
X11785Y6600
T02
X705Y680
X1705Y680
X2705Y680
X3705Y680
X4705Y680
X5705Y680
X6705Y680
X7705Y680
X8705Y680
X9705Y680
X10705Y680
X10705Y7680
X9705Y7680
X8705Y7680
X7705Y7680
X6705Y7680
X5705Y7680
X4705Y7680
X3705Y7680
X2705Y7680
X1705Y7680
X705Y7680
X11705Y7680
X12705Y7680
M30
