G75*
%MOIN*%
%OFA0B0*%
%FSLAX24Y24*%
%IPPOS*%
%LPD*%
%AMOC8*
5,1,8,0,0,1.08239X$1,22.5*
%
%ADD10C,0.0000*%
%ADD11C,0.0030*%
%ADD12C,0.0160*%
%ADD13C,0.0040*%
%ADD14C,0.0060*%
%ADD15C,0.0050*%
%ADD16C,0.0020*%
%ADD17R,0.0400X0.0300*%
%ADD18R,0.0400X0.0020*%
%ADD19R,0.0020X0.0280*%
%ADD20C,0.0025*%
D10*
X000205Y000180D02*
X000205Y008180D01*
X013205Y008180D01*
X013205Y000180D01*
X000205Y000180D01*
D11*
X008039Y003207D02*
X008101Y003145D01*
X008224Y003145D01*
X008286Y003207D01*
X008039Y003454D01*
X008039Y003207D01*
X008286Y003207D02*
X008286Y003454D01*
X008224Y003515D01*
X008101Y003515D01*
X008039Y003454D01*
X008409Y003207D02*
X008409Y003145D01*
X008470Y003145D01*
X008470Y003207D01*
X008409Y003207D01*
X008592Y003145D02*
X008839Y003145D01*
X008592Y003392D01*
X008592Y003454D01*
X008653Y003515D01*
X008777Y003515D01*
X008839Y003454D01*
X008960Y003392D02*
X009083Y003145D01*
X009207Y003392D01*
X009697Y003392D02*
X009758Y003330D01*
X009943Y003330D01*
X010065Y003268D02*
X010065Y003207D01*
X010127Y003145D01*
X010312Y003145D01*
X010312Y003515D01*
X010127Y003515D01*
X010065Y003454D01*
X010065Y003392D01*
X010127Y003330D01*
X010312Y003330D01*
X010127Y003330D02*
X010065Y003268D01*
X009943Y003145D02*
X009758Y003145D01*
X009697Y003207D01*
X009697Y003268D01*
X009758Y003330D01*
X009697Y003392D02*
X009697Y003454D01*
X009758Y003515D01*
X009943Y003515D01*
X009943Y003145D01*
X009943Y002792D02*
X009881Y002730D01*
X009820Y002792D01*
X009758Y002730D01*
X009758Y002545D01*
X009881Y002545D02*
X009881Y002730D01*
X009943Y002792D02*
X010005Y002792D01*
X010005Y002545D01*
X010126Y002607D02*
X010126Y002730D01*
X010188Y002792D01*
X010311Y002792D01*
X010373Y002730D01*
X010373Y002607D01*
X010311Y002545D01*
X010188Y002545D01*
X010126Y002607D01*
X010495Y002545D02*
X010680Y002545D01*
X010741Y002607D01*
X010741Y002730D01*
X010680Y002792D01*
X010495Y002792D01*
X010864Y002607D02*
X010864Y002545D01*
X010926Y002545D01*
X010926Y002607D01*
X010864Y002607D01*
X011047Y002545D02*
X011232Y002545D01*
X011294Y002607D01*
X011294Y002792D01*
X011415Y002730D02*
X011415Y002668D01*
X011662Y002668D01*
X011662Y002607D02*
X011601Y002545D01*
X011477Y002545D01*
X011415Y002730D02*
X011477Y002792D01*
X011601Y002792D01*
X011662Y002730D01*
X011662Y002607D01*
X011784Y002545D02*
X011784Y002730D01*
X011845Y002792D01*
X012031Y002792D01*
X012031Y002545D01*
X012153Y002545D02*
X012214Y002607D01*
X012214Y002854D01*
X012153Y002792D02*
X012276Y002792D01*
X012398Y002730D02*
X012398Y002668D01*
X012644Y002668D01*
X012644Y002607D02*
X012644Y002730D01*
X012583Y002792D01*
X012459Y002792D01*
X012398Y002730D01*
X012459Y002545D02*
X012583Y002545D01*
X012644Y002607D01*
X012767Y002483D02*
X012767Y002792D01*
X012767Y002915D02*
X012767Y002977D01*
X012705Y003145D02*
X012890Y003145D01*
X012890Y003515D01*
X012705Y003515D01*
X012643Y003454D01*
X012643Y003392D01*
X012705Y003330D01*
X012890Y003330D01*
X012705Y003330D02*
X012643Y003268D01*
X012643Y003207D01*
X012705Y003145D01*
X012522Y003145D02*
X012275Y003145D01*
X012153Y003145D02*
X011906Y003145D01*
X011785Y003145D02*
X011538Y003145D01*
X011417Y003145D02*
X011170Y003145D01*
X011293Y003145D02*
X011293Y003515D01*
X011417Y003392D01*
X011662Y003515D02*
X011662Y003145D01*
X011785Y003392D02*
X011662Y003515D01*
X011906Y003515D02*
X012153Y003515D01*
X012153Y003145D01*
X012153Y003330D02*
X012030Y003330D01*
X012522Y003515D02*
X012522Y003145D01*
X012767Y002483D02*
X012828Y002422D01*
X012890Y002422D01*
X011171Y002422D02*
X011109Y002422D01*
X011047Y002483D01*
X011047Y002792D01*
X010987Y003145D02*
X011048Y003207D01*
X010987Y003145D02*
X010863Y003145D01*
X010802Y003207D01*
X010802Y003268D01*
X010863Y003330D01*
X010925Y003330D01*
X010863Y003330D02*
X010802Y003392D01*
X010802Y003454D01*
X010863Y003515D01*
X010987Y003515D01*
X011048Y003454D01*
D12*
X011205Y001180D02*
X010205Y001180D01*
X010205Y000180D01*
X011205Y000180D01*
X011205Y001180D01*
D13*
X005285Y005233D02*
X005252Y005200D01*
X005185Y005200D01*
X005152Y005233D01*
X005152Y005400D01*
X005064Y005367D02*
X005064Y005333D01*
X005031Y005300D01*
X004964Y005300D01*
X004931Y005267D01*
X004931Y005233D01*
X004964Y005200D01*
X005031Y005200D01*
X005064Y005233D01*
X004843Y005200D02*
X004843Y005400D01*
X004743Y005400D01*
X004710Y005367D01*
X004710Y005300D01*
X004743Y005267D01*
X004843Y005267D01*
X004776Y005267D02*
X004710Y005200D01*
X004931Y005367D02*
X004964Y005400D01*
X005031Y005400D01*
X005064Y005367D01*
X005285Y005400D02*
X005285Y005233D01*
X004401Y005200D02*
X004268Y005200D01*
X004180Y005200D02*
X004047Y005200D01*
X003959Y005200D02*
X003859Y005200D01*
X003826Y005233D01*
X003826Y005367D01*
X003859Y005400D01*
X003959Y005400D01*
X003959Y005200D01*
X004113Y005300D02*
X004180Y005300D01*
X004180Y005400D02*
X004180Y005200D01*
X004401Y005200D02*
X004401Y005400D01*
X004180Y005400D02*
X004047Y005400D01*
X003585Y005400D02*
X003585Y005200D01*
X003585Y005267D02*
X003485Y005267D01*
X003452Y005300D01*
X003452Y005367D01*
X003485Y005400D01*
X003585Y005400D01*
X003364Y005400D02*
X003364Y005200D01*
X003297Y005267D01*
X003231Y005200D01*
X003231Y005400D01*
X003143Y005400D02*
X003043Y005400D01*
X003010Y005367D01*
X003010Y005300D01*
X003043Y005267D01*
X003143Y005267D01*
X003076Y005267D02*
X003010Y005200D01*
X003143Y005200D02*
X003143Y005400D01*
X002701Y005400D02*
X002701Y005200D01*
X002568Y005200D01*
X002480Y005200D02*
X002347Y005200D01*
X002259Y005200D02*
X002159Y005200D01*
X002126Y005233D01*
X002126Y005367D01*
X002159Y005400D01*
X002259Y005400D01*
X002259Y005200D01*
X002413Y005300D02*
X002480Y005300D01*
X002480Y005400D02*
X002480Y005200D01*
X002480Y005400D02*
X002347Y005400D01*
X000825Y004726D02*
X000825Y004626D01*
X000625Y004626D01*
X000625Y004726D01*
X000658Y004759D01*
X000792Y004759D01*
X000825Y004726D01*
X000792Y004538D02*
X000658Y004538D01*
X000625Y004505D01*
X000625Y004405D01*
X000825Y004405D01*
X000825Y004505D01*
X000792Y004538D01*
X000825Y004317D02*
X000692Y004317D01*
X000625Y004251D01*
X000692Y004184D01*
X000825Y004184D01*
X000792Y003875D02*
X000825Y003842D01*
X000825Y003775D01*
X000792Y003742D01*
X000658Y003742D01*
X000625Y003775D01*
X000625Y003842D01*
X000658Y003875D01*
X000725Y003875D01*
X000725Y003809D01*
X000725Y003654D02*
X000692Y003621D01*
X000692Y003521D01*
X000692Y003588D02*
X000625Y003654D01*
X000725Y003654D02*
X000792Y003654D01*
X000825Y003621D01*
X000825Y003521D01*
X000625Y003521D01*
X000725Y003433D02*
X000692Y003400D01*
X000692Y003300D01*
X000625Y003300D02*
X000825Y003300D01*
X000825Y003400D01*
X000792Y003433D01*
X000725Y003433D01*
D14*
X001005Y003430D02*
X001005Y004530D01*
X001007Y004547D01*
X001011Y004564D01*
X001018Y004580D01*
X001028Y004594D01*
X001041Y004607D01*
X001055Y004617D01*
X001071Y004624D01*
X001088Y004628D01*
X001105Y004630D01*
X001705Y004630D01*
X001722Y004628D01*
X001739Y004624D01*
X001755Y004617D01*
X001769Y004607D01*
X001782Y004594D01*
X001792Y004580D01*
X001799Y004564D01*
X001803Y004547D01*
X001805Y004530D01*
X001805Y003430D01*
X001803Y003413D01*
X001799Y003396D01*
X001792Y003380D01*
X001782Y003366D01*
X001769Y003353D01*
X001755Y003343D01*
X001739Y003336D01*
X001722Y003332D01*
X001705Y003330D01*
X001105Y003330D01*
X001088Y003332D01*
X001071Y003336D01*
X001055Y003343D01*
X001041Y003353D01*
X001028Y003366D01*
X001018Y003380D01*
X001011Y003396D01*
X001007Y003413D01*
X001005Y003430D01*
X001405Y003380D02*
X001405Y003580D01*
X001405Y004380D02*
X001405Y004580D01*
X002455Y005480D02*
X003555Y005480D01*
X003572Y005482D01*
X003589Y005486D01*
X003605Y005493D01*
X003619Y005503D01*
X003632Y005516D01*
X003642Y005530D01*
X003649Y005546D01*
X003653Y005563D01*
X003655Y005580D01*
X003655Y006180D01*
X003653Y006197D01*
X003649Y006214D01*
X003642Y006230D01*
X003632Y006244D01*
X003619Y006257D01*
X003605Y006267D01*
X003589Y006274D01*
X003572Y006278D01*
X003555Y006280D01*
X002455Y006280D01*
X002438Y006278D01*
X002421Y006274D01*
X002405Y006267D01*
X002391Y006257D01*
X002378Y006244D01*
X002368Y006230D01*
X002361Y006214D01*
X002357Y006197D01*
X002355Y006180D01*
X002355Y005580D01*
X002357Y005563D01*
X002361Y005546D01*
X002368Y005530D01*
X002378Y005516D01*
X002391Y005503D01*
X002405Y005493D01*
X002421Y005486D01*
X002438Y005482D01*
X002455Y005480D01*
X002405Y005880D02*
X002605Y005880D01*
X003405Y005880D02*
X003605Y005880D01*
X003805Y005880D02*
X004005Y005880D01*
X003755Y006180D02*
X003757Y006197D01*
X003761Y006214D01*
X003768Y006230D01*
X003778Y006244D01*
X003791Y006257D01*
X003805Y006267D01*
X003821Y006274D01*
X003838Y006278D01*
X003855Y006280D01*
X004955Y006280D01*
X004972Y006278D01*
X004989Y006274D01*
X005005Y006267D01*
X005019Y006257D01*
X005032Y006244D01*
X005042Y006230D01*
X005049Y006214D01*
X005053Y006197D01*
X005055Y006180D01*
X005055Y005580D01*
X005053Y005563D01*
X005049Y005546D01*
X005042Y005530D01*
X005032Y005516D01*
X005019Y005503D01*
X005005Y005493D01*
X004989Y005486D01*
X004972Y005482D01*
X004955Y005480D01*
X003855Y005480D01*
X003838Y005482D01*
X003821Y005486D01*
X003805Y005493D01*
X003791Y005503D01*
X003778Y005516D01*
X003768Y005530D01*
X003761Y005546D01*
X003757Y005563D01*
X003755Y005580D01*
X003755Y006180D01*
X004805Y005880D02*
X005005Y005880D01*
X010695Y004290D02*
X010695Y004160D01*
X010835Y004130D01*
X010895Y004000D01*
X010805Y003870D01*
X010895Y003780D01*
X011015Y003860D01*
X011075Y003830D01*
X011165Y004060D01*
X011105Y004030D02*
X011005Y004230D01*
X011105Y004380D01*
X011255Y004430D01*
X011405Y004380D01*
X011455Y004230D01*
X011405Y004080D01*
X011355Y004030D01*
X011455Y003880D01*
X011605Y003830D01*
X011655Y003880D01*
X011555Y004030D01*
X011655Y004180D01*
X011755Y004180D01*
X011755Y004280D01*
X011605Y004280D01*
X011555Y004430D01*
X011655Y004580D01*
X011605Y004630D01*
X011455Y004530D01*
X011305Y004630D01*
X011305Y004730D01*
X011205Y004730D01*
X011155Y004580D01*
X011005Y004530D01*
X010905Y004630D01*
X010855Y004580D01*
X010905Y004430D01*
X010855Y004280D01*
X010705Y004280D01*
X010755Y004180D01*
X010905Y004130D01*
X010905Y003980D01*
X010855Y003880D01*
X010905Y003830D01*
X011005Y003880D01*
X011055Y003880D01*
X011105Y004030D01*
X011099Y004041D02*
X010905Y004041D01*
X010905Y003983D02*
X011089Y003983D01*
X011070Y003924D02*
X010877Y003924D01*
X010869Y003866D02*
X010976Y003866D01*
X010905Y004100D02*
X011070Y004100D01*
X011041Y004158D02*
X010821Y004158D01*
X010737Y004217D02*
X011012Y004217D01*
X011035Y004275D02*
X010707Y004275D01*
X010695Y004290D02*
X010845Y004320D01*
X010895Y004440D01*
X010805Y004570D01*
X010895Y004660D01*
X011035Y004570D01*
X011155Y004620D01*
X011185Y004780D01*
X011315Y004780D01*
X011345Y004620D01*
X011465Y004570D01*
X011595Y004660D01*
X011685Y004570D01*
X011595Y004440D01*
X011655Y004310D01*
X011805Y004290D01*
X011805Y004160D01*
X011655Y004130D01*
X011605Y004000D01*
X011685Y003870D01*
X011595Y003780D01*
X011475Y003860D01*
X011425Y003830D01*
X011325Y004060D01*
X011366Y004041D02*
X011562Y004041D01*
X011587Y003983D02*
X011387Y003983D01*
X011426Y003924D02*
X011626Y003924D01*
X011641Y003866D02*
X011498Y003866D01*
X011412Y004100D02*
X011601Y004100D01*
X011640Y004158D02*
X011431Y004158D01*
X011451Y004217D02*
X011755Y004217D01*
X011755Y004275D02*
X011440Y004275D01*
X011420Y004334D02*
X011587Y004334D01*
X011568Y004392D02*
X011369Y004392D01*
X011141Y004392D02*
X010892Y004392D01*
X010898Y004451D02*
X011569Y004451D01*
X011608Y004509D02*
X010879Y004509D01*
X010859Y004568D02*
X010967Y004568D01*
X010909Y004626D02*
X010901Y004626D01*
X011118Y004568D02*
X011399Y004568D01*
X011311Y004626D02*
X011170Y004626D01*
X011190Y004685D02*
X011305Y004685D01*
X011511Y004568D02*
X011647Y004568D01*
X011609Y004626D02*
X011599Y004626D01*
X011074Y004334D02*
X010873Y004334D01*
X011165Y004060D02*
X011143Y004073D01*
X011123Y004089D01*
X011105Y004108D01*
X011090Y004130D01*
X011079Y004153D01*
X011071Y004178D01*
X011067Y004203D01*
X011066Y004229D01*
X011069Y004255D01*
X011076Y004280D01*
X011087Y004303D01*
X011100Y004325D01*
X011117Y004345D01*
X011136Y004362D01*
X011158Y004377D01*
X011182Y004387D01*
X011206Y004395D01*
X011232Y004399D01*
X011258Y004399D01*
X011284Y004395D01*
X011308Y004387D01*
X011332Y004377D01*
X011354Y004362D01*
X011373Y004345D01*
X011390Y004325D01*
X011403Y004303D01*
X011414Y004280D01*
X011421Y004255D01*
X011424Y004229D01*
X011423Y004203D01*
X011419Y004178D01*
X011411Y004153D01*
X011400Y004130D01*
X011385Y004108D01*
X011367Y004089D01*
X011347Y004073D01*
X011325Y004060D01*
D15*
X004529Y005607D02*
X004506Y005880D01*
X004506Y005880D01*
X004529Y006153D01*
X004530Y006154D01*
X004562Y006149D01*
X004594Y006140D01*
X004624Y006128D01*
X004652Y006112D01*
X004679Y006093D01*
X004703Y006071D01*
X004724Y006047D01*
X004742Y006020D01*
X004757Y005991D01*
X004768Y005960D01*
X004776Y005929D01*
X004780Y005896D01*
X004780Y005864D01*
X004776Y005831D01*
X004768Y005800D01*
X004757Y005769D01*
X004742Y005740D01*
X004724Y005713D01*
X004703Y005689D01*
X004679Y005667D01*
X004652Y005648D01*
X004624Y005632D01*
X004594Y005620D01*
X004562Y005611D01*
X004530Y005606D01*
X004530Y005653D01*
X004558Y005658D01*
X004586Y005667D01*
X004612Y005679D01*
X004637Y005694D01*
X004660Y005712D01*
X004680Y005733D01*
X004697Y005757D01*
X004711Y005782D01*
X004722Y005809D01*
X004729Y005837D01*
X004733Y005866D01*
X004733Y005894D01*
X004729Y005923D01*
X004722Y005951D01*
X004711Y005978D01*
X004697Y006003D01*
X004680Y006027D01*
X004660Y006048D01*
X004637Y006066D01*
X004612Y006081D01*
X004586Y006093D01*
X004558Y006102D01*
X004530Y006107D01*
X004530Y006059D01*
X004555Y006054D01*
X004580Y006045D01*
X004602Y006033D01*
X004623Y006017D01*
X004642Y005999D01*
X004657Y005978D01*
X004670Y005955D01*
X004679Y005931D01*
X004684Y005906D01*
X004686Y005880D01*
X004684Y005854D01*
X004679Y005829D01*
X004670Y005805D01*
X004657Y005782D01*
X004642Y005761D01*
X004623Y005743D01*
X004602Y005727D01*
X004580Y005715D01*
X004555Y005706D01*
X004530Y005701D01*
X004530Y005748D01*
X004551Y005754D01*
X004571Y005763D01*
X004589Y005775D01*
X004605Y005790D01*
X004618Y005808D01*
X004628Y005827D01*
X004635Y005848D01*
X004639Y005869D01*
X004639Y005891D01*
X004635Y005912D01*
X004628Y005933D01*
X004618Y005952D01*
X004605Y005970D01*
X004589Y005985D01*
X004571Y005997D01*
X004551Y006006D01*
X004530Y006012D01*
X004530Y005963D01*
X004546Y005957D01*
X004560Y005948D01*
X004572Y005935D01*
X004582Y005921D01*
X004588Y005905D01*
X004592Y005889D01*
X004592Y005871D01*
X004588Y005855D01*
X004582Y005839D01*
X004572Y005825D01*
X004560Y005812D01*
X004546Y005803D01*
X004530Y005797D01*
X004528Y005848D01*
X004536Y005855D01*
X004542Y005864D01*
X004545Y005875D01*
X004545Y005885D01*
X004542Y005896D01*
X004536Y005905D01*
X004528Y005912D01*
X004281Y006153D02*
X004304Y005880D01*
X004304Y005880D01*
X004281Y005607D01*
X004280Y005606D01*
X004248Y005611D01*
X004216Y005620D01*
X004186Y005632D01*
X004158Y005648D01*
X004131Y005667D01*
X004107Y005689D01*
X004086Y005713D01*
X004068Y005740D01*
X004053Y005769D01*
X004042Y005800D01*
X004034Y005831D01*
X004030Y005864D01*
X004030Y005896D01*
X004034Y005929D01*
X004042Y005960D01*
X004053Y005991D01*
X004068Y006020D01*
X004086Y006047D01*
X004107Y006071D01*
X004131Y006093D01*
X004158Y006112D01*
X004186Y006128D01*
X004216Y006140D01*
X004248Y006149D01*
X004280Y006154D01*
X004280Y006107D01*
X004252Y006102D01*
X004224Y006093D01*
X004198Y006081D01*
X004173Y006066D01*
X004150Y006048D01*
X004130Y006027D01*
X004113Y006003D01*
X004099Y005978D01*
X004088Y005951D01*
X004081Y005923D01*
X004077Y005894D01*
X004077Y005866D01*
X004081Y005837D01*
X004088Y005809D01*
X004099Y005782D01*
X004113Y005757D01*
X004130Y005733D01*
X004150Y005712D01*
X004173Y005694D01*
X004198Y005679D01*
X004224Y005667D01*
X004252Y005658D01*
X004280Y005653D01*
X004280Y005701D01*
X004255Y005706D01*
X004230Y005715D01*
X004208Y005727D01*
X004187Y005743D01*
X004168Y005761D01*
X004153Y005782D01*
X004140Y005805D01*
X004131Y005829D01*
X004126Y005854D01*
X004124Y005880D01*
X004126Y005906D01*
X004131Y005931D01*
X004140Y005955D01*
X004153Y005978D01*
X004168Y005999D01*
X004187Y006017D01*
X004208Y006033D01*
X004230Y006045D01*
X004255Y006054D01*
X004280Y006059D01*
X004280Y006012D01*
X004259Y006006D01*
X004239Y005997D01*
X004221Y005985D01*
X004205Y005970D01*
X004192Y005952D01*
X004182Y005933D01*
X004175Y005912D01*
X004171Y005891D01*
X004171Y005869D01*
X004175Y005848D01*
X004182Y005827D01*
X004192Y005808D01*
X004205Y005790D01*
X004221Y005775D01*
X004239Y005763D01*
X004259Y005754D01*
X004280Y005748D01*
X004280Y005797D01*
X004264Y005803D01*
X004250Y005812D01*
X004238Y005825D01*
X004228Y005839D01*
X004222Y005855D01*
X004218Y005871D01*
X004218Y005889D01*
X004222Y005905D01*
X004228Y005921D01*
X004238Y005935D01*
X004250Y005948D01*
X004264Y005957D01*
X004280Y005963D01*
X004282Y005912D01*
X004274Y005905D01*
X004268Y005896D01*
X004265Y005885D01*
X004265Y005875D01*
X004268Y005864D01*
X004274Y005855D01*
X004282Y005848D01*
X003129Y005607D02*
X003106Y005880D01*
X003106Y005880D01*
X003129Y006153D01*
X003130Y006154D01*
X003162Y006149D01*
X003194Y006140D01*
X003224Y006128D01*
X003252Y006112D01*
X003279Y006093D01*
X003303Y006071D01*
X003324Y006047D01*
X003342Y006020D01*
X003357Y005991D01*
X003368Y005960D01*
X003376Y005929D01*
X003380Y005896D01*
X003380Y005864D01*
X003376Y005831D01*
X003368Y005800D01*
X003357Y005769D01*
X003342Y005740D01*
X003324Y005713D01*
X003303Y005689D01*
X003279Y005667D01*
X003252Y005648D01*
X003224Y005632D01*
X003194Y005620D01*
X003162Y005611D01*
X003130Y005606D01*
X003130Y005653D01*
X003158Y005658D01*
X003186Y005667D01*
X003212Y005679D01*
X003237Y005694D01*
X003260Y005712D01*
X003280Y005733D01*
X003297Y005757D01*
X003311Y005782D01*
X003322Y005809D01*
X003329Y005837D01*
X003333Y005866D01*
X003333Y005894D01*
X003329Y005923D01*
X003322Y005951D01*
X003311Y005978D01*
X003297Y006003D01*
X003280Y006027D01*
X003260Y006048D01*
X003237Y006066D01*
X003212Y006081D01*
X003186Y006093D01*
X003158Y006102D01*
X003130Y006107D01*
X003130Y006059D01*
X003155Y006054D01*
X003180Y006045D01*
X003202Y006033D01*
X003223Y006017D01*
X003242Y005999D01*
X003257Y005978D01*
X003270Y005955D01*
X003279Y005931D01*
X003284Y005906D01*
X003286Y005880D01*
X003284Y005854D01*
X003279Y005829D01*
X003270Y005805D01*
X003257Y005782D01*
X003242Y005761D01*
X003223Y005743D01*
X003202Y005727D01*
X003180Y005715D01*
X003155Y005706D01*
X003130Y005701D01*
X003130Y005748D01*
X003151Y005754D01*
X003171Y005763D01*
X003189Y005775D01*
X003205Y005790D01*
X003218Y005808D01*
X003228Y005827D01*
X003235Y005848D01*
X003239Y005869D01*
X003239Y005891D01*
X003235Y005912D01*
X003228Y005933D01*
X003218Y005952D01*
X003205Y005970D01*
X003189Y005985D01*
X003171Y005997D01*
X003151Y006006D01*
X003130Y006012D01*
X003130Y005963D01*
X003146Y005957D01*
X003160Y005948D01*
X003172Y005935D01*
X003182Y005921D01*
X003188Y005905D01*
X003192Y005889D01*
X003192Y005871D01*
X003188Y005855D01*
X003182Y005839D01*
X003172Y005825D01*
X003160Y005812D01*
X003146Y005803D01*
X003130Y005797D01*
X003128Y005848D01*
X003136Y005855D01*
X003142Y005864D01*
X003145Y005875D01*
X003145Y005885D01*
X003142Y005896D01*
X003136Y005905D01*
X003128Y005912D01*
X002881Y006153D02*
X002904Y005880D01*
X002904Y005880D01*
X002881Y005607D01*
X002880Y005606D01*
X002848Y005611D01*
X002816Y005620D01*
X002786Y005632D01*
X002758Y005648D01*
X002731Y005667D01*
X002707Y005689D01*
X002686Y005713D01*
X002668Y005740D01*
X002653Y005769D01*
X002642Y005800D01*
X002634Y005831D01*
X002630Y005864D01*
X002630Y005896D01*
X002634Y005929D01*
X002642Y005960D01*
X002653Y005991D01*
X002668Y006020D01*
X002686Y006047D01*
X002707Y006071D01*
X002731Y006093D01*
X002758Y006112D01*
X002786Y006128D01*
X002816Y006140D01*
X002848Y006149D01*
X002880Y006154D01*
X002880Y006107D01*
X002852Y006102D01*
X002824Y006093D01*
X002798Y006081D01*
X002773Y006066D01*
X002750Y006048D01*
X002730Y006027D01*
X002713Y006003D01*
X002699Y005978D01*
X002688Y005951D01*
X002681Y005923D01*
X002677Y005894D01*
X002677Y005866D01*
X002681Y005837D01*
X002688Y005809D01*
X002699Y005782D01*
X002713Y005757D01*
X002730Y005733D01*
X002750Y005712D01*
X002773Y005694D01*
X002798Y005679D01*
X002824Y005667D01*
X002852Y005658D01*
X002880Y005653D01*
X002880Y005701D01*
X002855Y005706D01*
X002830Y005715D01*
X002808Y005727D01*
X002787Y005743D01*
X002768Y005761D01*
X002753Y005782D01*
X002740Y005805D01*
X002731Y005829D01*
X002726Y005854D01*
X002724Y005880D01*
X002726Y005906D01*
X002731Y005931D01*
X002740Y005955D01*
X002753Y005978D01*
X002768Y005999D01*
X002787Y006017D01*
X002808Y006033D01*
X002830Y006045D01*
X002855Y006054D01*
X002880Y006059D01*
X002880Y006012D01*
X002859Y006006D01*
X002839Y005997D01*
X002821Y005985D01*
X002805Y005970D01*
X002792Y005952D01*
X002782Y005933D01*
X002775Y005912D01*
X002771Y005891D01*
X002771Y005869D01*
X002775Y005848D01*
X002782Y005827D01*
X002792Y005808D01*
X002805Y005790D01*
X002821Y005775D01*
X002839Y005763D01*
X002859Y005754D01*
X002880Y005748D01*
X002880Y005797D01*
X002864Y005803D01*
X002850Y005812D01*
X002838Y005825D01*
X002828Y005839D01*
X002822Y005855D01*
X002818Y005871D01*
X002818Y005889D01*
X002822Y005905D01*
X002828Y005921D01*
X002838Y005935D01*
X002850Y005948D01*
X002864Y005957D01*
X002880Y005963D01*
X002882Y005912D01*
X002874Y005905D01*
X002868Y005896D01*
X002865Y005885D01*
X002865Y005875D01*
X002868Y005864D01*
X002874Y005855D01*
X002882Y005848D01*
X001678Y004104D02*
X001405Y004081D01*
X001405Y004081D01*
X001132Y004104D01*
X001131Y004105D01*
X001136Y004137D01*
X001145Y004169D01*
X001157Y004199D01*
X001173Y004227D01*
X001192Y004254D01*
X001214Y004278D01*
X001238Y004299D01*
X001265Y004317D01*
X001294Y004332D01*
X001325Y004343D01*
X001356Y004351D01*
X001389Y004355D01*
X001421Y004355D01*
X001454Y004351D01*
X001485Y004343D01*
X001516Y004332D01*
X001545Y004317D01*
X001572Y004299D01*
X001596Y004278D01*
X001618Y004254D01*
X001637Y004227D01*
X001653Y004199D01*
X001665Y004169D01*
X001674Y004137D01*
X001679Y004105D01*
X001632Y004105D01*
X001627Y004133D01*
X001618Y004161D01*
X001606Y004187D01*
X001591Y004212D01*
X001573Y004235D01*
X001552Y004255D01*
X001528Y004272D01*
X001503Y004286D01*
X001476Y004297D01*
X001448Y004304D01*
X001419Y004308D01*
X001391Y004308D01*
X001362Y004304D01*
X001334Y004297D01*
X001307Y004286D01*
X001282Y004272D01*
X001258Y004255D01*
X001237Y004235D01*
X001219Y004212D01*
X001204Y004187D01*
X001192Y004161D01*
X001183Y004133D01*
X001178Y004105D01*
X001226Y004105D01*
X001231Y004130D01*
X001240Y004155D01*
X001252Y004177D01*
X001268Y004198D01*
X001286Y004217D01*
X001307Y004232D01*
X001330Y004245D01*
X001354Y004254D01*
X001379Y004259D01*
X001405Y004261D01*
X001431Y004259D01*
X001456Y004254D01*
X001480Y004245D01*
X001503Y004232D01*
X001524Y004217D01*
X001542Y004198D01*
X001558Y004177D01*
X001570Y004155D01*
X001579Y004130D01*
X001584Y004105D01*
X001537Y004105D01*
X001531Y004126D01*
X001522Y004146D01*
X001510Y004164D01*
X001495Y004180D01*
X001477Y004193D01*
X001458Y004203D01*
X001437Y004210D01*
X001416Y004214D01*
X001394Y004214D01*
X001373Y004210D01*
X001352Y004203D01*
X001333Y004193D01*
X001315Y004180D01*
X001300Y004164D01*
X001288Y004146D01*
X001279Y004126D01*
X001273Y004105D01*
X001322Y004105D01*
X001328Y004121D01*
X001337Y004135D01*
X001350Y004147D01*
X001364Y004157D01*
X001380Y004163D01*
X001396Y004167D01*
X001414Y004167D01*
X001430Y004163D01*
X001446Y004157D01*
X001460Y004147D01*
X001473Y004135D01*
X001482Y004121D01*
X001488Y004105D01*
X001437Y004103D01*
X001430Y004111D01*
X001421Y004117D01*
X001410Y004120D01*
X001400Y004120D01*
X001389Y004117D01*
X001380Y004111D01*
X001373Y004103D01*
X001132Y003856D02*
X001405Y003879D01*
X001405Y003879D01*
X001678Y003856D01*
X001679Y003855D01*
X001674Y003823D01*
X001665Y003791D01*
X001653Y003761D01*
X001637Y003733D01*
X001618Y003706D01*
X001596Y003682D01*
X001572Y003661D01*
X001545Y003643D01*
X001516Y003628D01*
X001485Y003617D01*
X001454Y003609D01*
X001421Y003605D01*
X001389Y003605D01*
X001356Y003609D01*
X001325Y003617D01*
X001294Y003628D01*
X001265Y003643D01*
X001238Y003661D01*
X001214Y003682D01*
X001192Y003706D01*
X001173Y003733D01*
X001157Y003761D01*
X001145Y003791D01*
X001136Y003823D01*
X001131Y003855D01*
X001178Y003855D01*
X001183Y003827D01*
X001192Y003799D01*
X001204Y003773D01*
X001219Y003748D01*
X001237Y003725D01*
X001258Y003705D01*
X001282Y003688D01*
X001307Y003674D01*
X001334Y003663D01*
X001362Y003656D01*
X001391Y003652D01*
X001419Y003652D01*
X001448Y003656D01*
X001476Y003663D01*
X001503Y003674D01*
X001528Y003688D01*
X001552Y003705D01*
X001573Y003725D01*
X001591Y003748D01*
X001606Y003773D01*
X001618Y003799D01*
X001627Y003827D01*
X001632Y003855D01*
X001584Y003855D01*
X001579Y003830D01*
X001570Y003805D01*
X001558Y003783D01*
X001542Y003762D01*
X001524Y003743D01*
X001503Y003728D01*
X001480Y003715D01*
X001456Y003706D01*
X001431Y003701D01*
X001405Y003699D01*
X001379Y003701D01*
X001354Y003706D01*
X001330Y003715D01*
X001307Y003728D01*
X001286Y003743D01*
X001268Y003762D01*
X001252Y003783D01*
X001240Y003805D01*
X001231Y003830D01*
X001226Y003855D01*
X001273Y003855D01*
X001279Y003834D01*
X001288Y003814D01*
X001300Y003796D01*
X001315Y003780D01*
X001333Y003767D01*
X001352Y003757D01*
X001373Y003750D01*
X001394Y003746D01*
X001416Y003746D01*
X001437Y003750D01*
X001458Y003757D01*
X001477Y003767D01*
X001495Y003780D01*
X001510Y003796D01*
X001522Y003814D01*
X001531Y003834D01*
X001537Y003855D01*
X001488Y003855D01*
X001482Y003839D01*
X001473Y003825D01*
X001460Y003813D01*
X001446Y003803D01*
X001430Y003797D01*
X001414Y003793D01*
X001396Y003793D01*
X001380Y003797D01*
X001364Y003803D01*
X001350Y003813D01*
X001337Y003825D01*
X001328Y003839D01*
X001322Y003855D01*
X001373Y003857D01*
X001380Y003849D01*
X001389Y003843D01*
X001400Y003840D01*
X001410Y003840D01*
X001421Y003843D01*
X001430Y003849D01*
X001437Y003857D01*
D16*
X001387Y004740D02*
X001351Y004740D01*
X001314Y004777D01*
X001314Y004960D01*
X001351Y004960D02*
X001277Y004960D01*
X001203Y004887D02*
X001130Y004960D01*
X001130Y004740D01*
X001203Y004740D02*
X001056Y004740D01*
X001387Y004740D02*
X001424Y004777D01*
X001498Y004777D02*
X001535Y004740D01*
X001608Y004740D01*
X001645Y004777D01*
X001608Y004850D02*
X001535Y004850D01*
X001498Y004813D01*
X001498Y004777D01*
X001608Y004850D02*
X001645Y004887D01*
X001645Y004923D01*
X001608Y004960D01*
X001535Y004960D01*
X001498Y004923D01*
X002112Y005577D02*
X002075Y005614D01*
X002075Y005687D01*
X002112Y005724D01*
X002148Y005724D01*
X002185Y005687D01*
X002185Y005614D01*
X002222Y005577D01*
X002258Y005577D01*
X002295Y005614D01*
X002295Y005687D01*
X002258Y005724D01*
X002112Y005798D02*
X002075Y005835D01*
X002075Y005871D01*
X002112Y005908D01*
X002295Y005908D01*
X002295Y005871D02*
X002295Y005945D01*
X002258Y006019D02*
X002295Y006056D01*
X002295Y006129D01*
X002258Y006166D01*
X002222Y006166D01*
X002075Y006019D01*
X002075Y006166D01*
X005115Y006092D02*
X005115Y006019D01*
X005152Y005982D01*
X005225Y006055D02*
X005225Y006092D01*
X005188Y006129D01*
X005152Y006129D01*
X005115Y006092D01*
X005225Y006092D02*
X005262Y006129D01*
X005298Y006129D01*
X005335Y006092D01*
X005335Y006019D01*
X005298Y005982D01*
X005335Y005908D02*
X005335Y005834D01*
X005335Y005871D02*
X005152Y005871D01*
X005115Y005834D01*
X005115Y005798D01*
X005152Y005761D01*
X005152Y005687D02*
X005115Y005650D01*
X005115Y005577D01*
X005152Y005540D01*
X005225Y005577D02*
X005225Y005650D01*
X005188Y005687D01*
X005152Y005687D01*
X005298Y005687D02*
X005335Y005650D01*
X005335Y005577D01*
X005298Y005540D01*
X005262Y005540D01*
X005225Y005577D01*
D17*
X012205Y004330D03*
X012205Y003930D03*
X012705Y003930D03*
D18*
X012205Y004590D03*
D19*
X012015Y004740D03*
D20*
X012055Y004630D02*
X012105Y004930D01*
X012155Y004630D01*
X012205Y004930D01*
X012255Y004630D01*
X012305Y004930D01*
X012355Y004630D01*
X012405Y004930D01*
X012455Y004630D01*
X012355Y004630D01*
X012255Y004630D01*
X012155Y004630D01*
X012055Y004630D01*
X012055Y004930D01*
X012105Y004930D01*
X012205Y004930D01*
X012305Y004930D01*
X012405Y004930D01*
X012455Y004930D01*
X012455Y004630D01*
M02*
