G75*
%MOIN*%
%OFA0B0*%
%FSLAX24Y24*%
%IPPOS*%
%LPD*%
%AMOC8*
5,1,8,0,0,1.08239X$1,22.5*
%
%ADD10C,0.0000*%
%ADD11C,0.0040*%
%ADD12C,0.0030*%
%ADD13C,0.0050*%
%ADD14C,0.0060*%
%ADD15R,0.0400X0.0300*%
%ADD16R,0.0400X0.0020*%
%ADD17R,0.0020X0.0280*%
%ADD18C,0.0025*%
D10*
X000800Y006843D02*
X000800Y013043D01*
X020350Y013043D01*
X020350Y006843D01*
X000800Y006843D01*
D11*
X001948Y007166D02*
X001987Y007128D01*
X001948Y007166D02*
X001948Y007244D01*
X001987Y007283D01*
X002025Y007283D01*
X002064Y007244D01*
X002064Y007166D01*
X002103Y007128D01*
X002141Y007128D01*
X002180Y007166D01*
X002180Y007244D01*
X002141Y007283D01*
X002180Y007456D02*
X001948Y007456D01*
X001948Y007533D02*
X001948Y007378D01*
X001987Y007629D02*
X001948Y007667D01*
X001948Y007745D01*
X001987Y007783D01*
X002141Y007783D01*
X002180Y007745D01*
X002180Y007667D01*
X002141Y007629D01*
X002141Y008130D02*
X002180Y008168D01*
X002180Y008246D01*
X002141Y008284D01*
X001987Y008284D01*
X001948Y008246D01*
X001948Y008168D01*
X001987Y008130D01*
X001987Y008380D02*
X001948Y008419D01*
X001948Y008496D01*
X001987Y008535D01*
X002141Y008535D01*
X002180Y008496D01*
X002180Y008419D01*
X002141Y008380D01*
X002103Y008630D02*
X001948Y008630D01*
X002103Y008630D02*
X002180Y008708D01*
X002103Y008785D01*
X001948Y008785D01*
X001987Y009131D02*
X001948Y009170D01*
X001948Y009286D01*
X002180Y009286D01*
X002180Y009170D01*
X002141Y009131D01*
X001987Y009131D01*
X001948Y009382D02*
X002180Y009382D01*
X001948Y009537D01*
X002180Y009537D01*
X002141Y009632D02*
X002064Y009632D01*
X002064Y009710D01*
X001987Y009787D02*
X002141Y009787D01*
X002180Y009748D01*
X002180Y009671D01*
X002141Y009632D01*
X001987Y009632D02*
X001948Y009671D01*
X001948Y009748D01*
X001987Y009787D01*
X001987Y010133D02*
X001948Y010172D01*
X001948Y010288D01*
X002180Y010288D01*
X002180Y010172D01*
X002141Y010133D01*
X001987Y010133D01*
X001948Y010384D02*
X002180Y010538D01*
X002180Y010384D02*
X001948Y010538D01*
X001948Y010634D02*
X001948Y010789D01*
X001948Y010711D02*
X002180Y010711D01*
X002141Y011135D02*
X001987Y011135D01*
X001948Y011174D01*
X001948Y011290D01*
X002180Y011290D01*
X002180Y011174D01*
X002141Y011135D01*
X002180Y011385D02*
X001948Y011540D01*
X001987Y011636D02*
X002064Y011636D01*
X002103Y011675D01*
X002103Y011791D01*
X002180Y011791D02*
X001948Y011791D01*
X001948Y011675D01*
X001987Y011636D01*
X002103Y011713D02*
X002180Y011636D01*
X002180Y011540D02*
X001948Y011385D01*
X001987Y012137D02*
X001948Y012176D01*
X001948Y012253D01*
X001987Y012292D01*
X002025Y012292D01*
X002064Y012253D01*
X002064Y012176D01*
X002103Y012137D01*
X002141Y012137D01*
X002180Y012176D01*
X002180Y012253D01*
X002141Y012292D01*
X001948Y012387D02*
X001948Y012542D01*
X001948Y012465D02*
X002180Y012465D01*
X002180Y012638D02*
X002103Y012715D01*
X002103Y012676D02*
X002103Y012793D01*
X002180Y012793D02*
X001948Y012793D01*
X001948Y012676D01*
X001987Y012638D01*
X002064Y012638D01*
X002103Y012676D01*
X006195Y009701D02*
X006195Y009624D01*
X006234Y009585D01*
X006311Y009585D02*
X006350Y009663D01*
X006350Y009701D01*
X006311Y009740D01*
X006234Y009740D01*
X006195Y009701D01*
X006311Y009585D02*
X006427Y009585D01*
X006427Y009740D01*
X006388Y009490D02*
X006234Y009490D01*
X006195Y009451D01*
X006195Y009374D01*
X006234Y009335D01*
X006388Y009335D01*
X006427Y009374D01*
X006427Y009451D01*
X006388Y009490D01*
X006427Y009245D02*
X006427Y009168D01*
X006427Y009207D02*
X006195Y009207D01*
X006195Y009245D02*
X006195Y009168D01*
X006311Y009072D02*
X006272Y009034D01*
X006272Y008918D01*
X006195Y008918D02*
X006427Y008918D01*
X006427Y009034D01*
X006388Y009072D01*
X006311Y009072D01*
X006311Y007973D02*
X006272Y007935D01*
X006272Y007818D01*
X006195Y007818D02*
X006427Y007818D01*
X006427Y007935D01*
X006388Y007973D01*
X006311Y007973D01*
X006272Y007896D02*
X006195Y007973D01*
X006195Y007723D02*
X006427Y007723D01*
X006427Y007568D02*
X006195Y007568D01*
X006272Y007645D01*
X006195Y007723D01*
X006311Y007472D02*
X006272Y007434D01*
X006272Y007318D01*
X006195Y007318D02*
X006427Y007318D01*
X006427Y007434D01*
X006388Y007472D01*
X006311Y007472D01*
D12*
X013884Y011208D02*
X014131Y011208D01*
X014253Y011208D02*
X014315Y011208D01*
X014315Y011269D01*
X014253Y011269D01*
X014253Y011208D01*
X014436Y011208D02*
X014683Y011208D01*
X014436Y011454D01*
X014436Y011516D01*
X014498Y011578D01*
X014621Y011578D01*
X014683Y011516D01*
X014804Y011454D02*
X014928Y011208D01*
X015051Y011454D01*
X015541Y011454D02*
X015603Y011393D01*
X015788Y011393D01*
X015909Y011454D02*
X015909Y011516D01*
X015971Y011578D01*
X016156Y011578D01*
X016156Y011208D01*
X015971Y011208D01*
X015909Y011269D01*
X015909Y011331D01*
X015971Y011393D01*
X016156Y011393D01*
X015971Y011393D02*
X015909Y011454D01*
X015788Y011578D02*
X015788Y011208D01*
X015603Y011208D01*
X015541Y011269D01*
X015541Y011331D01*
X015603Y011393D01*
X015541Y011454D02*
X015541Y011516D01*
X015603Y011578D01*
X015788Y011578D01*
X016646Y011578D02*
X016893Y011578D01*
X016770Y011578D02*
X016770Y011208D01*
X017014Y011208D02*
X017138Y011331D01*
X017076Y011331D02*
X017261Y011331D01*
X017261Y011208D02*
X017261Y011578D01*
X017076Y011578D01*
X017014Y011516D01*
X017014Y011393D01*
X017076Y011331D01*
X017383Y011393D02*
X017630Y011393D01*
X017630Y011454D02*
X017506Y011578D01*
X017383Y011454D01*
X017383Y011208D01*
X017630Y011208D02*
X017630Y011454D01*
X017751Y011578D02*
X017751Y011269D01*
X017813Y011208D01*
X017936Y011208D01*
X017998Y011269D01*
X017998Y011578D01*
X018488Y011208D02*
X018612Y011208D01*
X018550Y011208D02*
X018550Y011454D01*
X018612Y011454D01*
X018550Y011578D02*
X018550Y011640D01*
X018857Y011578D02*
X018857Y011208D01*
X018980Y011208D02*
X018733Y011208D01*
X018672Y010954D02*
X018610Y010893D01*
X018610Y010831D01*
X018857Y010831D01*
X018857Y010893D02*
X018796Y010954D01*
X018672Y010954D01*
X018489Y010954D02*
X018489Y010769D01*
X018427Y010708D01*
X018242Y010708D01*
X018242Y010646D02*
X018304Y010584D01*
X018366Y010584D01*
X018242Y010646D02*
X018242Y010954D01*
X018121Y010769D02*
X018059Y010769D01*
X018059Y010708D01*
X018121Y010708D01*
X018121Y010769D01*
X017936Y010769D02*
X017875Y010708D01*
X017690Y010708D01*
X017568Y010769D02*
X017506Y010708D01*
X017383Y010708D01*
X017321Y010769D01*
X017321Y010893D01*
X017383Y010954D01*
X017506Y010954D01*
X017568Y010893D01*
X017568Y010769D01*
X017690Y010954D02*
X017875Y010954D01*
X017936Y010893D01*
X017936Y010769D01*
X018672Y010708D02*
X018796Y010708D01*
X018857Y010769D01*
X018857Y010893D01*
X018979Y010893D02*
X018979Y010708D01*
X018979Y010893D02*
X019040Y010954D01*
X019226Y010954D01*
X019226Y010708D01*
X019348Y010708D02*
X019409Y010769D01*
X019409Y011016D01*
X019348Y010954D02*
X019471Y010954D01*
X019593Y010893D02*
X019593Y010831D01*
X019839Y010831D01*
X019839Y010893D02*
X019778Y010954D01*
X019654Y010954D01*
X019593Y010893D01*
X019654Y010708D02*
X019778Y010708D01*
X019839Y010769D01*
X019839Y010893D01*
X019962Y010954D02*
X019962Y010646D01*
X020023Y010584D01*
X020085Y010584D01*
X019962Y011078D02*
X019962Y011140D01*
X020085Y011208D02*
X019962Y011331D01*
X019838Y011208D01*
X019838Y011578D01*
X019717Y011578D02*
X019470Y011578D01*
X019593Y011578D02*
X019593Y011208D01*
X019348Y011208D02*
X019101Y011208D01*
X019225Y011208D02*
X019225Y011578D01*
X019348Y011454D01*
X018980Y011454D02*
X018857Y011578D01*
X020085Y011578D02*
X020085Y011208D01*
X017200Y010954D02*
X017200Y010708D01*
X017076Y010708D02*
X017076Y010893D01*
X017015Y010954D01*
X016953Y010893D01*
X016953Y010708D01*
X017076Y010893D02*
X017138Y010954D01*
X017200Y010954D01*
X014131Y011454D02*
X014007Y011578D01*
X014007Y011208D01*
D13*
X001850Y012143D02*
X001850Y012793D01*
X001850Y007793D02*
X001850Y007143D01*
D14*
X005306Y007328D02*
X005306Y007957D01*
X005306Y007976D01*
X005310Y007995D01*
X005316Y008013D01*
X005326Y008029D01*
X005338Y008044D01*
X005352Y008056D01*
X005369Y008066D01*
X005386Y008072D01*
X005405Y008076D01*
X005995Y008076D01*
X005996Y008076D02*
X006014Y008072D01*
X006032Y008066D01*
X006049Y008056D01*
X006063Y008044D01*
X006076Y008029D01*
X006085Y008013D01*
X006091Y007995D01*
X006095Y007976D01*
X006095Y007957D01*
X006094Y007957D02*
X006094Y007328D01*
X006094Y007309D01*
X006090Y007290D01*
X006084Y007272D01*
X006074Y007256D01*
X006062Y007241D01*
X006048Y007229D01*
X006031Y007219D01*
X006014Y007213D01*
X005995Y007209D01*
X005405Y007209D01*
X005386Y007213D01*
X005369Y007219D01*
X005352Y007229D01*
X005338Y007241D01*
X005326Y007256D01*
X005316Y007272D01*
X005310Y007290D01*
X005306Y007309D01*
X005306Y007328D01*
X005405Y008909D02*
X005995Y008909D01*
X006014Y008913D01*
X006031Y008919D01*
X006048Y008929D01*
X006062Y008941D01*
X006074Y008956D01*
X006084Y008972D01*
X006090Y008990D01*
X006094Y009009D01*
X006094Y009028D01*
X006094Y009657D01*
X006095Y009657D02*
X006095Y009676D01*
X006091Y009695D01*
X006085Y009713D01*
X006076Y009729D01*
X006063Y009744D01*
X006049Y009756D01*
X006032Y009766D01*
X006014Y009772D01*
X005996Y009776D01*
X005995Y009776D02*
X005405Y009776D01*
X005386Y009772D01*
X005369Y009766D01*
X005352Y009756D01*
X005338Y009744D01*
X005326Y009729D01*
X005316Y009713D01*
X005310Y009695D01*
X005306Y009676D01*
X005306Y009657D01*
X005306Y009028D01*
X005306Y009009D01*
X005310Y008990D01*
X005316Y008972D01*
X005326Y008956D01*
X005338Y008941D01*
X005352Y008929D01*
X005369Y008919D01*
X005386Y008913D01*
X005405Y008909D01*
X018220Y012003D02*
X018320Y011983D01*
X018360Y011893D01*
X018300Y011803D01*
X018370Y011743D01*
X018450Y011803D01*
X018490Y011783D01*
X018550Y011943D01*
X018500Y011933D02*
X018470Y011833D01*
X018380Y011783D01*
X018340Y011813D01*
X018380Y011893D01*
X018330Y012003D01*
X018240Y012023D01*
X018250Y012073D01*
X018330Y012093D01*
X018380Y012213D01*
X018330Y012293D01*
X018380Y012333D01*
X018460Y012273D01*
X018550Y012313D01*
X018580Y012423D01*
X018630Y012423D01*
X018660Y012333D01*
X018770Y012273D01*
X018850Y012333D01*
X018890Y012303D01*
X018840Y012213D01*
X018880Y012103D01*
X018980Y012063D01*
X018980Y012033D01*
X018880Y012013D01*
X018830Y011903D01*
X018890Y011803D01*
X018840Y011773D01*
X018750Y011823D01*
X018720Y011923D01*
X018760Y012033D01*
X018720Y012163D01*
X018590Y012203D01*
X018480Y012143D01*
X018440Y012033D01*
X018500Y011933D01*
X018500Y011932D02*
X018362Y011932D01*
X018371Y011874D02*
X018482Y011874D01*
X018439Y011815D02*
X018341Y011815D01*
X018335Y011991D02*
X018465Y011991D01*
X018446Y012049D02*
X018245Y012049D01*
X018220Y012093D02*
X018220Y012003D01*
X018220Y012093D02*
X018320Y012113D01*
X018360Y012203D01*
X018300Y012293D01*
X018370Y012363D01*
X018460Y012293D01*
X018540Y012333D01*
X018560Y012443D01*
X018650Y012443D01*
X018680Y012333D01*
X018760Y012293D01*
X018850Y012363D01*
X018920Y012293D01*
X018860Y012203D01*
X018890Y012113D01*
X019000Y012093D01*
X019000Y012003D01*
X018900Y011983D01*
X018860Y011893D01*
X018920Y011803D01*
X018850Y011743D01*
X018770Y011803D01*
X018730Y011783D01*
X018670Y011943D01*
X018723Y011932D02*
X018843Y011932D01*
X018847Y011874D02*
X018735Y011874D01*
X018763Y011815D02*
X018882Y011815D01*
X018870Y011991D02*
X018745Y011991D01*
X018755Y012049D02*
X018980Y012049D01*
X018878Y012108D02*
X018737Y012108D01*
X018709Y012166D02*
X018857Y012166D01*
X018847Y012225D02*
X018372Y012225D01*
X018361Y012166D02*
X018523Y012166D01*
X018467Y012108D02*
X018336Y012108D01*
X018336Y012283D02*
X018446Y012283D01*
X018484Y012283D02*
X018751Y012283D01*
X018784Y012283D02*
X018879Y012283D01*
X018657Y012342D02*
X018558Y012342D01*
X018574Y012400D02*
X018637Y012400D01*
X018670Y011943D02*
X018687Y011955D01*
X018702Y011970D01*
X018715Y011987D01*
X018724Y012006D01*
X018729Y012027D01*
X018731Y012048D01*
X018729Y012069D01*
X018724Y012089D01*
X018715Y012108D01*
X018703Y012126D01*
X018688Y012141D01*
X018671Y012153D01*
X018651Y012162D01*
X018631Y012167D01*
X018610Y012169D01*
X018589Y012167D01*
X018569Y012162D01*
X018549Y012153D01*
X018532Y012141D01*
X018517Y012126D01*
X018505Y012108D01*
X018496Y012089D01*
X018491Y012069D01*
X018489Y012048D01*
X018491Y012027D01*
X018496Y012006D01*
X018505Y011987D01*
X018518Y011970D01*
X018533Y011955D01*
X018550Y011943D01*
D15*
X019400Y011893D03*
X019400Y012293D03*
X019900Y011893D03*
D16*
X019400Y012553D03*
D17*
X019210Y012703D03*
D18*
X019250Y012593D02*
X019300Y012893D01*
X019350Y012593D01*
X019400Y012893D01*
X019450Y012593D01*
X019500Y012893D01*
X019550Y012593D01*
X019600Y012893D01*
X019650Y012593D01*
X019550Y012593D01*
X019450Y012593D01*
X019350Y012593D01*
X019250Y012593D01*
X019250Y012893D01*
X019300Y012893D01*
X019400Y012893D01*
X019500Y012893D01*
X019600Y012893D01*
X019650Y012893D01*
X019650Y012593D01*
M02*
