G75*
%MOIN*%
%OFA0B0*%
%FSLAX24Y24*%
%IPPOS*%
%LPD*%
%AMOC8*
5,1,8,0,0,1.08239X$1,22.5*
%
%ADD10R,0.0500X0.0250*%
%ADD11OC8,0.0700*%
%ADD12C,0.0060*%
%ADD13C,0.0270*%
%ADD14C,0.0160*%
%ADD15C,0.0100*%
D10*
X005700Y007480D03*
X005700Y007805D03*
X005700Y009180D03*
X005700Y009505D03*
D11*
X004300Y009443D03*
X004300Y008443D03*
X004300Y007443D03*
X001300Y007443D03*
X001300Y008443D03*
X001300Y009443D03*
X001300Y010443D03*
X001300Y011443D03*
X001300Y012443D03*
D12*
X001340Y012423D01*
X001760Y012003D01*
X003260Y012003D01*
X003500Y011763D01*
X003620Y011523D02*
X001400Y011523D01*
X001340Y011463D01*
X001300Y011443D01*
X001300Y010443D02*
X002900Y010443D01*
X003260Y010803D01*
X003260Y010323D02*
X003740Y010803D01*
X003620Y011163D02*
X011120Y011163D01*
X011060Y012003D02*
X010820Y012243D01*
X004640Y012243D01*
X004520Y012363D01*
X003860Y011883D02*
X008480Y011883D01*
X008960Y012123D02*
X009320Y011763D01*
X008960Y012123D02*
X003200Y012123D01*
X003080Y012243D01*
X003620Y011523D02*
X003740Y011403D01*
X003620Y011163D02*
X003500Y011283D01*
X002780Y011283D01*
X003260Y010323D02*
X002060Y010323D01*
X001640Y009903D01*
X004300Y009443D02*
X004340Y009483D01*
X004820Y009483D01*
X005060Y009723D01*
X006980Y009723D01*
X007040Y009783D01*
X007040Y008943D02*
X005360Y008943D01*
X005240Y009063D01*
X005360Y009303D02*
X005060Y009303D01*
X004760Y009003D01*
X005360Y009303D02*
X005480Y009183D01*
X005660Y009183D01*
X005700Y009180D01*
X005700Y009243D02*
X005700Y009443D01*
X005720Y009483D02*
X005700Y009505D01*
X005720Y009483D02*
X008600Y009483D01*
X007280Y008283D02*
X006140Y008283D01*
X005700Y007743D02*
X005700Y007543D01*
X005240Y007203D02*
X004520Y007923D01*
X003740Y007923D01*
X003620Y007803D01*
X007280Y008283D02*
X007640Y007923D01*
D13*
X007640Y007923D03*
X007015Y007888D03*
X006440Y008043D03*
X006140Y008283D03*
X006140Y008703D03*
X007040Y008943D03*
X007040Y009783D03*
X006740Y010323D03*
X005120Y010203D03*
X004760Y009843D03*
X003620Y009843D03*
X002480Y009483D03*
X001640Y009903D03*
X002900Y008763D03*
X002780Y007863D03*
X003620Y007803D03*
X005240Y007203D03*
X005240Y009063D03*
X004760Y009003D03*
X003740Y010803D03*
X003260Y010803D03*
X002780Y011283D03*
X003500Y011763D03*
X003860Y011883D03*
X004520Y012363D03*
X003740Y011403D03*
X003080Y012243D03*
X008480Y011883D03*
X009320Y011763D03*
X011060Y012003D03*
X011120Y011163D03*
X012080Y010323D03*
X011420Y010023D03*
X008600Y009483D03*
X017600Y009543D03*
X017600Y009943D03*
X017600Y010343D03*
X017600Y010743D03*
X017600Y011143D03*
X017600Y011543D03*
X017600Y011943D03*
X017600Y012343D03*
X017600Y012743D03*
X017600Y009143D03*
X017600Y008743D03*
X017600Y008343D03*
X017600Y007943D03*
X017600Y007543D03*
X017600Y007143D03*
D14*
X001790Y007240D02*
X001623Y007073D01*
X003977Y007073D01*
X003810Y007240D01*
X003810Y007604D01*
X003776Y007569D01*
X003675Y007528D01*
X003565Y007528D01*
X003464Y007569D01*
X003387Y007647D01*
X003345Y007748D01*
X003345Y007857D01*
X003387Y007958D01*
X003464Y008036D01*
X003565Y008078D01*
X003655Y008078D01*
X003670Y008093D01*
X003957Y008093D01*
X003810Y008240D01*
X003810Y008624D01*
X003055Y007869D01*
X003055Y007808D01*
X003013Y007707D01*
X002936Y007629D01*
X002835Y007588D01*
X002725Y007588D01*
X002624Y007629D01*
X002547Y007707D01*
X002505Y007808D01*
X002505Y007917D01*
X002547Y008018D01*
X002624Y008096D01*
X002725Y008138D01*
X002786Y008138D01*
X003670Y009021D01*
X003781Y009133D01*
X003917Y009133D01*
X003810Y009240D01*
X003810Y009644D01*
X003776Y009609D01*
X003675Y009568D01*
X003565Y009568D01*
X003464Y009609D01*
X003387Y009687D01*
X003345Y009788D01*
X003345Y009897D01*
X003387Y009998D01*
X003464Y010076D01*
X003565Y010118D01*
X003675Y010118D01*
X003735Y010093D01*
X004645Y010093D01*
X004705Y010118D01*
X004815Y010118D01*
X004916Y010076D01*
X004993Y009998D01*
X005035Y009897D01*
X005035Y009893D01*
X006788Y009893D01*
X006807Y009938D01*
X006884Y010016D01*
X006985Y010058D01*
X007095Y010058D01*
X007196Y010016D01*
X007273Y009938D01*
X007315Y009837D01*
X007315Y009728D01*
X007284Y009653D01*
X008381Y009653D01*
X008444Y009716D01*
X008545Y009758D01*
X008655Y009758D01*
X008756Y009716D01*
X008833Y009638D01*
X008875Y009537D01*
X010666Y009537D01*
X010824Y009696D02*
X008776Y009696D01*
X008875Y009537D02*
X008875Y009428D01*
X008833Y009327D01*
X008756Y009249D01*
X008655Y009208D01*
X008545Y009208D01*
X008444Y009249D01*
X008381Y009313D01*
X006090Y009313D01*
X006090Y009113D01*
X006821Y009113D01*
X006884Y009176D01*
X006985Y009218D01*
X007095Y009218D01*
X007196Y009176D01*
X007273Y009098D01*
X007315Y008997D01*
X007315Y008888D01*
X007273Y008787D01*
X007196Y008709D01*
X007095Y008668D01*
X006985Y008668D01*
X006884Y008709D01*
X006821Y008773D01*
X006409Y008773D01*
X006415Y008757D01*
X006415Y008648D01*
X006373Y008547D01*
X006319Y008493D01*
X006359Y008453D01*
X007350Y008453D01*
X007450Y008353D01*
X007605Y008198D01*
X007695Y008198D01*
X007796Y008156D01*
X007873Y008078D01*
X007915Y007977D01*
X007915Y007868D01*
X007892Y007813D01*
X008941Y007813D01*
X011145Y010016D01*
X011145Y010077D01*
X011187Y010178D01*
X011264Y010256D01*
X011365Y010298D01*
X011475Y010298D01*
X011576Y010256D01*
X011653Y010178D01*
X011695Y010077D01*
X011695Y009968D01*
X011653Y009867D01*
X011576Y009789D01*
X011475Y009748D01*
X011414Y009748D01*
X009210Y007544D01*
X009099Y007433D01*
X007201Y007433D01*
X007021Y007613D01*
X006960Y007613D01*
X006859Y007654D01*
X006782Y007732D01*
X006740Y007833D01*
X006740Y007853D01*
X006639Y007853D01*
X006596Y007809D01*
X006495Y007768D01*
X006385Y007768D01*
X006284Y007809D01*
X006207Y007887D01*
X006165Y007988D01*
X006165Y008008D01*
X006085Y008008D01*
X006059Y008018D01*
X006090Y007988D01*
X006090Y007297D01*
X006008Y007215D01*
X005515Y007215D01*
X005515Y007148D01*
X005484Y007073D01*
X017657Y007073D01*
X017657Y012813D01*
X001623Y012813D01*
X001790Y012645D01*
X001790Y012240D01*
X001777Y012226D01*
X001830Y012173D01*
X002811Y012173D01*
X002805Y012188D01*
X002805Y012297D01*
X002847Y012398D01*
X002924Y012476D01*
X003025Y012518D01*
X003135Y012518D01*
X003236Y012476D01*
X003313Y012398D01*
X003355Y012297D01*
X003355Y012293D01*
X004251Y012293D01*
X004245Y012308D01*
X004245Y012417D01*
X004287Y012518D01*
X004364Y012596D01*
X004465Y012638D01*
X004575Y012638D01*
X004676Y012596D01*
X004753Y012518D01*
X004795Y012417D01*
X004795Y012413D01*
X010890Y012413D01*
X011025Y012278D01*
X011115Y012278D01*
X011216Y012236D01*
X011293Y012158D01*
X011335Y012057D01*
X011335Y011948D01*
X011293Y011847D01*
X011216Y011769D01*
X011115Y011728D01*
X011005Y011728D01*
X010904Y011769D01*
X010827Y011847D01*
X010785Y011948D01*
X010785Y012037D01*
X010750Y012073D01*
X009250Y012073D01*
X009285Y012038D01*
X009375Y012038D01*
X009476Y011996D01*
X009553Y011918D01*
X009595Y011817D01*
X009595Y011708D01*
X009553Y011607D01*
X009476Y011529D01*
X009375Y011488D01*
X009265Y011488D01*
X009164Y011529D01*
X009087Y011607D01*
X009045Y011708D01*
X009045Y011797D01*
X008890Y011953D01*
X008749Y011953D01*
X008755Y011937D01*
X008755Y011828D01*
X008713Y011727D01*
X008636Y011649D01*
X008535Y011608D01*
X008425Y011608D01*
X008324Y011649D01*
X008261Y011713D01*
X004079Y011713D01*
X004016Y011649D01*
X003921Y011610D01*
X003973Y011558D01*
X004015Y011457D01*
X004015Y011348D01*
X004009Y011333D01*
X010901Y011333D01*
X010964Y011396D01*
X011065Y011438D01*
X011175Y011438D01*
X011276Y011396D01*
X011353Y011318D01*
X011395Y011217D01*
X011395Y011108D01*
X011353Y011007D01*
X011276Y010929D01*
X011175Y010888D01*
X011065Y010888D01*
X010964Y010929D01*
X010901Y010993D01*
X003939Y010993D01*
X003973Y010958D01*
X004015Y010857D01*
X004015Y010748D01*
X003973Y010647D01*
X003896Y010569D01*
X003795Y010528D01*
X003705Y010528D01*
X003430Y010252D01*
X003330Y010153D01*
X002130Y010153D01*
X001915Y009937D01*
X001915Y009848D01*
X001873Y009747D01*
X001809Y009683D01*
X001830Y009662D01*
X001830Y009463D01*
X001320Y009463D01*
X001320Y009423D01*
X001830Y009423D01*
X001830Y009223D01*
X001521Y008914D01*
X001783Y008653D01*
X002521Y008653D01*
X002625Y008756D01*
X002625Y008817D01*
X002667Y008918D01*
X002744Y008996D01*
X002845Y009038D01*
X002955Y009038D01*
X003056Y008996D01*
X003133Y008918D01*
X003175Y008817D01*
X003175Y008708D01*
X003133Y008607D01*
X003056Y008529D01*
X002955Y008488D01*
X002894Y008488D01*
X002790Y008384D01*
X002679Y008273D01*
X001790Y008273D01*
X001790Y008240D01*
X001503Y007953D01*
X001097Y007953D01*
X001030Y008020D01*
X001030Y007865D01*
X001097Y007933D01*
X001503Y007933D01*
X001790Y007645D01*
X001790Y007240D01*
X001790Y007318D02*
X003810Y007318D01*
X003810Y007477D02*
X001790Y007477D01*
X001790Y007635D02*
X002619Y007635D01*
X002511Y007794D02*
X001642Y007794D01*
X001661Y008111D02*
X002660Y008111D01*
X002918Y008269D02*
X001790Y008269D01*
X001691Y008745D02*
X002613Y008745D01*
X002661Y008903D02*
X001532Y008903D01*
X001669Y009062D02*
X003710Y009062D01*
X003830Y009220D02*
X001827Y009220D01*
X001830Y009379D02*
X003810Y009379D01*
X003810Y009537D02*
X001830Y009537D01*
X001822Y009696D02*
X003383Y009696D01*
X003345Y009854D02*
X001915Y009854D01*
X001990Y010013D02*
X003401Y010013D01*
X003349Y010171D02*
X011184Y010171D01*
X011141Y010013D02*
X007199Y010013D01*
X007308Y009854D02*
X010983Y009854D01*
X011362Y009696D02*
X017657Y009696D01*
X017657Y009854D02*
X011640Y009854D01*
X011695Y010013D02*
X017657Y010013D01*
X017657Y010171D02*
X011656Y010171D01*
X011203Y009537D02*
X017657Y009537D01*
X017657Y009379D02*
X011045Y009379D01*
X010886Y009220D02*
X017657Y009220D01*
X017657Y009062D02*
X010728Y009062D01*
X010569Y008903D02*
X017657Y008903D01*
X017657Y008745D02*
X010411Y008745D01*
X010252Y008586D02*
X017657Y008586D01*
X017657Y008428D02*
X010094Y008428D01*
X009935Y008269D02*
X017657Y008269D01*
X017657Y008111D02*
X009777Y008111D01*
X009618Y007952D02*
X017657Y007952D01*
X017657Y007794D02*
X009460Y007794D01*
X009301Y007635D02*
X017657Y007635D01*
X017657Y007477D02*
X009143Y007477D01*
X009081Y007952D02*
X007915Y007952D01*
X007841Y008111D02*
X009239Y008111D01*
X009398Y008269D02*
X007534Y008269D01*
X007375Y008428D02*
X009556Y008428D01*
X009715Y008586D02*
X006389Y008586D01*
X006415Y008745D02*
X006849Y008745D01*
X007231Y008745D02*
X009873Y008745D01*
X010032Y008903D02*
X007315Y008903D01*
X007288Y009062D02*
X010190Y009062D01*
X010349Y009220D02*
X008685Y009220D01*
X008515Y009220D02*
X006090Y009220D01*
X006881Y010013D02*
X004979Y010013D01*
X003973Y010647D02*
X017657Y010647D01*
X017657Y010805D02*
X004015Y010805D01*
X003968Y010964D02*
X010930Y010964D01*
X011310Y010964D02*
X017657Y010964D01*
X017657Y011122D02*
X011395Y011122D01*
X011369Y011281D02*
X017657Y011281D01*
X017657Y011439D02*
X004015Y011439D01*
X003934Y011598D02*
X009096Y011598D01*
X009045Y011756D02*
X008725Y011756D01*
X008755Y011915D02*
X008928Y011915D01*
X009555Y011915D02*
X010799Y011915D01*
X010936Y011756D02*
X009595Y011756D01*
X009544Y011598D02*
X017657Y011598D01*
X017657Y011756D02*
X011184Y011756D01*
X011321Y011915D02*
X017657Y011915D01*
X017657Y012073D02*
X011328Y012073D01*
X011220Y012232D02*
X017657Y012232D01*
X017657Y012390D02*
X010913Y012390D01*
X008424Y009696D02*
X007302Y009696D01*
X008855Y009379D02*
X010507Y009379D01*
X007157Y007477D02*
X006090Y007477D01*
X006090Y007635D02*
X006906Y007635D01*
X006756Y007794D02*
X006557Y007794D01*
X006323Y007794D02*
X006090Y007794D01*
X006090Y007952D02*
X006180Y007952D01*
X006090Y007318D02*
X017657Y007318D01*
X017657Y007160D02*
X005515Y007160D01*
X003890Y007160D02*
X001710Y007160D01*
X001030Y007952D02*
X002519Y007952D01*
X002941Y007635D02*
X003399Y007635D01*
X003345Y007794D02*
X003049Y007794D01*
X003138Y007952D02*
X003384Y007952D01*
X003297Y008111D02*
X003939Y008111D01*
X003810Y008269D02*
X003455Y008269D01*
X003614Y008428D02*
X003810Y008428D01*
X003810Y008586D02*
X003772Y008586D01*
X003393Y008745D02*
X003175Y008745D01*
X003139Y008903D02*
X003552Y008903D01*
X003235Y008586D02*
X003112Y008586D01*
X003076Y008428D02*
X002834Y008428D01*
X003507Y010330D02*
X017657Y010330D01*
X017657Y010488D02*
X003666Y010488D01*
X002805Y012232D02*
X001782Y012232D01*
X001790Y012390D02*
X002843Y012390D01*
X003317Y012390D02*
X004245Y012390D01*
X004317Y012549D02*
X001790Y012549D01*
X001728Y012707D02*
X017657Y012707D01*
X017657Y012549D02*
X004723Y012549D01*
D15*
X005240Y010323D02*
X005120Y010203D01*
X005060Y010143D01*
X002240Y010143D01*
X002030Y009933D01*
X002480Y009483D01*
X002030Y009933D02*
X001580Y009483D01*
X001340Y009483D01*
X001300Y009443D01*
X001340Y008463D02*
X001300Y008443D01*
X001340Y008463D02*
X002600Y008463D01*
X002900Y008763D01*
X002780Y007863D02*
X003860Y008943D01*
X004460Y008943D01*
X005300Y008103D01*
X005300Y007503D01*
X005660Y007503D01*
X005700Y007480D01*
X005700Y007805D02*
X005720Y007863D01*
X005720Y008703D01*
X006140Y008703D01*
X006440Y008043D02*
X006860Y008043D01*
X007015Y007888D01*
X007280Y007623D01*
X009020Y007623D01*
X011420Y010023D01*
X012080Y010323D02*
X006740Y010323D01*
X005240Y010323D01*
X004760Y009843D02*
X004700Y009903D01*
X003680Y009903D01*
X003620Y009843D01*
M02*
