G75*
%MOIN*%
%OFA0B0*%
%FSLAX24Y24*%
%IPPOS*%
%LPD*%
%AMOC8*
5,1,8,0,0,1.08239X$1,22.5*
%
%ADD10R,0.0552X0.0297*%
%ADD11R,0.0552X0.0552*%
%ADD12R,0.0513X0.0474*%
%ADD13OC8,0.0780*%
%ADD14R,0.0200X0.0470*%
%ADD15C,0.0132*%
%ADD16C,0.0088*%
D10*
X002538Y009069D03*
X003562Y009443D03*
X002538Y009817D03*
D11*
X005700Y007229D03*
X005700Y008056D03*
X005700Y008929D03*
X005700Y009756D03*
D12*
X005835Y010943D03*
X005165Y010943D03*
X005165Y011793D03*
X005835Y011793D03*
X005835Y012643D03*
X005165Y012643D03*
X003235Y008343D03*
X002565Y008343D03*
X002575Y007443D03*
X003245Y007443D03*
D13*
X004300Y007443D03*
X004300Y008443D03*
X004300Y009443D03*
X001300Y009443D03*
X001300Y010443D03*
X001300Y011443D03*
X001300Y012443D03*
X001300Y008443D03*
X001300Y007443D03*
D14*
X002732Y010394D03*
X002988Y010394D03*
X003244Y010394D03*
X003500Y010394D03*
X003756Y010394D03*
X004012Y010394D03*
X004268Y010394D03*
X004268Y012691D03*
X004012Y012691D03*
X003756Y012691D03*
X003500Y012691D03*
X003244Y012691D03*
X002988Y012691D03*
X002732Y012691D03*
D15*
X006808Y012865D02*
X006808Y012335D01*
X006500Y012335D01*
X006500Y012865D01*
X006808Y012865D01*
X006808Y012466D02*
X006500Y012466D01*
X006500Y012597D02*
X006808Y012597D01*
X006808Y012728D02*
X006500Y012728D01*
X006500Y012859D02*
X006808Y012859D01*
X007399Y012865D02*
X007399Y012217D01*
X007091Y012217D01*
X007091Y012865D01*
X007399Y012865D01*
X007399Y012348D02*
X007091Y012348D01*
X007091Y012479D02*
X007399Y012479D01*
X007399Y012610D02*
X007091Y012610D01*
X007091Y012741D02*
X007399Y012741D01*
X007989Y012865D02*
X007989Y012217D01*
X007681Y012217D01*
X007681Y012865D01*
X007989Y012865D01*
X007989Y012348D02*
X007681Y012348D01*
X007681Y012479D02*
X007989Y012479D01*
X007989Y012610D02*
X007681Y012610D01*
X007681Y012741D02*
X007989Y012741D01*
X008580Y012865D02*
X008580Y012217D01*
X008272Y012217D01*
X008272Y012865D01*
X008580Y012865D01*
X008580Y012348D02*
X008272Y012348D01*
X008272Y012479D02*
X008580Y012479D01*
X008580Y012610D02*
X008272Y012610D01*
X008272Y012741D02*
X008580Y012741D01*
X009171Y012865D02*
X009171Y012217D01*
X008863Y012217D01*
X008863Y012865D01*
X009171Y012865D01*
X009171Y012348D02*
X008863Y012348D01*
X008863Y012479D02*
X009171Y012479D01*
X009171Y012610D02*
X008863Y012610D01*
X008863Y012741D02*
X009171Y012741D01*
X010352Y012865D02*
X010352Y012217D01*
X010044Y012217D01*
X010044Y012865D01*
X010352Y012865D01*
X010352Y012348D02*
X010044Y012348D01*
X010044Y012479D02*
X010352Y012479D01*
X010352Y012610D02*
X010044Y012610D01*
X010044Y012741D02*
X010352Y012741D01*
X010942Y012865D02*
X010942Y012217D01*
X010634Y012217D01*
X010634Y012865D01*
X010942Y012865D01*
X010942Y012348D02*
X010634Y012348D01*
X010634Y012479D02*
X010942Y012479D01*
X010942Y012610D02*
X010634Y012610D01*
X010634Y012741D02*
X010942Y012741D01*
X011533Y012865D02*
X011533Y012217D01*
X011225Y012217D01*
X011225Y012865D01*
X011533Y012865D01*
X011533Y012348D02*
X011225Y012348D01*
X011225Y012479D02*
X011533Y012479D01*
X011533Y012610D02*
X011225Y012610D01*
X011225Y012741D02*
X011533Y012741D01*
X012123Y012865D02*
X012123Y012217D01*
X011815Y012217D01*
X011815Y012865D01*
X012123Y012865D01*
X012123Y012348D02*
X011815Y012348D01*
X011815Y012479D02*
X012123Y012479D01*
X012123Y012610D02*
X011815Y012610D01*
X011815Y012741D02*
X012123Y012741D01*
X012714Y012865D02*
X012714Y012217D01*
X012406Y012217D01*
X012406Y012865D01*
X012714Y012865D01*
X012714Y012348D02*
X012406Y012348D01*
X012406Y012479D02*
X012714Y012479D01*
X012714Y012610D02*
X012406Y012610D01*
X012406Y012741D02*
X012714Y012741D01*
X013304Y012865D02*
X013304Y012217D01*
X012996Y012217D01*
X012996Y012865D01*
X013304Y012865D01*
X013304Y012348D02*
X012996Y012348D01*
X012996Y012479D02*
X013304Y012479D01*
X013304Y012610D02*
X012996Y012610D01*
X012996Y012741D02*
X013304Y012741D01*
X013895Y012865D02*
X013895Y012217D01*
X013587Y012217D01*
X013587Y012865D01*
X013895Y012865D01*
X013895Y012348D02*
X013587Y012348D01*
X013587Y012479D02*
X013895Y012479D01*
X013895Y012610D02*
X013587Y012610D01*
X013587Y012741D02*
X013895Y012741D01*
X014485Y012865D02*
X014485Y012335D01*
X014177Y012335D01*
X014177Y012865D01*
X014485Y012865D01*
X014485Y012466D02*
X014177Y012466D01*
X014177Y012597D02*
X014485Y012597D01*
X014485Y012728D02*
X014177Y012728D01*
X014177Y012859D02*
X014485Y012859D01*
X013895Y007668D02*
X013895Y007020D01*
X013587Y007020D01*
X013587Y007668D01*
X013895Y007668D01*
X013895Y007151D02*
X013587Y007151D01*
X013587Y007282D02*
X013895Y007282D01*
X013895Y007413D02*
X013587Y007413D01*
X013587Y007544D02*
X013895Y007544D01*
X014485Y007550D02*
X014485Y007020D01*
X014177Y007020D01*
X014177Y007550D01*
X014485Y007550D01*
X014485Y007151D02*
X014177Y007151D01*
X014177Y007282D02*
X014485Y007282D01*
X014485Y007413D02*
X014177Y007413D01*
X014177Y007544D02*
X014485Y007544D01*
X013304Y007668D02*
X013304Y007020D01*
X012996Y007020D01*
X012996Y007668D01*
X013304Y007668D01*
X013304Y007151D02*
X012996Y007151D01*
X012996Y007282D02*
X013304Y007282D01*
X013304Y007413D02*
X012996Y007413D01*
X012996Y007544D02*
X013304Y007544D01*
X012714Y007668D02*
X012714Y007020D01*
X012406Y007020D01*
X012406Y007668D01*
X012714Y007668D01*
X012714Y007151D02*
X012406Y007151D01*
X012406Y007282D02*
X012714Y007282D01*
X012714Y007413D02*
X012406Y007413D01*
X012406Y007544D02*
X012714Y007544D01*
X012123Y007668D02*
X012123Y007020D01*
X011815Y007020D01*
X011815Y007668D01*
X012123Y007668D01*
X012123Y007151D02*
X011815Y007151D01*
X011815Y007282D02*
X012123Y007282D01*
X012123Y007413D02*
X011815Y007413D01*
X011815Y007544D02*
X012123Y007544D01*
X011533Y007668D02*
X011533Y007020D01*
X011225Y007020D01*
X011225Y007668D01*
X011533Y007668D01*
X011533Y007151D02*
X011225Y007151D01*
X011225Y007282D02*
X011533Y007282D01*
X011533Y007413D02*
X011225Y007413D01*
X011225Y007544D02*
X011533Y007544D01*
X010942Y007668D02*
X010942Y007020D01*
X010634Y007020D01*
X010634Y007668D01*
X010942Y007668D01*
X010942Y007151D02*
X010634Y007151D01*
X010634Y007282D02*
X010942Y007282D01*
X010942Y007413D02*
X010634Y007413D01*
X010634Y007544D02*
X010942Y007544D01*
X010352Y007668D02*
X010352Y007020D01*
X010044Y007020D01*
X010044Y007668D01*
X010352Y007668D01*
X010352Y007151D02*
X010044Y007151D01*
X010044Y007282D02*
X010352Y007282D01*
X010352Y007413D02*
X010044Y007413D01*
X010044Y007544D02*
X010352Y007544D01*
X009761Y007668D02*
X009761Y007020D01*
X009453Y007020D01*
X009453Y007668D01*
X009761Y007668D01*
X009761Y007151D02*
X009453Y007151D01*
X009453Y007282D02*
X009761Y007282D01*
X009761Y007413D02*
X009453Y007413D01*
X009453Y007544D02*
X009761Y007544D01*
X009171Y007668D02*
X009171Y007020D01*
X008863Y007020D01*
X008863Y007668D01*
X009171Y007668D01*
X009171Y007151D02*
X008863Y007151D01*
X008863Y007282D02*
X009171Y007282D01*
X009171Y007413D02*
X008863Y007413D01*
X008863Y007544D02*
X009171Y007544D01*
X008580Y007668D02*
X008580Y007020D01*
X008272Y007020D01*
X008272Y007668D01*
X008580Y007668D01*
X008580Y007151D02*
X008272Y007151D01*
X008272Y007282D02*
X008580Y007282D01*
X008580Y007413D02*
X008272Y007413D01*
X008272Y007544D02*
X008580Y007544D01*
X007989Y007668D02*
X007989Y007020D01*
X007681Y007020D01*
X007681Y007668D01*
X007989Y007668D01*
X007989Y007151D02*
X007681Y007151D01*
X007681Y007282D02*
X007989Y007282D01*
X007989Y007413D02*
X007681Y007413D01*
X007681Y007544D02*
X007989Y007544D01*
X007399Y007668D02*
X007399Y007020D01*
X007091Y007020D01*
X007091Y007668D01*
X007399Y007668D01*
X007399Y007151D02*
X007091Y007151D01*
X007091Y007282D02*
X007399Y007282D01*
X007399Y007413D02*
X007091Y007413D01*
X007091Y007544D02*
X007399Y007544D01*
X006808Y007550D02*
X006808Y007020D01*
X006500Y007020D01*
X006500Y007550D01*
X006808Y007550D01*
X006808Y007151D02*
X006500Y007151D01*
X006500Y007282D02*
X006808Y007282D01*
X006808Y007413D02*
X006500Y007413D01*
X006500Y007544D02*
X006808Y007544D01*
D16*
X009783Y012195D02*
X009783Y012887D01*
X009783Y012195D02*
X009431Y012195D01*
X009431Y012887D01*
X009783Y012887D01*
X009783Y012282D02*
X009431Y012282D01*
X009431Y012369D02*
X009783Y012369D01*
X009783Y012456D02*
X009431Y012456D01*
X009431Y012543D02*
X009783Y012543D01*
X009783Y012630D02*
X009431Y012630D01*
X009431Y012717D02*
X009783Y012717D01*
X009783Y012804D02*
X009431Y012804D01*
M02*
