G75*
%MOIN*%
%OFA0B0*%
%FSLAX24Y24*%
%IPPOS*%
%LPD*%
%AMOC8*
5,1,8,0,0,1.08239X$1,22.5*
%
%ADD10C,0.0000*%
%ADD11C,0.0040*%
%ADD12C,0.0050*%
%ADD13C,0.0060*%
%ADD14R,0.0256X0.0197*%
%ADD15C,0.0020*%
%ADD16C,0.0004*%
%ADD17R,0.0128X0.0197*%
%ADD18R,0.0059X0.0098*%
%ADD19R,0.0157X0.0069*%
%ADD20R,0.0079X0.0079*%
%ADD21R,0.0118X0.0118*%
%ADD22R,0.0089X0.0030*%
%ADD23R,0.0197X0.0374*%
%ADD24R,0.0180X0.0300*%
%ADD25R,0.0200X0.0200*%
%ADD26C,0.0030*%
%ADD27C,0.0220*%
%ADD28R,0.0080X0.0330*%
%ADD29R,0.1575X0.0787*%
D10*
X000800Y006843D02*
X000800Y013043D01*
X020350Y013043D01*
X020350Y006843D01*
X000800Y006843D01*
D11*
X001920Y007166D02*
X001959Y007128D01*
X001997Y007128D01*
X002036Y007166D01*
X002036Y007244D01*
X002075Y007283D01*
X002113Y007283D01*
X002152Y007244D01*
X002152Y007166D01*
X002113Y007128D01*
X001920Y007166D02*
X001920Y007244D01*
X001959Y007283D01*
X001920Y007456D02*
X002152Y007456D01*
X002152Y007533D02*
X002152Y007378D01*
X002113Y007629D02*
X002152Y007667D01*
X002152Y007745D01*
X002113Y007783D01*
X001959Y007783D01*
X001920Y007745D01*
X001920Y007667D01*
X001959Y007629D01*
X001959Y008130D02*
X001920Y008168D01*
X001920Y008246D01*
X001959Y008284D01*
X002113Y008284D01*
X002152Y008246D01*
X002152Y008168D01*
X002113Y008130D01*
X002113Y008380D02*
X002152Y008419D01*
X002152Y008496D01*
X002113Y008535D01*
X001959Y008535D01*
X001920Y008496D01*
X001920Y008419D01*
X001959Y008380D01*
X001997Y008630D02*
X002152Y008630D01*
X001997Y008630D02*
X001920Y008708D01*
X001997Y008785D01*
X002152Y008785D01*
X002113Y009131D02*
X001959Y009131D01*
X001920Y009170D01*
X001920Y009286D01*
X002152Y009286D01*
X002152Y009170D01*
X002113Y009131D01*
X002152Y009382D02*
X001920Y009382D01*
X002152Y009537D01*
X001920Y009537D01*
X001959Y009632D02*
X002036Y009632D01*
X002036Y009710D01*
X001959Y009787D02*
X001920Y009748D01*
X001920Y009671D01*
X001959Y009632D01*
X002113Y009632D02*
X002152Y009671D01*
X002152Y009748D01*
X002113Y009787D01*
X001959Y009787D01*
X001959Y010133D02*
X002113Y010133D01*
X002152Y010172D01*
X002152Y010288D01*
X001920Y010288D01*
X001920Y010172D01*
X001959Y010133D01*
X001920Y010384D02*
X002152Y010538D01*
X002152Y010634D02*
X002152Y010789D01*
X002152Y010711D02*
X001920Y010711D01*
X001920Y010538D02*
X002152Y010384D01*
X002113Y011135D02*
X001959Y011135D01*
X001920Y011174D01*
X001920Y011290D01*
X002152Y011290D01*
X002152Y011174D01*
X002113Y011135D01*
X002152Y011385D02*
X001920Y011540D01*
X001920Y011636D02*
X001997Y011713D01*
X001997Y011675D02*
X001997Y011791D01*
X001920Y011791D02*
X002152Y011791D01*
X002152Y011675D01*
X002113Y011636D01*
X002036Y011636D01*
X001997Y011675D01*
X002152Y011540D02*
X001920Y011385D01*
X001959Y012137D02*
X001920Y012176D01*
X001920Y012253D01*
X001959Y012292D01*
X002036Y012253D02*
X002036Y012176D01*
X001997Y012137D01*
X001959Y012137D01*
X002036Y012253D02*
X002075Y012292D01*
X002113Y012292D01*
X002152Y012253D01*
X002152Y012176D01*
X002113Y012137D01*
X002152Y012387D02*
X002152Y012542D01*
X002152Y012465D02*
X001920Y012465D01*
X001920Y012638D02*
X001997Y012715D01*
X001997Y012676D02*
X001997Y012793D01*
X001920Y012793D02*
X002152Y012793D01*
X002152Y012676D01*
X002113Y012638D01*
X002036Y012638D01*
X001997Y012676D01*
X005360Y012807D02*
X005640Y012807D01*
X005640Y012472D02*
X005360Y012472D01*
X005360Y011957D02*
X005640Y011957D01*
X005640Y011622D02*
X005360Y011622D01*
X005360Y011107D02*
X005640Y011107D01*
X005640Y010772D02*
X005360Y010772D01*
X005420Y010263D02*
X005420Y010096D01*
X005453Y010063D01*
X005520Y010063D01*
X005553Y010096D01*
X005553Y010263D01*
X005641Y010229D02*
X005641Y010196D01*
X005674Y010163D01*
X005741Y010163D01*
X005774Y010129D01*
X005774Y010096D01*
X005741Y010063D01*
X005674Y010063D01*
X005641Y010096D01*
X005641Y010229D02*
X005674Y010263D01*
X005741Y010263D01*
X005774Y010229D01*
X005862Y010263D02*
X005962Y010263D01*
X005995Y010229D01*
X005995Y010163D01*
X005962Y010129D01*
X005862Y010129D01*
X005862Y010063D02*
X005862Y010263D01*
X005929Y010129D02*
X005995Y010063D01*
X005482Y009677D02*
X005484Y009689D01*
X005489Y009700D01*
X005497Y009709D01*
X005508Y009715D01*
X005520Y009718D01*
X005532Y009717D01*
X005544Y009713D01*
X005553Y009705D01*
X005560Y009695D01*
X005564Y009683D01*
X005564Y009671D01*
X005560Y009659D01*
X005553Y009649D01*
X005543Y009641D01*
X005532Y009637D01*
X005520Y009636D01*
X005508Y009639D01*
X005497Y009645D01*
X005489Y009654D01*
X005484Y009665D01*
X005482Y009677D01*
X005474Y009707D02*
X005474Y009146D01*
X005110Y009094D02*
X004910Y009094D01*
X004910Y009194D01*
X004943Y009227D01*
X005010Y009227D01*
X005043Y009194D01*
X005043Y009094D01*
X005110Y009315D02*
X005110Y009382D01*
X005110Y009348D02*
X004910Y009348D01*
X004910Y009315D02*
X004910Y009382D01*
X004943Y009462D02*
X005077Y009462D01*
X005110Y009495D01*
X005110Y009562D01*
X005077Y009596D01*
X004943Y009596D01*
X004910Y009562D01*
X004910Y009495D01*
X004943Y009462D01*
X004910Y009683D02*
X004910Y009817D01*
X004943Y009817D01*
X005077Y009683D01*
X005110Y009683D01*
X005926Y009549D02*
X005926Y009136D01*
X005962Y008563D02*
X005862Y008563D01*
X005862Y008363D01*
X005862Y008429D02*
X005962Y008429D01*
X005995Y008463D01*
X005995Y008529D01*
X005962Y008563D01*
X005929Y008429D02*
X005995Y008363D01*
X005774Y008363D02*
X005708Y008429D01*
X005641Y008363D01*
X005641Y008563D01*
X005553Y008529D02*
X005553Y008463D01*
X005520Y008429D01*
X005420Y008429D01*
X005420Y008363D02*
X005420Y008563D01*
X005520Y008563D01*
X005553Y008529D01*
X005774Y008563D02*
X005774Y008363D01*
X005926Y007839D02*
X005926Y007278D01*
X005836Y007308D02*
X005838Y007320D01*
X005843Y007331D01*
X005851Y007340D01*
X005862Y007346D01*
X005874Y007349D01*
X005886Y007348D01*
X005898Y007344D01*
X005907Y007336D01*
X005914Y007326D01*
X005918Y007314D01*
X005918Y007302D01*
X005914Y007290D01*
X005907Y007280D01*
X005897Y007272D01*
X005886Y007268D01*
X005874Y007267D01*
X005862Y007270D01*
X005851Y007276D01*
X005843Y007285D01*
X005838Y007296D01*
X005836Y007308D01*
X005474Y007436D02*
X005474Y007849D01*
X005110Y007705D02*
X005110Y007638D01*
X005077Y007604D01*
X005010Y007638D02*
X005010Y007705D01*
X005043Y007738D01*
X005077Y007738D01*
X005110Y007705D01*
X005010Y007638D02*
X004977Y007604D01*
X004943Y007604D01*
X004910Y007638D01*
X004910Y007705D01*
X004943Y007738D01*
X004910Y007517D02*
X004910Y007384D01*
X005110Y007384D01*
X005110Y007517D01*
X005010Y007450D02*
X005010Y007384D01*
X005010Y007296D02*
X005043Y007263D01*
X005043Y007163D01*
X005043Y007229D02*
X005110Y007296D01*
X005010Y007296D02*
X004943Y007296D01*
X004910Y007263D01*
X004910Y007163D01*
X005110Y007163D01*
X005110Y008063D02*
X004910Y008063D01*
X004910Y008163D01*
X004943Y008196D01*
X005010Y008196D01*
X005043Y008163D01*
X005043Y008063D01*
X005110Y008284D02*
X005110Y008350D01*
X005110Y008317D02*
X004910Y008317D01*
X004910Y008284D02*
X004910Y008350D01*
X004943Y008431D02*
X005077Y008431D01*
X005110Y008464D01*
X005110Y008531D01*
X005077Y008564D01*
X004943Y008564D01*
X004910Y008531D01*
X004910Y008464D01*
X004943Y008431D01*
X005010Y008652D02*
X005010Y008752D01*
X005043Y008785D01*
X005077Y008785D01*
X005110Y008752D01*
X005110Y008685D01*
X005077Y008652D01*
X005010Y008652D01*
X004943Y008719D01*
X004910Y008785D01*
X003040Y008507D02*
X002760Y008507D01*
X002760Y008172D02*
X003040Y008172D01*
X003050Y007613D02*
X002770Y007613D01*
X002770Y007278D02*
X003050Y007278D01*
D12*
X002250Y007143D02*
X002250Y007793D01*
X006261Y007187D02*
X006261Y012698D01*
X020335Y012698D01*
X020335Y007187D01*
X006261Y007187D01*
X002250Y012143D02*
X002250Y012793D01*
D13*
X001800Y012693D02*
X001550Y012943D01*
X001050Y012943D01*
X000800Y012693D01*
X000800Y012193D01*
X001050Y011943D01*
X000800Y011693D01*
X000800Y011193D01*
X001050Y010943D01*
X001550Y010943D01*
X001800Y011193D01*
X001800Y011693D01*
X001550Y011943D01*
X001050Y011943D01*
X001550Y011943D02*
X001800Y012193D01*
X001800Y012693D01*
X002510Y012441D02*
X002510Y010644D01*
X004490Y010644D01*
X004490Y012441D01*
X002510Y012441D01*
X003960Y012023D02*
X003962Y012049D01*
X003968Y012075D01*
X003977Y012099D01*
X003990Y012122D01*
X004006Y012143D01*
X004025Y012161D01*
X004046Y012177D01*
X004070Y012189D01*
X004094Y012197D01*
X004120Y012202D01*
X004147Y012203D01*
X004173Y012200D01*
X004198Y012193D01*
X004222Y012183D01*
X004245Y012169D01*
X004265Y012153D01*
X004282Y012133D01*
X004297Y012111D01*
X004308Y012087D01*
X004316Y012062D01*
X004320Y012036D01*
X004320Y012010D01*
X004316Y011984D01*
X004308Y011959D01*
X004297Y011935D01*
X004282Y011913D01*
X004265Y011893D01*
X004245Y011877D01*
X004222Y011863D01*
X004198Y011853D01*
X004173Y011846D01*
X004147Y011843D01*
X004120Y011844D01*
X004094Y011849D01*
X004070Y011857D01*
X004046Y011869D01*
X004025Y011885D01*
X004006Y011903D01*
X003990Y011924D01*
X003977Y011947D01*
X003968Y011971D01*
X003962Y011997D01*
X003960Y012023D01*
X001800Y010693D02*
X001800Y010193D01*
X001550Y009943D01*
X001800Y009693D01*
X001800Y009193D01*
X001550Y008943D01*
X001800Y008693D01*
X001800Y008193D01*
X001550Y007943D01*
X001800Y007693D01*
X001800Y007193D01*
X001550Y006943D01*
X001050Y006943D01*
X000800Y007193D01*
X000800Y007693D01*
X001050Y007943D01*
X000800Y008193D01*
X000800Y008693D01*
X001050Y008943D01*
X000800Y009193D01*
X000800Y009693D01*
X001050Y009943D01*
X000800Y010193D01*
X000800Y010693D01*
X001050Y010943D01*
X001550Y010943D02*
X001800Y010693D01*
X001550Y009943D02*
X001050Y009943D01*
X001050Y008943D02*
X001550Y008943D01*
X002731Y008920D02*
X002731Y008883D01*
X002731Y010002D01*
X002731Y009965D01*
X002731Y010002D02*
X003369Y010002D01*
X003369Y009965D01*
X003369Y010002D02*
X003369Y008883D01*
X003369Y008920D01*
X003369Y008883D02*
X002731Y008883D01*
X002731Y009237D02*
X002731Y009648D01*
X003369Y009648D02*
X003369Y009611D01*
X003369Y009274D02*
X003369Y009237D01*
X003800Y009193D02*
X003800Y009693D01*
X004050Y009943D01*
X004550Y009943D01*
X004800Y009693D01*
X004800Y009193D01*
X004550Y008943D01*
X004800Y008693D01*
X004800Y008193D01*
X004550Y007943D01*
X004050Y007943D01*
X003800Y008193D01*
X003800Y008693D01*
X004050Y008943D01*
X003800Y009193D01*
X004050Y008943D02*
X004550Y008943D01*
X004550Y007943D02*
X004050Y007943D01*
X003800Y007693D01*
X003800Y007193D01*
X004050Y006943D01*
X004550Y006943D01*
X004800Y007193D01*
X004800Y007693D01*
X004550Y007943D01*
X001550Y007943D02*
X001050Y007943D01*
X009130Y009073D02*
X009344Y009286D01*
X009557Y009073D01*
X009557Y009713D01*
X009775Y009713D02*
X010202Y009713D01*
X009988Y009713D02*
X009988Y009073D01*
X010419Y009073D02*
X010846Y009073D01*
X010633Y009073D02*
X010633Y009713D01*
X010419Y009500D01*
X011064Y009500D02*
X011277Y009713D01*
X011277Y009073D01*
X011064Y009073D02*
X011491Y009073D01*
X011708Y009073D02*
X011922Y009073D01*
X011815Y009073D02*
X011815Y009500D01*
X011708Y009500D01*
X011815Y009713D02*
X011815Y009820D01*
X011814Y009909D02*
X011920Y010016D01*
X011920Y010550D01*
X011600Y010550D01*
X011493Y010443D01*
X011493Y010229D01*
X011600Y010123D01*
X011920Y010123D01*
X012138Y010123D02*
X012351Y010123D01*
X012245Y010123D02*
X012245Y010550D01*
X012138Y010550D01*
X012245Y010763D02*
X012245Y010870D01*
X012674Y010550D02*
X012568Y010443D01*
X012568Y010229D01*
X012674Y010123D01*
X012995Y010123D01*
X012995Y010016D02*
X012995Y010550D01*
X012674Y010550D01*
X013212Y010229D02*
X013319Y010336D01*
X013639Y010336D01*
X013639Y010443D02*
X013639Y010123D01*
X013319Y010123D01*
X013212Y010229D01*
X012995Y010016D02*
X012888Y009909D01*
X012781Y009909D01*
X012996Y009713D02*
X013209Y009500D01*
X013209Y009073D01*
X012782Y009073D02*
X012782Y009500D01*
X012996Y009713D01*
X012782Y009393D02*
X013209Y009393D01*
X012565Y009393D02*
X012138Y009393D01*
X011814Y009909D02*
X011707Y009909D01*
X011169Y010123D02*
X010956Y010123D01*
X010849Y010229D01*
X010849Y010443D01*
X010956Y010550D01*
X011169Y010550D01*
X011276Y010443D01*
X011276Y010336D01*
X010849Y010336D01*
X010631Y010123D02*
X010631Y010550D01*
X010204Y010550D02*
X010204Y010229D01*
X010311Y010123D01*
X010631Y010123D01*
X009988Y010123D02*
X009775Y010123D01*
X009881Y010123D02*
X009881Y010763D01*
X009775Y010763D01*
X009557Y010656D02*
X009557Y010550D01*
X009450Y010443D01*
X009130Y010443D01*
X009450Y010443D02*
X009557Y010336D01*
X009557Y010229D01*
X009450Y010123D01*
X009130Y010123D01*
X009130Y010763D01*
X009450Y010763D01*
X009557Y010656D01*
X009130Y009713D02*
X009130Y009073D01*
X013319Y010550D02*
X013532Y010550D01*
X013639Y010443D01*
D14*
X003513Y009443D03*
X002587Y009817D03*
X002587Y009069D03*
D15*
X003470Y009049D02*
X003653Y009049D01*
X003690Y009013D01*
X003690Y008939D01*
X003653Y008903D01*
X003470Y008903D01*
X003507Y009124D02*
X003470Y009160D01*
X003470Y009234D01*
X003507Y009270D01*
X003543Y009270D01*
X003690Y009124D01*
X003690Y009270D01*
X003720Y008513D02*
X003720Y008367D01*
X003573Y008513D01*
X003537Y008513D01*
X003500Y008477D01*
X003500Y008403D01*
X003537Y008367D01*
X003537Y008292D02*
X003610Y008292D01*
X003647Y008256D01*
X003647Y008146D01*
X003647Y008219D02*
X003720Y008292D01*
X003720Y008146D02*
X003500Y008146D01*
X003500Y008256D01*
X003537Y008292D01*
X003740Y007603D02*
X003740Y007457D01*
X003740Y007530D02*
X003520Y007530D01*
X003593Y007457D01*
X003557Y007382D02*
X003630Y007382D01*
X003667Y007346D01*
X003667Y007236D01*
X003667Y007309D02*
X003740Y007382D01*
X003740Y007236D02*
X003520Y007236D01*
X003520Y007346D01*
X003557Y007382D01*
X005697Y010453D02*
X005770Y010453D01*
X005807Y010489D01*
X005881Y010453D02*
X006028Y010453D01*
X005954Y010453D02*
X005954Y010673D01*
X005881Y010599D01*
X005807Y010636D02*
X005770Y010673D01*
X005697Y010673D01*
X005660Y010636D01*
X005660Y010489D01*
X005697Y010453D01*
X005697Y011303D02*
X005770Y011303D01*
X005807Y011339D01*
X005881Y011303D02*
X006028Y011449D01*
X006028Y011486D01*
X005991Y011523D01*
X005918Y011523D01*
X005881Y011486D01*
X005807Y011486D02*
X005770Y011523D01*
X005697Y011523D01*
X005660Y011486D01*
X005660Y011339D01*
X005697Y011303D01*
X005881Y011303D02*
X006028Y011303D01*
X006028Y012153D02*
X005881Y012153D01*
X005954Y012153D02*
X005954Y012373D01*
X005881Y012299D01*
X005807Y012153D02*
X005660Y012153D01*
X005660Y012373D01*
X004650Y012569D02*
X004650Y012643D01*
X004613Y012679D01*
X004430Y012679D01*
X004467Y012754D02*
X004430Y012790D01*
X004430Y012864D01*
X004467Y012900D01*
X004503Y012900D01*
X004540Y012864D01*
X004577Y012900D01*
X004613Y012900D01*
X004650Y012864D01*
X004650Y012790D01*
X004613Y012754D01*
X004540Y012827D02*
X004540Y012864D01*
X004650Y012569D02*
X004613Y012533D01*
X004430Y012533D01*
D16*
X005545Y009735D02*
X005581Y009735D01*
X005580Y009734D02*
X005582Y009713D01*
X005588Y009693D01*
X005597Y009675D01*
X005609Y009658D01*
X005624Y009644D01*
X005641Y009632D01*
X005659Y009623D01*
X005679Y009618D01*
X005700Y009616D01*
X005721Y009618D01*
X005741Y009623D01*
X005759Y009632D01*
X005776Y009644D01*
X005791Y009658D01*
X005803Y009675D01*
X005812Y009693D01*
X005818Y009713D01*
X005820Y009734D01*
X005855Y009735D01*
X005856Y009734D01*
X005854Y009710D01*
X005848Y009686D01*
X005838Y009664D01*
X005825Y009643D01*
X005810Y009625D01*
X005791Y009609D01*
X005770Y009597D01*
X005748Y009588D01*
X005724Y009582D01*
X005700Y009580D01*
X005676Y009582D01*
X005652Y009588D01*
X005630Y009597D01*
X005609Y009609D01*
X005590Y009625D01*
X005575Y009643D01*
X005562Y009664D01*
X005552Y009686D01*
X005546Y009710D01*
X005544Y009734D01*
X005547Y009734D01*
X005549Y009710D01*
X005555Y009687D01*
X005564Y009665D01*
X005577Y009645D01*
X005593Y009627D01*
X005611Y009612D01*
X005631Y009599D01*
X005653Y009590D01*
X005676Y009585D01*
X005700Y009583D01*
X005724Y009585D01*
X005747Y009590D01*
X005769Y009599D01*
X005789Y009612D01*
X005807Y009627D01*
X005823Y009645D01*
X005836Y009665D01*
X005845Y009687D01*
X005851Y009710D01*
X005853Y009734D01*
X005850Y009734D01*
X005848Y009711D01*
X005842Y009688D01*
X005833Y009667D01*
X005821Y009647D01*
X005805Y009629D01*
X005788Y009614D01*
X005768Y009602D01*
X005746Y009593D01*
X005723Y009588D01*
X005700Y009586D01*
X005677Y009588D01*
X005654Y009593D01*
X005632Y009602D01*
X005612Y009614D01*
X005595Y009629D01*
X005579Y009647D01*
X005567Y009667D01*
X005558Y009688D01*
X005552Y009711D01*
X005550Y009734D01*
X005553Y009734D01*
X005555Y009711D01*
X005561Y009689D01*
X005570Y009668D01*
X005582Y009649D01*
X005597Y009631D01*
X005614Y009617D01*
X005634Y009605D01*
X005655Y009596D01*
X005677Y009591D01*
X005700Y009589D01*
X005723Y009591D01*
X005745Y009596D01*
X005766Y009605D01*
X005786Y009617D01*
X005803Y009631D01*
X005818Y009649D01*
X005830Y009668D01*
X005839Y009689D01*
X005845Y009711D01*
X005847Y009734D01*
X005844Y009734D01*
X005842Y009711D01*
X005836Y009688D01*
X005826Y009666D01*
X005813Y009647D01*
X005797Y009629D01*
X005778Y009615D01*
X005757Y009604D01*
X005735Y009596D01*
X005712Y009592D01*
X005688Y009592D01*
X005665Y009596D01*
X005643Y009604D01*
X005622Y009615D01*
X005603Y009629D01*
X005587Y009647D01*
X005574Y009666D01*
X005564Y009688D01*
X005558Y009711D01*
X005556Y009734D01*
X005559Y009734D01*
X005561Y009711D01*
X005567Y009689D01*
X005577Y009668D01*
X005589Y009648D01*
X005605Y009632D01*
X005623Y009618D01*
X005644Y009607D01*
X005666Y009599D01*
X005688Y009595D01*
X005712Y009595D01*
X005734Y009599D01*
X005756Y009607D01*
X005777Y009618D01*
X005795Y009632D01*
X005811Y009648D01*
X005823Y009668D01*
X005833Y009689D01*
X005839Y009711D01*
X005841Y009734D01*
X005838Y009734D01*
X005836Y009712D01*
X005830Y009690D01*
X005821Y009669D01*
X005808Y009650D01*
X005793Y009634D01*
X005775Y009620D01*
X005755Y009609D01*
X005734Y009602D01*
X005711Y009598D01*
X005689Y009598D01*
X005666Y009602D01*
X005645Y009609D01*
X005625Y009620D01*
X005607Y009634D01*
X005592Y009650D01*
X005579Y009669D01*
X005570Y009690D01*
X005564Y009712D01*
X005562Y009734D01*
X005565Y009734D01*
X005567Y009712D01*
X005573Y009691D01*
X005582Y009671D01*
X005594Y009652D01*
X005609Y009636D01*
X005627Y009623D01*
X005646Y009612D01*
X005667Y009605D01*
X005689Y009601D01*
X005711Y009601D01*
X005733Y009605D01*
X005754Y009612D01*
X005773Y009623D01*
X005791Y009636D01*
X005806Y009652D01*
X005818Y009671D01*
X005827Y009691D01*
X005833Y009712D01*
X005835Y009734D01*
X005832Y009734D01*
X005830Y009713D01*
X005824Y009692D01*
X005815Y009672D01*
X005803Y009654D01*
X005789Y009638D01*
X005772Y009625D01*
X005753Y009615D01*
X005732Y009608D01*
X005711Y009604D01*
X005689Y009604D01*
X005668Y009608D01*
X005647Y009615D01*
X005628Y009625D01*
X005611Y009638D01*
X005597Y009654D01*
X005585Y009672D01*
X005576Y009692D01*
X005570Y009713D01*
X005568Y009734D01*
X005571Y009734D01*
X005573Y009712D01*
X005579Y009690D01*
X005589Y009670D01*
X005602Y009652D01*
X005618Y009637D01*
X005636Y009624D01*
X005656Y009615D01*
X005678Y009609D01*
X005700Y009607D01*
X005722Y009609D01*
X005744Y009615D01*
X005764Y009624D01*
X005782Y009637D01*
X005798Y009652D01*
X005811Y009670D01*
X005821Y009690D01*
X005827Y009712D01*
X005829Y009734D01*
X005826Y009734D01*
X005824Y009712D01*
X005818Y009691D01*
X005808Y009672D01*
X005796Y009654D01*
X005780Y009639D01*
X005762Y009627D01*
X005743Y009617D01*
X005722Y009612D01*
X005700Y009610D01*
X005678Y009612D01*
X005657Y009617D01*
X005638Y009627D01*
X005620Y009639D01*
X005604Y009654D01*
X005592Y009672D01*
X005582Y009691D01*
X005576Y009712D01*
X005574Y009734D01*
X005577Y009734D01*
X005579Y009713D01*
X005585Y009692D01*
X005594Y009673D01*
X005606Y009656D01*
X005622Y009641D01*
X005639Y009629D01*
X005658Y009620D01*
X005679Y009615D01*
X005700Y009613D01*
X005721Y009615D01*
X005742Y009620D01*
X005761Y009629D01*
X005778Y009641D01*
X005794Y009656D01*
X005806Y009673D01*
X005815Y009692D01*
X005821Y009713D01*
X005823Y009734D01*
X005855Y008950D02*
X005819Y008950D01*
X005820Y008951D02*
X005818Y008972D01*
X005812Y008992D01*
X005803Y009010D01*
X005791Y009027D01*
X005776Y009041D01*
X005759Y009053D01*
X005741Y009062D01*
X005721Y009067D01*
X005700Y009069D01*
X005679Y009067D01*
X005659Y009062D01*
X005641Y009053D01*
X005624Y009041D01*
X005609Y009027D01*
X005597Y009010D01*
X005588Y008992D01*
X005582Y008972D01*
X005580Y008951D01*
X005545Y008950D01*
X005544Y008951D01*
X005546Y008975D01*
X005552Y008999D01*
X005562Y009021D01*
X005575Y009042D01*
X005590Y009060D01*
X005609Y009076D01*
X005630Y009088D01*
X005652Y009097D01*
X005676Y009103D01*
X005700Y009105D01*
X005724Y009103D01*
X005748Y009097D01*
X005770Y009088D01*
X005791Y009076D01*
X005810Y009060D01*
X005825Y009042D01*
X005838Y009021D01*
X005848Y008999D01*
X005854Y008975D01*
X005856Y008951D01*
X005853Y008951D01*
X005851Y008975D01*
X005845Y008998D01*
X005836Y009020D01*
X005823Y009040D01*
X005807Y009058D01*
X005789Y009073D01*
X005769Y009086D01*
X005747Y009095D01*
X005724Y009100D01*
X005700Y009102D01*
X005676Y009100D01*
X005653Y009095D01*
X005631Y009086D01*
X005611Y009073D01*
X005593Y009058D01*
X005577Y009040D01*
X005564Y009020D01*
X005555Y008998D01*
X005549Y008975D01*
X005547Y008951D01*
X005550Y008951D01*
X005552Y008974D01*
X005558Y008997D01*
X005567Y009018D01*
X005579Y009038D01*
X005595Y009056D01*
X005612Y009071D01*
X005632Y009083D01*
X005654Y009092D01*
X005677Y009097D01*
X005700Y009099D01*
X005723Y009097D01*
X005746Y009092D01*
X005768Y009083D01*
X005788Y009071D01*
X005805Y009056D01*
X005821Y009038D01*
X005833Y009018D01*
X005842Y008997D01*
X005848Y008974D01*
X005850Y008951D01*
X005847Y008951D01*
X005845Y008974D01*
X005839Y008996D01*
X005830Y009017D01*
X005818Y009036D01*
X005803Y009054D01*
X005786Y009068D01*
X005766Y009080D01*
X005745Y009089D01*
X005723Y009094D01*
X005700Y009096D01*
X005677Y009094D01*
X005655Y009089D01*
X005634Y009080D01*
X005614Y009068D01*
X005597Y009054D01*
X005582Y009036D01*
X005570Y009017D01*
X005561Y008996D01*
X005555Y008974D01*
X005553Y008951D01*
X005556Y008951D01*
X005558Y008974D01*
X005564Y008997D01*
X005574Y009019D01*
X005587Y009038D01*
X005603Y009056D01*
X005622Y009070D01*
X005643Y009081D01*
X005665Y009089D01*
X005688Y009093D01*
X005712Y009093D01*
X005735Y009089D01*
X005757Y009081D01*
X005778Y009070D01*
X005797Y009056D01*
X005813Y009038D01*
X005826Y009019D01*
X005836Y008997D01*
X005842Y008974D01*
X005844Y008951D01*
X005841Y008951D01*
X005839Y008974D01*
X005833Y008996D01*
X005823Y009017D01*
X005811Y009037D01*
X005795Y009053D01*
X005777Y009067D01*
X005756Y009078D01*
X005734Y009086D01*
X005712Y009090D01*
X005688Y009090D01*
X005666Y009086D01*
X005644Y009078D01*
X005623Y009067D01*
X005605Y009053D01*
X005589Y009037D01*
X005577Y009017D01*
X005567Y008996D01*
X005561Y008974D01*
X005559Y008951D01*
X005562Y008951D01*
X005564Y008973D01*
X005570Y008995D01*
X005579Y009016D01*
X005592Y009035D01*
X005607Y009051D01*
X005625Y009065D01*
X005645Y009076D01*
X005666Y009083D01*
X005689Y009087D01*
X005711Y009087D01*
X005734Y009083D01*
X005755Y009076D01*
X005775Y009065D01*
X005793Y009051D01*
X005808Y009035D01*
X005821Y009016D01*
X005830Y008995D01*
X005836Y008973D01*
X005838Y008951D01*
X005835Y008951D01*
X005833Y008973D01*
X005827Y008994D01*
X005818Y009014D01*
X005806Y009033D01*
X005791Y009049D01*
X005773Y009062D01*
X005754Y009073D01*
X005733Y009080D01*
X005711Y009084D01*
X005689Y009084D01*
X005667Y009080D01*
X005646Y009073D01*
X005627Y009062D01*
X005609Y009049D01*
X005594Y009033D01*
X005582Y009014D01*
X005573Y008994D01*
X005567Y008973D01*
X005565Y008951D01*
X005568Y008951D01*
X005570Y008972D01*
X005576Y008993D01*
X005585Y009013D01*
X005597Y009031D01*
X005611Y009047D01*
X005628Y009060D01*
X005647Y009070D01*
X005668Y009077D01*
X005689Y009081D01*
X005711Y009081D01*
X005732Y009077D01*
X005753Y009070D01*
X005772Y009060D01*
X005789Y009047D01*
X005803Y009031D01*
X005815Y009013D01*
X005824Y008993D01*
X005830Y008972D01*
X005832Y008951D01*
X005829Y008951D01*
X005827Y008973D01*
X005821Y008995D01*
X005811Y009015D01*
X005798Y009033D01*
X005782Y009048D01*
X005764Y009061D01*
X005744Y009070D01*
X005722Y009076D01*
X005700Y009078D01*
X005678Y009076D01*
X005656Y009070D01*
X005636Y009061D01*
X005618Y009048D01*
X005602Y009033D01*
X005589Y009015D01*
X005579Y008995D01*
X005573Y008973D01*
X005571Y008951D01*
X005574Y008951D01*
X005576Y008973D01*
X005582Y008994D01*
X005592Y009013D01*
X005604Y009031D01*
X005620Y009046D01*
X005638Y009058D01*
X005657Y009068D01*
X005678Y009073D01*
X005700Y009075D01*
X005722Y009073D01*
X005743Y009068D01*
X005762Y009058D01*
X005780Y009046D01*
X005796Y009031D01*
X005808Y009013D01*
X005818Y008994D01*
X005824Y008973D01*
X005826Y008951D01*
X005823Y008951D01*
X005821Y008972D01*
X005815Y008993D01*
X005806Y009012D01*
X005794Y009029D01*
X005778Y009044D01*
X005761Y009056D01*
X005742Y009065D01*
X005721Y009070D01*
X005700Y009072D01*
X005679Y009070D01*
X005658Y009065D01*
X005639Y009056D01*
X005622Y009044D01*
X005606Y009029D01*
X005594Y009012D01*
X005585Y008993D01*
X005579Y008972D01*
X005577Y008951D01*
X005545Y008035D02*
X005581Y008035D01*
X005580Y008034D02*
X005582Y008013D01*
X005588Y007993D01*
X005597Y007975D01*
X005609Y007958D01*
X005624Y007944D01*
X005641Y007932D01*
X005659Y007923D01*
X005679Y007918D01*
X005700Y007916D01*
X005721Y007918D01*
X005741Y007923D01*
X005759Y007932D01*
X005776Y007944D01*
X005791Y007958D01*
X005803Y007975D01*
X005812Y007993D01*
X005818Y008013D01*
X005820Y008034D01*
X005855Y008035D01*
X005856Y008034D01*
X005854Y008010D01*
X005848Y007986D01*
X005838Y007964D01*
X005825Y007943D01*
X005810Y007925D01*
X005791Y007909D01*
X005770Y007897D01*
X005748Y007888D01*
X005724Y007882D01*
X005700Y007880D01*
X005676Y007882D01*
X005652Y007888D01*
X005630Y007897D01*
X005609Y007909D01*
X005590Y007925D01*
X005575Y007943D01*
X005562Y007964D01*
X005552Y007986D01*
X005546Y008010D01*
X005544Y008034D01*
X005547Y008034D01*
X005549Y008010D01*
X005555Y007987D01*
X005564Y007965D01*
X005577Y007945D01*
X005593Y007927D01*
X005611Y007912D01*
X005631Y007899D01*
X005653Y007890D01*
X005676Y007885D01*
X005700Y007883D01*
X005724Y007885D01*
X005747Y007890D01*
X005769Y007899D01*
X005789Y007912D01*
X005807Y007927D01*
X005823Y007945D01*
X005836Y007965D01*
X005845Y007987D01*
X005851Y008010D01*
X005853Y008034D01*
X005850Y008034D01*
X005848Y008011D01*
X005842Y007988D01*
X005833Y007967D01*
X005821Y007947D01*
X005805Y007929D01*
X005788Y007914D01*
X005768Y007902D01*
X005746Y007893D01*
X005723Y007888D01*
X005700Y007886D01*
X005677Y007888D01*
X005654Y007893D01*
X005632Y007902D01*
X005612Y007914D01*
X005595Y007929D01*
X005579Y007947D01*
X005567Y007967D01*
X005558Y007988D01*
X005552Y008011D01*
X005550Y008034D01*
X005553Y008034D01*
X005555Y008011D01*
X005561Y007989D01*
X005570Y007968D01*
X005582Y007949D01*
X005597Y007931D01*
X005614Y007917D01*
X005634Y007905D01*
X005655Y007896D01*
X005677Y007891D01*
X005700Y007889D01*
X005723Y007891D01*
X005745Y007896D01*
X005766Y007905D01*
X005786Y007917D01*
X005803Y007931D01*
X005818Y007949D01*
X005830Y007968D01*
X005839Y007989D01*
X005845Y008011D01*
X005847Y008034D01*
X005844Y008034D01*
X005842Y008011D01*
X005836Y007988D01*
X005826Y007966D01*
X005813Y007947D01*
X005797Y007929D01*
X005778Y007915D01*
X005757Y007904D01*
X005735Y007896D01*
X005712Y007892D01*
X005688Y007892D01*
X005665Y007896D01*
X005643Y007904D01*
X005622Y007915D01*
X005603Y007929D01*
X005587Y007947D01*
X005574Y007966D01*
X005564Y007988D01*
X005558Y008011D01*
X005556Y008034D01*
X005559Y008034D01*
X005561Y008011D01*
X005567Y007989D01*
X005577Y007968D01*
X005589Y007948D01*
X005605Y007932D01*
X005623Y007918D01*
X005644Y007907D01*
X005666Y007899D01*
X005688Y007895D01*
X005712Y007895D01*
X005734Y007899D01*
X005756Y007907D01*
X005777Y007918D01*
X005795Y007932D01*
X005811Y007948D01*
X005823Y007968D01*
X005833Y007989D01*
X005839Y008011D01*
X005841Y008034D01*
X005838Y008034D01*
X005836Y008012D01*
X005830Y007990D01*
X005821Y007969D01*
X005808Y007950D01*
X005793Y007934D01*
X005775Y007920D01*
X005755Y007909D01*
X005734Y007902D01*
X005711Y007898D01*
X005689Y007898D01*
X005666Y007902D01*
X005645Y007909D01*
X005625Y007920D01*
X005607Y007934D01*
X005592Y007950D01*
X005579Y007969D01*
X005570Y007990D01*
X005564Y008012D01*
X005562Y008034D01*
X005565Y008034D01*
X005567Y008012D01*
X005573Y007991D01*
X005582Y007971D01*
X005594Y007952D01*
X005609Y007936D01*
X005627Y007923D01*
X005646Y007912D01*
X005667Y007905D01*
X005689Y007901D01*
X005711Y007901D01*
X005733Y007905D01*
X005754Y007912D01*
X005773Y007923D01*
X005791Y007936D01*
X005806Y007952D01*
X005818Y007971D01*
X005827Y007991D01*
X005833Y008012D01*
X005835Y008034D01*
X005832Y008034D01*
X005830Y008013D01*
X005824Y007992D01*
X005815Y007972D01*
X005803Y007954D01*
X005789Y007938D01*
X005772Y007925D01*
X005753Y007915D01*
X005732Y007908D01*
X005711Y007904D01*
X005689Y007904D01*
X005668Y007908D01*
X005647Y007915D01*
X005628Y007925D01*
X005611Y007938D01*
X005597Y007954D01*
X005585Y007972D01*
X005576Y007992D01*
X005570Y008013D01*
X005568Y008034D01*
X005571Y008034D01*
X005573Y008012D01*
X005579Y007990D01*
X005589Y007970D01*
X005602Y007952D01*
X005618Y007937D01*
X005636Y007924D01*
X005656Y007915D01*
X005678Y007909D01*
X005700Y007907D01*
X005722Y007909D01*
X005744Y007915D01*
X005764Y007924D01*
X005782Y007937D01*
X005798Y007952D01*
X005811Y007970D01*
X005821Y007990D01*
X005827Y008012D01*
X005829Y008034D01*
X005826Y008034D01*
X005824Y008012D01*
X005818Y007991D01*
X005808Y007972D01*
X005796Y007954D01*
X005780Y007939D01*
X005762Y007927D01*
X005743Y007917D01*
X005722Y007912D01*
X005700Y007910D01*
X005678Y007912D01*
X005657Y007917D01*
X005638Y007927D01*
X005620Y007939D01*
X005604Y007954D01*
X005592Y007972D01*
X005582Y007991D01*
X005576Y008012D01*
X005574Y008034D01*
X005577Y008034D01*
X005579Y008013D01*
X005585Y007992D01*
X005594Y007973D01*
X005606Y007956D01*
X005622Y007941D01*
X005639Y007929D01*
X005658Y007920D01*
X005679Y007915D01*
X005700Y007913D01*
X005721Y007915D01*
X005742Y007920D01*
X005761Y007929D01*
X005778Y007941D01*
X005794Y007956D01*
X005806Y007973D01*
X005815Y007992D01*
X005821Y008013D01*
X005823Y008034D01*
X005855Y007250D02*
X005819Y007250D01*
X005820Y007251D02*
X005818Y007272D01*
X005812Y007292D01*
X005803Y007310D01*
X005791Y007327D01*
X005776Y007341D01*
X005759Y007353D01*
X005741Y007362D01*
X005721Y007367D01*
X005700Y007369D01*
X005679Y007367D01*
X005659Y007362D01*
X005641Y007353D01*
X005624Y007341D01*
X005609Y007327D01*
X005597Y007310D01*
X005588Y007292D01*
X005582Y007272D01*
X005580Y007251D01*
X005545Y007250D01*
X005544Y007251D01*
X005546Y007275D01*
X005552Y007299D01*
X005562Y007321D01*
X005575Y007342D01*
X005590Y007360D01*
X005609Y007376D01*
X005630Y007388D01*
X005652Y007397D01*
X005676Y007403D01*
X005700Y007405D01*
X005724Y007403D01*
X005748Y007397D01*
X005770Y007388D01*
X005791Y007376D01*
X005810Y007360D01*
X005825Y007342D01*
X005838Y007321D01*
X005848Y007299D01*
X005854Y007275D01*
X005856Y007251D01*
X005853Y007251D01*
X005851Y007275D01*
X005845Y007298D01*
X005836Y007320D01*
X005823Y007340D01*
X005807Y007358D01*
X005789Y007373D01*
X005769Y007386D01*
X005747Y007395D01*
X005724Y007400D01*
X005700Y007402D01*
X005676Y007400D01*
X005653Y007395D01*
X005631Y007386D01*
X005611Y007373D01*
X005593Y007358D01*
X005577Y007340D01*
X005564Y007320D01*
X005555Y007298D01*
X005549Y007275D01*
X005547Y007251D01*
X005550Y007251D01*
X005552Y007274D01*
X005558Y007297D01*
X005567Y007318D01*
X005579Y007338D01*
X005595Y007356D01*
X005612Y007371D01*
X005632Y007383D01*
X005654Y007392D01*
X005677Y007397D01*
X005700Y007399D01*
X005723Y007397D01*
X005746Y007392D01*
X005768Y007383D01*
X005788Y007371D01*
X005805Y007356D01*
X005821Y007338D01*
X005833Y007318D01*
X005842Y007297D01*
X005848Y007274D01*
X005850Y007251D01*
X005847Y007251D01*
X005845Y007274D01*
X005839Y007296D01*
X005830Y007317D01*
X005818Y007336D01*
X005803Y007354D01*
X005786Y007368D01*
X005766Y007380D01*
X005745Y007389D01*
X005723Y007394D01*
X005700Y007396D01*
X005677Y007394D01*
X005655Y007389D01*
X005634Y007380D01*
X005614Y007368D01*
X005597Y007354D01*
X005582Y007336D01*
X005570Y007317D01*
X005561Y007296D01*
X005555Y007274D01*
X005553Y007251D01*
X005556Y007251D01*
X005558Y007274D01*
X005564Y007297D01*
X005574Y007319D01*
X005587Y007338D01*
X005603Y007356D01*
X005622Y007370D01*
X005643Y007381D01*
X005665Y007389D01*
X005688Y007393D01*
X005712Y007393D01*
X005735Y007389D01*
X005757Y007381D01*
X005778Y007370D01*
X005797Y007356D01*
X005813Y007338D01*
X005826Y007319D01*
X005836Y007297D01*
X005842Y007274D01*
X005844Y007251D01*
X005841Y007251D01*
X005839Y007274D01*
X005833Y007296D01*
X005823Y007317D01*
X005811Y007337D01*
X005795Y007353D01*
X005777Y007367D01*
X005756Y007378D01*
X005734Y007386D01*
X005712Y007390D01*
X005688Y007390D01*
X005666Y007386D01*
X005644Y007378D01*
X005623Y007367D01*
X005605Y007353D01*
X005589Y007337D01*
X005577Y007317D01*
X005567Y007296D01*
X005561Y007274D01*
X005559Y007251D01*
X005562Y007251D01*
X005564Y007273D01*
X005570Y007295D01*
X005579Y007316D01*
X005592Y007335D01*
X005607Y007351D01*
X005625Y007365D01*
X005645Y007376D01*
X005666Y007383D01*
X005689Y007387D01*
X005711Y007387D01*
X005734Y007383D01*
X005755Y007376D01*
X005775Y007365D01*
X005793Y007351D01*
X005808Y007335D01*
X005821Y007316D01*
X005830Y007295D01*
X005836Y007273D01*
X005838Y007251D01*
X005835Y007251D01*
X005833Y007273D01*
X005827Y007294D01*
X005818Y007314D01*
X005806Y007333D01*
X005791Y007349D01*
X005773Y007362D01*
X005754Y007373D01*
X005733Y007380D01*
X005711Y007384D01*
X005689Y007384D01*
X005667Y007380D01*
X005646Y007373D01*
X005627Y007362D01*
X005609Y007349D01*
X005594Y007333D01*
X005582Y007314D01*
X005573Y007294D01*
X005567Y007273D01*
X005565Y007251D01*
X005568Y007251D01*
X005570Y007272D01*
X005576Y007293D01*
X005585Y007313D01*
X005597Y007331D01*
X005611Y007347D01*
X005628Y007360D01*
X005647Y007370D01*
X005668Y007377D01*
X005689Y007381D01*
X005711Y007381D01*
X005732Y007377D01*
X005753Y007370D01*
X005772Y007360D01*
X005789Y007347D01*
X005803Y007331D01*
X005815Y007313D01*
X005824Y007293D01*
X005830Y007272D01*
X005832Y007251D01*
X005829Y007251D01*
X005827Y007273D01*
X005821Y007295D01*
X005811Y007315D01*
X005798Y007333D01*
X005782Y007348D01*
X005764Y007361D01*
X005744Y007370D01*
X005722Y007376D01*
X005700Y007378D01*
X005678Y007376D01*
X005656Y007370D01*
X005636Y007361D01*
X005618Y007348D01*
X005602Y007333D01*
X005589Y007315D01*
X005579Y007295D01*
X005573Y007273D01*
X005571Y007251D01*
X005574Y007251D01*
X005576Y007273D01*
X005582Y007294D01*
X005592Y007313D01*
X005604Y007331D01*
X005620Y007346D01*
X005638Y007358D01*
X005657Y007368D01*
X005678Y007373D01*
X005700Y007375D01*
X005722Y007373D01*
X005743Y007368D01*
X005762Y007358D01*
X005780Y007346D01*
X005796Y007331D01*
X005808Y007313D01*
X005818Y007294D01*
X005824Y007273D01*
X005826Y007251D01*
X005823Y007251D01*
X005821Y007272D01*
X005815Y007293D01*
X005806Y007312D01*
X005794Y007329D01*
X005778Y007344D01*
X005761Y007356D01*
X005742Y007365D01*
X005721Y007370D01*
X005700Y007372D01*
X005679Y007370D01*
X005658Y007365D01*
X005639Y007356D01*
X005622Y007344D01*
X005606Y007329D01*
X005594Y007312D01*
X005585Y007293D01*
X005579Y007272D01*
X005577Y007251D01*
D17*
X005518Y007347D03*
X005518Y007938D03*
X005882Y007938D03*
X005882Y009047D03*
X005518Y009047D03*
X005882Y009638D03*
D18*
X005798Y009589D03*
X005602Y009589D03*
X005602Y009096D03*
X005798Y009096D03*
X005798Y007889D03*
X005602Y007889D03*
X005602Y007396D03*
X005798Y007396D03*
D19*
X005700Y007411D03*
X005700Y007874D03*
X005700Y009111D03*
X005700Y009574D03*
D20*
X005700Y009382D03*
X005700Y007603D03*
D21*
X005877Y007387D03*
X005523Y009598D03*
D22*
X005498Y009721D03*
X005902Y007264D03*
D23*
X003138Y007445D03*
X002678Y007445D03*
X002672Y008341D03*
X003132Y008341D03*
X005272Y010941D03*
X005732Y010941D03*
X005732Y011791D03*
X005272Y011791D03*
X005272Y012641D03*
X005732Y012641D03*
D24*
X002900Y008343D03*
X002910Y007443D03*
D25*
X004300Y007443D03*
X004300Y008443D03*
X004300Y009443D03*
X001300Y009443D03*
X001300Y010443D03*
X001300Y011443D03*
X001300Y012443D03*
X001300Y008443D03*
X001300Y007443D03*
D26*
X000605Y007401D02*
X000315Y007401D01*
X000412Y007304D01*
X000315Y007207D01*
X000605Y007207D01*
X000557Y007106D02*
X000605Y007058D01*
X000605Y006961D01*
X000557Y006912D01*
X000460Y006961D02*
X000460Y007058D01*
X000508Y007106D01*
X000557Y007106D01*
X000460Y006961D02*
X000412Y006912D01*
X000363Y006912D01*
X000315Y006961D01*
X000315Y007058D01*
X000363Y007106D01*
X000315Y007502D02*
X000315Y007599D01*
X000315Y007550D02*
X000605Y007550D01*
X000605Y007502D02*
X000605Y007599D01*
X000605Y007698D02*
X000315Y007698D01*
X000315Y007843D01*
X000363Y007892D01*
X000460Y007892D01*
X000508Y007843D01*
X000508Y007698D01*
X000508Y007795D02*
X000605Y007892D01*
X000605Y007993D02*
X000315Y007993D01*
X000315Y008186D01*
X000460Y008090D02*
X000460Y007993D01*
X006515Y007988D02*
X006515Y008084D01*
X006563Y008133D01*
X006660Y008133D02*
X006708Y008036D01*
X006708Y007988D01*
X006660Y007939D01*
X006563Y007939D01*
X006515Y007988D01*
X006660Y008133D02*
X006805Y008133D01*
X006805Y007939D01*
X006515Y008234D02*
X006515Y008428D01*
X006515Y008331D02*
X006805Y008331D01*
X006708Y008428D01*
X006660Y011564D02*
X006660Y011758D01*
X006805Y011613D01*
X006515Y011613D01*
X006515Y011859D02*
X006515Y012053D01*
X006515Y011956D02*
X006805Y011956D01*
X006708Y012053D01*
X014190Y012053D02*
X014190Y011859D01*
X014190Y011956D02*
X014480Y011956D01*
X014383Y012053D01*
X014432Y008428D02*
X014480Y008379D01*
X014480Y008282D01*
X014432Y008234D01*
X014383Y008234D01*
X014190Y008428D01*
X014190Y008234D01*
X014238Y008133D02*
X014287Y008133D01*
X014335Y008084D01*
X014335Y007988D01*
X014287Y007939D01*
X014238Y007939D01*
X014190Y007988D01*
X014190Y008084D01*
X014238Y008133D01*
X014335Y008084D02*
X014383Y008133D01*
X014432Y008133D01*
X014480Y008084D01*
X014480Y007988D01*
X014432Y007939D01*
X014383Y007939D01*
X014335Y007988D01*
D27*
X005500Y010931D02*
X005500Y010955D01*
X005500Y011781D02*
X005500Y011805D01*
D28*
X004268Y012606D03*
X004012Y012606D03*
X003756Y012606D03*
X003500Y012606D03*
X003244Y012606D03*
X002988Y012606D03*
X002732Y012606D03*
X002732Y010479D03*
X002988Y010479D03*
X003244Y010479D03*
X003500Y010479D03*
X003756Y010479D03*
X004012Y010479D03*
X004268Y010479D03*
D29*
X019206Y008368D03*
M02*
