%
M48
M72
T01C0.0130
T02C0.0400
%
T01
X5240Y7203
X6440Y8043
X6140Y8283
X6140Y8703
X7040Y8943
X7040Y9783
X6740Y10323
X5120Y10203
X4760Y9843
X3620Y9843
X2480Y9483
X1640Y9903
X2900Y8763
X2780Y7863
X3620Y7803
X4760Y9003
X5240Y9063
X7015Y7888
X7640Y7923
X8600Y9483
X11120Y11163
X11060Y12003
X9320Y11763
X8480Y11883
X11420Y10023
X12080Y10323
X17600Y10343
X17600Y9943
X17600Y9543
X17600Y9143
X17600Y8743
X17600Y8343
X17600Y7943
X17600Y7543
X17600Y7143
X17600Y10743
X17600Y11143
X17600Y11543
X17600Y11943
X17600Y12343
X17600Y12743
X4520Y12363
X3860Y11883
X3500Y11763
X3740Y11403
X3740Y10803
X3260Y10803
X2780Y11283
X3080Y12243
T02
X1300Y12443
X1300Y11443
X1300Y10443
X1300Y9443
X1300Y8443
X1300Y7443
X4300Y7443
X4300Y8443
X4300Y9443
M30
