G75*
%MOIN*%
%OFA0B0*%
%FSLAX24Y24*%
%IPPOS*%
%LPD*%
%AMOC8*
5,1,8,0,0,1.08239X$1,22.5*
%
%ADD10R,0.0552X0.0297*%
%ADD11R,0.0552X0.0552*%
%ADD12R,0.0513X0.0474*%
%ADD13R,0.0434X0.0474*%
%ADD14R,0.0749X0.0395*%
%ADD15R,0.0200X0.0470*%
%ADD16OC8,0.0780*%
%ADD17OC8,0.0820*%
%ADD18C,0.0095*%
%ADD19R,0.0474X0.0513*%
%ADD20C,0.0820*%
D10*
X002665Y005026D03*
X003688Y005400D03*
X002665Y005774D03*
D11*
X004713Y004200D03*
X005540Y004200D03*
X005540Y003400D03*
X004713Y003400D03*
X006727Y005087D03*
X006727Y005913D03*
D12*
X005761Y006900D03*
X005092Y006900D03*
X005092Y007750D03*
X005761Y007750D03*
X005761Y008600D03*
X005092Y008600D03*
X003561Y004200D03*
X002892Y004200D03*
X002892Y003400D03*
X003561Y003400D03*
D13*
X004220Y005085D03*
X004220Y005715D03*
X005834Y005715D03*
X005834Y005085D03*
D14*
X005027Y004928D03*
D15*
X004294Y006351D03*
X004038Y006351D03*
X003783Y006351D03*
X003527Y006351D03*
X003271Y006351D03*
X003015Y006351D03*
X002759Y006351D03*
X002759Y008649D03*
X003015Y008649D03*
X003271Y008649D03*
X003527Y008649D03*
X003783Y008649D03*
X004038Y008649D03*
X004294Y008649D03*
D16*
X001227Y001400D03*
X002227Y001400D03*
X003227Y001400D03*
X004227Y001400D03*
X005227Y001400D03*
X006227Y001400D03*
X007227Y001400D03*
X008227Y001400D03*
X009227Y001400D03*
X010227Y001400D03*
X011227Y001400D03*
X012227Y001400D03*
X013227Y001400D03*
X014227Y001400D03*
X015227Y001400D03*
X016227Y001400D03*
X017227Y001400D03*
X018227Y001400D03*
X019227Y001400D03*
X020227Y001400D03*
X021227Y001400D03*
X021227Y010400D03*
X020227Y010400D03*
X019227Y010400D03*
X018227Y010400D03*
X017227Y010400D03*
X016227Y010400D03*
X015227Y010400D03*
X014227Y010400D03*
X013227Y010400D03*
X012227Y010400D03*
X011227Y010400D03*
X010227Y010400D03*
X009227Y010400D03*
X008227Y010400D03*
X007227Y010400D03*
X006227Y010400D03*
X005227Y010400D03*
X004227Y010400D03*
X003227Y010400D03*
X002227Y010400D03*
X001227Y010400D03*
X001227Y008400D03*
X001227Y007400D03*
X001227Y006400D03*
X001227Y005400D03*
X001227Y004400D03*
X001227Y003400D03*
D17*
X008727Y006900D03*
X009727Y006900D03*
X010727Y006900D03*
X010727Y007900D03*
X009727Y007900D03*
X008727Y007900D03*
D18*
X012688Y008151D02*
X012688Y008373D01*
X012688Y008151D02*
X012034Y008151D01*
X012034Y008373D01*
X012688Y008373D01*
X012688Y008245D02*
X012034Y008245D01*
X012034Y008339D02*
X012688Y008339D01*
X012806Y007980D02*
X012806Y007758D01*
X012034Y007758D01*
X012034Y007980D01*
X012806Y007980D01*
X012806Y007852D02*
X012034Y007852D01*
X012034Y007946D02*
X012806Y007946D01*
X012806Y007586D02*
X012806Y007364D01*
X012034Y007364D01*
X012034Y007586D01*
X012806Y007586D01*
X012806Y007458D02*
X012034Y007458D01*
X012034Y007552D02*
X012806Y007552D01*
X012806Y007192D02*
X012806Y006970D01*
X012034Y006970D01*
X012034Y007192D01*
X012806Y007192D01*
X012806Y007064D02*
X012034Y007064D01*
X012034Y007158D02*
X012806Y007158D01*
X012806Y006798D02*
X012806Y006576D01*
X012034Y006576D01*
X012034Y006798D01*
X012806Y006798D01*
X012806Y006670D02*
X012034Y006670D01*
X012034Y006764D02*
X012806Y006764D01*
X012806Y006405D02*
X012806Y006183D01*
X012034Y006183D01*
X012034Y006405D01*
X012806Y006405D01*
X012806Y006277D02*
X012034Y006277D01*
X012034Y006371D02*
X012806Y006371D01*
X012806Y006011D02*
X012806Y005789D01*
X012034Y005789D01*
X012034Y006011D01*
X012806Y006011D01*
X012806Y005883D02*
X012034Y005883D01*
X012034Y005977D02*
X012806Y005977D01*
X012806Y005617D02*
X012806Y005395D01*
X012034Y005395D01*
X012034Y005617D01*
X012806Y005617D01*
X012806Y005489D02*
X012034Y005489D01*
X012034Y005583D02*
X012806Y005583D01*
X012806Y005224D02*
X012806Y005002D01*
X012034Y005002D01*
X012034Y005224D01*
X012806Y005224D01*
X012806Y005096D02*
X012034Y005096D01*
X012034Y005190D02*
X012806Y005190D01*
X012806Y004830D02*
X012806Y004608D01*
X012034Y004608D01*
X012034Y004830D01*
X012806Y004830D01*
X012806Y004702D02*
X012034Y004702D01*
X012034Y004796D02*
X012806Y004796D01*
X012806Y004436D02*
X012806Y004214D01*
X012034Y004214D01*
X012034Y004436D01*
X012806Y004436D01*
X012806Y004308D02*
X012034Y004308D01*
X012034Y004402D02*
X012806Y004402D01*
X012806Y004042D02*
X012806Y003820D01*
X012034Y003820D01*
X012034Y004042D01*
X012806Y004042D01*
X012806Y003914D02*
X012034Y003914D01*
X012034Y004008D02*
X012806Y004008D01*
X012688Y003649D02*
X012688Y003427D01*
X012034Y003427D01*
X012034Y003649D01*
X012688Y003649D01*
X012688Y003521D02*
X012034Y003521D01*
X012034Y003615D02*
X012688Y003615D01*
X012979Y002482D02*
X013201Y002482D01*
X012979Y002482D02*
X012979Y003136D01*
X013201Y003136D01*
X013201Y002482D01*
X013201Y002576D02*
X012979Y002576D01*
X012979Y002670D02*
X013201Y002670D01*
X013201Y002764D02*
X012979Y002764D01*
X012979Y002858D02*
X013201Y002858D01*
X013201Y002952D02*
X012979Y002952D01*
X012979Y003046D02*
X013201Y003046D01*
X013372Y002483D02*
X013594Y002483D01*
X013372Y002483D02*
X013372Y003255D01*
X013594Y003255D01*
X013594Y002483D01*
X013594Y002577D02*
X013372Y002577D01*
X013372Y002671D02*
X013594Y002671D01*
X013594Y002765D02*
X013372Y002765D01*
X013372Y002859D02*
X013594Y002859D01*
X013594Y002953D02*
X013372Y002953D01*
X013372Y003047D02*
X013594Y003047D01*
X013594Y003141D02*
X013372Y003141D01*
X013372Y003235D02*
X013594Y003235D01*
X013766Y002483D02*
X013988Y002483D01*
X013766Y002483D02*
X013766Y003255D01*
X013988Y003255D01*
X013988Y002483D01*
X013988Y002577D02*
X013766Y002577D01*
X013766Y002671D02*
X013988Y002671D01*
X013988Y002765D02*
X013766Y002765D01*
X013766Y002859D02*
X013988Y002859D01*
X013988Y002953D02*
X013766Y002953D01*
X013766Y003047D02*
X013988Y003047D01*
X013988Y003141D02*
X013766Y003141D01*
X013766Y003235D02*
X013988Y003235D01*
X014160Y002483D02*
X014382Y002483D01*
X014160Y002483D02*
X014160Y003255D01*
X014382Y003255D01*
X014382Y002483D01*
X014382Y002577D02*
X014160Y002577D01*
X014160Y002671D02*
X014382Y002671D01*
X014382Y002765D02*
X014160Y002765D01*
X014160Y002859D02*
X014382Y002859D01*
X014382Y002953D02*
X014160Y002953D01*
X014160Y003047D02*
X014382Y003047D01*
X014382Y003141D02*
X014160Y003141D01*
X014160Y003235D02*
X014382Y003235D01*
X014553Y002483D02*
X014775Y002483D01*
X014553Y002483D02*
X014553Y003255D01*
X014775Y003255D01*
X014775Y002483D01*
X014775Y002577D02*
X014553Y002577D01*
X014553Y002671D02*
X014775Y002671D01*
X014775Y002765D02*
X014553Y002765D01*
X014553Y002859D02*
X014775Y002859D01*
X014775Y002953D02*
X014553Y002953D01*
X014553Y003047D02*
X014775Y003047D01*
X014775Y003141D02*
X014553Y003141D01*
X014553Y003235D02*
X014775Y003235D01*
X014947Y002483D02*
X015169Y002483D01*
X014947Y002483D02*
X014947Y003255D01*
X015169Y003255D01*
X015169Y002483D01*
X015169Y002577D02*
X014947Y002577D01*
X014947Y002671D02*
X015169Y002671D01*
X015169Y002765D02*
X014947Y002765D01*
X014947Y002859D02*
X015169Y002859D01*
X015169Y002953D02*
X014947Y002953D01*
X014947Y003047D02*
X015169Y003047D01*
X015169Y003141D02*
X014947Y003141D01*
X014947Y003235D02*
X015169Y003235D01*
X015341Y002483D02*
X015563Y002483D01*
X015341Y002483D02*
X015341Y003255D01*
X015563Y003255D01*
X015563Y002483D01*
X015563Y002577D02*
X015341Y002577D01*
X015341Y002671D02*
X015563Y002671D01*
X015563Y002765D02*
X015341Y002765D01*
X015341Y002859D02*
X015563Y002859D01*
X015563Y002953D02*
X015341Y002953D01*
X015341Y003047D02*
X015563Y003047D01*
X015563Y003141D02*
X015341Y003141D01*
X015341Y003235D02*
X015563Y003235D01*
X015735Y002483D02*
X015957Y002483D01*
X015735Y002483D02*
X015735Y003255D01*
X015957Y003255D01*
X015957Y002483D01*
X015957Y002577D02*
X015735Y002577D01*
X015735Y002671D02*
X015957Y002671D01*
X015957Y002765D02*
X015735Y002765D01*
X015735Y002859D02*
X015957Y002859D01*
X015957Y002953D02*
X015735Y002953D01*
X015735Y003047D02*
X015957Y003047D01*
X015957Y003141D02*
X015735Y003141D01*
X015735Y003235D02*
X015957Y003235D01*
X016128Y002483D02*
X016350Y002483D01*
X016128Y002483D02*
X016128Y003255D01*
X016350Y003255D01*
X016350Y002483D01*
X016350Y002577D02*
X016128Y002577D01*
X016128Y002671D02*
X016350Y002671D01*
X016350Y002765D02*
X016128Y002765D01*
X016128Y002859D02*
X016350Y002859D01*
X016350Y002953D02*
X016128Y002953D01*
X016128Y003047D02*
X016350Y003047D01*
X016350Y003141D02*
X016128Y003141D01*
X016128Y003235D02*
X016350Y003235D01*
X016522Y002483D02*
X016744Y002483D01*
X016522Y002483D02*
X016522Y003255D01*
X016744Y003255D01*
X016744Y002483D01*
X016744Y002577D02*
X016522Y002577D01*
X016522Y002671D02*
X016744Y002671D01*
X016744Y002765D02*
X016522Y002765D01*
X016522Y002859D02*
X016744Y002859D01*
X016744Y002953D02*
X016522Y002953D01*
X016522Y003047D02*
X016744Y003047D01*
X016744Y003141D02*
X016522Y003141D01*
X016522Y003235D02*
X016744Y003235D01*
X016916Y002483D02*
X017138Y002483D01*
X016916Y002483D02*
X016916Y003255D01*
X017138Y003255D01*
X017138Y002483D01*
X017138Y002577D02*
X016916Y002577D01*
X016916Y002671D02*
X017138Y002671D01*
X017138Y002765D02*
X016916Y002765D01*
X016916Y002859D02*
X017138Y002859D01*
X017138Y002953D02*
X016916Y002953D01*
X016916Y003047D02*
X017138Y003047D01*
X017138Y003141D02*
X016916Y003141D01*
X016916Y003235D02*
X017138Y003235D01*
X017309Y002483D02*
X017531Y002483D01*
X017309Y002483D02*
X017309Y003255D01*
X017531Y003255D01*
X017531Y002483D01*
X017531Y002577D02*
X017309Y002577D01*
X017309Y002671D02*
X017531Y002671D01*
X017531Y002765D02*
X017309Y002765D01*
X017309Y002859D02*
X017531Y002859D01*
X017531Y002953D02*
X017309Y002953D01*
X017309Y003047D02*
X017531Y003047D01*
X017531Y003141D02*
X017309Y003141D01*
X017309Y003235D02*
X017531Y003235D01*
X017703Y002483D02*
X017925Y002483D01*
X017703Y002483D02*
X017703Y003255D01*
X017925Y003255D01*
X017925Y002483D01*
X017925Y002577D02*
X017703Y002577D01*
X017703Y002671D02*
X017925Y002671D01*
X017925Y002765D02*
X017703Y002765D01*
X017703Y002859D02*
X017925Y002859D01*
X017925Y002953D02*
X017703Y002953D01*
X017703Y003047D02*
X017925Y003047D01*
X017925Y003141D02*
X017703Y003141D01*
X017703Y003235D02*
X017925Y003235D01*
X018097Y002483D02*
X018319Y002483D01*
X018097Y002483D02*
X018097Y003255D01*
X018319Y003255D01*
X018319Y002483D01*
X018319Y002577D02*
X018097Y002577D01*
X018097Y002671D02*
X018319Y002671D01*
X018319Y002765D02*
X018097Y002765D01*
X018097Y002859D02*
X018319Y002859D01*
X018319Y002953D02*
X018097Y002953D01*
X018097Y003047D02*
X018319Y003047D01*
X018319Y003141D02*
X018097Y003141D01*
X018097Y003235D02*
X018319Y003235D01*
X018490Y002483D02*
X018712Y002483D01*
X018490Y002483D02*
X018490Y003255D01*
X018712Y003255D01*
X018712Y002483D01*
X018712Y002577D02*
X018490Y002577D01*
X018490Y002671D02*
X018712Y002671D01*
X018712Y002765D02*
X018490Y002765D01*
X018490Y002859D02*
X018712Y002859D01*
X018712Y002953D02*
X018490Y002953D01*
X018490Y003047D02*
X018712Y003047D01*
X018712Y003141D02*
X018490Y003141D01*
X018490Y003235D02*
X018712Y003235D01*
X018884Y002483D02*
X019106Y002483D01*
X018884Y002483D02*
X018884Y003255D01*
X019106Y003255D01*
X019106Y002483D01*
X019106Y002577D02*
X018884Y002577D01*
X018884Y002671D02*
X019106Y002671D01*
X019106Y002765D02*
X018884Y002765D01*
X018884Y002859D02*
X019106Y002859D01*
X019106Y002953D02*
X018884Y002953D01*
X018884Y003047D02*
X019106Y003047D01*
X019106Y003141D02*
X018884Y003141D01*
X018884Y003235D02*
X019106Y003235D01*
X019278Y002483D02*
X019500Y002483D01*
X019278Y002483D02*
X019278Y003255D01*
X019500Y003255D01*
X019500Y002483D01*
X019500Y002577D02*
X019278Y002577D01*
X019278Y002671D02*
X019500Y002671D01*
X019500Y002765D02*
X019278Y002765D01*
X019278Y002859D02*
X019500Y002859D01*
X019500Y002953D02*
X019278Y002953D01*
X019278Y003047D02*
X019500Y003047D01*
X019500Y003141D02*
X019278Y003141D01*
X019278Y003235D02*
X019500Y003235D01*
X019672Y002483D02*
X019894Y002483D01*
X019672Y002483D02*
X019672Y003255D01*
X019894Y003255D01*
X019894Y002483D01*
X019894Y002577D02*
X019672Y002577D01*
X019672Y002671D02*
X019894Y002671D01*
X019894Y002765D02*
X019672Y002765D01*
X019672Y002859D02*
X019894Y002859D01*
X019894Y002953D02*
X019672Y002953D01*
X019672Y003047D02*
X019894Y003047D01*
X019894Y003141D02*
X019672Y003141D01*
X019672Y003235D02*
X019894Y003235D01*
X020065Y002483D02*
X020287Y002483D01*
X020065Y002483D02*
X020065Y003255D01*
X020287Y003255D01*
X020287Y002483D01*
X020287Y002577D02*
X020065Y002577D01*
X020065Y002671D02*
X020287Y002671D01*
X020287Y002765D02*
X020065Y002765D01*
X020065Y002859D02*
X020287Y002859D01*
X020287Y002953D02*
X020065Y002953D01*
X020065Y003047D02*
X020287Y003047D01*
X020287Y003141D02*
X020065Y003141D01*
X020065Y003235D02*
X020287Y003235D01*
X020459Y002483D02*
X020681Y002483D01*
X020459Y002483D02*
X020459Y003255D01*
X020681Y003255D01*
X020681Y002483D01*
X020681Y002577D02*
X020459Y002577D01*
X020459Y002671D02*
X020681Y002671D01*
X020681Y002765D02*
X020459Y002765D01*
X020459Y002859D02*
X020681Y002859D01*
X020681Y002953D02*
X020459Y002953D01*
X020459Y003047D02*
X020681Y003047D01*
X020681Y003141D02*
X020459Y003141D01*
X020459Y003235D02*
X020681Y003235D01*
X019500Y008545D02*
X019278Y008545D01*
X019278Y009317D01*
X019500Y009317D01*
X019500Y008545D01*
X019500Y008639D02*
X019278Y008639D01*
X019278Y008733D02*
X019500Y008733D01*
X019500Y008827D02*
X019278Y008827D01*
X019278Y008921D02*
X019500Y008921D01*
X019500Y009015D02*
X019278Y009015D01*
X019278Y009109D02*
X019500Y009109D01*
X019500Y009203D02*
X019278Y009203D01*
X019278Y009297D02*
X019500Y009297D01*
X019106Y008545D02*
X018884Y008545D01*
X018884Y009317D01*
X019106Y009317D01*
X019106Y008545D01*
X019106Y008639D02*
X018884Y008639D01*
X018884Y008733D02*
X019106Y008733D01*
X019106Y008827D02*
X018884Y008827D01*
X018884Y008921D02*
X019106Y008921D01*
X019106Y009015D02*
X018884Y009015D01*
X018884Y009109D02*
X019106Y009109D01*
X019106Y009203D02*
X018884Y009203D01*
X018884Y009297D02*
X019106Y009297D01*
X018712Y008545D02*
X018490Y008545D01*
X018490Y009317D01*
X018712Y009317D01*
X018712Y008545D01*
X018712Y008639D02*
X018490Y008639D01*
X018490Y008733D02*
X018712Y008733D01*
X018712Y008827D02*
X018490Y008827D01*
X018490Y008921D02*
X018712Y008921D01*
X018712Y009015D02*
X018490Y009015D01*
X018490Y009109D02*
X018712Y009109D01*
X018712Y009203D02*
X018490Y009203D01*
X018490Y009297D02*
X018712Y009297D01*
X018319Y008545D02*
X018097Y008545D01*
X018097Y009317D01*
X018319Y009317D01*
X018319Y008545D01*
X018319Y008639D02*
X018097Y008639D01*
X018097Y008733D02*
X018319Y008733D01*
X018319Y008827D02*
X018097Y008827D01*
X018097Y008921D02*
X018319Y008921D01*
X018319Y009015D02*
X018097Y009015D01*
X018097Y009109D02*
X018319Y009109D01*
X018319Y009203D02*
X018097Y009203D01*
X018097Y009297D02*
X018319Y009297D01*
X017925Y008545D02*
X017703Y008545D01*
X017703Y009317D01*
X017925Y009317D01*
X017925Y008545D01*
X017925Y008639D02*
X017703Y008639D01*
X017703Y008733D02*
X017925Y008733D01*
X017925Y008827D02*
X017703Y008827D01*
X017703Y008921D02*
X017925Y008921D01*
X017925Y009015D02*
X017703Y009015D01*
X017703Y009109D02*
X017925Y009109D01*
X017925Y009203D02*
X017703Y009203D01*
X017703Y009297D02*
X017925Y009297D01*
X017531Y008545D02*
X017309Y008545D01*
X017309Y009317D01*
X017531Y009317D01*
X017531Y008545D01*
X017531Y008639D02*
X017309Y008639D01*
X017309Y008733D02*
X017531Y008733D01*
X017531Y008827D02*
X017309Y008827D01*
X017309Y008921D02*
X017531Y008921D01*
X017531Y009015D02*
X017309Y009015D01*
X017309Y009109D02*
X017531Y009109D01*
X017531Y009203D02*
X017309Y009203D01*
X017309Y009297D02*
X017531Y009297D01*
X017138Y008545D02*
X016916Y008545D01*
X016916Y009317D01*
X017138Y009317D01*
X017138Y008545D01*
X017138Y008639D02*
X016916Y008639D01*
X016916Y008733D02*
X017138Y008733D01*
X017138Y008827D02*
X016916Y008827D01*
X016916Y008921D02*
X017138Y008921D01*
X017138Y009015D02*
X016916Y009015D01*
X016916Y009109D02*
X017138Y009109D01*
X017138Y009203D02*
X016916Y009203D01*
X016916Y009297D02*
X017138Y009297D01*
X016744Y008545D02*
X016522Y008545D01*
X016522Y009317D01*
X016744Y009317D01*
X016744Y008545D01*
X016744Y008639D02*
X016522Y008639D01*
X016522Y008733D02*
X016744Y008733D01*
X016744Y008827D02*
X016522Y008827D01*
X016522Y008921D02*
X016744Y008921D01*
X016744Y009015D02*
X016522Y009015D01*
X016522Y009109D02*
X016744Y009109D01*
X016744Y009203D02*
X016522Y009203D01*
X016522Y009297D02*
X016744Y009297D01*
X016350Y008545D02*
X016128Y008545D01*
X016128Y009317D01*
X016350Y009317D01*
X016350Y008545D01*
X016350Y008639D02*
X016128Y008639D01*
X016128Y008733D02*
X016350Y008733D01*
X016350Y008827D02*
X016128Y008827D01*
X016128Y008921D02*
X016350Y008921D01*
X016350Y009015D02*
X016128Y009015D01*
X016128Y009109D02*
X016350Y009109D01*
X016350Y009203D02*
X016128Y009203D01*
X016128Y009297D02*
X016350Y009297D01*
X015957Y008545D02*
X015735Y008545D01*
X015735Y009317D01*
X015957Y009317D01*
X015957Y008545D01*
X015957Y008639D02*
X015735Y008639D01*
X015735Y008733D02*
X015957Y008733D01*
X015957Y008827D02*
X015735Y008827D01*
X015735Y008921D02*
X015957Y008921D01*
X015957Y009015D02*
X015735Y009015D01*
X015735Y009109D02*
X015957Y009109D01*
X015957Y009203D02*
X015735Y009203D01*
X015735Y009297D02*
X015957Y009297D01*
X015563Y008545D02*
X015341Y008545D01*
X015341Y009317D01*
X015563Y009317D01*
X015563Y008545D01*
X015563Y008639D02*
X015341Y008639D01*
X015341Y008733D02*
X015563Y008733D01*
X015563Y008827D02*
X015341Y008827D01*
X015341Y008921D02*
X015563Y008921D01*
X015563Y009015D02*
X015341Y009015D01*
X015341Y009109D02*
X015563Y009109D01*
X015563Y009203D02*
X015341Y009203D01*
X015341Y009297D02*
X015563Y009297D01*
X015169Y008545D02*
X014947Y008545D01*
X014947Y009317D01*
X015169Y009317D01*
X015169Y008545D01*
X015169Y008639D02*
X014947Y008639D01*
X014947Y008733D02*
X015169Y008733D01*
X015169Y008827D02*
X014947Y008827D01*
X014947Y008921D02*
X015169Y008921D01*
X015169Y009015D02*
X014947Y009015D01*
X014947Y009109D02*
X015169Y009109D01*
X015169Y009203D02*
X014947Y009203D01*
X014947Y009297D02*
X015169Y009297D01*
X014775Y008545D02*
X014553Y008545D01*
X014553Y009317D01*
X014775Y009317D01*
X014775Y008545D01*
X014775Y008639D02*
X014553Y008639D01*
X014553Y008733D02*
X014775Y008733D01*
X014775Y008827D02*
X014553Y008827D01*
X014553Y008921D02*
X014775Y008921D01*
X014775Y009015D02*
X014553Y009015D01*
X014553Y009109D02*
X014775Y009109D01*
X014775Y009203D02*
X014553Y009203D01*
X014553Y009297D02*
X014775Y009297D01*
X014382Y008545D02*
X014160Y008545D01*
X014160Y009317D01*
X014382Y009317D01*
X014382Y008545D01*
X014382Y008639D02*
X014160Y008639D01*
X014160Y008733D02*
X014382Y008733D01*
X014382Y008827D02*
X014160Y008827D01*
X014160Y008921D02*
X014382Y008921D01*
X014382Y009015D02*
X014160Y009015D01*
X014160Y009109D02*
X014382Y009109D01*
X014382Y009203D02*
X014160Y009203D01*
X014160Y009297D02*
X014382Y009297D01*
X013988Y008545D02*
X013766Y008545D01*
X013766Y009317D01*
X013988Y009317D01*
X013988Y008545D01*
X013988Y008639D02*
X013766Y008639D01*
X013766Y008733D02*
X013988Y008733D01*
X013988Y008827D02*
X013766Y008827D01*
X013766Y008921D02*
X013988Y008921D01*
X013988Y009015D02*
X013766Y009015D01*
X013766Y009109D02*
X013988Y009109D01*
X013988Y009203D02*
X013766Y009203D01*
X013766Y009297D02*
X013988Y009297D01*
X013594Y008545D02*
X013372Y008545D01*
X013372Y009317D01*
X013594Y009317D01*
X013594Y008545D01*
X013594Y008639D02*
X013372Y008639D01*
X013372Y008733D02*
X013594Y008733D01*
X013594Y008827D02*
X013372Y008827D01*
X013372Y008921D02*
X013594Y008921D01*
X013594Y009015D02*
X013372Y009015D01*
X013372Y009109D02*
X013594Y009109D01*
X013594Y009203D02*
X013372Y009203D01*
X013372Y009297D02*
X013594Y009297D01*
X013201Y008664D02*
X012979Y008664D01*
X012979Y009318D01*
X013201Y009318D01*
X013201Y008664D01*
X013201Y008758D02*
X012979Y008758D01*
X012979Y008852D02*
X013201Y008852D01*
X013201Y008946D02*
X012979Y008946D01*
X012979Y009040D02*
X013201Y009040D01*
X013201Y009134D02*
X012979Y009134D01*
X012979Y009228D02*
X013201Y009228D01*
D19*
X006727Y007435D03*
X006727Y006765D03*
D20*
X008727Y004900D03*
X009727Y004900D03*
X010727Y004900D03*
X010727Y003900D03*
X009727Y003900D03*
X008727Y003900D03*
M02*
