G75*
%MOIN*%
%OFA0B0*%
%FSLAX24Y24*%
%IPPOS*%
%LPD*%
%AMOC8*
5,1,8,0,0,1.08239X$1,22.5*
%
%ADD10R,0.0250X0.0500*%
%ADD11OC8,0.0700*%
%ADD12OC8,0.0740*%
%ADD13R,0.0500X0.0250*%
%ADD14C,0.0740*%
%ADD15C,0.0060*%
%ADD16C,0.0270*%
%ADD17C,0.0160*%
%ADD18C,0.0100*%
D10*
X004265Y003300D03*
X004589Y003300D03*
X004589Y004300D03*
X004265Y004300D03*
D11*
X001227Y001400D03*
X002227Y001400D03*
X003227Y001400D03*
X004227Y001400D03*
X005227Y001400D03*
X006227Y001400D03*
X007227Y001400D03*
X008227Y001400D03*
X009227Y001400D03*
X010227Y001400D03*
X011227Y001400D03*
X012227Y001400D03*
X013227Y001400D03*
X014227Y001400D03*
X015227Y001400D03*
X016227Y001400D03*
X017227Y001400D03*
X018227Y001400D03*
X019227Y001400D03*
X020227Y001400D03*
X021227Y001400D03*
X021227Y010400D03*
X020227Y010400D03*
X019227Y010400D03*
X018227Y010400D03*
X017227Y010400D03*
X016227Y010400D03*
X015227Y010400D03*
X014227Y010400D03*
X013227Y010400D03*
X012227Y010400D03*
X011227Y010400D03*
X010227Y010400D03*
X009227Y010400D03*
X008227Y010400D03*
X007227Y010400D03*
X006227Y010400D03*
X005227Y010400D03*
X004227Y010400D03*
X003227Y010400D03*
X002227Y010400D03*
X001227Y010400D03*
X001227Y008400D03*
X001227Y007400D03*
X001227Y006400D03*
X001227Y005400D03*
X001227Y004400D03*
X001227Y003400D03*
D12*
X008727Y006900D03*
X009727Y006900D03*
X010727Y006900D03*
X010727Y007900D03*
X009727Y007900D03*
X008727Y007900D03*
D13*
X006727Y007162D03*
X006727Y006838D03*
D14*
X008727Y004900D03*
X009727Y004900D03*
X010727Y004900D03*
X010727Y003900D03*
X009727Y003900D03*
X008727Y003900D03*
D15*
X007267Y003900D01*
X007147Y003780D01*
X003067Y003780D01*
X003067Y002880D01*
X003187Y002760D01*
X004207Y002760D01*
X004207Y001440D01*
X004227Y001400D01*
X005227Y001440D02*
X005227Y001400D01*
X005227Y001440D02*
X006307Y002520D01*
X009487Y002520D01*
X008167Y003300D02*
X008107Y003360D01*
X007087Y003360D01*
X004687Y003360D01*
X004627Y003300D01*
X004589Y003300D01*
X004527Y003300D02*
X004327Y003300D01*
X004265Y003300D02*
X003607Y003300D01*
X003307Y003000D01*
X001387Y003420D02*
X001267Y003420D01*
X001227Y003400D01*
X001387Y003420D02*
X003727Y005760D01*
X002827Y006420D02*
X001267Y006420D01*
X001227Y006400D01*
X002827Y006420D02*
X003187Y006780D01*
X003367Y007380D02*
X003967Y006780D01*
X003367Y007380D02*
X001267Y007380D01*
X001227Y007400D01*
X001227Y008400D02*
X002707Y008400D01*
X003487Y007620D01*
X003547Y007980D02*
X004507Y007980D01*
X005587Y009060D01*
X006247Y009060D01*
X007867Y007440D01*
X009187Y007440D01*
X009187Y006780D01*
X010087Y005880D01*
X013447Y005880D01*
X013687Y006120D01*
X013567Y006360D02*
X013327Y006120D01*
X013567Y006360D02*
X014407Y006360D01*
X015787Y007740D01*
X015787Y008340D02*
X015247Y008880D01*
X012727Y008880D01*
X012547Y009120D02*
X012067Y009600D01*
X003247Y009600D01*
X003067Y009420D01*
X003067Y009060D01*
X005227Y009060D01*
X003787Y009300D02*
X009847Y009300D01*
X010207Y008940D01*
X010507Y009120D02*
X011447Y009120D01*
X011587Y008980D01*
X011947Y009000D02*
X012907Y008040D01*
X013447Y008040D01*
X013507Y007980D01*
X013867Y007740D02*
X011647Y007740D01*
X011407Y007620D02*
X011527Y007500D01*
X013927Y007500D01*
X013867Y007260D02*
X011707Y007260D01*
X011587Y007380D01*
X011227Y007380D01*
X010747Y007860D01*
X010727Y007900D01*
X011407Y008160D02*
X011947Y008160D01*
X012067Y008280D01*
X012067Y008640D01*
X007447Y008640D01*
X007027Y009060D01*
X007567Y008400D02*
X011827Y008400D01*
X011407Y008160D02*
X011407Y007620D01*
X011047Y007260D02*
X010867Y007440D01*
X010387Y007440D01*
X011047Y007260D02*
X011347Y007260D01*
X011467Y007140D01*
X010727Y006900D02*
X013147Y006900D01*
X013267Y007020D01*
X013867Y007260D02*
X014167Y006960D01*
X014287Y006600D02*
X014167Y006480D01*
X010987Y006480D01*
X010927Y006420D01*
X010207Y006420D01*
X009727Y006900D01*
X009067Y005760D02*
X008347Y006480D01*
X007567Y006340D02*
X006347Y006340D01*
X006127Y006120D01*
X006727Y006780D02*
X006927Y006580D01*
X007327Y006580D01*
X006727Y006780D02*
X006727Y006838D01*
X006727Y006900D02*
X006727Y007100D01*
X006727Y007162D02*
X006727Y007200D01*
X006307Y007200D01*
X006247Y007260D01*
X007327Y007140D02*
X008827Y005640D01*
X015667Y005640D01*
X015667Y003900D01*
X015007Y003240D01*
X012427Y003240D01*
X012367Y003180D01*
X011827Y003480D02*
X013927Y003480D01*
X014647Y003720D02*
X011227Y003720D01*
X010927Y003420D01*
X008227Y003420D01*
X008047Y003600D01*
X007447Y003600D01*
X007987Y003120D02*
X011287Y003120D01*
X011407Y003000D01*
X011287Y003300D02*
X011467Y003480D01*
X011287Y003300D02*
X008167Y003300D01*
X010387Y004380D02*
X013087Y004380D01*
X013267Y004560D01*
X013147Y005040D02*
X013627Y005040D01*
X013747Y005160D01*
X013747Y005520D01*
X007667Y005520D01*
X007207Y005980D01*
X008047Y005280D02*
X008167Y005400D01*
X013387Y005400D01*
X013507Y005280D01*
X013147Y005040D02*
X013027Y005160D01*
X011947Y004800D02*
X011827Y004680D01*
X011947Y004800D02*
X015187Y004800D01*
X014947Y004920D02*
X011347Y004920D01*
X009067Y005760D02*
X016447Y005760D01*
X016687Y005660D02*
X016687Y005880D01*
X016567Y006000D01*
X015967Y006000D01*
X015187Y006780D01*
X014107Y007980D02*
X013867Y007740D01*
X016147Y008340D02*
X016147Y009960D01*
X015667Y009960D01*
X015227Y010400D01*
X014227Y010400D02*
X014227Y009120D01*
X012547Y009120D01*
X012727Y009360D02*
X012367Y009720D01*
X002167Y009720D01*
X003667Y008220D01*
X003547Y007980D02*
X003307Y008220D01*
X003307Y009300D02*
X003787Y009300D01*
X003667Y009960D02*
X003227Y010400D01*
X003667Y009960D02*
X010567Y009960D01*
X010927Y009960D02*
X010507Y010380D01*
X010267Y010380D01*
X010227Y010400D01*
X010927Y009960D02*
X013867Y009960D01*
X011947Y009360D02*
X011107Y009360D01*
X017467Y008340D02*
X019087Y009960D01*
X019807Y009960D01*
X020227Y010380D01*
X020227Y010400D01*
X016687Y005660D02*
X015927Y004900D01*
X015927Y001860D01*
X011647Y001860D01*
X011227Y001440D01*
X011227Y001400D01*
X014167Y001980D02*
X007807Y001980D01*
X007227Y001400D01*
X004527Y004300D02*
X004327Y004300D01*
X014167Y001980D02*
X015667Y003480D01*
X014887Y003480D02*
X014647Y003720D01*
X014947Y004920D02*
X015427Y005400D01*
X017647Y001860D02*
X017227Y001440D01*
X017227Y001400D01*
X017647Y001860D02*
X018907Y001860D01*
X019227Y001400D02*
X019687Y001860D01*
X020587Y001860D01*
X002167Y009720D02*
X001927Y009720D01*
X001267Y010380D01*
X001227Y010400D01*
D16*
X003307Y009300D03*
X003787Y009300D03*
X005227Y009060D03*
X005587Y009060D03*
X007027Y009060D03*
X007567Y008400D03*
X006247Y007260D03*
X007327Y007140D03*
X007327Y006580D03*
X007567Y006340D03*
X007207Y005980D03*
X006127Y006120D03*
X008047Y005280D03*
X006247Y004860D03*
X006787Y004020D03*
X007447Y003600D03*
X007087Y003360D03*
X007987Y003120D03*
X009487Y002520D03*
X011407Y003000D03*
X011467Y003480D03*
X011827Y003480D03*
X012367Y003180D03*
X012667Y002760D03*
X013927Y003480D03*
X014887Y003480D03*
X015307Y003900D03*
X015667Y003480D03*
X016157Y003600D03*
X016427Y004000D03*
X016827Y004000D03*
X017227Y004000D03*
X017627Y004000D03*
X018027Y004000D03*
X018427Y004000D03*
X018827Y004000D03*
X019227Y004000D03*
X019227Y004400D03*
X019227Y004800D03*
X019227Y005200D03*
X019227Y005600D03*
X019227Y006000D03*
X019227Y006400D03*
X019227Y006800D03*
X019227Y007200D03*
X019227Y007600D03*
X019227Y008000D03*
X019727Y008600D03*
X020127Y008600D03*
X020527Y008600D03*
X020927Y008600D03*
X021327Y008600D03*
X017647Y008040D03*
X017467Y008340D03*
X016147Y008340D03*
X015787Y008340D03*
X015787Y007740D03*
X014767Y007080D03*
X015187Y006780D03*
X014287Y006600D03*
X014167Y006960D03*
X013267Y007020D03*
X013927Y007500D03*
X014107Y007980D03*
X013507Y007980D03*
X013027Y008280D03*
X012727Y008880D03*
X012727Y009360D03*
X011947Y009360D03*
X011947Y009000D03*
X011587Y008980D03*
X011107Y009360D03*
X010507Y009120D03*
X010207Y008940D03*
X011827Y008400D03*
X011647Y007740D03*
X011467Y007140D03*
X010387Y007440D03*
X008347Y006480D03*
X005107Y007320D03*
X003967Y006780D03*
X003187Y006780D03*
X003487Y007620D03*
X003667Y008220D03*
X003307Y008220D03*
X003727Y005760D03*
X003367Y004620D03*
X003007Y004620D03*
X003307Y003000D03*
X001567Y002940D03*
X005947Y002820D03*
X010387Y004380D03*
X011347Y004920D03*
X011827Y004680D03*
X013027Y005160D03*
X013507Y005280D03*
X013267Y004560D03*
X013267Y004200D03*
X014767Y004560D03*
X015187Y004800D03*
X015427Y005400D03*
X016447Y005760D03*
X013687Y006120D03*
X013327Y006120D03*
X013867Y009960D03*
X010567Y009960D03*
X018907Y001860D03*
X020587Y001860D03*
D17*
X019309Y003900D02*
X016227Y003900D01*
X016227Y001890D01*
X016097Y001890D01*
X016097Y004830D01*
X016757Y005490D01*
X016857Y005590D01*
X016857Y005950D01*
X016757Y006050D01*
X016637Y006170D01*
X016037Y006170D01*
X015462Y006745D01*
X015462Y006835D01*
X015420Y006936D01*
X015342Y007013D01*
X015313Y007025D01*
X015752Y007465D01*
X015841Y007465D01*
X015942Y007507D01*
X016020Y007584D01*
X016062Y007685D01*
X016062Y007795D01*
X016020Y007896D01*
X015942Y007973D01*
X015841Y008015D01*
X015732Y008015D01*
X015631Y007973D01*
X015554Y007896D01*
X015512Y007795D01*
X015512Y007705D01*
X014532Y006726D01*
X014520Y006756D01*
X014442Y006833D01*
X014416Y006844D01*
X014442Y006905D01*
X014442Y007015D01*
X014400Y007116D01*
X014322Y007193D01*
X014221Y007235D01*
X014132Y007235D01*
X014091Y007276D01*
X014160Y007344D01*
X014202Y007445D01*
X014202Y007555D01*
X014160Y007656D01*
X014111Y007705D01*
X014161Y007705D01*
X014262Y007747D01*
X014340Y007824D01*
X014382Y007925D01*
X014382Y008035D01*
X014340Y008136D01*
X014262Y008213D01*
X014161Y008255D01*
X014052Y008255D01*
X013951Y008213D01*
X013874Y008136D01*
X013832Y008035D01*
X013832Y007945D01*
X013796Y007910D01*
X013775Y007910D01*
X013782Y007925D01*
X013782Y008035D01*
X013740Y008136D01*
X013662Y008213D01*
X013561Y008255D01*
X013452Y008255D01*
X013351Y008213D01*
X013348Y008210D01*
X012977Y008210D01*
X012222Y008965D01*
X012222Y009055D01*
X012180Y009156D01*
X012156Y009180D01*
X012180Y009204D01*
X012192Y009234D01*
X012463Y008963D01*
X012452Y008935D01*
X012452Y008825D01*
X012362Y008825D01*
X012452Y008825D02*
X012494Y008724D01*
X012571Y008647D01*
X012672Y008605D01*
X012781Y008605D01*
X012882Y008647D01*
X012946Y008710D01*
X015176Y008710D01*
X015512Y008375D01*
X015512Y008285D01*
X015554Y008184D01*
X015631Y008107D01*
X015732Y008065D01*
X015841Y008065D01*
X015942Y008107D01*
X015967Y008131D01*
X015991Y008107D01*
X016092Y008065D01*
X016201Y008065D01*
X016302Y008107D01*
X016380Y008184D01*
X016422Y008285D01*
X016422Y008395D01*
X016380Y008496D01*
X016317Y008559D01*
X016317Y009910D01*
X016430Y009910D01*
X016717Y010197D01*
X016717Y010603D01*
X016650Y010670D01*
X016804Y010670D01*
X016737Y010603D01*
X016737Y010197D01*
X017024Y009910D01*
X017430Y009910D01*
X017717Y010197D01*
X017717Y010603D01*
X017650Y010670D01*
X017804Y010670D01*
X017737Y010603D01*
X017737Y010197D01*
X018024Y009910D01*
X018430Y009910D01*
X018717Y010197D01*
X018717Y010603D01*
X018650Y010670D01*
X018804Y010670D01*
X018737Y010603D01*
X018737Y010197D01*
X018910Y010024D01*
X017501Y008615D01*
X017412Y008615D01*
X017311Y008573D01*
X017234Y008496D01*
X017192Y008395D01*
X017192Y008285D01*
X017234Y008184D01*
X017311Y008107D01*
X017412Y008065D01*
X017521Y008065D01*
X017622Y008107D01*
X017700Y008184D01*
X017742Y008285D01*
X017742Y008375D01*
X019157Y009790D01*
X019877Y009790D01*
X020010Y009923D01*
X020024Y009910D01*
X020430Y009910D01*
X020717Y010197D01*
X020717Y010603D01*
X020650Y010670D01*
X020804Y010670D01*
X020737Y010603D01*
X020737Y010197D01*
X021024Y009910D01*
X021430Y009910D01*
X021497Y009977D01*
X021497Y008539D01*
X019356Y008539D01*
X019309Y008492D01*
X019309Y003900D01*
X019309Y003912D02*
X016097Y003912D01*
X016097Y003753D02*
X016227Y003753D01*
X016227Y003595D02*
X016097Y003595D01*
X016097Y003436D02*
X016227Y003436D01*
X016227Y003278D02*
X016097Y003278D01*
X016097Y003119D02*
X016227Y003119D01*
X016227Y002961D02*
X016097Y002961D01*
X016097Y002802D02*
X016227Y002802D01*
X016227Y002644D02*
X016097Y002644D01*
X016097Y002485D02*
X016227Y002485D01*
X016227Y002327D02*
X016097Y002327D01*
X016097Y002168D02*
X016227Y002168D01*
X016227Y002010D02*
X016097Y002010D01*
X014748Y002802D02*
X011598Y002802D01*
X011562Y002767D02*
X011640Y002844D01*
X011682Y002945D01*
X011682Y003055D01*
X011640Y003156D01*
X011570Y003225D01*
X011622Y003247D01*
X011647Y003271D01*
X011671Y003247D01*
X011772Y003205D01*
X011881Y003205D01*
X011982Y003247D01*
X012046Y003310D01*
X012123Y003310D01*
X012092Y003235D01*
X012092Y003125D01*
X012134Y003024D01*
X012211Y002947D01*
X012312Y002905D01*
X012421Y002905D01*
X012522Y002947D01*
X012600Y003024D01*
X012619Y003070D01*
X015016Y003070D01*
X014096Y002150D01*
X007736Y002150D01*
X007453Y001867D01*
X007430Y001890D01*
X007024Y001890D01*
X006737Y001603D01*
X006737Y001197D01*
X006804Y001130D01*
X006650Y001130D01*
X006717Y001197D01*
X006717Y001603D01*
X006430Y001890D01*
X006024Y001890D01*
X005737Y001603D01*
X005737Y001197D01*
X005804Y001130D01*
X005650Y001130D01*
X005717Y001197D01*
X005717Y001603D01*
X005673Y001646D01*
X006377Y002350D01*
X009268Y002350D01*
X009331Y002287D01*
X009432Y002245D01*
X009541Y002245D01*
X009642Y002287D01*
X009720Y002364D01*
X009762Y002465D01*
X009762Y002575D01*
X009720Y002676D01*
X009642Y002753D01*
X009541Y002795D01*
X009432Y002795D01*
X009331Y002753D01*
X009268Y002690D01*
X006236Y002690D01*
X006137Y002590D01*
X005433Y001887D01*
X005430Y001890D01*
X005024Y001890D01*
X004737Y001603D01*
X004737Y001197D01*
X004804Y001130D01*
X004650Y001130D01*
X004717Y001197D01*
X004717Y001603D01*
X004430Y001890D01*
X004377Y001890D01*
X004377Y002830D01*
X004297Y002910D01*
X004447Y002910D01*
X004772Y002910D01*
X004854Y002992D01*
X004854Y003190D01*
X006868Y003190D01*
X006931Y003127D01*
X007032Y003085D01*
X007141Y003085D01*
X007242Y003127D01*
X007306Y003190D01*
X007718Y003190D01*
X007712Y003175D01*
X007712Y003065D01*
X007754Y002964D01*
X007831Y002887D01*
X007932Y002845D01*
X008041Y002845D01*
X008142Y002887D01*
X008206Y002950D01*
X011132Y002950D01*
X011132Y002945D01*
X011174Y002844D01*
X011251Y002767D01*
X011352Y002725D01*
X011461Y002725D01*
X011562Y002767D01*
X011682Y002961D02*
X012197Y002961D01*
X012094Y003119D02*
X011655Y003119D01*
X012013Y003278D02*
X012109Y003278D01*
X012536Y002961D02*
X014907Y002961D01*
X014590Y002644D02*
X009733Y002644D01*
X009762Y002485D02*
X014431Y002485D01*
X014273Y002327D02*
X009682Y002327D01*
X009291Y002327D02*
X006354Y002327D01*
X006195Y002168D02*
X014114Y002168D01*
X011216Y002802D02*
X004377Y002802D01*
X004377Y002644D02*
X006190Y002644D01*
X006031Y002485D02*
X004377Y002485D01*
X004377Y002327D02*
X005873Y002327D01*
X005714Y002168D02*
X004377Y002168D01*
X004377Y002010D02*
X005556Y002010D01*
X005878Y001851D02*
X005985Y001851D01*
X005826Y001693D02*
X005720Y001693D01*
X005717Y001534D02*
X005737Y001534D01*
X005737Y001376D02*
X005717Y001376D01*
X005717Y001217D02*
X005737Y001217D01*
X006717Y001217D02*
X006737Y001217D01*
X006737Y001376D02*
X006717Y001376D01*
X006717Y001534D02*
X006737Y001534D01*
X006826Y001693D02*
X006627Y001693D01*
X006469Y001851D02*
X006985Y001851D01*
X007596Y002010D02*
X006037Y002010D01*
X004985Y001851D02*
X004469Y001851D01*
X004627Y001693D02*
X004826Y001693D01*
X004737Y001534D02*
X004717Y001534D01*
X004717Y001376D02*
X004737Y001376D01*
X004737Y001217D02*
X004717Y001217D01*
X002037Y001890D02*
X002024Y001890D01*
X001755Y001621D01*
X001446Y001930D01*
X001247Y001930D01*
X001247Y001420D01*
X001207Y001420D01*
X001207Y001930D01*
X001007Y001930D01*
X000957Y001880D01*
X000957Y002977D01*
X001024Y002910D01*
X001292Y002910D01*
X001292Y002885D01*
X001334Y002784D01*
X001411Y002707D01*
X001512Y002665D01*
X001621Y002665D01*
X001722Y002707D01*
X001766Y002750D01*
X002037Y002750D01*
X002037Y001890D01*
X001985Y001851D02*
X001525Y001851D01*
X001684Y001693D02*
X001826Y001693D01*
X002037Y002010D02*
X000957Y002010D01*
X000957Y002168D02*
X002037Y002168D01*
X002037Y002327D02*
X000957Y002327D01*
X000957Y002485D02*
X002037Y002485D01*
X002037Y002644D02*
X000957Y002644D01*
X000957Y002802D02*
X001326Y002802D01*
X000973Y002961D02*
X000957Y002961D01*
X000957Y003823D02*
X000957Y003977D01*
X001024Y003910D01*
X001430Y003910D01*
X001717Y004197D01*
X001717Y004603D01*
X001448Y004872D01*
X001757Y005180D01*
X001757Y005380D01*
X001247Y005380D01*
X001247Y005420D01*
X001757Y005420D01*
X001757Y005620D01*
X001448Y005928D01*
X001717Y006197D01*
X001717Y006250D01*
X002897Y006250D01*
X002997Y006350D01*
X003152Y006505D01*
X003241Y006505D01*
X003342Y006547D01*
X003420Y006624D01*
X003462Y006725D01*
X003462Y006835D01*
X003420Y006936D01*
X003342Y007013D01*
X003241Y007055D01*
X003132Y007055D01*
X003031Y007013D01*
X002954Y006936D01*
X002912Y006835D01*
X002912Y006745D01*
X002756Y006590D01*
X001717Y006590D01*
X001717Y006603D01*
X001430Y006890D01*
X001024Y006890D01*
X000957Y006823D01*
X000957Y006977D01*
X001024Y006910D01*
X001430Y006910D01*
X001717Y007197D01*
X001717Y007210D01*
X003296Y007210D01*
X003692Y006815D01*
X003692Y006725D01*
X003734Y006624D01*
X003811Y006547D01*
X003912Y006505D01*
X004021Y006505D01*
X004122Y006547D01*
X004200Y006624D01*
X004242Y006725D01*
X004242Y006835D01*
X004200Y006936D01*
X004122Y007013D01*
X004021Y007055D01*
X003932Y007055D01*
X003613Y007374D01*
X003642Y007387D01*
X003720Y007464D01*
X003762Y007565D01*
X003762Y007675D01*
X003720Y007776D01*
X003686Y007810D01*
X004577Y007810D01*
X005552Y008785D01*
X005641Y008785D01*
X005742Y008827D01*
X005806Y008890D01*
X006176Y008890D01*
X007796Y007270D01*
X008319Y007270D01*
X008177Y007128D01*
X008177Y006920D01*
X008707Y006920D01*
X008707Y006880D01*
X008707Y006360D01*
X009137Y005930D01*
X009796Y005930D01*
X009165Y006561D01*
X008954Y006350D01*
X008747Y006350D01*
X008747Y006880D01*
X008707Y006880D01*
X008177Y006880D01*
X008177Y006699D01*
X008114Y006636D01*
X008101Y006606D01*
X008101Y006606D01*
X007602Y007105D01*
X007602Y007195D01*
X007560Y007296D01*
X007482Y007373D01*
X007381Y007415D01*
X007272Y007415D01*
X007171Y007373D01*
X007117Y007319D01*
X007117Y007345D01*
X007035Y007427D01*
X006468Y007427D01*
X006402Y007493D01*
X006301Y007535D01*
X006192Y007535D01*
X006091Y007493D01*
X006014Y007416D01*
X005972Y007315D01*
X005972Y007205D01*
X006014Y007104D01*
X006091Y007027D01*
X006192Y006985D01*
X006301Y006985D01*
X006337Y007000D01*
X006337Y006655D01*
X006419Y006573D01*
X006693Y006573D01*
X006756Y006510D01*
X006276Y006510D01*
X006177Y006410D01*
X006161Y006395D01*
X006072Y006395D01*
X005971Y006353D01*
X005894Y006276D01*
X005852Y006175D01*
X005852Y006065D01*
X005894Y005964D01*
X005971Y005887D01*
X006072Y005845D01*
X006181Y005845D01*
X006282Y005887D01*
X006360Y005964D01*
X006402Y006065D01*
X006402Y006155D01*
X006417Y006170D01*
X007008Y006170D01*
X006974Y006136D01*
X006932Y006035D01*
X006932Y005925D01*
X006974Y005824D01*
X007051Y005747D01*
X007152Y005705D01*
X007241Y005705D01*
X007596Y005350D01*
X007778Y005350D01*
X007772Y005335D01*
X007772Y005225D01*
X007814Y005124D01*
X007888Y005050D01*
X006446Y005050D01*
X006402Y005093D01*
X006301Y005135D01*
X006192Y005135D01*
X006091Y005093D01*
X006048Y005050D01*
X005088Y005050D01*
X004728Y004690D01*
X004082Y004690D01*
X004000Y004608D01*
X004000Y004510D01*
X003745Y004510D01*
X003642Y004614D01*
X003642Y004675D01*
X003600Y004776D01*
X003522Y004853D01*
X003421Y004895D01*
X003312Y004895D01*
X003211Y004853D01*
X003187Y004829D01*
X003162Y004853D01*
X003090Y004883D01*
X003692Y005485D01*
X003781Y005485D01*
X003882Y005527D01*
X003960Y005604D01*
X004002Y005705D01*
X004002Y005815D01*
X003960Y005916D01*
X003882Y005993D01*
X003781Y006035D01*
X003672Y006035D01*
X003571Y005993D01*
X003494Y005916D01*
X003452Y005815D01*
X003452Y005725D01*
X001523Y003797D01*
X001430Y003890D01*
X001024Y003890D01*
X000957Y003823D01*
X000957Y003912D02*
X001022Y003912D01*
X001431Y003912D02*
X001638Y003912D01*
X001590Y004070D02*
X001796Y004070D01*
X001717Y004229D02*
X001955Y004229D01*
X002113Y004387D02*
X001717Y004387D01*
X001717Y004546D02*
X002272Y004546D01*
X002430Y004704D02*
X001616Y004704D01*
X001457Y004863D02*
X002589Y004863D01*
X002747Y005021D02*
X001597Y005021D01*
X001756Y005180D02*
X002906Y005180D01*
X003064Y005338D02*
X001757Y005338D01*
X001757Y005497D02*
X003223Y005497D01*
X003381Y005655D02*
X001721Y005655D01*
X001563Y005814D02*
X003452Y005814D01*
X003550Y005972D02*
X001492Y005972D01*
X001650Y006131D02*
X005852Y006131D01*
X005890Y005972D02*
X003904Y005972D01*
X004002Y005814D02*
X006984Y005814D01*
X006932Y005972D02*
X006363Y005972D01*
X006402Y006131D02*
X006971Y006131D01*
X006214Y006448D02*
X003095Y006448D01*
X002936Y006289D02*
X005907Y006289D01*
X006386Y006606D02*
X004182Y006606D01*
X004242Y006765D02*
X006337Y006765D01*
X006337Y006923D02*
X004205Y006923D01*
X003906Y007082D02*
X006036Y007082D01*
X005972Y007240D02*
X003747Y007240D01*
X003654Y007399D02*
X006006Y007399D01*
X007063Y007399D02*
X007232Y007399D01*
X007421Y007399D02*
X007668Y007399D01*
X007583Y007240D02*
X008289Y007240D01*
X008177Y007082D02*
X007626Y007082D01*
X007784Y006923D02*
X008177Y006923D01*
X008177Y006765D02*
X007943Y006765D01*
X008707Y006765D02*
X008747Y006765D01*
X008747Y006606D02*
X008707Y006606D01*
X008707Y006448D02*
X008747Y006448D01*
X008778Y006289D02*
X009437Y006289D01*
X009279Y006448D02*
X009052Y006448D01*
X008937Y006131D02*
X009596Y006131D01*
X009754Y005972D02*
X009095Y005972D01*
X007773Y005338D02*
X003545Y005338D01*
X003387Y005180D02*
X007791Y005180D01*
X007450Y005497D02*
X003809Y005497D01*
X003981Y005655D02*
X007291Y005655D01*
X005059Y005021D02*
X003228Y005021D01*
X003234Y004863D02*
X003140Y004863D01*
X003500Y004863D02*
X004900Y004863D01*
X004742Y004704D02*
X003630Y004704D01*
X003710Y004546D02*
X004000Y004546D01*
X004854Y003119D02*
X006950Y003119D01*
X007223Y003119D02*
X007712Y003119D01*
X007757Y002961D02*
X004822Y002961D01*
X001247Y001851D02*
X001207Y001851D01*
X001207Y001693D02*
X001247Y001693D01*
X001247Y001534D02*
X001207Y001534D01*
X001714Y006606D02*
X002772Y006606D01*
X002912Y006765D02*
X001555Y006765D01*
X001443Y006923D02*
X002948Y006923D01*
X003425Y006923D02*
X003583Y006923D01*
X003692Y006765D02*
X003462Y006765D01*
X003402Y006606D02*
X003752Y006606D01*
X003425Y007082D02*
X001601Y007082D01*
X001011Y006923D02*
X000957Y006923D01*
X003758Y007557D02*
X007509Y007557D01*
X007351Y007716D02*
X003745Y007716D01*
X004641Y007874D02*
X007192Y007874D01*
X007034Y008033D02*
X004800Y008033D01*
X004958Y008191D02*
X006875Y008191D01*
X006717Y008350D02*
X005117Y008350D01*
X005275Y008508D02*
X006558Y008508D01*
X006400Y008667D02*
X005434Y008667D01*
X005738Y008825D02*
X006241Y008825D01*
X012185Y009142D02*
X012284Y009142D01*
X012222Y008984D02*
X012443Y008984D01*
X012521Y008667D02*
X012551Y008667D01*
X012679Y008508D02*
X015378Y008508D01*
X015220Y008667D02*
X012902Y008667D01*
X012838Y008350D02*
X015512Y008350D01*
X015551Y008191D02*
X014285Y008191D01*
X014382Y008033D02*
X019309Y008033D01*
X019309Y008191D02*
X017703Y008191D01*
X017742Y008350D02*
X019309Y008350D01*
X019325Y008508D02*
X017875Y008508D01*
X018034Y008667D02*
X021497Y008667D01*
X021497Y008825D02*
X018192Y008825D01*
X018351Y008984D02*
X021497Y008984D01*
X021497Y009142D02*
X018509Y009142D01*
X018668Y009301D02*
X021497Y009301D01*
X021497Y009459D02*
X018826Y009459D01*
X018985Y009618D02*
X021497Y009618D01*
X021497Y009776D02*
X019143Y009776D01*
X018821Y009935D02*
X018454Y009935D01*
X018613Y010093D02*
X018841Y010093D01*
X018737Y010252D02*
X018717Y010252D01*
X018717Y010410D02*
X018737Y010410D01*
X018737Y010569D02*
X018717Y010569D01*
X017737Y010569D02*
X017717Y010569D01*
X017717Y010410D02*
X017737Y010410D01*
X017737Y010252D02*
X017717Y010252D01*
X017613Y010093D02*
X017841Y010093D01*
X017999Y009935D02*
X017454Y009935D01*
X016999Y009935D02*
X016454Y009935D01*
X016317Y009776D02*
X018662Y009776D01*
X018504Y009618D02*
X016317Y009618D01*
X016317Y009459D02*
X018345Y009459D01*
X018187Y009301D02*
X016317Y009301D01*
X016317Y009142D02*
X018028Y009142D01*
X017870Y008984D02*
X016317Y008984D01*
X016317Y008825D02*
X017711Y008825D01*
X017553Y008667D02*
X016317Y008667D01*
X016368Y008508D02*
X017246Y008508D01*
X017192Y008350D02*
X016422Y008350D01*
X016383Y008191D02*
X017231Y008191D01*
X016062Y007716D02*
X019309Y007716D01*
X019309Y007874D02*
X016029Y007874D01*
X015545Y007874D02*
X014360Y007874D01*
X014187Y007716D02*
X015512Y007716D01*
X015363Y007557D02*
X014201Y007557D01*
X014182Y007399D02*
X015205Y007399D01*
X015046Y007240D02*
X014127Y007240D01*
X014414Y007082D02*
X014888Y007082D01*
X014729Y006923D02*
X014442Y006923D01*
X014511Y006765D02*
X014571Y006765D01*
X015369Y007082D02*
X019309Y007082D01*
X019309Y006923D02*
X015425Y006923D01*
X015462Y006765D02*
X019309Y006765D01*
X019309Y006606D02*
X015601Y006606D01*
X015760Y006448D02*
X019309Y006448D01*
X019309Y006289D02*
X015918Y006289D01*
X016677Y006131D02*
X019309Y006131D01*
X019309Y005972D02*
X016835Y005972D01*
X016857Y005814D02*
X019309Y005814D01*
X019309Y005655D02*
X016857Y005655D01*
X016764Y005497D02*
X019309Y005497D01*
X019309Y005338D02*
X016605Y005338D01*
X016447Y005180D02*
X019309Y005180D01*
X019309Y005021D02*
X016288Y005021D01*
X016130Y004863D02*
X019309Y004863D01*
X019309Y004704D02*
X016097Y004704D01*
X016097Y004546D02*
X019309Y004546D01*
X019309Y004387D02*
X016097Y004387D01*
X016097Y004229D02*
X019309Y004229D01*
X019309Y004070D02*
X016097Y004070D01*
X015497Y004099D02*
X015497Y005131D01*
X015481Y005125D01*
X015392Y005125D01*
X015313Y005045D01*
X015342Y005033D01*
X015420Y004956D01*
X015462Y004855D01*
X015462Y004745D01*
X015420Y004644D01*
X015342Y004567D01*
X015241Y004525D01*
X015132Y004525D01*
X015031Y004567D01*
X014968Y004630D01*
X013535Y004630D01*
X013542Y004615D01*
X013542Y004505D01*
X013500Y004404D01*
X013422Y004327D01*
X013321Y004285D01*
X013232Y004285D01*
X013157Y004210D01*
X011138Y004210D01*
X011159Y004189D01*
X011200Y004090D01*
X015108Y004090D01*
X015151Y004133D01*
X015252Y004175D01*
X015361Y004175D01*
X015462Y004133D01*
X015497Y004099D01*
X015497Y004229D02*
X013176Y004229D01*
X013483Y004387D02*
X015497Y004387D01*
X015497Y004546D02*
X015291Y004546D01*
X015082Y004546D02*
X013542Y004546D01*
X015355Y005021D02*
X015497Y005021D01*
X015497Y004863D02*
X015458Y004863D01*
X015445Y004704D02*
X015497Y004704D01*
X015527Y007240D02*
X019309Y007240D01*
X019309Y007399D02*
X015686Y007399D01*
X015993Y007557D02*
X019309Y007557D01*
X020454Y009935D02*
X020999Y009935D01*
X020841Y010093D02*
X020613Y010093D01*
X020717Y010252D02*
X020737Y010252D01*
X020737Y010410D02*
X020717Y010410D01*
X020717Y010569D02*
X020737Y010569D01*
X021454Y009935D02*
X021497Y009935D01*
X016841Y010093D02*
X016613Y010093D01*
X016717Y010252D02*
X016737Y010252D01*
X016737Y010410D02*
X016717Y010410D01*
X016717Y010569D02*
X016737Y010569D01*
X013929Y008191D02*
X013685Y008191D01*
X013782Y008033D02*
X013832Y008033D01*
D18*
X013027Y008280D02*
X014767Y008280D01*
X014767Y007080D01*
X015727Y008040D02*
X017647Y008040D01*
X015727Y008040D02*
X015487Y008280D01*
X014767Y008280D01*
X008727Y006900D02*
X008707Y006900D01*
X008347Y007260D01*
X007567Y007260D01*
X007267Y007560D01*
X005107Y007560D01*
X004957Y007410D01*
X005047Y007320D01*
X005107Y007320D01*
X004957Y007410D02*
X002947Y005400D01*
X001227Y005400D01*
X003007Y004620D02*
X003007Y003960D01*
X002227Y003180D01*
X002227Y002940D01*
X001567Y002940D01*
X002227Y002940D02*
X002227Y001400D01*
X005947Y002820D02*
X009547Y002820D01*
X009667Y002700D01*
X012607Y002700D01*
X012667Y002760D01*
X010727Y003900D02*
X010507Y003900D01*
X010027Y004380D01*
X007147Y004380D01*
X006787Y004020D01*
X006247Y004860D02*
X005167Y004860D01*
X004627Y004320D01*
X004589Y004300D01*
X004265Y004300D02*
X004207Y004320D01*
X003667Y004320D01*
X003367Y004620D01*
X006247Y004860D02*
X008707Y004860D01*
X008727Y004900D01*
X008767Y004920D01*
X009727Y004920D01*
X009727Y004900D01*
X009727Y004920D02*
X010687Y004920D01*
X010727Y004900D01*
X010727Y003900D02*
X015307Y003900D01*
X014767Y004560D02*
X014407Y004200D01*
X013267Y004200D01*
M02*
