%
M48
M72
T01C0.0130
T02C0.0400
%
T01
X1567Y2940
X3307Y3000
X5947Y2820
X7087Y3360
X7447Y3600
X7987Y3120
X9487Y2520
X11407Y3000
X11467Y3480
X11827Y3480
X12367Y3180
X12667Y2760
X13927Y3480
X14887Y3480
X15307Y3900
X15667Y3480
X16157Y3600
X16427Y4000
X16827Y4000
X17227Y4000
X17627Y4000
X18027Y4000
X18427Y4000
X18827Y4000
X19227Y4000
X19227Y4400
X19227Y4800
X19227Y5200
X19227Y5600
X19227Y6000
X19227Y6400
X19227Y6800
X19227Y7200
X19227Y7600
X19227Y8000
X19727Y8600
X20127Y8600
X20527Y8600
X20927Y8600
X21327Y8600
X17647Y8040
X17467Y8340
X16147Y8340
X15787Y8340
X15787Y7740
X14767Y7080
X15187Y6780
X14287Y6600
X14167Y6960
X13267Y7020
X13927Y7500
X14107Y7980
X13507Y7980
X13027Y8280
X12727Y8880
X12727Y9360
X11947Y9360
X11947Y9000
X11587Y8980
X11107Y9360
X10507Y9120
X10207Y8940
X11827Y8400
X11647Y7740
X11467Y7140
X10387Y7440
X8347Y6480
X7567Y6340
X7327Y6580
X7327Y7140
X6247Y7260
X5107Y7320
X3967Y6780
X3187Y6780
X3487Y7620
X3667Y8220
X3307Y8220
X3307Y9300
X3787Y9300
X5227Y9060
X5587Y9060
X7027Y9060
X7567Y8400
X10567Y9960
X13867Y9960
X13687Y6120
X13327Y6120
X13507Y5280
X13027Y5160
X13267Y4560
X13267Y4200
X11827Y4680
X11347Y4920
X10387Y4380
X8047Y5280
X7207Y5980
X6127Y6120
X6247Y4860
X6787Y4020
X3727Y5760
X3367Y4620
X3007Y4620
X14767Y4560
X15187Y4800
X15427Y5400
X16447Y5760
X18907Y1860
X20587Y1860
T02
X1227Y1400
X2227Y1400
X3227Y1400
X4227Y1400
X5227Y1400
X6227Y1400
X7227Y1400
X8227Y1400
X9227Y1400
X10227Y1400
X11227Y1400
X12227Y1400
X13227Y1400
X14227Y1400
X15227Y1400
X16227Y1400
X17227Y1400
X18227Y1400
X19227Y1400
X20227Y1400
X21227Y1400
X10727Y3900
X9727Y3900
X8727Y3900
X8727Y4900
X9727Y4900
X10727Y4900
X10727Y6900
X9727Y6900
X8727Y6900
X8727Y7900
X9727Y7900
X10727Y7900
X11227Y10400
X10227Y10400
X9227Y10400
X8227Y10400
X7227Y10400
X6227Y10400
X5227Y10400
X4227Y10400
X3227Y10400
X2227Y10400
X1227Y10400
X1227Y8400
X1227Y7400
X1227Y6400
X1227Y5400
X1227Y4400
X1227Y3400
X12227Y10400
X13227Y10400
X14227Y10400
X15227Y10400
X16227Y10400
X17227Y10400
X18227Y10400
X19227Y10400
X20227Y10400
X21227Y10400
M30
