G75*
%MOIN*%
%OFA0B0*%
%FSLAX24Y24*%
%IPPOS*%
%LPD*%
%AMOC8*
5,1,8,0,0,1.08239X$1,22.5*
%
%ADD10C,0.0000*%
%ADD11C,0.0100*%
%ADD12C,0.0040*%
%ADD13C,0.0050*%
%ADD14C,0.0060*%
%ADD15R,0.0256X0.0197*%
%ADD16C,0.0020*%
%ADD17C,0.0004*%
%ADD18R,0.0197X0.0128*%
%ADD19R,0.0098X0.0059*%
%ADD20R,0.0069X0.0157*%
%ADD21R,0.0079X0.0079*%
%ADD22R,0.0118X0.0118*%
%ADD23R,0.0030X0.0089*%
%ADD24R,0.0197X0.0374*%
%ADD25R,0.0180X0.0300*%
%ADD26C,0.0220*%
%ADD27C,0.0080*%
%ADD28R,0.0080X0.0330*%
%ADD29R,0.0200X0.0200*%
%ADD30C,0.0030*%
%ADD31R,0.0787X0.1575*%
%ADD32R,0.0128X0.0197*%
%ADD33R,0.0059X0.0098*%
%ADD34R,0.0157X0.0069*%
%ADD35R,0.0089X0.0030*%
%ADD36R,0.0374X0.0197*%
%ADD37R,0.0300X0.0180*%
D10*
X000727Y000900D02*
X000727Y010900D01*
X021727Y010900D01*
X021727Y000900D01*
X000727Y000900D01*
D11*
X000727Y001900D01*
X001727Y001900D01*
X001727Y000900D01*
X000727Y000900D01*
X009727Y000900D02*
X009727Y001900D01*
X011727Y001900D02*
X011727Y000900D01*
X020727Y000900D02*
X021727Y000900D01*
X021727Y001900D01*
X020727Y001900D01*
X020727Y000900D01*
X008727Y009900D02*
X008727Y010900D01*
X004727Y010900D02*
X004727Y009900D01*
D12*
X004538Y009713D02*
X004499Y009752D01*
X004383Y009752D01*
X004383Y009520D01*
X004499Y009520D01*
X004538Y009559D01*
X004538Y009713D01*
X004287Y009752D02*
X004133Y009520D01*
X004287Y009520D02*
X004133Y009752D01*
X004037Y009752D02*
X003882Y009752D01*
X003960Y009752D02*
X003960Y009520D01*
X003536Y009559D02*
X003497Y009520D01*
X003420Y009520D01*
X003381Y009559D01*
X003420Y009636D02*
X003381Y009675D01*
X003381Y009713D01*
X003420Y009752D01*
X003497Y009752D01*
X003536Y009713D01*
X003497Y009636D02*
X003536Y009597D01*
X003536Y009559D01*
X003497Y009636D02*
X003420Y009636D01*
X003286Y009752D02*
X003131Y009752D01*
X003208Y009752D02*
X003208Y009520D01*
X003035Y009520D02*
X002958Y009597D01*
X002996Y009597D02*
X002880Y009597D01*
X002880Y009520D02*
X002880Y009752D01*
X002996Y009752D01*
X003035Y009713D01*
X003035Y009636D01*
X002996Y009597D01*
X002534Y009597D02*
X002534Y009559D01*
X002495Y009520D01*
X002418Y009520D01*
X002379Y009559D01*
X002418Y009636D02*
X002495Y009636D01*
X002534Y009597D01*
X002534Y009713D02*
X002495Y009752D01*
X002418Y009752D01*
X002379Y009713D01*
X002379Y009675D01*
X002418Y009636D01*
X002284Y009752D02*
X002129Y009752D01*
X002206Y009752D02*
X002206Y009520D01*
X002033Y009559D02*
X001995Y009520D01*
X001917Y009520D01*
X001878Y009559D01*
X001878Y009713D01*
X001917Y009752D01*
X001995Y009752D01*
X002033Y009713D01*
X001532Y009713D02*
X001532Y009559D01*
X001494Y009520D01*
X001378Y009520D01*
X001378Y009752D01*
X001494Y009752D01*
X001532Y009713D01*
X001282Y009752D02*
X001127Y009520D01*
X001031Y009520D02*
X000954Y009597D01*
X000993Y009597D02*
X000877Y009597D01*
X000877Y009520D02*
X000877Y009752D01*
X000993Y009752D01*
X001031Y009713D01*
X001031Y009636D01*
X000993Y009597D01*
X001127Y009752D02*
X001282Y009520D01*
X001847Y008750D02*
X002079Y008750D01*
X002079Y008634D01*
X002040Y008595D01*
X001963Y008595D01*
X001924Y008634D01*
X001924Y008750D01*
X001924Y008673D02*
X001847Y008595D01*
X001847Y008422D02*
X002079Y008422D01*
X002079Y008345D02*
X002079Y008500D01*
X002040Y008249D02*
X002001Y008249D01*
X001963Y008210D01*
X001963Y008133D01*
X001924Y008094D01*
X001885Y008094D01*
X001847Y008133D01*
X001847Y008210D01*
X001885Y008249D01*
X002040Y008249D02*
X002079Y008210D01*
X002079Y008133D01*
X002040Y008094D01*
X002079Y007748D02*
X001847Y007748D01*
X001924Y007748D02*
X001924Y007632D01*
X001963Y007593D01*
X002040Y007593D01*
X002079Y007632D01*
X002079Y007748D01*
X001924Y007671D02*
X001847Y007593D01*
X001847Y007498D02*
X002079Y007343D01*
X002079Y007247D02*
X001847Y007247D01*
X001847Y007131D01*
X001885Y007092D01*
X002040Y007092D01*
X002079Y007131D01*
X002079Y007247D01*
X002079Y007498D02*
X001847Y007343D01*
X002079Y006746D02*
X002079Y006592D01*
X002079Y006669D02*
X001847Y006669D01*
X001847Y006496D02*
X002079Y006341D01*
X002079Y006245D02*
X001847Y006245D01*
X001847Y006129D01*
X001885Y006091D01*
X002040Y006091D01*
X002079Y006129D01*
X002079Y006245D01*
X002079Y006496D02*
X001847Y006341D01*
X001885Y005745D02*
X001847Y005706D01*
X001847Y005628D01*
X001885Y005590D01*
X001963Y005590D01*
X001963Y005667D01*
X002040Y005590D02*
X002079Y005628D01*
X002079Y005706D01*
X002040Y005745D01*
X001885Y005745D01*
X001847Y005494D02*
X002079Y005494D01*
X001847Y005339D01*
X002079Y005339D01*
X002079Y005244D02*
X002079Y005128D01*
X002040Y005089D01*
X001885Y005089D01*
X001847Y005128D01*
X001847Y005244D01*
X002079Y005244D01*
X002079Y004743D02*
X001924Y004743D01*
X001847Y004665D01*
X001924Y004588D01*
X002079Y004588D01*
X002040Y004492D02*
X001885Y004492D01*
X001847Y004454D01*
X001847Y004376D01*
X001885Y004337D01*
X001885Y004242D02*
X001847Y004203D01*
X001847Y004126D01*
X001885Y004087D01*
X001885Y004242D02*
X002040Y004242D01*
X002079Y004203D01*
X002079Y004126D01*
X002040Y004087D01*
X002040Y004337D02*
X002079Y004376D01*
X002079Y004454D01*
X002040Y004492D01*
X003087Y004370D02*
X003367Y004370D01*
X003367Y004035D02*
X003087Y004035D01*
X003087Y003570D02*
X003367Y003570D01*
X003367Y003235D02*
X003087Y003235D01*
X002079Y003201D02*
X002079Y003124D01*
X002040Y003085D01*
X001963Y003124D02*
X001963Y003201D01*
X002001Y003240D01*
X002040Y003240D01*
X002079Y003201D01*
X002079Y003336D02*
X002079Y003490D01*
X002079Y003413D02*
X001847Y003413D01*
X001885Y003586D02*
X001847Y003625D01*
X001847Y003702D01*
X001885Y003741D01*
X002040Y003741D01*
X002079Y003702D01*
X002079Y003625D01*
X002040Y003586D01*
X001885Y003240D02*
X001847Y003201D01*
X001847Y003124D01*
X001885Y003085D01*
X001924Y003085D01*
X001963Y003124D01*
X002077Y002252D02*
X002077Y002136D01*
X002154Y002175D01*
X002193Y002175D01*
X002231Y002136D01*
X002231Y002059D01*
X002193Y002020D01*
X002115Y002020D01*
X002077Y002059D01*
X002327Y002097D02*
X002405Y002020D01*
X002482Y002097D01*
X002482Y002252D01*
X002327Y002252D02*
X002327Y002097D01*
X002231Y002252D02*
X002077Y002252D01*
X001532Y002213D02*
X001532Y002059D01*
X001494Y002020D01*
X001378Y002020D01*
X001378Y002252D01*
X001494Y002252D01*
X001532Y002213D01*
X001282Y002252D02*
X001282Y002020D01*
X001127Y002252D01*
X001127Y002020D01*
X001031Y002059D02*
X001031Y002136D01*
X000954Y002136D01*
X000877Y002059D02*
X000915Y002020D01*
X000993Y002020D01*
X001031Y002059D01*
X000877Y002059D02*
X000877Y002213D01*
X000915Y002252D01*
X000993Y002252D01*
X001031Y002213D01*
X002880Y002213D02*
X002919Y002252D01*
X002996Y002252D01*
X003035Y002213D01*
X003035Y002175D01*
X002996Y002136D01*
X003035Y002097D01*
X003035Y002059D01*
X002996Y002020D01*
X002919Y002020D01*
X002880Y002059D01*
X002958Y002136D02*
X002996Y002136D01*
X003131Y002097D02*
X003208Y002020D01*
X003286Y002097D01*
X003286Y002252D01*
X003381Y002213D02*
X003420Y002252D01*
X003497Y002252D01*
X003536Y002213D01*
X003536Y002175D01*
X003497Y002136D01*
X003536Y002097D01*
X003536Y002059D01*
X003497Y002020D01*
X003420Y002020D01*
X003381Y002059D01*
X003459Y002136D02*
X003497Y002136D01*
X003131Y002097D02*
X003131Y002252D01*
X003882Y002252D02*
X003882Y002020D01*
X004037Y002020D01*
X004133Y002020D02*
X004133Y002252D01*
X004287Y002020D01*
X004287Y002252D01*
X004383Y002175D02*
X004460Y002252D01*
X004538Y002175D01*
X004538Y002020D01*
X004538Y002136D02*
X004383Y002136D01*
X004383Y002175D02*
X004383Y002020D01*
X004037Y002252D02*
X003882Y002252D01*
X003882Y002136D02*
X003960Y002136D01*
X004977Y002097D02*
X005054Y002020D01*
X005131Y002097D01*
X005131Y002252D01*
X005227Y002252D02*
X005305Y002252D01*
X005266Y002252D02*
X005266Y002020D01*
X005227Y002020D02*
X005305Y002020D01*
X005394Y002059D02*
X005433Y002020D01*
X005510Y002020D01*
X005549Y002059D01*
X005549Y002213D01*
X005510Y002252D01*
X005433Y002252D01*
X005394Y002213D01*
X005394Y002059D01*
X004977Y002097D02*
X004977Y002252D01*
X005886Y002252D02*
X005886Y002020D01*
X006002Y002020D01*
X006041Y002059D01*
X006041Y002097D01*
X006002Y002136D01*
X005886Y002136D01*
X006002Y002136D02*
X006041Y002175D01*
X006041Y002213D01*
X006002Y002252D01*
X005886Y002252D01*
X006136Y002175D02*
X006214Y002252D01*
X006291Y002175D01*
X006291Y002020D01*
X006291Y002136D02*
X006136Y002136D01*
X006136Y002175D02*
X006136Y002020D01*
X006464Y002020D02*
X006464Y002252D01*
X006387Y002252D02*
X006541Y002252D01*
X006888Y002213D02*
X006888Y002059D01*
X006926Y002020D01*
X007004Y002020D01*
X007042Y002059D01*
X007138Y002020D02*
X007138Y002252D01*
X007042Y002213D02*
X007004Y002252D01*
X006926Y002252D01*
X006888Y002213D01*
X007138Y002136D02*
X007293Y002136D01*
X007293Y002252D02*
X007293Y002020D01*
X007388Y002059D02*
X007427Y002020D01*
X007505Y002020D01*
X007543Y002059D01*
X007543Y002136D01*
X007466Y002136D01*
X007543Y002213D02*
X007505Y002252D01*
X007427Y002252D01*
X007388Y002213D01*
X007388Y002059D01*
X007889Y002020D02*
X007889Y002252D01*
X007889Y002020D02*
X008044Y002020D01*
X008140Y002020D02*
X008295Y002020D01*
X008390Y002020D02*
X008506Y002020D01*
X008545Y002059D01*
X008545Y002213D01*
X008506Y002252D01*
X008390Y002252D01*
X008390Y002020D01*
X008217Y002136D02*
X008140Y002136D01*
X008140Y002252D02*
X008140Y002020D01*
X008140Y002252D02*
X008295Y002252D01*
X008891Y002252D02*
X008891Y002020D01*
X008891Y002097D02*
X009007Y002097D01*
X009046Y002136D01*
X009046Y002213D01*
X009007Y002252D01*
X008891Y002252D01*
X008969Y002097D02*
X009046Y002020D01*
X009142Y002020D02*
X009296Y002020D01*
X009392Y002059D02*
X009431Y002020D01*
X009508Y002020D01*
X009547Y002059D01*
X009547Y002097D01*
X009508Y002136D01*
X009431Y002136D01*
X009392Y002175D01*
X009392Y002213D01*
X009431Y002252D01*
X009508Y002252D01*
X009547Y002213D01*
X009296Y002252D02*
X009142Y002252D01*
X009142Y002020D01*
X009142Y002136D02*
X009219Y002136D01*
X010077Y002020D02*
X010193Y002020D01*
X010231Y002059D01*
X010231Y002213D01*
X010193Y002252D01*
X010077Y002252D01*
X010077Y002020D01*
X010327Y002136D02*
X010482Y002136D01*
X011078Y002020D02*
X011195Y002020D01*
X011233Y002059D01*
X011233Y002213D01*
X011195Y002252D01*
X011078Y002252D01*
X011078Y002020D01*
X011329Y002136D02*
X011484Y002136D01*
X011406Y002213D02*
X011406Y002059D01*
X011977Y002020D02*
X011977Y002252D01*
X012054Y002175D01*
X012131Y002252D01*
X012131Y002020D01*
X012227Y002020D02*
X012343Y002020D01*
X012382Y002059D01*
X012382Y002097D01*
X012343Y002136D01*
X012227Y002136D01*
X012227Y002020D02*
X012227Y002252D01*
X012343Y002252D01*
X012382Y002213D01*
X012382Y002175D01*
X012343Y002136D01*
X012478Y002020D02*
X012555Y002020D01*
X012516Y002020D02*
X012516Y002252D01*
X012478Y002252D02*
X012555Y002252D01*
X012977Y002252D02*
X013054Y002252D01*
X013015Y002252D02*
X013015Y002020D01*
X012977Y002020D02*
X013054Y002020D01*
X013144Y002020D02*
X013144Y002252D01*
X013260Y002252D01*
X013298Y002213D01*
X013298Y002136D01*
X013260Y002097D01*
X013144Y002097D01*
X013221Y002097D02*
X013298Y002020D01*
X013394Y002020D02*
X013394Y002252D01*
X013510Y002252D01*
X013549Y002213D01*
X013549Y002136D01*
X013510Y002097D01*
X013394Y002097D01*
X013977Y002020D02*
X014054Y002020D01*
X014015Y002020D02*
X014015Y002252D01*
X013977Y002252D02*
X014054Y002252D01*
X014144Y002252D02*
X014260Y002252D01*
X014298Y002213D01*
X014298Y002136D01*
X014260Y002097D01*
X014144Y002097D01*
X014144Y002020D02*
X014144Y002252D01*
X014221Y002097D02*
X014298Y002020D01*
X014394Y002020D02*
X014394Y002252D01*
X014549Y002020D01*
X014549Y002252D01*
X014977Y002252D02*
X015054Y002252D01*
X015015Y002252D02*
X015015Y002020D01*
X014977Y002020D02*
X015054Y002020D01*
X015144Y002020D02*
X015298Y002020D01*
X015394Y002020D02*
X015394Y002252D01*
X015510Y002252D01*
X015549Y002213D01*
X015549Y002136D01*
X015510Y002097D01*
X015394Y002097D01*
X015144Y002020D02*
X015144Y002252D01*
X015977Y002252D02*
X016054Y002252D01*
X016015Y002252D02*
X016015Y002020D01*
X015977Y002020D02*
X016054Y002020D01*
X016144Y002020D02*
X016298Y002020D01*
X016394Y002020D02*
X016394Y002252D01*
X016549Y002020D01*
X016549Y002252D01*
X016906Y002213D02*
X016906Y002059D01*
X016944Y002020D01*
X017022Y002020D01*
X017061Y002059D01*
X017061Y002213D01*
X017022Y002252D01*
X016944Y002252D01*
X016906Y002213D01*
X017156Y002252D02*
X017272Y002252D01*
X017311Y002213D01*
X017311Y002136D01*
X017272Y002097D01*
X017156Y002097D01*
X017156Y002020D02*
X017156Y002252D01*
X017234Y002097D02*
X017311Y002020D01*
X017407Y002020D02*
X017407Y002252D01*
X017523Y002252D01*
X017561Y002213D01*
X017561Y002136D01*
X017523Y002097D01*
X017407Y002097D01*
X017908Y002059D02*
X017946Y002020D01*
X018024Y002020D01*
X018062Y002059D01*
X018062Y002213D01*
X018024Y002252D01*
X017946Y002252D01*
X017908Y002213D01*
X017908Y002059D01*
X018158Y002097D02*
X018274Y002097D01*
X018313Y002136D01*
X018313Y002213D01*
X018274Y002252D01*
X018158Y002252D01*
X018158Y002020D01*
X018235Y002097D02*
X018313Y002020D01*
X018408Y002020D02*
X018408Y002252D01*
X018563Y002020D01*
X018563Y002252D01*
X018909Y002213D02*
X018909Y002059D01*
X018948Y002020D01*
X019025Y002020D01*
X019064Y002059D01*
X019064Y002213D01*
X019025Y002252D01*
X018948Y002252D01*
X018909Y002213D01*
X019160Y002252D02*
X019160Y002020D01*
X019315Y002020D01*
X019410Y002020D02*
X019410Y002252D01*
X019526Y002252D01*
X019565Y002213D01*
X019565Y002136D01*
X019526Y002097D01*
X019410Y002097D01*
X019911Y002059D02*
X019950Y002020D01*
X020027Y002020D01*
X020066Y002059D01*
X020066Y002213D01*
X020027Y002252D01*
X019950Y002252D01*
X019911Y002213D01*
X019911Y002059D01*
X020162Y002020D02*
X020316Y002020D01*
X020412Y002020D02*
X020412Y002252D01*
X020567Y002020D01*
X020567Y002252D01*
X020777Y002175D02*
X020854Y002252D01*
X020931Y002175D01*
X020931Y002020D01*
X021027Y002059D02*
X021066Y002020D01*
X021143Y002020D01*
X021182Y002059D01*
X021182Y002136D01*
X021105Y002136D01*
X021182Y002213D02*
X021143Y002252D01*
X021066Y002252D01*
X021027Y002213D01*
X021027Y002059D01*
X020931Y002136D02*
X020777Y002136D01*
X020777Y002175D02*
X020777Y002020D01*
X021278Y002020D02*
X021278Y002252D01*
X021432Y002020D01*
X021432Y002252D01*
X021528Y002252D02*
X021644Y002252D01*
X021683Y002213D01*
X021683Y002059D01*
X021644Y002020D01*
X021528Y002020D01*
X021528Y002252D01*
X020162Y002252D02*
X020162Y002020D01*
X016144Y002020D02*
X016144Y002252D01*
X011036Y003252D02*
X010881Y003252D01*
X010959Y003252D02*
X010959Y003020D01*
X010786Y003020D02*
X010786Y003175D01*
X010708Y003252D01*
X010631Y003175D01*
X010631Y003020D01*
X010535Y003059D02*
X010496Y003020D01*
X010380Y003020D01*
X010380Y003252D01*
X010496Y003252D01*
X010535Y003213D01*
X010535Y003175D01*
X010496Y003136D01*
X010380Y003136D01*
X010496Y003136D02*
X010535Y003097D01*
X010535Y003059D01*
X010631Y003136D02*
X010786Y003136D01*
X009898Y003059D02*
X009860Y003020D01*
X009782Y003020D01*
X009744Y003059D01*
X009744Y003213D01*
X009782Y003252D01*
X009860Y003252D01*
X009898Y003213D01*
X009898Y003059D01*
X009654Y003020D02*
X009577Y003020D01*
X009615Y003020D02*
X009615Y003252D01*
X009577Y003252D02*
X009654Y003252D01*
X009032Y003175D02*
X009032Y003020D01*
X009032Y003136D02*
X008878Y003136D01*
X008878Y003175D02*
X008878Y003020D01*
X008782Y003020D02*
X008782Y003252D01*
X008878Y003175D02*
X008955Y003252D01*
X009032Y003175D01*
X008782Y003020D02*
X008627Y003252D01*
X008627Y003020D01*
X008531Y003020D02*
X008377Y003020D01*
X008377Y003252D01*
X008531Y003252D01*
X008454Y003136D02*
X008377Y003136D01*
X005491Y003626D02*
X004930Y003626D01*
X005001Y003720D02*
X004968Y003753D01*
X005001Y003720D02*
X005068Y003720D01*
X005101Y003753D01*
X005101Y003787D01*
X005068Y003820D01*
X005001Y003820D01*
X004968Y003853D01*
X004968Y003887D01*
X005001Y003920D01*
X005068Y003920D01*
X005101Y003887D01*
X005189Y003920D02*
X005289Y003920D01*
X005322Y003887D01*
X005322Y003820D01*
X005289Y003787D01*
X005189Y003787D01*
X005255Y003787D02*
X005322Y003720D01*
X005189Y003720D02*
X005189Y003920D01*
X005333Y003974D02*
X004920Y003974D01*
X004880Y003920D02*
X004880Y003753D01*
X004847Y003720D01*
X004780Y003720D01*
X004747Y003753D01*
X004747Y003920D01*
X005420Y003577D02*
X005422Y003589D01*
X005427Y003600D01*
X005435Y003609D01*
X005446Y003615D01*
X005458Y003618D01*
X005470Y003617D01*
X005482Y003613D01*
X005491Y003605D01*
X005498Y003595D01*
X005502Y003583D01*
X005502Y003571D01*
X005498Y003559D01*
X005491Y003549D01*
X005481Y003541D01*
X005470Y003537D01*
X005458Y003536D01*
X005446Y003539D01*
X005435Y003545D01*
X005427Y003554D01*
X005422Y003565D01*
X005420Y003577D01*
X005333Y003174D02*
X004920Y003174D01*
X005420Y004377D02*
X005422Y004389D01*
X005427Y004400D01*
X005435Y004409D01*
X005446Y004415D01*
X005458Y004418D01*
X005470Y004417D01*
X005482Y004413D01*
X005491Y004405D01*
X005498Y004395D01*
X005502Y004383D01*
X005502Y004371D01*
X005498Y004359D01*
X005491Y004349D01*
X005481Y004341D01*
X005470Y004337D01*
X005458Y004336D01*
X005446Y004339D01*
X005435Y004345D01*
X005427Y004354D01*
X005422Y004365D01*
X005420Y004377D01*
X005491Y004426D02*
X004930Y004426D01*
X004968Y004520D02*
X005034Y004587D01*
X005101Y004520D01*
X005101Y004720D01*
X005189Y004720D02*
X005289Y004720D01*
X005322Y004687D01*
X005322Y004620D01*
X005289Y004587D01*
X005189Y004587D01*
X005255Y004587D02*
X005322Y004520D01*
X005189Y004520D02*
X005189Y004720D01*
X004968Y004720D02*
X004968Y004520D01*
X004880Y004620D02*
X004847Y004587D01*
X004747Y004587D01*
X004747Y004520D02*
X004747Y004720D01*
X004847Y004720D01*
X004880Y004687D01*
X004880Y004620D01*
X006500Y005303D02*
X006500Y005864D01*
X006509Y005835D02*
X006511Y005847D01*
X006516Y005858D01*
X006524Y005867D01*
X006535Y005873D01*
X006547Y005876D01*
X006559Y005875D01*
X006571Y005871D01*
X006580Y005863D01*
X006587Y005853D01*
X006591Y005841D01*
X006591Y005829D01*
X006587Y005817D01*
X006580Y005807D01*
X006570Y005799D01*
X006559Y005795D01*
X006547Y005794D01*
X006535Y005797D01*
X006524Y005803D01*
X006516Y005812D01*
X006511Y005823D01*
X006509Y005835D01*
X006953Y005707D02*
X006953Y005293D01*
X007046Y005257D02*
X007046Y005190D01*
X007080Y005157D01*
X007213Y005157D01*
X007247Y005190D01*
X007247Y005257D01*
X007213Y005290D01*
X007247Y005378D02*
X007046Y005378D01*
X007080Y005290D02*
X007046Y005257D01*
X007147Y005378D02*
X007147Y005511D01*
X007247Y005511D02*
X007046Y005511D01*
X007080Y005599D02*
X007213Y005599D01*
X007247Y005632D01*
X007247Y005699D01*
X007213Y005732D01*
X007147Y005732D01*
X007147Y005666D01*
X007080Y005732D02*
X007046Y005699D01*
X007046Y005632D01*
X007080Y005599D01*
X008377Y006059D02*
X008415Y006020D01*
X008493Y006020D01*
X008531Y006059D01*
X008531Y006136D01*
X008454Y006136D01*
X008377Y006213D02*
X008377Y006059D01*
X008377Y006213D02*
X008415Y006252D01*
X008493Y006252D01*
X008531Y006213D01*
X008627Y006252D02*
X008782Y006020D01*
X008782Y006252D01*
X008878Y006252D02*
X008994Y006252D01*
X009032Y006213D01*
X009032Y006059D01*
X008994Y006020D01*
X008878Y006020D01*
X008878Y006252D01*
X008627Y006252D02*
X008627Y006020D01*
X009307Y006020D02*
X009307Y006252D01*
X009384Y006175D01*
X009461Y006252D01*
X009461Y006020D01*
X009557Y006059D02*
X009596Y006020D01*
X009673Y006020D01*
X009712Y006059D01*
X009712Y006213D01*
X009673Y006252D01*
X009596Y006252D01*
X009557Y006213D01*
X009557Y006059D01*
X009808Y006059D02*
X009846Y006020D01*
X009924Y006020D01*
X009962Y006059D01*
X009962Y006097D01*
X009924Y006136D01*
X009846Y006136D01*
X009808Y006175D01*
X009808Y006213D01*
X009846Y006252D01*
X009924Y006252D01*
X009962Y006213D01*
X010058Y006252D02*
X010135Y006252D01*
X010097Y006252D02*
X010097Y006020D01*
X010135Y006020D02*
X010058Y006020D01*
X010380Y006097D02*
X010458Y006020D01*
X010535Y006097D01*
X010535Y006252D01*
X010631Y006252D02*
X010708Y006252D01*
X010669Y006252D02*
X010669Y006020D01*
X010631Y006020D02*
X010708Y006020D01*
X010798Y006059D02*
X010836Y006020D01*
X010914Y006020D01*
X010953Y006059D01*
X010953Y006213D01*
X010914Y006252D01*
X010836Y006252D01*
X010798Y006213D01*
X010798Y006059D01*
X010380Y006097D02*
X010380Y006252D01*
X010014Y005752D02*
X010052Y005713D01*
X010052Y005675D01*
X010014Y005636D01*
X010052Y005597D01*
X010052Y005559D01*
X010014Y005520D01*
X009936Y005520D01*
X009898Y005559D01*
X009802Y005597D02*
X009725Y005520D01*
X009647Y005597D01*
X009647Y005752D01*
X009551Y005713D02*
X009551Y005675D01*
X009513Y005636D01*
X009551Y005597D01*
X009551Y005559D01*
X009513Y005520D01*
X009435Y005520D01*
X009397Y005559D01*
X009474Y005636D02*
X009513Y005636D01*
X009551Y005713D02*
X009513Y005752D01*
X009435Y005752D01*
X009397Y005713D01*
X009802Y005752D02*
X009802Y005597D01*
X009898Y005713D02*
X009936Y005752D01*
X010014Y005752D01*
X010014Y005636D02*
X009975Y005636D01*
X011396Y006664D02*
X011430Y006631D01*
X011463Y006631D01*
X011497Y006664D01*
X011497Y006731D01*
X011530Y006764D01*
X011563Y006764D01*
X011597Y006731D01*
X011597Y006664D01*
X011563Y006631D01*
X011396Y006664D02*
X011396Y006731D01*
X011430Y006764D01*
X011396Y006852D02*
X011396Y006952D01*
X011430Y006985D01*
X011497Y006985D01*
X011530Y006952D01*
X011530Y006852D01*
X011597Y006852D02*
X011396Y006852D01*
X011396Y007073D02*
X011396Y007139D01*
X011396Y007106D02*
X011597Y007106D01*
X011597Y007073D02*
X011597Y007139D01*
X011091Y008520D02*
X011013Y008520D01*
X010975Y008559D01*
X010975Y008713D01*
X011013Y008752D01*
X011091Y008752D01*
X011129Y008713D01*
X011129Y008559D01*
X011091Y008520D01*
X010879Y008559D02*
X010840Y008520D01*
X010763Y008520D01*
X010724Y008559D01*
X010763Y008636D02*
X010840Y008636D01*
X010879Y008597D01*
X010879Y008559D01*
X010763Y008636D02*
X010724Y008675D01*
X010724Y008713D01*
X010763Y008752D01*
X010840Y008752D01*
X010879Y008713D01*
X010635Y008752D02*
X010557Y008752D01*
X010596Y008752D02*
X010596Y008520D01*
X010557Y008520D02*
X010635Y008520D01*
X010461Y008520D02*
X010461Y008752D01*
X010384Y008675D01*
X010307Y008752D01*
X010307Y008520D01*
X010032Y008520D02*
X009916Y008636D01*
X009878Y008597D02*
X010032Y008752D01*
X009878Y008752D02*
X009878Y008520D01*
X009782Y008559D02*
X009743Y008520D01*
X009666Y008520D01*
X009627Y008559D01*
X009627Y008713D01*
X009666Y008752D01*
X009743Y008752D01*
X009782Y008713D01*
X009531Y008713D02*
X009493Y008752D01*
X009415Y008752D01*
X009377Y008713D01*
X009377Y008675D01*
X009415Y008636D01*
X009493Y008636D01*
X009531Y008597D01*
X009531Y008559D01*
X009493Y008520D01*
X009415Y008520D01*
X009377Y008559D01*
X009032Y008559D02*
X008994Y008520D01*
X008878Y008520D01*
X008878Y008752D01*
X008994Y008752D01*
X009032Y008713D01*
X009032Y008675D01*
X008994Y008636D01*
X008878Y008636D01*
X008782Y008597D02*
X008782Y008559D01*
X008743Y008520D01*
X008666Y008520D01*
X008627Y008559D01*
X008666Y008636D02*
X008743Y008636D01*
X008782Y008597D01*
X008782Y008713D02*
X008743Y008752D01*
X008666Y008752D01*
X008627Y008713D01*
X008627Y008675D01*
X008666Y008636D01*
X008531Y008559D02*
X008493Y008520D01*
X008415Y008520D01*
X008377Y008559D01*
X008377Y008713D01*
X008415Y008752D01*
X008493Y008752D01*
X008531Y008713D01*
X008994Y008636D02*
X009032Y008597D01*
X009032Y008559D01*
X009142Y009520D02*
X009296Y009520D01*
X009219Y009520D02*
X009219Y009752D01*
X009142Y009675D01*
X009046Y009713D02*
X009046Y009636D01*
X009007Y009597D01*
X008891Y009597D01*
X008891Y009520D02*
X008891Y009752D01*
X009007Y009752D01*
X009046Y009713D01*
X009392Y009713D02*
X009392Y009559D01*
X009547Y009713D01*
X009547Y009559D01*
X009508Y009520D01*
X009431Y009520D01*
X009392Y009559D01*
X009392Y009713D02*
X009431Y009752D01*
X009508Y009752D01*
X009547Y009713D01*
X010002Y009752D02*
X010002Y009520D01*
X010002Y009597D02*
X010118Y009597D01*
X010157Y009636D01*
X010157Y009713D01*
X010118Y009752D01*
X010002Y009752D01*
X010253Y009713D02*
X010253Y009675D01*
X010291Y009636D01*
X010408Y009636D01*
X010408Y009559D02*
X010408Y009713D01*
X010369Y009752D01*
X010291Y009752D01*
X010253Y009713D01*
X010253Y009559D02*
X010291Y009520D01*
X010369Y009520D01*
X010408Y009559D01*
X011004Y009597D02*
X011120Y009597D01*
X011159Y009636D01*
X011159Y009713D01*
X011120Y009752D01*
X011004Y009752D01*
X011004Y009520D01*
X011255Y009559D02*
X011255Y009597D01*
X011293Y009636D01*
X011371Y009636D01*
X011409Y009597D01*
X011409Y009559D01*
X011371Y009520D01*
X011293Y009520D01*
X011255Y009559D01*
X011293Y009636D02*
X011255Y009675D01*
X011255Y009713D01*
X011293Y009752D01*
X011371Y009752D01*
X011409Y009713D01*
X011409Y009675D01*
X011371Y009636D01*
X012006Y009597D02*
X012122Y009597D01*
X012161Y009636D01*
X012161Y009713D01*
X012122Y009752D01*
X012006Y009752D01*
X012006Y009520D01*
X012256Y009520D02*
X012256Y009559D01*
X012411Y009713D01*
X012411Y009752D01*
X012256Y009752D01*
X013008Y009752D02*
X013008Y009520D01*
X013008Y009597D02*
X013124Y009597D01*
X013163Y009636D01*
X013163Y009713D01*
X013124Y009752D01*
X013008Y009752D01*
X013258Y009636D02*
X013374Y009636D01*
X013413Y009597D01*
X013413Y009559D01*
X013374Y009520D01*
X013297Y009520D01*
X013258Y009559D01*
X013258Y009636D01*
X013336Y009713D01*
X013413Y009752D01*
X014010Y009752D02*
X014010Y009520D01*
X014010Y009597D02*
X014126Y009597D01*
X014164Y009636D01*
X014164Y009713D01*
X014126Y009752D01*
X014010Y009752D01*
X014260Y009752D02*
X014260Y009636D01*
X014337Y009675D01*
X014376Y009675D01*
X014415Y009636D01*
X014415Y009559D01*
X014376Y009520D01*
X014299Y009520D01*
X014260Y009559D01*
X014260Y009752D02*
X014415Y009752D01*
X015011Y009752D02*
X015011Y009520D01*
X015011Y009597D02*
X015127Y009597D01*
X015166Y009636D01*
X015166Y009713D01*
X015127Y009752D01*
X015011Y009752D01*
X015262Y009636D02*
X015417Y009636D01*
X015378Y009520D02*
X015378Y009752D01*
X015262Y009636D01*
X016013Y009597D02*
X016129Y009597D01*
X016168Y009636D01*
X016168Y009713D01*
X016129Y009752D01*
X016013Y009752D01*
X016013Y009520D01*
X016264Y009559D02*
X016302Y009520D01*
X016380Y009520D01*
X016418Y009559D01*
X016418Y009597D01*
X016380Y009636D01*
X016341Y009636D01*
X016380Y009636D02*
X016418Y009675D01*
X016418Y009713D01*
X016380Y009752D01*
X016302Y009752D01*
X016264Y009713D01*
X017015Y009752D02*
X017015Y009520D01*
X017015Y009597D02*
X017131Y009597D01*
X017170Y009636D01*
X017170Y009713D01*
X017131Y009752D01*
X017015Y009752D01*
X017265Y009713D02*
X017304Y009752D01*
X017382Y009752D01*
X017420Y009713D01*
X017420Y009675D01*
X017265Y009520D01*
X017420Y009520D01*
X018017Y009520D02*
X018017Y009752D01*
X018133Y009752D01*
X018172Y009713D01*
X018172Y009636D01*
X018133Y009597D01*
X018017Y009597D01*
X018267Y009520D02*
X018422Y009520D01*
X018345Y009520D02*
X018345Y009752D01*
X018267Y009675D01*
X019019Y009752D02*
X019019Y009520D01*
X019019Y009597D02*
X019135Y009597D01*
X019173Y009636D01*
X019173Y009713D01*
X019135Y009752D01*
X019019Y009752D01*
X019269Y009713D02*
X019269Y009559D01*
X019424Y009713D01*
X019424Y009559D01*
X019385Y009520D01*
X019308Y009520D01*
X019269Y009559D01*
X019269Y009713D02*
X019308Y009752D01*
X019385Y009752D01*
X019424Y009713D01*
X020020Y009675D02*
X020020Y009520D01*
X020020Y009636D02*
X020175Y009636D01*
X020175Y009675D02*
X020175Y009520D01*
X020271Y009520D02*
X020426Y009520D01*
X020348Y009520D02*
X020348Y009752D01*
X020271Y009675D01*
X020175Y009675D02*
X020098Y009752D01*
X020020Y009675D01*
X021022Y009675D02*
X021022Y009520D01*
X021022Y009636D02*
X021177Y009636D01*
X021177Y009675D02*
X021177Y009520D01*
X021273Y009559D02*
X021427Y009713D01*
X021427Y009559D01*
X021389Y009520D01*
X021311Y009520D01*
X021273Y009559D01*
X021273Y009713D01*
X021311Y009752D01*
X021389Y009752D01*
X021427Y009713D01*
X021177Y009675D02*
X021100Y009752D01*
X021022Y009675D01*
X008545Y009520D02*
X008545Y009752D01*
X008390Y009752D02*
X008545Y009520D01*
X008390Y009520D02*
X008390Y009752D01*
X008295Y009752D02*
X008295Y009713D01*
X008217Y009636D01*
X008217Y009520D01*
X008217Y009636D02*
X008140Y009713D01*
X008140Y009752D01*
X008044Y009713D02*
X008005Y009752D01*
X007928Y009752D01*
X007889Y009713D01*
X007889Y009675D01*
X007928Y009636D01*
X008005Y009636D01*
X008044Y009597D01*
X008044Y009559D01*
X008005Y009520D01*
X007928Y009520D01*
X007889Y009559D01*
X007543Y009520D02*
X007427Y009636D01*
X007388Y009597D02*
X007543Y009752D01*
X007388Y009752D02*
X007388Y009520D01*
X007293Y009520D02*
X007138Y009520D01*
X007138Y009752D01*
X007042Y009713D02*
X007004Y009752D01*
X006926Y009752D01*
X006888Y009713D01*
X006888Y009559D01*
X006926Y009520D01*
X007004Y009520D01*
X007042Y009559D01*
X006541Y009752D02*
X006387Y009752D01*
X006464Y009752D02*
X006464Y009520D01*
X006291Y009559D02*
X006291Y009752D01*
X006136Y009752D02*
X006136Y009559D01*
X006175Y009520D01*
X006252Y009520D01*
X006291Y009559D01*
X006041Y009559D02*
X006002Y009520D01*
X005924Y009520D01*
X005886Y009559D01*
X005886Y009713D01*
X005924Y009752D01*
X006002Y009752D01*
X006041Y009713D01*
X006041Y009559D01*
X005398Y009520D02*
X005398Y009752D01*
X005244Y009752D02*
X005398Y009520D01*
X005244Y009520D02*
X005244Y009752D01*
X005154Y009752D02*
X005077Y009752D01*
X005115Y009752D02*
X005115Y009520D01*
X005077Y009520D02*
X005154Y009520D01*
X005287Y008765D02*
X005567Y008765D01*
X005567Y008430D02*
X005287Y008430D01*
X005287Y007915D02*
X005567Y007915D01*
X005567Y007580D02*
X005287Y007580D01*
X005287Y007065D02*
X005567Y007065D01*
X005567Y006730D02*
X005287Y006730D01*
X005306Y006317D02*
X005173Y006317D01*
X005173Y006117D01*
X005306Y006117D01*
X005239Y006217D02*
X005173Y006217D01*
X005085Y006184D02*
X005085Y006150D01*
X005052Y006117D01*
X004985Y006117D01*
X004952Y006150D01*
X004985Y006217D02*
X004952Y006250D01*
X004952Y006284D01*
X004985Y006317D01*
X005052Y006317D01*
X005085Y006284D01*
X005052Y006217D02*
X005085Y006184D01*
X005052Y006217D02*
X004985Y006217D01*
X004864Y006317D02*
X004731Y006317D01*
X004731Y006117D01*
X004864Y006117D01*
X004797Y006217D02*
X004731Y006217D01*
X004643Y006217D02*
X004610Y006184D01*
X004510Y006184D01*
X004576Y006184D02*
X004643Y006117D01*
X004643Y006217D02*
X004643Y006284D01*
X004610Y006317D01*
X004510Y006317D01*
X004510Y006117D01*
X005394Y006317D02*
X005527Y006317D01*
X005460Y006317D02*
X005460Y006117D01*
X006562Y006960D02*
X006562Y007240D01*
X006897Y007240D02*
X006897Y006960D01*
D13*
X005775Y005951D02*
X005420Y005951D01*
X004633Y005951D01*
X004279Y005951D01*
X004279Y004849D01*
X005775Y004849D01*
X005775Y005951D01*
X008227Y005600D02*
X008327Y005500D01*
X008227Y005600D02*
X008327Y005700D01*
X008227Y005600D02*
X009227Y005600D01*
X010227Y005600D02*
X011227Y005600D01*
X011127Y005500D01*
X011227Y005600D02*
X011127Y005700D01*
X011300Y008370D02*
X011830Y008546D01*
X011477Y008900D01*
X011300Y008370D01*
X011316Y008418D02*
X011443Y008418D01*
X011332Y008466D02*
X011589Y008466D01*
X011734Y008515D02*
X011348Y008515D01*
X011364Y008563D02*
X011814Y008563D01*
X011765Y008612D02*
X011381Y008612D01*
X011397Y008660D02*
X011717Y008660D01*
X011668Y008709D02*
X011413Y008709D01*
X011429Y008757D02*
X011620Y008757D01*
X011571Y008806D02*
X011445Y008806D01*
X011461Y008854D02*
X011523Y008854D01*
X012322Y009030D02*
X012322Y002770D01*
X021731Y002770D01*
X021731Y009030D01*
X012322Y009030D01*
X009027Y008850D02*
X008377Y008850D01*
X002177Y008750D02*
X002177Y008100D01*
X002177Y003750D02*
X002177Y003100D01*
X007877Y002330D02*
X008527Y002330D01*
D14*
X008477Y001900D02*
X007977Y001900D01*
X007727Y001650D01*
X007727Y001150D01*
X007977Y000900D01*
X008477Y000900D01*
X008727Y001150D01*
X008977Y000900D01*
X009477Y000900D01*
X009727Y001150D01*
X009727Y001650D01*
X009477Y001900D01*
X008977Y001900D01*
X008727Y001650D01*
X008727Y001150D01*
X007727Y001150D02*
X007477Y000900D01*
X006977Y000900D01*
X006727Y001150D01*
X006477Y000900D01*
X005977Y000900D01*
X005727Y001150D01*
X005477Y000900D01*
X004977Y000900D01*
X004727Y001150D01*
X004477Y000900D01*
X003977Y000900D01*
X003727Y001150D01*
X003477Y000900D01*
X002977Y000900D01*
X002727Y001150D01*
X002477Y000900D01*
X001977Y000900D01*
X001727Y001150D01*
X001477Y000900D01*
X000977Y000900D01*
X000727Y001150D01*
X000727Y001650D01*
X000977Y001900D01*
X001477Y001900D01*
X001727Y001650D01*
X001977Y001900D01*
X002477Y001900D01*
X002727Y001650D01*
X002727Y001150D01*
X003727Y001150D02*
X003727Y001650D01*
X003977Y001900D01*
X004477Y001900D01*
X004727Y001650D01*
X004977Y001900D01*
X005477Y001900D01*
X005727Y001650D01*
X005727Y001150D01*
X006727Y001150D02*
X006727Y001650D01*
X006977Y001900D01*
X007477Y001900D01*
X007727Y001650D01*
X008477Y001900D02*
X008727Y001650D01*
X009727Y001650D02*
X009727Y001150D01*
X009977Y000900D01*
X010477Y000900D01*
X010727Y001150D01*
X010977Y000900D01*
X011477Y000900D01*
X011727Y001150D01*
X011727Y001650D01*
X011477Y001900D01*
X010977Y001900D01*
X010727Y001650D01*
X010727Y001150D01*
X011727Y001150D02*
X011727Y001650D01*
X011977Y001900D01*
X012477Y001900D01*
X012727Y001650D01*
X012977Y001900D01*
X013477Y001900D01*
X013727Y001650D01*
X013977Y001900D01*
X014477Y001900D01*
X014727Y001650D01*
X014977Y001900D01*
X015477Y001900D01*
X015727Y001650D01*
X015977Y001900D01*
X016477Y001900D01*
X016727Y001650D01*
X016977Y001900D01*
X017477Y001900D01*
X017727Y001650D01*
X017977Y001900D01*
X018477Y001900D01*
X018727Y001650D01*
X018977Y001900D01*
X019477Y001900D01*
X019727Y001650D01*
X019977Y001900D01*
X020477Y001900D01*
X020727Y001650D01*
X020977Y001900D01*
X021477Y001900D01*
X021727Y001650D01*
X021727Y001150D01*
X021477Y000900D01*
X020977Y000900D01*
X020727Y001150D01*
X020477Y000900D01*
X019977Y000900D01*
X019727Y001150D01*
X019727Y001650D01*
X020727Y001650D02*
X020727Y001150D01*
X019727Y001150D02*
X019477Y000900D01*
X018977Y000900D01*
X018727Y001150D01*
X018477Y000900D01*
X017977Y000900D01*
X017727Y001150D01*
X017477Y000900D01*
X016977Y000900D01*
X016727Y001150D01*
X016727Y001650D01*
X017727Y001650D02*
X017727Y001150D01*
X018727Y001150D02*
X018727Y001650D01*
X016727Y001150D02*
X016477Y000900D01*
X015977Y000900D01*
X015727Y001150D01*
X015477Y000900D01*
X014977Y000900D01*
X014727Y001150D01*
X014477Y000900D01*
X013977Y000900D01*
X013727Y001150D01*
X013727Y001650D01*
X012727Y001650D02*
X012727Y001150D01*
X012477Y000900D01*
X011977Y000900D01*
X011727Y001150D01*
X012727Y001150D02*
X012977Y000900D01*
X013477Y000900D01*
X013727Y001150D01*
X014727Y001150D02*
X014727Y001650D01*
X015727Y001650D02*
X015727Y001150D01*
X010727Y001650D02*
X010477Y001900D01*
X009977Y001900D01*
X009727Y001650D01*
X006727Y001650D02*
X006477Y001900D01*
X005977Y001900D01*
X005727Y001650D01*
X004727Y001650D02*
X004727Y001150D01*
X003727Y001650D02*
X003477Y001900D01*
X002977Y001900D01*
X002727Y001650D01*
X001727Y001650D02*
X001727Y001150D01*
X001477Y002900D02*
X000977Y002900D01*
X000727Y003150D01*
X000727Y003650D01*
X000977Y003900D01*
X000727Y004150D01*
X000727Y004650D01*
X000977Y004900D01*
X000727Y005150D01*
X000727Y005650D01*
X000977Y005900D01*
X000727Y006150D01*
X000727Y006650D01*
X000977Y006900D01*
X000727Y007150D01*
X000727Y007650D01*
X000977Y007900D01*
X000727Y008150D01*
X000727Y008650D01*
X000977Y008900D01*
X001477Y008900D01*
X001727Y008650D01*
X001727Y008150D01*
X001477Y007900D01*
X001727Y007650D01*
X001727Y007150D01*
X001477Y006900D01*
X000977Y006900D01*
X001477Y006900D02*
X001727Y006650D01*
X001727Y006150D01*
X001477Y005900D01*
X001727Y005650D01*
X001727Y005150D01*
X001477Y004900D01*
X001727Y004650D01*
X001727Y004150D01*
X001477Y003900D01*
X001727Y003650D01*
X001727Y003150D01*
X001477Y002900D01*
X001477Y003900D02*
X000977Y003900D01*
X002858Y004840D02*
X002858Y004877D01*
X002858Y004840D02*
X002858Y005960D01*
X002858Y005923D01*
X002858Y005960D02*
X003496Y005960D01*
X003496Y005923D01*
X003496Y005960D02*
X003496Y004840D01*
X003496Y004877D01*
X003496Y004840D02*
X002858Y004840D01*
X002858Y005194D02*
X002858Y005606D01*
X003496Y005606D02*
X003496Y005569D01*
X003496Y005231D02*
X003496Y005194D01*
X001477Y004900D02*
X000977Y004900D01*
X000977Y005900D02*
X001477Y005900D01*
X002537Y006601D02*
X004517Y006601D01*
X004517Y008399D01*
X002537Y008399D01*
X002537Y006601D01*
X001477Y007900D02*
X000977Y007900D01*
X003987Y007980D02*
X003989Y008006D01*
X003995Y008032D01*
X004004Y008056D01*
X004017Y008079D01*
X004033Y008100D01*
X004052Y008118D01*
X004073Y008134D01*
X004097Y008146D01*
X004121Y008154D01*
X004147Y008159D01*
X004174Y008160D01*
X004200Y008157D01*
X004225Y008150D01*
X004249Y008140D01*
X004272Y008126D01*
X004292Y008110D01*
X004309Y008090D01*
X004324Y008068D01*
X004335Y008044D01*
X004343Y008019D01*
X004347Y007993D01*
X004347Y007967D01*
X004343Y007941D01*
X004335Y007916D01*
X004324Y007892D01*
X004309Y007870D01*
X004292Y007850D01*
X004272Y007834D01*
X004249Y007820D01*
X004225Y007810D01*
X004200Y007803D01*
X004174Y007800D01*
X004147Y007801D01*
X004121Y007806D01*
X004097Y007814D01*
X004073Y007826D01*
X004052Y007842D01*
X004033Y007860D01*
X004017Y007881D01*
X004004Y007904D01*
X003995Y007928D01*
X003989Y007954D01*
X003987Y007980D01*
X006327Y008260D02*
X006427Y008240D01*
X006467Y008150D01*
X006407Y008060D01*
X006477Y008000D01*
X006557Y008060D01*
X006597Y008040D01*
X006657Y008200D01*
X006607Y008180D02*
X006577Y008080D01*
X006487Y008030D01*
X006437Y008060D01*
X006497Y008160D01*
X006447Y008270D01*
X006347Y008290D01*
X006347Y008320D01*
X006447Y008360D01*
X006487Y008470D01*
X006437Y008560D01*
X006477Y008590D01*
X006557Y008530D01*
X006667Y008590D01*
X006697Y008680D01*
X006747Y008680D01*
X006777Y008570D01*
X006867Y008530D01*
X006947Y008590D01*
X006997Y008550D01*
X006947Y008470D01*
X006997Y008350D01*
X007077Y008330D01*
X007087Y008280D01*
X006997Y008260D01*
X006947Y008150D01*
X006987Y008070D01*
X006947Y008040D01*
X006857Y008090D01*
X006827Y008190D01*
X006887Y008290D01*
X006847Y008400D01*
X006737Y008460D01*
X006607Y008420D01*
X006567Y008290D01*
X006607Y008180D01*
X006599Y008154D02*
X006493Y008154D01*
X006473Y008213D02*
X006595Y008213D01*
X006574Y008271D02*
X006442Y008271D01*
X006370Y008330D02*
X006579Y008330D01*
X006597Y008388D02*
X006457Y008388D01*
X006437Y008370D02*
X006467Y008460D01*
X006407Y008550D01*
X006477Y008620D01*
X006567Y008550D01*
X006647Y008590D01*
X006677Y008700D01*
X006767Y008700D01*
X006787Y008590D01*
X006867Y008550D01*
X006957Y008620D01*
X007027Y008550D01*
X006967Y008460D01*
X007007Y008370D01*
X007107Y008350D01*
X007107Y008260D01*
X007007Y008240D01*
X006967Y008150D01*
X007027Y008060D01*
X006957Y008000D01*
X006877Y008060D01*
X006837Y008040D01*
X006777Y008200D01*
X006840Y008213D02*
X006975Y008213D01*
X006948Y008154D02*
X006837Y008154D01*
X006855Y008096D02*
X006974Y008096D01*
X006581Y008096D02*
X006458Y008096D01*
X006475Y008037D02*
X006499Y008037D01*
X006327Y008260D02*
X006327Y008350D01*
X006437Y008370D01*
X006478Y008447D02*
X006693Y008447D01*
X006761Y008447D02*
X006956Y008447D01*
X006969Y008505D02*
X006467Y008505D01*
X006441Y008564D02*
X006512Y008564D01*
X006618Y008564D02*
X006791Y008564D01*
X006762Y008622D02*
X006677Y008622D01*
X006911Y008564D02*
X006980Y008564D01*
X006981Y008388D02*
X006851Y008388D01*
X006872Y008330D02*
X007077Y008330D01*
X007046Y008271D02*
X006875Y008271D01*
X006777Y008200D02*
X006794Y008212D01*
X006809Y008227D01*
X006822Y008244D01*
X006831Y008263D01*
X006836Y008284D01*
X006838Y008305D01*
X006836Y008326D01*
X006831Y008346D01*
X006822Y008365D01*
X006810Y008383D01*
X006795Y008398D01*
X006778Y008410D01*
X006758Y008419D01*
X006738Y008424D01*
X006717Y008426D01*
X006696Y008424D01*
X006676Y008419D01*
X006656Y008410D01*
X006639Y008398D01*
X006624Y008383D01*
X006612Y008365D01*
X006603Y008346D01*
X006598Y008326D01*
X006596Y008305D01*
X006598Y008284D01*
X006603Y008263D01*
X006612Y008244D01*
X006625Y008227D01*
X006640Y008212D01*
X006657Y008200D01*
X006477Y009900D02*
X005977Y009900D01*
X005727Y010150D01*
X005477Y009900D01*
X004977Y009900D01*
X004727Y010150D01*
X004477Y009900D01*
X003977Y009900D01*
X003727Y010150D01*
X003477Y009900D01*
X002977Y009900D01*
X002727Y010150D01*
X002477Y009900D01*
X001977Y009900D01*
X001727Y010150D01*
X001477Y009900D01*
X000977Y009900D01*
X000727Y010150D01*
X000727Y010650D01*
X000977Y010900D01*
X001477Y010900D01*
X001727Y010650D01*
X001977Y010900D01*
X002477Y010900D01*
X002727Y010650D01*
X002727Y010150D01*
X002727Y010650D02*
X002977Y010900D01*
X003477Y010900D01*
X003727Y010650D01*
X003977Y010900D01*
X004477Y010900D01*
X004727Y010650D01*
X004727Y010150D01*
X004727Y010650D01*
X004977Y010900D01*
X005477Y010900D01*
X005727Y010650D01*
X005977Y010900D01*
X006477Y010900D01*
X006727Y010650D01*
X006727Y010150D01*
X006477Y009900D01*
X006727Y010150D02*
X006977Y009900D01*
X007477Y009900D01*
X007727Y010150D01*
X007977Y009900D01*
X008477Y009900D01*
X008727Y010150D01*
X008727Y010650D01*
X008977Y010900D01*
X009477Y010900D01*
X009727Y010650D01*
X009977Y010900D01*
X010477Y010900D01*
X010727Y010650D01*
X010977Y010900D01*
X011477Y010900D01*
X011727Y010650D01*
X011977Y010900D01*
X012477Y010900D01*
X012727Y010650D01*
X012977Y010900D01*
X013477Y010900D01*
X013727Y010650D01*
X013977Y010900D01*
X014477Y010900D01*
X014727Y010650D01*
X014977Y010900D01*
X015477Y010900D01*
X015727Y010650D01*
X015977Y010900D01*
X016477Y010900D01*
X016727Y010650D01*
X016977Y010900D01*
X017477Y010900D01*
X017727Y010650D01*
X017977Y010900D01*
X018477Y010900D01*
X018727Y010650D01*
X018977Y010900D01*
X019477Y010900D01*
X019727Y010650D01*
X019977Y010900D01*
X020477Y010900D01*
X020727Y010650D01*
X020977Y010900D01*
X021477Y010900D01*
X021727Y010650D01*
X021727Y010150D01*
X021477Y009900D01*
X020977Y009900D01*
X020727Y010150D01*
X020477Y009900D01*
X019977Y009900D01*
X019727Y010150D01*
X019727Y010650D01*
X019727Y010150D02*
X019477Y009900D01*
X018977Y009900D01*
X018727Y010150D01*
X018477Y009900D01*
X017977Y009900D01*
X017727Y010150D01*
X017477Y009900D01*
X016977Y009900D01*
X016727Y010150D01*
X016727Y010650D01*
X016727Y010150D02*
X016477Y009900D01*
X015977Y009900D01*
X015727Y010150D01*
X015477Y009900D01*
X014977Y009900D01*
X014727Y010150D01*
X014477Y009900D01*
X013977Y009900D01*
X013727Y010150D01*
X013727Y010650D01*
X013727Y010150D02*
X013477Y009900D01*
X012977Y009900D01*
X012727Y010150D01*
X012477Y009900D01*
X011977Y009900D01*
X011727Y010150D01*
X011477Y009900D01*
X010977Y009900D01*
X010727Y010150D01*
X010727Y010650D01*
X010727Y010150D02*
X010477Y009900D01*
X009977Y009900D01*
X009727Y010150D01*
X009477Y009900D01*
X008977Y009900D01*
X008727Y010150D01*
X008727Y010650D01*
X008477Y010900D01*
X007977Y010900D01*
X007727Y010650D01*
X007727Y010150D01*
X007727Y010650D02*
X007477Y010900D01*
X006977Y010900D01*
X006727Y010650D01*
X005727Y010650D02*
X005727Y010150D01*
X003727Y010150D02*
X003727Y010650D01*
X001727Y010650D02*
X001727Y010150D01*
X009727Y010150D02*
X009727Y010650D01*
X011727Y010650D02*
X011727Y010150D01*
X012727Y010150D02*
X012727Y010650D01*
X014727Y010650D02*
X014727Y010150D01*
X015727Y010150D02*
X015727Y010650D01*
X017727Y010650D02*
X017727Y010150D01*
X018727Y010150D02*
X018727Y010650D01*
X020727Y010650D02*
X020727Y010150D01*
X016671Y006827D02*
X016671Y006721D01*
X016671Y006507D02*
X016671Y006080D01*
X016565Y006080D02*
X016778Y006080D01*
X016994Y006187D02*
X017101Y006080D01*
X017421Y006080D01*
X017421Y005973D02*
X017421Y006507D01*
X017101Y006507D01*
X016994Y006400D01*
X016994Y006187D01*
X017315Y005866D02*
X017421Y005973D01*
X017315Y005866D02*
X017208Y005866D01*
X016993Y005671D02*
X017206Y005457D01*
X017206Y005030D01*
X016779Y005030D02*
X016779Y005457D01*
X016993Y005671D01*
X016779Y005350D02*
X017206Y005350D01*
X016562Y005350D02*
X016135Y005350D01*
X015917Y005457D02*
X015917Y005564D01*
X015811Y005671D01*
X015597Y005671D01*
X015490Y005564D01*
X015273Y005564D02*
X015273Y005457D01*
X015166Y005350D01*
X015273Y005244D01*
X015273Y005137D01*
X015166Y005030D01*
X014953Y005030D01*
X014846Y005137D01*
X015059Y005350D02*
X015166Y005350D01*
X015273Y005564D02*
X015166Y005671D01*
X014953Y005671D01*
X014846Y005564D01*
X014628Y005671D02*
X014201Y005671D01*
X014415Y005671D02*
X014415Y005030D01*
X013984Y005030D02*
X013984Y005671D01*
X013557Y005671D02*
X013557Y005030D01*
X013770Y005244D01*
X013984Y005030D01*
X015490Y005030D02*
X015917Y005457D01*
X015917Y005030D02*
X015490Y005030D01*
X016134Y005866D02*
X016240Y005866D01*
X016347Y005973D01*
X016347Y006507D01*
X016027Y006507D01*
X015920Y006400D01*
X015920Y006187D01*
X016027Y006080D01*
X016347Y006080D01*
X016565Y006507D02*
X016671Y006507D01*
X015702Y006400D02*
X015702Y006294D01*
X015275Y006294D01*
X015275Y006400D02*
X015275Y006187D01*
X015382Y006080D01*
X015596Y006080D01*
X015702Y006400D02*
X015596Y006507D01*
X015382Y006507D01*
X015275Y006400D01*
X015058Y006507D02*
X015058Y006080D01*
X014738Y006080D01*
X014631Y006187D01*
X014631Y006507D01*
X014308Y006721D02*
X014201Y006721D01*
X014308Y006721D02*
X014308Y006080D01*
X014201Y006080D02*
X014415Y006080D01*
X013984Y006187D02*
X013984Y006294D01*
X013877Y006400D01*
X013557Y006400D01*
X013877Y006400D02*
X013984Y006507D01*
X013984Y006614D01*
X013877Y006721D01*
X013557Y006721D01*
X013557Y006080D01*
X013877Y006080D01*
X013984Y006187D01*
X017639Y006187D02*
X017746Y006080D01*
X018066Y006080D01*
X018066Y006400D01*
X017959Y006507D01*
X017746Y006507D01*
X017746Y006294D02*
X018066Y006294D01*
X017746Y006294D02*
X017639Y006187D01*
D15*
X003639Y005400D03*
X002714Y005026D03*
X002714Y005774D03*
D16*
X003596Y005091D02*
X003633Y005128D01*
X003670Y005128D01*
X003817Y004981D01*
X003817Y005128D01*
X003596Y005091D02*
X003596Y005018D01*
X003633Y004981D01*
X003596Y004907D02*
X003780Y004907D01*
X003817Y004870D01*
X003817Y004797D01*
X003780Y004760D01*
X003596Y004760D01*
X003181Y004730D02*
X003181Y004510D01*
X003108Y004510D02*
X003254Y004510D01*
X003033Y004510D02*
X002960Y004583D01*
X002997Y004583D02*
X002887Y004583D01*
X002887Y004510D02*
X002887Y004730D01*
X002997Y004730D01*
X003033Y004693D01*
X003033Y004620D01*
X002997Y004583D01*
X003108Y004657D02*
X003181Y004730D01*
X003144Y003930D02*
X003108Y003893D01*
X003144Y003930D02*
X003218Y003930D01*
X003254Y003893D01*
X003254Y003857D01*
X003108Y003710D01*
X003254Y003710D01*
X003033Y003710D02*
X002960Y003783D01*
X002997Y003783D02*
X002887Y003783D01*
X002887Y003710D02*
X002887Y003930D01*
X002997Y003930D01*
X003033Y003893D01*
X003033Y003820D01*
X002997Y003783D01*
X005123Y006410D02*
X005197Y006410D01*
X005233Y006447D01*
X005308Y006410D02*
X005454Y006410D01*
X005381Y006410D02*
X005381Y006630D01*
X005308Y006557D01*
X005233Y006593D02*
X005197Y006630D01*
X005123Y006630D01*
X005087Y006593D01*
X005087Y006447D01*
X005123Y006410D01*
X005123Y007260D02*
X005197Y007260D01*
X005233Y007297D01*
X005308Y007260D02*
X005454Y007407D01*
X005454Y007443D01*
X005418Y007480D01*
X005344Y007480D01*
X005308Y007443D01*
X005233Y007443D02*
X005197Y007480D01*
X005123Y007480D01*
X005087Y007443D01*
X005087Y007297D01*
X005123Y007260D01*
X005308Y007260D02*
X005454Y007260D01*
X005454Y008110D02*
X005308Y008110D01*
X005381Y008110D02*
X005381Y008330D01*
X005308Y008257D01*
X005087Y008330D02*
X005087Y008110D01*
X005233Y008110D01*
X004697Y008525D02*
X004697Y008598D01*
X004660Y008635D01*
X004476Y008635D01*
X004513Y008709D02*
X004476Y008746D01*
X004476Y008819D01*
X004513Y008856D01*
X004550Y008856D01*
X004587Y008819D01*
X004623Y008856D01*
X004660Y008856D01*
X004697Y008819D01*
X004697Y008746D01*
X004660Y008709D01*
X004587Y008782D02*
X004587Y008819D01*
X004697Y008525D02*
X004660Y008488D01*
X004476Y008488D01*
X007036Y007349D02*
X007036Y007276D01*
X007073Y007239D01*
X007073Y007165D02*
X007147Y007165D01*
X007183Y007128D01*
X007183Y007018D01*
X007183Y007091D02*
X007257Y007165D01*
X007220Y007239D02*
X007257Y007276D01*
X007257Y007349D01*
X007220Y007386D01*
X007183Y007386D01*
X007147Y007349D01*
X007147Y007312D01*
X007147Y007349D02*
X007110Y007386D01*
X007073Y007386D01*
X007036Y007349D01*
X007073Y007165D02*
X007036Y007128D01*
X007036Y007018D01*
X007257Y007018D01*
D17*
X006572Y005893D02*
X006608Y005893D01*
X006607Y005892D02*
X006609Y005871D01*
X006615Y005851D01*
X006624Y005833D01*
X006636Y005816D01*
X006651Y005802D01*
X006668Y005790D01*
X006686Y005781D01*
X006706Y005776D01*
X006727Y005774D01*
X006748Y005776D01*
X006768Y005781D01*
X006786Y005790D01*
X006803Y005802D01*
X006818Y005816D01*
X006830Y005833D01*
X006839Y005851D01*
X006845Y005871D01*
X006847Y005892D01*
X006882Y005893D01*
X006883Y005892D01*
X006881Y005868D01*
X006875Y005844D01*
X006865Y005822D01*
X006852Y005801D01*
X006837Y005783D01*
X006818Y005767D01*
X006797Y005755D01*
X006775Y005746D01*
X006751Y005740D01*
X006727Y005738D01*
X006703Y005740D01*
X006679Y005746D01*
X006657Y005755D01*
X006636Y005767D01*
X006617Y005783D01*
X006602Y005801D01*
X006589Y005822D01*
X006579Y005844D01*
X006573Y005868D01*
X006571Y005892D01*
X006574Y005892D01*
X006576Y005868D01*
X006582Y005845D01*
X006591Y005823D01*
X006604Y005803D01*
X006620Y005785D01*
X006638Y005770D01*
X006658Y005757D01*
X006680Y005748D01*
X006703Y005743D01*
X006727Y005741D01*
X006751Y005743D01*
X006774Y005748D01*
X006796Y005757D01*
X006816Y005770D01*
X006834Y005785D01*
X006850Y005803D01*
X006863Y005823D01*
X006872Y005845D01*
X006878Y005868D01*
X006880Y005892D01*
X006877Y005892D01*
X006875Y005869D01*
X006869Y005846D01*
X006860Y005825D01*
X006848Y005805D01*
X006832Y005787D01*
X006815Y005772D01*
X006795Y005760D01*
X006773Y005751D01*
X006750Y005746D01*
X006727Y005744D01*
X006704Y005746D01*
X006681Y005751D01*
X006659Y005760D01*
X006639Y005772D01*
X006622Y005787D01*
X006606Y005805D01*
X006594Y005825D01*
X006585Y005846D01*
X006579Y005869D01*
X006577Y005892D01*
X006580Y005892D01*
X006582Y005869D01*
X006588Y005847D01*
X006597Y005826D01*
X006609Y005807D01*
X006624Y005789D01*
X006641Y005775D01*
X006661Y005763D01*
X006682Y005754D01*
X006704Y005749D01*
X006727Y005747D01*
X006750Y005749D01*
X006772Y005754D01*
X006793Y005763D01*
X006813Y005775D01*
X006830Y005789D01*
X006845Y005807D01*
X006857Y005826D01*
X006866Y005847D01*
X006872Y005869D01*
X006874Y005892D01*
X006871Y005892D01*
X006869Y005869D01*
X006863Y005846D01*
X006853Y005824D01*
X006840Y005805D01*
X006824Y005787D01*
X006805Y005773D01*
X006784Y005762D01*
X006762Y005754D01*
X006739Y005750D01*
X006715Y005750D01*
X006692Y005754D01*
X006670Y005762D01*
X006649Y005773D01*
X006630Y005787D01*
X006614Y005805D01*
X006601Y005824D01*
X006591Y005846D01*
X006585Y005869D01*
X006583Y005892D01*
X006586Y005892D01*
X006588Y005869D01*
X006594Y005847D01*
X006604Y005826D01*
X006616Y005806D01*
X006632Y005790D01*
X006650Y005776D01*
X006671Y005765D01*
X006693Y005757D01*
X006715Y005753D01*
X006739Y005753D01*
X006761Y005757D01*
X006783Y005765D01*
X006804Y005776D01*
X006822Y005790D01*
X006838Y005806D01*
X006850Y005826D01*
X006860Y005847D01*
X006866Y005869D01*
X006868Y005892D01*
X006865Y005892D01*
X006863Y005870D01*
X006857Y005848D01*
X006848Y005827D01*
X006835Y005808D01*
X006820Y005792D01*
X006802Y005778D01*
X006782Y005767D01*
X006761Y005760D01*
X006738Y005756D01*
X006716Y005756D01*
X006693Y005760D01*
X006672Y005767D01*
X006652Y005778D01*
X006634Y005792D01*
X006619Y005808D01*
X006606Y005827D01*
X006597Y005848D01*
X006591Y005870D01*
X006589Y005892D01*
X006592Y005892D01*
X006594Y005870D01*
X006600Y005849D01*
X006609Y005829D01*
X006621Y005810D01*
X006636Y005794D01*
X006654Y005781D01*
X006673Y005770D01*
X006694Y005763D01*
X006716Y005759D01*
X006738Y005759D01*
X006760Y005763D01*
X006781Y005770D01*
X006800Y005781D01*
X006818Y005794D01*
X006833Y005810D01*
X006845Y005829D01*
X006854Y005849D01*
X006860Y005870D01*
X006862Y005892D01*
X006859Y005892D01*
X006857Y005871D01*
X006851Y005850D01*
X006842Y005830D01*
X006830Y005812D01*
X006816Y005796D01*
X006799Y005783D01*
X006780Y005773D01*
X006759Y005766D01*
X006738Y005762D01*
X006716Y005762D01*
X006695Y005766D01*
X006674Y005773D01*
X006655Y005783D01*
X006638Y005796D01*
X006624Y005812D01*
X006612Y005830D01*
X006603Y005850D01*
X006597Y005871D01*
X006595Y005892D01*
X006598Y005892D01*
X006600Y005870D01*
X006606Y005848D01*
X006616Y005828D01*
X006629Y005810D01*
X006645Y005795D01*
X006663Y005782D01*
X006683Y005773D01*
X006705Y005767D01*
X006727Y005765D01*
X006749Y005767D01*
X006771Y005773D01*
X006791Y005782D01*
X006809Y005795D01*
X006825Y005810D01*
X006838Y005828D01*
X006848Y005848D01*
X006854Y005870D01*
X006856Y005892D01*
X006853Y005892D01*
X006851Y005870D01*
X006845Y005849D01*
X006835Y005830D01*
X006823Y005812D01*
X006807Y005797D01*
X006789Y005785D01*
X006770Y005775D01*
X006749Y005770D01*
X006727Y005768D01*
X006705Y005770D01*
X006684Y005775D01*
X006665Y005785D01*
X006647Y005797D01*
X006631Y005812D01*
X006619Y005830D01*
X006609Y005849D01*
X006603Y005870D01*
X006601Y005892D01*
X006604Y005892D01*
X006606Y005871D01*
X006612Y005850D01*
X006621Y005831D01*
X006633Y005814D01*
X006649Y005799D01*
X006666Y005787D01*
X006685Y005778D01*
X006706Y005773D01*
X006727Y005771D01*
X006748Y005773D01*
X006769Y005778D01*
X006788Y005787D01*
X006805Y005799D01*
X006821Y005814D01*
X006833Y005831D01*
X006842Y005850D01*
X006848Y005871D01*
X006850Y005892D01*
X006882Y005107D02*
X006846Y005107D01*
X006847Y005108D02*
X006845Y005129D01*
X006839Y005149D01*
X006830Y005167D01*
X006818Y005184D01*
X006803Y005198D01*
X006786Y005210D01*
X006768Y005219D01*
X006748Y005224D01*
X006727Y005226D01*
X006706Y005224D01*
X006686Y005219D01*
X006668Y005210D01*
X006651Y005198D01*
X006636Y005184D01*
X006624Y005167D01*
X006615Y005149D01*
X006609Y005129D01*
X006607Y005108D01*
X006572Y005107D01*
X006571Y005108D01*
X006573Y005132D01*
X006579Y005156D01*
X006589Y005178D01*
X006602Y005199D01*
X006617Y005217D01*
X006636Y005233D01*
X006657Y005245D01*
X006679Y005254D01*
X006703Y005260D01*
X006727Y005262D01*
X006751Y005260D01*
X006775Y005254D01*
X006797Y005245D01*
X006818Y005233D01*
X006837Y005217D01*
X006852Y005199D01*
X006865Y005178D01*
X006875Y005156D01*
X006881Y005132D01*
X006883Y005108D01*
X006880Y005108D01*
X006878Y005132D01*
X006872Y005155D01*
X006863Y005177D01*
X006850Y005197D01*
X006834Y005215D01*
X006816Y005230D01*
X006796Y005243D01*
X006774Y005252D01*
X006751Y005257D01*
X006727Y005259D01*
X006703Y005257D01*
X006680Y005252D01*
X006658Y005243D01*
X006638Y005230D01*
X006620Y005215D01*
X006604Y005197D01*
X006591Y005177D01*
X006582Y005155D01*
X006576Y005132D01*
X006574Y005108D01*
X006577Y005108D01*
X006579Y005131D01*
X006585Y005154D01*
X006594Y005175D01*
X006606Y005195D01*
X006622Y005213D01*
X006639Y005228D01*
X006659Y005240D01*
X006681Y005249D01*
X006704Y005254D01*
X006727Y005256D01*
X006750Y005254D01*
X006773Y005249D01*
X006795Y005240D01*
X006815Y005228D01*
X006832Y005213D01*
X006848Y005195D01*
X006860Y005175D01*
X006869Y005154D01*
X006875Y005131D01*
X006877Y005108D01*
X006874Y005108D01*
X006872Y005131D01*
X006866Y005153D01*
X006857Y005174D01*
X006845Y005193D01*
X006830Y005211D01*
X006813Y005225D01*
X006793Y005237D01*
X006772Y005246D01*
X006750Y005251D01*
X006727Y005253D01*
X006704Y005251D01*
X006682Y005246D01*
X006661Y005237D01*
X006641Y005225D01*
X006624Y005211D01*
X006609Y005193D01*
X006597Y005174D01*
X006588Y005153D01*
X006582Y005131D01*
X006580Y005108D01*
X006583Y005108D01*
X006585Y005131D01*
X006591Y005154D01*
X006601Y005176D01*
X006614Y005195D01*
X006630Y005213D01*
X006649Y005227D01*
X006670Y005238D01*
X006692Y005246D01*
X006715Y005250D01*
X006739Y005250D01*
X006762Y005246D01*
X006784Y005238D01*
X006805Y005227D01*
X006824Y005213D01*
X006840Y005195D01*
X006853Y005176D01*
X006863Y005154D01*
X006869Y005131D01*
X006871Y005108D01*
X006868Y005108D01*
X006866Y005131D01*
X006860Y005153D01*
X006850Y005174D01*
X006838Y005194D01*
X006822Y005210D01*
X006804Y005224D01*
X006783Y005235D01*
X006761Y005243D01*
X006739Y005247D01*
X006715Y005247D01*
X006693Y005243D01*
X006671Y005235D01*
X006650Y005224D01*
X006632Y005210D01*
X006616Y005194D01*
X006604Y005174D01*
X006594Y005153D01*
X006588Y005131D01*
X006586Y005108D01*
X006589Y005108D01*
X006591Y005130D01*
X006597Y005152D01*
X006606Y005173D01*
X006619Y005192D01*
X006634Y005208D01*
X006652Y005222D01*
X006672Y005233D01*
X006693Y005240D01*
X006716Y005244D01*
X006738Y005244D01*
X006761Y005240D01*
X006782Y005233D01*
X006802Y005222D01*
X006820Y005208D01*
X006835Y005192D01*
X006848Y005173D01*
X006857Y005152D01*
X006863Y005130D01*
X006865Y005108D01*
X006862Y005108D01*
X006860Y005130D01*
X006854Y005151D01*
X006845Y005171D01*
X006833Y005190D01*
X006818Y005206D01*
X006800Y005219D01*
X006781Y005230D01*
X006760Y005237D01*
X006738Y005241D01*
X006716Y005241D01*
X006694Y005237D01*
X006673Y005230D01*
X006654Y005219D01*
X006636Y005206D01*
X006621Y005190D01*
X006609Y005171D01*
X006600Y005151D01*
X006594Y005130D01*
X006592Y005108D01*
X006595Y005108D01*
X006597Y005129D01*
X006603Y005150D01*
X006612Y005170D01*
X006624Y005188D01*
X006638Y005204D01*
X006655Y005217D01*
X006674Y005227D01*
X006695Y005234D01*
X006716Y005238D01*
X006738Y005238D01*
X006759Y005234D01*
X006780Y005227D01*
X006799Y005217D01*
X006816Y005204D01*
X006830Y005188D01*
X006842Y005170D01*
X006851Y005150D01*
X006857Y005129D01*
X006859Y005108D01*
X006856Y005108D01*
X006854Y005130D01*
X006848Y005152D01*
X006838Y005172D01*
X006825Y005190D01*
X006809Y005205D01*
X006791Y005218D01*
X006771Y005227D01*
X006749Y005233D01*
X006727Y005235D01*
X006705Y005233D01*
X006683Y005227D01*
X006663Y005218D01*
X006645Y005205D01*
X006629Y005190D01*
X006616Y005172D01*
X006606Y005152D01*
X006600Y005130D01*
X006598Y005108D01*
X006601Y005108D01*
X006603Y005130D01*
X006609Y005151D01*
X006619Y005170D01*
X006631Y005188D01*
X006647Y005203D01*
X006665Y005215D01*
X006684Y005225D01*
X006705Y005230D01*
X006727Y005232D01*
X006749Y005230D01*
X006770Y005225D01*
X006789Y005215D01*
X006807Y005203D01*
X006823Y005188D01*
X006835Y005170D01*
X006845Y005151D01*
X006851Y005130D01*
X006853Y005108D01*
X006850Y005108D01*
X006848Y005129D01*
X006842Y005150D01*
X006833Y005169D01*
X006821Y005186D01*
X006805Y005201D01*
X006788Y005213D01*
X006769Y005222D01*
X006748Y005227D01*
X006727Y005229D01*
X006706Y005227D01*
X006685Y005222D01*
X006666Y005213D01*
X006649Y005201D01*
X006633Y005186D01*
X006621Y005169D01*
X006612Y005150D01*
X006606Y005129D01*
X006604Y005108D01*
X005519Y004355D02*
X005519Y004319D01*
X005518Y004320D02*
X005497Y004318D01*
X005477Y004312D01*
X005459Y004303D01*
X005442Y004291D01*
X005428Y004276D01*
X005416Y004259D01*
X005407Y004241D01*
X005402Y004221D01*
X005400Y004200D01*
X005402Y004179D01*
X005407Y004159D01*
X005416Y004141D01*
X005428Y004124D01*
X005442Y004109D01*
X005459Y004097D01*
X005477Y004088D01*
X005497Y004082D01*
X005518Y004080D01*
X005519Y004045D01*
X005518Y004044D01*
X005494Y004046D01*
X005470Y004052D01*
X005448Y004062D01*
X005427Y004075D01*
X005409Y004090D01*
X005393Y004109D01*
X005381Y004130D01*
X005372Y004152D01*
X005366Y004176D01*
X005364Y004200D01*
X005366Y004224D01*
X005372Y004248D01*
X005381Y004270D01*
X005393Y004291D01*
X005409Y004310D01*
X005427Y004325D01*
X005448Y004338D01*
X005470Y004348D01*
X005494Y004354D01*
X005518Y004356D01*
X005518Y004353D01*
X005494Y004351D01*
X005471Y004345D01*
X005449Y004336D01*
X005429Y004323D01*
X005411Y004307D01*
X005396Y004289D01*
X005383Y004269D01*
X005374Y004247D01*
X005369Y004224D01*
X005367Y004200D01*
X005369Y004176D01*
X005374Y004153D01*
X005383Y004131D01*
X005396Y004111D01*
X005411Y004093D01*
X005429Y004077D01*
X005449Y004064D01*
X005471Y004055D01*
X005494Y004049D01*
X005518Y004047D01*
X005518Y004050D01*
X005495Y004052D01*
X005472Y004058D01*
X005451Y004067D01*
X005431Y004079D01*
X005413Y004095D01*
X005398Y004112D01*
X005386Y004132D01*
X005377Y004154D01*
X005372Y004177D01*
X005370Y004200D01*
X005372Y004223D01*
X005377Y004246D01*
X005386Y004268D01*
X005398Y004288D01*
X005413Y004305D01*
X005431Y004321D01*
X005451Y004333D01*
X005472Y004342D01*
X005495Y004348D01*
X005518Y004350D01*
X005518Y004347D01*
X005495Y004345D01*
X005473Y004339D01*
X005452Y004330D01*
X005433Y004318D01*
X005415Y004303D01*
X005401Y004286D01*
X005389Y004266D01*
X005380Y004245D01*
X005375Y004223D01*
X005373Y004200D01*
X005375Y004177D01*
X005380Y004155D01*
X005389Y004134D01*
X005401Y004114D01*
X005415Y004097D01*
X005433Y004082D01*
X005452Y004070D01*
X005473Y004061D01*
X005495Y004055D01*
X005518Y004053D01*
X005518Y004056D01*
X005495Y004058D01*
X005472Y004064D01*
X005450Y004074D01*
X005431Y004087D01*
X005413Y004103D01*
X005399Y004122D01*
X005388Y004143D01*
X005380Y004165D01*
X005376Y004188D01*
X005376Y004212D01*
X005380Y004235D01*
X005388Y004257D01*
X005399Y004278D01*
X005413Y004297D01*
X005431Y004313D01*
X005450Y004326D01*
X005472Y004336D01*
X005495Y004342D01*
X005518Y004344D01*
X005518Y004341D01*
X005495Y004339D01*
X005473Y004333D01*
X005452Y004323D01*
X005432Y004311D01*
X005416Y004295D01*
X005402Y004277D01*
X005391Y004256D01*
X005383Y004234D01*
X005379Y004212D01*
X005379Y004188D01*
X005383Y004166D01*
X005391Y004144D01*
X005402Y004123D01*
X005416Y004105D01*
X005432Y004089D01*
X005452Y004077D01*
X005473Y004067D01*
X005495Y004061D01*
X005518Y004059D01*
X005518Y004062D01*
X005496Y004064D01*
X005474Y004070D01*
X005453Y004079D01*
X005434Y004092D01*
X005418Y004107D01*
X005404Y004125D01*
X005393Y004145D01*
X005386Y004166D01*
X005382Y004189D01*
X005382Y004211D01*
X005386Y004234D01*
X005393Y004255D01*
X005404Y004275D01*
X005418Y004293D01*
X005434Y004308D01*
X005453Y004321D01*
X005474Y004330D01*
X005496Y004336D01*
X005518Y004338D01*
X005518Y004335D01*
X005496Y004333D01*
X005475Y004327D01*
X005455Y004318D01*
X005436Y004306D01*
X005420Y004291D01*
X005407Y004273D01*
X005396Y004254D01*
X005389Y004233D01*
X005385Y004211D01*
X005385Y004189D01*
X005389Y004167D01*
X005396Y004146D01*
X005407Y004127D01*
X005420Y004109D01*
X005436Y004094D01*
X005455Y004082D01*
X005475Y004073D01*
X005496Y004067D01*
X005518Y004065D01*
X005518Y004068D01*
X005497Y004070D01*
X005476Y004076D01*
X005456Y004085D01*
X005438Y004097D01*
X005422Y004111D01*
X005409Y004128D01*
X005399Y004147D01*
X005392Y004168D01*
X005388Y004189D01*
X005388Y004211D01*
X005392Y004232D01*
X005399Y004253D01*
X005409Y004272D01*
X005422Y004289D01*
X005438Y004303D01*
X005456Y004315D01*
X005476Y004324D01*
X005497Y004330D01*
X005518Y004332D01*
X005518Y004329D01*
X005496Y004327D01*
X005474Y004321D01*
X005454Y004311D01*
X005436Y004298D01*
X005421Y004282D01*
X005408Y004264D01*
X005399Y004244D01*
X005393Y004222D01*
X005391Y004200D01*
X005393Y004178D01*
X005399Y004156D01*
X005408Y004136D01*
X005421Y004118D01*
X005436Y004102D01*
X005454Y004089D01*
X005474Y004079D01*
X005496Y004073D01*
X005518Y004071D01*
X005518Y004074D01*
X005496Y004076D01*
X005475Y004082D01*
X005456Y004092D01*
X005438Y004104D01*
X005423Y004120D01*
X005411Y004138D01*
X005401Y004157D01*
X005396Y004178D01*
X005394Y004200D01*
X005396Y004222D01*
X005401Y004243D01*
X005411Y004262D01*
X005423Y004280D01*
X005438Y004296D01*
X005456Y004308D01*
X005475Y004318D01*
X005496Y004324D01*
X005518Y004326D01*
X005518Y004323D01*
X005497Y004321D01*
X005476Y004315D01*
X005457Y004306D01*
X005440Y004294D01*
X005425Y004278D01*
X005413Y004261D01*
X005404Y004242D01*
X005399Y004221D01*
X005397Y004200D01*
X005399Y004179D01*
X005404Y004158D01*
X005413Y004139D01*
X005425Y004122D01*
X005440Y004106D01*
X005457Y004094D01*
X005476Y004085D01*
X005497Y004079D01*
X005518Y004077D01*
X004734Y004045D02*
X004734Y004081D01*
X004735Y004080D02*
X004756Y004082D01*
X004776Y004088D01*
X004794Y004097D01*
X004811Y004109D01*
X004825Y004124D01*
X004837Y004141D01*
X004846Y004159D01*
X004851Y004179D01*
X004853Y004200D01*
X004851Y004221D01*
X004846Y004241D01*
X004837Y004259D01*
X004825Y004276D01*
X004811Y004291D01*
X004794Y004303D01*
X004776Y004312D01*
X004756Y004318D01*
X004735Y004320D01*
X004734Y004355D01*
X004735Y004356D01*
X004759Y004354D01*
X004783Y004348D01*
X004805Y004338D01*
X004826Y004325D01*
X004844Y004310D01*
X004860Y004291D01*
X004872Y004270D01*
X004881Y004248D01*
X004887Y004224D01*
X004889Y004200D01*
X004887Y004176D01*
X004881Y004152D01*
X004872Y004130D01*
X004860Y004109D01*
X004844Y004090D01*
X004826Y004075D01*
X004805Y004062D01*
X004783Y004052D01*
X004759Y004046D01*
X004735Y004044D01*
X004735Y004047D01*
X004759Y004049D01*
X004782Y004055D01*
X004804Y004064D01*
X004824Y004077D01*
X004842Y004093D01*
X004857Y004111D01*
X004870Y004131D01*
X004879Y004153D01*
X004884Y004176D01*
X004886Y004200D01*
X004884Y004224D01*
X004879Y004247D01*
X004870Y004269D01*
X004857Y004289D01*
X004842Y004307D01*
X004824Y004323D01*
X004804Y004336D01*
X004782Y004345D01*
X004759Y004351D01*
X004735Y004353D01*
X004735Y004350D01*
X004758Y004348D01*
X004781Y004342D01*
X004802Y004333D01*
X004822Y004321D01*
X004840Y004305D01*
X004855Y004288D01*
X004867Y004268D01*
X004876Y004246D01*
X004881Y004223D01*
X004883Y004200D01*
X004881Y004177D01*
X004876Y004154D01*
X004867Y004132D01*
X004855Y004112D01*
X004840Y004095D01*
X004822Y004079D01*
X004802Y004067D01*
X004781Y004058D01*
X004758Y004052D01*
X004735Y004050D01*
X004735Y004053D01*
X004758Y004055D01*
X004780Y004061D01*
X004801Y004070D01*
X004820Y004082D01*
X004838Y004097D01*
X004852Y004114D01*
X004864Y004134D01*
X004873Y004155D01*
X004878Y004177D01*
X004880Y004200D01*
X004878Y004223D01*
X004873Y004245D01*
X004864Y004266D01*
X004852Y004286D01*
X004838Y004303D01*
X004820Y004318D01*
X004801Y004330D01*
X004780Y004339D01*
X004758Y004345D01*
X004735Y004347D01*
X004735Y004344D01*
X004758Y004342D01*
X004781Y004336D01*
X004803Y004326D01*
X004822Y004313D01*
X004840Y004297D01*
X004854Y004278D01*
X004865Y004257D01*
X004873Y004235D01*
X004877Y004212D01*
X004877Y004188D01*
X004873Y004165D01*
X004865Y004143D01*
X004854Y004122D01*
X004840Y004103D01*
X004822Y004087D01*
X004803Y004074D01*
X004781Y004064D01*
X004758Y004058D01*
X004735Y004056D01*
X004735Y004059D01*
X004758Y004061D01*
X004780Y004067D01*
X004801Y004077D01*
X004821Y004089D01*
X004837Y004105D01*
X004851Y004123D01*
X004862Y004144D01*
X004870Y004166D01*
X004874Y004188D01*
X004874Y004212D01*
X004870Y004234D01*
X004862Y004256D01*
X004851Y004277D01*
X004837Y004295D01*
X004821Y004311D01*
X004801Y004323D01*
X004780Y004333D01*
X004758Y004339D01*
X004735Y004341D01*
X004735Y004338D01*
X004757Y004336D01*
X004779Y004330D01*
X004800Y004321D01*
X004819Y004308D01*
X004835Y004293D01*
X004849Y004275D01*
X004860Y004255D01*
X004867Y004234D01*
X004871Y004211D01*
X004871Y004189D01*
X004867Y004166D01*
X004860Y004145D01*
X004849Y004125D01*
X004835Y004107D01*
X004819Y004092D01*
X004800Y004079D01*
X004779Y004070D01*
X004757Y004064D01*
X004735Y004062D01*
X004735Y004065D01*
X004757Y004067D01*
X004778Y004073D01*
X004798Y004082D01*
X004817Y004094D01*
X004833Y004109D01*
X004846Y004127D01*
X004857Y004146D01*
X004864Y004167D01*
X004868Y004189D01*
X004868Y004211D01*
X004864Y004233D01*
X004857Y004254D01*
X004846Y004273D01*
X004833Y004291D01*
X004817Y004306D01*
X004798Y004318D01*
X004778Y004327D01*
X004757Y004333D01*
X004735Y004335D01*
X004735Y004332D01*
X004756Y004330D01*
X004777Y004324D01*
X004797Y004315D01*
X004815Y004303D01*
X004831Y004289D01*
X004844Y004272D01*
X004854Y004253D01*
X004861Y004232D01*
X004865Y004211D01*
X004865Y004189D01*
X004861Y004168D01*
X004854Y004147D01*
X004844Y004128D01*
X004831Y004111D01*
X004815Y004097D01*
X004797Y004085D01*
X004777Y004076D01*
X004756Y004070D01*
X004735Y004068D01*
X004735Y004071D01*
X004757Y004073D01*
X004779Y004079D01*
X004799Y004089D01*
X004817Y004102D01*
X004832Y004118D01*
X004845Y004136D01*
X004854Y004156D01*
X004860Y004178D01*
X004862Y004200D01*
X004860Y004222D01*
X004854Y004244D01*
X004845Y004264D01*
X004832Y004282D01*
X004817Y004298D01*
X004799Y004311D01*
X004779Y004321D01*
X004757Y004327D01*
X004735Y004329D01*
X004735Y004326D01*
X004757Y004324D01*
X004778Y004318D01*
X004797Y004308D01*
X004815Y004296D01*
X004830Y004280D01*
X004842Y004262D01*
X004852Y004243D01*
X004857Y004222D01*
X004859Y004200D01*
X004857Y004178D01*
X004852Y004157D01*
X004842Y004138D01*
X004830Y004120D01*
X004815Y004104D01*
X004797Y004092D01*
X004778Y004082D01*
X004757Y004076D01*
X004735Y004074D01*
X004735Y004077D01*
X004756Y004079D01*
X004777Y004085D01*
X004796Y004094D01*
X004813Y004106D01*
X004828Y004122D01*
X004840Y004139D01*
X004849Y004158D01*
X004854Y004179D01*
X004856Y004200D01*
X004854Y004221D01*
X004849Y004242D01*
X004840Y004261D01*
X004828Y004278D01*
X004813Y004294D01*
X004796Y004306D01*
X004777Y004315D01*
X004756Y004321D01*
X004735Y004323D01*
X004734Y003245D02*
X004734Y003281D01*
X004735Y003280D02*
X004756Y003282D01*
X004776Y003288D01*
X004794Y003297D01*
X004811Y003309D01*
X004825Y003324D01*
X004837Y003341D01*
X004846Y003359D01*
X004851Y003379D01*
X004853Y003400D01*
X004851Y003421D01*
X004846Y003441D01*
X004837Y003459D01*
X004825Y003476D01*
X004811Y003491D01*
X004794Y003503D01*
X004776Y003512D01*
X004756Y003518D01*
X004735Y003520D01*
X004734Y003555D01*
X004735Y003556D01*
X004759Y003554D01*
X004783Y003548D01*
X004805Y003538D01*
X004826Y003525D01*
X004844Y003510D01*
X004860Y003491D01*
X004872Y003470D01*
X004881Y003448D01*
X004887Y003424D01*
X004889Y003400D01*
X004887Y003376D01*
X004881Y003352D01*
X004872Y003330D01*
X004860Y003309D01*
X004844Y003290D01*
X004826Y003275D01*
X004805Y003262D01*
X004783Y003252D01*
X004759Y003246D01*
X004735Y003244D01*
X004735Y003247D01*
X004759Y003249D01*
X004782Y003255D01*
X004804Y003264D01*
X004824Y003277D01*
X004842Y003293D01*
X004857Y003311D01*
X004870Y003331D01*
X004879Y003353D01*
X004884Y003376D01*
X004886Y003400D01*
X004884Y003424D01*
X004879Y003447D01*
X004870Y003469D01*
X004857Y003489D01*
X004842Y003507D01*
X004824Y003523D01*
X004804Y003536D01*
X004782Y003545D01*
X004759Y003551D01*
X004735Y003553D01*
X004735Y003550D01*
X004758Y003548D01*
X004781Y003542D01*
X004802Y003533D01*
X004822Y003521D01*
X004840Y003505D01*
X004855Y003488D01*
X004867Y003468D01*
X004876Y003446D01*
X004881Y003423D01*
X004883Y003400D01*
X004881Y003377D01*
X004876Y003354D01*
X004867Y003332D01*
X004855Y003312D01*
X004840Y003295D01*
X004822Y003279D01*
X004802Y003267D01*
X004781Y003258D01*
X004758Y003252D01*
X004735Y003250D01*
X004735Y003253D01*
X004758Y003255D01*
X004780Y003261D01*
X004801Y003270D01*
X004820Y003282D01*
X004838Y003297D01*
X004852Y003314D01*
X004864Y003334D01*
X004873Y003355D01*
X004878Y003377D01*
X004880Y003400D01*
X004878Y003423D01*
X004873Y003445D01*
X004864Y003466D01*
X004852Y003486D01*
X004838Y003503D01*
X004820Y003518D01*
X004801Y003530D01*
X004780Y003539D01*
X004758Y003545D01*
X004735Y003547D01*
X004735Y003544D01*
X004758Y003542D01*
X004781Y003536D01*
X004803Y003526D01*
X004822Y003513D01*
X004840Y003497D01*
X004854Y003478D01*
X004865Y003457D01*
X004873Y003435D01*
X004877Y003412D01*
X004877Y003388D01*
X004873Y003365D01*
X004865Y003343D01*
X004854Y003322D01*
X004840Y003303D01*
X004822Y003287D01*
X004803Y003274D01*
X004781Y003264D01*
X004758Y003258D01*
X004735Y003256D01*
X004735Y003259D01*
X004758Y003261D01*
X004780Y003267D01*
X004801Y003277D01*
X004821Y003289D01*
X004837Y003305D01*
X004851Y003323D01*
X004862Y003344D01*
X004870Y003366D01*
X004874Y003388D01*
X004874Y003412D01*
X004870Y003434D01*
X004862Y003456D01*
X004851Y003477D01*
X004837Y003495D01*
X004821Y003511D01*
X004801Y003523D01*
X004780Y003533D01*
X004758Y003539D01*
X004735Y003541D01*
X004735Y003538D01*
X004757Y003536D01*
X004779Y003530D01*
X004800Y003521D01*
X004819Y003508D01*
X004835Y003493D01*
X004849Y003475D01*
X004860Y003455D01*
X004867Y003434D01*
X004871Y003411D01*
X004871Y003389D01*
X004867Y003366D01*
X004860Y003345D01*
X004849Y003325D01*
X004835Y003307D01*
X004819Y003292D01*
X004800Y003279D01*
X004779Y003270D01*
X004757Y003264D01*
X004735Y003262D01*
X004735Y003265D01*
X004757Y003267D01*
X004778Y003273D01*
X004798Y003282D01*
X004817Y003294D01*
X004833Y003309D01*
X004846Y003327D01*
X004857Y003346D01*
X004864Y003367D01*
X004868Y003389D01*
X004868Y003411D01*
X004864Y003433D01*
X004857Y003454D01*
X004846Y003473D01*
X004833Y003491D01*
X004817Y003506D01*
X004798Y003518D01*
X004778Y003527D01*
X004757Y003533D01*
X004735Y003535D01*
X004735Y003532D01*
X004756Y003530D01*
X004777Y003524D01*
X004797Y003515D01*
X004815Y003503D01*
X004831Y003489D01*
X004844Y003472D01*
X004854Y003453D01*
X004861Y003432D01*
X004865Y003411D01*
X004865Y003389D01*
X004861Y003368D01*
X004854Y003347D01*
X004844Y003328D01*
X004831Y003311D01*
X004815Y003297D01*
X004797Y003285D01*
X004777Y003276D01*
X004756Y003270D01*
X004735Y003268D01*
X004735Y003271D01*
X004757Y003273D01*
X004779Y003279D01*
X004799Y003289D01*
X004817Y003302D01*
X004832Y003318D01*
X004845Y003336D01*
X004854Y003356D01*
X004860Y003378D01*
X004862Y003400D01*
X004860Y003422D01*
X004854Y003444D01*
X004845Y003464D01*
X004832Y003482D01*
X004817Y003498D01*
X004799Y003511D01*
X004779Y003521D01*
X004757Y003527D01*
X004735Y003529D01*
X004735Y003526D01*
X004757Y003524D01*
X004778Y003518D01*
X004797Y003508D01*
X004815Y003496D01*
X004830Y003480D01*
X004842Y003462D01*
X004852Y003443D01*
X004857Y003422D01*
X004859Y003400D01*
X004857Y003378D01*
X004852Y003357D01*
X004842Y003338D01*
X004830Y003320D01*
X004815Y003304D01*
X004797Y003292D01*
X004778Y003282D01*
X004757Y003276D01*
X004735Y003274D01*
X004735Y003277D01*
X004756Y003279D01*
X004777Y003285D01*
X004796Y003294D01*
X004813Y003306D01*
X004828Y003322D01*
X004840Y003339D01*
X004849Y003358D01*
X004854Y003379D01*
X004856Y003400D01*
X004854Y003421D01*
X004849Y003442D01*
X004840Y003461D01*
X004828Y003478D01*
X004813Y003494D01*
X004796Y003506D01*
X004777Y003515D01*
X004756Y003521D01*
X004735Y003523D01*
X005519Y003555D02*
X005519Y003519D01*
X005518Y003520D02*
X005497Y003518D01*
X005477Y003512D01*
X005459Y003503D01*
X005442Y003491D01*
X005428Y003476D01*
X005416Y003459D01*
X005407Y003441D01*
X005402Y003421D01*
X005400Y003400D01*
X005402Y003379D01*
X005407Y003359D01*
X005416Y003341D01*
X005428Y003324D01*
X005442Y003309D01*
X005459Y003297D01*
X005477Y003288D01*
X005497Y003282D01*
X005518Y003280D01*
X005519Y003245D01*
X005518Y003244D01*
X005494Y003246D01*
X005470Y003252D01*
X005448Y003262D01*
X005427Y003275D01*
X005409Y003290D01*
X005393Y003309D01*
X005381Y003330D01*
X005372Y003352D01*
X005366Y003376D01*
X005364Y003400D01*
X005366Y003424D01*
X005372Y003448D01*
X005381Y003470D01*
X005393Y003491D01*
X005409Y003510D01*
X005427Y003525D01*
X005448Y003538D01*
X005470Y003548D01*
X005494Y003554D01*
X005518Y003556D01*
X005518Y003553D01*
X005494Y003551D01*
X005471Y003545D01*
X005449Y003536D01*
X005429Y003523D01*
X005411Y003507D01*
X005396Y003489D01*
X005383Y003469D01*
X005374Y003447D01*
X005369Y003424D01*
X005367Y003400D01*
X005369Y003376D01*
X005374Y003353D01*
X005383Y003331D01*
X005396Y003311D01*
X005411Y003293D01*
X005429Y003277D01*
X005449Y003264D01*
X005471Y003255D01*
X005494Y003249D01*
X005518Y003247D01*
X005518Y003250D01*
X005495Y003252D01*
X005472Y003258D01*
X005451Y003267D01*
X005431Y003279D01*
X005413Y003295D01*
X005398Y003312D01*
X005386Y003332D01*
X005377Y003354D01*
X005372Y003377D01*
X005370Y003400D01*
X005372Y003423D01*
X005377Y003446D01*
X005386Y003468D01*
X005398Y003488D01*
X005413Y003505D01*
X005431Y003521D01*
X005451Y003533D01*
X005472Y003542D01*
X005495Y003548D01*
X005518Y003550D01*
X005518Y003547D01*
X005495Y003545D01*
X005473Y003539D01*
X005452Y003530D01*
X005433Y003518D01*
X005415Y003503D01*
X005401Y003486D01*
X005389Y003466D01*
X005380Y003445D01*
X005375Y003423D01*
X005373Y003400D01*
X005375Y003377D01*
X005380Y003355D01*
X005389Y003334D01*
X005401Y003314D01*
X005415Y003297D01*
X005433Y003282D01*
X005452Y003270D01*
X005473Y003261D01*
X005495Y003255D01*
X005518Y003253D01*
X005518Y003256D01*
X005495Y003258D01*
X005472Y003264D01*
X005450Y003274D01*
X005431Y003287D01*
X005413Y003303D01*
X005399Y003322D01*
X005388Y003343D01*
X005380Y003365D01*
X005376Y003388D01*
X005376Y003412D01*
X005380Y003435D01*
X005388Y003457D01*
X005399Y003478D01*
X005413Y003497D01*
X005431Y003513D01*
X005450Y003526D01*
X005472Y003536D01*
X005495Y003542D01*
X005518Y003544D01*
X005518Y003541D01*
X005495Y003539D01*
X005473Y003533D01*
X005452Y003523D01*
X005432Y003511D01*
X005416Y003495D01*
X005402Y003477D01*
X005391Y003456D01*
X005383Y003434D01*
X005379Y003412D01*
X005379Y003388D01*
X005383Y003366D01*
X005391Y003344D01*
X005402Y003323D01*
X005416Y003305D01*
X005432Y003289D01*
X005452Y003277D01*
X005473Y003267D01*
X005495Y003261D01*
X005518Y003259D01*
X005518Y003262D01*
X005496Y003264D01*
X005474Y003270D01*
X005453Y003279D01*
X005434Y003292D01*
X005418Y003307D01*
X005404Y003325D01*
X005393Y003345D01*
X005386Y003366D01*
X005382Y003389D01*
X005382Y003411D01*
X005386Y003434D01*
X005393Y003455D01*
X005404Y003475D01*
X005418Y003493D01*
X005434Y003508D01*
X005453Y003521D01*
X005474Y003530D01*
X005496Y003536D01*
X005518Y003538D01*
X005518Y003535D01*
X005496Y003533D01*
X005475Y003527D01*
X005455Y003518D01*
X005436Y003506D01*
X005420Y003491D01*
X005407Y003473D01*
X005396Y003454D01*
X005389Y003433D01*
X005385Y003411D01*
X005385Y003389D01*
X005389Y003367D01*
X005396Y003346D01*
X005407Y003327D01*
X005420Y003309D01*
X005436Y003294D01*
X005455Y003282D01*
X005475Y003273D01*
X005496Y003267D01*
X005518Y003265D01*
X005518Y003268D01*
X005497Y003270D01*
X005476Y003276D01*
X005456Y003285D01*
X005438Y003297D01*
X005422Y003311D01*
X005409Y003328D01*
X005399Y003347D01*
X005392Y003368D01*
X005388Y003389D01*
X005388Y003411D01*
X005392Y003432D01*
X005399Y003453D01*
X005409Y003472D01*
X005422Y003489D01*
X005438Y003503D01*
X005456Y003515D01*
X005476Y003524D01*
X005497Y003530D01*
X005518Y003532D01*
X005518Y003529D01*
X005496Y003527D01*
X005474Y003521D01*
X005454Y003511D01*
X005436Y003498D01*
X005421Y003482D01*
X005408Y003464D01*
X005399Y003444D01*
X005393Y003422D01*
X005391Y003400D01*
X005393Y003378D01*
X005399Y003356D01*
X005408Y003336D01*
X005421Y003318D01*
X005436Y003302D01*
X005454Y003289D01*
X005474Y003279D01*
X005496Y003273D01*
X005518Y003271D01*
X005518Y003274D01*
X005496Y003276D01*
X005475Y003282D01*
X005456Y003292D01*
X005438Y003304D01*
X005423Y003320D01*
X005411Y003338D01*
X005401Y003357D01*
X005396Y003378D01*
X005394Y003400D01*
X005396Y003422D01*
X005401Y003443D01*
X005411Y003462D01*
X005423Y003480D01*
X005438Y003496D01*
X005456Y003508D01*
X005475Y003518D01*
X005496Y003524D01*
X005518Y003526D01*
X005518Y003523D01*
X005497Y003521D01*
X005476Y003515D01*
X005457Y003506D01*
X005440Y003494D01*
X005425Y003478D01*
X005413Y003461D01*
X005404Y003442D01*
X005399Y003421D01*
X005397Y003400D01*
X005399Y003379D01*
X005404Y003358D01*
X005413Y003339D01*
X005425Y003322D01*
X005440Y003306D01*
X005457Y003294D01*
X005476Y003285D01*
X005497Y003279D01*
X005518Y003277D01*
D18*
X005422Y003218D03*
X004831Y003218D03*
X004831Y003582D03*
X004831Y004018D03*
X004831Y004382D03*
X005422Y004018D03*
D19*
X005373Y004102D03*
X005373Y004298D03*
X004881Y004298D03*
X004881Y004102D03*
X004881Y003498D03*
X004881Y003302D03*
X005373Y003302D03*
X005373Y003498D03*
D20*
X005358Y003400D03*
X004895Y003400D03*
X004895Y004200D03*
X005358Y004200D03*
D21*
X005166Y004200D03*
X005166Y003400D03*
X006727Y005539D03*
D22*
X006550Y005756D03*
X005383Y004377D03*
X005383Y003577D03*
D23*
X005506Y003602D03*
X005506Y004402D03*
D24*
X003455Y004202D03*
X002995Y004202D03*
X002995Y003402D03*
X003455Y003402D03*
X005198Y006898D03*
X005658Y006898D03*
X005658Y007748D03*
X005198Y007748D03*
X005198Y008598D03*
X005658Y008598D03*
D25*
X003227Y004200D03*
X003227Y003400D03*
D26*
X005427Y006888D02*
X005427Y006912D01*
X005427Y007738D02*
X005427Y007762D01*
D27*
X008227Y008150D02*
X008227Y006650D01*
X008477Y006400D01*
X008977Y006400D01*
X009227Y006650D01*
X009227Y008150D01*
X008977Y008400D01*
X008477Y008400D01*
X008227Y008150D01*
X009227Y008150D02*
X009477Y008400D01*
X009977Y008400D01*
X010227Y008150D01*
X010227Y006650D01*
X009977Y006400D01*
X009477Y006400D01*
X009227Y006650D01*
X010227Y006650D02*
X010477Y006400D01*
X010977Y006400D01*
X011227Y006650D01*
X011227Y008150D01*
X010977Y008400D01*
X010477Y008400D01*
X010227Y008150D01*
X010477Y005400D02*
X010227Y005150D01*
X010227Y004650D01*
X010477Y004400D01*
X010227Y004150D01*
X010227Y003650D01*
X010477Y003400D01*
X010977Y003400D01*
X011227Y003650D01*
X011227Y004150D01*
X010977Y004400D01*
X011227Y004650D01*
X011227Y005150D01*
X010977Y005400D01*
X010477Y005400D01*
X010227Y005150D02*
X009977Y005400D01*
X009477Y005400D01*
X009227Y005150D01*
X009227Y004650D01*
X009477Y004400D01*
X009227Y004150D01*
X009227Y003650D01*
X009477Y003400D01*
X009977Y003400D01*
X010227Y003650D01*
X010227Y004150D01*
X009977Y004400D01*
X010227Y004650D01*
X010227Y005150D01*
X009227Y005150D02*
X009227Y004650D01*
X008977Y004400D01*
X009227Y004150D01*
X009227Y003650D01*
X008977Y003400D01*
X008477Y003400D01*
X008227Y003650D01*
X008227Y004150D01*
X008477Y004400D01*
X008227Y004650D01*
X008227Y005150D01*
X008477Y005400D01*
X008977Y005400D01*
X009227Y005150D01*
X005497Y004981D02*
X005499Y004989D01*
X005504Y004996D01*
X005511Y005000D01*
X005519Y005001D01*
X005527Y004998D01*
X005533Y004993D01*
X005537Y004985D01*
X005537Y004977D01*
X005533Y004969D01*
X005527Y004964D01*
X005519Y004961D01*
X005511Y004962D01*
X005504Y004966D01*
X005499Y004973D01*
X005497Y004981D01*
D28*
X004294Y006436D03*
X004038Y006436D03*
X003783Y006436D03*
X003527Y006436D03*
X003271Y006436D03*
X003015Y006436D03*
X002759Y006436D03*
X002759Y008564D03*
X003015Y008564D03*
X003271Y008564D03*
X003527Y008564D03*
X003783Y008564D03*
X004038Y008564D03*
X004294Y008564D03*
D29*
X001227Y008400D03*
X001227Y007400D03*
X001227Y006400D03*
X001227Y005400D03*
X001227Y004400D03*
X001227Y003400D03*
X001227Y001400D03*
X002227Y001400D03*
X003227Y001400D03*
X004227Y001400D03*
X005227Y001400D03*
X006227Y001400D03*
X007227Y001400D03*
X008227Y001400D03*
X009227Y001400D03*
X010227Y001400D03*
X011227Y001400D03*
X012227Y001400D03*
X013227Y001400D03*
X014227Y001400D03*
X015227Y001400D03*
X016227Y001400D03*
X017227Y001400D03*
X018227Y001400D03*
X019227Y001400D03*
X020227Y001400D03*
X021227Y001400D03*
X010727Y003900D03*
X009727Y003900D03*
X008727Y003900D03*
X008727Y004900D03*
X009727Y004900D03*
X010727Y004900D03*
X010727Y006900D03*
X009727Y006900D03*
X008727Y006900D03*
X008727Y007900D03*
X009727Y007900D03*
X010727Y007900D03*
X011227Y010400D03*
X010227Y010400D03*
X009227Y010400D03*
X008227Y010400D03*
X007227Y010400D03*
X006227Y010400D03*
X005227Y010400D03*
X004227Y010400D03*
X003227Y010400D03*
X002227Y010400D03*
X001227Y010400D03*
X012227Y010400D03*
X013227Y010400D03*
X014227Y010400D03*
X015227Y010400D03*
X016227Y010400D03*
X017227Y010400D03*
X018227Y010400D03*
X019227Y010400D03*
X020227Y010400D03*
X021227Y010400D03*
D30*
X000742Y000605D02*
X000742Y000315D01*
X000742Y000412D02*
X000887Y000412D01*
X000935Y000460D01*
X000935Y000557D01*
X000887Y000605D01*
X000742Y000605D01*
X001036Y000557D02*
X001036Y000363D01*
X001085Y000315D01*
X001181Y000315D01*
X001230Y000363D01*
X001230Y000557D01*
X001181Y000605D01*
X001085Y000605D01*
X001036Y000557D01*
X001331Y000605D02*
X001331Y000315D01*
X001428Y000412D01*
X001524Y000315D01*
X001524Y000605D01*
X001626Y000605D02*
X001626Y000315D01*
X001819Y000315D01*
X001920Y000315D02*
X001920Y000605D01*
X002065Y000605D01*
X002114Y000557D01*
X002114Y000460D01*
X002065Y000412D01*
X001920Y000412D01*
X002017Y000412D02*
X002114Y000315D01*
X001722Y000460D02*
X001626Y000460D01*
X001626Y000605D02*
X001819Y000605D01*
X000463Y002915D02*
X000512Y002963D01*
X000512Y003060D01*
X000463Y003108D01*
X000415Y003108D01*
X000367Y003060D01*
X000367Y002963D01*
X000318Y002915D01*
X000270Y002915D01*
X000221Y002963D01*
X000221Y003060D01*
X000270Y003108D01*
X000221Y003210D02*
X000318Y003306D01*
X000221Y003403D01*
X000512Y003403D01*
X000512Y003504D02*
X000512Y003601D01*
X000512Y003553D02*
X000221Y003553D01*
X000221Y003601D02*
X000221Y003504D01*
X000221Y003701D02*
X000221Y003846D01*
X000270Y003894D01*
X000367Y003894D01*
X000415Y003846D01*
X000415Y003701D01*
X000415Y003797D02*
X000512Y003894D01*
X000512Y003995D02*
X000221Y003995D01*
X000221Y004189D01*
X000367Y004092D02*
X000367Y003995D01*
X000512Y003701D02*
X000221Y003701D01*
X000221Y003210D02*
X000512Y003210D01*
X009742Y000605D02*
X009742Y000363D01*
X009790Y000315D01*
X009887Y000315D01*
X009935Y000363D01*
X009935Y000605D01*
X010036Y000557D02*
X010036Y000508D01*
X010085Y000460D01*
X010181Y000460D01*
X010230Y000412D01*
X010230Y000363D01*
X010181Y000315D01*
X010085Y000315D01*
X010036Y000363D01*
X010036Y000557D02*
X010085Y000605D01*
X010181Y000605D01*
X010230Y000557D01*
X010331Y000605D02*
X010476Y000605D01*
X010524Y000557D01*
X010524Y000508D01*
X010476Y000460D01*
X010331Y000460D01*
X010331Y000315D02*
X010476Y000315D01*
X010524Y000363D01*
X010524Y000412D01*
X010476Y000460D01*
X010331Y000315D02*
X010331Y000605D01*
X011742Y000508D02*
X011742Y000315D01*
X011742Y000460D02*
X011935Y000460D01*
X011935Y000508D02*
X011935Y000315D01*
X012036Y000363D02*
X012085Y000315D01*
X012181Y000315D01*
X012230Y000363D01*
X012230Y000605D01*
X012331Y000605D02*
X012476Y000605D01*
X012524Y000557D01*
X012524Y000363D01*
X012476Y000315D01*
X012331Y000315D01*
X012331Y000605D01*
X012626Y000605D02*
X012722Y000605D01*
X012674Y000605D02*
X012674Y000315D01*
X012626Y000315D02*
X012722Y000315D01*
X012822Y000363D02*
X012870Y000315D01*
X012967Y000315D01*
X013016Y000363D01*
X013016Y000557D01*
X012967Y000605D01*
X012870Y000605D01*
X012822Y000557D01*
X012822Y000363D01*
X012036Y000363D02*
X012036Y000605D01*
X011935Y000508D02*
X011838Y000605D01*
X011742Y000508D01*
X012967Y003409D02*
X012967Y003602D01*
X012967Y003505D02*
X013257Y003505D01*
X013160Y003602D01*
X013160Y003703D02*
X013112Y003752D01*
X013064Y003703D01*
X013015Y003703D01*
X012967Y003752D01*
X012967Y003848D01*
X013015Y003897D01*
X013112Y003800D02*
X013112Y003752D01*
X013160Y003703D02*
X013209Y003703D01*
X013257Y003752D01*
X013257Y003848D01*
X013209Y003897D01*
X020427Y003848D02*
X020427Y003752D01*
X020476Y003703D01*
X020573Y003703D01*
X020621Y003752D01*
X020621Y003800D01*
X020573Y003897D01*
X020718Y003897D01*
X020718Y003703D01*
X020669Y003602D02*
X020476Y003602D01*
X020669Y003409D01*
X020476Y003409D01*
X020427Y003457D01*
X020427Y003554D01*
X020476Y003602D01*
X020669Y003602D02*
X020718Y003554D01*
X020718Y003457D01*
X020669Y003409D01*
X020427Y003848D02*
X020476Y003897D01*
X013257Y007857D02*
X013209Y007857D01*
X013015Y008051D01*
X012967Y008051D01*
X012967Y008152D02*
X012967Y008346D01*
X012967Y008249D02*
X013257Y008249D01*
X013160Y008346D01*
X013257Y008051D02*
X013257Y007857D01*
X019286Y008132D02*
X019286Y008326D01*
X019286Y008229D02*
X019576Y008229D01*
X019479Y008326D01*
X009132Y011163D02*
X009083Y011115D01*
X008986Y011115D01*
X008938Y011163D01*
X008938Y011357D01*
X008986Y011405D01*
X009083Y011405D01*
X009132Y011357D01*
X009132Y011163D01*
X008838Y011115D02*
X008742Y011115D01*
X008790Y011115D02*
X008790Y011405D01*
X008742Y011405D02*
X008838Y011405D01*
X005524Y011405D02*
X005524Y011115D01*
X005331Y011115D02*
X005331Y011405D01*
X005428Y011308D01*
X005524Y011405D01*
X005230Y011357D02*
X005181Y011405D01*
X005085Y011405D01*
X005036Y011357D01*
X005036Y011163D01*
X005085Y011115D01*
X005181Y011115D01*
X005230Y011163D01*
X004935Y011260D02*
X004887Y011212D01*
X004742Y011212D01*
X004742Y011115D02*
X004742Y011405D01*
X004887Y011405D01*
X004935Y011357D01*
X004935Y011260D01*
X001819Y011405D02*
X001626Y011405D01*
X001722Y011405D02*
X001722Y011115D01*
X001524Y011115D02*
X001428Y011212D01*
X001476Y011212D02*
X001331Y011212D01*
X001331Y011115D02*
X001331Y011405D01*
X001476Y011405D01*
X001524Y011357D01*
X001524Y011260D01*
X001476Y011212D01*
X001230Y011260D02*
X001036Y011260D01*
X001036Y011308D02*
X001036Y011115D01*
X000935Y011163D02*
X000935Y011405D01*
X001036Y011308D02*
X001133Y011405D01*
X001230Y011308D01*
X001230Y011115D01*
X000935Y011163D02*
X000887Y011115D01*
X000790Y011115D01*
X000742Y011163D01*
X000742Y011405D01*
D31*
X020964Y007081D03*
D32*
X006909Y005795D03*
X006909Y005205D03*
X006545Y005205D03*
D33*
X006628Y005254D03*
X006825Y005254D03*
X006825Y005746D03*
X006628Y005746D03*
D34*
X006727Y005731D03*
X006727Y005269D03*
D35*
X006525Y005879D03*
D36*
X006729Y006872D03*
X006729Y007332D03*
D37*
X006727Y007100D03*
M02*
