%
M48
M72
T01C0.0130
T02C0.0400
%
T01
X6860Y6283
X6260Y7003
X5360Y7003
X3380Y7843
X3320Y7063
X2480Y8563
X3500Y9043
X3800Y9763
X5180Y9463
X5720Y8683
X6680Y8923
X6980Y9763
X6260Y10483
X4580Y11743
X4340Y12283
X3620Y11683
X3440Y11983
X2540Y11203
X3320Y10843
X4040Y10963
X5600Y12223
X6380Y11983
X6260Y12883
X4760Y13603
X2840Y13603
X8720Y11863
X9560Y11863
X10160Y11863
X11300Y11983
X11660Y12043
X12860Y11503
X12980Y11923
X13700Y11983
X12740Y13603
X11300Y10903
X10820Y9643
X9080Y8683
X9920Y8083
X7940Y8143
X7700Y7903
X12260Y7843
X13700Y9943
X17600Y10143
X17600Y9743
X17600Y9343
X17600Y8943
X17600Y8543
X17600Y8143
X17600Y7743
X17600Y7343
X17600Y6943
X17600Y6543
X17600Y6143
X17600Y5743
X17600Y10543
X17600Y10943
X17600Y11343
X17600Y11743
X17600Y12143
X17600Y12543
X17600Y12943
X17600Y13343
X17600Y13743
X17600Y14143
T02
X1300Y5943
X2300Y5943
X3300Y5943
X4300Y5943
X5300Y5943
X6300Y5943
X7300Y5943
X8300Y5943
X9300Y5943
X10300Y5943
X11300Y5943
X12300Y5943
X12300Y13943
X11300Y13943
X10300Y13943
X9300Y13943
X8300Y13943
X7300Y13943
X6300Y13943
X5300Y13943
X4300Y13943
X3300Y13943
X2300Y13943
X1300Y13943
X1300Y12443
X1300Y11443
X1300Y10443
X1300Y9443
X1300Y8443
X1300Y7443
X13300Y13943
M30
