G75*
%MOIN*%
%OFA0B0*%
%FSLAX24Y24*%
%IPPOS*%
%LPD*%
%AMOC8*
5,1,8,0,0,1.08239X$1,22.5*
%
%ADD10C,0.0000*%
%ADD11C,0.0040*%
%ADD12C,0.0100*%
%ADD13C,0.0050*%
%ADD14C,0.0060*%
%ADD15R,0.0200X0.0200*%
%ADD16C,0.0030*%
%ADD17R,0.0256X0.0197*%
%ADD18C,0.0020*%
%ADD19C,0.0004*%
%ADD20R,0.0197X0.0128*%
%ADD21R,0.0098X0.0059*%
%ADD22R,0.0069X0.0157*%
%ADD23R,0.0079X0.0079*%
%ADD24R,0.0118X0.0118*%
%ADD25R,0.0030X0.0089*%
%ADD26R,0.0197X0.0374*%
%ADD27R,0.0180X0.0300*%
%ADD28C,0.0220*%
%ADD29C,0.0080*%
%ADD30R,0.0080X0.0330*%
%ADD31R,0.1575X0.0787*%
D10*
X000800Y005443D02*
X000800Y014443D01*
X020300Y014443D01*
X020300Y005443D01*
X000800Y005443D01*
D11*
X000989Y006563D02*
X001066Y006563D01*
X001105Y006601D01*
X001105Y006679D01*
X001027Y006679D01*
X000950Y006756D02*
X000950Y006601D01*
X000989Y006563D01*
X000950Y006756D02*
X000989Y006795D01*
X001066Y006795D01*
X001105Y006756D01*
X001200Y006795D02*
X001355Y006563D01*
X001355Y006795D01*
X001451Y006795D02*
X001567Y006795D01*
X001606Y006756D01*
X001606Y006601D01*
X001567Y006563D01*
X001451Y006563D01*
X001451Y006795D01*
X001200Y006795D02*
X001200Y006563D01*
X001920Y007166D02*
X001920Y007244D01*
X001959Y007283D01*
X002036Y007244D02*
X002036Y007166D01*
X001997Y007128D01*
X001959Y007128D01*
X001920Y007166D01*
X002036Y007244D02*
X002075Y007283D01*
X002113Y007283D01*
X002152Y007244D01*
X002152Y007166D01*
X002113Y007128D01*
X002152Y007378D02*
X002152Y007533D01*
X002152Y007456D02*
X001920Y007456D01*
X001959Y007629D02*
X001920Y007667D01*
X001920Y007745D01*
X001959Y007783D01*
X002113Y007783D01*
X002152Y007745D01*
X002152Y007667D01*
X002113Y007629D01*
X002113Y008130D02*
X002152Y008168D01*
X002152Y008246D01*
X002113Y008284D01*
X001959Y008284D01*
X001920Y008246D01*
X001920Y008168D01*
X001959Y008130D01*
X001959Y008380D02*
X001920Y008419D01*
X001920Y008496D01*
X001959Y008535D01*
X002113Y008535D01*
X002152Y008496D01*
X002152Y008419D01*
X002113Y008380D01*
X002152Y008630D02*
X001997Y008630D01*
X001920Y008708D01*
X001997Y008785D01*
X002152Y008785D01*
X002113Y009131D02*
X001959Y009131D01*
X001920Y009170D01*
X001920Y009286D01*
X002152Y009286D01*
X002152Y009170D01*
X002113Y009131D01*
X002152Y009382D02*
X001920Y009382D01*
X002152Y009537D01*
X001920Y009537D01*
X001959Y009632D02*
X002036Y009632D01*
X002036Y009710D01*
X001959Y009787D02*
X001920Y009748D01*
X001920Y009671D01*
X001959Y009632D01*
X002113Y009632D02*
X002152Y009671D01*
X002152Y009748D01*
X002113Y009787D01*
X001959Y009787D01*
X001959Y010133D02*
X002113Y010133D01*
X002152Y010172D01*
X002152Y010288D01*
X001920Y010288D01*
X001920Y010172D01*
X001959Y010133D01*
X001920Y010384D02*
X002152Y010538D01*
X002152Y010634D02*
X002152Y010789D01*
X002152Y010711D02*
X001920Y010711D01*
X001920Y010538D02*
X002152Y010384D01*
X002113Y011135D02*
X001959Y011135D01*
X001920Y011174D01*
X001920Y011290D01*
X002152Y011290D01*
X002152Y011174D01*
X002113Y011135D01*
X002152Y011385D02*
X001920Y011540D01*
X001920Y011636D02*
X001997Y011713D01*
X001997Y011675D02*
X001997Y011791D01*
X001920Y011791D02*
X002152Y011791D01*
X002152Y011675D01*
X002113Y011636D01*
X002036Y011636D01*
X001997Y011675D01*
X002152Y011540D02*
X001920Y011385D01*
X001959Y012137D02*
X001920Y012176D01*
X001920Y012253D01*
X001959Y012292D01*
X002036Y012253D02*
X002036Y012176D01*
X001997Y012137D01*
X001959Y012137D01*
X002036Y012253D02*
X002075Y012292D01*
X002113Y012292D01*
X002152Y012253D01*
X002152Y012176D01*
X002113Y012137D01*
X002152Y012387D02*
X002152Y012542D01*
X002152Y012465D02*
X001920Y012465D01*
X001920Y012638D02*
X001997Y012715D01*
X001997Y012676D02*
X001997Y012793D01*
X001920Y012793D02*
X002152Y012793D01*
X002152Y012676D01*
X002113Y012638D01*
X002036Y012638D01*
X001997Y012676D01*
X002052Y013063D02*
X002168Y013063D01*
X002207Y013101D01*
X002207Y013256D01*
X002168Y013295D01*
X002052Y013295D01*
X002052Y013063D01*
X002302Y013179D02*
X002457Y013179D01*
X002380Y013256D02*
X002380Y013101D01*
X002950Y013063D02*
X002950Y013295D01*
X003066Y013295D01*
X003105Y013256D01*
X003105Y013179D01*
X003066Y013140D01*
X002950Y013140D01*
X003027Y013140D02*
X003105Y013063D01*
X003200Y013063D02*
X003355Y013295D01*
X003451Y013295D02*
X003567Y013295D01*
X003606Y013256D01*
X003606Y013101D01*
X003567Y013063D01*
X003451Y013063D01*
X003451Y013295D01*
X003200Y013295D02*
X003355Y013063D01*
X003952Y013101D02*
X003991Y013063D01*
X004068Y013063D01*
X004107Y013101D01*
X004107Y013256D02*
X004068Y013295D01*
X003991Y013295D01*
X003952Y013256D01*
X003952Y013101D01*
X004202Y013295D02*
X004357Y013295D01*
X004280Y013295D02*
X004280Y013063D01*
X004453Y013101D02*
X004491Y013063D01*
X004569Y013063D01*
X004608Y013101D01*
X004608Y013140D01*
X004569Y013179D01*
X004491Y013179D01*
X004453Y013217D01*
X004453Y013256D01*
X004491Y013295D01*
X004569Y013295D01*
X004608Y013256D01*
X004954Y013295D02*
X004954Y013063D01*
X004954Y013140D02*
X005070Y013140D01*
X005108Y013179D01*
X005108Y013256D01*
X005070Y013295D01*
X004954Y013295D01*
X005031Y013140D02*
X005108Y013063D01*
X005281Y013063D02*
X005281Y013295D01*
X005204Y013295D02*
X005359Y013295D01*
X005455Y013256D02*
X005455Y013217D01*
X005493Y013179D01*
X005571Y013179D01*
X005609Y013140D01*
X005609Y013101D01*
X005571Y013063D01*
X005493Y013063D01*
X005455Y013101D01*
X005455Y013256D02*
X005493Y013295D01*
X005571Y013295D01*
X005609Y013256D01*
X005955Y013295D02*
X006110Y013295D01*
X006033Y013295D02*
X006033Y013063D01*
X006206Y013063D02*
X006361Y013295D01*
X006456Y013295D02*
X006572Y013295D01*
X006611Y013256D01*
X006611Y013101D01*
X006572Y013063D01*
X006456Y013063D01*
X006456Y013295D01*
X006206Y013295D02*
X006361Y013063D01*
X007120Y013063D02*
X007120Y013295D01*
X007236Y013295D01*
X007275Y013256D01*
X007275Y013179D01*
X007236Y013140D01*
X007120Y013140D01*
X007370Y013063D02*
X007525Y013217D01*
X007525Y013256D01*
X007487Y013295D01*
X007409Y013295D01*
X007370Y013256D01*
X007370Y013063D02*
X007525Y013063D01*
X008122Y013063D02*
X008122Y013295D01*
X008238Y013295D01*
X008277Y013256D01*
X008277Y013179D01*
X008238Y013140D01*
X008122Y013140D01*
X008372Y013101D02*
X008411Y013063D01*
X008488Y013063D01*
X008527Y013101D01*
X008527Y013140D01*
X008488Y013179D01*
X008450Y013179D01*
X008488Y013179D02*
X008527Y013217D01*
X008527Y013256D01*
X008488Y013295D01*
X008411Y013295D01*
X008372Y013256D01*
X009124Y013295D02*
X009124Y013063D01*
X009124Y013140D02*
X009240Y013140D01*
X009278Y013179D01*
X009278Y013256D01*
X009240Y013295D01*
X009124Y013295D01*
X009374Y013179D02*
X009529Y013179D01*
X009490Y013063D02*
X009490Y013295D01*
X009374Y013179D01*
X010125Y013140D02*
X010242Y013140D01*
X010280Y013179D01*
X010280Y013256D01*
X010242Y013295D01*
X010125Y013295D01*
X010125Y013063D01*
X010376Y013101D02*
X010415Y013063D01*
X010492Y013063D01*
X010531Y013101D01*
X010531Y013179D01*
X010492Y013217D01*
X010453Y013217D01*
X010376Y013179D01*
X010376Y013295D01*
X010531Y013295D01*
X011127Y013295D02*
X011127Y013063D01*
X011127Y013140D02*
X011243Y013140D01*
X011282Y013179D01*
X011282Y013256D01*
X011243Y013295D01*
X011127Y013295D01*
X011378Y013179D02*
X011494Y013179D01*
X011533Y013140D01*
X011533Y013101D01*
X011494Y013063D01*
X011416Y013063D01*
X011378Y013101D01*
X011378Y013179D01*
X011455Y013256D01*
X011533Y013295D01*
X012129Y013295D02*
X012129Y013063D01*
X012129Y013140D02*
X012245Y013140D01*
X012284Y013179D01*
X012284Y013256D01*
X012245Y013295D01*
X012129Y013295D01*
X012380Y013295D02*
X012534Y013295D01*
X012534Y013256D01*
X012380Y013101D01*
X012380Y013063D01*
X013020Y013063D02*
X013020Y013217D01*
X013097Y013295D01*
X013175Y013217D01*
X013175Y013063D01*
X013270Y013063D02*
X013348Y013063D01*
X013309Y013063D02*
X013309Y013295D01*
X013270Y013295D02*
X013348Y013295D01*
X013437Y013256D02*
X013437Y013101D01*
X013476Y013063D01*
X013554Y013063D01*
X013592Y013101D01*
X013592Y013256D01*
X013554Y013295D01*
X013476Y013295D01*
X013437Y013256D01*
X013175Y013179D02*
X013020Y013179D01*
X005640Y012807D02*
X005360Y012807D01*
X005360Y012472D02*
X005640Y012472D01*
X005640Y011957D02*
X005360Y011957D01*
X005360Y011622D02*
X005640Y011622D01*
X005640Y011107D02*
X005360Y011107D01*
X005360Y010772D02*
X005640Y010772D01*
X005600Y010360D02*
X005467Y010360D01*
X005534Y010360D02*
X005534Y010159D01*
X005379Y010159D02*
X005246Y010159D01*
X005246Y010360D01*
X005379Y010360D01*
X005313Y010259D02*
X005246Y010259D01*
X005158Y010226D02*
X005158Y010193D01*
X005125Y010159D01*
X005058Y010159D01*
X005025Y010193D01*
X005058Y010259D02*
X005025Y010293D01*
X005025Y010326D01*
X005058Y010360D01*
X005125Y010360D01*
X005158Y010326D01*
X005125Y010259D02*
X005158Y010226D01*
X005125Y010259D02*
X005058Y010259D01*
X004937Y010159D02*
X004804Y010159D01*
X004804Y010360D01*
X004937Y010360D01*
X004871Y010259D02*
X004804Y010259D01*
X004716Y010259D02*
X004683Y010226D01*
X004583Y010226D01*
X004583Y010159D02*
X004583Y010360D01*
X004683Y010360D01*
X004716Y010326D01*
X004716Y010259D01*
X004650Y010226D02*
X004716Y010159D01*
X004820Y008763D02*
X004920Y008763D01*
X004953Y008729D01*
X004953Y008663D01*
X004920Y008629D01*
X004820Y008629D01*
X004820Y008563D02*
X004820Y008763D01*
X005041Y008763D02*
X005041Y008563D01*
X005108Y008629D01*
X005174Y008563D01*
X005174Y008763D01*
X005262Y008763D02*
X005362Y008763D01*
X005395Y008729D01*
X005395Y008663D01*
X005362Y008629D01*
X005262Y008629D01*
X005262Y008563D02*
X005262Y008763D01*
X005329Y008629D02*
X005395Y008563D01*
X005564Y008469D02*
X005003Y008469D01*
X004993Y008016D02*
X005407Y008016D01*
X005362Y007963D02*
X005395Y007929D01*
X005395Y007863D01*
X005362Y007829D01*
X005262Y007829D01*
X005262Y007763D02*
X005262Y007963D01*
X005362Y007963D01*
X005329Y007829D02*
X005395Y007763D01*
X005564Y007669D02*
X005003Y007669D01*
X005074Y007763D02*
X005041Y007796D01*
X005074Y007763D02*
X005141Y007763D01*
X005174Y007796D01*
X005174Y007829D01*
X005141Y007863D01*
X005074Y007863D01*
X005041Y007896D01*
X005041Y007929D01*
X005074Y007963D01*
X005141Y007963D01*
X005174Y007929D01*
X004953Y007963D02*
X004953Y007796D01*
X004920Y007763D01*
X004853Y007763D01*
X004820Y007796D01*
X004820Y007963D01*
X005494Y007620D02*
X005496Y007632D01*
X005501Y007643D01*
X005509Y007652D01*
X005520Y007658D01*
X005532Y007661D01*
X005544Y007660D01*
X005556Y007656D01*
X005565Y007648D01*
X005572Y007638D01*
X005576Y007626D01*
X005576Y007614D01*
X005572Y007602D01*
X005565Y007592D01*
X005555Y007584D01*
X005544Y007580D01*
X005532Y007579D01*
X005520Y007582D01*
X005509Y007588D01*
X005501Y007597D01*
X005496Y007608D01*
X005494Y007620D01*
X005407Y007216D02*
X004993Y007216D01*
X004996Y006795D02*
X004957Y006756D01*
X004957Y006717D01*
X004996Y006679D01*
X005073Y006679D01*
X005112Y006640D01*
X005112Y006601D01*
X005073Y006563D01*
X004996Y006563D01*
X004957Y006601D01*
X004996Y006795D02*
X005073Y006795D01*
X005112Y006756D01*
X005208Y006756D02*
X005285Y006679D01*
X005285Y006563D01*
X005285Y006679D02*
X005363Y006756D01*
X005363Y006795D01*
X005458Y006795D02*
X005613Y006563D01*
X005613Y006795D01*
X005458Y006795D02*
X005458Y006563D01*
X005208Y006756D02*
X005208Y006795D01*
X004611Y006756D02*
X004572Y006795D01*
X004495Y006795D01*
X004456Y006756D01*
X004456Y006717D01*
X004495Y006679D01*
X004572Y006679D01*
X004611Y006640D01*
X004611Y006601D01*
X004572Y006563D01*
X004495Y006563D01*
X004456Y006601D01*
X004361Y006563D02*
X004206Y006563D01*
X004206Y006795D01*
X004361Y006795D01*
X004283Y006679D02*
X004206Y006679D01*
X004110Y006679D02*
X004072Y006640D01*
X003955Y006640D01*
X003955Y006563D02*
X003955Y006795D01*
X004072Y006795D01*
X004110Y006756D01*
X004110Y006679D01*
X004033Y006640D02*
X004110Y006563D01*
X003609Y006601D02*
X003571Y006563D01*
X003493Y006563D01*
X003455Y006601D01*
X003359Y006640D02*
X003359Y006795D01*
X003455Y006756D02*
X003493Y006795D01*
X003571Y006795D01*
X003609Y006756D01*
X003609Y006717D01*
X003571Y006679D01*
X003609Y006640D01*
X003609Y006601D01*
X003571Y006679D02*
X003532Y006679D01*
X003359Y006640D02*
X003281Y006563D01*
X003204Y006640D01*
X003204Y006795D01*
X003108Y006756D02*
X003108Y006717D01*
X003070Y006679D01*
X003108Y006640D01*
X003108Y006601D01*
X003070Y006563D01*
X002992Y006563D01*
X002954Y006601D01*
X003031Y006679D02*
X003070Y006679D01*
X003108Y006756D02*
X003070Y006795D01*
X002992Y006795D01*
X002954Y006756D01*
X002525Y006795D02*
X002525Y006640D01*
X002448Y006563D01*
X002370Y006640D01*
X002370Y006795D01*
X002275Y006795D02*
X002120Y006795D01*
X002120Y006679D01*
X002197Y006717D01*
X002236Y006717D01*
X002275Y006679D01*
X002275Y006601D01*
X002236Y006563D01*
X002159Y006563D01*
X002120Y006601D01*
X003160Y007278D02*
X003440Y007278D01*
X003440Y007613D02*
X003160Y007613D01*
X003160Y008078D02*
X003440Y008078D01*
X003440Y008413D02*
X003160Y008413D01*
X005494Y008420D02*
X005496Y008432D01*
X005501Y008443D01*
X005509Y008452D01*
X005520Y008458D01*
X005532Y008461D01*
X005544Y008460D01*
X005556Y008456D01*
X005565Y008448D01*
X005572Y008438D01*
X005576Y008426D01*
X005576Y008414D01*
X005572Y008402D01*
X005565Y008392D01*
X005555Y008384D01*
X005544Y008380D01*
X005532Y008379D01*
X005520Y008382D01*
X005509Y008388D01*
X005501Y008397D01*
X005496Y008408D01*
X005494Y008420D01*
X005998Y006795D02*
X005959Y006756D01*
X005959Y006601D01*
X005998Y006563D01*
X006075Y006563D01*
X006114Y006601D01*
X006210Y006563D02*
X006364Y006563D01*
X006460Y006563D02*
X006460Y006795D01*
X006499Y006679D02*
X006615Y006563D01*
X006460Y006640D02*
X006615Y006795D01*
X006961Y006756D02*
X006961Y006601D01*
X007000Y006563D01*
X007077Y006563D01*
X007116Y006601D01*
X007116Y006756D01*
X007077Y006795D01*
X007000Y006795D01*
X006961Y006756D01*
X007211Y006795D02*
X007211Y006601D01*
X007250Y006563D01*
X007327Y006563D01*
X007366Y006601D01*
X007366Y006795D01*
X007462Y006795D02*
X007617Y006795D01*
X007539Y006795D02*
X007539Y006563D01*
X008150Y006563D02*
X008227Y006563D01*
X008189Y006563D02*
X008189Y006795D01*
X008227Y006795D02*
X008150Y006795D01*
X008317Y006795D02*
X008317Y006563D01*
X008472Y006563D02*
X008317Y006795D01*
X008472Y006795D02*
X008472Y006563D01*
X008965Y006601D02*
X009003Y006563D01*
X009081Y006563D01*
X009119Y006601D01*
X009215Y006601D02*
X009254Y006563D01*
X009331Y006563D01*
X009370Y006601D01*
X009370Y006640D01*
X009331Y006679D01*
X009254Y006679D01*
X009215Y006717D01*
X009215Y006756D01*
X009254Y006795D01*
X009331Y006795D01*
X009370Y006756D01*
X009465Y006795D02*
X009582Y006795D01*
X009620Y006756D01*
X009620Y006717D01*
X009582Y006679D01*
X009465Y006679D01*
X009465Y006563D02*
X009465Y006795D01*
X009582Y006679D02*
X009620Y006640D01*
X009620Y006601D01*
X009582Y006563D01*
X009465Y006563D01*
X009119Y006756D02*
X009081Y006795D01*
X009003Y006795D01*
X008965Y006756D01*
X008965Y006601D01*
X009966Y006601D02*
X010005Y006563D01*
X010082Y006563D01*
X010121Y006601D01*
X010121Y006640D01*
X010082Y006679D01*
X010005Y006679D01*
X009966Y006717D01*
X009966Y006756D01*
X010005Y006795D01*
X010082Y006795D01*
X010121Y006756D01*
X010217Y006756D02*
X010217Y006601D01*
X010255Y006563D01*
X010333Y006563D01*
X010372Y006601D01*
X010467Y006563D02*
X010467Y006795D01*
X010372Y006756D02*
X010333Y006795D01*
X010255Y006795D01*
X010217Y006756D01*
X010467Y006640D02*
X010622Y006795D01*
X010506Y006679D02*
X010622Y006563D01*
X010880Y006563D02*
X010880Y006795D01*
X010957Y006717D01*
X011035Y006795D01*
X011035Y006563D01*
X011130Y006563D02*
X011208Y006563D01*
X011169Y006563D02*
X011169Y006795D01*
X011130Y006795D02*
X011208Y006795D01*
X011297Y006756D02*
X011297Y006717D01*
X011336Y006679D01*
X011414Y006679D01*
X011452Y006640D01*
X011452Y006601D01*
X011414Y006563D01*
X011336Y006563D01*
X011297Y006601D01*
X011297Y006756D02*
X011336Y006795D01*
X011414Y006795D01*
X011452Y006756D01*
X011548Y006756D02*
X011548Y006601D01*
X011587Y006563D01*
X011664Y006563D01*
X011703Y006601D01*
X011703Y006756D01*
X011664Y006795D01*
X011587Y006795D01*
X011548Y006756D01*
X011890Y006795D02*
X011890Y006563D01*
X012045Y006563D02*
X012045Y006795D01*
X011967Y006717D01*
X011890Y006795D01*
X012140Y006756D02*
X012140Y006601D01*
X012179Y006563D01*
X012257Y006563D01*
X012295Y006601D01*
X012295Y006756D01*
X012257Y006795D01*
X012179Y006795D01*
X012140Y006756D01*
X012391Y006756D02*
X012391Y006717D01*
X012430Y006679D01*
X012507Y006679D01*
X012546Y006640D01*
X012546Y006601D01*
X012507Y006563D01*
X012430Y006563D01*
X012391Y006601D01*
X012391Y006756D02*
X012430Y006795D01*
X012507Y006795D01*
X012546Y006756D01*
X012641Y006795D02*
X012719Y006795D01*
X012680Y006795D02*
X012680Y006563D01*
X012641Y006563D02*
X012719Y006563D01*
X006210Y006563D02*
X006210Y006795D01*
X006114Y006756D02*
X006075Y006795D01*
X005998Y006795D01*
X001166Y013063D02*
X001050Y013063D01*
X001050Y013295D01*
X001166Y013295D01*
X001205Y013256D01*
X001205Y013101D01*
X001166Y013063D01*
X001300Y013179D02*
X001455Y013179D01*
D12*
X002800Y013443D02*
X002800Y014443D01*
X006800Y014443D02*
X006800Y013443D01*
X004800Y006443D02*
X004800Y005443D01*
X001800Y005443D02*
X001800Y006443D01*
X000800Y006443D01*
X000800Y005443D01*
X001800Y005443D01*
X008800Y005443D02*
X008800Y006443D01*
D13*
X008950Y006893D02*
X009600Y006893D01*
X006261Y007187D02*
X006261Y012698D01*
X020335Y012698D01*
X020335Y007187D01*
X006261Y007187D01*
X005848Y008891D02*
X004352Y008891D01*
X004352Y009994D01*
X004706Y009994D01*
X005494Y009994D01*
X005848Y009994D01*
X005848Y008891D01*
X002250Y007793D02*
X002250Y007143D01*
X002250Y012143D02*
X002250Y012793D01*
X003950Y013368D02*
X004600Y013368D01*
X004950Y013368D02*
X005600Y013368D01*
D14*
X005550Y013443D02*
X005050Y013443D01*
X004800Y013693D01*
X004550Y013443D01*
X004050Y013443D01*
X003800Y013693D01*
X003550Y013443D01*
X003050Y013443D01*
X002800Y013693D01*
X002550Y013443D01*
X002050Y013443D01*
X001800Y013693D01*
X001550Y013443D01*
X001050Y013443D01*
X000800Y013693D01*
X000800Y014193D01*
X001050Y014443D01*
X001550Y014443D01*
X001800Y014193D01*
X002050Y014443D01*
X002550Y014443D01*
X002800Y014193D01*
X002800Y013693D01*
X002800Y014193D01*
X003050Y014443D01*
X003550Y014443D01*
X003800Y014193D01*
X004050Y014443D01*
X004550Y014443D01*
X004800Y014193D01*
X004800Y013693D01*
X004800Y014193D02*
X005050Y014443D01*
X005550Y014443D01*
X005800Y014193D01*
X006050Y014443D01*
X006550Y014443D01*
X006800Y014193D01*
X007050Y014443D01*
X007550Y014443D01*
X007800Y014193D01*
X008050Y014443D01*
X008550Y014443D01*
X008800Y014193D01*
X008800Y013693D01*
X008550Y013443D01*
X008050Y013443D01*
X007800Y013693D01*
X007550Y013443D01*
X007050Y013443D01*
X006800Y013693D01*
X006800Y014193D01*
X006800Y013693D01*
X006550Y013443D01*
X006050Y013443D01*
X005800Y013693D01*
X005550Y013443D01*
X005800Y013693D02*
X005800Y014193D01*
X003800Y014193D02*
X003800Y013693D01*
X004590Y012441D02*
X002610Y012441D01*
X002610Y010644D01*
X004590Y010644D01*
X004590Y012441D01*
X004060Y012023D02*
X004062Y012049D01*
X004068Y012075D01*
X004077Y012099D01*
X004090Y012122D01*
X004106Y012143D01*
X004125Y012161D01*
X004146Y012177D01*
X004170Y012189D01*
X004194Y012197D01*
X004220Y012202D01*
X004247Y012203D01*
X004273Y012200D01*
X004298Y012193D01*
X004322Y012183D01*
X004345Y012169D01*
X004365Y012153D01*
X004382Y012133D01*
X004397Y012111D01*
X004408Y012087D01*
X004416Y012062D01*
X004420Y012036D01*
X004420Y012010D01*
X004416Y011984D01*
X004408Y011959D01*
X004397Y011935D01*
X004382Y011913D01*
X004365Y011893D01*
X004345Y011877D01*
X004322Y011863D01*
X004298Y011853D01*
X004273Y011846D01*
X004247Y011843D01*
X004220Y011844D01*
X004194Y011849D01*
X004170Y011857D01*
X004146Y011869D01*
X004125Y011885D01*
X004106Y011903D01*
X004090Y011924D01*
X004077Y011947D01*
X004068Y011971D01*
X004062Y011997D01*
X004060Y012023D01*
X001800Y012193D02*
X001550Y011943D01*
X001800Y011693D01*
X001800Y011193D01*
X001550Y010943D01*
X001050Y010943D01*
X000800Y011193D01*
X000800Y011693D01*
X001050Y011943D01*
X000800Y012193D01*
X000800Y012693D01*
X001050Y012943D01*
X001550Y012943D01*
X001800Y012693D01*
X001800Y012193D01*
X001550Y011943D02*
X001050Y011943D01*
X001050Y010943D02*
X000800Y010693D01*
X000800Y010193D01*
X001050Y009943D01*
X000800Y009693D01*
X000800Y009193D01*
X001050Y008943D01*
X000800Y008693D01*
X000800Y008193D01*
X001050Y007943D01*
X000800Y007693D01*
X000800Y007193D01*
X001050Y006943D01*
X001550Y006943D01*
X001800Y007193D01*
X001800Y007693D01*
X001550Y007943D01*
X001050Y007943D01*
X001550Y007943D02*
X001800Y008193D01*
X001800Y008693D01*
X001550Y008943D01*
X001050Y008943D01*
X001550Y008943D02*
X001800Y009193D01*
X001800Y009693D01*
X001550Y009943D01*
X001050Y009943D01*
X001550Y009943D02*
X001800Y010193D01*
X001800Y010693D01*
X001550Y010943D01*
X002931Y010002D02*
X002931Y009965D01*
X002931Y010002D02*
X002931Y008883D01*
X002931Y008920D01*
X002931Y008883D02*
X003569Y008883D01*
X003569Y008920D01*
X003569Y008883D02*
X003569Y010002D01*
X003569Y009965D01*
X003569Y010002D02*
X002931Y010002D01*
X002931Y009648D02*
X002931Y009237D01*
X003569Y009237D02*
X003569Y009274D01*
X003569Y009611D02*
X003569Y009648D01*
X003550Y006443D02*
X003050Y006443D01*
X002800Y006193D01*
X002800Y005693D01*
X002550Y005443D01*
X002050Y005443D01*
X001800Y005693D01*
X001550Y005443D01*
X001050Y005443D01*
X000800Y005693D01*
X000800Y006193D01*
X001050Y006443D01*
X001550Y006443D01*
X001800Y006193D01*
X002050Y006443D01*
X002550Y006443D01*
X002800Y006193D01*
X002800Y005693D02*
X003050Y005443D01*
X003550Y005443D01*
X003800Y005693D01*
X004050Y005443D01*
X004550Y005443D01*
X004800Y005693D01*
X004800Y006193D01*
X004550Y006443D01*
X004050Y006443D01*
X003800Y006193D01*
X003800Y005693D01*
X003800Y006193D02*
X003550Y006443D01*
X004800Y006193D02*
X004800Y005693D01*
X005050Y005443D01*
X005550Y005443D01*
X005800Y005693D01*
X005800Y006193D01*
X005550Y006443D01*
X005050Y006443D01*
X004800Y006193D01*
X005800Y006193D02*
X006050Y006443D01*
X006550Y006443D01*
X006800Y006193D01*
X007050Y006443D01*
X007550Y006443D01*
X007800Y006193D01*
X008050Y006443D01*
X008550Y006443D01*
X008800Y006193D01*
X009050Y006443D01*
X009550Y006443D01*
X009800Y006193D01*
X010050Y006443D01*
X010550Y006443D01*
X010800Y006193D01*
X011050Y006443D01*
X011550Y006443D01*
X011800Y006193D01*
X012050Y006443D01*
X012550Y006443D01*
X012800Y006193D01*
X012800Y005693D01*
X012550Y005443D01*
X012050Y005443D01*
X011800Y005693D01*
X011550Y005443D01*
X011050Y005443D01*
X010800Y005693D01*
X010800Y006193D01*
X010800Y005693D02*
X010550Y005443D01*
X010050Y005443D01*
X009800Y005693D01*
X009550Y005443D01*
X009050Y005443D01*
X008800Y005693D01*
X008800Y006193D01*
X008800Y005693D01*
X008550Y005443D01*
X008050Y005443D01*
X007800Y005693D01*
X007550Y005443D01*
X007050Y005443D01*
X006800Y005693D01*
X006800Y006193D01*
X006800Y005693D02*
X006550Y005443D01*
X006050Y005443D01*
X005800Y005693D01*
X007800Y005693D02*
X007800Y006193D01*
X009800Y006193D02*
X009800Y005693D01*
X011800Y005693D02*
X011800Y006193D01*
X011815Y009073D02*
X011815Y009500D01*
X011708Y009500D01*
X011815Y009713D02*
X011815Y009820D01*
X011814Y009909D02*
X011707Y009909D01*
X011814Y009909D02*
X011920Y010016D01*
X011920Y010550D01*
X011600Y010550D01*
X011493Y010443D01*
X011493Y010229D01*
X011600Y010123D01*
X011920Y010123D01*
X012138Y010123D02*
X012351Y010123D01*
X012245Y010123D02*
X012245Y010550D01*
X012138Y010550D01*
X012245Y010763D02*
X012245Y010870D01*
X012674Y010550D02*
X012568Y010443D01*
X012568Y010229D01*
X012674Y010123D01*
X012995Y010123D01*
X012995Y010016D02*
X012995Y010550D01*
X012674Y010550D01*
X013212Y010229D02*
X013319Y010336D01*
X013639Y010336D01*
X013639Y010443D02*
X013639Y010123D01*
X013319Y010123D01*
X013212Y010229D01*
X012995Y010016D02*
X012888Y009909D01*
X012781Y009909D01*
X012996Y009713D02*
X013209Y009500D01*
X013209Y009073D01*
X013209Y009393D02*
X012782Y009393D01*
X012782Y009500D02*
X012996Y009713D01*
X012782Y009500D02*
X012782Y009073D01*
X012565Y009393D02*
X012138Y009393D01*
X011922Y009073D02*
X011708Y009073D01*
X011491Y009073D02*
X011064Y009073D01*
X011277Y009073D02*
X011277Y009713D01*
X011064Y009500D01*
X010633Y009713D02*
X010633Y009073D01*
X010846Y009073D02*
X010419Y009073D01*
X009988Y009073D02*
X009988Y009713D01*
X009775Y009713D02*
X010202Y009713D01*
X010419Y009500D02*
X010633Y009713D01*
X010631Y010123D02*
X010311Y010123D01*
X010204Y010229D01*
X010204Y010550D01*
X009881Y010763D02*
X009881Y010123D01*
X009775Y010123D02*
X009988Y010123D01*
X009557Y010229D02*
X009557Y010336D01*
X009450Y010443D01*
X009130Y010443D01*
X009450Y010443D02*
X009557Y010550D01*
X009557Y010656D01*
X009450Y010763D01*
X009130Y010763D01*
X009130Y010123D01*
X009450Y010123D01*
X009557Y010229D01*
X009775Y010763D02*
X009881Y010763D01*
X010631Y010550D02*
X010631Y010123D01*
X010849Y010229D02*
X010849Y010443D01*
X010956Y010550D01*
X011169Y010550D01*
X011276Y010443D01*
X011276Y010336D01*
X010849Y010336D01*
X010849Y010229D02*
X010956Y010123D01*
X011169Y010123D01*
X009557Y009713D02*
X009557Y009073D01*
X009344Y009286D01*
X009130Y009073D01*
X009130Y009713D01*
X013319Y010550D02*
X013532Y010550D01*
X013639Y010443D01*
X013550Y013443D02*
X013050Y013443D01*
X012800Y013693D01*
X012550Y013443D01*
X012050Y013443D01*
X011800Y013693D01*
X011550Y013443D01*
X011050Y013443D01*
X010800Y013693D01*
X010550Y013443D01*
X010050Y013443D01*
X009800Y013693D01*
X009550Y013443D01*
X009050Y013443D01*
X008800Y013693D01*
X008800Y014193D02*
X009050Y014443D01*
X009550Y014443D01*
X009800Y014193D01*
X010050Y014443D01*
X010550Y014443D01*
X010800Y014193D01*
X011050Y014443D01*
X011550Y014443D01*
X011800Y014193D01*
X011800Y013693D01*
X011800Y014193D02*
X012050Y014443D01*
X012550Y014443D01*
X012800Y014193D01*
X013050Y014443D01*
X013550Y014443D01*
X013800Y014193D01*
X013800Y013693D01*
X013550Y013443D01*
X012800Y013693D02*
X012800Y014193D01*
X010800Y014193D02*
X010800Y013693D01*
X009800Y013693D02*
X009800Y014193D01*
X007800Y014193D02*
X007800Y013693D01*
X001800Y013693D02*
X001800Y014193D01*
X001800Y006193D02*
X001800Y005693D01*
X019280Y013503D02*
X019340Y013593D01*
X019300Y013683D01*
X019200Y013703D01*
X019200Y013793D01*
X019310Y013813D01*
X019340Y013903D01*
X019280Y013993D01*
X019350Y014063D01*
X019440Y013993D01*
X019520Y014033D01*
X019550Y014143D01*
X019640Y014143D01*
X019660Y014033D01*
X019740Y013993D01*
X019830Y014063D01*
X019900Y013993D01*
X019840Y013903D01*
X019880Y013813D01*
X019980Y013793D01*
X019980Y013703D01*
X019880Y013683D01*
X019840Y013593D01*
X019900Y013503D01*
X019830Y013443D01*
X019750Y013503D01*
X019710Y013483D01*
X019650Y013643D01*
X019700Y013633D02*
X019760Y013733D01*
X019720Y013843D01*
X019610Y013903D01*
X019480Y013863D01*
X019440Y013733D01*
X019480Y013623D01*
X019450Y013523D01*
X019360Y013473D01*
X019310Y013503D01*
X019370Y013603D01*
X019320Y013713D01*
X019220Y013733D01*
X019220Y013763D01*
X019320Y013803D01*
X019360Y013913D01*
X019310Y014003D01*
X019350Y014033D01*
X019430Y013973D01*
X019540Y014033D01*
X019570Y014123D01*
X019620Y014123D01*
X019650Y014013D01*
X019740Y013973D01*
X019820Y014033D01*
X019870Y013993D01*
X019820Y013913D01*
X019870Y013793D01*
X019950Y013773D01*
X019960Y013723D01*
X019870Y013703D01*
X019820Y013593D01*
X019860Y013513D01*
X019820Y013483D01*
X019730Y013533D01*
X019700Y013633D01*
X019838Y013633D01*
X019829Y013574D02*
X019718Y013574D01*
X019761Y013516D02*
X019858Y013516D01*
X019865Y013691D02*
X019735Y013691D01*
X019754Y013750D02*
X019955Y013750D01*
X019864Y013808D02*
X019733Y013808D01*
X019676Y013867D02*
X019839Y013867D01*
X019828Y013925D02*
X019353Y013925D01*
X019343Y013867D02*
X019493Y013867D01*
X019463Y013808D02*
X019322Y013808D01*
X019330Y013691D02*
X019455Y013691D01*
X019445Y013750D02*
X019220Y013750D01*
X019356Y013633D02*
X019476Y013633D01*
X019530Y013643D02*
X019470Y013483D01*
X019430Y013503D01*
X019350Y013443D01*
X019280Y013503D01*
X019318Y013516D02*
X019437Y013516D01*
X019465Y013574D02*
X019353Y013574D01*
X019530Y013643D02*
X019513Y013655D01*
X019498Y013670D01*
X019485Y013687D01*
X019476Y013706D01*
X019471Y013727D01*
X019469Y013748D01*
X019471Y013769D01*
X019476Y013789D01*
X019485Y013808D01*
X019497Y013826D01*
X019512Y013841D01*
X019529Y013853D01*
X019549Y013862D01*
X019569Y013867D01*
X019590Y013869D01*
X019611Y013867D01*
X019631Y013862D01*
X019651Y013853D01*
X019668Y013841D01*
X019683Y013826D01*
X019695Y013808D01*
X019704Y013789D01*
X019709Y013769D01*
X019711Y013748D01*
X019709Y013727D01*
X019704Y013706D01*
X019695Y013687D01*
X019682Y013670D01*
X019667Y013655D01*
X019650Y013643D01*
X019715Y013984D02*
X019450Y013984D01*
X019415Y013984D02*
X019321Y013984D01*
X019543Y014042D02*
X019642Y014042D01*
X019626Y014101D02*
X019563Y014101D01*
X019755Y013984D02*
X019864Y013984D01*
D15*
X013300Y013943D03*
X012300Y013943D03*
X011300Y013943D03*
X010300Y013943D03*
X009300Y013943D03*
X008300Y013943D03*
X007300Y013943D03*
X006300Y013943D03*
X005300Y013943D03*
X004300Y013943D03*
X003300Y013943D03*
X002300Y013943D03*
X001300Y013943D03*
X001300Y012443D03*
X001300Y011443D03*
X001300Y010443D03*
X001300Y009443D03*
X001300Y008443D03*
X001300Y007443D03*
X001300Y005943D03*
X002300Y005943D03*
X003300Y005943D03*
X004300Y005943D03*
X005300Y005943D03*
X006300Y005943D03*
X007300Y005943D03*
X008300Y005943D03*
X009300Y005943D03*
X010300Y005943D03*
X011300Y005943D03*
X012300Y005943D03*
D16*
X000815Y005248D02*
X000815Y004958D01*
X000815Y005054D02*
X000960Y005054D01*
X001008Y005103D01*
X001008Y005199D01*
X000960Y005248D01*
X000815Y005248D01*
X001110Y005199D02*
X001110Y005006D01*
X001158Y004958D01*
X001255Y004958D01*
X001303Y005006D01*
X001303Y005199D01*
X001255Y005248D01*
X001158Y005248D01*
X001110Y005199D01*
X001404Y005248D02*
X001404Y004958D01*
X001501Y005054D01*
X001598Y004958D01*
X001598Y005248D01*
X001699Y005248D02*
X001699Y004958D01*
X001892Y004958D01*
X001994Y004958D02*
X001994Y005248D01*
X002139Y005248D01*
X002187Y005199D01*
X002187Y005103D01*
X002139Y005054D01*
X001994Y005054D01*
X002090Y005054D02*
X002187Y004958D01*
X001892Y005248D02*
X001699Y005248D01*
X001699Y005103D02*
X001796Y005103D01*
X000557Y006912D02*
X000605Y006961D01*
X000605Y007058D01*
X000557Y007106D01*
X000508Y007106D01*
X000460Y007058D01*
X000460Y006961D01*
X000412Y006912D01*
X000363Y006912D01*
X000315Y006961D01*
X000315Y007058D01*
X000363Y007106D01*
X000315Y007207D02*
X000412Y007304D01*
X000315Y007401D01*
X000605Y007401D01*
X000605Y007502D02*
X000605Y007599D01*
X000605Y007550D02*
X000315Y007550D01*
X000315Y007502D02*
X000315Y007599D01*
X000315Y007698D02*
X000315Y007843D01*
X000363Y007892D01*
X000460Y007892D01*
X000508Y007843D01*
X000508Y007698D01*
X000508Y007795D02*
X000605Y007892D01*
X000605Y007993D02*
X000315Y007993D01*
X000315Y008186D01*
X000460Y008090D02*
X000460Y007993D01*
X000605Y007698D02*
X000315Y007698D01*
X000315Y007207D02*
X000605Y007207D01*
X004815Y005248D02*
X004815Y004958D01*
X004815Y005054D02*
X004960Y005054D01*
X005008Y005103D01*
X005008Y005199D01*
X004960Y005248D01*
X004815Y005248D01*
X005110Y005199D02*
X005110Y005006D01*
X005158Y004958D01*
X005255Y004958D01*
X005303Y005006D01*
X005404Y004958D02*
X005404Y005248D01*
X005501Y005151D01*
X005598Y005248D01*
X005598Y004958D01*
X005303Y005199D02*
X005255Y005248D01*
X005158Y005248D01*
X005110Y005199D01*
X008815Y005199D02*
X008815Y005151D01*
X008863Y005103D01*
X008960Y005103D01*
X009008Y005054D01*
X009008Y005006D01*
X008960Y004958D01*
X008863Y004958D01*
X008815Y005006D01*
X008815Y005199D02*
X008863Y005248D01*
X008960Y005248D01*
X009008Y005199D01*
X009110Y005248D02*
X009255Y005248D01*
X009303Y005199D01*
X009303Y005103D01*
X009255Y005054D01*
X009110Y005054D01*
X009110Y004958D02*
X009110Y005248D01*
X009404Y005248D02*
X009501Y005248D01*
X009453Y005248D02*
X009453Y004958D01*
X009501Y004958D02*
X009404Y004958D01*
X006805Y007939D02*
X006805Y008133D01*
X006660Y008133D01*
X006708Y008036D01*
X006708Y007988D01*
X006660Y007939D01*
X006563Y007939D01*
X006515Y007988D01*
X006515Y008084D01*
X006563Y008133D01*
X006515Y008234D02*
X006515Y008428D01*
X006515Y008331D02*
X006805Y008331D01*
X006708Y008428D01*
X006660Y011564D02*
X006660Y011758D01*
X006805Y011613D01*
X006515Y011613D01*
X006515Y011859D02*
X006515Y012053D01*
X006515Y011956D02*
X006805Y011956D01*
X006708Y012053D01*
X006785Y014678D02*
X006882Y014678D01*
X006833Y014678D02*
X006833Y014968D01*
X006785Y014968D02*
X006882Y014968D01*
X006981Y014919D02*
X006981Y014726D01*
X007030Y014678D01*
X007127Y014678D01*
X007175Y014726D01*
X007175Y014919D01*
X007127Y014968D01*
X007030Y014968D01*
X006981Y014919D01*
X003892Y014948D02*
X003699Y014948D01*
X003796Y014948D02*
X003796Y014658D01*
X003598Y014658D02*
X003501Y014754D01*
X003549Y014754D02*
X003404Y014754D01*
X003404Y014658D02*
X003404Y014948D01*
X003549Y014948D01*
X003598Y014899D01*
X003598Y014803D01*
X003549Y014754D01*
X003303Y014803D02*
X003110Y014803D01*
X003110Y014851D02*
X003206Y014948D01*
X003303Y014851D01*
X003303Y014658D01*
X003110Y014658D02*
X003110Y014851D01*
X003008Y014948D02*
X003008Y014706D01*
X002960Y014658D01*
X002863Y014658D01*
X002815Y014706D01*
X002815Y014948D01*
X001598Y014899D02*
X001598Y014851D01*
X001549Y014803D01*
X001404Y014803D01*
X001303Y014754D02*
X001303Y014706D01*
X001255Y014658D01*
X001158Y014658D01*
X001110Y014706D01*
X001008Y014706D02*
X001008Y014948D01*
X001110Y014899D02*
X001110Y014851D01*
X001158Y014803D01*
X001255Y014803D01*
X001303Y014754D01*
X001404Y014658D02*
X001549Y014658D01*
X001598Y014706D01*
X001598Y014754D01*
X001549Y014803D01*
X001598Y014899D02*
X001549Y014948D01*
X001404Y014948D01*
X001404Y014658D01*
X001303Y014899D02*
X001255Y014948D01*
X001158Y014948D01*
X001110Y014899D01*
X001008Y014706D02*
X000960Y014658D01*
X000863Y014658D01*
X000815Y014706D01*
X000815Y014948D01*
X014190Y012053D02*
X014190Y011859D01*
X014190Y011956D02*
X014480Y011956D01*
X014383Y012053D01*
X014432Y008428D02*
X014480Y008379D01*
X014480Y008282D01*
X014432Y008234D01*
X014383Y008234D01*
X014190Y008428D01*
X014190Y008234D01*
X014238Y008133D02*
X014287Y008133D01*
X014335Y008084D01*
X014335Y007988D01*
X014287Y007939D01*
X014238Y007939D01*
X014190Y007988D01*
X014190Y008084D01*
X014238Y008133D01*
X014335Y008084D02*
X014383Y008133D01*
X014432Y008133D01*
X014480Y008084D01*
X014480Y007988D01*
X014432Y007939D01*
X014383Y007939D01*
X014335Y007988D01*
D17*
X003713Y009443D03*
X002787Y009817D03*
X002787Y009069D03*
D18*
X002960Y008773D02*
X003070Y008773D01*
X003107Y008736D01*
X003107Y008663D01*
X003070Y008626D01*
X002960Y008626D01*
X003033Y008626D02*
X003107Y008553D01*
X003181Y008553D02*
X003328Y008553D01*
X003254Y008553D02*
X003254Y008773D01*
X003181Y008699D01*
X002960Y008773D02*
X002960Y008553D01*
X003670Y008803D02*
X003853Y008803D01*
X003890Y008839D01*
X003890Y008913D01*
X003853Y008949D01*
X003670Y008949D01*
X003707Y009024D02*
X003670Y009060D01*
X003670Y009134D01*
X003707Y009170D01*
X003743Y009170D01*
X003890Y009024D01*
X003890Y009170D01*
X003291Y007973D02*
X003218Y007973D01*
X003181Y007936D01*
X003107Y007936D02*
X003107Y007863D01*
X003070Y007826D01*
X002960Y007826D01*
X003033Y007826D02*
X003107Y007753D01*
X003181Y007753D02*
X003328Y007899D01*
X003328Y007936D01*
X003291Y007973D01*
X003107Y007936D02*
X003070Y007973D01*
X002960Y007973D01*
X002960Y007753D01*
X003181Y007753D02*
X003328Y007753D01*
X005197Y010453D02*
X005270Y010453D01*
X005307Y010489D01*
X005381Y010453D02*
X005528Y010453D01*
X005454Y010453D02*
X005454Y010673D01*
X005381Y010599D01*
X005307Y010636D02*
X005270Y010673D01*
X005197Y010673D01*
X005160Y010636D01*
X005160Y010489D01*
X005197Y010453D01*
X005197Y011303D02*
X005270Y011303D01*
X005307Y011339D01*
X005381Y011303D02*
X005528Y011449D01*
X005528Y011486D01*
X005491Y011523D01*
X005418Y011523D01*
X005381Y011486D01*
X005307Y011486D02*
X005270Y011523D01*
X005197Y011523D01*
X005160Y011486D01*
X005160Y011339D01*
X005197Y011303D01*
X005381Y011303D02*
X005528Y011303D01*
X005528Y012153D02*
X005381Y012153D01*
X005454Y012153D02*
X005454Y012373D01*
X005381Y012299D01*
X005307Y012153D02*
X005160Y012153D01*
X005160Y012373D01*
X004770Y012567D02*
X004770Y012641D01*
X004733Y012677D01*
X004550Y012677D01*
X004587Y012752D02*
X004550Y012788D01*
X004550Y012862D01*
X004587Y012898D01*
X004623Y012898D01*
X004660Y012862D01*
X004697Y012898D01*
X004733Y012898D01*
X004770Y012862D01*
X004770Y012788D01*
X004733Y012752D01*
X004660Y012825D02*
X004660Y012862D01*
X004770Y012567D02*
X004733Y012531D01*
X004550Y012531D01*
D19*
X004807Y008088D02*
X004807Y008124D01*
X004808Y008123D02*
X004829Y008125D01*
X004849Y008131D01*
X004867Y008140D01*
X004884Y008152D01*
X004898Y008167D01*
X004910Y008184D01*
X004919Y008202D01*
X004924Y008222D01*
X004926Y008243D01*
X004924Y008264D01*
X004919Y008284D01*
X004910Y008302D01*
X004898Y008319D01*
X004884Y008334D01*
X004867Y008346D01*
X004849Y008355D01*
X004829Y008361D01*
X004808Y008363D01*
X004807Y008398D01*
X004808Y008399D01*
X004832Y008397D01*
X004856Y008391D01*
X004878Y008381D01*
X004899Y008368D01*
X004917Y008353D01*
X004933Y008334D01*
X004945Y008313D01*
X004954Y008291D01*
X004960Y008267D01*
X004962Y008243D01*
X004960Y008219D01*
X004954Y008195D01*
X004945Y008173D01*
X004933Y008152D01*
X004917Y008133D01*
X004899Y008118D01*
X004878Y008105D01*
X004856Y008095D01*
X004832Y008089D01*
X004808Y008087D01*
X004808Y008090D01*
X004832Y008092D01*
X004855Y008098D01*
X004877Y008107D01*
X004897Y008120D01*
X004915Y008136D01*
X004930Y008154D01*
X004943Y008174D01*
X004952Y008196D01*
X004957Y008219D01*
X004959Y008243D01*
X004957Y008267D01*
X004952Y008290D01*
X004943Y008312D01*
X004930Y008332D01*
X004915Y008350D01*
X004897Y008366D01*
X004877Y008379D01*
X004855Y008388D01*
X004832Y008394D01*
X004808Y008396D01*
X004808Y008393D01*
X004831Y008391D01*
X004854Y008385D01*
X004875Y008376D01*
X004895Y008364D01*
X004913Y008348D01*
X004928Y008331D01*
X004940Y008311D01*
X004949Y008289D01*
X004954Y008266D01*
X004956Y008243D01*
X004954Y008220D01*
X004949Y008197D01*
X004940Y008175D01*
X004928Y008155D01*
X004913Y008138D01*
X004895Y008122D01*
X004875Y008110D01*
X004854Y008101D01*
X004831Y008095D01*
X004808Y008093D01*
X004808Y008096D01*
X004831Y008098D01*
X004853Y008104D01*
X004874Y008113D01*
X004893Y008125D01*
X004911Y008140D01*
X004925Y008157D01*
X004937Y008177D01*
X004946Y008198D01*
X004951Y008220D01*
X004953Y008243D01*
X004951Y008266D01*
X004946Y008288D01*
X004937Y008309D01*
X004925Y008329D01*
X004911Y008346D01*
X004893Y008361D01*
X004874Y008373D01*
X004853Y008382D01*
X004831Y008388D01*
X004808Y008390D01*
X004808Y008387D01*
X004831Y008385D01*
X004854Y008379D01*
X004876Y008369D01*
X004895Y008356D01*
X004913Y008340D01*
X004927Y008321D01*
X004938Y008300D01*
X004946Y008278D01*
X004950Y008255D01*
X004950Y008231D01*
X004946Y008208D01*
X004938Y008186D01*
X004927Y008165D01*
X004913Y008146D01*
X004895Y008130D01*
X004876Y008117D01*
X004854Y008107D01*
X004831Y008101D01*
X004808Y008099D01*
X004808Y008102D01*
X004831Y008104D01*
X004853Y008110D01*
X004874Y008120D01*
X004894Y008132D01*
X004910Y008148D01*
X004924Y008166D01*
X004935Y008187D01*
X004943Y008209D01*
X004947Y008231D01*
X004947Y008255D01*
X004943Y008277D01*
X004935Y008299D01*
X004924Y008320D01*
X004910Y008338D01*
X004894Y008354D01*
X004874Y008366D01*
X004853Y008376D01*
X004831Y008382D01*
X004808Y008384D01*
X004808Y008381D01*
X004830Y008379D01*
X004852Y008373D01*
X004873Y008364D01*
X004892Y008351D01*
X004908Y008336D01*
X004922Y008318D01*
X004933Y008298D01*
X004940Y008277D01*
X004944Y008254D01*
X004944Y008232D01*
X004940Y008209D01*
X004933Y008188D01*
X004922Y008168D01*
X004908Y008150D01*
X004892Y008135D01*
X004873Y008122D01*
X004852Y008113D01*
X004830Y008107D01*
X004808Y008105D01*
X004808Y008108D01*
X004830Y008110D01*
X004851Y008116D01*
X004871Y008125D01*
X004890Y008137D01*
X004906Y008152D01*
X004919Y008170D01*
X004930Y008189D01*
X004937Y008210D01*
X004941Y008232D01*
X004941Y008254D01*
X004937Y008276D01*
X004930Y008297D01*
X004919Y008316D01*
X004906Y008334D01*
X004890Y008349D01*
X004871Y008361D01*
X004851Y008370D01*
X004830Y008376D01*
X004808Y008378D01*
X004808Y008375D01*
X004829Y008373D01*
X004850Y008367D01*
X004870Y008358D01*
X004888Y008346D01*
X004904Y008332D01*
X004917Y008315D01*
X004927Y008296D01*
X004934Y008275D01*
X004938Y008254D01*
X004938Y008232D01*
X004934Y008211D01*
X004927Y008190D01*
X004917Y008171D01*
X004904Y008154D01*
X004888Y008140D01*
X004870Y008128D01*
X004850Y008119D01*
X004829Y008113D01*
X004808Y008111D01*
X004808Y008114D01*
X004830Y008116D01*
X004852Y008122D01*
X004872Y008132D01*
X004890Y008145D01*
X004905Y008161D01*
X004918Y008179D01*
X004927Y008199D01*
X004933Y008221D01*
X004935Y008243D01*
X004933Y008265D01*
X004927Y008287D01*
X004918Y008307D01*
X004905Y008325D01*
X004890Y008341D01*
X004872Y008354D01*
X004852Y008364D01*
X004830Y008370D01*
X004808Y008372D01*
X004808Y008369D01*
X004830Y008367D01*
X004851Y008361D01*
X004870Y008351D01*
X004888Y008339D01*
X004903Y008323D01*
X004915Y008305D01*
X004925Y008286D01*
X004930Y008265D01*
X004932Y008243D01*
X004930Y008221D01*
X004925Y008200D01*
X004915Y008181D01*
X004903Y008163D01*
X004888Y008147D01*
X004870Y008135D01*
X004851Y008125D01*
X004830Y008119D01*
X004808Y008117D01*
X004808Y008120D01*
X004829Y008122D01*
X004850Y008128D01*
X004869Y008137D01*
X004886Y008149D01*
X004901Y008165D01*
X004913Y008182D01*
X004922Y008201D01*
X004927Y008222D01*
X004929Y008243D01*
X004927Y008264D01*
X004922Y008285D01*
X004913Y008304D01*
X004901Y008321D01*
X004886Y008337D01*
X004869Y008349D01*
X004850Y008358D01*
X004829Y008364D01*
X004808Y008366D01*
X005593Y008398D02*
X005593Y008362D01*
X005592Y008363D02*
X005571Y008361D01*
X005551Y008355D01*
X005533Y008346D01*
X005516Y008334D01*
X005502Y008319D01*
X005490Y008302D01*
X005481Y008284D01*
X005476Y008264D01*
X005474Y008243D01*
X005476Y008222D01*
X005481Y008202D01*
X005490Y008184D01*
X005502Y008167D01*
X005516Y008152D01*
X005533Y008140D01*
X005551Y008131D01*
X005571Y008125D01*
X005592Y008123D01*
X005593Y008088D01*
X005592Y008087D01*
X005568Y008089D01*
X005544Y008095D01*
X005522Y008105D01*
X005501Y008118D01*
X005483Y008133D01*
X005467Y008152D01*
X005455Y008173D01*
X005446Y008195D01*
X005440Y008219D01*
X005438Y008243D01*
X005440Y008267D01*
X005446Y008291D01*
X005455Y008313D01*
X005467Y008334D01*
X005483Y008353D01*
X005501Y008368D01*
X005522Y008381D01*
X005544Y008391D01*
X005568Y008397D01*
X005592Y008399D01*
X005592Y008396D01*
X005568Y008394D01*
X005545Y008388D01*
X005523Y008379D01*
X005503Y008366D01*
X005485Y008350D01*
X005470Y008332D01*
X005457Y008312D01*
X005448Y008290D01*
X005443Y008267D01*
X005441Y008243D01*
X005443Y008219D01*
X005448Y008196D01*
X005457Y008174D01*
X005470Y008154D01*
X005485Y008136D01*
X005503Y008120D01*
X005523Y008107D01*
X005545Y008098D01*
X005568Y008092D01*
X005592Y008090D01*
X005592Y008093D01*
X005569Y008095D01*
X005546Y008101D01*
X005525Y008110D01*
X005505Y008122D01*
X005487Y008138D01*
X005472Y008155D01*
X005460Y008175D01*
X005451Y008197D01*
X005446Y008220D01*
X005444Y008243D01*
X005446Y008266D01*
X005451Y008289D01*
X005460Y008311D01*
X005472Y008331D01*
X005487Y008348D01*
X005505Y008364D01*
X005525Y008376D01*
X005546Y008385D01*
X005569Y008391D01*
X005592Y008393D01*
X005592Y008390D01*
X005569Y008388D01*
X005547Y008382D01*
X005526Y008373D01*
X005507Y008361D01*
X005489Y008346D01*
X005475Y008329D01*
X005463Y008309D01*
X005454Y008288D01*
X005449Y008266D01*
X005447Y008243D01*
X005449Y008220D01*
X005454Y008198D01*
X005463Y008177D01*
X005475Y008157D01*
X005489Y008140D01*
X005507Y008125D01*
X005526Y008113D01*
X005547Y008104D01*
X005569Y008098D01*
X005592Y008096D01*
X005592Y008099D01*
X005569Y008101D01*
X005546Y008107D01*
X005524Y008117D01*
X005505Y008130D01*
X005487Y008146D01*
X005473Y008165D01*
X005462Y008186D01*
X005454Y008208D01*
X005450Y008231D01*
X005450Y008255D01*
X005454Y008278D01*
X005462Y008300D01*
X005473Y008321D01*
X005487Y008340D01*
X005505Y008356D01*
X005524Y008369D01*
X005546Y008379D01*
X005569Y008385D01*
X005592Y008387D01*
X005592Y008384D01*
X005569Y008382D01*
X005547Y008376D01*
X005526Y008366D01*
X005506Y008354D01*
X005490Y008338D01*
X005476Y008320D01*
X005465Y008299D01*
X005457Y008277D01*
X005453Y008255D01*
X005453Y008231D01*
X005457Y008209D01*
X005465Y008187D01*
X005476Y008166D01*
X005490Y008148D01*
X005506Y008132D01*
X005526Y008120D01*
X005547Y008110D01*
X005569Y008104D01*
X005592Y008102D01*
X005592Y008105D01*
X005570Y008107D01*
X005548Y008113D01*
X005527Y008122D01*
X005508Y008135D01*
X005492Y008150D01*
X005478Y008168D01*
X005467Y008188D01*
X005460Y008209D01*
X005456Y008232D01*
X005456Y008254D01*
X005460Y008277D01*
X005467Y008298D01*
X005478Y008318D01*
X005492Y008336D01*
X005508Y008351D01*
X005527Y008364D01*
X005548Y008373D01*
X005570Y008379D01*
X005592Y008381D01*
X005592Y008378D01*
X005570Y008376D01*
X005549Y008370D01*
X005529Y008361D01*
X005510Y008349D01*
X005494Y008334D01*
X005481Y008316D01*
X005470Y008297D01*
X005463Y008276D01*
X005459Y008254D01*
X005459Y008232D01*
X005463Y008210D01*
X005470Y008189D01*
X005481Y008170D01*
X005494Y008152D01*
X005510Y008137D01*
X005529Y008125D01*
X005549Y008116D01*
X005570Y008110D01*
X005592Y008108D01*
X005592Y008111D01*
X005571Y008113D01*
X005550Y008119D01*
X005530Y008128D01*
X005512Y008140D01*
X005496Y008154D01*
X005483Y008171D01*
X005473Y008190D01*
X005466Y008211D01*
X005462Y008232D01*
X005462Y008254D01*
X005466Y008275D01*
X005473Y008296D01*
X005483Y008315D01*
X005496Y008332D01*
X005512Y008346D01*
X005530Y008358D01*
X005550Y008367D01*
X005571Y008373D01*
X005592Y008375D01*
X005592Y008372D01*
X005570Y008370D01*
X005548Y008364D01*
X005528Y008354D01*
X005510Y008341D01*
X005495Y008325D01*
X005482Y008307D01*
X005473Y008287D01*
X005467Y008265D01*
X005465Y008243D01*
X005467Y008221D01*
X005473Y008199D01*
X005482Y008179D01*
X005495Y008161D01*
X005510Y008145D01*
X005528Y008132D01*
X005548Y008122D01*
X005570Y008116D01*
X005592Y008114D01*
X005592Y008117D01*
X005570Y008119D01*
X005549Y008125D01*
X005530Y008135D01*
X005512Y008147D01*
X005497Y008163D01*
X005485Y008181D01*
X005475Y008200D01*
X005470Y008221D01*
X005468Y008243D01*
X005470Y008265D01*
X005475Y008286D01*
X005485Y008305D01*
X005497Y008323D01*
X005512Y008339D01*
X005530Y008351D01*
X005549Y008361D01*
X005570Y008367D01*
X005592Y008369D01*
X005592Y008366D01*
X005571Y008364D01*
X005550Y008358D01*
X005531Y008349D01*
X005514Y008337D01*
X005499Y008321D01*
X005487Y008304D01*
X005478Y008285D01*
X005473Y008264D01*
X005471Y008243D01*
X005473Y008222D01*
X005478Y008201D01*
X005487Y008182D01*
X005499Y008165D01*
X005514Y008149D01*
X005531Y008137D01*
X005550Y008128D01*
X005571Y008122D01*
X005592Y008120D01*
X005593Y007598D02*
X005593Y007562D01*
X005592Y007563D02*
X005571Y007561D01*
X005551Y007555D01*
X005533Y007546D01*
X005516Y007534D01*
X005502Y007519D01*
X005490Y007502D01*
X005481Y007484D01*
X005476Y007464D01*
X005474Y007443D01*
X005476Y007422D01*
X005481Y007402D01*
X005490Y007384D01*
X005502Y007367D01*
X005516Y007352D01*
X005533Y007340D01*
X005551Y007331D01*
X005571Y007325D01*
X005592Y007323D01*
X005593Y007288D01*
X005592Y007287D01*
X005568Y007289D01*
X005544Y007295D01*
X005522Y007305D01*
X005501Y007318D01*
X005483Y007333D01*
X005467Y007352D01*
X005455Y007373D01*
X005446Y007395D01*
X005440Y007419D01*
X005438Y007443D01*
X005440Y007467D01*
X005446Y007491D01*
X005455Y007513D01*
X005467Y007534D01*
X005483Y007553D01*
X005501Y007568D01*
X005522Y007581D01*
X005544Y007591D01*
X005568Y007597D01*
X005592Y007599D01*
X005592Y007596D01*
X005568Y007594D01*
X005545Y007588D01*
X005523Y007579D01*
X005503Y007566D01*
X005485Y007550D01*
X005470Y007532D01*
X005457Y007512D01*
X005448Y007490D01*
X005443Y007467D01*
X005441Y007443D01*
X005443Y007419D01*
X005448Y007396D01*
X005457Y007374D01*
X005470Y007354D01*
X005485Y007336D01*
X005503Y007320D01*
X005523Y007307D01*
X005545Y007298D01*
X005568Y007292D01*
X005592Y007290D01*
X005592Y007293D01*
X005569Y007295D01*
X005546Y007301D01*
X005525Y007310D01*
X005505Y007322D01*
X005487Y007338D01*
X005472Y007355D01*
X005460Y007375D01*
X005451Y007397D01*
X005446Y007420D01*
X005444Y007443D01*
X005446Y007466D01*
X005451Y007489D01*
X005460Y007511D01*
X005472Y007531D01*
X005487Y007548D01*
X005505Y007564D01*
X005525Y007576D01*
X005546Y007585D01*
X005569Y007591D01*
X005592Y007593D01*
X005592Y007590D01*
X005569Y007588D01*
X005547Y007582D01*
X005526Y007573D01*
X005507Y007561D01*
X005489Y007546D01*
X005475Y007529D01*
X005463Y007509D01*
X005454Y007488D01*
X005449Y007466D01*
X005447Y007443D01*
X005449Y007420D01*
X005454Y007398D01*
X005463Y007377D01*
X005475Y007357D01*
X005489Y007340D01*
X005507Y007325D01*
X005526Y007313D01*
X005547Y007304D01*
X005569Y007298D01*
X005592Y007296D01*
X005592Y007299D01*
X005569Y007301D01*
X005546Y007307D01*
X005524Y007317D01*
X005505Y007330D01*
X005487Y007346D01*
X005473Y007365D01*
X005462Y007386D01*
X005454Y007408D01*
X005450Y007431D01*
X005450Y007455D01*
X005454Y007478D01*
X005462Y007500D01*
X005473Y007521D01*
X005487Y007540D01*
X005505Y007556D01*
X005524Y007569D01*
X005546Y007579D01*
X005569Y007585D01*
X005592Y007587D01*
X005592Y007584D01*
X005569Y007582D01*
X005547Y007576D01*
X005526Y007566D01*
X005506Y007554D01*
X005490Y007538D01*
X005476Y007520D01*
X005465Y007499D01*
X005457Y007477D01*
X005453Y007455D01*
X005453Y007431D01*
X005457Y007409D01*
X005465Y007387D01*
X005476Y007366D01*
X005490Y007348D01*
X005506Y007332D01*
X005526Y007320D01*
X005547Y007310D01*
X005569Y007304D01*
X005592Y007302D01*
X005592Y007305D01*
X005570Y007307D01*
X005548Y007313D01*
X005527Y007322D01*
X005508Y007335D01*
X005492Y007350D01*
X005478Y007368D01*
X005467Y007388D01*
X005460Y007409D01*
X005456Y007432D01*
X005456Y007454D01*
X005460Y007477D01*
X005467Y007498D01*
X005478Y007518D01*
X005492Y007536D01*
X005508Y007551D01*
X005527Y007564D01*
X005548Y007573D01*
X005570Y007579D01*
X005592Y007581D01*
X005592Y007578D01*
X005570Y007576D01*
X005549Y007570D01*
X005529Y007561D01*
X005510Y007549D01*
X005494Y007534D01*
X005481Y007516D01*
X005470Y007497D01*
X005463Y007476D01*
X005459Y007454D01*
X005459Y007432D01*
X005463Y007410D01*
X005470Y007389D01*
X005481Y007370D01*
X005494Y007352D01*
X005510Y007337D01*
X005529Y007325D01*
X005549Y007316D01*
X005570Y007310D01*
X005592Y007308D01*
X005592Y007311D01*
X005571Y007313D01*
X005550Y007319D01*
X005530Y007328D01*
X005512Y007340D01*
X005496Y007354D01*
X005483Y007371D01*
X005473Y007390D01*
X005466Y007411D01*
X005462Y007432D01*
X005462Y007454D01*
X005466Y007475D01*
X005473Y007496D01*
X005483Y007515D01*
X005496Y007532D01*
X005512Y007546D01*
X005530Y007558D01*
X005550Y007567D01*
X005571Y007573D01*
X005592Y007575D01*
X005592Y007572D01*
X005570Y007570D01*
X005548Y007564D01*
X005528Y007554D01*
X005510Y007541D01*
X005495Y007525D01*
X005482Y007507D01*
X005473Y007487D01*
X005467Y007465D01*
X005465Y007443D01*
X005467Y007421D01*
X005473Y007399D01*
X005482Y007379D01*
X005495Y007361D01*
X005510Y007345D01*
X005528Y007332D01*
X005548Y007322D01*
X005570Y007316D01*
X005592Y007314D01*
X005592Y007317D01*
X005570Y007319D01*
X005549Y007325D01*
X005530Y007335D01*
X005512Y007347D01*
X005497Y007363D01*
X005485Y007381D01*
X005475Y007400D01*
X005470Y007421D01*
X005468Y007443D01*
X005470Y007465D01*
X005475Y007486D01*
X005485Y007505D01*
X005497Y007523D01*
X005512Y007539D01*
X005530Y007551D01*
X005549Y007561D01*
X005570Y007567D01*
X005592Y007569D01*
X005592Y007566D01*
X005571Y007564D01*
X005550Y007558D01*
X005531Y007549D01*
X005514Y007537D01*
X005499Y007521D01*
X005487Y007504D01*
X005478Y007485D01*
X005473Y007464D01*
X005471Y007443D01*
X005473Y007422D01*
X005478Y007401D01*
X005487Y007382D01*
X005499Y007365D01*
X005514Y007349D01*
X005531Y007337D01*
X005550Y007328D01*
X005571Y007322D01*
X005592Y007320D01*
X004807Y007288D02*
X004807Y007324D01*
X004808Y007323D02*
X004829Y007325D01*
X004849Y007331D01*
X004867Y007340D01*
X004884Y007352D01*
X004898Y007367D01*
X004910Y007384D01*
X004919Y007402D01*
X004924Y007422D01*
X004926Y007443D01*
X004924Y007464D01*
X004919Y007484D01*
X004910Y007502D01*
X004898Y007519D01*
X004884Y007534D01*
X004867Y007546D01*
X004849Y007555D01*
X004829Y007561D01*
X004808Y007563D01*
X004807Y007598D01*
X004808Y007599D01*
X004832Y007597D01*
X004856Y007591D01*
X004878Y007581D01*
X004899Y007568D01*
X004917Y007553D01*
X004933Y007534D01*
X004945Y007513D01*
X004954Y007491D01*
X004960Y007467D01*
X004962Y007443D01*
X004960Y007419D01*
X004954Y007395D01*
X004945Y007373D01*
X004933Y007352D01*
X004917Y007333D01*
X004899Y007318D01*
X004878Y007305D01*
X004856Y007295D01*
X004832Y007289D01*
X004808Y007287D01*
X004808Y007290D01*
X004832Y007292D01*
X004855Y007298D01*
X004877Y007307D01*
X004897Y007320D01*
X004915Y007336D01*
X004930Y007354D01*
X004943Y007374D01*
X004952Y007396D01*
X004957Y007419D01*
X004959Y007443D01*
X004957Y007467D01*
X004952Y007490D01*
X004943Y007512D01*
X004930Y007532D01*
X004915Y007550D01*
X004897Y007566D01*
X004877Y007579D01*
X004855Y007588D01*
X004832Y007594D01*
X004808Y007596D01*
X004808Y007593D01*
X004831Y007591D01*
X004854Y007585D01*
X004875Y007576D01*
X004895Y007564D01*
X004913Y007548D01*
X004928Y007531D01*
X004940Y007511D01*
X004949Y007489D01*
X004954Y007466D01*
X004956Y007443D01*
X004954Y007420D01*
X004949Y007397D01*
X004940Y007375D01*
X004928Y007355D01*
X004913Y007338D01*
X004895Y007322D01*
X004875Y007310D01*
X004854Y007301D01*
X004831Y007295D01*
X004808Y007293D01*
X004808Y007296D01*
X004831Y007298D01*
X004853Y007304D01*
X004874Y007313D01*
X004893Y007325D01*
X004911Y007340D01*
X004925Y007357D01*
X004937Y007377D01*
X004946Y007398D01*
X004951Y007420D01*
X004953Y007443D01*
X004951Y007466D01*
X004946Y007488D01*
X004937Y007509D01*
X004925Y007529D01*
X004911Y007546D01*
X004893Y007561D01*
X004874Y007573D01*
X004853Y007582D01*
X004831Y007588D01*
X004808Y007590D01*
X004808Y007587D01*
X004831Y007585D01*
X004854Y007579D01*
X004876Y007569D01*
X004895Y007556D01*
X004913Y007540D01*
X004927Y007521D01*
X004938Y007500D01*
X004946Y007478D01*
X004950Y007455D01*
X004950Y007431D01*
X004946Y007408D01*
X004938Y007386D01*
X004927Y007365D01*
X004913Y007346D01*
X004895Y007330D01*
X004876Y007317D01*
X004854Y007307D01*
X004831Y007301D01*
X004808Y007299D01*
X004808Y007302D01*
X004831Y007304D01*
X004853Y007310D01*
X004874Y007320D01*
X004894Y007332D01*
X004910Y007348D01*
X004924Y007366D01*
X004935Y007387D01*
X004943Y007409D01*
X004947Y007431D01*
X004947Y007455D01*
X004943Y007477D01*
X004935Y007499D01*
X004924Y007520D01*
X004910Y007538D01*
X004894Y007554D01*
X004874Y007566D01*
X004853Y007576D01*
X004831Y007582D01*
X004808Y007584D01*
X004808Y007581D01*
X004830Y007579D01*
X004852Y007573D01*
X004873Y007564D01*
X004892Y007551D01*
X004908Y007536D01*
X004922Y007518D01*
X004933Y007498D01*
X004940Y007477D01*
X004944Y007454D01*
X004944Y007432D01*
X004940Y007409D01*
X004933Y007388D01*
X004922Y007368D01*
X004908Y007350D01*
X004892Y007335D01*
X004873Y007322D01*
X004852Y007313D01*
X004830Y007307D01*
X004808Y007305D01*
X004808Y007308D01*
X004830Y007310D01*
X004851Y007316D01*
X004871Y007325D01*
X004890Y007337D01*
X004906Y007352D01*
X004919Y007370D01*
X004930Y007389D01*
X004937Y007410D01*
X004941Y007432D01*
X004941Y007454D01*
X004937Y007476D01*
X004930Y007497D01*
X004919Y007516D01*
X004906Y007534D01*
X004890Y007549D01*
X004871Y007561D01*
X004851Y007570D01*
X004830Y007576D01*
X004808Y007578D01*
X004808Y007575D01*
X004829Y007573D01*
X004850Y007567D01*
X004870Y007558D01*
X004888Y007546D01*
X004904Y007532D01*
X004917Y007515D01*
X004927Y007496D01*
X004934Y007475D01*
X004938Y007454D01*
X004938Y007432D01*
X004934Y007411D01*
X004927Y007390D01*
X004917Y007371D01*
X004904Y007354D01*
X004888Y007340D01*
X004870Y007328D01*
X004850Y007319D01*
X004829Y007313D01*
X004808Y007311D01*
X004808Y007314D01*
X004830Y007316D01*
X004852Y007322D01*
X004872Y007332D01*
X004890Y007345D01*
X004905Y007361D01*
X004918Y007379D01*
X004927Y007399D01*
X004933Y007421D01*
X004935Y007443D01*
X004933Y007465D01*
X004927Y007487D01*
X004918Y007507D01*
X004905Y007525D01*
X004890Y007541D01*
X004872Y007554D01*
X004852Y007564D01*
X004830Y007570D01*
X004808Y007572D01*
X004808Y007569D01*
X004830Y007567D01*
X004851Y007561D01*
X004870Y007551D01*
X004888Y007539D01*
X004903Y007523D01*
X004915Y007505D01*
X004925Y007486D01*
X004930Y007465D01*
X004932Y007443D01*
X004930Y007421D01*
X004925Y007400D01*
X004915Y007381D01*
X004903Y007363D01*
X004888Y007347D01*
X004870Y007335D01*
X004851Y007325D01*
X004830Y007319D01*
X004808Y007317D01*
X004808Y007320D01*
X004829Y007322D01*
X004850Y007328D01*
X004869Y007337D01*
X004886Y007349D01*
X004901Y007365D01*
X004913Y007382D01*
X004922Y007401D01*
X004927Y007422D01*
X004929Y007443D01*
X004927Y007464D01*
X004922Y007485D01*
X004913Y007504D01*
X004901Y007521D01*
X004886Y007537D01*
X004869Y007549D01*
X004850Y007558D01*
X004829Y007564D01*
X004808Y007566D01*
D20*
X004905Y007625D03*
X004905Y007260D03*
X005495Y007260D03*
X005495Y008060D03*
X004905Y008060D03*
X004905Y008425D03*
D21*
X004954Y008341D03*
X004954Y008144D03*
X005446Y008144D03*
X005446Y008341D03*
X005446Y007541D03*
X005446Y007344D03*
X004954Y007344D03*
X004954Y007541D03*
D22*
X004969Y007443D03*
X005431Y007443D03*
X005431Y008243D03*
X004969Y008243D03*
D23*
X005239Y008243D03*
X005239Y007443D03*
D24*
X005456Y007620D03*
X005456Y008420D03*
D25*
X005579Y008444D03*
X005579Y007644D03*
D26*
X003528Y007445D03*
X003068Y007445D03*
X003068Y008245D03*
X003528Y008245D03*
X005272Y010941D03*
X005732Y010941D03*
X005732Y011791D03*
X005272Y011791D03*
X005272Y012641D03*
X005732Y012641D03*
D27*
X003300Y008243D03*
X003300Y007443D03*
D28*
X005500Y010931D02*
X005500Y010955D01*
X005500Y011781D02*
X005500Y011805D01*
D29*
X005570Y009023D02*
X005572Y009031D01*
X005577Y009038D01*
X005584Y009042D01*
X005592Y009043D01*
X005600Y009040D01*
X005606Y009035D01*
X005610Y009027D01*
X005610Y009019D01*
X005606Y009011D01*
X005600Y009006D01*
X005592Y009003D01*
X005584Y009004D01*
X005577Y009008D01*
X005572Y009015D01*
X005570Y009023D01*
D30*
X004368Y010479D03*
X004112Y010479D03*
X003856Y010479D03*
X003600Y010479D03*
X003344Y010479D03*
X003088Y010479D03*
X002832Y010479D03*
X002832Y012606D03*
X003088Y012606D03*
X003344Y012606D03*
X003600Y012606D03*
X003856Y012606D03*
X004112Y012606D03*
X004368Y012606D03*
D31*
X019206Y008368D03*
M02*
