G75*
%MOIN*%
%OFA0B0*%
%FSLAX24Y24*%
%IPPOS*%
%LPD*%
%AMOC8*
5,1,8,0,0,1.08239X$1,22.5*
%
%ADD10OC8,0.0700*%
%ADD11R,0.0250X0.0500*%
%ADD12C,0.0060*%
%ADD13C,0.0270*%
%ADD14C,0.0160*%
%ADD15C,0.0100*%
D10*
X001300Y005943D03*
X002300Y005943D03*
X003300Y005943D03*
X004300Y005943D03*
X005300Y005943D03*
X006300Y005943D03*
X007300Y005943D03*
X008300Y005943D03*
X009300Y005943D03*
X010300Y005943D03*
X011300Y005943D03*
X012300Y005943D03*
X012300Y013943D03*
X011300Y013943D03*
X010300Y013943D03*
X009300Y013943D03*
X008300Y013943D03*
X007300Y013943D03*
X006300Y013943D03*
X005300Y013943D03*
X004300Y013943D03*
X003300Y013943D03*
X002300Y013943D03*
X001300Y013943D03*
X001300Y012443D03*
X001300Y011443D03*
X001300Y010443D03*
X001300Y009443D03*
X001300Y008443D03*
X001300Y007443D03*
X013300Y013943D03*
D11*
X004662Y008343D03*
X004338Y008343D03*
X004338Y007343D03*
X004662Y007343D03*
D12*
X004700Y007303D01*
X005240Y006763D01*
X009920Y006763D01*
X009920Y008083D01*
X009080Y008683D02*
X011300Y010903D01*
X011300Y011983D02*
X011180Y012103D01*
X006500Y012103D01*
X006380Y011983D01*
X005600Y012223D02*
X011480Y012223D01*
X011660Y012043D01*
X011600Y012763D02*
X006500Y012763D01*
X006500Y013903D01*
X006320Y013903D01*
X006300Y013943D01*
X005660Y013483D02*
X004640Y013483D01*
X003740Y013483D01*
X003320Y013903D01*
X003300Y013943D01*
X002840Y013603D02*
X003800Y012643D01*
X006380Y012643D01*
X006500Y012763D01*
X006260Y012883D02*
X005660Y013483D01*
X004760Y013603D02*
X004640Y013483D01*
X004580Y012523D02*
X002720Y012523D01*
X001300Y013943D01*
X001300Y012443D02*
X002000Y011743D01*
X003560Y011743D01*
X003620Y011683D01*
X003560Y011443D02*
X001300Y011443D01*
X001340Y010483D02*
X001300Y010443D01*
X001340Y010483D02*
X002960Y010483D01*
X003320Y010843D01*
X003320Y011203D02*
X002540Y011203D01*
X003320Y011203D02*
X003800Y010723D01*
X009020Y010723D01*
X010160Y011863D01*
X009560Y011863D02*
X009200Y011503D01*
X004460Y011503D01*
X004340Y011623D01*
X004340Y011983D01*
X004460Y011983D01*
X004580Y012103D01*
X004580Y012523D01*
X004580Y011743D02*
X008600Y011743D01*
X008720Y011863D01*
X007880Y013363D02*
X007300Y013943D01*
X007880Y013363D02*
X011540Y013363D01*
X012980Y011923D01*
X012860Y011503D02*
X011600Y012763D01*
X012620Y013483D02*
X008720Y013483D01*
X008300Y013903D01*
X008300Y013943D01*
X012620Y013483D02*
X012740Y013603D01*
X010820Y009643D02*
X012500Y007963D01*
X012500Y006403D01*
X007760Y006403D01*
X007300Y005943D01*
X006860Y006283D02*
X006740Y006403D01*
X005720Y006403D01*
X005300Y005983D01*
X005300Y005943D01*
X005360Y007003D02*
X005720Y007363D01*
X006320Y007363D01*
X007280Y008323D01*
X006680Y008923D01*
X007280Y008323D02*
X007700Y007903D01*
X007940Y008143D02*
X007940Y007003D01*
X006260Y007003D01*
X004600Y007343D02*
X004400Y007343D01*
X004338Y007343D02*
X004280Y007303D01*
X003560Y007303D01*
X003320Y007063D01*
X002720Y007483D02*
X001340Y007483D01*
X001300Y007443D01*
X002720Y007483D02*
X002720Y008683D01*
X003800Y009763D01*
X004040Y010963D02*
X003560Y011443D01*
X004400Y008343D02*
X004600Y008343D01*
X009920Y006763D02*
X011180Y006763D01*
X012260Y007843D01*
D13*
X012260Y007843D03*
X009920Y008083D03*
X009080Y008683D03*
X007940Y008143D03*
X007700Y007903D03*
X006680Y008923D03*
X005720Y008683D03*
X005180Y009463D03*
X003800Y009763D03*
X003500Y009043D03*
X002480Y008563D03*
X003380Y007843D03*
X003320Y007063D03*
X005360Y007003D03*
X006260Y007003D03*
X006860Y006283D03*
X010820Y009643D03*
X011300Y010903D03*
X011300Y011983D03*
X011660Y012043D03*
X012860Y011503D03*
X012980Y011923D03*
X013700Y011983D03*
X012740Y013603D03*
X010160Y011863D03*
X009560Y011863D03*
X008720Y011863D03*
X006380Y011983D03*
X005600Y012223D03*
X006260Y012883D03*
X004760Y013603D03*
X004340Y012283D03*
X004580Y011743D03*
X003620Y011683D03*
X003440Y011983D03*
X002540Y011203D03*
X003320Y010843D03*
X004040Y010963D03*
X006260Y010483D03*
X006980Y009763D03*
X002840Y013603D03*
X013700Y009943D03*
X017600Y010143D03*
X017600Y009743D03*
X017600Y009343D03*
X017600Y008943D03*
X017600Y008543D03*
X017600Y008143D03*
X017600Y007743D03*
X017600Y007343D03*
X017600Y006943D03*
X017600Y006543D03*
X017600Y006143D03*
X017600Y005743D03*
X017600Y010543D03*
X017600Y010943D03*
X017600Y011343D03*
X017600Y011743D03*
X017600Y012143D03*
X017600Y012543D03*
X017600Y012943D03*
X017600Y013343D03*
X017600Y013743D03*
X017600Y014143D03*
D14*
X002790Y005740D02*
X002723Y005673D01*
X002877Y005673D01*
X002810Y005740D01*
X002810Y006145D01*
X002830Y006165D01*
X002830Y007201D01*
X002941Y007313D01*
X003234Y007605D01*
X003224Y007609D01*
X003147Y007687D01*
X003105Y007788D01*
X003105Y007897D01*
X003147Y007998D01*
X003224Y008076D01*
X003325Y008118D01*
X003386Y008118D01*
X003670Y008401D01*
X003781Y008513D01*
X004073Y008513D01*
X004073Y008553D01*
X003721Y008553D01*
X003610Y008664D01*
X003506Y008768D01*
X003445Y008768D01*
X003344Y008809D01*
X003267Y008887D01*
X003237Y008959D01*
X002890Y008612D01*
X002890Y007412D01*
X002790Y007313D01*
X001790Y007313D01*
X001790Y007240D01*
X001503Y006953D01*
X001097Y006953D01*
X001030Y007020D01*
X001030Y006422D01*
X001080Y006473D01*
X001280Y006473D01*
X001280Y005963D01*
X001320Y005963D01*
X001320Y006473D01*
X001520Y006473D01*
X001828Y006164D01*
X002097Y006433D01*
X002503Y006433D01*
X002790Y006145D01*
X002790Y005740D01*
X002790Y005760D02*
X002810Y005760D01*
X002810Y005918D02*
X002790Y005918D01*
X002790Y006077D02*
X002810Y006077D01*
X002830Y006235D02*
X002700Y006235D01*
X002830Y006394D02*
X002542Y006394D01*
X002830Y006552D02*
X001030Y006552D01*
X001030Y006711D02*
X002830Y006711D01*
X002830Y006869D02*
X001030Y006869D01*
X001280Y006394D02*
X001320Y006394D01*
X001320Y006235D02*
X001280Y006235D01*
X001280Y006077D02*
X001320Y006077D01*
X001599Y006394D02*
X002058Y006394D01*
X001900Y006235D02*
X001757Y006235D01*
X001578Y007028D02*
X002830Y007028D01*
X002830Y007186D02*
X001736Y007186D01*
X002822Y007345D02*
X002973Y007345D01*
X002890Y007503D02*
X003132Y007503D01*
X003172Y007662D02*
X002890Y007662D01*
X002890Y007820D02*
X003105Y007820D01*
X003139Y007979D02*
X002890Y007979D01*
X002890Y008137D02*
X003406Y008137D01*
X003564Y008296D02*
X002890Y008296D01*
X002890Y008454D02*
X003723Y008454D01*
X003661Y008613D02*
X002890Y008613D01*
X003049Y008771D02*
X003437Y008771D01*
X003249Y008930D02*
X003207Y008930D01*
X003044Y009247D02*
X001830Y009247D01*
X001830Y009223D02*
X001830Y009423D01*
X001320Y009423D01*
X001320Y009463D01*
X001830Y009463D01*
X001830Y009662D01*
X001521Y009971D01*
X001790Y010240D01*
X001790Y010313D01*
X003030Y010313D01*
X003285Y010568D01*
X003375Y010568D01*
X003476Y010609D01*
X003553Y010687D01*
X003565Y010717D01*
X003730Y010553D01*
X005991Y010553D01*
X005985Y010537D01*
X005985Y010428D01*
X006027Y010327D01*
X006104Y010249D01*
X006205Y010208D01*
X006266Y010208D01*
X006705Y009769D01*
X006705Y009708D01*
X006747Y009607D01*
X006824Y009529D01*
X006925Y009488D01*
X007035Y009488D01*
X007136Y009529D01*
X007213Y009607D01*
X007224Y009633D01*
X008439Y009633D01*
X008550Y009744D01*
X009819Y011013D01*
X011048Y011013D01*
X011025Y010957D01*
X011025Y010868D01*
X009115Y008958D01*
X009025Y008958D01*
X008924Y008916D01*
X008847Y008838D01*
X008805Y008737D01*
X008805Y008628D01*
X008847Y008527D01*
X008924Y008449D01*
X009025Y008408D01*
X009135Y008408D01*
X009236Y008449D01*
X009313Y008527D01*
X009355Y008628D01*
X009355Y008717D01*
X011265Y010628D01*
X011355Y010628D01*
X011456Y010669D01*
X011533Y010747D01*
X011575Y010848D01*
X011575Y010957D01*
X011552Y011013D01*
X012999Y011013D01*
X013110Y011124D01*
X013694Y011708D01*
X013755Y011708D01*
X013856Y011749D01*
X013933Y011827D01*
X013975Y011928D01*
X013975Y012037D01*
X013933Y012138D01*
X013856Y012216D01*
X013755Y012258D01*
X013645Y012258D01*
X013544Y012216D01*
X013467Y012138D01*
X013425Y012037D01*
X013425Y011976D01*
X013097Y011648D01*
X013093Y011658D01*
X013084Y011668D01*
X013136Y011689D01*
X013213Y011767D01*
X013255Y011868D01*
X013255Y011977D01*
X013213Y012078D01*
X013136Y012156D01*
X013035Y012198D01*
X012945Y012198D01*
X011830Y013313D01*
X012690Y013313D01*
X012705Y013328D01*
X012795Y013328D01*
X012896Y013369D01*
X012973Y013447D01*
X013011Y013538D01*
X013097Y013453D01*
X013503Y013453D01*
X013790Y013740D01*
X013790Y014145D01*
X013723Y014213D01*
X017650Y014213D01*
X017650Y005673D01*
X012723Y005673D01*
X012790Y005740D01*
X012790Y006145D01*
X012637Y006299D01*
X012670Y006332D01*
X012670Y008033D01*
X012570Y008133D01*
X011095Y009608D01*
X011095Y009697D01*
X011053Y009798D01*
X010976Y009876D01*
X010875Y009918D01*
X010765Y009918D01*
X010664Y009876D01*
X010587Y009798D01*
X010545Y009697D01*
X010545Y009588D01*
X010587Y009487D01*
X010664Y009409D01*
X010765Y009368D01*
X010855Y009368D01*
X012134Y008088D01*
X012104Y008076D01*
X012027Y007998D01*
X011985Y007897D01*
X011985Y007808D01*
X011110Y006933D01*
X010090Y006933D01*
X010090Y007864D01*
X010153Y007927D01*
X010195Y008028D01*
X010195Y008137D01*
X012085Y008137D01*
X012019Y007979D02*
X010175Y007979D01*
X010195Y008137D02*
X010153Y008238D01*
X010076Y008316D01*
X009975Y008358D01*
X009865Y008358D01*
X009764Y008316D01*
X009687Y008238D01*
X009645Y008137D01*
X008215Y008137D01*
X008215Y008088D02*
X008215Y008197D01*
X008173Y008298D01*
X008096Y008376D01*
X007995Y008418D01*
X007885Y008418D01*
X007784Y008376D01*
X007707Y008298D01*
X007665Y008197D01*
X007665Y008178D01*
X007450Y008393D01*
X007350Y008493D01*
X006955Y008888D01*
X006955Y008977D01*
X006913Y009078D01*
X006836Y009156D01*
X006735Y009198D01*
X006625Y009198D01*
X006524Y009156D01*
X006447Y009078D01*
X006405Y008977D01*
X006405Y008868D01*
X006447Y008767D01*
X006524Y008689D01*
X006625Y008648D01*
X006715Y008648D01*
X007040Y008323D01*
X006250Y007533D01*
X005650Y007533D01*
X005550Y007433D01*
X005395Y007278D01*
X005305Y007278D01*
X005204Y007236D01*
X005127Y007158D01*
X005114Y007128D01*
X004927Y007316D01*
X004927Y007651D01*
X004845Y007733D01*
X004830Y007733D01*
X004830Y007953D01*
X004845Y007953D01*
X004927Y008035D01*
X004927Y008193D01*
X005499Y008193D01*
X005610Y008304D01*
X005714Y008408D01*
X005775Y008408D01*
X005876Y008449D01*
X005953Y008527D01*
X005995Y008628D01*
X005995Y008737D01*
X005953Y008838D01*
X005876Y008916D01*
X005775Y008958D01*
X005665Y008958D01*
X005564Y008916D01*
X005487Y008838D01*
X005445Y008737D01*
X005445Y008676D01*
X005341Y008573D01*
X004959Y008573D01*
X004927Y008604D01*
X004927Y008651D01*
X004845Y008733D01*
X004799Y008733D01*
X004599Y008933D01*
X003879Y008933D01*
X003775Y009036D01*
X003775Y009097D01*
X003733Y009198D01*
X003656Y009276D01*
X003583Y009306D01*
X003765Y009488D01*
X003855Y009488D01*
X003956Y009529D01*
X004033Y009607D01*
X004075Y009708D01*
X004075Y009817D01*
X004033Y009918D01*
X003956Y009996D01*
X003855Y010038D01*
X003745Y010038D01*
X003644Y009996D01*
X003567Y009918D01*
X003525Y009817D01*
X003525Y009728D01*
X002650Y008853D01*
X002605Y008808D01*
X002535Y008838D01*
X002425Y008838D01*
X002324Y008796D01*
X002281Y008753D01*
X001683Y008753D01*
X001521Y008914D01*
X001830Y009223D01*
X001830Y009405D02*
X003202Y009405D01*
X003361Y009564D02*
X001830Y009564D01*
X001770Y009722D02*
X003519Y009722D01*
X003551Y009881D02*
X001612Y009881D01*
X001589Y010039D02*
X006435Y010039D01*
X006593Y009881D02*
X004049Y009881D01*
X004075Y009722D02*
X006705Y009722D01*
X006790Y009564D02*
X003990Y009564D01*
X003683Y009405D02*
X009562Y009405D01*
X009404Y009247D02*
X003685Y009247D01*
X003775Y009088D02*
X006457Y009088D01*
X006405Y008930D02*
X005842Y008930D01*
X005981Y008771D02*
X006445Y008771D01*
X006750Y008613D02*
X005989Y008613D01*
X005880Y008454D02*
X006908Y008454D01*
X007013Y008296D02*
X005602Y008296D01*
X005381Y008613D02*
X004927Y008613D01*
X004760Y008771D02*
X005459Y008771D01*
X005598Y008930D02*
X004602Y008930D01*
X004927Y008137D02*
X006854Y008137D01*
X006696Y007979D02*
X004871Y007979D01*
X004830Y007820D02*
X006537Y007820D01*
X006379Y007662D02*
X004916Y007662D01*
X004927Y007503D02*
X005620Y007503D01*
X005462Y007345D02*
X004927Y007345D01*
X005057Y007186D02*
X005155Y007186D01*
X007072Y008771D02*
X008819Y008771D01*
X008811Y008613D02*
X007230Y008613D01*
X007389Y008454D02*
X008920Y008454D01*
X009240Y008454D02*
X011768Y008454D01*
X011610Y008613D02*
X009349Y008613D01*
X009409Y008771D02*
X011451Y008771D01*
X011293Y008930D02*
X009567Y008930D01*
X009726Y009088D02*
X011134Y009088D01*
X010976Y009247D02*
X009884Y009247D01*
X010043Y009405D02*
X010675Y009405D01*
X010555Y009564D02*
X010201Y009564D01*
X010360Y009722D02*
X010555Y009722D01*
X010518Y009881D02*
X010676Y009881D01*
X010677Y010039D02*
X017650Y010039D01*
X017650Y009881D02*
X010964Y009881D01*
X011085Y009722D02*
X017650Y009722D01*
X017650Y009564D02*
X011139Y009564D01*
X011298Y009405D02*
X017650Y009405D01*
X017650Y009247D02*
X011456Y009247D01*
X011615Y009088D02*
X017650Y009088D01*
X017650Y008930D02*
X011773Y008930D01*
X011932Y008771D02*
X017650Y008771D01*
X017650Y008613D02*
X012090Y008613D01*
X012249Y008454D02*
X017650Y008454D01*
X017650Y008296D02*
X012407Y008296D01*
X012566Y008137D02*
X017650Y008137D01*
X017650Y007979D02*
X012670Y007979D01*
X012670Y007820D02*
X017650Y007820D01*
X017650Y007662D02*
X012670Y007662D01*
X012670Y007503D02*
X017650Y007503D01*
X017650Y007345D02*
X012670Y007345D01*
X012670Y007186D02*
X017650Y007186D01*
X017650Y007028D02*
X012670Y007028D01*
X012670Y006869D02*
X017650Y006869D01*
X017650Y006711D02*
X012670Y006711D01*
X012670Y006552D02*
X017650Y006552D01*
X017650Y006394D02*
X012670Y006394D01*
X012700Y006235D02*
X017650Y006235D01*
X017650Y006077D02*
X012790Y006077D01*
X012790Y005918D02*
X017650Y005918D01*
X017650Y005760D02*
X012790Y005760D01*
X011205Y007028D02*
X010090Y007028D01*
X010090Y007186D02*
X011363Y007186D01*
X011522Y007345D02*
X010090Y007345D01*
X010090Y007503D02*
X011680Y007503D01*
X011839Y007662D02*
X010090Y007662D01*
X010090Y007820D02*
X011985Y007820D01*
X011927Y008296D02*
X010096Y008296D01*
X009744Y008296D02*
X008174Y008296D01*
X008215Y008088D02*
X008173Y007987D01*
X008110Y007924D01*
X008110Y006933D01*
X009750Y006933D01*
X009750Y007864D01*
X009687Y007927D01*
X009645Y008028D01*
X009645Y008137D01*
X009665Y007979D02*
X008165Y007979D01*
X008110Y007820D02*
X009750Y007820D01*
X009750Y007662D02*
X008110Y007662D01*
X008110Y007503D02*
X009750Y007503D01*
X009750Y007345D02*
X008110Y007345D01*
X008110Y007186D02*
X009750Y007186D01*
X009750Y007028D02*
X008110Y007028D01*
X007706Y008296D02*
X007547Y008296D01*
X007450Y008393D02*
X007450Y008393D01*
X006955Y008930D02*
X008958Y008930D01*
X009245Y009088D02*
X006903Y009088D01*
X007170Y009564D02*
X009721Y009564D01*
X009879Y009722D02*
X008528Y009722D01*
X008687Y009881D02*
X010038Y009881D01*
X010196Y010039D02*
X008845Y010039D01*
X009004Y010198D02*
X010355Y010198D01*
X010513Y010356D02*
X009162Y010356D01*
X009321Y010515D02*
X010672Y010515D01*
X010830Y010673D02*
X009479Y010673D01*
X009638Y010832D02*
X010989Y010832D01*
X011039Y010990D02*
X009796Y010990D01*
X010835Y010198D02*
X017650Y010198D01*
X017650Y010356D02*
X010994Y010356D01*
X011152Y010515D02*
X017650Y010515D01*
X017650Y010673D02*
X011459Y010673D01*
X011568Y010832D02*
X017650Y010832D01*
X017650Y010990D02*
X011561Y010990D01*
X013135Y011149D02*
X017650Y011149D01*
X017650Y011307D02*
X013293Y011307D01*
X013452Y011466D02*
X017650Y011466D01*
X017650Y011624D02*
X013610Y011624D01*
X013889Y011783D02*
X017650Y011783D01*
X017650Y011941D02*
X013975Y011941D01*
X013949Y012100D02*
X017650Y012100D01*
X017650Y012258D02*
X012885Y012258D01*
X012726Y012417D02*
X017650Y012417D01*
X017650Y012575D02*
X012568Y012575D01*
X012409Y012734D02*
X017650Y012734D01*
X017650Y012892D02*
X012251Y012892D01*
X012092Y013051D02*
X017650Y013051D01*
X017650Y013209D02*
X011934Y013209D01*
X012891Y013368D02*
X017650Y013368D01*
X017650Y013526D02*
X013576Y013526D01*
X013735Y013685D02*
X017650Y013685D01*
X017650Y013843D02*
X013790Y013843D01*
X013790Y014002D02*
X017650Y014002D01*
X017650Y014160D02*
X013775Y014160D01*
X013024Y013526D02*
X013006Y013526D01*
X013192Y012100D02*
X013451Y012100D01*
X013390Y011941D02*
X013255Y011941D01*
X013231Y011783D02*
X013220Y011783D01*
X006276Y010198D02*
X001748Y010198D01*
X003074Y010356D02*
X006015Y010356D01*
X005985Y010515D02*
X003232Y010515D01*
X003539Y010673D02*
X003609Y010673D01*
X002885Y009088D02*
X001695Y009088D01*
X001537Y008930D02*
X002727Y008930D01*
X002300Y008771D02*
X001664Y008771D01*
D15*
X001460Y008563D02*
X002480Y008563D01*
X001460Y008563D02*
X001340Y008443D01*
X001300Y008443D01*
X001300Y009443D02*
X001340Y009463D01*
X001940Y010063D01*
X003860Y010063D01*
X004460Y009463D01*
X005180Y009463D01*
X006980Y009463D01*
X008060Y008383D01*
X009140Y008383D01*
X010700Y009943D01*
X013700Y009943D01*
X012920Y011203D02*
X009740Y011203D01*
X008360Y009823D01*
X006980Y009823D01*
X006980Y009763D01*
X006260Y010483D01*
X004340Y012283D02*
X004040Y011983D01*
X003440Y011983D01*
X003500Y009043D02*
X003800Y008743D01*
X004520Y008743D01*
X004880Y008383D01*
X005420Y008383D01*
X005720Y008683D01*
X004880Y008383D02*
X004700Y008383D01*
X004662Y008343D01*
X004640Y008323D01*
X004640Y007723D01*
X003620Y007723D01*
X003020Y007123D01*
X003020Y005983D01*
X003260Y005983D01*
X003300Y005943D01*
X003380Y007843D02*
X003860Y008323D01*
X004280Y008323D01*
X004338Y008343D01*
X012920Y011203D02*
X013700Y011983D01*
M02*
