G75*
G70*
%OFA0B0*%
%FSLAX24Y24*%
%IPPOS*%
%LPD*%
%AMOC8*
5,1,8,0,0,1.08239X$1,22.5*
%
%ADD10C,0.0000*%
%ADD11C,0.0160*%
%ADD12C,0.0030*%
%ADD13C,0.0040*%
%ADD14C,0.0060*%
%ADD15R,0.0200X0.0200*%
%ADD16C,0.0020*%
%ADD17C,0.0050*%
%ADD18C,0.0100*%
%ADD19C,0.0200*%
%ADD20R,0.0150X0.0200*%
D10*
X000987Y000987D02*
X000987Y009987D01*
X020987Y009987D01*
X020987Y000987D01*
X000987Y000987D01*
D11*
X000987Y002487D02*
X000987Y008487D01*
X001987Y008487D01*
X001987Y002487D01*
X000987Y002487D01*
X004987Y002487D02*
X004987Y006487D01*
X005987Y006487D01*
X005987Y002487D01*
X004987Y002487D01*
X004987Y008987D02*
X006987Y008987D01*
X006987Y009987D01*
X004987Y009987D01*
X004987Y008987D01*
D12*
X005402Y008747D02*
X005595Y008747D01*
X005498Y008844D02*
X005498Y008650D01*
X005532Y008472D02*
X005470Y008410D01*
X005470Y008163D01*
X005532Y008102D01*
X005655Y008102D01*
X005717Y008163D01*
X005717Y008410D01*
X005655Y008472D01*
X005532Y008472D01*
X005349Y008410D02*
X005349Y008287D01*
X005287Y008225D01*
X005102Y008225D01*
X005102Y008102D02*
X005102Y008472D01*
X005287Y008472D01*
X005349Y008410D01*
X005838Y008472D02*
X005838Y008102D01*
X005962Y008225D01*
X006085Y008102D01*
X006085Y008472D01*
X006207Y008472D02*
X006207Y008102D01*
X006453Y008102D01*
X006575Y008102D02*
X006575Y008472D01*
X006760Y008472D01*
X006822Y008410D01*
X006822Y008287D01*
X006760Y008225D01*
X006575Y008225D01*
X006698Y008225D02*
X006822Y008102D01*
X006747Y007792D02*
X006650Y007792D01*
X006602Y007744D01*
X006602Y007550D01*
X006650Y007502D01*
X006747Y007502D01*
X006795Y007550D01*
X006896Y007502D02*
X007090Y007502D01*
X006993Y007502D02*
X006993Y007792D01*
X006896Y007695D01*
X006795Y007744D02*
X006747Y007792D01*
X006330Y008287D02*
X006207Y008287D01*
X006207Y008472D02*
X006453Y008472D01*
X006402Y008827D02*
X006595Y008827D01*
X007202Y008795D02*
X007298Y008892D01*
X007298Y008602D01*
X007202Y008602D02*
X007395Y008602D01*
X007496Y008747D02*
X007690Y008747D01*
X007641Y008892D02*
X007496Y008747D01*
X007641Y008602D02*
X007641Y008892D01*
X009702Y007597D02*
X009702Y007403D01*
X009702Y007500D02*
X009992Y007500D01*
X009895Y007597D01*
X009847Y007302D02*
X009847Y007109D01*
X009702Y007157D02*
X009992Y007157D01*
X009847Y007302D01*
X007090Y006744D02*
X007041Y006792D01*
X006945Y006792D01*
X006896Y006744D01*
X006795Y006744D02*
X006747Y006792D01*
X006650Y006792D01*
X006602Y006744D01*
X006602Y006550D01*
X006650Y006502D01*
X006747Y006502D01*
X006795Y006550D01*
X006896Y006502D02*
X007090Y006695D01*
X007090Y006744D01*
X007090Y006502D02*
X006896Y006502D01*
X006090Y006863D02*
X006028Y006802D01*
X005905Y006802D01*
X005843Y006863D01*
X005722Y006863D02*
X005660Y006802D01*
X005537Y006802D01*
X005475Y006863D01*
X005353Y006802D02*
X005353Y007049D01*
X005230Y007172D01*
X005107Y007049D01*
X005107Y006802D01*
X005107Y006987D02*
X005353Y006987D01*
X005475Y007049D02*
X005537Y006987D01*
X005660Y006987D01*
X005722Y006925D01*
X005722Y006863D01*
X005905Y006987D02*
X006028Y006987D01*
X006090Y006925D01*
X006090Y006863D01*
X005905Y006987D02*
X005843Y007049D01*
X005843Y007110D01*
X005905Y007172D01*
X006028Y007172D01*
X006090Y007110D01*
X005722Y007110D02*
X005660Y007172D01*
X005537Y007172D01*
X005475Y007110D01*
X005475Y007049D01*
X004985Y007110D02*
X004985Y006987D01*
X004923Y006925D01*
X004738Y006925D01*
X004617Y007110D02*
X004617Y007172D01*
X004617Y007110D02*
X004493Y006987D01*
X004493Y006802D01*
X004738Y006802D02*
X004738Y007172D01*
X004923Y007172D01*
X004985Y007110D01*
X004493Y006987D02*
X004370Y007110D01*
X004370Y007172D01*
X004249Y007110D02*
X004249Y007049D01*
X004187Y006987D01*
X004002Y006987D01*
X004187Y006987D02*
X004249Y006925D01*
X004249Y006863D01*
X004187Y006802D01*
X004002Y006802D01*
X004002Y007172D01*
X004187Y007172D01*
X004249Y007110D01*
X003185Y007110D02*
X003185Y006863D01*
X003123Y006802D01*
X002938Y006802D01*
X002938Y007172D01*
X003123Y007172D01*
X003185Y007110D01*
X002817Y007172D02*
X002570Y006802D01*
X002449Y006802D02*
X002325Y006925D01*
X002387Y006925D02*
X002202Y006925D01*
X002387Y006925D02*
X002449Y006987D01*
X002449Y007110D01*
X002387Y007172D01*
X002202Y007172D01*
X002202Y006802D01*
X002570Y007172D02*
X002817Y006802D01*
X002817Y006172D02*
X002570Y005802D01*
X002325Y005802D02*
X002325Y006172D01*
X002202Y006172D02*
X002449Y006172D01*
X002570Y006172D02*
X002817Y005802D01*
X002938Y005802D02*
X003123Y005802D01*
X003185Y005863D01*
X003185Y006110D01*
X003123Y006172D01*
X002938Y006172D01*
X002938Y005802D01*
X004002Y005802D02*
X004002Y006092D01*
X004147Y006092D01*
X004195Y006044D01*
X004195Y005947D01*
X004147Y005898D01*
X004002Y005898D01*
X004098Y005898D02*
X004195Y005802D01*
X004296Y005802D02*
X004490Y006092D01*
X004591Y006092D02*
X004736Y006092D01*
X004784Y006044D01*
X004784Y005850D01*
X004736Y005802D01*
X004591Y005802D01*
X004591Y006092D01*
X004296Y006092D02*
X004490Y005802D01*
X004490Y005092D02*
X004296Y005092D01*
X004393Y005092D02*
X004393Y004802D01*
X004195Y004850D02*
X004147Y004802D01*
X004050Y004802D01*
X004002Y004850D01*
X004002Y005044D01*
X004050Y005092D01*
X004147Y005092D01*
X004195Y005044D01*
X004591Y005044D02*
X004591Y004995D01*
X004639Y004947D01*
X004736Y004947D01*
X004784Y004898D01*
X004784Y004850D01*
X004736Y004802D01*
X004639Y004802D01*
X004591Y004850D01*
X004591Y005044D02*
X004639Y005092D01*
X004736Y005092D01*
X004784Y005044D01*
X003185Y005110D02*
X003185Y004863D01*
X003123Y004802D01*
X002938Y004802D01*
X002938Y005172D01*
X003123Y005172D01*
X003185Y005110D01*
X002817Y005172D02*
X002817Y004802D01*
X002570Y005172D01*
X002570Y004802D01*
X002449Y004863D02*
X002449Y004987D01*
X002325Y004987D01*
X002202Y005110D02*
X002202Y004863D01*
X002263Y004802D01*
X002387Y004802D01*
X002449Y004863D01*
X002449Y005110D02*
X002387Y005172D01*
X002263Y005172D01*
X002202Y005110D01*
X002263Y004172D02*
X002387Y004172D01*
X002449Y004110D01*
X002449Y004049D01*
X002387Y003987D01*
X002449Y003925D01*
X002449Y003863D01*
X002387Y003802D01*
X002263Y003802D01*
X002202Y003863D01*
X002325Y003987D02*
X002387Y003987D01*
X002570Y003925D02*
X002693Y003802D01*
X002817Y003925D01*
X002817Y004172D01*
X002938Y004110D02*
X003000Y004172D01*
X003123Y004172D01*
X003185Y004110D01*
X003185Y004049D01*
X003123Y003987D01*
X003185Y003925D01*
X003185Y003863D01*
X003123Y003802D01*
X003000Y003802D01*
X002938Y003863D01*
X003062Y003987D02*
X003123Y003987D01*
X002570Y003925D02*
X002570Y004172D01*
X002263Y004172D02*
X002202Y004110D01*
X004002Y004092D02*
X004002Y003802D01*
X004002Y003898D02*
X004147Y003898D01*
X004195Y003947D01*
X004195Y004044D01*
X004147Y004092D01*
X004002Y004092D01*
X004296Y004092D02*
X004490Y004092D01*
X004393Y004092D02*
X004393Y003802D01*
X004195Y003802D02*
X004098Y003898D01*
X004591Y003850D02*
X004639Y003802D01*
X004736Y003802D01*
X004784Y003850D01*
X004784Y003898D01*
X004736Y003947D01*
X004639Y003947D01*
X004591Y003995D01*
X004591Y004044D01*
X004639Y004092D01*
X004736Y004092D01*
X004784Y004044D01*
X004736Y003092D02*
X004591Y003092D01*
X004591Y002802D01*
X004736Y002802D01*
X004784Y002850D01*
X004784Y003044D01*
X004736Y003092D01*
X004490Y003092D02*
X004296Y002802D01*
X004490Y002802D02*
X004296Y003092D01*
X004195Y003092D02*
X004002Y003092D01*
X004098Y003092D02*
X004098Y002802D01*
X003185Y002863D02*
X003123Y002802D01*
X003000Y002802D01*
X002938Y002863D01*
X003000Y002987D02*
X003123Y002987D01*
X003185Y002925D01*
X003185Y002863D01*
X003000Y002987D02*
X002938Y003049D01*
X002938Y003110D01*
X003000Y003172D01*
X003123Y003172D01*
X003185Y003110D01*
X002817Y003172D02*
X002570Y003172D01*
X002693Y003172D02*
X002693Y002802D01*
X002449Y002863D02*
X002387Y002802D01*
X002263Y002802D01*
X002202Y002863D01*
X002202Y003110D01*
X002263Y003172D01*
X002387Y003172D01*
X002449Y003110D01*
X002234Y002094D02*
X002234Y001900D01*
X002282Y001852D01*
X002382Y001900D02*
X002430Y001852D01*
X002527Y001852D01*
X002576Y001900D01*
X002576Y001997D01*
X002527Y002045D01*
X002430Y002045D01*
X002382Y001997D01*
X002382Y001900D01*
X002282Y002045D02*
X002186Y002045D01*
X002084Y002045D02*
X001939Y002045D01*
X001891Y001997D01*
X001891Y001900D01*
X001939Y001852D01*
X002084Y001852D01*
X001790Y001948D02*
X001596Y001948D01*
X001596Y001900D02*
X001596Y001997D01*
X001645Y002045D01*
X001741Y002045D01*
X001790Y001997D01*
X001790Y001948D01*
X001741Y001852D02*
X001645Y001852D01*
X001596Y001900D01*
X001495Y001900D02*
X001447Y001948D01*
X001350Y001948D01*
X001302Y001997D01*
X001350Y002045D01*
X001495Y002045D01*
X001495Y001900D02*
X001447Y001852D01*
X001302Y001852D01*
X001302Y001622D02*
X001302Y001252D01*
X001425Y001375D01*
X001549Y001252D01*
X001549Y001622D01*
X001670Y001622D02*
X001917Y001622D01*
X001793Y001622D02*
X001793Y001252D01*
X002038Y001252D02*
X002285Y001252D01*
X002407Y001252D02*
X002653Y001252D01*
X002530Y001252D02*
X002530Y001622D01*
X002407Y001499D01*
X002162Y001622D02*
X002162Y001252D01*
X002038Y001499D02*
X002162Y001622D01*
X002677Y001852D02*
X002677Y002045D01*
X002773Y002045D02*
X002822Y002045D01*
X002773Y002045D02*
X002677Y001948D01*
X002922Y001997D02*
X003019Y001997D01*
X003119Y001997D02*
X003167Y002045D01*
X003264Y002045D01*
X003312Y001997D01*
X003312Y001948D01*
X003119Y001948D01*
X003119Y001900D02*
X003119Y001997D01*
X003119Y001900D02*
X003167Y001852D01*
X003264Y001852D01*
X003413Y001755D02*
X003462Y001755D01*
X003510Y001803D01*
X003510Y002045D01*
X003510Y002142D02*
X003510Y002190D01*
X003757Y002045D02*
X003902Y002045D01*
X003951Y001997D01*
X003951Y001852D01*
X004052Y001900D02*
X004100Y001852D01*
X004197Y001852D01*
X004245Y001948D02*
X004052Y001948D01*
X004052Y001900D02*
X004052Y001997D01*
X004100Y002045D01*
X004197Y002045D01*
X004245Y001997D01*
X004245Y001948D01*
X004346Y002045D02*
X004443Y002045D01*
X004395Y002094D02*
X004395Y001900D01*
X004443Y001852D01*
X004740Y001622D02*
X004740Y001252D01*
X004863Y001252D02*
X004616Y001252D01*
X004372Y001252D02*
X004495Y001499D01*
X004616Y001499D02*
X004740Y001622D01*
X005169Y001560D02*
X005231Y001622D01*
X005354Y001622D01*
X005416Y001560D01*
X005169Y001313D01*
X005231Y001252D01*
X005354Y001252D01*
X005416Y001313D01*
X005416Y001560D01*
X005169Y001560D02*
X005169Y001313D01*
X005047Y001313D02*
X005047Y001252D01*
X004985Y001252D01*
X004985Y001313D01*
X005047Y001313D01*
X004372Y001252D02*
X004248Y001499D01*
X003758Y001499D02*
X003697Y001437D01*
X003512Y001437D01*
X003390Y001499D02*
X003328Y001437D01*
X003143Y001437D01*
X003143Y001622D02*
X003328Y001622D01*
X003390Y001560D01*
X003390Y001499D01*
X003328Y001437D02*
X003390Y001375D01*
X003390Y001313D01*
X003328Y001252D01*
X003143Y001252D01*
X003143Y001622D01*
X003512Y001622D02*
X003697Y001622D01*
X003758Y001560D01*
X003758Y001499D01*
X003697Y001437D02*
X003758Y001375D01*
X003758Y001313D01*
X003697Y001252D01*
X003512Y001252D01*
X003512Y001622D01*
X003610Y001852D02*
X003658Y001852D01*
X003658Y001900D01*
X003610Y001900D01*
X003610Y001852D01*
X003757Y001852D02*
X003757Y002045D01*
X003019Y002142D02*
X002971Y002094D01*
X002971Y001852D01*
X007202Y002102D02*
X007395Y002102D01*
X007298Y002102D02*
X007298Y002392D01*
X007202Y002295D01*
X007496Y002247D02*
X007593Y002295D01*
X007641Y002295D01*
X007690Y002247D01*
X007690Y002150D01*
X007641Y002102D01*
X007545Y002102D01*
X007496Y002150D01*
X007496Y002247D02*
X007496Y002392D01*
X007690Y002392D01*
X009702Y003532D02*
X009750Y003484D01*
X009847Y003484D01*
X009895Y003532D01*
X009895Y003580D01*
X009847Y003677D01*
X009992Y003677D01*
X009992Y003484D01*
X009702Y003532D02*
X009702Y003629D01*
X009750Y003677D01*
X009702Y003778D02*
X009702Y003972D01*
X009702Y003875D02*
X009992Y003875D01*
X009895Y003972D01*
X013302Y002344D02*
X013350Y002392D01*
X013447Y002392D01*
X013495Y002344D01*
X013495Y002295D01*
X013302Y002102D01*
X013495Y002102D01*
X013596Y002102D02*
X013790Y002102D01*
X013693Y002102D02*
X013693Y002392D01*
X013596Y002295D01*
X017377Y003532D02*
X017377Y003629D01*
X017425Y003677D01*
X017473Y003677D01*
X017522Y003629D01*
X017522Y003532D01*
X017473Y003484D01*
X017425Y003484D01*
X017377Y003532D01*
X017522Y003532D02*
X017570Y003484D01*
X017619Y003484D01*
X017667Y003532D01*
X017667Y003629D01*
X017619Y003677D01*
X017570Y003677D01*
X017522Y003629D01*
X017570Y003778D02*
X017619Y003778D01*
X017667Y003827D01*
X017667Y003923D01*
X017619Y003972D01*
X017570Y003778D02*
X017377Y003972D01*
X017377Y003778D01*
X020302Y002344D02*
X020350Y002392D01*
X020447Y002392D01*
X020495Y002344D01*
X020495Y002295D01*
X020302Y002102D01*
X020495Y002102D01*
X020596Y002150D02*
X020596Y002198D01*
X020645Y002247D01*
X020741Y002247D01*
X020790Y002198D01*
X020790Y002150D01*
X020741Y002102D01*
X020645Y002102D01*
X020596Y002150D01*
X020645Y002247D02*
X020596Y002295D01*
X020596Y002344D01*
X020645Y002392D01*
X020741Y002392D01*
X020790Y002344D01*
X020790Y002295D01*
X020741Y002247D01*
X017377Y007403D02*
X017377Y007597D01*
X017377Y007500D02*
X017667Y007500D01*
X017570Y007597D01*
X020402Y008602D02*
X020595Y008602D01*
X020498Y008602D02*
X020498Y008892D01*
X020402Y008795D01*
X013595Y008795D02*
X013547Y008747D01*
X013450Y008747D01*
X013402Y008795D01*
X013402Y008844D01*
X013450Y008892D01*
X013547Y008892D01*
X013595Y008844D01*
X013595Y008795D01*
X013547Y008747D02*
X013595Y008698D01*
X013595Y008650D01*
X013547Y008602D01*
X013450Y008602D01*
X013402Y008650D01*
X013402Y008698D01*
X013450Y008747D01*
X003290Y008602D02*
X003096Y008602D01*
X003193Y008602D02*
X003193Y008892D01*
X003096Y008795D01*
X002802Y008892D02*
X002802Y008602D01*
X002995Y008602D01*
X003000Y008172D02*
X002938Y008110D01*
X002938Y008049D01*
X003000Y007987D01*
X003123Y007987D01*
X003185Y007925D01*
X003185Y007863D01*
X003123Y007802D01*
X003000Y007802D01*
X002938Y007863D01*
X002693Y007802D02*
X002693Y008172D01*
X002570Y008172D02*
X002817Y008172D01*
X003000Y008172D02*
X003123Y008172D01*
X003185Y008110D01*
X002449Y008110D02*
X002449Y007987D01*
X002387Y007925D01*
X002202Y007925D01*
X002325Y007925D02*
X002449Y007802D01*
X002202Y007802D02*
X002202Y008172D01*
X002387Y008172D01*
X002449Y008110D01*
D13*
X010507Y005767D02*
X010507Y005307D01*
X010737Y005307D01*
X010814Y005383D01*
X010814Y005460D01*
X010737Y005537D01*
X010507Y005537D01*
X010737Y005537D02*
X010814Y005614D01*
X010814Y005690D01*
X010737Y005767D01*
X010507Y005767D01*
X010967Y005767D02*
X011044Y005767D01*
X011044Y005307D01*
X010967Y005307D02*
X011121Y005307D01*
X011274Y005383D02*
X011351Y005307D01*
X011581Y005307D01*
X011581Y005614D01*
X011734Y005537D02*
X011811Y005614D01*
X011965Y005614D01*
X012041Y005537D01*
X012041Y005460D01*
X011734Y005460D01*
X011734Y005383D02*
X011734Y005537D01*
X011734Y005383D02*
X011811Y005307D01*
X011965Y005307D01*
X012195Y005383D02*
X012272Y005307D01*
X012502Y005307D01*
X012502Y005230D02*
X012502Y005614D01*
X012272Y005614D01*
X012195Y005537D01*
X012195Y005383D01*
X012425Y005153D02*
X012502Y005230D01*
X012425Y005153D02*
X012348Y005153D01*
X012655Y005307D02*
X012809Y005307D01*
X012732Y005307D02*
X012732Y005614D01*
X012655Y005614D01*
X012732Y005767D02*
X012732Y005844D01*
X013039Y005614D02*
X012962Y005537D01*
X012962Y005383D01*
X013039Y005307D01*
X013269Y005307D01*
X013269Y005230D02*
X013269Y005614D01*
X013039Y005614D01*
X013422Y005383D02*
X013499Y005460D01*
X013729Y005460D01*
X013729Y005537D02*
X013729Y005307D01*
X013499Y005307D01*
X013422Y005383D01*
X013653Y005614D02*
X013729Y005537D01*
X013653Y005614D02*
X013499Y005614D01*
X013269Y005230D02*
X013192Y005153D01*
X013116Y005153D01*
X014343Y005307D02*
X014497Y005460D01*
X014650Y005307D01*
X014650Y005767D01*
X014804Y005767D02*
X015111Y005767D01*
X014957Y005767D02*
X014957Y005307D01*
X015264Y005307D02*
X015571Y005307D01*
X015724Y005307D02*
X016031Y005307D01*
X015878Y005307D02*
X015878Y005767D01*
X015724Y005614D01*
X016185Y005537D02*
X016492Y005537D01*
X016645Y005537D02*
X016952Y005537D01*
X016952Y005614D02*
X016952Y005307D01*
X016645Y005307D02*
X016645Y005614D01*
X016799Y005767D01*
X016952Y005614D01*
X015418Y005767D02*
X015418Y005307D01*
X015264Y005614D02*
X015418Y005767D01*
X014343Y005767D02*
X014343Y005307D01*
X011274Y005383D02*
X011274Y005614D01*
D14*
X009087Y005437D02*
X009087Y005287D01*
X009087Y004937D01*
X009087Y003937D01*
X009087Y003587D01*
X009087Y003437D01*
X008887Y003237D01*
X008287Y003237D01*
X008187Y003237D01*
X008187Y003137D01*
X007587Y003137D01*
X007587Y003237D01*
X007487Y003237D01*
X006887Y003237D01*
X006687Y003437D01*
X006687Y003587D01*
X006687Y003987D01*
X006687Y004937D01*
X006687Y005287D01*
X006687Y005437D01*
X006887Y005637D01*
X007487Y005637D01*
X007587Y005637D01*
X007587Y005737D01*
X008187Y005737D01*
X008187Y005637D01*
X008287Y005637D01*
X008887Y005637D01*
X009087Y005437D01*
X008537Y005287D02*
X008539Y005315D01*
X008545Y005342D01*
X008554Y005368D01*
X008567Y005393D01*
X008584Y005416D01*
X008603Y005436D01*
X008625Y005453D01*
X008649Y005467D01*
X008675Y005477D01*
X008702Y005484D01*
X008730Y005487D01*
X008758Y005486D01*
X008785Y005481D01*
X008812Y005472D01*
X008837Y005460D01*
X008860Y005445D01*
X008881Y005426D01*
X008899Y005405D01*
X008914Y005381D01*
X008925Y005355D01*
X008933Y005329D01*
X008937Y005301D01*
X008937Y005273D01*
X008933Y005245D01*
X008925Y005219D01*
X008914Y005193D01*
X008899Y005169D01*
X008881Y005148D01*
X008860Y005129D01*
X008837Y005114D01*
X008812Y005102D01*
X008785Y005093D01*
X008758Y005088D01*
X008730Y005087D01*
X008702Y005090D01*
X008675Y005097D01*
X008649Y005107D01*
X008625Y005121D01*
X008603Y005138D01*
X008584Y005158D01*
X008567Y005181D01*
X008554Y005206D01*
X008545Y005232D01*
X008539Y005259D01*
X008537Y005287D01*
X008387Y005387D02*
X008087Y005387D01*
X007737Y005287D01*
X007687Y005387D02*
X007387Y005387D01*
X006837Y005287D02*
X006839Y005315D01*
X006845Y005342D01*
X006854Y005368D01*
X006867Y005393D01*
X006884Y005416D01*
X006903Y005436D01*
X006925Y005453D01*
X006949Y005467D01*
X006975Y005477D01*
X007002Y005484D01*
X007030Y005487D01*
X007058Y005486D01*
X007085Y005481D01*
X007112Y005472D01*
X007137Y005460D01*
X007160Y005445D01*
X007181Y005426D01*
X007199Y005405D01*
X007214Y005381D01*
X007225Y005355D01*
X007233Y005329D01*
X007237Y005301D01*
X007237Y005273D01*
X007233Y005245D01*
X007225Y005219D01*
X007214Y005193D01*
X007199Y005169D01*
X007181Y005148D01*
X007160Y005129D01*
X007137Y005114D01*
X007112Y005102D01*
X007085Y005093D01*
X007058Y005088D01*
X007030Y005087D01*
X007002Y005090D01*
X006975Y005097D01*
X006949Y005107D01*
X006925Y005121D01*
X006903Y005138D01*
X006884Y005158D01*
X006867Y005181D01*
X006854Y005206D01*
X006845Y005232D01*
X006839Y005259D01*
X006837Y005287D01*
X007037Y004937D02*
X007037Y003937D01*
X006887Y003587D02*
X006889Y003615D01*
X006895Y003642D01*
X006904Y003668D01*
X006917Y003693D01*
X006934Y003716D01*
X006953Y003736D01*
X006975Y003753D01*
X006999Y003767D01*
X007025Y003777D01*
X007052Y003784D01*
X007080Y003787D01*
X007108Y003786D01*
X007135Y003781D01*
X007162Y003772D01*
X007187Y003760D01*
X007210Y003745D01*
X007231Y003726D01*
X007249Y003705D01*
X007264Y003681D01*
X007275Y003655D01*
X007283Y003629D01*
X007287Y003601D01*
X007287Y003573D01*
X007283Y003545D01*
X007275Y003519D01*
X007264Y003493D01*
X007249Y003469D01*
X007231Y003448D01*
X007210Y003429D01*
X007187Y003414D01*
X007162Y003402D01*
X007135Y003393D01*
X007108Y003388D01*
X007080Y003387D01*
X007052Y003390D01*
X007025Y003397D01*
X006999Y003407D01*
X006975Y003421D01*
X006953Y003438D01*
X006934Y003458D01*
X006917Y003481D01*
X006904Y003506D01*
X006895Y003532D01*
X006889Y003559D01*
X006887Y003587D01*
X005987Y003737D02*
X005737Y003487D01*
X005987Y003237D01*
X005987Y002737D01*
X005737Y002487D01*
X005237Y002487D01*
X004987Y002737D01*
X004987Y003237D01*
X005237Y003487D01*
X004987Y003737D01*
X004987Y004237D01*
X005237Y004487D01*
X005737Y004487D01*
X005987Y004237D01*
X005987Y003737D01*
X005737Y003487D02*
X005237Y003487D01*
X005237Y004487D02*
X004987Y004737D01*
X004987Y005237D01*
X005237Y005487D01*
X004987Y005737D01*
X004987Y006237D01*
X005237Y006487D01*
X005737Y006487D01*
X005987Y006237D01*
X005987Y005737D01*
X005737Y005487D01*
X005987Y005237D01*
X005987Y004737D01*
X005737Y004487D01*
X007787Y004437D02*
X007789Y004457D01*
X007795Y004475D01*
X007804Y004493D01*
X007816Y004508D01*
X007831Y004520D01*
X007849Y004529D01*
X007867Y004535D01*
X007887Y004537D01*
X007907Y004535D01*
X007925Y004529D01*
X007943Y004520D01*
X007958Y004508D01*
X007970Y004493D01*
X007979Y004475D01*
X007985Y004457D01*
X007987Y004437D01*
X007985Y004417D01*
X007979Y004399D01*
X007970Y004381D01*
X007958Y004366D01*
X007943Y004354D01*
X007925Y004345D01*
X007907Y004339D01*
X007887Y004337D01*
X007867Y004339D01*
X007849Y004345D01*
X007831Y004354D01*
X007816Y004366D01*
X007804Y004381D01*
X007795Y004399D01*
X007789Y004417D01*
X007787Y004437D01*
X007187Y004437D02*
X007189Y004489D01*
X007195Y004541D01*
X007205Y004593D01*
X007218Y004643D01*
X007235Y004693D01*
X007256Y004741D01*
X007281Y004787D01*
X007309Y004831D01*
X007340Y004873D01*
X007374Y004913D01*
X007411Y004950D01*
X007451Y004984D01*
X007493Y005015D01*
X007537Y005043D01*
X007583Y005068D01*
X007631Y005089D01*
X007681Y005106D01*
X007731Y005119D01*
X007783Y005129D01*
X007835Y005135D01*
X007887Y005137D01*
X007939Y005135D01*
X007991Y005129D01*
X008043Y005119D01*
X008093Y005106D01*
X008143Y005089D01*
X008191Y005068D01*
X008237Y005043D01*
X008281Y005015D01*
X008323Y004984D01*
X008363Y004950D01*
X008400Y004913D01*
X008434Y004873D01*
X008465Y004831D01*
X008493Y004787D01*
X008518Y004741D01*
X008539Y004693D01*
X008556Y004643D01*
X008569Y004593D01*
X008579Y004541D01*
X008585Y004489D01*
X008587Y004437D01*
X008585Y004385D01*
X008579Y004333D01*
X008569Y004281D01*
X008556Y004231D01*
X008539Y004181D01*
X008518Y004133D01*
X008493Y004087D01*
X008465Y004043D01*
X008434Y004001D01*
X008400Y003961D01*
X008363Y003924D01*
X008323Y003890D01*
X008281Y003859D01*
X008237Y003831D01*
X008191Y003806D01*
X008143Y003785D01*
X008093Y003768D01*
X008043Y003755D01*
X007991Y003745D01*
X007939Y003739D01*
X007887Y003737D01*
X007835Y003739D01*
X007783Y003745D01*
X007731Y003755D01*
X007681Y003768D01*
X007631Y003785D01*
X007583Y003806D01*
X007537Y003831D01*
X007493Y003859D01*
X007451Y003890D01*
X007411Y003924D01*
X007374Y003961D01*
X007340Y004001D01*
X007309Y004043D01*
X007281Y004087D01*
X007256Y004133D01*
X007235Y004181D01*
X007218Y004231D01*
X007205Y004281D01*
X007195Y004333D01*
X007189Y004385D01*
X007187Y004437D01*
X008787Y003937D02*
X008787Y004937D01*
X008537Y003587D02*
X008539Y003615D01*
X008545Y003642D01*
X008554Y003668D01*
X008567Y003693D01*
X008584Y003716D01*
X008603Y003736D01*
X008625Y003753D01*
X008649Y003767D01*
X008675Y003777D01*
X008702Y003784D01*
X008730Y003787D01*
X008758Y003786D01*
X008785Y003781D01*
X008812Y003772D01*
X008837Y003760D01*
X008860Y003745D01*
X008881Y003726D01*
X008899Y003705D01*
X008914Y003681D01*
X008925Y003655D01*
X008933Y003629D01*
X008937Y003601D01*
X008937Y003573D01*
X008933Y003545D01*
X008925Y003519D01*
X008914Y003493D01*
X008899Y003469D01*
X008881Y003448D01*
X008860Y003429D01*
X008837Y003414D01*
X008812Y003402D01*
X008785Y003393D01*
X008758Y003388D01*
X008730Y003387D01*
X008702Y003390D01*
X008675Y003397D01*
X008649Y003407D01*
X008625Y003421D01*
X008603Y003438D01*
X008584Y003458D01*
X008567Y003481D01*
X008554Y003506D01*
X008545Y003532D01*
X008539Y003559D01*
X008537Y003587D01*
X008737Y001987D02*
X008237Y001987D01*
X007987Y001737D01*
X007737Y001987D01*
X007237Y001987D01*
X006987Y001737D01*
X006987Y001237D01*
X007237Y000987D01*
X007737Y000987D01*
X007987Y001237D01*
X007987Y001737D01*
X008737Y001987D02*
X008987Y001737D01*
X009237Y001987D01*
X009737Y001987D01*
X009987Y001737D01*
X010237Y001987D01*
X010737Y001987D01*
X010987Y001737D01*
X011237Y001987D01*
X011737Y001987D01*
X011987Y001737D01*
X012237Y001987D01*
X012737Y001987D01*
X012987Y001737D01*
X013237Y001987D01*
X013737Y001987D01*
X013987Y001737D01*
X014237Y001987D01*
X014737Y001987D01*
X014987Y001737D01*
X015237Y001987D01*
X015737Y001987D01*
X015987Y001737D01*
X016237Y001987D01*
X016737Y001987D01*
X016987Y001737D01*
X017237Y001987D01*
X017737Y001987D01*
X017987Y001737D01*
X018237Y001987D01*
X018737Y001987D01*
X018987Y001737D01*
X019237Y001987D01*
X019737Y001987D01*
X019987Y001737D01*
X020237Y001987D01*
X020737Y001987D01*
X020987Y001737D01*
X020987Y001237D01*
X020737Y000987D01*
X020237Y000987D01*
X019987Y001237D01*
X019737Y000987D01*
X019237Y000987D01*
X018987Y001237D01*
X018987Y001737D01*
X018987Y001237D02*
X018737Y000987D01*
X018237Y000987D01*
X017987Y001237D01*
X017737Y000987D01*
X017237Y000987D01*
X016987Y001237D01*
X016737Y000987D01*
X016237Y000987D01*
X015987Y001237D01*
X015987Y001737D01*
X015987Y001237D02*
X015737Y000987D01*
X015237Y000987D01*
X014987Y001237D01*
X014737Y000987D01*
X014237Y000987D01*
X013987Y001237D01*
X013737Y000987D01*
X013237Y000987D01*
X012987Y001237D01*
X012987Y001737D01*
X012987Y001237D02*
X012737Y000987D01*
X012237Y000987D01*
X011987Y001237D01*
X011737Y000987D01*
X011237Y000987D01*
X010987Y001237D01*
X010737Y000987D01*
X010237Y000987D01*
X009987Y001237D01*
X009987Y001737D01*
X009987Y001237D02*
X009737Y000987D01*
X009237Y000987D01*
X008987Y001237D01*
X008737Y000987D01*
X008237Y000987D01*
X007987Y001237D01*
X008987Y001237D02*
X008987Y001737D01*
X010987Y001737D02*
X010987Y001237D01*
X011987Y001237D02*
X011987Y001737D01*
X013987Y001737D02*
X013987Y001237D01*
X014987Y001237D02*
X014987Y001737D01*
X016987Y001737D02*
X016987Y001237D01*
X017987Y001237D02*
X017987Y001737D01*
X019987Y001737D02*
X019987Y001237D01*
X009037Y006287D02*
X007337Y006287D01*
X007320Y006289D01*
X007303Y006293D01*
X007287Y006300D01*
X007273Y006310D01*
X007260Y006323D01*
X007250Y006337D01*
X007243Y006353D01*
X007239Y006370D01*
X007237Y006387D01*
X007237Y007187D01*
X007239Y007204D01*
X007243Y007221D01*
X007250Y007237D01*
X007260Y007251D01*
X007273Y007264D01*
X007287Y007274D01*
X007303Y007281D01*
X007320Y007285D01*
X007337Y007287D01*
X009037Y007287D01*
X009054Y007285D01*
X009071Y007281D01*
X009087Y007274D01*
X009101Y007264D01*
X009114Y007251D01*
X009124Y007237D01*
X009131Y007221D01*
X009135Y007204D01*
X009137Y007187D01*
X009137Y006387D01*
X009135Y006370D01*
X009131Y006353D01*
X009124Y006337D01*
X009114Y006323D01*
X009101Y006310D01*
X009087Y006300D01*
X009071Y006293D01*
X009054Y006289D01*
X009037Y006287D01*
X008487Y006787D02*
X008337Y006787D01*
X008287Y006787D01*
X008087Y006787D02*
X008037Y006787D01*
X007887Y006787D01*
X007337Y007487D02*
X009037Y007487D01*
X009054Y007489D01*
X009071Y007493D01*
X009087Y007500D01*
X009101Y007510D01*
X009114Y007523D01*
X009124Y007537D01*
X009131Y007553D01*
X009135Y007570D01*
X009137Y007587D01*
X009137Y008387D01*
X009135Y008404D01*
X009131Y008421D01*
X009124Y008437D01*
X009114Y008451D01*
X009101Y008464D01*
X009087Y008474D01*
X009071Y008481D01*
X009054Y008485D01*
X009037Y008487D01*
X007337Y008487D01*
X007320Y008485D01*
X007303Y008481D01*
X007287Y008474D01*
X007273Y008464D01*
X007260Y008451D01*
X007250Y008437D01*
X007243Y008421D01*
X007239Y008404D01*
X007237Y008387D01*
X007237Y007587D01*
X007239Y007570D01*
X007243Y007553D01*
X007250Y007537D01*
X007260Y007523D01*
X007273Y007510D01*
X007287Y007500D01*
X007303Y007493D01*
X007320Y007489D01*
X007337Y007487D01*
X007887Y007987D02*
X008037Y007987D01*
X008087Y007987D01*
X008287Y007987D02*
X008337Y007987D01*
X008487Y007987D01*
X008737Y008987D02*
X008237Y008987D01*
X007987Y009237D01*
X007737Y008987D01*
X007237Y008987D01*
X006987Y009237D01*
X006737Y008987D01*
X006237Y008987D01*
X005987Y009237D01*
X005737Y008987D01*
X005237Y008987D01*
X004987Y009237D01*
X004987Y009737D01*
X005237Y009987D01*
X005737Y009987D01*
X005987Y009737D01*
X006237Y009987D01*
X006737Y009987D01*
X006987Y009737D01*
X006987Y009237D01*
X006987Y009737D01*
X007237Y009987D01*
X007737Y009987D01*
X007987Y009737D01*
X008237Y009987D01*
X008737Y009987D01*
X008987Y009737D01*
X008987Y009237D01*
X008737Y008987D01*
X008987Y009237D02*
X009237Y008987D01*
X009737Y008987D01*
X009987Y009237D01*
X010237Y008987D01*
X010737Y008987D01*
X010987Y009237D01*
X011237Y008987D01*
X011737Y008987D01*
X011987Y009237D01*
X011987Y009737D01*
X011737Y009987D01*
X011237Y009987D01*
X010987Y009737D01*
X010987Y009237D01*
X010987Y009737D02*
X010737Y009987D01*
X010237Y009987D01*
X009987Y009737D01*
X009987Y009237D01*
X009987Y009737D02*
X009737Y009987D01*
X009237Y009987D01*
X008987Y009737D01*
X007987Y009737D02*
X007987Y009237D01*
X005987Y009237D02*
X005987Y009737D01*
X003987Y009687D02*
X003987Y009087D01*
X003985Y009070D01*
X003981Y009053D01*
X003974Y009037D01*
X003964Y009023D01*
X003951Y009010D01*
X003937Y009000D01*
X003921Y008993D01*
X003904Y008989D01*
X003887Y008987D01*
X003737Y008987D01*
X003687Y009037D01*
X002287Y009037D01*
X002237Y008987D01*
X002087Y008987D01*
X002070Y008989D01*
X002053Y008993D01*
X002037Y009000D01*
X002023Y009010D01*
X002010Y009023D01*
X002000Y009037D01*
X001993Y009053D01*
X001989Y009070D01*
X001987Y009087D01*
X001987Y009687D01*
X001989Y009704D01*
X001993Y009721D01*
X002000Y009737D01*
X002010Y009751D01*
X002023Y009764D01*
X002037Y009774D01*
X002053Y009781D01*
X002070Y009785D01*
X002087Y009787D01*
X002237Y009787D01*
X002287Y009737D01*
X003687Y009737D01*
X003737Y009787D01*
X003887Y009787D01*
X003904Y009785D01*
X003921Y009781D01*
X003937Y009774D01*
X003951Y009764D01*
X003964Y009751D01*
X003974Y009737D01*
X003981Y009721D01*
X003985Y009704D01*
X003987Y009687D01*
X003637Y009687D02*
X003637Y009087D01*
X003635Y009070D01*
X003631Y009053D01*
X003624Y009037D01*
X003614Y009023D01*
X003601Y009010D01*
X003587Y009000D01*
X003571Y008993D01*
X003554Y008989D01*
X003537Y008987D01*
X002437Y008987D01*
X002420Y008989D01*
X002403Y008993D01*
X002387Y009000D01*
X002373Y009010D01*
X002360Y009023D01*
X002350Y009037D01*
X002343Y009053D01*
X002339Y009070D01*
X002337Y009087D01*
X002337Y009687D01*
X002339Y009704D01*
X002343Y009721D01*
X002350Y009737D01*
X002360Y009751D01*
X002373Y009764D01*
X002387Y009774D01*
X002403Y009781D01*
X002420Y009785D01*
X002437Y009787D01*
X003537Y009787D01*
X003554Y009785D01*
X003571Y009781D01*
X003587Y009774D01*
X003601Y009764D01*
X003614Y009751D01*
X003624Y009737D01*
X003631Y009721D01*
X003635Y009704D01*
X003637Y009687D01*
X003587Y009387D02*
X003387Y009387D01*
X002587Y009387D02*
X002387Y009387D01*
X001737Y008487D02*
X001237Y008487D01*
X000987Y008237D01*
X000987Y007737D01*
X001237Y007487D01*
X001737Y007487D01*
X001987Y007737D01*
X001987Y008237D01*
X001737Y008487D01*
X001737Y007487D02*
X001987Y007237D01*
X001987Y006737D01*
X001737Y006487D01*
X001987Y006237D01*
X001987Y005737D01*
X001737Y005487D01*
X001987Y005237D01*
X001987Y004737D01*
X001737Y004487D01*
X001987Y004237D01*
X001987Y003737D01*
X001737Y003487D01*
X001987Y003237D01*
X001987Y002737D01*
X001737Y002487D01*
X001237Y002487D01*
X000987Y002737D01*
X000987Y003237D01*
X001237Y003487D01*
X000987Y003737D01*
X000987Y004237D01*
X001237Y004487D01*
X001737Y004487D01*
X001237Y004487D02*
X000987Y004737D01*
X000987Y005237D01*
X001237Y005487D01*
X000987Y005737D01*
X000987Y006237D01*
X001237Y006487D01*
X000987Y006737D01*
X000987Y007237D01*
X001237Y007487D01*
X001237Y006487D02*
X001737Y006487D01*
X001737Y005487D02*
X001237Y005487D01*
X005237Y005487D02*
X005737Y005487D01*
X001737Y003487D02*
X001237Y003487D01*
X011987Y009237D02*
X012237Y008987D01*
X012737Y008987D01*
X012987Y009237D01*
X013237Y008987D01*
X013737Y008987D01*
X013987Y009237D01*
X014237Y008987D01*
X014737Y008987D01*
X014987Y009237D01*
X014987Y009737D01*
X014737Y009987D01*
X014237Y009987D01*
X013987Y009737D01*
X013987Y009237D01*
X013987Y009737D02*
X013737Y009987D01*
X013237Y009987D01*
X012987Y009737D01*
X012987Y009237D01*
X012987Y009737D02*
X012737Y009987D01*
X012237Y009987D01*
X011987Y009737D01*
X014987Y009737D02*
X015237Y009987D01*
X015737Y009987D01*
X015987Y009737D01*
X016237Y009987D01*
X016737Y009987D01*
X016987Y009737D01*
X017237Y009987D01*
X017737Y009987D01*
X017987Y009737D01*
X017987Y009237D01*
X017737Y008987D01*
X017237Y008987D01*
X016987Y009237D01*
X016737Y008987D01*
X016237Y008987D01*
X015987Y009237D01*
X015737Y008987D01*
X015237Y008987D01*
X014987Y009237D01*
X015987Y009237D02*
X015987Y009737D01*
X016987Y009737D02*
X016987Y009237D01*
X017987Y009237D02*
X018237Y008987D01*
X018737Y008987D01*
X018987Y009237D01*
X019237Y008987D01*
X019737Y008987D01*
X019987Y009237D01*
X020237Y008987D01*
X020737Y008987D01*
X020987Y009237D01*
X020987Y009737D01*
X020737Y009987D01*
X020237Y009987D01*
X019987Y009737D01*
X019987Y009237D01*
X019987Y009737D02*
X019737Y009987D01*
X019237Y009987D01*
X018987Y009737D01*
X018987Y009237D01*
X018987Y009737D02*
X018737Y009987D01*
X018237Y009987D01*
X017987Y009737D01*
D15*
X018487Y009487D03*
X019487Y009487D03*
X020487Y009487D03*
X017487Y009487D03*
X016487Y009487D03*
X015487Y009487D03*
X014487Y009487D03*
X013487Y009487D03*
X012487Y009487D03*
X011487Y009487D03*
X010487Y009487D03*
X009487Y009487D03*
X008487Y009487D03*
X007487Y009487D03*
X006487Y009487D03*
X005487Y009487D03*
X001487Y007987D03*
X001487Y006987D03*
X001487Y005987D03*
X001487Y004987D03*
X001487Y003987D03*
X001487Y002987D03*
X005487Y002987D03*
X005487Y003987D03*
X005487Y004987D03*
X005487Y005987D03*
X007487Y001487D03*
X008487Y001487D03*
X009487Y001487D03*
X010487Y001487D03*
X011487Y001487D03*
X012487Y001487D03*
X013487Y001487D03*
X014487Y001487D03*
X015487Y001487D03*
X016487Y001487D03*
X017487Y001487D03*
X018487Y001487D03*
X019487Y001487D03*
X020487Y001487D03*
D16*
X009087Y003937D02*
X008987Y003937D01*
X008987Y004937D01*
X009087Y004937D01*
X008387Y004937D02*
X008387Y003937D01*
X007387Y003937D01*
X007387Y004937D01*
X008387Y004937D01*
X007637Y004437D02*
X007639Y004468D01*
X007645Y004499D01*
X007655Y004529D01*
X007668Y004557D01*
X007685Y004584D01*
X007705Y004608D01*
X007728Y004630D01*
X007753Y004648D01*
X007781Y004663D01*
X007810Y004675D01*
X007840Y004683D01*
X007871Y004687D01*
X007903Y004687D01*
X007934Y004683D01*
X007964Y004675D01*
X007993Y004663D01*
X008021Y004648D01*
X008046Y004630D01*
X008069Y004608D01*
X008089Y004584D01*
X008106Y004557D01*
X008119Y004529D01*
X008129Y004499D01*
X008135Y004468D01*
X008137Y004437D01*
X008135Y004406D01*
X008129Y004375D01*
X008119Y004345D01*
X008106Y004317D01*
X008089Y004290D01*
X008069Y004266D01*
X008046Y004244D01*
X008021Y004226D01*
X007993Y004211D01*
X007964Y004199D01*
X007934Y004191D01*
X007903Y004187D01*
X007871Y004187D01*
X007840Y004191D01*
X007810Y004199D01*
X007781Y004211D01*
X007753Y004226D01*
X007728Y004244D01*
X007705Y004266D01*
X007685Y004290D01*
X007668Y004317D01*
X007655Y004345D01*
X007645Y004375D01*
X007639Y004406D01*
X007637Y004437D01*
X006787Y003987D02*
X006687Y003987D01*
X006787Y003987D02*
X006787Y004937D01*
X006687Y004937D01*
D17*
X006886Y005801D02*
X006811Y005876D01*
X006811Y006026D01*
X006886Y006102D01*
X006961Y006102D01*
X007036Y006026D01*
X007112Y006102D01*
X007187Y006102D01*
X007262Y006026D01*
X007262Y005876D01*
X007187Y005801D01*
X007036Y005951D02*
X007036Y006026D01*
X008561Y005851D02*
X009012Y005851D01*
X009012Y005701D02*
X009012Y006002D01*
X008711Y005701D02*
X008561Y005851D01*
X009447Y008243D02*
X009447Y002731D01*
X023345Y002731D01*
X023345Y008243D01*
X009447Y008243D01*
X003111Y009114D02*
X003088Y009387D01*
X003088Y009387D01*
X003111Y009660D01*
X003112Y009661D01*
X003144Y009656D01*
X003176Y009647D01*
X003206Y009635D01*
X003234Y009619D01*
X003261Y009600D01*
X003285Y009578D01*
X003306Y009554D01*
X003324Y009527D01*
X003339Y009498D01*
X003350Y009467D01*
X003358Y009436D01*
X003362Y009403D01*
X003362Y009371D01*
X003358Y009338D01*
X003350Y009307D01*
X003339Y009276D01*
X003324Y009247D01*
X003306Y009220D01*
X003285Y009196D01*
X003261Y009174D01*
X003234Y009155D01*
X003206Y009139D01*
X003176Y009127D01*
X003144Y009118D01*
X003112Y009113D01*
X003112Y009160D01*
X003140Y009165D01*
X003168Y009174D01*
X003194Y009186D01*
X003219Y009201D01*
X003242Y009219D01*
X003262Y009240D01*
X003279Y009264D01*
X003293Y009289D01*
X003304Y009316D01*
X003311Y009344D01*
X003315Y009373D01*
X003315Y009401D01*
X003311Y009430D01*
X003304Y009458D01*
X003293Y009485D01*
X003279Y009510D01*
X003262Y009534D01*
X003242Y009555D01*
X003219Y009573D01*
X003194Y009588D01*
X003168Y009600D01*
X003140Y009609D01*
X003112Y009614D01*
X003112Y009566D01*
X003137Y009561D01*
X003162Y009552D01*
X003184Y009540D01*
X003205Y009524D01*
X003224Y009506D01*
X003239Y009485D01*
X003252Y009462D01*
X003261Y009438D01*
X003266Y009413D01*
X003268Y009387D01*
X003266Y009361D01*
X003261Y009336D01*
X003252Y009312D01*
X003239Y009289D01*
X003224Y009268D01*
X003205Y009250D01*
X003184Y009234D01*
X003162Y009222D01*
X003137Y009213D01*
X003112Y009208D01*
X003112Y009255D01*
X003133Y009261D01*
X003153Y009270D01*
X003171Y009282D01*
X003187Y009297D01*
X003200Y009315D01*
X003210Y009334D01*
X003217Y009355D01*
X003221Y009376D01*
X003221Y009398D01*
X003217Y009419D01*
X003210Y009440D01*
X003200Y009459D01*
X003187Y009477D01*
X003171Y009492D01*
X003153Y009504D01*
X003133Y009513D01*
X003112Y009519D01*
X003112Y009470D01*
X003128Y009464D01*
X003142Y009455D01*
X003154Y009442D01*
X003164Y009428D01*
X003170Y009412D01*
X003174Y009396D01*
X003174Y009378D01*
X003170Y009362D01*
X003164Y009346D01*
X003154Y009332D01*
X003142Y009319D01*
X003128Y009310D01*
X003112Y009304D01*
X003110Y009355D01*
X003118Y009362D01*
X003124Y009371D01*
X003127Y009382D01*
X003127Y009392D01*
X003124Y009403D01*
X003118Y009412D01*
X003110Y009419D01*
X002863Y009660D02*
X002886Y009387D01*
X002886Y009387D01*
X002863Y009114D01*
X002862Y009113D01*
X002830Y009118D01*
X002798Y009127D01*
X002768Y009139D01*
X002740Y009155D01*
X002713Y009174D01*
X002689Y009196D01*
X002668Y009220D01*
X002650Y009247D01*
X002635Y009276D01*
X002624Y009307D01*
X002616Y009338D01*
X002612Y009371D01*
X002612Y009403D01*
X002616Y009436D01*
X002624Y009467D01*
X002635Y009498D01*
X002650Y009527D01*
X002668Y009554D01*
X002689Y009578D01*
X002713Y009600D01*
X002740Y009619D01*
X002768Y009635D01*
X002798Y009647D01*
X002830Y009656D01*
X002862Y009661D01*
X002862Y009614D01*
X002834Y009609D01*
X002806Y009600D01*
X002780Y009588D01*
X002755Y009573D01*
X002732Y009555D01*
X002712Y009534D01*
X002695Y009510D01*
X002681Y009485D01*
X002670Y009458D01*
X002663Y009430D01*
X002659Y009401D01*
X002659Y009373D01*
X002663Y009344D01*
X002670Y009316D01*
X002681Y009289D01*
X002695Y009264D01*
X002712Y009240D01*
X002732Y009219D01*
X002755Y009201D01*
X002780Y009186D01*
X002806Y009174D01*
X002834Y009165D01*
X002862Y009160D01*
X002862Y009208D01*
X002837Y009213D01*
X002812Y009222D01*
X002790Y009234D01*
X002769Y009250D01*
X002750Y009268D01*
X002735Y009289D01*
X002722Y009312D01*
X002713Y009336D01*
X002708Y009361D01*
X002706Y009387D01*
X002708Y009413D01*
X002713Y009438D01*
X002722Y009462D01*
X002735Y009485D01*
X002750Y009506D01*
X002769Y009524D01*
X002790Y009540D01*
X002812Y009552D01*
X002837Y009561D01*
X002862Y009566D01*
X002862Y009519D01*
X002841Y009513D01*
X002821Y009504D01*
X002803Y009492D01*
X002787Y009477D01*
X002774Y009459D01*
X002764Y009440D01*
X002757Y009419D01*
X002753Y009398D01*
X002753Y009376D01*
X002757Y009355D01*
X002764Y009334D01*
X002774Y009315D01*
X002787Y009297D01*
X002803Y009282D01*
X002821Y009270D01*
X002841Y009261D01*
X002862Y009255D01*
X002862Y009304D01*
X002846Y009310D01*
X002832Y009319D01*
X002820Y009332D01*
X002810Y009346D01*
X002804Y009362D01*
X002800Y009378D01*
X002800Y009396D01*
X002804Y009412D01*
X002810Y009428D01*
X002820Y009442D01*
X002832Y009455D01*
X002846Y009464D01*
X002862Y009470D01*
X002864Y009419D01*
X002856Y009412D01*
X002850Y009403D01*
X002847Y009392D01*
X002847Y009382D01*
X002850Y009371D01*
X002856Y009362D01*
X002864Y009355D01*
X007036Y002902D02*
X007036Y002601D01*
X006811Y002826D01*
X007262Y002826D01*
X008511Y002826D02*
X008511Y002676D01*
X008586Y002601D01*
X008511Y002826D02*
X008586Y002902D01*
X008661Y002902D01*
X008962Y002601D01*
X008962Y002902D01*
X018956Y007810D02*
X018958Y007836D01*
X018964Y007862D01*
X018973Y007886D01*
X018987Y007909D01*
X019003Y007930D01*
X019022Y007948D01*
X019044Y007962D01*
X019068Y007974D01*
X019093Y007982D01*
X019119Y007986D01*
X019145Y007986D01*
X019171Y007982D01*
X019196Y007974D01*
X019220Y007962D01*
X019242Y007948D01*
X019261Y007930D01*
X019277Y007909D01*
X019291Y007886D01*
X019300Y007862D01*
X019306Y007836D01*
X019308Y007810D01*
X019306Y007784D01*
X019300Y007758D01*
X019291Y007734D01*
X019277Y007711D01*
X019261Y007690D01*
X019242Y007672D01*
X019220Y007658D01*
X019196Y007646D01*
X019171Y007638D01*
X019145Y007634D01*
X019119Y007634D01*
X019093Y007638D01*
X019068Y007646D01*
X019044Y007658D01*
X019022Y007672D01*
X019003Y007690D01*
X018987Y007711D01*
X018973Y007734D01*
X018964Y007758D01*
X018958Y007784D01*
X018956Y007810D01*
D18*
X008287Y007687D02*
X008287Y007987D01*
X008287Y008287D01*
X008087Y008287D02*
X008087Y007987D01*
X008087Y007687D01*
X008087Y007087D02*
X008087Y006787D01*
X008087Y006487D01*
X008287Y006487D02*
X008287Y006787D01*
X008287Y007087D01*
D19*
X004487Y009387D02*
X004137Y009387D01*
X001837Y009387D02*
X001487Y009387D01*
D20*
X001912Y009387D03*
X004062Y009387D03*
M02*
