%
M48
M72
T01C0.0130
T02C0.0320
T03C0.0400
%
T01
X2487Y2487
X3487Y2487
X3487Y3487
X2387Y4387
X3487Y4487
X4687Y5287
X6287Y5587
X8687Y4187
X8187Y4087
X9787Y4587
X10187Y4187
X9887Y3787
X10887Y3587
X11387Y3587
X12487Y3487
X11687Y4387
X12987Y4987
X12487Y5487
X11987Y5987
X10737Y6437
X9887Y5587
X13487Y4487
X14487Y4487
X15487Y4487
X15987Y3987
X16987Y3987
X17487Y4487
X17987Y3987
X18487Y4487
X18987Y3987
X19487Y4487
X19987Y3987
X20487Y4487
X19987Y4987
X18987Y4987
X17987Y4987
X16987Y4987
X15987Y4987
X17487Y5487
X17987Y5987
X18487Y5487
X18987Y5987
X19487Y5487
X19987Y5987
X20487Y5487
X20487Y6487
X19987Y6987
X19487Y6487
X18987Y6987
X18487Y6487
X17987Y6987
X17487Y6487
X16987Y6987
X16487Y6487
X15987Y6987
X16487Y7487
X17987Y7987
X18487Y7487
X18987Y7987
X19487Y7487
X19987Y7987
X20487Y7487
X20487Y8487
X19487Y8487
X18487Y8487
X17187Y8657
X13987Y7387
X14887Y6587
X15087Y6087
X16987Y5987
X12187Y7317
X7087Y7987
X6787Y7587
X4987Y7587
X4487Y7487
X3487Y7487
X2587Y6887
X1987Y6587
X1987Y7387
X4187Y8387
X6487Y8587
X18487Y3487
X18987Y2987
X19487Y3487
X19987Y2987
X20487Y3487
X20487Y2487
X19487Y2487
X18487Y2487
X17987Y2987
X10067Y2307
X8087Y2887
X6487Y1487
T02
X7687Y6787
X8687Y6787
X8687Y7987
X7687Y7987
X4487Y9387
X1487Y9387
T03
X1487Y7987
X1487Y6987
X1487Y5987
X1487Y4987
X1487Y3987
X1487Y2987
X5487Y2987
X6997Y3157
X5487Y3987
X5487Y4987
X6997Y5717
X5487Y5987
X8777Y5717
X8777Y3157
X8487Y1487
X9487Y1487
X10487Y1487
X11487Y1487
X12487Y1487
X13487Y1487
X14487Y1487
X15487Y1487
X16487Y1487
X17487Y1487
X18487Y1487
X19487Y1487
X20487Y1487
X7487Y1487
X7487Y9487
X6487Y9487
X5487Y9487
X8487Y9487
X9487Y9487
X10487Y9487
X11487Y9487
X12487Y9487
X13487Y9487
X14487Y9487
X15487Y9487
X16487Y9487
X17487Y9487
X18487Y9487
X19487Y9487
X20487Y9487
M30
