G75*
%MOIN*%
%OFA0B0*%
%FSLAX24Y24*%
%IPPOS*%
%LPD*%
%AMOC8*
5,1,8,0,0,1.08239X$1,22.5*
%
%ADD10R,0.0472X0.0472*%
%ADD11R,0.0394X0.0433*%
%ADD12R,0.0354X0.0394*%
%ADD13R,0.0669X0.0315*%
%ADD14R,0.0880X0.0480*%
%ADD15R,0.0866X0.1417*%
%ADD16C,0.0354*%
%ADD17R,0.2402X0.1024*%
D10*
X005147Y004587D03*
X006147Y004587D03*
X006147Y005413D03*
X005147Y005413D03*
D11*
X005147Y003365D03*
X006147Y003365D03*
X006147Y004035D03*
X005147Y004035D03*
D12*
X008540Y008085D03*
X008540Y008715D03*
X010154Y008715D03*
X010154Y008085D03*
D13*
X009347Y007928D03*
D14*
X004827Y007800D03*
X004827Y006890D03*
X004827Y008710D03*
D15*
X007267Y007800D03*
D16*
X010891Y008000D02*
X011205Y008000D01*
X011205Y007500D02*
X010891Y007500D01*
X010891Y007000D02*
X011205Y007000D01*
X011205Y006500D02*
X010891Y006500D01*
X010891Y006000D02*
X011205Y006000D01*
X011205Y005500D02*
X010891Y005500D01*
X010891Y005000D02*
X011205Y005000D01*
X011205Y004500D02*
X010891Y004500D01*
X010891Y004000D02*
X011205Y004000D01*
X011403Y003185D02*
X011403Y002871D01*
X011903Y002871D02*
X011903Y003185D01*
X012403Y003185D02*
X012403Y002871D01*
X012903Y002871D02*
X012903Y003185D01*
X013403Y003185D02*
X013403Y002871D01*
X013903Y002871D02*
X013903Y003185D01*
X014403Y003185D02*
X014403Y002871D01*
X014903Y002871D02*
X014903Y003185D01*
X015403Y003185D02*
X015403Y002871D01*
X015903Y002871D02*
X015903Y003185D01*
X016403Y003185D02*
X016403Y002871D01*
X016903Y002871D02*
X016903Y003185D01*
X017403Y003185D02*
X017403Y002871D01*
X017903Y002871D02*
X017903Y003185D01*
X018403Y003185D02*
X018403Y002871D01*
X018903Y002871D02*
X018903Y003185D01*
X019403Y003185D02*
X019403Y002871D01*
X019903Y002871D02*
X019903Y003185D01*
X020403Y003185D02*
X020403Y002871D01*
X020903Y002871D02*
X020903Y003185D01*
X021088Y004000D02*
X021402Y004000D01*
X021402Y004500D02*
X021088Y004500D01*
X021088Y005000D02*
X021402Y005000D01*
X021402Y005500D02*
X021088Y005500D01*
X021088Y006000D02*
X021402Y006000D01*
X018903Y007438D02*
X018903Y007870D01*
X018403Y007870D02*
X018403Y007438D01*
X017903Y007438D02*
X017903Y007870D01*
X017403Y007870D02*
X017403Y007438D01*
X017403Y008815D02*
X017403Y009129D01*
X016903Y009129D02*
X016903Y008815D01*
X016403Y008815D02*
X016403Y009129D01*
X015903Y009129D02*
X015903Y008815D01*
X015403Y008815D02*
X015403Y009129D01*
X014903Y009129D02*
X014903Y008815D01*
X014403Y008815D02*
X014403Y009129D01*
X013903Y009129D02*
X013903Y008815D01*
X013403Y008815D02*
X013403Y009129D01*
X012903Y009129D02*
X012903Y008815D01*
X012403Y008815D02*
X012403Y009129D01*
X011903Y009129D02*
X011903Y008815D01*
X011403Y008815D02*
X011403Y009129D01*
X017903Y009129D02*
X017903Y008815D01*
X018403Y008815D02*
X018403Y009129D01*
X018903Y009129D02*
X018903Y008815D01*
D17*
X017111Y004465D03*
M02*
