%
M48
M72
T01C0.0130
T02C0.0400
%
T01
X2787Y1840
X1887Y2560
X3207Y3280
X3687Y3040
X3927Y2800
X4767Y3040
X5187Y2920
X6147Y2920
X6627Y2560
X6867Y3280
X6627Y3580
X8427Y3040
X9087Y2800
X10407Y3220
X10647Y2980
X10587Y2560
X12147Y2560
X12807Y1840
X14127Y2560
X14667Y2560
X15147Y2560
X16647Y2560
X17667Y2560
X18147Y2560
X18627Y2560
X19647Y2560
X18687Y1840
X18687Y3520
X18027Y3580
X17627Y3600
X17187Y3520
X16627Y3600
X15927Y3580
X15567Y3520
X14907Y3580
X12687Y4840
X11967Y5020
X11547Y5320
X11787Y5800
X12207Y6400
X12807Y6400
X14427Y6040
X14067Y5440
X14067Y5080
X16167Y5380
X16587Y5200
X16947Y5200
X17667Y5200
X17067Y5800
X16347Y5800
X16647Y6220
X15387Y6700
X14907Y7000
X15687Y7600
X14127Y7960
X13887Y7720
X13587Y8200
X12747Y8320
X12447Y8080
X12447Y7420
X11907Y7480
X10767Y8560
X10287Y9460
X10767Y10180
X11727Y10180
X13227Y9460
X14187Y9460
X15207Y9460
X15747Y10180
X16707Y10180
X17127Y9460
X17727Y9460
X19047Y9600
X19047Y10000
X19047Y10400
X16167Y8500
X15687Y8500
X17367Y8440
X17667Y8200
X19047Y8300
X18627Y7120
X18447Y6700
X19027Y6700
X19647Y6400
X20047Y6400
X20447Y6400
X20847Y6400
X20447Y6000
X20047Y6000
X19027Y6200
X20127Y5500
X20667Y4420
X19407Y4060
X18827Y4100
X12267Y3820
X11907Y3820
X11607Y3580
X11127Y3460
X10407Y4360
X10167Y4600
X9087Y4540
X7827Y4720
X6807Y5680
X6087Y5860
X5187Y6100
X5427Y6400
X4407Y6220
X5747Y7100
X6387Y7120
X6047Y7400
X5747Y7700
X6447Y7600
X7827Y6820
X7527Y6520
X8307Y6040
X9147Y6940
X8127Y7840
X6927Y8740
X6387Y8560
X7167Y9340
X8787Y9340
X4767Y9460
X2787Y8860
X1767Y9460
X2487Y8140
X4407Y7360
X2787Y7000
X1587Y5980
X2667Y4900
X2907Y4060
X4407Y3820
X4647Y4420
X7707Y1840
X10347Y5800
X10107Y6040
T02
X1247Y1500
X2247Y1500
X3247Y1500
X4247Y1500
X5247Y1500
X6247Y1500
X7247Y1500
X8247Y1500
X9247Y1500
X10247Y1500
X11247Y1500
X12247Y1500
X13247Y1500
X14247Y1500
X15247Y1500
X16247Y1500
X17247Y1500
X18247Y1500
X19247Y1500
X20247Y1500
X21247Y1500
X9747Y3500
X8747Y3500
X7747Y3500
X8747Y5000
X9747Y5000
X9747Y6500
X8747Y6500
X3247Y6500
X3247Y7500
X3247Y8500
X1247Y8500
X1247Y7500
X1247Y6500
X1247Y5500
X1247Y4500
X1247Y3500
X3247Y4500
X3247Y5500
X3247Y10500
X2247Y10500
X1247Y10500
X4247Y10500
X5247Y10500
X6247Y10500
X7247Y10500
X8247Y10500
X9247Y10500
X10247Y10500
X11247Y10500
X12247Y10500
X13247Y10500
X14247Y10500
X15247Y10500
X16247Y10500
X17247Y10500
X18247Y10500
M30
