G75*
%MOIN*%
%OFA0B0*%
%FSLAX24Y24*%
%IPPOS*%
%LPD*%
%AMOC8*
5,1,8,0,0,1.08239X$1,22.5*
%
%ADD10R,0.0472X0.0472*%
%ADD11R,0.0394X0.0433*%
%ADD12OC8,0.0700*%
%ADD13R,0.0354X0.0394*%
%ADD14R,0.0669X0.0315*%
%ADD15C,0.0740*%
%ADD16R,0.0880X0.0480*%
%ADD17R,0.0866X0.1417*%
%ADD18C,0.0354*%
%ADD19R,0.2402X0.1024*%
%ADD20C,0.0160*%
%ADD21C,0.0100*%
%ADD22C,0.0270*%
%ADD23C,0.0060*%
D10*
X005147Y004587D03*
X006147Y004587D03*
X006147Y005413D03*
X005147Y005413D03*
D11*
X005147Y004035D03*
X006147Y004035D03*
X006147Y003365D03*
X005147Y003365D03*
D12*
X001247Y001500D03*
X002247Y001500D03*
X003247Y001500D03*
X004247Y001500D03*
X005247Y001500D03*
X006247Y001500D03*
X007247Y001500D03*
X008247Y001500D03*
X009247Y001500D03*
X010247Y001500D03*
X011247Y001500D03*
X012247Y001500D03*
X013247Y001500D03*
X014247Y001500D03*
X015247Y001500D03*
X016247Y001500D03*
X017247Y001500D03*
X018247Y001500D03*
X019247Y001500D03*
X020247Y001500D03*
X021247Y001500D03*
X009747Y003500D03*
X008747Y003500D03*
X007747Y003500D03*
X008747Y005000D03*
X009747Y005000D03*
X003247Y004500D03*
X003247Y005500D03*
X003247Y006500D03*
X003247Y007500D03*
X003247Y008500D03*
X001247Y008500D03*
X001247Y007500D03*
X001247Y006500D03*
X001247Y005500D03*
X001247Y004500D03*
X001247Y003500D03*
X001247Y010500D03*
X002247Y010500D03*
X003247Y010500D03*
X004247Y010500D03*
X005247Y010500D03*
X006247Y010500D03*
X007247Y010500D03*
X008247Y010500D03*
X009247Y010500D03*
X010247Y010500D03*
X011247Y010500D03*
X012247Y010500D03*
X013247Y010500D03*
X014247Y010500D03*
X015247Y010500D03*
X016247Y010500D03*
X017247Y010500D03*
X018247Y010500D03*
D13*
X010154Y008715D03*
X010154Y008085D03*
X008540Y008085D03*
X008540Y008715D03*
D14*
X009347Y007928D03*
D15*
X009747Y006500D03*
X008747Y006500D03*
D16*
X004827Y006890D03*
X004827Y007800D03*
X004827Y008710D03*
D17*
X007267Y007800D03*
D18*
X010891Y008000D02*
X011205Y008000D01*
X011205Y007500D02*
X010891Y007500D01*
X010891Y007000D02*
X011205Y007000D01*
X011205Y006500D02*
X010891Y006500D01*
X010891Y006000D02*
X011205Y006000D01*
X011205Y005500D02*
X010891Y005500D01*
X010891Y005000D02*
X011205Y005000D01*
X011205Y004500D02*
X010891Y004500D01*
X010891Y004000D02*
X011205Y004000D01*
X011403Y003185D02*
X011403Y002871D01*
X011903Y002871D02*
X011903Y003185D01*
X012403Y003185D02*
X012403Y002871D01*
X012903Y002871D02*
X012903Y003185D01*
X013403Y003185D02*
X013403Y002871D01*
X013903Y002871D02*
X013903Y003185D01*
X014403Y003185D02*
X014403Y002871D01*
X014903Y002871D02*
X014903Y003185D01*
X015403Y003185D02*
X015403Y002871D01*
X015903Y002871D02*
X015903Y003185D01*
X016403Y003185D02*
X016403Y002871D01*
X016903Y002871D02*
X016903Y003185D01*
X017403Y003185D02*
X017403Y002871D01*
X017903Y002871D02*
X017903Y003185D01*
X018403Y003185D02*
X018403Y002871D01*
X018903Y002871D02*
X018903Y003185D01*
X019403Y003185D02*
X019403Y002871D01*
X019903Y002871D02*
X019903Y003185D01*
X020403Y003185D02*
X020403Y002871D01*
X020903Y002871D02*
X020903Y003185D01*
X021088Y004000D02*
X021402Y004000D01*
X021402Y004500D02*
X021088Y004500D01*
X021088Y005000D02*
X021402Y005000D01*
X021402Y005500D02*
X021088Y005500D01*
X021088Y006000D02*
X021402Y006000D01*
X018903Y007438D02*
X018903Y007870D01*
X018403Y007870D02*
X018403Y007438D01*
X017903Y007438D02*
X017903Y007870D01*
X017403Y007870D02*
X017403Y007438D01*
X017403Y008815D02*
X017403Y009129D01*
X016903Y009129D02*
X016903Y008815D01*
X016403Y008815D02*
X016403Y009129D01*
X015903Y009129D02*
X015903Y008815D01*
X015403Y008815D02*
X015403Y009129D01*
X014903Y009129D02*
X014903Y008815D01*
X014403Y008815D02*
X014403Y009129D01*
X013903Y009129D02*
X013903Y008815D01*
X013403Y008815D02*
X013403Y009129D01*
X012903Y009129D02*
X012903Y008815D01*
X012403Y008815D02*
X012403Y009129D01*
X011903Y009129D02*
X011903Y008815D01*
X011403Y008815D02*
X011403Y009129D01*
X017903Y009129D02*
X017903Y008815D01*
X018403Y008815D02*
X018403Y009129D01*
X018903Y009129D02*
X018903Y008815D01*
D19*
X017111Y004465D03*
D20*
X017031Y004487D02*
X014477Y004487D01*
X014477Y004646D02*
X015730Y004646D01*
X015730Y004545D02*
X015730Y004970D01*
X014896Y004970D01*
X014477Y005390D01*
X014477Y003990D01*
X015730Y003990D01*
X015730Y004385D01*
X017031Y004385D01*
X017031Y004545D01*
X017031Y005156D01*
X016862Y005156D01*
X016862Y005255D01*
X016820Y005356D01*
X016742Y005433D01*
X016641Y005475D01*
X016532Y005475D01*
X016441Y005437D01*
X016400Y005536D01*
X016322Y005613D01*
X016221Y005655D01*
X016132Y005655D01*
X015362Y006425D01*
X015441Y006425D01*
X015542Y006467D01*
X015620Y006544D01*
X015662Y006645D01*
X015662Y006755D01*
X015620Y006856D01*
X015577Y006899D01*
X015577Y007050D01*
X015616Y007010D01*
X016372Y006255D01*
X016372Y006165D01*
X016414Y006064D01*
X016491Y005987D01*
X016592Y005945D01*
X016701Y005945D01*
X016802Y005987D01*
X016880Y006064D01*
X016922Y006165D01*
X016922Y006275D01*
X016880Y006376D01*
X016802Y006453D01*
X016701Y006495D01*
X016612Y006495D01*
X015857Y007250D01*
X015857Y007381D01*
X015920Y007444D01*
X015962Y007545D01*
X015962Y007655D01*
X015920Y007756D01*
X015842Y007833D01*
X015741Y007875D01*
X015632Y007875D01*
X015577Y007852D01*
X015577Y008248D01*
X015632Y008225D01*
X015741Y008225D01*
X015842Y008267D01*
X015920Y008344D01*
X015927Y008361D01*
X015934Y008344D01*
X016011Y008267D01*
X016112Y008225D01*
X016221Y008225D01*
X016322Y008267D01*
X016400Y008344D01*
X016442Y008445D01*
X016442Y008498D01*
X016466Y008498D01*
X016582Y008546D01*
X016653Y008616D01*
X016723Y008546D01*
X016839Y008498D01*
X016966Y008498D01*
X017082Y008546D01*
X017153Y008616D01*
X017134Y008596D01*
X017092Y008495D01*
X017092Y008385D01*
X017134Y008284D01*
X017211Y008207D01*
X017299Y008170D01*
X017223Y008139D01*
X017134Y008050D01*
X017085Y007933D01*
X017085Y007374D01*
X017134Y007257D01*
X017223Y007168D01*
X017339Y007120D01*
X017466Y007120D01*
X017582Y007168D01*
X017653Y007238D01*
X017723Y007168D01*
X017839Y007120D01*
X017966Y007120D01*
X018082Y007168D01*
X018153Y007238D01*
X018223Y007168D01*
X018339Y007120D01*
X018466Y007120D01*
X018582Y007168D01*
X018653Y007238D01*
X018723Y007168D01*
X018839Y007120D01*
X018966Y007120D01*
X019082Y007168D01*
X019138Y007223D01*
X019138Y006557D01*
X019184Y006511D01*
X021517Y006511D01*
X021517Y006339D01*
X021507Y006343D01*
X021438Y006357D01*
X021254Y006357D01*
X021254Y006009D01*
X021237Y006009D01*
X021237Y006357D01*
X021052Y006357D01*
X020983Y006343D01*
X020918Y006317D01*
X020860Y006277D01*
X020810Y006228D01*
X020771Y006169D01*
X020744Y006104D01*
X020730Y006035D01*
X020730Y006009D01*
X021236Y006009D01*
X021236Y005991D01*
X020730Y005991D01*
X020730Y005965D01*
X020744Y005896D01*
X020771Y005831D01*
X020810Y005772D01*
X020860Y005723D01*
X020861Y005722D01*
X020819Y005680D01*
X020815Y005670D01*
X020346Y005670D01*
X020282Y005733D01*
X020181Y005775D01*
X020072Y005775D01*
X019971Y005733D01*
X019894Y005656D01*
X019852Y005555D01*
X019852Y005445D01*
X019894Y005344D01*
X019971Y005267D01*
X020072Y005225D01*
X020181Y005225D01*
X020282Y005267D01*
X020346Y005330D01*
X020815Y005330D01*
X020819Y005320D01*
X020861Y005278D01*
X020860Y005277D01*
X020810Y005228D01*
X020771Y005169D01*
X020744Y005104D01*
X020730Y005035D01*
X020730Y005009D01*
X021236Y005009D01*
X021237Y005009D02*
X021237Y005183D01*
X021254Y005183D01*
X021254Y005009D01*
X021237Y005009D01*
X021236Y005009D02*
X021236Y004991D01*
X020730Y004991D01*
X020730Y004965D01*
X020744Y004896D01*
X020771Y004831D01*
X020810Y004772D01*
X020860Y004723D01*
X020861Y004722D01*
X020819Y004680D01*
X020810Y004658D01*
X020721Y004695D01*
X020612Y004695D01*
X020511Y004653D01*
X020434Y004576D01*
X020392Y004475D01*
X020392Y004365D01*
X020434Y004264D01*
X020511Y004187D01*
X020612Y004145D01*
X020721Y004145D01*
X020822Y004187D01*
X020887Y004252D01*
X020889Y004250D01*
X020819Y004180D01*
X020770Y004063D01*
X020770Y003937D01*
X020819Y003820D01*
X020908Y003731D01*
X021025Y003683D01*
X021037Y003683D01*
X021037Y003516D01*
X021007Y003528D01*
X020938Y003542D01*
X020911Y003542D01*
X020911Y003036D01*
X020894Y003036D01*
X020894Y003019D01*
X020720Y003019D01*
X020720Y003036D01*
X020894Y003036D01*
X020894Y003542D01*
X020867Y003542D01*
X020798Y003528D01*
X020733Y003502D01*
X020675Y003462D01*
X020625Y003413D01*
X020624Y003412D01*
X020582Y003454D01*
X020466Y003502D01*
X020339Y003502D01*
X020244Y003463D01*
X019682Y004025D01*
X019682Y004115D01*
X019640Y004216D01*
X019562Y004293D01*
X019461Y004335D01*
X019352Y004335D01*
X019251Y004293D01*
X019174Y004216D01*
X019132Y004115D01*
X019132Y004005D01*
X019174Y003904D01*
X019251Y003827D01*
X019352Y003785D01*
X019441Y003785D01*
X019758Y003468D01*
X019723Y003454D01*
X019653Y003384D01*
X019582Y003454D01*
X019466Y003502D01*
X019339Y003502D01*
X019223Y003454D01*
X019153Y003384D01*
X019082Y003454D01*
X018966Y003502D01*
X018962Y003502D01*
X018962Y003575D01*
X018920Y003676D01*
X018842Y003753D01*
X018741Y003795D01*
X018632Y003795D01*
X018581Y003774D01*
X018617Y003810D01*
X018617Y006481D01*
X018680Y006544D01*
X018722Y006645D01*
X018722Y006755D01*
X018680Y006856D01*
X018602Y006933D01*
X018501Y006975D01*
X018392Y006975D01*
X018291Y006933D01*
X018214Y006856D01*
X018172Y006755D01*
X018172Y006645D01*
X018214Y006544D01*
X018277Y006481D01*
X018277Y005156D01*
X017942Y005156D01*
X017942Y005255D01*
X017900Y005356D01*
X017822Y005433D01*
X017721Y005475D01*
X017632Y005475D01*
X017342Y005765D01*
X017342Y005855D01*
X017300Y005956D01*
X017222Y006033D01*
X017121Y006075D01*
X017012Y006075D01*
X016911Y006033D01*
X016834Y005956D01*
X016792Y005855D01*
X016792Y005745D01*
X016834Y005644D01*
X016911Y005567D01*
X017012Y005525D01*
X017101Y005525D01*
X017392Y005235D01*
X017392Y005156D01*
X017191Y005156D01*
X017191Y004545D01*
X017031Y004545D01*
X015730Y004545D01*
X015730Y004329D02*
X014477Y004329D01*
X014477Y004170D02*
X015730Y004170D01*
X015730Y004012D02*
X014477Y004012D01*
X014477Y004804D02*
X015730Y004804D01*
X015730Y004963D02*
X014477Y004963D01*
X014477Y005121D02*
X014745Y005121D01*
X014587Y005280D02*
X014477Y005280D01*
X015715Y006072D02*
X016410Y006072D01*
X016372Y006231D02*
X015557Y006231D01*
X015398Y006389D02*
X016237Y006389D01*
X016079Y006548D02*
X015621Y006548D01*
X015662Y006706D02*
X015920Y006706D01*
X015762Y006865D02*
X015611Y006865D01*
X015603Y007023D02*
X015577Y007023D01*
X015926Y007182D02*
X017210Y007182D01*
X017099Y007340D02*
X015857Y007340D01*
X015942Y007499D02*
X017085Y007499D01*
X017085Y007657D02*
X015961Y007657D01*
X015860Y007816D02*
X017085Y007816D01*
X017102Y007974D02*
X015577Y007974D01*
X015577Y008133D02*
X017216Y008133D01*
X017131Y008291D02*
X016347Y008291D01*
X016442Y008450D02*
X017092Y008450D01*
X017144Y008608D02*
X017146Y008608D01*
X017153Y008616D02*
X017153Y008616D01*
X016661Y008608D02*
X016644Y008608D01*
X015987Y008291D02*
X015867Y008291D01*
X017596Y007182D02*
X017710Y007182D01*
X018096Y007182D02*
X018210Y007182D01*
X018596Y007182D02*
X018710Y007182D01*
X019096Y007182D02*
X019138Y007182D01*
X019138Y007023D02*
X016084Y007023D01*
X016243Y006865D02*
X018222Y006865D01*
X018172Y006706D02*
X016401Y006706D01*
X016560Y006548D02*
X018212Y006548D01*
X018277Y006389D02*
X016867Y006389D01*
X016922Y006231D02*
X018277Y006231D01*
X018277Y006072D02*
X017129Y006072D01*
X017005Y006072D02*
X016883Y006072D01*
X016816Y005914D02*
X015874Y005914D01*
X016032Y005755D02*
X016792Y005755D01*
X016881Y005597D02*
X016339Y005597D01*
X016440Y005438D02*
X016443Y005438D01*
X016731Y005438D02*
X017188Y005438D01*
X017347Y005280D02*
X016851Y005280D01*
X017031Y005121D02*
X017191Y005121D01*
X017191Y004963D02*
X017031Y004963D01*
X017031Y004804D02*
X017191Y004804D01*
X017191Y004646D02*
X017031Y004646D01*
X017031Y004385D02*
X017191Y004385D01*
X017191Y003795D01*
X017132Y003795D01*
X017031Y003753D01*
X016954Y003676D01*
X016912Y003575D01*
X016912Y003502D01*
X016839Y003502D01*
X016723Y003454D01*
X016653Y003384D01*
X016582Y003454D01*
X016466Y003502D01*
X016397Y003502D01*
X016397Y003710D01*
X016334Y003773D01*
X017031Y003773D01*
X017031Y004385D01*
X017031Y004329D02*
X017191Y004329D01*
X017191Y004170D02*
X017031Y004170D01*
X017031Y004012D02*
X017191Y004012D01*
X017191Y003853D02*
X017031Y003853D01*
X016972Y003695D02*
X016397Y003695D01*
X016397Y003536D02*
X016912Y003536D01*
X017295Y003773D02*
X017831Y003773D01*
X017794Y003736D01*
X017752Y003635D01*
X017752Y003525D01*
X017773Y003475D01*
X017723Y003454D01*
X017653Y003384D01*
X017582Y003454D01*
X017466Y003502D01*
X017462Y003502D01*
X017462Y003575D01*
X017420Y003676D01*
X017342Y003753D01*
X017295Y003773D01*
X017401Y003695D02*
X017776Y003695D01*
X017752Y003536D02*
X017462Y003536D01*
X018617Y003853D02*
X019225Y003853D01*
X019532Y003695D02*
X018901Y003695D01*
X018962Y003536D02*
X019690Y003536D01*
X020013Y003695D02*
X020996Y003695D01*
X020969Y003536D02*
X021037Y003536D01*
X020911Y003536D02*
X020894Y003536D01*
X020836Y003536D02*
X020171Y003536D01*
X019854Y003853D02*
X020805Y003853D01*
X020770Y004012D02*
X019696Y004012D01*
X019659Y004170D02*
X020552Y004170D01*
X020407Y004329D02*
X019477Y004329D01*
X019336Y004329D02*
X018617Y004329D01*
X018617Y004170D02*
X019155Y004170D01*
X019132Y004012D02*
X018617Y004012D01*
X018617Y004487D02*
X020397Y004487D01*
X020503Y004646D02*
X018617Y004646D01*
X018617Y004804D02*
X020789Y004804D01*
X020731Y004963D02*
X018617Y004963D01*
X018617Y005121D02*
X020751Y005121D01*
X020860Y005280D02*
X020295Y005280D01*
X019958Y005280D02*
X018617Y005280D01*
X018617Y005438D02*
X019855Y005438D01*
X019869Y005597D02*
X018617Y005597D01*
X018617Y005755D02*
X020024Y005755D01*
X020230Y005755D02*
X020827Y005755D01*
X020741Y005914D02*
X018617Y005914D01*
X018617Y006072D02*
X020738Y006072D01*
X020813Y006231D02*
X018617Y006231D01*
X018617Y006389D02*
X021517Y006389D01*
X021254Y006231D02*
X021237Y006231D01*
X021237Y006072D02*
X021254Y006072D01*
X021254Y006009D02*
X021517Y006009D01*
X021517Y005991D01*
X021254Y005991D01*
X021254Y005817D01*
X021237Y005817D01*
X021237Y005991D01*
X021254Y005991D01*
X021254Y006009D01*
X021254Y005914D02*
X021237Y005914D01*
X021237Y005121D02*
X021254Y005121D01*
X021254Y005009D02*
X021517Y005009D01*
X021517Y004991D01*
X021254Y004991D01*
X021254Y004817D01*
X021237Y004817D01*
X021237Y004991D01*
X021254Y004991D01*
X021254Y005009D01*
X021254Y004963D02*
X021237Y004963D01*
X020815Y004170D02*
X020782Y004170D01*
X020894Y003378D02*
X020911Y003378D01*
X020894Y003219D02*
X020911Y003219D01*
X020894Y003061D02*
X020911Y003061D01*
X020911Y003036D02*
X021037Y003036D01*
X021037Y003019D01*
X020911Y003019D01*
X020911Y002513D01*
X020938Y002513D01*
X020989Y002523D01*
X020453Y001987D01*
X020450Y001990D01*
X020044Y001990D01*
X019757Y001703D01*
X019757Y001297D01*
X019824Y001230D01*
X019670Y001230D01*
X019737Y001297D01*
X019737Y001703D01*
X019713Y001726D01*
X020357Y002370D01*
X020357Y002510D01*
X020357Y002553D01*
X020466Y002553D01*
X020582Y002601D01*
X020624Y002643D01*
X020625Y002642D01*
X020675Y002593D01*
X020733Y002554D01*
X020798Y002527D01*
X020867Y002513D01*
X020894Y002513D01*
X020894Y003019D01*
X020911Y003019D01*
X020911Y003036D01*
X020911Y002902D02*
X020894Y002902D01*
X020894Y002744D02*
X020911Y002744D01*
X020894Y002585D02*
X020911Y002585D01*
X020686Y002585D02*
X020543Y002585D01*
X020357Y002427D02*
X020893Y002427D01*
X020734Y002268D02*
X020255Y002268D01*
X020097Y002110D02*
X020576Y002110D01*
X020005Y001951D02*
X019938Y001951D01*
X019846Y001793D02*
X019780Y001793D01*
X019757Y001634D02*
X019737Y001634D01*
X019737Y001476D02*
X019757Y001476D01*
X019757Y001317D02*
X019737Y001317D01*
X018277Y005280D02*
X017931Y005280D01*
X017811Y005438D02*
X018277Y005438D01*
X018277Y005597D02*
X017511Y005597D01*
X017352Y005755D02*
X018277Y005755D01*
X018277Y005914D02*
X017317Y005914D01*
X018681Y006548D02*
X019147Y006548D01*
X019138Y006706D02*
X018722Y006706D01*
X018671Y006865D02*
X019138Y006865D01*
X019138Y008084D02*
X019082Y008139D01*
X018966Y008187D01*
X018839Y008187D01*
X018723Y008139D01*
X018653Y008069D01*
X018582Y008139D01*
X018466Y008187D01*
X018339Y008187D01*
X018223Y008139D01*
X018153Y008069D01*
X018082Y008139D01*
X017966Y008187D01*
X017942Y008187D01*
X017942Y008235D01*
X018244Y008537D01*
X018339Y008498D01*
X018466Y008498D01*
X018582Y008546D01*
X018624Y008588D01*
X018625Y008587D01*
X018675Y008538D01*
X018733Y008498D01*
X018798Y008472D01*
X018867Y008458D01*
X018894Y008458D01*
X018894Y008964D01*
X018720Y008964D01*
X018720Y008981D01*
X018894Y008981D01*
X018894Y008964D01*
X018911Y008964D01*
X018911Y008458D01*
X018938Y008458D01*
X019007Y008472D01*
X019072Y008498D01*
X019130Y008538D01*
X019138Y008545D01*
X019138Y008084D01*
X019138Y008133D02*
X019089Y008133D01*
X019138Y008291D02*
X017998Y008291D01*
X018089Y008133D02*
X018216Y008133D01*
X018589Y008133D02*
X018716Y008133D01*
X019138Y008450D02*
X018157Y008450D01*
X018894Y008608D02*
X018911Y008608D01*
X018894Y008767D02*
X018911Y008767D01*
X018894Y008925D02*
X018911Y008925D01*
X018911Y008964D02*
X019138Y008964D01*
X019138Y008981D01*
X018911Y008981D01*
X018894Y008981D01*
X018894Y009487D01*
X018867Y009487D01*
X018798Y009473D01*
X018733Y009446D01*
X018675Y009407D01*
X018625Y009358D01*
X018624Y009357D01*
X018582Y009399D01*
X018466Y009447D01*
X018339Y009447D01*
X018223Y009399D01*
X018153Y009328D01*
X018082Y009399D01*
X018002Y009432D01*
X018002Y009515D01*
X017960Y009616D01*
X017882Y009693D01*
X017781Y009735D01*
X017672Y009735D01*
X017571Y009693D01*
X017494Y009616D01*
X017452Y009515D01*
X017452Y009447D01*
X017402Y009447D01*
X017402Y009515D01*
X017360Y009616D01*
X017317Y009659D01*
X017317Y010010D01*
X017450Y010010D01*
X017718Y010279D01*
X018027Y009970D01*
X018227Y009970D01*
X018227Y010480D01*
X018267Y010480D01*
X018267Y010520D01*
X018777Y010520D01*
X018777Y010720D01*
X018726Y010770D01*
X019138Y010770D01*
X019138Y009400D01*
X019130Y009407D01*
X019072Y009446D01*
X019007Y009473D01*
X018938Y009487D01*
X018911Y009487D01*
X018911Y008981D01*
X018911Y008964D01*
X018911Y009084D02*
X018894Y009084D01*
X018894Y009242D02*
X018911Y009242D01*
X018894Y009401D02*
X018911Y009401D01*
X019137Y009401D02*
X019138Y009401D01*
X019138Y009559D02*
X017983Y009559D01*
X018078Y009401D02*
X018227Y009401D01*
X018578Y009401D02*
X018668Y009401D01*
X019138Y009718D02*
X017824Y009718D01*
X017630Y009718D02*
X017317Y009718D01*
X017383Y009559D02*
X017470Y009559D01*
X017317Y009876D02*
X019138Y009876D01*
X019138Y010035D02*
X018531Y010035D01*
X018466Y009970D02*
X018777Y010280D01*
X018777Y010480D01*
X018267Y010480D01*
X018267Y009970D01*
X018466Y009970D01*
X018267Y010035D02*
X018227Y010035D01*
X018227Y010193D02*
X018267Y010193D01*
X017963Y010035D02*
X017474Y010035D01*
X017633Y010193D02*
X017804Y010193D01*
X018227Y010352D02*
X018267Y010352D01*
X018267Y010510D02*
X019138Y010510D01*
X019138Y010352D02*
X018777Y010352D01*
X018689Y010193D02*
X019138Y010193D01*
X019138Y010669D02*
X018777Y010669D01*
X012277Y007201D02*
X012277Y005930D01*
X012041Y005694D01*
X012062Y005745D01*
X012062Y005855D01*
X012020Y005956D01*
X011957Y006019D01*
X011957Y006530D01*
X011857Y006630D01*
X011495Y006630D01*
X011475Y006680D01*
X011404Y006750D01*
X011475Y006820D01*
X011523Y006937D01*
X011523Y007063D01*
X011475Y007180D01*
X011404Y007250D01*
X011475Y007320D01*
X011523Y007437D01*
X011523Y007563D01*
X011475Y007680D01*
X011404Y007750D01*
X011475Y007820D01*
X011523Y007937D01*
X011523Y008063D01*
X011475Y008180D01*
X011385Y008269D01*
X011269Y008317D01*
X010950Y008317D01*
X010937Y008330D01*
X010937Y008341D01*
X011000Y008404D01*
X011042Y008505D01*
X011042Y008615D01*
X011000Y008716D01*
X010922Y008793D01*
X010821Y008835D01*
X010712Y008835D01*
X010611Y008793D01*
X010534Y008716D01*
X010492Y008615D01*
X010492Y008505D01*
X010534Y008404D01*
X010597Y008341D01*
X010597Y008190D01*
X010617Y008169D01*
X010574Y008063D01*
X010574Y007937D01*
X010622Y007820D01*
X010692Y007750D01*
X010622Y007680D01*
X010610Y007650D01*
X009816Y007650D01*
X009825Y007660D01*
X009849Y007701D01*
X009861Y007746D01*
X009861Y007749D01*
X009866Y007744D01*
X009907Y007720D01*
X009953Y007708D01*
X010145Y007708D01*
X010145Y008076D01*
X010162Y008076D01*
X010162Y007708D01*
X010355Y007708D01*
X010400Y007720D01*
X010441Y007744D01*
X010475Y007778D01*
X010499Y007819D01*
X010511Y007864D01*
X010511Y008076D01*
X010162Y008076D01*
X010162Y008094D01*
X010511Y008094D01*
X010511Y008306D01*
X010499Y008351D01*
X010475Y008392D01*
X010441Y008426D01*
X010438Y008428D01*
X010471Y008460D01*
X010471Y008804D01*
X010577Y008910D01*
X010897Y009230D01*
X011058Y009230D01*
X011045Y009165D01*
X011045Y008981D01*
X011394Y008981D01*
X011394Y008964D01*
X011045Y008964D01*
X011045Y008780D01*
X011059Y008711D01*
X011086Y008646D01*
X011125Y008587D01*
X011175Y008538D01*
X011233Y008498D01*
X011298Y008472D01*
X011367Y008458D01*
X011394Y008458D01*
X011394Y008964D01*
X011411Y008964D01*
X011411Y008458D01*
X011438Y008458D01*
X011507Y008472D01*
X011572Y008498D01*
X011630Y008538D01*
X011680Y008587D01*
X011681Y008588D01*
X011723Y008546D01*
X011737Y008540D01*
X011737Y007699D01*
X011674Y007636D01*
X011632Y007535D01*
X011632Y007425D01*
X011674Y007324D01*
X011751Y007247D01*
X011852Y007205D01*
X011961Y007205D01*
X012062Y007247D01*
X012140Y007324D01*
X012172Y007401D01*
X012172Y007365D01*
X012214Y007264D01*
X012277Y007201D01*
X012277Y007182D02*
X011473Y007182D01*
X011483Y007340D02*
X011667Y007340D01*
X011632Y007499D02*
X011523Y007499D01*
X011484Y007657D02*
X011695Y007657D01*
X011737Y007816D02*
X011470Y007816D01*
X011523Y007974D02*
X011737Y007974D01*
X011737Y008133D02*
X011494Y008133D01*
X011332Y008291D02*
X011737Y008291D01*
X011737Y008450D02*
X011019Y008450D01*
X011042Y008608D02*
X011111Y008608D01*
X011048Y008767D02*
X010949Y008767D01*
X010584Y008767D02*
X010471Y008767D01*
X010471Y008608D02*
X010492Y008608D01*
X010515Y008450D02*
X010460Y008450D01*
X010511Y008291D02*
X010597Y008291D01*
X010602Y008133D02*
X010511Y008133D01*
X010145Y008094D02*
X010145Y008076D01*
X009861Y008076D01*
X009861Y008094D01*
X010145Y008094D01*
X010145Y007974D02*
X010162Y007974D01*
X010145Y007816D02*
X010162Y007816D01*
X010497Y007816D02*
X010627Y007816D01*
X010612Y007657D02*
X009823Y007657D01*
X009347Y007928D02*
X009347Y007928D01*
X009347Y008265D01*
X009705Y008265D01*
X009751Y008253D01*
X009792Y008229D01*
X009797Y008224D01*
X009797Y008306D01*
X009809Y008351D01*
X009833Y008392D01*
X009866Y008426D01*
X009869Y008428D01*
X009837Y008460D01*
X009837Y008970D01*
X009919Y009052D01*
X010094Y009052D01*
X009976Y009170D01*
X009006Y009170D01*
X008942Y009107D01*
X008841Y009065D01*
X008732Y009065D01*
X008631Y009107D01*
X008554Y009184D01*
X008512Y009285D01*
X008512Y009395D01*
X008554Y009496D01*
X008631Y009573D01*
X008732Y009615D01*
X008841Y009615D01*
X008942Y009573D01*
X009006Y009510D01*
X009996Y009510D01*
X009473Y010033D01*
X009450Y010010D01*
X009044Y010010D01*
X008757Y010297D01*
X008757Y010703D01*
X008824Y010770D01*
X008670Y010770D01*
X008737Y010703D01*
X008737Y010297D01*
X008450Y010010D01*
X008044Y010010D01*
X007757Y010297D01*
X007757Y010703D01*
X007824Y010770D01*
X007670Y010770D01*
X007737Y010703D01*
X007737Y010297D01*
X007723Y010284D01*
X007997Y010010D01*
X007997Y008210D01*
X008092Y008115D01*
X008181Y008115D01*
X008222Y008098D01*
X008222Y008340D01*
X008283Y008400D01*
X008222Y008460D01*
X008222Y008970D01*
X008304Y009052D01*
X008775Y009052D01*
X008857Y008970D01*
X008857Y008460D01*
X008797Y008400D01*
X008857Y008340D01*
X008857Y008176D01*
X008868Y008196D01*
X008901Y008229D01*
X008943Y008253D01*
X008988Y008265D01*
X009347Y008265D01*
X009347Y007928D01*
X009347Y007974D02*
X009347Y007974D01*
X009347Y008133D02*
X009347Y008133D01*
X009797Y008291D02*
X008857Y008291D01*
X008846Y008450D02*
X009847Y008450D01*
X009837Y008608D02*
X008857Y008608D01*
X008857Y008767D02*
X009837Y008767D01*
X009837Y008925D02*
X008857Y008925D01*
X008886Y009084D02*
X010063Y009084D01*
X010592Y008925D02*
X011045Y008925D01*
X011045Y009084D02*
X010751Y009084D01*
X011394Y009084D02*
X011411Y009084D01*
X011411Y008981D02*
X011411Y009230D01*
X011394Y009230D01*
X011394Y008981D01*
X011411Y008981D01*
X011585Y008981D01*
X011585Y008964D01*
X011411Y008964D01*
X011411Y008981D01*
X011411Y008925D02*
X011394Y008925D01*
X011394Y008767D02*
X011411Y008767D01*
X011394Y008608D02*
X011411Y008608D01*
X010574Y007974D02*
X010511Y007974D01*
X009016Y007590D02*
X008896Y007470D01*
X007936Y007470D01*
X007840Y007374D01*
X007840Y007886D01*
X007852Y007875D01*
X007852Y007785D01*
X007894Y007684D01*
X007971Y007607D01*
X008072Y007565D01*
X008181Y007565D01*
X008282Y007607D01*
X008360Y007684D01*
X008386Y007748D01*
X008775Y007748D01*
X008832Y007805D01*
X008832Y007746D01*
X008844Y007701D01*
X008868Y007660D01*
X008901Y007626D01*
X008943Y007602D01*
X008988Y007590D01*
X009016Y007590D01*
X008925Y007499D02*
X007840Y007499D01*
X007840Y007657D02*
X007921Y007657D01*
X007852Y007816D02*
X007840Y007816D01*
X008333Y007657D02*
X008871Y007657D01*
X008222Y008133D02*
X008075Y008133D01*
X007997Y008291D02*
X008222Y008291D01*
X008233Y008450D02*
X007997Y008450D01*
X007997Y008608D02*
X008222Y008608D01*
X008222Y008767D02*
X007997Y008767D01*
X007997Y008925D02*
X008222Y008925D01*
X007997Y009084D02*
X008687Y009084D01*
X008530Y009242D02*
X007997Y009242D01*
X007997Y009401D02*
X008514Y009401D01*
X008617Y009559D02*
X007997Y009559D01*
X007997Y009718D02*
X009789Y009718D01*
X009947Y009559D02*
X008957Y009559D01*
X009630Y009876D02*
X007997Y009876D01*
X007973Y010035D02*
X008019Y010035D01*
X007861Y010193D02*
X007814Y010193D01*
X007757Y010352D02*
X007737Y010352D01*
X007737Y010510D02*
X007757Y010510D01*
X007757Y010669D02*
X007737Y010669D01*
X008737Y010669D02*
X008757Y010669D01*
X008757Y010510D02*
X008737Y010510D01*
X008737Y010352D02*
X008757Y010352D01*
X008861Y010193D02*
X008633Y010193D01*
X008474Y010035D02*
X009019Y010035D01*
X005515Y008291D02*
X005294Y008291D01*
X005290Y008290D02*
X005336Y008302D01*
X005377Y008326D01*
X005411Y008359D01*
X005424Y008382D01*
X006172Y007635D01*
X006172Y007545D01*
X006214Y007444D01*
X006283Y007375D01*
X006231Y007353D01*
X006154Y007276D01*
X006112Y007175D01*
X006112Y007065D01*
X006154Y006964D01*
X006217Y006901D01*
X006217Y006230D01*
X006121Y006135D01*
X006032Y006135D01*
X005931Y006093D01*
X005854Y006016D01*
X005812Y005915D01*
X005812Y005805D01*
X005813Y005801D01*
X005800Y005794D01*
X005766Y005760D01*
X005743Y005719D01*
X005730Y005673D01*
X005730Y005451D01*
X006109Y005451D01*
X006109Y005375D01*
X005730Y005375D01*
X005730Y005153D01*
X005737Y005130D01*
X005557Y005130D01*
X005563Y005153D01*
X005563Y005375D01*
X005185Y005375D01*
X005185Y005451D01*
X005563Y005451D01*
X005563Y005673D01*
X005551Y005719D01*
X005527Y005760D01*
X005493Y005794D01*
X005452Y005817D01*
X005407Y005830D01*
X005252Y005830D01*
X005342Y005867D01*
X005420Y005944D01*
X005462Y006045D01*
X005462Y006125D01*
X005481Y006125D01*
X005582Y006167D01*
X005660Y006244D01*
X005702Y006345D01*
X005702Y006455D01*
X005660Y006556D01*
X005582Y006633D01*
X005481Y006675D01*
X005407Y006675D01*
X005407Y007188D01*
X005325Y007270D01*
X004667Y007270D01*
X004682Y007305D01*
X004682Y007366D01*
X004735Y007420D01*
X005325Y007420D01*
X005407Y007502D01*
X005407Y008098D01*
X005325Y008180D01*
X004329Y008180D01*
X004247Y008098D01*
X004247Y007589D01*
X004174Y007516D01*
X004132Y007415D01*
X004132Y007354D01*
X004097Y007319D01*
X004097Y008550D01*
X004207Y008660D01*
X004207Y008446D01*
X004219Y008401D01*
X004243Y008359D01*
X004276Y008326D01*
X004317Y008302D01*
X004363Y008290D01*
X004787Y008290D01*
X004787Y008670D01*
X004867Y008670D01*
X005197Y008670D01*
X005197Y008750D01*
X004867Y008750D01*
X004867Y008670D01*
X004867Y008290D01*
X005290Y008290D01*
X005372Y008133D02*
X005674Y008133D01*
X005832Y007974D02*
X005407Y007974D01*
X005407Y007816D02*
X005991Y007816D01*
X006149Y007657D02*
X005407Y007657D01*
X005403Y007499D02*
X006191Y007499D01*
X006218Y007340D02*
X004682Y007340D01*
X004247Y007657D02*
X004097Y007657D01*
X004097Y007816D02*
X004247Y007816D01*
X004247Y007974D02*
X004097Y007974D01*
X004097Y008133D02*
X004281Y008133D01*
X004359Y008291D02*
X004097Y008291D01*
X004097Y008450D02*
X004207Y008450D01*
X004207Y008608D02*
X004155Y008608D01*
X004217Y008670D02*
X004297Y008750D01*
X004787Y008750D01*
X004787Y009130D01*
X004677Y009130D01*
X004732Y009185D01*
X004821Y009185D01*
X004922Y009227D01*
X005000Y009304D01*
X005042Y009405D01*
X005042Y009485D01*
X005197Y009330D01*
X005197Y009130D01*
X004867Y009130D01*
X004867Y008750D01*
X004787Y008750D01*
X004787Y008670D01*
X004217Y008670D01*
X004787Y008608D02*
X004867Y008608D01*
X004867Y008450D02*
X004787Y008450D01*
X004787Y008291D02*
X004867Y008291D01*
X004867Y008767D02*
X004787Y008767D01*
X004787Y008925D02*
X004867Y008925D01*
X004867Y009084D02*
X004787Y009084D01*
X004938Y009242D02*
X005197Y009242D01*
X005126Y009401D02*
X005040Y009401D01*
X004166Y007499D02*
X004097Y007499D01*
X004097Y007340D02*
X004118Y007340D01*
X005407Y007182D02*
X006114Y007182D01*
X006129Y007023D02*
X005407Y007023D01*
X005407Y006865D02*
X006217Y006865D01*
X006217Y006706D02*
X005407Y006706D01*
X005663Y006548D02*
X006217Y006548D01*
X006217Y006389D02*
X005702Y006389D01*
X005646Y006231D02*
X006217Y006231D01*
X005910Y006072D02*
X005462Y006072D01*
X005389Y005914D02*
X005812Y005914D01*
X005763Y005755D02*
X005530Y005755D01*
X005563Y005597D02*
X005730Y005597D01*
X005730Y005280D02*
X005563Y005280D01*
X005185Y005438D02*
X006109Y005438D01*
X007277Y005438D02*
X007897Y005438D01*
X007897Y005280D02*
X007277Y005280D01*
X007277Y005121D02*
X007897Y005121D01*
X007881Y004995D02*
X007897Y004989D01*
X007897Y006870D01*
X007837Y006930D01*
X007837Y007030D01*
X007758Y006951D01*
X007717Y006951D01*
X007717Y006719D01*
X007760Y006676D01*
X007802Y006575D01*
X007802Y006465D01*
X007760Y006364D01*
X007682Y006287D01*
X007581Y006245D01*
X007472Y006245D01*
X007371Y006287D01*
X007294Y006364D01*
X007277Y006405D01*
X007277Y004410D01*
X007552Y004685D01*
X007552Y004775D01*
X007594Y004876D01*
X007671Y004953D01*
X007772Y004995D01*
X007881Y004995D01*
X007694Y004963D02*
X007277Y004963D01*
X007277Y004804D02*
X007564Y004804D01*
X007512Y004646D02*
X007277Y004646D01*
X007277Y004487D02*
X007353Y004487D01*
X007277Y005597D02*
X007897Y005597D01*
X007897Y005755D02*
X007277Y005755D01*
X007277Y005914D02*
X007897Y005914D01*
X007897Y006072D02*
X007277Y006072D01*
X007277Y006231D02*
X007897Y006231D01*
X007897Y006389D02*
X007770Y006389D01*
X007802Y006548D02*
X007897Y006548D01*
X007897Y006706D02*
X007730Y006706D01*
X007717Y006865D02*
X007897Y006865D01*
X007837Y007023D02*
X007829Y007023D01*
X007283Y006389D02*
X007277Y006389D01*
X011448Y006706D02*
X012277Y006706D01*
X012277Y006865D02*
X011493Y006865D01*
X011523Y007023D02*
X012277Y007023D01*
X012182Y007340D02*
X012146Y007340D01*
X012277Y006548D02*
X011940Y006548D01*
X011957Y006389D02*
X012277Y006389D01*
X012277Y006231D02*
X011957Y006231D01*
X011957Y006072D02*
X012277Y006072D01*
X012260Y005914D02*
X012037Y005914D01*
X012062Y005755D02*
X012101Y005755D01*
X011632Y003830D02*
X011632Y003765D01*
X011674Y003664D01*
X011737Y003601D01*
X011737Y003460D01*
X011723Y003454D01*
X011681Y003412D01*
X011680Y003413D01*
X011630Y003462D01*
X011572Y003502D01*
X011507Y003528D01*
X011438Y003542D01*
X011411Y003542D01*
X011411Y003036D01*
X011394Y003036D01*
X011297Y003036D01*
X011297Y003030D01*
X011286Y003019D01*
X011394Y003019D01*
X011394Y003036D01*
X011394Y003387D01*
X011402Y003405D01*
X011402Y003515D01*
X011394Y003533D01*
X011394Y003542D01*
X011390Y003542D01*
X011360Y003616D01*
X011286Y003690D01*
X011385Y003731D01*
X011475Y003820D01*
X011479Y003830D01*
X011632Y003830D01*
X011661Y003695D02*
X011297Y003695D01*
X011394Y003536D02*
X011411Y003536D01*
X011469Y003536D02*
X011737Y003536D01*
X011411Y003378D02*
X011394Y003378D01*
X011394Y003219D02*
X011411Y003219D01*
X011394Y003061D02*
X011411Y003061D01*
X011411Y003036D02*
X011585Y003036D01*
X011585Y003019D01*
X011411Y003019D01*
X011411Y002513D01*
X011438Y002513D01*
X011507Y002527D01*
X011572Y002554D01*
X011630Y002593D01*
X011680Y002642D01*
X011681Y002643D01*
X011723Y002601D01*
X011839Y002553D01*
X011872Y002553D01*
X011872Y002525D01*
X011336Y001990D01*
X011044Y001990D01*
X010757Y001703D01*
X010757Y001297D01*
X010824Y001230D01*
X010670Y001230D01*
X010737Y001297D01*
X010737Y001703D01*
X010457Y001983D01*
X010457Y002316D01*
X010532Y002285D01*
X010641Y002285D01*
X010742Y002327D01*
X010820Y002404D01*
X010862Y002505D01*
X010862Y002595D01*
X011055Y002788D01*
X011059Y002766D01*
X011086Y002701D01*
X011125Y002642D01*
X011175Y002593D01*
X011233Y002554D01*
X011298Y002527D01*
X011367Y002513D01*
X011394Y002513D01*
X011394Y003019D01*
X011411Y003019D01*
X011411Y003036D01*
X011411Y002902D02*
X011394Y002902D01*
X011394Y002744D02*
X011411Y002744D01*
X011394Y002585D02*
X011411Y002585D01*
X011619Y002585D02*
X011762Y002585D01*
X011773Y002427D02*
X010829Y002427D01*
X010862Y002585D02*
X011186Y002585D01*
X011068Y002744D02*
X011011Y002744D01*
X010457Y002268D02*
X011614Y002268D01*
X011456Y002110D02*
X010457Y002110D01*
X010489Y001951D02*
X011005Y001951D01*
X010846Y001793D02*
X010647Y001793D01*
X010737Y001634D02*
X010757Y001634D01*
X010757Y001476D02*
X010737Y001476D01*
X010737Y001317D02*
X010757Y001317D01*
D21*
X011403Y003028D02*
X011427Y003040D01*
X011607Y003220D01*
X011607Y003580D01*
X016347Y005800D02*
X016497Y005650D01*
X017907Y007060D01*
X018627Y007060D01*
X018627Y007120D01*
X019027Y006700D01*
X019249Y006483D01*
X019227Y006460D01*
X019227Y006400D01*
X019027Y006200D01*
X019249Y006483D02*
X019493Y006245D01*
X019527Y006280D01*
X019647Y006400D01*
X019493Y006245D02*
X019827Y005920D01*
X019827Y005980D01*
X020067Y005980D01*
X020047Y006000D01*
X020067Y005980D02*
X020487Y005980D01*
X020447Y006000D01*
X020487Y006040D01*
X020487Y006400D01*
X020447Y006400D01*
X020047Y006400D01*
X020487Y006400D02*
X020847Y006400D01*
X021267Y006040D02*
X021245Y006000D01*
X021207Y005980D01*
X020487Y005980D01*
X019827Y005920D02*
X019827Y005440D01*
X020577Y004690D01*
X020367Y004480D01*
X020367Y004360D01*
X020727Y004000D01*
X020727Y003160D01*
X020847Y003040D01*
X020903Y003028D01*
X020907Y003040D01*
X020577Y004690D02*
X020847Y004960D01*
X021207Y004960D01*
X021245Y005000D01*
X021267Y005020D01*
X017111Y004465D02*
X017067Y004480D01*
X017067Y005080D01*
X016947Y005200D01*
X016497Y005650D01*
X015387Y006700D02*
X015387Y008920D01*
X015403Y008972D01*
X015447Y008980D01*
X015567Y009100D01*
X015567Y009640D01*
X016227Y010300D01*
X016227Y010480D01*
X016247Y010500D01*
X017127Y010360D02*
X017127Y009460D01*
X017127Y010360D02*
X017247Y010480D01*
X017247Y010500D01*
X018247Y010500D02*
X018747Y010000D01*
X019047Y010000D01*
X019047Y010400D01*
X018747Y010000D02*
X018747Y009580D01*
X019047Y009580D01*
X019047Y009600D01*
X018747Y009580D02*
X018747Y009100D01*
X018867Y008980D01*
X018903Y008972D01*
X018927Y008980D01*
X018903Y008972D02*
X018927Y008920D01*
X018927Y008440D01*
X019047Y008320D01*
X019047Y008300D01*
X015207Y009460D02*
X014907Y009160D01*
X014907Y008980D01*
X014903Y008972D01*
X014907Y008920D01*
X014907Y007000D01*
X012207Y006400D02*
X011607Y007000D01*
X011607Y008740D01*
X011427Y008920D01*
X011403Y008972D01*
X011367Y008920D01*
X010587Y008920D01*
X010587Y008740D01*
X010467Y008620D01*
X010467Y008440D01*
X010167Y008140D01*
X010154Y008085D01*
X010107Y008080D01*
X009387Y008080D01*
X009387Y007960D01*
X009347Y007928D01*
X009327Y007900D01*
X008967Y007540D01*
X008007Y007540D01*
X007827Y007360D01*
X007827Y006820D01*
X007527Y006520D02*
X007527Y007540D01*
X007287Y007780D01*
X007267Y007800D01*
X006047Y007400D02*
X006027Y007360D01*
X005787Y007120D01*
X005747Y007100D01*
X005787Y007060D01*
X005787Y005440D01*
X005187Y005440D01*
X005147Y005413D01*
X005787Y005440D02*
X006147Y005440D01*
X006147Y005413D01*
X004707Y006160D02*
X004347Y005800D01*
X004347Y003880D01*
X004407Y003820D01*
X005147Y003365D02*
X005187Y003340D01*
X005187Y002920D01*
X002187Y002620D02*
X002187Y002500D01*
X001947Y002260D01*
X001587Y002260D01*
X001587Y003160D01*
X001707Y003280D01*
X001707Y004060D01*
X001287Y004480D01*
X001247Y004500D01*
X004107Y006160D02*
X004107Y007060D01*
X004407Y007360D01*
X004827Y007780D01*
X004827Y007800D01*
X005427Y008020D02*
X005427Y008080D01*
X004827Y008680D01*
X004827Y008710D01*
X004827Y008740D01*
X005427Y008020D02*
X005747Y007700D01*
X006047Y007400D01*
X004827Y006890D02*
X004827Y006880D01*
X004407Y006460D01*
X004407Y006220D01*
X004107Y006160D02*
X004347Y005920D01*
X004347Y005800D01*
X004707Y006160D02*
X004707Y006400D01*
X005427Y006400D01*
X011403Y008972D02*
X011427Y008980D01*
X002067Y009700D02*
X002067Y002740D01*
X002187Y002620D01*
X002067Y009700D02*
X001287Y010480D01*
X001247Y010500D01*
D22*
X001767Y009460D03*
X002787Y008860D03*
X002487Y008140D03*
X004407Y007360D03*
X005747Y007100D03*
X006387Y007120D03*
X006047Y007400D03*
X005747Y007700D03*
X006447Y007600D03*
X007827Y006820D03*
X007527Y006520D03*
X008307Y006040D03*
X006807Y005680D03*
X006087Y005860D03*
X005187Y006100D03*
X005427Y006400D03*
X004407Y006220D03*
X002787Y007000D03*
X001587Y005980D03*
X002667Y004900D03*
X002907Y004060D03*
X004407Y003820D03*
X004647Y004420D03*
X006627Y003580D03*
X006867Y003280D03*
X006147Y002920D03*
X006627Y002560D03*
X007707Y001840D03*
X009087Y002800D03*
X008427Y003040D03*
X010407Y003220D03*
X010647Y002980D03*
X010587Y002560D03*
X012147Y002560D03*
X012807Y001840D03*
X014127Y002560D03*
X014667Y002560D03*
X015147Y002560D03*
X016647Y002560D03*
X017667Y002560D03*
X018147Y002560D03*
X018627Y002560D03*
X019647Y002560D03*
X018687Y001840D03*
X018687Y003520D03*
X018027Y003580D03*
X017627Y003600D03*
X017187Y003520D03*
X016627Y003600D03*
X015927Y003580D03*
X015567Y003520D03*
X014907Y003580D03*
X012687Y004840D03*
X011967Y005020D03*
X011547Y005320D03*
X011787Y005800D03*
X012207Y006400D03*
X012807Y006400D03*
X014427Y006040D03*
X014067Y005440D03*
X014067Y005080D03*
X016167Y005380D03*
X016587Y005200D03*
X016947Y005200D03*
X017667Y005200D03*
X017067Y005800D03*
X016347Y005800D03*
X016647Y006220D03*
X015387Y006700D03*
X014907Y007000D03*
X015687Y007600D03*
X014127Y007960D03*
X013887Y007720D03*
X013587Y008200D03*
X012747Y008320D03*
X012447Y008080D03*
X012447Y007420D03*
X011907Y007480D03*
X010767Y008560D03*
X010287Y009460D03*
X010767Y010180D03*
X011727Y010180D03*
X013227Y009460D03*
X014187Y009460D03*
X015207Y009460D03*
X015747Y010180D03*
X016707Y010180D03*
X017127Y009460D03*
X017727Y009460D03*
X019047Y009600D03*
X019047Y010000D03*
X019047Y010400D03*
X016167Y008500D03*
X015687Y008500D03*
X017367Y008440D03*
X017667Y008200D03*
X019047Y008300D03*
X018627Y007120D03*
X018447Y006700D03*
X019027Y006700D03*
X019647Y006400D03*
X020047Y006400D03*
X020447Y006400D03*
X020847Y006400D03*
X020447Y006000D03*
X020047Y006000D03*
X019027Y006200D03*
X020127Y005500D03*
X020667Y004420D03*
X019407Y004060D03*
X018827Y004100D03*
X012267Y003820D03*
X011907Y003820D03*
X011607Y003580D03*
X011127Y003460D03*
X010407Y004360D03*
X010167Y004600D03*
X009087Y004540D03*
X007827Y004720D03*
X010107Y006040D03*
X010347Y005800D03*
X009147Y006940D03*
X008127Y007840D03*
X006927Y008740D03*
X006387Y008560D03*
X007167Y009340D03*
X008787Y009340D03*
X004767Y009460D03*
X003207Y003280D03*
X003687Y003040D03*
X003927Y002800D03*
X004767Y003040D03*
X005187Y002920D03*
X002787Y001840D03*
X001887Y002560D03*
D23*
X001887Y005680D01*
X001587Y005980D01*
X001287Y006520D02*
X001247Y006500D01*
X001287Y006520D02*
X001767Y007000D01*
X001767Y009460D01*
X002787Y008860D02*
X002787Y008080D01*
X002547Y007840D01*
X002547Y005020D01*
X002667Y004900D01*
X002427Y004780D02*
X002667Y004540D01*
X003207Y004540D01*
X003247Y004500D01*
X003627Y004780D02*
X003687Y004720D01*
X003687Y003400D01*
X002787Y002500D01*
X002787Y001840D01*
X003267Y001540D02*
X003247Y001500D01*
X003267Y001540D02*
X004167Y002440D01*
X004167Y003220D01*
X004647Y003700D01*
X004647Y004420D01*
X005147Y004587D02*
X005187Y004540D01*
X005187Y004060D01*
X005147Y004035D01*
X005367Y003700D02*
X005487Y003820D01*
X005487Y004960D01*
X004947Y004960D01*
X004767Y005140D01*
X004767Y005680D01*
X005187Y006100D01*
X006087Y005860D02*
X006387Y006160D01*
X006387Y007120D01*
X006687Y007060D02*
X006687Y008500D01*
X006927Y008740D01*
X006387Y008560D02*
X007167Y009340D01*
X007827Y009940D02*
X007287Y010480D01*
X007247Y010500D01*
X007827Y009940D02*
X007827Y008140D01*
X008127Y007840D01*
X008007Y007300D02*
X008007Y007000D01*
X008067Y006940D01*
X008067Y003820D01*
X008307Y003580D01*
X008307Y003160D01*
X008427Y003040D01*
X009087Y002800D02*
X008247Y001960D01*
X008247Y001500D01*
X007707Y001840D02*
X007287Y002260D01*
X007287Y004180D01*
X007827Y004720D01*
X008747Y005000D02*
X008787Y005020D01*
X009207Y005440D01*
X009207Y006880D01*
X009147Y006940D01*
X009387Y007000D02*
X009387Y007060D01*
X009267Y007180D01*
X008247Y007180D01*
X008247Y006100D01*
X008307Y006040D01*
X007107Y006640D02*
X006687Y007060D01*
X006447Y007600D02*
X005367Y008680D01*
X005367Y009400D01*
X004287Y010480D01*
X004247Y010500D01*
X003807Y009940D02*
X003807Y003160D01*
X003687Y003040D01*
X003927Y002800D02*
X003927Y008620D01*
X004767Y009460D01*
X003807Y009940D02*
X003247Y010500D01*
X002247Y010500D02*
X002247Y004720D01*
X002907Y004060D01*
X002427Y004780D02*
X002427Y008080D01*
X002487Y008140D01*
X002787Y007000D02*
X002787Y005320D01*
X003147Y004960D01*
X003627Y004960D01*
X003627Y004780D01*
X004167Y005500D02*
X004167Y003220D01*
X004767Y003040D02*
X004767Y003700D01*
X005367Y003700D01*
X006147Y003365D02*
X006147Y002920D01*
X006627Y002560D02*
X006627Y003580D01*
X006867Y003280D02*
X006867Y002200D01*
X006267Y001600D01*
X006267Y001540D01*
X006247Y001500D01*
X006807Y001960D02*
X007107Y002260D01*
X007107Y006640D01*
X008127Y007180D02*
X008247Y007180D01*
X008007Y007300D02*
X008967Y007300D01*
X009147Y007480D01*
X011007Y007480D01*
X011048Y007500D01*
X011048Y007000D02*
X009387Y007000D01*
X010107Y006040D02*
X009267Y005200D01*
X009267Y004720D01*
X009087Y004540D01*
X009267Y003700D02*
X010167Y004600D01*
X010407Y004360D02*
X010407Y004960D01*
X011007Y004960D01*
X011048Y005000D01*
X011547Y005320D02*
X011547Y005980D01*
X011067Y005980D01*
X011048Y006000D01*
X011787Y005800D02*
X011787Y006460D01*
X011067Y006460D01*
X011048Y006500D01*
X010347Y005800D02*
X010347Y005500D01*
X011048Y005500D01*
X011727Y005140D02*
X012447Y005860D01*
X012447Y007420D01*
X011907Y007480D02*
X011907Y008920D01*
X011903Y008972D01*
X012403Y008972D02*
X012447Y008920D01*
X012447Y008080D01*
X012747Y008320D02*
X014187Y006880D01*
X014187Y005920D01*
X014967Y005140D01*
X016587Y005140D01*
X016587Y005200D01*
X016167Y005380D02*
X014667Y006880D01*
X014667Y007420D01*
X014127Y007960D01*
X013887Y007720D02*
X013887Y008920D01*
X013903Y008972D01*
X014187Y009160D02*
X014187Y009460D01*
X014187Y009160D02*
X014367Y008980D01*
X014403Y008972D01*
X013403Y008972D02*
X013347Y008980D01*
X013227Y009100D01*
X013227Y009460D01*
X012867Y009400D02*
X012867Y008980D01*
X012903Y008972D01*
X012867Y009400D02*
X010827Y009400D01*
X010827Y010120D01*
X010767Y010180D01*
X011247Y009940D02*
X011247Y010500D01*
X011727Y010180D02*
X011727Y010060D01*
X013467Y010060D01*
X013707Y010300D01*
X013707Y010480D01*
X014247Y010480D01*
X014247Y010500D01*
X015327Y009940D02*
X011247Y009940D01*
X010827Y009400D02*
X010407Y008980D01*
X010047Y009340D01*
X008787Y009340D01*
X009247Y010500D02*
X010287Y009460D01*
X010407Y008980D02*
X010167Y008740D01*
X010154Y008715D01*
X010767Y008560D02*
X010767Y008260D01*
X011007Y008020D01*
X011048Y008000D01*
X013587Y008200D02*
X013647Y008140D01*
X013647Y007600D01*
X014427Y006820D01*
X014427Y006040D01*
X014187Y005680D02*
X012687Y005680D01*
X012687Y004840D01*
X011967Y005020D02*
X012567Y005620D01*
X012567Y006160D01*
X012807Y006400D01*
X014187Y005680D02*
X014307Y005560D01*
X014307Y003820D01*
X016047Y003820D01*
X016227Y003640D01*
X016227Y003160D01*
X016347Y003040D01*
X016403Y003028D01*
X015927Y003040D02*
X015903Y003028D01*
X015927Y003040D02*
X015927Y003580D01*
X015567Y003520D02*
X015567Y003160D01*
X015447Y003040D01*
X015403Y003028D01*
X014907Y003040D02*
X014903Y003028D01*
X014907Y003040D02*
X014907Y003580D01*
X014067Y003160D02*
X014067Y005080D01*
X014067Y005440D02*
X013647Y005020D01*
X013647Y003280D01*
X013407Y003040D01*
X013403Y003028D01*
X012903Y003028D02*
X012867Y002980D01*
X012807Y002920D01*
X012807Y001840D01*
X013247Y001500D02*
X014187Y002440D01*
X014187Y002560D01*
X014127Y002560D01*
X014187Y002560D02*
X014187Y002800D01*
X014367Y002980D01*
X014403Y003028D01*
X014067Y003160D02*
X013947Y003040D01*
X013903Y003028D01*
X014667Y002560D02*
X014247Y002140D01*
X014247Y001500D01*
X015207Y001540D02*
X015247Y001500D01*
X015207Y001540D02*
X015207Y002500D01*
X015147Y002560D01*
X016287Y002200D02*
X016287Y001540D01*
X016247Y001500D01*
X016287Y002200D02*
X016647Y002560D01*
X017127Y002740D02*
X017547Y002320D01*
X018147Y002320D01*
X018147Y002560D01*
X018267Y002200D02*
X018627Y002560D01*
X019167Y002320D02*
X018687Y001840D01*
X018267Y001540D02*
X018247Y001500D01*
X018267Y001540D02*
X018267Y002200D01*
X017667Y002560D02*
X017667Y002800D01*
X017847Y002980D01*
X017903Y003028D01*
X018387Y003040D02*
X018387Y003220D01*
X018087Y003520D01*
X018027Y003580D01*
X018087Y003520D02*
X018447Y003880D01*
X018447Y006700D01*
X017067Y005800D02*
X017667Y005200D01*
X016647Y006220D02*
X015687Y007180D01*
X015687Y007600D01*
X017367Y008440D02*
X017367Y008920D01*
X017403Y008972D01*
X017727Y009100D02*
X017847Y008980D01*
X017903Y008972D01*
X017727Y009100D02*
X017727Y009460D01*
X018403Y008972D02*
X018387Y008920D01*
X017667Y008200D01*
X016903Y008972D02*
X016887Y008980D01*
X016707Y009160D01*
X016707Y010180D01*
X015747Y010180D02*
X015567Y010180D01*
X015327Y009940D01*
X015903Y008972D02*
X015867Y008920D01*
X015687Y008740D01*
X015687Y008500D01*
X016167Y008500D02*
X016167Y008740D01*
X016347Y008920D01*
X016403Y008972D01*
X020127Y005500D02*
X021245Y005500D01*
X021245Y004500D02*
X021207Y004480D01*
X020667Y004480D01*
X020667Y004420D01*
X021207Y004000D02*
X021245Y004000D01*
X021207Y004000D02*
X021207Y002500D01*
X020247Y001540D01*
X020247Y001500D01*
X020187Y002440D02*
X019247Y001500D01*
X019167Y002320D02*
X019167Y002800D01*
X019347Y002980D01*
X019403Y003028D01*
X019647Y002740D02*
X019647Y002560D01*
X019647Y002740D02*
X019887Y002980D01*
X019903Y003028D01*
X020187Y002800D02*
X020187Y002440D01*
X020187Y002800D02*
X020367Y002980D01*
X020403Y003028D01*
X020367Y003040D01*
X020367Y003100D01*
X019407Y004060D01*
X018687Y003520D02*
X018687Y003220D01*
X018867Y003040D01*
X018903Y003028D01*
X018403Y003028D02*
X018387Y003040D01*
X017403Y003028D02*
X017367Y003040D01*
X017187Y003220D01*
X017187Y003520D01*
X016903Y003028D02*
X016947Y002980D01*
X017127Y002800D01*
X017127Y002740D01*
X012403Y003028D02*
X012387Y003040D01*
X012267Y003160D01*
X012267Y003820D01*
X011907Y003820D02*
X011907Y003040D01*
X011903Y003028D01*
X011127Y003100D02*
X011127Y003460D01*
X010647Y003340D02*
X010647Y002980D01*
X010407Y003220D02*
X010287Y003100D01*
X010287Y001540D01*
X010247Y001500D01*
X009327Y001600D02*
X009267Y001540D01*
X009247Y001500D01*
X009327Y001600D02*
X009327Y002920D01*
X009267Y002980D01*
X009267Y003700D01*
X010587Y003400D02*
X010647Y003340D01*
X010587Y003400D02*
X010587Y004060D01*
X010647Y004120D01*
X010647Y004480D01*
X011007Y004480D01*
X011048Y004500D01*
X011048Y004000D02*
X011727Y004000D01*
X011727Y005140D01*
X011127Y003100D02*
X010587Y002560D01*
X011247Y001660D02*
X011247Y001500D01*
X011247Y001660D02*
X012147Y002560D01*
X007247Y001500D02*
X007227Y001540D01*
X006807Y001960D01*
X005607Y001900D02*
X005247Y001540D01*
X005247Y001500D01*
X005607Y001900D02*
X005607Y004960D01*
X006327Y004960D01*
X006507Y005140D01*
X006507Y005380D01*
X006807Y005680D01*
X006147Y004587D02*
X006147Y004035D01*
X003207Y003280D02*
X002247Y002320D01*
X002247Y001500D01*
X004247Y001500D02*
X004287Y001540D01*
M02*
