G75*
%MOIN*%
%OFA0B0*%
%FSLAX24Y24*%
%IPPOS*%
%LPD*%
%AMOC8*
5,1,8,0,0,1.08239X$1,22.5*
%
%ADD10R,0.0500X0.0250*%
%ADD11OC8,0.0700*%
%ADD12C,0.0740*%
%ADD13R,0.0433X0.0394*%
%ADD14R,0.0669X0.0945*%
%ADD15R,0.0394X0.0709*%
%ADD16R,0.0394X0.0433*%
%ADD17C,0.0160*%
%ADD18C,0.0100*%
%ADD19C,0.0270*%
%ADD20C,0.0060*%
D10*
X005147Y003338D03*
X005147Y003662D03*
X006147Y003662D03*
X006147Y003338D03*
D11*
X001247Y001500D03*
X002247Y001500D03*
X003247Y001500D03*
X004247Y001500D03*
X005247Y001500D03*
X006247Y001500D03*
X007247Y001500D03*
X008247Y001500D03*
X009247Y001500D03*
X010247Y001500D03*
X011247Y001500D03*
X012247Y001500D03*
X013247Y001500D03*
X014247Y001500D03*
X015247Y001500D03*
X016247Y001500D03*
X017247Y001500D03*
X018247Y001500D03*
X019247Y001500D03*
X020247Y001500D03*
X021247Y001500D03*
X009747Y003500D03*
X008747Y003500D03*
X007747Y003500D03*
X008747Y005000D03*
X009747Y005000D03*
X003247Y004500D03*
X003247Y005500D03*
X003247Y006500D03*
X003247Y007500D03*
X003247Y008500D03*
X001247Y008500D03*
X001247Y007500D03*
X001247Y006500D03*
X001247Y005500D03*
X001247Y004500D03*
X001247Y003500D03*
X001247Y010500D03*
X002247Y010500D03*
X003247Y010500D03*
X004247Y010500D03*
X005247Y010500D03*
X006247Y010500D03*
X007247Y010500D03*
X008247Y010500D03*
X009247Y010500D03*
X010247Y010500D03*
X011247Y010500D03*
X012247Y010500D03*
X013247Y010500D03*
X014247Y010500D03*
X015247Y010500D03*
X016247Y010500D03*
X017247Y010500D03*
X018247Y010500D03*
D12*
X009747Y006500D03*
X008747Y006500D03*
D13*
X017312Y004500D03*
X017981Y004500D03*
D14*
X014975Y005500D03*
X013518Y005500D03*
D15*
X013755Y004300D03*
X014739Y004300D03*
D16*
X015247Y003965D03*
X015247Y004635D03*
X015747Y005265D03*
X015747Y005935D03*
X013247Y004635D03*
X012747Y005265D03*
X012747Y005935D03*
X013247Y003965D03*
D17*
X012910Y004012D02*
X012464Y004012D01*
X012500Y003976D02*
X012422Y004053D01*
X012321Y004095D01*
X012232Y004095D01*
X012197Y004130D01*
X012097Y004230D01*
X010650Y004230D01*
X010682Y004305D01*
X010682Y004415D01*
X010675Y004430D01*
X012517Y004430D01*
X012617Y004530D01*
X012652Y004565D01*
X012741Y004565D01*
X012842Y004607D01*
X012889Y004653D01*
X013228Y004653D01*
X013228Y004616D01*
X012870Y004616D01*
X012870Y004394D01*
X012882Y004349D01*
X012906Y004308D01*
X012939Y004274D01*
X012942Y004272D01*
X012910Y004240D01*
X012910Y003864D01*
X012556Y003510D01*
X011402Y003510D01*
X011402Y003515D01*
X011360Y003616D01*
X011282Y003693D01*
X011181Y003735D01*
X011072Y003735D01*
X010971Y003693D01*
X010894Y003616D01*
X010852Y003515D01*
X010852Y003405D01*
X010858Y003390D01*
X010626Y003390D01*
X010562Y003453D01*
X010461Y003495D01*
X010352Y003495D01*
X010251Y003453D01*
X010237Y003439D01*
X010237Y003703D01*
X010170Y003770D01*
X011632Y003770D01*
X011632Y003765D01*
X011674Y003664D01*
X011751Y003587D01*
X011852Y003545D01*
X011961Y003545D01*
X012062Y003587D01*
X012087Y003611D01*
X012111Y003587D01*
X012212Y003545D01*
X012321Y003545D01*
X012422Y003587D01*
X012500Y003664D01*
X012542Y003765D01*
X012542Y003875D01*
X012500Y003976D01*
X012542Y003853D02*
X012899Y003853D01*
X012741Y003695D02*
X012512Y003695D01*
X012582Y003536D02*
X011393Y003536D01*
X011279Y003695D02*
X011661Y003695D01*
X010974Y003695D02*
X010237Y003695D01*
X010237Y003536D02*
X010860Y003536D01*
X010682Y004329D02*
X012894Y004329D01*
X012910Y004170D02*
X012157Y004170D01*
X012574Y004487D02*
X012870Y004487D01*
X012881Y004646D02*
X013228Y004646D01*
X013993Y005707D02*
X013993Y006030D01*
X013911Y006112D01*
X013126Y006112D01*
X013124Y006110D01*
X013124Y006175D01*
X013111Y006221D01*
X013088Y006262D01*
X013059Y006290D01*
X013082Y006345D01*
X013082Y006350D01*
X015136Y006350D01*
X015196Y006290D01*
X015434Y006290D01*
X015406Y006262D01*
X015382Y006221D01*
X015370Y006175D01*
X015370Y006110D01*
X015368Y006112D01*
X014694Y006112D01*
X014660Y006196D01*
X014582Y006273D01*
X014481Y006315D01*
X014372Y006315D01*
X014271Y006273D01*
X014194Y006196D01*
X014152Y006095D01*
X014152Y005985D01*
X014194Y005884D01*
X014257Y005821D01*
X014257Y005670D01*
X014226Y005670D01*
X014222Y005673D01*
X014121Y005715D01*
X014012Y005715D01*
X013993Y005707D01*
X013993Y005755D02*
X014257Y005755D01*
X014181Y005914D02*
X013993Y005914D01*
X013951Y006072D02*
X014152Y006072D01*
X014228Y006231D02*
X013106Y006231D01*
X012765Y006125D02*
X012765Y005953D01*
X012728Y005953D01*
X012728Y005916D01*
X012391Y005916D01*
X012097Y006210D01*
X010326Y006210D01*
X010262Y006273D01*
X010213Y006294D01*
X010257Y006399D01*
X010257Y006510D01*
X012555Y006510D01*
X012532Y006455D01*
X012532Y006345D01*
X012538Y006331D01*
X012526Y006331D01*
X012480Y006319D01*
X012439Y006295D01*
X012406Y006262D01*
X012382Y006221D01*
X012370Y006175D01*
X012370Y005953D01*
X012728Y005953D01*
X012728Y006135D01*
X012752Y006125D01*
X012765Y006125D01*
X012765Y006072D02*
X012728Y006072D01*
X012370Y006072D02*
X012235Y006072D01*
X012388Y006231D02*
X010305Y006231D01*
X010253Y006389D02*
X012532Y006389D01*
X014625Y006231D02*
X015388Y006231D01*
X015728Y006231D02*
X015765Y006231D01*
X015765Y006290D02*
X015765Y005953D01*
X015728Y005953D01*
X015728Y006290D01*
X015765Y006290D01*
X016059Y006290D02*
X016378Y006290D01*
X016372Y006275D01*
X016372Y006165D01*
X016414Y006064D01*
X016491Y005987D01*
X016592Y005945D01*
X016681Y005945D01*
X016792Y005835D01*
X016792Y005745D01*
X016798Y005730D01*
X016276Y005730D01*
X016201Y005655D01*
X016113Y005655D01*
X016124Y005694D01*
X016124Y005916D01*
X015765Y005916D01*
X015765Y005953D01*
X016124Y005953D01*
X016124Y006175D01*
X016111Y006221D01*
X016088Y006262D01*
X016059Y006290D01*
X016106Y006231D02*
X016372Y006231D01*
X016410Y006072D02*
X016124Y006072D01*
X016124Y005914D02*
X016713Y005914D01*
X016792Y005755D02*
X016124Y005755D01*
X015765Y006072D02*
X015728Y006072D01*
X016922Y006185D02*
X016922Y006275D01*
X016915Y006290D01*
X019096Y006290D01*
X019852Y005535D01*
X019852Y005445D01*
X019894Y005344D01*
X019971Y005267D01*
X020072Y005225D01*
X020181Y005225D01*
X020282Y005267D01*
X020360Y005344D01*
X020402Y005445D01*
X020402Y005555D01*
X020360Y005656D01*
X020282Y005733D01*
X020181Y005775D01*
X020092Y005775D01*
X019357Y006511D01*
X021517Y006511D01*
X021517Y001923D01*
X021450Y001990D01*
X021044Y001990D01*
X021020Y001967D01*
X020737Y002250D01*
X018697Y002250D01*
X018662Y002285D01*
X018681Y002285D01*
X018782Y002327D01*
X018846Y002390D01*
X019428Y002390D01*
X019491Y002327D01*
X019592Y002285D01*
X019701Y002285D01*
X019802Y002327D01*
X019880Y002404D01*
X019922Y002505D01*
X019922Y002615D01*
X019880Y002716D01*
X019802Y002793D01*
X019701Y002835D01*
X019592Y002835D01*
X019491Y002793D01*
X019428Y002730D01*
X019217Y002730D01*
X020632Y004145D01*
X020721Y004145D01*
X020822Y004187D01*
X020900Y004264D01*
X020942Y004365D01*
X020942Y004475D01*
X020900Y004576D01*
X020822Y004653D01*
X020721Y004695D01*
X020612Y004695D01*
X020511Y004653D01*
X020434Y004576D01*
X020392Y004475D01*
X020392Y004385D01*
X019817Y003810D01*
X019817Y003830D01*
X019817Y004250D01*
X019717Y004350D01*
X018337Y005730D01*
X017335Y005730D01*
X017342Y005745D01*
X017342Y005855D01*
X017300Y005956D01*
X017222Y006033D01*
X017121Y006075D01*
X017032Y006075D01*
X016922Y006185D01*
X016922Y006231D02*
X019156Y006231D01*
X019314Y006072D02*
X017129Y006072D01*
X017317Y005914D02*
X019473Y005914D01*
X019631Y005755D02*
X017342Y005755D01*
X017398Y005270D02*
X016897Y005270D01*
X016862Y005235D01*
X016862Y005145D01*
X016820Y005044D01*
X016742Y004967D01*
X016641Y004925D01*
X016532Y004925D01*
X016431Y004967D01*
X016354Y005044D01*
X016313Y005143D01*
X016221Y005105D01*
X016112Y005105D01*
X016084Y005117D01*
X016084Y004991D01*
X016002Y004909D01*
X015614Y004909D01*
X015624Y004875D01*
X015624Y004653D01*
X015265Y004653D01*
X015265Y004616D01*
X015624Y004616D01*
X015624Y004394D01*
X015612Y004350D01*
X016915Y004350D01*
X016915Y004482D01*
X017294Y004482D01*
X017294Y004518D01*
X016915Y004518D01*
X016915Y004721D01*
X016928Y004766D01*
X016951Y004807D01*
X016985Y004841D01*
X017026Y004865D01*
X017072Y004877D01*
X017294Y004877D01*
X017294Y004518D01*
X017330Y004518D01*
X017330Y004877D01*
X017497Y004877D01*
X017497Y004981D01*
X017434Y005044D01*
X017392Y005145D01*
X017392Y005255D01*
X017398Y005270D01*
X017402Y005121D02*
X016852Y005121D01*
X016732Y004963D02*
X017497Y004963D01*
X017837Y004963D02*
X018264Y004963D01*
X018256Y004837D02*
X017837Y004837D01*
X017837Y004981D01*
X017900Y005044D01*
X017942Y005145D01*
X017942Y005255D01*
X017935Y005270D01*
X017956Y005270D01*
X019132Y004095D01*
X019132Y004005D01*
X019163Y003930D01*
X018496Y003930D01*
X018272Y003706D01*
X018260Y003736D01*
X018197Y003799D01*
X018197Y004163D01*
X018256Y004163D01*
X018338Y004245D01*
X018338Y004755D01*
X018256Y004837D01*
X018289Y004804D02*
X018422Y004804D01*
X018338Y004646D02*
X018581Y004646D01*
X018739Y004487D02*
X018338Y004487D01*
X018338Y004329D02*
X018898Y004329D01*
X019056Y004170D02*
X018263Y004170D01*
X018197Y004012D02*
X019132Y004012D01*
X019739Y004329D02*
X020335Y004329D01*
X020176Y004170D02*
X019817Y004170D01*
X019817Y004012D02*
X020018Y004012D01*
X019859Y003853D02*
X019817Y003853D01*
X020023Y003536D02*
X021517Y003536D01*
X021517Y003695D02*
X020182Y003695D01*
X020340Y003853D02*
X021517Y003853D01*
X021517Y004012D02*
X020499Y004012D01*
X020782Y004170D02*
X021517Y004170D01*
X021517Y004329D02*
X020926Y004329D01*
X020937Y004487D02*
X021517Y004487D01*
X021517Y004646D02*
X020830Y004646D01*
X020503Y004646D02*
X019422Y004646D01*
X019263Y004804D02*
X021517Y004804D01*
X021517Y004963D02*
X019105Y004963D01*
X018946Y005121D02*
X021517Y005121D01*
X021517Y005280D02*
X020295Y005280D01*
X020399Y005438D02*
X021517Y005438D01*
X021517Y005597D02*
X020384Y005597D01*
X020230Y005755D02*
X021517Y005755D01*
X021517Y005914D02*
X019954Y005914D01*
X019795Y006072D02*
X021517Y006072D01*
X021517Y006231D02*
X019637Y006231D01*
X019478Y006389D02*
X021517Y006389D01*
X019790Y005597D02*
X018471Y005597D01*
X018629Y005438D02*
X019855Y005438D01*
X019958Y005280D02*
X018788Y005280D01*
X018105Y005121D02*
X017932Y005121D01*
X017330Y004804D02*
X017294Y004804D01*
X017294Y004646D02*
X017330Y004646D01*
X017294Y004487D02*
X015624Y004487D01*
X015265Y004646D02*
X016915Y004646D01*
X016950Y004804D02*
X015624Y004804D01*
X016055Y004963D02*
X016441Y004963D01*
X016322Y005121D02*
X016260Y005121D01*
X017617Y004010D02*
X017737Y004130D01*
X017770Y004163D01*
X017857Y004163D01*
X017857Y003799D01*
X017794Y003736D01*
X017752Y003635D01*
X017752Y003525D01*
X017794Y003424D01*
X017871Y003347D01*
X017901Y003334D01*
X017776Y003210D01*
X017117Y003210D01*
X017152Y003245D01*
X017241Y003245D01*
X017342Y003287D01*
X017420Y003364D01*
X017462Y003465D01*
X017462Y003575D01*
X017420Y003676D01*
X017342Y003753D01*
X017241Y003795D01*
X017132Y003795D01*
X017031Y003753D01*
X016954Y003676D01*
X016912Y003575D01*
X016912Y003485D01*
X016756Y003330D01*
X016097Y003330D01*
X016097Y003361D01*
X016160Y003424D01*
X016202Y003525D01*
X016202Y003635D01*
X016160Y003736D01*
X016082Y003813D01*
X015981Y003855D01*
X015872Y003855D01*
X015771Y003813D01*
X015714Y003757D01*
X015621Y003795D01*
X015584Y003795D01*
X015584Y004010D01*
X017617Y004010D01*
X017619Y004012D02*
X017857Y004012D01*
X017857Y003853D02*
X015986Y003853D01*
X015867Y003853D02*
X015584Y003853D01*
X016177Y003695D02*
X016972Y003695D01*
X016912Y003536D02*
X016202Y003536D01*
X016113Y003378D02*
X016804Y003378D01*
X017126Y003219D02*
X017785Y003219D01*
X017840Y003378D02*
X017425Y003378D01*
X017462Y003536D02*
X017752Y003536D01*
X017776Y003695D02*
X017401Y003695D01*
X018197Y003853D02*
X018419Y003853D01*
X019580Y004487D02*
X020397Y004487D01*
X019865Y003378D02*
X021517Y003378D01*
X021517Y003219D02*
X019706Y003219D01*
X019548Y003061D02*
X021517Y003061D01*
X021517Y002902D02*
X019389Y002902D01*
X019441Y002744D02*
X019231Y002744D01*
X019852Y002744D02*
X021517Y002744D01*
X021517Y002585D02*
X019922Y002585D01*
X019889Y002427D02*
X021517Y002427D01*
X021517Y002268D02*
X018679Y002268D01*
X020878Y002110D02*
X021517Y002110D01*
X021517Y001951D02*
X021489Y001951D01*
X019138Y006630D02*
X018715Y006630D01*
X018722Y006645D01*
X018722Y006755D01*
X018680Y006856D01*
X018602Y006933D01*
X018501Y006975D01*
X018412Y006975D01*
X018337Y007050D01*
X015637Y007050D01*
X015497Y007190D01*
X017116Y007190D01*
X017257Y007190D01*
X018137Y008070D01*
X018137Y009970D01*
X018227Y009970D01*
X018227Y010480D01*
X018267Y010480D01*
X018267Y010520D01*
X018777Y010520D01*
X018777Y010720D01*
X018726Y010770D01*
X019138Y010770D01*
X019138Y006630D01*
X019138Y006706D02*
X018722Y006706D01*
X018671Y006865D02*
X019138Y006865D01*
X019138Y007023D02*
X018364Y007023D01*
X019138Y007182D02*
X015506Y007182D01*
X017407Y007340D02*
X019138Y007340D01*
X019138Y007499D02*
X017566Y007499D01*
X017724Y007657D02*
X019138Y007657D01*
X019138Y007816D02*
X017883Y007816D01*
X018041Y007974D02*
X019138Y007974D01*
X019138Y008133D02*
X018137Y008133D01*
X018137Y008291D02*
X019138Y008291D01*
X019138Y008450D02*
X018137Y008450D01*
X018137Y008608D02*
X019138Y008608D01*
X019138Y008767D02*
X018137Y008767D01*
X018137Y008925D02*
X019138Y008925D01*
X019138Y009084D02*
X018137Y009084D01*
X018137Y009242D02*
X019138Y009242D01*
X019138Y009401D02*
X018137Y009401D01*
X018137Y009559D02*
X019138Y009559D01*
X019138Y009718D02*
X018137Y009718D01*
X018137Y009876D02*
X019138Y009876D01*
X019138Y010035D02*
X018531Y010035D01*
X018466Y009970D02*
X018777Y010280D01*
X018777Y010480D01*
X018267Y010480D01*
X018267Y009970D01*
X018466Y009970D01*
X018267Y010035D02*
X018227Y010035D01*
X018227Y010193D02*
X018267Y010193D01*
X018267Y010352D02*
X018227Y010352D01*
X018267Y010510D02*
X019138Y010510D01*
X019138Y010352D02*
X018777Y010352D01*
X018689Y010193D02*
X019138Y010193D01*
X019138Y010669D02*
X018777Y010669D01*
X009216Y007250D02*
X009181Y007215D01*
X009092Y007215D01*
X008991Y007173D01*
X008914Y007096D01*
X008874Y006999D01*
X008848Y007010D01*
X008645Y007010D01*
X008458Y006932D01*
X008314Y006789D01*
X008237Y006601D01*
X008237Y006530D01*
X007802Y006530D01*
X007802Y006575D01*
X007760Y006676D01*
X007682Y006753D01*
X007581Y006795D01*
X007472Y006795D01*
X007371Y006753D01*
X007294Y006676D01*
X007258Y006590D01*
X005626Y006590D01*
X005582Y006633D01*
X005481Y006675D01*
X005372Y006675D01*
X005271Y006633D01*
X005194Y006556D01*
X005152Y006455D01*
X005152Y006375D01*
X005132Y006375D01*
X005031Y006333D01*
X004954Y006256D01*
X004912Y006155D01*
X004912Y006045D01*
X004918Y006030D01*
X004606Y006030D01*
X004640Y006064D01*
X004682Y006165D01*
X004682Y006275D01*
X004640Y006376D01*
X004562Y006453D01*
X004461Y006495D01*
X004352Y006495D01*
X004251Y006453D01*
X004174Y006376D01*
X004132Y006275D01*
X004132Y006214D01*
X004088Y006170D01*
X003666Y006170D01*
X003777Y006280D01*
X003777Y006480D01*
X003267Y006480D01*
X003267Y006520D01*
X003777Y006520D01*
X003777Y006720D01*
X003468Y007028D01*
X003730Y007290D01*
X004138Y007290D01*
X004174Y007204D01*
X004251Y007127D01*
X004352Y007085D01*
X004461Y007085D01*
X004562Y007127D01*
X004640Y007204D01*
X004682Y007305D01*
X004682Y007415D01*
X004640Y007516D01*
X004562Y007593D01*
X004461Y007635D01*
X004400Y007635D01*
X004365Y007670D01*
X003737Y007670D01*
X003737Y007703D01*
X003553Y007886D01*
X003577Y007910D01*
X007858Y007910D01*
X007852Y007895D01*
X007852Y007785D01*
X007858Y007770D01*
X006666Y007770D01*
X006602Y007833D01*
X006501Y007875D01*
X006392Y007875D01*
X006291Y007833D01*
X006214Y007756D01*
X006172Y007655D01*
X006172Y007545D01*
X006214Y007444D01*
X006283Y007375D01*
X006231Y007353D01*
X006154Y007276D01*
X006112Y007175D01*
X006112Y007065D01*
X006154Y006964D01*
X006231Y006887D01*
X006332Y006845D01*
X006441Y006845D01*
X006542Y006887D01*
X006620Y006964D01*
X006662Y007065D01*
X006662Y007155D01*
X006757Y007250D01*
X009216Y007250D01*
X009011Y007182D02*
X006689Y007182D01*
X006644Y007023D02*
X008883Y007023D01*
X008390Y006865D02*
X006488Y006865D01*
X006285Y006865D02*
X003632Y006865D01*
X003777Y006706D02*
X007324Y006706D01*
X007730Y006706D02*
X008280Y006706D01*
X008237Y006548D02*
X007802Y006548D01*
X006218Y007340D02*
X004682Y007340D01*
X004647Y007499D02*
X006191Y007499D01*
X006173Y007657D02*
X004378Y007657D01*
X003624Y007816D02*
X006273Y007816D01*
X006620Y007816D02*
X007852Y007816D01*
X006114Y007182D02*
X004617Y007182D01*
X004196Y007182D02*
X003621Y007182D01*
X003473Y007023D02*
X006129Y007023D01*
X005190Y006548D02*
X003777Y006548D01*
X003777Y006389D02*
X004187Y006389D01*
X004132Y006231D02*
X003727Y006231D01*
X003227Y006480D02*
X002717Y006480D01*
X002717Y006280D01*
X002827Y006170D01*
X002648Y006170D01*
X001777Y005299D01*
X001777Y005480D01*
X001267Y005480D01*
X001267Y005520D01*
X001777Y005520D01*
X001777Y005720D01*
X001746Y005750D01*
X001806Y005810D01*
X001897Y005810D01*
X001997Y005910D01*
X001997Y007010D01*
X001897Y007110D01*
X001723Y007284D01*
X001737Y007297D01*
X001737Y007703D01*
X001450Y007990D01*
X001044Y007990D01*
X000977Y007923D01*
X000977Y008077D01*
X001044Y008010D01*
X001450Y008010D01*
X001493Y008053D01*
X002512Y007035D01*
X002512Y006945D01*
X002554Y006844D01*
X002631Y006767D01*
X002725Y006728D01*
X002717Y006720D01*
X002717Y006520D01*
X003227Y006520D01*
X003227Y006480D01*
X002717Y006548D02*
X001997Y006548D01*
X001997Y006389D02*
X002717Y006389D01*
X002767Y006231D02*
X001997Y006231D01*
X001997Y006072D02*
X002550Y006072D01*
X002391Y005914D02*
X001997Y005914D01*
X002233Y005755D02*
X001751Y005755D01*
X001777Y005597D02*
X002074Y005597D01*
X001916Y005438D02*
X001777Y005438D01*
X001997Y006706D02*
X002717Y006706D01*
X002545Y006865D02*
X001997Y006865D01*
X001984Y007023D02*
X002512Y007023D01*
X002365Y007182D02*
X001826Y007182D01*
X001737Y007340D02*
X002206Y007340D01*
X002048Y007499D02*
X001737Y007499D01*
X001737Y007657D02*
X001889Y007657D01*
X001731Y007816D02*
X001624Y007816D01*
X001572Y007974D02*
X001466Y007974D01*
X001028Y007974D02*
X000977Y007974D01*
X004627Y006389D02*
X005152Y006389D01*
X004943Y006231D02*
X004682Y006231D01*
X004643Y006072D02*
X004912Y006072D01*
D18*
X004407Y006220D02*
X004167Y005980D01*
X002727Y005980D01*
X001247Y004500D01*
X001287Y005500D02*
X001247Y005500D01*
X001287Y005500D02*
X001467Y005680D01*
X002187Y005680D01*
X002967Y006460D01*
X003207Y006460D01*
X003247Y006500D01*
X003267Y006520D01*
X005187Y006520D01*
X005727Y007060D01*
X005747Y007100D01*
X006027Y006820D01*
X007827Y006820D01*
X007527Y006520D02*
X007527Y006460D01*
X007467Y006400D01*
X005427Y006400D01*
X004407Y007360D02*
X004287Y007480D01*
X003267Y007480D01*
X003247Y007500D01*
X007527Y006520D02*
X007707Y006340D01*
X008547Y006340D01*
X008747Y006500D01*
X008787Y006520D01*
X009087Y006520D01*
X009567Y007000D01*
X014907Y007000D01*
X015387Y006700D02*
X009927Y006700D01*
X009747Y006520D01*
X009747Y006500D01*
X008747Y006500D02*
X008727Y006460D01*
X008487Y006220D01*
X012207Y006400D02*
X012567Y006040D01*
X012747Y006040D01*
X012747Y005935D01*
X012747Y005980D01*
X013107Y006340D01*
X015147Y006340D01*
X015507Y005980D01*
X015747Y005980D01*
X015747Y005935D01*
X015747Y005920D01*
X015867Y005800D01*
X016347Y005800D01*
X016947Y005200D02*
X016947Y004600D01*
X017247Y004600D01*
X017307Y004540D01*
X017312Y004500D01*
X016947Y004600D02*
X015267Y004600D01*
X015247Y004635D01*
X015207Y004660D01*
X015087Y004780D01*
X013407Y004780D01*
X013287Y004660D01*
X013247Y004635D01*
X013227Y004600D01*
X012927Y004600D01*
X012927Y004120D01*
X012327Y003520D01*
X011667Y003520D01*
X011607Y003580D01*
X005187Y003280D02*
X005187Y002920D01*
X005187Y003280D02*
X005147Y003338D01*
X005147Y003662D02*
X005127Y003700D01*
X005007Y003820D01*
X004407Y003820D01*
X015207Y009460D02*
X017127Y009460D01*
X018247Y010500D02*
X018267Y010480D01*
X018267Y007120D01*
X018627Y007120D01*
D19*
X018627Y007120D03*
X018447Y006700D03*
X019027Y006700D03*
X019647Y006400D03*
X020047Y006400D03*
X020447Y006400D03*
X020847Y006400D03*
X020447Y006000D03*
X020047Y006000D03*
X019027Y006200D03*
X020127Y005500D03*
X020667Y004420D03*
X019407Y004060D03*
X018827Y004100D03*
X018687Y003520D03*
X018027Y003580D03*
X017627Y003600D03*
X017187Y003520D03*
X016627Y003600D03*
X015927Y003580D03*
X015567Y003520D03*
X014907Y003580D03*
X015147Y002560D03*
X014667Y002560D03*
X014127Y002560D03*
X012807Y001840D03*
X012147Y002560D03*
X010647Y002980D03*
X010407Y003220D03*
X011127Y003460D03*
X011607Y003580D03*
X011907Y003820D03*
X012267Y003820D03*
X010407Y004360D03*
X010167Y004600D03*
X009087Y004540D03*
X007827Y004720D03*
X006807Y005680D03*
X006087Y005860D03*
X005187Y006100D03*
X005427Y006400D03*
X004407Y006220D03*
X005747Y007100D03*
X006387Y007120D03*
X006047Y007400D03*
X005747Y007700D03*
X006447Y007600D03*
X007827Y006820D03*
X007527Y006520D03*
X008307Y006040D03*
X009147Y006940D03*
X008127Y007840D03*
X006927Y008740D03*
X006387Y008560D03*
X007167Y009340D03*
X008787Y009340D03*
X010287Y009460D03*
X010767Y010180D03*
X011727Y010180D03*
X013227Y009460D03*
X014187Y009460D03*
X015207Y009460D03*
X015747Y010180D03*
X016707Y010180D03*
X017127Y009460D03*
X017727Y009460D03*
X019047Y009600D03*
X019047Y010000D03*
X019047Y010400D03*
X016167Y008500D03*
X015687Y008500D03*
X014127Y007960D03*
X013887Y007720D03*
X013587Y008200D03*
X012747Y008320D03*
X012447Y008080D03*
X012447Y007420D03*
X011907Y007480D03*
X012207Y006400D03*
X012807Y006400D03*
X011787Y005800D03*
X011547Y005320D03*
X011967Y005020D03*
X012687Y004840D03*
X014067Y005080D03*
X014067Y005440D03*
X014427Y006040D03*
X015387Y006700D03*
X014907Y007000D03*
X015687Y007600D03*
X017367Y008440D03*
X017667Y008200D03*
X019047Y008300D03*
X016647Y006220D03*
X016347Y005800D03*
X017067Y005800D03*
X016167Y005380D03*
X016587Y005200D03*
X016947Y005200D03*
X017667Y005200D03*
X017667Y002560D03*
X018147Y002560D03*
X018627Y002560D03*
X019647Y002560D03*
X018687Y001840D03*
X016647Y002560D03*
X010587Y002560D03*
X009087Y002800D03*
X008427Y003040D03*
X006867Y003280D03*
X006627Y003580D03*
X006147Y002920D03*
X006627Y002560D03*
X007707Y001840D03*
X005187Y002920D03*
X004767Y003040D03*
X003927Y002800D03*
X003687Y003040D03*
X003207Y003280D03*
X004407Y003820D03*
X004647Y004420D03*
X002907Y004060D03*
X002667Y004900D03*
X001587Y005980D03*
X002787Y007000D03*
X004407Y007360D03*
X002487Y008140D03*
X002787Y008860D03*
X001767Y009460D03*
X004767Y009460D03*
X010767Y008560D03*
X010107Y006040D03*
X010347Y005800D03*
X002787Y001840D03*
X001887Y002560D03*
D20*
X002247Y002200D01*
X013767Y002200D01*
X014127Y002560D01*
X014247Y002800D02*
X014427Y002620D01*
X014427Y002320D01*
X014907Y002320D01*
X017427Y002320D01*
X017667Y002560D01*
X017907Y002680D02*
X017907Y002080D01*
X012687Y002080D01*
X003027Y002080D01*
X002787Y001840D01*
X001767Y002800D02*
X001287Y002320D01*
X001287Y001540D01*
X001247Y001500D01*
X001767Y002800D02*
X003927Y002800D01*
X004047Y003040D02*
X003687Y003040D01*
X004047Y003040D02*
X004407Y002680D01*
X006267Y002680D01*
X006387Y002800D01*
X008307Y002800D01*
X008547Y002560D01*
X010587Y002560D01*
X010467Y002800D02*
X009087Y002800D01*
X009327Y003040D02*
X009747Y003460D01*
X009747Y003500D01*
X010407Y003220D02*
X015087Y003220D01*
X015147Y003280D01*
X015927Y003280D01*
X015927Y003580D01*
X015567Y003520D02*
X015447Y003400D01*
X015087Y003400D01*
X015027Y003340D01*
X014727Y003340D01*
X013767Y004300D01*
X013755Y004300D01*
X013587Y004300D01*
X013287Y004000D01*
X013247Y003965D01*
X013227Y003940D01*
X012627Y003340D01*
X011247Y003340D01*
X011127Y003460D01*
X010647Y002980D02*
X010467Y002800D01*
X009327Y003040D02*
X008427Y003040D01*
X008747Y003500D02*
X008787Y003520D01*
X009207Y003940D01*
X011787Y003940D01*
X011907Y003820D01*
X012027Y004060D02*
X012267Y003820D01*
X012027Y004060D02*
X008307Y004060D01*
X007747Y003500D01*
X007767Y004180D02*
X006867Y003280D01*
X006627Y003580D02*
X006207Y003580D01*
X006147Y003640D01*
X006147Y003662D01*
X006147Y003600D02*
X006147Y003400D01*
X006147Y003338D02*
X006147Y002920D01*
X006627Y002560D02*
X006627Y002320D01*
X006507Y002320D01*
X006627Y002320D02*
X013527Y002320D01*
X014007Y002800D01*
X014247Y002800D01*
X014667Y002560D02*
X014787Y002560D01*
X015267Y003040D01*
X017847Y003040D01*
X018567Y003760D01*
X019647Y003760D01*
X019647Y004180D01*
X018267Y005560D01*
X016347Y005560D01*
X016167Y005380D01*
X015747Y005320D02*
X015747Y005265D01*
X015747Y005320D02*
X015567Y005500D01*
X014975Y005500D01*
X014427Y005500D01*
X014427Y006040D01*
X015207Y006520D02*
X012927Y006520D01*
X012807Y006400D01*
X012027Y006040D02*
X012747Y005320D01*
X012747Y005265D01*
X012747Y005320D02*
X012927Y005500D01*
X013518Y005500D01*
X013647Y005500D01*
X014067Y005080D01*
X014067Y005440D02*
X014127Y005500D01*
X014427Y005500D01*
X012687Y004840D02*
X012447Y004600D01*
X010167Y004600D01*
X010407Y004360D02*
X010227Y004180D01*
X007767Y004180D01*
X008307Y004300D02*
X004887Y004300D01*
X004647Y004060D01*
X002907Y004060D01*
X003207Y003280D02*
X004527Y003280D01*
X004767Y003040D01*
X005147Y003400D02*
X005147Y003600D01*
X004647Y004420D02*
X005907Y004420D01*
X007047Y005560D01*
X011547Y005560D01*
X011787Y005800D01*
X012027Y006040D02*
X010107Y006040D01*
X010347Y005800D02*
X010227Y005680D01*
X006807Y005680D01*
X006087Y005860D02*
X004287Y005860D01*
X003927Y005500D01*
X003247Y005500D01*
X002667Y004900D02*
X001287Y003520D01*
X001247Y003500D01*
X004247Y001500D02*
X004707Y001960D01*
X007587Y001960D01*
X007707Y001840D01*
X008307Y004300D02*
X008547Y004540D01*
X009087Y004540D01*
X009747Y005000D02*
X009747Y005020D01*
X011967Y005020D01*
X011547Y005320D02*
X011427Y005440D01*
X008547Y005440D01*
X007827Y004720D01*
X008307Y006040D02*
X008247Y006100D01*
X005187Y006100D01*
X006387Y007120D02*
X006687Y007420D01*
X011847Y007420D01*
X011907Y007480D01*
X012447Y007420D02*
X012507Y007360D01*
X017187Y007360D01*
X017967Y008140D01*
X017967Y009940D01*
X015627Y009940D01*
X015267Y010300D01*
X015267Y010480D01*
X015247Y010500D01*
X015747Y010180D02*
X015867Y010060D01*
X016587Y010060D01*
X016707Y010180D01*
X017367Y009820D02*
X014547Y009820D01*
X014307Y010060D01*
X013707Y010060D01*
X013287Y010480D01*
X013247Y010500D01*
X013347Y010060D02*
X012687Y010060D01*
X012247Y010500D01*
X011727Y010180D02*
X011607Y010060D01*
X010887Y010060D01*
X010767Y010180D01*
X010647Y009940D02*
X010287Y010300D01*
X010287Y010480D01*
X010247Y010500D01*
X010647Y009940D02*
X013107Y009940D01*
X013227Y009820D01*
X014187Y009820D01*
X014907Y009100D01*
X015567Y009100D01*
X016167Y008500D01*
X015687Y008500D02*
X015207Y008980D01*
X011487Y008980D01*
X011007Y009460D01*
X010287Y009460D01*
X011007Y009100D02*
X011427Y008680D01*
X013107Y008680D01*
X013587Y008200D01*
X013467Y007960D02*
X014127Y007960D01*
X013947Y008200D02*
X013287Y008860D01*
X011427Y008860D01*
X011067Y009220D01*
X009267Y009220D01*
X008907Y009580D01*
X004887Y009580D01*
X004767Y009460D01*
X004527Y009220D02*
X006867Y009220D01*
X006987Y009100D01*
X011007Y009100D01*
X010947Y008980D02*
X011367Y008560D01*
X012867Y008560D01*
X013467Y007960D01*
X013767Y007840D02*
X008127Y007840D01*
X008247Y007600D02*
X008367Y007720D01*
X012687Y007720D01*
X012927Y007480D01*
X015567Y007480D01*
X015687Y007600D01*
X015207Y007240D02*
X012807Y007240D01*
X012747Y007180D01*
X009387Y007180D01*
X009147Y006940D01*
X008247Y007600D02*
X006447Y007600D01*
X006987Y008320D02*
X012747Y008320D01*
X012447Y008080D02*
X003507Y008080D01*
X003447Y008020D01*
X002607Y008020D01*
X002487Y008140D01*
X003247Y008500D02*
X003267Y008500D01*
X003327Y008560D01*
X006387Y008560D01*
X006327Y008980D02*
X006987Y008320D01*
X006927Y008740D02*
X010587Y008740D01*
X010767Y008560D01*
X010947Y008980D02*
X006927Y008980D01*
X006807Y009100D01*
X002127Y009100D01*
X001767Y009460D01*
X002787Y008860D02*
X002907Y008980D01*
X006327Y008980D01*
X007167Y009340D02*
X008787Y009340D01*
X008967Y009700D02*
X008607Y010060D01*
X006687Y010060D01*
X006247Y010500D01*
X005247Y010480D02*
X005247Y010500D01*
X005247Y010480D02*
X004527Y009760D01*
X004527Y009220D01*
X002787Y007000D02*
X001287Y008500D01*
X001247Y008500D01*
X001247Y007500D02*
X001287Y007480D01*
X001827Y006940D01*
X001827Y005980D01*
X001587Y005980D01*
X008367Y010480D02*
X009027Y009820D01*
X013047Y009820D01*
X013167Y009700D01*
X013947Y009700D01*
X014187Y009460D01*
X014247Y009940D02*
X014967Y009220D01*
X017367Y009220D01*
X017367Y008440D01*
X017667Y008200D02*
X013947Y008200D01*
X013767Y007840D02*
X013887Y007720D01*
X015207Y007240D02*
X015567Y006880D01*
X018267Y006880D01*
X018447Y006700D01*
X019167Y006460D02*
X015267Y006460D01*
X015207Y006520D01*
X016647Y006220D02*
X017067Y005800D01*
X016827Y005440D02*
X018027Y005440D01*
X019407Y004060D01*
X018687Y003520D02*
X018087Y002920D01*
X017007Y002920D01*
X016647Y002560D01*
X016827Y003160D02*
X015207Y003160D01*
X014967Y002920D01*
X012507Y002920D01*
X012147Y002560D01*
X012687Y002080D02*
X012267Y001660D01*
X012267Y001540D01*
X012247Y001500D01*
X012807Y001840D02*
X012927Y001960D01*
X013827Y001960D01*
X014247Y001540D01*
X014247Y001500D01*
X014907Y002320D02*
X015147Y002560D01*
X016827Y003160D02*
X017187Y003520D01*
X018027Y003580D02*
X018027Y004480D01*
X017981Y004500D01*
X017667Y004300D02*
X017667Y005200D01*
X016827Y005440D02*
X016587Y005200D01*
X017547Y004180D02*
X017667Y004300D01*
X017547Y004180D02*
X015447Y004180D01*
X015267Y004000D01*
X015247Y003965D01*
X015267Y003940D01*
X014907Y003580D01*
X015247Y003965D02*
X015207Y004000D01*
X014907Y004300D01*
X014739Y004300D01*
X017907Y002680D02*
X018027Y002800D01*
X019047Y002800D01*
X020667Y004420D01*
X020127Y005500D02*
X019167Y006460D01*
X017727Y009460D02*
X017367Y009820D01*
X014247Y009940D02*
X013467Y009940D01*
X013347Y010060D01*
X012987Y009700D02*
X008967Y009700D01*
X008367Y010480D02*
X008247Y010480D01*
X008247Y010500D01*
X012987Y009700D02*
X013227Y009460D01*
X018147Y002560D02*
X018627Y002080D01*
X020667Y002080D01*
X021247Y001500D01*
X019647Y002560D02*
X018627Y002560D01*
X018567Y001960D02*
X017667Y001960D01*
X017247Y001540D01*
X017247Y001500D01*
X018567Y001960D02*
X018687Y001840D01*
M02*
