G75*
%MOIN*%
%OFA0B0*%
%FSLAX24Y24*%
%IPPOS*%
%LPD*%
%AMOC8*
5,1,8,0,0,1.08239X$1,22.5*
%
%ADD10R,0.0580X0.0330*%
%ADD11OC8,0.0780*%
%ADD12C,0.0820*%
%ADD13R,0.0513X0.0474*%
%ADD14R,0.0749X0.1025*%
%ADD15R,0.0474X0.0789*%
%ADD16R,0.0474X0.0513*%
D10*
X005147Y003338D03*
X005147Y003662D03*
X006147Y003662D03*
X006147Y003338D03*
D11*
X001247Y001500D03*
X002247Y001500D03*
X003247Y001500D03*
X004247Y001500D03*
X005247Y001500D03*
X006247Y001500D03*
X007247Y001500D03*
X008247Y001500D03*
X009247Y001500D03*
X010247Y001500D03*
X011247Y001500D03*
X012247Y001500D03*
X013247Y001500D03*
X014247Y001500D03*
X015247Y001500D03*
X016247Y001500D03*
X017247Y001500D03*
X018247Y001500D03*
X019247Y001500D03*
X020247Y001500D03*
X021247Y001500D03*
X009747Y003500D03*
X008747Y003500D03*
X007747Y003500D03*
X008747Y005000D03*
X009747Y005000D03*
X003247Y004500D03*
X003247Y005500D03*
X003247Y006500D03*
X003247Y007500D03*
X003247Y008500D03*
X001247Y008500D03*
X001247Y007500D03*
X001247Y006500D03*
X001247Y005500D03*
X001247Y004500D03*
X001247Y003500D03*
X001247Y010500D03*
X002247Y010500D03*
X003247Y010500D03*
X004247Y010500D03*
X005247Y010500D03*
X006247Y010500D03*
X007247Y010500D03*
X008247Y010500D03*
X009247Y010500D03*
X010247Y010500D03*
X011247Y010500D03*
X012247Y010500D03*
X013247Y010500D03*
X014247Y010500D03*
X015247Y010500D03*
X016247Y010500D03*
X017247Y010500D03*
X018247Y010500D03*
D12*
X009747Y006500D03*
X008747Y006500D03*
D13*
X017312Y004500D03*
X017981Y004500D03*
D14*
X014975Y005500D03*
X013518Y005500D03*
D15*
X013755Y004300D03*
X014739Y004300D03*
D16*
X015247Y003965D03*
X015247Y004635D03*
X015747Y005265D03*
X015747Y005935D03*
X013247Y004635D03*
X012747Y005265D03*
X012747Y005935D03*
X013247Y003965D03*
M02*
