G75*
%MOIN*%
%OFA0B0*%
%FSLAX25Y25*%
%IPPOS*%
%LPD*%
%AMOC8*
5,1,8,0,0,1.08239X$1,22.5*
%
%ADD10OC8,0.07000*%
%ADD11R,0.04724X0.04724*%
%ADD12R,0.04331X0.03937*%
%ADD13R,0.03937X0.04331*%
%ADD14R,0.03937X0.03543*%
%ADD15R,0.03150X0.06693*%
%ADD16C,0.02205*%
%ADD17C,0.00600*%
%ADD18C,0.02700*%
%ADD19C,0.01600*%
%ADD20C,0.01000*%
D10*
X0006800Y0006800D03*
X0016800Y0006800D03*
X0026800Y0006800D03*
X0036800Y0006800D03*
X0046800Y0006800D03*
X0056800Y0006800D03*
X0066800Y0006800D03*
X0076800Y0006800D03*
X0086800Y0006800D03*
X0096800Y0006800D03*
X0106800Y0006800D03*
X0116800Y0006800D03*
X0006800Y0021800D03*
X0006800Y0031800D03*
X0006800Y0041800D03*
X0006800Y0051800D03*
X0006800Y0061800D03*
X0006800Y0071800D03*
X0006800Y0086800D03*
X0016800Y0086800D03*
X0026800Y0086800D03*
X0036800Y0086800D03*
X0046800Y0086800D03*
X0056800Y0086800D03*
X0066800Y0086800D03*
X0076800Y0086800D03*
X0086800Y0086800D03*
X0096800Y0086800D03*
X0106800Y0086800D03*
X0116800Y0086800D03*
X0126800Y0086800D03*
D11*
X0040934Y0029800D03*
X0032666Y0029800D03*
X0032666Y0021800D03*
X0040934Y0021800D03*
D12*
X0027146Y0021800D03*
X0020454Y0021800D03*
X0020454Y0029800D03*
X0027146Y0029800D03*
X0027146Y0041800D03*
X0020454Y0041800D03*
D13*
X0040800Y0041454D03*
X0040800Y0048146D03*
X0040800Y0066454D03*
X0040800Y0073146D03*
D14*
X0027950Y0071871D03*
X0021650Y0071871D03*
X0021650Y0055729D03*
X0027950Y0055729D03*
D15*
X0020076Y0063800D03*
D16*
X0052525Y0064241D02*
X0052525Y0064793D01*
X0052525Y0064241D02*
X0047249Y0064241D01*
X0047249Y0064793D01*
X0052525Y0064793D01*
X0052525Y0058887D02*
X0052525Y0058335D01*
X0047249Y0058335D01*
X0047249Y0058887D01*
X0052525Y0058887D01*
X0052525Y0052982D02*
X0052525Y0052430D01*
X0047249Y0052430D01*
X0047249Y0052982D01*
X0052525Y0052982D01*
X0052525Y0047076D02*
X0052525Y0046524D01*
X0047249Y0046524D01*
X0047249Y0047076D01*
X0052525Y0047076D01*
X0052525Y0041170D02*
X0052525Y0040618D01*
X0047249Y0040618D01*
X0047249Y0041170D01*
X0052525Y0041170D01*
X0052525Y0035265D02*
X0052525Y0034713D01*
X0047249Y0034713D01*
X0047249Y0035265D01*
X0052525Y0035265D01*
X0052525Y0029359D02*
X0052525Y0028807D01*
X0047249Y0028807D01*
X0047249Y0029359D01*
X0052525Y0029359D01*
X0056304Y0017784D02*
X0056856Y0017784D01*
X0056304Y0017784D02*
X0056304Y0023060D01*
X0056856Y0023060D01*
X0056856Y0017784D01*
X0056856Y0019988D02*
X0056304Y0019988D01*
X0056304Y0022192D02*
X0056856Y0022192D01*
X0062209Y0017784D02*
X0062761Y0017784D01*
X0062209Y0017784D02*
X0062209Y0023060D01*
X0062761Y0023060D01*
X0062761Y0017784D01*
X0062761Y0019988D02*
X0062209Y0019988D01*
X0062209Y0022192D02*
X0062761Y0022192D01*
X0068115Y0017784D02*
X0068667Y0017784D01*
X0068115Y0017784D02*
X0068115Y0023060D01*
X0068667Y0023060D01*
X0068667Y0017784D01*
X0068667Y0019988D02*
X0068115Y0019988D01*
X0068115Y0022192D02*
X0068667Y0022192D01*
X0074020Y0017784D02*
X0074572Y0017784D01*
X0074020Y0017784D02*
X0074020Y0023060D01*
X0074572Y0023060D01*
X0074572Y0017784D01*
X0074572Y0019988D02*
X0074020Y0019988D01*
X0074020Y0022192D02*
X0074572Y0022192D01*
X0079926Y0017784D02*
X0080478Y0017784D01*
X0079926Y0017784D02*
X0079926Y0023060D01*
X0080478Y0023060D01*
X0080478Y0017784D01*
X0080478Y0019988D02*
X0079926Y0019988D01*
X0079926Y0022192D02*
X0080478Y0022192D01*
X0085831Y0017784D02*
X0086383Y0017784D01*
X0085831Y0017784D02*
X0085831Y0023060D01*
X0086383Y0023060D01*
X0086383Y0017784D01*
X0086383Y0019988D02*
X0085831Y0019988D01*
X0085831Y0022192D02*
X0086383Y0022192D01*
X0091737Y0017784D02*
X0092289Y0017784D01*
X0091737Y0017784D02*
X0091737Y0023060D01*
X0092289Y0023060D01*
X0092289Y0017784D01*
X0092289Y0019988D02*
X0091737Y0019988D01*
X0091737Y0022192D02*
X0092289Y0022192D01*
X0097642Y0017784D02*
X0098194Y0017784D01*
X0097642Y0017784D02*
X0097642Y0023060D01*
X0098194Y0023060D01*
X0098194Y0017784D01*
X0098194Y0019988D02*
X0097642Y0019988D01*
X0097642Y0022192D02*
X0098194Y0022192D01*
X0103548Y0017784D02*
X0104100Y0017784D01*
X0103548Y0017784D02*
X0103548Y0023060D01*
X0104100Y0023060D01*
X0104100Y0017784D01*
X0104100Y0019988D02*
X0103548Y0019988D01*
X0103548Y0022192D02*
X0104100Y0022192D01*
X0109453Y0017784D02*
X0110005Y0017784D01*
X0109453Y0017784D02*
X0109453Y0023060D01*
X0110005Y0023060D01*
X0110005Y0017784D01*
X0110005Y0019988D02*
X0109453Y0019988D01*
X0109453Y0022192D02*
X0110005Y0022192D01*
X0115359Y0017784D02*
X0115911Y0017784D01*
X0115359Y0017784D02*
X0115359Y0023060D01*
X0115911Y0023060D01*
X0115911Y0017784D01*
X0115911Y0019988D02*
X0115359Y0019988D01*
X0115359Y0022192D02*
X0115911Y0022192D01*
X0121264Y0017784D02*
X0121816Y0017784D01*
X0121264Y0017784D02*
X0121264Y0023060D01*
X0121816Y0023060D01*
X0121816Y0017784D01*
X0121816Y0019988D02*
X0121264Y0019988D01*
X0121264Y0022192D02*
X0121816Y0022192D01*
X0127170Y0017784D02*
X0127722Y0017784D01*
X0127170Y0017784D02*
X0127170Y0023060D01*
X0127722Y0023060D01*
X0127722Y0017784D01*
X0127722Y0019988D02*
X0127170Y0019988D01*
X0127170Y0022192D02*
X0127722Y0022192D01*
X0133075Y0017784D02*
X0133627Y0017784D01*
X0133075Y0017784D02*
X0133075Y0023060D01*
X0133627Y0023060D01*
X0133627Y0017784D01*
X0133627Y0019988D02*
X0133075Y0019988D01*
X0133075Y0022192D02*
X0133627Y0022192D01*
X0138981Y0017784D02*
X0139533Y0017784D01*
X0138981Y0017784D02*
X0138981Y0023060D01*
X0139533Y0023060D01*
X0139533Y0017784D01*
X0139533Y0019988D02*
X0138981Y0019988D01*
X0138981Y0022192D02*
X0139533Y0022192D01*
X0144886Y0017784D02*
X0145438Y0017784D01*
X0144886Y0017784D02*
X0144886Y0023060D01*
X0145438Y0023060D01*
X0145438Y0017784D01*
X0145438Y0019988D02*
X0144886Y0019988D01*
X0144886Y0022192D02*
X0145438Y0022192D01*
X0150792Y0017784D02*
X0151344Y0017784D01*
X0150792Y0017784D02*
X0150792Y0023060D01*
X0151344Y0023060D01*
X0151344Y0017784D01*
X0151344Y0019988D02*
X0150792Y0019988D01*
X0150792Y0022192D02*
X0151344Y0022192D01*
X0156697Y0017784D02*
X0157249Y0017784D01*
X0156697Y0017784D02*
X0156697Y0023060D01*
X0157249Y0023060D01*
X0157249Y0017784D01*
X0157249Y0019988D02*
X0156697Y0019988D01*
X0156697Y0022192D02*
X0157249Y0022192D01*
X0162603Y0017784D02*
X0163155Y0017784D01*
X0162603Y0017784D02*
X0162603Y0023060D01*
X0163155Y0023060D01*
X0163155Y0017784D01*
X0163155Y0019988D02*
X0162603Y0019988D01*
X0162603Y0022192D02*
X0163155Y0022192D01*
X0188155Y0028807D02*
X0188155Y0029359D01*
X0188155Y0028807D02*
X0182879Y0028807D01*
X0182879Y0029359D01*
X0188155Y0029359D01*
X0188155Y0034713D02*
X0188155Y0035265D01*
X0188155Y0034713D02*
X0182879Y0034713D01*
X0182879Y0035265D01*
X0188155Y0035265D01*
X0188155Y0040618D02*
X0188155Y0041170D01*
X0188155Y0040618D02*
X0182879Y0040618D01*
X0182879Y0041170D01*
X0188155Y0041170D01*
X0188155Y0046524D02*
X0188155Y0047076D01*
X0188155Y0046524D02*
X0182879Y0046524D01*
X0182879Y0047076D01*
X0188155Y0047076D01*
X0188155Y0052430D02*
X0188155Y0052982D01*
X0188155Y0052430D02*
X0182879Y0052430D01*
X0182879Y0052982D01*
X0188155Y0052982D01*
X0188155Y0058335D02*
X0188155Y0058887D01*
X0188155Y0058335D02*
X0182879Y0058335D01*
X0182879Y0058887D01*
X0188155Y0058887D01*
X0188155Y0064241D02*
X0188155Y0064793D01*
X0188155Y0064241D02*
X0182879Y0064241D01*
X0182879Y0064793D01*
X0188155Y0064793D01*
X0180871Y0070540D02*
X0180319Y0070540D01*
X0180319Y0075816D01*
X0180871Y0075816D01*
X0180871Y0070540D01*
X0180871Y0072744D02*
X0180319Y0072744D01*
X0180319Y0074948D02*
X0180871Y0074948D01*
X0174966Y0070540D02*
X0174414Y0070540D01*
X0174414Y0075816D01*
X0174966Y0075816D01*
X0174966Y0070540D01*
X0174966Y0072744D02*
X0174414Y0072744D01*
X0174414Y0074948D02*
X0174966Y0074948D01*
X0169060Y0070540D02*
X0168508Y0070540D01*
X0168508Y0075816D01*
X0169060Y0075816D01*
X0169060Y0070540D01*
X0169060Y0072744D02*
X0168508Y0072744D01*
X0168508Y0074948D02*
X0169060Y0074948D01*
X0163155Y0070540D02*
X0162603Y0070540D01*
X0162603Y0075816D01*
X0163155Y0075816D01*
X0163155Y0070540D01*
X0163155Y0072744D02*
X0162603Y0072744D01*
X0162603Y0074948D02*
X0163155Y0074948D01*
X0157249Y0070540D02*
X0156697Y0070540D01*
X0156697Y0075816D01*
X0157249Y0075816D01*
X0157249Y0070540D01*
X0157249Y0072744D02*
X0156697Y0072744D01*
X0156697Y0074948D02*
X0157249Y0074948D01*
X0151344Y0070540D02*
X0150792Y0070540D01*
X0150792Y0075816D01*
X0151344Y0075816D01*
X0151344Y0070540D01*
X0151344Y0072744D02*
X0150792Y0072744D01*
X0150792Y0074948D02*
X0151344Y0074948D01*
X0145438Y0070540D02*
X0144886Y0070540D01*
X0144886Y0075816D01*
X0145438Y0075816D01*
X0145438Y0070540D01*
X0145438Y0072744D02*
X0144886Y0072744D01*
X0144886Y0074948D02*
X0145438Y0074948D01*
X0139533Y0070540D02*
X0138981Y0070540D01*
X0138981Y0075816D01*
X0139533Y0075816D01*
X0139533Y0070540D01*
X0139533Y0072744D02*
X0138981Y0072744D01*
X0138981Y0074948D02*
X0139533Y0074948D01*
X0133627Y0070540D02*
X0133075Y0070540D01*
X0133075Y0075816D01*
X0133627Y0075816D01*
X0133627Y0070540D01*
X0133627Y0072744D02*
X0133075Y0072744D01*
X0133075Y0074948D02*
X0133627Y0074948D01*
X0127722Y0070540D02*
X0127170Y0070540D01*
X0127170Y0075816D01*
X0127722Y0075816D01*
X0127722Y0070540D01*
X0127722Y0072744D02*
X0127170Y0072744D01*
X0127170Y0074948D02*
X0127722Y0074948D01*
X0121816Y0070540D02*
X0121264Y0070540D01*
X0121264Y0075816D01*
X0121816Y0075816D01*
X0121816Y0070540D01*
X0121816Y0072744D02*
X0121264Y0072744D01*
X0121264Y0074948D02*
X0121816Y0074948D01*
X0115911Y0070540D02*
X0115359Y0070540D01*
X0115359Y0075816D01*
X0115911Y0075816D01*
X0115911Y0070540D01*
X0115911Y0072744D02*
X0115359Y0072744D01*
X0115359Y0074948D02*
X0115911Y0074948D01*
X0110005Y0070540D02*
X0109453Y0070540D01*
X0109453Y0075816D01*
X0110005Y0075816D01*
X0110005Y0070540D01*
X0110005Y0072744D02*
X0109453Y0072744D01*
X0109453Y0074948D02*
X0110005Y0074948D01*
X0104100Y0070540D02*
X0103548Y0070540D01*
X0103548Y0075816D01*
X0104100Y0075816D01*
X0104100Y0070540D01*
X0104100Y0072744D02*
X0103548Y0072744D01*
X0103548Y0074948D02*
X0104100Y0074948D01*
X0098194Y0070540D02*
X0097642Y0070540D01*
X0097642Y0075816D01*
X0098194Y0075816D01*
X0098194Y0070540D01*
X0098194Y0072744D02*
X0097642Y0072744D01*
X0097642Y0074948D02*
X0098194Y0074948D01*
X0092289Y0070540D02*
X0091737Y0070540D01*
X0091737Y0075816D01*
X0092289Y0075816D01*
X0092289Y0070540D01*
X0092289Y0072744D02*
X0091737Y0072744D01*
X0091737Y0074948D02*
X0092289Y0074948D01*
X0086383Y0070540D02*
X0085831Y0070540D01*
X0085831Y0075816D01*
X0086383Y0075816D01*
X0086383Y0070540D01*
X0086383Y0072744D02*
X0085831Y0072744D01*
X0085831Y0074948D02*
X0086383Y0074948D01*
X0080478Y0070540D02*
X0079926Y0070540D01*
X0079926Y0075816D01*
X0080478Y0075816D01*
X0080478Y0070540D01*
X0080478Y0072744D02*
X0079926Y0072744D01*
X0079926Y0074948D02*
X0080478Y0074948D01*
X0074572Y0070540D02*
X0074020Y0070540D01*
X0074020Y0075816D01*
X0074572Y0075816D01*
X0074572Y0070540D01*
X0074572Y0072744D02*
X0074020Y0072744D01*
X0074020Y0074948D02*
X0074572Y0074948D01*
X0068667Y0070540D02*
X0068115Y0070540D01*
X0068115Y0075816D01*
X0068667Y0075816D01*
X0068667Y0070540D01*
X0068667Y0072744D02*
X0068115Y0072744D01*
X0068115Y0074948D02*
X0068667Y0074948D01*
X0062761Y0070540D02*
X0062209Y0070540D01*
X0062209Y0075816D01*
X0062761Y0075816D01*
X0062761Y0070540D01*
X0062761Y0072744D02*
X0062209Y0072744D01*
X0062209Y0074948D02*
X0062761Y0074948D01*
X0056856Y0070540D02*
X0056304Y0070540D01*
X0056304Y0075816D01*
X0056856Y0075816D01*
X0056856Y0070540D01*
X0056856Y0072744D02*
X0056304Y0072744D01*
X0056304Y0074948D02*
X0056856Y0074948D01*
D17*
X0058800Y0076800D02*
X0059400Y0076200D01*
X0059400Y0052800D01*
X0061800Y0051600D02*
X0055200Y0045000D01*
X0045600Y0043800D02*
X0045000Y0043200D01*
X0045000Y0039600D01*
X0046800Y0037800D01*
X0054000Y0037800D01*
X0054000Y0037200D01*
X0054600Y0036600D01*
X0054600Y0033600D01*
X0053400Y0032400D01*
X0044400Y0032400D01*
X0043200Y0033600D01*
X0037200Y0033600D01*
X0037200Y0016800D01*
X0046800Y0007200D01*
X0046800Y0006800D01*
X0036800Y0006800D02*
X0036600Y0007200D01*
X0036000Y0007800D01*
X0036000Y0040200D01*
X0036000Y0056400D01*
X0032400Y0056400D01*
X0031800Y0055800D01*
X0028200Y0055800D01*
X0027950Y0055729D01*
X0024600Y0057600D02*
X0024600Y0053400D01*
X0024000Y0052800D01*
X0024000Y0039600D01*
X0016800Y0032400D01*
X0016800Y0027600D01*
X0018600Y0025800D01*
X0020454Y0021800D02*
X0020400Y0021600D01*
X0018600Y0019800D01*
X0018600Y0017400D01*
X0027146Y0021800D02*
X0027600Y0021600D01*
X0032400Y0021600D01*
X0032666Y0021800D01*
X0032666Y0029800D02*
X0032400Y0030000D01*
X0027600Y0030000D01*
X0027146Y0029800D01*
X0044400Y0035400D02*
X0044400Y0036600D01*
X0044400Y0035400D02*
X0049887Y0035400D01*
X0049887Y0034989D01*
X0059400Y0028800D02*
X0063000Y0032400D01*
X0063000Y0067800D01*
X0067800Y0072600D01*
X0067800Y0073178D01*
X0068391Y0073178D01*
X0072000Y0070800D02*
X0072000Y0012000D01*
X0076800Y0007200D01*
X0076800Y0006800D01*
X0066800Y0006800D02*
X0066600Y0007200D01*
X0066000Y0007800D01*
X0066000Y0054600D01*
X0065400Y0055200D01*
X0061800Y0051600D02*
X0061800Y0072000D01*
X0062400Y0072600D01*
X0062485Y0072600D01*
X0062485Y0073178D01*
X0058800Y0076800D02*
X0058800Y0084600D01*
X0057000Y0086400D01*
X0056800Y0086800D01*
X0061200Y0083400D02*
X0061200Y0082200D01*
X0077400Y0082200D01*
X0082800Y0076800D01*
X0082800Y0076200D01*
X0085500Y0073500D01*
X0085500Y0073178D01*
X0086107Y0073178D01*
X0085800Y0073200D02*
X0085500Y0073500D01*
X0080202Y0073178D02*
X0080202Y0072600D01*
X0079800Y0072600D01*
X0074400Y0067200D01*
X0074400Y0066600D01*
X0072000Y0070800D02*
X0073800Y0072600D01*
X0073800Y0073178D01*
X0074296Y0073178D01*
X0091200Y0072000D02*
X0091200Y0067200D01*
X0091200Y0072000D02*
X0091800Y0072600D01*
X0091800Y0073178D01*
X0092013Y0073178D01*
X0103800Y0073178D02*
X0103824Y0073178D01*
X0103800Y0073178D02*
X0103800Y0064800D01*
X0105600Y0066600D02*
X0106200Y0066000D01*
X0106200Y0046800D01*
X0093000Y0033600D01*
X0090600Y0031200D02*
X0113400Y0031200D01*
X0113400Y0064800D01*
X0118200Y0069600D01*
X0118200Y0085200D01*
X0117000Y0086400D01*
X0116800Y0086800D01*
X0121200Y0083400D02*
X0121200Y0073200D01*
X0121540Y0073200D01*
X0121540Y0073178D01*
X0115635Y0073200D02*
X0115635Y0073178D01*
X0115635Y0073200D02*
X0115200Y0073200D01*
X0112200Y0076200D01*
X0112200Y0083400D01*
X0106800Y0086800D02*
X0106800Y0070200D01*
X0105600Y0069000D01*
X0105600Y0066600D01*
X0108000Y0067800D02*
X0108000Y0071400D01*
X0109200Y0072600D01*
X0109200Y0073178D01*
X0109729Y0073178D01*
X0101400Y0082200D02*
X0101400Y0045600D01*
X0088800Y0052200D02*
X0088800Y0084600D01*
X0087000Y0086400D01*
X0086800Y0086800D01*
X0096800Y0086800D02*
X0101400Y0082200D01*
X0126800Y0086800D02*
X0130200Y0083400D01*
X0130200Y0069600D01*
X0129000Y0068400D01*
X0129000Y0022200D01*
X0127800Y0021000D01*
X0127446Y0021000D01*
X0127446Y0020422D01*
X0121800Y0021000D02*
X0121540Y0021000D01*
X0121540Y0020422D01*
X0121800Y0021000D02*
X0121800Y0031200D01*
X0115800Y0031200D02*
X0115800Y0021000D01*
X0115635Y0021000D01*
X0115635Y0020422D01*
X0115635Y0020400D01*
X0115800Y0020400D01*
X0115800Y0014400D01*
X0123600Y0014400D01*
X0114600Y0015600D02*
X0114600Y0009000D01*
X0116800Y0006800D01*
X0106800Y0006800D02*
X0106800Y0018000D01*
X0104400Y0020400D01*
X0104400Y0020422D01*
X0103824Y0020422D01*
X0109729Y0020400D02*
X0109729Y0020422D01*
X0109729Y0020400D02*
X0109800Y0020400D01*
X0114600Y0015600D01*
X0097918Y0020422D02*
X0097800Y0020422D01*
X0097800Y0020400D01*
X0097200Y0019800D01*
X0097200Y0007200D01*
X0096800Y0006800D01*
X0088800Y0009000D02*
X0087000Y0007200D01*
X0086800Y0006800D01*
X0088800Y0009000D02*
X0088800Y0017400D01*
X0091800Y0020400D01*
X0091800Y0020422D01*
X0092013Y0020422D01*
X0090600Y0031200D02*
X0080400Y0021000D01*
X0080202Y0021000D01*
X0080202Y0020422D01*
X0075600Y0022200D02*
X0075600Y0028800D01*
X0075600Y0022200D02*
X0074400Y0021000D01*
X0074400Y0020422D01*
X0074296Y0020422D01*
X0068400Y0020422D02*
X0068391Y0020422D01*
X0068400Y0020422D02*
X0068400Y0040200D01*
X0074400Y0037800D02*
X0088800Y0052200D01*
X0049887Y0058611D02*
X0049800Y0058611D01*
X0049800Y0058200D01*
X0045000Y0058200D01*
X0045000Y0055800D01*
X0036600Y0069600D02*
X0024600Y0057600D01*
X0022800Y0065400D02*
X0022800Y0067800D01*
X0022200Y0068400D01*
X0010200Y0068400D01*
X0010200Y0064800D01*
X0007200Y0061800D01*
X0006800Y0061800D01*
X0022800Y0065400D02*
X0028200Y0065400D01*
X0031200Y0068400D01*
X0031200Y0082200D01*
X0027000Y0086400D01*
X0026800Y0086800D01*
X0024600Y0078600D02*
X0016800Y0086400D01*
X0016800Y0086800D01*
X0024600Y0078600D02*
X0024600Y0070200D01*
X0027000Y0067800D01*
X0036600Y0066600D02*
X0036600Y0069600D01*
X0036600Y0086400D01*
X0036800Y0086800D01*
X0046800Y0086800D02*
X0046800Y0071400D01*
X0059400Y0028800D02*
X0059400Y0012000D01*
X0057000Y0009600D01*
X0057000Y0007200D01*
X0056800Y0006800D01*
D18*
X0061200Y0010200D03*
X0028800Y0017400D03*
X0018600Y0017400D03*
X0018600Y0025800D03*
X0024000Y0033600D03*
X0032400Y0036600D03*
X0036000Y0040200D03*
X0040800Y0036600D03*
X0044400Y0036600D03*
X0045600Y0043800D03*
X0055200Y0045000D03*
X0045000Y0049200D03*
X0033600Y0054000D03*
X0037800Y0058200D03*
X0045000Y0055800D03*
X0059400Y0052800D03*
X0065400Y0055200D03*
X0074400Y0066600D03*
X0091200Y0067200D03*
X0103800Y0064800D03*
X0108000Y0067800D03*
X0112200Y0083400D03*
X0121200Y0083400D03*
X0061200Y0083400D03*
X0046800Y0071400D03*
X0036600Y0066600D03*
X0027000Y0067800D03*
X0068400Y0040200D03*
X0074400Y0037800D03*
X0075600Y0028800D03*
X0061800Y0027600D03*
X0093000Y0033600D03*
X0101800Y0034800D03*
X0101800Y0028800D03*
X0115800Y0031200D03*
X0121800Y0031200D03*
X0118800Y0025200D03*
X0123600Y0014400D03*
X0127800Y0013800D03*
X0131800Y0013800D03*
X0135800Y0013800D03*
X0139800Y0013800D03*
X0143800Y0013800D03*
X0147800Y0013800D03*
X0151800Y0013800D03*
X0155800Y0013800D03*
X0159800Y0013800D03*
X0163800Y0013800D03*
X0167800Y0013800D03*
X0171800Y0013800D03*
X0175800Y0013800D03*
X0179800Y0013800D03*
X0183800Y0013800D03*
X0187800Y0013800D03*
X0101400Y0045600D03*
X0018600Y0037800D03*
D19*
X0015968Y0036967D02*
X0009463Y0036967D01*
X0009012Y0036517D02*
X0012100Y0039605D01*
X0012100Y0041600D01*
X0007000Y0041600D01*
X0007000Y0042000D01*
X0012100Y0042000D01*
X0012100Y0043995D01*
X0009012Y0047083D01*
X0011700Y0049770D01*
X0011700Y0053830D01*
X0008830Y0056700D01*
X0004770Y0056700D01*
X0004100Y0056030D01*
X0004100Y0057570D01*
X0004770Y0056900D01*
X0008830Y0056900D01*
X0011700Y0059770D01*
X0011700Y0063830D01*
X0011667Y0063863D01*
X0011900Y0064096D01*
X0011900Y0066700D01*
X0016701Y0066700D01*
X0016701Y0063800D01*
X0020075Y0063800D01*
X0016701Y0063800D01*
X0016701Y0060217D01*
X0016823Y0059759D01*
X0017060Y0059348D01*
X0017396Y0059013D01*
X0017806Y0058776D01*
X0018264Y0058654D01*
X0018289Y0058654D01*
X0018242Y0058606D01*
X0018005Y0058196D01*
X0017882Y0057738D01*
X0017882Y0055815D01*
X0021564Y0055815D01*
X0021564Y0055643D01*
X0017882Y0055643D01*
X0017882Y0053720D01*
X0018005Y0053263D01*
X0018242Y0052852D01*
X0018577Y0052517D01*
X0018987Y0052280D01*
X0019445Y0052157D01*
X0021565Y0052157D01*
X0021565Y0055643D01*
X0021736Y0055643D01*
X0021736Y0052157D01*
X0022300Y0052157D01*
X0022300Y0045168D01*
X0017708Y0045168D01*
X0016888Y0044348D01*
X0016888Y0040575D01*
X0016700Y0040387D01*
X0016700Y0039789D01*
X0016269Y0039358D01*
X0015850Y0038347D01*
X0015850Y0037253D01*
X0016269Y0036242D01*
X0017042Y0035469D01*
X0017341Y0035345D01*
X0015100Y0033104D01*
X0015100Y0026896D01*
X0015850Y0026146D01*
X0015850Y0025253D01*
X0016269Y0024242D01*
X0016888Y0023623D01*
X0016888Y0019577D01*
X0016269Y0018958D01*
X0015850Y0017947D01*
X0015850Y0016853D01*
X0016269Y0015842D01*
X0017042Y0015069D01*
X0018053Y0014650D01*
X0019147Y0014650D01*
X0020158Y0015069D01*
X0020931Y0015842D01*
X0021350Y0016853D01*
X0021350Y0017947D01*
X0021149Y0018431D01*
X0023199Y0018431D01*
X0023800Y0019033D01*
X0024401Y0018431D01*
X0026251Y0018431D01*
X0026050Y0017947D01*
X0026050Y0017337D01*
X0025100Y0016387D01*
X0025100Y0011700D01*
X0024770Y0011700D01*
X0021900Y0008830D01*
X0021900Y0004770D01*
X0022570Y0004100D01*
X0021030Y0004100D01*
X0021700Y0004770D01*
X0021700Y0008830D01*
X0018830Y0011700D01*
X0014770Y0011700D01*
X0012083Y0009012D01*
X0008995Y0012100D01*
X0007000Y0012100D01*
X0007000Y0007000D01*
X0006600Y0007000D01*
X0006600Y0012100D01*
X0004605Y0012100D01*
X0004100Y0011595D01*
X0004100Y0017570D01*
X0004770Y0016900D01*
X0008830Y0016900D01*
X0011700Y0019770D01*
X0011700Y0023830D01*
X0008830Y0026700D01*
X0004770Y0026700D01*
X0004100Y0026030D01*
X0004100Y0027570D01*
X0004770Y0026900D01*
X0008830Y0026900D01*
X0011700Y0029770D01*
X0011700Y0033830D01*
X0009012Y0036517D01*
X0010161Y0035369D02*
X0017284Y0035369D01*
X0015766Y0033770D02*
X0011700Y0033770D01*
X0011700Y0032172D02*
X0015100Y0032172D01*
X0015100Y0030573D02*
X0011700Y0030573D01*
X0010904Y0028975D02*
X0015100Y0028975D01*
X0015100Y0027376D02*
X0009306Y0027376D01*
X0009752Y0025778D02*
X0015850Y0025778D01*
X0016332Y0024179D02*
X0011350Y0024179D01*
X0011700Y0022581D02*
X0016888Y0022581D01*
X0016888Y0020982D02*
X0011700Y0020982D01*
X0011313Y0019384D02*
X0016695Y0019384D01*
X0015850Y0017785D02*
X0009715Y0017785D01*
X0004100Y0016187D02*
X0016126Y0016187D01*
X0021074Y0016187D02*
X0025100Y0016187D01*
X0025100Y0014588D02*
X0004100Y0014588D01*
X0004100Y0012990D02*
X0025100Y0012990D01*
X0024461Y0011391D02*
X0019139Y0011391D01*
X0020737Y0009793D02*
X0022863Y0009793D01*
X0021900Y0008194D02*
X0021700Y0008194D01*
X0021700Y0006596D02*
X0021900Y0006596D01*
X0021900Y0004997D02*
X0021700Y0004997D01*
X0012863Y0009793D02*
X0011303Y0009793D01*
X0009704Y0011391D02*
X0014461Y0011391D01*
X0007000Y0011391D02*
X0006600Y0011391D01*
X0006600Y0009793D02*
X0007000Y0009793D01*
X0007000Y0008194D02*
X0006600Y0008194D01*
X0021350Y0017785D02*
X0026050Y0017785D01*
X0038900Y0017638D02*
X0038900Y0017504D01*
X0044737Y0011667D01*
X0044770Y0011700D01*
X0048830Y0011700D01*
X0051700Y0008830D01*
X0051700Y0004770D01*
X0051030Y0004100D01*
X0052570Y0004100D01*
X0051900Y0004770D01*
X0051900Y0008830D01*
X0054770Y0011700D01*
X0056696Y0011700D01*
X0057700Y0012704D01*
X0057700Y0014993D01*
X0057141Y0014882D01*
X0056580Y0014882D01*
X0056580Y0020422D01*
X0056579Y0020422D01*
X0053402Y0020422D01*
X0053402Y0017498D01*
X0053513Y0016938D01*
X0053732Y0016409D01*
X0054050Y0015934D01*
X0054454Y0015530D01*
X0054929Y0015212D01*
X0055457Y0014993D01*
X0056018Y0014882D01*
X0056579Y0014882D01*
X0056579Y0020422D01*
X0056579Y0020422D01*
X0053402Y0020422D01*
X0053402Y0023346D01*
X0053513Y0023906D01*
X0053732Y0024435D01*
X0054050Y0024910D01*
X0054454Y0025314D01*
X0054929Y0025632D01*
X0055457Y0025851D01*
X0056018Y0025962D01*
X0056579Y0025962D01*
X0056579Y0020422D01*
X0056580Y0020422D01*
X0056580Y0025962D01*
X0057141Y0025962D01*
X0057700Y0025851D01*
X0057700Y0029504D01*
X0058696Y0030500D01*
X0061300Y0033104D01*
X0061300Y0048696D01*
X0057950Y0045346D01*
X0057950Y0044453D01*
X0057531Y0043442D01*
X0056758Y0042669D01*
X0055747Y0042250D01*
X0055219Y0042250D01*
X0055315Y0042017D01*
X0055427Y0041456D01*
X0055427Y0040895D01*
X0049887Y0040895D01*
X0049887Y0040895D01*
X0049887Y0044072D01*
X0049887Y0046800D01*
X0049887Y0046800D01*
X0049887Y0052705D01*
X0049887Y0052705D01*
X0049887Y0052706D01*
X0055427Y0052706D01*
X0055427Y0053267D01*
X0055315Y0053828D01*
X0055096Y0054356D01*
X0054779Y0054831D01*
X0054375Y0055236D01*
X0053899Y0055553D01*
X0053371Y0055772D01*
X0053036Y0055839D01*
X0053942Y0056214D01*
X0054646Y0056918D01*
X0055027Y0057838D01*
X0055027Y0059384D01*
X0054646Y0060304D01*
X0053942Y0061008D01*
X0053036Y0061383D01*
X0053371Y0061450D01*
X0053899Y0061669D01*
X0054375Y0061987D01*
X0054779Y0062391D01*
X0055096Y0062866D01*
X0055315Y0063394D01*
X0055427Y0063955D01*
X0055427Y0064516D01*
X0049887Y0064516D01*
X0049887Y0064517D01*
X0049887Y0064517D01*
X0049887Y0067694D01*
X0052810Y0067694D01*
X0053371Y0067583D01*
X0053899Y0067364D01*
X0054375Y0067047D01*
X0054779Y0066642D01*
X0055096Y0066167D01*
X0055315Y0065639D01*
X0055427Y0065078D01*
X0055427Y0064517D01*
X0049887Y0064517D01*
X0049887Y0067694D01*
X0046963Y0067694D01*
X0046402Y0067583D01*
X0045874Y0067364D01*
X0045399Y0067047D01*
X0044994Y0066642D01*
X0044677Y0066167D01*
X0044458Y0065639D01*
X0044346Y0065078D01*
X0044346Y0064517D01*
X0049886Y0064517D01*
X0049886Y0064516D01*
X0044346Y0064516D01*
X0044346Y0063955D01*
X0044458Y0063394D01*
X0044677Y0062866D01*
X0044994Y0062391D01*
X0045399Y0061987D01*
X0045874Y0061669D01*
X0046402Y0061450D01*
X0046738Y0061383D01*
X0045831Y0061008D01*
X0045127Y0060304D01*
X0044960Y0059900D01*
X0044296Y0059900D01*
X0043300Y0058904D01*
X0043300Y0057989D01*
X0042669Y0057358D01*
X0042250Y0056347D01*
X0042250Y0055253D01*
X0042669Y0054242D01*
X0043442Y0053469D01*
X0044346Y0053094D01*
X0044346Y0052706D01*
X0049886Y0052706D01*
X0049886Y0052705D01*
X0049887Y0052705D02*
X0049887Y0049528D01*
X0049887Y0046800D01*
X0049887Y0046800D01*
X0049887Y0040895D01*
X0049887Y0040894D01*
X0055427Y0040894D01*
X0055427Y0040333D01*
X0055315Y0039772D01*
X0055096Y0039244D01*
X0055042Y0039162D01*
X0055700Y0038504D01*
X0055700Y0037904D01*
X0056300Y0037304D01*
X0056300Y0032896D01*
X0055100Y0031696D01*
X0054696Y0031292D01*
X0054779Y0031209D01*
X0055096Y0030734D01*
X0055315Y0030206D01*
X0055427Y0029645D01*
X0055427Y0029084D01*
X0049887Y0029084D01*
X0049887Y0029083D01*
X0055427Y0029083D01*
X0055427Y0028522D01*
X0055315Y0027961D01*
X0055096Y0027433D01*
X0054779Y0026958D01*
X0054375Y0026553D01*
X0053899Y0026236D01*
X0053371Y0026017D01*
X0052810Y0025906D01*
X0049887Y0025906D01*
X0049887Y0029083D01*
X0049887Y0029083D01*
X0049887Y0025905D01*
X0046963Y0025906D01*
X0046402Y0026017D01*
X0045874Y0026236D01*
X0045399Y0026553D01*
X0045023Y0026929D01*
X0044973Y0026743D01*
X0044736Y0026333D01*
X0044401Y0025997D01*
X0044059Y0025800D01*
X0044401Y0025603D01*
X0044736Y0025267D01*
X0044973Y0024857D01*
X0045096Y0024399D01*
X0045096Y0022181D01*
X0041315Y0022181D01*
X0041315Y0021419D01*
X0045096Y0021419D01*
X0045096Y0019201D01*
X0044973Y0018743D01*
X0044736Y0018333D01*
X0044401Y0017997D01*
X0043991Y0017760D01*
X0043533Y0017638D01*
X0041315Y0017638D01*
X0041315Y0021419D01*
X0040553Y0021419D01*
X0040553Y0017638D01*
X0038900Y0017638D01*
X0040553Y0017785D02*
X0041315Y0017785D01*
X0041315Y0019384D02*
X0040553Y0019384D01*
X0040553Y0020982D02*
X0041315Y0020982D01*
X0041315Y0022181D02*
X0040553Y0022181D01*
X0040553Y0025962D01*
X0040553Y0029419D01*
X0041315Y0029419D01*
X0041315Y0022181D01*
X0041315Y0022581D02*
X0040553Y0022581D01*
X0040553Y0024179D02*
X0041315Y0024179D01*
X0041315Y0025778D02*
X0040553Y0025778D01*
X0040553Y0027376D02*
X0041315Y0027376D01*
X0041315Y0028975D02*
X0040553Y0028975D01*
X0044098Y0025778D02*
X0055281Y0025778D01*
X0056579Y0025778D02*
X0056580Y0025778D01*
X0056579Y0024179D02*
X0056580Y0024179D01*
X0056579Y0022581D02*
X0056580Y0022581D01*
X0053402Y0022581D02*
X0045096Y0022581D01*
X0045096Y0024179D02*
X0053626Y0024179D01*
X0053402Y0020982D02*
X0045096Y0020982D01*
X0045096Y0019384D02*
X0053402Y0019384D01*
X0053402Y0017785D02*
X0044034Y0017785D01*
X0040218Y0016187D02*
X0053881Y0016187D01*
X0056579Y0016187D02*
X0056580Y0016187D01*
X0056579Y0017785D02*
X0056580Y0017785D01*
X0056579Y0019384D02*
X0056580Y0019384D01*
X0056579Y0020982D02*
X0056580Y0020982D01*
X0057700Y0014588D02*
X0041816Y0014588D01*
X0043415Y0012990D02*
X0057700Y0012990D01*
X0054461Y0011391D02*
X0049139Y0011391D01*
X0050737Y0009793D02*
X0052863Y0009793D01*
X0051900Y0008194D02*
X0051700Y0008194D01*
X0051700Y0006596D02*
X0051900Y0006596D01*
X0051900Y0004997D02*
X0051700Y0004997D01*
X0073700Y0012704D02*
X0073700Y0015282D01*
X0075069Y0015282D01*
X0075989Y0015663D01*
X0076693Y0016367D01*
X0077074Y0017286D01*
X0077074Y0021270D01*
X0077300Y0021496D01*
X0077300Y0026611D01*
X0077931Y0027242D01*
X0078350Y0028253D01*
X0078350Y0029347D01*
X0077931Y0030358D01*
X0077158Y0031131D01*
X0076147Y0031550D01*
X0075053Y0031550D01*
X0074042Y0031131D01*
X0073700Y0030789D01*
X0073700Y0035113D01*
X0073853Y0035050D01*
X0074947Y0035050D01*
X0075958Y0035469D01*
X0076731Y0036242D01*
X0077150Y0037253D01*
X0077150Y0038146D01*
X0089504Y0050500D01*
X0090500Y0051496D01*
X0090500Y0064513D01*
X0090653Y0064450D01*
X0091747Y0064450D01*
X0092758Y0064869D01*
X0093531Y0065642D01*
X0093950Y0066653D01*
X0093950Y0067747D01*
X0093677Y0068407D01*
X0093706Y0068419D01*
X0094410Y0069123D01*
X0094785Y0070029D01*
X0094852Y0069694D01*
X0095070Y0069165D01*
X0095388Y0068690D01*
X0095792Y0068286D01*
X0096268Y0067968D01*
X0096796Y0067749D01*
X0097357Y0067638D01*
X0097918Y0067638D01*
X0097918Y0073178D01*
X0097918Y0078718D01*
X0097357Y0078718D01*
X0096796Y0078607D01*
X0096268Y0078388D01*
X0095792Y0078070D01*
X0095388Y0077666D01*
X0095070Y0077191D01*
X0094852Y0076662D01*
X0094785Y0076327D01*
X0094410Y0077233D01*
X0093706Y0077937D01*
X0092786Y0078318D01*
X0091239Y0078318D01*
X0090500Y0078012D01*
X0090500Y0083570D01*
X0091700Y0084770D01*
X0091700Y0088830D01*
X0091030Y0089500D01*
X0092570Y0089500D01*
X0091900Y0088830D01*
X0091900Y0084770D01*
X0094770Y0081900D01*
X0098830Y0081900D01*
X0099063Y0082133D01*
X0099700Y0081496D01*
X0099700Y0078300D01*
X0099568Y0078388D01*
X0099040Y0078607D01*
X0098480Y0078718D01*
X0097918Y0078718D01*
X0097918Y0073178D01*
X0097918Y0073178D01*
X0097918Y0073178D01*
X0097918Y0067638D01*
X0098480Y0067638D01*
X0099040Y0067749D01*
X0099568Y0067968D01*
X0099700Y0068056D01*
X0099700Y0047789D01*
X0099069Y0047158D01*
X0098650Y0046147D01*
X0098650Y0045053D01*
X0099069Y0044042D01*
X0099842Y0043269D01*
X0100141Y0043145D01*
X0093346Y0036350D01*
X0092453Y0036350D01*
X0091442Y0035931D01*
X0090669Y0035158D01*
X0090250Y0034147D01*
X0090250Y0033053D01*
X0090313Y0032900D01*
X0089896Y0032900D01*
X0088900Y0031904D01*
X0082036Y0025040D01*
X0081895Y0025181D01*
X0080975Y0025562D01*
X0079428Y0025562D01*
X0078509Y0025181D01*
X0077805Y0024477D01*
X0077424Y0023558D01*
X0077424Y0017286D01*
X0077805Y0016367D01*
X0078509Y0015663D01*
X0079428Y0015282D01*
X0080975Y0015282D01*
X0081895Y0015663D01*
X0082599Y0016367D01*
X0082974Y0017273D01*
X0083041Y0016938D01*
X0083259Y0016409D01*
X0083577Y0015934D01*
X0083981Y0015530D01*
X0084457Y0015212D01*
X0084985Y0014993D01*
X0085546Y0014882D01*
X0086107Y0014882D01*
X0086107Y0020422D01*
X0086107Y0020422D01*
X0086107Y0014882D01*
X0086669Y0014882D01*
X0087100Y0014968D01*
X0087100Y0011700D01*
X0084770Y0011700D01*
X0081900Y0008830D01*
X0081900Y0004770D01*
X0082570Y0004100D01*
X0081030Y0004100D01*
X0081700Y0004770D01*
X0081700Y0008830D01*
X0078830Y0011700D01*
X0074770Y0011700D01*
X0074737Y0011667D01*
X0073700Y0012704D01*
X0073700Y0012990D02*
X0087100Y0012990D01*
X0090500Y0012990D02*
X0095500Y0012990D01*
X0095500Y0011700D02*
X0094770Y0011700D01*
X0091900Y0008830D01*
X0091900Y0004770D01*
X0092570Y0004100D01*
X0091030Y0004100D01*
X0091700Y0004770D01*
X0091700Y0008830D01*
X0090500Y0010030D01*
X0090500Y0015588D01*
X0091239Y0015282D01*
X0092786Y0015282D01*
X0093706Y0015663D01*
X0094410Y0016367D01*
X0094791Y0017286D01*
X0094791Y0023558D01*
X0094410Y0024477D01*
X0093706Y0025181D01*
X0092786Y0025562D01*
X0091239Y0025562D01*
X0090320Y0025181D01*
X0089616Y0024477D01*
X0089240Y0023571D01*
X0089173Y0023906D01*
X0088955Y0024435D01*
X0088637Y0024910D01*
X0088233Y0025314D01*
X0087757Y0025632D01*
X0087530Y0025726D01*
X0091304Y0029500D01*
X0113611Y0029500D01*
X0114100Y0029011D01*
X0114100Y0025247D01*
X0113942Y0025181D01*
X0113238Y0024477D01*
X0112857Y0023558D01*
X0112857Y0019747D01*
X0112507Y0020097D01*
X0112507Y0023558D01*
X0112126Y0024477D01*
X0111422Y0025181D01*
X0110502Y0025562D01*
X0108956Y0025562D01*
X0108036Y0025181D01*
X0107332Y0024477D01*
X0106951Y0023558D01*
X0106951Y0020253D01*
X0106602Y0020603D01*
X0106602Y0023558D01*
X0106221Y0024477D01*
X0105517Y0025181D01*
X0104597Y0025562D01*
X0103050Y0025562D01*
X0102131Y0025181D01*
X0101427Y0024477D01*
X0101046Y0023558D01*
X0101046Y0017286D01*
X0101427Y0016367D01*
X0102131Y0015663D01*
X0103050Y0015282D01*
X0104597Y0015282D01*
X0105100Y0015490D01*
X0105100Y0011700D01*
X0104770Y0011700D01*
X0101900Y0008830D01*
X0101900Y0004770D01*
X0102570Y0004100D01*
X0101030Y0004100D01*
X0101700Y0004770D01*
X0101700Y0008830D01*
X0098900Y0011630D01*
X0098900Y0015368D01*
X0099611Y0015663D01*
X0100315Y0016367D01*
X0100696Y0017286D01*
X0100696Y0023558D01*
X0100315Y0024477D01*
X0099611Y0025181D01*
X0098691Y0025562D01*
X0097145Y0025562D01*
X0096225Y0025181D01*
X0095521Y0024477D01*
X0095140Y0023558D01*
X0095140Y0017286D01*
X0095500Y0016418D01*
X0095500Y0011700D01*
X0094461Y0011391D02*
X0090500Y0011391D01*
X0090737Y0009793D02*
X0092863Y0009793D01*
X0091900Y0008194D02*
X0091700Y0008194D01*
X0091700Y0006596D02*
X0091900Y0006596D01*
X0091900Y0004997D02*
X0091700Y0004997D01*
X0081900Y0004997D02*
X0081700Y0004997D01*
X0081700Y0006596D02*
X0081900Y0006596D01*
X0081900Y0008194D02*
X0081700Y0008194D01*
X0080737Y0009793D02*
X0082863Y0009793D01*
X0084461Y0011391D02*
X0079139Y0011391D01*
X0073700Y0014588D02*
X0087100Y0014588D01*
X0090500Y0014588D02*
X0095500Y0014588D01*
X0095500Y0016187D02*
X0094229Y0016187D01*
X0094791Y0017785D02*
X0095140Y0017785D01*
X0095140Y0019384D02*
X0094791Y0019384D01*
X0094791Y0020982D02*
X0095140Y0020982D01*
X0095140Y0022581D02*
X0094791Y0022581D01*
X0094533Y0024179D02*
X0095398Y0024179D01*
X0100439Y0024179D02*
X0101303Y0024179D01*
X0101046Y0022581D02*
X0100696Y0022581D01*
X0100696Y0020982D02*
X0101046Y0020982D01*
X0101046Y0019384D02*
X0100696Y0019384D01*
X0100696Y0017785D02*
X0101046Y0017785D01*
X0101607Y0016187D02*
X0100135Y0016187D01*
X0098900Y0014588D02*
X0105100Y0014588D01*
X0105100Y0012990D02*
X0098900Y0012990D01*
X0099139Y0011391D02*
X0104461Y0011391D01*
X0102863Y0009793D02*
X0100737Y0009793D01*
X0101700Y0008194D02*
X0101900Y0008194D01*
X0101900Y0006596D02*
X0101700Y0006596D01*
X0101700Y0004997D02*
X0101900Y0004997D01*
X0116300Y0011700D02*
X0116300Y0012700D01*
X0116504Y0012700D01*
X0121411Y0012700D01*
X0122042Y0012069D01*
X0123053Y0011650D01*
X0124147Y0011650D01*
X0125158Y0012069D01*
X0125931Y0012842D01*
X0126350Y0013853D01*
X0126350Y0014947D01*
X0126116Y0015512D01*
X0126672Y0015282D01*
X0128219Y0015282D01*
X0129139Y0015663D01*
X0129843Y0016367D01*
X0130218Y0017273D01*
X0130285Y0016938D01*
X0130504Y0016409D01*
X0130821Y0015934D01*
X0131225Y0015530D01*
X0131701Y0015212D01*
X0132229Y0014993D01*
X0132790Y0014882D01*
X0133351Y0014882D01*
X0133351Y0020422D01*
X0133351Y0020422D01*
X0133351Y0025962D01*
X0132790Y0025962D01*
X0132229Y0025851D01*
X0131701Y0025632D01*
X0131225Y0025314D01*
X0130821Y0024910D01*
X0130700Y0024729D01*
X0130700Y0067696D01*
X0130904Y0067900D01*
X0130904Y0067900D01*
X0131264Y0068260D01*
X0131701Y0067968D01*
X0132229Y0067749D01*
X0132790Y0067638D01*
X0133351Y0067638D01*
X0133351Y0073178D01*
X0133351Y0078718D01*
X0132790Y0078718D01*
X0132229Y0078607D01*
X0131900Y0078470D01*
X0131900Y0084104D01*
X0131467Y0084537D01*
X0131700Y0084770D01*
X0131700Y0088830D01*
X0131030Y0089500D01*
X0189500Y0089500D01*
X0189500Y0067376D01*
X0189001Y0067583D01*
X0188440Y0067694D01*
X0185517Y0067694D01*
X0185517Y0064517D01*
X0185516Y0064517D01*
X0185516Y0064516D01*
X0179976Y0064516D01*
X0179976Y0063955D01*
X0180088Y0063394D01*
X0180307Y0062866D01*
X0180624Y0062391D01*
X0181029Y0061987D01*
X0181504Y0061669D01*
X0181758Y0061564D01*
X0181504Y0061459D01*
X0181029Y0061141D01*
X0180624Y0060737D01*
X0180307Y0060261D01*
X0180088Y0059733D01*
X0179976Y0059172D01*
X0179976Y0058611D01*
X0179976Y0058050D01*
X0180088Y0057489D01*
X0180307Y0056961D01*
X0180624Y0056485D01*
X0181029Y0056081D01*
X0181504Y0055763D01*
X0181758Y0055658D01*
X0181504Y0055553D01*
X0181029Y0055236D01*
X0180624Y0054831D01*
X0180307Y0054356D01*
X0180088Y0053828D01*
X0179976Y0053267D01*
X0179976Y0052706D01*
X0185516Y0052706D01*
X0185516Y0052705D01*
X0179976Y0052705D01*
X0179976Y0052144D01*
X0180088Y0051583D01*
X0180307Y0051055D01*
X0180624Y0050580D01*
X0181029Y0050176D01*
X0181504Y0049858D01*
X0181758Y0049753D01*
X0181504Y0049648D01*
X0181029Y0049330D01*
X0180624Y0048926D01*
X0180307Y0048450D01*
X0180088Y0047922D01*
X0179976Y0047361D01*
X0179976Y0046800D01*
X0185516Y0046800D01*
X0185516Y0046800D01*
X0179976Y0046800D01*
X0179976Y0046239D01*
X0180088Y0045678D01*
X0180307Y0045150D01*
X0180624Y0044674D01*
X0181029Y0044270D01*
X0181504Y0043952D01*
X0181758Y0043847D01*
X0181504Y0043742D01*
X0181029Y0043424D01*
X0180624Y0043020D01*
X0180307Y0042545D01*
X0180088Y0042017D01*
X0179976Y0041456D01*
X0179976Y0040895D01*
X0185516Y0040895D01*
X0185516Y0046800D01*
X0185516Y0049528D01*
X0185516Y0052705D01*
X0185517Y0052705D01*
X0185517Y0046800D01*
X0185516Y0046800D01*
X0185517Y0046800D01*
X0185517Y0044072D01*
X0185517Y0040895D01*
X0185516Y0040895D01*
X0185516Y0040894D01*
X0179976Y0040894D01*
X0179976Y0040333D01*
X0180088Y0039772D01*
X0180307Y0039244D01*
X0180624Y0038769D01*
X0181029Y0038364D01*
X0181504Y0038047D01*
X0181758Y0037942D01*
X0181504Y0037837D01*
X0181029Y0037519D01*
X0180624Y0037115D01*
X0180307Y0036639D01*
X0180088Y0036111D01*
X0179976Y0035550D01*
X0179976Y0034989D01*
X0185516Y0034989D01*
X0179976Y0034989D01*
X0179976Y0034428D01*
X0180088Y0033867D01*
X0180307Y0033339D01*
X0180624Y0032863D01*
X0181029Y0032459D01*
X0181504Y0032141D01*
X0181758Y0032036D01*
X0181504Y0031931D01*
X0181029Y0031613D01*
X0180624Y0031209D01*
X0180307Y0030734D01*
X0180088Y0030206D01*
X0179976Y0029645D01*
X0179976Y0029084D01*
X0185516Y0029084D01*
X0185516Y0034989D01*
X0185516Y0034989D01*
X0185516Y0037717D01*
X0185516Y0040894D01*
X0185517Y0040894D01*
X0185517Y0034989D01*
X0185516Y0034989D01*
X0185517Y0034989D01*
X0185517Y0031811D01*
X0185517Y0029084D01*
X0185516Y0029084D01*
X0185516Y0029083D01*
X0179976Y0029083D01*
X0179976Y0028522D01*
X0180088Y0027961D01*
X0180307Y0027433D01*
X0180624Y0026958D01*
X0181029Y0026553D01*
X0181504Y0026236D01*
X0182032Y0026017D01*
X0182593Y0025906D01*
X0185516Y0025905D01*
X0185516Y0029083D01*
X0185517Y0029083D01*
X0185517Y0025906D01*
X0188440Y0025906D01*
X0189001Y0026017D01*
X0189500Y0026224D01*
X0189500Y0004100D01*
X0121030Y0004100D01*
X0121700Y0004770D01*
X0121700Y0008830D01*
X0118830Y0011700D01*
X0116300Y0011700D01*
X0119139Y0011391D02*
X0189500Y0011391D01*
X0189500Y0012990D02*
X0125992Y0012990D01*
X0126350Y0014588D02*
X0189500Y0014588D01*
X0189500Y0016187D02*
X0165577Y0016187D01*
X0165726Y0016409D02*
X0165945Y0016938D01*
X0166057Y0017498D01*
X0166057Y0020422D01*
X0162879Y0020422D01*
X0162879Y0020422D01*
X0166057Y0020422D01*
X0166057Y0023346D01*
X0165945Y0023906D01*
X0165726Y0024435D01*
X0165409Y0024910D01*
X0165004Y0025314D01*
X0164529Y0025632D01*
X0164001Y0025851D01*
X0163440Y0025962D01*
X0162879Y0025962D01*
X0162879Y0020422D01*
X0162879Y0014882D01*
X0163440Y0014882D01*
X0164001Y0014993D01*
X0164529Y0015212D01*
X0165004Y0015530D01*
X0165409Y0015934D01*
X0165726Y0016409D01*
X0166057Y0017785D02*
X0189500Y0017785D01*
X0189500Y0019384D02*
X0166057Y0019384D01*
X0166057Y0020982D02*
X0189500Y0020982D01*
X0189500Y0022581D02*
X0166057Y0022581D01*
X0165832Y0024179D02*
X0189500Y0024179D01*
X0189500Y0025778D02*
X0164177Y0025778D01*
X0162879Y0025778D02*
X0162879Y0025778D01*
X0162879Y0025962D02*
X0162317Y0025962D01*
X0161757Y0025851D01*
X0161228Y0025632D01*
X0160753Y0025314D01*
X0160349Y0024910D01*
X0160031Y0024435D01*
X0159926Y0024181D01*
X0159821Y0024435D01*
X0159503Y0024910D01*
X0159099Y0025314D01*
X0158624Y0025632D01*
X0158095Y0025851D01*
X0157535Y0025962D01*
X0156973Y0025962D01*
X0156412Y0025962D01*
X0155851Y0025851D01*
X0155323Y0025632D01*
X0154847Y0025314D01*
X0154443Y0024910D01*
X0154126Y0024435D01*
X0154020Y0024181D01*
X0153915Y0024435D01*
X0153598Y0024910D01*
X0153193Y0025314D01*
X0152718Y0025632D01*
X0152190Y0025851D01*
X0151629Y0025962D01*
X0151068Y0025962D01*
X0151068Y0020422D01*
X0151068Y0020422D01*
X0154246Y0020422D01*
X0156973Y0020422D01*
X0156973Y0020422D01*
X0151068Y0020422D01*
X0151068Y0014882D01*
X0151629Y0014882D01*
X0152190Y0014993D01*
X0152718Y0015212D01*
X0153193Y0015530D01*
X0153598Y0015934D01*
X0153915Y0016409D01*
X0154020Y0016663D01*
X0154126Y0016409D01*
X0154443Y0015934D01*
X0154847Y0015530D01*
X0155323Y0015212D01*
X0155851Y0014993D01*
X0156412Y0014882D01*
X0156973Y0014882D01*
X0156973Y0020422D01*
X0156973Y0020422D01*
X0156973Y0025962D01*
X0156973Y0020422D01*
X0156973Y0020422D01*
X0156973Y0014882D01*
X0157535Y0014882D01*
X0158095Y0014993D01*
X0158624Y0015212D01*
X0159099Y0015530D01*
X0159503Y0015934D01*
X0159821Y0016409D01*
X0159926Y0016663D01*
X0160031Y0016409D01*
X0160349Y0015934D01*
X0160753Y0015530D01*
X0161228Y0015212D01*
X0161757Y0014993D01*
X0162317Y0014882D01*
X0162879Y0014882D01*
X0162879Y0020422D01*
X0162879Y0020422D01*
X0162879Y0020422D01*
X0162879Y0025962D01*
X0161580Y0025778D02*
X0158272Y0025778D01*
X0156973Y0025778D02*
X0156973Y0025778D01*
X0155675Y0025778D02*
X0152366Y0025778D01*
X0151068Y0025778D02*
X0151068Y0025778D01*
X0151068Y0025962D02*
X0150506Y0025962D01*
X0149946Y0025851D01*
X0149417Y0025632D01*
X0148942Y0025314D01*
X0148538Y0024910D01*
X0148220Y0024435D01*
X0148115Y0024181D01*
X0148010Y0024435D01*
X0147692Y0024910D01*
X0147288Y0025314D01*
X0146813Y0025632D01*
X0146284Y0025851D01*
X0145724Y0025962D01*
X0145162Y0025962D01*
X0144601Y0025962D01*
X0144040Y0025851D01*
X0143512Y0025632D01*
X0143036Y0025314D01*
X0142632Y0024910D01*
X0142315Y0024435D01*
X0142209Y0024181D01*
X0142104Y0024435D01*
X0141787Y0024910D01*
X0141382Y0025314D01*
X0140907Y0025632D01*
X0140379Y0025851D01*
X0139818Y0025962D01*
X0139257Y0025962D01*
X0139257Y0020422D01*
X0139257Y0020422D01*
X0142435Y0020422D01*
X0145162Y0020422D01*
X0145162Y0020422D01*
X0139257Y0020422D01*
X0139257Y0014882D01*
X0139818Y0014882D01*
X0140379Y0014993D01*
X0140907Y0015212D01*
X0141382Y0015530D01*
X0141787Y0015934D01*
X0142104Y0016409D01*
X0142209Y0016663D01*
X0142315Y0016409D01*
X0142632Y0015934D01*
X0143036Y0015530D01*
X0143512Y0015212D01*
X0144040Y0014993D01*
X0144601Y0014882D01*
X0145162Y0014882D01*
X0145162Y0020422D01*
X0145162Y0020422D01*
X0145162Y0025962D01*
X0145162Y0020422D01*
X0145162Y0020422D01*
X0145162Y0014882D01*
X0145724Y0014882D01*
X0146284Y0014993D01*
X0146813Y0015212D01*
X0147288Y0015530D01*
X0147692Y0015934D01*
X0148010Y0016409D01*
X0148115Y0016663D01*
X0148220Y0016409D01*
X0148538Y0015934D01*
X0148942Y0015530D01*
X0149417Y0015212D01*
X0149946Y0014993D01*
X0150506Y0014882D01*
X0151068Y0014882D01*
X0151068Y0020422D01*
X0151068Y0020422D01*
X0151068Y0020422D01*
X0151068Y0025962D01*
X0149769Y0025778D02*
X0146461Y0025778D01*
X0145162Y0025778D02*
X0145162Y0025778D01*
X0143864Y0025778D02*
X0140555Y0025778D01*
X0139257Y0025778D02*
X0139257Y0025778D01*
X0139257Y0025962D02*
X0138695Y0025962D01*
X0138135Y0025851D01*
X0137606Y0025632D01*
X0137131Y0025314D01*
X0136727Y0024910D01*
X0136409Y0024435D01*
X0136304Y0024181D01*
X0136199Y0024435D01*
X0135881Y0024910D01*
X0135477Y0025314D01*
X0135002Y0025632D01*
X0134473Y0025851D01*
X0133913Y0025962D01*
X0133351Y0025962D01*
X0133351Y0020422D01*
X0133351Y0020422D01*
X0133351Y0014882D01*
X0133913Y0014882D01*
X0134473Y0014993D01*
X0135002Y0015212D01*
X0135477Y0015530D01*
X0135881Y0015934D01*
X0136199Y0016409D01*
X0136304Y0016663D01*
X0136409Y0016409D01*
X0136727Y0015934D01*
X0137131Y0015530D01*
X0137606Y0015212D01*
X0138135Y0014993D01*
X0138695Y0014882D01*
X0139257Y0014882D01*
X0139257Y0020422D01*
X0139257Y0020422D01*
X0139257Y0020422D01*
X0139257Y0025962D01*
X0137958Y0025778D02*
X0134650Y0025778D01*
X0133351Y0025778D02*
X0133351Y0025778D01*
X0132053Y0025778D02*
X0130700Y0025778D01*
X0130700Y0027376D02*
X0180345Y0027376D01*
X0179976Y0028975D02*
X0130700Y0028975D01*
X0130700Y0030573D02*
X0180240Y0030573D01*
X0181458Y0032172D02*
X0130700Y0032172D01*
X0130700Y0033770D02*
X0180128Y0033770D01*
X0179976Y0035369D02*
X0130700Y0035369D01*
X0130700Y0036967D02*
X0180526Y0036967D01*
X0180827Y0038566D02*
X0130700Y0038566D01*
X0130700Y0040164D02*
X0180010Y0040164D01*
X0180037Y0041763D02*
X0130700Y0041763D01*
X0130700Y0043361D02*
X0180965Y0043361D01*
X0180434Y0044960D02*
X0130700Y0044960D01*
X0130700Y0046558D02*
X0179976Y0046558D01*
X0180185Y0048157D02*
X0130700Y0048157D01*
X0130700Y0049755D02*
X0181752Y0049755D01*
X0180183Y0051354D02*
X0130700Y0051354D01*
X0130700Y0052952D02*
X0179976Y0052952D01*
X0180437Y0054551D02*
X0130700Y0054551D01*
X0130700Y0056149D02*
X0180960Y0056149D01*
X0180036Y0057748D02*
X0130700Y0057748D01*
X0130700Y0059346D02*
X0180011Y0059346D01*
X0179976Y0058611D02*
X0185516Y0058611D01*
X0179976Y0058611D01*
X0180832Y0060945D02*
X0130700Y0060945D01*
X0130700Y0062543D02*
X0180522Y0062543D01*
X0179976Y0064142D02*
X0130700Y0064142D01*
X0130700Y0065740D02*
X0180130Y0065740D01*
X0180088Y0065639D02*
X0179976Y0065078D01*
X0179976Y0064517D01*
X0185516Y0064517D01*
X0185516Y0067694D01*
X0182593Y0067694D01*
X0182032Y0067583D01*
X0181504Y0067364D01*
X0181029Y0067047D01*
X0180624Y0066642D01*
X0180307Y0066167D01*
X0180088Y0065639D01*
X0181466Y0067339D02*
X0130700Y0067339D01*
X0133351Y0067638D02*
X0133913Y0067638D01*
X0134473Y0067749D01*
X0135002Y0067968D01*
X0135477Y0068286D01*
X0135881Y0068690D01*
X0136199Y0069165D01*
X0136304Y0069419D01*
X0136409Y0069165D01*
X0136727Y0068690D01*
X0137131Y0068286D01*
X0137606Y0067968D01*
X0138135Y0067749D01*
X0138695Y0067638D01*
X0139257Y0067638D01*
X0139818Y0067638D01*
X0140379Y0067749D01*
X0140907Y0067968D01*
X0141382Y0068286D01*
X0141787Y0068690D01*
X0142104Y0069165D01*
X0142209Y0069419D01*
X0142315Y0069165D01*
X0142632Y0068690D01*
X0143036Y0068286D01*
X0143512Y0067968D01*
X0144040Y0067749D01*
X0144601Y0067638D01*
X0145162Y0067638D01*
X0145162Y0073178D01*
X0145162Y0073178D01*
X0139257Y0073178D01*
X0139257Y0073178D01*
X0142435Y0073178D01*
X0145162Y0073178D01*
X0145162Y0078718D01*
X0144601Y0078718D01*
X0144040Y0078607D01*
X0143512Y0078388D01*
X0143036Y0078070D01*
X0142632Y0077666D01*
X0142315Y0077191D01*
X0142209Y0076937D01*
X0142104Y0077191D01*
X0141787Y0077666D01*
X0141382Y0078070D01*
X0140907Y0078388D01*
X0140379Y0078607D01*
X0139818Y0078718D01*
X0139257Y0078718D01*
X0139257Y0073178D01*
X0139257Y0073178D01*
X0139257Y0067638D01*
X0139257Y0073178D01*
X0139257Y0073178D01*
X0139257Y0078718D01*
X0138695Y0078718D01*
X0138135Y0078607D01*
X0137606Y0078388D01*
X0137131Y0078070D01*
X0136727Y0077666D01*
X0136409Y0077191D01*
X0136304Y0076937D01*
X0136199Y0077191D01*
X0135881Y0077666D01*
X0135477Y0078070D01*
X0135002Y0078388D01*
X0134473Y0078607D01*
X0133913Y0078718D01*
X0133351Y0078718D01*
X0133351Y0073178D01*
X0133351Y0073178D01*
X0133351Y0073178D01*
X0133351Y0067638D01*
X0133351Y0068937D02*
X0133351Y0068937D01*
X0133351Y0070536D02*
X0133351Y0070536D01*
X0133351Y0072134D02*
X0133351Y0072134D01*
X0133351Y0073178D02*
X0133351Y0073178D01*
X0136079Y0073178D01*
X0139257Y0073178D01*
X0139257Y0073178D01*
X0133351Y0073178D01*
X0133351Y0073733D02*
X0133351Y0073733D01*
X0133351Y0075332D02*
X0133351Y0075332D01*
X0133351Y0076930D02*
X0133351Y0076930D01*
X0133351Y0078529D02*
X0133351Y0078529D01*
X0132041Y0078529D02*
X0131900Y0078529D01*
X0131900Y0080127D02*
X0189500Y0080127D01*
X0189500Y0078529D02*
X0181906Y0078529D01*
X0181717Y0078607D02*
X0181157Y0078718D01*
X0180595Y0078718D01*
X0180034Y0078718D01*
X0179473Y0078607D01*
X0178945Y0078388D01*
X0178470Y0078070D01*
X0178065Y0077666D01*
X0177748Y0077191D01*
X0177643Y0076937D01*
X0177537Y0077191D01*
X0177220Y0077666D01*
X0176815Y0078070D01*
X0176340Y0078388D01*
X0175812Y0078607D01*
X0175251Y0078718D01*
X0174690Y0078718D01*
X0174690Y0073178D01*
X0180595Y0073178D01*
X0180595Y0073178D01*
X0177868Y0073178D01*
X0174690Y0073178D01*
X0174690Y0073178D01*
X0174690Y0073178D01*
X0174690Y0067638D01*
X0175251Y0067638D01*
X0175812Y0067749D01*
X0176340Y0067968D01*
X0176815Y0068286D01*
X0177220Y0068690D01*
X0177537Y0069165D01*
X0177643Y0069419D01*
X0177748Y0069165D01*
X0178065Y0068690D01*
X0178470Y0068286D01*
X0178945Y0067968D01*
X0179473Y0067749D01*
X0180034Y0067638D01*
X0180595Y0067638D01*
X0180595Y0073178D01*
X0180595Y0078718D01*
X0180595Y0073178D01*
X0180595Y0073178D01*
X0180595Y0073178D01*
X0180595Y0067638D01*
X0181157Y0067638D01*
X0181717Y0067749D01*
X0182246Y0067968D01*
X0182721Y0068286D01*
X0183125Y0068690D01*
X0183443Y0069165D01*
X0183662Y0069694D01*
X0183773Y0070254D01*
X0183773Y0073178D01*
X0183773Y0076102D01*
X0183662Y0076662D01*
X0183443Y0077191D01*
X0183125Y0077666D01*
X0182721Y0078070D01*
X0182246Y0078388D01*
X0181717Y0078607D01*
X0180595Y0078529D02*
X0180595Y0078529D01*
X0179285Y0078529D02*
X0176000Y0078529D01*
X0174690Y0078529D02*
X0174690Y0078529D01*
X0174690Y0078718D02*
X0174128Y0078718D01*
X0173568Y0078607D01*
X0173039Y0078388D01*
X0172564Y0078070D01*
X0172160Y0077666D01*
X0171842Y0077191D01*
X0171737Y0076937D01*
X0171632Y0077191D01*
X0171314Y0077666D01*
X0170910Y0078070D01*
X0170435Y0078388D01*
X0169906Y0078607D01*
X0169346Y0078718D01*
X0168784Y0078718D01*
X0168223Y0078718D01*
X0167662Y0078607D01*
X0167134Y0078388D01*
X0166659Y0078070D01*
X0166254Y0077666D01*
X0165937Y0077191D01*
X0165831Y0076937D01*
X0165726Y0077191D01*
X0165409Y0077666D01*
X0165004Y0078070D01*
X0164529Y0078388D01*
X0164001Y0078607D01*
X0163440Y0078718D01*
X0162879Y0078718D01*
X0162879Y0073178D01*
X0168784Y0073178D01*
X0168784Y0073178D01*
X0165606Y0073178D01*
X0162879Y0073178D01*
X0162879Y0073178D01*
X0162879Y0073178D01*
X0162879Y0067638D01*
X0163440Y0067638D01*
X0164001Y0067749D01*
X0164529Y0067968D01*
X0165004Y0068286D01*
X0165409Y0068690D01*
X0165726Y0069165D01*
X0165831Y0069419D01*
X0165937Y0069165D01*
X0166254Y0068690D01*
X0166659Y0068286D01*
X0167134Y0067968D01*
X0167662Y0067749D01*
X0168223Y0067638D01*
X0168784Y0067638D01*
X0168784Y0073178D01*
X0168784Y0078718D01*
X0168784Y0073178D01*
X0168784Y0073178D01*
X0168784Y0073178D01*
X0168784Y0067638D01*
X0169346Y0067638D01*
X0169906Y0067749D01*
X0170435Y0067968D01*
X0170910Y0068286D01*
X0171314Y0068690D01*
X0171632Y0069165D01*
X0171737Y0069419D01*
X0171842Y0069165D01*
X0172160Y0068690D01*
X0172564Y0068286D01*
X0173039Y0067968D01*
X0173568Y0067749D01*
X0174128Y0067638D01*
X0174690Y0067638D01*
X0174690Y0073178D01*
X0174690Y0073178D01*
X0174690Y0078718D01*
X0173379Y0078529D02*
X0170095Y0078529D01*
X0168784Y0078529D02*
X0168784Y0078529D01*
X0167474Y0078529D02*
X0164189Y0078529D01*
X0162879Y0078529D02*
X0162879Y0078529D01*
X0162879Y0078718D02*
X0162317Y0078718D01*
X0161757Y0078607D01*
X0161228Y0078388D01*
X0160753Y0078070D01*
X0160349Y0077666D01*
X0160031Y0077191D01*
X0159926Y0076937D01*
X0159821Y0077191D01*
X0159503Y0077666D01*
X0159099Y0078070D01*
X0158624Y0078388D01*
X0158095Y0078607D01*
X0157535Y0078718D01*
X0156973Y0078718D01*
X0156412Y0078718D01*
X0155851Y0078607D01*
X0155323Y0078388D01*
X0154847Y0078070D01*
X0154443Y0077666D01*
X0154126Y0077191D01*
X0154020Y0076937D01*
X0153915Y0077191D01*
X0153598Y0077666D01*
X0153193Y0078070D01*
X0152718Y0078388D01*
X0152190Y0078607D01*
X0151629Y0078718D01*
X0151068Y0078718D01*
X0151068Y0073178D01*
X0156973Y0073178D01*
X0156973Y0073178D01*
X0154246Y0073178D01*
X0151068Y0073178D01*
X0151068Y0073178D01*
X0151068Y0073178D01*
X0151068Y0067638D01*
X0151629Y0067638D01*
X0152190Y0067749D01*
X0152718Y0067968D01*
X0153193Y0068286D01*
X0153598Y0068690D01*
X0153915Y0069165D01*
X0154020Y0069419D01*
X0154126Y0069165D01*
X0154443Y0068690D01*
X0154847Y0068286D01*
X0155323Y0067968D01*
X0155851Y0067749D01*
X0156412Y0067638D01*
X0156973Y0067638D01*
X0156973Y0073178D01*
X0156973Y0078718D01*
X0156973Y0073178D01*
X0156973Y0073178D01*
X0156973Y0073178D01*
X0156973Y0067638D01*
X0157535Y0067638D01*
X0158095Y0067749D01*
X0158624Y0067968D01*
X0159099Y0068286D01*
X0159503Y0068690D01*
X0159821Y0069165D01*
X0159926Y0069419D01*
X0160031Y0069165D01*
X0160349Y0068690D01*
X0160753Y0068286D01*
X0161228Y0067968D01*
X0161757Y0067749D01*
X0162317Y0067638D01*
X0162879Y0067638D01*
X0162879Y0073178D01*
X0162879Y0073178D01*
X0162879Y0078718D01*
X0161568Y0078529D02*
X0158284Y0078529D01*
X0156973Y0078529D02*
X0156973Y0078529D01*
X0155663Y0078529D02*
X0152378Y0078529D01*
X0151068Y0078529D02*
X0151068Y0078529D01*
X0151068Y0078718D02*
X0150506Y0078718D01*
X0149946Y0078607D01*
X0149417Y0078388D01*
X0148942Y0078070D01*
X0148538Y0077666D01*
X0148220Y0077191D01*
X0148115Y0076937D01*
X0148010Y0077191D01*
X0147692Y0077666D01*
X0147288Y0078070D01*
X0146813Y0078388D01*
X0146284Y0078607D01*
X0145724Y0078718D01*
X0145162Y0078718D01*
X0145162Y0073178D01*
X0145162Y0073178D01*
X0145162Y0073178D01*
X0145162Y0067638D01*
X0145724Y0067638D01*
X0146284Y0067749D01*
X0146813Y0067968D01*
X0147288Y0068286D01*
X0147692Y0068690D01*
X0148010Y0069165D01*
X0148115Y0069419D01*
X0148220Y0069165D01*
X0148538Y0068690D01*
X0148942Y0068286D01*
X0149417Y0067968D01*
X0149946Y0067749D01*
X0150506Y0067638D01*
X0151068Y0067638D01*
X0151068Y0073178D01*
X0151068Y0073178D01*
X0151068Y0078718D01*
X0149757Y0078529D02*
X0146473Y0078529D01*
X0145162Y0078529D02*
X0145162Y0078529D01*
X0143852Y0078529D02*
X0140567Y0078529D01*
X0139257Y0078529D02*
X0139257Y0078529D01*
X0137946Y0078529D02*
X0134662Y0078529D01*
X0139257Y0076930D02*
X0139257Y0076930D01*
X0139257Y0075332D02*
X0139257Y0075332D01*
X0139257Y0073733D02*
X0139257Y0073733D01*
X0139257Y0072134D02*
X0139257Y0072134D01*
X0139257Y0070536D02*
X0139257Y0070536D01*
X0139257Y0068937D02*
X0139257Y0068937D01*
X0136561Y0068937D02*
X0136047Y0068937D01*
X0141952Y0068937D02*
X0142467Y0068937D01*
X0145162Y0068937D02*
X0145162Y0068937D01*
X0145162Y0070536D02*
X0145162Y0070536D01*
X0145162Y0072134D02*
X0145162Y0072134D01*
X0145162Y0073178D02*
X0145162Y0073178D01*
X0147890Y0073178D01*
X0151068Y0073178D01*
X0151068Y0073178D01*
X0145162Y0073178D01*
X0145162Y0073733D02*
X0145162Y0073733D01*
X0145162Y0075332D02*
X0145162Y0075332D01*
X0145162Y0076930D02*
X0145162Y0076930D01*
X0151068Y0076930D02*
X0151068Y0076930D01*
X0151068Y0075332D02*
X0151068Y0075332D01*
X0151068Y0073733D02*
X0151068Y0073733D01*
X0151068Y0072134D02*
X0151068Y0072134D01*
X0151068Y0070536D02*
X0151068Y0070536D01*
X0151068Y0068937D02*
X0151068Y0068937D01*
X0148372Y0068937D02*
X0147858Y0068937D01*
X0153763Y0068937D02*
X0154278Y0068937D01*
X0156973Y0068937D02*
X0156973Y0068937D01*
X0156973Y0070536D02*
X0156973Y0070536D01*
X0156973Y0072134D02*
X0156973Y0072134D01*
X0156973Y0073178D02*
X0156973Y0073178D01*
X0159701Y0073178D01*
X0162879Y0073178D01*
X0162879Y0073178D01*
X0156973Y0073178D01*
X0156973Y0073733D02*
X0156973Y0073733D01*
X0156973Y0075332D02*
X0156973Y0075332D01*
X0156973Y0076930D02*
X0156973Y0076930D01*
X0162879Y0076930D02*
X0162879Y0076930D01*
X0162879Y0075332D02*
X0162879Y0075332D01*
X0162879Y0073733D02*
X0162879Y0073733D01*
X0162879Y0072134D02*
X0162879Y0072134D01*
X0162879Y0070536D02*
X0162879Y0070536D01*
X0162879Y0068937D02*
X0162879Y0068937D01*
X0160183Y0068937D02*
X0159669Y0068937D01*
X0165574Y0068937D02*
X0166089Y0068937D01*
X0168784Y0068937D02*
X0168784Y0068937D01*
X0168784Y0070536D02*
X0168784Y0070536D01*
X0168784Y0072134D02*
X0168784Y0072134D01*
X0168784Y0073178D02*
X0168784Y0073178D01*
X0171512Y0073178D01*
X0174690Y0073178D01*
X0174690Y0073178D01*
X0168784Y0073178D01*
X0168784Y0073733D02*
X0168784Y0073733D01*
X0168784Y0075332D02*
X0168784Y0075332D01*
X0168784Y0076930D02*
X0168784Y0076930D01*
X0174690Y0076930D02*
X0174690Y0076930D01*
X0174690Y0075332D02*
X0174690Y0075332D01*
X0174690Y0073733D02*
X0174690Y0073733D01*
X0174690Y0072134D02*
X0174690Y0072134D01*
X0174690Y0070536D02*
X0174690Y0070536D01*
X0174690Y0068937D02*
X0174690Y0068937D01*
X0171994Y0068937D02*
X0171480Y0068937D01*
X0177385Y0068937D02*
X0177900Y0068937D01*
X0180595Y0068937D02*
X0180595Y0068937D01*
X0180595Y0070536D02*
X0180595Y0070536D01*
X0180595Y0072134D02*
X0180595Y0072134D01*
X0180595Y0073178D02*
X0180595Y0073178D01*
X0183773Y0073178D01*
X0180595Y0073178D01*
X0180595Y0073733D02*
X0180595Y0073733D01*
X0180595Y0075332D02*
X0180595Y0075332D01*
X0180595Y0076930D02*
X0180595Y0076930D01*
X0183551Y0076930D02*
X0189500Y0076930D01*
X0189500Y0075332D02*
X0183773Y0075332D01*
X0183773Y0073733D02*
X0189500Y0073733D01*
X0189500Y0072134D02*
X0183773Y0072134D01*
X0183773Y0070536D02*
X0189500Y0070536D01*
X0189500Y0068937D02*
X0183291Y0068937D01*
X0185516Y0067339D02*
X0185517Y0067339D01*
X0185516Y0065740D02*
X0185517Y0065740D01*
X0185517Y0064516D02*
X0185517Y0058611D01*
X0185517Y0055883D01*
X0185517Y0052706D01*
X0185516Y0052706D01*
X0185516Y0058611D01*
X0185516Y0058611D01*
X0185516Y0061339D01*
X0185516Y0064516D01*
X0185517Y0064516D01*
X0185516Y0064142D02*
X0185517Y0064142D01*
X0185516Y0062543D02*
X0185517Y0062543D01*
X0185516Y0060945D02*
X0185517Y0060945D01*
X0185516Y0059346D02*
X0185517Y0059346D01*
X0185517Y0058611D02*
X0185516Y0058611D01*
X0185517Y0058611D01*
X0185516Y0057748D02*
X0185517Y0057748D01*
X0185516Y0056149D02*
X0185517Y0056149D01*
X0185516Y0054551D02*
X0185517Y0054551D01*
X0185516Y0052952D02*
X0185517Y0052952D01*
X0185516Y0051354D02*
X0185517Y0051354D01*
X0185516Y0049755D02*
X0185517Y0049755D01*
X0185516Y0048157D02*
X0185517Y0048157D01*
X0185516Y0046558D02*
X0185517Y0046558D01*
X0185516Y0044960D02*
X0185517Y0044960D01*
X0185516Y0043361D02*
X0185517Y0043361D01*
X0185516Y0041763D02*
X0185517Y0041763D01*
X0185516Y0040164D02*
X0185517Y0040164D01*
X0185516Y0038566D02*
X0185517Y0038566D01*
X0185516Y0036967D02*
X0185517Y0036967D01*
X0185516Y0035369D02*
X0185517Y0035369D01*
X0185516Y0033770D02*
X0185517Y0033770D01*
X0185516Y0032172D02*
X0185517Y0032172D01*
X0185516Y0030573D02*
X0185517Y0030573D01*
X0185516Y0028975D02*
X0185517Y0028975D01*
X0185516Y0027376D02*
X0185517Y0027376D01*
X0162879Y0024179D02*
X0162879Y0024179D01*
X0162879Y0022581D02*
X0162879Y0022581D01*
X0162879Y0020982D02*
X0162879Y0020982D01*
X0162879Y0020422D02*
X0159701Y0020422D01*
X0156973Y0020422D01*
X0156973Y0020422D01*
X0162879Y0020422D01*
X0162879Y0020422D01*
X0162879Y0019384D02*
X0162879Y0019384D01*
X0162879Y0017785D02*
X0162879Y0017785D01*
X0162879Y0016187D02*
X0162879Y0016187D01*
X0160180Y0016187D02*
X0159672Y0016187D01*
X0156973Y0016187D02*
X0156973Y0016187D01*
X0154274Y0016187D02*
X0153766Y0016187D01*
X0151068Y0016187D02*
X0151068Y0016187D01*
X0148369Y0016187D02*
X0147861Y0016187D01*
X0145162Y0016187D02*
X0145162Y0016187D01*
X0142463Y0016187D02*
X0141955Y0016187D01*
X0139257Y0016187D02*
X0139257Y0016187D01*
X0136558Y0016187D02*
X0136050Y0016187D01*
X0133351Y0016187D02*
X0133351Y0016187D01*
X0130652Y0016187D02*
X0129662Y0016187D01*
X0133351Y0017785D02*
X0133351Y0017785D01*
X0133351Y0019384D02*
X0133351Y0019384D01*
X0133351Y0020422D02*
X0133351Y0020422D01*
X0139257Y0020422D01*
X0139257Y0020422D01*
X0136079Y0020422D01*
X0133351Y0020422D01*
X0133351Y0020982D02*
X0133351Y0020982D01*
X0133351Y0022581D02*
X0133351Y0022581D01*
X0133351Y0024179D02*
X0133351Y0024179D01*
X0139257Y0024179D02*
X0139257Y0024179D01*
X0139257Y0022581D02*
X0139257Y0022581D01*
X0139257Y0020982D02*
X0139257Y0020982D01*
X0139257Y0019384D02*
X0139257Y0019384D01*
X0139257Y0017785D02*
X0139257Y0017785D01*
X0145162Y0017785D02*
X0145162Y0017785D01*
X0145162Y0019384D02*
X0145162Y0019384D01*
X0145162Y0020422D02*
X0145162Y0020422D01*
X0151068Y0020422D01*
X0151068Y0020422D01*
X0147890Y0020422D01*
X0145162Y0020422D01*
X0145162Y0020982D02*
X0145162Y0020982D01*
X0145162Y0022581D02*
X0145162Y0022581D01*
X0145162Y0024179D02*
X0145162Y0024179D01*
X0151068Y0024179D02*
X0151068Y0024179D01*
X0151068Y0022581D02*
X0151068Y0022581D01*
X0151068Y0020982D02*
X0151068Y0020982D01*
X0151068Y0019384D02*
X0151068Y0019384D01*
X0151068Y0017785D02*
X0151068Y0017785D01*
X0156973Y0017785D02*
X0156973Y0017785D01*
X0156973Y0019384D02*
X0156973Y0019384D01*
X0156973Y0020982D02*
X0156973Y0020982D01*
X0156973Y0022581D02*
X0156973Y0022581D01*
X0156973Y0024179D02*
X0156973Y0024179D01*
X0189500Y0009793D02*
X0120737Y0009793D01*
X0121700Y0008194D02*
X0189500Y0008194D01*
X0189500Y0006596D02*
X0121700Y0006596D01*
X0121700Y0004997D02*
X0189500Y0004997D01*
X0114100Y0025778D02*
X0087582Y0025778D01*
X0089061Y0024179D02*
X0089492Y0024179D01*
X0082774Y0025778D02*
X0077300Y0025778D01*
X0077300Y0024179D02*
X0077681Y0024179D01*
X0077424Y0022581D02*
X0077300Y0022581D01*
X0077424Y0020982D02*
X0077074Y0020982D01*
X0077074Y0019384D02*
X0077424Y0019384D01*
X0077424Y0017785D02*
X0077074Y0017785D01*
X0076513Y0016187D02*
X0077985Y0016187D01*
X0082418Y0016187D02*
X0083408Y0016187D01*
X0086107Y0016187D02*
X0086107Y0016187D01*
X0086107Y0017785D02*
X0086107Y0017785D01*
X0086107Y0019384D02*
X0086107Y0019384D01*
X0086107Y0020422D02*
X0086107Y0020422D01*
X0089235Y0020422D01*
X0089235Y0020422D01*
X0086107Y0020422D01*
X0084372Y0027376D02*
X0077987Y0027376D01*
X0078350Y0028975D02*
X0085971Y0028975D01*
X0087569Y0030573D02*
X0077716Y0030573D01*
X0073700Y0032172D02*
X0089168Y0032172D01*
X0090250Y0033770D02*
X0073700Y0033770D01*
X0075716Y0035369D02*
X0090880Y0035369D01*
X0093963Y0036967D02*
X0077032Y0036967D01*
X0077570Y0038566D02*
X0095562Y0038566D01*
X0097160Y0040164D02*
X0079168Y0040164D01*
X0080767Y0041763D02*
X0098759Y0041763D01*
X0099750Y0043361D02*
X0082365Y0043361D01*
X0083964Y0044960D02*
X0098689Y0044960D01*
X0098820Y0046558D02*
X0085562Y0046558D01*
X0087161Y0048157D02*
X0099700Y0048157D01*
X0099700Y0049755D02*
X0088759Y0049755D01*
X0090358Y0051354D02*
X0099700Y0051354D01*
X0099700Y0052952D02*
X0090500Y0052952D01*
X0090500Y0054551D02*
X0099700Y0054551D01*
X0099700Y0056149D02*
X0090500Y0056149D01*
X0090500Y0057748D02*
X0099700Y0057748D01*
X0099700Y0059346D02*
X0090500Y0059346D01*
X0090500Y0060945D02*
X0099700Y0060945D01*
X0099700Y0062543D02*
X0090500Y0062543D01*
X0090500Y0064142D02*
X0099700Y0064142D01*
X0099700Y0065740D02*
X0093572Y0065740D01*
X0093950Y0067339D02*
X0099700Y0067339D01*
X0097918Y0068937D02*
X0097918Y0068937D01*
X0095223Y0068937D02*
X0094224Y0068937D01*
X0097918Y0070536D02*
X0097918Y0070536D01*
X0097918Y0072134D02*
X0097918Y0072134D01*
X0097918Y0073733D02*
X0097918Y0073733D01*
X0097918Y0075332D02*
X0097918Y0075332D01*
X0097918Y0076930D02*
X0097918Y0076930D01*
X0097918Y0078529D02*
X0097918Y0078529D01*
X0096608Y0078529D02*
X0090500Y0078529D01*
X0090500Y0080127D02*
X0099700Y0080127D01*
X0099700Y0078529D02*
X0099229Y0078529D01*
X0094963Y0076930D02*
X0094535Y0076930D01*
X0090500Y0081726D02*
X0099470Y0081726D01*
X0093346Y0083324D02*
X0090500Y0083324D01*
X0091700Y0084923D02*
X0091900Y0084923D01*
X0091900Y0086521D02*
X0091700Y0086521D01*
X0091700Y0088120D02*
X0091900Y0088120D01*
X0112507Y0073489D02*
X0112857Y0073139D01*
X0112857Y0070042D01*
X0113238Y0069123D01*
X0113942Y0068419D01*
X0114417Y0068222D01*
X0111700Y0065504D01*
X0111700Y0032900D01*
X0095687Y0032900D01*
X0095750Y0033053D01*
X0095750Y0033946D01*
X0106904Y0045100D01*
X0107900Y0046096D01*
X0107900Y0065050D01*
X0108547Y0065050D01*
X0109558Y0065469D01*
X0110331Y0066242D01*
X0110750Y0067253D01*
X0110750Y0068140D01*
X0111422Y0068419D01*
X0112126Y0069123D01*
X0112507Y0070042D01*
X0112507Y0073489D01*
X0112507Y0072134D02*
X0112857Y0072134D01*
X0112857Y0070536D02*
X0112507Y0070536D01*
X0111941Y0068937D02*
X0113423Y0068937D01*
X0113535Y0067339D02*
X0110750Y0067339D01*
X0109830Y0065740D02*
X0111936Y0065740D01*
X0111700Y0064142D02*
X0107900Y0064142D01*
X0107900Y0062543D02*
X0111700Y0062543D01*
X0111700Y0060945D02*
X0107900Y0060945D01*
X0107900Y0059346D02*
X0111700Y0059346D01*
X0111700Y0057748D02*
X0107900Y0057748D01*
X0107900Y0056149D02*
X0111700Y0056149D01*
X0111700Y0054551D02*
X0107900Y0054551D01*
X0107900Y0052952D02*
X0111700Y0052952D01*
X0111700Y0051354D02*
X0107900Y0051354D01*
X0107900Y0049755D02*
X0111700Y0049755D01*
X0111700Y0048157D02*
X0107900Y0048157D01*
X0107900Y0046558D02*
X0111700Y0046558D01*
X0111700Y0044960D02*
X0106764Y0044960D01*
X0105165Y0043361D02*
X0111700Y0043361D01*
X0111700Y0041763D02*
X0103567Y0041763D01*
X0101968Y0040164D02*
X0111700Y0040164D01*
X0111700Y0038566D02*
X0100370Y0038566D01*
X0098771Y0036967D02*
X0111700Y0036967D01*
X0111700Y0035369D02*
X0097173Y0035369D01*
X0095750Y0033770D02*
X0111700Y0033770D01*
X0114100Y0028975D02*
X0090779Y0028975D01*
X0089180Y0027376D02*
X0114100Y0027376D01*
X0113114Y0024179D02*
X0112250Y0024179D01*
X0112507Y0022581D02*
X0112857Y0022581D01*
X0112857Y0020982D02*
X0112507Y0020982D01*
X0106951Y0020982D02*
X0106602Y0020982D01*
X0106602Y0022581D02*
X0106951Y0022581D01*
X0107209Y0024179D02*
X0106344Y0024179D01*
X0061300Y0033770D02*
X0056300Y0033770D01*
X0056300Y0035369D02*
X0061300Y0035369D01*
X0061300Y0036967D02*
X0056300Y0036967D01*
X0055638Y0038566D02*
X0061300Y0038566D01*
X0061300Y0040164D02*
X0055393Y0040164D01*
X0055366Y0041763D02*
X0061300Y0041763D01*
X0061300Y0043361D02*
X0057450Y0043361D01*
X0057950Y0044960D02*
X0061300Y0044960D01*
X0061300Y0046558D02*
X0059162Y0046558D01*
X0060761Y0048157D02*
X0061300Y0048157D01*
X0058141Y0050345D02*
X0055546Y0047750D01*
X0055349Y0047750D01*
X0055315Y0047922D01*
X0055096Y0048450D01*
X0054779Y0048926D01*
X0054375Y0049330D01*
X0053899Y0049648D01*
X0053645Y0049753D01*
X0053899Y0049858D01*
X0054375Y0050176D01*
X0054779Y0050580D01*
X0055096Y0051055D01*
X0055315Y0051583D01*
X0055427Y0052144D01*
X0055427Y0052705D01*
X0049887Y0052705D01*
X0049886Y0052705D02*
X0044346Y0052705D01*
X0044346Y0052144D01*
X0044458Y0051583D01*
X0044677Y0051055D01*
X0044994Y0050580D01*
X0045399Y0050176D01*
X0045874Y0049858D01*
X0046128Y0049753D01*
X0045874Y0049648D01*
X0045399Y0049330D01*
X0044994Y0048926D01*
X0044677Y0048450D01*
X0044475Y0047962D01*
X0040984Y0047962D01*
X0040984Y0048331D01*
X0040616Y0048331D01*
X0040616Y0052112D01*
X0038595Y0052112D01*
X0038137Y0051989D01*
X0037726Y0051752D01*
X0037700Y0051726D01*
X0037700Y0055450D01*
X0038347Y0055450D01*
X0039358Y0055869D01*
X0040131Y0056642D01*
X0040550Y0057653D01*
X0040550Y0058747D01*
X0040131Y0059758D01*
X0039700Y0060189D01*
X0039700Y0062213D01*
X0040375Y0062888D01*
X0043348Y0062888D01*
X0044168Y0063708D01*
X0044168Y0069199D01*
X0043844Y0069523D01*
X0043874Y0069541D01*
X0044209Y0069876D01*
X0044352Y0070124D01*
X0044469Y0069842D01*
X0045242Y0069069D01*
X0046253Y0068650D01*
X0047347Y0068650D01*
X0048358Y0069069D01*
X0049131Y0069842D01*
X0049550Y0070853D01*
X0049550Y0071947D01*
X0049131Y0072958D01*
X0048500Y0073589D01*
X0048500Y0081900D01*
X0048830Y0081900D01*
X0051700Y0084770D01*
X0051700Y0088830D01*
X0051030Y0089500D01*
X0052570Y0089500D01*
X0051900Y0088830D01*
X0051900Y0084770D01*
X0054770Y0081900D01*
X0057100Y0081900D01*
X0057100Y0078718D01*
X0056580Y0078718D01*
X0056580Y0073178D01*
X0056579Y0073178D01*
X0056579Y0073178D01*
X0053402Y0073178D01*
X0053402Y0070254D01*
X0053513Y0069694D01*
X0053732Y0069165D01*
X0054050Y0068690D01*
X0054454Y0068286D01*
X0054929Y0067968D01*
X0055457Y0067749D01*
X0056018Y0067638D01*
X0056579Y0067638D01*
X0056579Y0073178D01*
X0053402Y0073178D01*
X0053402Y0076102D01*
X0053513Y0076662D01*
X0053732Y0077191D01*
X0054050Y0077666D01*
X0054454Y0078070D01*
X0054929Y0078388D01*
X0055457Y0078607D01*
X0056018Y0078718D01*
X0056579Y0078718D01*
X0056579Y0073178D01*
X0056580Y0073178D01*
X0056580Y0067638D01*
X0057141Y0067638D01*
X0057700Y0067749D01*
X0057700Y0054989D01*
X0057069Y0054358D01*
X0056650Y0053347D01*
X0056650Y0052253D01*
X0057069Y0051242D01*
X0057842Y0050469D01*
X0058141Y0050345D01*
X0057551Y0049755D02*
X0053652Y0049755D01*
X0055220Y0051354D02*
X0057022Y0051354D01*
X0056650Y0052952D02*
X0055427Y0052952D01*
X0054966Y0054551D02*
X0057262Y0054551D01*
X0057700Y0056149D02*
X0053786Y0056149D01*
X0054990Y0057748D02*
X0057700Y0057748D01*
X0057700Y0059346D02*
X0055027Y0059346D01*
X0054005Y0060945D02*
X0057700Y0060945D01*
X0057700Y0062543D02*
X0054881Y0062543D01*
X0055427Y0064142D02*
X0057700Y0064142D01*
X0057700Y0065740D02*
X0055273Y0065740D01*
X0053937Y0067339D02*
X0057700Y0067339D01*
X0056579Y0068937D02*
X0056580Y0068937D01*
X0053884Y0068937D02*
X0048041Y0068937D01*
X0045559Y0068937D02*
X0044168Y0068937D01*
X0044168Y0067339D02*
X0045836Y0067339D01*
X0044500Y0065740D02*
X0044168Y0065740D01*
X0044168Y0064142D02*
X0044346Y0064142D01*
X0044892Y0062543D02*
X0040030Y0062543D01*
X0039700Y0060945D02*
X0045768Y0060945D01*
X0043742Y0059346D02*
X0040302Y0059346D01*
X0040550Y0057748D02*
X0043059Y0057748D01*
X0042250Y0056149D02*
X0039638Y0056149D01*
X0037700Y0054551D02*
X0042541Y0054551D01*
X0044346Y0052952D02*
X0037700Y0052952D01*
X0040984Y0052112D02*
X0040984Y0048331D01*
X0044568Y0048331D01*
X0044568Y0050549D01*
X0044446Y0051007D01*
X0044209Y0051417D01*
X0043874Y0051752D01*
X0043463Y0051989D01*
X0043005Y0052112D01*
X0040984Y0052112D01*
X0040984Y0051354D02*
X0040616Y0051354D01*
X0040616Y0049755D02*
X0040984Y0049755D01*
X0040984Y0048157D02*
X0044555Y0048157D01*
X0044568Y0049755D02*
X0046122Y0049755D01*
X0044553Y0051354D02*
X0044245Y0051354D01*
X0049887Y0051354D02*
X0049887Y0051354D01*
X0049887Y0049755D02*
X0049887Y0049755D01*
X0049887Y0048157D02*
X0049887Y0048157D01*
X0049887Y0046558D02*
X0049887Y0046558D01*
X0049887Y0044960D02*
X0049887Y0044960D01*
X0049887Y0043361D02*
X0049887Y0043361D01*
X0049887Y0041763D02*
X0049887Y0041763D01*
X0055218Y0048157D02*
X0055953Y0048157D01*
X0055576Y0032172D02*
X0060368Y0032172D01*
X0058769Y0030573D02*
X0055163Y0030573D01*
X0055427Y0028975D02*
X0057700Y0028975D01*
X0057700Y0027376D02*
X0055058Y0027376D01*
X0049887Y0027376D02*
X0049887Y0027376D01*
X0049887Y0028975D02*
X0049887Y0028975D01*
X0016700Y0040164D02*
X0012100Y0040164D01*
X0011061Y0038566D02*
X0015941Y0038566D01*
X0016888Y0041763D02*
X0007000Y0041763D01*
X0012100Y0043361D02*
X0016888Y0043361D01*
X0017500Y0044960D02*
X0011136Y0044960D01*
X0009537Y0046558D02*
X0022300Y0046558D01*
X0022300Y0048157D02*
X0010086Y0048157D01*
X0011685Y0049755D02*
X0022300Y0049755D01*
X0022300Y0051354D02*
X0011700Y0051354D01*
X0011700Y0052952D02*
X0018184Y0052952D01*
X0021565Y0052952D02*
X0021736Y0052952D01*
X0021736Y0054551D02*
X0021565Y0054551D01*
X0017882Y0054551D02*
X0010979Y0054551D01*
X0009380Y0056149D02*
X0017882Y0056149D01*
X0017885Y0057748D02*
X0009678Y0057748D01*
X0011276Y0059346D02*
X0017062Y0059346D01*
X0016701Y0060945D02*
X0011700Y0060945D01*
X0011700Y0062543D02*
X0016701Y0062543D01*
X0016701Y0064142D02*
X0011900Y0064142D01*
X0011900Y0065740D02*
X0016701Y0065740D01*
X0020075Y0063800D02*
X0020075Y0063800D01*
X0004220Y0056149D02*
X0004100Y0056149D01*
X0040616Y0070019D02*
X0040616Y0072962D01*
X0040984Y0072962D01*
X0040984Y0070019D01*
X0040616Y0070019D01*
X0040616Y0070536D02*
X0040984Y0070536D01*
X0040984Y0072134D02*
X0040616Y0072134D01*
X0040984Y0072962D02*
X0044473Y0072962D01*
X0045100Y0073589D01*
X0045100Y0081900D01*
X0044770Y0081900D01*
X0041900Y0084770D01*
X0041900Y0088830D01*
X0042570Y0089500D01*
X0041030Y0089500D01*
X0041700Y0088830D01*
X0041700Y0084770D01*
X0038830Y0081900D01*
X0038300Y0081900D01*
X0038300Y0077033D01*
X0038595Y0077112D01*
X0040616Y0077112D01*
X0040616Y0073331D01*
X0040984Y0073331D01*
X0040984Y0077112D01*
X0043005Y0077112D01*
X0043463Y0076989D01*
X0043874Y0076752D01*
X0044209Y0076417D01*
X0044446Y0076007D01*
X0044568Y0075549D01*
X0044568Y0073331D01*
X0040984Y0073331D01*
X0040984Y0072962D01*
X0040984Y0073733D02*
X0040616Y0073733D01*
X0040616Y0075332D02*
X0040984Y0075332D01*
X0040984Y0076930D02*
X0040616Y0076930D01*
X0038300Y0078529D02*
X0045100Y0078529D01*
X0045100Y0076930D02*
X0043566Y0076930D01*
X0044568Y0075332D02*
X0045100Y0075332D01*
X0045100Y0073733D02*
X0044568Y0073733D01*
X0048500Y0073733D02*
X0053402Y0073733D01*
X0053402Y0072134D02*
X0049472Y0072134D01*
X0049419Y0070536D02*
X0053402Y0070536D01*
X0056579Y0070536D02*
X0056580Y0070536D01*
X0056579Y0072134D02*
X0056580Y0072134D01*
X0056579Y0073733D02*
X0056580Y0073733D01*
X0056579Y0075332D02*
X0056580Y0075332D01*
X0053402Y0075332D02*
X0048500Y0075332D01*
X0048500Y0076930D02*
X0053624Y0076930D01*
X0055269Y0078529D02*
X0048500Y0078529D01*
X0048500Y0080127D02*
X0057100Y0080127D01*
X0057100Y0081726D02*
X0048500Y0081726D01*
X0050254Y0083324D02*
X0053346Y0083324D01*
X0051900Y0084923D02*
X0051700Y0084923D01*
X0051700Y0086521D02*
X0051900Y0086521D01*
X0051900Y0088120D02*
X0051700Y0088120D01*
X0043346Y0083324D02*
X0040254Y0083324D01*
X0041700Y0084923D02*
X0041900Y0084923D01*
X0041900Y0086521D02*
X0041700Y0086521D01*
X0041700Y0088120D02*
X0041900Y0088120D01*
X0045100Y0081726D02*
X0038300Y0081726D01*
X0038300Y0080127D02*
X0045100Y0080127D01*
X0056579Y0078529D02*
X0056580Y0078529D01*
X0056579Y0076930D02*
X0056580Y0076930D01*
X0049887Y0067339D02*
X0049887Y0067339D01*
X0049887Y0065740D02*
X0049887Y0065740D01*
X0004294Y0027376D02*
X0004100Y0027376D01*
X0131900Y0081726D02*
X0189500Y0081726D01*
X0189500Y0083324D02*
X0131900Y0083324D01*
X0131700Y0084923D02*
X0189500Y0084923D01*
X0189500Y0086521D02*
X0131700Y0086521D01*
X0131700Y0088120D02*
X0189500Y0088120D01*
D20*
X0127446Y0073178D02*
X0127446Y0072600D01*
X0127200Y0072600D01*
X0118800Y0064200D01*
X0118800Y0025200D01*
X0101800Y0028800D02*
X0099800Y0026800D01*
X0089800Y0026800D01*
X0086800Y0023800D01*
X0086800Y0020422D01*
X0086107Y0020422D01*
X0062485Y0020422D02*
X0062400Y0020422D01*
X0062400Y0019800D01*
X0062400Y0011400D01*
X0061200Y0010200D01*
X0062400Y0019800D02*
X0062400Y0020400D01*
X0062485Y0020422D02*
X0062485Y0021000D01*
X0062400Y0021000D01*
X0061800Y0021600D01*
X0061800Y0027600D01*
X0056400Y0030000D02*
X0056400Y0037800D01*
X0049800Y0044400D01*
X0049800Y0041400D01*
X0049800Y0044400D02*
X0049800Y0048000D01*
X0049800Y0052200D01*
X0045000Y0049200D02*
X0045000Y0048000D01*
X0040800Y0048000D01*
X0040800Y0048146D01*
X0045000Y0048000D02*
X0049800Y0048000D01*
X0040800Y0041454D02*
X0040800Y0036600D01*
X0032400Y0036600D02*
X0027600Y0041400D01*
X0027146Y0041800D01*
X0027600Y0042000D01*
X0027600Y0048000D01*
X0033600Y0054000D01*
X0037800Y0058200D02*
X0037800Y0063000D01*
X0040800Y0066000D01*
X0040800Y0066454D01*
X0040800Y0072600D02*
X0048600Y0064800D01*
X0049800Y0064800D01*
X0049800Y0064517D01*
X0049887Y0064517D01*
X0040800Y0072600D02*
X0040800Y0073146D01*
X0020400Y0063600D02*
X0020076Y0063800D01*
X0020400Y0063600D02*
X0020400Y0057000D01*
X0021600Y0055800D01*
X0021650Y0055729D01*
X0021000Y0055800D01*
X0011100Y0045900D01*
X0011400Y0045600D01*
X0011400Y0011400D01*
X0006800Y0006800D01*
X0026800Y0006800D02*
X0027000Y0007200D01*
X0027000Y0015600D01*
X0028800Y0017400D01*
X0040934Y0021800D02*
X0041400Y0022200D01*
X0041400Y0029400D01*
X0040934Y0029800D01*
X0041400Y0029400D02*
X0049800Y0029400D01*
X0050400Y0028800D02*
X0050400Y0027000D01*
X0051900Y0025500D01*
X0056400Y0030000D01*
X0051900Y0025500D02*
X0056400Y0021000D01*
X0024000Y0033000D02*
X0024000Y0033600D01*
X0024000Y0033000D02*
X0021000Y0030000D01*
X0020454Y0029800D01*
X0018600Y0037800D02*
X0018600Y0039600D01*
X0020400Y0041400D01*
X0020454Y0041800D01*
X0011100Y0045900D02*
X0007200Y0042000D01*
X0006800Y0041800D01*
X0127800Y0013800D02*
X0131800Y0013800D01*
X0135800Y0013800D01*
X0139200Y0013800D01*
X0139800Y0013800D01*
X0143800Y0013800D01*
X0147800Y0013800D01*
X0151800Y0013800D01*
X0155800Y0013800D01*
X0159800Y0013800D01*
X0163800Y0013800D01*
X0167800Y0013800D01*
X0171800Y0013800D01*
X0175800Y0013800D01*
X0179800Y0013800D01*
X0183800Y0013800D01*
X0187800Y0013800D01*
X0139200Y0013800D02*
X0139200Y0020400D01*
M02*
