G75*
%MOIN*%
%OFA0B0*%
%FSLAX25Y25*%
%IPPOS*%
%LPD*%
%AMOC8*
5,1,8,0,0,1.08239X$1,22.5*
%
%ADD10C,0.00000*%
%ADD11C,0.00400*%
%ADD12C,0.01000*%
%ADD13C,0.00500*%
%ADD14C,0.00600*%
%ADD15R,0.02000X0.02000*%
%ADD16C,0.00040*%
%ADD17R,0.01969X0.01280*%
%ADD18R,0.00984X0.00591*%
%ADD19R,0.00689X0.01575*%
%ADD20R,0.00787X0.00787*%
%ADD21R,0.01181X0.01181*%
%ADD22R,0.00295X0.00886*%
%ADD23R,0.01969X0.03740*%
%ADD24R,0.01800X0.03000*%
%ADD25C,0.00200*%
%ADD26C,0.02200*%
%ADD27R,0.03740X0.01969*%
%ADD28C,0.00800*%
%ADD29C,0.00300*%
%ADD30R,0.05906X0.31496*%
D10*
X0001800Y0001800D02*
X0001800Y0091800D01*
X0191800Y0091800D01*
X0191800Y0001800D01*
X0001800Y0001800D01*
D11*
X0003687Y0013000D02*
X0004461Y0013000D01*
X0004848Y0013387D01*
X0004848Y0014161D01*
X0004074Y0014161D01*
X0004848Y0014935D02*
X0004461Y0015322D01*
X0003687Y0015322D01*
X0003300Y0014935D01*
X0003300Y0013387D01*
X0003687Y0013000D01*
X0005805Y0013000D02*
X0005805Y0015322D01*
X0007353Y0013000D01*
X0007353Y0015322D01*
X0008309Y0015322D02*
X0009470Y0015322D01*
X0009857Y0014935D01*
X0009857Y0013387D01*
X0009470Y0013000D01*
X0008309Y0013000D01*
X0008309Y0015322D01*
X0013318Y0014935D02*
X0013705Y0015322D01*
X0014479Y0015322D01*
X0014866Y0014935D01*
X0014866Y0014548D01*
X0014479Y0014161D01*
X0014866Y0013774D01*
X0014866Y0013387D01*
X0014479Y0013000D01*
X0013705Y0013000D01*
X0013318Y0013387D01*
X0014092Y0014161D02*
X0014479Y0014161D01*
X0015823Y0013774D02*
X0016597Y0013000D01*
X0017371Y0013774D01*
X0017371Y0015322D01*
X0018327Y0014935D02*
X0018714Y0015322D01*
X0019488Y0015322D01*
X0019875Y0014935D01*
X0019875Y0014548D01*
X0019488Y0014161D01*
X0019875Y0013774D01*
X0019875Y0013387D01*
X0019488Y0013000D01*
X0018714Y0013000D01*
X0018327Y0013387D01*
X0019101Y0014161D02*
X0019488Y0014161D01*
X0015823Y0013774D02*
X0015823Y0015322D01*
X0014935Y0018652D02*
X0015322Y0019039D01*
X0015322Y0019813D01*
X0014935Y0020200D01*
X0014548Y0020200D01*
X0014161Y0019813D01*
X0014161Y0019039D01*
X0013774Y0018652D01*
X0013387Y0018652D01*
X0013000Y0019039D01*
X0013000Y0019813D01*
X0013387Y0020200D01*
X0015322Y0021157D02*
X0015322Y0022705D01*
X0015322Y0021931D02*
X0013000Y0021931D01*
X0013387Y0023661D02*
X0013000Y0024048D01*
X0013000Y0024822D01*
X0013387Y0025209D01*
X0014935Y0025209D01*
X0015322Y0024822D01*
X0015322Y0024048D01*
X0014935Y0023661D01*
X0022398Y0023501D02*
X0025202Y0023501D01*
X0025202Y0020150D02*
X0022398Y0020150D01*
X0023336Y0015322D02*
X0023336Y0013774D01*
X0024110Y0013000D01*
X0024884Y0013774D01*
X0024884Y0015322D01*
X0025841Y0015322D02*
X0027002Y0015322D01*
X0027389Y0014935D01*
X0027389Y0014161D01*
X0027002Y0013774D01*
X0025841Y0013774D01*
X0025841Y0013000D02*
X0025841Y0015322D01*
X0028345Y0014548D02*
X0029119Y0015322D01*
X0029893Y0014548D01*
X0029893Y0013000D01*
X0028345Y0013000D02*
X0028345Y0014548D01*
X0028345Y0014161D02*
X0029893Y0014161D01*
X0033354Y0013774D02*
X0034515Y0013774D01*
X0034902Y0014161D01*
X0034902Y0014935D01*
X0034515Y0015322D01*
X0033354Y0015322D01*
X0033354Y0013000D01*
X0034128Y0013774D02*
X0034902Y0013000D01*
X0035859Y0013000D02*
X0037407Y0013000D01*
X0038364Y0013387D02*
X0038751Y0013000D01*
X0039525Y0013000D01*
X0039912Y0013387D01*
X0039912Y0013774D01*
X0039525Y0014161D01*
X0038751Y0014161D01*
X0038364Y0014548D01*
X0038364Y0014935D01*
X0038751Y0015322D01*
X0039525Y0015322D01*
X0039912Y0014935D01*
X0037407Y0015322D02*
X0035859Y0015322D01*
X0035859Y0013000D01*
X0035859Y0014161D02*
X0036633Y0014161D01*
X0043373Y0014548D02*
X0043760Y0014161D01*
X0044534Y0014161D01*
X0044921Y0013774D01*
X0044921Y0013387D01*
X0044534Y0013000D01*
X0043760Y0013000D01*
X0043373Y0013387D01*
X0043373Y0014548D02*
X0043373Y0014935D01*
X0043760Y0015322D01*
X0044534Y0015322D01*
X0044921Y0014935D01*
X0045877Y0014935D02*
X0045877Y0015322D01*
X0045877Y0014935D02*
X0046651Y0014161D01*
X0046651Y0013000D01*
X0048382Y0013000D02*
X0048382Y0015322D01*
X0049930Y0013000D01*
X0049930Y0015322D01*
X0047425Y0015322D02*
X0047425Y0014935D01*
X0046651Y0014161D01*
X0053391Y0013387D02*
X0053778Y0013000D01*
X0054552Y0013000D01*
X0054939Y0013387D01*
X0055895Y0013000D02*
X0057443Y0013000D01*
X0058400Y0013000D02*
X0058400Y0015322D01*
X0058787Y0014161D02*
X0059948Y0013000D01*
X0058400Y0013774D02*
X0059948Y0015322D01*
X0063409Y0014935D02*
X0063409Y0013387D01*
X0063796Y0013000D01*
X0064570Y0013000D01*
X0064957Y0013387D01*
X0064957Y0014935D01*
X0064570Y0015322D01*
X0063796Y0015322D01*
X0063409Y0014935D01*
X0065913Y0015322D02*
X0065913Y0013387D01*
X0066300Y0013000D01*
X0067074Y0013000D01*
X0067461Y0013387D01*
X0067461Y0015322D01*
X0068418Y0015322D02*
X0069966Y0015322D01*
X0069192Y0015322D02*
X0069192Y0013000D01*
X0075300Y0013000D02*
X0076074Y0013000D01*
X0075687Y0013000D02*
X0075687Y0015322D01*
X0075300Y0015322D02*
X0076074Y0015322D01*
X0076970Y0015322D02*
X0078518Y0013000D01*
X0078518Y0015322D01*
X0076970Y0015322D02*
X0076970Y0013000D01*
X0083445Y0013387D02*
X0083832Y0013000D01*
X0084606Y0013000D01*
X0084993Y0013387D01*
X0085950Y0013387D02*
X0086337Y0013000D01*
X0087111Y0013000D01*
X0087498Y0013387D01*
X0087498Y0013774D01*
X0087111Y0014161D01*
X0086337Y0014161D01*
X0085950Y0014548D01*
X0085950Y0014935D01*
X0086337Y0015322D01*
X0087111Y0015322D01*
X0087498Y0014935D01*
X0088454Y0015322D02*
X0089615Y0015322D01*
X0090002Y0014935D01*
X0090002Y0014548D01*
X0089615Y0014161D01*
X0088454Y0014161D01*
X0088454Y0013000D02*
X0088454Y0015322D01*
X0089615Y0014161D02*
X0090002Y0013774D01*
X0090002Y0013387D01*
X0089615Y0013000D01*
X0088454Y0013000D01*
X0084993Y0014935D02*
X0084606Y0015322D01*
X0083832Y0015322D01*
X0083445Y0014935D01*
X0083445Y0013387D01*
X0093463Y0013387D02*
X0093850Y0013000D01*
X0094624Y0013000D01*
X0095011Y0013387D01*
X0095011Y0013774D01*
X0094624Y0014161D01*
X0093850Y0014161D01*
X0093463Y0014548D01*
X0093463Y0014935D01*
X0093850Y0015322D01*
X0094624Y0015322D01*
X0095011Y0014935D01*
X0095968Y0014935D02*
X0095968Y0013387D01*
X0096355Y0013000D01*
X0097129Y0013000D01*
X0097516Y0013387D01*
X0098473Y0013774D02*
X0100020Y0015322D01*
X0098473Y0015322D02*
X0098473Y0013000D01*
X0098860Y0014161D02*
X0100020Y0013000D01*
X0102600Y0013000D02*
X0102600Y0015322D01*
X0103374Y0014548D01*
X0104148Y0015322D01*
X0104148Y0013000D01*
X0105105Y0013000D02*
X0105879Y0013000D01*
X0105492Y0013000D02*
X0105492Y0015322D01*
X0105105Y0015322D02*
X0105879Y0015322D01*
X0106774Y0014935D02*
X0106774Y0014548D01*
X0107161Y0014161D01*
X0107935Y0014161D01*
X0108322Y0013774D01*
X0108322Y0013387D01*
X0107935Y0013000D01*
X0107161Y0013000D01*
X0106774Y0013387D01*
X0106774Y0014935D02*
X0107161Y0015322D01*
X0107935Y0015322D01*
X0108322Y0014935D01*
X0109279Y0014935D02*
X0109279Y0013387D01*
X0109666Y0013000D01*
X0110440Y0013000D01*
X0110827Y0013387D01*
X0110827Y0014935D01*
X0110440Y0015322D01*
X0109666Y0015322D01*
X0109279Y0014935D01*
X0112700Y0015322D02*
X0112700Y0013000D01*
X0114248Y0013000D02*
X0114248Y0015322D01*
X0113474Y0014548D01*
X0112700Y0015322D01*
X0115205Y0014935D02*
X0115205Y0013387D01*
X0115592Y0013000D01*
X0116366Y0013000D01*
X0116753Y0013387D01*
X0116753Y0014935D01*
X0116366Y0015322D01*
X0115592Y0015322D01*
X0115205Y0014935D01*
X0117709Y0014935D02*
X0118096Y0015322D01*
X0118870Y0015322D01*
X0119257Y0014935D01*
X0118870Y0014161D02*
X0119257Y0013774D01*
X0119257Y0013387D01*
X0118870Y0013000D01*
X0118096Y0013000D01*
X0117709Y0013387D01*
X0118096Y0014161D02*
X0118870Y0014161D01*
X0118096Y0014161D02*
X0117709Y0014548D01*
X0117709Y0014935D01*
X0120214Y0015322D02*
X0120988Y0015322D01*
X0120601Y0015322D02*
X0120601Y0013000D01*
X0120214Y0013000D02*
X0120988Y0013000D01*
X0097516Y0014935D02*
X0097129Y0015322D01*
X0096355Y0015322D01*
X0095968Y0014935D01*
X0055895Y0015322D02*
X0055895Y0013000D01*
X0053391Y0013387D02*
X0053391Y0014935D01*
X0053778Y0015322D01*
X0054552Y0015322D01*
X0054939Y0014935D01*
X0038867Y0019536D02*
X0034733Y0019536D01*
X0034831Y0024064D02*
X0040442Y0024064D01*
X0039740Y0023572D02*
X0039742Y0023612D01*
X0039748Y0023651D01*
X0039757Y0023690D01*
X0039771Y0023727D01*
X0039788Y0023763D01*
X0039808Y0023798D01*
X0039832Y0023830D01*
X0039859Y0023859D01*
X0039888Y0023886D01*
X0039920Y0023910D01*
X0039955Y0023930D01*
X0039991Y0023947D01*
X0040028Y0023961D01*
X0040067Y0023970D01*
X0040106Y0023976D01*
X0040146Y0023978D01*
X0040186Y0023976D01*
X0040225Y0023970D01*
X0040264Y0023961D01*
X0040301Y0023947D01*
X0040337Y0023930D01*
X0040372Y0023910D01*
X0040404Y0023886D01*
X0040433Y0023859D01*
X0040460Y0023830D01*
X0040484Y0023798D01*
X0040504Y0023763D01*
X0040521Y0023727D01*
X0040535Y0023690D01*
X0040544Y0023651D01*
X0040550Y0023612D01*
X0040552Y0023572D01*
X0040550Y0023532D01*
X0040544Y0023493D01*
X0040535Y0023454D01*
X0040521Y0023417D01*
X0040504Y0023381D01*
X0040484Y0023346D01*
X0040460Y0023314D01*
X0040433Y0023285D01*
X0040404Y0023258D01*
X0040372Y0023234D01*
X0040337Y0023214D01*
X0040301Y0023197D01*
X0040264Y0023183D01*
X0040225Y0023174D01*
X0040186Y0023168D01*
X0040146Y0023166D01*
X0040106Y0023168D01*
X0040067Y0023174D01*
X0040028Y0023183D01*
X0039991Y0023197D01*
X0039955Y0023214D01*
X0039920Y0023234D01*
X0039888Y0023258D01*
X0039859Y0023285D01*
X0039832Y0023314D01*
X0039808Y0023346D01*
X0039788Y0023381D01*
X0039771Y0023417D01*
X0039757Y0023454D01*
X0039748Y0023493D01*
X0039742Y0023532D01*
X0039740Y0023572D01*
X0038754Y0025000D02*
X0038087Y0025667D01*
X0038421Y0025667D02*
X0037420Y0025667D01*
X0037420Y0025000D02*
X0037420Y0027002D01*
X0038421Y0027002D01*
X0038754Y0026668D01*
X0038754Y0026001D01*
X0038421Y0025667D01*
X0036544Y0025667D02*
X0036544Y0025334D01*
X0036211Y0025000D01*
X0035543Y0025000D01*
X0035210Y0025334D01*
X0035543Y0026001D02*
X0035210Y0026334D01*
X0035210Y0026668D01*
X0035543Y0027002D01*
X0036211Y0027002D01*
X0036544Y0026668D01*
X0036211Y0026001D02*
X0036544Y0025667D01*
X0036211Y0026001D02*
X0035543Y0026001D01*
X0034334Y0025334D02*
X0034001Y0025000D01*
X0033334Y0025000D01*
X0033000Y0025334D01*
X0033000Y0027002D01*
X0034334Y0027002D02*
X0034334Y0025334D01*
X0034733Y0027536D02*
X0038867Y0027536D01*
X0039740Y0031572D02*
X0039742Y0031612D01*
X0039748Y0031651D01*
X0039757Y0031690D01*
X0039771Y0031727D01*
X0039788Y0031763D01*
X0039808Y0031798D01*
X0039832Y0031830D01*
X0039859Y0031859D01*
X0039888Y0031886D01*
X0039920Y0031910D01*
X0039955Y0031930D01*
X0039991Y0031947D01*
X0040028Y0031961D01*
X0040067Y0031970D01*
X0040106Y0031976D01*
X0040146Y0031978D01*
X0040186Y0031976D01*
X0040225Y0031970D01*
X0040264Y0031961D01*
X0040301Y0031947D01*
X0040337Y0031930D01*
X0040372Y0031910D01*
X0040404Y0031886D01*
X0040433Y0031859D01*
X0040460Y0031830D01*
X0040484Y0031798D01*
X0040504Y0031763D01*
X0040521Y0031727D01*
X0040535Y0031690D01*
X0040544Y0031651D01*
X0040550Y0031612D01*
X0040552Y0031572D01*
X0040550Y0031532D01*
X0040544Y0031493D01*
X0040535Y0031454D01*
X0040521Y0031417D01*
X0040504Y0031381D01*
X0040484Y0031346D01*
X0040460Y0031314D01*
X0040433Y0031285D01*
X0040404Y0031258D01*
X0040372Y0031234D01*
X0040337Y0031214D01*
X0040301Y0031197D01*
X0040264Y0031183D01*
X0040225Y0031174D01*
X0040186Y0031168D01*
X0040146Y0031166D01*
X0040106Y0031168D01*
X0040067Y0031174D01*
X0040028Y0031183D01*
X0039991Y0031197D01*
X0039955Y0031214D01*
X0039920Y0031234D01*
X0039888Y0031258D01*
X0039859Y0031285D01*
X0039832Y0031314D01*
X0039808Y0031346D01*
X0039788Y0031381D01*
X0039771Y0031417D01*
X0039757Y0031454D01*
X0039748Y0031493D01*
X0039742Y0031532D01*
X0039740Y0031572D01*
X0040442Y0032064D02*
X0034831Y0032064D01*
X0035210Y0033000D02*
X0035877Y0033667D01*
X0036544Y0033000D01*
X0036544Y0035002D01*
X0037420Y0035002D02*
X0038421Y0035002D01*
X0038754Y0034668D01*
X0038754Y0034001D01*
X0038421Y0033667D01*
X0037420Y0033667D01*
X0038087Y0033667D02*
X0038754Y0033000D01*
X0037420Y0033000D02*
X0037420Y0035002D01*
X0035210Y0035002D02*
X0035210Y0033000D01*
X0034334Y0034001D02*
X0034001Y0033667D01*
X0033000Y0033667D01*
X0033000Y0033000D02*
X0033000Y0035002D01*
X0034001Y0035002D01*
X0034334Y0034668D01*
X0034334Y0034001D01*
X0025202Y0031501D02*
X0022398Y0031501D01*
X0022398Y0028150D02*
X0025202Y0028150D01*
X0015322Y0029057D02*
X0014935Y0028670D01*
X0014548Y0028670D01*
X0014161Y0029057D01*
X0013774Y0028670D01*
X0013387Y0028670D01*
X0013000Y0029057D01*
X0013000Y0029831D01*
X0013387Y0030218D01*
X0013774Y0031175D02*
X0015322Y0031175D01*
X0014935Y0030218D02*
X0015322Y0029831D01*
X0015322Y0029057D01*
X0014161Y0029057D02*
X0014161Y0029444D01*
X0013774Y0031175D02*
X0013000Y0031949D01*
X0013774Y0032723D01*
X0015322Y0032723D01*
X0014935Y0033679D02*
X0014548Y0033679D01*
X0014161Y0034066D01*
X0013774Y0033679D01*
X0013387Y0033679D01*
X0013000Y0034066D01*
X0013000Y0034840D01*
X0013387Y0035227D01*
X0014161Y0034453D02*
X0014161Y0034066D01*
X0014935Y0033679D02*
X0015322Y0034066D01*
X0015322Y0034840D01*
X0014935Y0035227D01*
X0014935Y0038688D02*
X0013387Y0038688D01*
X0013000Y0039075D01*
X0013000Y0040236D01*
X0015322Y0040236D01*
X0015322Y0039075D01*
X0014935Y0038688D01*
X0015322Y0041193D02*
X0013000Y0041193D01*
X0015322Y0042741D01*
X0013000Y0042741D01*
X0013387Y0043698D02*
X0014161Y0043698D01*
X0014161Y0044472D01*
X0014935Y0045246D02*
X0015322Y0044859D01*
X0015322Y0044085D01*
X0014935Y0043698D01*
X0013387Y0043698D02*
X0013000Y0044085D01*
X0013000Y0044859D01*
X0013387Y0045246D01*
X0014935Y0045246D01*
X0014935Y0048707D02*
X0013387Y0048707D01*
X0013000Y0049094D01*
X0013000Y0050255D01*
X0015322Y0050255D01*
X0015322Y0049094D01*
X0014935Y0048707D01*
X0015322Y0051211D02*
X0013000Y0052759D01*
X0013000Y0051211D02*
X0015322Y0052759D01*
X0015322Y0053716D02*
X0015322Y0055264D01*
X0015322Y0054490D02*
X0013000Y0054490D01*
X0013387Y0058725D02*
X0014935Y0058725D01*
X0015322Y0059112D01*
X0015322Y0060273D01*
X0013000Y0060273D01*
X0013000Y0059112D01*
X0013387Y0058725D01*
X0013000Y0061229D02*
X0015322Y0062777D01*
X0014935Y0063734D02*
X0014161Y0063734D01*
X0013774Y0064121D01*
X0013774Y0065282D01*
X0013000Y0065282D02*
X0015322Y0065282D01*
X0015322Y0064121D01*
X0014935Y0063734D01*
X0013774Y0064508D02*
X0013000Y0063734D01*
X0013000Y0062777D02*
X0015322Y0061229D01*
X0014935Y0068743D02*
X0015322Y0069130D01*
X0015322Y0069904D01*
X0014935Y0070291D01*
X0014548Y0070291D01*
X0014161Y0069904D01*
X0014161Y0069130D01*
X0013774Y0068743D01*
X0013387Y0068743D01*
X0013000Y0069130D01*
X0013000Y0069904D01*
X0013387Y0070291D01*
X0013000Y0072021D02*
X0015322Y0072021D01*
X0015322Y0072795D02*
X0015322Y0071247D01*
X0014935Y0073752D02*
X0014161Y0073752D01*
X0013774Y0074139D01*
X0013774Y0075300D01*
X0013774Y0074526D02*
X0013000Y0073752D01*
X0014935Y0073752D02*
X0015322Y0074139D01*
X0015322Y0075300D01*
X0013000Y0075300D01*
X0014318Y0078000D02*
X0015479Y0078000D01*
X0015866Y0078387D01*
X0015866Y0079935D01*
X0015479Y0080322D01*
X0014318Y0080322D01*
X0014318Y0078000D01*
X0016823Y0079161D02*
X0018371Y0079161D01*
X0017597Y0079935D02*
X0017597Y0078387D01*
X0023300Y0078000D02*
X0023300Y0080322D01*
X0024461Y0080322D01*
X0024848Y0079935D01*
X0024848Y0079161D01*
X0024461Y0078774D01*
X0023300Y0078774D01*
X0024074Y0078774D02*
X0024848Y0078000D01*
X0025805Y0078000D02*
X0027353Y0080322D01*
X0028309Y0080322D02*
X0029470Y0080322D01*
X0029857Y0079935D01*
X0029857Y0078387D01*
X0029470Y0078000D01*
X0028309Y0078000D01*
X0028309Y0080322D01*
X0025805Y0080322D02*
X0027353Y0078000D01*
X0033318Y0078387D02*
X0033705Y0078000D01*
X0034479Y0078000D01*
X0034866Y0078387D01*
X0033318Y0078387D02*
X0033318Y0079935D01*
X0033705Y0080322D01*
X0034479Y0080322D01*
X0034866Y0079935D01*
X0035823Y0080322D02*
X0037371Y0080322D01*
X0036597Y0080322D02*
X0036597Y0078000D01*
X0038327Y0078387D02*
X0038714Y0078000D01*
X0039488Y0078000D01*
X0039875Y0078387D01*
X0039875Y0078774D01*
X0039488Y0079161D01*
X0038714Y0079161D01*
X0038327Y0079548D01*
X0038327Y0079935D01*
X0038714Y0080322D01*
X0039488Y0080322D01*
X0039875Y0079935D01*
X0043336Y0080322D02*
X0043336Y0078000D01*
X0043336Y0078774D02*
X0044497Y0078774D01*
X0044884Y0079161D01*
X0044884Y0079935D01*
X0044497Y0080322D01*
X0043336Y0080322D01*
X0044110Y0078774D02*
X0044884Y0078000D01*
X0046615Y0078000D02*
X0046615Y0080322D01*
X0045841Y0080322D02*
X0047389Y0080322D01*
X0048345Y0079935D02*
X0048345Y0079548D01*
X0048732Y0079161D01*
X0049506Y0079161D01*
X0049893Y0078774D01*
X0049893Y0078387D01*
X0049506Y0078000D01*
X0048732Y0078000D01*
X0048345Y0078387D01*
X0048345Y0079935D02*
X0048732Y0080322D01*
X0049506Y0080322D01*
X0049893Y0079935D01*
X0053354Y0080322D02*
X0054902Y0080322D01*
X0054128Y0080322D02*
X0054128Y0078000D01*
X0055859Y0078000D02*
X0057407Y0080322D01*
X0058364Y0080322D02*
X0059525Y0080322D01*
X0059912Y0079935D01*
X0059912Y0078387D01*
X0059525Y0078000D01*
X0058364Y0078000D01*
X0058364Y0080322D01*
X0055859Y0080322D02*
X0057407Y0078000D01*
X0065000Y0078000D02*
X0065000Y0080322D01*
X0066161Y0080322D01*
X0066548Y0079935D01*
X0066548Y0079161D01*
X0066161Y0078774D01*
X0065000Y0078774D01*
X0067505Y0078000D02*
X0069053Y0079548D01*
X0069053Y0079935D01*
X0068666Y0080322D01*
X0067892Y0080322D01*
X0067505Y0079935D01*
X0067505Y0078000D02*
X0069053Y0078000D01*
X0075018Y0078000D02*
X0075018Y0080322D01*
X0076179Y0080322D01*
X0076566Y0079935D01*
X0076566Y0079161D01*
X0076179Y0078774D01*
X0075018Y0078774D01*
X0077523Y0078387D02*
X0077910Y0078000D01*
X0078684Y0078000D01*
X0079071Y0078387D01*
X0079071Y0078774D01*
X0078684Y0079161D01*
X0078297Y0079161D01*
X0078684Y0079161D02*
X0079071Y0079548D01*
X0079071Y0079935D01*
X0078684Y0080322D01*
X0077910Y0080322D01*
X0077523Y0079935D01*
X0085036Y0080322D02*
X0085036Y0078000D01*
X0085036Y0078774D02*
X0086197Y0078774D01*
X0086584Y0079161D01*
X0086584Y0079935D01*
X0086197Y0080322D01*
X0085036Y0080322D01*
X0087541Y0079161D02*
X0089089Y0079161D01*
X0088702Y0078000D02*
X0088702Y0080322D01*
X0087541Y0079161D01*
X0095054Y0078774D02*
X0096215Y0078774D01*
X0096602Y0079161D01*
X0096602Y0079935D01*
X0096215Y0080322D01*
X0095054Y0080322D01*
X0095054Y0078000D01*
X0097559Y0078387D02*
X0097946Y0078000D01*
X0098720Y0078000D01*
X0099107Y0078387D01*
X0099107Y0079161D01*
X0098720Y0079548D01*
X0098333Y0079548D01*
X0097559Y0079161D01*
X0097559Y0080322D01*
X0099107Y0080322D01*
X0105073Y0080322D02*
X0105073Y0078000D01*
X0105073Y0078774D02*
X0106234Y0078774D01*
X0106621Y0079161D01*
X0106621Y0079935D01*
X0106234Y0080322D01*
X0105073Y0080322D01*
X0107577Y0079161D02*
X0108738Y0079161D01*
X0109125Y0078774D01*
X0109125Y0078387D01*
X0108738Y0078000D01*
X0107964Y0078000D01*
X0107577Y0078387D01*
X0107577Y0079161D01*
X0108351Y0079935D01*
X0109125Y0080322D01*
X0115091Y0080322D02*
X0115091Y0078000D01*
X0115091Y0078774D02*
X0116252Y0078774D01*
X0116639Y0079161D01*
X0116639Y0079935D01*
X0116252Y0080322D01*
X0115091Y0080322D01*
X0117595Y0080322D02*
X0119143Y0080322D01*
X0119143Y0079935D01*
X0117595Y0078387D01*
X0117595Y0078000D01*
X0124000Y0078000D02*
X0124000Y0079548D01*
X0124774Y0080322D01*
X0125548Y0079548D01*
X0125548Y0078000D01*
X0126505Y0078000D02*
X0127279Y0078000D01*
X0126892Y0078000D02*
X0126892Y0080322D01*
X0126505Y0080322D02*
X0127279Y0080322D01*
X0128174Y0079935D02*
X0128174Y0078387D01*
X0128561Y0078000D01*
X0129335Y0078000D01*
X0129722Y0078387D01*
X0129722Y0079935D01*
X0129335Y0080322D01*
X0128561Y0080322D01*
X0128174Y0079935D01*
X0125548Y0079161D02*
X0124000Y0079161D01*
X0042450Y0071202D02*
X0042450Y0068398D01*
X0039099Y0068398D02*
X0039099Y0071202D01*
X0031967Y0068495D02*
X0031967Y0067160D01*
X0031967Y0067827D02*
X0033969Y0067827D01*
X0033969Y0066285D02*
X0033969Y0064950D01*
X0031967Y0064950D01*
X0031967Y0066285D01*
X0032968Y0065618D02*
X0032968Y0064950D01*
X0033301Y0064075D02*
X0033635Y0064075D01*
X0033969Y0063741D01*
X0033969Y0063074D01*
X0033635Y0062740D01*
X0032968Y0063074D02*
X0032968Y0063741D01*
X0033301Y0064075D01*
X0032300Y0064075D02*
X0031967Y0063741D01*
X0031967Y0063074D01*
X0032300Y0062740D01*
X0032634Y0062740D01*
X0032968Y0063074D01*
X0033969Y0061865D02*
X0033969Y0060531D01*
X0031967Y0060531D01*
X0031967Y0061865D01*
X0032968Y0061198D02*
X0032968Y0060531D01*
X0032968Y0059655D02*
X0033301Y0059321D01*
X0033301Y0058321D01*
X0033301Y0058988D02*
X0033969Y0059655D01*
X0032968Y0059655D02*
X0032300Y0059655D01*
X0031967Y0059321D01*
X0031967Y0058321D01*
X0033969Y0058321D01*
X0039099Y0046202D02*
X0039099Y0043398D01*
X0042450Y0043398D02*
X0042450Y0046202D01*
X0025202Y0043450D02*
X0022398Y0043450D01*
X0022398Y0040099D02*
X0025202Y0040099D01*
X0005461Y0078000D02*
X0005848Y0078387D01*
X0005848Y0079935D01*
X0005461Y0080322D01*
X0004300Y0080322D01*
X0004300Y0078000D01*
X0005461Y0078000D01*
X0006805Y0079161D02*
X0008353Y0079161D01*
D12*
X0001800Y0011800D02*
X0001800Y0001800D01*
X0011800Y0001800D01*
X0011800Y0011800D01*
X0001800Y0011800D01*
X0041800Y0011800D02*
X0041800Y0001800D01*
X0081800Y0001800D02*
X0081800Y0011800D01*
X0061800Y0081800D02*
X0061800Y0091800D01*
X0021800Y0091800D02*
X0021800Y0081800D01*
D13*
X0033300Y0081050D02*
X0039800Y0081050D01*
X0043300Y0081050D02*
X0049800Y0081050D01*
X0047721Y0075343D02*
X0047721Y0018257D01*
X0187682Y0018257D01*
X0187682Y0075343D01*
X0047721Y0075343D01*
X0030312Y0071280D02*
X0030312Y0067737D01*
X0030312Y0059863D01*
X0030312Y0056320D01*
X0019288Y0056320D01*
X0019288Y0071280D01*
X0030312Y0071280D01*
X0016300Y0068800D02*
X0016300Y0075300D01*
X0076169Y0052804D02*
X0076169Y0048300D01*
X0078421Y0048300D01*
X0079171Y0049051D01*
X0079171Y0049801D01*
X0078421Y0050552D01*
X0076169Y0050552D01*
X0078421Y0050552D02*
X0079171Y0051303D01*
X0079171Y0052053D01*
X0078421Y0052804D01*
X0076169Y0052804D01*
X0080773Y0052804D02*
X0081523Y0052804D01*
X0081523Y0048300D01*
X0080773Y0048300D02*
X0082274Y0048300D01*
X0083842Y0049051D02*
X0084593Y0048300D01*
X0086845Y0048300D01*
X0086845Y0051303D01*
X0088446Y0050552D02*
X0089197Y0051303D01*
X0090698Y0051303D01*
X0091449Y0050552D01*
X0091449Y0049801D01*
X0088446Y0049801D01*
X0088446Y0049051D02*
X0088446Y0050552D01*
X0088446Y0049051D02*
X0089197Y0048300D01*
X0090698Y0048300D01*
X0093050Y0049051D02*
X0093801Y0048300D01*
X0096053Y0048300D01*
X0096053Y0047549D02*
X0096053Y0051303D01*
X0093801Y0051303D01*
X0093050Y0050552D01*
X0093050Y0049051D01*
X0095302Y0046799D02*
X0096053Y0047549D01*
X0095302Y0046799D02*
X0094551Y0046799D01*
X0092249Y0045304D02*
X0092249Y0040800D01*
X0090748Y0040800D02*
X0093751Y0040800D01*
X0095352Y0041551D02*
X0096103Y0040800D01*
X0098354Y0040800D01*
X0098354Y0043803D01*
X0099956Y0043052D02*
X0102958Y0043052D01*
X0104560Y0043052D02*
X0107562Y0043052D01*
X0107562Y0043803D02*
X0107562Y0040800D01*
X0104560Y0040800D02*
X0104560Y0043803D01*
X0106061Y0045304D01*
X0107562Y0043803D01*
X0103726Y0047549D02*
X0102975Y0046799D01*
X0102224Y0046799D01*
X0103726Y0047549D02*
X0103726Y0051303D01*
X0101474Y0051303D01*
X0100723Y0050552D01*
X0100723Y0049051D01*
X0101474Y0048300D01*
X0103726Y0048300D01*
X0105327Y0049051D02*
X0106078Y0049801D01*
X0108330Y0049801D01*
X0108330Y0050552D02*
X0108330Y0048300D01*
X0106078Y0048300D01*
X0105327Y0049051D01*
X0106078Y0051303D02*
X0107579Y0051303D01*
X0108330Y0050552D01*
X0099155Y0048300D02*
X0097654Y0048300D01*
X0098405Y0048300D02*
X0098405Y0051303D01*
X0097654Y0051303D01*
X0098405Y0052804D02*
X0098405Y0053554D01*
X0083842Y0051303D02*
X0083842Y0049051D01*
X0084543Y0045304D02*
X0081540Y0045304D01*
X0083041Y0045304D02*
X0083041Y0040800D01*
X0079939Y0040800D02*
X0079939Y0045304D01*
X0076936Y0045304D02*
X0076936Y0040800D01*
X0078438Y0042301D01*
X0079939Y0040800D01*
X0086144Y0043052D02*
X0089147Y0043052D01*
X0090748Y0043803D02*
X0092249Y0045304D01*
X0095352Y0043803D02*
X0095352Y0041551D01*
X0088396Y0040800D02*
X0088396Y0045304D01*
X0086144Y0043052D01*
X0093300Y0016300D02*
X0099800Y0016300D01*
X0049800Y0016300D02*
X0043300Y0016300D01*
X0016300Y0018800D02*
X0016300Y0025300D01*
D14*
X0011800Y0024300D02*
X0009300Y0026800D01*
X0004300Y0026800D01*
X0001800Y0024300D01*
X0001800Y0019300D01*
X0004300Y0016800D01*
X0009300Y0016800D01*
X0011800Y0019300D01*
X0011800Y0024300D01*
X0009300Y0026800D02*
X0011800Y0029300D01*
X0011800Y0034300D01*
X0009300Y0036800D01*
X0004300Y0036800D01*
X0001800Y0034300D01*
X0001800Y0029300D01*
X0004300Y0026800D01*
X0004300Y0036800D02*
X0001800Y0039300D01*
X0001800Y0044300D01*
X0004300Y0046800D01*
X0001800Y0049300D01*
X0001800Y0054300D01*
X0004300Y0056800D01*
X0001800Y0059300D01*
X0001800Y0064300D01*
X0004300Y0066800D01*
X0001800Y0069300D01*
X0001800Y0074300D01*
X0004300Y0076800D01*
X0009300Y0076800D01*
X0011800Y0074300D01*
X0011800Y0069300D01*
X0009300Y0066800D01*
X0011800Y0064300D01*
X0011800Y0059300D01*
X0009300Y0056800D01*
X0004300Y0056800D01*
X0009300Y0056800D02*
X0011800Y0054300D01*
X0011800Y0049300D01*
X0009300Y0046800D01*
X0011800Y0044300D01*
X0011800Y0039300D01*
X0009300Y0036800D01*
X0009300Y0046800D02*
X0004300Y0046800D01*
X0004300Y0066800D02*
X0009300Y0066800D01*
X0009300Y0081800D02*
X0004300Y0081800D01*
X0001800Y0084300D01*
X0001800Y0089300D01*
X0004300Y0091800D01*
X0009300Y0091800D01*
X0011800Y0089300D01*
X0014300Y0091800D01*
X0019300Y0091800D01*
X0021800Y0089300D01*
X0021800Y0084300D01*
X0019300Y0081800D01*
X0014300Y0081800D01*
X0011800Y0084300D01*
X0009300Y0081800D01*
X0011800Y0084300D02*
X0011800Y0089300D01*
X0021800Y0089300D02*
X0021800Y0084300D01*
X0024300Y0081800D01*
X0029300Y0081800D01*
X0031800Y0084300D01*
X0034300Y0081800D01*
X0039300Y0081800D01*
X0041800Y0084300D01*
X0041800Y0089300D01*
X0039300Y0091800D01*
X0034300Y0091800D01*
X0031800Y0089300D01*
X0031800Y0084300D01*
X0031800Y0089300D02*
X0029300Y0091800D01*
X0024300Y0091800D01*
X0021800Y0089300D01*
X0041800Y0089300D02*
X0044300Y0091800D01*
X0049300Y0091800D01*
X0051800Y0089300D01*
X0054300Y0091800D01*
X0059300Y0091800D01*
X0061800Y0089300D01*
X0064300Y0091800D01*
X0069300Y0091800D01*
X0071800Y0089300D01*
X0074300Y0091800D01*
X0079300Y0091800D01*
X0081800Y0089300D01*
X0081800Y0084300D01*
X0079300Y0081800D01*
X0074300Y0081800D01*
X0071800Y0084300D01*
X0069300Y0081800D01*
X0064300Y0081800D01*
X0061800Y0084300D01*
X0061800Y0089300D01*
X0061800Y0084300D01*
X0059300Y0081800D01*
X0054300Y0081800D01*
X0051800Y0084300D01*
X0049300Y0081800D01*
X0044300Y0081800D01*
X0041800Y0084300D01*
X0051800Y0084300D02*
X0051800Y0089300D01*
X0071800Y0089300D02*
X0071800Y0084300D01*
X0081800Y0084300D02*
X0084300Y0081800D01*
X0089300Y0081800D01*
X0091800Y0084300D01*
X0094300Y0081800D01*
X0099300Y0081800D01*
X0101800Y0084300D01*
X0104300Y0081800D01*
X0109300Y0081800D01*
X0111800Y0084300D01*
X0111800Y0089300D01*
X0109300Y0091800D01*
X0104300Y0091800D01*
X0101800Y0089300D01*
X0101800Y0084300D01*
X0101800Y0089300D02*
X0099300Y0091800D01*
X0094300Y0091800D01*
X0091800Y0089300D01*
X0091800Y0084300D01*
X0091800Y0089300D02*
X0089300Y0091800D01*
X0084300Y0091800D01*
X0081800Y0089300D01*
X0111800Y0089300D02*
X0114300Y0091800D01*
X0119300Y0091800D01*
X0121800Y0089300D01*
X0124300Y0091800D01*
X0129300Y0091800D01*
X0131800Y0089300D01*
X0131800Y0084300D01*
X0129300Y0081800D01*
X0124300Y0081800D01*
X0121800Y0084300D01*
X0119300Y0081800D01*
X0114300Y0081800D01*
X0111800Y0084300D01*
X0121800Y0084300D02*
X0121800Y0089300D01*
X0180800Y0085300D02*
X0180800Y0084400D01*
X0181800Y0084200D01*
X0182200Y0083300D01*
X0181600Y0082400D01*
X0182300Y0081800D01*
X0183100Y0082400D01*
X0183500Y0082200D01*
X0184100Y0083800D01*
X0183600Y0083600D02*
X0183300Y0082600D01*
X0182400Y0082100D01*
X0181900Y0082400D01*
X0182500Y0083400D01*
X0182000Y0084500D01*
X0181000Y0084700D01*
X0181000Y0085000D01*
X0182000Y0085400D01*
X0182400Y0086500D01*
X0181900Y0087400D01*
X0182300Y0087700D01*
X0183100Y0087100D01*
X0184200Y0087700D01*
X0184500Y0088600D01*
X0185000Y0088600D01*
X0185300Y0087500D01*
X0186200Y0087100D01*
X0187000Y0087700D01*
X0187500Y0087300D01*
X0187000Y0086500D01*
X0187500Y0085300D01*
X0188300Y0085100D01*
X0188400Y0084600D01*
X0187500Y0084400D01*
X0187000Y0083300D01*
X0187400Y0082500D01*
X0187000Y0082200D01*
X0186100Y0082700D01*
X0185800Y0083700D01*
X0186400Y0084700D01*
X0186000Y0085800D01*
X0184900Y0086400D01*
X0183600Y0086000D01*
X0183200Y0084700D01*
X0183600Y0083600D01*
X0183529Y0083796D02*
X0182320Y0083796D01*
X0182379Y0083198D02*
X0183479Y0083198D01*
X0183298Y0082599D02*
X0182019Y0082599D01*
X0182048Y0084395D02*
X0183311Y0084395D01*
X0183290Y0084993D02*
X0181000Y0084993D01*
X0180800Y0085300D02*
X0181900Y0085500D01*
X0182200Y0086400D01*
X0181600Y0087300D01*
X0182300Y0088000D01*
X0183200Y0087300D01*
X0184000Y0087700D01*
X0184300Y0088800D01*
X0185200Y0088800D01*
X0185400Y0087700D01*
X0186200Y0087300D01*
X0187100Y0088000D01*
X0187800Y0087300D01*
X0187200Y0086400D01*
X0187600Y0085500D01*
X0188600Y0085300D01*
X0188600Y0084400D01*
X0187600Y0084200D01*
X0187200Y0083300D01*
X0187800Y0082400D01*
X0187100Y0081800D01*
X0186300Y0082400D01*
X0185900Y0082200D01*
X0185300Y0083800D01*
X0185858Y0083796D02*
X0187225Y0083796D01*
X0187051Y0083198D02*
X0185951Y0083198D01*
X0186282Y0082599D02*
X0187350Y0082599D01*
X0187498Y0084395D02*
X0186217Y0084395D01*
X0186293Y0084993D02*
X0188321Y0084993D01*
X0187379Y0085592D02*
X0186076Y0085592D01*
X0185285Y0086190D02*
X0187129Y0086190D01*
X0187180Y0086789D02*
X0182240Y0086789D01*
X0182287Y0086190D02*
X0184218Y0086190D01*
X0183474Y0085592D02*
X0182070Y0085592D01*
X0184100Y0083800D02*
X0184041Y0083836D01*
X0183985Y0083875D01*
X0183930Y0083918D01*
X0183878Y0083963D01*
X0183829Y0084011D01*
X0183783Y0084062D01*
X0183739Y0084116D01*
X0183699Y0084172D01*
X0183662Y0084230D01*
X0183628Y0084290D01*
X0183598Y0084352D01*
X0183572Y0084416D01*
X0183549Y0084481D01*
X0183530Y0084547D01*
X0183514Y0084614D01*
X0183503Y0084682D01*
X0183495Y0084750D01*
X0183491Y0084819D01*
X0183492Y0084888D01*
X0183496Y0084957D01*
X0183504Y0085025D01*
X0183516Y0085093D01*
X0183532Y0085160D01*
X0183551Y0085226D01*
X0183574Y0085291D01*
X0183601Y0085355D01*
X0183632Y0085416D01*
X0183666Y0085476D01*
X0183703Y0085534D01*
X0183744Y0085590D01*
X0183788Y0085643D01*
X0183834Y0085694D01*
X0183884Y0085742D01*
X0183936Y0085787D01*
X0183991Y0085829D01*
X0184047Y0085868D01*
X0184107Y0085903D01*
X0184168Y0085935D01*
X0184230Y0085964D01*
X0184294Y0085989D01*
X0184360Y0086010D01*
X0184427Y0086028D01*
X0184494Y0086041D01*
X0184562Y0086051D01*
X0184631Y0086057D01*
X0184700Y0086059D01*
X0184769Y0086057D01*
X0184838Y0086051D01*
X0184906Y0086041D01*
X0184973Y0086028D01*
X0185040Y0086010D01*
X0185106Y0085989D01*
X0185170Y0085964D01*
X0185232Y0085935D01*
X0185293Y0085903D01*
X0185353Y0085868D01*
X0185409Y0085829D01*
X0185464Y0085787D01*
X0185516Y0085742D01*
X0185566Y0085694D01*
X0185612Y0085643D01*
X0185656Y0085590D01*
X0185697Y0085534D01*
X0185734Y0085476D01*
X0185768Y0085416D01*
X0185799Y0085355D01*
X0185826Y0085291D01*
X0185849Y0085226D01*
X0185868Y0085160D01*
X0185884Y0085093D01*
X0185896Y0085025D01*
X0185904Y0084957D01*
X0185908Y0084888D01*
X0185909Y0084819D01*
X0185905Y0084750D01*
X0185897Y0084682D01*
X0185886Y0084614D01*
X0185870Y0084547D01*
X0185851Y0084481D01*
X0185828Y0084416D01*
X0185802Y0084352D01*
X0185772Y0084290D01*
X0185738Y0084230D01*
X0185701Y0084172D01*
X0185661Y0084116D01*
X0185617Y0084062D01*
X0185571Y0084011D01*
X0185522Y0083963D01*
X0185470Y0083918D01*
X0185415Y0083875D01*
X0185359Y0083836D01*
X0185300Y0083800D01*
X0185554Y0087387D02*
X0183626Y0087387D01*
X0184295Y0087986D02*
X0185168Y0087986D01*
X0185004Y0088584D02*
X0184495Y0088584D01*
X0182717Y0087387D02*
X0181907Y0087387D01*
X0186583Y0087387D02*
X0187391Y0087387D01*
X0119300Y0011800D02*
X0114300Y0011800D01*
X0111800Y0009300D01*
X0109300Y0011800D01*
X0104300Y0011800D01*
X0101800Y0009300D01*
X0101800Y0004300D01*
X0104300Y0001800D01*
X0109300Y0001800D01*
X0111800Y0004300D01*
X0111800Y0009300D01*
X0119300Y0011800D02*
X0121800Y0009300D01*
X0121800Y0004300D01*
X0119300Y0001800D01*
X0114300Y0001800D01*
X0111800Y0004300D01*
X0101800Y0004300D02*
X0099300Y0001800D01*
X0094300Y0001800D01*
X0091800Y0004300D01*
X0089300Y0001800D01*
X0084300Y0001800D01*
X0081800Y0004300D01*
X0081800Y0009300D01*
X0084300Y0011800D01*
X0089300Y0011800D01*
X0091800Y0009300D01*
X0094300Y0011800D01*
X0099300Y0011800D01*
X0101800Y0009300D01*
X0091800Y0009300D02*
X0091800Y0004300D01*
X0081800Y0004300D02*
X0081800Y0009300D01*
X0079300Y0011800D01*
X0074300Y0011800D01*
X0071800Y0009300D01*
X0069300Y0011800D01*
X0064300Y0011800D01*
X0061800Y0009300D01*
X0061800Y0004300D01*
X0064300Y0001800D01*
X0069300Y0001800D01*
X0071800Y0004300D01*
X0071800Y0009300D01*
X0071800Y0004300D02*
X0074300Y0001800D01*
X0079300Y0001800D01*
X0081800Y0004300D01*
X0061800Y0004300D02*
X0059300Y0001800D01*
X0054300Y0001800D01*
X0051800Y0004300D01*
X0049300Y0001800D01*
X0044300Y0001800D01*
X0041800Y0004300D01*
X0039300Y0001800D01*
X0034300Y0001800D01*
X0031800Y0004300D01*
X0029300Y0001800D01*
X0024300Y0001800D01*
X0021800Y0004300D01*
X0019300Y0001800D01*
X0014300Y0001800D01*
X0011800Y0004300D01*
X0009300Y0001800D01*
X0004300Y0001800D01*
X0001800Y0004300D01*
X0001800Y0009300D01*
X0004300Y0011800D01*
X0009300Y0011800D01*
X0011800Y0009300D01*
X0014300Y0011800D01*
X0019300Y0011800D01*
X0021800Y0009300D01*
X0021800Y0004300D01*
X0021800Y0009300D02*
X0024300Y0011800D01*
X0029300Y0011800D01*
X0031800Y0009300D01*
X0034300Y0011800D01*
X0039300Y0011800D01*
X0041800Y0009300D01*
X0041800Y0004300D01*
X0041800Y0009300D01*
X0044300Y0011800D01*
X0049300Y0011800D01*
X0051800Y0009300D01*
X0054300Y0011800D01*
X0059300Y0011800D01*
X0061800Y0009300D01*
X0051800Y0009300D02*
X0051800Y0004300D01*
X0031800Y0004300D02*
X0031800Y0009300D01*
X0011800Y0009300D02*
X0011800Y0004300D01*
D15*
X0006800Y0006800D03*
X0016800Y0006800D03*
X0026800Y0006800D03*
X0036800Y0006800D03*
X0046800Y0006800D03*
X0056800Y0006800D03*
X0066800Y0006800D03*
X0076800Y0006800D03*
X0086800Y0006800D03*
X0096800Y0006800D03*
X0106800Y0006800D03*
X0116800Y0006800D03*
X0006800Y0021800D03*
X0006800Y0031800D03*
X0006800Y0041800D03*
X0006800Y0051800D03*
X0006800Y0061800D03*
X0006800Y0071800D03*
X0006800Y0086800D03*
X0016800Y0086800D03*
X0026800Y0086800D03*
X0036800Y0086800D03*
X0046800Y0086800D03*
X0056800Y0086800D03*
X0066800Y0086800D03*
X0076800Y0086800D03*
X0086800Y0086800D03*
X0096800Y0086800D03*
X0106800Y0086800D03*
X0116800Y0086800D03*
X0126800Y0086800D03*
D16*
X0040718Y0031357D02*
X0040718Y0030997D01*
X0040717Y0030998D02*
X0040648Y0030995D01*
X0040580Y0030988D01*
X0040511Y0030977D01*
X0040444Y0030962D01*
X0040378Y0030943D01*
X0040313Y0030920D01*
X0040249Y0030894D01*
X0040187Y0030864D01*
X0040126Y0030831D01*
X0040068Y0030794D01*
X0040012Y0030754D01*
X0039958Y0030711D01*
X0039907Y0030664D01*
X0039859Y0030615D01*
X0039814Y0030563D01*
X0039771Y0030509D01*
X0039732Y0030452D01*
X0039696Y0030393D01*
X0039664Y0030332D01*
X0039635Y0030270D01*
X0039610Y0030206D01*
X0039588Y0030140D01*
X0039571Y0030073D01*
X0039557Y0030006D01*
X0039547Y0029938D01*
X0039541Y0029869D01*
X0039539Y0029800D01*
X0039541Y0029731D01*
X0039547Y0029662D01*
X0039557Y0029594D01*
X0039571Y0029527D01*
X0039588Y0029460D01*
X0039610Y0029394D01*
X0039635Y0029330D01*
X0039664Y0029268D01*
X0039696Y0029207D01*
X0039732Y0029148D01*
X0039771Y0029091D01*
X0039814Y0029037D01*
X0039859Y0028985D01*
X0039907Y0028936D01*
X0039958Y0028889D01*
X0040012Y0028846D01*
X0040068Y0028806D01*
X0040126Y0028769D01*
X0040187Y0028736D01*
X0040249Y0028706D01*
X0040313Y0028680D01*
X0040378Y0028657D01*
X0040444Y0028638D01*
X0040511Y0028623D01*
X0040580Y0028612D01*
X0040648Y0028605D01*
X0040717Y0028602D01*
X0040718Y0028243D01*
X0040717Y0028242D01*
X0040639Y0028245D01*
X0040561Y0028252D01*
X0040483Y0028263D01*
X0040406Y0028277D01*
X0040330Y0028296D01*
X0040255Y0028318D01*
X0040181Y0028344D01*
X0040109Y0028374D01*
X0040038Y0028408D01*
X0039969Y0028444D01*
X0039902Y0028485D01*
X0039837Y0028528D01*
X0039774Y0028575D01*
X0039714Y0028625D01*
X0039656Y0028678D01*
X0039601Y0028734D01*
X0039549Y0028792D01*
X0039500Y0028853D01*
X0039454Y0028916D01*
X0039411Y0028982D01*
X0039372Y0029050D01*
X0039336Y0029119D01*
X0039303Y0029190D01*
X0039274Y0029263D01*
X0039249Y0029337D01*
X0039228Y0029413D01*
X0039210Y0029489D01*
X0039197Y0029566D01*
X0039187Y0029644D01*
X0039181Y0029722D01*
X0039179Y0029800D01*
X0039181Y0029878D01*
X0039187Y0029956D01*
X0039197Y0030034D01*
X0039210Y0030111D01*
X0039228Y0030187D01*
X0039249Y0030263D01*
X0039274Y0030337D01*
X0039303Y0030410D01*
X0039336Y0030481D01*
X0039372Y0030550D01*
X0039411Y0030618D01*
X0039454Y0030684D01*
X0039500Y0030747D01*
X0039549Y0030808D01*
X0039601Y0030866D01*
X0039656Y0030922D01*
X0039714Y0030975D01*
X0039774Y0031025D01*
X0039837Y0031072D01*
X0039902Y0031115D01*
X0039969Y0031156D01*
X0040038Y0031192D01*
X0040109Y0031226D01*
X0040181Y0031256D01*
X0040255Y0031282D01*
X0040330Y0031304D01*
X0040406Y0031323D01*
X0040483Y0031337D01*
X0040561Y0031348D01*
X0040639Y0031355D01*
X0040717Y0031358D01*
X0040717Y0031321D01*
X0040639Y0031318D01*
X0040562Y0031311D01*
X0040485Y0031300D01*
X0040409Y0031285D01*
X0040333Y0031267D01*
X0040259Y0031244D01*
X0040186Y0031218D01*
X0040114Y0031188D01*
X0040044Y0031154D01*
X0039976Y0031117D01*
X0039910Y0031076D01*
X0039846Y0031033D01*
X0039784Y0030985D01*
X0039725Y0030935D01*
X0039668Y0030882D01*
X0039614Y0030826D01*
X0039563Y0030768D01*
X0039516Y0030706D01*
X0039471Y0030643D01*
X0039429Y0030577D01*
X0039392Y0030509D01*
X0039357Y0030440D01*
X0039326Y0030368D01*
X0039299Y0030296D01*
X0039276Y0030222D01*
X0039256Y0030146D01*
X0039240Y0030070D01*
X0039228Y0029994D01*
X0039220Y0029916D01*
X0039216Y0029839D01*
X0039216Y0029761D01*
X0039220Y0029684D01*
X0039228Y0029606D01*
X0039240Y0029530D01*
X0039256Y0029454D01*
X0039276Y0029378D01*
X0039299Y0029304D01*
X0039326Y0029232D01*
X0039357Y0029160D01*
X0039392Y0029091D01*
X0039429Y0029023D01*
X0039471Y0028957D01*
X0039516Y0028894D01*
X0039563Y0028832D01*
X0039614Y0028774D01*
X0039668Y0028718D01*
X0039725Y0028665D01*
X0039784Y0028615D01*
X0039846Y0028567D01*
X0039910Y0028524D01*
X0039976Y0028483D01*
X0040044Y0028446D01*
X0040114Y0028412D01*
X0040186Y0028382D01*
X0040259Y0028356D01*
X0040333Y0028333D01*
X0040409Y0028315D01*
X0040485Y0028300D01*
X0040562Y0028289D01*
X0040639Y0028282D01*
X0040717Y0028279D01*
X0040717Y0028316D01*
X0040641Y0028319D01*
X0040566Y0028326D01*
X0040491Y0028337D01*
X0040416Y0028351D01*
X0040343Y0028369D01*
X0040270Y0028391D01*
X0040199Y0028417D01*
X0040129Y0028446D01*
X0040061Y0028479D01*
X0039994Y0028515D01*
X0039930Y0028555D01*
X0039867Y0028598D01*
X0039807Y0028644D01*
X0039749Y0028692D01*
X0039694Y0028744D01*
X0039641Y0028799D01*
X0039592Y0028856D01*
X0039545Y0028916D01*
X0039502Y0028978D01*
X0039461Y0029042D01*
X0039424Y0029108D01*
X0039391Y0029176D01*
X0039360Y0029245D01*
X0039334Y0029316D01*
X0039311Y0029389D01*
X0039292Y0029462D01*
X0039277Y0029536D01*
X0039265Y0029611D01*
X0039257Y0029686D01*
X0039253Y0029762D01*
X0039253Y0029838D01*
X0039257Y0029914D01*
X0039265Y0029989D01*
X0039277Y0030064D01*
X0039292Y0030138D01*
X0039311Y0030211D01*
X0039334Y0030284D01*
X0039360Y0030355D01*
X0039391Y0030424D01*
X0039424Y0030492D01*
X0039461Y0030558D01*
X0039502Y0030622D01*
X0039545Y0030684D01*
X0039592Y0030744D01*
X0039641Y0030801D01*
X0039694Y0030856D01*
X0039749Y0030908D01*
X0039807Y0030956D01*
X0039867Y0031002D01*
X0039930Y0031045D01*
X0039994Y0031085D01*
X0040061Y0031121D01*
X0040129Y0031154D01*
X0040199Y0031183D01*
X0040270Y0031209D01*
X0040343Y0031231D01*
X0040416Y0031249D01*
X0040491Y0031263D01*
X0040566Y0031274D01*
X0040641Y0031281D01*
X0040717Y0031284D01*
X0040717Y0031247D01*
X0040642Y0031244D01*
X0040567Y0031237D01*
X0040493Y0031226D01*
X0040419Y0031212D01*
X0040346Y0031193D01*
X0040275Y0031171D01*
X0040204Y0031145D01*
X0040135Y0031116D01*
X0040068Y0031083D01*
X0040002Y0031046D01*
X0039938Y0031007D01*
X0039877Y0030964D01*
X0039818Y0030917D01*
X0039761Y0030868D01*
X0039707Y0030816D01*
X0039655Y0030761D01*
X0039607Y0030704D01*
X0039562Y0030644D01*
X0039519Y0030582D01*
X0039481Y0030518D01*
X0039445Y0030452D01*
X0039413Y0030384D01*
X0039384Y0030314D01*
X0039360Y0030243D01*
X0039338Y0030171D01*
X0039321Y0030098D01*
X0039308Y0030024D01*
X0039298Y0029950D01*
X0039292Y0029875D01*
X0039290Y0029800D01*
X0039292Y0029725D01*
X0039298Y0029650D01*
X0039308Y0029576D01*
X0039321Y0029502D01*
X0039338Y0029429D01*
X0039360Y0029357D01*
X0039384Y0029286D01*
X0039413Y0029216D01*
X0039445Y0029148D01*
X0039481Y0029082D01*
X0039519Y0029018D01*
X0039562Y0028956D01*
X0039607Y0028896D01*
X0039655Y0028839D01*
X0039707Y0028784D01*
X0039761Y0028732D01*
X0039818Y0028683D01*
X0039877Y0028636D01*
X0039938Y0028593D01*
X0040002Y0028554D01*
X0040068Y0028517D01*
X0040135Y0028484D01*
X0040204Y0028455D01*
X0040275Y0028429D01*
X0040346Y0028407D01*
X0040419Y0028388D01*
X0040493Y0028374D01*
X0040567Y0028363D01*
X0040642Y0028356D01*
X0040717Y0028353D01*
X0040717Y0028390D01*
X0040643Y0028393D01*
X0040569Y0028400D01*
X0040495Y0028411D01*
X0040422Y0028426D01*
X0040350Y0028444D01*
X0040279Y0028466D01*
X0040209Y0028492D01*
X0040141Y0028522D01*
X0040075Y0028555D01*
X0040010Y0028592D01*
X0039947Y0028632D01*
X0039887Y0028675D01*
X0039828Y0028722D01*
X0039773Y0028771D01*
X0039720Y0028823D01*
X0039670Y0028878D01*
X0039623Y0028936D01*
X0039579Y0028996D01*
X0039538Y0029058D01*
X0039500Y0029122D01*
X0039466Y0029189D01*
X0039436Y0029256D01*
X0039409Y0029326D01*
X0039386Y0029397D01*
X0039367Y0029468D01*
X0039351Y0029541D01*
X0039339Y0029615D01*
X0039331Y0029689D01*
X0039327Y0029763D01*
X0039327Y0029837D01*
X0039331Y0029911D01*
X0039339Y0029985D01*
X0039351Y0030059D01*
X0039367Y0030132D01*
X0039386Y0030203D01*
X0039409Y0030274D01*
X0039436Y0030344D01*
X0039466Y0030411D01*
X0039500Y0030478D01*
X0039538Y0030542D01*
X0039579Y0030604D01*
X0039623Y0030664D01*
X0039670Y0030722D01*
X0039720Y0030777D01*
X0039773Y0030829D01*
X0039828Y0030878D01*
X0039887Y0030925D01*
X0039947Y0030968D01*
X0040010Y0031008D01*
X0040075Y0031045D01*
X0040141Y0031078D01*
X0040209Y0031108D01*
X0040279Y0031134D01*
X0040350Y0031156D01*
X0040422Y0031174D01*
X0040495Y0031189D01*
X0040569Y0031200D01*
X0040643Y0031207D01*
X0040717Y0031210D01*
X0040717Y0031173D01*
X0040643Y0031170D01*
X0040570Y0031163D01*
X0040497Y0031152D01*
X0040425Y0031137D01*
X0040354Y0031118D01*
X0040284Y0031096D01*
X0040215Y0031070D01*
X0040147Y0031040D01*
X0040082Y0031007D01*
X0040018Y0030970D01*
X0039956Y0030929D01*
X0039897Y0030886D01*
X0039840Y0030839D01*
X0039785Y0030790D01*
X0039734Y0030737D01*
X0039685Y0030682D01*
X0039639Y0030624D01*
X0039596Y0030564D01*
X0039557Y0030502D01*
X0039521Y0030438D01*
X0039489Y0030371D01*
X0039460Y0030304D01*
X0039435Y0030234D01*
X0039413Y0030164D01*
X0039396Y0030092D01*
X0039382Y0030020D01*
X0039372Y0029947D01*
X0039366Y0029874D01*
X0039364Y0029800D01*
X0039366Y0029726D01*
X0039372Y0029653D01*
X0039382Y0029580D01*
X0039396Y0029508D01*
X0039413Y0029436D01*
X0039435Y0029366D01*
X0039460Y0029296D01*
X0039489Y0029229D01*
X0039521Y0029162D01*
X0039557Y0029098D01*
X0039596Y0029036D01*
X0039639Y0028976D01*
X0039685Y0028918D01*
X0039734Y0028863D01*
X0039785Y0028810D01*
X0039840Y0028761D01*
X0039897Y0028714D01*
X0039956Y0028671D01*
X0040018Y0028630D01*
X0040082Y0028593D01*
X0040147Y0028560D01*
X0040215Y0028530D01*
X0040284Y0028504D01*
X0040354Y0028482D01*
X0040425Y0028463D01*
X0040497Y0028448D01*
X0040570Y0028437D01*
X0040643Y0028430D01*
X0040717Y0028427D01*
X0040717Y0028464D01*
X0040644Y0028467D01*
X0040572Y0028474D01*
X0040499Y0028485D01*
X0040428Y0028500D01*
X0040358Y0028519D01*
X0040288Y0028542D01*
X0040220Y0028568D01*
X0040154Y0028598D01*
X0040089Y0028632D01*
X0040026Y0028669D01*
X0039966Y0028709D01*
X0039907Y0028753D01*
X0039851Y0028800D01*
X0039798Y0028850D01*
X0039748Y0028902D01*
X0039700Y0028957D01*
X0039656Y0029015D01*
X0039615Y0029075D01*
X0039577Y0029138D01*
X0039542Y0029202D01*
X0039511Y0029268D01*
X0039484Y0029336D01*
X0039461Y0029405D01*
X0039441Y0029475D01*
X0039425Y0029546D01*
X0039413Y0029618D01*
X0039405Y0029691D01*
X0039401Y0029764D01*
X0039401Y0029836D01*
X0039405Y0029909D01*
X0039413Y0029982D01*
X0039425Y0030054D01*
X0039441Y0030125D01*
X0039461Y0030195D01*
X0039484Y0030264D01*
X0039511Y0030332D01*
X0039542Y0030398D01*
X0039577Y0030462D01*
X0039615Y0030525D01*
X0039656Y0030585D01*
X0039700Y0030643D01*
X0039748Y0030698D01*
X0039798Y0030750D01*
X0039851Y0030800D01*
X0039907Y0030847D01*
X0039966Y0030891D01*
X0040026Y0030931D01*
X0040089Y0030968D01*
X0040154Y0031002D01*
X0040220Y0031032D01*
X0040288Y0031058D01*
X0040358Y0031081D01*
X0040428Y0031100D01*
X0040499Y0031115D01*
X0040572Y0031126D01*
X0040644Y0031133D01*
X0040717Y0031136D01*
X0040717Y0031099D01*
X0040646Y0031096D01*
X0040576Y0031089D01*
X0040506Y0031078D01*
X0040436Y0031064D01*
X0040368Y0031045D01*
X0040300Y0031023D01*
X0040234Y0030998D01*
X0040170Y0030969D01*
X0040107Y0030936D01*
X0040046Y0030900D01*
X0039987Y0030860D01*
X0039930Y0030818D01*
X0039876Y0030772D01*
X0039824Y0030724D01*
X0039775Y0030673D01*
X0039729Y0030619D01*
X0039686Y0030563D01*
X0039646Y0030504D01*
X0039609Y0030444D01*
X0039575Y0030381D01*
X0039545Y0030317D01*
X0039519Y0030251D01*
X0039496Y0030184D01*
X0039477Y0030116D01*
X0039462Y0030047D01*
X0039450Y0029977D01*
X0039442Y0029906D01*
X0039438Y0029835D01*
X0039438Y0029765D01*
X0039442Y0029694D01*
X0039450Y0029623D01*
X0039462Y0029553D01*
X0039477Y0029484D01*
X0039496Y0029416D01*
X0039519Y0029349D01*
X0039545Y0029283D01*
X0039575Y0029219D01*
X0039609Y0029156D01*
X0039646Y0029096D01*
X0039686Y0029037D01*
X0039729Y0028981D01*
X0039775Y0028927D01*
X0039824Y0028876D01*
X0039876Y0028828D01*
X0039930Y0028782D01*
X0039987Y0028740D01*
X0040046Y0028700D01*
X0040107Y0028664D01*
X0040170Y0028631D01*
X0040234Y0028602D01*
X0040300Y0028577D01*
X0040368Y0028555D01*
X0040436Y0028536D01*
X0040506Y0028522D01*
X0040576Y0028511D01*
X0040646Y0028504D01*
X0040717Y0028501D01*
X0040717Y0028538D01*
X0040647Y0028541D01*
X0040577Y0028548D01*
X0040508Y0028559D01*
X0040439Y0028574D01*
X0040372Y0028592D01*
X0040305Y0028614D01*
X0040240Y0028640D01*
X0040177Y0028669D01*
X0040115Y0028702D01*
X0040055Y0028738D01*
X0039997Y0028778D01*
X0039941Y0028820D01*
X0039888Y0028866D01*
X0039838Y0028915D01*
X0039790Y0028966D01*
X0039745Y0029020D01*
X0039703Y0029076D01*
X0039665Y0029135D01*
X0039629Y0029195D01*
X0039598Y0029258D01*
X0039569Y0029322D01*
X0039544Y0029387D01*
X0039523Y0029454D01*
X0039506Y0029522D01*
X0039492Y0029591D01*
X0039483Y0029660D01*
X0039477Y0029730D01*
X0039475Y0029800D01*
X0039477Y0029870D01*
X0039483Y0029940D01*
X0039492Y0030009D01*
X0039506Y0030078D01*
X0039523Y0030146D01*
X0039544Y0030213D01*
X0039569Y0030278D01*
X0039598Y0030342D01*
X0039629Y0030405D01*
X0039665Y0030465D01*
X0039703Y0030524D01*
X0039745Y0030580D01*
X0039790Y0030634D01*
X0039838Y0030685D01*
X0039888Y0030734D01*
X0039941Y0030780D01*
X0039997Y0030822D01*
X0040055Y0030862D01*
X0040115Y0030898D01*
X0040177Y0030931D01*
X0040240Y0030960D01*
X0040305Y0030986D01*
X0040372Y0031008D01*
X0040439Y0031026D01*
X0040508Y0031041D01*
X0040577Y0031052D01*
X0040647Y0031059D01*
X0040717Y0031062D01*
X0040717Y0031025D01*
X0040648Y0031022D01*
X0040579Y0031015D01*
X0040511Y0031004D01*
X0040443Y0030989D01*
X0040376Y0030971D01*
X0040311Y0030948D01*
X0040246Y0030922D01*
X0040184Y0030893D01*
X0040123Y0030860D01*
X0040064Y0030824D01*
X0040007Y0030784D01*
X0039953Y0030741D01*
X0039901Y0030695D01*
X0039852Y0030647D01*
X0039805Y0030595D01*
X0039762Y0030541D01*
X0039722Y0030485D01*
X0039684Y0030427D01*
X0039651Y0030366D01*
X0039620Y0030304D01*
X0039594Y0030240D01*
X0039571Y0030175D01*
X0039551Y0030108D01*
X0039536Y0030041D01*
X0039524Y0029973D01*
X0039516Y0029904D01*
X0039512Y0029835D01*
X0039512Y0029765D01*
X0039516Y0029696D01*
X0039524Y0029627D01*
X0039536Y0029559D01*
X0039551Y0029492D01*
X0039571Y0029425D01*
X0039594Y0029360D01*
X0039620Y0029296D01*
X0039651Y0029234D01*
X0039684Y0029173D01*
X0039722Y0029115D01*
X0039762Y0029059D01*
X0039805Y0029005D01*
X0039852Y0028953D01*
X0039901Y0028905D01*
X0039953Y0028859D01*
X0040007Y0028816D01*
X0040064Y0028776D01*
X0040123Y0028740D01*
X0040184Y0028707D01*
X0040246Y0028678D01*
X0040311Y0028652D01*
X0040376Y0028629D01*
X0040443Y0028611D01*
X0040511Y0028596D01*
X0040579Y0028585D01*
X0040648Y0028578D01*
X0040717Y0028575D01*
X0032882Y0028243D02*
X0032882Y0028603D01*
X0032883Y0028602D02*
X0032952Y0028605D01*
X0033020Y0028612D01*
X0033089Y0028623D01*
X0033156Y0028638D01*
X0033222Y0028657D01*
X0033287Y0028680D01*
X0033351Y0028706D01*
X0033413Y0028736D01*
X0033474Y0028769D01*
X0033532Y0028806D01*
X0033588Y0028846D01*
X0033642Y0028889D01*
X0033693Y0028936D01*
X0033741Y0028985D01*
X0033786Y0029037D01*
X0033829Y0029091D01*
X0033868Y0029148D01*
X0033904Y0029207D01*
X0033936Y0029268D01*
X0033965Y0029330D01*
X0033990Y0029394D01*
X0034012Y0029460D01*
X0034029Y0029527D01*
X0034043Y0029594D01*
X0034053Y0029662D01*
X0034059Y0029731D01*
X0034061Y0029800D01*
X0034059Y0029869D01*
X0034053Y0029938D01*
X0034043Y0030006D01*
X0034029Y0030073D01*
X0034012Y0030140D01*
X0033990Y0030206D01*
X0033965Y0030270D01*
X0033936Y0030332D01*
X0033904Y0030393D01*
X0033868Y0030452D01*
X0033829Y0030509D01*
X0033786Y0030563D01*
X0033741Y0030615D01*
X0033693Y0030664D01*
X0033642Y0030711D01*
X0033588Y0030754D01*
X0033532Y0030794D01*
X0033474Y0030831D01*
X0033413Y0030864D01*
X0033351Y0030894D01*
X0033287Y0030920D01*
X0033222Y0030943D01*
X0033156Y0030962D01*
X0033089Y0030977D01*
X0033020Y0030988D01*
X0032952Y0030995D01*
X0032883Y0030998D01*
X0032882Y0031357D01*
X0032883Y0031358D01*
X0032961Y0031355D01*
X0033039Y0031348D01*
X0033117Y0031337D01*
X0033194Y0031323D01*
X0033270Y0031304D01*
X0033345Y0031282D01*
X0033419Y0031256D01*
X0033491Y0031226D01*
X0033562Y0031192D01*
X0033631Y0031156D01*
X0033698Y0031115D01*
X0033763Y0031072D01*
X0033826Y0031025D01*
X0033886Y0030975D01*
X0033944Y0030922D01*
X0033999Y0030866D01*
X0034051Y0030808D01*
X0034100Y0030747D01*
X0034146Y0030684D01*
X0034189Y0030618D01*
X0034228Y0030550D01*
X0034264Y0030481D01*
X0034297Y0030410D01*
X0034326Y0030337D01*
X0034351Y0030263D01*
X0034372Y0030187D01*
X0034390Y0030111D01*
X0034403Y0030034D01*
X0034413Y0029956D01*
X0034419Y0029878D01*
X0034421Y0029800D01*
X0034419Y0029722D01*
X0034413Y0029644D01*
X0034403Y0029566D01*
X0034390Y0029489D01*
X0034372Y0029413D01*
X0034351Y0029337D01*
X0034326Y0029263D01*
X0034297Y0029190D01*
X0034264Y0029119D01*
X0034228Y0029050D01*
X0034189Y0028982D01*
X0034146Y0028916D01*
X0034100Y0028853D01*
X0034051Y0028792D01*
X0033999Y0028734D01*
X0033944Y0028678D01*
X0033886Y0028625D01*
X0033826Y0028575D01*
X0033763Y0028528D01*
X0033698Y0028485D01*
X0033631Y0028444D01*
X0033562Y0028408D01*
X0033491Y0028374D01*
X0033419Y0028344D01*
X0033345Y0028318D01*
X0033270Y0028296D01*
X0033194Y0028277D01*
X0033117Y0028263D01*
X0033039Y0028252D01*
X0032961Y0028245D01*
X0032883Y0028242D01*
X0032883Y0028279D01*
X0032961Y0028282D01*
X0033038Y0028289D01*
X0033115Y0028300D01*
X0033191Y0028315D01*
X0033267Y0028333D01*
X0033341Y0028356D01*
X0033414Y0028382D01*
X0033486Y0028412D01*
X0033556Y0028446D01*
X0033624Y0028483D01*
X0033690Y0028524D01*
X0033754Y0028567D01*
X0033816Y0028615D01*
X0033875Y0028665D01*
X0033932Y0028718D01*
X0033986Y0028774D01*
X0034037Y0028832D01*
X0034084Y0028894D01*
X0034129Y0028957D01*
X0034171Y0029023D01*
X0034208Y0029091D01*
X0034243Y0029160D01*
X0034274Y0029232D01*
X0034301Y0029304D01*
X0034324Y0029378D01*
X0034344Y0029454D01*
X0034360Y0029530D01*
X0034372Y0029606D01*
X0034380Y0029684D01*
X0034384Y0029761D01*
X0034384Y0029839D01*
X0034380Y0029916D01*
X0034372Y0029994D01*
X0034360Y0030070D01*
X0034344Y0030146D01*
X0034324Y0030222D01*
X0034301Y0030296D01*
X0034274Y0030368D01*
X0034243Y0030440D01*
X0034208Y0030509D01*
X0034171Y0030577D01*
X0034129Y0030643D01*
X0034084Y0030706D01*
X0034037Y0030768D01*
X0033986Y0030826D01*
X0033932Y0030882D01*
X0033875Y0030935D01*
X0033816Y0030985D01*
X0033754Y0031033D01*
X0033690Y0031076D01*
X0033624Y0031117D01*
X0033556Y0031154D01*
X0033486Y0031188D01*
X0033414Y0031218D01*
X0033341Y0031244D01*
X0033267Y0031267D01*
X0033191Y0031285D01*
X0033115Y0031300D01*
X0033038Y0031311D01*
X0032961Y0031318D01*
X0032883Y0031321D01*
X0032883Y0031284D01*
X0032959Y0031281D01*
X0033034Y0031274D01*
X0033109Y0031263D01*
X0033184Y0031249D01*
X0033257Y0031231D01*
X0033330Y0031209D01*
X0033401Y0031183D01*
X0033471Y0031154D01*
X0033539Y0031121D01*
X0033606Y0031085D01*
X0033670Y0031045D01*
X0033733Y0031002D01*
X0033793Y0030956D01*
X0033851Y0030908D01*
X0033906Y0030856D01*
X0033959Y0030801D01*
X0034008Y0030744D01*
X0034055Y0030684D01*
X0034098Y0030622D01*
X0034139Y0030558D01*
X0034176Y0030492D01*
X0034209Y0030424D01*
X0034240Y0030355D01*
X0034266Y0030284D01*
X0034289Y0030211D01*
X0034308Y0030138D01*
X0034323Y0030064D01*
X0034335Y0029989D01*
X0034343Y0029914D01*
X0034347Y0029838D01*
X0034347Y0029762D01*
X0034343Y0029686D01*
X0034335Y0029611D01*
X0034323Y0029536D01*
X0034308Y0029462D01*
X0034289Y0029389D01*
X0034266Y0029316D01*
X0034240Y0029245D01*
X0034209Y0029176D01*
X0034176Y0029108D01*
X0034139Y0029042D01*
X0034098Y0028978D01*
X0034055Y0028916D01*
X0034008Y0028856D01*
X0033959Y0028799D01*
X0033906Y0028744D01*
X0033851Y0028692D01*
X0033793Y0028644D01*
X0033733Y0028598D01*
X0033670Y0028555D01*
X0033606Y0028515D01*
X0033539Y0028479D01*
X0033471Y0028446D01*
X0033401Y0028417D01*
X0033330Y0028391D01*
X0033257Y0028369D01*
X0033184Y0028351D01*
X0033109Y0028337D01*
X0033034Y0028326D01*
X0032959Y0028319D01*
X0032883Y0028316D01*
X0032883Y0028353D01*
X0032958Y0028356D01*
X0033033Y0028363D01*
X0033107Y0028374D01*
X0033181Y0028388D01*
X0033254Y0028407D01*
X0033325Y0028429D01*
X0033396Y0028455D01*
X0033465Y0028484D01*
X0033532Y0028517D01*
X0033598Y0028554D01*
X0033662Y0028593D01*
X0033723Y0028636D01*
X0033782Y0028683D01*
X0033839Y0028732D01*
X0033893Y0028784D01*
X0033945Y0028839D01*
X0033993Y0028896D01*
X0034038Y0028956D01*
X0034081Y0029018D01*
X0034119Y0029082D01*
X0034155Y0029148D01*
X0034187Y0029216D01*
X0034216Y0029286D01*
X0034240Y0029357D01*
X0034262Y0029429D01*
X0034279Y0029502D01*
X0034292Y0029576D01*
X0034302Y0029650D01*
X0034308Y0029725D01*
X0034310Y0029800D01*
X0034308Y0029875D01*
X0034302Y0029950D01*
X0034292Y0030024D01*
X0034279Y0030098D01*
X0034262Y0030171D01*
X0034240Y0030243D01*
X0034216Y0030314D01*
X0034187Y0030384D01*
X0034155Y0030452D01*
X0034119Y0030518D01*
X0034081Y0030582D01*
X0034038Y0030644D01*
X0033993Y0030704D01*
X0033945Y0030761D01*
X0033893Y0030816D01*
X0033839Y0030868D01*
X0033782Y0030917D01*
X0033723Y0030964D01*
X0033662Y0031007D01*
X0033598Y0031046D01*
X0033532Y0031083D01*
X0033465Y0031116D01*
X0033396Y0031145D01*
X0033325Y0031171D01*
X0033254Y0031193D01*
X0033181Y0031212D01*
X0033107Y0031226D01*
X0033033Y0031237D01*
X0032958Y0031244D01*
X0032883Y0031247D01*
X0032883Y0031210D01*
X0032957Y0031207D01*
X0033031Y0031200D01*
X0033105Y0031189D01*
X0033178Y0031174D01*
X0033250Y0031156D01*
X0033321Y0031134D01*
X0033391Y0031108D01*
X0033459Y0031078D01*
X0033525Y0031045D01*
X0033590Y0031008D01*
X0033653Y0030968D01*
X0033713Y0030925D01*
X0033772Y0030878D01*
X0033827Y0030829D01*
X0033880Y0030777D01*
X0033930Y0030722D01*
X0033977Y0030664D01*
X0034021Y0030604D01*
X0034062Y0030542D01*
X0034100Y0030478D01*
X0034134Y0030411D01*
X0034164Y0030344D01*
X0034191Y0030274D01*
X0034214Y0030203D01*
X0034233Y0030132D01*
X0034249Y0030059D01*
X0034261Y0029985D01*
X0034269Y0029911D01*
X0034273Y0029837D01*
X0034273Y0029763D01*
X0034269Y0029689D01*
X0034261Y0029615D01*
X0034249Y0029541D01*
X0034233Y0029468D01*
X0034214Y0029397D01*
X0034191Y0029326D01*
X0034164Y0029256D01*
X0034134Y0029189D01*
X0034100Y0029122D01*
X0034062Y0029058D01*
X0034021Y0028996D01*
X0033977Y0028936D01*
X0033930Y0028878D01*
X0033880Y0028823D01*
X0033827Y0028771D01*
X0033772Y0028722D01*
X0033713Y0028675D01*
X0033653Y0028632D01*
X0033590Y0028592D01*
X0033525Y0028555D01*
X0033459Y0028522D01*
X0033391Y0028492D01*
X0033321Y0028466D01*
X0033250Y0028444D01*
X0033178Y0028426D01*
X0033105Y0028411D01*
X0033031Y0028400D01*
X0032957Y0028393D01*
X0032883Y0028390D01*
X0032883Y0028427D01*
X0032957Y0028430D01*
X0033030Y0028437D01*
X0033103Y0028448D01*
X0033175Y0028463D01*
X0033246Y0028482D01*
X0033316Y0028504D01*
X0033385Y0028530D01*
X0033453Y0028560D01*
X0033518Y0028593D01*
X0033582Y0028630D01*
X0033644Y0028671D01*
X0033703Y0028714D01*
X0033760Y0028761D01*
X0033815Y0028810D01*
X0033866Y0028863D01*
X0033915Y0028918D01*
X0033961Y0028976D01*
X0034004Y0029036D01*
X0034043Y0029098D01*
X0034079Y0029162D01*
X0034111Y0029229D01*
X0034140Y0029296D01*
X0034165Y0029366D01*
X0034187Y0029436D01*
X0034204Y0029508D01*
X0034218Y0029580D01*
X0034228Y0029653D01*
X0034234Y0029726D01*
X0034236Y0029800D01*
X0034234Y0029874D01*
X0034228Y0029947D01*
X0034218Y0030020D01*
X0034204Y0030092D01*
X0034187Y0030164D01*
X0034165Y0030234D01*
X0034140Y0030304D01*
X0034111Y0030371D01*
X0034079Y0030438D01*
X0034043Y0030502D01*
X0034004Y0030564D01*
X0033961Y0030624D01*
X0033915Y0030682D01*
X0033866Y0030737D01*
X0033815Y0030790D01*
X0033760Y0030839D01*
X0033703Y0030886D01*
X0033644Y0030929D01*
X0033582Y0030970D01*
X0033518Y0031007D01*
X0033453Y0031040D01*
X0033385Y0031070D01*
X0033316Y0031096D01*
X0033246Y0031118D01*
X0033175Y0031137D01*
X0033103Y0031152D01*
X0033030Y0031163D01*
X0032957Y0031170D01*
X0032883Y0031173D01*
X0032883Y0031136D01*
X0032956Y0031133D01*
X0033028Y0031126D01*
X0033101Y0031115D01*
X0033172Y0031100D01*
X0033242Y0031081D01*
X0033312Y0031058D01*
X0033380Y0031032D01*
X0033446Y0031002D01*
X0033511Y0030968D01*
X0033574Y0030931D01*
X0033634Y0030891D01*
X0033693Y0030847D01*
X0033749Y0030800D01*
X0033802Y0030750D01*
X0033852Y0030698D01*
X0033900Y0030643D01*
X0033944Y0030585D01*
X0033985Y0030525D01*
X0034023Y0030462D01*
X0034058Y0030398D01*
X0034089Y0030332D01*
X0034116Y0030264D01*
X0034139Y0030195D01*
X0034159Y0030125D01*
X0034175Y0030054D01*
X0034187Y0029982D01*
X0034195Y0029909D01*
X0034199Y0029836D01*
X0034199Y0029764D01*
X0034195Y0029691D01*
X0034187Y0029618D01*
X0034175Y0029546D01*
X0034159Y0029475D01*
X0034139Y0029405D01*
X0034116Y0029336D01*
X0034089Y0029268D01*
X0034058Y0029202D01*
X0034023Y0029138D01*
X0033985Y0029075D01*
X0033944Y0029015D01*
X0033900Y0028957D01*
X0033852Y0028902D01*
X0033802Y0028850D01*
X0033749Y0028800D01*
X0033693Y0028753D01*
X0033634Y0028709D01*
X0033574Y0028669D01*
X0033511Y0028632D01*
X0033446Y0028598D01*
X0033380Y0028568D01*
X0033312Y0028542D01*
X0033242Y0028519D01*
X0033172Y0028500D01*
X0033101Y0028485D01*
X0033028Y0028474D01*
X0032956Y0028467D01*
X0032883Y0028464D01*
X0032883Y0028501D01*
X0032954Y0028504D01*
X0033024Y0028511D01*
X0033094Y0028522D01*
X0033164Y0028536D01*
X0033232Y0028555D01*
X0033300Y0028577D01*
X0033366Y0028602D01*
X0033430Y0028631D01*
X0033493Y0028664D01*
X0033554Y0028700D01*
X0033613Y0028740D01*
X0033670Y0028782D01*
X0033724Y0028828D01*
X0033776Y0028876D01*
X0033825Y0028927D01*
X0033871Y0028981D01*
X0033914Y0029037D01*
X0033954Y0029096D01*
X0033991Y0029156D01*
X0034025Y0029219D01*
X0034055Y0029283D01*
X0034081Y0029349D01*
X0034104Y0029416D01*
X0034123Y0029484D01*
X0034138Y0029553D01*
X0034150Y0029623D01*
X0034158Y0029694D01*
X0034162Y0029765D01*
X0034162Y0029835D01*
X0034158Y0029906D01*
X0034150Y0029977D01*
X0034138Y0030047D01*
X0034123Y0030116D01*
X0034104Y0030184D01*
X0034081Y0030251D01*
X0034055Y0030317D01*
X0034025Y0030381D01*
X0033991Y0030444D01*
X0033954Y0030504D01*
X0033914Y0030563D01*
X0033871Y0030619D01*
X0033825Y0030673D01*
X0033776Y0030724D01*
X0033724Y0030772D01*
X0033670Y0030818D01*
X0033613Y0030860D01*
X0033554Y0030900D01*
X0033493Y0030936D01*
X0033430Y0030969D01*
X0033366Y0030998D01*
X0033300Y0031023D01*
X0033232Y0031045D01*
X0033164Y0031064D01*
X0033094Y0031078D01*
X0033024Y0031089D01*
X0032954Y0031096D01*
X0032883Y0031099D01*
X0032883Y0031062D01*
X0032953Y0031059D01*
X0033023Y0031052D01*
X0033092Y0031041D01*
X0033161Y0031026D01*
X0033228Y0031008D01*
X0033295Y0030986D01*
X0033360Y0030960D01*
X0033423Y0030931D01*
X0033485Y0030898D01*
X0033545Y0030862D01*
X0033603Y0030822D01*
X0033659Y0030780D01*
X0033712Y0030734D01*
X0033762Y0030685D01*
X0033810Y0030634D01*
X0033855Y0030580D01*
X0033897Y0030524D01*
X0033935Y0030465D01*
X0033971Y0030405D01*
X0034002Y0030342D01*
X0034031Y0030278D01*
X0034056Y0030213D01*
X0034077Y0030146D01*
X0034094Y0030078D01*
X0034108Y0030009D01*
X0034117Y0029940D01*
X0034123Y0029870D01*
X0034125Y0029800D01*
X0034123Y0029730D01*
X0034117Y0029660D01*
X0034108Y0029591D01*
X0034094Y0029522D01*
X0034077Y0029454D01*
X0034056Y0029387D01*
X0034031Y0029322D01*
X0034002Y0029258D01*
X0033971Y0029195D01*
X0033935Y0029135D01*
X0033897Y0029076D01*
X0033855Y0029020D01*
X0033810Y0028966D01*
X0033762Y0028915D01*
X0033712Y0028866D01*
X0033659Y0028820D01*
X0033603Y0028778D01*
X0033545Y0028738D01*
X0033485Y0028702D01*
X0033423Y0028669D01*
X0033360Y0028640D01*
X0033295Y0028614D01*
X0033228Y0028592D01*
X0033161Y0028574D01*
X0033092Y0028559D01*
X0033023Y0028548D01*
X0032953Y0028541D01*
X0032883Y0028538D01*
X0032883Y0028575D01*
X0032952Y0028578D01*
X0033021Y0028585D01*
X0033089Y0028596D01*
X0033157Y0028611D01*
X0033224Y0028629D01*
X0033289Y0028652D01*
X0033354Y0028678D01*
X0033416Y0028707D01*
X0033477Y0028740D01*
X0033536Y0028776D01*
X0033593Y0028816D01*
X0033647Y0028859D01*
X0033699Y0028905D01*
X0033748Y0028953D01*
X0033795Y0029005D01*
X0033838Y0029059D01*
X0033878Y0029115D01*
X0033916Y0029173D01*
X0033949Y0029234D01*
X0033980Y0029296D01*
X0034006Y0029360D01*
X0034029Y0029425D01*
X0034049Y0029492D01*
X0034064Y0029559D01*
X0034076Y0029627D01*
X0034084Y0029696D01*
X0034088Y0029765D01*
X0034088Y0029835D01*
X0034084Y0029904D01*
X0034076Y0029973D01*
X0034064Y0030041D01*
X0034049Y0030108D01*
X0034029Y0030175D01*
X0034006Y0030240D01*
X0033980Y0030304D01*
X0033949Y0030366D01*
X0033916Y0030427D01*
X0033878Y0030485D01*
X0033838Y0030541D01*
X0033795Y0030595D01*
X0033748Y0030647D01*
X0033699Y0030695D01*
X0033647Y0030741D01*
X0033593Y0030784D01*
X0033536Y0030824D01*
X0033477Y0030860D01*
X0033416Y0030893D01*
X0033354Y0030922D01*
X0033289Y0030948D01*
X0033224Y0030971D01*
X0033157Y0030989D01*
X0033089Y0031004D01*
X0033021Y0031015D01*
X0032952Y0031022D01*
X0032883Y0031025D01*
X0032882Y0020243D02*
X0032882Y0020603D01*
X0032883Y0020602D02*
X0032952Y0020605D01*
X0033020Y0020612D01*
X0033089Y0020623D01*
X0033156Y0020638D01*
X0033222Y0020657D01*
X0033287Y0020680D01*
X0033351Y0020706D01*
X0033413Y0020736D01*
X0033474Y0020769D01*
X0033532Y0020806D01*
X0033588Y0020846D01*
X0033642Y0020889D01*
X0033693Y0020936D01*
X0033741Y0020985D01*
X0033786Y0021037D01*
X0033829Y0021091D01*
X0033868Y0021148D01*
X0033904Y0021207D01*
X0033936Y0021268D01*
X0033965Y0021330D01*
X0033990Y0021394D01*
X0034012Y0021460D01*
X0034029Y0021527D01*
X0034043Y0021594D01*
X0034053Y0021662D01*
X0034059Y0021731D01*
X0034061Y0021800D01*
X0034059Y0021869D01*
X0034053Y0021938D01*
X0034043Y0022006D01*
X0034029Y0022073D01*
X0034012Y0022140D01*
X0033990Y0022206D01*
X0033965Y0022270D01*
X0033936Y0022332D01*
X0033904Y0022393D01*
X0033868Y0022452D01*
X0033829Y0022509D01*
X0033786Y0022563D01*
X0033741Y0022615D01*
X0033693Y0022664D01*
X0033642Y0022711D01*
X0033588Y0022754D01*
X0033532Y0022794D01*
X0033474Y0022831D01*
X0033413Y0022864D01*
X0033351Y0022894D01*
X0033287Y0022920D01*
X0033222Y0022943D01*
X0033156Y0022962D01*
X0033089Y0022977D01*
X0033020Y0022988D01*
X0032952Y0022995D01*
X0032883Y0022998D01*
X0032882Y0023357D01*
X0032883Y0023358D01*
X0032961Y0023355D01*
X0033039Y0023348D01*
X0033117Y0023337D01*
X0033194Y0023323D01*
X0033270Y0023304D01*
X0033345Y0023282D01*
X0033419Y0023256D01*
X0033491Y0023226D01*
X0033562Y0023192D01*
X0033631Y0023156D01*
X0033698Y0023115D01*
X0033763Y0023072D01*
X0033826Y0023025D01*
X0033886Y0022975D01*
X0033944Y0022922D01*
X0033999Y0022866D01*
X0034051Y0022808D01*
X0034100Y0022747D01*
X0034146Y0022684D01*
X0034189Y0022618D01*
X0034228Y0022550D01*
X0034264Y0022481D01*
X0034297Y0022410D01*
X0034326Y0022337D01*
X0034351Y0022263D01*
X0034372Y0022187D01*
X0034390Y0022111D01*
X0034403Y0022034D01*
X0034413Y0021956D01*
X0034419Y0021878D01*
X0034421Y0021800D01*
X0034419Y0021722D01*
X0034413Y0021644D01*
X0034403Y0021566D01*
X0034390Y0021489D01*
X0034372Y0021413D01*
X0034351Y0021337D01*
X0034326Y0021263D01*
X0034297Y0021190D01*
X0034264Y0021119D01*
X0034228Y0021050D01*
X0034189Y0020982D01*
X0034146Y0020916D01*
X0034100Y0020853D01*
X0034051Y0020792D01*
X0033999Y0020734D01*
X0033944Y0020678D01*
X0033886Y0020625D01*
X0033826Y0020575D01*
X0033763Y0020528D01*
X0033698Y0020485D01*
X0033631Y0020444D01*
X0033562Y0020408D01*
X0033491Y0020374D01*
X0033419Y0020344D01*
X0033345Y0020318D01*
X0033270Y0020296D01*
X0033194Y0020277D01*
X0033117Y0020263D01*
X0033039Y0020252D01*
X0032961Y0020245D01*
X0032883Y0020242D01*
X0032883Y0020279D01*
X0032961Y0020282D01*
X0033038Y0020289D01*
X0033115Y0020300D01*
X0033191Y0020315D01*
X0033267Y0020333D01*
X0033341Y0020356D01*
X0033414Y0020382D01*
X0033486Y0020412D01*
X0033556Y0020446D01*
X0033624Y0020483D01*
X0033690Y0020524D01*
X0033754Y0020567D01*
X0033816Y0020615D01*
X0033875Y0020665D01*
X0033932Y0020718D01*
X0033986Y0020774D01*
X0034037Y0020832D01*
X0034084Y0020894D01*
X0034129Y0020957D01*
X0034171Y0021023D01*
X0034208Y0021091D01*
X0034243Y0021160D01*
X0034274Y0021232D01*
X0034301Y0021304D01*
X0034324Y0021378D01*
X0034344Y0021454D01*
X0034360Y0021530D01*
X0034372Y0021606D01*
X0034380Y0021684D01*
X0034384Y0021761D01*
X0034384Y0021839D01*
X0034380Y0021916D01*
X0034372Y0021994D01*
X0034360Y0022070D01*
X0034344Y0022146D01*
X0034324Y0022222D01*
X0034301Y0022296D01*
X0034274Y0022368D01*
X0034243Y0022440D01*
X0034208Y0022509D01*
X0034171Y0022577D01*
X0034129Y0022643D01*
X0034084Y0022706D01*
X0034037Y0022768D01*
X0033986Y0022826D01*
X0033932Y0022882D01*
X0033875Y0022935D01*
X0033816Y0022985D01*
X0033754Y0023033D01*
X0033690Y0023076D01*
X0033624Y0023117D01*
X0033556Y0023154D01*
X0033486Y0023188D01*
X0033414Y0023218D01*
X0033341Y0023244D01*
X0033267Y0023267D01*
X0033191Y0023285D01*
X0033115Y0023300D01*
X0033038Y0023311D01*
X0032961Y0023318D01*
X0032883Y0023321D01*
X0032883Y0023284D01*
X0032959Y0023281D01*
X0033034Y0023274D01*
X0033109Y0023263D01*
X0033184Y0023249D01*
X0033257Y0023231D01*
X0033330Y0023209D01*
X0033401Y0023183D01*
X0033471Y0023154D01*
X0033539Y0023121D01*
X0033606Y0023085D01*
X0033670Y0023045D01*
X0033733Y0023002D01*
X0033793Y0022956D01*
X0033851Y0022908D01*
X0033906Y0022856D01*
X0033959Y0022801D01*
X0034008Y0022744D01*
X0034055Y0022684D01*
X0034098Y0022622D01*
X0034139Y0022558D01*
X0034176Y0022492D01*
X0034209Y0022424D01*
X0034240Y0022355D01*
X0034266Y0022284D01*
X0034289Y0022211D01*
X0034308Y0022138D01*
X0034323Y0022064D01*
X0034335Y0021989D01*
X0034343Y0021914D01*
X0034347Y0021838D01*
X0034347Y0021762D01*
X0034343Y0021686D01*
X0034335Y0021611D01*
X0034323Y0021536D01*
X0034308Y0021462D01*
X0034289Y0021389D01*
X0034266Y0021316D01*
X0034240Y0021245D01*
X0034209Y0021176D01*
X0034176Y0021108D01*
X0034139Y0021042D01*
X0034098Y0020978D01*
X0034055Y0020916D01*
X0034008Y0020856D01*
X0033959Y0020799D01*
X0033906Y0020744D01*
X0033851Y0020692D01*
X0033793Y0020644D01*
X0033733Y0020598D01*
X0033670Y0020555D01*
X0033606Y0020515D01*
X0033539Y0020479D01*
X0033471Y0020446D01*
X0033401Y0020417D01*
X0033330Y0020391D01*
X0033257Y0020369D01*
X0033184Y0020351D01*
X0033109Y0020337D01*
X0033034Y0020326D01*
X0032959Y0020319D01*
X0032883Y0020316D01*
X0032883Y0020353D01*
X0032958Y0020356D01*
X0033033Y0020363D01*
X0033107Y0020374D01*
X0033181Y0020388D01*
X0033254Y0020407D01*
X0033325Y0020429D01*
X0033396Y0020455D01*
X0033465Y0020484D01*
X0033532Y0020517D01*
X0033598Y0020554D01*
X0033662Y0020593D01*
X0033723Y0020636D01*
X0033782Y0020683D01*
X0033839Y0020732D01*
X0033893Y0020784D01*
X0033945Y0020839D01*
X0033993Y0020896D01*
X0034038Y0020956D01*
X0034081Y0021018D01*
X0034119Y0021082D01*
X0034155Y0021148D01*
X0034187Y0021216D01*
X0034216Y0021286D01*
X0034240Y0021357D01*
X0034262Y0021429D01*
X0034279Y0021502D01*
X0034292Y0021576D01*
X0034302Y0021650D01*
X0034308Y0021725D01*
X0034310Y0021800D01*
X0034308Y0021875D01*
X0034302Y0021950D01*
X0034292Y0022024D01*
X0034279Y0022098D01*
X0034262Y0022171D01*
X0034240Y0022243D01*
X0034216Y0022314D01*
X0034187Y0022384D01*
X0034155Y0022452D01*
X0034119Y0022518D01*
X0034081Y0022582D01*
X0034038Y0022644D01*
X0033993Y0022704D01*
X0033945Y0022761D01*
X0033893Y0022816D01*
X0033839Y0022868D01*
X0033782Y0022917D01*
X0033723Y0022964D01*
X0033662Y0023007D01*
X0033598Y0023046D01*
X0033532Y0023083D01*
X0033465Y0023116D01*
X0033396Y0023145D01*
X0033325Y0023171D01*
X0033254Y0023193D01*
X0033181Y0023212D01*
X0033107Y0023226D01*
X0033033Y0023237D01*
X0032958Y0023244D01*
X0032883Y0023247D01*
X0032883Y0023210D01*
X0032957Y0023207D01*
X0033031Y0023200D01*
X0033105Y0023189D01*
X0033178Y0023174D01*
X0033250Y0023156D01*
X0033321Y0023134D01*
X0033391Y0023108D01*
X0033459Y0023078D01*
X0033525Y0023045D01*
X0033590Y0023008D01*
X0033653Y0022968D01*
X0033713Y0022925D01*
X0033772Y0022878D01*
X0033827Y0022829D01*
X0033880Y0022777D01*
X0033930Y0022722D01*
X0033977Y0022664D01*
X0034021Y0022604D01*
X0034062Y0022542D01*
X0034100Y0022478D01*
X0034134Y0022411D01*
X0034164Y0022344D01*
X0034191Y0022274D01*
X0034214Y0022203D01*
X0034233Y0022132D01*
X0034249Y0022059D01*
X0034261Y0021985D01*
X0034269Y0021911D01*
X0034273Y0021837D01*
X0034273Y0021763D01*
X0034269Y0021689D01*
X0034261Y0021615D01*
X0034249Y0021541D01*
X0034233Y0021468D01*
X0034214Y0021397D01*
X0034191Y0021326D01*
X0034164Y0021256D01*
X0034134Y0021189D01*
X0034100Y0021122D01*
X0034062Y0021058D01*
X0034021Y0020996D01*
X0033977Y0020936D01*
X0033930Y0020878D01*
X0033880Y0020823D01*
X0033827Y0020771D01*
X0033772Y0020722D01*
X0033713Y0020675D01*
X0033653Y0020632D01*
X0033590Y0020592D01*
X0033525Y0020555D01*
X0033459Y0020522D01*
X0033391Y0020492D01*
X0033321Y0020466D01*
X0033250Y0020444D01*
X0033178Y0020426D01*
X0033105Y0020411D01*
X0033031Y0020400D01*
X0032957Y0020393D01*
X0032883Y0020390D01*
X0032883Y0020427D01*
X0032957Y0020430D01*
X0033030Y0020437D01*
X0033103Y0020448D01*
X0033175Y0020463D01*
X0033246Y0020482D01*
X0033316Y0020504D01*
X0033385Y0020530D01*
X0033453Y0020560D01*
X0033518Y0020593D01*
X0033582Y0020630D01*
X0033644Y0020671D01*
X0033703Y0020714D01*
X0033760Y0020761D01*
X0033815Y0020810D01*
X0033866Y0020863D01*
X0033915Y0020918D01*
X0033961Y0020976D01*
X0034004Y0021036D01*
X0034043Y0021098D01*
X0034079Y0021162D01*
X0034111Y0021229D01*
X0034140Y0021296D01*
X0034165Y0021366D01*
X0034187Y0021436D01*
X0034204Y0021508D01*
X0034218Y0021580D01*
X0034228Y0021653D01*
X0034234Y0021726D01*
X0034236Y0021800D01*
X0034234Y0021874D01*
X0034228Y0021947D01*
X0034218Y0022020D01*
X0034204Y0022092D01*
X0034187Y0022164D01*
X0034165Y0022234D01*
X0034140Y0022304D01*
X0034111Y0022371D01*
X0034079Y0022438D01*
X0034043Y0022502D01*
X0034004Y0022564D01*
X0033961Y0022624D01*
X0033915Y0022682D01*
X0033866Y0022737D01*
X0033815Y0022790D01*
X0033760Y0022839D01*
X0033703Y0022886D01*
X0033644Y0022929D01*
X0033582Y0022970D01*
X0033518Y0023007D01*
X0033453Y0023040D01*
X0033385Y0023070D01*
X0033316Y0023096D01*
X0033246Y0023118D01*
X0033175Y0023137D01*
X0033103Y0023152D01*
X0033030Y0023163D01*
X0032957Y0023170D01*
X0032883Y0023173D01*
X0032883Y0023136D01*
X0032956Y0023133D01*
X0033028Y0023126D01*
X0033101Y0023115D01*
X0033172Y0023100D01*
X0033242Y0023081D01*
X0033312Y0023058D01*
X0033380Y0023032D01*
X0033446Y0023002D01*
X0033511Y0022968D01*
X0033574Y0022931D01*
X0033634Y0022891D01*
X0033693Y0022847D01*
X0033749Y0022800D01*
X0033802Y0022750D01*
X0033852Y0022698D01*
X0033900Y0022643D01*
X0033944Y0022585D01*
X0033985Y0022525D01*
X0034023Y0022462D01*
X0034058Y0022398D01*
X0034089Y0022332D01*
X0034116Y0022264D01*
X0034139Y0022195D01*
X0034159Y0022125D01*
X0034175Y0022054D01*
X0034187Y0021982D01*
X0034195Y0021909D01*
X0034199Y0021836D01*
X0034199Y0021764D01*
X0034195Y0021691D01*
X0034187Y0021618D01*
X0034175Y0021546D01*
X0034159Y0021475D01*
X0034139Y0021405D01*
X0034116Y0021336D01*
X0034089Y0021268D01*
X0034058Y0021202D01*
X0034023Y0021138D01*
X0033985Y0021075D01*
X0033944Y0021015D01*
X0033900Y0020957D01*
X0033852Y0020902D01*
X0033802Y0020850D01*
X0033749Y0020800D01*
X0033693Y0020753D01*
X0033634Y0020709D01*
X0033574Y0020669D01*
X0033511Y0020632D01*
X0033446Y0020598D01*
X0033380Y0020568D01*
X0033312Y0020542D01*
X0033242Y0020519D01*
X0033172Y0020500D01*
X0033101Y0020485D01*
X0033028Y0020474D01*
X0032956Y0020467D01*
X0032883Y0020464D01*
X0032883Y0020501D01*
X0032954Y0020504D01*
X0033024Y0020511D01*
X0033094Y0020522D01*
X0033164Y0020536D01*
X0033232Y0020555D01*
X0033300Y0020577D01*
X0033366Y0020602D01*
X0033430Y0020631D01*
X0033493Y0020664D01*
X0033554Y0020700D01*
X0033613Y0020740D01*
X0033670Y0020782D01*
X0033724Y0020828D01*
X0033776Y0020876D01*
X0033825Y0020927D01*
X0033871Y0020981D01*
X0033914Y0021037D01*
X0033954Y0021096D01*
X0033991Y0021156D01*
X0034025Y0021219D01*
X0034055Y0021283D01*
X0034081Y0021349D01*
X0034104Y0021416D01*
X0034123Y0021484D01*
X0034138Y0021553D01*
X0034150Y0021623D01*
X0034158Y0021694D01*
X0034162Y0021765D01*
X0034162Y0021835D01*
X0034158Y0021906D01*
X0034150Y0021977D01*
X0034138Y0022047D01*
X0034123Y0022116D01*
X0034104Y0022184D01*
X0034081Y0022251D01*
X0034055Y0022317D01*
X0034025Y0022381D01*
X0033991Y0022444D01*
X0033954Y0022504D01*
X0033914Y0022563D01*
X0033871Y0022619D01*
X0033825Y0022673D01*
X0033776Y0022724D01*
X0033724Y0022772D01*
X0033670Y0022818D01*
X0033613Y0022860D01*
X0033554Y0022900D01*
X0033493Y0022936D01*
X0033430Y0022969D01*
X0033366Y0022998D01*
X0033300Y0023023D01*
X0033232Y0023045D01*
X0033164Y0023064D01*
X0033094Y0023078D01*
X0033024Y0023089D01*
X0032954Y0023096D01*
X0032883Y0023099D01*
X0032883Y0023062D01*
X0032953Y0023059D01*
X0033023Y0023052D01*
X0033092Y0023041D01*
X0033161Y0023026D01*
X0033228Y0023008D01*
X0033295Y0022986D01*
X0033360Y0022960D01*
X0033423Y0022931D01*
X0033485Y0022898D01*
X0033545Y0022862D01*
X0033603Y0022822D01*
X0033659Y0022780D01*
X0033712Y0022734D01*
X0033762Y0022685D01*
X0033810Y0022634D01*
X0033855Y0022580D01*
X0033897Y0022524D01*
X0033935Y0022465D01*
X0033971Y0022405D01*
X0034002Y0022342D01*
X0034031Y0022278D01*
X0034056Y0022213D01*
X0034077Y0022146D01*
X0034094Y0022078D01*
X0034108Y0022009D01*
X0034117Y0021940D01*
X0034123Y0021870D01*
X0034125Y0021800D01*
X0034123Y0021730D01*
X0034117Y0021660D01*
X0034108Y0021591D01*
X0034094Y0021522D01*
X0034077Y0021454D01*
X0034056Y0021387D01*
X0034031Y0021322D01*
X0034002Y0021258D01*
X0033971Y0021195D01*
X0033935Y0021135D01*
X0033897Y0021076D01*
X0033855Y0021020D01*
X0033810Y0020966D01*
X0033762Y0020915D01*
X0033712Y0020866D01*
X0033659Y0020820D01*
X0033603Y0020778D01*
X0033545Y0020738D01*
X0033485Y0020702D01*
X0033423Y0020669D01*
X0033360Y0020640D01*
X0033295Y0020614D01*
X0033228Y0020592D01*
X0033161Y0020574D01*
X0033092Y0020559D01*
X0033023Y0020548D01*
X0032953Y0020541D01*
X0032883Y0020538D01*
X0032883Y0020575D01*
X0032952Y0020578D01*
X0033021Y0020585D01*
X0033089Y0020596D01*
X0033157Y0020611D01*
X0033224Y0020629D01*
X0033289Y0020652D01*
X0033354Y0020678D01*
X0033416Y0020707D01*
X0033477Y0020740D01*
X0033536Y0020776D01*
X0033593Y0020816D01*
X0033647Y0020859D01*
X0033699Y0020905D01*
X0033748Y0020953D01*
X0033795Y0021005D01*
X0033838Y0021059D01*
X0033878Y0021115D01*
X0033916Y0021173D01*
X0033949Y0021234D01*
X0033980Y0021296D01*
X0034006Y0021360D01*
X0034029Y0021425D01*
X0034049Y0021492D01*
X0034064Y0021559D01*
X0034076Y0021627D01*
X0034084Y0021696D01*
X0034088Y0021765D01*
X0034088Y0021835D01*
X0034084Y0021904D01*
X0034076Y0021973D01*
X0034064Y0022041D01*
X0034049Y0022108D01*
X0034029Y0022175D01*
X0034006Y0022240D01*
X0033980Y0022304D01*
X0033949Y0022366D01*
X0033916Y0022427D01*
X0033878Y0022485D01*
X0033838Y0022541D01*
X0033795Y0022595D01*
X0033748Y0022647D01*
X0033699Y0022695D01*
X0033647Y0022741D01*
X0033593Y0022784D01*
X0033536Y0022824D01*
X0033477Y0022860D01*
X0033416Y0022893D01*
X0033354Y0022922D01*
X0033289Y0022948D01*
X0033224Y0022971D01*
X0033157Y0022989D01*
X0033089Y0023004D01*
X0033021Y0023015D01*
X0032952Y0023022D01*
X0032883Y0023025D01*
X0040718Y0023357D02*
X0040718Y0022997D01*
X0040717Y0022998D02*
X0040648Y0022995D01*
X0040580Y0022988D01*
X0040511Y0022977D01*
X0040444Y0022962D01*
X0040378Y0022943D01*
X0040313Y0022920D01*
X0040249Y0022894D01*
X0040187Y0022864D01*
X0040126Y0022831D01*
X0040068Y0022794D01*
X0040012Y0022754D01*
X0039958Y0022711D01*
X0039907Y0022664D01*
X0039859Y0022615D01*
X0039814Y0022563D01*
X0039771Y0022509D01*
X0039732Y0022452D01*
X0039696Y0022393D01*
X0039664Y0022332D01*
X0039635Y0022270D01*
X0039610Y0022206D01*
X0039588Y0022140D01*
X0039571Y0022073D01*
X0039557Y0022006D01*
X0039547Y0021938D01*
X0039541Y0021869D01*
X0039539Y0021800D01*
X0039541Y0021731D01*
X0039547Y0021662D01*
X0039557Y0021594D01*
X0039571Y0021527D01*
X0039588Y0021460D01*
X0039610Y0021394D01*
X0039635Y0021330D01*
X0039664Y0021268D01*
X0039696Y0021207D01*
X0039732Y0021148D01*
X0039771Y0021091D01*
X0039814Y0021037D01*
X0039859Y0020985D01*
X0039907Y0020936D01*
X0039958Y0020889D01*
X0040012Y0020846D01*
X0040068Y0020806D01*
X0040126Y0020769D01*
X0040187Y0020736D01*
X0040249Y0020706D01*
X0040313Y0020680D01*
X0040378Y0020657D01*
X0040444Y0020638D01*
X0040511Y0020623D01*
X0040580Y0020612D01*
X0040648Y0020605D01*
X0040717Y0020602D01*
X0040718Y0020243D01*
X0040717Y0020242D01*
X0040639Y0020245D01*
X0040561Y0020252D01*
X0040483Y0020263D01*
X0040406Y0020277D01*
X0040330Y0020296D01*
X0040255Y0020318D01*
X0040181Y0020344D01*
X0040109Y0020374D01*
X0040038Y0020408D01*
X0039969Y0020444D01*
X0039902Y0020485D01*
X0039837Y0020528D01*
X0039774Y0020575D01*
X0039714Y0020625D01*
X0039656Y0020678D01*
X0039601Y0020734D01*
X0039549Y0020792D01*
X0039500Y0020853D01*
X0039454Y0020916D01*
X0039411Y0020982D01*
X0039372Y0021050D01*
X0039336Y0021119D01*
X0039303Y0021190D01*
X0039274Y0021263D01*
X0039249Y0021337D01*
X0039228Y0021413D01*
X0039210Y0021489D01*
X0039197Y0021566D01*
X0039187Y0021644D01*
X0039181Y0021722D01*
X0039179Y0021800D01*
X0039181Y0021878D01*
X0039187Y0021956D01*
X0039197Y0022034D01*
X0039210Y0022111D01*
X0039228Y0022187D01*
X0039249Y0022263D01*
X0039274Y0022337D01*
X0039303Y0022410D01*
X0039336Y0022481D01*
X0039372Y0022550D01*
X0039411Y0022618D01*
X0039454Y0022684D01*
X0039500Y0022747D01*
X0039549Y0022808D01*
X0039601Y0022866D01*
X0039656Y0022922D01*
X0039714Y0022975D01*
X0039774Y0023025D01*
X0039837Y0023072D01*
X0039902Y0023115D01*
X0039969Y0023156D01*
X0040038Y0023192D01*
X0040109Y0023226D01*
X0040181Y0023256D01*
X0040255Y0023282D01*
X0040330Y0023304D01*
X0040406Y0023323D01*
X0040483Y0023337D01*
X0040561Y0023348D01*
X0040639Y0023355D01*
X0040717Y0023358D01*
X0040717Y0023321D01*
X0040639Y0023318D01*
X0040562Y0023311D01*
X0040485Y0023300D01*
X0040409Y0023285D01*
X0040333Y0023267D01*
X0040259Y0023244D01*
X0040186Y0023218D01*
X0040114Y0023188D01*
X0040044Y0023154D01*
X0039976Y0023117D01*
X0039910Y0023076D01*
X0039846Y0023033D01*
X0039784Y0022985D01*
X0039725Y0022935D01*
X0039668Y0022882D01*
X0039614Y0022826D01*
X0039563Y0022768D01*
X0039516Y0022706D01*
X0039471Y0022643D01*
X0039429Y0022577D01*
X0039392Y0022509D01*
X0039357Y0022440D01*
X0039326Y0022368D01*
X0039299Y0022296D01*
X0039276Y0022222D01*
X0039256Y0022146D01*
X0039240Y0022070D01*
X0039228Y0021994D01*
X0039220Y0021916D01*
X0039216Y0021839D01*
X0039216Y0021761D01*
X0039220Y0021684D01*
X0039228Y0021606D01*
X0039240Y0021530D01*
X0039256Y0021454D01*
X0039276Y0021378D01*
X0039299Y0021304D01*
X0039326Y0021232D01*
X0039357Y0021160D01*
X0039392Y0021091D01*
X0039429Y0021023D01*
X0039471Y0020957D01*
X0039516Y0020894D01*
X0039563Y0020832D01*
X0039614Y0020774D01*
X0039668Y0020718D01*
X0039725Y0020665D01*
X0039784Y0020615D01*
X0039846Y0020567D01*
X0039910Y0020524D01*
X0039976Y0020483D01*
X0040044Y0020446D01*
X0040114Y0020412D01*
X0040186Y0020382D01*
X0040259Y0020356D01*
X0040333Y0020333D01*
X0040409Y0020315D01*
X0040485Y0020300D01*
X0040562Y0020289D01*
X0040639Y0020282D01*
X0040717Y0020279D01*
X0040717Y0020316D01*
X0040641Y0020319D01*
X0040566Y0020326D01*
X0040491Y0020337D01*
X0040416Y0020351D01*
X0040343Y0020369D01*
X0040270Y0020391D01*
X0040199Y0020417D01*
X0040129Y0020446D01*
X0040061Y0020479D01*
X0039994Y0020515D01*
X0039930Y0020555D01*
X0039867Y0020598D01*
X0039807Y0020644D01*
X0039749Y0020692D01*
X0039694Y0020744D01*
X0039641Y0020799D01*
X0039592Y0020856D01*
X0039545Y0020916D01*
X0039502Y0020978D01*
X0039461Y0021042D01*
X0039424Y0021108D01*
X0039391Y0021176D01*
X0039360Y0021245D01*
X0039334Y0021316D01*
X0039311Y0021389D01*
X0039292Y0021462D01*
X0039277Y0021536D01*
X0039265Y0021611D01*
X0039257Y0021686D01*
X0039253Y0021762D01*
X0039253Y0021838D01*
X0039257Y0021914D01*
X0039265Y0021989D01*
X0039277Y0022064D01*
X0039292Y0022138D01*
X0039311Y0022211D01*
X0039334Y0022284D01*
X0039360Y0022355D01*
X0039391Y0022424D01*
X0039424Y0022492D01*
X0039461Y0022558D01*
X0039502Y0022622D01*
X0039545Y0022684D01*
X0039592Y0022744D01*
X0039641Y0022801D01*
X0039694Y0022856D01*
X0039749Y0022908D01*
X0039807Y0022956D01*
X0039867Y0023002D01*
X0039930Y0023045D01*
X0039994Y0023085D01*
X0040061Y0023121D01*
X0040129Y0023154D01*
X0040199Y0023183D01*
X0040270Y0023209D01*
X0040343Y0023231D01*
X0040416Y0023249D01*
X0040491Y0023263D01*
X0040566Y0023274D01*
X0040641Y0023281D01*
X0040717Y0023284D01*
X0040717Y0023247D01*
X0040642Y0023244D01*
X0040567Y0023237D01*
X0040493Y0023226D01*
X0040419Y0023212D01*
X0040346Y0023193D01*
X0040275Y0023171D01*
X0040204Y0023145D01*
X0040135Y0023116D01*
X0040068Y0023083D01*
X0040002Y0023046D01*
X0039938Y0023007D01*
X0039877Y0022964D01*
X0039818Y0022917D01*
X0039761Y0022868D01*
X0039707Y0022816D01*
X0039655Y0022761D01*
X0039607Y0022704D01*
X0039562Y0022644D01*
X0039519Y0022582D01*
X0039481Y0022518D01*
X0039445Y0022452D01*
X0039413Y0022384D01*
X0039384Y0022314D01*
X0039360Y0022243D01*
X0039338Y0022171D01*
X0039321Y0022098D01*
X0039308Y0022024D01*
X0039298Y0021950D01*
X0039292Y0021875D01*
X0039290Y0021800D01*
X0039292Y0021725D01*
X0039298Y0021650D01*
X0039308Y0021576D01*
X0039321Y0021502D01*
X0039338Y0021429D01*
X0039360Y0021357D01*
X0039384Y0021286D01*
X0039413Y0021216D01*
X0039445Y0021148D01*
X0039481Y0021082D01*
X0039519Y0021018D01*
X0039562Y0020956D01*
X0039607Y0020896D01*
X0039655Y0020839D01*
X0039707Y0020784D01*
X0039761Y0020732D01*
X0039818Y0020683D01*
X0039877Y0020636D01*
X0039938Y0020593D01*
X0040002Y0020554D01*
X0040068Y0020517D01*
X0040135Y0020484D01*
X0040204Y0020455D01*
X0040275Y0020429D01*
X0040346Y0020407D01*
X0040419Y0020388D01*
X0040493Y0020374D01*
X0040567Y0020363D01*
X0040642Y0020356D01*
X0040717Y0020353D01*
X0040717Y0020390D01*
X0040643Y0020393D01*
X0040569Y0020400D01*
X0040495Y0020411D01*
X0040422Y0020426D01*
X0040350Y0020444D01*
X0040279Y0020466D01*
X0040209Y0020492D01*
X0040141Y0020522D01*
X0040075Y0020555D01*
X0040010Y0020592D01*
X0039947Y0020632D01*
X0039887Y0020675D01*
X0039828Y0020722D01*
X0039773Y0020771D01*
X0039720Y0020823D01*
X0039670Y0020878D01*
X0039623Y0020936D01*
X0039579Y0020996D01*
X0039538Y0021058D01*
X0039500Y0021122D01*
X0039466Y0021189D01*
X0039436Y0021256D01*
X0039409Y0021326D01*
X0039386Y0021397D01*
X0039367Y0021468D01*
X0039351Y0021541D01*
X0039339Y0021615D01*
X0039331Y0021689D01*
X0039327Y0021763D01*
X0039327Y0021837D01*
X0039331Y0021911D01*
X0039339Y0021985D01*
X0039351Y0022059D01*
X0039367Y0022132D01*
X0039386Y0022203D01*
X0039409Y0022274D01*
X0039436Y0022344D01*
X0039466Y0022411D01*
X0039500Y0022478D01*
X0039538Y0022542D01*
X0039579Y0022604D01*
X0039623Y0022664D01*
X0039670Y0022722D01*
X0039720Y0022777D01*
X0039773Y0022829D01*
X0039828Y0022878D01*
X0039887Y0022925D01*
X0039947Y0022968D01*
X0040010Y0023008D01*
X0040075Y0023045D01*
X0040141Y0023078D01*
X0040209Y0023108D01*
X0040279Y0023134D01*
X0040350Y0023156D01*
X0040422Y0023174D01*
X0040495Y0023189D01*
X0040569Y0023200D01*
X0040643Y0023207D01*
X0040717Y0023210D01*
X0040717Y0023173D01*
X0040643Y0023170D01*
X0040570Y0023163D01*
X0040497Y0023152D01*
X0040425Y0023137D01*
X0040354Y0023118D01*
X0040284Y0023096D01*
X0040215Y0023070D01*
X0040147Y0023040D01*
X0040082Y0023007D01*
X0040018Y0022970D01*
X0039956Y0022929D01*
X0039897Y0022886D01*
X0039840Y0022839D01*
X0039785Y0022790D01*
X0039734Y0022737D01*
X0039685Y0022682D01*
X0039639Y0022624D01*
X0039596Y0022564D01*
X0039557Y0022502D01*
X0039521Y0022438D01*
X0039489Y0022371D01*
X0039460Y0022304D01*
X0039435Y0022234D01*
X0039413Y0022164D01*
X0039396Y0022092D01*
X0039382Y0022020D01*
X0039372Y0021947D01*
X0039366Y0021874D01*
X0039364Y0021800D01*
X0039366Y0021726D01*
X0039372Y0021653D01*
X0039382Y0021580D01*
X0039396Y0021508D01*
X0039413Y0021436D01*
X0039435Y0021366D01*
X0039460Y0021296D01*
X0039489Y0021229D01*
X0039521Y0021162D01*
X0039557Y0021098D01*
X0039596Y0021036D01*
X0039639Y0020976D01*
X0039685Y0020918D01*
X0039734Y0020863D01*
X0039785Y0020810D01*
X0039840Y0020761D01*
X0039897Y0020714D01*
X0039956Y0020671D01*
X0040018Y0020630D01*
X0040082Y0020593D01*
X0040147Y0020560D01*
X0040215Y0020530D01*
X0040284Y0020504D01*
X0040354Y0020482D01*
X0040425Y0020463D01*
X0040497Y0020448D01*
X0040570Y0020437D01*
X0040643Y0020430D01*
X0040717Y0020427D01*
X0040717Y0020464D01*
X0040644Y0020467D01*
X0040572Y0020474D01*
X0040499Y0020485D01*
X0040428Y0020500D01*
X0040358Y0020519D01*
X0040288Y0020542D01*
X0040220Y0020568D01*
X0040154Y0020598D01*
X0040089Y0020632D01*
X0040026Y0020669D01*
X0039966Y0020709D01*
X0039907Y0020753D01*
X0039851Y0020800D01*
X0039798Y0020850D01*
X0039748Y0020902D01*
X0039700Y0020957D01*
X0039656Y0021015D01*
X0039615Y0021075D01*
X0039577Y0021138D01*
X0039542Y0021202D01*
X0039511Y0021268D01*
X0039484Y0021336D01*
X0039461Y0021405D01*
X0039441Y0021475D01*
X0039425Y0021546D01*
X0039413Y0021618D01*
X0039405Y0021691D01*
X0039401Y0021764D01*
X0039401Y0021836D01*
X0039405Y0021909D01*
X0039413Y0021982D01*
X0039425Y0022054D01*
X0039441Y0022125D01*
X0039461Y0022195D01*
X0039484Y0022264D01*
X0039511Y0022332D01*
X0039542Y0022398D01*
X0039577Y0022462D01*
X0039615Y0022525D01*
X0039656Y0022585D01*
X0039700Y0022643D01*
X0039748Y0022698D01*
X0039798Y0022750D01*
X0039851Y0022800D01*
X0039907Y0022847D01*
X0039966Y0022891D01*
X0040026Y0022931D01*
X0040089Y0022968D01*
X0040154Y0023002D01*
X0040220Y0023032D01*
X0040288Y0023058D01*
X0040358Y0023081D01*
X0040428Y0023100D01*
X0040499Y0023115D01*
X0040572Y0023126D01*
X0040644Y0023133D01*
X0040717Y0023136D01*
X0040717Y0023099D01*
X0040646Y0023096D01*
X0040576Y0023089D01*
X0040506Y0023078D01*
X0040436Y0023064D01*
X0040368Y0023045D01*
X0040300Y0023023D01*
X0040234Y0022998D01*
X0040170Y0022969D01*
X0040107Y0022936D01*
X0040046Y0022900D01*
X0039987Y0022860D01*
X0039930Y0022818D01*
X0039876Y0022772D01*
X0039824Y0022724D01*
X0039775Y0022673D01*
X0039729Y0022619D01*
X0039686Y0022563D01*
X0039646Y0022504D01*
X0039609Y0022444D01*
X0039575Y0022381D01*
X0039545Y0022317D01*
X0039519Y0022251D01*
X0039496Y0022184D01*
X0039477Y0022116D01*
X0039462Y0022047D01*
X0039450Y0021977D01*
X0039442Y0021906D01*
X0039438Y0021835D01*
X0039438Y0021765D01*
X0039442Y0021694D01*
X0039450Y0021623D01*
X0039462Y0021553D01*
X0039477Y0021484D01*
X0039496Y0021416D01*
X0039519Y0021349D01*
X0039545Y0021283D01*
X0039575Y0021219D01*
X0039609Y0021156D01*
X0039646Y0021096D01*
X0039686Y0021037D01*
X0039729Y0020981D01*
X0039775Y0020927D01*
X0039824Y0020876D01*
X0039876Y0020828D01*
X0039930Y0020782D01*
X0039987Y0020740D01*
X0040046Y0020700D01*
X0040107Y0020664D01*
X0040170Y0020631D01*
X0040234Y0020602D01*
X0040300Y0020577D01*
X0040368Y0020555D01*
X0040436Y0020536D01*
X0040506Y0020522D01*
X0040576Y0020511D01*
X0040646Y0020504D01*
X0040717Y0020501D01*
X0040717Y0020538D01*
X0040647Y0020541D01*
X0040577Y0020548D01*
X0040508Y0020559D01*
X0040439Y0020574D01*
X0040372Y0020592D01*
X0040305Y0020614D01*
X0040240Y0020640D01*
X0040177Y0020669D01*
X0040115Y0020702D01*
X0040055Y0020738D01*
X0039997Y0020778D01*
X0039941Y0020820D01*
X0039888Y0020866D01*
X0039838Y0020915D01*
X0039790Y0020966D01*
X0039745Y0021020D01*
X0039703Y0021076D01*
X0039665Y0021135D01*
X0039629Y0021195D01*
X0039598Y0021258D01*
X0039569Y0021322D01*
X0039544Y0021387D01*
X0039523Y0021454D01*
X0039506Y0021522D01*
X0039492Y0021591D01*
X0039483Y0021660D01*
X0039477Y0021730D01*
X0039475Y0021800D01*
X0039477Y0021870D01*
X0039483Y0021940D01*
X0039492Y0022009D01*
X0039506Y0022078D01*
X0039523Y0022146D01*
X0039544Y0022213D01*
X0039569Y0022278D01*
X0039598Y0022342D01*
X0039629Y0022405D01*
X0039665Y0022465D01*
X0039703Y0022524D01*
X0039745Y0022580D01*
X0039790Y0022634D01*
X0039838Y0022685D01*
X0039888Y0022734D01*
X0039941Y0022780D01*
X0039997Y0022822D01*
X0040055Y0022862D01*
X0040115Y0022898D01*
X0040177Y0022931D01*
X0040240Y0022960D01*
X0040305Y0022986D01*
X0040372Y0023008D01*
X0040439Y0023026D01*
X0040508Y0023041D01*
X0040577Y0023052D01*
X0040647Y0023059D01*
X0040717Y0023062D01*
X0040717Y0023025D01*
X0040648Y0023022D01*
X0040579Y0023015D01*
X0040511Y0023004D01*
X0040443Y0022989D01*
X0040376Y0022971D01*
X0040311Y0022948D01*
X0040246Y0022922D01*
X0040184Y0022893D01*
X0040123Y0022860D01*
X0040064Y0022824D01*
X0040007Y0022784D01*
X0039953Y0022741D01*
X0039901Y0022695D01*
X0039852Y0022647D01*
X0039805Y0022595D01*
X0039762Y0022541D01*
X0039722Y0022485D01*
X0039684Y0022427D01*
X0039651Y0022366D01*
X0039620Y0022304D01*
X0039594Y0022240D01*
X0039571Y0022175D01*
X0039551Y0022108D01*
X0039536Y0022041D01*
X0039524Y0021973D01*
X0039516Y0021904D01*
X0039512Y0021835D01*
X0039512Y0021765D01*
X0039516Y0021696D01*
X0039524Y0021627D01*
X0039536Y0021559D01*
X0039551Y0021492D01*
X0039571Y0021425D01*
X0039594Y0021360D01*
X0039620Y0021296D01*
X0039651Y0021234D01*
X0039684Y0021173D01*
X0039722Y0021115D01*
X0039762Y0021059D01*
X0039805Y0021005D01*
X0039852Y0020953D01*
X0039901Y0020905D01*
X0039953Y0020859D01*
X0040007Y0020816D01*
X0040064Y0020776D01*
X0040123Y0020740D01*
X0040184Y0020707D01*
X0040246Y0020678D01*
X0040311Y0020652D01*
X0040376Y0020629D01*
X0040443Y0020611D01*
X0040511Y0020596D01*
X0040579Y0020585D01*
X0040648Y0020578D01*
X0040717Y0020575D01*
D17*
X0039753Y0019979D03*
X0033847Y0019979D03*
X0033847Y0023621D03*
X0033847Y0027979D03*
X0039753Y0027979D03*
X0033847Y0031621D03*
D18*
X0034339Y0030784D03*
X0034339Y0028816D03*
X0039261Y0028816D03*
X0039261Y0030784D03*
X0039261Y0022784D03*
X0039261Y0020816D03*
X0034339Y0020816D03*
X0034339Y0022784D03*
D19*
X0034487Y0021800D03*
X0039113Y0021800D03*
X0039113Y0029800D03*
X0034487Y0029800D03*
D20*
X0037194Y0029800D03*
X0037194Y0021800D03*
D21*
X0039359Y0023572D03*
X0039359Y0031572D03*
D22*
X0040589Y0031818D03*
X0040589Y0023818D03*
D23*
X0026084Y0021820D03*
X0021484Y0021820D03*
X0021484Y0029820D03*
X0026084Y0029820D03*
X0026116Y0041780D03*
X0021516Y0041780D03*
D24*
X0023800Y0029800D03*
X0023800Y0021800D03*
D25*
X0025400Y0024900D02*
X0025400Y0027102D01*
X0026501Y0027102D01*
X0026868Y0026735D01*
X0026868Y0026001D01*
X0026501Y0025634D01*
X0025400Y0025634D01*
X0026134Y0025634D02*
X0026868Y0024900D01*
X0027610Y0024900D02*
X0029078Y0026368D01*
X0029078Y0026735D01*
X0028711Y0027102D01*
X0027977Y0027102D01*
X0027610Y0026735D01*
X0027610Y0024900D02*
X0029078Y0024900D01*
X0029078Y0032900D02*
X0027610Y0032900D01*
X0028344Y0032900D02*
X0028344Y0035102D01*
X0027610Y0034368D01*
X0026868Y0034735D02*
X0026868Y0034001D01*
X0026501Y0033634D01*
X0025400Y0033634D01*
X0026134Y0033634D02*
X0026868Y0032900D01*
X0025400Y0032900D02*
X0025400Y0035102D01*
X0026501Y0035102D01*
X0026868Y0034735D01*
X0036265Y0043980D02*
X0037733Y0043980D01*
X0038100Y0044347D01*
X0038100Y0045081D01*
X0037733Y0045448D01*
X0038100Y0046190D02*
X0038100Y0047658D01*
X0038100Y0046924D02*
X0035898Y0046924D01*
X0036632Y0046190D01*
X0036265Y0045448D02*
X0035898Y0045081D01*
X0035898Y0044347D01*
X0036265Y0043980D01*
X0029078Y0044900D02*
X0027610Y0044900D01*
X0028344Y0044900D02*
X0028344Y0047102D01*
X0027610Y0046368D01*
X0026868Y0044900D02*
X0025400Y0044900D01*
X0025400Y0047102D01*
X0036265Y0068980D02*
X0037733Y0068980D01*
X0038100Y0069347D01*
X0038100Y0070081D01*
X0037733Y0070448D01*
X0038100Y0071190D02*
X0036632Y0072658D01*
X0036265Y0072658D01*
X0035898Y0072291D01*
X0035898Y0071557D01*
X0036265Y0071190D01*
X0036265Y0070448D02*
X0035898Y0070081D01*
X0035898Y0069347D01*
X0036265Y0068980D01*
X0038100Y0071190D02*
X0038100Y0072658D01*
D26*
X0040680Y0069800D02*
X0040920Y0069800D01*
X0040920Y0044800D02*
X0040680Y0044800D01*
D27*
X0040780Y0042484D03*
X0040780Y0047084D03*
X0040780Y0067484D03*
X0040780Y0072084D03*
D28*
X0020407Y0058900D02*
X0020409Y0058928D01*
X0020415Y0058955D01*
X0020424Y0058981D01*
X0020437Y0059006D01*
X0020454Y0059029D01*
X0020473Y0059049D01*
X0020495Y0059066D01*
X0020519Y0059080D01*
X0020545Y0059090D01*
X0020572Y0059097D01*
X0020600Y0059100D01*
X0020628Y0059099D01*
X0020655Y0059094D01*
X0020682Y0059085D01*
X0020707Y0059073D01*
X0020730Y0059058D01*
X0020751Y0059039D01*
X0020769Y0059018D01*
X0020784Y0058994D01*
X0020795Y0058968D01*
X0020803Y0058942D01*
X0020807Y0058914D01*
X0020807Y0058886D01*
X0020803Y0058858D01*
X0020795Y0058832D01*
X0020784Y0058806D01*
X0020769Y0058782D01*
X0020751Y0058761D01*
X0020730Y0058742D01*
X0020707Y0058727D01*
X0020682Y0058715D01*
X0020655Y0058706D01*
X0020628Y0058701D01*
X0020600Y0058700D01*
X0020572Y0058703D01*
X0020545Y0058710D01*
X0020519Y0058720D01*
X0020495Y0058734D01*
X0020473Y0058751D01*
X0020454Y0058771D01*
X0020437Y0058794D01*
X0020424Y0058819D01*
X0020415Y0058845D01*
X0020409Y0058872D01*
X0020407Y0058900D01*
D29*
X0054958Y0063709D02*
X0054958Y0064676D01*
X0055442Y0065160D01*
X0054958Y0066172D02*
X0054958Y0068107D01*
X0056893Y0066172D01*
X0057377Y0066172D01*
X0057860Y0066655D01*
X0057860Y0067623D01*
X0057377Y0068107D01*
X0057377Y0065160D02*
X0057860Y0064676D01*
X0057860Y0063709D01*
X0057377Y0063225D01*
X0056893Y0063225D01*
X0056409Y0063709D01*
X0055925Y0063225D01*
X0055442Y0063225D01*
X0054958Y0063709D01*
X0056409Y0063709D02*
X0056409Y0064193D01*
X0055442Y0030689D02*
X0054958Y0030206D01*
X0054958Y0029238D01*
X0055442Y0028754D01*
X0055925Y0028754D01*
X0056409Y0029238D01*
X0056409Y0029722D01*
X0056409Y0029238D02*
X0056893Y0028754D01*
X0057377Y0028754D01*
X0057860Y0029238D01*
X0057860Y0030206D01*
X0057377Y0030689D01*
X0056893Y0027743D02*
X0057860Y0026775D01*
X0054958Y0026775D01*
X0054958Y0025808D02*
X0054958Y0027743D01*
X0161257Y0027259D02*
X0161257Y0026292D01*
X0161741Y0025808D01*
X0163676Y0025808D01*
X0164160Y0026292D01*
X0164160Y0027259D01*
X0163676Y0027743D01*
X0163192Y0027743D01*
X0162708Y0027259D01*
X0162708Y0025808D01*
X0161257Y0027259D02*
X0161741Y0027743D01*
X0162708Y0028754D02*
X0162708Y0030689D01*
X0164160Y0029238D01*
X0161257Y0029238D01*
X0181926Y0026230D02*
X0181926Y0024779D01*
X0182894Y0025263D01*
X0183378Y0025263D01*
X0183861Y0024779D01*
X0183861Y0023812D01*
X0183378Y0023328D01*
X0182410Y0023328D01*
X0181926Y0023812D01*
X0184873Y0023812D02*
X0185357Y0023328D01*
X0186324Y0023328D01*
X0186808Y0023812D01*
X0186808Y0024295D01*
X0186324Y0024779D01*
X0185840Y0024779D01*
X0186324Y0024779D02*
X0186808Y0025263D01*
X0186808Y0025747D01*
X0186324Y0026230D01*
X0185357Y0026230D01*
X0184873Y0025747D01*
X0183861Y0026230D02*
X0181926Y0026230D01*
X0181392Y0066565D02*
X0180909Y0066565D01*
X0178974Y0068500D01*
X0178974Y0066565D01*
X0181392Y0066565D02*
X0181876Y0067049D01*
X0181876Y0068017D01*
X0181392Y0068500D01*
D30*
X0177839Y0046800D03*
M02*
