%
M48
M72
T01C0.01300
T02C0.04000
%
T01
X18600Y17400
X28800Y17400
X18600Y25800
X24000Y33600
X32400Y36600
X36000Y40200
X40800Y36600
X44400Y36600
X45600Y43800
X55200Y45000
X45000Y49200
X33600Y54000
X37800Y58200
X45000Y55800
X59400Y52800
X65400Y55200
X74400Y66600
X91200Y67200
X103800Y64800
X108000Y67800
X112200Y83400
X121200Y83400
X61200Y83400
X46800Y71400
X36600Y66600
X27000Y67800
X68400Y40200
X74400Y37800
X75600Y28800
X61800Y27600
X93000Y33600
X101800Y34800
X101800Y28800
X115800Y31200
X121800Y31200
X118800Y25200
X123600Y14400
X127800Y13800
X131800Y13800
X135800Y13800
X139800Y13800
X143800Y13800
X147800Y13800
X151800Y13800
X155800Y13800
X159800Y13800
X163800Y13800
X167800Y13800
X171800Y13800
X175800Y13800
X179800Y13800
X183800Y13800
X187800Y13800
X101400Y45600
X61200Y10200
X18600Y37800
T02
X6800Y6800
X16800Y6800
X26800Y6800
X36800Y6800
X46800Y6800
X56800Y6800
X66800Y6800
X76800Y6800
X86800Y6800
X96800Y6800
X106800Y6800
X116800Y6800
X6800Y21800
X6800Y31800
X6800Y41800
X6800Y51800
X6800Y61800
X6800Y71800
X6800Y86800
X16800Y86800
X26800Y86800
X36800Y86800
X46800Y86800
X56800Y86800
X66800Y86800
X76800Y86800
X86800Y86800
X96800Y86800
X106800Y86800
X116800Y86800
X126800Y86800
M30
