G75*
%MOIN*%
%OFA0B0*%
%FSLAX25Y25*%
%IPPOS*%
%LPD*%
%AMOC8*
5,1,8,0,0,1.08239X$1,22.5*
%
%ADD10R,0.04724X0.04724*%
%ADD11R,0.04331X0.03937*%
%ADD12R,0.03937X0.04331*%
%ADD13R,0.03937X0.03543*%
%ADD14R,0.03150X0.06693*%
%ADD15C,0.02205*%
D10*
X0032666Y0021800D03*
X0040934Y0021800D03*
X0040934Y0029800D03*
X0032666Y0029800D03*
D11*
X0020454Y0021800D03*
X0027146Y0021800D03*
X0027146Y0029800D03*
X0020454Y0029800D03*
X0020454Y0041800D03*
X0027146Y0041800D03*
D12*
X0040800Y0041454D03*
X0040800Y0048146D03*
X0040800Y0066454D03*
X0040800Y0073146D03*
D13*
X0027950Y0071871D03*
X0021650Y0071871D03*
X0021650Y0055729D03*
X0027950Y0055729D03*
D14*
X0020076Y0063800D03*
D15*
X0052525Y0064241D02*
X0052525Y0064793D01*
X0052525Y0064241D02*
X0047249Y0064241D01*
X0047249Y0064793D01*
X0052525Y0064793D01*
X0052525Y0058887D02*
X0052525Y0058335D01*
X0047249Y0058335D01*
X0047249Y0058887D01*
X0052525Y0058887D01*
X0052525Y0052982D02*
X0052525Y0052430D01*
X0047249Y0052430D01*
X0047249Y0052982D01*
X0052525Y0052982D01*
X0052525Y0047076D02*
X0052525Y0046524D01*
X0047249Y0046524D01*
X0047249Y0047076D01*
X0052525Y0047076D01*
X0052525Y0041170D02*
X0052525Y0040618D01*
X0047249Y0040618D01*
X0047249Y0041170D01*
X0052525Y0041170D01*
X0052525Y0035265D02*
X0052525Y0034713D01*
X0047249Y0034713D01*
X0047249Y0035265D01*
X0052525Y0035265D01*
X0052525Y0029359D02*
X0052525Y0028807D01*
X0047249Y0028807D01*
X0047249Y0029359D01*
X0052525Y0029359D01*
X0056304Y0017784D02*
X0056856Y0017784D01*
X0056304Y0017784D02*
X0056304Y0023060D01*
X0056856Y0023060D01*
X0056856Y0017784D01*
X0056856Y0019988D02*
X0056304Y0019988D01*
X0056304Y0022192D02*
X0056856Y0022192D01*
X0062209Y0017784D02*
X0062761Y0017784D01*
X0062209Y0017784D02*
X0062209Y0023060D01*
X0062761Y0023060D01*
X0062761Y0017784D01*
X0062761Y0019988D02*
X0062209Y0019988D01*
X0062209Y0022192D02*
X0062761Y0022192D01*
X0068115Y0017784D02*
X0068667Y0017784D01*
X0068115Y0017784D02*
X0068115Y0023060D01*
X0068667Y0023060D01*
X0068667Y0017784D01*
X0068667Y0019988D02*
X0068115Y0019988D01*
X0068115Y0022192D02*
X0068667Y0022192D01*
X0074020Y0017784D02*
X0074572Y0017784D01*
X0074020Y0017784D02*
X0074020Y0023060D01*
X0074572Y0023060D01*
X0074572Y0017784D01*
X0074572Y0019988D02*
X0074020Y0019988D01*
X0074020Y0022192D02*
X0074572Y0022192D01*
X0079926Y0017784D02*
X0080478Y0017784D01*
X0079926Y0017784D02*
X0079926Y0023060D01*
X0080478Y0023060D01*
X0080478Y0017784D01*
X0080478Y0019988D02*
X0079926Y0019988D01*
X0079926Y0022192D02*
X0080478Y0022192D01*
X0085831Y0017784D02*
X0086383Y0017784D01*
X0085831Y0017784D02*
X0085831Y0023060D01*
X0086383Y0023060D01*
X0086383Y0017784D01*
X0086383Y0019988D02*
X0085831Y0019988D01*
X0085831Y0022192D02*
X0086383Y0022192D01*
X0091737Y0017784D02*
X0092289Y0017784D01*
X0091737Y0017784D02*
X0091737Y0023060D01*
X0092289Y0023060D01*
X0092289Y0017784D01*
X0092289Y0019988D02*
X0091737Y0019988D01*
X0091737Y0022192D02*
X0092289Y0022192D01*
X0097642Y0017784D02*
X0098194Y0017784D01*
X0097642Y0017784D02*
X0097642Y0023060D01*
X0098194Y0023060D01*
X0098194Y0017784D01*
X0098194Y0019988D02*
X0097642Y0019988D01*
X0097642Y0022192D02*
X0098194Y0022192D01*
X0103548Y0017784D02*
X0104100Y0017784D01*
X0103548Y0017784D02*
X0103548Y0023060D01*
X0104100Y0023060D01*
X0104100Y0017784D01*
X0104100Y0019988D02*
X0103548Y0019988D01*
X0103548Y0022192D02*
X0104100Y0022192D01*
X0109453Y0017784D02*
X0110005Y0017784D01*
X0109453Y0017784D02*
X0109453Y0023060D01*
X0110005Y0023060D01*
X0110005Y0017784D01*
X0110005Y0019988D02*
X0109453Y0019988D01*
X0109453Y0022192D02*
X0110005Y0022192D01*
X0115359Y0017784D02*
X0115911Y0017784D01*
X0115359Y0017784D02*
X0115359Y0023060D01*
X0115911Y0023060D01*
X0115911Y0017784D01*
X0115911Y0019988D02*
X0115359Y0019988D01*
X0115359Y0022192D02*
X0115911Y0022192D01*
X0121264Y0017784D02*
X0121816Y0017784D01*
X0121264Y0017784D02*
X0121264Y0023060D01*
X0121816Y0023060D01*
X0121816Y0017784D01*
X0121816Y0019988D02*
X0121264Y0019988D01*
X0121264Y0022192D02*
X0121816Y0022192D01*
X0127170Y0017784D02*
X0127722Y0017784D01*
X0127170Y0017784D02*
X0127170Y0023060D01*
X0127722Y0023060D01*
X0127722Y0017784D01*
X0127722Y0019988D02*
X0127170Y0019988D01*
X0127170Y0022192D02*
X0127722Y0022192D01*
X0133075Y0017784D02*
X0133627Y0017784D01*
X0133075Y0017784D02*
X0133075Y0023060D01*
X0133627Y0023060D01*
X0133627Y0017784D01*
X0133627Y0019988D02*
X0133075Y0019988D01*
X0133075Y0022192D02*
X0133627Y0022192D01*
X0138981Y0017784D02*
X0139533Y0017784D01*
X0138981Y0017784D02*
X0138981Y0023060D01*
X0139533Y0023060D01*
X0139533Y0017784D01*
X0139533Y0019988D02*
X0138981Y0019988D01*
X0138981Y0022192D02*
X0139533Y0022192D01*
X0144886Y0017784D02*
X0145438Y0017784D01*
X0144886Y0017784D02*
X0144886Y0023060D01*
X0145438Y0023060D01*
X0145438Y0017784D01*
X0145438Y0019988D02*
X0144886Y0019988D01*
X0144886Y0022192D02*
X0145438Y0022192D01*
X0150792Y0017784D02*
X0151344Y0017784D01*
X0150792Y0017784D02*
X0150792Y0023060D01*
X0151344Y0023060D01*
X0151344Y0017784D01*
X0151344Y0019988D02*
X0150792Y0019988D01*
X0150792Y0022192D02*
X0151344Y0022192D01*
X0156697Y0017784D02*
X0157249Y0017784D01*
X0156697Y0017784D02*
X0156697Y0023060D01*
X0157249Y0023060D01*
X0157249Y0017784D01*
X0157249Y0019988D02*
X0156697Y0019988D01*
X0156697Y0022192D02*
X0157249Y0022192D01*
X0162603Y0017784D02*
X0163155Y0017784D01*
X0162603Y0017784D02*
X0162603Y0023060D01*
X0163155Y0023060D01*
X0163155Y0017784D01*
X0163155Y0019988D02*
X0162603Y0019988D01*
X0162603Y0022192D02*
X0163155Y0022192D01*
X0188155Y0028807D02*
X0188155Y0029359D01*
X0188155Y0028807D02*
X0182879Y0028807D01*
X0182879Y0029359D01*
X0188155Y0029359D01*
X0188155Y0034713D02*
X0188155Y0035265D01*
X0188155Y0034713D02*
X0182879Y0034713D01*
X0182879Y0035265D01*
X0188155Y0035265D01*
X0188155Y0040618D02*
X0188155Y0041170D01*
X0188155Y0040618D02*
X0182879Y0040618D01*
X0182879Y0041170D01*
X0188155Y0041170D01*
X0188155Y0046524D02*
X0188155Y0047076D01*
X0188155Y0046524D02*
X0182879Y0046524D01*
X0182879Y0047076D01*
X0188155Y0047076D01*
X0188155Y0052430D02*
X0188155Y0052982D01*
X0188155Y0052430D02*
X0182879Y0052430D01*
X0182879Y0052982D01*
X0188155Y0052982D01*
X0188155Y0058335D02*
X0188155Y0058887D01*
X0188155Y0058335D02*
X0182879Y0058335D01*
X0182879Y0058887D01*
X0188155Y0058887D01*
X0188155Y0064241D02*
X0188155Y0064793D01*
X0188155Y0064241D02*
X0182879Y0064241D01*
X0182879Y0064793D01*
X0188155Y0064793D01*
X0180871Y0070540D02*
X0180319Y0070540D01*
X0180319Y0075816D01*
X0180871Y0075816D01*
X0180871Y0070540D01*
X0180871Y0072744D02*
X0180319Y0072744D01*
X0180319Y0074948D02*
X0180871Y0074948D01*
X0174966Y0070540D02*
X0174414Y0070540D01*
X0174414Y0075816D01*
X0174966Y0075816D01*
X0174966Y0070540D01*
X0174966Y0072744D02*
X0174414Y0072744D01*
X0174414Y0074948D02*
X0174966Y0074948D01*
X0169060Y0070540D02*
X0168508Y0070540D01*
X0168508Y0075816D01*
X0169060Y0075816D01*
X0169060Y0070540D01*
X0169060Y0072744D02*
X0168508Y0072744D01*
X0168508Y0074948D02*
X0169060Y0074948D01*
X0163155Y0070540D02*
X0162603Y0070540D01*
X0162603Y0075816D01*
X0163155Y0075816D01*
X0163155Y0070540D01*
X0163155Y0072744D02*
X0162603Y0072744D01*
X0162603Y0074948D02*
X0163155Y0074948D01*
X0157249Y0070540D02*
X0156697Y0070540D01*
X0156697Y0075816D01*
X0157249Y0075816D01*
X0157249Y0070540D01*
X0157249Y0072744D02*
X0156697Y0072744D01*
X0156697Y0074948D02*
X0157249Y0074948D01*
X0151344Y0070540D02*
X0150792Y0070540D01*
X0150792Y0075816D01*
X0151344Y0075816D01*
X0151344Y0070540D01*
X0151344Y0072744D02*
X0150792Y0072744D01*
X0150792Y0074948D02*
X0151344Y0074948D01*
X0145438Y0070540D02*
X0144886Y0070540D01*
X0144886Y0075816D01*
X0145438Y0075816D01*
X0145438Y0070540D01*
X0145438Y0072744D02*
X0144886Y0072744D01*
X0144886Y0074948D02*
X0145438Y0074948D01*
X0139533Y0070540D02*
X0138981Y0070540D01*
X0138981Y0075816D01*
X0139533Y0075816D01*
X0139533Y0070540D01*
X0139533Y0072744D02*
X0138981Y0072744D01*
X0138981Y0074948D02*
X0139533Y0074948D01*
X0133627Y0070540D02*
X0133075Y0070540D01*
X0133075Y0075816D01*
X0133627Y0075816D01*
X0133627Y0070540D01*
X0133627Y0072744D02*
X0133075Y0072744D01*
X0133075Y0074948D02*
X0133627Y0074948D01*
X0127722Y0070540D02*
X0127170Y0070540D01*
X0127170Y0075816D01*
X0127722Y0075816D01*
X0127722Y0070540D01*
X0127722Y0072744D02*
X0127170Y0072744D01*
X0127170Y0074948D02*
X0127722Y0074948D01*
X0121816Y0070540D02*
X0121264Y0070540D01*
X0121264Y0075816D01*
X0121816Y0075816D01*
X0121816Y0070540D01*
X0121816Y0072744D02*
X0121264Y0072744D01*
X0121264Y0074948D02*
X0121816Y0074948D01*
X0115911Y0070540D02*
X0115359Y0070540D01*
X0115359Y0075816D01*
X0115911Y0075816D01*
X0115911Y0070540D01*
X0115911Y0072744D02*
X0115359Y0072744D01*
X0115359Y0074948D02*
X0115911Y0074948D01*
X0110005Y0070540D02*
X0109453Y0070540D01*
X0109453Y0075816D01*
X0110005Y0075816D01*
X0110005Y0070540D01*
X0110005Y0072744D02*
X0109453Y0072744D01*
X0109453Y0074948D02*
X0110005Y0074948D01*
X0104100Y0070540D02*
X0103548Y0070540D01*
X0103548Y0075816D01*
X0104100Y0075816D01*
X0104100Y0070540D01*
X0104100Y0072744D02*
X0103548Y0072744D01*
X0103548Y0074948D02*
X0104100Y0074948D01*
X0098194Y0070540D02*
X0097642Y0070540D01*
X0097642Y0075816D01*
X0098194Y0075816D01*
X0098194Y0070540D01*
X0098194Y0072744D02*
X0097642Y0072744D01*
X0097642Y0074948D02*
X0098194Y0074948D01*
X0092289Y0070540D02*
X0091737Y0070540D01*
X0091737Y0075816D01*
X0092289Y0075816D01*
X0092289Y0070540D01*
X0092289Y0072744D02*
X0091737Y0072744D01*
X0091737Y0074948D02*
X0092289Y0074948D01*
X0086383Y0070540D02*
X0085831Y0070540D01*
X0085831Y0075816D01*
X0086383Y0075816D01*
X0086383Y0070540D01*
X0086383Y0072744D02*
X0085831Y0072744D01*
X0085831Y0074948D02*
X0086383Y0074948D01*
X0080478Y0070540D02*
X0079926Y0070540D01*
X0079926Y0075816D01*
X0080478Y0075816D01*
X0080478Y0070540D01*
X0080478Y0072744D02*
X0079926Y0072744D01*
X0079926Y0074948D02*
X0080478Y0074948D01*
X0074572Y0070540D02*
X0074020Y0070540D01*
X0074020Y0075816D01*
X0074572Y0075816D01*
X0074572Y0070540D01*
X0074572Y0072744D02*
X0074020Y0072744D01*
X0074020Y0074948D02*
X0074572Y0074948D01*
X0068667Y0070540D02*
X0068115Y0070540D01*
X0068115Y0075816D01*
X0068667Y0075816D01*
X0068667Y0070540D01*
X0068667Y0072744D02*
X0068115Y0072744D01*
X0068115Y0074948D02*
X0068667Y0074948D01*
X0062761Y0070540D02*
X0062209Y0070540D01*
X0062209Y0075816D01*
X0062761Y0075816D01*
X0062761Y0070540D01*
X0062761Y0072744D02*
X0062209Y0072744D01*
X0062209Y0074948D02*
X0062761Y0074948D01*
X0056856Y0070540D02*
X0056304Y0070540D01*
X0056304Y0075816D01*
X0056856Y0075816D01*
X0056856Y0070540D01*
X0056856Y0072744D02*
X0056304Y0072744D01*
X0056304Y0074948D02*
X0056856Y0074948D01*
M02*
