G75*
%MOIN*%
%OFA0B0*%
%FSLAX25Y25*%
%IPPOS*%
%LPD*%
%AMOC8*
5,1,8,0,0,1.08239X$1,22.5*
%
%ADD10R,0.04600X0.06300*%
%ADD11OC8,0.07000*%
%ADD12C,0.01600*%
%ADD13C,0.02700*%
%ADD14C,0.00600*%
%ADD15C,0.01000*%
D10*
X0027050Y0059083D03*
X0033050Y0059083D03*
X0041050Y0059083D03*
X0047050Y0059083D03*
D11*
X0007050Y0007083D03*
X0017050Y0007083D03*
X0027050Y0007083D03*
X0037050Y0007083D03*
X0047050Y0007083D03*
X0057050Y0007083D03*
X0067050Y0007083D03*
X0077050Y0007083D03*
X0087050Y0007083D03*
X0097050Y0007083D03*
X0107050Y0007083D03*
X0107050Y0077083D03*
X0097050Y0077083D03*
X0087050Y0077083D03*
X0077050Y0077083D03*
X0067050Y0077083D03*
X0057050Y0077083D03*
X0047050Y0077083D03*
X0037050Y0077083D03*
X0027050Y0077083D03*
X0017050Y0077083D03*
X0007050Y0077083D03*
X0117050Y0077083D03*
X0127050Y0077083D03*
D12*
X0122150Y0077213D02*
X0121950Y0077213D01*
X0121950Y0078811D02*
X0122150Y0078811D01*
X0122150Y0079112D02*
X0122150Y0075053D01*
X0125020Y0072183D01*
X0129080Y0072183D01*
X0129750Y0072853D01*
X0129750Y0046517D01*
X0112530Y0046517D01*
X0112061Y0046048D01*
X0112061Y0027083D01*
X0112050Y0027083D01*
X0112050Y0009578D01*
X0109245Y0012383D01*
X0107250Y0012383D01*
X0107250Y0007283D01*
X0106850Y0007283D01*
X0106850Y0012383D01*
X0104855Y0012383D01*
X0101767Y0009295D01*
X0101250Y0009812D01*
X0101250Y0035770D01*
X0097209Y0039811D01*
X0097308Y0039851D01*
X0098081Y0040625D01*
X0098500Y0041636D01*
X0098500Y0042529D01*
X0103362Y0047391D01*
X0103503Y0047333D01*
X0104597Y0047333D01*
X0105608Y0047751D01*
X0106381Y0048525D01*
X0106800Y0049536D01*
X0106800Y0050630D01*
X0106381Y0051640D01*
X0105750Y0052272D01*
X0105750Y0072183D01*
X0109080Y0072183D01*
X0111950Y0075053D01*
X0111950Y0079112D01*
X0111280Y0079783D01*
X0112820Y0079783D01*
X0112150Y0079112D01*
X0112150Y0075053D01*
X0115020Y0072183D01*
X0116150Y0072183D01*
X0116150Y0068472D01*
X0115519Y0067840D01*
X0115100Y0066830D01*
X0115100Y0065736D01*
X0115519Y0064725D01*
X0116292Y0063951D01*
X0117303Y0063533D01*
X0118397Y0063533D01*
X0119408Y0063951D01*
X0120181Y0064725D01*
X0120600Y0065736D01*
X0120600Y0066830D01*
X0120181Y0067840D01*
X0119550Y0068472D01*
X0119550Y0072653D01*
X0121950Y0075053D01*
X0121950Y0079112D01*
X0121280Y0079783D01*
X0122820Y0079783D01*
X0122150Y0079112D01*
X0122150Y0075614D02*
X0121950Y0075614D01*
X0120913Y0074016D02*
X0123187Y0074016D01*
X0124786Y0072417D02*
X0119550Y0072417D01*
X0119550Y0070819D02*
X0129750Y0070819D01*
X0129750Y0072417D02*
X0129314Y0072417D01*
X0129750Y0069220D02*
X0119550Y0069220D01*
X0120272Y0067622D02*
X0129750Y0067622D01*
X0129750Y0066023D02*
X0120600Y0066023D01*
X0119881Y0064425D02*
X0129750Y0064425D01*
X0129750Y0062826D02*
X0105750Y0062826D01*
X0105750Y0061228D02*
X0129750Y0061228D01*
X0129750Y0059629D02*
X0105750Y0059629D01*
X0105750Y0058031D02*
X0129750Y0058031D01*
X0129750Y0056432D02*
X0105750Y0056432D01*
X0105750Y0054834D02*
X0129750Y0054834D01*
X0129750Y0053235D02*
X0105750Y0053235D01*
X0106383Y0051637D02*
X0129750Y0051637D01*
X0129750Y0050038D02*
X0106800Y0050038D01*
X0106296Y0048440D02*
X0129750Y0048440D01*
X0129750Y0046841D02*
X0102812Y0046841D01*
X0101214Y0045242D02*
X0112061Y0045242D01*
X0112061Y0043644D02*
X0099615Y0043644D01*
X0098500Y0042045D02*
X0112061Y0042045D01*
X0112061Y0040447D02*
X0097903Y0040447D01*
X0098171Y0038848D02*
X0112061Y0038848D01*
X0112061Y0037250D02*
X0099770Y0037250D01*
X0101250Y0035651D02*
X0112061Y0035651D01*
X0112061Y0034053D02*
X0101250Y0034053D01*
X0101250Y0032454D02*
X0112061Y0032454D01*
X0112061Y0030856D02*
X0101250Y0030856D01*
X0101250Y0029257D02*
X0112061Y0029257D01*
X0112061Y0027659D02*
X0101250Y0027659D01*
X0101250Y0026060D02*
X0112050Y0026060D01*
X0112050Y0024462D02*
X0101250Y0024462D01*
X0101250Y0022863D02*
X0112050Y0022863D01*
X0112050Y0021265D02*
X0101250Y0021265D01*
X0101250Y0019666D02*
X0112050Y0019666D01*
X0112050Y0018068D02*
X0101250Y0018068D01*
X0101250Y0016469D02*
X0112050Y0016469D01*
X0112050Y0014871D02*
X0101250Y0014871D01*
X0101250Y0013272D02*
X0112050Y0013272D01*
X0112050Y0011674D02*
X0109954Y0011674D01*
X0111553Y0010075D02*
X0112050Y0010075D01*
X0107250Y0010075D02*
X0106850Y0010075D01*
X0106850Y0011674D02*
X0107250Y0011674D01*
X0104146Y0011674D02*
X0101250Y0011674D01*
X0101250Y0010075D02*
X0102547Y0010075D01*
X0106850Y0008477D02*
X0107250Y0008477D01*
X0097450Y0011983D02*
X0097450Y0034196D01*
X0094522Y0037124D01*
X0094481Y0037025D01*
X0093708Y0036251D01*
X0092697Y0035833D01*
X0091804Y0035833D01*
X0081350Y0025379D01*
X0081350Y0025379D01*
X0080354Y0024383D01*
X0073639Y0024383D01*
X0073981Y0024040D01*
X0074400Y0023030D01*
X0074400Y0022137D01*
X0084787Y0011750D01*
X0085020Y0011983D01*
X0089080Y0011983D01*
X0091950Y0009112D01*
X0091950Y0005053D01*
X0091280Y0004383D01*
X0092820Y0004383D01*
X0092150Y0005053D01*
X0092150Y0009112D01*
X0095020Y0011983D01*
X0097450Y0011983D01*
X0097450Y0013272D02*
X0083265Y0013272D01*
X0081666Y0014871D02*
X0097450Y0014871D01*
X0097450Y0016469D02*
X0080068Y0016469D01*
X0078469Y0018068D02*
X0097450Y0018068D01*
X0097450Y0019666D02*
X0076871Y0019666D01*
X0075272Y0021265D02*
X0097450Y0021265D01*
X0097450Y0022863D02*
X0074400Y0022863D01*
X0071103Y0019733D02*
X0070092Y0020151D01*
X0069319Y0020925D01*
X0068900Y0021936D01*
X0068900Y0023030D01*
X0069319Y0024040D01*
X0069661Y0024383D01*
X0043846Y0024383D01*
X0036896Y0031333D01*
X0036003Y0031333D01*
X0034992Y0031751D01*
X0034219Y0032525D01*
X0033800Y0033536D01*
X0033800Y0034630D01*
X0034219Y0035640D01*
X0034992Y0036414D01*
X0036003Y0036833D01*
X0037097Y0036833D01*
X0038108Y0036414D01*
X0038881Y0035640D01*
X0039300Y0034630D01*
X0039300Y0033737D01*
X0045254Y0027783D01*
X0078946Y0027783D01*
X0089400Y0038237D01*
X0089400Y0039130D01*
X0089670Y0039783D01*
X0049254Y0039783D01*
X0052404Y0036633D01*
X0052997Y0036633D01*
X0054008Y0036214D01*
X0054781Y0035440D01*
X0055200Y0034430D01*
X0055200Y0033336D01*
X0054781Y0032325D01*
X0054008Y0031551D01*
X0052997Y0031133D01*
X0051903Y0031133D01*
X0050892Y0031551D01*
X0050119Y0032325D01*
X0049700Y0033336D01*
X0049700Y0034430D01*
X0049729Y0034500D01*
X0046046Y0038183D01*
X0009746Y0038183D01*
X0006746Y0041183D01*
X0005750Y0042179D01*
X0005750Y0072183D01*
X0005020Y0072183D01*
X0004350Y0072853D01*
X0004350Y0011312D01*
X0005020Y0011983D01*
X0009080Y0011983D01*
X0011950Y0009112D01*
X0011950Y0005053D01*
X0011280Y0004383D01*
X0012820Y0004383D01*
X0012150Y0005053D01*
X0012150Y0009112D01*
X0015020Y0011983D01*
X0019080Y0011983D01*
X0021950Y0009112D01*
X0021950Y0005053D01*
X0021280Y0004383D01*
X0022820Y0004383D01*
X0022150Y0005053D01*
X0022150Y0009112D01*
X0025020Y0011983D01*
X0029080Y0011983D01*
X0031950Y0009112D01*
X0031950Y0005053D01*
X0031280Y0004383D01*
X0032820Y0004383D01*
X0032150Y0005053D01*
X0032150Y0009112D01*
X0035020Y0011983D01*
X0039080Y0011983D01*
X0041950Y0009112D01*
X0041950Y0005053D01*
X0041280Y0004383D01*
X0042820Y0004383D01*
X0042150Y0005053D01*
X0042150Y0009112D01*
X0045020Y0011983D01*
X0049080Y0011983D01*
X0051950Y0009112D01*
X0051950Y0005053D01*
X0051280Y0004383D01*
X0052820Y0004383D01*
X0052150Y0005053D01*
X0052150Y0009112D01*
X0055020Y0011983D01*
X0059080Y0011983D01*
X0061950Y0009112D01*
X0061950Y0005053D01*
X0061280Y0004383D01*
X0062820Y0004383D01*
X0062150Y0005053D01*
X0062150Y0009112D01*
X0065020Y0011983D01*
X0069080Y0011983D01*
X0071950Y0009112D01*
X0071950Y0005053D01*
X0071280Y0004383D01*
X0072820Y0004383D01*
X0072150Y0005053D01*
X0072150Y0009112D01*
X0075020Y0011983D01*
X0079080Y0011983D01*
X0081950Y0009112D01*
X0081950Y0005053D01*
X0081280Y0004383D01*
X0082820Y0004383D01*
X0082150Y0005053D01*
X0082150Y0009112D01*
X0082383Y0009345D01*
X0071996Y0019733D01*
X0071103Y0019733D01*
X0072062Y0019666D02*
X0004350Y0019666D01*
X0004350Y0018068D02*
X0073661Y0018068D01*
X0075259Y0016469D02*
X0004350Y0016469D01*
X0004350Y0014871D02*
X0076858Y0014871D01*
X0078456Y0013272D02*
X0004350Y0013272D01*
X0004350Y0011674D02*
X0004711Y0011674D01*
X0009389Y0011674D02*
X0014711Y0011674D01*
X0013113Y0010075D02*
X0010987Y0010075D01*
X0011950Y0008477D02*
X0012150Y0008477D01*
X0012150Y0006878D02*
X0011950Y0006878D01*
X0011950Y0005280D02*
X0012150Y0005280D01*
X0020987Y0010075D02*
X0023113Y0010075D01*
X0024711Y0011674D02*
X0019389Y0011674D01*
X0021950Y0008477D02*
X0022150Y0008477D01*
X0022150Y0006878D02*
X0021950Y0006878D01*
X0021950Y0005280D02*
X0022150Y0005280D01*
X0029389Y0011674D02*
X0034711Y0011674D01*
X0033113Y0010075D02*
X0030987Y0010075D01*
X0031950Y0008477D02*
X0032150Y0008477D01*
X0032150Y0006878D02*
X0031950Y0006878D01*
X0031950Y0005280D02*
X0032150Y0005280D01*
X0039389Y0011674D02*
X0044711Y0011674D01*
X0043113Y0010075D02*
X0040987Y0010075D01*
X0041950Y0008477D02*
X0042150Y0008477D01*
X0042150Y0006878D02*
X0041950Y0006878D01*
X0041950Y0005280D02*
X0042150Y0005280D01*
X0049389Y0011674D02*
X0054711Y0011674D01*
X0053113Y0010075D02*
X0050987Y0010075D01*
X0051950Y0008477D02*
X0052150Y0008477D01*
X0052150Y0006878D02*
X0051950Y0006878D01*
X0051950Y0005280D02*
X0052150Y0005280D01*
X0059389Y0011674D02*
X0064711Y0011674D01*
X0063113Y0010075D02*
X0060987Y0010075D01*
X0061950Y0008477D02*
X0062150Y0008477D01*
X0062150Y0006878D02*
X0061950Y0006878D01*
X0061950Y0005280D02*
X0062150Y0005280D01*
X0070987Y0010075D02*
X0073113Y0010075D01*
X0074711Y0011674D02*
X0069389Y0011674D01*
X0071950Y0008477D02*
X0072150Y0008477D01*
X0072150Y0006878D02*
X0071950Y0006878D01*
X0071950Y0005280D02*
X0072150Y0005280D01*
X0079389Y0011674D02*
X0080055Y0011674D01*
X0080987Y0010075D02*
X0081653Y0010075D01*
X0081950Y0008477D02*
X0082150Y0008477D01*
X0082150Y0006878D02*
X0081950Y0006878D01*
X0081950Y0005280D02*
X0082150Y0005280D01*
X0090987Y0010075D02*
X0093113Y0010075D01*
X0094711Y0011674D02*
X0089389Y0011674D01*
X0091950Y0008477D02*
X0092150Y0008477D01*
X0092150Y0006878D02*
X0091950Y0006878D01*
X0091950Y0005280D02*
X0092150Y0005280D01*
X0069178Y0021265D02*
X0004350Y0021265D01*
X0004350Y0022863D02*
X0068900Y0022863D01*
X0080421Y0029257D02*
X0043779Y0029257D01*
X0042181Y0030856D02*
X0082019Y0030856D01*
X0083618Y0032454D02*
X0054835Y0032454D01*
X0055200Y0034053D02*
X0085216Y0034053D01*
X0086815Y0035651D02*
X0054570Y0035651D01*
X0051787Y0037250D02*
X0088413Y0037250D01*
X0089400Y0038848D02*
X0050188Y0038848D01*
X0046979Y0037250D02*
X0004350Y0037250D01*
X0004350Y0038848D02*
X0009080Y0038848D01*
X0007482Y0040447D02*
X0004350Y0040447D01*
X0004350Y0042045D02*
X0005883Y0042045D01*
X0005750Y0043644D02*
X0004350Y0043644D01*
X0004350Y0045242D02*
X0005750Y0045242D01*
X0005750Y0046841D02*
X0004350Y0046841D01*
X0004350Y0048440D02*
X0005750Y0048440D01*
X0005750Y0050038D02*
X0004350Y0050038D01*
X0004350Y0051637D02*
X0005750Y0051637D01*
X0005750Y0053235D02*
X0004350Y0053235D01*
X0004350Y0054834D02*
X0005750Y0054834D01*
X0005750Y0056432D02*
X0004350Y0056432D01*
X0004350Y0058031D02*
X0005750Y0058031D01*
X0005750Y0059629D02*
X0004350Y0059629D01*
X0004350Y0061228D02*
X0005750Y0061228D01*
X0005750Y0062826D02*
X0004350Y0062826D01*
X0004350Y0064425D02*
X0005750Y0064425D01*
X0005750Y0066023D02*
X0004350Y0066023D01*
X0004350Y0067622D02*
X0005750Y0067622D01*
X0005750Y0069220D02*
X0004350Y0069220D01*
X0004350Y0070819D02*
X0005750Y0070819D01*
X0004786Y0072417D02*
X0004350Y0072417D01*
X0009150Y0072253D02*
X0011950Y0075053D01*
X0011950Y0079112D01*
X0011280Y0079783D01*
X0012820Y0079783D01*
X0012150Y0079112D01*
X0012150Y0075053D01*
X0015020Y0072183D01*
X0019080Y0072183D01*
X0019313Y0072416D01*
X0021146Y0070583D01*
X0025946Y0070583D01*
X0032896Y0063633D01*
X0032587Y0063633D01*
X0030437Y0065783D01*
X0020839Y0065783D01*
X0020408Y0066214D01*
X0019397Y0066633D01*
X0018303Y0066633D01*
X0017292Y0066214D01*
X0016519Y0065440D01*
X0016100Y0064430D01*
X0016100Y0063336D01*
X0016519Y0062325D01*
X0017292Y0061551D01*
X0018303Y0061133D01*
X0019397Y0061133D01*
X0020408Y0061551D01*
X0020839Y0061983D01*
X0023350Y0061983D01*
X0023350Y0055353D01*
X0024170Y0054533D01*
X0026713Y0054533D01*
X0038900Y0042346D01*
X0038900Y0041736D01*
X0038963Y0041583D01*
X0011154Y0041583D01*
X0009150Y0043587D01*
X0009150Y0072253D01*
X0009314Y0072417D02*
X0014786Y0072417D01*
X0013187Y0074016D02*
X0010913Y0074016D01*
X0011950Y0075614D02*
X0012150Y0075614D01*
X0012150Y0077213D02*
X0011950Y0077213D01*
X0011950Y0078811D02*
X0012150Y0078811D01*
X0009150Y0070819D02*
X0020910Y0070819D01*
X0027308Y0069220D02*
X0009150Y0069220D01*
X0009150Y0067622D02*
X0028907Y0067622D01*
X0030505Y0066023D02*
X0020599Y0066023D01*
X0017101Y0066023D02*
X0009150Y0066023D01*
X0009150Y0064425D02*
X0016100Y0064425D01*
X0016311Y0062826D02*
X0009150Y0062826D01*
X0009150Y0061228D02*
X0018074Y0061228D01*
X0019626Y0061228D02*
X0023350Y0061228D01*
X0023350Y0059629D02*
X0009150Y0059629D01*
X0009150Y0058031D02*
X0023350Y0058031D01*
X0023350Y0056432D02*
X0009150Y0056432D01*
X0009150Y0054834D02*
X0023869Y0054834D01*
X0028011Y0053235D02*
X0009150Y0053235D01*
X0009150Y0051637D02*
X0029609Y0051637D01*
X0031208Y0050038D02*
X0009150Y0050038D01*
X0009150Y0048440D02*
X0032806Y0048440D01*
X0034405Y0046841D02*
X0009150Y0046841D01*
X0009150Y0045242D02*
X0036003Y0045242D01*
X0037602Y0043644D02*
X0009150Y0043644D01*
X0010691Y0042045D02*
X0038900Y0042045D01*
X0038870Y0035651D02*
X0048577Y0035651D01*
X0049700Y0034053D02*
X0039300Y0034053D01*
X0040582Y0032454D02*
X0050065Y0032454D01*
X0042168Y0026060D02*
X0004350Y0026060D01*
X0004350Y0027659D02*
X0040570Y0027659D01*
X0038971Y0029257D02*
X0004350Y0029257D01*
X0004350Y0030856D02*
X0037373Y0030856D01*
X0034289Y0032454D02*
X0004350Y0032454D01*
X0004350Y0034053D02*
X0033800Y0034053D01*
X0034230Y0035651D02*
X0004350Y0035651D01*
X0004350Y0024462D02*
X0043767Y0024462D01*
X0054954Y0046383D02*
X0046804Y0054533D01*
X0049100Y0054533D01*
X0049100Y0054336D01*
X0049519Y0053325D01*
X0050292Y0052551D01*
X0051303Y0052133D01*
X0052397Y0052133D01*
X0053326Y0052518D01*
X0053892Y0051951D01*
X0054903Y0051533D01*
X0055997Y0051533D01*
X0057008Y0051951D01*
X0057781Y0052725D01*
X0057905Y0053024D01*
X0059300Y0051629D01*
X0059300Y0050736D01*
X0059719Y0049725D01*
X0060492Y0048951D01*
X0061503Y0048533D01*
X0062597Y0048533D01*
X0063608Y0048951D01*
X0064381Y0049725D01*
X0064800Y0050736D01*
X0064800Y0051830D01*
X0064381Y0052840D01*
X0064139Y0053083D01*
X0064381Y0053325D01*
X0064800Y0054336D01*
X0064800Y0055133D01*
X0064997Y0055133D01*
X0066008Y0055551D01*
X0066781Y0056325D01*
X0067200Y0057336D01*
X0067200Y0058430D01*
X0066781Y0059440D01*
X0066150Y0060072D01*
X0066150Y0063245D01*
X0066903Y0062933D01*
X0067796Y0062933D01*
X0081746Y0048983D01*
X0084461Y0048983D01*
X0085092Y0048351D01*
X0086103Y0047933D01*
X0087197Y0047933D01*
X0088208Y0048351D01*
X0088478Y0048622D01*
X0088519Y0048525D01*
X0089292Y0047751D01*
X0090303Y0047333D01*
X0090500Y0047333D01*
X0090500Y0047136D01*
X0090919Y0046125D01*
X0091350Y0045694D01*
X0091350Y0043583D01*
X0084771Y0043583D01*
X0085000Y0044136D01*
X0085000Y0045230D01*
X0084581Y0046240D01*
X0083808Y0047014D01*
X0082797Y0047433D01*
X0081703Y0047433D01*
X0080692Y0047014D01*
X0080061Y0046383D01*
X0054954Y0046383D01*
X0054496Y0046841D02*
X0080519Y0046841D01*
X0083981Y0046841D02*
X0090622Y0046841D01*
X0091350Y0045242D02*
X0084995Y0045242D01*
X0084796Y0043644D02*
X0091350Y0043644D01*
X0088604Y0048440D02*
X0088296Y0048440D01*
X0085004Y0048440D02*
X0052897Y0048440D01*
X0051299Y0050038D02*
X0059589Y0050038D01*
X0059292Y0051637D02*
X0056248Y0051637D01*
X0054652Y0051637D02*
X0049700Y0051637D01*
X0049609Y0053235D02*
X0048102Y0053235D01*
X0064291Y0053235D02*
X0077493Y0053235D01*
X0075895Y0054834D02*
X0064800Y0054834D01*
X0066826Y0056432D02*
X0074296Y0056432D01*
X0072698Y0058031D02*
X0067200Y0058031D01*
X0066593Y0059629D02*
X0071099Y0059629D01*
X0069501Y0061228D02*
X0066150Y0061228D01*
X0066150Y0062826D02*
X0067902Y0062826D01*
X0064800Y0051637D02*
X0079092Y0051637D01*
X0080690Y0050038D02*
X0064511Y0050038D01*
X0090024Y0034053D02*
X0097450Y0034053D01*
X0097450Y0032454D02*
X0088426Y0032454D01*
X0086827Y0030856D02*
X0097450Y0030856D01*
X0097450Y0029257D02*
X0085229Y0029257D01*
X0083630Y0027659D02*
X0097450Y0027659D01*
X0097450Y0026060D02*
X0082032Y0026060D01*
X0080433Y0024462D02*
X0097450Y0024462D01*
X0095994Y0035651D02*
X0091623Y0035651D01*
X0105750Y0064425D02*
X0115819Y0064425D01*
X0115100Y0066023D02*
X0105750Y0066023D01*
X0105750Y0067622D02*
X0115428Y0067622D01*
X0116150Y0069220D02*
X0105750Y0069220D01*
X0105750Y0070819D02*
X0116150Y0070819D01*
X0114786Y0072417D02*
X0109314Y0072417D01*
X0110913Y0074016D02*
X0113187Y0074016D01*
X0112150Y0075614D02*
X0111950Y0075614D01*
X0111950Y0077213D02*
X0112150Y0077213D01*
X0112150Y0078811D02*
X0111950Y0078811D01*
X0032104Y0064425D02*
X0031795Y0064425D01*
D13*
X0027550Y0066583D03*
X0024050Y0066583D03*
X0018850Y0063883D03*
X0010550Y0066583D03*
X0005050Y0066583D03*
X0005050Y0063083D03*
X0005050Y0059583D03*
X0012050Y0053583D03*
X0015550Y0053583D03*
X0019050Y0053583D03*
X0041650Y0042283D03*
X0047450Y0045483D03*
X0055450Y0054283D03*
X0051850Y0054883D03*
X0062050Y0054883D03*
X0062050Y0051283D03*
X0064450Y0057883D03*
X0067450Y0065683D03*
X0090250Y0063883D03*
X0097450Y0066283D03*
X0100450Y0064483D03*
X0117850Y0066283D03*
X0104050Y0050083D03*
X0111050Y0047583D03*
X0114550Y0047583D03*
X0118050Y0047583D03*
X0121550Y0047583D03*
X0125050Y0047583D03*
X0128550Y0047583D03*
X0111050Y0044083D03*
X0111050Y0040583D03*
X0111050Y0037083D03*
X0111050Y0033583D03*
X0095550Y0035083D03*
X0092150Y0038583D03*
X0095750Y0042183D03*
X0093250Y0047683D03*
X0090850Y0050083D03*
X0086650Y0050683D03*
X0079550Y0047583D03*
X0082250Y0044683D03*
X0079550Y0039083D03*
X0079550Y0035583D03*
X0090550Y0033083D03*
X0071650Y0022483D03*
X0052450Y0033883D03*
X0036550Y0034083D03*
X0012050Y0018083D03*
X0008550Y0018083D03*
X0005050Y0018083D03*
X0104050Y0020583D03*
X0107550Y0020583D03*
X0111050Y0020583D03*
D14*
X0087050Y0007083D02*
X0071650Y0022483D01*
X0079650Y0026083D02*
X0044550Y0026083D01*
X0036550Y0034083D01*
X0046750Y0039883D02*
X0052450Y0034183D01*
X0052450Y0033883D01*
X0046750Y0039883D02*
X0010450Y0039883D01*
X0007450Y0042883D01*
X0007450Y0077083D01*
X0007050Y0077083D01*
X0017050Y0077083D02*
X0021850Y0072283D01*
X0026650Y0072283D01*
X0036250Y0062683D01*
X0036250Y0056683D01*
X0047450Y0045483D01*
X0054250Y0044683D02*
X0082250Y0044683D01*
X0090850Y0050083D02*
X0090850Y0053683D01*
X0067450Y0077083D01*
X0067050Y0077083D01*
X0077050Y0077083D02*
X0090250Y0063883D01*
X0097450Y0066283D02*
X0086650Y0077083D01*
X0087050Y0077083D01*
X0097050Y0077083D02*
X0097450Y0077083D01*
X0100450Y0074083D01*
X0100450Y0064483D01*
X0104050Y0074083D02*
X0107050Y0077083D01*
X0104050Y0074083D02*
X0104050Y0050083D01*
X0103650Y0050083D01*
X0095750Y0042183D01*
X0092150Y0038583D02*
X0079650Y0026083D01*
X0054250Y0044683D02*
X0041050Y0057883D01*
X0041050Y0059083D01*
X0042050Y0059083D02*
X0046050Y0059083D01*
X0047050Y0059083D02*
X0047650Y0059083D01*
X0051850Y0054883D01*
X0055450Y0054283D02*
X0055450Y0057883D01*
X0041050Y0072283D01*
X0032050Y0072283D01*
X0027250Y0077083D01*
X0027050Y0077083D01*
X0037050Y0077083D02*
X0038050Y0077083D01*
X0057250Y0057883D01*
X0057250Y0056083D01*
X0062050Y0051283D01*
X0062050Y0054883D02*
X0062050Y0062083D01*
X0047050Y0077083D01*
X0057050Y0077083D02*
X0057250Y0077083D01*
X0064450Y0069883D01*
X0064450Y0057883D01*
X0067450Y0065683D02*
X0082450Y0050683D01*
X0086650Y0050683D01*
X0117850Y0066283D02*
X0117850Y0076483D01*
X0117250Y0077083D01*
X0117050Y0077083D01*
X0032050Y0059083D02*
X0028050Y0059083D01*
D15*
X0027250Y0059083D02*
X0027050Y0059083D01*
X0027250Y0059083D02*
X0027250Y0056683D01*
X0041650Y0042283D01*
X0042250Y0041683D01*
X0092650Y0041683D01*
X0092950Y0041383D01*
X0093250Y0041683D01*
X0093250Y0047683D01*
X0092950Y0041383D02*
X0099350Y0034983D01*
X0099350Y0009483D01*
X0097050Y0007083D01*
X0033050Y0059083D02*
X0032650Y0059083D01*
X0032650Y0060883D01*
X0029650Y0063883D01*
X0018850Y0063883D01*
M02*
