G75*
G70*
%OFA0B0*%
%FSLAX24Y24*%
%IPPOS*%
%LPD*%
%AMOC8*
5,1,8,0,0,1.08239X$1,22.5*
%
%ADD10R,0.0460X0.0630*%
%ADD11C,0.0335*%
D10*
X002750Y007887D03*
X003350Y007887D03*
D11*
X009310Y003774D02*
X009310Y003774D01*
X008464Y003774D01*
X008464Y003774D01*
X009310Y003774D01*
X009310Y004266D02*
X009310Y004266D01*
X008464Y004266D01*
X008464Y004266D01*
X009310Y004266D01*
X009310Y004758D02*
X009310Y004758D01*
X008464Y004758D01*
X008464Y004758D01*
X009310Y004758D01*
X009310Y005250D02*
X009310Y005250D01*
X008464Y005250D01*
X008464Y005250D01*
X009310Y005250D01*
X009310Y005743D02*
X009310Y005743D01*
X008464Y005743D01*
X008464Y005743D01*
X009310Y005743D01*
X009310Y006235D02*
X009310Y006235D01*
X008464Y006235D01*
X008464Y006235D01*
X009310Y006235D01*
X009310Y006727D02*
X009310Y006727D01*
X008464Y006727D01*
X008464Y006727D01*
X009310Y006727D01*
X009310Y007219D02*
X009310Y007219D01*
X008464Y007219D01*
X008464Y007219D01*
X009310Y007219D01*
X009753Y007446D02*
X009753Y007446D01*
X009753Y008292D01*
X009753Y008292D01*
X009753Y007446D01*
X009753Y007780D02*
X009753Y007780D01*
X009753Y008114D02*
X009753Y008114D01*
X010245Y007446D02*
X010245Y007446D01*
X010245Y008292D01*
X010245Y008292D01*
X010245Y007446D01*
X010245Y007780D02*
X010245Y007780D01*
X010245Y008114D02*
X010245Y008114D01*
X010737Y007446D02*
X010737Y007446D01*
X010737Y008292D01*
X010737Y008292D01*
X010737Y007446D01*
X010737Y007780D02*
X010737Y007780D01*
X010737Y008114D02*
X010737Y008114D01*
X011230Y007446D02*
X011230Y007446D01*
X011230Y008292D01*
X011230Y008292D01*
X011230Y007446D01*
X011230Y007780D02*
X011230Y007780D01*
X011230Y008114D02*
X011230Y008114D01*
X011722Y007446D02*
X011722Y007446D01*
X011722Y008292D01*
X011722Y008292D01*
X011722Y007446D01*
X011722Y007780D02*
X011722Y007780D01*
X011722Y008114D02*
X011722Y008114D01*
X012214Y007446D02*
X012214Y007446D01*
X012214Y008292D01*
X012214Y008292D01*
X012214Y007446D01*
X012214Y007780D02*
X012214Y007780D01*
X012214Y008114D02*
X012214Y008114D01*
X012706Y007446D02*
X012706Y007446D01*
X012706Y008292D01*
X012706Y008292D01*
X012706Y007446D01*
X012706Y007780D02*
X012706Y007780D01*
X012706Y008114D02*
X012706Y008114D01*
X013198Y007446D02*
X013198Y007446D01*
X013198Y008292D01*
X013198Y008292D01*
X013198Y007446D01*
X013198Y007780D02*
X013198Y007780D01*
X013198Y008114D02*
X013198Y008114D01*
X013690Y007446D02*
X013690Y007446D01*
X013690Y008292D01*
X013690Y008292D01*
X013690Y007446D01*
X013690Y007780D02*
X013690Y007780D01*
X013690Y008114D02*
X013690Y008114D01*
X014182Y007446D02*
X014182Y007446D01*
X014182Y008292D01*
X014182Y008292D01*
X014182Y007446D01*
X014182Y007780D02*
X014182Y007780D01*
X014182Y008114D02*
X014182Y008114D01*
X014674Y007446D02*
X014674Y007446D01*
X014674Y008292D01*
X014674Y008292D01*
X014674Y007446D01*
X014674Y007780D02*
X014674Y007780D01*
X014674Y008114D02*
X014674Y008114D01*
X015167Y007446D02*
X015167Y007446D01*
X015167Y008292D01*
X015167Y008292D01*
X015167Y007446D01*
X015167Y007780D02*
X015167Y007780D01*
X015167Y008114D02*
X015167Y008114D01*
X015659Y007446D02*
X015659Y007446D01*
X015659Y008292D01*
X015659Y008292D01*
X015659Y007446D01*
X015659Y007780D02*
X015659Y007780D01*
X015659Y008114D02*
X015659Y008114D01*
X013690Y002701D02*
X013690Y002701D01*
X013690Y003547D01*
X013690Y003547D01*
X013690Y002701D01*
X013690Y003035D02*
X013690Y003035D01*
X013690Y003369D02*
X013690Y003369D01*
X013198Y002701D02*
X013198Y002701D01*
X013198Y003547D01*
X013198Y003547D01*
X013198Y002701D01*
X013198Y003035D02*
X013198Y003035D01*
X013198Y003369D02*
X013198Y003369D01*
X012706Y002701D02*
X012706Y002701D01*
X012706Y003547D01*
X012706Y003547D01*
X012706Y002701D01*
X012706Y003035D02*
X012706Y003035D01*
X012706Y003369D02*
X012706Y003369D01*
X012214Y002701D02*
X012214Y002701D01*
X012214Y003547D01*
X012214Y003547D01*
X012214Y002701D01*
X012214Y003035D02*
X012214Y003035D01*
X012214Y003369D02*
X012214Y003369D01*
X011722Y002701D02*
X011722Y002701D01*
X011722Y003547D01*
X011722Y003547D01*
X011722Y002701D01*
X011722Y003035D02*
X011722Y003035D01*
X011722Y003369D02*
X011722Y003369D01*
X011230Y002701D02*
X011230Y002701D01*
X011230Y003547D01*
X011230Y003547D01*
X011230Y002701D01*
X011230Y003035D02*
X011230Y003035D01*
X011230Y003369D02*
X011230Y003369D01*
X010737Y002701D02*
X010737Y002701D01*
X010737Y003547D01*
X010737Y003547D01*
X010737Y002701D01*
X010737Y003035D02*
X010737Y003035D01*
X010737Y003369D02*
X010737Y003369D01*
X010245Y002701D02*
X010245Y002701D01*
X010245Y003547D01*
X010245Y003547D01*
X010245Y002701D01*
X010245Y003035D02*
X010245Y003035D01*
X010245Y003369D02*
X010245Y003369D01*
X009753Y002701D02*
X009753Y002701D01*
X009753Y003547D01*
X009753Y003547D01*
X009753Y002701D01*
X009753Y003035D02*
X009753Y003035D01*
X009753Y003369D02*
X009753Y003369D01*
M02*
