G75*
G70*
%OFA0B0*%
%FSLAX24Y24*%
%IPPOS*%
%LPD*%
%AMOC8*
5,1,8,0,0,1.08239X$1,22.5*
%
%ADD10C,0.0600*%
%ADD11OC8,0.0600*%
%ADD12OC8,0.0480*%
%ADD13R,0.0460X0.0630*%
%ADD14C,0.0335*%
%ADD15C,0.0100*%
%ADD16C,0.0270*%
%ADD17C,0.0160*%
D10*
X005560Y002657D02*
X005560Y003257D01*
X007340Y003257D02*
X007340Y002657D01*
X007340Y005217D02*
X007340Y005817D01*
X005560Y005817D02*
X005560Y005217D01*
D11*
X001550Y001487D03*
X002550Y001487D03*
X003550Y001487D03*
X004550Y001487D03*
X005550Y001487D03*
X006550Y001487D03*
X007550Y001487D03*
X008550Y001487D03*
X009550Y001487D03*
X010550Y001487D03*
X011550Y001487D03*
X012550Y001487D03*
X013550Y001487D03*
X014550Y001487D03*
X015550Y001487D03*
X015550Y009487D03*
X014550Y009487D03*
X013550Y009487D03*
X012550Y009487D03*
X011550Y009487D03*
X010550Y009487D03*
X009550Y009487D03*
X008550Y009487D03*
X007550Y009487D03*
X006550Y009487D03*
X005550Y009487D03*
X004550Y009487D03*
X003550Y009487D03*
X002550Y009487D03*
X001550Y009487D03*
X001550Y005987D03*
X001550Y004987D03*
D12*
X001550Y007887D03*
X004550Y007887D03*
X006050Y007987D03*
X007050Y007987D03*
X007050Y006787D03*
X006050Y006787D03*
D13*
X003350Y007887D03*
X002750Y007887D03*
D14*
X009310Y007219D02*
X009310Y007219D01*
X008464Y007219D01*
X008464Y007219D01*
X009310Y007219D01*
X009310Y006727D02*
X009310Y006727D01*
X008464Y006727D01*
X008464Y006727D01*
X009310Y006727D01*
X009310Y006235D02*
X009310Y006235D01*
X008464Y006235D01*
X008464Y006235D01*
X009310Y006235D01*
X009310Y005743D02*
X009310Y005743D01*
X008464Y005743D01*
X008464Y005743D01*
X009310Y005743D01*
X009310Y005250D02*
X009310Y005250D01*
X008464Y005250D01*
X008464Y005250D01*
X009310Y005250D01*
X009310Y004758D02*
X009310Y004758D01*
X008464Y004758D01*
X008464Y004758D01*
X009310Y004758D01*
X009310Y004266D02*
X009310Y004266D01*
X008464Y004266D01*
X008464Y004266D01*
X009310Y004266D01*
X009310Y003774D02*
X009310Y003774D01*
X008464Y003774D01*
X008464Y003774D01*
X009310Y003774D01*
X009753Y002701D02*
X009753Y002701D01*
X009753Y003547D01*
X009753Y003547D01*
X009753Y002701D01*
X009753Y003035D02*
X009753Y003035D01*
X009753Y003369D02*
X009753Y003369D01*
X010245Y002701D02*
X010245Y002701D01*
X010245Y003547D01*
X010245Y003547D01*
X010245Y002701D01*
X010245Y003035D02*
X010245Y003035D01*
X010245Y003369D02*
X010245Y003369D01*
X010737Y002701D02*
X010737Y002701D01*
X010737Y003547D01*
X010737Y003547D01*
X010737Y002701D01*
X010737Y003035D02*
X010737Y003035D01*
X010737Y003369D02*
X010737Y003369D01*
X011230Y002701D02*
X011230Y002701D01*
X011230Y003547D01*
X011230Y003547D01*
X011230Y002701D01*
X011230Y003035D02*
X011230Y003035D01*
X011230Y003369D02*
X011230Y003369D01*
X011722Y002701D02*
X011722Y002701D01*
X011722Y003547D01*
X011722Y003547D01*
X011722Y002701D01*
X011722Y003035D02*
X011722Y003035D01*
X011722Y003369D02*
X011722Y003369D01*
X012214Y002701D02*
X012214Y002701D01*
X012214Y003547D01*
X012214Y003547D01*
X012214Y002701D01*
X012214Y003035D02*
X012214Y003035D01*
X012214Y003369D02*
X012214Y003369D01*
X012706Y002701D02*
X012706Y002701D01*
X012706Y003547D01*
X012706Y003547D01*
X012706Y002701D01*
X012706Y003035D02*
X012706Y003035D01*
X012706Y003369D02*
X012706Y003369D01*
X013198Y002701D02*
X013198Y002701D01*
X013198Y003547D01*
X013198Y003547D01*
X013198Y002701D01*
X013198Y003035D02*
X013198Y003035D01*
X013198Y003369D02*
X013198Y003369D01*
X013690Y002701D02*
X013690Y002701D01*
X013690Y003547D01*
X013690Y003547D01*
X013690Y002701D01*
X013690Y003035D02*
X013690Y003035D01*
X013690Y003369D02*
X013690Y003369D01*
X013690Y007446D02*
X013690Y007446D01*
X013690Y008292D01*
X013690Y008292D01*
X013690Y007446D01*
X013690Y007780D02*
X013690Y007780D01*
X013690Y008114D02*
X013690Y008114D01*
X013198Y007446D02*
X013198Y007446D01*
X013198Y008292D01*
X013198Y008292D01*
X013198Y007446D01*
X013198Y007780D02*
X013198Y007780D01*
X013198Y008114D02*
X013198Y008114D01*
X012706Y007446D02*
X012706Y007446D01*
X012706Y008292D01*
X012706Y008292D01*
X012706Y007446D01*
X012706Y007780D02*
X012706Y007780D01*
X012706Y008114D02*
X012706Y008114D01*
X012214Y007446D02*
X012214Y007446D01*
X012214Y008292D01*
X012214Y008292D01*
X012214Y007446D01*
X012214Y007780D02*
X012214Y007780D01*
X012214Y008114D02*
X012214Y008114D01*
X011722Y007446D02*
X011722Y007446D01*
X011722Y008292D01*
X011722Y008292D01*
X011722Y007446D01*
X011722Y007780D02*
X011722Y007780D01*
X011722Y008114D02*
X011722Y008114D01*
X011230Y007446D02*
X011230Y007446D01*
X011230Y008292D01*
X011230Y008292D01*
X011230Y007446D01*
X011230Y007780D02*
X011230Y007780D01*
X011230Y008114D02*
X011230Y008114D01*
X010737Y007446D02*
X010737Y007446D01*
X010737Y008292D01*
X010737Y008292D01*
X010737Y007446D01*
X010737Y007780D02*
X010737Y007780D01*
X010737Y008114D02*
X010737Y008114D01*
X010245Y007446D02*
X010245Y007446D01*
X010245Y008292D01*
X010245Y008292D01*
X010245Y007446D01*
X010245Y007780D02*
X010245Y007780D01*
X010245Y008114D02*
X010245Y008114D01*
X009753Y007446D02*
X009753Y007446D01*
X009753Y008292D01*
X009753Y008292D01*
X009753Y007446D01*
X009753Y007780D02*
X009753Y007780D01*
X009753Y008114D02*
X009753Y008114D01*
X014182Y007446D02*
X014182Y007446D01*
X014182Y008292D01*
X014182Y008292D01*
X014182Y007446D01*
X014182Y007780D02*
X014182Y007780D01*
X014182Y008114D02*
X014182Y008114D01*
X014674Y007446D02*
X014674Y007446D01*
X014674Y008292D01*
X014674Y008292D01*
X014674Y007446D01*
X014674Y007780D02*
X014674Y007780D01*
X014674Y008114D02*
X014674Y008114D01*
X015167Y007446D02*
X015167Y007446D01*
X015167Y008292D01*
X015167Y008292D01*
X015167Y007446D01*
X015167Y007780D02*
X015167Y007780D01*
X015167Y008114D02*
X015167Y008114D01*
X015659Y007446D02*
X015659Y007446D01*
X015659Y008292D01*
X015659Y008292D01*
X015659Y007446D01*
X015659Y007780D02*
X015659Y007780D01*
X015659Y008114D02*
X015659Y008114D01*
D15*
X015650Y007887D02*
X015659Y007869D01*
X015650Y007787D01*
X015650Y007387D01*
X014550Y006287D01*
X014050Y006287D01*
X013350Y005587D01*
X013350Y003887D01*
X009050Y003887D01*
X008950Y003787D01*
X008887Y003774D01*
X008850Y003687D01*
X008850Y003487D01*
X006850Y001487D01*
X006550Y001487D01*
X007550Y001487D02*
X009150Y003087D01*
X009750Y003087D01*
X009753Y003124D01*
X010150Y003087D02*
X010245Y003124D01*
X010150Y003087D02*
X010150Y002587D01*
X009550Y001987D01*
X009050Y001987D01*
X008550Y001487D01*
X009550Y001487D02*
X010650Y002587D01*
X010650Y003087D01*
X010737Y003124D01*
X011150Y003087D02*
X011230Y003124D01*
X011150Y003087D02*
X011150Y002087D01*
X010550Y001487D01*
X011550Y001487D02*
X011650Y001587D01*
X011650Y003087D01*
X011722Y003124D01*
X012214Y003124D02*
X012250Y003087D01*
X012250Y001787D01*
X012550Y001487D01*
X012750Y002287D02*
X013550Y001487D01*
X014150Y001987D02*
X015050Y001987D01*
X015550Y001487D01*
X014550Y001487D02*
X014350Y001487D01*
X013250Y002587D01*
X013250Y003087D01*
X013198Y003124D01*
X012750Y003087D02*
X012706Y003124D01*
X012750Y003087D02*
X012750Y002287D01*
X013750Y002387D02*
X014150Y001987D01*
X013750Y002387D02*
X013750Y003087D01*
X013690Y003124D01*
X013650Y003187D01*
X013650Y003587D01*
X013350Y003887D01*
X011750Y006687D02*
X009350Y004287D01*
X008950Y004287D01*
X008887Y004266D01*
X008850Y004187D01*
X007550Y004187D01*
X006850Y003487D01*
X006850Y003287D01*
X005550Y001987D01*
X005550Y001487D01*
X004550Y001487D02*
X004550Y002887D01*
X005450Y003787D01*
X006850Y003787D01*
X007750Y004687D01*
X008850Y004687D01*
X008887Y004758D01*
X008850Y005187D02*
X008887Y005250D01*
X008850Y005187D02*
X007950Y005187D01*
X006750Y003987D01*
X005350Y003987D01*
X003550Y002187D01*
X003550Y001487D01*
X002550Y001487D02*
X006150Y005087D01*
X006150Y005287D01*
X005550Y005487D02*
X005560Y005517D01*
X005550Y005487D02*
X005050Y004987D01*
X001550Y004987D01*
X001550Y005987D02*
X001550Y007887D01*
X002750Y007887D01*
X003350Y007887D02*
X004550Y007887D01*
X004950Y008087D02*
X003550Y009487D01*
X004550Y009487D02*
X005150Y008887D01*
X005150Y007987D01*
X005550Y007587D01*
X005550Y007387D01*
X005850Y007187D02*
X005850Y007587D01*
X005650Y007787D01*
X005650Y008187D01*
X005850Y008387D01*
X006250Y008387D01*
X006550Y008087D01*
X006050Y007987D02*
X006050Y006787D01*
X005750Y007087D02*
X005350Y007087D01*
X004950Y007487D01*
X004950Y008087D01*
X003750Y007287D02*
X004650Y006387D01*
X007250Y006387D01*
X007450Y006587D01*
X007450Y006887D01*
X007550Y006987D01*
X007950Y006987D01*
X008150Y006787D01*
X008850Y006787D01*
X008887Y006727D01*
X008850Y006287D02*
X008150Y006287D01*
X007750Y006687D01*
X007050Y006787D02*
X007050Y007987D01*
X007550Y008487D01*
X007550Y009487D01*
X008550Y009487D02*
X009250Y008787D01*
X011750Y008787D01*
X012150Y008387D01*
X012150Y007887D01*
X012214Y007869D01*
X011750Y007787D02*
X011722Y007869D01*
X011750Y007787D02*
X011750Y007087D01*
X014350Y007087D01*
X014650Y007387D01*
X014650Y007787D01*
X014674Y007869D01*
X014650Y007887D01*
X014650Y009387D01*
X014550Y009487D01*
X013550Y009487D01*
X013350Y008987D02*
X012850Y009487D01*
X012550Y009487D01*
X012350Y008987D02*
X011850Y009487D01*
X011550Y009487D01*
X012050Y008987D02*
X010050Y008987D01*
X009550Y009487D01*
X007750Y007887D02*
X007650Y007987D01*
X007750Y007887D02*
X009750Y007887D01*
X009753Y007869D01*
X010150Y007787D02*
X010245Y007869D01*
X010150Y007787D02*
X010150Y007387D01*
X009750Y006987D01*
X010450Y007087D02*
X010650Y007287D01*
X010650Y007787D01*
X010737Y007869D01*
X011230Y007869D02*
X011250Y007787D01*
X011250Y007287D01*
X011450Y007087D01*
X011750Y007087D02*
X011750Y006687D01*
X012650Y007887D02*
X012706Y007869D01*
X012650Y007887D02*
X012650Y008387D01*
X012050Y008987D01*
X012350Y008987D02*
X013050Y008987D01*
X013650Y008387D01*
X013650Y007887D01*
X013690Y007869D01*
X014150Y007887D02*
X014182Y007869D01*
X014150Y007887D02*
X014150Y008287D01*
X013450Y008987D01*
X013350Y008987D01*
X012850Y008687D02*
X013150Y008387D01*
X013150Y007887D01*
X013198Y007869D01*
X014674Y007869D02*
X014750Y007887D01*
X015150Y007887D01*
X015167Y007869D01*
X015650Y007887D02*
X015650Y009387D01*
X015550Y009487D01*
X008887Y007219D02*
X008850Y007287D01*
X007950Y007287D01*
X007650Y007587D01*
X006850Y008687D02*
X006350Y008687D01*
X005550Y009487D01*
X005850Y007187D02*
X005750Y007087D01*
X008050Y005787D02*
X008850Y005787D01*
X008887Y005743D01*
X008887Y006235D02*
X008850Y006287D01*
X003650Y003587D02*
X001550Y001487D01*
D16*
X001450Y002487D03*
X001450Y002987D03*
X001450Y003487D03*
X001450Y003987D03*
X001950Y003987D03*
X002450Y003987D03*
X002450Y004487D03*
X002950Y004487D03*
X002950Y004987D03*
X002950Y005487D03*
X002950Y005987D03*
X003450Y005987D03*
X003450Y006487D03*
X002950Y006487D03*
X002450Y006487D03*
X002450Y006987D03*
X001950Y006987D03*
X002950Y006987D03*
X003750Y007287D03*
X005550Y007387D03*
X006550Y008087D03*
X006850Y008687D03*
X007650Y007987D03*
X007650Y007587D03*
X008550Y008287D03*
X009750Y006987D03*
X010450Y007087D03*
X010450Y006487D03*
X010950Y006487D03*
X010450Y005987D03*
X009950Y005987D03*
X009950Y005487D03*
X010950Y004987D03*
X010950Y004487D03*
X010450Y004487D03*
X010950Y003987D03*
X011450Y003987D03*
X011950Y003987D03*
X012450Y003987D03*
X012950Y003987D03*
X013450Y003987D03*
X013450Y004487D03*
X012950Y004487D03*
X012450Y004487D03*
X011950Y004487D03*
X011450Y004487D03*
X011450Y005487D03*
X011450Y007087D03*
X012850Y008687D03*
X014850Y006887D03*
X014550Y006487D03*
X013950Y006487D03*
X014250Y005987D03*
X013950Y005587D03*
X014550Y005587D03*
X014850Y005987D03*
X015150Y005587D03*
X015750Y005587D03*
X015450Y005987D03*
X015150Y006487D03*
X015450Y006887D03*
X015750Y006487D03*
X014950Y001987D03*
X008450Y002987D03*
X007950Y002987D03*
X007950Y003487D03*
X007950Y002487D03*
X006550Y002487D03*
X004450Y003987D03*
X004450Y004487D03*
X003950Y004487D03*
X004450Y004987D03*
X004950Y004987D03*
X004950Y005487D03*
X006150Y005287D03*
X004950Y004487D03*
X003650Y003587D03*
X008050Y005787D03*
X007750Y006687D03*
D17*
X006820Y007151D02*
X006630Y006961D01*
X006630Y006617D01*
X006470Y006617D01*
X006470Y006787D01*
X006470Y006961D01*
X006224Y007207D01*
X006080Y007207D01*
X006080Y007567D01*
X006224Y007567D01*
X006446Y007789D01*
X006487Y007772D01*
X006613Y007772D01*
X006654Y007789D01*
X006820Y007623D01*
X006820Y007151D01*
X006820Y007168D02*
X006262Y007168D01*
X006080Y007327D02*
X006820Y007327D01*
X006820Y007485D02*
X006080Y007485D01*
X006301Y007644D02*
X006799Y007644D01*
X006679Y007010D02*
X006421Y007010D01*
X006470Y006851D02*
X006630Y006851D01*
X006470Y006787D02*
X006050Y006787D01*
X006050Y006787D01*
X006050Y006787D01*
X005630Y006787D01*
X005630Y006857D01*
X005255Y006857D01*
X004855Y007257D01*
X004720Y007391D01*
X004720Y007467D01*
X004376Y007467D01*
X004186Y007657D01*
X003760Y007657D01*
X003760Y007602D01*
X003813Y007602D01*
X003928Y007554D01*
X004017Y007465D01*
X004065Y007349D01*
X004065Y007297D01*
X004745Y006617D01*
X005630Y006617D01*
X005630Y006787D01*
X006050Y006787D01*
X006470Y006787D01*
X006470Y006693D02*
X006630Y006693D01*
X005630Y006693D02*
X004669Y006693D01*
X004511Y006851D02*
X005630Y006851D01*
X005102Y007010D02*
X004352Y007010D01*
X004194Y007168D02*
X004943Y007168D01*
X004785Y007327D02*
X004065Y007327D01*
X003997Y007485D02*
X004358Y007485D01*
X004199Y007644D02*
X003760Y007644D01*
X003453Y007392D02*
X003435Y007349D01*
X003435Y007224D01*
X003483Y007108D01*
X003572Y007020D01*
X003687Y006972D01*
X003740Y006972D01*
X004555Y006157D01*
X005221Y006157D01*
X005194Y006129D01*
X005149Y006068D01*
X005115Y006001D01*
X005092Y005929D01*
X005080Y005854D01*
X005080Y005537D01*
X005540Y005537D01*
X005540Y005497D01*
X005080Y005497D01*
X005080Y005179D01*
X005092Y005104D01*
X005115Y005032D01*
X005149Y004965D01*
X005194Y004904D01*
X005247Y004851D01*
X005308Y004806D01*
X005376Y004772D01*
X005448Y004748D01*
X005481Y004743D01*
X002705Y001967D01*
X002355Y001967D01*
X003660Y003272D01*
X003713Y003272D01*
X003828Y003320D01*
X003917Y003408D01*
X003965Y003524D01*
X003965Y003649D01*
X003917Y003765D01*
X003828Y003854D01*
X003713Y003902D01*
X003587Y003902D01*
X003472Y003854D01*
X003383Y003765D01*
X003335Y003649D01*
X003335Y003597D01*
X001705Y001967D01*
X001351Y001967D01*
X001280Y001895D01*
X001280Y004578D01*
X001351Y004507D01*
X001530Y004507D01*
X001530Y004967D01*
X001570Y004967D01*
X001570Y005007D01*
X001530Y005007D01*
X001530Y005467D01*
X001351Y005467D01*
X001280Y005395D01*
X001280Y005578D01*
X001351Y005507D01*
X001749Y005507D01*
X002030Y005788D01*
X002030Y006185D01*
X001780Y006435D01*
X001780Y007523D01*
X001914Y007657D01*
X002340Y007657D01*
X002340Y007497D01*
X002445Y007392D01*
X003453Y007392D01*
X003435Y007327D02*
X001780Y007327D01*
X001780Y007168D02*
X003458Y007168D01*
X003596Y007010D02*
X001780Y007010D01*
X001780Y006851D02*
X003860Y006851D01*
X004019Y006693D02*
X001780Y006693D01*
X001780Y006534D02*
X004177Y006534D01*
X004336Y006376D02*
X001840Y006376D01*
X001998Y006217D02*
X004494Y006217D01*
X005145Y006059D02*
X002030Y006059D01*
X002030Y005900D02*
X005087Y005900D01*
X005080Y005742D02*
X001984Y005742D01*
X001825Y005583D02*
X005080Y005583D01*
X005080Y005425D02*
X001791Y005425D01*
X001749Y005467D02*
X001570Y005467D01*
X001570Y005007D01*
X002030Y005007D01*
X002030Y005185D01*
X001749Y005467D01*
X001570Y005425D02*
X001530Y005425D01*
X001530Y005266D02*
X001570Y005266D01*
X001570Y005108D02*
X001530Y005108D01*
X001570Y004967D02*
X002030Y004967D01*
X002030Y004788D01*
X001749Y004507D01*
X001570Y004507D01*
X001570Y004967D01*
X001570Y004949D02*
X001530Y004949D01*
X001530Y004791D02*
X001570Y004791D01*
X001570Y004632D02*
X001530Y004632D01*
X001280Y004474D02*
X005212Y004474D01*
X005053Y004315D02*
X001280Y004315D01*
X001280Y004157D02*
X004895Y004157D01*
X004736Y003998D02*
X001280Y003998D01*
X001280Y003840D02*
X003458Y003840D01*
X003348Y003681D02*
X001280Y003681D01*
X001280Y003523D02*
X003261Y003523D01*
X003102Y003364D02*
X001280Y003364D01*
X001280Y003206D02*
X002944Y003206D01*
X002785Y003047D02*
X001280Y003047D01*
X001280Y002889D02*
X002627Y002889D01*
X002468Y002730D02*
X001280Y002730D01*
X001280Y002572D02*
X002310Y002572D01*
X002151Y002413D02*
X001280Y002413D01*
X001280Y002255D02*
X001993Y002255D01*
X001834Y002096D02*
X001280Y002096D01*
X001280Y001938D02*
X001322Y001938D01*
X002485Y002096D02*
X002834Y002096D01*
X002993Y002255D02*
X002643Y002255D01*
X002802Y002413D02*
X003151Y002413D01*
X003310Y002572D02*
X002960Y002572D01*
X003119Y002730D02*
X003468Y002730D01*
X003627Y002889D02*
X003277Y002889D01*
X003436Y003047D02*
X003785Y003047D01*
X003944Y003206D02*
X003594Y003206D01*
X003873Y003364D02*
X004102Y003364D01*
X003964Y003523D02*
X004261Y003523D01*
X004419Y003681D02*
X003952Y003681D01*
X003842Y003840D02*
X004578Y003840D01*
X005370Y004632D02*
X001874Y004632D01*
X002030Y004791D02*
X005339Y004791D01*
X005540Y004802D02*
X005540Y005497D01*
X005580Y005497D01*
X005580Y004842D01*
X005540Y004802D01*
X005540Y004949D02*
X005580Y004949D01*
X005580Y005108D02*
X005540Y005108D01*
X005540Y005266D02*
X005580Y005266D01*
X005580Y005425D02*
X005540Y005425D01*
X005080Y005266D02*
X001949Y005266D01*
X002030Y005108D02*
X005091Y005108D01*
X005161Y004949D02*
X002030Y004949D01*
X001309Y005425D02*
X001280Y005425D01*
X001780Y007485D02*
X002352Y007485D01*
X002340Y007644D02*
X001901Y007644D01*
X006030Y009332D02*
X006030Y009685D01*
X005963Y009753D01*
X006137Y009753D01*
X006070Y009685D01*
X006070Y009507D01*
X006530Y009507D01*
X006530Y009467D01*
X006070Y009467D01*
X006070Y009292D01*
X006030Y009332D01*
X006030Y009387D02*
X006070Y009387D01*
X006070Y009546D02*
X006030Y009546D01*
X006011Y009704D02*
X006089Y009704D01*
X006530Y009467D02*
X006570Y009467D01*
X006570Y009507D01*
X007030Y009507D01*
X007030Y009685D01*
X006963Y009753D01*
X007137Y009753D01*
X007070Y009685D01*
X007070Y009288D01*
X007320Y009038D01*
X007320Y008582D01*
X007145Y008407D01*
X006997Y008407D01*
X007028Y008420D01*
X007117Y008508D01*
X007165Y008624D01*
X007165Y008749D01*
X007117Y008865D01*
X007028Y008954D01*
X006913Y009002D01*
X006787Y009002D01*
X006672Y008954D01*
X006635Y008917D01*
X006445Y008917D01*
X006355Y009007D01*
X006530Y009007D01*
X006530Y009467D01*
X006570Y009467D02*
X006570Y009007D01*
X006749Y009007D01*
X007030Y009288D01*
X007030Y009467D01*
X006570Y009467D01*
X006570Y009387D02*
X006530Y009387D01*
X006530Y009229D02*
X006570Y009229D01*
X006570Y009070D02*
X006530Y009070D01*
X006812Y009070D02*
X007288Y009070D01*
X007320Y008912D02*
X007070Y008912D01*
X007163Y008753D02*
X007320Y008753D01*
X007320Y008595D02*
X007153Y008595D01*
X007174Y008436D02*
X007045Y008436D01*
X006971Y009229D02*
X007129Y009229D01*
X007070Y009387D02*
X007030Y009387D01*
X007030Y009546D02*
X007070Y009546D01*
X007089Y009704D02*
X007011Y009704D01*
X010065Y006976D02*
X010135Y007046D01*
X010135Y007024D01*
X010183Y006908D01*
X010272Y006820D01*
X010387Y006772D01*
X010513Y006772D01*
X010628Y006820D01*
X010717Y006908D01*
X010765Y007024D01*
X010765Y007076D01*
X010787Y007098D01*
X010806Y007098D01*
X010934Y007151D01*
X010983Y007200D01*
X011008Y007176D01*
X011065Y007138D01*
X011128Y007111D01*
X011195Y007098D01*
X011226Y007098D01*
X011226Y007865D01*
X011233Y007865D01*
X011233Y007098D01*
X011264Y007098D01*
X011331Y007111D01*
X011394Y007138D01*
X011451Y007176D01*
X011476Y007200D01*
X011520Y007156D01*
X011520Y006782D01*
X009631Y004893D01*
X009605Y004955D01*
X009555Y005004D01*
X009605Y005054D01*
X009658Y005181D01*
X009658Y005320D01*
X009605Y005447D01*
X009555Y005497D01*
X009605Y005546D01*
X009658Y005673D01*
X009658Y005812D01*
X009605Y005939D01*
X009555Y005989D01*
X009605Y006038D01*
X009658Y006166D01*
X009658Y006304D01*
X009605Y006431D01*
X009555Y006481D01*
X009605Y006530D01*
X009658Y006658D01*
X009658Y006684D01*
X009687Y006672D01*
X009813Y006672D01*
X009928Y006720D01*
X010017Y006808D01*
X010065Y006924D01*
X010065Y006976D01*
X010098Y007010D02*
X010141Y007010D01*
X010240Y006851D02*
X010035Y006851D01*
X009863Y006693D02*
X011431Y006693D01*
X011272Y006534D02*
X009606Y006534D01*
X009628Y006376D02*
X011114Y006376D01*
X010955Y006217D02*
X009658Y006217D01*
X009613Y006059D02*
X010797Y006059D01*
X010638Y005900D02*
X009621Y005900D01*
X009658Y005742D02*
X010480Y005742D01*
X010321Y005583D02*
X009620Y005583D01*
X009614Y005425D02*
X010163Y005425D01*
X010004Y005266D02*
X009658Y005266D01*
X009627Y005108D02*
X009846Y005108D01*
X009687Y004949D02*
X009607Y004949D01*
X010021Y004632D02*
X013820Y004632D01*
X013820Y004791D02*
X010179Y004791D01*
X010338Y004949D02*
X013820Y004949D01*
X013820Y005108D02*
X010496Y005108D01*
X010655Y005266D02*
X013820Y005266D01*
X013820Y005425D02*
X010813Y005425D01*
X010972Y005583D02*
X015820Y005583D01*
X015820Y005517D02*
X013867Y005517D01*
X013820Y005470D01*
X013820Y003870D01*
X013791Y003882D01*
X013724Y003895D01*
X013694Y003895D01*
X013694Y003128D01*
X013686Y003128D01*
X013686Y003895D01*
X013656Y003895D01*
X013589Y003882D01*
X013526Y003855D01*
X013469Y003817D01*
X013444Y003793D01*
X013395Y003842D01*
X013267Y003895D01*
X013129Y003895D01*
X013001Y003842D01*
X012952Y003793D01*
X012903Y003842D01*
X012775Y003895D01*
X012637Y003895D01*
X012509Y003842D01*
X012460Y003793D01*
X012411Y003842D01*
X012283Y003895D01*
X012145Y003895D01*
X012017Y003842D01*
X011968Y003793D01*
X011918Y003842D01*
X011791Y003895D01*
X011653Y003895D01*
X011525Y003842D01*
X011476Y003793D01*
X011426Y003842D01*
X011299Y003895D01*
X011160Y003895D01*
X011033Y003842D01*
X010983Y003793D01*
X010934Y003842D01*
X010806Y003895D01*
X010668Y003895D01*
X010541Y003842D01*
X010491Y003793D01*
X010442Y003842D01*
X010314Y003895D01*
X010176Y003895D01*
X010049Y003842D01*
X009999Y003793D01*
X009950Y003842D01*
X009822Y003895D01*
X009684Y003895D01*
X009643Y003878D01*
X009618Y003939D01*
X009580Y003995D01*
X009555Y004020D01*
X009605Y004069D01*
X009658Y004197D01*
X009658Y004269D01*
X011845Y006457D01*
X011980Y006591D01*
X011980Y006857D01*
X014445Y006857D01*
X014580Y006991D01*
X014687Y007098D01*
X014743Y007098D01*
X014871Y007151D01*
X014920Y007200D01*
X014970Y007151D01*
X015097Y007098D01*
X015236Y007098D01*
X015363Y007151D01*
X015413Y007200D01*
X015437Y007176D01*
X015494Y007138D01*
X015557Y007111D01*
X015624Y007098D01*
X015655Y007098D01*
X015655Y007865D01*
X015662Y007865D01*
X015662Y007098D01*
X015693Y007098D01*
X015760Y007111D01*
X015820Y007136D01*
X015820Y005517D01*
X015820Y005742D02*
X011130Y005742D01*
X011289Y005900D02*
X015820Y005900D01*
X015820Y006059D02*
X011447Y006059D01*
X011606Y006217D02*
X015820Y006217D01*
X015820Y006376D02*
X011764Y006376D01*
X011923Y006534D02*
X015820Y006534D01*
X015820Y006693D02*
X011980Y006693D01*
X011980Y006851D02*
X015820Y006851D01*
X015820Y007010D02*
X014598Y007010D01*
X014888Y007168D02*
X014952Y007168D01*
X015381Y007168D02*
X015448Y007168D01*
X015655Y007168D02*
X015662Y007168D01*
X015655Y007327D02*
X015662Y007327D01*
X015655Y007485D02*
X015662Y007485D01*
X015655Y007644D02*
X015662Y007644D01*
X015655Y007802D02*
X015662Y007802D01*
X015662Y007872D02*
X015655Y007872D01*
X015655Y008639D01*
X015624Y008639D01*
X015557Y008626D01*
X015494Y008600D01*
X015437Y008562D01*
X015413Y008537D01*
X015363Y008586D01*
X015236Y008639D01*
X015097Y008639D01*
X014970Y008586D01*
X014920Y008537D01*
X014880Y008577D01*
X014880Y009138D01*
X015030Y009288D01*
X015030Y009685D01*
X014963Y009753D01*
X015137Y009753D01*
X015070Y009685D01*
X015070Y009507D01*
X015530Y009507D01*
X015530Y009467D01*
X015070Y009467D01*
X015070Y009288D01*
X015351Y009007D01*
X015530Y009007D01*
X015530Y009467D01*
X015570Y009467D01*
X015570Y009007D01*
X015749Y009007D01*
X015820Y009078D01*
X015820Y008601D01*
X015760Y008626D01*
X015693Y008639D01*
X015662Y008639D01*
X015662Y007872D01*
X015655Y007961D02*
X015662Y007961D01*
X015655Y008119D02*
X015662Y008119D01*
X015655Y008278D02*
X015662Y008278D01*
X015655Y008436D02*
X015662Y008436D01*
X015655Y008595D02*
X015662Y008595D01*
X015487Y008595D02*
X015343Y008595D01*
X014990Y008595D02*
X014880Y008595D01*
X014880Y008753D02*
X015820Y008753D01*
X015820Y008912D02*
X014880Y008912D01*
X014880Y009070D02*
X015288Y009070D01*
X015530Y009070D02*
X015570Y009070D01*
X015570Y009229D02*
X015530Y009229D01*
X015530Y009387D02*
X015570Y009387D01*
X015129Y009229D02*
X014971Y009229D01*
X015030Y009387D02*
X015070Y009387D01*
X015070Y009546D02*
X015030Y009546D01*
X015011Y009704D02*
X015089Y009704D01*
X015812Y009070D02*
X015820Y009070D01*
X011508Y007168D02*
X011440Y007168D01*
X011520Y007010D02*
X010759Y007010D01*
X010660Y006851D02*
X011520Y006851D01*
X011233Y007168D02*
X011226Y007168D01*
X011226Y007327D02*
X011233Y007327D01*
X011019Y007168D02*
X010951Y007168D01*
X011226Y007485D02*
X011233Y007485D01*
X011226Y007644D02*
X011233Y007644D01*
X011226Y007802D02*
X011233Y007802D01*
X009862Y004474D02*
X013820Y004474D01*
X013820Y004315D02*
X009704Y004315D01*
X009641Y004157D02*
X013820Y004157D01*
X013820Y003998D02*
X009577Y003998D01*
X009952Y003840D02*
X010046Y003840D01*
X010444Y003840D02*
X010538Y003840D01*
X010937Y003840D02*
X011030Y003840D01*
X011429Y003840D02*
X011522Y003840D01*
X011921Y003840D02*
X012015Y003840D01*
X012413Y003840D02*
X012507Y003840D01*
X012905Y003840D02*
X012999Y003840D01*
X013397Y003840D02*
X013502Y003840D01*
X013686Y003840D02*
X013694Y003840D01*
X013686Y003681D02*
X013694Y003681D01*
X013686Y003523D02*
X013694Y003523D01*
X013686Y003364D02*
X013694Y003364D01*
X013686Y003206D02*
X013694Y003206D01*
X013820Y002379D02*
X013794Y002368D01*
X014273Y001889D01*
X014351Y001967D01*
X014749Y001967D01*
X015030Y001685D01*
X015030Y001288D01*
X014959Y001217D01*
X015141Y001217D01*
X015070Y001288D01*
X015070Y001467D01*
X015530Y001467D01*
X015530Y001507D01*
X015530Y001967D01*
X015351Y001967D01*
X015070Y001685D01*
X015070Y001507D01*
X015530Y001507D01*
X015570Y001507D01*
X015570Y001967D01*
X015749Y001967D01*
X015820Y001895D01*
X015820Y002307D01*
X013867Y002307D01*
X013820Y002354D01*
X013820Y002379D01*
X013907Y002255D02*
X015820Y002255D01*
X015820Y002096D02*
X014066Y002096D01*
X014224Y001938D02*
X014322Y001938D01*
X014778Y001938D02*
X015322Y001938D01*
X015530Y001938D02*
X015570Y001938D01*
X015570Y001779D02*
X015530Y001779D01*
X015530Y001621D02*
X015570Y001621D01*
X015164Y001779D02*
X014936Y001779D01*
X015030Y001621D02*
X015070Y001621D01*
X015070Y001462D02*
X015030Y001462D01*
X015030Y001304D02*
X015070Y001304D01*
X015778Y001938D02*
X015820Y001938D01*
X009406Y003317D02*
X009055Y003317D01*
X007705Y001967D01*
X007351Y001967D01*
X007070Y001685D01*
X007070Y001288D01*
X007141Y001217D01*
X006959Y001217D01*
X007030Y001288D01*
X007030Y001467D01*
X006570Y001467D01*
X006570Y001507D01*
X006530Y001507D01*
X006530Y001967D01*
X006351Y001967D01*
X006070Y001685D01*
X006070Y001507D01*
X006530Y001507D01*
X006530Y001467D01*
X006070Y001467D01*
X006070Y001288D01*
X006141Y001217D01*
X005959Y001217D01*
X006030Y001288D01*
X006030Y001685D01*
X005802Y001913D01*
X006860Y002971D01*
X006860Y002561D01*
X006933Y002385D01*
X007068Y002250D01*
X007245Y002177D01*
X007435Y002177D01*
X007612Y002250D01*
X007747Y002385D01*
X007820Y002561D01*
X007820Y003352D01*
X007747Y003529D01*
X007612Y003664D01*
X007435Y003737D01*
X007425Y003737D01*
X007645Y003957D01*
X008168Y003957D01*
X008156Y003939D01*
X008130Y003875D01*
X008116Y003808D01*
X008116Y003778D01*
X008883Y003778D01*
X008883Y003770D01*
X008891Y003770D01*
X008891Y003427D01*
X009344Y003427D01*
X009406Y003439D01*
X009406Y003317D01*
X009406Y003364D02*
X007815Y003364D01*
X007820Y003206D02*
X008944Y003206D01*
X008785Y003047D02*
X007820Y003047D01*
X007820Y002889D02*
X008627Y002889D01*
X008468Y002730D02*
X007820Y002730D01*
X007820Y002572D02*
X008310Y002572D01*
X008151Y002413D02*
X007759Y002413D01*
X007617Y002255D02*
X007993Y002255D01*
X007834Y002096D02*
X005985Y002096D01*
X006143Y002255D02*
X007063Y002255D01*
X006921Y002413D02*
X006302Y002413D01*
X006460Y002572D02*
X006860Y002572D01*
X006860Y002730D02*
X006619Y002730D01*
X006777Y002889D02*
X006860Y002889D01*
X007749Y003523D02*
X008224Y003523D01*
X008242Y003504D02*
X008194Y003553D01*
X008156Y003610D01*
X008130Y003673D01*
X008116Y003740D01*
X008116Y003770D01*
X008883Y003770D01*
X008883Y003427D01*
X008430Y003427D01*
X008362Y003440D01*
X008299Y003466D01*
X008242Y003504D01*
X008128Y003681D02*
X007569Y003681D01*
X007528Y003840D02*
X008123Y003840D01*
X008883Y003681D02*
X008891Y003681D01*
X008883Y003523D02*
X008891Y003523D01*
X007322Y001938D02*
X006778Y001938D01*
X006749Y001967D02*
X006570Y001967D01*
X006570Y001507D01*
X007030Y001507D01*
X007030Y001685D01*
X006749Y001967D01*
X006570Y001938D02*
X006530Y001938D01*
X006530Y001779D02*
X006570Y001779D01*
X006570Y001621D02*
X006530Y001621D01*
X006164Y001779D02*
X005936Y001779D01*
X005826Y001938D02*
X006322Y001938D01*
X006070Y001621D02*
X006030Y001621D01*
X006030Y001462D02*
X006070Y001462D01*
X006070Y001304D02*
X006030Y001304D01*
X007030Y001304D02*
X007070Y001304D01*
X007070Y001462D02*
X007030Y001462D01*
X007030Y001621D02*
X007070Y001621D01*
X007164Y001779D02*
X006936Y001779D01*
M02*
