G75*
G70*
%OFA0B0*%
%FSLAX24Y24*%
%IPPOS*%
%LPD*%
%AMOC8*
5,1,8,0,0,1.08239X$1,22.5*
%
%ADD10C,0.0600*%
%ADD11OC8,0.0600*%
%ADD12OC8,0.0480*%
%ADD13C,0.0100*%
%ADD14C,0.0270*%
%ADD15C,0.0160*%
D10*
X005560Y002657D02*
X005560Y003257D01*
X007340Y003257D02*
X007340Y002657D01*
X007340Y005217D02*
X007340Y005817D01*
X005560Y005817D02*
X005560Y005217D01*
D11*
X001550Y004987D03*
X001550Y005987D03*
X001550Y009487D03*
X002550Y009487D03*
X003550Y009487D03*
X004550Y009487D03*
X005550Y009487D03*
X006550Y009487D03*
X007550Y009487D03*
X008550Y009487D03*
X009550Y009487D03*
X010550Y009487D03*
X011550Y009487D03*
X012550Y009487D03*
X013550Y009487D03*
X014550Y009487D03*
X015550Y009487D03*
X015550Y001487D03*
X014550Y001487D03*
X013550Y001487D03*
X012550Y001487D03*
X011550Y001487D03*
X010550Y001487D03*
X009550Y001487D03*
X008550Y001487D03*
X007550Y001487D03*
X006550Y001487D03*
X005550Y001487D03*
X004550Y001487D03*
X003550Y001487D03*
X002550Y001487D03*
X001550Y001487D03*
D12*
X006050Y006787D03*
X007050Y006787D03*
X007050Y007987D03*
X006050Y007987D03*
X004550Y007887D03*
X001550Y007887D03*
D13*
X003050Y008987D02*
X002550Y009487D01*
X003050Y008987D02*
X004450Y008987D01*
X005850Y007587D01*
X007650Y007587D01*
X007350Y007387D02*
X005550Y007387D01*
X005850Y007187D02*
X003650Y004987D01*
X003650Y003587D01*
X003350Y003387D02*
X005250Y001487D01*
X005550Y001487D01*
X006550Y001487D02*
X006550Y002987D01*
X005650Y003887D01*
X005650Y005487D01*
X005560Y005517D01*
X005650Y005587D01*
X006050Y005987D01*
X006050Y006787D01*
X005850Y007187D02*
X007250Y007187D01*
X007750Y006687D01*
X007750Y006987D02*
X007350Y007387D01*
X007750Y006987D02*
X009750Y006987D01*
X010450Y007087D02*
X008850Y008687D01*
X006850Y008687D01*
X006550Y008587D02*
X006050Y008087D01*
X006050Y007987D01*
X006550Y008087D02*
X006850Y008387D01*
X007250Y008387D01*
X007650Y007987D01*
X006550Y008587D02*
X006550Y009487D01*
X007550Y009487D02*
X007850Y009487D01*
X008450Y008887D01*
X010850Y008887D01*
X011350Y008387D01*
X013450Y008387D01*
X014550Y009487D01*
X015550Y009487D02*
X013150Y007087D01*
X011450Y007087D01*
X011350Y008687D02*
X010550Y009487D01*
X011350Y008687D02*
X012850Y008687D01*
X008950Y005487D02*
X012450Y001987D01*
X014050Y001987D01*
X014550Y001487D01*
X008950Y005487D02*
X007350Y005487D01*
X007340Y005517D01*
X008050Y005787D02*
X007550Y006287D01*
X007150Y006287D01*
X006150Y005287D01*
X004550Y006187D02*
X003350Y004987D01*
X003350Y003387D01*
X004550Y006187D02*
X004550Y007887D01*
X003750Y007287D02*
X001550Y009487D01*
D14*
X003750Y007287D03*
X002950Y006987D03*
X002450Y006987D03*
X001950Y006987D03*
X002450Y006487D03*
X002950Y006487D03*
X003450Y006487D03*
X003450Y005987D03*
X002950Y005987D03*
X002950Y005487D03*
X002950Y004987D03*
X002950Y004487D03*
X002450Y004487D03*
X002450Y003987D03*
X001950Y003987D03*
X001450Y003987D03*
X001450Y003487D03*
X001450Y002987D03*
X001450Y002487D03*
X003650Y003587D03*
X004450Y003987D03*
X004450Y004487D03*
X003950Y004487D03*
X004450Y004987D03*
X004950Y004987D03*
X004950Y005487D03*
X006150Y005287D03*
X004950Y004487D03*
X006550Y002487D03*
X007950Y002487D03*
X007950Y002987D03*
X008450Y002987D03*
X007950Y003487D03*
X010450Y004487D03*
X010950Y004487D03*
X011450Y004487D03*
X011950Y004487D03*
X012450Y004487D03*
X012950Y004487D03*
X013450Y004487D03*
X013450Y003987D03*
X012950Y003987D03*
X012450Y003987D03*
X011950Y003987D03*
X011450Y003987D03*
X010950Y003987D03*
X010950Y004987D03*
X011450Y005487D03*
X010450Y005987D03*
X009950Y005987D03*
X009950Y005487D03*
X010450Y006487D03*
X010950Y006487D03*
X010450Y007087D03*
X009750Y006987D03*
X011450Y007087D03*
X012850Y008687D03*
X014850Y006887D03*
X014550Y006487D03*
X013950Y006487D03*
X014250Y005987D03*
X013950Y005587D03*
X014550Y005587D03*
X014850Y005987D03*
X015150Y005587D03*
X015750Y005587D03*
X015450Y005987D03*
X015150Y006487D03*
X015450Y006887D03*
X015750Y006487D03*
X014950Y001987D03*
X008050Y005787D03*
X007750Y006687D03*
X007650Y007587D03*
X007650Y007987D03*
X008550Y008287D03*
X006850Y008687D03*
X006550Y008087D03*
X005550Y007387D03*
D15*
X002030Y001288D02*
X001959Y001217D01*
X002141Y001217D01*
X002070Y001288D01*
X002070Y001685D01*
X002351Y001967D01*
X002749Y001967D01*
X003030Y001685D01*
X003030Y001288D01*
X002959Y001217D01*
X003141Y001217D01*
X003070Y001288D01*
X003070Y001685D01*
X003351Y001967D01*
X003749Y001967D01*
X004030Y001685D01*
X004030Y001288D01*
X003959Y001217D01*
X004141Y001217D01*
X004070Y001288D01*
X004070Y001685D01*
X004351Y001967D01*
X004445Y001967D01*
X003120Y003291D01*
X003120Y005082D01*
X003255Y005217D01*
X004320Y006282D01*
X004320Y007523D01*
X004130Y007713D01*
X004130Y008061D01*
X004376Y008307D01*
X004724Y008307D01*
X004970Y008061D01*
X004970Y007713D01*
X004780Y007523D01*
X004780Y006442D01*
X005432Y007094D01*
X005372Y007120D01*
X005283Y007208D01*
X005235Y007324D01*
X005235Y007449D01*
X005283Y007565D01*
X005372Y007654D01*
X005432Y007679D01*
X004355Y008757D01*
X002955Y008757D01*
X002705Y009007D01*
X002355Y009007D01*
X003760Y007602D01*
X003813Y007602D01*
X003928Y007554D01*
X004017Y007465D01*
X004065Y007349D01*
X004065Y007224D01*
X004017Y007108D01*
X003928Y007020D01*
X003813Y006972D01*
X003687Y006972D01*
X003572Y007020D01*
X003483Y007108D01*
X003435Y007224D01*
X003435Y007276D01*
X001705Y009007D01*
X001351Y009007D01*
X001280Y009078D01*
X001280Y008211D01*
X001376Y008307D01*
X001724Y008307D01*
X001970Y008061D01*
X001970Y007713D01*
X001724Y007467D01*
X001376Y007467D01*
X001280Y007563D01*
X001280Y006395D01*
X001351Y006467D01*
X001749Y006467D01*
X002030Y006185D01*
X002030Y005788D01*
X001749Y005507D01*
X001351Y005507D01*
X001280Y005578D01*
X001280Y005395D01*
X001351Y005467D01*
X001530Y005467D01*
X001530Y005007D01*
X001570Y005007D01*
X001570Y005467D01*
X001749Y005467D01*
X002030Y005185D01*
X002030Y005007D01*
X001570Y005007D01*
X001570Y004967D01*
X002030Y004967D01*
X002030Y004788D01*
X001749Y004507D01*
X001570Y004507D01*
X001570Y004967D01*
X001530Y004967D01*
X001530Y004507D01*
X001351Y004507D01*
X001280Y004578D01*
X001280Y001895D01*
X001351Y001967D01*
X001749Y001967D01*
X002030Y001685D01*
X002030Y001288D01*
X002030Y001304D02*
X002070Y001304D01*
X002070Y001462D02*
X002030Y001462D01*
X002030Y001621D02*
X002070Y001621D01*
X002164Y001779D02*
X001936Y001779D01*
X001778Y001938D02*
X002322Y001938D01*
X002778Y001938D02*
X003322Y001938D01*
X003164Y001779D02*
X002936Y001779D01*
X003030Y001621D02*
X003070Y001621D01*
X003070Y001462D02*
X003030Y001462D01*
X003030Y001304D02*
X003070Y001304D01*
X003936Y001779D02*
X004164Y001779D01*
X004322Y001938D02*
X003778Y001938D01*
X004030Y001621D02*
X004070Y001621D01*
X004070Y001462D02*
X004030Y001462D01*
X004030Y001304D02*
X004070Y001304D01*
X005124Y001938D02*
X005322Y001938D01*
X005351Y001967D02*
X005223Y001839D01*
X003768Y003294D01*
X003828Y003320D01*
X003917Y003408D01*
X003965Y003524D01*
X003965Y003649D01*
X003917Y003765D01*
X003880Y003802D01*
X003880Y004891D01*
X005630Y006641D01*
X005630Y006613D01*
X005876Y006367D01*
X006050Y006367D01*
X006224Y006367D01*
X006470Y006613D01*
X006470Y006787D01*
X006470Y006957D01*
X006630Y006957D01*
X006630Y006613D01*
X006876Y006367D01*
X006905Y006367D01*
X006140Y005602D01*
X006087Y005602D01*
X006040Y005582D01*
X006040Y005854D01*
X006028Y005929D01*
X006005Y006001D01*
X005971Y006068D01*
X005926Y006129D01*
X005873Y006183D01*
X005812Y006227D01*
X005744Y006261D01*
X005672Y006285D01*
X005598Y006297D01*
X005580Y006297D01*
X005580Y005537D01*
X005540Y005537D01*
X005540Y006297D01*
X005522Y006297D01*
X005448Y006285D01*
X005376Y006261D01*
X005308Y006227D01*
X005247Y006183D01*
X005194Y006129D01*
X005149Y006068D01*
X005115Y006001D01*
X005092Y005929D01*
X005080Y005854D01*
X005080Y005537D01*
X005540Y005537D01*
X005540Y005497D01*
X005080Y005497D01*
X005080Y005179D01*
X005092Y005104D01*
X005115Y005032D01*
X005149Y004965D01*
X005194Y004904D01*
X005247Y004851D01*
X005308Y004806D01*
X005376Y004772D01*
X005448Y004748D01*
X005522Y004737D01*
X005540Y004737D01*
X005540Y005497D01*
X005580Y005497D01*
X005580Y004737D01*
X005598Y004737D01*
X005672Y004748D01*
X005744Y004772D01*
X005812Y004806D01*
X005873Y004851D01*
X005926Y004904D01*
X005971Y004965D01*
X005994Y005010D01*
X006087Y004972D01*
X006213Y004972D01*
X006328Y005020D01*
X006417Y005108D01*
X006465Y005224D01*
X006465Y005276D01*
X006860Y005671D01*
X006860Y005121D01*
X006933Y004945D01*
X007068Y004810D01*
X007245Y004737D01*
X007435Y004737D01*
X007612Y004810D01*
X007747Y004945D01*
X007820Y005121D01*
X007820Y005257D01*
X008855Y005257D01*
X012248Y001863D01*
X012070Y001685D01*
X012070Y001288D01*
X012141Y001217D01*
X011959Y001217D01*
X012030Y001288D01*
X012030Y001685D01*
X011749Y001967D01*
X011351Y001967D01*
X011070Y001685D01*
X011070Y001288D01*
X011141Y001217D01*
X010959Y001217D01*
X011030Y001288D01*
X011030Y001685D01*
X010749Y001967D01*
X010351Y001967D01*
X010070Y001685D01*
X010070Y001288D01*
X010141Y001217D01*
X009959Y001217D01*
X010030Y001288D01*
X010030Y001685D01*
X009749Y001967D01*
X009351Y001967D01*
X009070Y001685D01*
X009070Y001288D01*
X009141Y001217D01*
X008959Y001217D01*
X009030Y001288D01*
X009030Y001685D01*
X008749Y001967D01*
X008351Y001967D01*
X008070Y001685D01*
X008070Y001288D01*
X008141Y001217D01*
X007959Y001217D01*
X008030Y001288D01*
X008030Y001685D01*
X007749Y001967D01*
X007351Y001967D01*
X007070Y001685D01*
X007070Y001288D01*
X007141Y001217D01*
X006959Y001217D01*
X007030Y001288D01*
X007030Y001467D01*
X006570Y001467D01*
X006570Y001507D01*
X006530Y001507D01*
X006530Y001967D01*
X006351Y001967D01*
X006070Y001685D01*
X006070Y001507D01*
X006530Y001507D01*
X006530Y001467D01*
X006070Y001467D01*
X006070Y001288D01*
X006141Y001217D01*
X005959Y001217D01*
X006030Y001288D01*
X006030Y001685D01*
X005749Y001967D01*
X005351Y001967D01*
X005465Y002177D02*
X005655Y002177D01*
X005832Y002250D01*
X005967Y002385D01*
X006040Y002561D01*
X006040Y003352D01*
X005967Y003529D01*
X005832Y003664D01*
X005655Y003737D01*
X005465Y003737D01*
X005288Y003664D01*
X005153Y003529D01*
X005080Y003352D01*
X005080Y002561D01*
X005153Y002385D01*
X005288Y002250D01*
X005465Y002177D01*
X005283Y002255D02*
X004807Y002255D01*
X004649Y002413D02*
X005141Y002413D01*
X005080Y002572D02*
X004490Y002572D01*
X004332Y002730D02*
X005080Y002730D01*
X005080Y002889D02*
X004173Y002889D01*
X004015Y003047D02*
X005080Y003047D01*
X005080Y003206D02*
X003856Y003206D01*
X003873Y003364D02*
X005085Y003364D01*
X005151Y003523D02*
X003964Y003523D01*
X003952Y003681D02*
X005331Y003681D01*
X005789Y003681D02*
X007111Y003681D01*
X007068Y003664D02*
X006933Y003529D01*
X006860Y003352D01*
X006860Y002561D01*
X006933Y002385D01*
X007068Y002250D01*
X007245Y002177D01*
X007435Y002177D01*
X007612Y002250D01*
X007747Y002385D01*
X007820Y002561D01*
X007820Y003352D01*
X007747Y003529D01*
X007612Y003664D01*
X007435Y003737D01*
X007245Y003737D01*
X007068Y003664D01*
X006931Y003523D02*
X005969Y003523D01*
X006035Y003364D02*
X006865Y003364D01*
X006860Y003206D02*
X006040Y003206D01*
X006040Y003047D02*
X006860Y003047D01*
X006860Y002889D02*
X006040Y002889D01*
X006040Y002730D02*
X006860Y002730D01*
X006860Y002572D02*
X006040Y002572D01*
X005979Y002413D02*
X006921Y002413D01*
X007063Y002255D02*
X005837Y002255D01*
X005778Y001938D02*
X006322Y001938D01*
X006530Y001938D02*
X006570Y001938D01*
X006570Y001967D02*
X006570Y001507D01*
X007030Y001507D01*
X007030Y001685D01*
X006749Y001967D01*
X006570Y001967D01*
X006570Y001779D02*
X006530Y001779D01*
X006530Y001621D02*
X006570Y001621D01*
X006936Y001779D02*
X007164Y001779D01*
X007322Y001938D02*
X006778Y001938D01*
X007030Y001621D02*
X007070Y001621D01*
X007070Y001462D02*
X007030Y001462D01*
X007030Y001304D02*
X007070Y001304D01*
X008030Y001304D02*
X008070Y001304D01*
X008070Y001462D02*
X008030Y001462D01*
X008030Y001621D02*
X008070Y001621D01*
X008164Y001779D02*
X007936Y001779D01*
X007778Y001938D02*
X008322Y001938D01*
X008778Y001938D02*
X009322Y001938D01*
X009164Y001779D02*
X008936Y001779D01*
X009030Y001621D02*
X009070Y001621D01*
X009070Y001462D02*
X009030Y001462D01*
X009030Y001304D02*
X009070Y001304D01*
X010030Y001304D02*
X010070Y001304D01*
X010070Y001462D02*
X010030Y001462D01*
X010030Y001621D02*
X010070Y001621D01*
X010164Y001779D02*
X009936Y001779D01*
X009778Y001938D02*
X010322Y001938D01*
X010778Y001938D02*
X011322Y001938D01*
X011164Y001779D02*
X010936Y001779D01*
X011030Y001621D02*
X011070Y001621D01*
X011070Y001462D02*
X011030Y001462D01*
X011030Y001304D02*
X011070Y001304D01*
X011778Y001938D02*
X012174Y001938D01*
X012164Y001779D02*
X011936Y001779D01*
X012030Y001621D02*
X012070Y001621D01*
X012070Y001462D02*
X012030Y001462D01*
X012030Y001304D02*
X012070Y001304D01*
X012015Y002096D02*
X004966Y002096D01*
X004315Y002096D02*
X001280Y002096D01*
X001280Y002255D02*
X004157Y002255D01*
X003998Y002413D02*
X001280Y002413D01*
X001280Y002572D02*
X003840Y002572D01*
X003681Y002730D02*
X001280Y002730D01*
X001280Y002889D02*
X003523Y002889D01*
X003364Y003047D02*
X001280Y003047D01*
X001280Y003206D02*
X003206Y003206D01*
X003120Y003364D02*
X001280Y003364D01*
X001280Y003523D02*
X003120Y003523D01*
X003120Y003681D02*
X001280Y003681D01*
X001280Y003840D02*
X003120Y003840D01*
X003120Y003998D02*
X001280Y003998D01*
X001280Y004157D02*
X003120Y004157D01*
X003120Y004315D02*
X001280Y004315D01*
X001280Y004474D02*
X003120Y004474D01*
X003120Y004632D02*
X001874Y004632D01*
X002030Y004791D02*
X003120Y004791D01*
X003120Y004949D02*
X002030Y004949D01*
X002030Y005108D02*
X003146Y005108D01*
X003304Y005266D02*
X001949Y005266D01*
X001791Y005425D02*
X003463Y005425D01*
X003621Y005583D02*
X001825Y005583D01*
X001570Y005425D02*
X001530Y005425D01*
X001530Y005266D02*
X001570Y005266D01*
X001570Y005108D02*
X001530Y005108D01*
X001530Y004949D02*
X001570Y004949D01*
X001570Y004791D02*
X001530Y004791D01*
X001530Y004632D02*
X001570Y004632D01*
X001309Y005425D02*
X001280Y005425D01*
X001984Y005742D02*
X003780Y005742D01*
X003938Y005900D02*
X002030Y005900D01*
X002030Y006059D02*
X004097Y006059D01*
X004255Y006217D02*
X001998Y006217D01*
X001840Y006376D02*
X004320Y006376D01*
X004320Y006534D02*
X001280Y006534D01*
X001280Y006693D02*
X004320Y006693D01*
X004320Y006851D02*
X001280Y006851D01*
X001280Y007010D02*
X003596Y007010D01*
X003458Y007168D02*
X001280Y007168D01*
X001280Y007327D02*
X003385Y007327D01*
X003226Y007485D02*
X001742Y007485D01*
X001901Y007644D02*
X003068Y007644D01*
X002909Y007802D02*
X001970Y007802D01*
X001970Y007961D02*
X002751Y007961D01*
X002592Y008119D02*
X001911Y008119D01*
X001753Y008278D02*
X002434Y008278D01*
X002275Y008436D02*
X001280Y008436D01*
X001280Y008278D02*
X001347Y008278D01*
X001280Y008595D02*
X002117Y008595D01*
X001958Y008753D02*
X001280Y008753D01*
X001280Y008912D02*
X001800Y008912D01*
X001288Y009070D02*
X001280Y009070D01*
X002450Y008912D02*
X002800Y008912D01*
X002609Y008753D02*
X004358Y008753D01*
X004517Y008595D02*
X002767Y008595D01*
X002926Y008436D02*
X004675Y008436D01*
X004753Y008278D02*
X004834Y008278D01*
X004911Y008119D02*
X004992Y008119D01*
X004970Y007961D02*
X005151Y007961D01*
X005309Y007802D02*
X004970Y007802D01*
X004901Y007644D02*
X005362Y007644D01*
X005250Y007485D02*
X004780Y007485D01*
X004780Y007327D02*
X005235Y007327D01*
X005323Y007168D02*
X004780Y007168D01*
X004780Y007010D02*
X005348Y007010D01*
X005189Y006851D02*
X004780Y006851D01*
X004780Y006693D02*
X005031Y006693D01*
X004872Y006534D02*
X004780Y006534D01*
X005206Y006217D02*
X005295Y006217D01*
X005145Y006059D02*
X005047Y006059D01*
X005087Y005900D02*
X004889Y005900D01*
X004730Y005742D02*
X005080Y005742D01*
X005080Y005583D02*
X004572Y005583D01*
X004413Y005425D02*
X005080Y005425D01*
X005080Y005266D02*
X004255Y005266D01*
X004096Y005108D02*
X005091Y005108D01*
X005161Y004949D02*
X003938Y004949D01*
X003880Y004791D02*
X005339Y004791D01*
X005540Y004791D02*
X005580Y004791D01*
X005781Y004791D02*
X007114Y004791D01*
X006931Y004949D02*
X005959Y004949D01*
X005580Y004949D02*
X005540Y004949D01*
X005540Y005108D02*
X005580Y005108D01*
X005580Y005266D02*
X005540Y005266D01*
X005540Y005425D02*
X005580Y005425D01*
X005580Y005583D02*
X005540Y005583D01*
X005540Y005742D02*
X005580Y005742D01*
X005580Y005900D02*
X005540Y005900D01*
X005540Y006059D02*
X005580Y006059D01*
X005580Y006217D02*
X005540Y006217D01*
X005825Y006217D02*
X006755Y006217D01*
X006597Y006059D02*
X005975Y006059D01*
X006033Y005900D02*
X006438Y005900D01*
X006280Y005742D02*
X006040Y005742D01*
X006040Y005583D02*
X006043Y005583D01*
X006465Y005266D02*
X006860Y005266D01*
X006866Y005108D02*
X006416Y005108D01*
X006613Y005425D02*
X006860Y005425D01*
X006860Y005583D02*
X006772Y005583D01*
X007814Y005108D02*
X009004Y005108D01*
X009162Y004949D02*
X007749Y004949D01*
X007566Y004791D02*
X009321Y004791D01*
X009479Y004632D02*
X003880Y004632D01*
X003880Y004474D02*
X009638Y004474D01*
X009796Y004315D02*
X003880Y004315D01*
X003880Y004157D02*
X009955Y004157D01*
X010113Y003998D02*
X003880Y003998D01*
X003880Y003840D02*
X010272Y003840D01*
X010430Y003681D02*
X007569Y003681D01*
X007749Y003523D02*
X010589Y003523D01*
X010747Y003364D02*
X007815Y003364D01*
X007820Y003206D02*
X010906Y003206D01*
X011064Y003047D02*
X007820Y003047D01*
X007820Y002889D02*
X011223Y002889D01*
X011381Y002730D02*
X007820Y002730D01*
X007820Y002572D02*
X011540Y002572D01*
X011698Y002413D02*
X007759Y002413D01*
X007617Y002255D02*
X011857Y002255D01*
X012190Y002572D02*
X013820Y002572D01*
X013820Y002730D02*
X012032Y002730D01*
X011873Y002889D02*
X013820Y002889D01*
X013820Y003047D02*
X011715Y003047D01*
X011556Y003206D02*
X013820Y003206D01*
X013820Y003364D02*
X011398Y003364D01*
X011239Y003523D02*
X013820Y003523D01*
X013820Y003681D02*
X011081Y003681D01*
X010922Y003840D02*
X013820Y003840D01*
X013820Y003998D02*
X010764Y003998D01*
X010605Y004157D02*
X013820Y004157D01*
X013820Y004315D02*
X010447Y004315D01*
X010288Y004474D02*
X013820Y004474D01*
X013820Y004632D02*
X010130Y004632D01*
X009971Y004791D02*
X013820Y004791D01*
X013820Y004949D02*
X009813Y004949D01*
X009654Y005108D02*
X013820Y005108D01*
X013820Y005266D02*
X009496Y005266D01*
X009337Y005425D02*
X013820Y005425D01*
X013820Y005470D02*
X013820Y002354D01*
X013867Y002307D01*
X015820Y002307D01*
X015820Y001895D01*
X015749Y001967D01*
X015570Y001967D01*
X015570Y001507D01*
X015530Y001507D01*
X015530Y001967D01*
X015351Y001967D01*
X015070Y001685D01*
X015070Y001507D01*
X015530Y001507D01*
X015530Y001467D01*
X015070Y001467D01*
X015070Y001288D01*
X015141Y001217D01*
X014959Y001217D01*
X015030Y001288D01*
X015030Y001685D01*
X014749Y001967D01*
X014395Y001967D01*
X014145Y002217D01*
X012545Y002217D01*
X009045Y005717D01*
X008362Y005717D01*
X008365Y005724D01*
X008365Y005849D01*
X008317Y005965D01*
X008228Y006054D01*
X008113Y006102D01*
X008060Y006102D01*
X007790Y006372D01*
X007813Y006372D01*
X007928Y006420D01*
X008017Y006508D01*
X008065Y006624D01*
X008065Y006749D01*
X008062Y006757D01*
X009535Y006757D01*
X009572Y006720D01*
X009687Y006672D01*
X009813Y006672D01*
X009928Y006720D01*
X010017Y006808D01*
X010065Y006924D01*
X010065Y007049D01*
X010017Y007165D01*
X009928Y007254D01*
X009813Y007302D01*
X009687Y007302D01*
X009572Y007254D01*
X009535Y007217D01*
X007845Y007217D01*
X007768Y007294D01*
X007828Y007320D01*
X007917Y007408D01*
X007965Y007524D01*
X007965Y007649D01*
X007917Y007765D01*
X007895Y007787D01*
X007917Y007808D01*
X007965Y007924D01*
X007965Y008049D01*
X007917Y008165D01*
X007828Y008254D01*
X007713Y008302D01*
X007660Y008302D01*
X007505Y008457D01*
X008279Y008457D01*
X008235Y008349D01*
X008235Y008224D01*
X008283Y008108D01*
X008372Y008020D01*
X008487Y007972D01*
X008613Y007972D01*
X008728Y008020D01*
X008817Y008108D01*
X008865Y008224D01*
X008865Y008346D01*
X010135Y007076D01*
X010135Y007024D01*
X010183Y006908D01*
X010272Y006820D01*
X010387Y006772D01*
X010513Y006772D01*
X010628Y006820D01*
X010717Y006908D01*
X010765Y007024D01*
X010765Y007149D01*
X010717Y007265D01*
X010628Y007354D01*
X010513Y007402D01*
X010460Y007402D01*
X009205Y008657D01*
X010755Y008657D01*
X011120Y008291D01*
X011255Y008157D01*
X013545Y008157D01*
X014395Y009007D01*
X014749Y009007D01*
X015030Y009288D01*
X015030Y009685D01*
X014963Y009753D01*
X015137Y009753D01*
X015070Y009685D01*
X015070Y009507D01*
X015530Y009507D01*
X015530Y009467D01*
X015070Y009467D01*
X015070Y009288D01*
X015351Y009007D01*
X015530Y009007D01*
X015530Y009467D01*
X015570Y009467D01*
X015570Y009007D01*
X015749Y009007D01*
X015820Y009078D01*
X015820Y005517D01*
X013867Y005517D01*
X013820Y005470D01*
X015820Y005583D02*
X009179Y005583D01*
X008365Y005742D02*
X015820Y005742D01*
X015820Y005900D02*
X008344Y005900D01*
X008216Y006059D02*
X015820Y006059D01*
X015820Y006217D02*
X007945Y006217D01*
X007822Y006376D02*
X015820Y006376D01*
X015820Y006534D02*
X008028Y006534D01*
X008065Y006693D02*
X009637Y006693D01*
X009863Y006693D02*
X015820Y006693D01*
X015820Y006851D02*
X010660Y006851D01*
X010759Y007010D02*
X015820Y007010D01*
X015820Y007168D02*
X010757Y007168D01*
X010655Y007327D02*
X015820Y007327D01*
X015820Y007485D02*
X010377Y007485D01*
X010218Y007644D02*
X015820Y007644D01*
X015820Y007802D02*
X010060Y007802D01*
X009901Y007961D02*
X015820Y007961D01*
X015820Y008119D02*
X009743Y008119D01*
X009584Y008278D02*
X011134Y008278D01*
X010975Y008436D02*
X009426Y008436D01*
X009267Y008595D02*
X010817Y008595D01*
X009409Y007802D02*
X007911Y007802D01*
X007965Y007961D02*
X009251Y007961D01*
X009092Y008119D02*
X008822Y008119D01*
X008865Y008278D02*
X008934Y008278D01*
X008278Y008119D02*
X007936Y008119D01*
X007771Y008278D02*
X008235Y008278D01*
X008271Y008436D02*
X007526Y008436D01*
X007065Y008917D02*
X007028Y008954D01*
X006913Y009002D01*
X006787Y009002D01*
X006672Y008954D01*
X006583Y008865D01*
X006535Y008749D01*
X006535Y008624D01*
X006583Y008508D01*
X006615Y008477D01*
X006540Y008402D01*
X006487Y008402D01*
X006372Y008354D01*
X006324Y008306D01*
X006224Y008407D01*
X006050Y008407D01*
X005876Y008407D01*
X005630Y008161D01*
X005630Y008132D01*
X004752Y009010D01*
X005030Y009288D01*
X005030Y009685D01*
X004963Y009753D01*
X005137Y009753D01*
X005070Y009685D01*
X005070Y009288D01*
X005351Y009007D01*
X005749Y009007D01*
X006030Y009288D01*
X006030Y009685D01*
X005963Y009753D01*
X006137Y009753D01*
X006070Y009685D01*
X006070Y009507D01*
X006530Y009507D01*
X006530Y009467D01*
X006070Y009467D01*
X006070Y009288D01*
X006351Y009007D01*
X006530Y009007D01*
X006530Y009467D01*
X006570Y009467D01*
X006570Y009507D01*
X007030Y009507D01*
X007030Y009685D01*
X006963Y009753D01*
X007137Y009753D01*
X007070Y009685D01*
X007070Y009288D01*
X007351Y009007D01*
X007749Y009007D01*
X007877Y009135D01*
X008095Y008917D01*
X007065Y008917D01*
X007288Y009070D02*
X006812Y009070D01*
X006749Y009007D02*
X007030Y009288D01*
X007030Y009467D01*
X006570Y009467D01*
X006570Y009007D01*
X006749Y009007D01*
X006630Y008912D02*
X004850Y008912D01*
X004812Y009070D02*
X005288Y009070D01*
X005129Y009229D02*
X004971Y009229D01*
X005030Y009387D02*
X005070Y009387D01*
X005070Y009546D02*
X005030Y009546D01*
X005011Y009704D02*
X005089Y009704D01*
X006011Y009704D02*
X006089Y009704D01*
X006070Y009546D02*
X006030Y009546D01*
X006030Y009387D02*
X006070Y009387D01*
X006129Y009229D02*
X005971Y009229D01*
X005812Y009070D02*
X006288Y009070D01*
X006530Y009070D02*
X006570Y009070D01*
X006570Y009229D02*
X006530Y009229D01*
X006530Y009387D02*
X006570Y009387D01*
X006971Y009229D02*
X007129Y009229D01*
X007070Y009387D02*
X007030Y009387D01*
X007030Y009546D02*
X007070Y009546D01*
X007089Y009704D02*
X007011Y009704D01*
X007812Y009070D02*
X007941Y009070D01*
X006547Y008595D02*
X005167Y008595D01*
X005009Y008753D02*
X006537Y008753D01*
X006574Y008436D02*
X005326Y008436D01*
X005484Y008278D02*
X005747Y008278D01*
X006050Y008278D02*
X006050Y008278D01*
X006050Y008407D02*
X006050Y007987D01*
X006050Y008407D01*
X006050Y008119D02*
X006050Y008119D01*
X006050Y007987D02*
X006050Y007987D01*
X006470Y006851D02*
X006630Y006851D01*
X006470Y006787D02*
X006050Y006787D01*
X006050Y006787D01*
X006470Y006787D01*
X006470Y006693D02*
X006630Y006693D01*
X006709Y006534D02*
X006391Y006534D01*
X006233Y006376D02*
X006867Y006376D01*
X006050Y006376D02*
X006050Y006376D01*
X006050Y006367D02*
X006050Y006787D01*
X006050Y006787D01*
X006050Y006367D01*
X006050Y006534D02*
X006050Y006534D01*
X006050Y006693D02*
X006050Y006693D01*
X005867Y006376D02*
X005364Y006376D01*
X005523Y006534D02*
X005709Y006534D01*
X004320Y007010D02*
X003904Y007010D01*
X004042Y007168D02*
X004320Y007168D01*
X004320Y007327D02*
X004065Y007327D01*
X003997Y007485D02*
X004320Y007485D01*
X004199Y007644D02*
X003718Y007644D01*
X003560Y007802D02*
X004130Y007802D01*
X004130Y007961D02*
X003401Y007961D01*
X003243Y008119D02*
X004189Y008119D01*
X004347Y008278D02*
X003084Y008278D01*
X001358Y007485D02*
X001280Y007485D01*
X007835Y007327D02*
X009885Y007327D01*
X010014Y007168D02*
X010043Y007168D01*
X010065Y007010D02*
X010141Y007010D01*
X010240Y006851D02*
X010035Y006851D01*
X009726Y007485D02*
X007949Y007485D01*
X007965Y007644D02*
X009568Y007644D01*
X013666Y008278D02*
X015820Y008278D01*
X015820Y008436D02*
X013825Y008436D01*
X013983Y008595D02*
X015820Y008595D01*
X015820Y008753D02*
X014142Y008753D01*
X014300Y008912D02*
X015820Y008912D01*
X015812Y009070D02*
X015820Y009070D01*
X015570Y009070D02*
X015530Y009070D01*
X015288Y009070D02*
X014812Y009070D01*
X014971Y009229D02*
X015129Y009229D01*
X015070Y009387D02*
X015030Y009387D01*
X015030Y009546D02*
X015070Y009546D01*
X015089Y009704D02*
X015011Y009704D01*
X015530Y009387D02*
X015570Y009387D01*
X015570Y009229D02*
X015530Y009229D01*
X013820Y002413D02*
X012349Y002413D01*
X012507Y002255D02*
X015820Y002255D01*
X015820Y002096D02*
X014266Y002096D01*
X014778Y001938D02*
X015322Y001938D01*
X015530Y001938D02*
X015570Y001938D01*
X015570Y001779D02*
X015530Y001779D01*
X015530Y001621D02*
X015570Y001621D01*
X015164Y001779D02*
X014936Y001779D01*
X015030Y001621D02*
X015070Y001621D01*
X015070Y001462D02*
X015030Y001462D01*
X015030Y001304D02*
X015070Y001304D01*
X015778Y001938D02*
X015820Y001938D01*
X006164Y001779D02*
X005936Y001779D01*
X006030Y001621D02*
X006070Y001621D01*
X006070Y001462D02*
X006030Y001462D01*
X006030Y001304D02*
X006070Y001304D01*
X001322Y001938D02*
X001280Y001938D01*
M02*
