G75*
G70*
%OFA0B0*%
%FSLAX24Y24*%
%IPPOS*%
%LPD*%
%AMOC8*
5,1,8,0,0,1.08239X$1,22.5*
%
%ADD10C,0.0000*%
%ADD11C,0.0160*%
%ADD12C,0.0030*%
%ADD13C,0.0040*%
%ADD14C,0.0060*%
%ADD15C,0.0020*%
%ADD16C,0.0050*%
%ADD17R,0.0200X0.0200*%
%ADD18C,0.0100*%
%ADD19C,0.0200*%
%ADD20R,0.0150X0.0200*%
D10*
X001050Y000987D02*
X001050Y009983D01*
X016050Y009983D01*
X016050Y000987D01*
X001050Y000987D01*
D11*
X001050Y004487D02*
X002050Y004487D01*
X002050Y006487D01*
X001050Y006487D01*
X001050Y004487D01*
D12*
X002290Y004902D02*
X002290Y005095D01*
X002545Y005145D02*
X002593Y005096D01*
X002787Y005096D01*
X002835Y005145D01*
X002835Y005241D01*
X002787Y005290D01*
X002593Y005290D01*
X002545Y005241D01*
X002545Y005145D01*
X002593Y004995D02*
X002690Y004995D01*
X002738Y004947D01*
X002738Y004802D01*
X002835Y004802D02*
X002545Y004802D01*
X002545Y004947D01*
X002593Y004995D01*
X002545Y005391D02*
X002835Y005391D01*
X002738Y005488D01*
X002835Y005584D01*
X002545Y005584D01*
X002545Y005686D02*
X002835Y005686D01*
X002835Y005879D01*
X002835Y005980D02*
X002545Y005980D01*
X002545Y006125D01*
X002593Y006174D01*
X002690Y006174D01*
X002738Y006125D01*
X002738Y005980D01*
X002738Y006077D02*
X002835Y006174D01*
X002387Y005998D02*
X002193Y005998D01*
X002290Y005902D02*
X002290Y006095D01*
X002545Y005879D02*
X002545Y005686D01*
X002690Y005686D02*
X002690Y005782D01*
X003443Y005395D02*
X003637Y005395D01*
X003685Y005443D01*
X003492Y005443D02*
X003492Y005346D01*
X003540Y005245D02*
X003492Y005197D01*
X003492Y005100D01*
X003540Y005052D01*
X003637Y005052D01*
X003685Y005100D01*
X003685Y005197D01*
X003588Y005245D02*
X003588Y005052D01*
X003540Y004951D02*
X003685Y004951D01*
X003540Y004951D02*
X003492Y004902D01*
X003492Y004757D01*
X003685Y004757D01*
X003685Y004658D02*
X003685Y004610D01*
X003637Y004610D01*
X003637Y004658D01*
X003685Y004658D01*
X003733Y004510D02*
X003492Y004510D01*
X003395Y004510D02*
X003346Y004510D01*
X003540Y004312D02*
X003588Y004312D01*
X003588Y004119D01*
X003540Y004119D02*
X003492Y004167D01*
X003492Y004264D01*
X003540Y004312D01*
X003685Y004264D02*
X003685Y004167D01*
X003637Y004119D01*
X003540Y004119D01*
X003540Y004019D02*
X003540Y003922D01*
X003443Y003971D02*
X003395Y004019D01*
X003443Y003971D02*
X003685Y003971D01*
X003915Y003898D02*
X004285Y003898D01*
X004285Y003775D02*
X004285Y004022D01*
X004285Y004143D02*
X004038Y004390D01*
X003976Y004390D01*
X003915Y004328D01*
X003915Y004205D01*
X003976Y004143D01*
X003915Y003898D02*
X004038Y003775D01*
X004285Y003653D02*
X004285Y003407D01*
X004285Y003530D02*
X003915Y003530D01*
X004038Y003407D01*
X003915Y003285D02*
X003915Y003038D01*
X004285Y003038D01*
X004285Y003285D01*
X004100Y003162D02*
X004100Y003038D01*
X004285Y002917D02*
X004285Y002670D01*
X003915Y002670D01*
X003976Y002549D02*
X004038Y002549D01*
X004100Y002487D01*
X004100Y002302D01*
X004285Y002302D02*
X003915Y002302D01*
X003915Y002487D01*
X003976Y002549D01*
X004100Y002487D02*
X004162Y002549D01*
X004223Y002549D01*
X004285Y002487D01*
X004285Y002302D01*
X003685Y002302D02*
X003685Y002447D01*
X003637Y002495D01*
X003588Y002447D01*
X003588Y002350D01*
X003540Y002302D01*
X003492Y002350D01*
X003492Y002495D01*
X003540Y002596D02*
X003492Y002645D01*
X003492Y002741D01*
X003540Y002790D01*
X003588Y002790D01*
X003588Y002596D01*
X003540Y002596D02*
X003637Y002596D01*
X003685Y002645D01*
X003685Y002741D01*
X003637Y002891D02*
X003685Y002939D01*
X003685Y003084D01*
X003637Y003234D02*
X003443Y003234D01*
X003492Y003186D02*
X003492Y003282D01*
X003540Y003382D02*
X003637Y003382D01*
X003685Y003430D01*
X003685Y003527D01*
X003637Y003576D01*
X003540Y003576D01*
X003492Y003527D01*
X003492Y003430D01*
X003540Y003382D01*
X003637Y003234D02*
X003685Y003282D01*
X003492Y003084D02*
X003492Y002939D01*
X003540Y002891D01*
X003637Y002891D01*
X003685Y003677D02*
X003492Y003677D01*
X003588Y003677D02*
X003492Y003773D01*
X003492Y003822D01*
X004285Y004143D02*
X004285Y004390D01*
X003782Y004413D02*
X003782Y004462D01*
X003733Y004510D01*
X003915Y004880D02*
X003915Y005065D01*
X003976Y005127D01*
X004038Y005127D01*
X004100Y005065D01*
X004100Y004880D01*
X004285Y004880D02*
X003915Y004880D01*
X004100Y005065D02*
X004162Y005127D01*
X004223Y005127D01*
X004285Y005065D01*
X004285Y004880D01*
X004285Y005248D02*
X003915Y005248D01*
X003915Y005433D01*
X003976Y005495D01*
X004038Y005495D01*
X004100Y005433D01*
X004100Y005248D01*
X004285Y005248D02*
X004285Y005433D01*
X004223Y005495D01*
X004162Y005495D01*
X004100Y005433D01*
X003588Y005245D02*
X003540Y005245D01*
X004038Y005985D02*
X004285Y006108D01*
X004038Y006232D01*
X004038Y006353D02*
X003915Y006477D01*
X004285Y006477D01*
X004285Y006600D02*
X004285Y006353D01*
X004285Y006721D02*
X004285Y006783D01*
X004223Y006783D01*
X004223Y006721D01*
X004285Y006721D01*
X004285Y006906D02*
X004285Y007152D01*
X004285Y007029D02*
X003915Y007029D01*
X004038Y006906D01*
X004965Y006844D02*
X004965Y006650D01*
X005013Y006602D01*
X005110Y006602D01*
X005158Y006650D01*
X005260Y006602D02*
X005453Y006795D01*
X005453Y006844D01*
X005405Y006892D01*
X005308Y006892D01*
X005260Y006844D01*
X005158Y006844D02*
X005110Y006892D01*
X005013Y006892D01*
X004965Y006844D01*
X005260Y006602D02*
X005453Y006602D01*
X005453Y007802D02*
X005260Y007802D01*
X005356Y007802D02*
X005356Y008092D01*
X005260Y007995D01*
X005158Y008044D02*
X005110Y008092D01*
X005013Y008092D01*
X004965Y008044D01*
X004965Y007850D01*
X005013Y007802D01*
X005110Y007802D01*
X005158Y007850D01*
X003353Y008402D02*
X003160Y008402D01*
X003256Y008402D02*
X003256Y008692D01*
X003160Y008595D01*
X002865Y008692D02*
X002865Y008402D01*
X003058Y008402D01*
X001753Y008650D02*
X001705Y008602D01*
X001608Y008602D01*
X001560Y008650D01*
X001560Y008747D02*
X001656Y008795D01*
X001705Y008795D01*
X001753Y008747D01*
X001753Y008650D01*
X001560Y008747D02*
X001560Y008892D01*
X001753Y008892D01*
X001362Y008892D02*
X001362Y008602D01*
X001458Y008602D02*
X001265Y008602D01*
X001265Y008795D02*
X001362Y008892D01*
X008465Y008795D02*
X008465Y008844D01*
X008513Y008892D01*
X008610Y008892D01*
X008658Y008844D01*
X008658Y008795D01*
X008610Y008747D01*
X008513Y008747D01*
X008465Y008795D01*
X008513Y008747D02*
X008465Y008698D01*
X008465Y008650D01*
X008513Y008602D01*
X008610Y008602D01*
X008658Y008650D01*
X008658Y008698D01*
X008610Y008747D01*
X009611Y007184D02*
X009611Y006991D01*
X009611Y007088D02*
X009901Y007088D01*
X009804Y007184D01*
X009853Y006890D02*
X009901Y006841D01*
X009901Y006744D01*
X009853Y006696D01*
X009804Y006696D01*
X009756Y006744D01*
X009707Y006696D01*
X009659Y006696D01*
X009611Y006744D01*
X009611Y006841D01*
X009659Y006890D01*
X009756Y006793D02*
X009756Y006744D01*
X009853Y004291D02*
X009901Y004242D01*
X009901Y004145D01*
X009853Y004097D01*
X009804Y004097D01*
X009611Y004291D01*
X009611Y004097D01*
X009611Y003996D02*
X009804Y003802D01*
X009853Y003802D01*
X009901Y003851D01*
X009901Y003948D01*
X009853Y003996D01*
X009611Y003996D02*
X009611Y003802D01*
X008805Y002392D02*
X008708Y002392D01*
X008660Y002344D01*
X008558Y002344D02*
X008558Y002295D01*
X008365Y002102D01*
X008558Y002102D01*
X008660Y002150D02*
X008708Y002102D01*
X008805Y002102D01*
X008853Y002150D01*
X008853Y002198D01*
X008805Y002247D01*
X008756Y002247D01*
X008805Y002247D02*
X008853Y002295D01*
X008853Y002344D01*
X008805Y002392D01*
X008558Y002344D02*
X008510Y002392D01*
X008413Y002392D01*
X008365Y002344D01*
X013548Y003851D02*
X013548Y003948D01*
X013596Y003996D01*
X013790Y003802D01*
X013596Y003802D01*
X013548Y003851D01*
X013596Y003996D02*
X013790Y003996D01*
X013838Y003948D01*
X013838Y003851D01*
X013790Y003802D01*
X013790Y004097D02*
X013741Y004097D01*
X013693Y004145D01*
X013644Y004097D01*
X013596Y004097D01*
X013548Y004145D01*
X013548Y004242D01*
X013596Y004291D01*
X013693Y004194D02*
X013693Y004145D01*
X013790Y004097D02*
X013838Y004145D01*
X013838Y004242D01*
X013790Y004291D01*
X015413Y002392D02*
X015510Y002392D01*
X015558Y002344D01*
X015558Y002295D01*
X015510Y002247D01*
X015558Y002198D01*
X015558Y002150D01*
X015510Y002102D01*
X015413Y002102D01*
X015365Y002150D01*
X015462Y002247D02*
X015510Y002247D01*
X015365Y002344D02*
X015413Y002392D01*
X015660Y002344D02*
X015660Y002150D01*
X015853Y002344D01*
X015853Y002150D01*
X015805Y002102D01*
X015708Y002102D01*
X015660Y002150D01*
X015660Y002344D02*
X015708Y002392D01*
X015805Y002392D01*
X015853Y002344D01*
X015536Y006991D02*
X015536Y007184D01*
X015536Y007088D02*
X015826Y007088D01*
X015729Y007184D01*
X015658Y008602D02*
X015465Y008602D01*
X015562Y008602D02*
X015562Y008892D01*
X015465Y008795D01*
X001753Y002392D02*
X001656Y002344D01*
X001560Y002247D01*
X001705Y002247D01*
X001753Y002198D01*
X001753Y002150D01*
X001705Y002102D01*
X001608Y002102D01*
X001560Y002150D01*
X001560Y002247D01*
X001458Y002102D02*
X001265Y002102D01*
X001362Y002102D02*
X001362Y002392D01*
X001265Y002295D01*
D13*
X011070Y004807D02*
X011300Y004807D01*
X011377Y004883D01*
X011377Y004960D01*
X011300Y005037D01*
X011070Y005037D01*
X011070Y004807D02*
X011070Y005267D01*
X011300Y005267D01*
X011377Y005190D01*
X011377Y005114D01*
X011300Y005037D01*
X011530Y005267D02*
X011530Y004807D01*
X011837Y004807D01*
X011991Y004807D02*
X012298Y004807D01*
X012451Y004807D02*
X012758Y004807D01*
X012605Y004807D02*
X012605Y005267D01*
X012451Y005114D01*
X012298Y005267D02*
X011991Y005267D01*
X011991Y004807D01*
X011991Y005037D02*
X012144Y005037D01*
X012912Y005114D02*
X013065Y005267D01*
X013065Y004807D01*
X012912Y004807D02*
X013218Y004807D01*
X013372Y004807D02*
X013679Y005114D01*
X013679Y005190D01*
X013602Y005267D01*
X013449Y005267D01*
X013372Y005190D01*
X013679Y005453D02*
X013756Y005453D01*
X013832Y005530D01*
X013832Y005914D01*
X013602Y005914D01*
X013525Y005837D01*
X013525Y005683D01*
X013602Y005607D01*
X013832Y005607D01*
X013986Y005683D02*
X014063Y005760D01*
X014293Y005760D01*
X014293Y005837D02*
X014216Y005914D01*
X014063Y005914D01*
X014293Y005837D02*
X014293Y005607D01*
X014063Y005607D01*
X013986Y005683D01*
X013372Y005607D02*
X013218Y005607D01*
X013295Y005607D02*
X013295Y005914D01*
X013218Y005914D01*
X013065Y005914D02*
X012835Y005914D01*
X012758Y005837D01*
X012758Y005683D01*
X012835Y005607D01*
X013065Y005607D01*
X013065Y005530D02*
X013065Y005914D01*
X013295Y006067D02*
X013295Y006144D01*
X012605Y005837D02*
X012605Y005760D01*
X012298Y005760D01*
X012298Y005683D02*
X012298Y005837D01*
X012374Y005914D01*
X012528Y005914D01*
X012605Y005837D01*
X012528Y005607D02*
X012374Y005607D01*
X012298Y005683D01*
X012144Y005607D02*
X012144Y005914D01*
X011837Y005914D02*
X011837Y005683D01*
X011914Y005607D01*
X012144Y005607D01*
X011684Y005607D02*
X011530Y005607D01*
X011607Y005607D02*
X011607Y006067D01*
X011530Y006067D01*
X011377Y005990D02*
X011377Y005914D01*
X011300Y005837D01*
X011070Y005837D01*
X011070Y005607D02*
X011070Y006067D01*
X011300Y006067D01*
X011377Y005990D01*
X011300Y005837D02*
X011377Y005760D01*
X011377Y005683D01*
X011300Y005607D01*
X011070Y005607D01*
X012912Y005453D02*
X012988Y005453D01*
X013065Y005530D01*
X013832Y005037D02*
X014139Y005037D01*
X014293Y005037D02*
X014600Y005037D01*
X014600Y005114D02*
X014600Y004807D01*
X014293Y004807D02*
X014293Y005114D01*
X014446Y005267D01*
X014600Y005114D01*
X013679Y004807D02*
X013372Y004807D01*
D14*
X013300Y001987D02*
X013800Y001987D01*
X014050Y001737D01*
X014300Y001987D01*
X014800Y001987D01*
X015050Y001737D01*
X015300Y001987D01*
X015800Y001987D01*
X016050Y001737D01*
X016050Y001237D01*
X015800Y000987D01*
X015300Y000987D01*
X015050Y001237D01*
X014800Y000987D01*
X014300Y000987D01*
X014050Y001237D01*
X014050Y001737D01*
X014050Y001237D02*
X013800Y000987D01*
X013300Y000987D01*
X013050Y001237D01*
X012800Y000987D01*
X012300Y000987D01*
X012050Y001237D01*
X011800Y000987D01*
X011300Y000987D01*
X011050Y001237D01*
X011050Y001737D01*
X011300Y001987D01*
X011800Y001987D01*
X012050Y001737D01*
X012300Y001987D01*
X012800Y001987D01*
X013050Y001737D01*
X013300Y001987D01*
X013050Y001737D02*
X013050Y001237D01*
X012050Y001237D02*
X012050Y001737D01*
X011050Y001737D02*
X010800Y001987D01*
X010300Y001987D01*
X010050Y001737D01*
X009800Y001987D01*
X009300Y001987D01*
X009050Y001737D01*
X008800Y001987D01*
X008300Y001987D01*
X008050Y001737D01*
X008050Y001237D01*
X008300Y000987D01*
X008800Y000987D01*
X009050Y001237D01*
X009050Y001737D01*
X009050Y001237D02*
X009300Y000987D01*
X009800Y000987D01*
X010050Y001237D01*
X010050Y001737D01*
X010050Y001237D02*
X010300Y000987D01*
X010800Y000987D01*
X011050Y001237D01*
X008050Y001237D02*
X007800Y000987D01*
X007300Y000987D01*
X007050Y001237D01*
X006800Y000987D01*
X006300Y000987D01*
X006050Y001237D01*
X005800Y000987D01*
X005300Y000987D01*
X005050Y001237D01*
X005050Y001737D01*
X005300Y001987D01*
X005800Y001987D01*
X006050Y001737D01*
X006300Y001987D01*
X006800Y001987D01*
X007050Y001737D01*
X007300Y001987D01*
X007800Y001987D01*
X008050Y001737D01*
X007050Y001737D02*
X007050Y001237D01*
X006050Y001237D02*
X006050Y001737D01*
X005050Y001737D02*
X004800Y001987D01*
X004300Y001987D01*
X004050Y001737D01*
X003800Y001987D01*
X003300Y001987D01*
X003050Y001737D01*
X002800Y001987D01*
X002300Y001987D01*
X002050Y001737D01*
X001800Y001987D01*
X001300Y001987D01*
X001050Y001737D01*
X001050Y001237D01*
X001300Y000987D01*
X001800Y000987D01*
X002050Y001237D01*
X002050Y001737D01*
X002050Y001237D02*
X002300Y000987D01*
X002800Y000987D01*
X003050Y001237D01*
X003050Y001737D01*
X003050Y001237D02*
X003300Y000987D01*
X003800Y000987D01*
X004050Y001237D01*
X004050Y001737D01*
X004050Y001237D02*
X004300Y000987D01*
X004800Y000987D01*
X005050Y001237D01*
X006150Y002937D02*
X006750Y002937D01*
X006750Y003037D01*
X006850Y003037D01*
X007450Y003037D01*
X007650Y003237D01*
X007650Y003387D01*
X007650Y003737D01*
X007650Y004737D01*
X007650Y005087D01*
X007650Y005237D01*
X007450Y005437D01*
X006850Y005437D01*
X006750Y005437D01*
X006750Y005537D01*
X006150Y005537D01*
X006150Y005437D01*
X006050Y005437D01*
X005450Y005437D01*
X005250Y005237D01*
X005250Y005087D01*
X005250Y004737D01*
X005250Y003787D01*
X005250Y003387D01*
X005250Y003237D01*
X005450Y003037D01*
X006050Y003037D01*
X006150Y003037D01*
X006150Y002937D01*
X005450Y003387D02*
X005452Y003415D01*
X005458Y003442D01*
X005467Y003468D01*
X005480Y003493D01*
X005497Y003516D01*
X005516Y003536D01*
X005538Y003553D01*
X005562Y003567D01*
X005588Y003577D01*
X005615Y003584D01*
X005643Y003587D01*
X005671Y003586D01*
X005698Y003581D01*
X005725Y003572D01*
X005750Y003560D01*
X005773Y003545D01*
X005794Y003526D01*
X005812Y003505D01*
X005827Y003481D01*
X005838Y003455D01*
X005846Y003429D01*
X005850Y003401D01*
X005850Y003373D01*
X005846Y003345D01*
X005838Y003319D01*
X005827Y003293D01*
X005812Y003269D01*
X005794Y003248D01*
X005773Y003229D01*
X005750Y003214D01*
X005725Y003202D01*
X005698Y003193D01*
X005671Y003188D01*
X005643Y003187D01*
X005615Y003190D01*
X005588Y003197D01*
X005562Y003207D01*
X005538Y003221D01*
X005516Y003238D01*
X005497Y003258D01*
X005480Y003281D01*
X005467Y003306D01*
X005458Y003332D01*
X005452Y003359D01*
X005450Y003387D01*
X005600Y003737D02*
X005600Y004737D01*
X005400Y005087D02*
X005402Y005115D01*
X005408Y005142D01*
X005417Y005168D01*
X005430Y005193D01*
X005447Y005216D01*
X005466Y005236D01*
X005488Y005253D01*
X005512Y005267D01*
X005538Y005277D01*
X005565Y005284D01*
X005593Y005287D01*
X005621Y005286D01*
X005648Y005281D01*
X005675Y005272D01*
X005700Y005260D01*
X005723Y005245D01*
X005744Y005226D01*
X005762Y005205D01*
X005777Y005181D01*
X005788Y005155D01*
X005796Y005129D01*
X005800Y005101D01*
X005800Y005073D01*
X005796Y005045D01*
X005788Y005019D01*
X005777Y004993D01*
X005762Y004969D01*
X005744Y004948D01*
X005723Y004929D01*
X005700Y004914D01*
X005675Y004902D01*
X005648Y004893D01*
X005621Y004888D01*
X005593Y004887D01*
X005565Y004890D01*
X005538Y004897D01*
X005512Y004907D01*
X005488Y004921D01*
X005466Y004938D01*
X005447Y004958D01*
X005430Y004981D01*
X005417Y005006D01*
X005408Y005032D01*
X005402Y005059D01*
X005400Y005087D01*
X005950Y005187D02*
X006250Y005187D01*
X006300Y005087D02*
X006650Y005187D01*
X006950Y005187D01*
X007100Y005087D02*
X007102Y005115D01*
X007108Y005142D01*
X007117Y005168D01*
X007130Y005193D01*
X007147Y005216D01*
X007166Y005236D01*
X007188Y005253D01*
X007212Y005267D01*
X007238Y005277D01*
X007265Y005284D01*
X007293Y005287D01*
X007321Y005286D01*
X007348Y005281D01*
X007375Y005272D01*
X007400Y005260D01*
X007423Y005245D01*
X007444Y005226D01*
X007462Y005205D01*
X007477Y005181D01*
X007488Y005155D01*
X007496Y005129D01*
X007500Y005101D01*
X007500Y005073D01*
X007496Y005045D01*
X007488Y005019D01*
X007477Y004993D01*
X007462Y004969D01*
X007444Y004948D01*
X007423Y004929D01*
X007400Y004914D01*
X007375Y004902D01*
X007348Y004893D01*
X007321Y004888D01*
X007293Y004887D01*
X007265Y004890D01*
X007238Y004897D01*
X007212Y004907D01*
X007188Y004921D01*
X007166Y004938D01*
X007147Y004958D01*
X007130Y004981D01*
X007117Y005006D01*
X007108Y005032D01*
X007102Y005059D01*
X007100Y005087D01*
X007350Y004737D02*
X007350Y003737D01*
X007100Y003387D02*
X007102Y003415D01*
X007108Y003442D01*
X007117Y003468D01*
X007130Y003493D01*
X007147Y003516D01*
X007166Y003536D01*
X007188Y003553D01*
X007212Y003567D01*
X007238Y003577D01*
X007265Y003584D01*
X007293Y003587D01*
X007321Y003586D01*
X007348Y003581D01*
X007375Y003572D01*
X007400Y003560D01*
X007423Y003545D01*
X007444Y003526D01*
X007462Y003505D01*
X007477Y003481D01*
X007488Y003455D01*
X007496Y003429D01*
X007500Y003401D01*
X007500Y003373D01*
X007496Y003345D01*
X007488Y003319D01*
X007477Y003293D01*
X007462Y003269D01*
X007444Y003248D01*
X007423Y003229D01*
X007400Y003214D01*
X007375Y003202D01*
X007348Y003193D01*
X007321Y003188D01*
X007293Y003187D01*
X007265Y003190D01*
X007238Y003197D01*
X007212Y003207D01*
X007188Y003221D01*
X007166Y003238D01*
X007147Y003258D01*
X007130Y003281D01*
X007117Y003306D01*
X007108Y003332D01*
X007102Y003359D01*
X007100Y003387D01*
X006350Y004237D02*
X006352Y004257D01*
X006358Y004275D01*
X006367Y004293D01*
X006379Y004308D01*
X006394Y004320D01*
X006412Y004329D01*
X006430Y004335D01*
X006450Y004337D01*
X006470Y004335D01*
X006488Y004329D01*
X006506Y004320D01*
X006521Y004308D01*
X006533Y004293D01*
X006542Y004275D01*
X006548Y004257D01*
X006550Y004237D01*
X006548Y004217D01*
X006542Y004199D01*
X006533Y004181D01*
X006521Y004166D01*
X006506Y004154D01*
X006488Y004145D01*
X006470Y004139D01*
X006450Y004137D01*
X006430Y004139D01*
X006412Y004145D01*
X006394Y004154D01*
X006379Y004166D01*
X006367Y004181D01*
X006358Y004199D01*
X006352Y004217D01*
X006350Y004237D01*
X005750Y004237D02*
X005752Y004289D01*
X005758Y004341D01*
X005768Y004393D01*
X005781Y004443D01*
X005798Y004493D01*
X005819Y004541D01*
X005844Y004587D01*
X005872Y004631D01*
X005903Y004673D01*
X005937Y004713D01*
X005974Y004750D01*
X006014Y004784D01*
X006056Y004815D01*
X006100Y004843D01*
X006146Y004868D01*
X006194Y004889D01*
X006244Y004906D01*
X006294Y004919D01*
X006346Y004929D01*
X006398Y004935D01*
X006450Y004937D01*
X006502Y004935D01*
X006554Y004929D01*
X006606Y004919D01*
X006656Y004906D01*
X006706Y004889D01*
X006754Y004868D01*
X006800Y004843D01*
X006844Y004815D01*
X006886Y004784D01*
X006926Y004750D01*
X006963Y004713D01*
X006997Y004673D01*
X007028Y004631D01*
X007056Y004587D01*
X007081Y004541D01*
X007102Y004493D01*
X007119Y004443D01*
X007132Y004393D01*
X007142Y004341D01*
X007148Y004289D01*
X007150Y004237D01*
X007148Y004185D01*
X007142Y004133D01*
X007132Y004081D01*
X007119Y004031D01*
X007102Y003981D01*
X007081Y003933D01*
X007056Y003887D01*
X007028Y003843D01*
X006997Y003801D01*
X006963Y003761D01*
X006926Y003724D01*
X006886Y003690D01*
X006844Y003659D01*
X006800Y003631D01*
X006754Y003606D01*
X006706Y003585D01*
X006656Y003568D01*
X006606Y003555D01*
X006554Y003545D01*
X006502Y003539D01*
X006450Y003537D01*
X006398Y003539D01*
X006346Y003545D01*
X006294Y003555D01*
X006244Y003568D01*
X006194Y003585D01*
X006146Y003606D01*
X006100Y003631D01*
X006056Y003659D01*
X006014Y003690D01*
X005974Y003724D01*
X005937Y003761D01*
X005903Y003801D01*
X005872Y003843D01*
X005844Y003887D01*
X005819Y003933D01*
X005798Y003981D01*
X005781Y004031D01*
X005768Y004081D01*
X005758Y004133D01*
X005752Y004185D01*
X005750Y004237D01*
X005700Y006287D02*
X007400Y006287D01*
X007417Y006289D01*
X007434Y006293D01*
X007450Y006300D01*
X007464Y006310D01*
X007477Y006323D01*
X007487Y006337D01*
X007494Y006353D01*
X007498Y006370D01*
X007500Y006387D01*
X007500Y007187D01*
X007498Y007204D01*
X007494Y007221D01*
X007487Y007237D01*
X007477Y007251D01*
X007464Y007264D01*
X007450Y007274D01*
X007434Y007281D01*
X007417Y007285D01*
X007400Y007287D01*
X005700Y007287D01*
X005683Y007285D01*
X005666Y007281D01*
X005650Y007274D01*
X005636Y007264D01*
X005623Y007251D01*
X005613Y007237D01*
X005606Y007221D01*
X005602Y007204D01*
X005600Y007187D01*
X005600Y006387D01*
X005602Y006370D01*
X005606Y006353D01*
X005613Y006337D01*
X005623Y006323D01*
X005636Y006310D01*
X005650Y006300D01*
X005666Y006293D01*
X005683Y006289D01*
X005700Y006287D01*
X006250Y006787D02*
X006400Y006787D01*
X006450Y006787D01*
X006650Y006787D02*
X006700Y006787D01*
X006850Y006787D01*
X007400Y007487D02*
X005700Y007487D01*
X005683Y007489D01*
X005666Y007493D01*
X005650Y007500D01*
X005636Y007510D01*
X005623Y007523D01*
X005613Y007537D01*
X005606Y007553D01*
X005602Y007570D01*
X005600Y007587D01*
X005600Y008387D01*
X005602Y008404D01*
X005606Y008421D01*
X005613Y008437D01*
X005623Y008451D01*
X005636Y008464D01*
X005650Y008474D01*
X005666Y008481D01*
X005683Y008485D01*
X005700Y008487D01*
X007400Y008487D01*
X007417Y008485D01*
X007434Y008481D01*
X007450Y008474D01*
X007464Y008464D01*
X007477Y008451D01*
X007487Y008437D01*
X007494Y008421D01*
X007498Y008404D01*
X007500Y008387D01*
X007500Y007587D01*
X007498Y007570D01*
X007494Y007553D01*
X007487Y007537D01*
X007477Y007523D01*
X007464Y007510D01*
X007450Y007500D01*
X007434Y007493D01*
X007417Y007489D01*
X007400Y007487D01*
X006850Y007987D02*
X006700Y007987D01*
X006650Y007987D01*
X006450Y007987D02*
X006400Y007987D01*
X006250Y007987D01*
X006300Y008987D02*
X006050Y009237D01*
X005800Y008987D01*
X005300Y008987D01*
X005050Y009237D01*
X004800Y008987D01*
X004300Y008987D01*
X004050Y009237D01*
X003800Y008987D01*
X003300Y008987D01*
X003050Y009237D01*
X002800Y008987D01*
X002300Y008987D01*
X002050Y009237D01*
X001800Y008987D01*
X001300Y008987D01*
X001050Y009237D01*
X001050Y009737D01*
X001300Y009987D01*
X001800Y009987D01*
X002050Y009737D01*
X002300Y009987D01*
X002800Y009987D01*
X003050Y009737D01*
X003050Y009237D01*
X003050Y009737D02*
X003300Y009987D01*
X003800Y009987D01*
X004050Y009737D01*
X004300Y009987D01*
X004800Y009987D01*
X005050Y009737D01*
X005300Y009987D01*
X005800Y009987D01*
X006050Y009737D01*
X006050Y009237D01*
X006300Y008987D02*
X006800Y008987D01*
X007050Y009237D01*
X007300Y008987D01*
X007800Y008987D01*
X008050Y009237D01*
X008300Y008987D01*
X008800Y008987D01*
X009050Y009237D01*
X009050Y009737D01*
X008800Y009987D01*
X008300Y009987D01*
X008050Y009737D01*
X008050Y009237D01*
X008050Y009737D02*
X007800Y009987D01*
X007300Y009987D01*
X007050Y009737D01*
X007050Y009237D01*
X007050Y009737D02*
X006800Y009987D01*
X006300Y009987D01*
X006050Y009737D01*
X005050Y009737D02*
X005050Y009237D01*
X004050Y009237D02*
X004050Y009737D01*
X002050Y009737D02*
X002050Y009237D01*
X002150Y008287D02*
X002300Y008287D01*
X002350Y008237D01*
X003750Y008237D01*
X003800Y008287D01*
X003950Y008287D01*
X003967Y008285D01*
X003984Y008281D01*
X004000Y008274D01*
X004014Y008264D01*
X004027Y008251D01*
X004037Y008237D01*
X004044Y008221D01*
X004048Y008204D01*
X004050Y008187D01*
X004050Y007587D01*
X004048Y007570D01*
X004044Y007553D01*
X004037Y007537D01*
X004027Y007523D01*
X004014Y007510D01*
X004000Y007500D01*
X003984Y007493D01*
X003967Y007489D01*
X003950Y007487D01*
X003800Y007487D01*
X003750Y007537D01*
X002350Y007537D01*
X002300Y007487D01*
X002150Y007487D01*
X002133Y007489D01*
X002116Y007493D01*
X002100Y007500D01*
X002086Y007510D01*
X002073Y007523D01*
X002063Y007537D01*
X002056Y007553D01*
X002052Y007570D01*
X002050Y007587D01*
X002050Y008187D01*
X002052Y008204D01*
X002056Y008221D01*
X002063Y008237D01*
X002073Y008251D01*
X002086Y008264D01*
X002100Y008274D01*
X002116Y008281D01*
X002133Y008285D01*
X002150Y008287D01*
X002400Y008187D02*
X002400Y007587D01*
X002402Y007570D01*
X002406Y007553D01*
X002413Y007537D01*
X002423Y007523D01*
X002436Y007510D01*
X002450Y007500D01*
X002466Y007493D01*
X002483Y007489D01*
X002500Y007487D01*
X003600Y007487D01*
X003617Y007489D01*
X003634Y007493D01*
X003650Y007500D01*
X003664Y007510D01*
X003677Y007523D01*
X003687Y007537D01*
X003694Y007553D01*
X003698Y007570D01*
X003700Y007587D01*
X003700Y008187D01*
X003698Y008204D01*
X003694Y008221D01*
X003687Y008237D01*
X003677Y008251D01*
X003664Y008264D01*
X003650Y008274D01*
X003634Y008281D01*
X003617Y008285D01*
X003600Y008287D01*
X002500Y008287D01*
X002483Y008285D01*
X002466Y008281D01*
X002450Y008274D01*
X002436Y008264D01*
X002423Y008251D01*
X002413Y008237D01*
X002406Y008221D01*
X002402Y008204D01*
X002400Y008187D01*
X002450Y007887D02*
X002650Y007887D01*
X003450Y007887D02*
X003650Y007887D01*
X002050Y006237D02*
X001800Y006487D01*
X001300Y006487D01*
X001050Y006237D01*
X001050Y005737D01*
X001300Y005487D01*
X001050Y005237D01*
X001050Y004737D01*
X001300Y004487D01*
X001800Y004487D01*
X002050Y004737D01*
X002050Y005237D01*
X001800Y005487D01*
X001300Y005487D01*
X001800Y005487D02*
X002050Y005737D01*
X002050Y006237D01*
X009050Y009237D02*
X009300Y008987D01*
X009800Y008987D01*
X010050Y009237D01*
X010300Y008987D01*
X010800Y008987D01*
X011050Y009237D01*
X011300Y008987D01*
X011800Y008987D01*
X012050Y009237D01*
X012050Y009737D01*
X011800Y009987D01*
X011300Y009987D01*
X011050Y009737D01*
X011050Y009237D01*
X011050Y009737D02*
X010800Y009987D01*
X010300Y009987D01*
X010050Y009737D01*
X010050Y009237D01*
X010050Y009737D02*
X009800Y009987D01*
X009300Y009987D01*
X009050Y009737D01*
X012050Y009737D02*
X012300Y009987D01*
X012800Y009987D01*
X013050Y009737D01*
X013300Y009987D01*
X013800Y009987D01*
X014050Y009737D01*
X014300Y009987D01*
X014800Y009987D01*
X015050Y009737D01*
X015300Y009987D01*
X015800Y009987D01*
X016050Y009737D01*
X016050Y009237D01*
X015800Y008987D01*
X015300Y008987D01*
X015050Y009237D01*
X014800Y008987D01*
X014300Y008987D01*
X014050Y009237D01*
X013800Y008987D01*
X013300Y008987D01*
X013050Y009237D01*
X012800Y008987D01*
X012300Y008987D01*
X012050Y009237D01*
X013050Y009237D02*
X013050Y009737D01*
X014050Y009737D02*
X014050Y009237D01*
X015050Y009237D02*
X015050Y009737D01*
X015050Y001737D02*
X015050Y001237D01*
D15*
X007650Y003737D02*
X007550Y003737D01*
X007550Y004737D01*
X007650Y004737D01*
X006950Y004737D02*
X006950Y003737D01*
X005950Y003737D01*
X005950Y004737D01*
X006950Y004737D01*
X006200Y004237D02*
X006202Y004268D01*
X006208Y004299D01*
X006218Y004329D01*
X006231Y004357D01*
X006248Y004384D01*
X006268Y004408D01*
X006291Y004430D01*
X006316Y004448D01*
X006344Y004463D01*
X006373Y004475D01*
X006403Y004483D01*
X006434Y004487D01*
X006466Y004487D01*
X006497Y004483D01*
X006527Y004475D01*
X006556Y004463D01*
X006584Y004448D01*
X006609Y004430D01*
X006632Y004408D01*
X006652Y004384D01*
X006669Y004357D01*
X006682Y004329D01*
X006692Y004299D01*
X006698Y004268D01*
X006700Y004237D01*
X006698Y004206D01*
X006692Y004175D01*
X006682Y004145D01*
X006669Y004117D01*
X006652Y004090D01*
X006632Y004066D01*
X006609Y004044D01*
X006584Y004026D01*
X006556Y004011D01*
X006527Y003999D01*
X006497Y003991D01*
X006466Y003987D01*
X006434Y003987D01*
X006403Y003991D01*
X006373Y003999D01*
X006344Y004011D01*
X006316Y004026D01*
X006291Y004044D01*
X006268Y004066D01*
X006248Y004090D01*
X006231Y004117D01*
X006218Y004145D01*
X006208Y004175D01*
X006202Y004206D01*
X006200Y004237D01*
X005350Y003787D02*
X005350Y004737D01*
X005250Y004737D01*
X005250Y003787D02*
X005350Y003787D01*
D16*
X005600Y002702D02*
X005600Y002401D01*
X005375Y002626D01*
X005825Y002626D01*
X007075Y002626D02*
X007075Y002476D01*
X007150Y002401D01*
X007075Y002626D02*
X007150Y002702D01*
X007225Y002702D01*
X007525Y002401D01*
X007525Y002702D01*
X008887Y003124D02*
X008887Y007869D01*
X016013Y007869D01*
X016013Y003124D01*
X008887Y003124D01*
X007575Y005501D02*
X007575Y005802D01*
X007575Y005651D02*
X007125Y005651D01*
X007275Y005501D01*
X005825Y005676D02*
X005750Y005601D01*
X005825Y005676D02*
X005825Y005826D01*
X005750Y005902D01*
X005675Y005902D01*
X005600Y005826D01*
X005600Y005751D01*
X005600Y005826D02*
X005525Y005902D01*
X005450Y005902D01*
X005375Y005826D01*
X005375Y005676D01*
X005450Y005601D01*
X003174Y007614D02*
X003151Y007887D01*
X003151Y007887D01*
X003174Y008160D01*
X003175Y008161D01*
X003207Y008156D01*
X003239Y008147D01*
X003269Y008135D01*
X003297Y008119D01*
X003324Y008100D01*
X003348Y008078D01*
X003369Y008054D01*
X003387Y008027D01*
X003402Y007998D01*
X003413Y007967D01*
X003421Y007936D01*
X003425Y007903D01*
X003425Y007871D01*
X003421Y007838D01*
X003413Y007807D01*
X003402Y007776D01*
X003387Y007747D01*
X003369Y007720D01*
X003348Y007696D01*
X003324Y007674D01*
X003297Y007655D01*
X003269Y007639D01*
X003239Y007627D01*
X003207Y007618D01*
X003175Y007613D01*
X003175Y007660D01*
X003203Y007665D01*
X003231Y007674D01*
X003257Y007686D01*
X003282Y007701D01*
X003305Y007719D01*
X003325Y007740D01*
X003342Y007764D01*
X003356Y007789D01*
X003367Y007816D01*
X003374Y007844D01*
X003378Y007873D01*
X003378Y007901D01*
X003374Y007930D01*
X003367Y007958D01*
X003356Y007985D01*
X003342Y008010D01*
X003325Y008034D01*
X003305Y008055D01*
X003282Y008073D01*
X003257Y008088D01*
X003231Y008100D01*
X003203Y008109D01*
X003175Y008114D01*
X003175Y008066D01*
X003200Y008061D01*
X003225Y008052D01*
X003247Y008040D01*
X003268Y008024D01*
X003287Y008006D01*
X003302Y007985D01*
X003315Y007962D01*
X003324Y007938D01*
X003329Y007913D01*
X003331Y007887D01*
X003329Y007861D01*
X003324Y007836D01*
X003315Y007812D01*
X003302Y007789D01*
X003287Y007768D01*
X003268Y007750D01*
X003247Y007734D01*
X003225Y007722D01*
X003200Y007713D01*
X003175Y007708D01*
X003175Y007755D01*
X003196Y007761D01*
X003216Y007770D01*
X003234Y007782D01*
X003250Y007797D01*
X003263Y007815D01*
X003273Y007834D01*
X003280Y007855D01*
X003284Y007876D01*
X003284Y007898D01*
X003280Y007919D01*
X003273Y007940D01*
X003263Y007959D01*
X003250Y007977D01*
X003234Y007992D01*
X003216Y008004D01*
X003196Y008013D01*
X003175Y008019D01*
X003175Y007970D01*
X003191Y007964D01*
X003205Y007955D01*
X003217Y007942D01*
X003227Y007928D01*
X003233Y007912D01*
X003237Y007896D01*
X003237Y007878D01*
X003233Y007862D01*
X003227Y007846D01*
X003217Y007832D01*
X003205Y007819D01*
X003191Y007810D01*
X003175Y007804D01*
X003173Y007855D01*
X003181Y007862D01*
X003187Y007871D01*
X003190Y007882D01*
X003190Y007892D01*
X003187Y007903D01*
X003181Y007912D01*
X003173Y007919D01*
X002926Y008160D02*
X002949Y007887D01*
X002949Y007887D01*
X002926Y007614D01*
X002925Y007613D01*
X002893Y007618D01*
X002861Y007627D01*
X002831Y007639D01*
X002803Y007655D01*
X002776Y007674D01*
X002752Y007696D01*
X002731Y007720D01*
X002713Y007747D01*
X002698Y007776D01*
X002687Y007807D01*
X002679Y007838D01*
X002675Y007871D01*
X002675Y007903D01*
X002679Y007936D01*
X002687Y007967D01*
X002698Y007998D01*
X002713Y008027D01*
X002731Y008054D01*
X002752Y008078D01*
X002776Y008100D01*
X002803Y008119D01*
X002831Y008135D01*
X002861Y008147D01*
X002893Y008156D01*
X002925Y008161D01*
X002925Y008114D01*
X002897Y008109D01*
X002869Y008100D01*
X002843Y008088D01*
X002818Y008073D01*
X002795Y008055D01*
X002775Y008034D01*
X002758Y008010D01*
X002744Y007985D01*
X002733Y007958D01*
X002726Y007930D01*
X002722Y007901D01*
X002722Y007873D01*
X002726Y007844D01*
X002733Y007816D01*
X002744Y007789D01*
X002758Y007764D01*
X002775Y007740D01*
X002795Y007719D01*
X002818Y007701D01*
X002843Y007686D01*
X002869Y007674D01*
X002897Y007665D01*
X002925Y007660D01*
X002925Y007708D01*
X002900Y007713D01*
X002875Y007722D01*
X002853Y007734D01*
X002832Y007750D01*
X002813Y007768D01*
X002798Y007789D01*
X002785Y007812D01*
X002776Y007836D01*
X002771Y007861D01*
X002769Y007887D01*
X002771Y007913D01*
X002776Y007938D01*
X002785Y007962D01*
X002798Y007985D01*
X002813Y008006D01*
X002832Y008024D01*
X002853Y008040D01*
X002875Y008052D01*
X002900Y008061D01*
X002925Y008066D01*
X002925Y008019D01*
X002904Y008013D01*
X002884Y008004D01*
X002866Y007992D01*
X002850Y007977D01*
X002837Y007959D01*
X002827Y007940D01*
X002820Y007919D01*
X002816Y007898D01*
X002816Y007876D01*
X002820Y007855D01*
X002827Y007834D01*
X002837Y007815D01*
X002850Y007797D01*
X002866Y007782D01*
X002884Y007770D01*
X002904Y007761D01*
X002925Y007755D01*
X002925Y007804D01*
X002909Y007810D01*
X002895Y007819D01*
X002883Y007832D01*
X002873Y007846D01*
X002867Y007862D01*
X002863Y007878D01*
X002863Y007896D01*
X002867Y007912D01*
X002873Y007928D01*
X002883Y007942D01*
X002895Y007955D01*
X002909Y007964D01*
X002925Y007970D01*
X002927Y007919D01*
X002919Y007912D01*
X002913Y007903D01*
X002910Y007892D01*
X002910Y007882D01*
X002913Y007871D01*
X002919Y007862D01*
X002927Y007855D01*
D17*
X002550Y009487D03*
X001550Y009487D03*
X003550Y009487D03*
X004550Y009487D03*
X005550Y009487D03*
X006550Y009487D03*
X007550Y009487D03*
X008550Y009487D03*
X009550Y009487D03*
X010550Y009487D03*
X011550Y009487D03*
X012550Y009487D03*
X013550Y009487D03*
X014550Y009487D03*
X015550Y009487D03*
X015550Y001487D03*
X014550Y001487D03*
X013550Y001487D03*
X012550Y001487D03*
X011550Y001487D03*
X010550Y001487D03*
X009550Y001487D03*
X008550Y001487D03*
X007550Y001487D03*
X006550Y001487D03*
X005550Y001487D03*
X004550Y001487D03*
X003550Y001487D03*
X002550Y001487D03*
X001550Y001487D03*
X001550Y004987D03*
X001550Y005987D03*
D18*
X006450Y006487D02*
X006450Y006787D01*
X006450Y007087D01*
X006650Y007087D02*
X006650Y006787D01*
X006650Y006487D01*
X006650Y007687D02*
X006650Y007987D01*
X006650Y008287D01*
X006450Y008287D02*
X006450Y007987D01*
X006450Y007687D01*
D19*
X004550Y007887D02*
X004200Y007887D01*
X001900Y007887D02*
X001550Y007887D01*
D20*
X001975Y007887D03*
X004125Y007887D03*
M02*
