%
M48
M72
T01C0.0130
T02C0.0320
T03C0.0400
%
T01
X1450Y2487
X1450Y2987
X1450Y3487
X1450Y3987
X1950Y3987
X2450Y3987
X2450Y4487
X2950Y4487
X2950Y4987
X2950Y5487
X2950Y5987
X3450Y5987
X3450Y6487
X2950Y6487
X2450Y6487
X2450Y6987
X1950Y6987
X2950Y6987
X3750Y7287
X5550Y7387
X6550Y8087
X6850Y8687
X7650Y7987
X7650Y7587
X8550Y8287
X9750Y6987
X10450Y7087
X10450Y6487
X10950Y6487
X10450Y5987
X9950Y5987
X9950Y5487
X10950Y4987
X10950Y4487
X10450Y4487
X10950Y3987
X11450Y3987
X11950Y3987
X12450Y3987
X12950Y3987
X13450Y3987
X13450Y4487
X12950Y4487
X12450Y4487
X11950Y4487
X11450Y4487
X11450Y5487
X11450Y7087
X12850Y8687
X14850Y6887
X14550Y6487
X13950Y6487
X14250Y5987
X13950Y5587
X14550Y5587
X14850Y5987
X15150Y5587
X15750Y5587
X15450Y5987
X15150Y6487
X15450Y6887
X15750Y6487
X14950Y1987
X8450Y2987
X7950Y2987
X7950Y3487
X7950Y2487
X6550Y2487
X4450Y3987
X4450Y4487
X3950Y4487
X4450Y4987
X4950Y4987
X4950Y5487
X6150Y5287
X4950Y4487
X3650Y3587
X8050Y5787
X7750Y6687
T02
X7050Y6787
X6050Y6787
X4550Y7887
X6050Y7987
X7050Y7987
X1550Y7887
T03
X1550Y1487
X2550Y1487
X3550Y1487
X4550Y1487
X5550Y1487
X6550Y1487
X7550Y1487
X8550Y1487
X9550Y1487
X10550Y1487
X11550Y1487
X12550Y1487
X13550Y1487
X14550Y1487
X15550Y1487
X7340Y2957
X5560Y2957
X5560Y5517
X7340Y5517
X1550Y5987
X1550Y4987
X1550Y9487
X2550Y9487
X3550Y9487
X4550Y9487
X5550Y9487
X6550Y9487
X7550Y9487
X8550Y9487
X9550Y9487
X10550Y9487
X11550Y9487
X12550Y9487
X13550Y9487
X14550Y9487
X15550Y9487
M30
