%
M48
M72
T01C0.0200
T02C0.0320
T03C0.0400
%
T01
X7856Y2987
X4456Y4787
X3856Y5087
X3856Y5887
X5056Y5887
X3356Y3687
X10956Y6787
X12956Y5387
T02
X13631Y6512
X13631Y3512
X13631Y2637
X14756Y2637
X14756Y1637
X13631Y1637
T03
X1506Y1512
X1506Y2512
X1506Y3512
X1506Y4512
X1506Y5512
X1506Y6512
X15006Y6512
M30
