G75*
G70*
%OFA0B0*%
%FSLAX24Y24*%
%IPPOS*%
%LPD*%
%AMOC8*
5,1,8,0,0,1.08239X$1,22.5*
%
%ADD10C,0.0600*%
%ADD11OC8,0.0480*%
%ADD12R,0.0630X0.0460*%
%ADD13OC8,0.0600*%
%ADD14C,0.0160*%
%ADD15C,0.0100*%
%ADD16C,0.0340*%
D10*
X001206Y001512D02*
X001806Y001512D01*
X001806Y002512D02*
X001206Y002512D01*
X001206Y003512D02*
X001806Y003512D01*
X001806Y004512D02*
X001206Y004512D01*
X001206Y005512D02*
X001806Y005512D01*
X001806Y006512D02*
X001206Y006512D01*
D11*
X013631Y006512D03*
X013631Y003512D03*
X013631Y002637D03*
X014756Y002637D03*
X014756Y001637D03*
X013631Y001637D03*
D12*
X004006Y003712D03*
X004006Y004312D03*
D13*
X015006Y006512D03*
D14*
X002213Y001240D02*
X002090Y001117D01*
X015396Y001117D01*
X015396Y003512D01*
X014051Y003512D01*
X014051Y003338D01*
X013805Y003092D01*
X013457Y003092D01*
X013211Y003338D01*
X013211Y003512D01*
X010256Y003512D01*
X010256Y006903D01*
X002094Y006903D01*
X002213Y006784D01*
X002286Y006607D01*
X002286Y006416D01*
X002276Y006392D01*
X003946Y004722D01*
X004066Y004722D01*
X004106Y004762D01*
X004106Y004857D01*
X004159Y004985D01*
X004258Y005084D01*
X004386Y005137D01*
X004526Y005137D01*
X004654Y005084D01*
X004753Y004985D01*
X004806Y004857D01*
X004806Y004717D01*
X004767Y004623D01*
X004826Y004682D01*
X004826Y005622D01*
X004759Y005689D01*
X004706Y005817D01*
X004706Y005957D01*
X004759Y006085D01*
X004858Y006184D01*
X004986Y006237D01*
X005126Y006237D01*
X005254Y006184D01*
X005353Y006085D01*
X005406Y005957D01*
X005406Y005817D01*
X005353Y005689D01*
X005286Y005622D01*
X005286Y004682D01*
X005286Y004492D01*
X004501Y003707D01*
X004501Y003407D01*
X004395Y003302D01*
X003616Y003302D01*
X003536Y003383D01*
X003426Y003337D01*
X003331Y003337D01*
X003451Y003217D01*
X007591Y003217D01*
X007658Y003284D01*
X007786Y003337D01*
X007926Y003337D01*
X008054Y003284D01*
X008153Y003185D01*
X008206Y003057D01*
X008206Y002917D01*
X008153Y002789D01*
X013211Y002789D01*
X013211Y002811D02*
X013211Y002717D01*
X008081Y002717D01*
X008153Y002789D01*
X008206Y002948D02*
X013348Y002948D01*
X013457Y003057D02*
X013211Y002811D01*
X013457Y003057D02*
X013805Y003057D01*
X014051Y002811D01*
X014051Y002463D01*
X013805Y002217D01*
X013457Y002217D01*
X013417Y002257D01*
X013261Y002257D01*
X002220Y002257D01*
X002213Y002240D01*
X002078Y002105D01*
X001901Y002032D01*
X001110Y002032D01*
X000986Y002084D01*
X000986Y001940D01*
X001110Y001992D01*
X001901Y001992D01*
X002078Y001919D01*
X002213Y001784D01*
X002286Y001607D01*
X002286Y001416D01*
X002213Y001240D01*
X002177Y001204D02*
X015396Y001204D01*
X015396Y001363D02*
X015075Y001363D01*
X015176Y001463D02*
X015176Y001637D01*
X015176Y001811D01*
X014930Y002057D01*
X014756Y002057D01*
X014756Y001637D01*
X014756Y001637D01*
X015176Y001637D01*
X014756Y001637D01*
X014756Y001637D01*
X014756Y002057D01*
X014582Y002057D01*
X014336Y001811D01*
X014336Y001637D01*
X014755Y001637D01*
X014755Y001637D01*
X014336Y001637D01*
X014336Y001463D01*
X014582Y001217D01*
X014756Y001217D01*
X014930Y001217D01*
X015176Y001463D01*
X015176Y001521D02*
X015396Y001521D01*
X015396Y001680D02*
X015176Y001680D01*
X015149Y001838D02*
X015396Y001838D01*
X015396Y001997D02*
X014990Y001997D01*
X014756Y001997D02*
X014756Y001997D01*
X014522Y001997D02*
X013865Y001997D01*
X013805Y002057D02*
X013631Y002057D01*
X013631Y001637D01*
X013631Y001637D01*
X014051Y001637D01*
X014051Y001811D01*
X013805Y002057D01*
X013631Y002057D02*
X013457Y002057D01*
X013211Y001811D01*
X013211Y001637D01*
X013630Y001637D01*
X013630Y001637D01*
X013211Y001637D01*
X013211Y001463D01*
X013457Y001217D01*
X013631Y001217D01*
X013805Y001217D01*
X014051Y001463D01*
X014051Y001637D01*
X013631Y001637D01*
X013631Y001637D01*
X013631Y002057D01*
X013631Y001997D02*
X013631Y001997D01*
X013397Y001997D02*
X000986Y001997D01*
X002128Y002155D02*
X015396Y002155D01*
X015396Y002314D02*
X015027Y002314D01*
X014930Y002217D02*
X015176Y002463D01*
X015176Y002811D01*
X014930Y003057D01*
X014582Y003057D01*
X014336Y002811D01*
X014336Y002463D01*
X014582Y002217D01*
X014930Y002217D01*
X015176Y002472D02*
X015396Y002472D01*
X015396Y002631D02*
X015176Y002631D01*
X015176Y002789D02*
X015396Y002789D01*
X015396Y002948D02*
X015039Y002948D01*
X015396Y003107D02*
X013819Y003107D01*
X013914Y002948D02*
X014473Y002948D01*
X014336Y002789D02*
X014051Y002789D01*
X014051Y002631D02*
X014336Y002631D01*
X014336Y002472D02*
X014051Y002472D01*
X013902Y002314D02*
X014485Y002314D01*
X014363Y001838D02*
X014024Y001838D01*
X014051Y001680D02*
X014336Y001680D01*
X014336Y001521D02*
X014051Y001521D01*
X013950Y001363D02*
X014436Y001363D01*
X014756Y001363D02*
X014756Y001363D01*
X014756Y001521D02*
X014756Y001521D01*
X014756Y001636D02*
X014756Y001217D01*
X014756Y001636D01*
X014756Y001636D01*
X014756Y001680D02*
X014756Y001680D01*
X014756Y001838D02*
X014756Y001838D01*
X013631Y001838D02*
X013631Y001838D01*
X013631Y001680D02*
X013631Y001680D01*
X013631Y001636D02*
X013631Y001217D01*
X013631Y001636D01*
X013631Y001636D01*
X013631Y001521D02*
X013631Y001521D01*
X013631Y001363D02*
X013631Y001363D01*
X013311Y001363D02*
X002264Y001363D01*
X002286Y001521D02*
X013211Y001521D01*
X013211Y001680D02*
X002256Y001680D01*
X002158Y001838D02*
X013238Y001838D01*
X013442Y003107D02*
X008185Y003107D01*
X008073Y003265D02*
X013284Y003265D01*
X013211Y003424D02*
X004501Y003424D01*
X004501Y003582D02*
X010256Y003582D01*
X010256Y003741D02*
X004535Y003741D01*
X004693Y003899D02*
X010256Y003899D01*
X010256Y004058D02*
X004852Y004058D01*
X005011Y004216D02*
X010256Y004216D01*
X010256Y004375D02*
X005169Y004375D01*
X005286Y004533D02*
X010256Y004533D01*
X010256Y004692D02*
X005286Y004692D01*
X005286Y004851D02*
X010256Y004851D01*
X010256Y005009D02*
X005286Y005009D01*
X005286Y005168D02*
X010256Y005168D01*
X010256Y005326D02*
X005286Y005326D01*
X005286Y005485D02*
X010256Y005485D01*
X010256Y005643D02*
X005307Y005643D01*
X005399Y005802D02*
X010256Y005802D01*
X010256Y005960D02*
X005404Y005960D01*
X005319Y006119D02*
X010256Y006119D01*
X010256Y006277D02*
X002391Y006277D01*
X002286Y006436D02*
X010256Y006436D01*
X010256Y006594D02*
X002286Y006594D01*
X002226Y006753D02*
X010256Y006753D01*
X004793Y006119D02*
X002549Y006119D01*
X002708Y005960D02*
X004707Y005960D01*
X004712Y005802D02*
X002866Y005802D01*
X003025Y005643D02*
X004805Y005643D01*
X004826Y005485D02*
X003183Y005485D01*
X003342Y005326D02*
X004826Y005326D01*
X004826Y005168D02*
X003500Y005168D01*
X003659Y005009D02*
X004183Y005009D01*
X004106Y004851D02*
X003818Y004851D01*
X004729Y005009D02*
X004826Y005009D01*
X004826Y004851D02*
X004806Y004851D01*
X004795Y004692D02*
X004826Y004692D01*
X002435Y003582D02*
X002281Y003582D01*
X002286Y003550D02*
X002274Y003624D01*
X002251Y003696D01*
X002216Y003763D01*
X002172Y003825D01*
X002119Y003878D01*
X002057Y003922D01*
X001990Y003957D01*
X001918Y003980D01*
X001844Y003992D01*
X001526Y003992D01*
X001526Y003532D01*
X001486Y003532D01*
X001486Y003992D01*
X001168Y003992D01*
X001093Y003980D01*
X001022Y003957D01*
X000986Y003938D01*
X000986Y004084D01*
X001110Y004032D01*
X001901Y004032D01*
X001961Y004057D01*
X003261Y002757D01*
X003451Y002757D01*
X007591Y002757D01*
X007631Y002717D01*
X002241Y002717D01*
X002213Y002784D01*
X002078Y002919D01*
X001901Y002992D01*
X001110Y002992D01*
X000986Y002940D01*
X000986Y003085D01*
X001022Y003067D01*
X001093Y003044D01*
X001168Y003032D01*
X001486Y003032D01*
X001486Y003492D01*
X001526Y003492D01*
X001526Y003532D01*
X002286Y003532D01*
X002286Y003550D01*
X002286Y003492D02*
X001526Y003492D01*
X001526Y003032D01*
X001844Y003032D01*
X001918Y003044D01*
X001990Y003067D01*
X002057Y003101D01*
X002119Y003146D01*
X002172Y003199D01*
X002216Y003260D01*
X002251Y003328D01*
X002274Y003399D01*
X002286Y003474D01*
X002286Y003492D01*
X002278Y003424D02*
X002594Y003424D01*
X002752Y003265D02*
X002219Y003265D01*
X002065Y003107D02*
X002911Y003107D01*
X003070Y002948D02*
X002007Y002948D01*
X002207Y002789D02*
X003228Y002789D01*
X003403Y003265D02*
X007639Y003265D01*
X002277Y003741D02*
X002228Y003741D01*
X002118Y003899D02*
X002089Y003899D01*
X001526Y003899D02*
X001486Y003899D01*
X001486Y003741D02*
X001526Y003741D01*
X001526Y003582D02*
X001486Y003582D01*
X001486Y003424D02*
X001526Y003424D01*
X001526Y003265D02*
X001486Y003265D01*
X001486Y003107D02*
X001526Y003107D01*
X001004Y002948D02*
X000986Y002948D01*
X000986Y004058D02*
X001048Y004058D01*
X013978Y003265D02*
X015396Y003265D01*
X015396Y003424D02*
X014051Y003424D01*
D15*
X013556Y002687D02*
X013631Y002637D01*
X013556Y002687D02*
X013356Y002487D01*
X001556Y002487D01*
X001506Y002512D01*
X003356Y002987D02*
X001856Y004487D01*
X001556Y004487D01*
X001506Y004512D01*
X003356Y003687D02*
X003956Y003687D01*
X004006Y003712D01*
X004056Y003787D01*
X004256Y003787D01*
X005056Y004587D01*
X005056Y005887D01*
X003856Y005887D02*
X003856Y005087D01*
X004456Y004787D02*
X004056Y004387D01*
X004006Y004312D01*
X003956Y004387D01*
X001856Y006487D01*
X001556Y006487D01*
X001506Y006512D01*
X003356Y002987D02*
X007856Y002987D01*
X012956Y005387D02*
X013856Y005387D01*
X014956Y006487D01*
X015006Y006512D01*
X010956Y006787D02*
X010856Y006887D01*
X010256Y006887D01*
X010256Y006903D01*
D16*
X010956Y006787D03*
X012956Y005387D03*
X007856Y002987D03*
X004456Y004787D03*
X003856Y005087D03*
X003856Y005887D03*
X005056Y005887D03*
X003356Y003687D03*
M02*
