G75*
G70*
%OFA0B0*%
%FSLAX24Y24*%
%IPPOS*%
%LPD*%
%AMOC8*
5,1,8,0,0,1.08239X$1,22.5*
%
%ADD10C,0.0000*%
%ADD11C,0.0040*%
%ADD12C,0.0030*%
%ADD13C,0.0050*%
%ADD14C,0.0060*%
%ADD15C,0.0100*%
%ADD16R,0.0200X0.0150*%
D10*
X000756Y000887D02*
X000756Y007133D01*
X015626Y007133D01*
X015626Y000887D01*
X000756Y000887D01*
D11*
X001401Y001532D02*
X001861Y001839D01*
X001401Y001839D01*
X001554Y001992D02*
X001401Y002146D01*
X001554Y002299D01*
X001861Y002299D01*
X001631Y002299D02*
X001631Y001992D01*
X001554Y001992D02*
X001861Y001992D01*
X001861Y001532D02*
X001401Y001532D01*
X001401Y002453D02*
X001554Y002606D01*
X001401Y002760D01*
X001861Y002760D01*
X001861Y002913D02*
X001401Y002913D01*
X001401Y003220D01*
X001631Y003066D02*
X001631Y002913D01*
X001861Y002913D02*
X001861Y003220D01*
X001861Y002453D02*
X001401Y002453D01*
X004526Y003782D02*
X004756Y003782D01*
X004833Y003859D01*
X004833Y003935D01*
X004756Y004012D01*
X004526Y004012D01*
X004756Y004012D02*
X004833Y004089D01*
X004833Y004166D01*
X004756Y004242D01*
X004526Y004242D01*
X004526Y003782D01*
X004986Y003782D02*
X005140Y003782D01*
X005063Y003782D02*
X005063Y004242D01*
X004986Y004242D01*
X005293Y004089D02*
X005293Y003859D01*
X005370Y003782D01*
X005600Y003782D01*
X005600Y004089D01*
X005754Y004012D02*
X005830Y004089D01*
X005984Y004089D01*
X006060Y004012D01*
X006060Y003935D01*
X005754Y003935D01*
X005754Y003859D02*
X005754Y004012D01*
X005754Y003859D02*
X005830Y003782D01*
X005984Y003782D01*
X006214Y003859D02*
X006291Y003782D01*
X006521Y003782D01*
X006521Y003705D02*
X006521Y004089D01*
X006291Y004089D01*
X006214Y004012D01*
X006214Y003859D01*
X006444Y003629D02*
X006521Y003705D01*
X006444Y003629D02*
X006367Y003629D01*
X006674Y003782D02*
X006828Y003782D01*
X006751Y003782D02*
X006751Y004089D01*
X006674Y004089D01*
X006751Y004242D02*
X006751Y004319D01*
X007058Y004089D02*
X006981Y004012D01*
X006981Y003859D01*
X007058Y003782D01*
X007288Y003782D01*
X007288Y003705D02*
X007288Y004089D01*
X007058Y004089D01*
X007441Y003859D02*
X007518Y003935D01*
X007748Y003935D01*
X007748Y004012D02*
X007748Y003782D01*
X007518Y003782D01*
X007441Y003859D01*
X007288Y003705D02*
X007211Y003629D01*
X007135Y003629D01*
X007672Y004089D02*
X007748Y004012D01*
X007672Y004089D02*
X007518Y004089D01*
X008362Y004242D02*
X008362Y003782D01*
X008516Y003935D01*
X008669Y003782D01*
X008669Y004242D01*
X008823Y004242D02*
X009129Y004242D01*
X008976Y004242D02*
X008976Y003782D01*
X009283Y003782D02*
X009590Y003782D01*
X009743Y003782D02*
X010050Y004089D01*
X010050Y004166D01*
X009973Y004242D01*
X009820Y004242D01*
X009743Y004166D01*
X009436Y004242D02*
X009436Y003782D01*
X009743Y003782D02*
X010050Y003782D01*
X009436Y004242D02*
X009283Y004089D01*
X014161Y005314D02*
X014511Y005314D01*
X014511Y005547D01*
X014511Y005673D02*
X014511Y005906D01*
X014511Y005790D02*
X014161Y005790D01*
X014277Y005673D01*
D12*
X014896Y005719D02*
X014896Y005595D01*
X014957Y005534D01*
X015019Y005534D01*
X015081Y005595D01*
X015081Y005719D01*
X015142Y005780D01*
X015204Y005780D01*
X015266Y005719D01*
X015266Y005595D01*
X015204Y005534D01*
X015266Y005412D02*
X015266Y005165D01*
X014896Y005165D01*
X014896Y005412D01*
X015081Y005289D02*
X015081Y005165D01*
X015081Y005044D02*
X014957Y005044D01*
X014896Y004982D01*
X014896Y004797D01*
X015266Y004797D01*
X015142Y004797D02*
X015142Y004982D01*
X015081Y005044D01*
X015142Y004920D02*
X015266Y005044D01*
X014896Y005719D02*
X014957Y005780D01*
X012991Y005770D02*
X012991Y006017D01*
X012991Y005894D02*
X012621Y005894D01*
X012744Y005770D01*
X012991Y005649D02*
X012991Y005402D01*
X012621Y005402D01*
X011787Y004817D02*
X011787Y004527D01*
X011691Y004527D02*
X011884Y004527D01*
X011691Y004720D02*
X011787Y004817D01*
X011589Y004769D02*
X011589Y004720D01*
X011541Y004672D01*
X011589Y004624D01*
X011589Y004575D01*
X011541Y004527D01*
X011444Y004527D01*
X011396Y004575D01*
X011493Y004672D02*
X011541Y004672D01*
X011589Y004769D02*
X011541Y004817D01*
X011444Y004817D01*
X011396Y004769D01*
X011444Y004192D02*
X011541Y004192D01*
X011589Y004144D01*
X011589Y004095D01*
X011541Y004047D01*
X011589Y003999D01*
X011589Y003950D01*
X011541Y003902D01*
X011444Y003902D01*
X011396Y003950D01*
X011493Y004047D02*
X011541Y004047D01*
X011396Y004144D02*
X011444Y004192D01*
X011691Y004144D02*
X011739Y004192D01*
X011836Y004192D01*
X011884Y004144D01*
X011691Y003950D01*
X011739Y003902D01*
X011836Y003902D01*
X011884Y003950D01*
X011884Y004144D01*
X011691Y004144D02*
X011691Y003950D01*
X011739Y003567D02*
X011691Y003519D01*
X011691Y003470D01*
X011739Y003422D01*
X011884Y003422D01*
X011884Y003325D02*
X011884Y003519D01*
X011836Y003567D01*
X011739Y003567D01*
X011589Y003519D02*
X011541Y003567D01*
X011444Y003567D01*
X011396Y003519D01*
X011589Y003519D02*
X011589Y003470D01*
X011396Y003277D01*
X011589Y003277D01*
X011691Y003325D02*
X011739Y003277D01*
X011836Y003277D01*
X011884Y003325D01*
X010711Y002192D02*
X010759Y002144D01*
X010759Y002095D01*
X010711Y002047D01*
X010614Y002047D01*
X010566Y002095D01*
X010566Y002144D01*
X010614Y002192D01*
X010711Y002192D01*
X010464Y002144D02*
X010416Y002192D01*
X010319Y002192D01*
X010271Y002144D01*
X010464Y002144D02*
X010464Y002095D01*
X010271Y001902D01*
X010464Y001902D01*
X010566Y001950D02*
X010566Y001999D01*
X010614Y002047D01*
X010711Y002047D02*
X010759Y001999D01*
X010759Y001950D01*
X010711Y001902D01*
X010614Y001902D01*
X010566Y001950D01*
X012621Y001644D02*
X012991Y001644D01*
X012991Y001767D02*
X012991Y001520D01*
X012929Y001399D02*
X012991Y001337D01*
X012991Y001214D01*
X012929Y001152D01*
X012682Y001152D01*
X012621Y001214D01*
X012621Y001337D01*
X012682Y001399D01*
X012744Y001520D02*
X012621Y001644D01*
X014646Y003339D02*
X014708Y003277D01*
X014831Y003277D01*
X014893Y003339D01*
X015014Y003277D02*
X015261Y003524D01*
X015261Y003586D01*
X015199Y003647D01*
X015076Y003647D01*
X015014Y003586D01*
X014893Y003586D02*
X014831Y003647D01*
X014708Y003647D01*
X014646Y003586D01*
X014646Y003339D01*
X015014Y003277D02*
X015261Y003277D01*
X010589Y005777D02*
X010396Y005777D01*
X010493Y005777D02*
X010493Y006067D01*
X010396Y005970D01*
X003134Y005922D02*
X002941Y005922D01*
X003086Y006067D01*
X003086Y005777D01*
X002839Y005777D02*
X002646Y005777D01*
X002743Y005777D02*
X002743Y006067D01*
X002646Y005970D01*
X002743Y002192D02*
X002743Y001902D01*
X002839Y001902D02*
X002646Y001902D01*
X002941Y001950D02*
X002989Y001902D01*
X003086Y001902D01*
X003134Y001950D01*
X003134Y002047D01*
X003086Y002095D01*
X003037Y002095D01*
X002941Y002047D01*
X002941Y002192D01*
X003134Y002192D01*
X002743Y002192D02*
X002646Y002095D01*
D13*
X002342Y001256D02*
X002342Y006768D01*
X012420Y006768D01*
X012420Y001256D01*
X002342Y001256D01*
X000761Y001157D02*
X000761Y001082D01*
X000686Y001007D01*
X000761Y001157D02*
X000686Y001232D01*
X000311Y001232D01*
X000311Y001157D02*
X000311Y001307D01*
X000311Y001467D02*
X000311Y001692D01*
X000386Y001768D01*
X000536Y001768D01*
X000611Y001692D01*
X000611Y001467D01*
X000761Y001467D02*
X000311Y001467D01*
X000461Y001928D02*
X000311Y002078D01*
X000761Y002078D01*
X000761Y001928D02*
X000761Y002228D01*
X014106Y004381D02*
X014181Y004306D01*
X014256Y004306D01*
X014331Y004381D01*
X014331Y004531D01*
X014406Y004606D01*
X014481Y004606D01*
X014556Y004531D01*
X014556Y004381D01*
X014481Y004306D01*
X014106Y004381D02*
X014106Y004531D01*
X014181Y004606D01*
X014481Y004766D02*
X014556Y004841D01*
X014556Y004916D01*
X014481Y004991D01*
X014106Y004991D01*
X014106Y004916D02*
X014106Y005066D01*
X014256Y005226D02*
X014106Y005377D01*
X014556Y005377D01*
X014556Y005527D02*
X014556Y005226D01*
X014576Y007257D02*
X014651Y007257D01*
X014726Y007332D01*
X014726Y007707D01*
X014651Y007707D02*
X014801Y007707D01*
X014961Y007707D02*
X015186Y007707D01*
X015261Y007632D01*
X015261Y007482D01*
X015186Y007407D01*
X014961Y007407D01*
X014961Y007257D02*
X014961Y007707D01*
X015422Y007632D02*
X015497Y007707D01*
X015647Y007707D01*
X015722Y007632D01*
X015722Y007557D01*
X015422Y007257D01*
X015722Y007257D01*
X014576Y007257D02*
X014501Y007332D01*
X014706Y002902D02*
X014706Y002602D01*
X014706Y002752D02*
X014256Y002752D01*
X014406Y002602D01*
X014331Y002441D02*
X014256Y002366D01*
X014256Y002216D01*
X014331Y002141D01*
X014631Y002141D01*
X014706Y002216D01*
X014706Y002366D01*
X014631Y002441D01*
X015381Y002366D02*
X015381Y002216D01*
X015456Y002141D01*
X015756Y002141D01*
X015831Y002216D01*
X015831Y002366D01*
X015756Y002441D01*
X015831Y002602D02*
X015531Y002902D01*
X015456Y002902D01*
X015381Y002827D01*
X015381Y002677D01*
X015456Y002602D01*
X015456Y002441D02*
X015381Y002366D01*
X015831Y002602D02*
X015831Y002902D01*
D14*
X015256Y002987D02*
X015256Y001287D01*
X015254Y001270D01*
X015250Y001253D01*
X015243Y001237D01*
X015233Y001223D01*
X015220Y001210D01*
X015206Y001200D01*
X015190Y001193D01*
X015173Y001189D01*
X015156Y001187D01*
X014356Y001187D01*
X014339Y001189D01*
X014322Y001193D01*
X014306Y001200D01*
X014292Y001210D01*
X014279Y001223D01*
X014269Y001237D01*
X014262Y001253D01*
X014258Y001270D01*
X014256Y001287D01*
X014256Y002987D01*
X014258Y003004D01*
X014262Y003021D01*
X014269Y003037D01*
X014279Y003051D01*
X014292Y003064D01*
X014306Y003074D01*
X014322Y003081D01*
X014339Y003085D01*
X014356Y003087D01*
X015156Y003087D01*
X015173Y003085D01*
X015190Y003081D01*
X015206Y003074D01*
X015220Y003064D01*
X015233Y003051D01*
X015243Y003037D01*
X015250Y003021D01*
X015254Y003004D01*
X015256Y002987D01*
X014131Y002987D02*
X014131Y001287D01*
X014129Y001270D01*
X014125Y001253D01*
X014118Y001237D01*
X014108Y001223D01*
X014095Y001210D01*
X014081Y001200D01*
X014065Y001193D01*
X014048Y001189D01*
X014031Y001187D01*
X013231Y001187D01*
X013214Y001189D01*
X013197Y001193D01*
X013181Y001200D01*
X013167Y001210D01*
X013154Y001223D01*
X013144Y001237D01*
X013137Y001253D01*
X013133Y001270D01*
X013131Y001287D01*
X013131Y002987D01*
X013133Y003004D01*
X013137Y003021D01*
X013144Y003037D01*
X013154Y003051D01*
X013167Y003064D01*
X013181Y003074D01*
X013197Y003081D01*
X013214Y003085D01*
X013231Y003087D01*
X014031Y003087D01*
X014048Y003085D01*
X014065Y003081D01*
X014081Y003074D01*
X014095Y003064D01*
X014108Y003051D01*
X014118Y003037D01*
X014125Y003021D01*
X014129Y003004D01*
X014131Y002987D01*
X013631Y002287D02*
X013631Y002237D01*
X013631Y002037D02*
X013631Y001987D01*
X014756Y001987D02*
X014756Y002037D01*
X014756Y002237D02*
X014756Y002287D01*
X013931Y004012D02*
X013331Y004012D01*
X013314Y004014D01*
X013297Y004018D01*
X013281Y004025D01*
X013267Y004035D01*
X013254Y004048D01*
X013244Y004062D01*
X013237Y004078D01*
X013233Y004095D01*
X013231Y004112D01*
X013231Y004262D01*
X013281Y004312D01*
X013281Y005712D01*
X013231Y005762D01*
X013231Y005912D01*
X013233Y005929D01*
X013237Y005946D01*
X013244Y005962D01*
X013254Y005976D01*
X013267Y005989D01*
X013281Y005999D01*
X013297Y006006D01*
X013314Y006010D01*
X013331Y006012D01*
X013931Y006012D01*
X013948Y006010D01*
X013965Y006006D01*
X013981Y005999D01*
X013995Y005989D01*
X014008Y005976D01*
X014018Y005962D01*
X014025Y005946D01*
X014029Y005929D01*
X014031Y005912D01*
X014031Y005762D01*
X013981Y005712D01*
X013981Y004312D01*
X014031Y004262D01*
X014031Y004112D01*
X014029Y004095D01*
X014025Y004078D01*
X014018Y004062D01*
X014008Y004048D01*
X013995Y004035D01*
X013981Y004025D01*
X013965Y004018D01*
X013948Y004014D01*
X013931Y004012D01*
X013931Y004362D02*
X013331Y004362D01*
X013314Y004364D01*
X013297Y004368D01*
X013281Y004375D01*
X013267Y004385D01*
X013254Y004398D01*
X013244Y004412D01*
X013237Y004428D01*
X013233Y004445D01*
X013231Y004462D01*
X013231Y005562D01*
X013233Y005579D01*
X013237Y005596D01*
X013244Y005612D01*
X013254Y005626D01*
X013267Y005639D01*
X013281Y005649D01*
X013297Y005656D01*
X013314Y005660D01*
X013331Y005662D01*
X013931Y005662D01*
X013948Y005660D01*
X013965Y005656D01*
X013981Y005649D01*
X013995Y005639D01*
X014008Y005626D01*
X014018Y005612D01*
X014025Y005596D01*
X014029Y005579D01*
X014031Y005562D01*
X014031Y004462D01*
X014029Y004445D01*
X014025Y004428D01*
X014018Y004412D01*
X014008Y004398D01*
X013995Y004385D01*
X013981Y004375D01*
X013965Y004368D01*
X013948Y004364D01*
X013931Y004362D01*
X014756Y006012D02*
X015256Y006012D01*
X015506Y006262D01*
X015506Y006762D01*
X015256Y007012D01*
X014756Y007012D01*
X014506Y006762D01*
X014506Y006262D01*
X014756Y006012D01*
X002006Y005762D02*
X002006Y005262D01*
X001756Y005012D01*
X002006Y004762D01*
X002006Y004262D01*
X001756Y004012D01*
X002006Y003762D01*
X002006Y003262D01*
X001756Y003012D01*
X002006Y002762D01*
X002006Y002262D01*
X001756Y002012D01*
X002006Y001762D01*
X002006Y001262D01*
X001756Y001012D01*
X001256Y001012D01*
X001006Y001262D01*
X001006Y001762D01*
X001256Y002012D01*
X001006Y002262D01*
X001006Y002762D01*
X001256Y003012D01*
X001756Y003012D01*
X001256Y003012D02*
X001006Y003262D01*
X001006Y003762D01*
X001256Y004012D01*
X001006Y004262D01*
X001006Y004762D01*
X001256Y005012D01*
X001006Y005262D01*
X001006Y005762D01*
X001256Y006012D01*
X001006Y006262D01*
X001006Y006762D01*
X001256Y007012D01*
X001756Y007012D01*
X002006Y006762D01*
X002006Y006262D01*
X001756Y006012D01*
X002006Y005762D01*
X001756Y006012D02*
X001256Y006012D01*
X001256Y005012D02*
X001756Y005012D01*
X001756Y004012D02*
X001256Y004012D01*
X001256Y002012D02*
X001756Y002012D01*
D15*
X013331Y002037D02*
X013631Y002037D01*
X013931Y002037D01*
X013931Y002237D02*
X013631Y002237D01*
X013331Y002237D01*
X014456Y002237D02*
X014756Y002237D01*
X015056Y002237D01*
X015056Y002037D02*
X014756Y002037D01*
X014456Y002037D01*
D16*
X013631Y003937D03*
X013631Y006087D03*
M02*
