G75*
%MOIN*%
%OFA0B0*%
%FSLAX24Y24*%
%IPPOS*%
%LPD*%
%AMOC8*
5,1,8,0,0,1.08239X$1,22.5*
%
%ADD10C,0.0058*%
%ADD11R,0.1102X0.0291*%
%ADD12R,0.0354X0.0394*%
%ADD13R,0.0669X0.0315*%
%ADD14R,0.0394X0.0433*%
%ADD15R,0.0472X0.0472*%
%ADD16R,0.0433X0.0394*%
%ADD17R,0.0315X0.0472*%
%ADD18R,0.0217X0.0472*%
%ADD19R,0.0531X0.0157*%
%ADD20R,0.0591X0.0591*%
%ADD21R,0.0630X0.0630*%
%ADD22C,0.0020*%
%ADD23C,0.0335*%
D10*
X005486Y004040D02*
X006530Y004040D01*
X006530Y003808D01*
X005486Y003808D01*
X005486Y004040D01*
X005486Y003865D02*
X006530Y003865D01*
X006530Y003922D02*
X005486Y003922D01*
X005486Y003979D02*
X006530Y003979D01*
X006530Y004036D02*
X005486Y004036D01*
D11*
X006008Y004424D03*
X006008Y004924D03*
X006008Y005424D03*
X006008Y005924D03*
X004410Y005924D03*
X004410Y005424D03*
X004410Y004924D03*
X004410Y004424D03*
X004410Y003924D03*
D12*
X004452Y002839D03*
X004452Y002209D03*
X006066Y002209D03*
X006066Y002839D03*
D13*
X005259Y002997D03*
D14*
X007309Y002990D03*
X007309Y003659D03*
X007309Y004290D03*
X007309Y004959D03*
X007309Y005590D03*
X007309Y006259D03*
X006444Y007424D03*
X005775Y007424D03*
X003309Y006209D03*
X003309Y005540D03*
X003309Y004959D03*
X003309Y004290D03*
X002444Y007424D03*
X001775Y007424D03*
D15*
X002996Y007424D03*
X003823Y007424D03*
X004396Y007424D03*
X005223Y007424D03*
D16*
X002975Y002124D03*
X003644Y002124D03*
X007975Y007624D03*
X008644Y007624D03*
X014375Y008224D03*
X015044Y008224D03*
D17*
X001864Y002324D03*
X001155Y002324D03*
D18*
X002935Y002713D03*
X003683Y002713D03*
X003309Y003736D03*
D19*
X002359Y004313D03*
X002359Y004569D03*
X002359Y004824D03*
X002359Y005080D03*
X002359Y005336D03*
D20*
X001306Y005317D03*
X001306Y004332D03*
D21*
X001306Y003181D03*
X001306Y006468D03*
D22*
X002162Y005781D02*
X002281Y005899D01*
X002442Y005899D01*
X002556Y005785D01*
X002556Y005620D01*
X002442Y005506D01*
X002281Y005506D01*
X002162Y005624D01*
X002162Y005781D01*
X002162Y005780D02*
X002556Y005780D01*
X002556Y005762D02*
X002162Y005762D01*
X002162Y005744D02*
X002556Y005744D01*
X002556Y005725D02*
X002162Y005725D01*
X002162Y005707D02*
X002556Y005707D01*
X002556Y005689D02*
X002162Y005689D01*
X002162Y005671D02*
X002556Y005671D01*
X002556Y005653D02*
X002162Y005653D01*
X002162Y005635D02*
X002556Y005635D01*
X002553Y005616D02*
X002170Y005616D01*
X002188Y005598D02*
X002535Y005598D01*
X002516Y005580D02*
X002206Y005580D01*
X002224Y005562D02*
X002498Y005562D01*
X002480Y005544D02*
X002242Y005544D01*
X002261Y005525D02*
X002462Y005525D01*
X002444Y005507D02*
X002279Y005507D01*
X002179Y005798D02*
X002543Y005798D01*
X002525Y005816D02*
X002198Y005816D01*
X002216Y005835D02*
X002507Y005835D01*
X002488Y005853D02*
X002234Y005853D01*
X002252Y005871D02*
X002470Y005871D01*
X002452Y005889D02*
X002270Y005889D01*
X002281Y004147D02*
X002442Y004147D01*
X002556Y004033D01*
X002556Y003868D01*
X002442Y003754D01*
X002281Y003754D01*
X002162Y003872D01*
X002162Y004029D01*
X002281Y004147D01*
X002277Y004143D02*
X002446Y004143D01*
X002464Y004125D02*
X002258Y004125D01*
X002240Y004107D02*
X002482Y004107D01*
X002500Y004089D02*
X002222Y004089D01*
X002204Y004071D02*
X002519Y004071D01*
X002537Y004052D02*
X002186Y004052D01*
X002167Y004034D02*
X002555Y004034D01*
X002556Y004016D02*
X002162Y004016D01*
X002162Y003998D02*
X002556Y003998D01*
X002556Y003980D02*
X002162Y003980D01*
X002162Y003961D02*
X002556Y003961D01*
X002556Y003943D02*
X002162Y003943D01*
X002162Y003925D02*
X002556Y003925D01*
X002556Y003907D02*
X002162Y003907D01*
X002162Y003889D02*
X002556Y003889D01*
X002556Y003871D02*
X002164Y003871D01*
X002182Y003852D02*
X002541Y003852D01*
X002523Y003834D02*
X002200Y003834D01*
X002218Y003816D02*
X002504Y003816D01*
X002486Y003798D02*
X002236Y003798D01*
X002254Y003780D02*
X002468Y003780D01*
X002450Y003761D02*
X002273Y003761D01*
D23*
X008769Y003604D02*
X008769Y003604D01*
X007923Y003604D01*
X007923Y003604D01*
X008769Y003604D01*
X008769Y004096D02*
X008769Y004096D01*
X007923Y004096D01*
X007923Y004096D01*
X008769Y004096D01*
X008769Y004588D02*
X008769Y004588D01*
X007923Y004588D01*
X007923Y004588D01*
X008769Y004588D01*
X008769Y005080D02*
X008769Y005080D01*
X007923Y005080D01*
X007923Y005080D01*
X008769Y005080D01*
X008769Y005572D02*
X008769Y005572D01*
X007923Y005572D01*
X007923Y005572D01*
X008769Y005572D01*
X008769Y006065D02*
X008769Y006065D01*
X007923Y006065D01*
X007923Y006065D01*
X008769Y006065D01*
X008769Y006557D02*
X008769Y006557D01*
X007923Y006557D01*
X007923Y006557D01*
X008769Y006557D01*
X009212Y006783D02*
X009212Y006783D01*
X009212Y007629D01*
X009212Y007629D01*
X009212Y006783D01*
X009212Y007117D02*
X009212Y007117D01*
X009212Y007451D02*
X009212Y007451D01*
X009705Y006783D02*
X009705Y006783D01*
X009705Y007629D01*
X009705Y007629D01*
X009705Y006783D01*
X009705Y007117D02*
X009705Y007117D01*
X009705Y007451D02*
X009705Y007451D01*
X010197Y006783D02*
X010197Y006783D01*
X010197Y007629D01*
X010197Y007629D01*
X010197Y006783D01*
X010197Y007117D02*
X010197Y007117D01*
X010197Y007451D02*
X010197Y007451D01*
X010689Y006783D02*
X010689Y006783D01*
X010689Y007629D01*
X010689Y007629D01*
X010689Y006783D01*
X010689Y007117D02*
X010689Y007117D01*
X010689Y007451D02*
X010689Y007451D01*
X011181Y006783D02*
X011181Y006783D01*
X011181Y007629D01*
X011181Y007629D01*
X011181Y006783D01*
X011181Y007117D02*
X011181Y007117D01*
X011181Y007451D02*
X011181Y007451D01*
X011673Y006783D02*
X011673Y006783D01*
X011673Y007629D01*
X011673Y007629D01*
X011673Y006783D01*
X011673Y007117D02*
X011673Y007117D01*
X011673Y007451D02*
X011673Y007451D01*
X012165Y006783D02*
X012165Y006783D01*
X012165Y007629D01*
X012165Y007629D01*
X012165Y006783D01*
X012165Y007117D02*
X012165Y007117D01*
X012165Y007451D02*
X012165Y007451D01*
X012657Y006783D02*
X012657Y006783D01*
X012657Y007629D01*
X012657Y007629D01*
X012657Y006783D01*
X012657Y007117D02*
X012657Y007117D01*
X012657Y007451D02*
X012657Y007451D01*
X013149Y006783D02*
X013149Y006783D01*
X013149Y007629D01*
X013149Y007629D01*
X013149Y006783D01*
X013149Y007117D02*
X013149Y007117D01*
X013149Y007451D02*
X013149Y007451D01*
X013642Y006783D02*
X013642Y006783D01*
X013642Y007629D01*
X013642Y007629D01*
X013642Y006783D01*
X013642Y007117D02*
X013642Y007117D01*
X013642Y007451D02*
X013642Y007451D01*
X014134Y006783D02*
X014134Y006783D01*
X014134Y007629D01*
X014134Y007629D01*
X014134Y006783D01*
X014134Y007117D02*
X014134Y007117D01*
X014134Y007451D02*
X014134Y007451D01*
X014626Y006783D02*
X014626Y006783D01*
X014626Y007629D01*
X014626Y007629D01*
X014626Y006783D01*
X014626Y007117D02*
X014626Y007117D01*
X014626Y007451D02*
X014626Y007451D01*
X015118Y006783D02*
X015118Y006783D01*
X015118Y007629D01*
X015118Y007629D01*
X015118Y006783D01*
X015118Y007117D02*
X015118Y007117D01*
X015118Y007451D02*
X015118Y007451D01*
X008769Y003112D02*
X008769Y003112D01*
X007923Y003112D01*
X007923Y003112D01*
X008769Y003112D01*
X009212Y002039D02*
X009212Y002039D01*
X009212Y002885D01*
X009212Y002885D01*
X009212Y002039D01*
X009212Y002373D02*
X009212Y002373D01*
X009212Y002707D02*
X009212Y002707D01*
X009705Y002039D02*
X009705Y002039D01*
X009705Y002885D01*
X009705Y002885D01*
X009705Y002039D01*
X009705Y002373D02*
X009705Y002373D01*
X009705Y002707D02*
X009705Y002707D01*
X010197Y002039D02*
X010197Y002039D01*
X010197Y002885D01*
X010197Y002885D01*
X010197Y002039D01*
X010197Y002373D02*
X010197Y002373D01*
X010197Y002707D02*
X010197Y002707D01*
X010689Y002039D02*
X010689Y002039D01*
X010689Y002885D01*
X010689Y002885D01*
X010689Y002039D01*
X010689Y002373D02*
X010689Y002373D01*
X010689Y002707D02*
X010689Y002707D01*
X011181Y002039D02*
X011181Y002039D01*
X011181Y002885D01*
X011181Y002885D01*
X011181Y002039D01*
X011181Y002373D02*
X011181Y002373D01*
X011181Y002707D02*
X011181Y002707D01*
X011673Y002039D02*
X011673Y002039D01*
X011673Y002885D01*
X011673Y002885D01*
X011673Y002039D01*
X011673Y002373D02*
X011673Y002373D01*
X011673Y002707D02*
X011673Y002707D01*
X012165Y002039D02*
X012165Y002039D01*
X012165Y002885D01*
X012165Y002885D01*
X012165Y002039D01*
X012165Y002373D02*
X012165Y002373D01*
X012165Y002707D02*
X012165Y002707D01*
X012657Y002039D02*
X012657Y002039D01*
X012657Y002885D01*
X012657Y002885D01*
X012657Y002039D01*
X012657Y002373D02*
X012657Y002373D01*
X012657Y002707D02*
X012657Y002707D01*
X013149Y002039D02*
X013149Y002039D01*
X013149Y002885D01*
X013149Y002885D01*
X013149Y002039D01*
X013149Y002373D02*
X013149Y002373D01*
X013149Y002707D02*
X013149Y002707D01*
M02*
