G75*
%MOIN*%
%OFA0B0*%
%FSLAX24Y24*%
%IPPOS*%
%LPD*%
%AMOC8*
5,1,8,0,0,1.08239X$1,22.5*
%
%ADD10C,0.0000*%
%ADD11C,0.0030*%
%ADD12C,0.0160*%
%ADD13C,0.0040*%
%ADD14C,0.0060*%
%ADD15C,0.0050*%
%ADD16R,0.0400X0.0300*%
%ADD17R,0.0400X0.0050*%
%ADD18R,0.0050X0.0250*%
%ADD19C,0.0025*%
D10*
X000509Y000324D02*
X000509Y009324D01*
X015509Y009324D01*
X015509Y000324D01*
X000509Y000324D01*
D11*
X010343Y002489D02*
X010590Y002489D01*
X010343Y002736D01*
X010343Y002798D01*
X010405Y002860D01*
X010529Y002860D01*
X010590Y002798D01*
X010713Y002551D02*
X010713Y002489D01*
X010774Y002489D01*
X010774Y002551D01*
X010713Y002551D01*
X010896Y002489D02*
X011143Y002489D01*
X010896Y002736D01*
X010896Y002798D01*
X010958Y002860D01*
X011081Y002860D01*
X011143Y002798D01*
X011264Y002736D02*
X011388Y002489D01*
X011511Y002736D01*
X012001Y002736D02*
X012063Y002675D01*
X012248Y002675D01*
X012369Y002736D02*
X012431Y002675D01*
X012616Y002675D01*
X012431Y002675D02*
X012369Y002613D01*
X012369Y002551D01*
X012431Y002489D01*
X012616Y002489D01*
X012616Y002860D01*
X012431Y002860D01*
X012369Y002798D01*
X012369Y002736D01*
X012248Y002860D02*
X012063Y002860D01*
X012001Y002798D01*
X012001Y002736D01*
X012063Y002675D02*
X012001Y002613D01*
X012001Y002551D01*
X012063Y002489D01*
X012248Y002489D01*
X012248Y002860D01*
X013106Y002798D02*
X013168Y002860D01*
X013291Y002860D01*
X013353Y002798D01*
X013598Y002860D02*
X013598Y002489D01*
X013721Y002489D02*
X013474Y002489D01*
X013353Y002489D02*
X013106Y002736D01*
X013106Y002798D01*
X013106Y002489D02*
X013353Y002489D01*
X013351Y002136D02*
X013351Y001828D01*
X013413Y001766D01*
X013475Y001766D01*
X013537Y001889D02*
X013351Y001889D01*
X013230Y001889D02*
X013168Y001889D01*
X013168Y001951D01*
X013230Y001951D01*
X013230Y001889D01*
X013046Y001951D02*
X013046Y002075D01*
X012984Y002136D01*
X012799Y002136D01*
X012677Y002075D02*
X012677Y001951D01*
X012616Y001889D01*
X012492Y001889D01*
X012431Y001951D01*
X012431Y002075D01*
X012492Y002136D01*
X012616Y002136D01*
X012677Y002075D01*
X012799Y001889D02*
X012984Y001889D01*
X013046Y001951D01*
X013537Y001889D02*
X013598Y001951D01*
X013598Y002136D01*
X013720Y002075D02*
X013720Y002013D01*
X013967Y002013D01*
X013967Y002075D02*
X013905Y002136D01*
X013781Y002136D01*
X013720Y002075D01*
X013967Y002075D02*
X013967Y001951D01*
X013905Y001889D01*
X013781Y001889D01*
X014088Y001889D02*
X014088Y002075D01*
X014150Y002136D01*
X014335Y002136D01*
X014335Y001889D01*
X014457Y001889D02*
X014519Y001951D01*
X014519Y002198D01*
X014580Y002136D02*
X014457Y002136D01*
X014702Y002075D02*
X014702Y002013D01*
X014949Y002013D01*
X014949Y002075D02*
X014887Y002136D01*
X014764Y002136D01*
X014702Y002075D01*
X014764Y001889D02*
X014887Y001889D01*
X014949Y001951D01*
X014949Y002075D01*
X015071Y002136D02*
X015071Y001828D01*
X015133Y001766D01*
X015194Y001766D01*
X015071Y002260D02*
X015071Y002321D01*
X015009Y002489D02*
X015194Y002489D01*
X015194Y002860D01*
X015009Y002860D01*
X014947Y002798D01*
X014947Y002736D01*
X015009Y002675D01*
X015194Y002675D01*
X015009Y002675D02*
X014947Y002613D01*
X014947Y002551D01*
X015009Y002489D01*
X014826Y002489D02*
X014579Y002489D01*
X014458Y002489D02*
X014211Y002489D01*
X014089Y002489D02*
X013842Y002489D01*
X013966Y002489D02*
X013966Y002860D01*
X014089Y002736D01*
X014211Y002860D02*
X014458Y002860D01*
X014458Y002489D01*
X014458Y002675D02*
X014334Y002675D01*
X014826Y002860D02*
X014826Y002489D01*
X013721Y002736D02*
X013598Y002860D01*
X012309Y002136D02*
X012247Y002136D01*
X012186Y002075D01*
X012124Y002136D01*
X012062Y002075D01*
X012062Y001889D01*
X012186Y001889D02*
X012186Y002075D01*
X012309Y002136D02*
X012309Y001889D01*
D12*
X012509Y001324D02*
X011509Y001324D01*
X011509Y000324D01*
X012509Y000324D01*
X012509Y001324D01*
D13*
X006889Y006678D02*
X006856Y006644D01*
X006789Y006644D01*
X006756Y006678D01*
X006756Y006845D01*
X006668Y006811D02*
X006668Y006778D01*
X006635Y006744D01*
X006568Y006744D01*
X006535Y006711D01*
X006535Y006678D01*
X006568Y006644D01*
X006635Y006644D01*
X006668Y006678D01*
X006668Y006811D02*
X006635Y006845D01*
X006568Y006845D01*
X006535Y006811D01*
X006447Y006845D02*
X006447Y006644D01*
X006447Y006711D02*
X006347Y006711D01*
X006314Y006744D01*
X006314Y006811D01*
X006347Y006845D01*
X006447Y006845D01*
X006381Y006711D02*
X006314Y006644D01*
X006005Y006644D02*
X005872Y006644D01*
X005784Y006644D02*
X005784Y006845D01*
X005651Y006845D01*
X005563Y006845D02*
X005463Y006845D01*
X005430Y006811D01*
X005430Y006678D01*
X005463Y006644D01*
X005563Y006644D01*
X005563Y006845D01*
X005718Y006744D02*
X005784Y006744D01*
X005784Y006644D02*
X005651Y006644D01*
X006005Y006644D02*
X006005Y006845D01*
X006889Y006845D02*
X006889Y006678D01*
X004889Y006711D02*
X004789Y006711D01*
X004756Y006744D01*
X004756Y006811D01*
X004789Y006845D01*
X004889Y006845D01*
X004889Y006644D01*
X004668Y006644D02*
X004668Y006845D01*
X004568Y006845D01*
X004535Y006811D01*
X004535Y006744D01*
X004568Y006711D01*
X004668Y006711D01*
X004602Y006711D02*
X004535Y006644D01*
X004447Y006678D02*
X004414Y006644D01*
X004347Y006644D01*
X004314Y006678D01*
X004314Y006744D01*
X004381Y006744D01*
X004447Y006678D02*
X004447Y006811D01*
X004414Y006845D01*
X004347Y006845D01*
X004314Y006811D01*
X004005Y006845D02*
X004005Y006711D01*
X003939Y006644D01*
X003872Y006711D01*
X003872Y006845D01*
X003784Y006845D02*
X003684Y006845D01*
X003651Y006811D01*
X003651Y006678D01*
X003684Y006644D01*
X003784Y006644D01*
X003784Y006845D01*
X003563Y006845D02*
X003563Y006644D01*
X003463Y006644D01*
X003430Y006678D01*
X003430Y006811D01*
X003463Y006845D01*
X003563Y006845D01*
X002489Y007944D02*
X002489Y008145D01*
X002389Y008145D01*
X002356Y008111D01*
X002356Y008044D01*
X002389Y008011D01*
X002489Y008011D01*
X002268Y007944D02*
X002202Y008011D01*
X002135Y007944D01*
X002135Y008145D01*
X002047Y008145D02*
X001947Y008145D01*
X001914Y008111D01*
X001914Y008044D01*
X001947Y008011D01*
X002047Y008011D01*
X001981Y008011D02*
X001914Y007944D01*
X002047Y007944D02*
X002047Y008145D01*
X002268Y008145D02*
X002268Y007944D01*
X001605Y007944D02*
X001472Y007944D01*
X001384Y007944D02*
X001251Y007944D01*
X001163Y007944D02*
X001063Y007944D01*
X001030Y007978D01*
X001030Y008111D01*
X001063Y008145D01*
X001163Y008145D01*
X001163Y007944D01*
X001318Y008044D02*
X001384Y008044D01*
X001384Y007944D02*
X001384Y008145D01*
X001251Y008145D01*
X001605Y008145D02*
X001605Y007944D01*
X001661Y001705D02*
X001794Y001705D01*
X001727Y001705D02*
X001727Y001504D01*
X001882Y001504D02*
X002015Y001705D01*
X002103Y001705D02*
X002236Y001705D01*
X002236Y001504D01*
X002103Y001504D01*
X002015Y001504D02*
X001882Y001705D01*
X002169Y001604D02*
X002236Y001604D01*
X001352Y001571D02*
X001285Y001504D01*
X001219Y001571D01*
X001219Y001705D01*
X001131Y001705D02*
X001031Y001705D01*
X000998Y001671D01*
X000998Y001538D01*
X001031Y001504D01*
X001131Y001504D01*
X001131Y001705D01*
X000910Y001705D02*
X000810Y001705D01*
X000777Y001671D01*
X000777Y001538D01*
X000810Y001504D01*
X000910Y001504D01*
X000910Y001705D01*
X001352Y001705D02*
X001352Y001571D01*
D14*
X000959Y001824D02*
X002059Y001824D01*
X002076Y001826D01*
X002093Y001830D01*
X002109Y001837D01*
X002123Y001847D01*
X002136Y001860D01*
X002146Y001874D01*
X002153Y001890D01*
X002157Y001907D01*
X002159Y001924D01*
X002159Y002524D01*
X002157Y002541D01*
X002153Y002558D01*
X002146Y002574D01*
X002136Y002588D01*
X002123Y002601D01*
X002109Y002611D01*
X002093Y002618D01*
X002076Y002622D01*
X002059Y002624D01*
X000959Y002624D01*
X000942Y002622D01*
X000925Y002618D01*
X000909Y002611D01*
X000895Y002601D01*
X000882Y002588D01*
X000872Y002574D01*
X000865Y002558D01*
X000861Y002541D01*
X000859Y002524D01*
X000859Y001924D01*
X000861Y001907D01*
X000865Y001890D01*
X000872Y001874D01*
X000882Y001860D01*
X000895Y001847D01*
X000909Y001837D01*
X000925Y001830D01*
X000942Y001826D01*
X000959Y001824D01*
X000909Y002224D02*
X001109Y002224D01*
X001909Y002224D02*
X002109Y002224D01*
X002359Y007024D02*
X001259Y007024D01*
X001242Y007026D01*
X001225Y007030D01*
X001209Y007037D01*
X001195Y007047D01*
X001182Y007060D01*
X001172Y007074D01*
X001165Y007090D01*
X001161Y007107D01*
X001159Y007124D01*
X001159Y007724D01*
X001161Y007741D01*
X001165Y007758D01*
X001172Y007774D01*
X001182Y007788D01*
X001195Y007801D01*
X001209Y007811D01*
X001225Y007818D01*
X001242Y007822D01*
X001259Y007824D01*
X002359Y007824D01*
X002376Y007822D01*
X002393Y007818D01*
X002409Y007811D01*
X002423Y007801D01*
X002436Y007788D01*
X002446Y007774D01*
X002453Y007758D01*
X002457Y007741D01*
X002459Y007724D01*
X002459Y007124D01*
X002457Y007107D01*
X002453Y007090D01*
X002446Y007074D01*
X002436Y007060D01*
X002423Y007047D01*
X002409Y007037D01*
X002393Y007030D01*
X002376Y007026D01*
X002359Y007024D01*
X002409Y007424D02*
X002209Y007424D01*
X001409Y007424D02*
X001209Y007424D01*
X003459Y007124D02*
X003459Y007724D01*
X003461Y007741D01*
X003465Y007758D01*
X003472Y007774D01*
X003482Y007788D01*
X003495Y007801D01*
X003509Y007811D01*
X003525Y007818D01*
X003542Y007822D01*
X003559Y007824D01*
X004659Y007824D01*
X004676Y007822D01*
X004693Y007818D01*
X004709Y007811D01*
X004723Y007801D01*
X004736Y007788D01*
X004746Y007774D01*
X004753Y007758D01*
X004757Y007741D01*
X004759Y007724D01*
X004759Y007124D01*
X004757Y007107D01*
X004753Y007090D01*
X004746Y007074D01*
X004736Y007060D01*
X004723Y007047D01*
X004709Y007037D01*
X004693Y007030D01*
X004676Y007026D01*
X004659Y007024D01*
X003559Y007024D01*
X003542Y007026D01*
X003525Y007030D01*
X003509Y007037D01*
X003495Y007047D01*
X003482Y007060D01*
X003472Y007074D01*
X003465Y007090D01*
X003461Y007107D01*
X003459Y007124D01*
X003509Y007424D02*
X003709Y007424D01*
X004509Y007424D02*
X004709Y007424D01*
X005759Y007724D02*
X005759Y007124D01*
X005761Y007107D01*
X005765Y007090D01*
X005772Y007074D01*
X005782Y007060D01*
X005795Y007047D01*
X005809Y007037D01*
X005825Y007030D01*
X005842Y007026D01*
X005859Y007024D01*
X006959Y007024D01*
X006976Y007026D01*
X006993Y007030D01*
X007009Y007037D01*
X007023Y007047D01*
X007036Y007060D01*
X007046Y007074D01*
X007053Y007090D01*
X007057Y007107D01*
X007059Y007124D01*
X007059Y007724D01*
X007057Y007741D01*
X007053Y007758D01*
X007046Y007774D01*
X007036Y007788D01*
X007023Y007801D01*
X007009Y007811D01*
X006993Y007818D01*
X006976Y007822D01*
X006959Y007824D01*
X005859Y007824D01*
X005842Y007822D01*
X005825Y007818D01*
X005809Y007811D01*
X005795Y007801D01*
X005782Y007788D01*
X005772Y007774D01*
X005765Y007758D01*
X005761Y007741D01*
X005759Y007724D01*
X005809Y007424D02*
X006009Y007424D01*
X006809Y007424D02*
X007009Y007424D01*
X013109Y003814D02*
X013199Y003684D01*
X013149Y003564D01*
X012999Y003534D01*
X012999Y003404D01*
X013139Y003374D01*
X013199Y003244D01*
X013109Y003114D01*
X013199Y003024D01*
X013319Y003104D01*
X013379Y003074D01*
X013469Y003304D01*
X013409Y003274D02*
X013309Y003474D01*
X013409Y003624D01*
X013559Y003674D01*
X013709Y003624D01*
X013759Y003474D01*
X013709Y003324D01*
X013659Y003274D01*
X013759Y003124D01*
X013909Y003074D01*
X013959Y003124D01*
X013859Y003274D01*
X013959Y003424D01*
X014059Y003424D01*
X014059Y003524D01*
X013909Y003524D01*
X013859Y003674D01*
X013959Y003824D01*
X013909Y003874D01*
X013759Y003774D01*
X013609Y003874D01*
X013609Y003974D01*
X013509Y003974D01*
X013459Y003824D01*
X013309Y003774D01*
X013209Y003874D01*
X013159Y003824D01*
X013209Y003674D01*
X013159Y003524D01*
X013009Y003524D01*
X013059Y003424D01*
X013209Y003374D01*
X013209Y003224D01*
X013159Y003124D01*
X013209Y003074D01*
X013309Y003124D01*
X013359Y003124D01*
X013409Y003274D01*
X013401Y003249D02*
X013209Y003249D01*
X013209Y003308D02*
X013392Y003308D01*
X013363Y003366D02*
X013209Y003366D01*
X013334Y003425D02*
X013059Y003425D01*
X013030Y003483D02*
X013315Y003483D01*
X013354Y003542D02*
X013165Y003542D01*
X013185Y003600D02*
X013393Y003600D01*
X013513Y003659D02*
X013204Y003659D01*
X013195Y003717D02*
X013888Y003717D01*
X013899Y003684D02*
X013989Y003814D01*
X013899Y003904D01*
X013769Y003814D01*
X013649Y003864D01*
X013619Y004024D01*
X013489Y004024D01*
X013459Y003864D01*
X013339Y003814D01*
X013199Y003904D01*
X013109Y003814D01*
X013169Y003834D02*
X013249Y003834D01*
X013308Y003776D02*
X013175Y003776D01*
X013314Y003776D02*
X013757Y003776D01*
X013762Y003776D02*
X013927Y003776D01*
X013949Y003834D02*
X013849Y003834D01*
X013899Y003684D02*
X013959Y003554D01*
X014109Y003534D01*
X014109Y003404D01*
X013959Y003374D01*
X013909Y003244D01*
X013989Y003114D01*
X013899Y003024D01*
X013779Y003104D01*
X013729Y003074D01*
X013629Y003304D01*
X013693Y003308D02*
X013882Y003308D01*
X013876Y003249D02*
X013676Y003249D01*
X013715Y003191D02*
X013915Y003191D01*
X013954Y003132D02*
X013754Y003132D01*
X013723Y003366D02*
X013921Y003366D01*
X014059Y003425D02*
X013743Y003425D01*
X013756Y003483D02*
X014059Y003483D01*
X013903Y003542D02*
X013737Y003542D01*
X013717Y003600D02*
X013884Y003600D01*
X013864Y003659D02*
X013606Y003659D01*
X013669Y003834D02*
X013463Y003834D01*
X013482Y003893D02*
X013609Y003893D01*
X013609Y003951D02*
X013502Y003951D01*
X013469Y003304D02*
X013447Y003317D01*
X013427Y003333D01*
X013409Y003352D01*
X013394Y003374D01*
X013383Y003397D01*
X013375Y003422D01*
X013371Y003447D01*
X013370Y003473D01*
X013373Y003499D01*
X013380Y003524D01*
X013391Y003547D01*
X013404Y003569D01*
X013421Y003589D01*
X013440Y003606D01*
X013462Y003621D01*
X013486Y003631D01*
X013510Y003639D01*
X013536Y003643D01*
X013562Y003643D01*
X013588Y003639D01*
X013612Y003631D01*
X013636Y003621D01*
X013658Y003606D01*
X013677Y003589D01*
X013694Y003569D01*
X013707Y003547D01*
X013718Y003524D01*
X013725Y003499D01*
X013728Y003473D01*
X013727Y003447D01*
X013723Y003422D01*
X013715Y003397D01*
X013704Y003374D01*
X013689Y003352D01*
X013671Y003333D01*
X013651Y003317D01*
X013629Y003304D01*
X013381Y003191D02*
X013193Y003191D01*
X013163Y003132D02*
X013362Y003132D01*
D15*
X006533Y007151D02*
X006510Y007424D01*
X006510Y007424D01*
X006533Y007697D01*
X006534Y007698D01*
X006566Y007693D01*
X006598Y007684D01*
X006628Y007672D01*
X006656Y007656D01*
X006683Y007637D01*
X006707Y007615D01*
X006728Y007591D01*
X006746Y007564D01*
X006761Y007535D01*
X006772Y007504D01*
X006780Y007473D01*
X006784Y007440D01*
X006784Y007408D01*
X006780Y007375D01*
X006772Y007344D01*
X006761Y007313D01*
X006746Y007284D01*
X006728Y007257D01*
X006707Y007233D01*
X006683Y007211D01*
X006656Y007192D01*
X006628Y007176D01*
X006598Y007164D01*
X006566Y007155D01*
X006534Y007150D01*
X006534Y007197D01*
X006562Y007202D01*
X006590Y007211D01*
X006616Y007223D01*
X006641Y007238D01*
X006664Y007256D01*
X006684Y007277D01*
X006701Y007301D01*
X006715Y007326D01*
X006726Y007353D01*
X006733Y007381D01*
X006737Y007410D01*
X006737Y007438D01*
X006733Y007467D01*
X006726Y007495D01*
X006715Y007522D01*
X006701Y007547D01*
X006684Y007571D01*
X006664Y007592D01*
X006641Y007610D01*
X006616Y007625D01*
X006590Y007637D01*
X006562Y007646D01*
X006534Y007651D01*
X006534Y007603D01*
X006559Y007598D01*
X006584Y007589D01*
X006606Y007577D01*
X006627Y007561D01*
X006646Y007543D01*
X006661Y007522D01*
X006674Y007499D01*
X006683Y007475D01*
X006688Y007450D01*
X006690Y007424D01*
X006688Y007398D01*
X006683Y007373D01*
X006674Y007349D01*
X006661Y007326D01*
X006646Y007305D01*
X006627Y007287D01*
X006606Y007271D01*
X006584Y007259D01*
X006559Y007250D01*
X006534Y007245D01*
X006534Y007292D01*
X006555Y007298D01*
X006575Y007307D01*
X006593Y007319D01*
X006609Y007334D01*
X006622Y007352D01*
X006632Y007371D01*
X006639Y007392D01*
X006643Y007413D01*
X006643Y007435D01*
X006639Y007456D01*
X006632Y007477D01*
X006622Y007496D01*
X006609Y007514D01*
X006593Y007529D01*
X006575Y007541D01*
X006555Y007550D01*
X006534Y007556D01*
X006534Y007507D01*
X006550Y007501D01*
X006564Y007492D01*
X006576Y007479D01*
X006586Y007465D01*
X006592Y007449D01*
X006596Y007433D01*
X006596Y007415D01*
X006592Y007399D01*
X006586Y007383D01*
X006576Y007369D01*
X006564Y007356D01*
X006550Y007347D01*
X006534Y007341D01*
X006532Y007392D01*
X006540Y007399D01*
X006546Y007408D01*
X006549Y007419D01*
X006549Y007429D01*
X006546Y007440D01*
X006540Y007449D01*
X006532Y007456D01*
X006285Y007697D02*
X006308Y007424D01*
X006308Y007424D01*
X006285Y007151D01*
X006284Y007150D01*
X006252Y007155D01*
X006220Y007164D01*
X006190Y007176D01*
X006162Y007192D01*
X006135Y007211D01*
X006111Y007233D01*
X006090Y007257D01*
X006072Y007284D01*
X006057Y007313D01*
X006046Y007344D01*
X006038Y007375D01*
X006034Y007408D01*
X006034Y007440D01*
X006038Y007473D01*
X006046Y007504D01*
X006057Y007535D01*
X006072Y007564D01*
X006090Y007591D01*
X006111Y007615D01*
X006135Y007637D01*
X006162Y007656D01*
X006190Y007672D01*
X006220Y007684D01*
X006252Y007693D01*
X006284Y007698D01*
X006284Y007651D01*
X006256Y007646D01*
X006228Y007637D01*
X006202Y007625D01*
X006177Y007610D01*
X006154Y007592D01*
X006134Y007571D01*
X006117Y007547D01*
X006103Y007522D01*
X006092Y007495D01*
X006085Y007467D01*
X006081Y007438D01*
X006081Y007410D01*
X006085Y007381D01*
X006092Y007353D01*
X006103Y007326D01*
X006117Y007301D01*
X006134Y007277D01*
X006154Y007256D01*
X006177Y007238D01*
X006202Y007223D01*
X006228Y007211D01*
X006256Y007202D01*
X006284Y007197D01*
X006284Y007245D01*
X006259Y007250D01*
X006234Y007259D01*
X006212Y007271D01*
X006191Y007287D01*
X006172Y007305D01*
X006157Y007326D01*
X006144Y007349D01*
X006135Y007373D01*
X006130Y007398D01*
X006128Y007424D01*
X006130Y007450D01*
X006135Y007475D01*
X006144Y007499D01*
X006157Y007522D01*
X006172Y007543D01*
X006191Y007561D01*
X006212Y007577D01*
X006234Y007589D01*
X006259Y007598D01*
X006284Y007603D01*
X006284Y007556D01*
X006263Y007550D01*
X006243Y007541D01*
X006225Y007529D01*
X006209Y007514D01*
X006196Y007496D01*
X006186Y007477D01*
X006179Y007456D01*
X006175Y007435D01*
X006175Y007413D01*
X006179Y007392D01*
X006186Y007371D01*
X006196Y007352D01*
X006209Y007334D01*
X006225Y007319D01*
X006243Y007307D01*
X006263Y007298D01*
X006284Y007292D01*
X006284Y007341D01*
X006268Y007347D01*
X006254Y007356D01*
X006242Y007369D01*
X006232Y007383D01*
X006226Y007399D01*
X006222Y007415D01*
X006222Y007433D01*
X006226Y007449D01*
X006232Y007465D01*
X006242Y007479D01*
X006254Y007492D01*
X006268Y007501D01*
X006284Y007507D01*
X006286Y007456D01*
X006278Y007449D01*
X006272Y007440D01*
X006269Y007429D01*
X006269Y007419D01*
X006272Y007408D01*
X006278Y007399D01*
X006286Y007392D01*
X004233Y007151D02*
X004210Y007424D01*
X004210Y007424D01*
X004233Y007697D01*
X004234Y007698D01*
X004266Y007693D01*
X004298Y007684D01*
X004328Y007672D01*
X004356Y007656D01*
X004383Y007637D01*
X004407Y007615D01*
X004428Y007591D01*
X004446Y007564D01*
X004461Y007535D01*
X004472Y007504D01*
X004480Y007473D01*
X004484Y007440D01*
X004484Y007408D01*
X004480Y007375D01*
X004472Y007344D01*
X004461Y007313D01*
X004446Y007284D01*
X004428Y007257D01*
X004407Y007233D01*
X004383Y007211D01*
X004356Y007192D01*
X004328Y007176D01*
X004298Y007164D01*
X004266Y007155D01*
X004234Y007150D01*
X004234Y007197D01*
X004262Y007202D01*
X004290Y007211D01*
X004316Y007223D01*
X004341Y007238D01*
X004364Y007256D01*
X004384Y007277D01*
X004401Y007301D01*
X004415Y007326D01*
X004426Y007353D01*
X004433Y007381D01*
X004437Y007410D01*
X004437Y007438D01*
X004433Y007467D01*
X004426Y007495D01*
X004415Y007522D01*
X004401Y007547D01*
X004384Y007571D01*
X004364Y007592D01*
X004341Y007610D01*
X004316Y007625D01*
X004290Y007637D01*
X004262Y007646D01*
X004234Y007651D01*
X004234Y007603D01*
X004259Y007598D01*
X004284Y007589D01*
X004306Y007577D01*
X004327Y007561D01*
X004346Y007543D01*
X004361Y007522D01*
X004374Y007499D01*
X004383Y007475D01*
X004388Y007450D01*
X004390Y007424D01*
X004388Y007398D01*
X004383Y007373D01*
X004374Y007349D01*
X004361Y007326D01*
X004346Y007305D01*
X004327Y007287D01*
X004306Y007271D01*
X004284Y007259D01*
X004259Y007250D01*
X004234Y007245D01*
X004234Y007292D01*
X004255Y007298D01*
X004275Y007307D01*
X004293Y007319D01*
X004309Y007334D01*
X004322Y007352D01*
X004332Y007371D01*
X004339Y007392D01*
X004343Y007413D01*
X004343Y007435D01*
X004339Y007456D01*
X004332Y007477D01*
X004322Y007496D01*
X004309Y007514D01*
X004293Y007529D01*
X004275Y007541D01*
X004255Y007550D01*
X004234Y007556D01*
X004234Y007507D01*
X004250Y007501D01*
X004264Y007492D01*
X004276Y007479D01*
X004286Y007465D01*
X004292Y007449D01*
X004296Y007433D01*
X004296Y007415D01*
X004292Y007399D01*
X004286Y007383D01*
X004276Y007369D01*
X004264Y007356D01*
X004250Y007347D01*
X004234Y007341D01*
X004232Y007392D01*
X004240Y007399D01*
X004246Y007408D01*
X004249Y007419D01*
X004249Y007429D01*
X004246Y007440D01*
X004240Y007449D01*
X004232Y007456D01*
X003985Y007697D02*
X004008Y007424D01*
X004008Y007424D01*
X003985Y007151D01*
X003984Y007150D01*
X003952Y007155D01*
X003920Y007164D01*
X003890Y007176D01*
X003862Y007192D01*
X003835Y007211D01*
X003811Y007233D01*
X003790Y007257D01*
X003772Y007284D01*
X003757Y007313D01*
X003746Y007344D01*
X003738Y007375D01*
X003734Y007408D01*
X003734Y007440D01*
X003738Y007473D01*
X003746Y007504D01*
X003757Y007535D01*
X003772Y007564D01*
X003790Y007591D01*
X003811Y007615D01*
X003835Y007637D01*
X003862Y007656D01*
X003890Y007672D01*
X003920Y007684D01*
X003952Y007693D01*
X003984Y007698D01*
X003984Y007651D01*
X003956Y007646D01*
X003928Y007637D01*
X003902Y007625D01*
X003877Y007610D01*
X003854Y007592D01*
X003834Y007571D01*
X003817Y007547D01*
X003803Y007522D01*
X003792Y007495D01*
X003785Y007467D01*
X003781Y007438D01*
X003781Y007410D01*
X003785Y007381D01*
X003792Y007353D01*
X003803Y007326D01*
X003817Y007301D01*
X003834Y007277D01*
X003854Y007256D01*
X003877Y007238D01*
X003902Y007223D01*
X003928Y007211D01*
X003956Y007202D01*
X003984Y007197D01*
X003984Y007245D01*
X003959Y007250D01*
X003934Y007259D01*
X003912Y007271D01*
X003891Y007287D01*
X003872Y007305D01*
X003857Y007326D01*
X003844Y007349D01*
X003835Y007373D01*
X003830Y007398D01*
X003828Y007424D01*
X003830Y007450D01*
X003835Y007475D01*
X003844Y007499D01*
X003857Y007522D01*
X003872Y007543D01*
X003891Y007561D01*
X003912Y007577D01*
X003934Y007589D01*
X003959Y007598D01*
X003984Y007603D01*
X003984Y007556D01*
X003963Y007550D01*
X003943Y007541D01*
X003925Y007529D01*
X003909Y007514D01*
X003896Y007496D01*
X003886Y007477D01*
X003879Y007456D01*
X003875Y007435D01*
X003875Y007413D01*
X003879Y007392D01*
X003886Y007371D01*
X003896Y007352D01*
X003909Y007334D01*
X003925Y007319D01*
X003943Y007307D01*
X003963Y007298D01*
X003984Y007292D01*
X003984Y007341D01*
X003968Y007347D01*
X003954Y007356D01*
X003942Y007369D01*
X003932Y007383D01*
X003926Y007399D01*
X003922Y007415D01*
X003922Y007433D01*
X003926Y007449D01*
X003932Y007465D01*
X003942Y007479D01*
X003954Y007492D01*
X003968Y007501D01*
X003984Y007507D01*
X003986Y007456D01*
X003978Y007449D01*
X003972Y007440D01*
X003969Y007429D01*
X003969Y007419D01*
X003972Y007408D01*
X003978Y007399D01*
X003986Y007392D01*
X001933Y007151D02*
X001910Y007424D01*
X001910Y007424D01*
X001933Y007697D01*
X001934Y007698D01*
X001966Y007693D01*
X001998Y007684D01*
X002028Y007672D01*
X002056Y007656D01*
X002083Y007637D01*
X002107Y007615D01*
X002128Y007591D01*
X002146Y007564D01*
X002161Y007535D01*
X002172Y007504D01*
X002180Y007473D01*
X002184Y007440D01*
X002184Y007408D01*
X002180Y007375D01*
X002172Y007344D01*
X002161Y007313D01*
X002146Y007284D01*
X002128Y007257D01*
X002107Y007233D01*
X002083Y007211D01*
X002056Y007192D01*
X002028Y007176D01*
X001998Y007164D01*
X001966Y007155D01*
X001934Y007150D01*
X001934Y007197D01*
X001962Y007202D01*
X001990Y007211D01*
X002016Y007223D01*
X002041Y007238D01*
X002064Y007256D01*
X002084Y007277D01*
X002101Y007301D01*
X002115Y007326D01*
X002126Y007353D01*
X002133Y007381D01*
X002137Y007410D01*
X002137Y007438D01*
X002133Y007467D01*
X002126Y007495D01*
X002115Y007522D01*
X002101Y007547D01*
X002084Y007571D01*
X002064Y007592D01*
X002041Y007610D01*
X002016Y007625D01*
X001990Y007637D01*
X001962Y007646D01*
X001934Y007651D01*
X001934Y007603D01*
X001959Y007598D01*
X001984Y007589D01*
X002006Y007577D01*
X002027Y007561D01*
X002046Y007543D01*
X002061Y007522D01*
X002074Y007499D01*
X002083Y007475D01*
X002088Y007450D01*
X002090Y007424D01*
X002088Y007398D01*
X002083Y007373D01*
X002074Y007349D01*
X002061Y007326D01*
X002046Y007305D01*
X002027Y007287D01*
X002006Y007271D01*
X001984Y007259D01*
X001959Y007250D01*
X001934Y007245D01*
X001934Y007292D01*
X001955Y007298D01*
X001975Y007307D01*
X001993Y007319D01*
X002009Y007334D01*
X002022Y007352D01*
X002032Y007371D01*
X002039Y007392D01*
X002043Y007413D01*
X002043Y007435D01*
X002039Y007456D01*
X002032Y007477D01*
X002022Y007496D01*
X002009Y007514D01*
X001993Y007529D01*
X001975Y007541D01*
X001955Y007550D01*
X001934Y007556D01*
X001934Y007507D01*
X001950Y007501D01*
X001964Y007492D01*
X001976Y007479D01*
X001986Y007465D01*
X001992Y007449D01*
X001996Y007433D01*
X001996Y007415D01*
X001992Y007399D01*
X001986Y007383D01*
X001976Y007369D01*
X001964Y007356D01*
X001950Y007347D01*
X001934Y007341D01*
X001932Y007392D01*
X001940Y007399D01*
X001946Y007408D01*
X001949Y007419D01*
X001949Y007429D01*
X001946Y007440D01*
X001940Y007449D01*
X001932Y007456D01*
X001685Y007697D02*
X001708Y007424D01*
X001708Y007424D01*
X001685Y007151D01*
X001684Y007150D01*
X001652Y007155D01*
X001620Y007164D01*
X001590Y007176D01*
X001562Y007192D01*
X001535Y007211D01*
X001511Y007233D01*
X001490Y007257D01*
X001472Y007284D01*
X001457Y007313D01*
X001446Y007344D01*
X001438Y007375D01*
X001434Y007408D01*
X001434Y007440D01*
X001438Y007473D01*
X001446Y007504D01*
X001457Y007535D01*
X001472Y007564D01*
X001490Y007591D01*
X001511Y007615D01*
X001535Y007637D01*
X001562Y007656D01*
X001590Y007672D01*
X001620Y007684D01*
X001652Y007693D01*
X001684Y007698D01*
X001684Y007651D01*
X001656Y007646D01*
X001628Y007637D01*
X001602Y007625D01*
X001577Y007610D01*
X001554Y007592D01*
X001534Y007571D01*
X001517Y007547D01*
X001503Y007522D01*
X001492Y007495D01*
X001485Y007467D01*
X001481Y007438D01*
X001481Y007410D01*
X001485Y007381D01*
X001492Y007353D01*
X001503Y007326D01*
X001517Y007301D01*
X001534Y007277D01*
X001554Y007256D01*
X001577Y007238D01*
X001602Y007223D01*
X001628Y007211D01*
X001656Y007202D01*
X001684Y007197D01*
X001684Y007245D01*
X001659Y007250D01*
X001634Y007259D01*
X001612Y007271D01*
X001591Y007287D01*
X001572Y007305D01*
X001557Y007326D01*
X001544Y007349D01*
X001535Y007373D01*
X001530Y007398D01*
X001528Y007424D01*
X001530Y007450D01*
X001535Y007475D01*
X001544Y007499D01*
X001557Y007522D01*
X001572Y007543D01*
X001591Y007561D01*
X001612Y007577D01*
X001634Y007589D01*
X001659Y007598D01*
X001684Y007603D01*
X001684Y007556D01*
X001663Y007550D01*
X001643Y007541D01*
X001625Y007529D01*
X001609Y007514D01*
X001596Y007496D01*
X001586Y007477D01*
X001579Y007456D01*
X001575Y007435D01*
X001575Y007413D01*
X001579Y007392D01*
X001586Y007371D01*
X001596Y007352D01*
X001609Y007334D01*
X001625Y007319D01*
X001643Y007307D01*
X001663Y007298D01*
X001684Y007292D01*
X001684Y007341D01*
X001668Y007347D01*
X001654Y007356D01*
X001642Y007369D01*
X001632Y007383D01*
X001626Y007399D01*
X001622Y007415D01*
X001622Y007433D01*
X001626Y007449D01*
X001632Y007465D01*
X001642Y007479D01*
X001654Y007492D01*
X001668Y007501D01*
X001684Y007507D01*
X001686Y007456D01*
X001678Y007449D01*
X001672Y007440D01*
X001669Y007429D01*
X001669Y007419D01*
X001672Y007408D01*
X001678Y007399D01*
X001686Y007392D01*
X001633Y001951D02*
X001610Y002224D01*
X001610Y002224D01*
X001633Y002497D01*
X001634Y002498D01*
X001666Y002493D01*
X001698Y002484D01*
X001728Y002472D01*
X001756Y002456D01*
X001783Y002437D01*
X001807Y002415D01*
X001828Y002391D01*
X001846Y002364D01*
X001861Y002335D01*
X001872Y002304D01*
X001880Y002273D01*
X001884Y002240D01*
X001884Y002208D01*
X001880Y002175D01*
X001872Y002144D01*
X001861Y002113D01*
X001846Y002084D01*
X001828Y002057D01*
X001807Y002033D01*
X001783Y002011D01*
X001756Y001992D01*
X001728Y001976D01*
X001698Y001964D01*
X001666Y001955D01*
X001634Y001950D01*
X001634Y001997D01*
X001662Y002002D01*
X001690Y002011D01*
X001716Y002023D01*
X001741Y002038D01*
X001764Y002056D01*
X001784Y002077D01*
X001801Y002101D01*
X001815Y002126D01*
X001826Y002153D01*
X001833Y002181D01*
X001837Y002210D01*
X001837Y002238D01*
X001833Y002267D01*
X001826Y002295D01*
X001815Y002322D01*
X001801Y002347D01*
X001784Y002371D01*
X001764Y002392D01*
X001741Y002410D01*
X001716Y002425D01*
X001690Y002437D01*
X001662Y002446D01*
X001634Y002451D01*
X001634Y002403D01*
X001659Y002398D01*
X001684Y002389D01*
X001706Y002377D01*
X001727Y002361D01*
X001746Y002343D01*
X001761Y002322D01*
X001774Y002299D01*
X001783Y002275D01*
X001788Y002250D01*
X001790Y002224D01*
X001788Y002198D01*
X001783Y002173D01*
X001774Y002149D01*
X001761Y002126D01*
X001746Y002105D01*
X001727Y002087D01*
X001706Y002071D01*
X001684Y002059D01*
X001659Y002050D01*
X001634Y002045D01*
X001634Y002092D01*
X001655Y002098D01*
X001675Y002107D01*
X001693Y002119D01*
X001709Y002134D01*
X001722Y002152D01*
X001732Y002171D01*
X001739Y002192D01*
X001743Y002213D01*
X001743Y002235D01*
X001739Y002256D01*
X001732Y002277D01*
X001722Y002296D01*
X001709Y002314D01*
X001693Y002329D01*
X001675Y002341D01*
X001655Y002350D01*
X001634Y002356D01*
X001634Y002307D01*
X001650Y002301D01*
X001664Y002292D01*
X001676Y002279D01*
X001686Y002265D01*
X001692Y002249D01*
X001696Y002233D01*
X001696Y002215D01*
X001692Y002199D01*
X001686Y002183D01*
X001676Y002169D01*
X001664Y002156D01*
X001650Y002147D01*
X001634Y002141D01*
X001632Y002192D01*
X001640Y002199D01*
X001646Y002208D01*
X001649Y002219D01*
X001649Y002229D01*
X001646Y002240D01*
X001640Y002249D01*
X001632Y002256D01*
X001385Y002497D02*
X001408Y002224D01*
X001408Y002224D01*
X001385Y001951D01*
X001384Y001950D01*
X001352Y001955D01*
X001320Y001964D01*
X001290Y001976D01*
X001262Y001992D01*
X001235Y002011D01*
X001211Y002033D01*
X001190Y002057D01*
X001172Y002084D01*
X001157Y002113D01*
X001146Y002144D01*
X001138Y002175D01*
X001134Y002208D01*
X001134Y002240D01*
X001138Y002273D01*
X001146Y002304D01*
X001157Y002335D01*
X001172Y002364D01*
X001190Y002391D01*
X001211Y002415D01*
X001235Y002437D01*
X001262Y002456D01*
X001290Y002472D01*
X001320Y002484D01*
X001352Y002493D01*
X001384Y002498D01*
X001384Y002451D01*
X001356Y002446D01*
X001328Y002437D01*
X001302Y002425D01*
X001277Y002410D01*
X001254Y002392D01*
X001234Y002371D01*
X001217Y002347D01*
X001203Y002322D01*
X001192Y002295D01*
X001185Y002267D01*
X001181Y002238D01*
X001181Y002210D01*
X001185Y002181D01*
X001192Y002153D01*
X001203Y002126D01*
X001217Y002101D01*
X001234Y002077D01*
X001254Y002056D01*
X001277Y002038D01*
X001302Y002023D01*
X001328Y002011D01*
X001356Y002002D01*
X001384Y001997D01*
X001384Y002045D01*
X001359Y002050D01*
X001334Y002059D01*
X001312Y002071D01*
X001291Y002087D01*
X001272Y002105D01*
X001257Y002126D01*
X001244Y002149D01*
X001235Y002173D01*
X001230Y002198D01*
X001228Y002224D01*
X001230Y002250D01*
X001235Y002275D01*
X001244Y002299D01*
X001257Y002322D01*
X001272Y002343D01*
X001291Y002361D01*
X001312Y002377D01*
X001334Y002389D01*
X001359Y002398D01*
X001384Y002403D01*
X001384Y002356D01*
X001363Y002350D01*
X001343Y002341D01*
X001325Y002329D01*
X001309Y002314D01*
X001296Y002296D01*
X001286Y002277D01*
X001279Y002256D01*
X001275Y002235D01*
X001275Y002213D01*
X001279Y002192D01*
X001286Y002171D01*
X001296Y002152D01*
X001309Y002134D01*
X001325Y002119D01*
X001343Y002107D01*
X001363Y002098D01*
X001384Y002092D01*
X001384Y002141D01*
X001368Y002147D01*
X001354Y002156D01*
X001342Y002169D01*
X001332Y002183D01*
X001326Y002199D01*
X001322Y002215D01*
X001322Y002233D01*
X001326Y002249D01*
X001332Y002265D01*
X001342Y002279D01*
X001354Y002292D01*
X001368Y002301D01*
X001384Y002307D01*
X001386Y002256D01*
X001378Y002249D01*
X001372Y002240D01*
X001369Y002229D01*
X001369Y002219D01*
X001372Y002208D01*
X001378Y002199D01*
X001386Y002192D01*
D16*
X014509Y003174D03*
X015009Y003174D03*
X014509Y003574D03*
D17*
X014509Y003849D03*
D18*
X014334Y003999D03*
D19*
X014359Y004024D02*
X014459Y003874D01*
X014659Y004174D01*
X014759Y004024D01*
X014659Y003874D01*
X014459Y004174D01*
X014359Y004024D01*
X014359Y004174D01*
X014559Y003874D01*
X014759Y004174D01*
X014759Y004024D01*
X014759Y003874D01*
X014559Y004174D01*
X014359Y003874D01*
X014459Y003874D01*
X014559Y003874D01*
X014659Y003874D01*
X014759Y003874D01*
X014359Y003874D02*
X014359Y004024D01*
X014359Y004174D02*
X014459Y004174D01*
X014559Y004174D01*
X014659Y004174D01*
X014759Y004174D01*
M02*
