G75*
%MOIN*%
%OFA0B0*%
%FSLAX24Y24*%
%IPPOS*%
%LPD*%
%AMOC8*
5,1,8,0,0,1.08239X$1,22.5*
%
%ADD10R,0.0460X0.0630*%
%ADD11OC8,0.0394*%
%ADD12R,0.0650X0.0650*%
%ADD13OC8,0.0700*%
%ADD14C,0.0160*%
%ADD15C,0.0100*%
%ADD16C,0.0270*%
%ADD17C,0.0060*%
D10*
X001209Y002224D03*
X001809Y002224D03*
X001509Y007424D03*
X002109Y007424D03*
X003809Y007424D03*
X004409Y007424D03*
X006109Y007424D03*
X006709Y007424D03*
D11*
X002359Y005700D03*
X002359Y003948D03*
D12*
X001306Y003181D03*
X001306Y006468D03*
D13*
X001009Y000824D03*
X002009Y000824D03*
X003009Y000824D03*
X004009Y000824D03*
X005009Y000824D03*
X006009Y000824D03*
X007009Y000824D03*
X008009Y000824D03*
X009009Y000824D03*
X010009Y000824D03*
X011009Y000824D03*
X012009Y000824D03*
X012009Y008824D03*
X011009Y008824D03*
X010009Y008824D03*
X009009Y008824D03*
X008009Y008824D03*
X007009Y008824D03*
X006009Y008824D03*
X005009Y008824D03*
X004009Y008824D03*
X003009Y008824D03*
X002009Y008824D03*
X001009Y008824D03*
X013009Y008824D03*
D14*
X013432Y009094D02*
X015279Y009094D01*
X015279Y004904D01*
X013451Y004904D01*
X013404Y004858D01*
X013404Y000554D01*
X012489Y000554D01*
X012539Y000605D01*
X012539Y000804D01*
X012029Y000804D01*
X012029Y000844D01*
X012539Y000844D01*
X012539Y001044D01*
X012229Y001354D01*
X012029Y001354D01*
X012029Y000844D01*
X011989Y000844D01*
X011989Y001354D01*
X011790Y001354D01*
X011481Y001046D01*
X011212Y001314D01*
X011199Y001314D01*
X011199Y003726D01*
X011242Y003769D01*
X011284Y003870D01*
X011284Y003979D01*
X011242Y004080D01*
X011165Y004158D01*
X011064Y004199D01*
X010955Y004199D01*
X010853Y004158D01*
X010776Y004080D01*
X010734Y003979D01*
X010734Y003870D01*
X010776Y003769D01*
X010819Y003726D01*
X010819Y003577D01*
X010764Y003599D01*
X010655Y003599D01*
X010553Y003558D01*
X010479Y003483D01*
X010479Y004295D01*
X010380Y004394D01*
X010120Y004654D01*
X010790Y004654D01*
X010853Y004591D01*
X010955Y004549D01*
X011064Y004549D01*
X011165Y004591D01*
X011242Y004669D01*
X011266Y004727D01*
X011934Y004059D01*
X011934Y003970D01*
X011284Y003970D01*
X011194Y004128D02*
X011865Y004128D01*
X011934Y003970D02*
X011976Y003869D01*
X012053Y003791D01*
X012155Y003749D01*
X012264Y003749D01*
X012365Y003791D01*
X012442Y003869D01*
X012484Y003970D01*
X013404Y003970D01*
X013404Y004128D02*
X012464Y004128D01*
X012484Y004079D02*
X012442Y004180D01*
X012365Y004258D01*
X012264Y004299D01*
X012175Y004299D01*
X009680Y006794D01*
X006880Y006794D01*
X006705Y006969D01*
X006997Y006969D01*
X007079Y007051D01*
X007079Y007081D01*
X007155Y007049D01*
X007264Y007049D01*
X007365Y007091D01*
X007437Y007163D01*
X007476Y007069D01*
X007553Y006991D01*
X007655Y006949D01*
X007764Y006949D01*
X007865Y006991D01*
X007942Y007069D01*
X007966Y007127D01*
X008039Y007054D01*
X008290Y007054D01*
X008353Y006991D01*
X008455Y006949D01*
X008564Y006949D01*
X008665Y006991D01*
X008742Y007069D01*
X008784Y007170D01*
X008784Y007279D01*
X008742Y007380D01*
X008665Y007458D01*
X008564Y007499D01*
X008455Y007499D01*
X008353Y007458D01*
X008290Y007394D01*
X008180Y007394D01*
X007226Y008348D01*
X007236Y008358D01*
X007439Y008154D01*
X008439Y008154D01*
X010239Y006354D01*
X010339Y006254D01*
X011090Y006254D01*
X011153Y006191D01*
X011255Y006149D01*
X011364Y006149D01*
X011465Y006191D01*
X011542Y006269D01*
X011584Y006370D01*
X011584Y006479D01*
X011542Y006580D01*
X011465Y006658D01*
X011364Y006699D01*
X011255Y006699D01*
X011153Y006658D01*
X011090Y006594D01*
X010480Y006594D01*
X008679Y008395D01*
X008580Y008494D01*
X008372Y008494D01*
X008499Y008621D01*
X008499Y009027D01*
X008432Y009094D01*
X008586Y009094D01*
X008519Y009027D01*
X008519Y008621D01*
X008806Y008334D01*
X009212Y008334D01*
X009499Y008621D01*
X009499Y009027D01*
X009432Y009094D01*
X009586Y009094D01*
X009519Y009027D01*
X009519Y008621D01*
X009806Y008334D01*
X010212Y008334D01*
X010236Y008358D01*
X012334Y006259D01*
X012334Y006170D01*
X012365Y006094D01*
X012228Y006094D01*
X012165Y006158D01*
X012064Y006199D01*
X011955Y006199D01*
X011853Y006158D01*
X011776Y006080D01*
X011734Y005979D01*
X011734Y005870D01*
X011765Y005794D01*
X011528Y005794D01*
X011465Y005858D01*
X011364Y005899D01*
X011255Y005899D01*
X011153Y005858D01*
X011076Y005780D01*
X011034Y005679D01*
X011034Y005570D01*
X011076Y005469D01*
X011153Y005391D01*
X011255Y005349D01*
X011364Y005349D01*
X011465Y005391D01*
X011528Y005454D01*
X013380Y005454D01*
X013479Y005554D01*
X013879Y005954D01*
X013879Y006295D01*
X013780Y006394D01*
X013179Y006995D01*
X013179Y008334D01*
X013212Y008334D01*
X013499Y008621D01*
X013499Y009027D01*
X013432Y009094D01*
X013485Y009042D02*
X015279Y009042D01*
X015279Y008883D02*
X013499Y008883D01*
X013499Y008725D02*
X015279Y008725D01*
X015279Y008566D02*
X013444Y008566D01*
X013286Y008408D02*
X015279Y008408D01*
X015279Y008249D02*
X013179Y008249D01*
X013179Y008091D02*
X015279Y008091D01*
X015279Y007932D02*
X013179Y007932D01*
X013179Y007774D02*
X015279Y007774D01*
X015279Y007615D02*
X013179Y007615D01*
X013179Y007457D02*
X015279Y007457D01*
X015279Y007298D02*
X013179Y007298D01*
X013179Y007140D02*
X015279Y007140D01*
X015279Y006981D02*
X013193Y006981D01*
X013351Y006823D02*
X015279Y006823D01*
X015279Y006664D02*
X013510Y006664D01*
X013668Y006506D02*
X015279Y006506D01*
X015279Y006347D02*
X013827Y006347D01*
X013879Y006189D02*
X015279Y006189D01*
X015279Y006030D02*
X013879Y006030D01*
X013797Y005872D02*
X015279Y005872D01*
X015279Y005713D02*
X013639Y005713D01*
X013480Y005555D02*
X015279Y005555D01*
X015279Y005396D02*
X011470Y005396D01*
X011236Y005238D02*
X015279Y005238D01*
X015279Y005079D02*
X011395Y005079D01*
X011553Y004921D02*
X015279Y004921D01*
X013404Y004762D02*
X011712Y004762D01*
X011870Y004604D02*
X013404Y004604D01*
X013404Y004445D02*
X012029Y004445D01*
X012294Y004287D02*
X013404Y004287D01*
X013404Y003811D02*
X012385Y003811D01*
X012484Y003970D02*
X012484Y004079D01*
X012033Y003811D02*
X011260Y003811D01*
X011199Y003653D02*
X013404Y003653D01*
X013404Y003494D02*
X011199Y003494D01*
X011199Y003336D02*
X013404Y003336D01*
X013404Y003177D02*
X011199Y003177D01*
X011199Y003019D02*
X013404Y003019D01*
X013404Y002860D02*
X011199Y002860D01*
X011199Y002702D02*
X013404Y002702D01*
X013404Y002543D02*
X011199Y002543D01*
X011199Y002385D02*
X013404Y002385D01*
X013404Y002226D02*
X011199Y002226D01*
X011199Y002068D02*
X013404Y002068D01*
X013404Y001909D02*
X011199Y001909D01*
X011199Y001751D02*
X013404Y001751D01*
X013404Y001592D02*
X011199Y001592D01*
X011199Y001434D02*
X013404Y001434D01*
X013404Y001275D02*
X012308Y001275D01*
X012029Y001275D02*
X011989Y001275D01*
X011711Y001275D02*
X011251Y001275D01*
X011410Y001117D02*
X011552Y001117D01*
X011989Y001117D02*
X012029Y001117D01*
X012029Y000958D02*
X011989Y000958D01*
X012466Y001117D02*
X013404Y001117D01*
X013404Y000958D02*
X012539Y000958D01*
X012539Y000800D02*
X013404Y000800D01*
X013404Y000641D02*
X012539Y000641D01*
X010490Y003494D02*
X010479Y003494D01*
X010479Y003653D02*
X010819Y003653D01*
X010758Y003811D02*
X010479Y003811D01*
X010479Y003970D02*
X010734Y003970D01*
X010824Y004128D02*
X010479Y004128D01*
X010479Y004287D02*
X011706Y004287D01*
X011548Y004445D02*
X010329Y004445D01*
X010170Y004604D02*
X010841Y004604D01*
X011178Y004604D02*
X011389Y004604D01*
X011148Y005396D02*
X011078Y005396D01*
X011040Y005555D02*
X010919Y005555D01*
X011048Y005713D02*
X010761Y005713D01*
X010602Y005872D02*
X011188Y005872D01*
X011430Y005872D02*
X011734Y005872D01*
X011756Y006030D02*
X010444Y006030D01*
X010285Y006189D02*
X011159Y006189D01*
X011459Y006189D02*
X011929Y006189D01*
X012089Y006189D02*
X012334Y006189D01*
X012246Y006347D02*
X011575Y006347D01*
X011573Y006506D02*
X012087Y006506D01*
X011929Y006664D02*
X011448Y006664D01*
X011170Y006664D02*
X010410Y006664D01*
X010251Y006823D02*
X011770Y006823D01*
X011612Y006981D02*
X010093Y006981D01*
X009934Y007140D02*
X011453Y007140D01*
X011295Y007298D02*
X009776Y007298D01*
X009617Y007457D02*
X011136Y007457D01*
X010978Y007615D02*
X009459Y007615D01*
X009300Y007774D02*
X010819Y007774D01*
X010661Y007932D02*
X009142Y007932D01*
X008983Y008091D02*
X010502Y008091D01*
X010344Y008249D02*
X008825Y008249D01*
X008679Y008395D02*
X008679Y008395D01*
X008666Y008408D02*
X008733Y008408D01*
X008574Y008566D02*
X008444Y008566D01*
X008499Y008725D02*
X008519Y008725D01*
X008519Y008883D02*
X008499Y008883D01*
X008485Y009042D02*
X008534Y009042D01*
X009485Y009042D02*
X009534Y009042D01*
X009519Y008883D02*
X009499Y008883D01*
X009499Y008725D02*
X009519Y008725D01*
X009574Y008566D02*
X009444Y008566D01*
X009286Y008408D02*
X009733Y008408D01*
X008661Y007932D02*
X007642Y007932D01*
X007483Y008091D02*
X008502Y008091D01*
X008819Y007774D02*
X007800Y007774D01*
X007959Y007615D02*
X008978Y007615D01*
X009136Y007457D02*
X008666Y007457D01*
X008776Y007298D02*
X009295Y007298D01*
X009453Y007140D02*
X008772Y007140D01*
X008641Y006981D02*
X009612Y006981D01*
X009770Y006823D02*
X006851Y006823D01*
X007009Y006981D02*
X007577Y006981D01*
X007447Y007140D02*
X007414Y007140D01*
X007841Y006981D02*
X008377Y006981D01*
X008353Y007457D02*
X008117Y007457D01*
X007344Y008249D02*
X007325Y008249D01*
X009810Y006664D02*
X009929Y006664D01*
X009968Y006506D02*
X010087Y006506D01*
X010127Y006347D02*
X010246Y006347D01*
X010239Y006354D02*
X010239Y006354D01*
X005039Y002454D02*
X004839Y002654D01*
X003880Y002654D01*
X002376Y001151D01*
X002499Y001027D01*
X002499Y000621D01*
X002432Y000554D01*
X002586Y000554D01*
X002519Y000621D01*
X002519Y001027D01*
X002806Y001314D01*
X003212Y001314D01*
X003236Y001291D01*
X003439Y001494D01*
X004839Y001494D01*
X005012Y001667D01*
X004953Y001691D01*
X004876Y001769D01*
X004834Y001870D01*
X004834Y001979D01*
X004876Y002080D01*
X004953Y002158D01*
X005055Y002199D01*
X005144Y002199D01*
X005239Y002294D01*
X006539Y002294D01*
X006615Y002371D01*
X006564Y002349D01*
X006455Y002349D01*
X006353Y002391D01*
X006290Y002454D01*
X005039Y002454D01*
X004950Y002543D02*
X003769Y002543D01*
X003610Y002385D02*
X006369Y002385D01*
X005171Y002226D02*
X003452Y002226D01*
X003293Y002068D02*
X004871Y002068D01*
X004834Y001909D02*
X003135Y001909D01*
X002976Y001751D02*
X004894Y001751D01*
X004937Y001592D02*
X002818Y001592D01*
X002659Y001434D02*
X003378Y001434D01*
X002767Y001275D02*
X002501Y001275D01*
X002410Y001117D02*
X002609Y001117D01*
X002519Y000958D02*
X002499Y000958D01*
X002499Y000800D02*
X002519Y000800D01*
X002519Y000641D02*
X002499Y000641D01*
D15*
X002609Y001224D02*
X003909Y002524D01*
X004809Y002524D01*
X003609Y003224D02*
X002509Y004324D01*
X001709Y004324D01*
X000809Y005224D01*
X000809Y006824D01*
X000909Y006924D01*
X001809Y006924D01*
X002109Y007224D01*
X002109Y007424D01*
X002109Y007924D01*
X002609Y008424D01*
X001609Y008424D02*
X001609Y007524D01*
X001509Y007424D01*
X003809Y007424D02*
X003809Y007824D01*
X004409Y008424D01*
X004409Y007424D02*
X004909Y006924D01*
X008809Y006924D02*
X009709Y006924D01*
X010709Y005924D01*
X011009Y005624D01*
X011009Y005524D01*
X012209Y004324D01*
X012309Y004324D01*
X012509Y004124D01*
X012509Y001324D01*
X012009Y000824D01*
X011009Y000824D02*
X011009Y003924D01*
X006809Y003724D02*
X005209Y003724D01*
X003209Y003224D02*
X002309Y002324D01*
X002309Y002724D02*
X001809Y002224D01*
X001209Y002224D02*
X001209Y001024D01*
X001009Y000824D01*
D16*
X002609Y001224D03*
X002309Y002324D03*
X002309Y002724D03*
X003209Y003224D03*
X003609Y003224D03*
X004509Y003524D03*
X005209Y003724D03*
X005209Y004424D03*
X005209Y004924D03*
X006809Y005224D03*
X006809Y005624D03*
X006909Y006024D03*
X006709Y006324D03*
X005409Y006624D03*
X004909Y006924D03*
X003409Y006724D03*
X002309Y006124D03*
X002809Y005724D03*
X002909Y005224D03*
X001809Y004624D03*
X001709Y005824D03*
X001609Y008424D03*
X002609Y008424D03*
X004409Y008424D03*
X007209Y007324D03*
X007709Y007224D03*
X008509Y007224D03*
X008809Y006924D03*
X009209Y006324D03*
X009809Y005924D03*
X009209Y005724D03*
X010709Y005924D03*
X011309Y005624D03*
X012009Y005924D03*
X012609Y006224D03*
X013109Y006224D03*
X013309Y005024D03*
X013709Y005024D03*
X014109Y005024D03*
X014509Y005024D03*
X014909Y005024D03*
X015209Y005324D03*
X015209Y005724D03*
X015209Y006124D03*
X013309Y004624D03*
X013309Y004224D03*
X013309Y003824D03*
X013309Y003424D03*
X012209Y004024D03*
X011009Y003924D03*
X010709Y003324D03*
X010009Y003224D03*
X009709Y003524D03*
X009409Y004124D03*
X009209Y004524D03*
X009909Y004224D03*
X011009Y004824D03*
X011309Y006424D03*
X006909Y004624D03*
X006909Y004224D03*
X006809Y003724D03*
X008209Y002724D03*
X008509Y002524D03*
X008509Y001924D03*
X007509Y001224D03*
X007309Y001924D03*
X006509Y002624D03*
X005109Y001924D03*
X004809Y002524D03*
D17*
X004909Y002824D02*
X005109Y002624D01*
X006509Y002624D01*
X007309Y003024D02*
X004309Y003024D01*
X002009Y005324D01*
X002009Y006624D01*
X003009Y007624D01*
X003009Y008824D01*
X003409Y008224D02*
X004009Y008824D01*
X003409Y008224D02*
X003409Y007124D01*
X003909Y006624D01*
X005409Y006624D01*
X006309Y007124D02*
X006809Y006624D01*
X009609Y006624D01*
X012209Y004024D01*
X011009Y004824D02*
X008709Y004824D01*
X008109Y004224D01*
X006909Y004224D01*
X006909Y004624D02*
X008309Y004624D01*
X009109Y005424D01*
X009309Y005424D01*
X009809Y005924D01*
X009209Y005724D02*
X008409Y004924D01*
X006809Y004924D01*
X006309Y004424D01*
X005209Y004424D01*
X005209Y004924D02*
X004509Y004224D01*
X004509Y003524D01*
X004409Y003224D02*
X002609Y005024D01*
X002609Y005524D01*
X002809Y005724D01*
X002809Y006124D02*
X003309Y005624D01*
X006809Y005624D01*
X006809Y005224D02*
X002909Y005224D01*
X001809Y004624D02*
X001709Y004724D01*
X001709Y005824D01*
X002309Y006124D02*
X002809Y006124D01*
X003409Y006724D02*
X004109Y006024D01*
X006909Y006024D01*
X006709Y006324D02*
X009209Y006324D01*
X010409Y006424D02*
X008509Y008324D01*
X007509Y008324D01*
X007009Y008824D01*
X007009Y008324D02*
X006509Y008324D01*
X006009Y008824D01*
X005909Y007924D02*
X005009Y008824D01*
X005909Y007924D02*
X007009Y007924D01*
X007709Y007224D01*
X008109Y007224D02*
X007009Y008324D01*
X006709Y007424D02*
X006809Y007324D01*
X007209Y007324D01*
X006609Y007424D02*
X006209Y007424D01*
X006109Y007424D02*
X006309Y007224D01*
X006309Y007124D01*
X008109Y007224D02*
X008509Y007224D01*
X010409Y006424D02*
X011309Y006424D01*
X012009Y005924D02*
X013209Y005924D01*
X013409Y006124D01*
X013409Y006324D01*
X012009Y007724D01*
X012009Y008824D01*
X011009Y008824D02*
X011009Y008324D01*
X013109Y006224D01*
X012609Y006224D02*
X010009Y008824D01*
X013009Y008824D02*
X013009Y006924D01*
X013709Y006224D01*
X013709Y006024D01*
X013309Y005624D01*
X011309Y005624D01*
X010009Y004524D02*
X009809Y004524D01*
X009409Y004124D01*
X009209Y004524D02*
X008609Y004524D01*
X007309Y003224D01*
X004409Y003224D01*
X004909Y002824D02*
X003809Y002824D01*
X002009Y001024D01*
X002009Y000824D01*
X003009Y000824D02*
X003509Y001324D01*
X004909Y001324D01*
X005509Y001924D01*
X007309Y001924D01*
X007609Y001824D02*
X007309Y001524D01*
X005709Y001524D01*
X005009Y000824D01*
X006009Y000824D02*
X006509Y001324D01*
X007209Y001324D01*
X007309Y001224D01*
X007509Y001224D01*
X007609Y001824D02*
X007609Y002524D01*
X008309Y003224D01*
X010009Y003224D01*
X010309Y003124D02*
X010009Y002824D01*
X008309Y002824D01*
X008209Y002724D01*
X008509Y002524D02*
X008509Y002324D01*
X008209Y002024D01*
X008209Y001824D01*
X008709Y001324D01*
X009509Y001324D01*
X010009Y000824D01*
X009309Y001924D02*
X008509Y001924D01*
X009309Y001924D02*
X010709Y003324D01*
X010309Y003124D02*
X010309Y004224D01*
X010009Y004524D01*
X009909Y004224D02*
X009309Y003624D01*
X007909Y003624D01*
X007309Y003024D01*
X007909Y003424D02*
X006609Y002124D01*
X005309Y002124D01*
X005109Y001924D01*
X007909Y003424D02*
X009309Y003424D01*
X009409Y003524D01*
X009709Y003524D01*
X004309Y007424D02*
X003909Y007424D01*
X002009Y007424D02*
X001609Y007424D01*
X001709Y002224D02*
X001309Y002224D01*
M02*
