%
M48
M72
T01C0.0130
T02C0.0217
T03C0.0400
T04C0.0433
%
T01
X2609Y1224
X2309Y2324
X2309Y2724
X3209Y3224
X3609Y3224
X4509Y3524
X5209Y3724
X5209Y4424
X5209Y4924
X6809Y5224
X6809Y5624
X6909Y6024
X6709Y6324
X5409Y6624
X4909Y6924
X3409Y6724
X2309Y6124
X2809Y5724
X2909Y5224
X1809Y4624
X1709Y5824
X1609Y8424
X2609Y8424
X4409Y8424
X7209Y7324
X7709Y7224
X8509Y7224
X8809Y6924
X9209Y6324
X9809Y5924
X9209Y5724
X10709Y5924
X11309Y5624
X12009Y5924
X12609Y6224
X13109Y6224
X13309Y5024
X13709Y5024
X14109Y5024
X14509Y5024
X14909Y5024
X15209Y5324
X15209Y5724
X15209Y6124
X13309Y4624
X13309Y4224
X13309Y3824
X13309Y3424
X12209Y4024
X11009Y3924
X10709Y3324
X10009Y3224
X9709Y3524
X9409Y4124
X9209Y4524
X9909Y4224
X11009Y4824
X11309Y6424
X6909Y4624
X6909Y4224
X6809Y3724
X8209Y2724
X8509Y2524
X8509Y1924
X7509Y1224
X7309Y1924
X6509Y2624
X5109Y1924
X4809Y2524
T02
X2359Y3948
X2359Y5700
T03
X1009Y824
X2009Y824
X3009Y824
X4009Y824
X5009Y824
X6009Y824
X7009Y824
X8009Y824
X9009Y824
X10009Y824
X11009Y824
X12009Y824
X12009Y8824
X11009Y8824
X10009Y8824
X9009Y8824
X8009Y8824
X7009Y8824
X6009Y8824
X5009Y8824
X4009Y8824
X3009Y8824
X2009Y8824
X1009Y8824
X13009Y8824
T04
X1306Y6468
X1306Y3181
M30
