%
M48
M72
T01C0.01300
T02C0.03150
T03C0.03900
T04C0.04331
%
T01
X87180Y8800
X116280Y12300
X108180Y20800
X118980Y23400
X103080Y30300
X95180Y28300
X103080Y33600
X89580Y37500
X99180Y40800
X102180Y44900
X106180Y44900
X118380Y42000
X121380Y39300
X125280Y42000
X125280Y45600
X121380Y48300
X125280Y51900
X114780Y52500
X137280Y49200
X139680Y53700
X143680Y53700
X147680Y53700
X151680Y53700
X155680Y53700
X159680Y53700
X163680Y53700
X167680Y53700
X171680Y53700
X173680Y57700
X173680Y61700
X173680Y65700
X188680Y65800
X192680Y65800
X196680Y65800
X200680Y65800
X226980Y52400
X233211Y52194
X219780Y49200
X194180Y44800
X191280Y41300
X188180Y37800
X166980Y26700
X163680Y15600
X213980Y23400
X217980Y18300
X230380Y23400
X233211Y31721
X219480Y5700
X227580Y5200
X136680Y39600
X139680Y57800
X139680Y61800
X139680Y65800
X124680Y65800
X120680Y65800
X116680Y65800
X112680Y65800
X92180Y20800
T02
X67660Y16170
X69235Y16170
X70809Y16170
X72384Y16170
X73959Y16170
X73959Y62233
X72384Y62233
X70809Y62233
X69235Y62233
X67660Y62233
T03
X212581Y11249
X232581Y15249
X232581Y7249
T04
X71085Y30343
X71085Y48060
M30
