G75*
%MOIN*%
%OFA0B0*%
%FSLAX25Y25*%
%IPPOS*%
%LPD*%
%AMOC8*
5,1,8,0,0,1.08239X$1,22.5*
%
%ADD10C,0.00000*%
D10*
X0060180Y0001800D02*
X0060180Y0076603D01*
X0101518Y0076603D01*
X0113329Y0068729D01*
X0199943Y0068729D01*
X0211754Y0076603D01*
X0237345Y0076603D01*
X0237345Y0001800D01*
X0060180Y0001800D01*
X0066085Y0016170D02*
X0066087Y0016249D01*
X0066093Y0016328D01*
X0066103Y0016407D01*
X0066117Y0016485D01*
X0066134Y0016562D01*
X0066156Y0016638D01*
X0066181Y0016713D01*
X0066211Y0016786D01*
X0066243Y0016858D01*
X0066280Y0016929D01*
X0066320Y0016997D01*
X0066363Y0017063D01*
X0066409Y0017127D01*
X0066459Y0017189D01*
X0066512Y0017248D01*
X0066567Y0017304D01*
X0066626Y0017358D01*
X0066687Y0017408D01*
X0066750Y0017456D01*
X0066816Y0017500D01*
X0066884Y0017541D01*
X0066954Y0017578D01*
X0067025Y0017612D01*
X0067099Y0017642D01*
X0067173Y0017668D01*
X0067249Y0017690D01*
X0067326Y0017709D01*
X0067404Y0017724D01*
X0067482Y0017735D01*
X0067561Y0017742D01*
X0067640Y0017745D01*
X0067719Y0017744D01*
X0067798Y0017739D01*
X0067877Y0017730D01*
X0067955Y0017717D01*
X0068032Y0017700D01*
X0068109Y0017680D01*
X0068184Y0017655D01*
X0068258Y0017627D01*
X0068331Y0017595D01*
X0068401Y0017560D01*
X0068470Y0017521D01*
X0068537Y0017478D01*
X0068602Y0017432D01*
X0068664Y0017384D01*
X0068724Y0017332D01*
X0068781Y0017277D01*
X0068835Y0017219D01*
X0068886Y0017159D01*
X0068934Y0017096D01*
X0068979Y0017031D01*
X0069021Y0016963D01*
X0069059Y0016894D01*
X0069093Y0016823D01*
X0069124Y0016750D01*
X0069152Y0016675D01*
X0069175Y0016600D01*
X0069195Y0016523D01*
X0069211Y0016446D01*
X0069223Y0016367D01*
X0069231Y0016289D01*
X0069235Y0016210D01*
X0069235Y0016130D01*
X0069231Y0016051D01*
X0069223Y0015973D01*
X0069211Y0015894D01*
X0069195Y0015817D01*
X0069175Y0015740D01*
X0069152Y0015665D01*
X0069124Y0015590D01*
X0069093Y0015517D01*
X0069059Y0015446D01*
X0069021Y0015377D01*
X0068979Y0015309D01*
X0068934Y0015244D01*
X0068886Y0015181D01*
X0068835Y0015121D01*
X0068781Y0015063D01*
X0068724Y0015008D01*
X0068664Y0014956D01*
X0068602Y0014908D01*
X0068537Y0014862D01*
X0068470Y0014819D01*
X0068401Y0014780D01*
X0068331Y0014745D01*
X0068258Y0014713D01*
X0068184Y0014685D01*
X0068109Y0014660D01*
X0068032Y0014640D01*
X0067955Y0014623D01*
X0067877Y0014610D01*
X0067798Y0014601D01*
X0067719Y0014596D01*
X0067640Y0014595D01*
X0067561Y0014598D01*
X0067482Y0014605D01*
X0067404Y0014616D01*
X0067326Y0014631D01*
X0067249Y0014650D01*
X0067173Y0014672D01*
X0067099Y0014698D01*
X0067025Y0014728D01*
X0066954Y0014762D01*
X0066884Y0014799D01*
X0066816Y0014840D01*
X0066750Y0014884D01*
X0066687Y0014932D01*
X0066626Y0014982D01*
X0066567Y0015036D01*
X0066512Y0015092D01*
X0066459Y0015151D01*
X0066409Y0015213D01*
X0066363Y0015277D01*
X0066320Y0015343D01*
X0066280Y0015411D01*
X0066243Y0015482D01*
X0066211Y0015554D01*
X0066181Y0015627D01*
X0066156Y0015702D01*
X0066134Y0015778D01*
X0066117Y0015855D01*
X0066103Y0015933D01*
X0066093Y0016012D01*
X0066087Y0016091D01*
X0066085Y0016170D01*
X0067660Y0016170D02*
X0067662Y0016249D01*
X0067668Y0016328D01*
X0067678Y0016407D01*
X0067692Y0016485D01*
X0067709Y0016562D01*
X0067731Y0016638D01*
X0067756Y0016713D01*
X0067786Y0016786D01*
X0067818Y0016858D01*
X0067855Y0016929D01*
X0067895Y0016997D01*
X0067938Y0017063D01*
X0067984Y0017127D01*
X0068034Y0017189D01*
X0068087Y0017248D01*
X0068142Y0017304D01*
X0068201Y0017358D01*
X0068262Y0017408D01*
X0068325Y0017456D01*
X0068391Y0017500D01*
X0068459Y0017541D01*
X0068529Y0017578D01*
X0068600Y0017612D01*
X0068674Y0017642D01*
X0068748Y0017668D01*
X0068824Y0017690D01*
X0068901Y0017709D01*
X0068979Y0017724D01*
X0069057Y0017735D01*
X0069136Y0017742D01*
X0069215Y0017745D01*
X0069294Y0017744D01*
X0069373Y0017739D01*
X0069452Y0017730D01*
X0069530Y0017717D01*
X0069607Y0017700D01*
X0069684Y0017680D01*
X0069759Y0017655D01*
X0069833Y0017627D01*
X0069906Y0017595D01*
X0069976Y0017560D01*
X0070045Y0017521D01*
X0070112Y0017478D01*
X0070177Y0017432D01*
X0070239Y0017384D01*
X0070299Y0017332D01*
X0070356Y0017277D01*
X0070410Y0017219D01*
X0070461Y0017159D01*
X0070509Y0017096D01*
X0070554Y0017031D01*
X0070596Y0016963D01*
X0070634Y0016894D01*
X0070668Y0016823D01*
X0070699Y0016750D01*
X0070727Y0016675D01*
X0070750Y0016600D01*
X0070770Y0016523D01*
X0070786Y0016446D01*
X0070798Y0016367D01*
X0070806Y0016289D01*
X0070810Y0016210D01*
X0070810Y0016130D01*
X0070806Y0016051D01*
X0070798Y0015973D01*
X0070786Y0015894D01*
X0070770Y0015817D01*
X0070750Y0015740D01*
X0070727Y0015665D01*
X0070699Y0015590D01*
X0070668Y0015517D01*
X0070634Y0015446D01*
X0070596Y0015377D01*
X0070554Y0015309D01*
X0070509Y0015244D01*
X0070461Y0015181D01*
X0070410Y0015121D01*
X0070356Y0015063D01*
X0070299Y0015008D01*
X0070239Y0014956D01*
X0070177Y0014908D01*
X0070112Y0014862D01*
X0070045Y0014819D01*
X0069976Y0014780D01*
X0069906Y0014745D01*
X0069833Y0014713D01*
X0069759Y0014685D01*
X0069684Y0014660D01*
X0069607Y0014640D01*
X0069530Y0014623D01*
X0069452Y0014610D01*
X0069373Y0014601D01*
X0069294Y0014596D01*
X0069215Y0014595D01*
X0069136Y0014598D01*
X0069057Y0014605D01*
X0068979Y0014616D01*
X0068901Y0014631D01*
X0068824Y0014650D01*
X0068748Y0014672D01*
X0068674Y0014698D01*
X0068600Y0014728D01*
X0068529Y0014762D01*
X0068459Y0014799D01*
X0068391Y0014840D01*
X0068325Y0014884D01*
X0068262Y0014932D01*
X0068201Y0014982D01*
X0068142Y0015036D01*
X0068087Y0015092D01*
X0068034Y0015151D01*
X0067984Y0015213D01*
X0067938Y0015277D01*
X0067895Y0015343D01*
X0067855Y0015411D01*
X0067818Y0015482D01*
X0067786Y0015554D01*
X0067756Y0015627D01*
X0067731Y0015702D01*
X0067709Y0015778D01*
X0067692Y0015855D01*
X0067678Y0015933D01*
X0067668Y0016012D01*
X0067662Y0016091D01*
X0067660Y0016170D01*
X0070809Y0016170D02*
X0070811Y0016249D01*
X0070817Y0016328D01*
X0070827Y0016407D01*
X0070841Y0016485D01*
X0070858Y0016562D01*
X0070880Y0016638D01*
X0070905Y0016713D01*
X0070935Y0016786D01*
X0070967Y0016858D01*
X0071004Y0016929D01*
X0071044Y0016997D01*
X0071087Y0017063D01*
X0071133Y0017127D01*
X0071183Y0017189D01*
X0071236Y0017248D01*
X0071291Y0017304D01*
X0071350Y0017358D01*
X0071411Y0017408D01*
X0071474Y0017456D01*
X0071540Y0017500D01*
X0071608Y0017541D01*
X0071678Y0017578D01*
X0071749Y0017612D01*
X0071823Y0017642D01*
X0071897Y0017668D01*
X0071973Y0017690D01*
X0072050Y0017709D01*
X0072128Y0017724D01*
X0072206Y0017735D01*
X0072285Y0017742D01*
X0072364Y0017745D01*
X0072443Y0017744D01*
X0072522Y0017739D01*
X0072601Y0017730D01*
X0072679Y0017717D01*
X0072756Y0017700D01*
X0072833Y0017680D01*
X0072908Y0017655D01*
X0072982Y0017627D01*
X0073055Y0017595D01*
X0073125Y0017560D01*
X0073194Y0017521D01*
X0073261Y0017478D01*
X0073326Y0017432D01*
X0073388Y0017384D01*
X0073448Y0017332D01*
X0073505Y0017277D01*
X0073559Y0017219D01*
X0073610Y0017159D01*
X0073658Y0017096D01*
X0073703Y0017031D01*
X0073745Y0016963D01*
X0073783Y0016894D01*
X0073817Y0016823D01*
X0073848Y0016750D01*
X0073876Y0016675D01*
X0073899Y0016600D01*
X0073919Y0016523D01*
X0073935Y0016446D01*
X0073947Y0016367D01*
X0073955Y0016289D01*
X0073959Y0016210D01*
X0073959Y0016130D01*
X0073955Y0016051D01*
X0073947Y0015973D01*
X0073935Y0015894D01*
X0073919Y0015817D01*
X0073899Y0015740D01*
X0073876Y0015665D01*
X0073848Y0015590D01*
X0073817Y0015517D01*
X0073783Y0015446D01*
X0073745Y0015377D01*
X0073703Y0015309D01*
X0073658Y0015244D01*
X0073610Y0015181D01*
X0073559Y0015121D01*
X0073505Y0015063D01*
X0073448Y0015008D01*
X0073388Y0014956D01*
X0073326Y0014908D01*
X0073261Y0014862D01*
X0073194Y0014819D01*
X0073125Y0014780D01*
X0073055Y0014745D01*
X0072982Y0014713D01*
X0072908Y0014685D01*
X0072833Y0014660D01*
X0072756Y0014640D01*
X0072679Y0014623D01*
X0072601Y0014610D01*
X0072522Y0014601D01*
X0072443Y0014596D01*
X0072364Y0014595D01*
X0072285Y0014598D01*
X0072206Y0014605D01*
X0072128Y0014616D01*
X0072050Y0014631D01*
X0071973Y0014650D01*
X0071897Y0014672D01*
X0071823Y0014698D01*
X0071749Y0014728D01*
X0071678Y0014762D01*
X0071608Y0014799D01*
X0071540Y0014840D01*
X0071474Y0014884D01*
X0071411Y0014932D01*
X0071350Y0014982D01*
X0071291Y0015036D01*
X0071236Y0015092D01*
X0071183Y0015151D01*
X0071133Y0015213D01*
X0071087Y0015277D01*
X0071044Y0015343D01*
X0071004Y0015411D01*
X0070967Y0015482D01*
X0070935Y0015554D01*
X0070905Y0015627D01*
X0070880Y0015702D01*
X0070858Y0015778D01*
X0070841Y0015855D01*
X0070827Y0015933D01*
X0070817Y0016012D01*
X0070811Y0016091D01*
X0070809Y0016170D01*
X0072384Y0016170D02*
X0072386Y0016249D01*
X0072392Y0016328D01*
X0072402Y0016407D01*
X0072416Y0016485D01*
X0072433Y0016562D01*
X0072455Y0016638D01*
X0072480Y0016713D01*
X0072510Y0016786D01*
X0072542Y0016858D01*
X0072579Y0016929D01*
X0072619Y0016997D01*
X0072662Y0017063D01*
X0072708Y0017127D01*
X0072758Y0017189D01*
X0072811Y0017248D01*
X0072866Y0017304D01*
X0072925Y0017358D01*
X0072986Y0017408D01*
X0073049Y0017456D01*
X0073115Y0017500D01*
X0073183Y0017541D01*
X0073253Y0017578D01*
X0073324Y0017612D01*
X0073398Y0017642D01*
X0073472Y0017668D01*
X0073548Y0017690D01*
X0073625Y0017709D01*
X0073703Y0017724D01*
X0073781Y0017735D01*
X0073860Y0017742D01*
X0073939Y0017745D01*
X0074018Y0017744D01*
X0074097Y0017739D01*
X0074176Y0017730D01*
X0074254Y0017717D01*
X0074331Y0017700D01*
X0074408Y0017680D01*
X0074483Y0017655D01*
X0074557Y0017627D01*
X0074630Y0017595D01*
X0074700Y0017560D01*
X0074769Y0017521D01*
X0074836Y0017478D01*
X0074901Y0017432D01*
X0074963Y0017384D01*
X0075023Y0017332D01*
X0075080Y0017277D01*
X0075134Y0017219D01*
X0075185Y0017159D01*
X0075233Y0017096D01*
X0075278Y0017031D01*
X0075320Y0016963D01*
X0075358Y0016894D01*
X0075392Y0016823D01*
X0075423Y0016750D01*
X0075451Y0016675D01*
X0075474Y0016600D01*
X0075494Y0016523D01*
X0075510Y0016446D01*
X0075522Y0016367D01*
X0075530Y0016289D01*
X0075534Y0016210D01*
X0075534Y0016130D01*
X0075530Y0016051D01*
X0075522Y0015973D01*
X0075510Y0015894D01*
X0075494Y0015817D01*
X0075474Y0015740D01*
X0075451Y0015665D01*
X0075423Y0015590D01*
X0075392Y0015517D01*
X0075358Y0015446D01*
X0075320Y0015377D01*
X0075278Y0015309D01*
X0075233Y0015244D01*
X0075185Y0015181D01*
X0075134Y0015121D01*
X0075080Y0015063D01*
X0075023Y0015008D01*
X0074963Y0014956D01*
X0074901Y0014908D01*
X0074836Y0014862D01*
X0074769Y0014819D01*
X0074700Y0014780D01*
X0074630Y0014745D01*
X0074557Y0014713D01*
X0074483Y0014685D01*
X0074408Y0014660D01*
X0074331Y0014640D01*
X0074254Y0014623D01*
X0074176Y0014610D01*
X0074097Y0014601D01*
X0074018Y0014596D01*
X0073939Y0014595D01*
X0073860Y0014598D01*
X0073781Y0014605D01*
X0073703Y0014616D01*
X0073625Y0014631D01*
X0073548Y0014650D01*
X0073472Y0014672D01*
X0073398Y0014698D01*
X0073324Y0014728D01*
X0073253Y0014762D01*
X0073183Y0014799D01*
X0073115Y0014840D01*
X0073049Y0014884D01*
X0072986Y0014932D01*
X0072925Y0014982D01*
X0072866Y0015036D01*
X0072811Y0015092D01*
X0072758Y0015151D01*
X0072708Y0015213D01*
X0072662Y0015277D01*
X0072619Y0015343D01*
X0072579Y0015411D01*
X0072542Y0015482D01*
X0072510Y0015554D01*
X0072480Y0015627D01*
X0072455Y0015702D01*
X0072433Y0015778D01*
X0072416Y0015855D01*
X0072402Y0015933D01*
X0072392Y0016012D01*
X0072386Y0016091D01*
X0072384Y0016170D01*
X0068920Y0030343D02*
X0068922Y0030436D01*
X0068928Y0030528D01*
X0068938Y0030620D01*
X0068952Y0030711D01*
X0068969Y0030802D01*
X0068991Y0030892D01*
X0069016Y0030981D01*
X0069045Y0031069D01*
X0069078Y0031155D01*
X0069115Y0031240D01*
X0069155Y0031324D01*
X0069199Y0031405D01*
X0069246Y0031485D01*
X0069296Y0031563D01*
X0069350Y0031638D01*
X0069407Y0031711D01*
X0069467Y0031781D01*
X0069530Y0031849D01*
X0069596Y0031914D01*
X0069664Y0031976D01*
X0069735Y0032036D01*
X0069809Y0032092D01*
X0069885Y0032145D01*
X0069963Y0032194D01*
X0070043Y0032241D01*
X0070125Y0032283D01*
X0070209Y0032323D01*
X0070294Y0032358D01*
X0070381Y0032390D01*
X0070469Y0032419D01*
X0070558Y0032443D01*
X0070648Y0032464D01*
X0070739Y0032480D01*
X0070831Y0032493D01*
X0070923Y0032502D01*
X0071016Y0032507D01*
X0071108Y0032508D01*
X0071201Y0032505D01*
X0071293Y0032498D01*
X0071385Y0032487D01*
X0071476Y0032472D01*
X0071567Y0032454D01*
X0071657Y0032431D01*
X0071745Y0032405D01*
X0071833Y0032375D01*
X0071919Y0032341D01*
X0072003Y0032304D01*
X0072086Y0032262D01*
X0072167Y0032218D01*
X0072247Y0032170D01*
X0072324Y0032119D01*
X0072398Y0032064D01*
X0072471Y0032006D01*
X0072541Y0031946D01*
X0072608Y0031882D01*
X0072672Y0031816D01*
X0072734Y0031746D01*
X0072792Y0031675D01*
X0072847Y0031601D01*
X0072899Y0031524D01*
X0072948Y0031445D01*
X0072994Y0031365D01*
X0073036Y0031282D01*
X0073074Y0031198D01*
X0073109Y0031112D01*
X0073140Y0031025D01*
X0073167Y0030937D01*
X0073190Y0030847D01*
X0073210Y0030757D01*
X0073226Y0030666D01*
X0073238Y0030574D01*
X0073246Y0030482D01*
X0073250Y0030389D01*
X0073250Y0030297D01*
X0073246Y0030204D01*
X0073238Y0030112D01*
X0073226Y0030020D01*
X0073210Y0029929D01*
X0073190Y0029839D01*
X0073167Y0029749D01*
X0073140Y0029661D01*
X0073109Y0029574D01*
X0073074Y0029488D01*
X0073036Y0029404D01*
X0072994Y0029321D01*
X0072948Y0029241D01*
X0072899Y0029162D01*
X0072847Y0029085D01*
X0072792Y0029011D01*
X0072734Y0028940D01*
X0072672Y0028870D01*
X0072608Y0028804D01*
X0072541Y0028740D01*
X0072471Y0028680D01*
X0072398Y0028622D01*
X0072324Y0028567D01*
X0072247Y0028516D01*
X0072168Y0028468D01*
X0072086Y0028424D01*
X0072003Y0028382D01*
X0071919Y0028345D01*
X0071833Y0028311D01*
X0071745Y0028281D01*
X0071657Y0028255D01*
X0071567Y0028232D01*
X0071476Y0028214D01*
X0071385Y0028199D01*
X0071293Y0028188D01*
X0071201Y0028181D01*
X0071108Y0028178D01*
X0071016Y0028179D01*
X0070923Y0028184D01*
X0070831Y0028193D01*
X0070739Y0028206D01*
X0070648Y0028222D01*
X0070558Y0028243D01*
X0070469Y0028267D01*
X0070381Y0028296D01*
X0070294Y0028328D01*
X0070209Y0028363D01*
X0070125Y0028403D01*
X0070043Y0028445D01*
X0069963Y0028492D01*
X0069885Y0028541D01*
X0069809Y0028594D01*
X0069735Y0028650D01*
X0069664Y0028710D01*
X0069596Y0028772D01*
X0069530Y0028837D01*
X0069467Y0028905D01*
X0069407Y0028975D01*
X0069350Y0029048D01*
X0069296Y0029123D01*
X0069246Y0029201D01*
X0069199Y0029281D01*
X0069155Y0029362D01*
X0069115Y0029446D01*
X0069078Y0029531D01*
X0069045Y0029617D01*
X0069016Y0029705D01*
X0068991Y0029794D01*
X0068969Y0029884D01*
X0068952Y0029975D01*
X0068938Y0030066D01*
X0068928Y0030158D01*
X0068922Y0030250D01*
X0068920Y0030343D01*
X0068920Y0048060D02*
X0068922Y0048153D01*
X0068928Y0048245D01*
X0068938Y0048337D01*
X0068952Y0048428D01*
X0068969Y0048519D01*
X0068991Y0048609D01*
X0069016Y0048698D01*
X0069045Y0048786D01*
X0069078Y0048872D01*
X0069115Y0048957D01*
X0069155Y0049041D01*
X0069199Y0049122D01*
X0069246Y0049202D01*
X0069296Y0049280D01*
X0069350Y0049355D01*
X0069407Y0049428D01*
X0069467Y0049498D01*
X0069530Y0049566D01*
X0069596Y0049631D01*
X0069664Y0049693D01*
X0069735Y0049753D01*
X0069809Y0049809D01*
X0069885Y0049862D01*
X0069963Y0049911D01*
X0070043Y0049958D01*
X0070125Y0050000D01*
X0070209Y0050040D01*
X0070294Y0050075D01*
X0070381Y0050107D01*
X0070469Y0050136D01*
X0070558Y0050160D01*
X0070648Y0050181D01*
X0070739Y0050197D01*
X0070831Y0050210D01*
X0070923Y0050219D01*
X0071016Y0050224D01*
X0071108Y0050225D01*
X0071201Y0050222D01*
X0071293Y0050215D01*
X0071385Y0050204D01*
X0071476Y0050189D01*
X0071567Y0050171D01*
X0071657Y0050148D01*
X0071745Y0050122D01*
X0071833Y0050092D01*
X0071919Y0050058D01*
X0072003Y0050021D01*
X0072086Y0049979D01*
X0072167Y0049935D01*
X0072247Y0049887D01*
X0072324Y0049836D01*
X0072398Y0049781D01*
X0072471Y0049723D01*
X0072541Y0049663D01*
X0072608Y0049599D01*
X0072672Y0049533D01*
X0072734Y0049463D01*
X0072792Y0049392D01*
X0072847Y0049318D01*
X0072899Y0049241D01*
X0072948Y0049162D01*
X0072994Y0049082D01*
X0073036Y0048999D01*
X0073074Y0048915D01*
X0073109Y0048829D01*
X0073140Y0048742D01*
X0073167Y0048654D01*
X0073190Y0048564D01*
X0073210Y0048474D01*
X0073226Y0048383D01*
X0073238Y0048291D01*
X0073246Y0048199D01*
X0073250Y0048106D01*
X0073250Y0048014D01*
X0073246Y0047921D01*
X0073238Y0047829D01*
X0073226Y0047737D01*
X0073210Y0047646D01*
X0073190Y0047556D01*
X0073167Y0047466D01*
X0073140Y0047378D01*
X0073109Y0047291D01*
X0073074Y0047205D01*
X0073036Y0047121D01*
X0072994Y0047038D01*
X0072948Y0046958D01*
X0072899Y0046879D01*
X0072847Y0046802D01*
X0072792Y0046728D01*
X0072734Y0046657D01*
X0072672Y0046587D01*
X0072608Y0046521D01*
X0072541Y0046457D01*
X0072471Y0046397D01*
X0072398Y0046339D01*
X0072324Y0046284D01*
X0072247Y0046233D01*
X0072168Y0046185D01*
X0072086Y0046141D01*
X0072003Y0046099D01*
X0071919Y0046062D01*
X0071833Y0046028D01*
X0071745Y0045998D01*
X0071657Y0045972D01*
X0071567Y0045949D01*
X0071476Y0045931D01*
X0071385Y0045916D01*
X0071293Y0045905D01*
X0071201Y0045898D01*
X0071108Y0045895D01*
X0071016Y0045896D01*
X0070923Y0045901D01*
X0070831Y0045910D01*
X0070739Y0045923D01*
X0070648Y0045939D01*
X0070558Y0045960D01*
X0070469Y0045984D01*
X0070381Y0046013D01*
X0070294Y0046045D01*
X0070209Y0046080D01*
X0070125Y0046120D01*
X0070043Y0046162D01*
X0069963Y0046209D01*
X0069885Y0046258D01*
X0069809Y0046311D01*
X0069735Y0046367D01*
X0069664Y0046427D01*
X0069596Y0046489D01*
X0069530Y0046554D01*
X0069467Y0046622D01*
X0069407Y0046692D01*
X0069350Y0046765D01*
X0069296Y0046840D01*
X0069246Y0046918D01*
X0069199Y0046998D01*
X0069155Y0047079D01*
X0069115Y0047163D01*
X0069078Y0047248D01*
X0069045Y0047334D01*
X0069016Y0047422D01*
X0068991Y0047511D01*
X0068969Y0047601D01*
X0068952Y0047692D01*
X0068938Y0047783D01*
X0068928Y0047875D01*
X0068922Y0047967D01*
X0068920Y0048060D01*
X0067660Y0062233D02*
X0067662Y0062312D01*
X0067668Y0062391D01*
X0067678Y0062470D01*
X0067692Y0062548D01*
X0067709Y0062625D01*
X0067731Y0062701D01*
X0067756Y0062776D01*
X0067786Y0062849D01*
X0067818Y0062921D01*
X0067855Y0062992D01*
X0067895Y0063060D01*
X0067938Y0063126D01*
X0067984Y0063190D01*
X0068034Y0063252D01*
X0068087Y0063311D01*
X0068142Y0063367D01*
X0068201Y0063421D01*
X0068262Y0063471D01*
X0068325Y0063519D01*
X0068391Y0063563D01*
X0068459Y0063604D01*
X0068529Y0063641D01*
X0068600Y0063675D01*
X0068674Y0063705D01*
X0068748Y0063731D01*
X0068824Y0063753D01*
X0068901Y0063772D01*
X0068979Y0063787D01*
X0069057Y0063798D01*
X0069136Y0063805D01*
X0069215Y0063808D01*
X0069294Y0063807D01*
X0069373Y0063802D01*
X0069452Y0063793D01*
X0069530Y0063780D01*
X0069607Y0063763D01*
X0069684Y0063743D01*
X0069759Y0063718D01*
X0069833Y0063690D01*
X0069906Y0063658D01*
X0069976Y0063623D01*
X0070045Y0063584D01*
X0070112Y0063541D01*
X0070177Y0063495D01*
X0070239Y0063447D01*
X0070299Y0063395D01*
X0070356Y0063340D01*
X0070410Y0063282D01*
X0070461Y0063222D01*
X0070509Y0063159D01*
X0070554Y0063094D01*
X0070596Y0063026D01*
X0070634Y0062957D01*
X0070668Y0062886D01*
X0070699Y0062813D01*
X0070727Y0062738D01*
X0070750Y0062663D01*
X0070770Y0062586D01*
X0070786Y0062509D01*
X0070798Y0062430D01*
X0070806Y0062352D01*
X0070810Y0062273D01*
X0070810Y0062193D01*
X0070806Y0062114D01*
X0070798Y0062036D01*
X0070786Y0061957D01*
X0070770Y0061880D01*
X0070750Y0061803D01*
X0070727Y0061728D01*
X0070699Y0061653D01*
X0070668Y0061580D01*
X0070634Y0061509D01*
X0070596Y0061440D01*
X0070554Y0061372D01*
X0070509Y0061307D01*
X0070461Y0061244D01*
X0070410Y0061184D01*
X0070356Y0061126D01*
X0070299Y0061071D01*
X0070239Y0061019D01*
X0070177Y0060971D01*
X0070112Y0060925D01*
X0070045Y0060882D01*
X0069976Y0060843D01*
X0069906Y0060808D01*
X0069833Y0060776D01*
X0069759Y0060748D01*
X0069684Y0060723D01*
X0069607Y0060703D01*
X0069530Y0060686D01*
X0069452Y0060673D01*
X0069373Y0060664D01*
X0069294Y0060659D01*
X0069215Y0060658D01*
X0069136Y0060661D01*
X0069057Y0060668D01*
X0068979Y0060679D01*
X0068901Y0060694D01*
X0068824Y0060713D01*
X0068748Y0060735D01*
X0068674Y0060761D01*
X0068600Y0060791D01*
X0068529Y0060825D01*
X0068459Y0060862D01*
X0068391Y0060903D01*
X0068325Y0060947D01*
X0068262Y0060995D01*
X0068201Y0061045D01*
X0068142Y0061099D01*
X0068087Y0061155D01*
X0068034Y0061214D01*
X0067984Y0061276D01*
X0067938Y0061340D01*
X0067895Y0061406D01*
X0067855Y0061474D01*
X0067818Y0061545D01*
X0067786Y0061617D01*
X0067756Y0061690D01*
X0067731Y0061765D01*
X0067709Y0061841D01*
X0067692Y0061918D01*
X0067678Y0061996D01*
X0067668Y0062075D01*
X0067662Y0062154D01*
X0067660Y0062233D01*
X0066085Y0062233D02*
X0066087Y0062312D01*
X0066093Y0062391D01*
X0066103Y0062470D01*
X0066117Y0062548D01*
X0066134Y0062625D01*
X0066156Y0062701D01*
X0066181Y0062776D01*
X0066211Y0062849D01*
X0066243Y0062921D01*
X0066280Y0062992D01*
X0066320Y0063060D01*
X0066363Y0063126D01*
X0066409Y0063190D01*
X0066459Y0063252D01*
X0066512Y0063311D01*
X0066567Y0063367D01*
X0066626Y0063421D01*
X0066687Y0063471D01*
X0066750Y0063519D01*
X0066816Y0063563D01*
X0066884Y0063604D01*
X0066954Y0063641D01*
X0067025Y0063675D01*
X0067099Y0063705D01*
X0067173Y0063731D01*
X0067249Y0063753D01*
X0067326Y0063772D01*
X0067404Y0063787D01*
X0067482Y0063798D01*
X0067561Y0063805D01*
X0067640Y0063808D01*
X0067719Y0063807D01*
X0067798Y0063802D01*
X0067877Y0063793D01*
X0067955Y0063780D01*
X0068032Y0063763D01*
X0068109Y0063743D01*
X0068184Y0063718D01*
X0068258Y0063690D01*
X0068331Y0063658D01*
X0068401Y0063623D01*
X0068470Y0063584D01*
X0068537Y0063541D01*
X0068602Y0063495D01*
X0068664Y0063447D01*
X0068724Y0063395D01*
X0068781Y0063340D01*
X0068835Y0063282D01*
X0068886Y0063222D01*
X0068934Y0063159D01*
X0068979Y0063094D01*
X0069021Y0063026D01*
X0069059Y0062957D01*
X0069093Y0062886D01*
X0069124Y0062813D01*
X0069152Y0062738D01*
X0069175Y0062663D01*
X0069195Y0062586D01*
X0069211Y0062509D01*
X0069223Y0062430D01*
X0069231Y0062352D01*
X0069235Y0062273D01*
X0069235Y0062193D01*
X0069231Y0062114D01*
X0069223Y0062036D01*
X0069211Y0061957D01*
X0069195Y0061880D01*
X0069175Y0061803D01*
X0069152Y0061728D01*
X0069124Y0061653D01*
X0069093Y0061580D01*
X0069059Y0061509D01*
X0069021Y0061440D01*
X0068979Y0061372D01*
X0068934Y0061307D01*
X0068886Y0061244D01*
X0068835Y0061184D01*
X0068781Y0061126D01*
X0068724Y0061071D01*
X0068664Y0061019D01*
X0068602Y0060971D01*
X0068537Y0060925D01*
X0068470Y0060882D01*
X0068401Y0060843D01*
X0068331Y0060808D01*
X0068258Y0060776D01*
X0068184Y0060748D01*
X0068109Y0060723D01*
X0068032Y0060703D01*
X0067955Y0060686D01*
X0067877Y0060673D01*
X0067798Y0060664D01*
X0067719Y0060659D01*
X0067640Y0060658D01*
X0067561Y0060661D01*
X0067482Y0060668D01*
X0067404Y0060679D01*
X0067326Y0060694D01*
X0067249Y0060713D01*
X0067173Y0060735D01*
X0067099Y0060761D01*
X0067025Y0060791D01*
X0066954Y0060825D01*
X0066884Y0060862D01*
X0066816Y0060903D01*
X0066750Y0060947D01*
X0066687Y0060995D01*
X0066626Y0061045D01*
X0066567Y0061099D01*
X0066512Y0061155D01*
X0066459Y0061214D01*
X0066409Y0061276D01*
X0066363Y0061340D01*
X0066320Y0061406D01*
X0066280Y0061474D01*
X0066243Y0061545D01*
X0066211Y0061617D01*
X0066181Y0061690D01*
X0066156Y0061765D01*
X0066134Y0061841D01*
X0066117Y0061918D01*
X0066103Y0061996D01*
X0066093Y0062075D01*
X0066087Y0062154D01*
X0066085Y0062233D01*
X0070809Y0062233D02*
X0070811Y0062312D01*
X0070817Y0062391D01*
X0070827Y0062470D01*
X0070841Y0062548D01*
X0070858Y0062625D01*
X0070880Y0062701D01*
X0070905Y0062776D01*
X0070935Y0062849D01*
X0070967Y0062921D01*
X0071004Y0062992D01*
X0071044Y0063060D01*
X0071087Y0063126D01*
X0071133Y0063190D01*
X0071183Y0063252D01*
X0071236Y0063311D01*
X0071291Y0063367D01*
X0071350Y0063421D01*
X0071411Y0063471D01*
X0071474Y0063519D01*
X0071540Y0063563D01*
X0071608Y0063604D01*
X0071678Y0063641D01*
X0071749Y0063675D01*
X0071823Y0063705D01*
X0071897Y0063731D01*
X0071973Y0063753D01*
X0072050Y0063772D01*
X0072128Y0063787D01*
X0072206Y0063798D01*
X0072285Y0063805D01*
X0072364Y0063808D01*
X0072443Y0063807D01*
X0072522Y0063802D01*
X0072601Y0063793D01*
X0072679Y0063780D01*
X0072756Y0063763D01*
X0072833Y0063743D01*
X0072908Y0063718D01*
X0072982Y0063690D01*
X0073055Y0063658D01*
X0073125Y0063623D01*
X0073194Y0063584D01*
X0073261Y0063541D01*
X0073326Y0063495D01*
X0073388Y0063447D01*
X0073448Y0063395D01*
X0073505Y0063340D01*
X0073559Y0063282D01*
X0073610Y0063222D01*
X0073658Y0063159D01*
X0073703Y0063094D01*
X0073745Y0063026D01*
X0073783Y0062957D01*
X0073817Y0062886D01*
X0073848Y0062813D01*
X0073876Y0062738D01*
X0073899Y0062663D01*
X0073919Y0062586D01*
X0073935Y0062509D01*
X0073947Y0062430D01*
X0073955Y0062352D01*
X0073959Y0062273D01*
X0073959Y0062193D01*
X0073955Y0062114D01*
X0073947Y0062036D01*
X0073935Y0061957D01*
X0073919Y0061880D01*
X0073899Y0061803D01*
X0073876Y0061728D01*
X0073848Y0061653D01*
X0073817Y0061580D01*
X0073783Y0061509D01*
X0073745Y0061440D01*
X0073703Y0061372D01*
X0073658Y0061307D01*
X0073610Y0061244D01*
X0073559Y0061184D01*
X0073505Y0061126D01*
X0073448Y0061071D01*
X0073388Y0061019D01*
X0073326Y0060971D01*
X0073261Y0060925D01*
X0073194Y0060882D01*
X0073125Y0060843D01*
X0073055Y0060808D01*
X0072982Y0060776D01*
X0072908Y0060748D01*
X0072833Y0060723D01*
X0072756Y0060703D01*
X0072679Y0060686D01*
X0072601Y0060673D01*
X0072522Y0060664D01*
X0072443Y0060659D01*
X0072364Y0060658D01*
X0072285Y0060661D01*
X0072206Y0060668D01*
X0072128Y0060679D01*
X0072050Y0060694D01*
X0071973Y0060713D01*
X0071897Y0060735D01*
X0071823Y0060761D01*
X0071749Y0060791D01*
X0071678Y0060825D01*
X0071608Y0060862D01*
X0071540Y0060903D01*
X0071474Y0060947D01*
X0071411Y0060995D01*
X0071350Y0061045D01*
X0071291Y0061099D01*
X0071236Y0061155D01*
X0071183Y0061214D01*
X0071133Y0061276D01*
X0071087Y0061340D01*
X0071044Y0061406D01*
X0071004Y0061474D01*
X0070967Y0061545D01*
X0070935Y0061617D01*
X0070905Y0061690D01*
X0070880Y0061765D01*
X0070858Y0061841D01*
X0070841Y0061918D01*
X0070827Y0061996D01*
X0070817Y0062075D01*
X0070811Y0062154D01*
X0070809Y0062233D01*
X0072384Y0062233D02*
X0072386Y0062312D01*
X0072392Y0062391D01*
X0072402Y0062470D01*
X0072416Y0062548D01*
X0072433Y0062625D01*
X0072455Y0062701D01*
X0072480Y0062776D01*
X0072510Y0062849D01*
X0072542Y0062921D01*
X0072579Y0062992D01*
X0072619Y0063060D01*
X0072662Y0063126D01*
X0072708Y0063190D01*
X0072758Y0063252D01*
X0072811Y0063311D01*
X0072866Y0063367D01*
X0072925Y0063421D01*
X0072986Y0063471D01*
X0073049Y0063519D01*
X0073115Y0063563D01*
X0073183Y0063604D01*
X0073253Y0063641D01*
X0073324Y0063675D01*
X0073398Y0063705D01*
X0073472Y0063731D01*
X0073548Y0063753D01*
X0073625Y0063772D01*
X0073703Y0063787D01*
X0073781Y0063798D01*
X0073860Y0063805D01*
X0073939Y0063808D01*
X0074018Y0063807D01*
X0074097Y0063802D01*
X0074176Y0063793D01*
X0074254Y0063780D01*
X0074331Y0063763D01*
X0074408Y0063743D01*
X0074483Y0063718D01*
X0074557Y0063690D01*
X0074630Y0063658D01*
X0074700Y0063623D01*
X0074769Y0063584D01*
X0074836Y0063541D01*
X0074901Y0063495D01*
X0074963Y0063447D01*
X0075023Y0063395D01*
X0075080Y0063340D01*
X0075134Y0063282D01*
X0075185Y0063222D01*
X0075233Y0063159D01*
X0075278Y0063094D01*
X0075320Y0063026D01*
X0075358Y0062957D01*
X0075392Y0062886D01*
X0075423Y0062813D01*
X0075451Y0062738D01*
X0075474Y0062663D01*
X0075494Y0062586D01*
X0075510Y0062509D01*
X0075522Y0062430D01*
X0075530Y0062352D01*
X0075534Y0062273D01*
X0075534Y0062193D01*
X0075530Y0062114D01*
X0075522Y0062036D01*
X0075510Y0061957D01*
X0075494Y0061880D01*
X0075474Y0061803D01*
X0075451Y0061728D01*
X0075423Y0061653D01*
X0075392Y0061580D01*
X0075358Y0061509D01*
X0075320Y0061440D01*
X0075278Y0061372D01*
X0075233Y0061307D01*
X0075185Y0061244D01*
X0075134Y0061184D01*
X0075080Y0061126D01*
X0075023Y0061071D01*
X0074963Y0061019D01*
X0074901Y0060971D01*
X0074836Y0060925D01*
X0074769Y0060882D01*
X0074700Y0060843D01*
X0074630Y0060808D01*
X0074557Y0060776D01*
X0074483Y0060748D01*
X0074408Y0060723D01*
X0074331Y0060703D01*
X0074254Y0060686D01*
X0074176Y0060673D01*
X0074097Y0060664D01*
X0074018Y0060659D01*
X0073939Y0060658D01*
X0073860Y0060661D01*
X0073781Y0060668D01*
X0073703Y0060679D01*
X0073625Y0060694D01*
X0073548Y0060713D01*
X0073472Y0060735D01*
X0073398Y0060761D01*
X0073324Y0060791D01*
X0073253Y0060825D01*
X0073183Y0060862D01*
X0073115Y0060903D01*
X0073049Y0060947D01*
X0072986Y0060995D01*
X0072925Y0061045D01*
X0072866Y0061099D01*
X0072811Y0061155D01*
X0072758Y0061214D01*
X0072708Y0061276D01*
X0072662Y0061340D01*
X0072619Y0061406D01*
X0072579Y0061474D01*
X0072542Y0061545D01*
X0072510Y0061617D01*
X0072480Y0061690D01*
X0072455Y0061765D01*
X0072433Y0061841D01*
X0072416Y0061918D01*
X0072402Y0061996D01*
X0072392Y0062075D01*
X0072386Y0062154D01*
X0072384Y0062233D01*
X0210631Y0011249D02*
X0210633Y0011337D01*
X0210639Y0011425D01*
X0210649Y0011513D01*
X0210663Y0011600D01*
X0210681Y0011686D01*
X0210702Y0011771D01*
X0210728Y0011856D01*
X0210757Y0011939D01*
X0210790Y0012021D01*
X0210827Y0012101D01*
X0210867Y0012179D01*
X0210911Y0012256D01*
X0210958Y0012330D01*
X0211009Y0012402D01*
X0211062Y0012472D01*
X0211119Y0012540D01*
X0211179Y0012604D01*
X0211242Y0012666D01*
X0211307Y0012725D01*
X0211375Y0012781D01*
X0211446Y0012834D01*
X0211518Y0012884D01*
X0211593Y0012930D01*
X0211670Y0012973D01*
X0211749Y0013013D01*
X0211830Y0013048D01*
X0211912Y0013081D01*
X0211995Y0013109D01*
X0212080Y0013134D01*
X0212166Y0013154D01*
X0212252Y0013171D01*
X0212339Y0013184D01*
X0212427Y0013193D01*
X0212515Y0013198D01*
X0212603Y0013199D01*
X0212691Y0013196D01*
X0212779Y0013189D01*
X0212866Y0013178D01*
X0212953Y0013163D01*
X0213039Y0013144D01*
X0213125Y0013122D01*
X0213209Y0013095D01*
X0213291Y0013065D01*
X0213373Y0013031D01*
X0213453Y0012993D01*
X0213530Y0012952D01*
X0213606Y0012908D01*
X0213680Y0012860D01*
X0213752Y0012808D01*
X0213821Y0012754D01*
X0213888Y0012696D01*
X0213952Y0012636D01*
X0214013Y0012572D01*
X0214072Y0012506D01*
X0214127Y0012438D01*
X0214179Y0012366D01*
X0214228Y0012293D01*
X0214273Y0012218D01*
X0214315Y0012140D01*
X0214354Y0012061D01*
X0214389Y0011980D01*
X0214420Y0011897D01*
X0214447Y0011814D01*
X0214471Y0011729D01*
X0214491Y0011643D01*
X0214507Y0011556D01*
X0214519Y0011469D01*
X0214527Y0011381D01*
X0214531Y0011293D01*
X0214531Y0011205D01*
X0214527Y0011117D01*
X0214519Y0011029D01*
X0214507Y0010942D01*
X0214491Y0010855D01*
X0214471Y0010769D01*
X0214447Y0010684D01*
X0214420Y0010601D01*
X0214389Y0010518D01*
X0214354Y0010437D01*
X0214315Y0010358D01*
X0214273Y0010280D01*
X0214228Y0010205D01*
X0214179Y0010132D01*
X0214127Y0010060D01*
X0214072Y0009992D01*
X0214013Y0009926D01*
X0213952Y0009862D01*
X0213888Y0009802D01*
X0213821Y0009744D01*
X0213752Y0009690D01*
X0213680Y0009638D01*
X0213606Y0009590D01*
X0213530Y0009546D01*
X0213453Y0009505D01*
X0213373Y0009467D01*
X0213291Y0009433D01*
X0213209Y0009403D01*
X0213125Y0009376D01*
X0213039Y0009354D01*
X0212953Y0009335D01*
X0212866Y0009320D01*
X0212779Y0009309D01*
X0212691Y0009302D01*
X0212603Y0009299D01*
X0212515Y0009300D01*
X0212427Y0009305D01*
X0212339Y0009314D01*
X0212252Y0009327D01*
X0212166Y0009344D01*
X0212080Y0009364D01*
X0211995Y0009389D01*
X0211912Y0009417D01*
X0211830Y0009450D01*
X0211749Y0009485D01*
X0211670Y0009525D01*
X0211593Y0009568D01*
X0211518Y0009614D01*
X0211446Y0009664D01*
X0211375Y0009717D01*
X0211307Y0009773D01*
X0211242Y0009832D01*
X0211179Y0009894D01*
X0211119Y0009958D01*
X0211062Y0010026D01*
X0211009Y0010096D01*
X0210958Y0010168D01*
X0210911Y0010242D01*
X0210867Y0010319D01*
X0210827Y0010397D01*
X0210790Y0010477D01*
X0210757Y0010559D01*
X0210728Y0010642D01*
X0210702Y0010727D01*
X0210681Y0010812D01*
X0210663Y0010898D01*
X0210649Y0010985D01*
X0210639Y0011073D01*
X0210633Y0011161D01*
X0210631Y0011249D01*
X0230631Y0015249D02*
X0230633Y0015337D01*
X0230639Y0015425D01*
X0230649Y0015513D01*
X0230663Y0015600D01*
X0230681Y0015686D01*
X0230702Y0015771D01*
X0230728Y0015856D01*
X0230757Y0015939D01*
X0230790Y0016021D01*
X0230827Y0016101D01*
X0230867Y0016179D01*
X0230911Y0016256D01*
X0230958Y0016330D01*
X0231009Y0016402D01*
X0231062Y0016472D01*
X0231119Y0016540D01*
X0231179Y0016604D01*
X0231242Y0016666D01*
X0231307Y0016725D01*
X0231375Y0016781D01*
X0231446Y0016834D01*
X0231518Y0016884D01*
X0231593Y0016930D01*
X0231670Y0016973D01*
X0231749Y0017013D01*
X0231830Y0017048D01*
X0231912Y0017081D01*
X0231995Y0017109D01*
X0232080Y0017134D01*
X0232166Y0017154D01*
X0232252Y0017171D01*
X0232339Y0017184D01*
X0232427Y0017193D01*
X0232515Y0017198D01*
X0232603Y0017199D01*
X0232691Y0017196D01*
X0232779Y0017189D01*
X0232866Y0017178D01*
X0232953Y0017163D01*
X0233039Y0017144D01*
X0233125Y0017122D01*
X0233209Y0017095D01*
X0233291Y0017065D01*
X0233373Y0017031D01*
X0233453Y0016993D01*
X0233530Y0016952D01*
X0233606Y0016908D01*
X0233680Y0016860D01*
X0233752Y0016808D01*
X0233821Y0016754D01*
X0233888Y0016696D01*
X0233952Y0016636D01*
X0234013Y0016572D01*
X0234072Y0016506D01*
X0234127Y0016438D01*
X0234179Y0016366D01*
X0234228Y0016293D01*
X0234273Y0016218D01*
X0234315Y0016140D01*
X0234354Y0016061D01*
X0234389Y0015980D01*
X0234420Y0015897D01*
X0234447Y0015814D01*
X0234471Y0015729D01*
X0234491Y0015643D01*
X0234507Y0015556D01*
X0234519Y0015469D01*
X0234527Y0015381D01*
X0234531Y0015293D01*
X0234531Y0015205D01*
X0234527Y0015117D01*
X0234519Y0015029D01*
X0234507Y0014942D01*
X0234491Y0014855D01*
X0234471Y0014769D01*
X0234447Y0014684D01*
X0234420Y0014601D01*
X0234389Y0014518D01*
X0234354Y0014437D01*
X0234315Y0014358D01*
X0234273Y0014280D01*
X0234228Y0014205D01*
X0234179Y0014132D01*
X0234127Y0014060D01*
X0234072Y0013992D01*
X0234013Y0013926D01*
X0233952Y0013862D01*
X0233888Y0013802D01*
X0233821Y0013744D01*
X0233752Y0013690D01*
X0233680Y0013638D01*
X0233606Y0013590D01*
X0233530Y0013546D01*
X0233453Y0013505D01*
X0233373Y0013467D01*
X0233291Y0013433D01*
X0233209Y0013403D01*
X0233125Y0013376D01*
X0233039Y0013354D01*
X0232953Y0013335D01*
X0232866Y0013320D01*
X0232779Y0013309D01*
X0232691Y0013302D01*
X0232603Y0013299D01*
X0232515Y0013300D01*
X0232427Y0013305D01*
X0232339Y0013314D01*
X0232252Y0013327D01*
X0232166Y0013344D01*
X0232080Y0013364D01*
X0231995Y0013389D01*
X0231912Y0013417D01*
X0231830Y0013450D01*
X0231749Y0013485D01*
X0231670Y0013525D01*
X0231593Y0013568D01*
X0231518Y0013614D01*
X0231446Y0013664D01*
X0231375Y0013717D01*
X0231307Y0013773D01*
X0231242Y0013832D01*
X0231179Y0013894D01*
X0231119Y0013958D01*
X0231062Y0014026D01*
X0231009Y0014096D01*
X0230958Y0014168D01*
X0230911Y0014242D01*
X0230867Y0014319D01*
X0230827Y0014397D01*
X0230790Y0014477D01*
X0230757Y0014559D01*
X0230728Y0014642D01*
X0230702Y0014727D01*
X0230681Y0014812D01*
X0230663Y0014898D01*
X0230649Y0014985D01*
X0230639Y0015073D01*
X0230633Y0015161D01*
X0230631Y0015249D01*
X0230631Y0007249D02*
X0230633Y0007337D01*
X0230639Y0007425D01*
X0230649Y0007513D01*
X0230663Y0007600D01*
X0230681Y0007686D01*
X0230702Y0007771D01*
X0230728Y0007856D01*
X0230757Y0007939D01*
X0230790Y0008021D01*
X0230827Y0008101D01*
X0230867Y0008179D01*
X0230911Y0008256D01*
X0230958Y0008330D01*
X0231009Y0008402D01*
X0231062Y0008472D01*
X0231119Y0008540D01*
X0231179Y0008604D01*
X0231242Y0008666D01*
X0231307Y0008725D01*
X0231375Y0008781D01*
X0231446Y0008834D01*
X0231518Y0008884D01*
X0231593Y0008930D01*
X0231670Y0008973D01*
X0231749Y0009013D01*
X0231830Y0009048D01*
X0231912Y0009081D01*
X0231995Y0009109D01*
X0232080Y0009134D01*
X0232166Y0009154D01*
X0232252Y0009171D01*
X0232339Y0009184D01*
X0232427Y0009193D01*
X0232515Y0009198D01*
X0232603Y0009199D01*
X0232691Y0009196D01*
X0232779Y0009189D01*
X0232866Y0009178D01*
X0232953Y0009163D01*
X0233039Y0009144D01*
X0233125Y0009122D01*
X0233209Y0009095D01*
X0233291Y0009065D01*
X0233373Y0009031D01*
X0233453Y0008993D01*
X0233530Y0008952D01*
X0233606Y0008908D01*
X0233680Y0008860D01*
X0233752Y0008808D01*
X0233821Y0008754D01*
X0233888Y0008696D01*
X0233952Y0008636D01*
X0234013Y0008572D01*
X0234072Y0008506D01*
X0234127Y0008438D01*
X0234179Y0008366D01*
X0234228Y0008293D01*
X0234273Y0008218D01*
X0234315Y0008140D01*
X0234354Y0008061D01*
X0234389Y0007980D01*
X0234420Y0007897D01*
X0234447Y0007814D01*
X0234471Y0007729D01*
X0234491Y0007643D01*
X0234507Y0007556D01*
X0234519Y0007469D01*
X0234527Y0007381D01*
X0234531Y0007293D01*
X0234531Y0007205D01*
X0234527Y0007117D01*
X0234519Y0007029D01*
X0234507Y0006942D01*
X0234491Y0006855D01*
X0234471Y0006769D01*
X0234447Y0006684D01*
X0234420Y0006601D01*
X0234389Y0006518D01*
X0234354Y0006437D01*
X0234315Y0006358D01*
X0234273Y0006280D01*
X0234228Y0006205D01*
X0234179Y0006132D01*
X0234127Y0006060D01*
X0234072Y0005992D01*
X0234013Y0005926D01*
X0233952Y0005862D01*
X0233888Y0005802D01*
X0233821Y0005744D01*
X0233752Y0005690D01*
X0233680Y0005638D01*
X0233606Y0005590D01*
X0233530Y0005546D01*
X0233453Y0005505D01*
X0233373Y0005467D01*
X0233291Y0005433D01*
X0233209Y0005403D01*
X0233125Y0005376D01*
X0233039Y0005354D01*
X0232953Y0005335D01*
X0232866Y0005320D01*
X0232779Y0005309D01*
X0232691Y0005302D01*
X0232603Y0005299D01*
X0232515Y0005300D01*
X0232427Y0005305D01*
X0232339Y0005314D01*
X0232252Y0005327D01*
X0232166Y0005344D01*
X0232080Y0005364D01*
X0231995Y0005389D01*
X0231912Y0005417D01*
X0231830Y0005450D01*
X0231749Y0005485D01*
X0231670Y0005525D01*
X0231593Y0005568D01*
X0231518Y0005614D01*
X0231446Y0005664D01*
X0231375Y0005717D01*
X0231307Y0005773D01*
X0231242Y0005832D01*
X0231179Y0005894D01*
X0231119Y0005958D01*
X0231062Y0006026D01*
X0231009Y0006096D01*
X0230958Y0006168D01*
X0230911Y0006242D01*
X0230867Y0006319D01*
X0230827Y0006397D01*
X0230790Y0006477D01*
X0230757Y0006559D01*
X0230728Y0006642D01*
X0230702Y0006727D01*
X0230681Y0006812D01*
X0230663Y0006898D01*
X0230649Y0006985D01*
X0230639Y0007073D01*
X0230633Y0007161D01*
X0230631Y0007249D01*
M02*
