G75*
%MOIN*%
%OFA0B0*%
%FSLAX25Y25*%
%IPPOS*%
%LPD*%
%AMOC8*
5,1,8,0,0,1.08239X$1,22.5*
%
%ADD10R,0.03937X0.03543*%
%ADD11R,0.03150X0.06693*%
%ADD12R,0.04331X0.03937*%
%ADD13R,0.04724X0.04724*%
%ADD14R,0.03937X0.04331*%
%ADD15C,0.01969*%
%ADD16R,0.07874X0.04724*%
%ADD17R,0.03543X0.03543*%
%ADD18R,0.03543X0.04331*%
%ADD19R,0.01400X0.01400*%
%ADD20R,0.03026X0.01182*%
%ADD21R,0.01182X0.03026*%
D10*
X0226928Y0056568D03*
X0233227Y0056568D03*
X0233227Y0072709D03*
X0226928Y0072709D03*
D11*
X0225353Y0064639D03*
D12*
X0092376Y0015816D03*
X0092376Y0009123D03*
X0130652Y0012036D03*
X0137345Y0012036D03*
X0143447Y0012036D03*
X0150140Y0012036D03*
X0167069Y0012036D03*
X0173762Y0012036D03*
X0179104Y0012064D03*
X0185797Y0012064D03*
D13*
X0225140Y0036643D03*
X0233408Y0036643D03*
X0233408Y0044910D03*
X0225140Y0044910D03*
D14*
X0219825Y0044910D03*
X0213132Y0044910D03*
X0213132Y0036643D03*
X0219825Y0036643D03*
X0108380Y0015816D03*
X0100369Y0015816D03*
X0100369Y0009123D03*
X0108380Y0009123D03*
X0093250Y0049831D03*
X0093250Y0056524D03*
D15*
X0134196Y0055540D02*
X0134196Y0055540D01*
X0128290Y0055540D01*
X0128290Y0055540D01*
X0134196Y0055540D01*
X0134196Y0051997D02*
X0134196Y0051997D01*
X0128290Y0051997D01*
X0128290Y0051997D01*
X0134196Y0051997D01*
X0134196Y0048454D02*
X0134196Y0048454D01*
X0128290Y0048454D01*
X0128290Y0048454D01*
X0134196Y0048454D01*
X0134196Y0044910D02*
X0134196Y0044910D01*
X0128290Y0044910D01*
X0128290Y0044910D01*
X0134196Y0044910D01*
X0134196Y0041367D02*
X0134196Y0041367D01*
X0128290Y0041367D01*
X0128290Y0041367D01*
X0134196Y0041367D01*
X0134196Y0037824D02*
X0134196Y0037824D01*
X0128290Y0037824D01*
X0128290Y0037824D01*
X0134196Y0037824D01*
X0134196Y0034280D02*
X0134196Y0034280D01*
X0128290Y0034280D01*
X0128290Y0034280D01*
X0134196Y0034280D01*
X0134196Y0030737D02*
X0134196Y0030737D01*
X0128290Y0030737D01*
X0128290Y0030737D01*
X0134196Y0030737D01*
X0134196Y0027194D02*
X0134196Y0027194D01*
X0128290Y0027194D01*
X0128290Y0027194D01*
X0134196Y0027194D01*
X0137148Y0024044D02*
X0137148Y0024044D01*
X0137148Y0018138D01*
X0137148Y0018138D01*
X0137148Y0024044D01*
X0137148Y0020106D02*
X0137148Y0020106D01*
X0137148Y0022074D02*
X0137148Y0022074D01*
X0137148Y0024042D02*
X0137148Y0024042D01*
X0140691Y0024044D02*
X0140691Y0024044D01*
X0140691Y0018138D01*
X0140691Y0018138D01*
X0140691Y0024044D01*
X0140691Y0020106D02*
X0140691Y0020106D01*
X0140691Y0022074D02*
X0140691Y0022074D01*
X0140691Y0024042D02*
X0140691Y0024042D01*
X0144235Y0024044D02*
X0144235Y0024044D01*
X0144235Y0018138D01*
X0144235Y0018138D01*
X0144235Y0024044D01*
X0144235Y0020106D02*
X0144235Y0020106D01*
X0144235Y0022074D02*
X0144235Y0022074D01*
X0144235Y0024042D02*
X0144235Y0024042D01*
X0147778Y0024044D02*
X0147778Y0024044D01*
X0147778Y0018138D01*
X0147778Y0018138D01*
X0147778Y0024044D01*
X0147778Y0020106D02*
X0147778Y0020106D01*
X0147778Y0022074D02*
X0147778Y0022074D01*
X0147778Y0024042D02*
X0147778Y0024042D01*
X0151321Y0024044D02*
X0151321Y0024044D01*
X0151321Y0018138D01*
X0151321Y0018138D01*
X0151321Y0024044D01*
X0151321Y0020106D02*
X0151321Y0020106D01*
X0151321Y0022074D02*
X0151321Y0022074D01*
X0151321Y0024042D02*
X0151321Y0024042D01*
X0154865Y0018138D02*
X0154865Y0018138D01*
X0154865Y0024044D01*
X0154865Y0024044D01*
X0154865Y0018138D01*
X0154865Y0020106D02*
X0154865Y0020106D01*
X0154865Y0022074D02*
X0154865Y0022074D01*
X0154865Y0024042D02*
X0154865Y0024042D01*
X0158408Y0018138D02*
X0158408Y0018138D01*
X0158408Y0024044D01*
X0158408Y0024044D01*
X0158408Y0018138D01*
X0158408Y0020106D02*
X0158408Y0020106D01*
X0158408Y0022074D02*
X0158408Y0022074D01*
X0158408Y0024042D02*
X0158408Y0024042D01*
X0161951Y0018138D02*
X0161951Y0018138D01*
X0161951Y0024044D01*
X0161951Y0024044D01*
X0161951Y0018138D01*
X0161951Y0020106D02*
X0161951Y0020106D01*
X0161951Y0022074D02*
X0161951Y0022074D01*
X0161951Y0024042D02*
X0161951Y0024042D01*
X0165494Y0018138D02*
X0165494Y0018138D01*
X0165494Y0024044D01*
X0165494Y0024044D01*
X0165494Y0018138D01*
X0165494Y0020106D02*
X0165494Y0020106D01*
X0165494Y0022074D02*
X0165494Y0022074D01*
X0165494Y0024042D02*
X0165494Y0024042D01*
X0169038Y0018138D02*
X0169038Y0018138D01*
X0169038Y0024044D01*
X0169038Y0024044D01*
X0169038Y0018138D01*
X0169038Y0020106D02*
X0169038Y0020106D01*
X0169038Y0022074D02*
X0169038Y0022074D01*
X0169038Y0024042D02*
X0169038Y0024042D01*
X0172581Y0018138D02*
X0172581Y0018138D01*
X0172581Y0024044D01*
X0172581Y0024044D01*
X0172581Y0018138D01*
X0172581Y0020106D02*
X0172581Y0020106D01*
X0172581Y0022074D02*
X0172581Y0022074D01*
X0172581Y0024042D02*
X0172581Y0024042D01*
X0176124Y0018138D02*
X0176124Y0018138D01*
X0176124Y0024044D01*
X0176124Y0024044D01*
X0176124Y0018138D01*
X0176124Y0020106D02*
X0176124Y0020106D01*
X0176124Y0022074D02*
X0176124Y0022074D01*
X0176124Y0024042D02*
X0176124Y0024042D01*
X0184983Y0027194D02*
X0184983Y0027194D01*
X0179077Y0027194D01*
X0179077Y0027194D01*
X0184983Y0027194D01*
X0184983Y0030737D02*
X0184983Y0030737D01*
X0179077Y0030737D01*
X0179077Y0030737D01*
X0184983Y0030737D01*
X0184983Y0034280D02*
X0184983Y0034280D01*
X0179077Y0034280D01*
X0179077Y0034280D01*
X0184983Y0034280D01*
X0184983Y0037824D02*
X0184983Y0037824D01*
X0179077Y0037824D01*
X0179077Y0037824D01*
X0184983Y0037824D01*
X0184983Y0041367D02*
X0184983Y0041367D01*
X0179077Y0041367D01*
X0179077Y0041367D01*
X0184983Y0041367D01*
X0184983Y0044910D02*
X0184983Y0044910D01*
X0179077Y0044910D01*
X0179077Y0044910D01*
X0184983Y0044910D01*
X0184983Y0048454D02*
X0184983Y0048454D01*
X0179077Y0048454D01*
X0179077Y0048454D01*
X0184983Y0048454D01*
X0184983Y0051997D02*
X0184983Y0051997D01*
X0179077Y0051997D01*
X0179077Y0051997D01*
X0184983Y0051997D01*
X0184983Y0055540D02*
X0184983Y0055540D01*
X0179077Y0055540D01*
X0179077Y0055540D01*
X0184983Y0055540D01*
X0184983Y0059083D02*
X0184983Y0059083D01*
X0179077Y0059083D01*
X0179077Y0059083D01*
X0184983Y0059083D01*
X0184983Y0062627D02*
X0184983Y0062627D01*
X0179077Y0062627D01*
X0179077Y0062627D01*
X0184983Y0062627D01*
X0184983Y0066170D02*
X0184983Y0066170D01*
X0179077Y0066170D01*
X0179077Y0066170D01*
X0184983Y0066170D01*
X0134196Y0066170D02*
X0134196Y0066170D01*
X0128290Y0066170D01*
X0128290Y0066170D01*
X0134196Y0066170D01*
X0134196Y0062627D02*
X0134196Y0062627D01*
X0128290Y0062627D01*
X0128290Y0062627D01*
X0134196Y0062627D01*
X0134196Y0059083D02*
X0134196Y0059083D01*
X0128290Y0059083D01*
X0128290Y0059083D01*
X0134196Y0059083D01*
D16*
X0080928Y0025422D03*
X0080928Y0035158D03*
X0080928Y0043245D03*
X0080928Y0052981D03*
D17*
X0103093Y0049202D03*
X0111754Y0049202D03*
X0111754Y0056761D03*
D18*
X0103093Y0056367D03*
D19*
X0107424Y0033296D03*
D20*
X0115552Y0032312D03*
X0115553Y0034279D03*
X0115551Y0036252D03*
X0115557Y0038212D03*
X0099285Y0038220D03*
X0099291Y0036251D03*
X0099291Y0034281D03*
X0099289Y0032314D03*
X0099291Y0030341D03*
X0099285Y0028381D03*
X0115557Y0028373D03*
X0115552Y0030342D03*
D21*
X0112341Y0025162D03*
X0110372Y0025157D03*
X0108402Y0025157D03*
X0106435Y0025158D03*
X0104463Y0025156D03*
X0102503Y0025162D03*
X0102507Y0041430D03*
X0104476Y0041435D03*
X0106446Y0041435D03*
X0108413Y0041433D03*
X0110385Y0041435D03*
X0112345Y0041430D03*
M02*
