G75*
G70*
%OFA0B0*%
%FSLAX24Y24*%
%IPPOS*%
%LPD*%
%AMOC8*
5,1,8,0,0,1.08239X$1,22.5*
%
%ADD10C,0.0132*%
%ADD11C,0.0088*%
%ADD12OC8,0.0780*%
%ADD13C,0.0680*%
%ADD14OC8,0.0560*%
%ADD15R,0.0540X0.0710*%
%ADD16R,0.0060X0.0720*%
D10*
X010006Y002575D02*
X010006Y003105D01*
X010006Y002575D02*
X009698Y002575D01*
X009698Y003105D01*
X010006Y003105D01*
X010006Y002706D02*
X009698Y002706D01*
X009698Y002837D02*
X010006Y002837D01*
X010006Y002968D02*
X009698Y002968D01*
X009698Y003099D02*
X010006Y003099D01*
X010597Y003223D02*
X010597Y002575D01*
X010289Y002575D01*
X010289Y003223D01*
X010597Y003223D01*
X010597Y002706D02*
X010289Y002706D01*
X010289Y002837D02*
X010597Y002837D01*
X010597Y002968D02*
X010289Y002968D01*
X010289Y003099D02*
X010597Y003099D01*
X011187Y003223D02*
X011187Y002575D01*
X010879Y002575D01*
X010879Y003223D01*
X011187Y003223D01*
X011187Y002706D02*
X010879Y002706D01*
X010879Y002837D02*
X011187Y002837D01*
X011187Y002968D02*
X010879Y002968D01*
X010879Y003099D02*
X011187Y003099D01*
X011778Y003223D02*
X011778Y002575D01*
X011470Y002575D01*
X011470Y003223D01*
X011778Y003223D01*
X011778Y002706D02*
X011470Y002706D01*
X011470Y002837D02*
X011778Y002837D01*
X011778Y002968D02*
X011470Y002968D01*
X011470Y003099D02*
X011778Y003099D01*
X012368Y003223D02*
X012368Y002575D01*
X012060Y002575D01*
X012060Y003223D01*
X012368Y003223D01*
X012368Y002706D02*
X012060Y002706D01*
X012060Y002837D02*
X012368Y002837D01*
X012368Y002968D02*
X012060Y002968D01*
X012060Y003099D02*
X012368Y003099D01*
X012959Y003223D02*
X012959Y002575D01*
X012651Y002575D01*
X012651Y003223D01*
X012959Y003223D01*
X012959Y002706D02*
X012651Y002706D01*
X012651Y002837D02*
X012959Y002837D01*
X012959Y002968D02*
X012651Y002968D01*
X012651Y003099D02*
X012959Y003099D01*
X013549Y003223D02*
X013549Y002575D01*
X013241Y002575D01*
X013241Y003223D01*
X013549Y003223D01*
X013549Y002706D02*
X013241Y002706D01*
X013241Y002837D02*
X013549Y002837D01*
X013549Y002968D02*
X013241Y002968D01*
X013241Y003099D02*
X013549Y003099D01*
X014140Y003223D02*
X014140Y002575D01*
X013832Y002575D01*
X013832Y003223D01*
X014140Y003223D01*
X014140Y002706D02*
X013832Y002706D01*
X013832Y002837D02*
X014140Y002837D01*
X014140Y002968D02*
X013832Y002968D01*
X013832Y003099D02*
X014140Y003099D01*
X014731Y003223D02*
X014731Y002575D01*
X014423Y002575D01*
X014423Y003223D01*
X014731Y003223D01*
X014731Y002706D02*
X014423Y002706D01*
X014423Y002837D02*
X014731Y002837D01*
X014731Y002968D02*
X014423Y002968D01*
X014423Y003099D02*
X014731Y003099D01*
X015321Y003223D02*
X015321Y002575D01*
X015013Y002575D01*
X015013Y003223D01*
X015321Y003223D01*
X015321Y002706D02*
X015013Y002706D01*
X015013Y002837D02*
X015321Y002837D01*
X015321Y002968D02*
X015013Y002968D01*
X015013Y003099D02*
X015321Y003099D01*
X015912Y003223D02*
X015912Y002575D01*
X015604Y002575D01*
X015604Y003223D01*
X015912Y003223D01*
X015912Y002706D02*
X015604Y002706D01*
X015604Y002837D02*
X015912Y002837D01*
X015912Y002968D02*
X015604Y002968D01*
X015604Y003099D02*
X015912Y003099D01*
X016502Y003223D02*
X016502Y002575D01*
X016194Y002575D01*
X016194Y003223D01*
X016502Y003223D01*
X016502Y002706D02*
X016194Y002706D01*
X016194Y002837D02*
X016502Y002837D01*
X016502Y002968D02*
X016194Y002968D01*
X016194Y003099D02*
X016502Y003099D01*
X017093Y003223D02*
X017093Y002575D01*
X016785Y002575D01*
X016785Y003223D01*
X017093Y003223D01*
X017093Y002706D02*
X016785Y002706D01*
X016785Y002837D02*
X017093Y002837D01*
X017093Y002968D02*
X016785Y002968D01*
X016785Y003099D02*
X017093Y003099D01*
X017683Y003105D02*
X017683Y002575D01*
X017375Y002575D01*
X017375Y003105D01*
X017683Y003105D01*
X017683Y002706D02*
X017375Y002706D01*
X017375Y002837D02*
X017683Y002837D01*
X017683Y002968D02*
X017375Y002968D01*
X017375Y003099D02*
X017683Y003099D01*
X019213Y004753D02*
X019743Y004753D01*
X019213Y004753D02*
X019213Y005061D01*
X019743Y005061D01*
X019743Y004753D01*
X019743Y004884D02*
X019213Y004884D01*
X019213Y005015D02*
X019743Y005015D01*
X019743Y005344D02*
X019095Y005344D01*
X019095Y005652D01*
X019743Y005652D01*
X019743Y005344D01*
X019743Y005475D02*
X019095Y005475D01*
X019095Y005606D02*
X019743Y005606D01*
X019743Y005934D02*
X019213Y005934D01*
X019213Y006242D01*
X019743Y006242D01*
X019743Y005934D01*
X019743Y006065D02*
X019213Y006065D01*
X019213Y006196D02*
X019743Y006196D01*
X017683Y007890D02*
X017683Y008420D01*
X017683Y007890D02*
X017375Y007890D01*
X017375Y008420D01*
X017683Y008420D01*
X017683Y008021D02*
X017375Y008021D01*
X017375Y008152D02*
X017683Y008152D01*
X017683Y008283D02*
X017375Y008283D01*
X017375Y008414D02*
X017683Y008414D01*
X017093Y008420D02*
X017093Y007772D01*
X016785Y007772D01*
X016785Y008420D01*
X017093Y008420D01*
X017093Y007903D02*
X016785Y007903D01*
X016785Y008034D02*
X017093Y008034D01*
X017093Y008165D02*
X016785Y008165D01*
X016785Y008296D02*
X017093Y008296D01*
X016502Y008420D02*
X016502Y007772D01*
X016194Y007772D01*
X016194Y008420D01*
X016502Y008420D01*
X016502Y007903D02*
X016194Y007903D01*
X016194Y008034D02*
X016502Y008034D01*
X016502Y008165D02*
X016194Y008165D01*
X016194Y008296D02*
X016502Y008296D01*
X015912Y008420D02*
X015912Y007772D01*
X015604Y007772D01*
X015604Y008420D01*
X015912Y008420D01*
X015912Y007903D02*
X015604Y007903D01*
X015604Y008034D02*
X015912Y008034D01*
X015912Y008165D02*
X015604Y008165D01*
X015604Y008296D02*
X015912Y008296D01*
X015321Y008420D02*
X015321Y007772D01*
X015013Y007772D01*
X015013Y008420D01*
X015321Y008420D01*
X015321Y007903D02*
X015013Y007903D01*
X015013Y008034D02*
X015321Y008034D01*
X015321Y008165D02*
X015013Y008165D01*
X015013Y008296D02*
X015321Y008296D01*
X014731Y008420D02*
X014731Y007772D01*
X014423Y007772D01*
X014423Y008420D01*
X014731Y008420D01*
X014731Y007903D02*
X014423Y007903D01*
X014423Y008034D02*
X014731Y008034D01*
X014731Y008165D02*
X014423Y008165D01*
X014423Y008296D02*
X014731Y008296D01*
X014140Y008420D02*
X014140Y007772D01*
X013832Y007772D01*
X013832Y008420D01*
X014140Y008420D01*
X014140Y007903D02*
X013832Y007903D01*
X013832Y008034D02*
X014140Y008034D01*
X014140Y008165D02*
X013832Y008165D01*
X013832Y008296D02*
X014140Y008296D01*
X013549Y008420D02*
X013549Y007772D01*
X013241Y007772D01*
X013241Y008420D01*
X013549Y008420D01*
X013549Y007903D02*
X013241Y007903D01*
X013241Y008034D02*
X013549Y008034D01*
X013549Y008165D02*
X013241Y008165D01*
X013241Y008296D02*
X013549Y008296D01*
X012368Y008420D02*
X012368Y007772D01*
X012060Y007772D01*
X012060Y008420D01*
X012368Y008420D01*
X012368Y007903D02*
X012060Y007903D01*
X012060Y008034D02*
X012368Y008034D01*
X012368Y008165D02*
X012060Y008165D01*
X012060Y008296D02*
X012368Y008296D01*
X011778Y008420D02*
X011778Y007772D01*
X011470Y007772D01*
X011470Y008420D01*
X011778Y008420D01*
X011778Y007903D02*
X011470Y007903D01*
X011470Y008034D02*
X011778Y008034D01*
X011778Y008165D02*
X011470Y008165D01*
X011470Y008296D02*
X011778Y008296D01*
X011187Y008420D02*
X011187Y007772D01*
X010879Y007772D01*
X010879Y008420D01*
X011187Y008420D01*
X011187Y007903D02*
X010879Y007903D01*
X010879Y008034D02*
X011187Y008034D01*
X011187Y008165D02*
X010879Y008165D01*
X010879Y008296D02*
X011187Y008296D01*
X010597Y008420D02*
X010597Y007772D01*
X010289Y007772D01*
X010289Y008420D01*
X010597Y008420D01*
X010597Y007903D02*
X010289Y007903D01*
X010289Y008034D02*
X010597Y008034D01*
X010597Y008165D02*
X010289Y008165D01*
X010289Y008296D02*
X010597Y008296D01*
X010006Y008420D02*
X010006Y007890D01*
X009698Y007890D01*
X009698Y008420D01*
X010006Y008420D01*
X010006Y008021D02*
X009698Y008021D01*
X009698Y008152D02*
X010006Y008152D01*
X010006Y008283D02*
X009698Y008283D01*
X009698Y008414D02*
X010006Y008414D01*
D11*
X012981Y008442D02*
X012981Y007750D01*
X012629Y007750D01*
X012629Y008442D01*
X012981Y008442D01*
X012981Y007837D02*
X012629Y007837D01*
X012629Y007924D02*
X012981Y007924D01*
X012981Y008011D02*
X012629Y008011D01*
X012629Y008098D02*
X012981Y008098D01*
X012981Y008185D02*
X012629Y008185D01*
X012629Y008272D02*
X012981Y008272D01*
X012981Y008359D02*
X012629Y008359D01*
D12*
X001498Y002998D03*
X001498Y003998D03*
X001498Y004998D03*
X001498Y005998D03*
X001498Y006998D03*
X001498Y007998D03*
X005498Y009498D03*
X006498Y009498D03*
X007498Y009498D03*
X008498Y009498D03*
X009498Y009498D03*
X010498Y009498D03*
X011498Y009498D03*
X012498Y009498D03*
X013498Y009498D03*
X014498Y009498D03*
X015498Y009498D03*
X016498Y009498D03*
X017498Y009498D03*
X018498Y009498D03*
X019498Y009498D03*
X020498Y009498D03*
X020498Y006498D03*
X020498Y005498D03*
X020498Y004498D03*
X020498Y001498D03*
X019498Y001498D03*
X018498Y001498D03*
X017498Y001498D03*
X016498Y001498D03*
X015498Y001498D03*
X014498Y001498D03*
X013498Y001498D03*
X012498Y001498D03*
X011498Y001498D03*
X010498Y001498D03*
X009498Y001498D03*
X008498Y001498D03*
X007498Y001498D03*
X005498Y002998D03*
X005498Y003998D03*
X005498Y004998D03*
X005498Y005998D03*
D13*
X007008Y006028D02*
X007008Y005428D01*
X008788Y005428D02*
X008788Y006028D01*
X008788Y003468D02*
X008788Y002868D01*
X007008Y002868D02*
X007008Y003468D01*
D14*
X007698Y006798D03*
X008698Y006798D03*
X008698Y007998D03*
X007698Y007998D03*
X004498Y009398D03*
X001498Y009398D03*
D15*
X002698Y009398D03*
X003298Y009398D03*
D16*
X002998Y009398D03*
M02*
