%
M48
M72
T01C0.0200
T02C0.0320
T03C0.0400
%
T01
X2498Y2498
X3498Y2498
X3498Y3498
X2398Y4398
X3498Y4498
X4698Y5298
X6298Y5598
X8198Y4098
X8698Y4198
X9798Y4598
X10198Y4198
X9898Y3798
X10898Y3598
X11398Y3598
X12498Y3498
X11698Y4398
X9898Y5598
X10748Y6448
X12198Y7328
X13998Y7398
X14898Y6598
X15098Y6098
X16998Y5998
X16998Y6998
X17198Y8668
X16998Y4998
X17498Y4498
X17998Y3998
X16998Y3998
X18498Y3498
X18998Y2998
X19998Y2998
X20498Y3498
X18998Y3998
X17998Y2998
X18498Y2498
X19498Y2498
X10078Y2318
X8098Y2898
X6498Y1498
X1998Y6598
X2598Y6898
X1998Y7398
X3498Y7498
X4498Y7498
X4998Y7598
X4198Y8398
X6498Y8598
X7098Y7998
X6798Y7598
T02
X7698Y7998
X8698Y7998
X8698Y6798
X7698Y6798
X4498Y9398
X1498Y9398
T03
X1498Y7998
X1498Y6998
X1498Y5998
X1498Y4998
X1498Y3998
X1498Y2998
X5498Y2998
X7008Y3168
X5498Y3998
X5498Y4998
X7008Y5728
X5498Y5998
X8788Y5728
X8788Y3168
X8498Y1498
X7498Y1498
X9498Y1498
X10498Y1498
X11498Y1498
X12498Y1498
X13498Y1498
X14498Y1498
X15498Y1498
X16498Y1498
X17498Y1498
X18498Y1498
X19498Y1498
X20498Y1498
X20498Y4498
X20498Y5498
X20498Y6498
X20498Y9498
X19498Y9498
X18498Y9498
X17498Y9498
X16498Y9498
X15498Y9498
X14498Y9498
X13498Y9498
X12498Y9498
X11498Y9498
X10498Y9498
X9498Y9498
X8498Y9498
X7498Y9498
X6498Y9498
X5498Y9498
M30
