%
M48
M72
T01C0.0200
T02C0.0320
T03C0.0400
%
T01
X3456Y2454
X4256Y3754
X9856Y3654
X10456Y3654
X10956Y3654
X12156Y3654
X13056Y2454
X6356Y6654
X4856Y6654
X3256Y7754
X10356Y7454
T02
X16256Y6804
X17756Y7804
X18756Y7804
X18756Y9554
X17756Y9554
X16256Y9804
T03
X1506Y1554
X2506Y1554
X3506Y1554
X4506Y1554
X5506Y1554
X6506Y1554
X7506Y1554
X8506Y1554
X9506Y1554
X10506Y1554
X11506Y1554
X12506Y1554
X13506Y1554
X14506Y1554
X16351Y2789
X18911Y2789
X21506Y3054
X21506Y4054
X21506Y5054
X21506Y6054
X18911Y4569
X16351Y4569
X14506Y4554
X14506Y5554
X14506Y6554
X14506Y9554
X13506Y9554
X12506Y9554
X11506Y9554
X10506Y9554
X9506Y9554
X8506Y9554
X7506Y9554
X6506Y9554
X5506Y9554
X4506Y9554
X3506Y9554
X2506Y9554
X1506Y9554
X1506Y8054
X1506Y7054
X1506Y6054
X1506Y5054
X1506Y4054
X1506Y3054
X20506Y9554
X21506Y9554
M30
