G75*
G70*
%OFA0B0*%
%FSLAX24Y24*%
%IPPOS*%
%LPD*%
%AMOC8*
5,1,8,0,0,1.08239X$1,22.5*
%
%ADD10C,0.0072*%
%ADD11C,0.0600*%
%ADD12OC8,0.0480*%
%ADD13R,0.0630X0.0460*%
%ADD14C,0.0100*%
%ADD15C,0.0160*%
%ADD16C,0.0340*%
D10*
X004004Y002642D02*
X004004Y003152D01*
X004004Y002642D02*
X003716Y002642D01*
X003716Y003152D01*
X004004Y003152D01*
X004004Y002713D02*
X003716Y002713D01*
X003716Y002784D02*
X004004Y002784D01*
X004004Y002855D02*
X003716Y002855D01*
X003716Y002926D02*
X004004Y002926D01*
X004004Y002997D02*
X003716Y002997D01*
X003716Y003068D02*
X004004Y003068D01*
X004004Y003139D02*
X003716Y003139D01*
X004595Y003270D02*
X004595Y002642D01*
X004307Y002642D01*
X004307Y003270D01*
X004595Y003270D01*
X004595Y002713D02*
X004307Y002713D01*
X004307Y002784D02*
X004595Y002784D01*
X004595Y002855D02*
X004307Y002855D01*
X004307Y002926D02*
X004595Y002926D01*
X004595Y002997D02*
X004307Y002997D01*
X004307Y003068D02*
X004595Y003068D01*
X004595Y003139D02*
X004307Y003139D01*
X004307Y003210D02*
X004595Y003210D01*
X005185Y003270D02*
X005185Y002642D01*
X004897Y002642D01*
X004897Y003270D01*
X005185Y003270D01*
X005185Y002713D02*
X004897Y002713D01*
X004897Y002784D02*
X005185Y002784D01*
X005185Y002855D02*
X004897Y002855D01*
X004897Y002926D02*
X005185Y002926D01*
X005185Y002997D02*
X004897Y002997D01*
X004897Y003068D02*
X005185Y003068D01*
X005185Y003139D02*
X004897Y003139D01*
X004897Y003210D02*
X005185Y003210D01*
X005776Y003270D02*
X005776Y002642D01*
X005488Y002642D01*
X005488Y003270D01*
X005776Y003270D01*
X005776Y002713D02*
X005488Y002713D01*
X005488Y002784D02*
X005776Y002784D01*
X005776Y002855D02*
X005488Y002855D01*
X005488Y002926D02*
X005776Y002926D01*
X005776Y002997D02*
X005488Y002997D01*
X005488Y003068D02*
X005776Y003068D01*
X005776Y003139D02*
X005488Y003139D01*
X005488Y003210D02*
X005776Y003210D01*
X006366Y003270D02*
X006366Y002642D01*
X006078Y002642D01*
X006078Y003270D01*
X006366Y003270D01*
X006366Y002713D02*
X006078Y002713D01*
X006078Y002784D02*
X006366Y002784D01*
X006366Y002855D02*
X006078Y002855D01*
X006078Y002926D02*
X006366Y002926D01*
X006366Y002997D02*
X006078Y002997D01*
X006078Y003068D02*
X006366Y003068D01*
X006366Y003139D02*
X006078Y003139D01*
X006078Y003210D02*
X006366Y003210D01*
X006957Y003270D02*
X006957Y002642D01*
X006669Y002642D01*
X006669Y003270D01*
X006957Y003270D01*
X006957Y002713D02*
X006669Y002713D01*
X006669Y002784D02*
X006957Y002784D01*
X006957Y002855D02*
X006669Y002855D01*
X006669Y002926D02*
X006957Y002926D01*
X006957Y002997D02*
X006669Y002997D01*
X006669Y003068D02*
X006957Y003068D01*
X006957Y003139D02*
X006669Y003139D01*
X006669Y003210D02*
X006957Y003210D01*
X007548Y003270D02*
X007548Y002642D01*
X007260Y002642D01*
X007260Y003270D01*
X007548Y003270D01*
X007548Y002713D02*
X007260Y002713D01*
X007260Y002784D02*
X007548Y002784D01*
X007548Y002855D02*
X007260Y002855D01*
X007260Y002926D02*
X007548Y002926D01*
X007548Y002997D02*
X007260Y002997D01*
X007260Y003068D02*
X007548Y003068D01*
X007548Y003139D02*
X007260Y003139D01*
X007260Y003210D02*
X007548Y003210D01*
X008138Y003270D02*
X008138Y002642D01*
X007850Y002642D01*
X007850Y003270D01*
X008138Y003270D01*
X008138Y002713D02*
X007850Y002713D01*
X007850Y002784D02*
X008138Y002784D01*
X008138Y002855D02*
X007850Y002855D01*
X007850Y002926D02*
X008138Y002926D01*
X008138Y002997D02*
X007850Y002997D01*
X007850Y003068D02*
X008138Y003068D01*
X008138Y003139D02*
X007850Y003139D01*
X007850Y003210D02*
X008138Y003210D01*
X008729Y003270D02*
X008729Y002642D01*
X008441Y002642D01*
X008441Y003270D01*
X008729Y003270D01*
X008729Y002713D02*
X008441Y002713D01*
X008441Y002784D02*
X008729Y002784D01*
X008729Y002855D02*
X008441Y002855D01*
X008441Y002926D02*
X008729Y002926D01*
X008729Y002997D02*
X008441Y002997D01*
X008441Y003068D02*
X008729Y003068D01*
X008729Y003139D02*
X008441Y003139D01*
X008441Y003210D02*
X008729Y003210D01*
X009319Y003270D02*
X009319Y002642D01*
X009031Y002642D01*
X009031Y003270D01*
X009319Y003270D01*
X009319Y002713D02*
X009031Y002713D01*
X009031Y002784D02*
X009319Y002784D01*
X009319Y002855D02*
X009031Y002855D01*
X009031Y002926D02*
X009319Y002926D01*
X009319Y002997D02*
X009031Y002997D01*
X009031Y003068D02*
X009319Y003068D01*
X009319Y003139D02*
X009031Y003139D01*
X009031Y003210D02*
X009319Y003210D01*
X009910Y003270D02*
X009910Y002642D01*
X009622Y002642D01*
X009622Y003270D01*
X009910Y003270D01*
X009910Y002713D02*
X009622Y002713D01*
X009622Y002784D02*
X009910Y002784D01*
X009910Y002855D02*
X009622Y002855D01*
X009622Y002926D02*
X009910Y002926D01*
X009910Y002997D02*
X009622Y002997D01*
X009622Y003068D02*
X009910Y003068D01*
X009910Y003139D02*
X009622Y003139D01*
X009622Y003210D02*
X009910Y003210D01*
X010500Y003270D02*
X010500Y002642D01*
X010212Y002642D01*
X010212Y003270D01*
X010500Y003270D01*
X010500Y002713D02*
X010212Y002713D01*
X010212Y002784D02*
X010500Y002784D01*
X010500Y002855D02*
X010212Y002855D01*
X010212Y002926D02*
X010500Y002926D01*
X010500Y002997D02*
X010212Y002997D01*
X010212Y003068D02*
X010500Y003068D01*
X010500Y003139D02*
X010212Y003139D01*
X010212Y003210D02*
X010500Y003210D01*
X011091Y003270D02*
X011091Y002642D01*
X010803Y002642D01*
X010803Y003270D01*
X011091Y003270D01*
X011091Y002713D02*
X010803Y002713D01*
X010803Y002784D02*
X011091Y002784D01*
X011091Y002855D02*
X010803Y002855D01*
X010803Y002926D02*
X011091Y002926D01*
X011091Y002997D02*
X010803Y002997D01*
X010803Y003068D02*
X011091Y003068D01*
X011091Y003139D02*
X010803Y003139D01*
X010803Y003210D02*
X011091Y003210D01*
X011681Y003152D02*
X011681Y002642D01*
X011393Y002642D01*
X011393Y003152D01*
X011681Y003152D01*
X011681Y002713D02*
X011393Y002713D01*
X011393Y002784D02*
X011681Y002784D01*
X011681Y002855D02*
X011393Y002855D01*
X011393Y002926D02*
X011681Y002926D01*
X011681Y002997D02*
X011393Y002997D01*
X011393Y003068D02*
X011681Y003068D01*
X011681Y003139D02*
X011393Y003139D01*
X013231Y004820D02*
X013741Y004820D01*
X013231Y004820D02*
X013231Y005108D01*
X013741Y005108D01*
X013741Y004820D01*
X013741Y004891D02*
X013231Y004891D01*
X013231Y004962D02*
X013741Y004962D01*
X013741Y005033D02*
X013231Y005033D01*
X013231Y005104D02*
X013741Y005104D01*
X013741Y005410D02*
X013113Y005410D01*
X013113Y005698D01*
X013741Y005698D01*
X013741Y005410D01*
X013741Y005481D02*
X013113Y005481D01*
X013113Y005552D02*
X013741Y005552D01*
X013741Y005623D02*
X013113Y005623D01*
X013113Y005694D02*
X013741Y005694D01*
X013741Y006001D02*
X013231Y006001D01*
X013231Y006289D01*
X013741Y006289D01*
X013741Y006001D01*
X013741Y006072D02*
X013231Y006072D01*
X013231Y006143D02*
X013741Y006143D01*
X013741Y006214D02*
X013231Y006214D01*
X013231Y006285D02*
X013741Y006285D01*
X011681Y007957D02*
X011681Y008467D01*
X011681Y007957D02*
X011393Y007957D01*
X011393Y008467D01*
X011681Y008467D01*
X011681Y008028D02*
X011393Y008028D01*
X011393Y008099D02*
X011681Y008099D01*
X011681Y008170D02*
X011393Y008170D01*
X011393Y008241D02*
X011681Y008241D01*
X011681Y008312D02*
X011393Y008312D01*
X011393Y008383D02*
X011681Y008383D01*
X011681Y008454D02*
X011393Y008454D01*
X011091Y008467D02*
X011091Y007839D01*
X010803Y007839D01*
X010803Y008467D01*
X011091Y008467D01*
X011091Y007910D02*
X010803Y007910D01*
X010803Y007981D02*
X011091Y007981D01*
X011091Y008052D02*
X010803Y008052D01*
X010803Y008123D02*
X011091Y008123D01*
X011091Y008194D02*
X010803Y008194D01*
X010803Y008265D02*
X011091Y008265D01*
X011091Y008336D02*
X010803Y008336D01*
X010803Y008407D02*
X011091Y008407D01*
X010500Y008467D02*
X010500Y007839D01*
X010212Y007839D01*
X010212Y008467D01*
X010500Y008467D01*
X010500Y007910D02*
X010212Y007910D01*
X010212Y007981D02*
X010500Y007981D01*
X010500Y008052D02*
X010212Y008052D01*
X010212Y008123D02*
X010500Y008123D01*
X010500Y008194D02*
X010212Y008194D01*
X010212Y008265D02*
X010500Y008265D01*
X010500Y008336D02*
X010212Y008336D01*
X010212Y008407D02*
X010500Y008407D01*
X009910Y008467D02*
X009910Y007839D01*
X009622Y007839D01*
X009622Y008467D01*
X009910Y008467D01*
X009910Y007910D02*
X009622Y007910D01*
X009622Y007981D02*
X009910Y007981D01*
X009910Y008052D02*
X009622Y008052D01*
X009622Y008123D02*
X009910Y008123D01*
X009910Y008194D02*
X009622Y008194D01*
X009622Y008265D02*
X009910Y008265D01*
X009910Y008336D02*
X009622Y008336D01*
X009622Y008407D02*
X009910Y008407D01*
X009319Y008467D02*
X009319Y007839D01*
X009031Y007839D01*
X009031Y008467D01*
X009319Y008467D01*
X009319Y007910D02*
X009031Y007910D01*
X009031Y007981D02*
X009319Y007981D01*
X009319Y008052D02*
X009031Y008052D01*
X009031Y008123D02*
X009319Y008123D01*
X009319Y008194D02*
X009031Y008194D01*
X009031Y008265D02*
X009319Y008265D01*
X009319Y008336D02*
X009031Y008336D01*
X009031Y008407D02*
X009319Y008407D01*
X008729Y008467D02*
X008729Y007839D01*
X008441Y007839D01*
X008441Y008467D01*
X008729Y008467D01*
X008729Y007910D02*
X008441Y007910D01*
X008441Y007981D02*
X008729Y007981D01*
X008729Y008052D02*
X008441Y008052D01*
X008441Y008123D02*
X008729Y008123D01*
X008729Y008194D02*
X008441Y008194D01*
X008441Y008265D02*
X008729Y008265D01*
X008729Y008336D02*
X008441Y008336D01*
X008441Y008407D02*
X008729Y008407D01*
X008138Y008467D02*
X008138Y007839D01*
X007850Y007839D01*
X007850Y008467D01*
X008138Y008467D01*
X008138Y007910D02*
X007850Y007910D01*
X007850Y007981D02*
X008138Y007981D01*
X008138Y008052D02*
X007850Y008052D01*
X007850Y008123D02*
X008138Y008123D01*
X008138Y008194D02*
X007850Y008194D01*
X007850Y008265D02*
X008138Y008265D01*
X008138Y008336D02*
X007850Y008336D01*
X007850Y008407D02*
X008138Y008407D01*
X007548Y008467D02*
X007548Y007839D01*
X007260Y007839D01*
X007260Y008467D01*
X007548Y008467D01*
X007548Y007910D02*
X007260Y007910D01*
X007260Y007981D02*
X007548Y007981D01*
X007548Y008052D02*
X007260Y008052D01*
X007260Y008123D02*
X007548Y008123D01*
X007548Y008194D02*
X007260Y008194D01*
X007260Y008265D02*
X007548Y008265D01*
X007548Y008336D02*
X007260Y008336D01*
X007260Y008407D02*
X007548Y008407D01*
X006957Y008467D02*
X006957Y007839D01*
X006669Y007839D01*
X006669Y008467D01*
X006957Y008467D01*
X006957Y007910D02*
X006669Y007910D01*
X006669Y007981D02*
X006957Y007981D01*
X006957Y008052D02*
X006669Y008052D01*
X006669Y008123D02*
X006957Y008123D01*
X006957Y008194D02*
X006669Y008194D01*
X006669Y008265D02*
X006957Y008265D01*
X006957Y008336D02*
X006669Y008336D01*
X006669Y008407D02*
X006957Y008407D01*
X006366Y008467D02*
X006366Y007839D01*
X006078Y007839D01*
X006078Y008467D01*
X006366Y008467D01*
X006366Y007910D02*
X006078Y007910D01*
X006078Y007981D02*
X006366Y007981D01*
X006366Y008052D02*
X006078Y008052D01*
X006078Y008123D02*
X006366Y008123D01*
X006366Y008194D02*
X006078Y008194D01*
X006078Y008265D02*
X006366Y008265D01*
X006366Y008336D02*
X006078Y008336D01*
X006078Y008407D02*
X006366Y008407D01*
X005776Y008467D02*
X005776Y007839D01*
X005488Y007839D01*
X005488Y008467D01*
X005776Y008467D01*
X005776Y007910D02*
X005488Y007910D01*
X005488Y007981D02*
X005776Y007981D01*
X005776Y008052D02*
X005488Y008052D01*
X005488Y008123D02*
X005776Y008123D01*
X005776Y008194D02*
X005488Y008194D01*
X005488Y008265D02*
X005776Y008265D01*
X005776Y008336D02*
X005488Y008336D01*
X005488Y008407D02*
X005776Y008407D01*
X005185Y008467D02*
X005185Y007839D01*
X004897Y007839D01*
X004897Y008467D01*
X005185Y008467D01*
X005185Y007910D02*
X004897Y007910D01*
X004897Y007981D02*
X005185Y007981D01*
X005185Y008052D02*
X004897Y008052D01*
X004897Y008123D02*
X005185Y008123D01*
X005185Y008194D02*
X004897Y008194D01*
X004897Y008265D02*
X005185Y008265D01*
X005185Y008336D02*
X004897Y008336D01*
X004897Y008407D02*
X005185Y008407D01*
X004595Y008467D02*
X004595Y007839D01*
X004307Y007839D01*
X004307Y008467D01*
X004595Y008467D01*
X004595Y007910D02*
X004307Y007910D01*
X004307Y007981D02*
X004595Y007981D01*
X004595Y008052D02*
X004307Y008052D01*
X004307Y008123D02*
X004595Y008123D01*
X004595Y008194D02*
X004307Y008194D01*
X004307Y008265D02*
X004595Y008265D01*
X004595Y008336D02*
X004307Y008336D01*
X004307Y008407D02*
X004595Y008407D01*
X004004Y008467D02*
X004004Y007957D01*
X003716Y007957D01*
X003716Y008467D01*
X004004Y008467D01*
X004004Y008028D02*
X003716Y008028D01*
X003716Y008099D02*
X004004Y008099D01*
X004004Y008170D02*
X003716Y008170D01*
X003716Y008241D02*
X004004Y008241D01*
X004004Y008312D02*
X003716Y008312D01*
X003716Y008383D02*
X004004Y008383D01*
X004004Y008454D02*
X003716Y008454D01*
D11*
X003506Y009254D02*
X003506Y009854D01*
X004506Y009854D02*
X004506Y009254D01*
X005506Y009254D02*
X005506Y009854D01*
X006506Y009854D02*
X006506Y009254D01*
X007506Y009254D02*
X007506Y009854D01*
X008506Y009854D02*
X008506Y009254D01*
X009506Y009254D02*
X009506Y009854D01*
X010506Y009854D02*
X010506Y009254D01*
X011506Y009254D02*
X011506Y009854D01*
X012506Y009854D02*
X012506Y009254D01*
X013506Y009254D02*
X013506Y009854D01*
X014506Y009854D02*
X014506Y009254D01*
X014806Y006554D02*
X014206Y006554D01*
X014206Y005554D02*
X014806Y005554D01*
X014806Y004554D02*
X014206Y004554D01*
X016051Y004569D02*
X016651Y004569D01*
X018611Y004569D02*
X019211Y004569D01*
X021206Y005054D02*
X021806Y005054D01*
X021806Y004054D02*
X021206Y004054D01*
X021206Y003054D02*
X021806Y003054D01*
X019211Y002789D02*
X018611Y002789D01*
X016651Y002789D02*
X016051Y002789D01*
X014506Y001854D02*
X014506Y001254D01*
X013506Y001254D02*
X013506Y001854D01*
X012506Y001854D02*
X012506Y001254D01*
X011506Y001254D02*
X011506Y001854D01*
X010506Y001854D02*
X010506Y001254D01*
X009506Y001254D02*
X009506Y001854D01*
X008506Y001854D02*
X008506Y001254D01*
X007506Y001254D02*
X007506Y001854D01*
X006506Y001854D02*
X006506Y001254D01*
X005506Y001254D02*
X005506Y001854D01*
X004506Y001854D02*
X004506Y001254D01*
X003506Y001254D02*
X003506Y001854D01*
X002506Y001854D02*
X002506Y001254D01*
X001506Y001254D02*
X001506Y001854D01*
X001806Y003054D02*
X001206Y003054D01*
X001206Y004054D02*
X001806Y004054D01*
X001806Y005054D02*
X001206Y005054D01*
X001206Y006054D02*
X001806Y006054D01*
X001806Y007054D02*
X001206Y007054D01*
X001206Y008054D02*
X001806Y008054D01*
X001506Y009254D02*
X001506Y009854D01*
X002506Y009854D02*
X002506Y009254D01*
X020506Y009254D02*
X020506Y009854D01*
X021506Y009854D02*
X021506Y009254D01*
X021806Y006054D02*
X021206Y006054D01*
D12*
X018756Y007804D03*
X017756Y007804D03*
X016256Y006804D03*
X017756Y009554D03*
X018756Y009554D03*
X016256Y009804D03*
D13*
X016256Y008604D03*
X016256Y008004D03*
D14*
X016256Y006804D01*
X016256Y006754D01*
X016456Y006554D01*
X016456Y004754D01*
X016351Y004569D01*
X014506Y004554D02*
X014456Y004554D01*
X014056Y004954D01*
X013556Y004954D01*
X013486Y004964D01*
X013456Y004954D01*
X013456Y002554D01*
X013156Y002854D01*
X011556Y002854D01*
X011537Y002897D01*
X010947Y002956D02*
X010956Y003054D01*
X010956Y003654D01*
X011056Y004054D02*
X011456Y003654D01*
X012156Y003654D01*
X011056Y004054D02*
X006556Y004054D01*
X005556Y003054D01*
X005632Y002956D01*
X005556Y002954D01*
X005556Y002554D01*
X004556Y001554D01*
X004506Y001554D01*
X004656Y000754D02*
X005456Y001554D01*
X005506Y001554D01*
X005556Y001554D01*
X006156Y002154D01*
X006156Y002954D01*
X006222Y002956D01*
X006756Y002954D02*
X006813Y002956D01*
X006756Y002954D02*
X006756Y001754D01*
X006556Y001554D01*
X006506Y001554D01*
X006556Y001554D02*
X007356Y000754D01*
X010656Y000754D01*
X010956Y001054D01*
X010956Y001954D01*
X011456Y002454D01*
X013056Y002454D01*
X013456Y002554D02*
X014456Y001554D01*
X014506Y001554D01*
X015256Y000754D02*
X012356Y000754D01*
X011556Y001554D01*
X011506Y001554D01*
X010506Y001554D02*
X010456Y001554D01*
X009656Y002354D01*
X009556Y002354D01*
X009256Y002654D01*
X009256Y002954D01*
X009175Y002956D01*
X008656Y002954D02*
X008585Y002956D01*
X008656Y002954D02*
X008656Y002354D01*
X009456Y001554D01*
X009506Y001554D01*
X008506Y001554D02*
X008456Y001554D01*
X008056Y001954D01*
X008056Y002954D01*
X007994Y002956D01*
X007456Y002954D02*
X007404Y002956D01*
X007456Y002954D02*
X007456Y001554D01*
X007506Y001554D01*
X004956Y002654D02*
X004656Y002354D01*
X004356Y002354D01*
X003556Y001554D01*
X003506Y001554D01*
X003056Y001054D02*
X003356Y000754D01*
X004656Y000754D01*
X003056Y001054D02*
X003056Y002054D01*
X003456Y002454D01*
X003856Y002854D02*
X002856Y002854D01*
X001556Y001554D01*
X001506Y001554D01*
X003856Y002854D02*
X003860Y002897D01*
X003856Y002954D01*
X003856Y008154D01*
X003860Y008212D01*
X003856Y008154D02*
X001656Y008154D01*
X001556Y008054D01*
X001506Y008054D01*
X001556Y008054D02*
X001556Y009554D01*
X001506Y009554D01*
X002506Y009554D02*
X002556Y009554D01*
X003356Y008754D01*
X004056Y008754D01*
X004356Y008454D01*
X004356Y008154D01*
X004451Y008153D01*
X004956Y008154D02*
X005041Y008153D01*
X004956Y008154D02*
X004956Y008454D01*
X004656Y008754D01*
X004356Y008754D01*
X003556Y009554D01*
X003506Y009554D01*
X004506Y009554D02*
X004556Y009554D01*
X005556Y008554D01*
X005556Y008154D01*
X005632Y008153D01*
X006156Y008154D02*
X006222Y008153D01*
X006256Y008054D01*
X004856Y006654D01*
X006356Y006654D02*
X007856Y006654D01*
X009256Y008054D01*
X009175Y008153D01*
X009256Y008154D01*
X009256Y008454D01*
X009556Y008754D01*
X009656Y008754D01*
X010456Y009554D01*
X010506Y009554D01*
X010656Y008754D02*
X011456Y009554D01*
X011506Y009554D01*
X010656Y008754D02*
X010156Y008754D01*
X009856Y008454D01*
X009856Y008154D01*
X009766Y008153D01*
X010356Y008153D02*
X010356Y008054D01*
X010356Y007454D01*
X010856Y007454D02*
X010856Y008054D01*
X010947Y008153D01*
X010956Y008154D01*
X010956Y008354D01*
X011256Y008654D01*
X012556Y008654D01*
X013456Y009554D01*
X013506Y009554D01*
X014506Y009554D02*
X014556Y009554D01*
X014556Y006554D01*
X014506Y006554D01*
X013156Y006554D01*
X011556Y008154D01*
X011537Y008212D01*
X010856Y007454D02*
X009856Y006454D01*
X007756Y006454D01*
X004656Y003354D01*
X004256Y003754D01*
X004656Y003354D02*
X004656Y003254D01*
X004456Y003054D01*
X004451Y002956D01*
X004956Y002954D02*
X005041Y002956D01*
X004956Y002954D02*
X004956Y002654D01*
X009766Y002956D02*
X009856Y003054D01*
X009856Y003654D01*
X010456Y003654D02*
X010456Y003054D01*
X010356Y002956D01*
X015256Y000754D02*
X018556Y004054D01*
X021506Y004054D01*
X014506Y005554D02*
X013427Y005554D01*
X013486Y006145D02*
X013556Y006154D01*
X013156Y006554D01*
X016256Y008604D02*
X016256Y008654D01*
X017756Y008654D01*
X017756Y007804D01*
X018756Y007804D02*
X018756Y008754D01*
X020156Y008754D01*
X020956Y009554D01*
X021506Y009554D01*
X018756Y009554D02*
X018756Y008754D01*
X017756Y008654D02*
X017756Y009554D01*
X016256Y009804D02*
X016256Y008654D01*
X009506Y009554D02*
X009456Y009554D01*
X008656Y008754D01*
X008656Y008154D01*
X008585Y008153D01*
X008056Y008154D02*
X007994Y008153D01*
X008056Y008154D02*
X008056Y009154D01*
X008456Y009554D01*
X008506Y009554D01*
X007506Y009554D02*
X007456Y009554D01*
X007456Y008154D01*
X007404Y008153D01*
X006813Y008153D02*
X006756Y008154D01*
X006756Y009354D01*
X006556Y009554D01*
X006506Y009554D01*
X006156Y008954D02*
X005556Y009554D01*
X005506Y009554D01*
X006156Y008954D02*
X006156Y008154D01*
X003256Y007754D02*
X001556Y006054D01*
X001506Y006054D01*
D15*
X000986Y002626D02*
X000986Y000784D01*
X001405Y000784D01*
X001393Y000786D01*
X001322Y000809D01*
X001254Y000844D01*
X001193Y000888D01*
X001140Y000942D01*
X001095Y001003D01*
X001061Y001070D01*
X001038Y001142D01*
X001026Y001217D01*
X001026Y001534D01*
X001486Y001534D01*
X001486Y001574D01*
X001026Y001574D01*
X001026Y001892D01*
X001038Y001967D01*
X001061Y002039D01*
X001095Y002106D01*
X001140Y002167D01*
X001193Y002220D01*
X001254Y002265D01*
X001322Y002299D01*
X001393Y002322D01*
X001468Y002334D01*
X001486Y002334D01*
X001486Y001575D01*
X001526Y001575D01*
X001526Y002334D01*
X001544Y002334D01*
X001618Y002322D01*
X001690Y002299D01*
X001757Y002265D01*
X001819Y002220D01*
X001872Y002167D01*
X001916Y002106D01*
X001951Y002039D01*
X001974Y001967D01*
X001986Y001892D01*
X001986Y001574D01*
X001526Y001574D01*
X001526Y001534D01*
X001986Y001534D01*
X001986Y001217D01*
X001974Y001142D01*
X001951Y001070D01*
X001916Y001003D01*
X001872Y000942D01*
X001819Y000888D01*
X001757Y000844D01*
X001690Y000809D01*
X001618Y000786D01*
X001606Y000784D01*
X002386Y000784D01*
X002234Y000847D01*
X002099Y000982D01*
X002026Y001159D01*
X002026Y001950D01*
X002099Y002126D01*
X002234Y002261D01*
X002410Y002334D01*
X002601Y002334D01*
X002778Y002261D01*
X002858Y002181D01*
X002961Y002284D01*
X003106Y002430D01*
X003106Y002524D01*
X003159Y002653D01*
X003258Y002751D01*
X003386Y002804D01*
X003500Y002804D01*
X003500Y002887D01*
X003850Y002887D01*
X003850Y002907D01*
X003500Y002907D01*
X003500Y003180D01*
X003515Y003235D01*
X003543Y003284D01*
X003584Y003325D01*
X003633Y003353D01*
X003688Y003368D01*
X003850Y003368D01*
X003850Y002907D01*
X003870Y002907D01*
X003870Y003368D01*
X004033Y003368D01*
X004088Y003353D01*
X004091Y003351D01*
X004091Y003359D01*
X004151Y003419D01*
X004058Y003458D01*
X003959Y003556D01*
X003906Y003685D01*
X003906Y003824D01*
X003959Y003953D01*
X004058Y004051D01*
X004186Y004104D01*
X004326Y004104D01*
X004454Y004051D01*
X004553Y003953D01*
X004606Y003824D01*
X004606Y003730D01*
X004656Y003680D01*
X007401Y006424D01*
X006621Y006424D01*
X006554Y006358D01*
X006426Y006304D01*
X006286Y006304D01*
X006158Y006358D01*
X006059Y006456D01*
X006006Y006585D01*
X006006Y006724D01*
X006059Y006853D01*
X006158Y006951D01*
X006286Y007004D01*
X006426Y007004D01*
X006554Y006951D01*
X006621Y006884D01*
X007761Y006884D01*
X008499Y007623D01*
X008351Y007623D01*
X008289Y007685D01*
X008228Y007623D01*
X007761Y007623D01*
X007699Y007685D01*
X007637Y007623D01*
X007170Y007623D01*
X007108Y007685D01*
X007046Y007623D01*
X006579Y007623D01*
X006518Y007685D01*
X006456Y007623D01*
X006150Y007623D01*
X005206Y006679D01*
X005206Y006585D01*
X005153Y006456D01*
X005054Y006358D01*
X004926Y006304D01*
X004786Y006304D01*
X004658Y006358D01*
X004559Y006456D01*
X004506Y006585D01*
X004506Y006724D01*
X004559Y006853D01*
X004658Y006951D01*
X004786Y007004D01*
X004881Y007004D01*
X005499Y007623D01*
X005398Y007623D01*
X005337Y007685D01*
X005275Y007623D01*
X004808Y007623D01*
X004746Y007685D01*
X004684Y007623D01*
X004217Y007623D01*
X004091Y007749D01*
X004091Y007757D01*
X004088Y007756D01*
X004033Y007741D01*
X003870Y007741D01*
X003870Y008202D01*
X003850Y008202D01*
X003500Y008202D01*
X003500Y008005D01*
X003454Y008051D01*
X003326Y008104D01*
X003186Y008104D01*
X003058Y008051D01*
X002959Y007953D01*
X002906Y007824D01*
X002906Y007730D01*
X002286Y007109D01*
X002286Y007150D01*
X002213Y007326D01*
X002078Y007461D01*
X001901Y007534D01*
X001110Y007534D01*
X000986Y007483D01*
X000986Y007628D01*
X001022Y007609D01*
X001093Y007586D01*
X001168Y007574D01*
X001486Y007574D01*
X001486Y008034D01*
X001526Y008034D01*
X001526Y007574D01*
X001844Y007574D01*
X001918Y007586D01*
X001990Y007609D01*
X002057Y007644D01*
X002119Y007688D01*
X002172Y007742D01*
X002216Y007803D01*
X002251Y007870D01*
X002274Y007942D01*
X002286Y008017D01*
X002286Y008034D01*
X001526Y008034D01*
X001526Y008074D01*
X002286Y008074D01*
X002286Y008092D01*
X002274Y008167D01*
X002251Y008239D01*
X002216Y008306D01*
X002172Y008367D01*
X002119Y008420D01*
X002057Y008465D01*
X001990Y008499D01*
X001918Y008522D01*
X001844Y008534D01*
X001526Y008534D01*
X001526Y008075D01*
X001486Y008075D01*
X001486Y008534D01*
X001168Y008534D01*
X001093Y008522D01*
X001022Y008499D01*
X000986Y008481D01*
X000986Y010320D01*
X001387Y010320D01*
X001322Y010299D01*
X001254Y010265D01*
X001193Y010220D01*
X001140Y010167D01*
X001095Y010106D01*
X001061Y010039D01*
X001038Y009967D01*
X001026Y009892D01*
X001026Y009574D01*
X001486Y009574D01*
X001486Y009534D01*
X001526Y009534D01*
X001526Y008774D01*
X001544Y008774D01*
X001618Y008786D01*
X001690Y008809D01*
X001757Y008844D01*
X001819Y008888D01*
X001872Y008942D01*
X001916Y009003D01*
X001951Y009070D01*
X001974Y009142D01*
X001986Y009217D01*
X001986Y009534D01*
X001526Y009534D01*
X001526Y009574D01*
X001986Y009574D01*
X001986Y009892D01*
X001974Y009967D01*
X001951Y010039D01*
X001916Y010106D01*
X001872Y010167D01*
X001819Y010220D01*
X001757Y010265D01*
X001690Y010299D01*
X001625Y010320D01*
X002377Y010320D01*
X002234Y010261D01*
X002099Y010126D01*
X002026Y009950D01*
X002026Y009159D01*
X002099Y008982D01*
X002234Y008847D01*
X002410Y008774D01*
X002601Y008774D01*
X002778Y008847D01*
X002858Y008927D01*
X003261Y008524D01*
X003451Y008524D01*
X003508Y008524D01*
X003500Y008495D01*
X003500Y008222D01*
X003850Y008222D01*
X003850Y008202D01*
X003850Y007741D01*
X003688Y007741D01*
X003633Y007756D01*
X003606Y007771D01*
X003606Y007685D01*
X003553Y007556D01*
X003454Y007458D01*
X003326Y007404D01*
X003231Y007404D01*
X002183Y006356D01*
X002213Y006326D01*
X002286Y006150D01*
X002286Y005959D01*
X002213Y005782D01*
X002078Y005647D01*
X001901Y005574D01*
X001110Y005574D01*
X000986Y005626D01*
X000986Y005483D01*
X001110Y005534D01*
X001901Y005534D01*
X002078Y005461D01*
X002213Y005326D01*
X002286Y005150D01*
X002286Y004959D01*
X002213Y004782D01*
X002078Y004647D01*
X001901Y004574D01*
X001110Y004574D01*
X000986Y004626D01*
X000986Y004483D01*
X001110Y004534D01*
X001901Y004534D01*
X002078Y004461D01*
X002213Y004326D01*
X002286Y004150D01*
X002286Y003959D01*
X002213Y003782D01*
X002078Y003647D01*
X001901Y003574D01*
X001110Y003574D01*
X000986Y003626D01*
X000986Y003483D01*
X001110Y003534D01*
X001901Y003534D01*
X002078Y003461D01*
X002213Y003326D01*
X002286Y003150D01*
X002286Y002959D01*
X002213Y002782D01*
X002078Y002647D01*
X001901Y002574D01*
X001110Y002574D01*
X000986Y002626D01*
X000986Y002615D02*
X001011Y002615D01*
X000986Y002457D02*
X003106Y002457D01*
X003144Y002615D02*
X002001Y002615D01*
X002204Y002774D02*
X003313Y002774D01*
X003500Y002932D02*
X002275Y002932D01*
X002286Y003091D02*
X003500Y003091D01*
X003850Y003091D02*
X003870Y003091D01*
X003870Y002932D02*
X003850Y002932D01*
X003850Y002887D02*
X003870Y002887D01*
X003870Y002426D01*
X004033Y002426D01*
X004088Y002441D01*
X004137Y002469D01*
X004156Y002488D01*
X004160Y002483D01*
X003858Y002181D01*
X003778Y002261D01*
X003758Y002269D01*
X003806Y002385D01*
X003806Y002426D01*
X003850Y002426D01*
X003850Y002887D01*
X003850Y002774D02*
X003870Y002774D01*
X003870Y002615D02*
X003850Y002615D01*
X003850Y002457D02*
X003870Y002457D01*
X004116Y002457D02*
X004133Y002457D01*
X003975Y002298D02*
X003770Y002298D01*
X002975Y002298D02*
X002688Y002298D01*
X002324Y002298D02*
X001692Y002298D01*
X001526Y002298D02*
X001486Y002298D01*
X001486Y002140D02*
X001526Y002140D01*
X001320Y002298D02*
X000986Y002298D01*
X000986Y002140D02*
X001120Y002140D01*
X001042Y001981D02*
X000986Y001981D01*
X000986Y001823D02*
X001026Y001823D01*
X001026Y001664D02*
X000986Y001664D01*
X000986Y001506D02*
X001026Y001506D01*
X001026Y001347D02*
X000986Y001347D01*
X000986Y001189D02*
X001030Y001189D01*
X000986Y001030D02*
X001081Y001030D01*
X000986Y000871D02*
X001216Y000871D01*
X001795Y000871D02*
X002210Y000871D01*
X002079Y001030D02*
X001930Y001030D01*
X001981Y001189D02*
X002026Y001189D01*
X002026Y001347D02*
X001986Y001347D01*
X001986Y001506D02*
X002026Y001506D01*
X002026Y001664D02*
X001986Y001664D01*
X001986Y001823D02*
X002026Y001823D01*
X002039Y001981D02*
X001969Y001981D01*
X001892Y002140D02*
X002113Y002140D01*
X001526Y001981D02*
X001486Y001981D01*
X001486Y001823D02*
X001526Y001823D01*
X001526Y001664D02*
X001486Y001664D01*
X002245Y003250D02*
X003523Y003250D01*
X003850Y003250D02*
X003870Y003250D01*
X004140Y003408D02*
X002131Y003408D01*
X002156Y003725D02*
X003906Y003725D01*
X003931Y003884D02*
X002255Y003884D01*
X002286Y004042D02*
X004049Y004042D01*
X004463Y004042D02*
X005019Y004042D01*
X005177Y004201D02*
X002265Y004201D01*
X002180Y004359D02*
X005336Y004359D01*
X005494Y004518D02*
X001941Y004518D01*
X002107Y004676D02*
X005653Y004676D01*
X005811Y004835D02*
X002235Y004835D01*
X002286Y004994D02*
X005970Y004994D01*
X006128Y005152D02*
X002285Y005152D01*
X002219Y005311D02*
X006287Y005311D01*
X006446Y005469D02*
X002059Y005469D01*
X002030Y005628D02*
X006604Y005628D01*
X006763Y005786D02*
X002214Y005786D01*
X002280Y005945D02*
X006921Y005945D01*
X007080Y006103D02*
X002286Y006103D01*
X002239Y006262D02*
X007238Y006262D01*
X007397Y006420D02*
X006617Y006420D01*
X006095Y006420D02*
X005117Y006420D01*
X005203Y006579D02*
X006008Y006579D01*
X006012Y006738D02*
X005264Y006738D01*
X005423Y006896D02*
X006103Y006896D01*
X005740Y007213D02*
X008090Y007213D01*
X007931Y007055D02*
X005581Y007055D01*
X005090Y007213D02*
X003040Y007213D01*
X002881Y007055D02*
X004931Y007055D01*
X004603Y006896D02*
X002723Y006896D01*
X002564Y006738D02*
X004512Y006738D01*
X004508Y006579D02*
X002406Y006579D01*
X002247Y006420D02*
X004595Y006420D01*
X005248Y007372D02*
X003198Y007372D01*
X003527Y007530D02*
X005407Y007530D01*
X005899Y007372D02*
X008248Y007372D01*
X008407Y007530D02*
X006057Y007530D01*
X006609Y006896D02*
X007772Y006896D01*
X007851Y006224D02*
X009761Y006224D01*
X009951Y006224D01*
X010006Y006279D01*
X010006Y005054D01*
X013015Y005054D01*
X013015Y004974D01*
X013476Y004974D01*
X013476Y004954D01*
X013015Y004954D01*
X013015Y004791D01*
X013030Y004736D01*
X013058Y004687D01*
X013099Y004647D01*
X013148Y004619D01*
X013203Y004604D01*
X013476Y004604D01*
X013476Y004954D01*
X013496Y004954D01*
X013496Y004974D01*
X013957Y004974D01*
X013957Y005054D01*
X016226Y005054D01*
X016226Y005049D01*
X015955Y005049D01*
X015779Y004976D01*
X015644Y004841D01*
X015571Y004665D01*
X015571Y004474D01*
X015644Y004297D01*
X015779Y004162D01*
X015955Y004089D01*
X016746Y004089D01*
X016923Y004162D01*
X017058Y004297D01*
X017131Y004474D01*
X017131Y004665D01*
X017058Y004841D01*
X016923Y004976D01*
X016746Y005049D01*
X016686Y005049D01*
X016686Y005054D01*
X017006Y005054D01*
X017006Y008424D01*
X017526Y008424D01*
X017526Y008168D01*
X017336Y007978D01*
X017336Y007630D01*
X017582Y007384D01*
X017930Y007384D01*
X018176Y007630D01*
X018176Y007978D01*
X017986Y008168D01*
X017986Y008559D01*
X017986Y008750D01*
X017986Y009190D01*
X018176Y009380D01*
X018176Y009728D01*
X017930Y009974D01*
X017582Y009974D01*
X017336Y009728D01*
X017336Y009380D01*
X017526Y009190D01*
X017526Y008884D01*
X017006Y008884D01*
X017006Y010320D01*
X020377Y010320D01*
X020234Y010261D01*
X020099Y010126D01*
X020026Y009950D01*
X020026Y009159D01*
X020099Y008982D01*
X020234Y008847D01*
X020410Y008774D01*
X020601Y008774D01*
X020778Y008847D01*
X020913Y008982D01*
X020986Y009159D01*
X020986Y009950D01*
X020913Y010126D01*
X020778Y010261D01*
X020635Y010320D01*
X021387Y010320D01*
X021322Y010299D01*
X021254Y010265D01*
X021193Y010220D01*
X021140Y010167D01*
X021095Y010106D01*
X021061Y010039D01*
X021038Y009967D01*
X021026Y009892D01*
X021026Y009574D01*
X021486Y009574D01*
X021486Y009534D01*
X021526Y009534D01*
X021526Y008774D01*
X021544Y008774D01*
X021618Y008786D01*
X021690Y008809D01*
X021757Y008844D01*
X021819Y008888D01*
X021872Y008942D01*
X021916Y009003D01*
X021951Y009070D01*
X021974Y009142D01*
X021986Y009217D01*
X021986Y009534D01*
X021526Y009534D01*
X021526Y009574D01*
X021986Y009574D01*
X021986Y009892D01*
X021974Y009967D01*
X021951Y010039D01*
X021916Y010106D01*
X021872Y010167D01*
X021819Y010220D01*
X021757Y010265D01*
X021690Y010299D01*
X021625Y010320D01*
X022146Y010320D01*
X022146Y006393D01*
X022078Y006461D01*
X021901Y006534D01*
X021110Y006534D01*
X020934Y006461D01*
X020799Y006326D01*
X020726Y006150D01*
X020726Y005959D01*
X020799Y005782D01*
X020934Y005647D01*
X021110Y005574D01*
X021901Y005574D01*
X022078Y005647D01*
X022146Y005716D01*
X022146Y005393D01*
X022078Y005461D01*
X021901Y005534D01*
X021110Y005534D01*
X020934Y005461D01*
X020799Y005326D01*
X020726Y005150D01*
X020726Y004959D01*
X020799Y004782D01*
X020934Y004647D01*
X021110Y004574D01*
X021901Y004574D01*
X022078Y004647D01*
X022146Y004716D01*
X022146Y004393D01*
X022078Y004461D01*
X021901Y004534D01*
X021110Y004534D01*
X020934Y004461D01*
X020799Y004326D01*
X020782Y004284D01*
X019605Y004284D01*
X019618Y004297D01*
X019691Y004474D01*
X019691Y004665D01*
X019618Y004841D01*
X019483Y004976D01*
X019306Y005049D01*
X018515Y005049D01*
X018339Y004976D01*
X018204Y004841D01*
X018131Y004665D01*
X018131Y004474D01*
X018204Y004297D01*
X018339Y004163D01*
X018326Y004150D01*
X018326Y004150D01*
X017110Y002934D01*
X017058Y003061D01*
X016923Y003196D01*
X016746Y003269D01*
X015955Y003269D01*
X015779Y003196D01*
X015644Y003061D01*
X015571Y002885D01*
X015571Y002694D01*
X015644Y002517D01*
X015779Y002382D01*
X015955Y002309D01*
X016486Y002309D01*
X015161Y000984D01*
X014903Y000984D01*
X014916Y001003D01*
X014951Y001070D01*
X014974Y001142D01*
X014986Y001217D01*
X014986Y001534D01*
X014526Y001534D01*
X014526Y001574D01*
X014986Y001574D01*
X014986Y001892D01*
X014974Y001967D01*
X014951Y002039D01*
X014916Y002106D01*
X014872Y002167D01*
X014819Y002220D01*
X014757Y002265D01*
X014690Y002299D01*
X014618Y002322D01*
X014544Y002334D01*
X014526Y002334D01*
X014526Y001575D01*
X014486Y001575D01*
X014486Y002334D01*
X014468Y002334D01*
X014393Y002322D01*
X014322Y002299D01*
X014254Y002265D01*
X014193Y002220D01*
X014140Y002167D01*
X014095Y002106D01*
X014061Y002039D01*
X014038Y001967D01*
X014026Y001892D01*
X014026Y001574D01*
X014486Y001574D01*
X014486Y001534D01*
X014026Y001534D01*
X014026Y001217D01*
X014038Y001142D01*
X014061Y001070D01*
X014095Y001003D01*
X014109Y000984D01*
X013914Y000984D01*
X013986Y001159D01*
X013986Y001950D01*
X013913Y002126D01*
X013778Y002261D01*
X013601Y002334D01*
X013410Y002334D01*
X013380Y002322D01*
X013406Y002385D01*
X013406Y002524D01*
X013353Y002653D01*
X013254Y002751D01*
X013126Y002804D01*
X012986Y002804D01*
X012858Y002751D01*
X012791Y002684D01*
X011897Y002684D01*
X011897Y002887D01*
X011548Y002887D01*
X011548Y002907D01*
X011897Y002907D01*
X011897Y003180D01*
X011883Y003235D01*
X011854Y003284D01*
X011814Y003325D01*
X011765Y003353D01*
X011710Y003368D01*
X011547Y003368D01*
X011547Y002907D01*
X011527Y002907D01*
X011527Y003368D01*
X011365Y003368D01*
X011310Y003353D01*
X011307Y003351D01*
X011307Y003359D01*
X011231Y003435D01*
X011253Y003456D01*
X011275Y003510D01*
X011361Y003424D01*
X011551Y003424D01*
X011891Y003424D01*
X011958Y003358D01*
X012086Y003304D01*
X012226Y003304D01*
X012354Y003358D01*
X012453Y003456D01*
X012506Y003585D01*
X012506Y003724D01*
X012453Y003853D01*
X012354Y003951D01*
X012226Y004004D01*
X012086Y004004D01*
X011958Y003951D01*
X011891Y003884D01*
X011551Y003884D01*
X011286Y004150D01*
X011151Y004284D01*
X006651Y004284D01*
X006461Y004284D01*
X005662Y003486D01*
X005398Y003486D01*
X005337Y003424D01*
X005275Y003486D01*
X005113Y003486D01*
X007851Y006224D01*
X007730Y006103D02*
X010006Y006103D01*
X010006Y005945D02*
X007572Y005945D01*
X007413Y005786D02*
X010006Y005786D01*
X010006Y005628D02*
X007254Y005628D01*
X007096Y005469D02*
X010006Y005469D01*
X010006Y005311D02*
X006937Y005311D01*
X006779Y005152D02*
X010006Y005152D01*
X011235Y004201D02*
X013881Y004201D01*
X013893Y004188D02*
X013954Y004144D01*
X014022Y004109D01*
X014093Y004086D01*
X014168Y004074D01*
X014486Y004074D01*
X014486Y004534D01*
X014526Y004534D01*
X014526Y004074D01*
X014844Y004074D01*
X014918Y004086D01*
X014990Y004109D01*
X015057Y004144D01*
X015119Y004188D01*
X015172Y004242D01*
X015216Y004303D01*
X015251Y004370D01*
X015274Y004442D01*
X015286Y004517D01*
X015286Y004534D01*
X014526Y004534D01*
X014526Y004574D01*
X015286Y004574D01*
X015286Y004592D01*
X015274Y004667D01*
X015251Y004739D01*
X015216Y004806D01*
X015172Y004867D01*
X015119Y004920D01*
X015057Y004965D01*
X014990Y004999D01*
X014918Y005022D01*
X014844Y005034D01*
X014526Y005034D01*
X014526Y004575D01*
X014486Y004575D01*
X014486Y005034D01*
X014168Y005034D01*
X014093Y005022D01*
X014022Y004999D01*
X013954Y004965D01*
X013939Y004954D01*
X013496Y004954D01*
X013496Y004604D01*
X013728Y004604D01*
X013726Y004592D01*
X013726Y004574D01*
X014486Y004574D01*
X014486Y004534D01*
X013726Y004534D01*
X013726Y004517D01*
X013738Y004442D01*
X013761Y004370D01*
X013795Y004303D01*
X013840Y004242D01*
X013893Y004188D01*
X013766Y004359D02*
X005986Y004359D01*
X006145Y004518D02*
X013726Y004518D01*
X013496Y004676D02*
X013476Y004676D01*
X013476Y004835D02*
X013496Y004835D01*
X013069Y004676D02*
X006303Y004676D01*
X006462Y004835D02*
X013015Y004835D01*
X013015Y004994D02*
X006620Y004994D01*
X006377Y004201D02*
X005828Y004201D01*
X005669Y004042D02*
X006219Y004042D01*
X006060Y003884D02*
X005511Y003884D01*
X005352Y003725D02*
X005902Y003725D01*
X005743Y003567D02*
X005193Y003567D01*
X004860Y003884D02*
X004581Y003884D01*
X004610Y003725D02*
X004702Y003725D01*
X003955Y003567D02*
X000986Y003567D01*
X000986Y004518D02*
X001071Y004518D01*
X002260Y007213D02*
X002390Y007213D01*
X002548Y007372D02*
X002167Y007372D01*
X001911Y007530D02*
X002707Y007530D01*
X002865Y007689D02*
X002119Y007689D01*
X002239Y007847D02*
X002916Y007847D01*
X003012Y008006D02*
X002284Y008006D01*
X002274Y008164D02*
X003500Y008164D01*
X003499Y008006D02*
X003500Y008006D01*
X003850Y008006D02*
X003870Y008006D01*
X003870Y008164D02*
X003850Y008164D01*
X003500Y008323D02*
X002204Y008323D01*
X002025Y008481D02*
X003500Y008481D01*
X003145Y008640D02*
X000986Y008640D01*
X000986Y008481D02*
X000987Y008481D01*
X001486Y008481D02*
X001526Y008481D01*
X001526Y008323D02*
X001486Y008323D01*
X001486Y008164D02*
X001526Y008164D01*
X001526Y008006D02*
X001486Y008006D01*
X001486Y007847D02*
X001526Y007847D01*
X001526Y007689D02*
X001486Y007689D01*
X001101Y007530D02*
X000986Y007530D01*
X003606Y007689D02*
X004151Y007689D01*
X003870Y007847D02*
X003850Y007847D01*
X002986Y008799D02*
X002660Y008799D01*
X002352Y008799D02*
X001657Y008799D01*
X001526Y008799D02*
X001486Y008799D01*
X001486Y008774D02*
X001486Y009534D01*
X001026Y009534D01*
X001026Y009217D01*
X001038Y009142D01*
X001061Y009070D01*
X001095Y009003D01*
X001140Y008942D01*
X001193Y008888D01*
X001254Y008844D01*
X001322Y008809D01*
X001393Y008786D01*
X001468Y008774D01*
X001486Y008774D01*
X001355Y008799D02*
X000986Y008799D01*
X000986Y008957D02*
X001128Y008957D01*
X001046Y009116D02*
X000986Y009116D01*
X000986Y009274D02*
X001026Y009274D01*
X001026Y009433D02*
X000986Y009433D01*
X000986Y009591D02*
X001026Y009591D01*
X001026Y009750D02*
X000986Y009750D01*
X000986Y009908D02*
X001029Y009908D01*
X000986Y010067D02*
X001076Y010067D01*
X000986Y010225D02*
X001200Y010225D01*
X001812Y010225D02*
X002198Y010225D01*
X002074Y010067D02*
X001936Y010067D01*
X001983Y009908D02*
X002026Y009908D01*
X002026Y009750D02*
X001986Y009750D01*
X001986Y009591D02*
X002026Y009591D01*
X002026Y009433D02*
X001986Y009433D01*
X001986Y009274D02*
X002026Y009274D01*
X002044Y009116D02*
X001966Y009116D01*
X001883Y008957D02*
X002124Y008957D01*
X001526Y008957D02*
X001486Y008957D01*
X001486Y009116D02*
X001526Y009116D01*
X001526Y009274D02*
X001486Y009274D01*
X001486Y009433D02*
X001526Y009433D01*
X009989Y006262D02*
X010006Y006262D01*
X013957Y004994D02*
X014011Y004994D01*
X014486Y004994D02*
X014526Y004994D01*
X014526Y004835D02*
X014486Y004835D01*
X014486Y004676D02*
X014526Y004676D01*
X014526Y004518D02*
X014486Y004518D01*
X014486Y004359D02*
X014526Y004359D01*
X014526Y004201D02*
X014486Y004201D01*
X015131Y004201D02*
X015741Y004201D01*
X015618Y004359D02*
X015245Y004359D01*
X015286Y004518D02*
X015571Y004518D01*
X015576Y004676D02*
X015271Y004676D01*
X015195Y004835D02*
X015641Y004835D01*
X015821Y004994D02*
X015001Y004994D01*
X016881Y004994D02*
X018381Y004994D01*
X018201Y004835D02*
X017060Y004835D01*
X017126Y004676D02*
X018136Y004676D01*
X018131Y004518D02*
X017131Y004518D01*
X017083Y004359D02*
X018178Y004359D01*
X018301Y004201D02*
X016961Y004201D01*
X017902Y003725D02*
X012505Y003725D01*
X012498Y003567D02*
X017743Y003567D01*
X017584Y003408D02*
X012405Y003408D01*
X011907Y003408D02*
X011258Y003408D01*
X011527Y003250D02*
X011547Y003250D01*
X011874Y003250D02*
X015908Y003250D01*
X015674Y003091D02*
X011897Y003091D01*
X011897Y002932D02*
X015591Y002932D01*
X015571Y002774D02*
X013199Y002774D01*
X013368Y002615D02*
X015603Y002615D01*
X015705Y002457D02*
X013406Y002457D01*
X013688Y002298D02*
X014320Y002298D01*
X014486Y002298D02*
X014526Y002298D01*
X014526Y002140D02*
X014486Y002140D01*
X014692Y002298D02*
X016475Y002298D01*
X016316Y002140D02*
X014892Y002140D01*
X014969Y001981D02*
X016158Y001981D01*
X015999Y001823D02*
X014986Y001823D01*
X014986Y001664D02*
X015841Y001664D01*
X015682Y001506D02*
X014986Y001506D01*
X014986Y001347D02*
X015523Y001347D01*
X015365Y001189D02*
X014981Y001189D01*
X014930Y001030D02*
X015206Y001030D01*
X014081Y001030D02*
X013932Y001030D01*
X013986Y001189D02*
X014030Y001189D01*
X014026Y001347D02*
X013986Y001347D01*
X013986Y001506D02*
X014026Y001506D01*
X014026Y001664D02*
X013986Y001664D01*
X013986Y001823D02*
X014026Y001823D01*
X014042Y001981D02*
X013973Y001981D01*
X013899Y002140D02*
X014120Y002140D01*
X014486Y001981D02*
X014526Y001981D01*
X014526Y001823D02*
X014486Y001823D01*
X014486Y001664D02*
X014526Y001664D01*
X012913Y002774D02*
X011897Y002774D01*
X011547Y002932D02*
X011527Y002932D01*
X011527Y003091D02*
X011547Y003091D01*
X012421Y003884D02*
X018060Y003884D01*
X018219Y004042D02*
X011393Y004042D01*
X016794Y003250D02*
X017426Y003250D01*
X017267Y003091D02*
X017028Y003091D01*
X019643Y004359D02*
X020832Y004359D01*
X021071Y004518D02*
X019691Y004518D01*
X019686Y004676D02*
X020905Y004676D01*
X020777Y004835D02*
X019620Y004835D01*
X019441Y004994D02*
X020726Y004994D01*
X020727Y005152D02*
X017006Y005152D01*
X017006Y005311D02*
X020793Y005311D01*
X020953Y005469D02*
X017006Y005469D01*
X017006Y005628D02*
X020981Y005628D01*
X020797Y005786D02*
X017006Y005786D01*
X017006Y005945D02*
X020732Y005945D01*
X020726Y006103D02*
X017006Y006103D01*
X017006Y006262D02*
X020772Y006262D01*
X020893Y006420D02*
X017006Y006420D01*
X017006Y006579D02*
X022146Y006579D01*
X022146Y006738D02*
X017006Y006738D01*
X017006Y006896D02*
X022146Y006896D01*
X022146Y007055D02*
X017006Y007055D01*
X017006Y007213D02*
X022146Y007213D01*
X022146Y007372D02*
X017006Y007372D01*
X017006Y007530D02*
X017436Y007530D01*
X017336Y007689D02*
X017006Y007689D01*
X017006Y007847D02*
X017336Y007847D01*
X017364Y008006D02*
X017006Y008006D01*
X017006Y008164D02*
X017522Y008164D01*
X017526Y008323D02*
X017006Y008323D01*
X017986Y008323D02*
X022146Y008323D01*
X022146Y008164D02*
X018990Y008164D01*
X018930Y008224D02*
X018756Y008224D01*
X018756Y007805D01*
X018756Y007805D01*
X018756Y008224D01*
X018582Y008224D01*
X018336Y007978D01*
X018336Y007804D01*
X018336Y007630D01*
X018582Y007384D01*
X018756Y007384D01*
X018930Y007384D01*
X019176Y007630D01*
X019176Y007804D01*
X018756Y007804D01*
X018756Y007384D01*
X018756Y007804D01*
X018756Y007804D01*
X018756Y007804D01*
X018755Y007804D02*
X018336Y007804D01*
X018755Y007804D01*
X018755Y007804D01*
X018756Y007804D02*
X019176Y007804D01*
X019176Y007978D01*
X018930Y008224D01*
X018756Y008164D02*
X018756Y008164D01*
X018756Y008006D02*
X018756Y008006D01*
X018522Y008164D02*
X017990Y008164D01*
X018148Y008006D02*
X018364Y008006D01*
X018336Y007847D02*
X018176Y007847D01*
X018176Y007689D02*
X018336Y007689D01*
X018436Y007530D02*
X018076Y007530D01*
X018756Y007530D02*
X018756Y007530D01*
X019076Y007530D02*
X022146Y007530D01*
X022146Y007689D02*
X019176Y007689D01*
X019176Y007847D02*
X022146Y007847D01*
X022146Y008006D02*
X019148Y008006D01*
X018756Y007847D02*
X018756Y007847D01*
X018756Y007689D02*
X018756Y007689D01*
X017986Y008481D02*
X022146Y008481D01*
X022146Y008640D02*
X017986Y008640D01*
X017986Y008799D02*
X020352Y008799D01*
X020124Y008957D02*
X017986Y008957D01*
X017526Y008957D02*
X017006Y008957D01*
X017006Y009116D02*
X017526Y009116D01*
X017442Y009274D02*
X017006Y009274D01*
X017006Y009433D02*
X017336Y009433D01*
X017336Y009591D02*
X017006Y009591D01*
X017006Y009750D02*
X017357Y009750D01*
X017516Y009908D02*
X017006Y009908D01*
X017006Y010067D02*
X020074Y010067D01*
X020026Y009908D02*
X018996Y009908D01*
X018930Y009974D02*
X018756Y009974D01*
X018756Y009555D01*
X018756Y009555D01*
X018756Y009974D01*
X018582Y009974D01*
X018336Y009728D01*
X018336Y009554D01*
X018336Y009380D01*
X018582Y009134D01*
X018756Y009134D01*
X018930Y009134D01*
X019176Y009380D01*
X019176Y009554D01*
X018756Y009554D01*
X018756Y009134D01*
X018756Y009554D01*
X018756Y009554D01*
X018756Y009554D01*
X018755Y009554D02*
X018336Y009554D01*
X018755Y009554D01*
X018755Y009554D01*
X018756Y009554D02*
X019176Y009554D01*
X019176Y009728D01*
X018930Y009974D01*
X018756Y009908D02*
X018756Y009908D01*
X018516Y009908D02*
X017996Y009908D01*
X018154Y009750D02*
X018357Y009750D01*
X018336Y009591D02*
X018176Y009591D01*
X018176Y009433D02*
X018336Y009433D01*
X018442Y009274D02*
X018070Y009274D01*
X017986Y009116D02*
X020044Y009116D01*
X020026Y009274D02*
X019070Y009274D01*
X019176Y009433D02*
X020026Y009433D01*
X020026Y009591D02*
X019176Y009591D01*
X019154Y009750D02*
X020026Y009750D01*
X020937Y010067D02*
X021076Y010067D01*
X021029Y009908D02*
X020986Y009908D01*
X020986Y009750D02*
X021026Y009750D01*
X021026Y009591D02*
X020986Y009591D01*
X021026Y009534D02*
X021026Y009217D01*
X021038Y009142D01*
X021061Y009070D01*
X021095Y009003D01*
X021140Y008942D01*
X021193Y008888D01*
X021254Y008844D01*
X021322Y008809D01*
X021393Y008786D01*
X021468Y008774D01*
X021486Y008774D01*
X021486Y009534D01*
X021026Y009534D01*
X021026Y009433D02*
X020986Y009433D01*
X020986Y009274D02*
X021026Y009274D01*
X021046Y009116D02*
X020968Y009116D01*
X020888Y008957D02*
X021128Y008957D01*
X021355Y008799D02*
X020660Y008799D01*
X021486Y008799D02*
X021526Y008799D01*
X021657Y008799D02*
X022146Y008799D01*
X022146Y008957D02*
X021883Y008957D01*
X021526Y008957D02*
X021486Y008957D01*
X021486Y009116D02*
X021526Y009116D01*
X021526Y009274D02*
X021486Y009274D01*
X021486Y009433D02*
X021526Y009433D01*
X021986Y009433D02*
X022146Y009433D01*
X022146Y009274D02*
X021986Y009274D01*
X021966Y009116D02*
X022146Y009116D01*
X022146Y009591D02*
X021986Y009591D01*
X021986Y009750D02*
X022146Y009750D01*
X022146Y009908D02*
X021983Y009908D01*
X021936Y010067D02*
X022146Y010067D01*
X022146Y010225D02*
X021812Y010225D01*
X021200Y010225D02*
X020814Y010225D01*
X020198Y010225D02*
X017006Y010225D01*
X018756Y009750D02*
X018756Y009750D01*
X018756Y009591D02*
X018756Y009591D01*
X018756Y009433D02*
X018756Y009433D01*
X018756Y009274D02*
X018756Y009274D01*
X022119Y006420D02*
X022146Y006420D01*
X022146Y005628D02*
X022030Y005628D01*
X022059Y005469D02*
X022146Y005469D01*
X022107Y004676D02*
X022146Y004676D01*
X022146Y004518D02*
X021941Y004518D01*
D16*
X013056Y002454D03*
X012156Y003654D03*
X010956Y003654D03*
X010456Y003654D03*
X009856Y003654D03*
X004256Y003754D03*
X003456Y002454D03*
X004856Y006654D03*
X006356Y006654D03*
X003256Y007754D03*
X010356Y007454D03*
M02*
