G75*
%MOIN*%
%OFA0B0*%
%FSLAX24Y24*%
%IPPOS*%
%LPD*%
%AMOC8*
5,1,8,0,0,1.08239X$1,22.5*
%
%ADD10C,0.0000*%
%ADD11C,0.0050*%
%ADD12C,0.0040*%
%ADD13C,0.0060*%
%ADD14C,0.0080*%
%ADD15R,0.0374X0.0197*%
%ADD16R,0.0300X0.0180*%
%ADD17C,0.0020*%
%ADD18R,0.0197X0.0128*%
%ADD19R,0.0098X0.0059*%
%ADD20R,0.0069X0.0157*%
%ADD21R,0.0079X0.0079*%
%ADD22R,0.0118X0.0118*%
%ADD23R,0.0030X0.0128*%
%ADD24R,0.0160X0.0340*%
%ADD25C,0.0220*%
%ADD26R,0.0197X0.0374*%
%ADD27R,0.1181X0.0394*%
%ADD28C,0.0047*%
%ADD29C,0.0150*%
%ADD30R,0.0203X0.0091*%
%ADD31C,0.0039*%
%ADD32R,0.0246X0.0197*%
%ADD33R,0.0256X0.0571*%
%ADD34C,0.0030*%
D10*
X006018Y000504D02*
X006018Y007984D01*
X010152Y007984D01*
X011333Y007196D01*
X019994Y007196D01*
X021175Y007984D01*
X023734Y007984D01*
X023734Y000504D01*
X006018Y000504D01*
X006609Y001941D02*
X006611Y001966D01*
X006617Y001990D01*
X006626Y002012D01*
X006639Y002033D01*
X006655Y002052D01*
X006674Y002068D01*
X006695Y002081D01*
X006717Y002090D01*
X006741Y002096D01*
X006766Y002098D01*
X006791Y002096D01*
X006815Y002090D01*
X006837Y002081D01*
X006858Y002068D01*
X006877Y002052D01*
X006893Y002033D01*
X006906Y002012D01*
X006915Y001990D01*
X006921Y001966D01*
X006923Y001941D01*
X006921Y001916D01*
X006915Y001892D01*
X006906Y001870D01*
X006893Y001849D01*
X006877Y001830D01*
X006858Y001814D01*
X006837Y001801D01*
X006815Y001792D01*
X006791Y001786D01*
X006766Y001784D01*
X006741Y001786D01*
X006717Y001792D01*
X006695Y001801D01*
X006674Y001814D01*
X006655Y001830D01*
X006639Y001849D01*
X006626Y001870D01*
X006617Y001892D01*
X006611Y001916D01*
X006609Y001941D01*
X006766Y001941D02*
X006768Y001966D01*
X006774Y001990D01*
X006783Y002012D01*
X006796Y002033D01*
X006812Y002052D01*
X006831Y002068D01*
X006852Y002081D01*
X006874Y002090D01*
X006898Y002096D01*
X006923Y002098D01*
X006948Y002096D01*
X006972Y002090D01*
X006994Y002081D01*
X007015Y002068D01*
X007034Y002052D01*
X007050Y002033D01*
X007063Y002012D01*
X007072Y001990D01*
X007078Y001966D01*
X007080Y001941D01*
X007078Y001916D01*
X007072Y001892D01*
X007063Y001870D01*
X007050Y001849D01*
X007034Y001830D01*
X007015Y001814D01*
X006994Y001801D01*
X006972Y001792D01*
X006948Y001786D01*
X006923Y001784D01*
X006898Y001786D01*
X006874Y001792D01*
X006852Y001801D01*
X006831Y001814D01*
X006812Y001830D01*
X006796Y001849D01*
X006783Y001870D01*
X006774Y001892D01*
X006768Y001916D01*
X006766Y001941D01*
X007081Y001941D02*
X007083Y001966D01*
X007089Y001990D01*
X007098Y002012D01*
X007111Y002033D01*
X007127Y002052D01*
X007146Y002068D01*
X007167Y002081D01*
X007189Y002090D01*
X007213Y002096D01*
X007238Y002098D01*
X007263Y002096D01*
X007287Y002090D01*
X007309Y002081D01*
X007330Y002068D01*
X007349Y002052D01*
X007365Y002033D01*
X007378Y002012D01*
X007387Y001990D01*
X007393Y001966D01*
X007395Y001941D01*
X007393Y001916D01*
X007387Y001892D01*
X007378Y001870D01*
X007365Y001849D01*
X007349Y001830D01*
X007330Y001814D01*
X007309Y001801D01*
X007287Y001792D01*
X007263Y001786D01*
X007238Y001784D01*
X007213Y001786D01*
X007189Y001792D01*
X007167Y001801D01*
X007146Y001814D01*
X007127Y001830D01*
X007111Y001849D01*
X007098Y001870D01*
X007089Y001892D01*
X007083Y001916D01*
X007081Y001941D01*
X007239Y001941D02*
X007241Y001966D01*
X007247Y001990D01*
X007256Y002012D01*
X007269Y002033D01*
X007285Y002052D01*
X007304Y002068D01*
X007325Y002081D01*
X007347Y002090D01*
X007371Y002096D01*
X007396Y002098D01*
X007421Y002096D01*
X007445Y002090D01*
X007467Y002081D01*
X007488Y002068D01*
X007507Y002052D01*
X007523Y002033D01*
X007536Y002012D01*
X007545Y001990D01*
X007551Y001966D01*
X007553Y001941D01*
X007551Y001916D01*
X007545Y001892D01*
X007536Y001870D01*
X007523Y001849D01*
X007507Y001830D01*
X007488Y001814D01*
X007467Y001801D01*
X007445Y001792D01*
X007421Y001786D01*
X007396Y001784D01*
X007371Y001786D01*
X007347Y001792D01*
X007325Y001801D01*
X007304Y001814D01*
X007285Y001830D01*
X007269Y001849D01*
X007256Y001870D01*
X007247Y001892D01*
X007241Y001916D01*
X007239Y001941D01*
X006892Y003358D02*
X006894Y003387D01*
X006900Y003415D01*
X006909Y003443D01*
X006922Y003469D01*
X006939Y003492D01*
X006958Y003514D01*
X006980Y003533D01*
X007005Y003548D01*
X007031Y003561D01*
X007059Y003569D01*
X007087Y003574D01*
X007116Y003575D01*
X007145Y003572D01*
X007173Y003565D01*
X007200Y003555D01*
X007226Y003541D01*
X007249Y003524D01*
X007270Y003504D01*
X007288Y003481D01*
X007303Y003456D01*
X007314Y003429D01*
X007322Y003401D01*
X007326Y003372D01*
X007326Y003344D01*
X007322Y003315D01*
X007314Y003287D01*
X007303Y003260D01*
X007288Y003235D01*
X007270Y003212D01*
X007249Y003192D01*
X007226Y003175D01*
X007200Y003161D01*
X007173Y003151D01*
X007145Y003144D01*
X007116Y003141D01*
X007087Y003142D01*
X007059Y003147D01*
X007031Y003155D01*
X007005Y003168D01*
X006980Y003183D01*
X006958Y003202D01*
X006939Y003224D01*
X006922Y003247D01*
X006909Y003273D01*
X006900Y003301D01*
X006894Y003329D01*
X006892Y003358D01*
X006892Y005130D02*
X006894Y005159D01*
X006900Y005187D01*
X006909Y005215D01*
X006922Y005241D01*
X006939Y005264D01*
X006958Y005286D01*
X006980Y005305D01*
X007005Y005320D01*
X007031Y005333D01*
X007059Y005341D01*
X007087Y005346D01*
X007116Y005347D01*
X007145Y005344D01*
X007173Y005337D01*
X007200Y005327D01*
X007226Y005313D01*
X007249Y005296D01*
X007270Y005276D01*
X007288Y005253D01*
X007303Y005228D01*
X007314Y005201D01*
X007322Y005173D01*
X007326Y005144D01*
X007326Y005116D01*
X007322Y005087D01*
X007314Y005059D01*
X007303Y005032D01*
X007288Y005007D01*
X007270Y004984D01*
X007249Y004964D01*
X007226Y004947D01*
X007200Y004933D01*
X007173Y004923D01*
X007145Y004916D01*
X007116Y004913D01*
X007087Y004914D01*
X007059Y004919D01*
X007031Y004927D01*
X007005Y004940D01*
X006980Y004955D01*
X006958Y004974D01*
X006939Y004996D01*
X006922Y005019D01*
X006909Y005045D01*
X006900Y005073D01*
X006894Y005101D01*
X006892Y005130D01*
X006766Y006547D02*
X006768Y006572D01*
X006774Y006596D01*
X006783Y006618D01*
X006796Y006639D01*
X006812Y006658D01*
X006831Y006674D01*
X006852Y006687D01*
X006874Y006696D01*
X006898Y006702D01*
X006923Y006704D01*
X006948Y006702D01*
X006972Y006696D01*
X006994Y006687D01*
X007015Y006674D01*
X007034Y006658D01*
X007050Y006639D01*
X007063Y006618D01*
X007072Y006596D01*
X007078Y006572D01*
X007080Y006547D01*
X007078Y006522D01*
X007072Y006498D01*
X007063Y006476D01*
X007050Y006455D01*
X007034Y006436D01*
X007015Y006420D01*
X006994Y006407D01*
X006972Y006398D01*
X006948Y006392D01*
X006923Y006390D01*
X006898Y006392D01*
X006874Y006398D01*
X006852Y006407D01*
X006831Y006420D01*
X006812Y006436D01*
X006796Y006455D01*
X006783Y006476D01*
X006774Y006498D01*
X006768Y006522D01*
X006766Y006547D01*
X006609Y006547D02*
X006611Y006572D01*
X006617Y006596D01*
X006626Y006618D01*
X006639Y006639D01*
X006655Y006658D01*
X006674Y006674D01*
X006695Y006687D01*
X006717Y006696D01*
X006741Y006702D01*
X006766Y006704D01*
X006791Y006702D01*
X006815Y006696D01*
X006837Y006687D01*
X006858Y006674D01*
X006877Y006658D01*
X006893Y006639D01*
X006906Y006618D01*
X006915Y006596D01*
X006921Y006572D01*
X006923Y006547D01*
X006921Y006522D01*
X006915Y006498D01*
X006906Y006476D01*
X006893Y006455D01*
X006877Y006436D01*
X006858Y006420D01*
X006837Y006407D01*
X006815Y006398D01*
X006791Y006392D01*
X006766Y006390D01*
X006741Y006392D01*
X006717Y006398D01*
X006695Y006407D01*
X006674Y006420D01*
X006655Y006436D01*
X006639Y006455D01*
X006626Y006476D01*
X006617Y006498D01*
X006611Y006522D01*
X006609Y006547D01*
X007081Y006547D02*
X007083Y006572D01*
X007089Y006596D01*
X007098Y006618D01*
X007111Y006639D01*
X007127Y006658D01*
X007146Y006674D01*
X007167Y006687D01*
X007189Y006696D01*
X007213Y006702D01*
X007238Y006704D01*
X007263Y006702D01*
X007287Y006696D01*
X007309Y006687D01*
X007330Y006674D01*
X007349Y006658D01*
X007365Y006639D01*
X007378Y006618D01*
X007387Y006596D01*
X007393Y006572D01*
X007395Y006547D01*
X007393Y006522D01*
X007387Y006498D01*
X007378Y006476D01*
X007365Y006455D01*
X007349Y006436D01*
X007330Y006420D01*
X007309Y006407D01*
X007287Y006398D01*
X007263Y006392D01*
X007238Y006390D01*
X007213Y006392D01*
X007189Y006398D01*
X007167Y006407D01*
X007146Y006420D01*
X007127Y006436D01*
X007111Y006455D01*
X007098Y006476D01*
X007089Y006498D01*
X007083Y006522D01*
X007081Y006547D01*
X007239Y006547D02*
X007241Y006572D01*
X007247Y006596D01*
X007256Y006618D01*
X007269Y006639D01*
X007285Y006658D01*
X007304Y006674D01*
X007325Y006687D01*
X007347Y006696D01*
X007371Y006702D01*
X007396Y006704D01*
X007421Y006702D01*
X007445Y006696D01*
X007467Y006687D01*
X007488Y006674D01*
X007507Y006658D01*
X007523Y006639D01*
X007536Y006618D01*
X007545Y006596D01*
X007551Y006572D01*
X007553Y006547D01*
X007551Y006522D01*
X007545Y006498D01*
X007536Y006476D01*
X007523Y006455D01*
X007507Y006436D01*
X007488Y006420D01*
X007467Y006407D01*
X007445Y006398D01*
X007421Y006392D01*
X007396Y006390D01*
X007371Y006392D01*
X007347Y006398D01*
X007325Y006407D01*
X007304Y006420D01*
X007285Y006436D01*
X007269Y006455D01*
X007256Y006476D01*
X007247Y006498D01*
X007241Y006522D01*
X007239Y006547D01*
D11*
X012770Y007196D02*
X018557Y007196D01*
X018557Y002078D01*
X012770Y002078D01*
X012770Y007196D01*
X016214Y005192D02*
X016214Y005133D01*
X016214Y005016D02*
X016214Y004783D01*
X016156Y004783D02*
X016273Y004783D01*
X016401Y004841D02*
X016460Y004783D01*
X016635Y004783D01*
X016635Y004724D02*
X016635Y005016D01*
X016460Y005016D01*
X016401Y004958D01*
X016401Y004841D01*
X016577Y004666D02*
X016635Y004724D01*
X016577Y004666D02*
X016518Y004666D01*
X016522Y004533D02*
X016697Y004533D01*
X016755Y004475D01*
X016755Y004358D01*
X016697Y004300D01*
X016522Y004300D01*
X016638Y004300D02*
X016755Y004183D01*
X016522Y004183D02*
X016522Y004533D01*
X016153Y004533D02*
X016153Y004183D01*
X016387Y004183D01*
X016018Y004183D02*
X015785Y004183D01*
X015902Y004183D02*
X015902Y004533D01*
X015785Y004416D01*
X015650Y004416D02*
X015650Y004475D01*
X015592Y004533D01*
X015475Y004533D01*
X015417Y004475D01*
X015650Y004416D02*
X015417Y004183D01*
X015650Y004183D01*
X015282Y004183D02*
X015048Y004183D01*
X015165Y004183D02*
X015165Y004533D01*
X015048Y004416D01*
X014914Y004533D02*
X014680Y004533D01*
X014680Y004183D01*
X014914Y004183D01*
X014545Y004183D02*
X014312Y004183D01*
X014312Y004533D01*
X014177Y004475D02*
X014177Y004416D01*
X014118Y004358D01*
X013943Y004358D01*
X014118Y004358D02*
X014177Y004300D01*
X014177Y004241D01*
X014118Y004183D01*
X013943Y004183D01*
X013943Y004533D01*
X014118Y004533D01*
X014177Y004475D01*
X014680Y004358D02*
X014797Y004358D01*
X015904Y004666D02*
X015963Y004666D01*
X016021Y004724D01*
X016021Y005016D01*
X015846Y005016D01*
X015788Y004958D01*
X015788Y004841D01*
X015846Y004783D01*
X016021Y004783D01*
X016156Y005016D02*
X016214Y005016D01*
X015653Y004958D02*
X015653Y004900D01*
X015419Y004900D01*
X015419Y004958D02*
X015419Y004841D01*
X015478Y004783D01*
X015594Y004783D01*
X015284Y004783D02*
X015284Y005016D01*
X015419Y004958D02*
X015478Y005016D01*
X015594Y005016D01*
X015653Y004958D01*
X015284Y004783D02*
X015109Y004783D01*
X015051Y004841D01*
X015051Y005016D01*
X014864Y005133D02*
X014864Y004783D01*
X014922Y004783D02*
X014805Y004783D01*
X014671Y004841D02*
X014671Y004900D01*
X014612Y004958D01*
X014437Y004958D01*
X014437Y004783D02*
X014437Y005133D01*
X014612Y005133D01*
X014671Y005075D01*
X014671Y005016D01*
X014612Y004958D01*
X014805Y005133D02*
X014864Y005133D01*
X014671Y004841D02*
X014612Y004783D01*
X014437Y004783D01*
X016770Y004841D02*
X016828Y004900D01*
X017003Y004900D01*
X017003Y004958D02*
X016945Y005016D01*
X016828Y005016D01*
X017003Y004958D02*
X017003Y004783D01*
X016828Y004783D01*
X016770Y004841D01*
X017258Y004416D02*
X017375Y004533D01*
X017492Y004416D01*
X017492Y004183D01*
X017258Y004183D02*
X017258Y004416D01*
X017258Y004358D02*
X017492Y004358D01*
X017123Y004358D02*
X016890Y004358D01*
X021043Y003034D02*
X023543Y003034D01*
X023543Y001066D01*
X021043Y001066D01*
X021043Y003034D01*
X021072Y003034D01*
X021043Y003034D02*
X021043Y001066D01*
X021072Y001066D01*
X021503Y001066D02*
X021582Y001066D01*
X022003Y001066D02*
X022043Y001066D01*
X022043Y001912D01*
X022543Y001912D01*
X022543Y001066D01*
X022543Y001912D01*
X022043Y001912D01*
X022043Y001066D01*
X022082Y001066D01*
X022503Y001066D02*
X022543Y001066D01*
X022582Y001066D01*
X023003Y001066D02*
X023082Y001066D01*
X023513Y001066D02*
X023543Y001066D01*
X023543Y003034D01*
X023513Y003034D01*
X023082Y003034D02*
X023003Y003034D01*
X022582Y003034D02*
X022503Y003034D01*
X022082Y003034D02*
X022003Y003034D01*
X021582Y003034D02*
X021503Y003034D01*
X022457Y006039D02*
X023559Y006039D01*
X023559Y006394D01*
X023559Y007181D01*
X023559Y007535D01*
X022457Y007535D01*
X022457Y006039D01*
D12*
X022266Y006292D02*
X022065Y006292D01*
X022065Y006392D01*
X022099Y006426D01*
X022165Y006426D01*
X022199Y006392D01*
X022199Y006292D01*
X022199Y006359D02*
X022266Y006426D01*
X022266Y006513D02*
X022065Y006513D01*
X022065Y006647D01*
X022099Y006734D02*
X022132Y006734D01*
X022165Y006768D01*
X022165Y006834D01*
X022199Y006868D01*
X022232Y006868D01*
X022266Y006834D01*
X022266Y006768D01*
X022232Y006734D01*
X022266Y006647D02*
X022266Y006513D01*
X022165Y006513D02*
X022165Y006580D01*
X022099Y006734D02*
X022065Y006768D01*
X022065Y006834D01*
X022099Y006868D01*
X022065Y006955D02*
X022266Y006955D01*
X022266Y007089D01*
X022165Y007022D02*
X022165Y006955D01*
X022065Y006955D02*
X022065Y007089D01*
X022065Y007176D02*
X022065Y007310D01*
X022065Y007243D02*
X022266Y007243D01*
X020895Y005208D02*
X020828Y005142D01*
X020828Y005175D02*
X020828Y005075D01*
X020895Y005075D02*
X020695Y005075D01*
X020695Y005175D01*
X020728Y005208D01*
X020795Y005208D01*
X020828Y005175D01*
X020828Y004987D02*
X020861Y004987D01*
X020895Y004954D01*
X020895Y004887D01*
X020861Y004854D01*
X020795Y004887D02*
X020761Y004854D01*
X020728Y004854D01*
X020695Y004887D01*
X020695Y004954D01*
X020728Y004987D01*
X020795Y004954D02*
X020828Y004987D01*
X020795Y004954D02*
X020795Y004887D01*
X020861Y004766D02*
X020695Y004766D01*
X020861Y004766D02*
X020895Y004733D01*
X020895Y004666D01*
X020861Y004633D01*
X020695Y004633D01*
X020728Y004185D02*
X020795Y004185D01*
X020828Y004151D01*
X020828Y004051D01*
X020895Y004051D02*
X020695Y004051D01*
X020695Y004151D01*
X020728Y004185D01*
X020828Y004118D02*
X020895Y004185D01*
X020895Y003964D02*
X020695Y003964D01*
X020695Y003830D02*
X020895Y003830D01*
X020828Y003897D01*
X020895Y003964D01*
X020795Y003743D02*
X020728Y003743D01*
X020695Y003709D01*
X020695Y003609D01*
X020895Y003609D01*
X020828Y003609D02*
X020828Y003709D01*
X020795Y003743D01*
X022563Y003851D02*
X022585Y003856D01*
X022605Y003864D01*
X022623Y003875D01*
X022640Y003890D01*
X022654Y003906D01*
X022666Y003925D01*
X022674Y003945D01*
X022679Y003966D01*
X022681Y003988D01*
X022679Y004010D01*
X022674Y004031D01*
X022666Y004051D01*
X022654Y004070D01*
X022640Y004086D01*
X022623Y004101D01*
X022605Y004112D01*
X022585Y004120D01*
X022563Y004125D01*
X022731Y004214D02*
X023292Y004214D01*
X023221Y004165D02*
X023223Y004177D01*
X023228Y004188D01*
X023236Y004197D01*
X023247Y004203D01*
X023259Y004206D01*
X023271Y004205D01*
X023283Y004201D01*
X023292Y004193D01*
X023299Y004183D01*
X023303Y004171D01*
X023303Y004159D01*
X023299Y004147D01*
X023292Y004137D01*
X023282Y004129D01*
X023271Y004125D01*
X023259Y004124D01*
X023247Y004127D01*
X023236Y004133D01*
X023228Y004142D01*
X023223Y004153D01*
X023221Y004165D01*
X023292Y004125D02*
X023270Y004120D01*
X023250Y004112D01*
X023232Y004101D01*
X023215Y004086D01*
X023201Y004070D01*
X023189Y004051D01*
X023181Y004031D01*
X023176Y004010D01*
X023174Y003988D01*
X023176Y003966D01*
X023181Y003945D01*
X023189Y003925D01*
X023201Y003906D01*
X023215Y003890D01*
X023232Y003875D01*
X023250Y003864D01*
X023270Y003856D01*
X023292Y003851D01*
X023134Y003761D02*
X022721Y003761D01*
X022721Y004588D02*
X023134Y004588D01*
X023292Y004678D02*
X023270Y004683D01*
X023250Y004691D01*
X023232Y004702D01*
X023215Y004717D01*
X023201Y004733D01*
X023189Y004752D01*
X023181Y004772D01*
X023176Y004793D01*
X023174Y004815D01*
X023176Y004837D01*
X023181Y004858D01*
X023189Y004878D01*
X023201Y004897D01*
X023215Y004913D01*
X023232Y004928D01*
X023250Y004939D01*
X023270Y004947D01*
X023292Y004952D01*
X023221Y004992D02*
X023223Y005004D01*
X023228Y005015D01*
X023236Y005024D01*
X023247Y005030D01*
X023259Y005033D01*
X023271Y005032D01*
X023283Y005028D01*
X023292Y005020D01*
X023299Y005010D01*
X023303Y004998D01*
X023303Y004986D01*
X023299Y004974D01*
X023292Y004964D01*
X023282Y004956D01*
X023271Y004952D01*
X023259Y004951D01*
X023247Y004954D01*
X023236Y004960D01*
X023228Y004969D01*
X023223Y004980D01*
X023221Y004992D01*
X023292Y005041D02*
X022731Y005041D01*
X022563Y004952D02*
X022585Y004947D01*
X022605Y004939D01*
X022623Y004928D01*
X022640Y004913D01*
X022654Y004897D01*
X022666Y004878D01*
X022674Y004858D01*
X022679Y004837D01*
X022681Y004815D01*
X022679Y004793D01*
X022674Y004772D01*
X022666Y004752D01*
X022654Y004733D01*
X022640Y004717D01*
X022623Y004702D01*
X022605Y004691D01*
X022585Y004683D01*
X022563Y004678D01*
X020712Y001751D02*
X020712Y001470D01*
X020377Y001470D02*
X020377Y001751D01*
X020401Y000888D02*
X020435Y000855D01*
X020435Y000721D01*
X020401Y000688D01*
X020335Y000688D01*
X020301Y000721D01*
X020301Y000855D01*
X020335Y000888D01*
X020401Y000888D01*
X020522Y000855D02*
X020522Y000721D01*
X020556Y000688D01*
X020622Y000688D01*
X020656Y000721D01*
X020656Y000788D01*
X020589Y000788D01*
X020656Y000855D02*
X020622Y000888D01*
X020556Y000888D01*
X020522Y000855D01*
X020214Y000855D02*
X020214Y000788D01*
X020180Y000754D01*
X020080Y000754D01*
X020080Y000688D02*
X020080Y000888D01*
X020180Y000888D01*
X020214Y000855D01*
X020147Y000754D02*
X020214Y000688D01*
X019993Y000788D02*
X019959Y000754D01*
X019859Y000754D01*
X019859Y000688D02*
X019859Y000888D01*
X019959Y000888D01*
X019993Y000855D01*
X019993Y000788D01*
X017182Y001357D02*
X016901Y001357D01*
X016901Y001692D02*
X017182Y001692D01*
X014820Y001697D02*
X014539Y001697D01*
X014539Y001362D02*
X014820Y001362D01*
X013540Y001357D02*
X013260Y001357D01*
X013260Y001692D02*
X013540Y001692D01*
X011667Y001805D02*
X011469Y001607D01*
X011232Y001844D02*
X011430Y002042D01*
X010534Y001702D02*
X009169Y003067D01*
X010534Y004431D01*
X011898Y003067D01*
X010534Y001702D01*
X009804Y001863D02*
X009606Y002061D01*
X009369Y001825D02*
X009567Y001626D01*
X005592Y002531D02*
X005132Y002531D01*
X005132Y002762D01*
X005209Y002838D01*
X005362Y002838D01*
X005439Y002762D01*
X005439Y002531D01*
X005516Y002992D02*
X005209Y002992D01*
X005132Y003069D01*
X005132Y003222D01*
X005209Y003299D01*
X005132Y003452D02*
X005132Y003682D01*
X005209Y003759D01*
X005286Y003759D01*
X005362Y003682D01*
X005362Y003452D01*
X005592Y003452D02*
X005132Y003452D01*
X005362Y003682D02*
X005439Y003759D01*
X005516Y003759D01*
X005592Y003682D01*
X005592Y003452D01*
X005516Y003299D02*
X005592Y003222D01*
X005592Y003069D01*
X005516Y002992D01*
X005592Y004373D02*
X005132Y004373D01*
X005132Y004680D01*
X005362Y004833D02*
X005286Y004910D01*
X005286Y005140D01*
X005132Y005140D02*
X005592Y005140D01*
X005592Y004910D01*
X005516Y004833D01*
X005362Y004833D01*
X005592Y004680D02*
X005592Y004373D01*
X005362Y004373D02*
X005362Y004526D01*
X005362Y005294D02*
X005516Y005294D01*
X005592Y005371D01*
X005592Y005601D01*
X005669Y005601D02*
X005286Y005601D01*
X005286Y005371D01*
X005362Y005294D01*
X005746Y005447D02*
X005746Y005524D01*
X005669Y005601D01*
X005516Y005754D02*
X005362Y005754D01*
X005286Y005831D01*
X005286Y005984D01*
X005362Y006061D01*
X005439Y006061D01*
X005439Y005754D01*
X005516Y005754D02*
X005592Y005831D01*
X005592Y005984D01*
X009549Y005388D02*
X009549Y005107D01*
X009884Y005107D02*
X009884Y005388D01*
D13*
X008516Y001904D02*
X008757Y001663D01*
X008559Y001465D02*
X008318Y001706D01*
X020805Y000900D02*
X020805Y000700D01*
X021005Y000800D01*
X020805Y000900D01*
X020805Y000855D02*
X020895Y000855D01*
X020805Y000796D02*
X020998Y000796D01*
X020881Y000738D02*
X020805Y000738D01*
X021478Y003848D02*
X021818Y003848D01*
X021818Y004128D02*
X021478Y004128D01*
X021478Y004674D02*
X021818Y004674D01*
X021818Y004955D02*
X021478Y004955D01*
X021433Y006504D02*
X021413Y006614D01*
X021323Y006644D01*
X021233Y006584D01*
X021163Y006654D01*
X021233Y006744D01*
X021193Y006824D01*
X021083Y006854D01*
X021083Y006944D01*
X021193Y006964D01*
X021233Y007044D01*
X021163Y007134D01*
X021233Y007204D01*
X021323Y007144D01*
X021413Y007184D01*
X021433Y007284D01*
X021523Y007284D01*
X021543Y007184D01*
X021633Y007144D01*
X021723Y007204D01*
X021783Y007134D01*
X021723Y007054D01*
X021743Y007014D01*
X021583Y006954D01*
X021593Y007004D02*
X021493Y007064D01*
X021383Y007024D01*
X021323Y006914D01*
X021363Y006784D01*
X021493Y006744D01*
X021603Y006784D01*
X021703Y006754D01*
X021753Y006664D01*
X021723Y006614D01*
X021623Y006674D01*
X021513Y006624D01*
X021493Y006524D01*
X021463Y006524D01*
X021423Y006624D01*
X021313Y006664D01*
X021223Y006614D01*
X021193Y006654D01*
X021253Y006734D01*
X021193Y006844D01*
X021103Y006874D01*
X021103Y006924D01*
X021213Y006954D01*
X021253Y007044D01*
X021193Y007124D01*
X021233Y007174D01*
X021313Y007124D01*
X021433Y007174D01*
X021453Y007254D01*
X021503Y007264D01*
X021523Y007174D01*
X021633Y007124D01*
X021713Y007164D01*
X021743Y007124D01*
X021693Y007034D01*
X021593Y007004D01*
X021508Y007056D02*
X021705Y007056D01*
X021738Y007114D02*
X021201Y007114D01*
X021232Y007173D02*
X021236Y007173D01*
X021245Y007056D02*
X021469Y007056D01*
X021368Y006997D02*
X021232Y006997D01*
X021156Y006939D02*
X021337Y006939D01*
X021334Y006880D02*
X021103Y006880D01*
X021206Y006822D02*
X021352Y006822D01*
X021432Y006763D02*
X021238Y006763D01*
X021231Y006705D02*
X021731Y006705D01*
X021723Y006734D02*
X021783Y006654D01*
X021723Y006584D01*
X021633Y006644D01*
X021543Y006604D01*
X021523Y006504D01*
X021433Y006504D01*
X021461Y006529D02*
X021494Y006529D01*
X021506Y006588D02*
X021438Y006588D01*
X021364Y006646D02*
X021561Y006646D01*
X021670Y006646D02*
X021742Y006646D01*
X021723Y006734D02*
X021743Y006774D01*
X021583Y006834D01*
X021545Y006763D02*
X021674Y006763D01*
X021280Y006646D02*
X021200Y006646D01*
X021583Y006834D02*
X021571Y006817D01*
X021556Y006802D01*
X021539Y006789D01*
X021520Y006780D01*
X021499Y006775D01*
X021478Y006773D01*
X021457Y006775D01*
X021437Y006780D01*
X021418Y006789D01*
X021400Y006801D01*
X021385Y006816D01*
X021373Y006833D01*
X021364Y006853D01*
X021359Y006873D01*
X021357Y006894D01*
X021359Y006915D01*
X021364Y006935D01*
X021373Y006955D01*
X021385Y006972D01*
X021400Y006987D01*
X021418Y006999D01*
X021437Y007008D01*
X021457Y007013D01*
X021478Y007015D01*
X021499Y007013D01*
X021520Y007008D01*
X021539Y006999D01*
X021556Y006986D01*
X021571Y006971D01*
X021583Y006954D01*
X021527Y007173D02*
X021429Y007173D01*
X021447Y007231D02*
X021511Y007231D01*
D14*
X005967Y001881D02*
X000140Y001881D01*
X000140Y006606D01*
X005967Y006606D01*
X006360Y006606D01*
X005967Y006606D02*
X005967Y001881D01*
X006360Y001881D01*
X007542Y002669D02*
X007542Y005819D01*
X002738Y005937D02*
X002738Y004992D01*
X001833Y004992D01*
X001833Y005937D01*
X002738Y005937D01*
X002738Y003496D02*
X001833Y003496D01*
X001833Y002551D01*
X002738Y002551D01*
X002738Y003496D01*
X022568Y006297D02*
X022570Y006305D01*
X022575Y006312D01*
X022582Y006316D01*
X022590Y006317D01*
X022598Y006314D01*
X022604Y006309D01*
X022608Y006301D01*
X022608Y006293D01*
X022604Y006285D01*
X022598Y006280D01*
X022590Y006277D01*
X022582Y006278D01*
X022575Y006282D01*
X022570Y006289D01*
X022568Y006297D01*
D15*
X020544Y001842D03*
X020544Y001382D03*
X009717Y005016D03*
X009717Y005476D03*
D16*
X020542Y001611D03*
D17*
X020285Y001775D02*
X020065Y001775D01*
X020065Y001885D01*
X020102Y001922D01*
X020175Y001922D01*
X020212Y001885D01*
X020212Y001775D01*
X020212Y001849D02*
X020285Y001922D01*
X020285Y001996D02*
X020285Y002143D01*
X020285Y002070D02*
X020065Y002070D01*
X020138Y001996D01*
X017582Y001261D02*
X017508Y001224D01*
X017435Y001151D01*
X017545Y001151D01*
X017582Y001114D01*
X017582Y001078D01*
X017545Y001041D01*
X017472Y001041D01*
X017435Y001078D01*
X017435Y001151D01*
X017361Y001224D02*
X017324Y001261D01*
X017251Y001261D01*
X017214Y001224D01*
X017214Y001078D01*
X017251Y001041D01*
X017324Y001041D01*
X017361Y001078D01*
X015200Y001082D02*
X015163Y001045D01*
X015090Y001045D01*
X015053Y001082D01*
X015053Y001155D02*
X015126Y001192D01*
X015163Y001192D01*
X015200Y001155D01*
X015200Y001082D01*
X015053Y001155D02*
X015053Y001265D01*
X015200Y001265D01*
X014979Y001228D02*
X014942Y001265D01*
X014869Y001265D01*
X014832Y001228D01*
X014832Y001082D01*
X014869Y001045D01*
X014942Y001045D01*
X014979Y001082D01*
X013942Y001166D02*
X013795Y001166D01*
X013905Y001276D01*
X013905Y001056D01*
X013721Y001093D02*
X013684Y001056D01*
X013610Y001056D01*
X013574Y001093D01*
X013574Y001240D01*
X013610Y001276D01*
X013684Y001276D01*
X013721Y001240D01*
X011601Y001325D02*
X011549Y001274D01*
X011498Y001274D01*
X011445Y001221D02*
X011445Y001169D01*
X011393Y001117D01*
X011341Y001117D01*
X011237Y001221D01*
X011237Y001273D01*
X011289Y001325D01*
X011341Y001325D01*
X011394Y001377D02*
X011394Y001429D01*
X011446Y001481D01*
X011498Y001481D01*
X011523Y001455D01*
X011523Y001403D01*
X011575Y001403D01*
X011601Y001377D01*
X011601Y001325D01*
X011523Y001403D02*
X011498Y001377D01*
X009754Y001338D02*
X009754Y001286D01*
X009728Y001260D01*
X009521Y001260D01*
X009625Y001156D01*
X009754Y001338D02*
X009703Y001390D01*
X009651Y001390D01*
X009598Y001442D02*
X009598Y001494D01*
X009546Y001546D01*
X009494Y001546D01*
X009391Y001442D01*
X009391Y001390D01*
X009442Y001339D01*
X009494Y001339D01*
X008682Y001143D02*
X008526Y001143D01*
X008630Y001039D01*
X008526Y000987D02*
X008682Y001143D01*
X008526Y001247D02*
X008474Y001195D01*
X008422Y001195D01*
X008344Y001273D01*
X008292Y001221D02*
X008448Y001377D01*
X008526Y001299D01*
X008526Y001247D01*
X008396Y001221D02*
X008396Y001117D01*
X013705Y002935D02*
X013852Y002935D01*
X013779Y002935D02*
X013779Y003155D01*
X013705Y003082D01*
X013926Y003118D02*
X013963Y003155D01*
X014036Y003155D01*
X014073Y003118D01*
X014073Y003082D01*
X013926Y002935D01*
X014073Y002935D01*
X011075Y004055D02*
X010972Y004159D01*
X011179Y004159D01*
X011205Y004185D01*
X011205Y004237D01*
X011153Y004289D01*
X011101Y004289D01*
X011075Y004367D02*
X010945Y004237D01*
X010893Y004237D01*
X010841Y004289D01*
X010841Y004341D01*
X010971Y004471D01*
X009487Y005476D02*
X009487Y005549D01*
X009451Y005586D01*
X009487Y005660D02*
X009487Y005807D01*
X009487Y005734D02*
X009267Y005734D01*
X009341Y005660D01*
X009304Y005586D02*
X009267Y005549D01*
X009267Y005476D01*
X009304Y005439D01*
X009451Y005439D01*
X009487Y005476D01*
X013705Y006832D02*
X013852Y006832D01*
X013779Y006832D02*
X013779Y007053D01*
X013705Y006979D01*
X017248Y007016D02*
X017285Y007053D01*
X017359Y007053D01*
X017395Y007016D01*
X017395Y006979D01*
X017359Y006943D01*
X017395Y006906D01*
X017395Y006869D01*
X017359Y006832D01*
X017285Y006832D01*
X017248Y006869D01*
X017322Y006943D02*
X017359Y006943D01*
X017469Y006943D02*
X017580Y006943D01*
X017616Y006906D01*
X017616Y006869D01*
X017580Y006832D01*
X017506Y006832D01*
X017469Y006869D01*
X017469Y006943D01*
X017543Y007016D01*
X017616Y007053D01*
X021146Y005301D02*
X021256Y005301D01*
X021293Y005264D01*
X021293Y005191D01*
X021256Y005154D01*
X021146Y005154D01*
X021219Y005154D02*
X021293Y005080D01*
X021367Y005117D02*
X021404Y005080D01*
X021477Y005080D01*
X021514Y005117D01*
X021514Y005154D01*
X021477Y005191D01*
X021440Y005191D01*
X021477Y005191D02*
X021514Y005227D01*
X021514Y005264D01*
X021477Y005301D01*
X021404Y005301D01*
X021367Y005264D01*
X021146Y005301D02*
X021146Y005080D01*
X021146Y004474D02*
X021256Y004474D01*
X021293Y004437D01*
X021293Y004364D01*
X021256Y004327D01*
X021146Y004327D01*
X021146Y004254D02*
X021146Y004474D01*
X021219Y004327D02*
X021293Y004254D01*
X021367Y004254D02*
X021514Y004400D01*
X021514Y004437D01*
X021477Y004474D01*
X021404Y004474D01*
X021367Y004437D01*
X021367Y004254D02*
X021514Y004254D01*
X017616Y003155D02*
X017469Y003155D01*
X017469Y003045D01*
X017543Y003082D01*
X017580Y003082D01*
X017616Y003045D01*
X017616Y002972D01*
X017580Y002935D01*
X017506Y002935D01*
X017469Y002972D01*
X017395Y002935D02*
X017248Y002935D01*
X017395Y003082D01*
X017395Y003118D01*
X017359Y003155D01*
X017285Y003155D01*
X017248Y003118D01*
D18*
X022632Y003806D03*
X023223Y003806D03*
X022632Y004170D03*
X022632Y004632D03*
X023223Y004632D03*
X022632Y004997D03*
D19*
X022681Y004913D03*
X022681Y004716D03*
X023173Y004716D03*
X023173Y004913D03*
X023173Y004086D03*
X023173Y003889D03*
X022681Y003889D03*
X022681Y004086D03*
D20*
X022696Y003988D03*
X023159Y003988D03*
X023159Y004815D03*
X022696Y004815D03*
D21*
X022967Y004815D03*
X022967Y003988D03*
D22*
X023183Y004165D03*
X023183Y004992D03*
D23*
X023306Y004997D03*
X023306Y004170D03*
D24*
X021898Y003988D03*
X021398Y003988D03*
X021398Y004815D03*
X021898Y004815D03*
G36*
X008777Y001684D02*
X008890Y001571D01*
X008651Y001332D01*
X008538Y001445D01*
X008777Y001684D01*
G37*
G36*
X008424Y002037D02*
X008537Y001924D01*
X008298Y001685D01*
X008185Y001798D01*
X008424Y002037D01*
G37*
D25*
X009576Y001834D02*
X009593Y001851D01*
X011443Y001831D02*
X011460Y001814D01*
X013400Y001539D02*
X013400Y001515D01*
X014679Y001539D02*
X014679Y001515D01*
X017042Y001515D02*
X017042Y001539D01*
X009731Y005248D02*
X009707Y005248D01*
D26*
G36*
X009361Y001806D02*
X009222Y001945D01*
X009485Y002208D01*
X009624Y002069D01*
X009361Y001806D01*
G37*
G36*
X009686Y001481D02*
X009547Y001620D01*
X009810Y001883D01*
X009949Y001744D01*
X009686Y001481D01*
G37*
G36*
X011487Y001598D02*
X011348Y001459D01*
X011085Y001722D01*
X011224Y001861D01*
X011487Y001598D01*
G37*
G36*
X011812Y001923D02*
X011673Y001784D01*
X011410Y002047D01*
X011549Y002186D01*
X011812Y001923D01*
G37*
X013171Y001525D03*
X013631Y001525D03*
X014448Y001529D03*
X014908Y001529D03*
X016813Y001525D03*
X017273Y001525D03*
D27*
X015467Y006803D03*
D28*
X010679Y004015D02*
X010671Y004011D01*
X010663Y004009D01*
X010655Y004011D01*
X010647Y004015D01*
X010643Y004023D01*
X010641Y004031D01*
X010643Y004039D01*
X010647Y004047D01*
X010420Y004047D02*
X010424Y004039D01*
X010426Y004031D01*
X010424Y004023D01*
X010420Y004015D01*
X010412Y004011D01*
X010404Y004009D01*
X010396Y004011D01*
X010388Y004015D01*
X010281Y003908D02*
X010285Y003900D01*
X010287Y003892D01*
X010285Y003884D01*
X010281Y003876D01*
X010273Y003872D01*
X010265Y003870D01*
X010257Y003872D01*
X010249Y003876D01*
X010142Y003769D02*
X010146Y003761D01*
X010148Y003753D01*
X010146Y003745D01*
X010142Y003737D01*
X010134Y003733D01*
X010126Y003731D01*
X010118Y003733D01*
X010110Y003737D01*
X010003Y003630D02*
X010007Y003622D01*
X010009Y003614D01*
X010007Y003606D01*
X010003Y003598D01*
X009995Y003594D01*
X009987Y003592D01*
X009979Y003594D01*
X009971Y003598D01*
X009863Y003490D02*
X009867Y003482D01*
X009869Y003474D01*
X009867Y003466D01*
X009863Y003458D01*
X009855Y003454D01*
X009847Y003452D01*
X009839Y003454D01*
X009831Y003458D01*
X009724Y003351D02*
X009728Y003343D01*
X009730Y003335D01*
X009728Y003327D01*
X009724Y003319D01*
X009716Y003315D01*
X009708Y003313D01*
X009700Y003315D01*
X009692Y003319D01*
X009585Y003212D02*
X009589Y003204D01*
X009591Y003196D01*
X009589Y003188D01*
X009585Y003180D01*
X009577Y003176D01*
X009569Y003174D01*
X009561Y003176D01*
X009553Y003180D01*
X009553Y002953D02*
X009561Y002957D01*
X009569Y002959D01*
X009577Y002957D01*
X009585Y002953D01*
X009589Y002945D01*
X009591Y002937D01*
X009589Y002929D01*
X009585Y002921D01*
X009692Y002814D02*
X009700Y002818D01*
X009708Y002820D01*
X009716Y002818D01*
X009724Y002814D01*
X009728Y002806D01*
X009730Y002798D01*
X009728Y002790D01*
X009724Y002782D01*
X009831Y002675D02*
X009839Y002679D01*
X009847Y002681D01*
X009855Y002679D01*
X009863Y002675D01*
X009867Y002667D01*
X009869Y002659D01*
X009867Y002651D01*
X009863Y002643D01*
X009971Y002536D02*
X009979Y002540D01*
X009987Y002542D01*
X009995Y002540D01*
X010003Y002536D01*
X010007Y002528D01*
X010009Y002520D01*
X010007Y002512D01*
X010003Y002504D01*
X010110Y002396D02*
X010118Y002400D01*
X010126Y002402D01*
X010134Y002400D01*
X010142Y002396D01*
X010146Y002388D01*
X010148Y002380D01*
X010146Y002372D01*
X010142Y002364D01*
X010249Y002257D02*
X010257Y002261D01*
X010265Y002263D01*
X010273Y002261D01*
X010281Y002257D01*
X010285Y002249D01*
X010287Y002241D01*
X010285Y002233D01*
X010281Y002225D01*
X010388Y002118D02*
X010396Y002122D01*
X010404Y002124D01*
X010412Y002122D01*
X010420Y002118D01*
X010424Y002110D01*
X010426Y002102D01*
X010424Y002094D01*
X010420Y002086D01*
X010647Y002086D02*
X010643Y002094D01*
X010641Y002102D01*
X010643Y002110D01*
X010647Y002118D01*
X010655Y002122D01*
X010663Y002124D01*
X010671Y002122D01*
X010679Y002118D01*
X010786Y002225D02*
X010782Y002233D01*
X010780Y002241D01*
X010782Y002249D01*
X010786Y002257D01*
X010794Y002261D01*
X010802Y002263D01*
X010810Y002261D01*
X010818Y002257D01*
X010926Y002364D02*
X010922Y002372D01*
X010920Y002380D01*
X010922Y002388D01*
X010926Y002396D01*
X010934Y002400D01*
X010942Y002402D01*
X010950Y002400D01*
X010958Y002396D01*
X011065Y002504D02*
X011061Y002512D01*
X011059Y002520D01*
X011061Y002528D01*
X011065Y002536D01*
X011073Y002540D01*
X011081Y002542D01*
X011089Y002540D01*
X011097Y002536D01*
X011204Y002643D02*
X011200Y002651D01*
X011198Y002659D01*
X011200Y002667D01*
X011204Y002675D01*
X011212Y002679D01*
X011220Y002681D01*
X011228Y002679D01*
X011236Y002675D01*
X011343Y002782D02*
X011339Y002790D01*
X011337Y002798D01*
X011339Y002806D01*
X011343Y002814D01*
X011351Y002818D01*
X011359Y002820D01*
X011367Y002818D01*
X011375Y002814D01*
X011482Y002921D02*
X011478Y002929D01*
X011476Y002937D01*
X011478Y002945D01*
X011482Y002953D01*
X011490Y002957D01*
X011498Y002959D01*
X011506Y002957D01*
X011514Y002953D01*
X011514Y003180D02*
X011506Y003176D01*
X011498Y003174D01*
X011490Y003176D01*
X011482Y003180D01*
X011478Y003188D01*
X011476Y003196D01*
X011478Y003204D01*
X011482Y003212D01*
X011375Y003319D02*
X011367Y003315D01*
X011359Y003313D01*
X011351Y003315D01*
X011343Y003319D01*
X011339Y003327D01*
X011337Y003335D01*
X011339Y003343D01*
X011343Y003351D01*
X011236Y003458D02*
X011228Y003454D01*
X011220Y003452D01*
X011212Y003454D01*
X011204Y003458D01*
X011200Y003466D01*
X011198Y003474D01*
X011200Y003482D01*
X011204Y003490D01*
X011097Y003598D02*
X011089Y003594D01*
X011081Y003592D01*
X011073Y003594D01*
X011065Y003598D01*
X011061Y003606D01*
X011059Y003614D01*
X011061Y003622D01*
X011065Y003630D01*
X010958Y003737D02*
X010950Y003733D01*
X010942Y003731D01*
X010934Y003733D01*
X010926Y003737D01*
X010922Y003745D01*
X010920Y003753D01*
X010922Y003761D01*
X010926Y003769D01*
X010818Y003876D02*
X010810Y003872D01*
X010802Y003870D01*
X010794Y003872D01*
X010786Y003876D01*
X010782Y003884D01*
X010780Y003892D01*
X010782Y003900D01*
X010786Y003908D01*
D29*
X010537Y004237D03*
D30*
G36*
X010637Y004069D02*
X010779Y004211D01*
X010843Y004147D01*
X010701Y004005D01*
X010637Y004069D01*
G37*
G36*
X010777Y003930D02*
X010919Y004072D01*
X010983Y004008D01*
X010841Y003866D01*
X010777Y003930D01*
G37*
G36*
X010916Y003791D02*
X011058Y003933D01*
X011122Y003869D01*
X010980Y003727D01*
X010916Y003791D01*
G37*
G36*
X011055Y003652D02*
X011197Y003794D01*
X011261Y003730D01*
X011119Y003588D01*
X011055Y003652D01*
G37*
G36*
X011194Y003513D02*
X011336Y003655D01*
X011400Y003591D01*
X011258Y003449D01*
X011194Y003513D01*
G37*
G36*
X011333Y003373D02*
X011475Y003515D01*
X011539Y003451D01*
X011397Y003309D01*
X011333Y003373D01*
G37*
G36*
X011473Y003234D02*
X011615Y003376D01*
X011679Y003312D01*
X011537Y003170D01*
X011473Y003234D01*
G37*
G36*
X011537Y002963D02*
X011679Y002821D01*
X011615Y002757D01*
X011473Y002899D01*
X011537Y002963D01*
G37*
G36*
X011397Y002824D02*
X011539Y002682D01*
X011475Y002618D01*
X011333Y002760D01*
X011397Y002824D01*
G37*
G36*
X011258Y002684D02*
X011400Y002542D01*
X011336Y002478D01*
X011194Y002620D01*
X011258Y002684D01*
G37*
G36*
X011119Y002545D02*
X011261Y002403D01*
X011197Y002339D01*
X011055Y002481D01*
X011119Y002545D01*
G37*
G36*
X010980Y002406D02*
X011122Y002264D01*
X011058Y002200D01*
X010916Y002342D01*
X010980Y002406D01*
G37*
G36*
X010841Y002267D02*
X010983Y002125D01*
X010919Y002061D01*
X010777Y002203D01*
X010841Y002267D01*
G37*
G36*
X010701Y002128D02*
X010843Y001986D01*
X010779Y001922D01*
X010637Y002064D01*
X010701Y002128D01*
G37*
G36*
X010430Y002064D02*
X010288Y001922D01*
X010224Y001986D01*
X010366Y002128D01*
X010430Y002064D01*
G37*
G36*
X010291Y002203D02*
X010149Y002061D01*
X010085Y002125D01*
X010227Y002267D01*
X010291Y002203D01*
G37*
G36*
X010152Y002342D02*
X010010Y002200D01*
X009946Y002264D01*
X010088Y002406D01*
X010152Y002342D01*
G37*
G36*
X010012Y002481D02*
X009870Y002339D01*
X009806Y002403D01*
X009948Y002545D01*
X010012Y002481D01*
G37*
G36*
X009873Y002620D02*
X009731Y002478D01*
X009667Y002542D01*
X009809Y002684D01*
X009873Y002620D01*
G37*
G36*
X009734Y002760D02*
X009592Y002618D01*
X009528Y002682D01*
X009670Y002824D01*
X009734Y002760D01*
G37*
G36*
X009595Y002899D02*
X009453Y002757D01*
X009389Y002821D01*
X009531Y002963D01*
X009595Y002899D01*
G37*
G36*
X009531Y003170D02*
X009389Y003312D01*
X009453Y003376D01*
X009595Y003234D01*
X009531Y003170D01*
G37*
G36*
X009670Y003309D02*
X009528Y003451D01*
X009592Y003515D01*
X009734Y003373D01*
X009670Y003309D01*
G37*
G36*
X009809Y003449D02*
X009667Y003591D01*
X009731Y003655D01*
X009873Y003513D01*
X009809Y003449D01*
G37*
G36*
X009948Y003588D02*
X009806Y003730D01*
X009870Y003794D01*
X010012Y003652D01*
X009948Y003588D01*
G37*
G36*
X010088Y003727D02*
X009946Y003869D01*
X010010Y003933D01*
X010152Y003791D01*
X010088Y003727D01*
G37*
G36*
X010227Y003866D02*
X010085Y004008D01*
X010149Y004072D01*
X010291Y003930D01*
X010227Y003866D01*
G37*
G36*
X010366Y004005D02*
X010224Y004147D01*
X010288Y004211D01*
X010430Y004069D01*
X010366Y004005D01*
G37*
D31*
X010880Y004657D02*
X010880Y005799D01*
X011392Y005799D01*
X011392Y004657D01*
X010880Y004657D01*
D32*
X010757Y004850D03*
X011515Y004850D03*
X011515Y005606D03*
X010757Y005606D03*
D33*
X011008Y005513D03*
D34*
X011006Y005893D02*
X010936Y005893D01*
X010901Y005928D01*
X010901Y006103D01*
X011041Y006103D02*
X011041Y005928D01*
X011006Y005893D01*
X011122Y005928D02*
X011157Y005893D01*
X011227Y005893D01*
X011262Y005928D01*
X011262Y005963D01*
X011227Y005998D01*
X011192Y005998D01*
X011227Y005998D02*
X011262Y006033D01*
X011262Y006068D01*
X011227Y006103D01*
X011157Y006103D01*
X011122Y006068D01*
M02*
