G75*
%MOIN*%
%OFA0B0*%
%FSLAX24Y24*%
%IPPOS*%
%LPD*%
%AMOC8*
5,1,8,0,0,1.08239X$1,22.5*
%
%ADD10C,0.0000*%
D10*
X006018Y000504D02*
X006018Y007984D01*
X010152Y007984D01*
X011333Y007196D01*
X019994Y007196D01*
X021175Y007984D01*
X023734Y007984D01*
X023734Y000504D01*
X006018Y000504D01*
X006609Y001941D02*
X006611Y001966D01*
X006617Y001990D01*
X006626Y002012D01*
X006639Y002033D01*
X006655Y002052D01*
X006674Y002068D01*
X006695Y002081D01*
X006717Y002090D01*
X006741Y002096D01*
X006766Y002098D01*
X006791Y002096D01*
X006815Y002090D01*
X006837Y002081D01*
X006858Y002068D01*
X006877Y002052D01*
X006893Y002033D01*
X006906Y002012D01*
X006915Y001990D01*
X006921Y001966D01*
X006923Y001941D01*
X006921Y001916D01*
X006915Y001892D01*
X006906Y001870D01*
X006893Y001849D01*
X006877Y001830D01*
X006858Y001814D01*
X006837Y001801D01*
X006815Y001792D01*
X006791Y001786D01*
X006766Y001784D01*
X006741Y001786D01*
X006717Y001792D01*
X006695Y001801D01*
X006674Y001814D01*
X006655Y001830D01*
X006639Y001849D01*
X006626Y001870D01*
X006617Y001892D01*
X006611Y001916D01*
X006609Y001941D01*
X006766Y001941D02*
X006768Y001966D01*
X006774Y001990D01*
X006783Y002012D01*
X006796Y002033D01*
X006812Y002052D01*
X006831Y002068D01*
X006852Y002081D01*
X006874Y002090D01*
X006898Y002096D01*
X006923Y002098D01*
X006948Y002096D01*
X006972Y002090D01*
X006994Y002081D01*
X007015Y002068D01*
X007034Y002052D01*
X007050Y002033D01*
X007063Y002012D01*
X007072Y001990D01*
X007078Y001966D01*
X007080Y001941D01*
X007078Y001916D01*
X007072Y001892D01*
X007063Y001870D01*
X007050Y001849D01*
X007034Y001830D01*
X007015Y001814D01*
X006994Y001801D01*
X006972Y001792D01*
X006948Y001786D01*
X006923Y001784D01*
X006898Y001786D01*
X006874Y001792D01*
X006852Y001801D01*
X006831Y001814D01*
X006812Y001830D01*
X006796Y001849D01*
X006783Y001870D01*
X006774Y001892D01*
X006768Y001916D01*
X006766Y001941D01*
X007081Y001941D02*
X007083Y001966D01*
X007089Y001990D01*
X007098Y002012D01*
X007111Y002033D01*
X007127Y002052D01*
X007146Y002068D01*
X007167Y002081D01*
X007189Y002090D01*
X007213Y002096D01*
X007238Y002098D01*
X007263Y002096D01*
X007287Y002090D01*
X007309Y002081D01*
X007330Y002068D01*
X007349Y002052D01*
X007365Y002033D01*
X007378Y002012D01*
X007387Y001990D01*
X007393Y001966D01*
X007395Y001941D01*
X007393Y001916D01*
X007387Y001892D01*
X007378Y001870D01*
X007365Y001849D01*
X007349Y001830D01*
X007330Y001814D01*
X007309Y001801D01*
X007287Y001792D01*
X007263Y001786D01*
X007238Y001784D01*
X007213Y001786D01*
X007189Y001792D01*
X007167Y001801D01*
X007146Y001814D01*
X007127Y001830D01*
X007111Y001849D01*
X007098Y001870D01*
X007089Y001892D01*
X007083Y001916D01*
X007081Y001941D01*
X007239Y001941D02*
X007241Y001966D01*
X007247Y001990D01*
X007256Y002012D01*
X007269Y002033D01*
X007285Y002052D01*
X007304Y002068D01*
X007325Y002081D01*
X007347Y002090D01*
X007371Y002096D01*
X007396Y002098D01*
X007421Y002096D01*
X007445Y002090D01*
X007467Y002081D01*
X007488Y002068D01*
X007507Y002052D01*
X007523Y002033D01*
X007536Y002012D01*
X007545Y001990D01*
X007551Y001966D01*
X007553Y001941D01*
X007551Y001916D01*
X007545Y001892D01*
X007536Y001870D01*
X007523Y001849D01*
X007507Y001830D01*
X007488Y001814D01*
X007467Y001801D01*
X007445Y001792D01*
X007421Y001786D01*
X007396Y001784D01*
X007371Y001786D01*
X007347Y001792D01*
X007325Y001801D01*
X007304Y001814D01*
X007285Y001830D01*
X007269Y001849D01*
X007256Y001870D01*
X007247Y001892D01*
X007241Y001916D01*
X007239Y001941D01*
X006892Y003358D02*
X006894Y003387D01*
X006900Y003415D01*
X006909Y003443D01*
X006922Y003469D01*
X006939Y003492D01*
X006958Y003514D01*
X006980Y003533D01*
X007005Y003548D01*
X007031Y003561D01*
X007059Y003569D01*
X007087Y003574D01*
X007116Y003575D01*
X007145Y003572D01*
X007173Y003565D01*
X007200Y003555D01*
X007226Y003541D01*
X007249Y003524D01*
X007270Y003504D01*
X007288Y003481D01*
X007303Y003456D01*
X007314Y003429D01*
X007322Y003401D01*
X007326Y003372D01*
X007326Y003344D01*
X007322Y003315D01*
X007314Y003287D01*
X007303Y003260D01*
X007288Y003235D01*
X007270Y003212D01*
X007249Y003192D01*
X007226Y003175D01*
X007200Y003161D01*
X007173Y003151D01*
X007145Y003144D01*
X007116Y003141D01*
X007087Y003142D01*
X007059Y003147D01*
X007031Y003155D01*
X007005Y003168D01*
X006980Y003183D01*
X006958Y003202D01*
X006939Y003224D01*
X006922Y003247D01*
X006909Y003273D01*
X006900Y003301D01*
X006894Y003329D01*
X006892Y003358D01*
X006892Y005130D02*
X006894Y005159D01*
X006900Y005187D01*
X006909Y005215D01*
X006922Y005241D01*
X006939Y005264D01*
X006958Y005286D01*
X006980Y005305D01*
X007005Y005320D01*
X007031Y005333D01*
X007059Y005341D01*
X007087Y005346D01*
X007116Y005347D01*
X007145Y005344D01*
X007173Y005337D01*
X007200Y005327D01*
X007226Y005313D01*
X007249Y005296D01*
X007270Y005276D01*
X007288Y005253D01*
X007303Y005228D01*
X007314Y005201D01*
X007322Y005173D01*
X007326Y005144D01*
X007326Y005116D01*
X007322Y005087D01*
X007314Y005059D01*
X007303Y005032D01*
X007288Y005007D01*
X007270Y004984D01*
X007249Y004964D01*
X007226Y004947D01*
X007200Y004933D01*
X007173Y004923D01*
X007145Y004916D01*
X007116Y004913D01*
X007087Y004914D01*
X007059Y004919D01*
X007031Y004927D01*
X007005Y004940D01*
X006980Y004955D01*
X006958Y004974D01*
X006939Y004996D01*
X006922Y005019D01*
X006909Y005045D01*
X006900Y005073D01*
X006894Y005101D01*
X006892Y005130D01*
X006766Y006547D02*
X006768Y006572D01*
X006774Y006596D01*
X006783Y006618D01*
X006796Y006639D01*
X006812Y006658D01*
X006831Y006674D01*
X006852Y006687D01*
X006874Y006696D01*
X006898Y006702D01*
X006923Y006704D01*
X006948Y006702D01*
X006972Y006696D01*
X006994Y006687D01*
X007015Y006674D01*
X007034Y006658D01*
X007050Y006639D01*
X007063Y006618D01*
X007072Y006596D01*
X007078Y006572D01*
X007080Y006547D01*
X007078Y006522D01*
X007072Y006498D01*
X007063Y006476D01*
X007050Y006455D01*
X007034Y006436D01*
X007015Y006420D01*
X006994Y006407D01*
X006972Y006398D01*
X006948Y006392D01*
X006923Y006390D01*
X006898Y006392D01*
X006874Y006398D01*
X006852Y006407D01*
X006831Y006420D01*
X006812Y006436D01*
X006796Y006455D01*
X006783Y006476D01*
X006774Y006498D01*
X006768Y006522D01*
X006766Y006547D01*
X006609Y006547D02*
X006611Y006572D01*
X006617Y006596D01*
X006626Y006618D01*
X006639Y006639D01*
X006655Y006658D01*
X006674Y006674D01*
X006695Y006687D01*
X006717Y006696D01*
X006741Y006702D01*
X006766Y006704D01*
X006791Y006702D01*
X006815Y006696D01*
X006837Y006687D01*
X006858Y006674D01*
X006877Y006658D01*
X006893Y006639D01*
X006906Y006618D01*
X006915Y006596D01*
X006921Y006572D01*
X006923Y006547D01*
X006921Y006522D01*
X006915Y006498D01*
X006906Y006476D01*
X006893Y006455D01*
X006877Y006436D01*
X006858Y006420D01*
X006837Y006407D01*
X006815Y006398D01*
X006791Y006392D01*
X006766Y006390D01*
X006741Y006392D01*
X006717Y006398D01*
X006695Y006407D01*
X006674Y006420D01*
X006655Y006436D01*
X006639Y006455D01*
X006626Y006476D01*
X006617Y006498D01*
X006611Y006522D01*
X006609Y006547D01*
X007081Y006547D02*
X007083Y006572D01*
X007089Y006596D01*
X007098Y006618D01*
X007111Y006639D01*
X007127Y006658D01*
X007146Y006674D01*
X007167Y006687D01*
X007189Y006696D01*
X007213Y006702D01*
X007238Y006704D01*
X007263Y006702D01*
X007287Y006696D01*
X007309Y006687D01*
X007330Y006674D01*
X007349Y006658D01*
X007365Y006639D01*
X007378Y006618D01*
X007387Y006596D01*
X007393Y006572D01*
X007395Y006547D01*
X007393Y006522D01*
X007387Y006498D01*
X007378Y006476D01*
X007365Y006455D01*
X007349Y006436D01*
X007330Y006420D01*
X007309Y006407D01*
X007287Y006398D01*
X007263Y006392D01*
X007238Y006390D01*
X007213Y006392D01*
X007189Y006398D01*
X007167Y006407D01*
X007146Y006420D01*
X007127Y006436D01*
X007111Y006455D01*
X007098Y006476D01*
X007089Y006498D01*
X007083Y006522D01*
X007081Y006547D01*
X007239Y006547D02*
X007241Y006572D01*
X007247Y006596D01*
X007256Y006618D01*
X007269Y006639D01*
X007285Y006658D01*
X007304Y006674D01*
X007325Y006687D01*
X007347Y006696D01*
X007371Y006702D01*
X007396Y006704D01*
X007421Y006702D01*
X007445Y006696D01*
X007467Y006687D01*
X007488Y006674D01*
X007507Y006658D01*
X007523Y006639D01*
X007536Y006618D01*
X007545Y006596D01*
X007551Y006572D01*
X007553Y006547D01*
X007551Y006522D01*
X007545Y006498D01*
X007536Y006476D01*
X007523Y006455D01*
X007507Y006436D01*
X007488Y006420D01*
X007467Y006407D01*
X007445Y006398D01*
X007421Y006392D01*
X007396Y006390D01*
X007371Y006392D01*
X007347Y006398D01*
X007325Y006407D01*
X007304Y006420D01*
X007285Y006436D01*
X007269Y006455D01*
X007256Y006476D01*
X007247Y006498D01*
X007241Y006522D01*
X007239Y006547D01*
M02*
