%
M48
M72
T01C0.0130
T02C0.0315
T03C0.0433
%
T01
X9049Y2866
X9699Y4185
X9049Y4244
X9955Y4441
X10309Y4441
X11313Y4342
X11648Y4342
X11983Y4342
X12317Y4342
X13715Y4106
X13715Y3752
X14069Y3752
X14423Y3082
X13360Y2492
X12297Y2492
X12612Y1468
X11746Y1468
X9404Y1409
X15860Y1783
X16254Y1783
X18754Y1822
X18754Y2216
X20546Y2452
X20880Y2849
X21294Y2059
X21786Y2039
X22160Y2039
X22790Y2039
X23301Y2039
X22947Y4401
X21077Y4401
X22671Y5602
X23183Y6881
X20034Y6901
X19640Y6901
X19246Y6901
X18853Y6901
X17376Y6901
X17376Y6567
X17376Y6232
X17376Y5897
X17002Y5602
X16609Y5602
X16215Y5602
X15821Y5602
X15427Y5602
X15034Y5602
X14640Y5602
X14246Y5602
X13951Y5897
X13951Y6232
X13951Y6567
X13951Y6901
X12494Y6901
X12101Y6901
X11707Y6901
X11313Y6901
X12534Y5878
X13715Y5248
X13715Y4815
X11136Y5602
X9286Y5464
T02
X6766Y1941
X6923Y1941
X7081Y1941
X7238Y1941
X7396Y1941
X7396Y6547
X7238Y6547
X7081Y6547
X6923Y6547
X6766Y6547
T03
X7109Y5130
X7109Y3358
M30
