G75*
%MOIN*%
%OFA0B0*%
%FSLAX24Y24*%
%IPPOS*%
%LPD*%
%AMOC8*
5,1,8,0,0,1.08239X$1,22.5*
%
%ADD10R,0.0500X0.0250*%
%ADD11OC8,0.0700*%
%ADD12C,0.0060*%
%ADD13C,0.0270*%
%ADD14C,0.0160*%
%ADD15C,0.0100*%
D10*
X005700Y000818D03*
X005700Y001142D03*
X005700Y002518D03*
X005700Y002842D03*
D11*
X004300Y002880D03*
X001300Y002880D03*
X001300Y001880D03*
X001300Y000880D03*
X004300Y000880D03*
X004300Y001880D03*
X001300Y003880D03*
X001300Y004880D03*
X001300Y005880D03*
D12*
X001940Y005880D01*
X002720Y005100D01*
X003440Y004860D02*
X001340Y004860D01*
X001300Y004880D01*
X003320Y005580D02*
X003440Y005460D01*
X003740Y005460D01*
X004100Y005100D01*
X009740Y005100D01*
X009200Y005460D02*
X004160Y005460D01*
X003560Y005220D02*
X004280Y004500D01*
X011960Y004500D01*
X012560Y005100D01*
X011180Y004860D02*
X004460Y004860D01*
X003920Y004380D02*
X003440Y004860D01*
X001340Y003840D02*
X001300Y003880D01*
X001340Y003840D02*
X002660Y003840D01*
X003200Y003300D01*
X003620Y003360D02*
X004640Y003360D01*
X005480Y002520D01*
X005660Y002520D01*
X005700Y002518D01*
X005700Y002580D02*
X005700Y002780D01*
X005720Y002820D02*
X005700Y002842D01*
X005720Y002820D02*
X005780Y002760D01*
X011180Y002760D01*
X008120Y002280D02*
X004940Y002280D01*
X004340Y002880D01*
X004300Y002880D01*
X003620Y002460D02*
X003620Y003360D01*
X003080Y002640D02*
X001340Y000900D01*
X001300Y000880D01*
X004300Y000880D02*
X004580Y000600D01*
X007580Y000600D01*
X008180Y001200D01*
X007940Y001860D02*
X004340Y001860D01*
X004300Y001880D01*
X005700Y001080D02*
X005700Y000880D01*
D13*
X004760Y001560D03*
X002780Y001200D03*
X003620Y002460D03*
X003080Y002640D03*
X003200Y003300D03*
X004700Y004080D03*
X003920Y004380D03*
X002780Y004140D03*
X004460Y004860D03*
X003560Y005220D03*
X004160Y005460D03*
X003320Y005580D03*
X002720Y005100D03*
X006020Y003840D03*
X007580Y003000D03*
X008120Y002280D03*
X007940Y001860D03*
X008180Y001200D03*
X011180Y002760D03*
X014700Y002580D03*
X015100Y002580D03*
X015100Y002180D03*
X014700Y002180D03*
X014700Y001780D03*
X015100Y001780D03*
X015100Y001380D03*
X014700Y001380D03*
X014700Y002980D03*
X015100Y002980D03*
X015100Y003380D03*
X014700Y003380D03*
X014700Y003780D03*
X015100Y003780D03*
X015100Y004180D03*
X014700Y004180D03*
X014700Y004580D03*
X015100Y004580D03*
X015100Y004980D03*
X014700Y004980D03*
X014700Y005380D03*
X015100Y005380D03*
X013760Y005400D03*
X012560Y005100D03*
X011180Y004860D03*
X009740Y005100D03*
X009200Y005460D03*
D14*
X001790Y000677D02*
X001523Y000410D01*
X004077Y000410D01*
X003810Y000677D01*
X003810Y001083D01*
X003917Y001190D01*
X003055Y001190D01*
X003055Y001145D01*
X003013Y001044D01*
X002936Y000967D01*
X002835Y000925D01*
X002725Y000925D01*
X002624Y000967D01*
X002547Y001044D01*
X002505Y001145D01*
X002505Y001255D01*
X002547Y001356D01*
X002624Y001433D01*
X002725Y001475D01*
X002786Y001475D01*
X002881Y001570D01*
X003917Y001570D01*
X003810Y001677D01*
X003810Y002083D01*
X004097Y002370D01*
X004503Y002370D01*
X004790Y002083D01*
X004790Y002030D01*
X007721Y002030D01*
X007784Y002093D01*
X007825Y002110D01*
X004870Y002110D01*
X004546Y002433D01*
X004503Y002390D01*
X004097Y002390D01*
X003810Y002677D01*
X003810Y003083D01*
X003917Y003190D01*
X003790Y003190D01*
X003790Y002679D01*
X003853Y002616D01*
X003895Y002515D01*
X003895Y002405D01*
X003853Y002304D01*
X003776Y002227D01*
X003675Y002185D01*
X003565Y002185D01*
X003464Y002227D01*
X003387Y002304D01*
X003345Y002405D01*
X003345Y002515D01*
X003387Y002616D01*
X003450Y002679D01*
X003450Y003185D01*
X003433Y003144D01*
X003356Y003067D01*
X003255Y003025D01*
X003145Y003025D01*
X003044Y003067D01*
X002967Y003144D01*
X002925Y003245D01*
X002925Y003335D01*
X002590Y003670D01*
X001783Y003670D01*
X001521Y003408D01*
X001830Y003100D01*
X001830Y002900D01*
X001320Y002900D01*
X001320Y002860D01*
X001830Y002860D01*
X001830Y002660D01*
X001521Y002352D01*
X001790Y002083D01*
X001790Y001677D01*
X001503Y001390D01*
X001097Y001390D01*
X001030Y001457D01*
X001030Y001303D01*
X001097Y001370D01*
X001503Y001370D01*
X001536Y001337D01*
X002805Y002605D01*
X002805Y002695D01*
X002847Y002796D01*
X002924Y002873D01*
X003025Y002915D01*
X003135Y002915D01*
X003236Y002873D01*
X003313Y002796D01*
X003355Y002695D01*
X003355Y002585D01*
X003313Y002484D01*
X003236Y002407D01*
X003135Y002365D01*
X003045Y002365D01*
X001777Y001096D01*
X001790Y001083D01*
X001790Y000677D01*
X001768Y000656D02*
X003832Y000656D01*
X003990Y000497D02*
X001610Y000497D01*
X001790Y000814D02*
X003810Y000814D01*
X003810Y000973D02*
X002941Y000973D01*
X002619Y000973D02*
X001790Y000973D01*
X001811Y001131D02*
X002511Y001131D01*
X002519Y001290D02*
X001970Y001290D01*
X002128Y001448D02*
X002660Y001448D01*
X002287Y001607D02*
X003881Y001607D01*
X003810Y001765D02*
X002445Y001765D01*
X002604Y001924D02*
X003810Y001924D01*
X003810Y002082D02*
X002762Y002082D01*
X002282Y002082D02*
X001790Y002082D01*
X001790Y001924D02*
X002123Y001924D01*
X001965Y001765D02*
X001790Y001765D01*
X001806Y001607D02*
X001719Y001607D01*
X001648Y001448D02*
X001561Y001448D01*
X001039Y001448D02*
X001030Y001448D01*
X003049Y001131D02*
X003858Y001131D01*
X005522Y001607D02*
X007833Y001607D01*
X007784Y001627D02*
X007885Y001585D01*
X007995Y001585D01*
X008096Y001627D01*
X008173Y001704D01*
X008215Y001805D01*
X008215Y001915D01*
X008177Y002006D01*
X008276Y002047D01*
X008353Y002124D01*
X008395Y002225D01*
X008395Y002335D01*
X008353Y002436D01*
X008276Y002513D01*
X008175Y002555D01*
X008065Y002555D01*
X007964Y002513D01*
X007901Y002450D01*
X006090Y002450D01*
X006090Y002590D01*
X010961Y002590D01*
X011024Y002527D01*
X011125Y002485D01*
X011235Y002485D01*
X011336Y002527D01*
X011413Y002604D01*
X011455Y002705D01*
X011455Y002815D01*
X011413Y002916D01*
X011336Y002993D01*
X011235Y003035D01*
X011125Y003035D01*
X011024Y002993D01*
X010961Y002930D01*
X007849Y002930D01*
X007855Y002945D01*
X007855Y003055D01*
X007852Y003063D01*
X008919Y004130D01*
X012759Y004130D01*
X013754Y005125D01*
X013815Y005125D01*
X013916Y005167D01*
X013993Y005244D01*
X014035Y005345D01*
X014035Y005455D01*
X013993Y005556D01*
X013916Y005633D01*
X013815Y005675D01*
X013705Y005675D01*
X013604Y005633D01*
X013527Y005556D01*
X013485Y005455D01*
X013485Y005394D01*
X012601Y004510D01*
X012210Y004510D01*
X012525Y004825D01*
X012615Y004825D01*
X012716Y004867D01*
X012793Y004944D01*
X012835Y005045D01*
X012835Y005155D01*
X012793Y005256D01*
X012716Y005333D01*
X012615Y005375D01*
X012505Y005375D01*
X012404Y005333D01*
X012327Y005256D01*
X012285Y005155D01*
X012285Y005065D01*
X011890Y004670D01*
X011379Y004670D01*
X011413Y004704D01*
X011455Y004805D01*
X011455Y004915D01*
X011413Y005016D01*
X011336Y005093D01*
X011235Y005135D01*
X011125Y005135D01*
X011024Y005093D01*
X010961Y005030D01*
X010009Y005030D01*
X010015Y005045D01*
X010015Y005155D01*
X009973Y005256D01*
X009896Y005333D01*
X009795Y005375D01*
X009685Y005375D01*
X009584Y005333D01*
X009521Y005270D01*
X009399Y005270D01*
X009433Y005304D01*
X009475Y005405D01*
X009475Y005515D01*
X009433Y005616D01*
X009356Y005693D01*
X009255Y005735D01*
X009145Y005735D01*
X009044Y005693D01*
X008981Y005630D01*
X004379Y005630D01*
X004316Y005693D01*
X004215Y005735D01*
X004105Y005735D01*
X004004Y005693D01*
X003927Y005616D01*
X003897Y005543D01*
X003810Y005630D01*
X003595Y005630D01*
X003595Y005635D01*
X003553Y005736D01*
X003476Y005813D01*
X003375Y005855D01*
X003265Y005855D01*
X003164Y005813D01*
X003087Y005736D01*
X003045Y005635D01*
X003045Y005525D01*
X003087Y005424D01*
X003164Y005347D01*
X003265Y005305D01*
X003298Y005305D01*
X003285Y005275D01*
X003285Y005165D01*
X003327Y005064D01*
X003361Y005030D01*
X002989Y005030D01*
X002995Y005045D01*
X002995Y005155D01*
X002953Y005256D01*
X002876Y005333D01*
X002775Y005375D01*
X002685Y005375D01*
X002110Y005950D01*
X002010Y006050D01*
X001790Y006050D01*
X001790Y006083D01*
X001523Y006350D01*
X020570Y006350D01*
X020570Y000410D01*
X004523Y000410D01*
X004543Y000430D01*
X007650Y000430D01*
X007750Y000530D01*
X008145Y000925D01*
X008235Y000925D01*
X008336Y000967D01*
X008413Y001044D01*
X008455Y001145D01*
X008455Y001255D01*
X008413Y001356D01*
X008336Y001433D01*
X008235Y001475D01*
X008125Y001475D01*
X008024Y001433D01*
X007947Y001356D01*
X007905Y001255D01*
X007905Y001165D01*
X007510Y000770D01*
X006090Y000770D01*
X006090Y001325D01*
X006008Y001407D01*
X005722Y001407D01*
X005490Y001639D01*
X005439Y001690D01*
X007721Y001690D01*
X007784Y001627D01*
X008047Y001607D02*
X020570Y001607D01*
X020570Y001448D02*
X008300Y001448D01*
X008060Y001448D02*
X005681Y001448D01*
X006090Y001290D02*
X007919Y001290D01*
X008441Y001290D02*
X020570Y001290D01*
X020570Y001131D02*
X008449Y001131D01*
X008341Y000973D02*
X020570Y000973D01*
X020570Y000814D02*
X008034Y000814D01*
X007712Y000973D02*
X006090Y000973D01*
X006090Y001131D02*
X007871Y001131D01*
X007554Y000814D02*
X006090Y000814D01*
X007717Y000497D02*
X020570Y000497D01*
X020570Y000656D02*
X007876Y000656D01*
X008198Y001765D02*
X020570Y001765D01*
X020570Y001924D02*
X008211Y001924D01*
X008311Y002082D02*
X020570Y002082D01*
X020570Y002241D02*
X008395Y002241D01*
X008368Y002399D02*
X020570Y002399D01*
X020570Y002558D02*
X011366Y002558D01*
X010994Y002558D02*
X006090Y002558D01*
X004739Y002241D02*
X004632Y002241D01*
X004581Y002399D02*
X004512Y002399D01*
X004088Y002399D02*
X003892Y002399D01*
X003877Y002558D02*
X003930Y002558D01*
X003810Y002716D02*
X003790Y002716D01*
X003450Y002716D02*
X003346Y002716D01*
X003450Y002875D02*
X003232Y002875D01*
X003274Y003033D02*
X003450Y003033D01*
X003790Y003033D02*
X003810Y003033D01*
X003810Y002875D02*
X003790Y002875D01*
X003126Y003033D02*
X001830Y003033D01*
X001320Y002875D02*
X002928Y002875D01*
X002814Y002716D02*
X001830Y002716D01*
X001727Y002558D02*
X002757Y002558D01*
X002599Y002399D02*
X001569Y002399D01*
X001632Y002241D02*
X002440Y002241D01*
X002921Y002241D02*
X003451Y002241D01*
X003789Y002241D02*
X003968Y002241D01*
X003348Y002399D02*
X003217Y002399D01*
X003343Y002558D02*
X003363Y002558D01*
X004790Y002082D02*
X007773Y002082D01*
X007855Y003033D02*
X011120Y003033D01*
X011240Y003033D02*
X020570Y003033D01*
X020570Y002875D02*
X011430Y002875D01*
X011455Y002716D02*
X020570Y002716D01*
X020570Y003192D02*
X007980Y003192D01*
X008139Y003350D02*
X020570Y003350D01*
X020570Y003509D02*
X008297Y003509D01*
X008456Y003667D02*
X020570Y003667D01*
X020570Y003826D02*
X008614Y003826D01*
X008773Y003984D02*
X020570Y003984D01*
X020570Y004143D02*
X012771Y004143D01*
X012930Y004301D02*
X020570Y004301D01*
X020570Y004460D02*
X013088Y004460D01*
X013247Y004618D02*
X020570Y004618D01*
X020570Y004777D02*
X013405Y004777D01*
X012868Y004777D02*
X012477Y004777D01*
X012318Y004618D02*
X012709Y004618D01*
X011996Y004777D02*
X011443Y004777D01*
X011447Y004935D02*
X012155Y004935D01*
X012285Y005094D02*
X011335Y005094D01*
X011025Y005094D02*
X010015Y005094D01*
X009975Y005252D02*
X012325Y005252D01*
X012795Y005252D02*
X013343Y005252D01*
X013185Y005094D02*
X012835Y005094D01*
X012784Y004935D02*
X013026Y004935D01*
X013564Y004935D02*
X020570Y004935D01*
X020570Y005094D02*
X013722Y005094D01*
X013996Y005252D02*
X020570Y005252D01*
X020570Y005411D02*
X014035Y005411D01*
X013980Y005569D02*
X020570Y005569D01*
X020570Y005728D02*
X009273Y005728D01*
X009127Y005728D02*
X004233Y005728D01*
X004087Y005728D02*
X003557Y005728D01*
X003871Y005569D02*
X003907Y005569D01*
X003101Y005411D02*
X002650Y005411D01*
X002491Y005569D02*
X003045Y005569D01*
X003083Y005728D02*
X002333Y005728D01*
X002174Y005886D02*
X020570Y005886D01*
X020570Y006045D02*
X002016Y006045D01*
X001670Y006203D02*
X020570Y006203D01*
X013540Y005569D02*
X009453Y005569D01*
X009475Y005411D02*
X013485Y005411D01*
X003315Y005094D02*
X002995Y005094D01*
X002955Y005252D02*
X003285Y005252D01*
X002593Y003667D02*
X001780Y003667D01*
X001621Y003509D02*
X002751Y003509D01*
X002910Y003350D02*
X001580Y003350D01*
X001738Y003192D02*
X002947Y003192D01*
D15*
X002840Y004080D02*
X004700Y004080D01*
X006020Y003840D02*
X006740Y003840D01*
X007580Y003000D01*
X007580Y003060D01*
X008840Y004320D01*
X012680Y004320D01*
X013760Y005400D01*
X002840Y004080D02*
X002780Y004140D01*
X004760Y001560D02*
X005300Y001560D01*
X005660Y001200D01*
X005700Y001142D01*
X005660Y000840D02*
X005120Y000840D01*
X004580Y001380D01*
X002960Y001380D01*
X002780Y001200D01*
X005660Y000840D02*
X005700Y000818D01*
M02*
