%
M48
M72
T01C0.0130
T02C0.0400
%
T01
X2780Y1200
X4760Y1560
X3620Y2460
X3080Y2640
X3200Y3300
X4700Y4080
X3920Y4380
X2780Y4140
X4460Y4860
X3560Y5220
X4160Y5460
X3320Y5580
X2720Y5100
X6020Y3840
X7580Y3000
X8120Y2280
X7940Y1860
X8180Y1200
X11180Y2760
X14700Y2580
X15100Y2580
X15100Y2180
X14700Y2180
X14700Y1780
X15100Y1780
X15100Y1380
X14700Y1380
X14700Y2980
X15100Y2980
X15100Y3380
X14700Y3380
X14700Y3780
X15100Y3780
X15100Y4180
X14700Y4180
X14700Y4580
X15100Y4580
X15100Y4980
X14700Y4980
X14700Y5380
X15100Y5380
X13760Y5400
X12560Y5100
X11180Y4860
X9740Y5100
X9200Y5460
T02
X1300Y880
X1300Y1880
X4300Y1880
X4300Y880
X4300Y2880
X1300Y2880
X1300Y3880
X1300Y4880
X1300Y5880
M30
