G75*
%MOIN*%
%OFA0B0*%
%FSLAX24Y24*%
%IPPOS*%
%LPD*%
%AMOC8*
5,1,8,0,0,1.08239X$1,22.5*
%
%ADD10R,0.0472X0.0217*%
%ADD11R,0.0472X0.0472*%
%ADD12R,0.0433X0.0394*%
%ADD13R,0.0120X0.0390*%
%ADD14C,0.0220*%
D10*
X002538Y002406D03*
X003562Y002780D03*
X002538Y003154D03*
D11*
X005700Y003093D03*
X005700Y002267D03*
X005700Y001393D03*
X005700Y000567D03*
D12*
X002575Y000780D03*
X003245Y000780D03*
X003235Y001680D03*
X002565Y001680D03*
X005165Y004280D03*
X005835Y004280D03*
X005835Y005130D03*
X005165Y005130D03*
X005165Y005980D03*
X005835Y005980D03*
D13*
X004268Y006029D03*
X004012Y006029D03*
X003756Y006029D03*
X003500Y006029D03*
X003244Y006029D03*
X002988Y006029D03*
X002732Y006029D03*
X002732Y003731D03*
X002988Y003731D03*
X003244Y003731D03*
X003500Y003731D03*
X003756Y003731D03*
X004012Y003731D03*
X004268Y003731D03*
D14*
X006873Y003943D02*
X006873Y003999D01*
X006873Y003943D02*
X006345Y003943D01*
X006345Y003999D01*
X006873Y003999D01*
X006873Y004533D02*
X006873Y004589D01*
X006873Y004533D02*
X006345Y004533D01*
X006345Y004589D01*
X006873Y004589D01*
X006873Y005124D02*
X006873Y005180D01*
X006873Y005124D02*
X006345Y005124D01*
X006345Y005180D01*
X006873Y005180D01*
X007250Y005754D02*
X007306Y005754D01*
X007250Y005754D02*
X007250Y006282D01*
X007306Y006282D01*
X007306Y005754D01*
X007306Y005973D02*
X007250Y005973D01*
X007250Y006192D02*
X007306Y006192D01*
X007841Y005754D02*
X007897Y005754D01*
X007841Y005754D02*
X007841Y006282D01*
X007897Y006282D01*
X007897Y005754D01*
X007897Y005973D02*
X007841Y005973D01*
X007841Y006192D02*
X007897Y006192D01*
X008431Y005754D02*
X008487Y005754D01*
X008431Y005754D02*
X008431Y006282D01*
X008487Y006282D01*
X008487Y005754D01*
X008487Y005973D02*
X008431Y005973D01*
X008431Y006192D02*
X008487Y006192D01*
X009022Y005754D02*
X009078Y005754D01*
X009022Y005754D02*
X009022Y006282D01*
X009078Y006282D01*
X009078Y005754D01*
X009078Y005973D02*
X009022Y005973D01*
X009022Y006192D02*
X009078Y006192D01*
X009612Y005754D02*
X009668Y005754D01*
X009612Y005754D02*
X009612Y006282D01*
X009668Y006282D01*
X009668Y005754D01*
X009668Y005973D02*
X009612Y005973D01*
X009612Y006192D02*
X009668Y006192D01*
X010203Y005754D02*
X010259Y005754D01*
X010203Y005754D02*
X010203Y006282D01*
X010259Y006282D01*
X010259Y005754D01*
X010259Y005973D02*
X010203Y005973D01*
X010203Y006192D02*
X010259Y006192D01*
X010793Y005754D02*
X010849Y005754D01*
X010793Y005754D02*
X010793Y006282D01*
X010849Y006282D01*
X010849Y005754D01*
X010849Y005973D02*
X010793Y005973D01*
X010793Y006192D02*
X010849Y006192D01*
X011384Y005754D02*
X011440Y005754D01*
X011384Y005754D02*
X011384Y006282D01*
X011440Y006282D01*
X011440Y005754D01*
X011440Y005973D02*
X011384Y005973D01*
X011384Y006192D02*
X011440Y006192D01*
X011974Y005754D02*
X012030Y005754D01*
X011974Y005754D02*
X011974Y006282D01*
X012030Y006282D01*
X012030Y005754D01*
X012030Y005973D02*
X011974Y005973D01*
X011974Y006192D02*
X012030Y006192D01*
X012565Y005754D02*
X012621Y005754D01*
X012565Y005754D02*
X012565Y006282D01*
X012621Y006282D01*
X012621Y005754D01*
X012621Y005973D02*
X012565Y005973D01*
X012565Y006192D02*
X012621Y006192D01*
X013155Y005754D02*
X013211Y005754D01*
X013155Y005754D02*
X013155Y006282D01*
X013211Y006282D01*
X013211Y005754D01*
X013211Y005973D02*
X013155Y005973D01*
X013155Y006192D02*
X013211Y006192D01*
X013746Y005754D02*
X013802Y005754D01*
X013746Y005754D02*
X013746Y006282D01*
X013802Y006282D01*
X013802Y005754D01*
X013802Y005973D02*
X013746Y005973D01*
X013746Y006192D02*
X013802Y006192D01*
X014337Y005754D02*
X014393Y005754D01*
X014337Y005754D02*
X014337Y006282D01*
X014393Y006282D01*
X014393Y005754D01*
X014393Y005973D02*
X014337Y005973D01*
X014337Y006192D02*
X014393Y006192D01*
X014927Y005754D02*
X014983Y005754D01*
X014927Y005754D02*
X014927Y006282D01*
X014983Y006282D01*
X014983Y005754D01*
X014983Y005973D02*
X014927Y005973D01*
X014927Y006192D02*
X014983Y006192D01*
X015518Y005754D02*
X015574Y005754D01*
X015518Y005754D02*
X015518Y006282D01*
X015574Y006282D01*
X015574Y005754D01*
X015574Y005973D02*
X015518Y005973D01*
X015518Y006192D02*
X015574Y006192D01*
X016108Y005754D02*
X016164Y005754D01*
X016108Y005754D02*
X016108Y006282D01*
X016164Y006282D01*
X016164Y005754D01*
X016164Y005973D02*
X016108Y005973D01*
X016108Y006192D02*
X016164Y006192D01*
X016699Y005754D02*
X016755Y005754D01*
X016699Y005754D02*
X016699Y006282D01*
X016755Y006282D01*
X016755Y005754D01*
X016755Y005973D02*
X016699Y005973D01*
X016699Y006192D02*
X016755Y006192D01*
X017289Y005754D02*
X017345Y005754D01*
X017289Y005754D02*
X017289Y006282D01*
X017345Y006282D01*
X017345Y005754D01*
X017345Y005973D02*
X017289Y005973D01*
X017289Y006192D02*
X017345Y006192D01*
X017880Y005754D02*
X017936Y005754D01*
X017880Y005754D02*
X017880Y006282D01*
X017936Y006282D01*
X017936Y005754D01*
X017936Y005973D02*
X017880Y005973D01*
X017880Y006192D02*
X017936Y006192D01*
X018470Y005754D02*
X018526Y005754D01*
X018470Y005754D02*
X018470Y006282D01*
X018526Y006282D01*
X018526Y005754D01*
X018526Y005973D02*
X018470Y005973D01*
X018470Y006192D02*
X018526Y006192D01*
X019061Y005754D02*
X019117Y005754D01*
X019061Y005754D02*
X019061Y006282D01*
X019117Y006282D01*
X019117Y005754D01*
X019117Y005973D02*
X019061Y005973D01*
X019061Y006192D02*
X019117Y006192D01*
X019652Y005754D02*
X019708Y005754D01*
X019652Y005754D02*
X019652Y006282D01*
X019708Y006282D01*
X019708Y005754D01*
X019708Y005973D02*
X019652Y005973D01*
X019652Y006192D02*
X019708Y006192D01*
X020436Y005180D02*
X020436Y005124D01*
X019908Y005124D01*
X019908Y005180D01*
X020436Y005180D01*
X020436Y004589D02*
X020436Y004533D01*
X019908Y004533D01*
X019908Y004589D01*
X020436Y004589D01*
X020436Y003999D02*
X020436Y003943D01*
X019908Y003943D01*
X019908Y003999D01*
X020436Y003999D01*
X020436Y003408D02*
X020436Y003352D01*
X019908Y003352D01*
X019908Y003408D01*
X020436Y003408D01*
X020436Y002817D02*
X020436Y002761D01*
X019908Y002761D01*
X019908Y002817D01*
X020436Y002817D01*
X020436Y002227D02*
X020436Y002171D01*
X019908Y002171D01*
X019908Y002227D01*
X020436Y002227D01*
X020436Y001636D02*
X020436Y001580D01*
X019908Y001580D01*
X019908Y001636D01*
X020436Y001636D01*
X017936Y000478D02*
X017880Y000478D01*
X017880Y001006D01*
X017936Y001006D01*
X017936Y000478D01*
X017936Y000697D02*
X017880Y000697D01*
X017880Y000916D02*
X017936Y000916D01*
X017345Y000478D02*
X017289Y000478D01*
X017289Y001006D01*
X017345Y001006D01*
X017345Y000478D01*
X017345Y000697D02*
X017289Y000697D01*
X017289Y000916D02*
X017345Y000916D01*
X016755Y000478D02*
X016699Y000478D01*
X016699Y001006D01*
X016755Y001006D01*
X016755Y000478D01*
X016755Y000697D02*
X016699Y000697D01*
X016699Y000916D02*
X016755Y000916D01*
X016164Y000478D02*
X016108Y000478D01*
X016108Y001006D01*
X016164Y001006D01*
X016164Y000478D01*
X016164Y000697D02*
X016108Y000697D01*
X016108Y000916D02*
X016164Y000916D01*
X015574Y000478D02*
X015518Y000478D01*
X015518Y001006D01*
X015574Y001006D01*
X015574Y000478D01*
X015574Y000697D02*
X015518Y000697D01*
X015518Y000916D02*
X015574Y000916D01*
X014983Y000478D02*
X014927Y000478D01*
X014927Y001006D01*
X014983Y001006D01*
X014983Y000478D01*
X014983Y000697D02*
X014927Y000697D01*
X014927Y000916D02*
X014983Y000916D01*
X014393Y000478D02*
X014337Y000478D01*
X014337Y001006D01*
X014393Y001006D01*
X014393Y000478D01*
X014393Y000697D02*
X014337Y000697D01*
X014337Y000916D02*
X014393Y000916D01*
X013802Y000478D02*
X013746Y000478D01*
X013746Y001006D01*
X013802Y001006D01*
X013802Y000478D01*
X013802Y000697D02*
X013746Y000697D01*
X013746Y000916D02*
X013802Y000916D01*
X013211Y000478D02*
X013155Y000478D01*
X013155Y001006D01*
X013211Y001006D01*
X013211Y000478D01*
X013211Y000697D02*
X013155Y000697D01*
X013155Y000916D02*
X013211Y000916D01*
X012621Y000478D02*
X012565Y000478D01*
X012565Y001006D01*
X012621Y001006D01*
X012621Y000478D01*
X012621Y000697D02*
X012565Y000697D01*
X012565Y000916D02*
X012621Y000916D01*
X012030Y000478D02*
X011974Y000478D01*
X011974Y001006D01*
X012030Y001006D01*
X012030Y000478D01*
X012030Y000697D02*
X011974Y000697D01*
X011974Y000916D02*
X012030Y000916D01*
X011440Y000478D02*
X011384Y000478D01*
X011384Y001006D01*
X011440Y001006D01*
X011440Y000478D01*
X011440Y000697D02*
X011384Y000697D01*
X011384Y000916D02*
X011440Y000916D01*
X010849Y000478D02*
X010793Y000478D01*
X010793Y001006D01*
X010849Y001006D01*
X010849Y000478D01*
X010849Y000697D02*
X010793Y000697D01*
X010793Y000916D02*
X010849Y000916D01*
X010259Y000478D02*
X010203Y000478D01*
X010203Y001006D01*
X010259Y001006D01*
X010259Y000478D01*
X010259Y000697D02*
X010203Y000697D01*
X010203Y000916D02*
X010259Y000916D01*
X009668Y000478D02*
X009612Y000478D01*
X009612Y001006D01*
X009668Y001006D01*
X009668Y000478D01*
X009668Y000697D02*
X009612Y000697D01*
X009612Y000916D02*
X009668Y000916D01*
X009078Y000478D02*
X009022Y000478D01*
X009022Y001006D01*
X009078Y001006D01*
X009078Y000478D01*
X009078Y000697D02*
X009022Y000697D01*
X009022Y000916D02*
X009078Y000916D01*
X008487Y000478D02*
X008431Y000478D01*
X008431Y001006D01*
X008487Y001006D01*
X008487Y000478D01*
X008487Y000697D02*
X008431Y000697D01*
X008431Y000916D02*
X008487Y000916D01*
X007897Y000478D02*
X007841Y000478D01*
X007841Y001006D01*
X007897Y001006D01*
X007897Y000478D01*
X007897Y000697D02*
X007841Y000697D01*
X007841Y000916D02*
X007897Y000916D01*
X007306Y000478D02*
X007250Y000478D01*
X007250Y001006D01*
X007306Y001006D01*
X007306Y000478D01*
X007306Y000697D02*
X007250Y000697D01*
X007250Y000916D02*
X007306Y000916D01*
X006873Y001580D02*
X006873Y001636D01*
X006873Y001580D02*
X006345Y001580D01*
X006345Y001636D01*
X006873Y001636D01*
X006873Y002171D02*
X006873Y002227D01*
X006873Y002171D02*
X006345Y002171D01*
X006345Y002227D01*
X006873Y002227D01*
X006873Y002761D02*
X006873Y002817D01*
X006873Y002761D02*
X006345Y002761D01*
X006345Y002817D01*
X006873Y002817D01*
X006873Y003352D02*
X006873Y003408D01*
X006873Y003352D02*
X006345Y003352D01*
X006345Y003408D01*
X006873Y003408D01*
M02*
