G75*
%MOIN*%
%OFA0B0*%
%FSLAX24Y24*%
%IPPOS*%
%LPD*%
%AMOC8*
5,1,8,0,0,1.08239X$1,22.5*
%
%ADD10R,0.0472X0.0217*%
%ADD11R,0.0472X0.0472*%
%ADD12R,0.0433X0.0394*%
%ADD13OC8,0.0700*%
%ADD14R,0.0120X0.0390*%
%ADD15C,0.0220*%
%ADD16C,0.0060*%
%ADD17C,0.0270*%
%ADD18C,0.0160*%
%ADD19C,0.0100*%
D10*
X002538Y002406D03*
X003562Y002780D03*
X002538Y003154D03*
D11*
X005700Y003093D03*
X005700Y002267D03*
X005700Y001393D03*
X005700Y000567D03*
D12*
X002575Y000780D03*
X003245Y000780D03*
X003235Y001680D03*
X002565Y001680D03*
X005165Y004280D03*
X005835Y004280D03*
X005835Y005130D03*
X005165Y005130D03*
X005165Y005980D03*
X005835Y005980D03*
D13*
X001300Y005880D03*
X001300Y004880D03*
X001300Y003880D03*
X001300Y002880D03*
X004300Y002880D03*
X004300Y001880D03*
X004300Y000880D03*
X001300Y000880D03*
X001300Y001880D03*
D14*
X002732Y003731D03*
X002988Y003731D03*
X003244Y003731D03*
X003500Y003731D03*
X003756Y003731D03*
X004012Y003731D03*
X004268Y003731D03*
X004268Y006029D03*
X004012Y006029D03*
X003756Y006029D03*
X003500Y006029D03*
X003244Y006029D03*
X002988Y006029D03*
X002732Y006029D03*
D15*
X006873Y005180D02*
X006873Y005124D01*
X006345Y005124D01*
X006345Y005180D01*
X006873Y005180D01*
X006873Y004589D02*
X006873Y004533D01*
X006345Y004533D01*
X006345Y004589D01*
X006873Y004589D01*
X006873Y003999D02*
X006873Y003943D01*
X006345Y003943D01*
X006345Y003999D01*
X006873Y003999D01*
X006873Y003408D02*
X006873Y003352D01*
X006345Y003352D01*
X006345Y003408D01*
X006873Y003408D01*
X006873Y002817D02*
X006873Y002761D01*
X006345Y002761D01*
X006345Y002817D01*
X006873Y002817D01*
X006873Y002227D02*
X006873Y002171D01*
X006345Y002171D01*
X006345Y002227D01*
X006873Y002227D01*
X006873Y001636D02*
X006873Y001580D01*
X006345Y001580D01*
X006345Y001636D01*
X006873Y001636D01*
X007250Y000478D02*
X007306Y000478D01*
X007250Y000478D02*
X007250Y001006D01*
X007306Y001006D01*
X007306Y000478D01*
X007306Y000697D02*
X007250Y000697D01*
X007250Y000916D02*
X007306Y000916D01*
X007841Y000478D02*
X007897Y000478D01*
X007841Y000478D02*
X007841Y001006D01*
X007897Y001006D01*
X007897Y000478D01*
X007897Y000697D02*
X007841Y000697D01*
X007841Y000916D02*
X007897Y000916D01*
X008431Y000478D02*
X008487Y000478D01*
X008431Y000478D02*
X008431Y001006D01*
X008487Y001006D01*
X008487Y000478D01*
X008487Y000697D02*
X008431Y000697D01*
X008431Y000916D02*
X008487Y000916D01*
X009022Y000478D02*
X009078Y000478D01*
X009022Y000478D02*
X009022Y001006D01*
X009078Y001006D01*
X009078Y000478D01*
X009078Y000697D02*
X009022Y000697D01*
X009022Y000916D02*
X009078Y000916D01*
X009612Y000478D02*
X009668Y000478D01*
X009612Y000478D02*
X009612Y001006D01*
X009668Y001006D01*
X009668Y000478D01*
X009668Y000697D02*
X009612Y000697D01*
X009612Y000916D02*
X009668Y000916D01*
X010203Y000478D02*
X010259Y000478D01*
X010203Y000478D02*
X010203Y001006D01*
X010259Y001006D01*
X010259Y000478D01*
X010259Y000697D02*
X010203Y000697D01*
X010203Y000916D02*
X010259Y000916D01*
X010793Y000478D02*
X010849Y000478D01*
X010793Y000478D02*
X010793Y001006D01*
X010849Y001006D01*
X010849Y000478D01*
X010849Y000697D02*
X010793Y000697D01*
X010793Y000916D02*
X010849Y000916D01*
X011384Y000478D02*
X011440Y000478D01*
X011384Y000478D02*
X011384Y001006D01*
X011440Y001006D01*
X011440Y000478D01*
X011440Y000697D02*
X011384Y000697D01*
X011384Y000916D02*
X011440Y000916D01*
X011974Y000478D02*
X012030Y000478D01*
X011974Y000478D02*
X011974Y001006D01*
X012030Y001006D01*
X012030Y000478D01*
X012030Y000697D02*
X011974Y000697D01*
X011974Y000916D02*
X012030Y000916D01*
X012565Y000478D02*
X012621Y000478D01*
X012565Y000478D02*
X012565Y001006D01*
X012621Y001006D01*
X012621Y000478D01*
X012621Y000697D02*
X012565Y000697D01*
X012565Y000916D02*
X012621Y000916D01*
X013155Y000478D02*
X013211Y000478D01*
X013155Y000478D02*
X013155Y001006D01*
X013211Y001006D01*
X013211Y000478D01*
X013211Y000697D02*
X013155Y000697D01*
X013155Y000916D02*
X013211Y000916D01*
X013746Y000478D02*
X013802Y000478D01*
X013746Y000478D02*
X013746Y001006D01*
X013802Y001006D01*
X013802Y000478D01*
X013802Y000697D02*
X013746Y000697D01*
X013746Y000916D02*
X013802Y000916D01*
X014337Y000478D02*
X014393Y000478D01*
X014337Y000478D02*
X014337Y001006D01*
X014393Y001006D01*
X014393Y000478D01*
X014393Y000697D02*
X014337Y000697D01*
X014337Y000916D02*
X014393Y000916D01*
X014927Y000478D02*
X014983Y000478D01*
X014927Y000478D02*
X014927Y001006D01*
X014983Y001006D01*
X014983Y000478D01*
X014983Y000697D02*
X014927Y000697D01*
X014927Y000916D02*
X014983Y000916D01*
X015518Y000478D02*
X015574Y000478D01*
X015518Y000478D02*
X015518Y001006D01*
X015574Y001006D01*
X015574Y000478D01*
X015574Y000697D02*
X015518Y000697D01*
X015518Y000916D02*
X015574Y000916D01*
X016108Y000478D02*
X016164Y000478D01*
X016108Y000478D02*
X016108Y001006D01*
X016164Y001006D01*
X016164Y000478D01*
X016164Y000697D02*
X016108Y000697D01*
X016108Y000916D02*
X016164Y000916D01*
X016699Y000478D02*
X016755Y000478D01*
X016699Y000478D02*
X016699Y001006D01*
X016755Y001006D01*
X016755Y000478D01*
X016755Y000697D02*
X016699Y000697D01*
X016699Y000916D02*
X016755Y000916D01*
X017289Y000478D02*
X017345Y000478D01*
X017289Y000478D02*
X017289Y001006D01*
X017345Y001006D01*
X017345Y000478D01*
X017345Y000697D02*
X017289Y000697D01*
X017289Y000916D02*
X017345Y000916D01*
X017880Y000478D02*
X017936Y000478D01*
X017880Y000478D02*
X017880Y001006D01*
X017936Y001006D01*
X017936Y000478D01*
X017936Y000697D02*
X017880Y000697D01*
X017880Y000916D02*
X017936Y000916D01*
X020436Y001580D02*
X020436Y001636D01*
X020436Y001580D02*
X019908Y001580D01*
X019908Y001636D01*
X020436Y001636D01*
X020436Y002171D02*
X020436Y002227D01*
X020436Y002171D02*
X019908Y002171D01*
X019908Y002227D01*
X020436Y002227D01*
X020436Y002761D02*
X020436Y002817D01*
X020436Y002761D02*
X019908Y002761D01*
X019908Y002817D01*
X020436Y002817D01*
X020436Y003352D02*
X020436Y003408D01*
X020436Y003352D02*
X019908Y003352D01*
X019908Y003408D01*
X020436Y003408D01*
X020436Y003943D02*
X020436Y003999D01*
X020436Y003943D02*
X019908Y003943D01*
X019908Y003999D01*
X020436Y003999D01*
X020436Y004533D02*
X020436Y004589D01*
X020436Y004533D02*
X019908Y004533D01*
X019908Y004589D01*
X020436Y004589D01*
X020436Y005124D02*
X020436Y005180D01*
X020436Y005124D02*
X019908Y005124D01*
X019908Y005180D01*
X020436Y005180D01*
X019708Y005754D02*
X019652Y005754D01*
X019652Y006282D01*
X019708Y006282D01*
X019708Y005754D01*
X019708Y005973D02*
X019652Y005973D01*
X019652Y006192D02*
X019708Y006192D01*
X019117Y005754D02*
X019061Y005754D01*
X019061Y006282D01*
X019117Y006282D01*
X019117Y005754D01*
X019117Y005973D02*
X019061Y005973D01*
X019061Y006192D02*
X019117Y006192D01*
X018526Y005754D02*
X018470Y005754D01*
X018470Y006282D01*
X018526Y006282D01*
X018526Y005754D01*
X018526Y005973D02*
X018470Y005973D01*
X018470Y006192D02*
X018526Y006192D01*
X017936Y005754D02*
X017880Y005754D01*
X017880Y006282D01*
X017936Y006282D01*
X017936Y005754D01*
X017936Y005973D02*
X017880Y005973D01*
X017880Y006192D02*
X017936Y006192D01*
X017345Y005754D02*
X017289Y005754D01*
X017289Y006282D01*
X017345Y006282D01*
X017345Y005754D01*
X017345Y005973D02*
X017289Y005973D01*
X017289Y006192D02*
X017345Y006192D01*
X016755Y005754D02*
X016699Y005754D01*
X016699Y006282D01*
X016755Y006282D01*
X016755Y005754D01*
X016755Y005973D02*
X016699Y005973D01*
X016699Y006192D02*
X016755Y006192D01*
X016164Y005754D02*
X016108Y005754D01*
X016108Y006282D01*
X016164Y006282D01*
X016164Y005754D01*
X016164Y005973D02*
X016108Y005973D01*
X016108Y006192D02*
X016164Y006192D01*
X015574Y005754D02*
X015518Y005754D01*
X015518Y006282D01*
X015574Y006282D01*
X015574Y005754D01*
X015574Y005973D02*
X015518Y005973D01*
X015518Y006192D02*
X015574Y006192D01*
X014983Y005754D02*
X014927Y005754D01*
X014927Y006282D01*
X014983Y006282D01*
X014983Y005754D01*
X014983Y005973D02*
X014927Y005973D01*
X014927Y006192D02*
X014983Y006192D01*
X014393Y005754D02*
X014337Y005754D01*
X014337Y006282D01*
X014393Y006282D01*
X014393Y005754D01*
X014393Y005973D02*
X014337Y005973D01*
X014337Y006192D02*
X014393Y006192D01*
X013802Y005754D02*
X013746Y005754D01*
X013746Y006282D01*
X013802Y006282D01*
X013802Y005754D01*
X013802Y005973D02*
X013746Y005973D01*
X013746Y006192D02*
X013802Y006192D01*
X013211Y005754D02*
X013155Y005754D01*
X013155Y006282D01*
X013211Y006282D01*
X013211Y005754D01*
X013211Y005973D02*
X013155Y005973D01*
X013155Y006192D02*
X013211Y006192D01*
X012621Y005754D02*
X012565Y005754D01*
X012565Y006282D01*
X012621Y006282D01*
X012621Y005754D01*
X012621Y005973D02*
X012565Y005973D01*
X012565Y006192D02*
X012621Y006192D01*
X012030Y005754D02*
X011974Y005754D01*
X011974Y006282D01*
X012030Y006282D01*
X012030Y005754D01*
X012030Y005973D02*
X011974Y005973D01*
X011974Y006192D02*
X012030Y006192D01*
X011440Y005754D02*
X011384Y005754D01*
X011384Y006282D01*
X011440Y006282D01*
X011440Y005754D01*
X011440Y005973D02*
X011384Y005973D01*
X011384Y006192D02*
X011440Y006192D01*
X010849Y005754D02*
X010793Y005754D01*
X010793Y006282D01*
X010849Y006282D01*
X010849Y005754D01*
X010849Y005973D02*
X010793Y005973D01*
X010793Y006192D02*
X010849Y006192D01*
X010259Y005754D02*
X010203Y005754D01*
X010203Y006282D01*
X010259Y006282D01*
X010259Y005754D01*
X010259Y005973D02*
X010203Y005973D01*
X010203Y006192D02*
X010259Y006192D01*
X009668Y005754D02*
X009612Y005754D01*
X009612Y006282D01*
X009668Y006282D01*
X009668Y005754D01*
X009668Y005973D02*
X009612Y005973D01*
X009612Y006192D02*
X009668Y006192D01*
X009078Y005754D02*
X009022Y005754D01*
X009022Y006282D01*
X009078Y006282D01*
X009078Y005754D01*
X009078Y005973D02*
X009022Y005973D01*
X009022Y006192D02*
X009078Y006192D01*
X008487Y005754D02*
X008431Y005754D01*
X008431Y006282D01*
X008487Y006282D01*
X008487Y005754D01*
X008487Y005973D02*
X008431Y005973D01*
X008431Y006192D02*
X008487Y006192D01*
X007897Y005754D02*
X007841Y005754D01*
X007841Y006282D01*
X007897Y006282D01*
X007897Y005754D01*
X007897Y005973D02*
X007841Y005973D01*
X007841Y006192D02*
X007897Y006192D01*
X007306Y005754D02*
X007250Y005754D01*
X007250Y006282D01*
X007306Y006282D01*
X007306Y005754D01*
X007306Y005973D02*
X007250Y005973D01*
X007250Y006192D02*
X007306Y006192D01*
D16*
X009200Y005460D02*
X009620Y005880D01*
X009620Y006000D01*
X009640Y006018D01*
X011180Y004860D02*
X011960Y005640D01*
X011960Y006000D01*
X012002Y006018D01*
X012560Y006000D02*
X012593Y006018D01*
X012560Y006000D02*
X012560Y005100D01*
X009740Y005100D02*
X013760Y001080D01*
X013760Y000780D01*
X013774Y000742D01*
X013183Y000742D02*
X013160Y000780D01*
X011180Y002760D01*
X009620Y000780D02*
X008120Y002280D01*
X007940Y001860D02*
X009020Y000780D01*
X009050Y000742D01*
X009620Y000780D02*
X009640Y000742D01*
X008459Y000742D02*
X008420Y000780D01*
X008180Y001020D01*
X008180Y001200D01*
X005700Y001393D02*
X005660Y001380D01*
X005360Y001080D01*
X005360Y000420D01*
X004100Y000420D01*
X003860Y000660D01*
X003860Y000780D01*
X003245Y000780D01*
X003020Y001320D02*
X005360Y001320D01*
X005360Y001920D01*
X005660Y002220D01*
X005700Y002267D01*
X003620Y002460D02*
X003620Y002040D01*
X003260Y001680D01*
X003235Y001680D01*
X002900Y001680D02*
X002900Y001440D01*
X003020Y001320D01*
X002900Y001680D02*
X002565Y001680D01*
X003080Y002640D02*
X003080Y003000D01*
X003320Y003000D01*
X003680Y003360D01*
X003680Y003660D01*
X003740Y003720D01*
X003756Y003731D01*
X003920Y003840D02*
X003920Y004380D01*
X003440Y004380D02*
X002720Y005100D01*
X003560Y005220D02*
X003560Y005940D01*
X003500Y006000D01*
X003500Y006029D01*
X003320Y005940D02*
X003260Y006000D01*
X003244Y006029D01*
X003320Y005940D02*
X003320Y005580D01*
X003860Y005760D02*
X004160Y005460D01*
X004160Y005700D02*
X004460Y005700D01*
X004460Y004860D01*
X003440Y004380D02*
X003440Y003840D01*
X003500Y003780D01*
X003500Y003731D01*
X003244Y003731D02*
X003200Y003720D01*
X003200Y003300D01*
X003920Y003840D02*
X003980Y003780D01*
X004012Y003731D01*
X004160Y005700D02*
X004100Y005760D01*
X004100Y005940D01*
X004040Y006000D01*
X004012Y006029D01*
X003860Y005940D02*
X003800Y006000D01*
X003756Y006029D01*
X003860Y005940D02*
X003860Y005760D01*
D17*
X003320Y005580D03*
X004160Y005460D03*
X003560Y005220D03*
X002720Y005100D03*
X004460Y004860D03*
X003920Y004380D03*
X004700Y004080D03*
X006020Y003840D03*
X007580Y003000D03*
X008120Y002280D03*
X007940Y001860D03*
X008180Y001200D03*
X004760Y001560D03*
X002780Y001200D03*
X003620Y002460D03*
X003080Y002640D03*
X003200Y003300D03*
X002780Y004140D03*
X009200Y005460D03*
X009740Y005100D03*
X011180Y004860D03*
X012560Y005100D03*
X013760Y005400D03*
X014700Y005380D03*
X015100Y005380D03*
X015100Y004980D03*
X014700Y004980D03*
X014700Y004580D03*
X015100Y004580D03*
X015100Y004180D03*
X014700Y004180D03*
X014700Y003780D03*
X015100Y003780D03*
X015100Y003380D03*
X014700Y003380D03*
X014700Y002980D03*
X015100Y002980D03*
X015100Y002580D03*
X014700Y002580D03*
X014700Y002180D03*
X015100Y002180D03*
X015100Y001780D03*
X014700Y001780D03*
X014700Y001380D03*
X015100Y001380D03*
X011180Y002760D03*
D18*
X011455Y002725D02*
X011455Y002815D01*
X011413Y002916D01*
X011336Y002993D01*
X011235Y003035D01*
X011125Y003035D01*
X011024Y002993D01*
X010947Y002916D01*
X010905Y002815D01*
X010905Y002705D01*
X010947Y002604D01*
X011024Y002527D01*
X011125Y002485D01*
X011215Y002485D01*
X012465Y001235D01*
X012424Y001218D01*
X012353Y001148D01*
X012315Y001056D01*
X012315Y000429D01*
X012323Y000410D01*
X012272Y000410D01*
X012280Y000429D01*
X012280Y001056D01*
X012242Y001148D01*
X012172Y001218D01*
X012080Y001256D01*
X011925Y001256D01*
X011833Y001218D01*
X011763Y001148D01*
X011725Y001056D01*
X011725Y000429D01*
X011732Y000410D01*
X011682Y000410D01*
X011690Y000429D01*
X011690Y001056D01*
X011652Y001148D01*
X011581Y001218D01*
X011489Y001256D01*
X011334Y001256D01*
X011243Y001218D01*
X011172Y001148D01*
X011134Y001056D01*
X011134Y000429D01*
X011142Y000410D01*
X011091Y000410D01*
X011099Y000429D01*
X011099Y001056D01*
X011061Y001148D01*
X010991Y001218D01*
X010899Y001256D01*
X010744Y001256D01*
X010652Y001218D01*
X010582Y001148D01*
X010544Y001057D01*
X010537Y001091D01*
X010515Y001143D01*
X010484Y001191D01*
X010443Y001231D01*
X010396Y001263D01*
X010343Y001285D01*
X010287Y001296D01*
X010231Y001296D01*
X010231Y000742D01*
X010231Y000742D01*
X010543Y000742D01*
X010543Y000742D01*
X010231Y000742D01*
X010231Y000410D01*
X010231Y000410D01*
X010231Y000742D01*
X010231Y000742D01*
X010231Y000742D01*
X009918Y000742D01*
X009918Y000742D01*
X010231Y000742D01*
X010231Y000742D01*
X010231Y001296D01*
X010175Y001296D01*
X010118Y001285D01*
X010066Y001263D01*
X010018Y001231D01*
X009978Y001191D01*
X009946Y001143D01*
X009924Y001091D01*
X009917Y001057D01*
X009880Y001148D01*
X009809Y001218D01*
X009717Y001256D01*
X009563Y001256D01*
X009471Y001218D01*
X009447Y001194D01*
X008395Y002245D01*
X008395Y002335D01*
X008353Y002436D01*
X008276Y002513D01*
X008175Y002555D01*
X008065Y002555D01*
X007964Y002513D01*
X007887Y002436D01*
X007845Y002335D01*
X007845Y002225D01*
X007883Y002134D01*
X007784Y002093D01*
X007770Y002079D01*
X007770Y002801D01*
X007813Y002844D01*
X007855Y002945D01*
X007855Y003055D01*
X007813Y003156D01*
X007736Y003233D01*
X007635Y003275D01*
X007525Y003275D01*
X007424Y003233D01*
X007347Y003156D01*
X007305Y003055D01*
X007305Y002945D01*
X007347Y002844D01*
X007390Y002801D01*
X007390Y001285D01*
X007334Y001296D01*
X007278Y001296D01*
X007278Y000742D01*
X007278Y000410D01*
X007278Y000410D01*
X007278Y000742D01*
X007278Y000742D01*
X007589Y000742D01*
X007589Y000742D01*
X007278Y000742D01*
X007278Y000742D01*
X006960Y000742D01*
X006960Y000450D01*
X006968Y000410D01*
X006116Y000410D01*
X006116Y000529D01*
X005738Y000529D01*
X005738Y000605D01*
X005662Y000605D01*
X005662Y000983D01*
X005530Y000983D01*
X005530Y001010D01*
X005538Y001017D01*
X005994Y001017D01*
X006076Y001099D01*
X006076Y001471D01*
X006088Y001443D01*
X006119Y001396D01*
X006160Y001355D01*
X006207Y001324D01*
X006260Y001302D01*
X006316Y001291D01*
X006609Y001291D01*
X006901Y001291D01*
X006957Y001302D01*
X007010Y001324D01*
X007057Y001355D01*
X007098Y001396D01*
X007130Y001443D01*
X007152Y001496D01*
X007163Y001552D01*
X007163Y001608D01*
X006609Y001608D01*
X006609Y001608D01*
X006609Y001291D01*
X006609Y001608D01*
X006609Y001608D01*
X007163Y001608D01*
X007163Y001664D01*
X007152Y001721D01*
X007130Y001773D01*
X007098Y001821D01*
X007057Y001861D01*
X007010Y001893D01*
X006957Y001915D01*
X006924Y001922D01*
X007014Y001959D01*
X007085Y002030D01*
X007123Y002122D01*
X007123Y002276D01*
X007085Y002368D01*
X007014Y002439D01*
X006924Y002476D01*
X006957Y002483D01*
X007010Y002505D01*
X007057Y002536D01*
X007098Y002577D01*
X007130Y002624D01*
X007152Y002677D01*
X007163Y002733D01*
X007163Y002789D01*
X006609Y002789D01*
X006609Y002477D01*
X006609Y002477D01*
X006609Y002789D01*
X006609Y002789D01*
X006609Y002789D01*
X007163Y002789D01*
X007163Y002846D01*
X007152Y002902D01*
X007130Y002954D01*
X007098Y003002D01*
X007057Y003042D01*
X007010Y003074D01*
X006985Y003085D01*
X007010Y003095D01*
X007057Y003127D01*
X007098Y003167D01*
X007130Y003215D01*
X007152Y003268D01*
X007163Y003324D01*
X007163Y003380D01*
X007163Y003436D01*
X007152Y003492D01*
X007130Y003545D01*
X007098Y003593D01*
X007057Y003633D01*
X007010Y003665D01*
X006985Y003675D01*
X007010Y003686D01*
X007057Y003718D01*
X007098Y003758D01*
X007130Y003806D01*
X007152Y003858D01*
X007163Y003914D01*
X007163Y003971D01*
X007163Y004027D01*
X007152Y004083D01*
X007130Y004136D01*
X007098Y004183D01*
X007057Y004224D01*
X007010Y004255D01*
X006957Y004277D01*
X006924Y004284D01*
X007014Y004321D01*
X007085Y004392D01*
X007123Y004484D01*
X007123Y004638D01*
X007085Y004730D01*
X007014Y004801D01*
X006924Y004838D01*
X006957Y004845D01*
X007010Y004867D01*
X007057Y004899D01*
X007098Y004939D01*
X007130Y004987D01*
X007152Y005039D01*
X007163Y005096D01*
X007163Y005152D01*
X007163Y005208D01*
X007152Y005264D01*
X007130Y005317D01*
X007098Y005364D01*
X007057Y005405D01*
X007010Y005436D01*
X006957Y005458D01*
X006901Y005469D01*
X006609Y005469D01*
X006609Y005152D01*
X006609Y005152D01*
X007163Y005152D01*
X006609Y005152D01*
X006609Y005152D01*
X006609Y005469D01*
X006316Y005469D01*
X006260Y005458D01*
X006207Y005436D01*
X006167Y005409D01*
X006109Y005467D01*
X006030Y005467D01*
X006030Y005643D01*
X006109Y005643D01*
X006191Y005725D01*
X006191Y006235D01*
X006109Y006317D01*
X005560Y006317D01*
X005500Y006257D01*
X005440Y006317D01*
X004891Y006317D01*
X004809Y006235D01*
X004809Y006190D01*
X004468Y006190D01*
X004468Y006282D01*
X004399Y006350D01*
X006968Y006350D01*
X006960Y006310D01*
X006960Y006018D01*
X007278Y006018D01*
X007278Y006018D01*
X007278Y006350D01*
X007278Y006350D01*
X007278Y006018D01*
X007591Y006018D01*
X007591Y006018D01*
X007278Y006018D01*
X007278Y006018D01*
X007278Y006018D01*
X006960Y006018D01*
X006960Y005725D01*
X006971Y005669D01*
X006993Y005617D01*
X007025Y005569D01*
X007065Y005529D01*
X007113Y005497D01*
X007166Y005475D01*
X007222Y005464D01*
X007278Y005464D01*
X007334Y005464D01*
X007390Y005475D01*
X007443Y005497D01*
X007491Y005529D01*
X007531Y005569D01*
X007672Y005569D01*
X007699Y005542D02*
X007629Y005612D01*
X007591Y005703D01*
X007585Y005669D01*
X007563Y005617D01*
X007531Y005569D01*
X007699Y005542D02*
X007791Y005504D01*
X007946Y005504D01*
X008038Y005542D01*
X008108Y005612D01*
X008146Y005704D01*
X008146Y006331D01*
X008139Y006350D01*
X008189Y006350D01*
X008181Y006331D01*
X008181Y005704D01*
X008219Y005612D01*
X008290Y005542D01*
X008382Y005504D01*
X008536Y005504D01*
X008628Y005542D01*
X008699Y005612D01*
X008737Y005704D01*
X008737Y006331D01*
X008729Y006350D01*
X008780Y006350D01*
X008772Y006331D01*
X008772Y005704D01*
X008810Y005612D01*
X008880Y005542D01*
X008928Y005522D01*
X008925Y005515D01*
X008925Y005405D01*
X008967Y005304D01*
X009044Y005227D01*
X009145Y005185D01*
X009255Y005185D01*
X009356Y005227D01*
X009433Y005304D01*
X009475Y005405D01*
X009475Y005495D01*
X009507Y005527D01*
X009563Y005504D01*
X009717Y005504D01*
X009809Y005542D01*
X009880Y005612D01*
X009918Y005704D01*
X009918Y006331D01*
X009910Y006350D01*
X009961Y006350D01*
X009953Y006331D01*
X009953Y005704D01*
X009991Y005612D01*
X010061Y005542D01*
X010153Y005504D01*
X010308Y005504D01*
X010400Y005542D01*
X010470Y005612D01*
X010509Y005704D01*
X010509Y006331D01*
X010501Y006350D01*
X010551Y006350D01*
X010543Y006331D01*
X010543Y005704D01*
X010582Y005612D01*
X010652Y005542D01*
X010744Y005504D01*
X010899Y005504D01*
X010991Y005542D01*
X011061Y005612D01*
X011098Y005703D01*
X011105Y005669D01*
X011127Y005617D01*
X011159Y005569D01*
X011199Y005529D01*
X011247Y005497D01*
X011300Y005475D01*
X011356Y005464D01*
X011412Y005464D01*
X011468Y005464D01*
X011524Y005475D01*
X011576Y005496D01*
X011215Y005135D01*
X011125Y005135D01*
X011024Y005093D01*
X010947Y005016D01*
X010905Y004915D01*
X010905Y004805D01*
X010947Y004704D01*
X011024Y004627D01*
X011125Y004585D01*
X011235Y004585D01*
X011336Y004627D01*
X011413Y004704D01*
X011455Y004805D01*
X011455Y004895D01*
X012030Y005470D01*
X012064Y005504D01*
X012080Y005504D01*
X012172Y005542D01*
X012242Y005612D01*
X012280Y005704D01*
X012280Y006331D01*
X012272Y006350D01*
X012323Y006350D01*
X012315Y006331D01*
X012315Y005704D01*
X012353Y005612D01*
X012390Y005575D01*
X012390Y005319D01*
X012327Y005256D01*
X012285Y005155D01*
X012285Y005045D01*
X012327Y004944D01*
X012404Y004867D01*
X012505Y004825D01*
X012615Y004825D01*
X012716Y004867D01*
X012793Y004944D01*
X012835Y005045D01*
X012835Y005155D01*
X012793Y005256D01*
X012730Y005319D01*
X012730Y005529D01*
X012762Y005542D01*
X012833Y005612D01*
X012871Y005704D01*
X012871Y006331D01*
X012863Y006350D01*
X012913Y006350D01*
X012906Y006331D01*
X012906Y005704D01*
X012944Y005612D01*
X013014Y005542D01*
X013106Y005504D01*
X013261Y005504D01*
X013353Y005542D01*
X013423Y005612D01*
X013461Y005704D01*
X013461Y006331D01*
X013454Y006350D01*
X013504Y006350D01*
X013496Y006331D01*
X013496Y005704D01*
X013534Y005612D01*
X013559Y005588D01*
X013527Y005556D01*
X013485Y005455D01*
X013485Y005345D01*
X013527Y005244D01*
X013604Y005167D01*
X013705Y005125D01*
X013815Y005125D01*
X013916Y005167D01*
X013993Y005244D01*
X014035Y005345D01*
X014035Y005406D01*
X014183Y005554D01*
X014195Y005542D01*
X014287Y005504D01*
X014442Y005504D01*
X014534Y005542D01*
X014604Y005612D01*
X014642Y005703D01*
X014648Y005669D01*
X014670Y005617D01*
X014702Y005569D01*
X014561Y005569D01*
X014702Y005569D02*
X014743Y005529D01*
X014790Y005497D01*
X014843Y005475D01*
X014899Y005464D01*
X014955Y005464D01*
X014955Y006018D01*
X014955Y006350D01*
X014955Y006350D01*
X014955Y006018D01*
X014955Y006018D01*
X014955Y006018D01*
X014642Y006018D01*
X014642Y006018D01*
X014955Y006018D01*
X015228Y006018D01*
X015546Y006018D01*
X016136Y006018D01*
X016136Y006350D01*
X016136Y006350D01*
X016136Y006018D01*
X016136Y006018D01*
X016136Y006018D01*
X015863Y006018D01*
X015546Y006018D01*
X015546Y006018D01*
X015546Y006018D01*
X015546Y006350D01*
X015546Y006350D01*
X015546Y006018D01*
X015546Y005464D01*
X015602Y005464D01*
X015658Y005475D01*
X015711Y005497D01*
X015758Y005529D01*
X015799Y005569D01*
X015883Y005569D01*
X015924Y005529D01*
X015971Y005497D01*
X016024Y005475D01*
X016080Y005464D01*
X016136Y005464D01*
X016136Y006018D01*
X016136Y006018D01*
X016409Y006018D01*
X016727Y006018D01*
X017317Y006018D01*
X017317Y006018D01*
X017317Y006350D01*
X017317Y006350D01*
X017317Y006018D01*
X017317Y006018D01*
X017045Y006018D01*
X016727Y006018D01*
X016727Y006018D01*
X016727Y006018D01*
X016727Y006350D01*
X016727Y006350D01*
X016727Y006018D01*
X016727Y005464D01*
X016783Y005464D01*
X016839Y005475D01*
X016892Y005497D01*
X016939Y005529D01*
X016980Y005569D01*
X017064Y005569D01*
X017105Y005529D01*
X017152Y005497D01*
X017205Y005475D01*
X017261Y005464D01*
X017317Y005464D01*
X017317Y006018D01*
X017317Y006018D01*
X017590Y006018D01*
X017908Y006018D01*
X017908Y006018D01*
X017908Y006350D01*
X017908Y006350D01*
X017908Y006018D01*
X018498Y006018D01*
X018498Y006018D01*
X018498Y006350D01*
X018498Y006350D01*
X018498Y006018D01*
X018498Y006018D01*
X018226Y006018D01*
X017908Y006018D01*
X017908Y006018D01*
X017908Y006018D01*
X017908Y005464D01*
X017964Y005464D01*
X018020Y005475D01*
X018073Y005497D01*
X018120Y005529D01*
X018161Y005569D01*
X018245Y005569D01*
X018286Y005529D01*
X018333Y005497D01*
X018386Y005475D01*
X018442Y005464D01*
X018498Y005464D01*
X018498Y006018D01*
X018498Y006018D01*
X018771Y006018D01*
X019089Y006018D01*
X019089Y006018D01*
X019089Y006350D01*
X019089Y006350D01*
X019089Y006018D01*
X019680Y006018D01*
X019997Y006018D01*
X019997Y006310D01*
X019989Y006350D01*
X020570Y006350D01*
X020570Y005438D01*
X020520Y005458D01*
X020464Y005469D01*
X020172Y005469D01*
X020172Y005152D01*
X020172Y005152D01*
X020570Y005152D01*
X020570Y005152D01*
X020172Y005152D01*
X020172Y005152D01*
X020172Y005469D01*
X019879Y005469D01*
X019823Y005458D01*
X019770Y005436D01*
X019723Y005405D01*
X019682Y005364D01*
X019651Y005317D01*
X019629Y005264D01*
X019618Y005208D01*
X019618Y005152D01*
X020172Y005152D01*
X020172Y005152D01*
X020172Y004561D01*
X020172Y004561D01*
X020570Y004561D01*
X020570Y004561D01*
X020172Y004561D01*
X020172Y004243D01*
X020172Y003971D01*
X020172Y003971D01*
X020570Y003971D01*
X020570Y003971D01*
X020172Y003971D01*
X020172Y003971D01*
X020172Y004561D01*
X020172Y004561D01*
X020172Y004561D01*
X019618Y004561D01*
X019618Y004505D01*
X019629Y004449D01*
X019651Y004396D01*
X019682Y004349D01*
X019723Y004308D01*
X019770Y004276D01*
X019796Y004266D01*
X019770Y004255D01*
X019723Y004224D01*
X019682Y004183D01*
X019651Y004136D01*
X019629Y004083D01*
X019618Y004027D01*
X019618Y003971D01*
X020172Y003971D01*
X020172Y003971D01*
X020172Y003380D01*
X020570Y003380D01*
X020570Y003380D01*
X020172Y003380D01*
X020172Y003380D01*
X020172Y003062D01*
X020172Y002789D01*
X020172Y002789D01*
X020570Y002789D01*
X020570Y002789D01*
X020172Y002789D01*
X020172Y002199D01*
X020570Y002199D01*
X020570Y002199D01*
X020172Y002199D01*
X020172Y002199D01*
X020172Y002199D01*
X020172Y001881D01*
X020172Y001608D01*
X020172Y001608D01*
X020570Y001608D01*
X020570Y001608D01*
X020172Y001608D01*
X020172Y001291D01*
X020464Y001291D01*
X020520Y001302D01*
X020570Y001322D01*
X020570Y000410D01*
X018218Y000410D01*
X018226Y000450D01*
X018226Y000742D01*
X017908Y000742D01*
X017908Y000410D01*
X017908Y000410D01*
X017908Y000742D01*
X017908Y000742D01*
X017908Y000742D01*
X018226Y000742D01*
X018226Y001035D01*
X018215Y001091D01*
X018193Y001143D01*
X018161Y001191D01*
X018120Y001231D01*
X018073Y001263D01*
X018020Y001285D01*
X017964Y001296D01*
X017908Y001296D01*
X017908Y000742D01*
X017317Y000742D01*
X017045Y000742D01*
X016727Y000742D01*
X016727Y000742D01*
X016727Y000410D01*
X016727Y000410D01*
X016727Y000742D01*
X016727Y000742D01*
X017317Y000742D01*
X017317Y000742D01*
X017317Y000742D01*
X017317Y000410D01*
X017317Y000410D01*
X017317Y000742D01*
X017317Y001296D01*
X017261Y001296D01*
X017205Y001285D01*
X017152Y001263D01*
X017105Y001231D01*
X017064Y001191D01*
X017033Y001143D01*
X017022Y001118D01*
X017012Y001143D01*
X016980Y001191D01*
X016939Y001231D01*
X016892Y001263D01*
X016839Y001285D01*
X016783Y001296D01*
X016727Y001296D01*
X016727Y000742D01*
X016136Y000742D01*
X016136Y000742D01*
X016136Y000410D01*
X016136Y000410D01*
X016136Y000742D01*
X015818Y000742D01*
X015546Y000742D01*
X015546Y000742D01*
X015546Y000410D01*
X015546Y000410D01*
X015546Y000742D01*
X015546Y000742D01*
X016136Y000742D01*
X016136Y000742D01*
X016136Y001296D01*
X016080Y001296D01*
X016024Y001285D01*
X015971Y001263D01*
X015924Y001231D01*
X015883Y001191D01*
X015851Y001143D01*
X015841Y001118D01*
X015830Y001143D01*
X015799Y001191D01*
X015758Y001231D01*
X015711Y001263D01*
X015658Y001285D01*
X015602Y001296D01*
X015546Y001296D01*
X015546Y000742D01*
X015546Y000742D01*
X014955Y000742D01*
X014955Y000742D01*
X014955Y000410D01*
X014955Y000410D01*
X014955Y000742D01*
X014642Y000742D01*
X014642Y000742D01*
X014955Y000742D01*
X014955Y000742D01*
X014955Y000742D01*
X014955Y001296D01*
X014899Y001296D01*
X014843Y001285D01*
X014790Y001263D01*
X014743Y001231D01*
X014702Y001191D01*
X014670Y001143D01*
X014648Y001091D01*
X014642Y001057D01*
X014604Y001148D01*
X014534Y001218D01*
X014442Y001256D01*
X014287Y001256D01*
X014195Y001218D01*
X014125Y001148D01*
X014087Y001056D01*
X014087Y000429D01*
X014094Y000410D01*
X014044Y000410D01*
X014052Y000429D01*
X014052Y001056D01*
X014014Y001148D01*
X013943Y001218D01*
X013851Y001256D01*
X013824Y001256D01*
X010015Y005065D01*
X010015Y005155D01*
X009973Y005256D01*
X009896Y005333D01*
X009795Y005375D01*
X009685Y005375D01*
X009584Y005333D01*
X009507Y005256D01*
X009465Y005155D01*
X009465Y005045D01*
X009507Y004944D01*
X009584Y004867D01*
X009685Y004825D01*
X009775Y004825D01*
X013510Y001089D01*
X013496Y001056D01*
X013496Y000429D01*
X013504Y000410D01*
X013454Y000410D01*
X013461Y000429D01*
X013461Y001056D01*
X013423Y001148D01*
X013353Y001218D01*
X013261Y001256D01*
X013106Y001256D01*
X013014Y001218D01*
X012988Y001192D01*
X011455Y002725D01*
X011464Y002716D02*
X011884Y002716D01*
X011725Y002875D02*
X011430Y002875D01*
X011567Y003033D02*
X011240Y003033D01*
X011120Y003033D02*
X007855Y003033D01*
X007826Y002875D02*
X010930Y002875D01*
X010905Y002716D02*
X007770Y002716D01*
X007390Y002716D02*
X007159Y002716D01*
X007157Y002875D02*
X007334Y002875D01*
X007305Y003033D02*
X007067Y003033D01*
X007114Y003192D02*
X007383Y003192D01*
X007163Y003350D02*
X011250Y003350D01*
X011408Y003192D02*
X007777Y003192D01*
X007163Y003380D02*
X006609Y003380D01*
X007163Y003380D01*
X007145Y003509D02*
X011091Y003509D01*
X010933Y003667D02*
X007005Y003667D01*
X007138Y003826D02*
X010774Y003826D01*
X010616Y003984D02*
X007163Y003984D01*
X007163Y003971D02*
X006609Y003971D01*
X006609Y004283D01*
X006609Y004283D01*
X006609Y003971D01*
X006609Y003971D01*
X006609Y003971D01*
X007163Y003971D01*
X007125Y004143D02*
X010457Y004143D01*
X010299Y004301D02*
X006965Y004301D01*
X007113Y004460D02*
X010140Y004460D01*
X010621Y004460D02*
X019627Y004460D01*
X019618Y004561D02*
X020172Y004561D01*
X020172Y004561D01*
X020172Y004879D01*
X020172Y005152D01*
X020172Y005152D01*
X019618Y005152D01*
X019618Y005096D01*
X019629Y005039D01*
X019651Y004987D01*
X019682Y004939D01*
X019723Y004899D01*
X019770Y004867D01*
X019796Y004856D01*
X019770Y004846D01*
X019723Y004814D01*
X019682Y004774D01*
X019651Y004726D01*
X019629Y004673D01*
X019618Y004617D01*
X019618Y004561D01*
X019618Y004618D02*
X011314Y004618D01*
X011443Y004777D02*
X019685Y004777D01*
X020172Y004777D02*
X020172Y004777D01*
X020172Y004618D02*
X020172Y004618D01*
X020172Y004460D02*
X020172Y004460D01*
X020172Y004301D02*
X020172Y004301D01*
X020172Y004143D02*
X020172Y004143D01*
X019733Y004301D02*
X010779Y004301D01*
X010938Y004143D02*
X019655Y004143D01*
X019618Y003984D02*
X011096Y003984D01*
X011255Y003826D02*
X019642Y003826D01*
X019651Y003806D02*
X019682Y003758D01*
X019723Y003718D01*
X019770Y003686D01*
X019796Y003675D01*
X019770Y003665D01*
X019723Y003633D01*
X019682Y003593D01*
X019651Y003545D01*
X019629Y003492D01*
X019618Y003436D01*
X019618Y003380D01*
X019618Y003324D01*
X019629Y003268D01*
X019651Y003215D01*
X019682Y003167D01*
X019723Y003127D01*
X019770Y003095D01*
X019796Y003085D01*
X019770Y003074D01*
X019723Y003042D01*
X019682Y003002D01*
X019651Y002954D01*
X019629Y002902D01*
X019618Y002846D01*
X019618Y002789D01*
X019618Y002733D01*
X019629Y002677D01*
X019651Y002624D01*
X019682Y002577D01*
X019723Y002536D01*
X019770Y002505D01*
X019796Y002494D01*
X019770Y002484D01*
X019723Y002452D01*
X019682Y002411D01*
X019651Y002364D01*
X019629Y002311D01*
X019618Y002255D01*
X019618Y002199D01*
X020172Y002199D01*
X020172Y002199D01*
X020172Y002517D01*
X020172Y002789D01*
X020172Y002789D01*
X019618Y002789D01*
X020172Y002789D01*
X020172Y002789D01*
X020172Y002789D01*
X020172Y003380D01*
X020172Y003380D01*
X020172Y003380D01*
X020172Y003698D01*
X020172Y003971D01*
X020172Y003971D01*
X019618Y003971D01*
X019618Y003914D01*
X019629Y003858D01*
X019651Y003806D01*
X019776Y003667D02*
X011413Y003667D01*
X011572Y003509D02*
X019636Y003509D01*
X019618Y003380D02*
X020172Y003380D01*
X019618Y003380D01*
X019618Y003350D02*
X011730Y003350D01*
X011889Y003192D02*
X019666Y003192D01*
X020172Y003192D02*
X020172Y003192D01*
X020172Y003350D02*
X020172Y003350D01*
X020172Y003380D02*
X020172Y003380D01*
X020172Y003509D02*
X020172Y003509D01*
X020172Y003667D02*
X020172Y003667D01*
X020172Y003826D02*
X020172Y003826D01*
X020172Y003984D02*
X020172Y003984D01*
X020172Y003033D02*
X020172Y003033D01*
X020172Y002875D02*
X020172Y002875D01*
X020172Y002716D02*
X020172Y002716D01*
X020172Y002558D02*
X020172Y002558D01*
X020172Y002399D02*
X020172Y002399D01*
X020172Y002241D02*
X020172Y002241D01*
X020172Y002199D02*
X020172Y002199D01*
X020172Y001608D01*
X020172Y001608D01*
X020172Y001291D01*
X019879Y001291D01*
X019823Y001302D01*
X019770Y001324D01*
X019723Y001355D01*
X019682Y001396D01*
X019651Y001443D01*
X019629Y001496D01*
X019618Y001552D01*
X019618Y001608D01*
X020172Y001608D01*
X020172Y001608D01*
X020172Y001608D01*
X019618Y001608D01*
X019618Y001664D01*
X019629Y001721D01*
X019651Y001773D01*
X019682Y001821D01*
X019723Y001861D01*
X019770Y001893D01*
X019796Y001904D01*
X019770Y001914D01*
X019723Y001946D01*
X019682Y001986D01*
X019651Y002034D01*
X019629Y002087D01*
X019618Y002143D01*
X019618Y002199D01*
X020172Y002199D01*
X020172Y002082D02*
X020172Y002082D01*
X020172Y001924D02*
X020172Y001924D01*
X020172Y001765D02*
X020172Y001765D01*
X019756Y001924D02*
X013157Y001924D01*
X012998Y002082D02*
X019631Y002082D01*
X019618Y002241D02*
X012840Y002241D01*
X012681Y002399D02*
X019674Y002399D01*
X019702Y002558D02*
X012523Y002558D01*
X012201Y002399D02*
X011781Y002399D01*
X011623Y002558D02*
X012042Y002558D01*
X012364Y002716D02*
X019621Y002716D01*
X019623Y002875D02*
X012206Y002875D01*
X012047Y003033D02*
X019713Y003033D01*
X019647Y001765D02*
X013315Y001765D01*
X012835Y001765D02*
X012415Y001765D01*
X012257Y001924D02*
X012676Y001924D01*
X012518Y002082D02*
X012098Y002082D01*
X011776Y001924D02*
X008717Y001924D01*
X008558Y002082D02*
X011618Y002082D01*
X011459Y002241D02*
X008400Y002241D01*
X008368Y002399D02*
X011301Y002399D01*
X010994Y002558D02*
X007770Y002558D01*
X007770Y002399D02*
X007872Y002399D01*
X007845Y002241D02*
X007770Y002241D01*
X007390Y002241D02*
X007123Y002241D01*
X007054Y002399D02*
X007390Y002399D01*
X007390Y002558D02*
X007079Y002558D01*
X006609Y002558D02*
X006609Y002558D01*
X006294Y002476D02*
X006203Y002439D01*
X006133Y002368D01*
X006095Y002276D01*
X006095Y002122D01*
X006133Y002030D01*
X006203Y001959D01*
X006294Y001922D01*
X006260Y001915D01*
X006207Y001893D01*
X006160Y001861D01*
X006119Y001821D01*
X006088Y001773D01*
X006066Y001721D01*
X006062Y001702D01*
X005994Y001770D01*
X005530Y001770D01*
X005530Y001850D01*
X005571Y001890D01*
X005994Y001890D01*
X006076Y001972D01*
X006076Y002561D01*
X005994Y002643D01*
X005406Y002643D01*
X005324Y002561D01*
X005324Y002124D01*
X005190Y001990D01*
X005190Y001490D01*
X005029Y001490D01*
X005035Y001505D01*
X005035Y001615D01*
X004993Y001716D01*
X004950Y001759D01*
X004950Y003903D01*
X005147Y003903D01*
X005147Y004262D01*
X005184Y004262D01*
X005184Y003903D01*
X005406Y003903D01*
X005451Y003915D01*
X005492Y003939D01*
X005526Y003973D01*
X005528Y003976D01*
X005560Y003943D01*
X005650Y003943D01*
X005650Y003941D01*
X005745Y003846D01*
X005745Y003785D01*
X005787Y003684D01*
X005864Y003607D01*
X005965Y003565D01*
X006075Y003565D01*
X006111Y003580D01*
X006088Y003545D01*
X006066Y003492D01*
X006060Y003461D01*
X006047Y003474D01*
X006006Y003497D01*
X005960Y003510D01*
X005738Y003510D01*
X005738Y003132D01*
X005662Y003132D01*
X005662Y003510D01*
X005440Y003510D01*
X005394Y003497D01*
X005353Y003474D01*
X005320Y003440D01*
X005296Y003399D01*
X005284Y003353D01*
X005284Y003131D01*
X005662Y003131D01*
X005662Y003055D01*
X005738Y003055D01*
X005738Y002677D01*
X005960Y002677D01*
X006006Y002689D01*
X006047Y002713D01*
X006057Y002723D01*
X006066Y002677D01*
X006088Y002624D01*
X006119Y002577D01*
X006160Y002536D01*
X006207Y002505D01*
X006260Y002483D01*
X006294Y002476D01*
X006164Y002399D02*
X006076Y002399D01*
X006076Y002241D02*
X006095Y002241D01*
X006111Y002082D02*
X006076Y002082D01*
X006027Y001924D02*
X006289Y001924D01*
X006609Y001921D02*
X006609Y001921D01*
X006609Y001608D01*
X006076Y001608D01*
X006076Y001608D01*
X006609Y001608D01*
X006609Y001608D01*
X006609Y001608D01*
X006609Y001921D01*
X006609Y001765D02*
X006609Y001765D01*
X006928Y001924D02*
X007390Y001924D01*
X007390Y002082D02*
X007106Y002082D01*
X007770Y002082D02*
X007773Y002082D01*
X007390Y001765D02*
X007133Y001765D01*
X007163Y001607D02*
X007390Y001607D01*
X007390Y001448D02*
X007132Y001448D01*
X007166Y001285D02*
X007113Y001263D01*
X007065Y001231D01*
X007025Y001191D01*
X006993Y001143D01*
X006971Y001091D01*
X006960Y001035D01*
X006960Y000742D01*
X007278Y000742D01*
X007278Y000742D01*
X007278Y000742D01*
X007278Y001296D01*
X007222Y001296D01*
X007166Y001285D01*
X007188Y001290D02*
X006076Y001290D01*
X006076Y001448D02*
X006086Y001448D01*
X006609Y001448D02*
X006609Y001448D01*
X006609Y001607D02*
X006609Y001607D01*
X006084Y001765D02*
X005999Y001765D01*
X005282Y002082D02*
X004950Y002082D01*
X004950Y001924D02*
X005190Y001924D01*
X005190Y001765D02*
X004950Y001765D01*
X005035Y001607D02*
X005190Y001607D01*
X006076Y001131D02*
X006988Y001131D01*
X006960Y000973D02*
X005998Y000973D01*
X006006Y000971D02*
X005960Y000983D01*
X005738Y000983D01*
X005738Y000605D01*
X006116Y000605D01*
X006116Y000827D01*
X006104Y000872D01*
X006080Y000913D01*
X006047Y000947D01*
X006006Y000971D01*
X006116Y000814D02*
X006960Y000814D01*
X007278Y000814D02*
X007278Y000814D01*
X007278Y000973D02*
X007278Y000973D01*
X007278Y001131D02*
X007278Y001131D01*
X007278Y001290D02*
X007278Y001290D01*
X007368Y001290D02*
X007390Y001290D01*
X008875Y001765D02*
X011935Y001765D01*
X012093Y001607D02*
X009034Y001607D01*
X009192Y001448D02*
X012252Y001448D01*
X012410Y001290D02*
X010321Y001290D01*
X010231Y001290D02*
X010231Y001290D01*
X010141Y001290D02*
X009351Y001290D01*
X009887Y001131D02*
X009941Y001131D01*
X010231Y001131D02*
X010231Y001131D01*
X010231Y000973D02*
X010231Y000973D01*
X010231Y000814D02*
X010231Y000814D01*
X010231Y000656D02*
X010231Y000656D01*
X010231Y000497D02*
X010231Y000497D01*
X011099Y000497D02*
X011134Y000497D01*
X011134Y000656D02*
X011099Y000656D01*
X011690Y000656D02*
X011725Y000656D01*
X011725Y000497D02*
X011690Y000497D01*
X012280Y000497D02*
X012315Y000497D01*
X012315Y000656D02*
X012280Y000656D01*
X012280Y000814D02*
X012315Y000814D01*
X012315Y000973D02*
X012280Y000973D01*
X012249Y001131D02*
X012346Y001131D01*
X011756Y001131D02*
X011658Y001131D01*
X011690Y000973D02*
X011725Y000973D01*
X011725Y000814D02*
X011690Y000814D01*
X011134Y000814D02*
X011099Y000814D01*
X011099Y000973D02*
X011134Y000973D01*
X011165Y001131D02*
X011068Y001131D01*
X010575Y001131D02*
X010521Y001131D01*
X012574Y001607D02*
X012993Y001607D01*
X013152Y001448D02*
X012732Y001448D01*
X012891Y001290D02*
X013310Y001290D01*
X013632Y001448D02*
X019649Y001448D01*
X019618Y001607D02*
X013474Y001607D01*
X013791Y001290D02*
X014865Y001290D01*
X014955Y001290D02*
X014955Y001290D01*
X014955Y001296D02*
X014955Y000742D01*
X014955Y000742D01*
X015273Y000742D01*
X015546Y000742D01*
X015546Y000742D01*
X015546Y001296D01*
X015490Y001296D01*
X015433Y001285D01*
X015381Y001263D01*
X015333Y001231D01*
X015293Y001191D01*
X015261Y001143D01*
X015250Y001118D01*
X015240Y001143D01*
X015208Y001191D01*
X015168Y001231D01*
X015120Y001263D01*
X015067Y001285D01*
X015011Y001296D01*
X014955Y001296D01*
X015045Y001290D02*
X015456Y001290D01*
X015546Y001290D02*
X015546Y001290D01*
X015636Y001290D02*
X016046Y001290D01*
X016136Y001290D02*
X016136Y001290D01*
X016136Y001296D02*
X016136Y000742D01*
X016136Y000742D01*
X016136Y000742D01*
X016409Y000742D01*
X016727Y000742D01*
X016727Y000742D01*
X016727Y000742D01*
X016727Y001296D01*
X016671Y001296D01*
X016615Y001285D01*
X016562Y001263D01*
X016514Y001231D01*
X016474Y001191D01*
X016442Y001143D01*
X016431Y001118D01*
X016421Y001143D01*
X016389Y001191D01*
X016349Y001231D01*
X016301Y001263D01*
X016248Y001285D01*
X016192Y001296D01*
X016136Y001296D01*
X016226Y001290D02*
X016637Y001290D01*
X016727Y001290D02*
X016727Y001290D01*
X016817Y001290D02*
X017227Y001290D01*
X017317Y001290D02*
X017317Y001290D01*
X017317Y001296D02*
X017317Y000742D01*
X017317Y000742D01*
X017317Y000742D01*
X017590Y000742D01*
X017908Y000742D01*
X017908Y000742D01*
X017908Y000742D01*
X017908Y001296D01*
X017852Y001296D01*
X017796Y001285D01*
X017743Y001263D01*
X017695Y001231D01*
X017655Y001191D01*
X017623Y001143D01*
X017613Y001118D01*
X017602Y001143D01*
X017570Y001191D01*
X017530Y001231D01*
X017482Y001263D01*
X017430Y001285D01*
X017373Y001296D01*
X017317Y001296D01*
X017407Y001290D02*
X017818Y001290D01*
X017908Y001290D02*
X017908Y001290D01*
X017998Y001290D02*
X020570Y001290D01*
X020172Y001448D02*
X020172Y001448D01*
X020172Y001607D02*
X020172Y001607D01*
X020570Y001131D02*
X018198Y001131D01*
X018226Y000973D02*
X020570Y000973D01*
X020570Y000814D02*
X018226Y000814D01*
X017908Y000814D02*
X017908Y000814D01*
X017908Y000973D02*
X017908Y000973D01*
X017908Y001131D02*
X017908Y001131D01*
X017618Y001131D02*
X017607Y001131D01*
X017317Y001131D02*
X017317Y001131D01*
X017317Y000973D02*
X017317Y000973D01*
X017317Y000814D02*
X017317Y000814D01*
X017317Y000656D02*
X017317Y000656D01*
X017317Y000497D02*
X017317Y000497D01*
X017908Y000497D02*
X017908Y000497D01*
X017908Y000656D02*
X017908Y000656D01*
X018226Y000656D02*
X020570Y000656D01*
X020570Y000497D02*
X018226Y000497D01*
X016727Y000497D02*
X016727Y000497D01*
X016727Y000656D02*
X016727Y000656D01*
X016727Y000814D02*
X016727Y000814D01*
X016727Y000973D02*
X016727Y000973D01*
X016727Y001131D02*
X016727Y001131D01*
X017017Y001131D02*
X017027Y001131D01*
X016437Y001131D02*
X016426Y001131D01*
X016136Y001131D02*
X016136Y001131D01*
X015846Y001131D02*
X015836Y001131D01*
X015546Y001131D02*
X015546Y001131D01*
X015256Y001131D02*
X015245Y001131D01*
X014955Y001131D02*
X014955Y001131D01*
X014955Y000973D02*
X014955Y000973D01*
X014955Y000814D02*
X014955Y000814D01*
X015546Y000814D02*
X015546Y000814D01*
X015546Y000973D02*
X015546Y000973D01*
X016136Y000973D02*
X016136Y000973D01*
X016136Y000814D02*
X016136Y000814D01*
X016136Y000656D02*
X016136Y000656D01*
X016136Y000497D02*
X016136Y000497D01*
X015546Y000497D02*
X015546Y000497D01*
X015546Y000656D02*
X015546Y000656D01*
X014955Y000656D02*
X014955Y000656D01*
X014955Y000497D02*
X014955Y000497D01*
X014087Y000497D02*
X014052Y000497D01*
X014052Y000656D02*
X014087Y000656D01*
X014087Y000814D02*
X014052Y000814D01*
X014052Y000973D02*
X014087Y000973D01*
X014118Y001131D02*
X014021Y001131D01*
X013496Y000973D02*
X013461Y000973D01*
X013469Y001131D02*
X013430Y001131D01*
X013461Y000814D02*
X013496Y000814D01*
X013496Y000656D02*
X013461Y000656D01*
X013461Y000497D02*
X013496Y000497D01*
X014611Y001131D02*
X014665Y001131D01*
X012359Y002241D02*
X011940Y002241D01*
X007278Y000656D02*
X007278Y000656D01*
X007278Y000497D02*
X007278Y000497D01*
X006960Y000497D02*
X006116Y000497D01*
X006116Y000656D02*
X006960Y000656D01*
X005738Y000656D02*
X005662Y000656D01*
X005662Y000814D02*
X005738Y000814D01*
X005738Y000973D02*
X005662Y000973D01*
X002172Y002230D02*
X001643Y002230D01*
X001521Y002352D01*
X001830Y002660D01*
X001830Y002860D01*
X001320Y002860D01*
X001320Y002900D01*
X001830Y002900D01*
X001830Y003100D01*
X001521Y003408D01*
X001790Y003677D01*
X001790Y004083D01*
X001503Y004370D01*
X001097Y004370D01*
X001030Y004303D01*
X001030Y004457D01*
X001097Y004390D01*
X001503Y004390D01*
X001790Y004677D01*
X001790Y005083D01*
X001503Y005370D01*
X001097Y005370D01*
X001030Y005303D01*
X001030Y005457D01*
X001097Y005390D01*
X001503Y005390D01*
X001790Y005677D01*
X001790Y006083D01*
X001523Y006350D01*
X002544Y006350D01*
X002528Y006334D01*
X002505Y006293D01*
X002492Y006247D01*
X002492Y006029D01*
X002732Y006029D01*
X002732Y006029D01*
X002492Y006029D01*
X002492Y005810D01*
X002505Y005764D01*
X002528Y005723D01*
X002562Y005690D01*
X002603Y005666D01*
X002649Y005654D01*
X002732Y005654D01*
X002732Y006029D01*
X002732Y006029D01*
X002732Y005654D01*
X002816Y005654D01*
X002862Y005666D01*
X002903Y005690D01*
X002907Y005694D01*
X003069Y005694D01*
X003045Y005635D01*
X003045Y005525D01*
X003087Y005424D01*
X003164Y005347D01*
X003265Y005305D01*
X003298Y005305D01*
X003285Y005275D01*
X003285Y005165D01*
X003327Y005064D01*
X003404Y004987D01*
X003505Y004945D01*
X003615Y004945D01*
X003716Y004987D01*
X003793Y005064D01*
X003835Y005165D01*
X003835Y005275D01*
X003793Y005376D01*
X003730Y005439D01*
X003730Y005650D01*
X003885Y005495D01*
X003885Y005405D01*
X003927Y005304D01*
X004004Y005227D01*
X004105Y005185D01*
X004215Y005185D01*
X004290Y005216D01*
X004290Y005079D01*
X004227Y005016D01*
X004185Y004915D01*
X004185Y004805D01*
X004227Y004704D01*
X004304Y004627D01*
X004405Y004585D01*
X004515Y004585D01*
X004570Y004608D01*
X004570Y004324D01*
X004544Y004313D01*
X004467Y004236D01*
X004425Y004135D01*
X004425Y004027D01*
X004386Y004066D01*
X004150Y004066D01*
X004140Y004056D01*
X004130Y004066D01*
X004090Y004066D01*
X004090Y004161D01*
X004153Y004224D01*
X004195Y004325D01*
X004195Y004435D01*
X004153Y004536D01*
X004076Y004613D01*
X003975Y004655D01*
X003865Y004655D01*
X003764Y004613D01*
X003687Y004536D01*
X003645Y004435D01*
X003645Y004325D01*
X003687Y004224D01*
X003750Y004161D01*
X003750Y004066D01*
X003638Y004066D01*
X003628Y004056D01*
X003618Y004066D01*
X003610Y004066D01*
X003610Y004450D01*
X002995Y005065D01*
X002995Y005155D01*
X002953Y005256D01*
X002876Y005333D01*
X002775Y005375D01*
X002665Y005375D01*
X002564Y005333D01*
X002487Y005256D01*
X002445Y005155D01*
X002445Y005045D01*
X002487Y004944D01*
X002564Y004867D01*
X002665Y004825D01*
X002755Y004825D01*
X003270Y004310D01*
X003270Y004066D01*
X003126Y004066D01*
X003116Y004056D01*
X003106Y004066D01*
X003047Y004066D01*
X003055Y004085D01*
X003055Y004195D01*
X003013Y004296D01*
X002936Y004373D01*
X002835Y004415D01*
X002725Y004415D01*
X002624Y004373D01*
X002547Y004296D01*
X002505Y004195D01*
X002505Y004085D01*
X002543Y003995D01*
X002532Y003984D01*
X001790Y003984D01*
X001790Y003826D02*
X002532Y003826D01*
X002532Y003711D02*
X002529Y003698D01*
X002532Y003693D01*
X002532Y003478D01*
X002568Y003442D01*
X002538Y003442D01*
X002278Y003442D01*
X002232Y003430D01*
X002191Y003406D01*
X002158Y003373D01*
X002134Y003332D01*
X002122Y003286D01*
X002122Y003154D01*
X002122Y003022D01*
X002134Y002976D01*
X002158Y002935D01*
X002191Y002902D01*
X002232Y002878D01*
X002278Y002866D01*
X002538Y002866D01*
X002538Y003154D01*
X002122Y003154D01*
X002538Y003154D01*
X002538Y003154D01*
X002538Y003154D01*
X002538Y003442D01*
X002538Y003154D01*
X002538Y003154D01*
X002538Y002866D01*
X002677Y002866D01*
X002466Y002654D01*
X002244Y002654D01*
X002162Y002572D01*
X002162Y002240D01*
X002172Y002230D01*
X002162Y002241D02*
X001632Y002241D01*
X001569Y002399D02*
X002162Y002399D01*
X002162Y002558D02*
X001727Y002558D01*
X001830Y002716D02*
X002527Y002716D01*
X002538Y002875D02*
X002538Y002875D01*
X002246Y002875D02*
X001320Y002875D01*
X001830Y003033D02*
X002122Y003033D01*
X002538Y003033D02*
X002538Y003033D01*
X002538Y003154D02*
X002710Y003154D01*
X002710Y003154D01*
X002538Y003154D01*
X002538Y003154D01*
X002538Y003192D02*
X002538Y003192D01*
X002538Y003350D02*
X002538Y003350D01*
X002145Y003350D02*
X001580Y003350D01*
X001621Y003509D02*
X002532Y003509D01*
X002532Y003667D02*
X001780Y003667D01*
X002532Y003711D02*
X002532Y003984D01*
X002505Y004143D02*
X001730Y004143D01*
X001572Y004301D02*
X002552Y004301D01*
X003008Y004301D02*
X003270Y004301D01*
X003610Y004301D02*
X003655Y004301D01*
X003655Y004460D02*
X003601Y004460D01*
X003120Y004460D02*
X001572Y004460D01*
X001731Y004618D02*
X002962Y004618D01*
X002803Y004777D02*
X001790Y004777D01*
X001790Y004935D02*
X002496Y004935D01*
X002445Y005094D02*
X001779Y005094D01*
X001621Y005252D02*
X002485Y005252D01*
X002955Y005252D02*
X003285Y005252D01*
X003315Y005094D02*
X002995Y005094D01*
X003125Y004935D02*
X004193Y004935D01*
X004290Y005094D02*
X003805Y005094D01*
X003835Y005252D02*
X003979Y005252D01*
X003885Y005411D02*
X003758Y005411D01*
X003730Y005569D02*
X003811Y005569D01*
X003101Y005411D02*
X001523Y005411D01*
X001682Y005569D02*
X003045Y005569D01*
X002732Y005728D02*
X002732Y005728D01*
X002526Y005728D02*
X001790Y005728D01*
X001790Y005886D02*
X002492Y005886D01*
X002732Y005886D02*
X002732Y005886D01*
X002492Y006045D02*
X001790Y006045D01*
X001670Y006203D02*
X002492Y006203D01*
X004468Y006203D02*
X004809Y006203D01*
X005440Y005643D02*
X005500Y005703D01*
X005560Y005643D01*
X005650Y005643D01*
X005650Y005467D01*
X005560Y005467D01*
X005528Y005434D01*
X005526Y005437D01*
X005492Y005471D01*
X005451Y005495D01*
X005406Y005507D01*
X005184Y005507D01*
X005184Y005148D01*
X005147Y005148D01*
X005147Y005507D01*
X004950Y005507D01*
X004950Y005643D01*
X005440Y005643D01*
X005650Y005569D02*
X004950Y005569D01*
X005147Y005411D02*
X005184Y005411D01*
X005184Y005252D02*
X005147Y005252D01*
X005147Y005112D02*
X005184Y005112D01*
X005184Y004753D01*
X005406Y004753D01*
X005451Y004765D01*
X005492Y004789D01*
X005526Y004823D01*
X005528Y004826D01*
X005560Y004793D01*
X005650Y004793D01*
X005650Y004617D01*
X005560Y004617D01*
X005528Y004584D01*
X005526Y004587D01*
X005492Y004621D01*
X005451Y004645D01*
X005406Y004657D01*
X005184Y004657D01*
X005184Y004298D01*
X005147Y004298D01*
X005147Y004657D01*
X004950Y004657D01*
X004950Y004753D01*
X005147Y004753D01*
X005147Y005112D01*
X005147Y005094D02*
X005184Y005094D01*
X005184Y004935D02*
X005147Y004935D01*
X005147Y004777D02*
X005184Y004777D01*
X005471Y004777D02*
X005650Y004777D01*
X005650Y004618D02*
X005495Y004618D01*
X005184Y004618D02*
X005147Y004618D01*
X005147Y004460D02*
X005184Y004460D01*
X005184Y004301D02*
X005147Y004301D01*
X005147Y004143D02*
X005184Y004143D01*
X005184Y003984D02*
X005147Y003984D01*
X004950Y003826D02*
X005745Y003826D01*
X005804Y003667D02*
X004950Y003667D01*
X004950Y003509D02*
X005436Y003509D01*
X005662Y003509D02*
X005738Y003509D01*
X005964Y003509D02*
X006073Y003509D01*
X006109Y003380D02*
X006609Y003380D01*
X006609Y003380D01*
X006609Y003380D01*
X006609Y003971D01*
X006264Y003971D01*
X006264Y003971D01*
X006609Y003971D01*
X006609Y003971D01*
X006609Y003971D01*
X006609Y003698D01*
X006609Y003380D01*
X006609Y003062D01*
X006609Y002789D01*
X006104Y002789D01*
X006104Y002789D01*
X006609Y002789D01*
X006609Y002789D01*
X006609Y002789D01*
X006609Y003380D01*
X006609Y003380D01*
X006109Y003380D01*
X006109Y003380D01*
X005738Y003350D02*
X005662Y003350D01*
X005662Y003192D02*
X005738Y003192D01*
X005738Y003131D02*
X006116Y003131D01*
X006116Y003172D01*
X006119Y003167D01*
X006160Y003127D01*
X006207Y003095D01*
X006233Y003085D01*
X006207Y003074D01*
X006160Y003042D01*
X006119Y003002D01*
X006116Y002997D01*
X006116Y003055D01*
X005738Y003055D01*
X005738Y003131D01*
X005662Y003055D02*
X005662Y002677D01*
X005440Y002677D01*
X005394Y002689D01*
X005353Y002713D01*
X005320Y002747D01*
X005296Y002788D01*
X005284Y002833D01*
X005284Y003055D01*
X005662Y003055D01*
X005662Y003033D02*
X005738Y003033D01*
X005738Y002875D02*
X005662Y002875D01*
X005662Y002716D02*
X005738Y002716D01*
X005350Y002716D02*
X004950Y002716D01*
X004950Y002875D02*
X005284Y002875D01*
X005284Y003033D02*
X004950Y003033D01*
X004950Y003192D02*
X005284Y003192D01*
X005284Y003350D02*
X004950Y003350D01*
X006116Y003033D02*
X006150Y003033D01*
X006609Y003033D02*
X006609Y003033D01*
X006609Y002875D02*
X006609Y002875D01*
X006609Y002716D02*
X006609Y002716D01*
X006058Y002716D02*
X006050Y002716D01*
X006076Y002558D02*
X006139Y002558D01*
X005324Y002558D02*
X004950Y002558D01*
X004950Y002399D02*
X005324Y002399D01*
X005324Y002241D02*
X004950Y002241D01*
X006609Y003192D02*
X006609Y003192D01*
X006609Y003350D02*
X006609Y003350D01*
X006609Y003380D02*
X006609Y003380D01*
X006609Y003509D02*
X006609Y003509D01*
X006609Y003667D02*
X006609Y003667D01*
X006609Y003826D02*
X006609Y003826D01*
X006609Y003984D02*
X006609Y003984D01*
X006609Y004143D02*
X006609Y004143D01*
X007123Y004618D02*
X009982Y004618D01*
X009823Y004777D02*
X007038Y004777D01*
X006609Y004839D02*
X006609Y004839D01*
X006609Y005152D01*
X006609Y005152D01*
X006191Y005152D01*
X006191Y005152D01*
X006609Y005152D01*
X006609Y005152D01*
X006609Y004839D01*
X006609Y004935D02*
X006609Y004935D01*
X006609Y005094D02*
X006609Y005094D01*
X006609Y005252D02*
X006609Y005252D01*
X006609Y005411D02*
X006609Y005411D01*
X006169Y005411D02*
X006166Y005411D01*
X006030Y005569D02*
X007025Y005569D01*
X007049Y005411D02*
X008925Y005411D01*
X008853Y005569D02*
X008655Y005569D01*
X008737Y005728D02*
X008772Y005728D01*
X008772Y005886D02*
X008737Y005886D01*
X008737Y006045D02*
X008772Y006045D01*
X008772Y006203D02*
X008737Y006203D01*
X008181Y006203D02*
X008146Y006203D01*
X008146Y006045D02*
X008181Y006045D01*
X008181Y005886D02*
X008146Y005886D01*
X008146Y005728D02*
X008181Y005728D01*
X008263Y005569D02*
X008065Y005569D01*
X007278Y005569D02*
X007278Y005569D01*
X007278Y005464D02*
X007278Y006018D01*
X007278Y006018D01*
X007278Y005464D01*
X007154Y005252D02*
X009019Y005252D01*
X009381Y005252D02*
X009505Y005252D01*
X009465Y005094D02*
X007162Y005094D01*
X007094Y004935D02*
X009516Y004935D01*
X010015Y005094D02*
X011025Y005094D01*
X010913Y004935D02*
X010145Y004935D01*
X010304Y004777D02*
X010917Y004777D01*
X011046Y004618D02*
X010462Y004618D01*
X011495Y004935D02*
X012336Y004935D01*
X012285Y005094D02*
X011654Y005094D01*
X011812Y005252D02*
X012325Y005252D01*
X012795Y005252D02*
X013524Y005252D01*
X013996Y005252D02*
X019626Y005252D01*
X019618Y005094D02*
X012835Y005094D01*
X012784Y004935D02*
X019687Y004935D01*
X020172Y004935D02*
X020172Y004935D01*
X020172Y005094D02*
X020172Y005094D01*
X020172Y005252D02*
X020172Y005252D01*
X020172Y005411D02*
X020172Y005411D01*
X019933Y005569D02*
X019892Y005529D01*
X019845Y005497D01*
X019792Y005475D01*
X019736Y005464D01*
X019680Y005464D01*
X019680Y006018D01*
X019680Y006018D01*
X019680Y006018D01*
X019680Y006350D01*
X019680Y006350D01*
X019680Y006018D01*
X019997Y006018D01*
X019997Y005725D01*
X019986Y005669D01*
X019964Y005617D01*
X019933Y005569D01*
X020570Y005569D01*
X020570Y005728D02*
X019997Y005728D01*
X019680Y005728D02*
X019680Y005728D01*
X019680Y005569D02*
X019680Y005569D01*
X019567Y005475D02*
X019514Y005497D01*
X019467Y005529D01*
X019427Y005569D01*
X019395Y005617D01*
X019384Y005642D01*
X019374Y005617D01*
X019342Y005569D01*
X019427Y005569D01*
X019342Y005569D02*
X019302Y005529D01*
X019254Y005497D01*
X019201Y005475D01*
X019145Y005464D01*
X019089Y005464D01*
X019089Y006018D01*
X019089Y006018D01*
X019089Y006018D01*
X019407Y006018D01*
X019680Y006018D01*
X019680Y006018D01*
X019680Y006018D01*
X019680Y005464D01*
X019623Y005464D01*
X019567Y005475D01*
X019732Y005411D02*
X014039Y005411D01*
X013540Y005569D02*
X013380Y005569D01*
X013461Y005728D02*
X013496Y005728D01*
X013496Y005886D02*
X013461Y005886D01*
X013461Y006045D02*
X013496Y006045D01*
X013496Y006203D02*
X013461Y006203D01*
X012906Y006203D02*
X012871Y006203D01*
X012871Y006045D02*
X012906Y006045D01*
X012906Y005886D02*
X012871Y005886D01*
X012871Y005728D02*
X012906Y005728D01*
X012987Y005569D02*
X012789Y005569D01*
X012390Y005569D02*
X012199Y005569D01*
X012280Y005728D02*
X012315Y005728D01*
X012315Y005886D02*
X012280Y005886D01*
X012280Y006045D02*
X012315Y006045D01*
X012315Y006203D02*
X012280Y006203D01*
X011725Y006018D02*
X011412Y006018D01*
X011412Y006018D01*
X011412Y006350D01*
X011412Y006350D01*
X011412Y006018D01*
X011412Y006018D01*
X011725Y006018D01*
X011725Y006018D01*
X011412Y006018D02*
X011412Y005464D01*
X011412Y006018D01*
X011412Y006018D01*
X011099Y006018D01*
X011099Y006018D01*
X011412Y006018D01*
X011412Y006018D01*
X011412Y006045D02*
X011412Y006045D01*
X011412Y006203D02*
X011412Y006203D01*
X011412Y005886D02*
X011412Y005886D01*
X011412Y005728D02*
X011412Y005728D01*
X011412Y005569D02*
X011412Y005569D01*
X011159Y005569D02*
X011018Y005569D01*
X010625Y005569D02*
X010427Y005569D01*
X010034Y005569D02*
X009837Y005569D01*
X009918Y005728D02*
X009953Y005728D01*
X009953Y005886D02*
X009918Y005886D01*
X009918Y006045D02*
X009953Y006045D01*
X009953Y006203D02*
X009918Y006203D01*
X010509Y006203D02*
X010543Y006203D01*
X010543Y006045D02*
X010509Y006045D01*
X010509Y005886D02*
X010543Y005886D01*
X010543Y005728D02*
X010509Y005728D01*
X011490Y005411D02*
X009475Y005411D01*
X009975Y005252D02*
X011332Y005252D01*
X011971Y005411D02*
X012390Y005411D01*
X012730Y005411D02*
X013485Y005411D01*
X014955Y005464D02*
X015011Y005464D01*
X015067Y005475D01*
X015120Y005497D01*
X015168Y005529D01*
X015208Y005569D01*
X015240Y005617D01*
X015250Y005642D01*
X015261Y005617D01*
X015293Y005569D01*
X015333Y005529D01*
X015381Y005497D01*
X015433Y005475D01*
X015490Y005464D01*
X015546Y005464D01*
X015546Y006018D01*
X015546Y006018D01*
X015546Y006018D01*
X014955Y006018D01*
X014955Y006018D01*
X014955Y006018D01*
X014955Y005464D01*
X014955Y005569D02*
X014955Y005569D01*
X015208Y005569D02*
X015293Y005569D01*
X015546Y005569D02*
X015546Y005569D01*
X015546Y005728D02*
X015546Y005728D01*
X015799Y005569D02*
X015830Y005617D01*
X015841Y005642D01*
X015851Y005617D01*
X015883Y005569D01*
X016136Y005569D02*
X016136Y005569D01*
X016248Y005475D02*
X016301Y005497D01*
X016349Y005529D01*
X016389Y005569D01*
X016421Y005617D01*
X016431Y005642D01*
X016442Y005617D01*
X016474Y005569D01*
X016514Y005529D01*
X016562Y005497D01*
X016615Y005475D01*
X016671Y005464D01*
X016727Y005464D01*
X016727Y006018D01*
X016727Y006018D01*
X016727Y006018D01*
X016136Y006018D01*
X016136Y006018D01*
X016136Y005464D01*
X016192Y005464D01*
X016248Y005475D01*
X016389Y005569D02*
X016474Y005569D01*
X016727Y005569D02*
X016727Y005569D01*
X016980Y005569D02*
X017012Y005617D01*
X017022Y005642D01*
X017033Y005617D01*
X017064Y005569D01*
X017317Y005569D02*
X017317Y005569D01*
X017430Y005475D02*
X017482Y005497D01*
X017530Y005529D01*
X017570Y005569D01*
X017602Y005617D01*
X017613Y005642D01*
X017623Y005617D01*
X017655Y005569D01*
X017695Y005529D01*
X017743Y005497D01*
X017796Y005475D01*
X017852Y005464D01*
X017908Y005464D01*
X017908Y006018D01*
X017908Y006018D01*
X017317Y006018D01*
X017317Y006018D01*
X017317Y005464D01*
X017373Y005464D01*
X017430Y005475D01*
X017570Y005569D02*
X017655Y005569D01*
X017908Y005569D02*
X017908Y005569D01*
X017908Y005728D02*
X017908Y005728D01*
X018161Y005569D02*
X018193Y005617D01*
X018203Y005642D01*
X018214Y005617D01*
X018245Y005569D01*
X018498Y005569D02*
X018498Y005569D01*
X018611Y005475D02*
X018663Y005497D01*
X018711Y005529D01*
X018751Y005569D01*
X018783Y005617D01*
X018794Y005642D01*
X018804Y005617D01*
X018836Y005569D01*
X018876Y005529D01*
X018924Y005497D01*
X018977Y005475D01*
X019033Y005464D01*
X019089Y005464D01*
X019089Y006018D01*
X018498Y006018D01*
X018498Y006018D01*
X018498Y005464D01*
X018555Y005464D01*
X018611Y005475D01*
X018751Y005569D02*
X018836Y005569D01*
X019089Y005569D02*
X019089Y005569D01*
X019089Y005728D02*
X019089Y005728D01*
X019089Y005886D02*
X019089Y005886D01*
X019089Y006018D02*
X019089Y006018D01*
X019089Y006045D02*
X019089Y006045D01*
X019089Y006203D02*
X019089Y006203D01*
X019680Y006203D02*
X019680Y006203D01*
X019997Y006203D02*
X020570Y006203D01*
X020570Y006045D02*
X019997Y006045D01*
X019680Y006045D02*
X019680Y006045D01*
X019680Y005886D02*
X019680Y005886D01*
X019997Y005886D02*
X020570Y005886D01*
X018498Y005886D02*
X018498Y005886D01*
X018498Y006045D02*
X018498Y006045D01*
X018498Y006203D02*
X018498Y006203D01*
X017908Y006203D02*
X017908Y006203D01*
X017908Y006045D02*
X017908Y006045D01*
X017908Y005886D02*
X017908Y005886D01*
X017317Y005886D02*
X017317Y005886D01*
X017317Y006045D02*
X017317Y006045D01*
X017317Y006203D02*
X017317Y006203D01*
X016727Y006203D02*
X016727Y006203D01*
X016727Y006045D02*
X016727Y006045D01*
X016727Y005886D02*
X016727Y005886D01*
X016727Y005728D02*
X016727Y005728D01*
X017317Y005728D02*
X017317Y005728D01*
X018498Y005728D02*
X018498Y005728D01*
X016136Y005728D02*
X016136Y005728D01*
X016136Y005886D02*
X016136Y005886D01*
X016136Y006045D02*
X016136Y006045D01*
X016136Y006203D02*
X016136Y006203D01*
X015546Y006203D02*
X015546Y006203D01*
X015546Y006045D02*
X015546Y006045D01*
X015546Y005886D02*
X015546Y005886D01*
X014955Y005886D02*
X014955Y005886D01*
X014955Y006045D02*
X014955Y006045D01*
X014955Y006203D02*
X014955Y006203D01*
X014955Y005728D02*
X014955Y005728D01*
X007278Y005728D02*
X007278Y005728D01*
X006960Y005728D02*
X006191Y005728D01*
X006191Y005886D02*
X006960Y005886D01*
X006960Y006045D02*
X006191Y006045D01*
X006191Y006203D02*
X006960Y006203D01*
X007278Y006203D02*
X007278Y006203D01*
X007278Y006045D02*
X007278Y006045D01*
X007278Y005886D02*
X007278Y005886D01*
X004197Y004777D02*
X003284Y004777D01*
X003442Y004618D02*
X003776Y004618D01*
X004064Y004618D02*
X004326Y004618D01*
X004185Y004460D02*
X004570Y004460D01*
X004532Y004301D02*
X004185Y004301D01*
X004090Y004143D02*
X004428Y004143D01*
X003750Y004143D02*
X003610Y004143D01*
X003270Y004143D02*
X003055Y004143D01*
X002122Y003192D02*
X001738Y003192D01*
X001077Y005411D02*
X001030Y005411D01*
D19*
X002420Y005700D02*
X002420Y003240D01*
X002480Y003180D01*
X002538Y003154D01*
X002420Y003180D01*
X002420Y002880D01*
X001300Y002880D01*
X002538Y003154D02*
X002540Y003180D01*
X002780Y003420D02*
X002900Y003300D01*
X002900Y002820D01*
X002540Y002460D01*
X002538Y002406D01*
X002840Y002040D02*
X001340Y002040D01*
X001340Y001920D01*
X001300Y001880D01*
X002840Y002040D02*
X003560Y002760D01*
X003562Y002780D01*
X003620Y002820D01*
X003620Y002880D01*
X004220Y003480D01*
X004220Y003720D01*
X004268Y003731D01*
X004700Y004080D02*
X004760Y004080D01*
X004760Y001560D01*
X005720Y000600D02*
X006560Y001440D01*
X007220Y000780D01*
X007278Y000742D01*
X007280Y000720D01*
X007580Y001020D02*
X007820Y000780D01*
X007869Y000742D01*
X007580Y001020D02*
X007580Y003000D01*
X006620Y002820D02*
X006609Y002789D01*
X006560Y002820D01*
X006560Y003120D01*
X006560Y003360D01*
X006609Y003380D01*
X006620Y003360D01*
X007100Y003360D01*
X007100Y004740D01*
X006680Y005160D01*
X006609Y005152D01*
X006620Y005160D01*
X007220Y005760D01*
X007220Y006000D01*
X007278Y006018D01*
X007220Y006060D01*
X007220Y006360D01*
X002900Y006360D01*
X002780Y006240D01*
X002780Y006060D01*
X002732Y006029D01*
X002720Y006000D01*
X002420Y005700D01*
X004268Y006029D02*
X004280Y006000D01*
X004760Y006000D01*
X004760Y004080D01*
X005165Y004280D02*
X005180Y004260D01*
X005660Y003780D01*
X005660Y003120D01*
X005700Y003093D01*
X005720Y003120D01*
X006080Y003120D01*
X006080Y002100D01*
X006560Y001620D01*
X006609Y001608D01*
X006620Y001620D01*
X006609Y001608D02*
X006560Y001560D01*
X006560Y001440D01*
X005720Y000600D02*
X005700Y000567D01*
X002780Y000960D02*
X002780Y001200D01*
X002780Y000960D02*
X002600Y000780D01*
X002575Y000780D01*
X006080Y003120D02*
X006560Y003120D01*
X007100Y003360D02*
X007640Y003360D01*
X007670Y003330D01*
X007700Y003360D01*
X007700Y003420D01*
X009500Y005220D01*
X009500Y005400D01*
X010820Y005400D01*
X010850Y005430D01*
X010880Y005400D01*
X010880Y004560D01*
X013520Y004560D01*
X014660Y005700D01*
X014660Y005760D01*
X014900Y006000D01*
X014955Y006018D01*
X014960Y006000D01*
X015500Y006000D01*
X015546Y006018D01*
X015560Y006000D01*
X016100Y006000D01*
X016136Y006018D01*
X016160Y006000D01*
X016700Y006000D01*
X016727Y006018D01*
X016760Y006000D01*
X017300Y006000D01*
X017317Y006018D01*
X017360Y006000D01*
X017900Y006000D01*
X017908Y006018D01*
X017960Y006000D01*
X018440Y006000D01*
X018498Y006018D01*
X018500Y006000D01*
X019040Y006000D01*
X019089Y006018D01*
X019100Y006000D01*
X019640Y006000D01*
X019680Y006018D01*
X019700Y006000D01*
X020120Y005580D01*
X020120Y005160D01*
X020172Y005152D01*
X020180Y005160D01*
X020172Y005152D02*
X020180Y005100D01*
X020180Y004620D01*
X020172Y004561D01*
X020180Y004560D01*
X020180Y004020D01*
X020172Y003971D01*
X020180Y003960D01*
X020180Y003420D01*
X020172Y003380D01*
X020180Y003360D01*
X020180Y002820D01*
X020172Y002789D01*
X020180Y002760D01*
X020180Y002220D01*
X020172Y002199D01*
X020180Y002160D01*
X020180Y001620D01*
X020172Y001608D01*
X020120Y001560D01*
X020120Y000780D01*
X017960Y000780D01*
X017908Y000742D01*
X017900Y000720D01*
X017360Y000720D01*
X017317Y000742D01*
X017300Y000720D01*
X016760Y000720D01*
X016727Y000742D01*
X016700Y000720D01*
X016160Y000720D01*
X016136Y000742D01*
X016100Y000720D01*
X015560Y000720D01*
X015546Y000742D01*
X015500Y000720D01*
X014960Y000720D01*
X014955Y000742D01*
X010231Y000742D02*
X010220Y000780D01*
X007670Y003330D01*
X006620Y003420D02*
X006609Y003380D01*
X006620Y003420D02*
X006620Y003960D01*
X006609Y003971D01*
X006020Y003840D02*
X005840Y004020D01*
X005840Y004260D01*
X005835Y004280D01*
X005840Y004320D01*
X005840Y005100D01*
X005835Y005130D01*
X005840Y005160D01*
X005840Y005940D01*
X005835Y005980D01*
X005165Y005980D02*
X005120Y006000D01*
X004760Y006000D01*
X007278Y006018D02*
X007280Y006000D01*
X005180Y005100D02*
X005165Y005130D01*
X005180Y005100D02*
X005180Y004320D01*
X005165Y004280D01*
X002780Y004140D02*
X002780Y003780D01*
X002732Y003731D01*
X002780Y003720D01*
X002780Y003420D01*
X010850Y005430D02*
X011120Y005700D01*
X011120Y005760D01*
X011360Y006000D01*
X011412Y006018D01*
X011420Y006000D01*
X013760Y005400D02*
X014360Y006000D01*
X014365Y006018D01*
X010231Y000742D02*
X010220Y000720D01*
M02*
