G75*
G70*
%OFA0B0*%
%FSLAX24Y24*%
%IPPOS*%
%LPD*%
%AMOC8*
5,1,8,0,0,1.08239X$1,22.5*
%
%ADD10C,0.0000*%
%ADD11C,0.0030*%
D10*
X001058Y000998D02*
X001058Y009994D01*
X016058Y009994D01*
X016058Y000998D01*
X001058Y000998D01*
D11*
X010893Y008024D02*
X010954Y007963D01*
X011078Y007963D01*
X011139Y008024D01*
X010893Y008271D01*
X010893Y008024D01*
X011139Y008024D02*
X011139Y008271D01*
X011078Y008333D01*
X010954Y008333D01*
X010893Y008271D01*
X011262Y008024D02*
X011262Y007963D01*
X011324Y007963D01*
X011324Y008024D01*
X011262Y008024D01*
X011445Y007963D02*
X011692Y007963D01*
X011568Y007963D02*
X011568Y008333D01*
X011692Y008210D01*
X011813Y008210D02*
X011937Y007963D01*
X012060Y008210D01*
X012550Y008210D02*
X012612Y008148D01*
X012797Y008148D01*
X012918Y008210D02*
X012980Y008148D01*
X013165Y008148D01*
X012980Y008148D02*
X012918Y008086D01*
X012918Y008024D01*
X012980Y007963D01*
X013165Y007963D01*
X013165Y008333D01*
X012980Y008333D01*
X012918Y008271D01*
X012918Y008210D01*
X012797Y008333D02*
X012612Y008333D01*
X012550Y008271D01*
X012550Y008210D01*
X012612Y008148D02*
X012550Y008086D01*
X012550Y008024D01*
X012612Y007963D01*
X012797Y007963D01*
X012797Y008333D01*
X012980Y007795D02*
X012980Y007733D01*
X012980Y007610D02*
X012980Y007301D01*
X013042Y007239D01*
X013104Y007239D01*
X012858Y007363D02*
X012797Y007363D01*
X012797Y007424D01*
X012858Y007424D01*
X012858Y007363D01*
X012674Y007363D02*
X012674Y007610D01*
X012489Y007610D01*
X012427Y007548D01*
X012427Y007363D01*
X012306Y007424D02*
X012306Y007548D01*
X012244Y007610D01*
X012121Y007610D01*
X012059Y007548D01*
X012059Y007486D01*
X012306Y007486D01*
X012306Y007424D02*
X012244Y007363D01*
X012121Y007363D01*
X011876Y007424D02*
X011814Y007363D01*
X011876Y007424D02*
X011876Y007671D01*
X011938Y007610D02*
X011814Y007610D01*
X013225Y007548D02*
X013225Y007486D01*
X013472Y007486D01*
X013472Y007424D02*
X013472Y007548D01*
X013410Y007610D01*
X013287Y007610D01*
X013225Y007548D01*
X013287Y007363D02*
X013410Y007363D01*
X013472Y007424D01*
X013594Y007548D02*
X013718Y007548D01*
X013839Y007610D02*
X013901Y007610D01*
X014025Y007486D01*
X014025Y007363D02*
X014025Y007610D01*
X014146Y007548D02*
X014208Y007610D01*
X014331Y007610D01*
X014393Y007548D01*
X014393Y007424D01*
X014331Y007363D01*
X014208Y007363D01*
X014146Y007424D01*
X014146Y007548D01*
X014515Y007610D02*
X014638Y007610D01*
X014577Y007671D02*
X014577Y007424D01*
X014515Y007363D01*
X014760Y007363D02*
X014945Y007363D01*
X015007Y007424D01*
X015007Y007548D01*
X014945Y007610D01*
X014760Y007610D01*
X015128Y007548D02*
X015128Y007486D01*
X015375Y007486D01*
X015375Y007424D02*
X015375Y007548D01*
X015313Y007610D01*
X015190Y007610D01*
X015128Y007548D01*
X015190Y007363D02*
X015313Y007363D01*
X015375Y007424D01*
X015496Y007424D02*
X015558Y007363D01*
X015743Y007363D01*
X015558Y007486D02*
X015496Y007424D01*
X015558Y007486D02*
X015682Y007486D01*
X015743Y007548D01*
X015682Y007610D01*
X015496Y007610D01*
X015558Y007963D02*
X015743Y007963D01*
X015743Y008333D01*
X015558Y008333D01*
X015496Y008271D01*
X015496Y008210D01*
X015558Y008148D01*
X015743Y008148D01*
X015558Y008148D02*
X015496Y008086D01*
X015496Y008024D01*
X015558Y007963D01*
X015375Y007963D02*
X015128Y007963D01*
X015007Y007963D02*
X014760Y007963D01*
X014638Y007963D02*
X014391Y007963D01*
X014270Y007963D02*
X014023Y007963D01*
X013902Y007963D02*
X013655Y008210D01*
X013655Y008271D01*
X013717Y008333D01*
X013840Y008333D01*
X013902Y008271D01*
X014147Y008333D02*
X014270Y008210D01*
X014147Y008333D02*
X014147Y007963D01*
X013902Y007963D02*
X013655Y007963D01*
X013594Y007733D02*
X013656Y007671D01*
X013656Y007363D01*
X014515Y007963D02*
X014515Y008333D01*
X014638Y008210D01*
X014760Y008333D02*
X015007Y008333D01*
X015007Y007963D01*
X015007Y008148D02*
X014883Y008148D01*
X015375Y008333D02*
X015375Y007963D01*
M02*
