G75*
G70*
%OFA0B0*%
%FSLAX24Y24*%
%IPPOS*%
%LPD*%
%AMOC8*
5,1,8,0,0,1.08239X$1,22.5*
%
%ADD10C,0.0000*%
%ADD11C,0.0030*%
%ADD12C,0.0040*%
%ADD13C,0.0160*%
%ADD14C,0.0060*%
%ADD15C,0.0020*%
%ADD16C,0.0100*%
%ADD17R,0.0150X0.0200*%
%ADD18C,0.0050*%
D10*
X001058Y000998D02*
X001058Y009994D01*
X016058Y009994D01*
X016058Y000998D01*
X001058Y000998D01*
D11*
X001273Y002113D02*
X001467Y002113D01*
X001370Y002113D02*
X001370Y002403D01*
X001273Y002306D01*
X001568Y002258D02*
X001568Y002161D01*
X001616Y002113D01*
X001713Y002113D01*
X001761Y002161D01*
X001761Y002210D01*
X001713Y002258D01*
X001568Y002258D01*
X001665Y002355D01*
X001761Y002403D01*
X003500Y002361D02*
X003500Y002506D01*
X003597Y002458D02*
X003597Y002361D01*
X003548Y002313D01*
X003500Y002361D01*
X003597Y002458D02*
X003645Y002506D01*
X003693Y002458D01*
X003693Y002313D01*
X003923Y002313D02*
X003923Y002498D01*
X003985Y002560D01*
X004046Y002560D01*
X004108Y002498D01*
X004108Y002313D01*
X004108Y002498D02*
X004170Y002560D01*
X004232Y002560D01*
X004293Y002498D01*
X004293Y002313D01*
X003923Y002313D01*
X003645Y002607D02*
X003548Y002607D01*
X003500Y002656D01*
X003500Y002753D01*
X003548Y002801D01*
X003597Y002801D01*
X003597Y002607D01*
X003645Y002607D02*
X003693Y002656D01*
X003693Y002753D01*
X003645Y002902D02*
X003693Y002950D01*
X003693Y003096D01*
X003645Y003245D02*
X003451Y003245D01*
X003500Y003197D02*
X003500Y003293D01*
X003548Y003393D02*
X003645Y003393D01*
X003693Y003441D01*
X003693Y003538D01*
X003645Y003587D01*
X003548Y003587D01*
X003500Y003538D01*
X003500Y003441D01*
X003548Y003393D01*
X003645Y003245D02*
X003693Y003293D01*
X003500Y003096D02*
X003500Y002950D01*
X003548Y002902D01*
X003645Y002902D01*
X003923Y003049D02*
X004293Y003049D01*
X004293Y003296D01*
X004108Y003173D02*
X004108Y003049D01*
X003923Y003049D02*
X003923Y003296D01*
X004046Y003418D02*
X003923Y003541D01*
X004293Y003541D01*
X004293Y003418D02*
X004293Y003665D01*
X004293Y003786D02*
X004293Y004033D01*
X004293Y004154D02*
X004046Y004401D01*
X003985Y004401D01*
X003923Y004339D01*
X003923Y004216D01*
X003985Y004154D01*
X003923Y003909D02*
X004293Y003909D01*
X004046Y003786D02*
X003923Y003909D01*
X003693Y003982D02*
X003451Y003982D01*
X003403Y004030D01*
X003548Y004030D02*
X003548Y003933D01*
X003500Y003833D02*
X003500Y003785D01*
X003597Y003688D01*
X003693Y003688D02*
X003500Y003688D01*
X003548Y004130D02*
X003500Y004178D01*
X003500Y004275D01*
X003548Y004323D01*
X003597Y004323D01*
X003597Y004130D01*
X003645Y004130D02*
X003548Y004130D01*
X003645Y004130D02*
X003693Y004178D01*
X003693Y004275D01*
X003790Y004424D02*
X003790Y004473D01*
X003742Y004521D01*
X003500Y004521D01*
X003403Y004521D02*
X003355Y004521D01*
X003500Y004768D02*
X003500Y004913D01*
X003548Y004962D01*
X003693Y004962D01*
X003645Y005063D02*
X003548Y005063D01*
X003500Y005111D01*
X003500Y005208D01*
X003548Y005256D01*
X003597Y005256D01*
X003597Y005063D01*
X003645Y005063D02*
X003693Y005111D01*
X003693Y005208D01*
X003500Y005357D02*
X003500Y005454D01*
X003451Y005406D02*
X003645Y005406D01*
X003693Y005454D01*
X003923Y005444D02*
X003923Y005259D01*
X004293Y005259D01*
X004293Y005444D01*
X004232Y005506D01*
X004170Y005506D01*
X004108Y005444D01*
X004108Y005259D01*
X004046Y005138D02*
X003985Y005138D01*
X003923Y005076D01*
X003923Y004891D01*
X004293Y004891D01*
X004293Y005076D01*
X004232Y005138D01*
X004170Y005138D01*
X004108Y005076D01*
X004108Y004891D01*
X004108Y005076D02*
X004046Y005138D01*
X004108Y005444D02*
X004046Y005506D01*
X003985Y005506D01*
X003923Y005444D01*
X004046Y005996D02*
X004293Y006119D01*
X004046Y006243D01*
X004046Y006364D02*
X003923Y006488D01*
X004293Y006488D01*
X004293Y006611D02*
X004293Y006364D01*
X004293Y006732D02*
X004293Y006794D01*
X004232Y006794D01*
X004232Y006732D01*
X004293Y006732D01*
X004232Y006917D02*
X003985Y007163D01*
X004232Y007163D01*
X004293Y007102D01*
X004293Y006978D01*
X004232Y006917D01*
X003985Y006917D01*
X003923Y006978D01*
X003923Y007102D01*
X003985Y007163D01*
X004973Y006855D02*
X004973Y006661D01*
X005022Y006613D01*
X005118Y006613D01*
X005167Y006661D01*
X005268Y006613D02*
X005461Y006806D01*
X005461Y006855D01*
X005413Y006903D01*
X005316Y006903D01*
X005268Y006855D01*
X005167Y006855D02*
X005118Y006903D01*
X005022Y006903D01*
X004973Y006855D01*
X005268Y006613D02*
X005461Y006613D01*
X005461Y007813D02*
X005268Y007813D01*
X005365Y007813D02*
X005365Y008103D01*
X005268Y008006D01*
X005167Y008055D02*
X005118Y008103D01*
X005022Y008103D01*
X004973Y008055D01*
X004973Y007861D01*
X005022Y007813D01*
X005118Y007813D01*
X005167Y007861D01*
X003361Y008413D02*
X003168Y008413D01*
X003265Y008413D02*
X003265Y008703D01*
X003168Y008606D01*
X002873Y008703D02*
X002873Y008413D01*
X003067Y008413D01*
X001761Y008661D02*
X001713Y008613D01*
X001616Y008613D01*
X001568Y008661D01*
X001568Y008758D02*
X001665Y008806D01*
X001713Y008806D01*
X001761Y008758D01*
X001761Y008661D01*
X001568Y008758D02*
X001568Y008903D01*
X001761Y008903D01*
X001370Y008903D02*
X001370Y008613D01*
X001273Y008613D02*
X001467Y008613D01*
X001273Y008806D02*
X001370Y008903D01*
X002601Y006185D02*
X002698Y006185D01*
X002747Y006136D01*
X002747Y005991D01*
X002843Y005991D02*
X002553Y005991D01*
X002553Y006136D01*
X002601Y006185D01*
X002747Y006088D02*
X002843Y006185D01*
X002843Y005890D02*
X002843Y005697D01*
X002553Y005697D01*
X002553Y005890D01*
X002698Y005793D02*
X002698Y005697D01*
X002843Y005596D02*
X002553Y005596D01*
X002553Y005402D02*
X002843Y005402D01*
X002747Y005499D01*
X002843Y005596D01*
X002795Y005301D02*
X002601Y005301D01*
X002553Y005253D01*
X002553Y005156D01*
X002601Y005107D01*
X002795Y005107D01*
X002843Y005156D01*
X002843Y005253D01*
X002795Y005301D01*
X002698Y005006D02*
X002601Y005006D01*
X002553Y004958D01*
X002553Y004813D01*
X002843Y004813D01*
X002747Y004813D02*
X002747Y004958D01*
X002698Y005006D01*
X002395Y005010D02*
X002201Y005010D01*
X002298Y005106D02*
X002298Y004913D01*
X003500Y004768D02*
X003693Y004768D01*
X003693Y004669D02*
X003693Y004621D01*
X003645Y004621D01*
X003645Y004669D01*
X003693Y004669D01*
X004293Y004401D02*
X004293Y004154D01*
X004293Y002928D02*
X004293Y002681D01*
X003923Y002681D01*
X008373Y002355D02*
X008422Y002403D01*
X008518Y002403D01*
X008567Y002355D01*
X008567Y002306D01*
X008373Y002113D01*
X008567Y002113D01*
X008668Y002113D02*
X008861Y002306D01*
X008861Y002355D01*
X008813Y002403D01*
X008716Y002403D01*
X008668Y002355D01*
X008668Y002113D02*
X008861Y002113D01*
X009619Y003814D02*
X009619Y004007D01*
X009812Y003814D01*
X009861Y003814D01*
X009909Y003862D01*
X009909Y003959D01*
X009861Y004007D01*
X009861Y004108D02*
X009909Y004157D01*
X009909Y004253D01*
X009861Y004302D01*
X009812Y004108D02*
X009619Y004302D01*
X009619Y004108D01*
X009812Y004108D02*
X009861Y004108D01*
X013556Y004157D02*
X013556Y004253D01*
X013604Y004302D01*
X013701Y004205D02*
X013701Y004157D01*
X013653Y004108D01*
X013604Y004108D01*
X013556Y004157D01*
X013701Y004157D02*
X013749Y004108D01*
X013798Y004108D01*
X013846Y004157D01*
X013846Y004253D01*
X013798Y004302D01*
X013798Y004007D02*
X013604Y004007D01*
X013798Y003814D01*
X013604Y003814D01*
X013556Y003862D01*
X013556Y003959D01*
X013604Y004007D01*
X013798Y004007D02*
X013846Y003959D01*
X013846Y003862D01*
X013798Y003814D01*
X015373Y002355D02*
X015422Y002403D01*
X015518Y002403D01*
X015567Y002355D01*
X015567Y002306D01*
X015518Y002258D01*
X015567Y002210D01*
X015567Y002161D01*
X015518Y002113D01*
X015422Y002113D01*
X015373Y002161D01*
X015470Y002258D02*
X015518Y002258D01*
X015668Y002161D02*
X015668Y002355D01*
X015716Y002403D01*
X015813Y002403D01*
X015861Y002355D01*
X015668Y002161D01*
X015716Y002113D01*
X015813Y002113D01*
X015861Y002161D01*
X015861Y002355D01*
X009909Y006756D02*
X009861Y006707D01*
X009812Y006707D01*
X009764Y006756D01*
X009716Y006707D01*
X009667Y006707D01*
X009619Y006756D01*
X009619Y006852D01*
X009667Y006901D01*
X009619Y007002D02*
X009619Y007195D01*
X009619Y007099D02*
X009909Y007099D01*
X009812Y007195D01*
X009861Y006901D02*
X009909Y006852D01*
X009909Y006756D01*
X009764Y006756D02*
X009764Y006804D01*
X008618Y008613D02*
X008522Y008613D01*
X008473Y008661D01*
X008473Y008710D01*
X008522Y008758D01*
X008618Y008758D01*
X008667Y008710D01*
X008667Y008661D01*
X008618Y008613D01*
X008618Y008758D02*
X008667Y008806D01*
X008667Y008855D01*
X008618Y008903D01*
X008522Y008903D01*
X008473Y008855D01*
X008473Y008806D01*
X008522Y008758D01*
X002298Y006106D02*
X002298Y005913D01*
X015544Y007002D02*
X015544Y007195D01*
X015544Y007099D02*
X015834Y007099D01*
X015738Y007195D01*
X015667Y008613D02*
X015473Y008613D01*
X015570Y008613D02*
X015570Y008903D01*
X015473Y008806D01*
D12*
X013303Y006155D02*
X013303Y006078D01*
X013303Y005925D02*
X013227Y005925D01*
X013303Y005925D02*
X013303Y005618D01*
X013227Y005618D02*
X013380Y005618D01*
X013533Y005694D02*
X013610Y005618D01*
X013840Y005618D01*
X013840Y005541D02*
X013840Y005925D01*
X013610Y005925D01*
X013533Y005848D01*
X013533Y005694D01*
X013687Y005464D02*
X013764Y005464D01*
X013840Y005541D01*
X013994Y005694D02*
X014071Y005771D01*
X014301Y005771D01*
X014301Y005848D02*
X014224Y005925D01*
X014071Y005925D01*
X014301Y005848D02*
X014301Y005618D01*
X014071Y005618D01*
X013994Y005694D01*
X013610Y005278D02*
X013457Y005278D01*
X013380Y005201D01*
X013610Y005278D02*
X013687Y005201D01*
X013687Y005125D01*
X013380Y004818D01*
X013687Y004818D01*
X013840Y005048D02*
X014147Y005048D01*
X014301Y005048D02*
X014608Y005048D01*
X014608Y005125D02*
X014608Y004818D01*
X014301Y004818D02*
X014301Y005125D01*
X014454Y005278D01*
X014608Y005125D01*
X013227Y004818D02*
X012920Y004818D01*
X013073Y004818D02*
X013073Y005278D01*
X012920Y005125D01*
X012613Y005278D02*
X012613Y004818D01*
X012766Y004818D02*
X012459Y004818D01*
X012306Y004818D02*
X011999Y004818D01*
X011999Y005278D01*
X012306Y005278D01*
X012459Y005125D02*
X012613Y005278D01*
X012920Y005464D02*
X012996Y005464D01*
X013073Y005541D01*
X013073Y005925D01*
X012843Y005925D01*
X012766Y005848D01*
X012766Y005694D01*
X012843Y005618D01*
X013073Y005618D01*
X012613Y005771D02*
X012613Y005848D01*
X012536Y005925D01*
X012383Y005925D01*
X012306Y005848D01*
X012306Y005694D01*
X012383Y005618D01*
X012536Y005618D01*
X012613Y005771D02*
X012306Y005771D01*
X012152Y005618D02*
X012152Y005925D01*
X011846Y005925D02*
X011846Y005694D01*
X011922Y005618D01*
X012152Y005618D01*
X011692Y005618D02*
X011539Y005618D01*
X011615Y005618D02*
X011615Y006078D01*
X011539Y006078D01*
X011385Y006001D02*
X011385Y005925D01*
X011308Y005848D01*
X011078Y005848D01*
X011078Y005618D02*
X011078Y006078D01*
X011308Y006078D01*
X011385Y006001D01*
X011308Y005848D02*
X011385Y005771D01*
X011385Y005694D01*
X011308Y005618D01*
X011078Y005618D01*
X011078Y005278D02*
X011308Y005278D01*
X011385Y005201D01*
X011385Y005125D01*
X011308Y005048D01*
X011078Y005048D01*
X011078Y004818D02*
X011078Y005278D01*
X011308Y005048D02*
X011385Y004971D01*
X011385Y004894D01*
X011308Y004818D01*
X011078Y004818D01*
X011539Y004818D02*
X011846Y004818D01*
X011999Y005048D02*
X012152Y005048D01*
X011539Y005278D02*
X011539Y004818D01*
D13*
X002058Y004498D02*
X002058Y006498D01*
X001058Y006498D01*
X001058Y004498D01*
X002058Y004498D01*
D14*
X001808Y004498D02*
X001308Y004498D01*
X001058Y004748D01*
X001058Y005248D01*
X001308Y005498D01*
X001058Y005748D01*
X001058Y006248D01*
X001308Y006498D01*
X001808Y006498D01*
X002058Y006248D01*
X002058Y005748D01*
X001808Y005498D01*
X002058Y005248D01*
X002058Y004748D01*
X001808Y004498D01*
X001808Y005498D02*
X001308Y005498D01*
X002158Y007498D02*
X002308Y007498D01*
X002358Y007548D01*
X003758Y007548D01*
X003808Y007498D01*
X003958Y007498D01*
X003975Y007500D01*
X003992Y007504D01*
X004008Y007511D01*
X004022Y007521D01*
X004035Y007534D01*
X004045Y007548D01*
X004052Y007564D01*
X004056Y007581D01*
X004058Y007598D01*
X004058Y008198D01*
X004056Y008215D01*
X004052Y008232D01*
X004045Y008248D01*
X004035Y008262D01*
X004022Y008275D01*
X004008Y008285D01*
X003992Y008292D01*
X003975Y008296D01*
X003958Y008298D01*
X003808Y008298D01*
X003758Y008248D01*
X002358Y008248D01*
X002308Y008298D01*
X002158Y008298D01*
X002141Y008296D01*
X002124Y008292D01*
X002108Y008285D01*
X002094Y008275D01*
X002081Y008262D01*
X002071Y008248D01*
X002064Y008232D01*
X002060Y008215D01*
X002058Y008198D01*
X002058Y007598D01*
X002060Y007581D01*
X002064Y007564D01*
X002071Y007548D01*
X002081Y007534D01*
X002094Y007521D01*
X002108Y007511D01*
X002124Y007504D01*
X002141Y007500D01*
X002158Y007498D01*
X002408Y007598D02*
X002408Y008198D01*
X002410Y008215D01*
X002414Y008232D01*
X002421Y008248D01*
X002431Y008262D01*
X002444Y008275D01*
X002458Y008285D01*
X002474Y008292D01*
X002491Y008296D01*
X002508Y008298D01*
X003608Y008298D01*
X003625Y008296D01*
X003642Y008292D01*
X003658Y008285D01*
X003672Y008275D01*
X003685Y008262D01*
X003695Y008248D01*
X003702Y008232D01*
X003706Y008215D01*
X003708Y008198D01*
X003708Y007598D01*
X003706Y007581D01*
X003702Y007564D01*
X003695Y007548D01*
X003685Y007534D01*
X003672Y007521D01*
X003658Y007511D01*
X003642Y007504D01*
X003625Y007500D01*
X003608Y007498D01*
X002508Y007498D01*
X002491Y007500D01*
X002474Y007504D01*
X002458Y007511D01*
X002444Y007521D01*
X002431Y007534D01*
X002421Y007548D01*
X002414Y007564D01*
X002410Y007581D01*
X002408Y007598D01*
X002308Y008998D02*
X002058Y009248D01*
X001808Y008998D01*
X001308Y008998D01*
X001058Y009248D01*
X001058Y009748D01*
X001308Y009998D01*
X001808Y009998D01*
X002058Y009748D01*
X002308Y009998D01*
X002808Y009998D01*
X003058Y009748D01*
X003058Y009248D01*
X002808Y008998D01*
X002308Y008998D01*
X002058Y009248D02*
X002058Y009748D01*
X003058Y009748D02*
X003308Y009998D01*
X003808Y009998D01*
X004058Y009748D01*
X004308Y009998D01*
X004808Y009998D01*
X005058Y009748D01*
X005308Y009998D01*
X005808Y009998D01*
X006058Y009748D01*
X006058Y009248D01*
X005808Y008998D01*
X005308Y008998D01*
X005058Y009248D01*
X004808Y008998D01*
X004308Y008998D01*
X004058Y009248D01*
X003808Y008998D01*
X003308Y008998D01*
X003058Y009248D01*
X004058Y009248D02*
X004058Y009748D01*
X005058Y009748D02*
X005058Y009248D01*
X006058Y009248D02*
X006308Y008998D01*
X006808Y008998D01*
X007058Y009248D01*
X007308Y008998D01*
X007808Y008998D01*
X008058Y009248D01*
X008308Y008998D01*
X008808Y008998D01*
X009058Y009248D01*
X009058Y009748D01*
X008808Y009998D01*
X008308Y009998D01*
X008058Y009748D01*
X008058Y009248D01*
X008058Y009748D02*
X007808Y009998D01*
X007308Y009998D01*
X007058Y009748D01*
X007058Y009248D01*
X007058Y009748D02*
X006808Y009998D01*
X006308Y009998D01*
X006058Y009748D01*
X005708Y008498D02*
X007408Y008498D01*
X007425Y008496D01*
X007442Y008492D01*
X007458Y008485D01*
X007472Y008475D01*
X007485Y008462D01*
X007495Y008448D01*
X007502Y008432D01*
X007506Y008415D01*
X007508Y008398D01*
X007508Y007598D01*
X007506Y007581D01*
X007502Y007564D01*
X007495Y007548D01*
X007485Y007534D01*
X007472Y007521D01*
X007458Y007511D01*
X007442Y007504D01*
X007425Y007500D01*
X007408Y007498D01*
X005708Y007498D01*
X005691Y007500D01*
X005674Y007504D01*
X005658Y007511D01*
X005644Y007521D01*
X005631Y007534D01*
X005621Y007548D01*
X005614Y007564D01*
X005610Y007581D01*
X005608Y007598D01*
X005608Y008398D01*
X005610Y008415D01*
X005614Y008432D01*
X005621Y008448D01*
X005631Y008462D01*
X005644Y008475D01*
X005658Y008485D01*
X005674Y008492D01*
X005691Y008496D01*
X005708Y008498D01*
X006408Y007998D02*
X006458Y007998D01*
X006658Y007998D02*
X006708Y007998D01*
X007408Y007298D02*
X005708Y007298D01*
X005691Y007296D01*
X005674Y007292D01*
X005658Y007285D01*
X005644Y007275D01*
X005631Y007262D01*
X005621Y007248D01*
X005614Y007232D01*
X005610Y007215D01*
X005608Y007198D01*
X005608Y006398D01*
X005610Y006381D01*
X005614Y006364D01*
X005621Y006348D01*
X005631Y006334D01*
X005644Y006321D01*
X005658Y006311D01*
X005674Y006304D01*
X005691Y006300D01*
X005708Y006298D01*
X007408Y006298D01*
X007425Y006300D01*
X007442Y006304D01*
X007458Y006311D01*
X007472Y006321D01*
X007485Y006334D01*
X007495Y006348D01*
X007502Y006364D01*
X007506Y006381D01*
X007508Y006398D01*
X007508Y007198D01*
X007506Y007215D01*
X007502Y007232D01*
X007495Y007248D01*
X007485Y007262D01*
X007472Y007275D01*
X007458Y007285D01*
X007442Y007292D01*
X007425Y007296D01*
X007408Y007298D01*
X006708Y006798D02*
X006658Y006798D01*
X006458Y006798D02*
X006408Y006798D01*
X006158Y005548D02*
X006158Y005448D01*
X006058Y005448D01*
X006158Y005548D02*
X006758Y005548D01*
X006758Y005448D01*
X006858Y005448D01*
X007658Y005098D02*
X007658Y004748D01*
X007658Y003748D01*
X007658Y003398D01*
X006858Y003048D02*
X006758Y003048D01*
X006758Y002948D01*
X006158Y002948D01*
X006158Y003048D01*
X006058Y003048D01*
X005258Y003398D02*
X005258Y003798D01*
X005258Y004748D01*
X005258Y005098D01*
X006358Y004248D02*
X006360Y004268D01*
X006366Y004286D01*
X006375Y004304D01*
X006387Y004319D01*
X006402Y004331D01*
X006420Y004340D01*
X006438Y004346D01*
X006458Y004348D01*
X006478Y004346D01*
X006496Y004340D01*
X006514Y004331D01*
X006529Y004319D01*
X006541Y004304D01*
X006550Y004286D01*
X006556Y004268D01*
X006558Y004248D01*
X006556Y004228D01*
X006550Y004210D01*
X006541Y004192D01*
X006529Y004177D01*
X006514Y004165D01*
X006496Y004156D01*
X006478Y004150D01*
X006458Y004148D01*
X006438Y004150D01*
X006420Y004156D01*
X006402Y004165D01*
X006387Y004177D01*
X006375Y004192D01*
X006366Y004210D01*
X006360Y004228D01*
X006358Y004248D01*
X005758Y004248D02*
X005760Y004300D01*
X005766Y004352D01*
X005776Y004404D01*
X005789Y004454D01*
X005806Y004504D01*
X005827Y004552D01*
X005852Y004598D01*
X005880Y004642D01*
X005911Y004684D01*
X005945Y004724D01*
X005982Y004761D01*
X006022Y004795D01*
X006064Y004826D01*
X006108Y004854D01*
X006154Y004879D01*
X006202Y004900D01*
X006252Y004917D01*
X006302Y004930D01*
X006354Y004940D01*
X006406Y004946D01*
X006458Y004948D01*
X006510Y004946D01*
X006562Y004940D01*
X006614Y004930D01*
X006664Y004917D01*
X006714Y004900D01*
X006762Y004879D01*
X006808Y004854D01*
X006852Y004826D01*
X006894Y004795D01*
X006934Y004761D01*
X006971Y004724D01*
X007005Y004684D01*
X007036Y004642D01*
X007064Y004598D01*
X007089Y004552D01*
X007110Y004504D01*
X007127Y004454D01*
X007140Y004404D01*
X007150Y004352D01*
X007156Y004300D01*
X007158Y004248D01*
X007156Y004196D01*
X007150Y004144D01*
X007140Y004092D01*
X007127Y004042D01*
X007110Y003992D01*
X007089Y003944D01*
X007064Y003898D01*
X007036Y003854D01*
X007005Y003812D01*
X006971Y003772D01*
X006934Y003735D01*
X006894Y003701D01*
X006852Y003670D01*
X006808Y003642D01*
X006762Y003617D01*
X006714Y003596D01*
X006664Y003579D01*
X006614Y003566D01*
X006562Y003556D01*
X006510Y003550D01*
X006458Y003548D01*
X006406Y003550D01*
X006354Y003556D01*
X006302Y003566D01*
X006252Y003579D01*
X006202Y003596D01*
X006154Y003617D01*
X006108Y003642D01*
X006064Y003670D01*
X006022Y003701D01*
X005982Y003735D01*
X005945Y003772D01*
X005911Y003812D01*
X005880Y003854D01*
X005852Y003898D01*
X005827Y003944D01*
X005806Y003992D01*
X005789Y004042D01*
X005776Y004092D01*
X005766Y004144D01*
X005760Y004196D01*
X005758Y004248D01*
X005808Y001998D02*
X005308Y001998D01*
X005058Y001748D01*
X005058Y001248D01*
X005308Y000998D01*
X005808Y000998D01*
X006058Y001248D01*
X006058Y001748D01*
X005808Y001998D01*
X006058Y001748D02*
X006308Y001998D01*
X006808Y001998D01*
X007058Y001748D01*
X007308Y001998D01*
X007808Y001998D01*
X008058Y001748D01*
X008308Y001998D01*
X008808Y001998D01*
X009058Y001748D01*
X009308Y001998D01*
X009808Y001998D01*
X010058Y001748D01*
X010308Y001998D01*
X010808Y001998D01*
X011058Y001748D01*
X011308Y001998D01*
X011808Y001998D01*
X012058Y001748D01*
X012308Y001998D01*
X012808Y001998D01*
X013058Y001748D01*
X013308Y001998D01*
X013808Y001998D01*
X014058Y001748D01*
X014308Y001998D01*
X014808Y001998D01*
X015058Y001748D01*
X015308Y001998D01*
X015808Y001998D01*
X016058Y001748D01*
X016058Y001248D01*
X015808Y000998D01*
X015308Y000998D01*
X015058Y001248D01*
X014808Y000998D01*
X014308Y000998D01*
X014058Y001248D01*
X014058Y001748D01*
X014058Y001248D02*
X013808Y000998D01*
X013308Y000998D01*
X013058Y001248D01*
X012808Y000998D01*
X012308Y000998D01*
X012058Y001248D01*
X011808Y000998D01*
X011308Y000998D01*
X011058Y001248D01*
X011058Y001748D01*
X011058Y001248D02*
X010808Y000998D01*
X010308Y000998D01*
X010058Y001248D01*
X009808Y000998D01*
X009308Y000998D01*
X009058Y001248D01*
X008808Y000998D01*
X008308Y000998D01*
X008058Y001248D01*
X008058Y001748D01*
X008058Y001248D02*
X007808Y000998D01*
X007308Y000998D01*
X007058Y001248D01*
X006808Y000998D01*
X006308Y000998D01*
X006058Y001248D01*
X007058Y001248D02*
X007058Y001748D01*
X005058Y001748D02*
X004808Y001998D01*
X004308Y001998D01*
X004058Y001748D01*
X003808Y001998D01*
X003308Y001998D01*
X003058Y001748D01*
X002808Y001998D01*
X002308Y001998D01*
X002058Y001748D01*
X001808Y001998D01*
X001308Y001998D01*
X001058Y001748D01*
X001058Y001248D01*
X001308Y000998D01*
X001808Y000998D01*
X002058Y001248D01*
X002058Y001748D01*
X002058Y001248D02*
X002308Y000998D01*
X002808Y000998D01*
X003058Y001248D01*
X003058Y001748D01*
X003058Y001248D02*
X003308Y000998D01*
X003808Y000998D01*
X004058Y001248D01*
X004058Y001748D01*
X004058Y001248D02*
X004308Y000998D01*
X004808Y000998D01*
X005058Y001248D01*
X009058Y001248D02*
X009058Y001748D01*
X010058Y001748D02*
X010058Y001248D01*
X012058Y001248D02*
X012058Y001748D01*
X013058Y001748D02*
X013058Y001248D01*
X015058Y001248D02*
X015058Y001748D01*
X014808Y008998D02*
X014308Y008998D01*
X014058Y009248D01*
X013808Y008998D01*
X013308Y008998D01*
X013058Y009248D01*
X012808Y008998D01*
X012308Y008998D01*
X012058Y009248D01*
X011808Y008998D01*
X011308Y008998D01*
X011058Y009248D01*
X010808Y008998D01*
X010308Y008998D01*
X010058Y009248D01*
X009808Y008998D01*
X009308Y008998D01*
X009058Y009248D01*
X009058Y009748D02*
X009308Y009998D01*
X009808Y009998D01*
X010058Y009748D01*
X010308Y009998D01*
X010808Y009998D01*
X011058Y009748D01*
X011308Y009998D01*
X011808Y009998D01*
X012058Y009748D01*
X012058Y009248D01*
X012058Y009748D02*
X012308Y009998D01*
X012808Y009998D01*
X013058Y009748D01*
X013308Y009998D01*
X013808Y009998D01*
X014058Y009748D01*
X014308Y009998D01*
X014808Y009998D01*
X015058Y009748D01*
X015308Y009998D01*
X015808Y009998D01*
X016058Y009748D01*
X016058Y009248D01*
X015808Y008998D01*
X015308Y008998D01*
X015058Y009248D01*
X014808Y008998D01*
X015058Y009248D02*
X015058Y009748D01*
X014058Y009748D02*
X014058Y009248D01*
X013058Y009248D02*
X013058Y009748D01*
X011058Y009748D02*
X011058Y009248D01*
X010058Y009248D02*
X010058Y009748D01*
D15*
X007658Y004748D02*
X007558Y004748D01*
X007558Y003748D01*
X007658Y003748D01*
X005358Y003798D02*
X005258Y003798D01*
X005358Y003798D02*
X005358Y004748D01*
X005258Y004748D01*
D16*
X006458Y006498D02*
X006458Y006798D01*
X006458Y007098D01*
X006658Y007098D02*
X006658Y006798D01*
X006658Y006498D01*
X006658Y007698D02*
X006658Y007998D01*
X006658Y008298D01*
X006458Y008298D02*
X006458Y007998D01*
X006458Y007698D01*
D17*
X004133Y007898D03*
X001983Y007898D03*
D18*
X008895Y007880D02*
X008895Y003136D01*
X016021Y003136D01*
X016021Y007880D01*
X008895Y007880D01*
M02*
