G75*
G70*
%OFA0B0*%
%FSLAX24Y24*%
%IPPOS*%
%LPD*%
%AMOC8*
5,1,8,0,0,1.08239X$1,22.5*
%
%ADD10C,0.0680*%
%ADD11OC8,0.0680*%
%ADD12OC8,0.0560*%
%ADD13R,0.0540X0.0710*%
%ADD14R,0.0060X0.0720*%
%ADD15C,0.0415*%
%ADD16C,0.0420*%
D10*
X005568Y002668D02*
X005568Y003268D01*
X007348Y003268D02*
X007348Y002668D01*
X007348Y005228D02*
X007348Y005828D01*
X005568Y005828D02*
X005568Y005228D01*
D11*
X001558Y001498D03*
X002558Y001498D03*
X003558Y001498D03*
X004558Y001498D03*
X005558Y001498D03*
X006558Y001498D03*
X007558Y001498D03*
X008558Y001498D03*
X009558Y001498D03*
X010558Y001498D03*
X011558Y001498D03*
X012558Y001498D03*
X013558Y001498D03*
X014558Y001498D03*
X015558Y001498D03*
X015558Y009498D03*
X014558Y009498D03*
X013558Y009498D03*
X012558Y009498D03*
X011558Y009498D03*
X010558Y009498D03*
X009558Y009498D03*
X008558Y009498D03*
X007558Y009498D03*
X006558Y009498D03*
X005558Y009498D03*
X004558Y009498D03*
X003558Y009498D03*
X002558Y009498D03*
X001558Y009498D03*
X001558Y005998D03*
X001558Y004998D03*
D12*
X001558Y007898D03*
X004558Y007898D03*
X006058Y007998D03*
X007058Y007998D03*
X007058Y006798D03*
X006058Y006798D03*
D13*
X003358Y007898D03*
X002758Y007898D03*
D14*
X003058Y007898D03*
D15*
X009318Y007230D02*
X009318Y007230D01*
X008472Y007230D01*
X008472Y007230D01*
X009318Y007230D01*
X009318Y006738D02*
X009318Y006738D01*
X008472Y006738D01*
X008472Y006738D01*
X009318Y006738D01*
X009318Y006246D02*
X009318Y006246D01*
X008472Y006246D01*
X008472Y006246D01*
X009318Y006246D01*
X009318Y005754D02*
X009318Y005754D01*
X008472Y005754D01*
X008472Y005754D01*
X009318Y005754D01*
X009318Y005262D02*
X009318Y005262D01*
X008472Y005262D01*
X008472Y005262D01*
X009318Y005262D01*
X009318Y004769D02*
X009318Y004769D01*
X008472Y004769D01*
X008472Y004769D01*
X009318Y004769D01*
X009318Y004277D02*
X009318Y004277D01*
X008472Y004277D01*
X008472Y004277D01*
X009318Y004277D01*
X009318Y003785D02*
X009318Y003785D01*
X008472Y003785D01*
X008472Y003785D01*
X009318Y003785D01*
X009761Y002713D02*
X009761Y002713D01*
X009761Y003559D01*
X009761Y003559D01*
X009761Y002713D01*
X009761Y003127D02*
X009761Y003127D01*
X009761Y003541D02*
X009761Y003541D01*
X010254Y002713D02*
X010254Y002713D01*
X010254Y003559D01*
X010254Y003559D01*
X010254Y002713D01*
X010254Y003127D02*
X010254Y003127D01*
X010254Y003541D02*
X010254Y003541D01*
X010746Y002713D02*
X010746Y002713D01*
X010746Y003559D01*
X010746Y003559D01*
X010746Y002713D01*
X010746Y003127D02*
X010746Y003127D01*
X010746Y003541D02*
X010746Y003541D01*
X011238Y002713D02*
X011238Y002713D01*
X011238Y003559D01*
X011238Y003559D01*
X011238Y002713D01*
X011238Y003127D02*
X011238Y003127D01*
X011238Y003541D02*
X011238Y003541D01*
X011730Y002713D02*
X011730Y002713D01*
X011730Y003559D01*
X011730Y003559D01*
X011730Y002713D01*
X011730Y003127D02*
X011730Y003127D01*
X011730Y003541D02*
X011730Y003541D01*
X012222Y002713D02*
X012222Y002713D01*
X012222Y003559D01*
X012222Y003559D01*
X012222Y002713D01*
X012222Y003127D02*
X012222Y003127D01*
X012222Y003541D02*
X012222Y003541D01*
X012714Y002713D02*
X012714Y002713D01*
X012714Y003559D01*
X012714Y003559D01*
X012714Y002713D01*
X012714Y003127D02*
X012714Y003127D01*
X012714Y003541D02*
X012714Y003541D01*
X013206Y002713D02*
X013206Y002713D01*
X013206Y003559D01*
X013206Y003559D01*
X013206Y002713D01*
X013206Y003127D02*
X013206Y003127D01*
X013206Y003541D02*
X013206Y003541D01*
X013698Y002713D02*
X013698Y002713D01*
X013698Y003559D01*
X013698Y003559D01*
X013698Y002713D01*
X013698Y003127D02*
X013698Y003127D01*
X013698Y003541D02*
X013698Y003541D01*
X013698Y007457D02*
X013698Y007457D01*
X013698Y008303D01*
X013698Y008303D01*
X013698Y007457D01*
X013698Y007871D02*
X013698Y007871D01*
X013698Y008285D02*
X013698Y008285D01*
X013206Y007457D02*
X013206Y007457D01*
X013206Y008303D01*
X013206Y008303D01*
X013206Y007457D01*
X013206Y007871D02*
X013206Y007871D01*
X013206Y008285D02*
X013206Y008285D01*
X012714Y007457D02*
X012714Y007457D01*
X012714Y008303D01*
X012714Y008303D01*
X012714Y007457D01*
X012714Y007871D02*
X012714Y007871D01*
X012714Y008285D02*
X012714Y008285D01*
X012222Y007457D02*
X012222Y007457D01*
X012222Y008303D01*
X012222Y008303D01*
X012222Y007457D01*
X012222Y007871D02*
X012222Y007871D01*
X012222Y008285D02*
X012222Y008285D01*
X011730Y007457D02*
X011730Y007457D01*
X011730Y008303D01*
X011730Y008303D01*
X011730Y007457D01*
X011730Y007871D02*
X011730Y007871D01*
X011730Y008285D02*
X011730Y008285D01*
X011238Y007457D02*
X011238Y007457D01*
X011238Y008303D01*
X011238Y008303D01*
X011238Y007457D01*
X011238Y007871D02*
X011238Y007871D01*
X011238Y008285D02*
X011238Y008285D01*
X010746Y007457D02*
X010746Y007457D01*
X010746Y008303D01*
X010746Y008303D01*
X010746Y007457D01*
X010746Y007871D02*
X010746Y007871D01*
X010746Y008285D02*
X010746Y008285D01*
X010254Y007457D02*
X010254Y007457D01*
X010254Y008303D01*
X010254Y008303D01*
X010254Y007457D01*
X010254Y007871D02*
X010254Y007871D01*
X010254Y008285D02*
X010254Y008285D01*
X009761Y007457D02*
X009761Y007457D01*
X009761Y008303D01*
X009761Y008303D01*
X009761Y007457D01*
X009761Y007871D02*
X009761Y007871D01*
X009761Y008285D02*
X009761Y008285D01*
X014191Y007457D02*
X014191Y007457D01*
X014191Y008303D01*
X014191Y008303D01*
X014191Y007457D01*
X014191Y007871D02*
X014191Y007871D01*
X014191Y008285D02*
X014191Y008285D01*
X014683Y007457D02*
X014683Y007457D01*
X014683Y008303D01*
X014683Y008303D01*
X014683Y007457D01*
X014683Y007871D02*
X014683Y007871D01*
X014683Y008285D02*
X014683Y008285D01*
X015175Y007457D02*
X015175Y007457D01*
X015175Y008303D01*
X015175Y008303D01*
X015175Y007457D01*
X015175Y007871D02*
X015175Y007871D01*
X015175Y008285D02*
X015175Y008285D01*
X015667Y007457D02*
X015667Y007457D01*
X015667Y008303D01*
X015667Y008303D01*
X015667Y007457D01*
X015667Y007871D02*
X015667Y007871D01*
X015667Y008285D02*
X015667Y008285D01*
D16*
X013658Y006998D03*
X012858Y006998D03*
X012258Y006998D03*
X011558Y006798D03*
X011258Y006398D03*
X010258Y006898D03*
X009858Y006498D03*
X010458Y005498D03*
X009758Y004798D03*
X010558Y004598D03*
X007958Y005098D03*
X006558Y005398D03*
X006258Y006298D03*
X007758Y006298D03*
X007958Y007298D03*
X007658Y007898D03*
X005258Y007698D03*
X012358Y008898D03*
X005158Y001998D03*
M02*
