%
M48
M72
T01C0.0200
T02C0.0320
T03C0.0400
%
T01
X5158Y1998
X7958Y5098
X6558Y5398
X6258Y6298
X7758Y6298
X7958Y7298
X7658Y7898
X9858Y6498
X10258Y6898
X11258Y6398
X11558Y6798
X12258Y6998
X12858Y6998
X13658Y6998
X12358Y8898
X10458Y5498
X9758Y4798
X10558Y4598
X5258Y7698
T02
X4558Y7898
X6058Y7998
X7058Y7998
X7058Y6798
X6058Y6798
X1558Y7898
T03
X1558Y1498
X2558Y1498
X3558Y1498
X4558Y1498
X5558Y1498
X6558Y1498
X7558Y1498
X8558Y1498
X9558Y1498
X10558Y1498
X11558Y1498
X12558Y1498
X13558Y1498
X14558Y1498
X15558Y1498
X7348Y2968
X5568Y2968
X5568Y5528
X7348Y5528
X1558Y5998
X1558Y4998
X1558Y9498
X2558Y9498
X3558Y9498
X4558Y9498
X5558Y9498
X6558Y9498
X7558Y9498
X8558Y9498
X9558Y9498
X10558Y9498
X11558Y9498
X12558Y9498
X13558Y9498
X14558Y9498
X15558Y9498
M30
