G75*
G70*
%OFA0B0*%
%FSLAX24Y24*%
%IPPOS*%
%LPD*%
%AMOC8*
5,1,8,0,0,1.08239X$1,22.5*
%
%ADD10R,0.0460X0.0630*%
%ADD11C,0.0335*%
D10*
X002758Y007898D03*
X003358Y007898D03*
D11*
X009318Y003785D02*
X009318Y003785D01*
X008472Y003785D01*
X008472Y003785D01*
X009318Y003785D01*
X009318Y004277D02*
X009318Y004277D01*
X008472Y004277D01*
X008472Y004277D01*
X009318Y004277D01*
X009318Y004769D02*
X009318Y004769D01*
X008472Y004769D01*
X008472Y004769D01*
X009318Y004769D01*
X009318Y005262D02*
X009318Y005262D01*
X008472Y005262D01*
X008472Y005262D01*
X009318Y005262D01*
X009318Y005754D02*
X009318Y005754D01*
X008472Y005754D01*
X008472Y005754D01*
X009318Y005754D01*
X009318Y006246D02*
X009318Y006246D01*
X008472Y006246D01*
X008472Y006246D01*
X009318Y006246D01*
X009318Y006738D02*
X009318Y006738D01*
X008472Y006738D01*
X008472Y006738D01*
X009318Y006738D01*
X009318Y007230D02*
X009318Y007230D01*
X008472Y007230D01*
X008472Y007230D01*
X009318Y007230D01*
X009761Y007457D02*
X009761Y007457D01*
X009761Y008303D01*
X009761Y008303D01*
X009761Y007457D01*
X009761Y007791D02*
X009761Y007791D01*
X009761Y008125D02*
X009761Y008125D01*
X010254Y007457D02*
X010254Y007457D01*
X010254Y008303D01*
X010254Y008303D01*
X010254Y007457D01*
X010254Y007791D02*
X010254Y007791D01*
X010254Y008125D02*
X010254Y008125D01*
X010746Y007457D02*
X010746Y007457D01*
X010746Y008303D01*
X010746Y008303D01*
X010746Y007457D01*
X010746Y007791D02*
X010746Y007791D01*
X010746Y008125D02*
X010746Y008125D01*
X011238Y007457D02*
X011238Y007457D01*
X011238Y008303D01*
X011238Y008303D01*
X011238Y007457D01*
X011238Y007791D02*
X011238Y007791D01*
X011238Y008125D02*
X011238Y008125D01*
X011730Y007457D02*
X011730Y007457D01*
X011730Y008303D01*
X011730Y008303D01*
X011730Y007457D01*
X011730Y007791D02*
X011730Y007791D01*
X011730Y008125D02*
X011730Y008125D01*
X012222Y007457D02*
X012222Y007457D01*
X012222Y008303D01*
X012222Y008303D01*
X012222Y007457D01*
X012222Y007791D02*
X012222Y007791D01*
X012222Y008125D02*
X012222Y008125D01*
X012714Y007457D02*
X012714Y007457D01*
X012714Y008303D01*
X012714Y008303D01*
X012714Y007457D01*
X012714Y007791D02*
X012714Y007791D01*
X012714Y008125D02*
X012714Y008125D01*
X013206Y007457D02*
X013206Y007457D01*
X013206Y008303D01*
X013206Y008303D01*
X013206Y007457D01*
X013206Y007791D02*
X013206Y007791D01*
X013206Y008125D02*
X013206Y008125D01*
X013698Y007457D02*
X013698Y007457D01*
X013698Y008303D01*
X013698Y008303D01*
X013698Y007457D01*
X013698Y007791D02*
X013698Y007791D01*
X013698Y008125D02*
X013698Y008125D01*
X014191Y007457D02*
X014191Y007457D01*
X014191Y008303D01*
X014191Y008303D01*
X014191Y007457D01*
X014191Y007791D02*
X014191Y007791D01*
X014191Y008125D02*
X014191Y008125D01*
X014683Y007457D02*
X014683Y007457D01*
X014683Y008303D01*
X014683Y008303D01*
X014683Y007457D01*
X014683Y007791D02*
X014683Y007791D01*
X014683Y008125D02*
X014683Y008125D01*
X015175Y007457D02*
X015175Y007457D01*
X015175Y008303D01*
X015175Y008303D01*
X015175Y007457D01*
X015175Y007791D02*
X015175Y007791D01*
X015175Y008125D02*
X015175Y008125D01*
X015667Y007457D02*
X015667Y007457D01*
X015667Y008303D01*
X015667Y008303D01*
X015667Y007457D01*
X015667Y007791D02*
X015667Y007791D01*
X015667Y008125D02*
X015667Y008125D01*
X013698Y002713D02*
X013698Y002713D01*
X013698Y003559D01*
X013698Y003559D01*
X013698Y002713D01*
X013698Y003047D02*
X013698Y003047D01*
X013698Y003381D02*
X013698Y003381D01*
X013206Y002713D02*
X013206Y002713D01*
X013206Y003559D01*
X013206Y003559D01*
X013206Y002713D01*
X013206Y003047D02*
X013206Y003047D01*
X013206Y003381D02*
X013206Y003381D01*
X012714Y002713D02*
X012714Y002713D01*
X012714Y003559D01*
X012714Y003559D01*
X012714Y002713D01*
X012714Y003047D02*
X012714Y003047D01*
X012714Y003381D02*
X012714Y003381D01*
X012222Y002713D02*
X012222Y002713D01*
X012222Y003559D01*
X012222Y003559D01*
X012222Y002713D01*
X012222Y003047D02*
X012222Y003047D01*
X012222Y003381D02*
X012222Y003381D01*
X011730Y002713D02*
X011730Y002713D01*
X011730Y003559D01*
X011730Y003559D01*
X011730Y002713D01*
X011730Y003047D02*
X011730Y003047D01*
X011730Y003381D02*
X011730Y003381D01*
X011238Y002713D02*
X011238Y002713D01*
X011238Y003559D01*
X011238Y003559D01*
X011238Y002713D01*
X011238Y003047D02*
X011238Y003047D01*
X011238Y003381D02*
X011238Y003381D01*
X010746Y002713D02*
X010746Y002713D01*
X010746Y003559D01*
X010746Y003559D01*
X010746Y002713D01*
X010746Y003047D02*
X010746Y003047D01*
X010746Y003381D02*
X010746Y003381D01*
X010254Y002713D02*
X010254Y002713D01*
X010254Y003559D01*
X010254Y003559D01*
X010254Y002713D01*
X010254Y003047D02*
X010254Y003047D01*
X010254Y003381D02*
X010254Y003381D01*
X009761Y002713D02*
X009761Y002713D01*
X009761Y003559D01*
X009761Y003559D01*
X009761Y002713D01*
X009761Y003047D02*
X009761Y003047D01*
X009761Y003381D02*
X009761Y003381D01*
M02*
