G75*
%MOIN*%
%OFA0B0*%
%FSLAX24Y24*%
%IPPOS*%
%LPD*%
%AMOC8*
5,1,8,0,0,1.08239X$1,22.5*
%
%ADD10C,0.0000*%
%ADD11C,0.0040*%
%ADD12C,0.0160*%
%ADD13C,0.0060*%
%ADD14C,0.0050*%
%ADD15C,0.0080*%
%ADD16R,0.0374X0.0197*%
%ADD17R,0.0300X0.0180*%
%ADD18C,0.0020*%
%ADD19R,0.0197X0.0128*%
%ADD20R,0.0098X0.0059*%
%ADD21R,0.0069X0.0157*%
%ADD22R,0.0079X0.0079*%
%ADD23R,0.0118X0.0118*%
%ADD24R,0.0030X0.0128*%
%ADD25R,0.0160X0.0340*%
%ADD26C,0.0220*%
%ADD27R,0.0197X0.0374*%
%ADD28R,0.0256X0.0197*%
%ADD29R,0.0200X0.0200*%
%ADD30R,0.0394X0.1181*%
D10*
X000350Y000639D02*
X000350Y008639D01*
X013350Y008639D01*
X013350Y000639D01*
X000350Y000639D01*
D11*
X000709Y001809D02*
X000670Y001848D01*
X000709Y001809D02*
X000786Y001809D01*
X000825Y001848D01*
X000825Y001926D01*
X000786Y001964D01*
X000747Y001964D01*
X000670Y001926D01*
X000670Y002042D01*
X000825Y002042D01*
X000920Y002042D02*
X000920Y001887D01*
X000998Y001809D01*
X001075Y001887D01*
X001075Y002042D01*
X001470Y002042D02*
X001470Y001809D01*
X001470Y001887D02*
X001586Y001887D01*
X001625Y001926D01*
X001625Y002003D01*
X001586Y002042D01*
X001470Y002042D01*
X001720Y002003D02*
X001759Y002042D01*
X001837Y002042D01*
X001875Y002003D01*
X001720Y001848D01*
X001759Y001809D01*
X001837Y001809D01*
X001875Y001848D01*
X001875Y002003D01*
X001971Y002042D02*
X002126Y002042D01*
X002126Y002003D01*
X001971Y001848D01*
X001971Y001809D01*
X001720Y001848D02*
X001720Y002003D01*
X002472Y002042D02*
X002472Y001809D01*
X002472Y001887D02*
X002588Y001887D01*
X002627Y001926D01*
X002627Y002003D01*
X002588Y002042D01*
X002472Y002042D01*
X002722Y002003D02*
X002761Y002042D01*
X002838Y002042D01*
X002877Y002003D01*
X002722Y001848D01*
X002761Y001809D01*
X002838Y001809D01*
X002877Y001848D01*
X002877Y002003D01*
X002973Y001926D02*
X003089Y001926D01*
X003128Y001887D01*
X003128Y001848D01*
X003089Y001809D01*
X003011Y001809D01*
X002973Y001848D01*
X002973Y001926D01*
X003050Y002003D01*
X003128Y002042D01*
X003474Y002042D02*
X003590Y002042D01*
X003628Y002003D01*
X003628Y001926D01*
X003590Y001887D01*
X003474Y001887D01*
X003474Y001809D02*
X003474Y002042D01*
X003724Y002003D02*
X003763Y002042D01*
X003840Y002042D01*
X003879Y002003D01*
X003724Y001848D01*
X003763Y001809D01*
X003840Y001809D01*
X003879Y001848D01*
X003879Y002003D01*
X003975Y002042D02*
X003975Y001926D01*
X004052Y001964D01*
X004091Y001964D01*
X004129Y001926D01*
X004129Y001848D01*
X004091Y001809D01*
X004013Y001809D01*
X003975Y001848D01*
X003724Y001848D02*
X003724Y002003D01*
X003975Y002042D02*
X004129Y002042D01*
X004475Y002042D02*
X004475Y001809D01*
X004475Y001887D02*
X004592Y001887D01*
X004630Y001926D01*
X004630Y002003D01*
X004592Y002042D01*
X004475Y002042D01*
X004726Y002003D02*
X004765Y002042D01*
X004842Y002042D01*
X004881Y002003D01*
X004726Y001848D01*
X004765Y001809D01*
X004842Y001809D01*
X004881Y001848D01*
X004881Y002003D01*
X004976Y001926D02*
X005131Y001926D01*
X005092Y002042D02*
X005092Y001809D01*
X004976Y001926D02*
X005092Y002042D01*
X004726Y002003D02*
X004726Y001848D01*
X005477Y001809D02*
X005477Y002042D01*
X005593Y002042D01*
X005632Y002003D01*
X005632Y001926D01*
X005593Y001887D01*
X005477Y001887D01*
X005728Y001848D02*
X005883Y002003D01*
X005883Y001848D01*
X005844Y001809D01*
X005766Y001809D01*
X005728Y001848D01*
X005728Y002003D01*
X005766Y002042D01*
X005844Y002042D01*
X005883Y002003D01*
X005978Y002003D02*
X006017Y002042D01*
X006094Y002042D01*
X006133Y002003D01*
X006133Y001964D01*
X006094Y001926D01*
X006133Y001887D01*
X006133Y001848D01*
X006094Y001809D01*
X006017Y001809D01*
X005978Y001848D01*
X006056Y001926D02*
X006094Y001926D01*
X006479Y001887D02*
X006595Y001887D01*
X006634Y001926D01*
X006634Y002003D01*
X006595Y002042D01*
X006479Y002042D01*
X006479Y001809D01*
X006730Y001848D02*
X006730Y002003D01*
X006768Y002042D01*
X006846Y002042D01*
X006884Y002003D01*
X006730Y001848D01*
X006768Y001809D01*
X006846Y001809D01*
X006884Y001848D01*
X006884Y002003D01*
X006980Y002003D02*
X007019Y002042D01*
X007096Y002042D01*
X007135Y002003D01*
X007135Y001964D01*
X006980Y001809D01*
X007135Y001809D01*
X007481Y001809D02*
X007481Y002042D01*
X007597Y002042D01*
X007636Y002003D01*
X007636Y001926D01*
X007597Y001887D01*
X007481Y001887D01*
X007731Y001848D02*
X007886Y002003D01*
X007886Y001848D01*
X007847Y001809D01*
X007770Y001809D01*
X007731Y001848D01*
X007731Y002003D01*
X007770Y002042D01*
X007847Y002042D01*
X007886Y002003D01*
X007982Y001964D02*
X008059Y002042D01*
X008059Y001809D01*
X007982Y001809D02*
X008137Y001809D01*
X008483Y001809D02*
X008483Y002042D01*
X008599Y002042D01*
X008638Y002003D01*
X008638Y001926D01*
X008599Y001887D01*
X008483Y001887D01*
X008733Y001848D02*
X008888Y002003D01*
X008888Y001848D01*
X008849Y001809D01*
X008772Y001809D01*
X008733Y001848D01*
X008733Y002003D01*
X008772Y002042D01*
X008849Y002042D01*
X008888Y002003D01*
X008984Y002003D02*
X009022Y002042D01*
X009100Y002042D01*
X009138Y002003D01*
X008984Y001848D01*
X009022Y001809D01*
X009100Y001809D01*
X009138Y001848D01*
X009138Y002003D01*
X008984Y002003D02*
X008984Y001848D01*
X009485Y001809D02*
X009485Y002042D01*
X009601Y002042D01*
X009639Y002003D01*
X009639Y001926D01*
X009601Y001887D01*
X009485Y001887D01*
X009562Y001887D02*
X009639Y001809D01*
X009735Y001809D02*
X009890Y001809D01*
X009985Y001848D02*
X010024Y001809D01*
X010102Y001809D01*
X010140Y001848D01*
X010140Y001887D01*
X010102Y001926D01*
X010024Y001926D01*
X009985Y001964D01*
X009985Y002003D01*
X010024Y002042D01*
X010102Y002042D01*
X010140Y002003D01*
X009890Y002042D02*
X009735Y002042D01*
X009735Y001809D01*
X009735Y001926D02*
X009812Y001926D01*
X010486Y002003D02*
X010525Y002042D01*
X010602Y002042D01*
X010641Y002003D01*
X010641Y001964D01*
X010602Y001926D01*
X010641Y001887D01*
X010641Y001848D01*
X010602Y001809D01*
X010525Y001809D01*
X010486Y001848D01*
X010564Y001926D02*
X010602Y001926D01*
X010737Y001887D02*
X010814Y001809D01*
X010892Y001887D01*
X010892Y002042D01*
X010987Y002003D02*
X011026Y002042D01*
X011103Y002042D01*
X011142Y002003D01*
X011142Y001964D01*
X011103Y001926D01*
X011142Y001887D01*
X011142Y001848D01*
X011103Y001809D01*
X011026Y001809D01*
X010987Y001848D01*
X011065Y001926D02*
X011103Y001926D01*
X010737Y001887D02*
X010737Y002042D01*
X011488Y002003D02*
X011488Y001848D01*
X011527Y001809D01*
X011604Y001809D01*
X011643Y001848D01*
X011643Y001926D01*
X011566Y001926D01*
X011643Y002003D02*
X011604Y002042D01*
X011527Y002042D01*
X011488Y002003D01*
X011739Y002042D02*
X011739Y001809D01*
X011893Y001809D02*
X011893Y002042D01*
X011989Y002042D02*
X012105Y002042D01*
X012144Y002003D01*
X012144Y001848D01*
X012105Y001809D01*
X011989Y001809D01*
X011989Y002042D01*
X011739Y002042D02*
X011893Y001809D01*
X011800Y004359D02*
X011800Y004666D01*
X011646Y004820D01*
X011493Y004666D01*
X011493Y004359D01*
X011493Y004590D02*
X011800Y004590D01*
X011339Y004590D02*
X011032Y004590D01*
X010879Y004666D02*
X010879Y004743D01*
X010802Y004820D01*
X010649Y004820D01*
X010572Y004743D01*
X010725Y004590D02*
X010802Y004590D01*
X010879Y004513D01*
X010879Y004436D01*
X010802Y004359D01*
X010649Y004359D01*
X010572Y004436D01*
X010418Y004359D02*
X010112Y004359D01*
X010265Y004359D02*
X010265Y004820D01*
X010112Y004666D01*
X009805Y004820D02*
X009805Y004359D01*
X009958Y004359D02*
X009651Y004359D01*
X009498Y004359D02*
X009191Y004359D01*
X009191Y004820D01*
X009498Y004820D01*
X009651Y004666D02*
X009805Y004820D01*
X010112Y005006D02*
X010188Y005006D01*
X010265Y005083D01*
X010265Y005466D01*
X010035Y005466D01*
X009958Y005390D01*
X009958Y005236D01*
X010035Y005159D01*
X010265Y005159D01*
X010418Y005159D02*
X010572Y005159D01*
X010495Y005159D02*
X010495Y005466D01*
X010418Y005466D01*
X010495Y005620D02*
X010495Y005697D01*
X010725Y005390D02*
X010802Y005466D01*
X011032Y005466D01*
X011032Y005083D01*
X010956Y005006D01*
X010879Y005006D01*
X010802Y005159D02*
X011032Y005159D01*
X011186Y005236D02*
X011263Y005313D01*
X011493Y005313D01*
X011493Y005390D02*
X011493Y005159D01*
X011263Y005159D01*
X011186Y005236D01*
X011263Y005466D02*
X011416Y005466D01*
X011493Y005390D01*
X010802Y005159D02*
X010725Y005236D01*
X010725Y005390D01*
X009805Y005390D02*
X009805Y005313D01*
X009498Y005313D01*
X009498Y005236D02*
X009498Y005390D01*
X009574Y005466D01*
X009728Y005466D01*
X009805Y005390D01*
X009574Y005159D02*
X009498Y005236D01*
X009574Y005159D02*
X009728Y005159D01*
X009344Y005159D02*
X009344Y005466D01*
X009037Y005466D02*
X009037Y005236D01*
X009114Y005159D01*
X009344Y005159D01*
X008884Y005159D02*
X008730Y005159D01*
X008807Y005159D02*
X008807Y005620D01*
X008730Y005620D01*
X008577Y005543D02*
X008577Y005466D01*
X008500Y005390D01*
X008270Y005390D01*
X008500Y005390D02*
X008577Y005313D01*
X008577Y005236D01*
X008500Y005159D01*
X008270Y005159D01*
X008270Y005620D01*
X008500Y005620D01*
X008577Y005543D01*
X008500Y004820D02*
X008270Y004820D01*
X008270Y004359D01*
X008500Y004359D01*
X008577Y004436D01*
X008577Y004513D01*
X008500Y004590D01*
X008270Y004590D01*
X008500Y004590D02*
X008577Y004666D01*
X008577Y004743D01*
X008500Y004820D01*
X008730Y004820D02*
X008730Y004359D01*
X009037Y004359D01*
X009191Y004590D02*
X009344Y004590D01*
X010802Y004590D02*
X010879Y004666D01*
X010893Y007259D02*
X010739Y007259D01*
X010893Y007414D01*
X010893Y007453D01*
X010855Y007492D01*
X010777Y007492D01*
X010739Y007453D01*
X010643Y007453D02*
X010643Y007376D01*
X010604Y007337D01*
X010488Y007337D01*
X010488Y007259D02*
X010488Y007492D01*
X010604Y007492D01*
X010643Y007453D01*
X010989Y007453D02*
X011028Y007492D01*
X011105Y007492D01*
X011144Y007453D01*
X011144Y007414D01*
X010989Y007259D01*
X011144Y007259D01*
X011490Y007298D02*
X011529Y007259D01*
X011606Y007259D01*
X011645Y007298D01*
X011645Y007337D01*
X011606Y007376D01*
X011529Y007376D01*
X011490Y007414D01*
X011490Y007453D01*
X011529Y007492D01*
X011606Y007492D01*
X011645Y007453D01*
X011740Y007492D02*
X011857Y007492D01*
X011895Y007453D01*
X011895Y007298D01*
X011857Y007259D01*
X011740Y007259D01*
X011740Y007492D01*
X011991Y007414D02*
X011991Y007259D01*
X011991Y007376D02*
X012146Y007376D01*
X012146Y007414D02*
X012146Y007259D01*
X012146Y007414D02*
X012068Y007492D01*
X011991Y007414D01*
X012492Y007414D02*
X012530Y007376D01*
X012608Y007376D01*
X012647Y007337D01*
X012647Y007298D01*
X012608Y007259D01*
X012530Y007259D01*
X012492Y007298D01*
X012492Y007414D02*
X012492Y007453D01*
X012530Y007492D01*
X012608Y007492D01*
X012647Y007453D01*
X012742Y007453D02*
X012742Y007298D01*
X012781Y007259D01*
X012858Y007259D01*
X012897Y007298D01*
X012993Y007259D02*
X013147Y007259D01*
X012993Y007259D02*
X012993Y007492D01*
X012897Y007453D02*
X012858Y007492D01*
X012781Y007492D01*
X012742Y007453D01*
X010142Y007259D02*
X009987Y007259D01*
X010065Y007259D02*
X010065Y007492D01*
X009987Y007414D01*
X009892Y007414D02*
X009892Y007453D01*
X009853Y007492D01*
X009775Y007492D01*
X009737Y007453D01*
X009641Y007453D02*
X009641Y007376D01*
X009602Y007337D01*
X009486Y007337D01*
X009486Y007259D02*
X009486Y007492D01*
X009602Y007492D01*
X009641Y007453D01*
X009737Y007259D02*
X009892Y007414D01*
X009892Y007259D02*
X009737Y007259D01*
X009140Y007298D02*
X009102Y007259D01*
X009024Y007259D01*
X008985Y007298D01*
X009140Y007453D01*
X009140Y007298D01*
X008985Y007298D02*
X008985Y007453D01*
X009024Y007492D01*
X009102Y007492D01*
X009140Y007453D01*
X008890Y007453D02*
X008851Y007492D01*
X008774Y007492D01*
X008735Y007453D01*
X008639Y007453D02*
X008639Y007376D01*
X008601Y007337D01*
X008485Y007337D01*
X008485Y007259D02*
X008485Y007492D01*
X008601Y007492D01*
X008639Y007453D01*
X008735Y007259D02*
X008890Y007414D01*
X008890Y007453D01*
X008890Y007259D02*
X008735Y007259D01*
X008138Y007453D02*
X007984Y007298D01*
X007984Y007259D01*
X007888Y007259D02*
X007733Y007259D01*
X007811Y007259D02*
X007811Y007492D01*
X007733Y007414D01*
X007638Y007376D02*
X007599Y007337D01*
X007483Y007337D01*
X007483Y007259D02*
X007483Y007492D01*
X007599Y007492D01*
X007638Y007453D01*
X007638Y007376D01*
X007984Y007492D02*
X008138Y007492D01*
X008138Y007453D01*
X007137Y007492D02*
X007059Y007453D01*
X006982Y007376D01*
X007098Y007376D01*
X007137Y007337D01*
X007137Y007298D01*
X007098Y007259D01*
X007021Y007259D01*
X006982Y007298D01*
X006982Y007376D01*
X006886Y007259D02*
X006731Y007259D01*
X006809Y007259D02*
X006809Y007492D01*
X006731Y007414D01*
X006636Y007376D02*
X006597Y007337D01*
X006481Y007337D01*
X006481Y007259D02*
X006481Y007492D01*
X006597Y007492D01*
X006636Y007453D01*
X006636Y007376D01*
X006135Y007376D02*
X006135Y007298D01*
X006096Y007259D01*
X006019Y007259D01*
X005980Y007298D01*
X005980Y007376D02*
X006057Y007414D01*
X006096Y007414D01*
X006135Y007376D01*
X006135Y007492D02*
X005980Y007492D01*
X005980Y007376D01*
X005884Y007259D02*
X005730Y007259D01*
X005807Y007259D02*
X005807Y007492D01*
X005730Y007414D01*
X005634Y007376D02*
X005595Y007337D01*
X005479Y007337D01*
X005479Y007259D02*
X005479Y007492D01*
X005595Y007492D01*
X005634Y007453D01*
X005634Y007376D01*
X005133Y007376D02*
X004978Y007376D01*
X005094Y007492D01*
X005094Y007259D01*
X004883Y007259D02*
X004728Y007259D01*
X004805Y007259D02*
X004805Y007492D01*
X004728Y007414D01*
X004632Y007453D02*
X004632Y007376D01*
X004593Y007337D01*
X004477Y007337D01*
X004477Y007259D02*
X004477Y007492D01*
X004593Y007492D01*
X004632Y007453D01*
X004131Y007453D02*
X004131Y007414D01*
X004092Y007376D01*
X004131Y007337D01*
X004131Y007298D01*
X004092Y007259D01*
X004015Y007259D01*
X003976Y007298D01*
X003881Y007259D02*
X003726Y007259D01*
X003803Y007259D02*
X003803Y007492D01*
X003726Y007414D01*
X003630Y007376D02*
X003592Y007337D01*
X003475Y007337D01*
X003475Y007259D02*
X003475Y007492D01*
X003592Y007492D01*
X003630Y007453D01*
X003630Y007376D01*
X003976Y007453D02*
X004015Y007492D01*
X004092Y007492D01*
X004131Y007453D01*
X004092Y007376D02*
X004054Y007376D01*
X003714Y006966D02*
X003153Y006966D01*
X002985Y006876D02*
X003007Y006871D01*
X003027Y006863D01*
X003045Y006852D01*
X003062Y006837D01*
X003076Y006821D01*
X003088Y006802D01*
X003096Y006782D01*
X003101Y006761D01*
X003103Y006739D01*
X003101Y006717D01*
X003096Y006696D01*
X003088Y006676D01*
X003076Y006657D01*
X003062Y006641D01*
X003045Y006626D01*
X003027Y006615D01*
X003007Y006607D01*
X002985Y006602D01*
X003143Y006513D02*
X003557Y006513D01*
X003512Y006360D02*
X003612Y006360D01*
X003645Y006326D01*
X003645Y006260D01*
X003612Y006226D01*
X003512Y006226D01*
X003512Y006159D02*
X003512Y006360D01*
X003424Y006360D02*
X003424Y006159D01*
X003358Y006226D01*
X003291Y006159D01*
X003291Y006360D01*
X003203Y006326D02*
X003203Y006260D01*
X003170Y006226D01*
X003070Y006226D01*
X003070Y006159D02*
X003070Y006360D01*
X003170Y006360D01*
X003203Y006326D01*
X003579Y006226D02*
X003645Y006159D01*
X004420Y006193D02*
X004453Y006159D01*
X004520Y006159D01*
X004553Y006193D01*
X004553Y006360D01*
X004641Y006326D02*
X004641Y006293D01*
X004674Y006260D01*
X004741Y006260D01*
X004774Y006226D01*
X004774Y006193D01*
X004741Y006159D01*
X004674Y006159D01*
X004641Y006193D01*
X004641Y006326D02*
X004674Y006360D01*
X004741Y006360D01*
X004774Y006326D01*
X004862Y006360D02*
X004962Y006360D01*
X004995Y006326D01*
X004995Y006260D01*
X004962Y006226D01*
X004862Y006226D01*
X004862Y006159D02*
X004862Y006360D01*
X004947Y006513D02*
X004386Y006513D01*
X004374Y006562D02*
X004376Y006574D01*
X004381Y006585D01*
X004389Y006594D01*
X004400Y006600D01*
X004412Y006603D01*
X004424Y006602D01*
X004436Y006598D01*
X004445Y006590D01*
X004452Y006580D01*
X004456Y006568D01*
X004456Y006556D01*
X004452Y006544D01*
X004445Y006534D01*
X004435Y006526D01*
X004424Y006522D01*
X004412Y006521D01*
X004400Y006524D01*
X004389Y006530D01*
X004381Y006539D01*
X004376Y006550D01*
X004374Y006562D01*
X004385Y006602D02*
X004407Y006607D01*
X004427Y006615D01*
X004445Y006626D01*
X004462Y006641D01*
X004476Y006657D01*
X004488Y006676D01*
X004496Y006696D01*
X004501Y006717D01*
X004503Y006739D01*
X004501Y006761D01*
X004496Y006782D01*
X004488Y006802D01*
X004476Y006821D01*
X004462Y006837D01*
X004445Y006852D01*
X004427Y006863D01*
X004407Y006871D01*
X004385Y006876D01*
X004543Y006966D02*
X004957Y006966D01*
X005115Y006876D02*
X005093Y006871D01*
X005073Y006863D01*
X005055Y006852D01*
X005038Y006837D01*
X005024Y006821D01*
X005012Y006802D01*
X005004Y006782D01*
X004999Y006761D01*
X004997Y006739D01*
X004999Y006717D01*
X005004Y006696D01*
X005012Y006676D01*
X005024Y006657D01*
X005038Y006641D01*
X005055Y006626D01*
X005073Y006615D01*
X005093Y006607D01*
X005115Y006602D01*
X004929Y006226D02*
X004995Y006159D01*
X004420Y006193D02*
X004420Y006360D01*
X003715Y006602D02*
X003693Y006607D01*
X003673Y006615D01*
X003655Y006626D01*
X003638Y006641D01*
X003624Y006657D01*
X003612Y006676D01*
X003604Y006696D01*
X003599Y006717D01*
X003597Y006739D01*
X003599Y006761D01*
X003604Y006782D01*
X003612Y006802D01*
X003624Y006821D01*
X003638Y006837D01*
X003655Y006852D01*
X003673Y006863D01*
X003693Y006871D01*
X003715Y006876D01*
X003644Y006917D02*
X003646Y006929D01*
X003651Y006940D01*
X003659Y006949D01*
X003670Y006955D01*
X003682Y006958D01*
X003694Y006957D01*
X003706Y006953D01*
X003715Y006945D01*
X003722Y006935D01*
X003726Y006923D01*
X003726Y006911D01*
X003722Y006899D01*
X003715Y006889D01*
X003705Y006881D01*
X003694Y006877D01*
X003682Y006876D01*
X003670Y006879D01*
X003659Y006885D01*
X003651Y006894D01*
X003646Y006905D01*
X003644Y006917D01*
X003129Y007259D02*
X002975Y007259D01*
X003129Y007414D01*
X003129Y007453D01*
X003091Y007492D01*
X003013Y007492D01*
X002975Y007453D01*
X002801Y007492D02*
X002801Y007259D01*
X002724Y007259D02*
X002879Y007259D01*
X002724Y007414D02*
X002801Y007492D01*
X002628Y007453D02*
X002628Y007376D01*
X002590Y007337D01*
X002474Y007337D01*
X002474Y007259D02*
X002474Y007492D01*
X002590Y007492D01*
X002628Y007453D01*
X002128Y007259D02*
X001973Y007259D01*
X002050Y007259D02*
X002050Y007492D01*
X001973Y007414D01*
X001800Y007492D02*
X001800Y007259D01*
X001877Y007259D02*
X001722Y007259D01*
X001627Y007376D02*
X001588Y007337D01*
X001472Y007337D01*
X001472Y007259D02*
X001472Y007492D01*
X001588Y007492D01*
X001627Y007453D01*
X001627Y007376D01*
X001722Y007414D02*
X001800Y007492D01*
X001126Y007453D02*
X001126Y007298D01*
X001087Y007259D01*
X001010Y007259D01*
X000971Y007298D01*
X001126Y007453D01*
X001087Y007492D01*
X001010Y007492D01*
X000971Y007453D01*
X000971Y007298D01*
X000875Y007259D02*
X000720Y007259D01*
X000798Y007259D02*
X000798Y007492D01*
X000720Y007414D01*
X000625Y007376D02*
X000586Y007337D01*
X000470Y007337D01*
X000470Y007259D02*
X000470Y007492D01*
X000586Y007492D01*
X000625Y007453D01*
X000625Y007376D01*
X004410Y005509D02*
X004690Y005509D01*
X004690Y005174D02*
X004410Y005174D01*
X004410Y004709D02*
X004690Y004709D01*
X004690Y004374D02*
X004410Y004374D01*
X004410Y003909D02*
X004690Y003909D01*
X004690Y003574D02*
X004410Y003574D01*
X004515Y002880D02*
X004515Y002599D01*
X004180Y002599D02*
X004180Y002880D01*
X005180Y002880D02*
X005180Y002599D01*
X005515Y002599D02*
X005515Y002880D01*
X006180Y002880D02*
X006180Y002599D01*
X006515Y002599D02*
X006515Y002880D01*
X006630Y004009D02*
X006630Y004110D01*
X006663Y004143D01*
X006730Y004143D01*
X006763Y004110D01*
X006763Y004009D01*
X006830Y004009D02*
X006630Y004009D01*
X006763Y004076D02*
X006830Y004143D01*
X006830Y004230D02*
X006830Y004364D01*
X006797Y004451D02*
X006830Y004485D01*
X006830Y004551D01*
X006797Y004585D01*
X006763Y004585D01*
X006730Y004551D01*
X006730Y004485D01*
X006697Y004451D01*
X006663Y004451D01*
X006630Y004485D01*
X006630Y004551D01*
X006663Y004585D01*
X006630Y004672D02*
X006830Y004672D01*
X006830Y004806D01*
X006730Y004739D02*
X006730Y004672D01*
X006630Y004672D02*
X006630Y004806D01*
X006630Y004893D02*
X006630Y005027D01*
X006630Y004960D02*
X006830Y004960D01*
X006630Y004364D02*
X006630Y004230D01*
X006830Y004230D01*
X006730Y004230D02*
X006730Y004297D01*
X002722Y002003D02*
X002722Y001848D01*
X001815Y002599D02*
X001815Y002880D01*
X001480Y002880D02*
X001480Y002599D01*
X000730Y003709D02*
X000530Y003709D01*
X000530Y003810D01*
X000563Y003843D01*
X000630Y003843D01*
X000663Y003810D01*
X000663Y003709D01*
X000663Y003930D02*
X000663Y004030D01*
X000630Y004064D01*
X000563Y004064D01*
X000530Y004030D01*
X000530Y003930D01*
X000730Y003930D01*
X000663Y003997D02*
X000730Y004064D01*
X000697Y004151D02*
X000563Y004151D01*
X000530Y004185D01*
X000530Y004251D01*
X000563Y004285D01*
X000697Y004285D01*
X000730Y004251D01*
X000730Y004185D01*
X000697Y004151D01*
X000697Y004372D02*
X000563Y004372D01*
X000530Y004406D01*
X000530Y004472D01*
X000563Y004506D01*
X000630Y004506D02*
X000630Y004439D01*
X000630Y004506D02*
X000697Y004506D01*
X000730Y004472D01*
X000730Y004406D01*
X000697Y004372D01*
D12*
X011350Y001639D02*
X011350Y000639D01*
X012350Y000639D01*
X012350Y001639D01*
X011350Y001639D01*
D13*
X011100Y001639D02*
X011350Y001389D01*
X011600Y001639D01*
X012100Y001639D01*
X012350Y001389D01*
X012350Y000889D01*
X012100Y000639D01*
X011600Y000639D01*
X011350Y000889D01*
X011100Y000639D01*
X010600Y000639D01*
X010350Y000889D01*
X010350Y001389D01*
X010600Y001639D01*
X011100Y001639D01*
X011350Y001389D02*
X011350Y000889D01*
X010350Y000889D02*
X010100Y000639D01*
X009600Y000639D01*
X009350Y000889D01*
X009100Y000639D01*
X008600Y000639D01*
X008350Y000889D01*
X008100Y000639D01*
X007600Y000639D01*
X007350Y000889D01*
X007350Y001389D01*
X007600Y001639D01*
X008100Y001639D01*
X008350Y001389D01*
X008600Y001639D01*
X009100Y001639D01*
X009350Y001389D01*
X009600Y001639D01*
X010100Y001639D01*
X010350Y001389D01*
X009350Y001389D02*
X009350Y000889D01*
X008350Y000889D02*
X008350Y001389D01*
X007350Y001389D02*
X007100Y001639D01*
X006600Y001639D01*
X006350Y001389D01*
X006100Y001639D01*
X005600Y001639D01*
X005350Y001389D01*
X005100Y001639D01*
X004600Y001639D01*
X004350Y001389D01*
X004350Y000889D01*
X004600Y000639D01*
X005100Y000639D01*
X005350Y000889D01*
X005350Y001389D01*
X005350Y000889D02*
X005600Y000639D01*
X006100Y000639D01*
X006350Y000889D01*
X006350Y001389D01*
X006350Y000889D02*
X006600Y000639D01*
X007100Y000639D01*
X007350Y000889D01*
X004350Y000889D02*
X004100Y000639D01*
X003600Y000639D01*
X003350Y000889D01*
X003100Y000639D01*
X002600Y000639D01*
X002350Y000889D01*
X002100Y000639D01*
X001600Y000639D01*
X001350Y000889D01*
X001100Y000639D01*
X000600Y000639D01*
X000350Y000889D01*
X000350Y001389D01*
X000600Y001639D01*
X001100Y001639D01*
X001350Y001389D01*
X001600Y001639D01*
X002100Y001639D01*
X002350Y001389D01*
X002600Y001639D01*
X003100Y001639D01*
X003350Y001389D01*
X003600Y001639D01*
X004100Y001639D01*
X004350Y001389D01*
X003350Y001389D02*
X003350Y000889D01*
X002350Y000889D02*
X002350Y001389D01*
X001350Y001389D02*
X001350Y000889D01*
X002531Y002180D02*
X002531Y002217D01*
X002531Y002180D02*
X002531Y003299D01*
X002531Y003262D01*
X002531Y003299D02*
X003169Y003299D01*
X003169Y003262D01*
X003169Y003299D02*
X003169Y002180D01*
X003169Y002217D01*
X003169Y002180D02*
X002531Y002180D01*
X002531Y002534D02*
X002531Y002571D01*
X002531Y002908D02*
X002531Y002945D01*
X003169Y002945D02*
X003169Y002534D01*
X003849Y003740D02*
X003850Y003740D01*
X003850Y003739D02*
X003650Y003839D01*
X003850Y003939D01*
X003850Y003739D01*
X003850Y003798D02*
X003732Y003798D01*
X003685Y003857D02*
X003850Y003857D01*
X003850Y003915D02*
X003802Y003915D01*
X001086Y002858D02*
X001086Y002621D01*
X000614Y002621D02*
X000614Y002858D01*
X001880Y006599D02*
X002220Y006599D01*
X002220Y006880D02*
X001880Y006880D01*
X002100Y007639D02*
X001600Y007639D01*
X001350Y007889D01*
X001100Y007639D01*
X000600Y007639D01*
X000350Y007889D01*
X000350Y008389D01*
X000600Y008639D01*
X001100Y008639D01*
X001350Y008389D01*
X001600Y008639D01*
X002100Y008639D01*
X002350Y008389D01*
X002600Y008639D01*
X003100Y008639D01*
X003350Y008389D01*
X003600Y008639D01*
X004100Y008639D01*
X004350Y008389D01*
X004600Y008639D01*
X005100Y008639D01*
X005350Y008389D01*
X005600Y008639D01*
X006100Y008639D01*
X006350Y008389D01*
X006600Y008639D01*
X007100Y008639D01*
X007350Y008389D01*
X007600Y008639D01*
X008100Y008639D01*
X008350Y008389D01*
X008600Y008639D01*
X009100Y008639D01*
X009350Y008389D01*
X009600Y008639D01*
X010100Y008639D01*
X010350Y008389D01*
X010600Y008639D01*
X011100Y008639D01*
X011350Y008389D01*
X011600Y008639D01*
X012100Y008639D01*
X012350Y008389D01*
X012600Y008639D01*
X013100Y008639D01*
X013350Y008389D01*
X013350Y007889D01*
X013100Y007639D01*
X012600Y007639D01*
X012350Y007889D01*
X012100Y007639D01*
X011600Y007639D01*
X011350Y007889D01*
X011350Y008389D01*
X011350Y007889D02*
X011100Y007639D01*
X010600Y007639D01*
X010350Y007889D01*
X010100Y007639D01*
X009600Y007639D01*
X009350Y007889D01*
X009100Y007639D01*
X008600Y007639D01*
X008350Y007889D01*
X008350Y008389D01*
X008350Y007889D02*
X008100Y007639D01*
X007600Y007639D01*
X007350Y007889D01*
X007100Y007639D01*
X006600Y007639D01*
X006350Y007889D01*
X006100Y007639D01*
X005600Y007639D01*
X005350Y007889D01*
X005350Y008389D01*
X005350Y007889D02*
X005100Y007639D01*
X004600Y007639D01*
X004350Y007889D01*
X004100Y007639D01*
X003600Y007639D01*
X003350Y007889D01*
X003100Y007639D01*
X002600Y007639D01*
X002350Y007889D01*
X002350Y008389D01*
X002350Y007889D02*
X002100Y007639D01*
X001350Y007889D02*
X001350Y008389D01*
X003350Y008389D02*
X003350Y007889D01*
X004350Y007889D02*
X004350Y008389D01*
X006350Y008389D02*
X006350Y007889D01*
X007350Y007889D02*
X007350Y008389D01*
X009350Y008389D02*
X009350Y007889D01*
X010350Y007889D02*
X010350Y008389D01*
X012350Y008389D02*
X012350Y007889D01*
X006220Y006880D02*
X005880Y006880D01*
X005880Y006599D02*
X006220Y006599D01*
X012810Y001539D02*
X012900Y001539D01*
X012920Y001429D01*
X013010Y001399D01*
X013100Y001459D01*
X013170Y001389D01*
X013100Y001299D01*
X013140Y001219D01*
X013250Y001189D01*
X013250Y001099D01*
X013140Y001079D01*
X013100Y000999D01*
X013170Y000909D01*
X013100Y000839D01*
X013010Y000899D01*
X012920Y000859D01*
X012900Y000759D01*
X012810Y000759D01*
X012790Y000859D01*
X012700Y000899D01*
X012610Y000839D01*
X012550Y000909D01*
X012610Y000989D01*
X012590Y001029D01*
X012750Y001089D01*
X012740Y001039D02*
X012840Y000979D01*
X012950Y001019D01*
X013010Y001129D01*
X012970Y001259D01*
X012840Y001299D01*
X012730Y001259D01*
X012630Y001289D01*
X012580Y001379D01*
X012610Y001429D01*
X012710Y001369D01*
X012820Y001419D01*
X012840Y001519D01*
X012870Y001519D01*
X012910Y001419D01*
X013020Y001379D01*
X013110Y001429D01*
X013140Y001389D01*
X013080Y001309D01*
X013140Y001199D01*
X013230Y001169D01*
X013230Y001119D01*
X013120Y001089D01*
X013080Y000999D01*
X013140Y000919D01*
X013100Y000869D01*
X013020Y000919D01*
X012900Y000869D01*
X012880Y000789D01*
X012830Y000779D01*
X012810Y000869D01*
X012700Y000919D01*
X012620Y000879D01*
X012590Y000919D01*
X012640Y001009D01*
X012740Y001039D01*
X012822Y000990D02*
X012629Y000990D01*
X012597Y000932D02*
X013131Y000932D01*
X013103Y000873D02*
X013094Y000873D01*
X012910Y000873D02*
X012801Y000873D01*
X012822Y000815D02*
X012886Y000815D01*
X012870Y000990D02*
X013087Y000990D01*
X013102Y001049D02*
X012966Y001049D01*
X012998Y001107D02*
X013186Y001107D01*
X013230Y001166D02*
X012999Y001166D01*
X012981Y001224D02*
X013126Y001224D01*
X013094Y001283D02*
X012894Y001283D01*
X012795Y001283D02*
X012652Y001283D01*
X012610Y001309D02*
X012550Y001389D01*
X012610Y001459D01*
X012700Y001399D01*
X012790Y001439D01*
X012810Y001539D01*
X012840Y001517D02*
X012871Y001517D01*
X012894Y001458D02*
X012828Y001458D01*
X012777Y001400D02*
X012964Y001400D01*
X013057Y001400D02*
X013132Y001400D01*
X013104Y001341D02*
X012601Y001341D01*
X012610Y001309D02*
X012590Y001269D01*
X012750Y001209D01*
X012762Y001226D01*
X012777Y001241D01*
X012794Y001254D01*
X012813Y001263D01*
X012834Y001268D01*
X012855Y001270D01*
X012876Y001268D01*
X012896Y001263D01*
X012915Y001254D01*
X012933Y001242D01*
X012948Y001227D01*
X012960Y001210D01*
X012969Y001190D01*
X012974Y001170D01*
X012976Y001149D01*
X012974Y001128D01*
X012969Y001108D01*
X012960Y001088D01*
X012948Y001071D01*
X012933Y001056D01*
X012915Y001044D01*
X012896Y001035D01*
X012876Y001030D01*
X012855Y001028D01*
X012834Y001030D01*
X012813Y001035D01*
X012794Y001044D01*
X012777Y001057D01*
X012762Y001072D01*
X012750Y001089D01*
X012659Y001400D02*
X012592Y001400D01*
D14*
X010150Y002139D02*
X009450Y002139D01*
X007155Y003188D02*
X007155Y006791D01*
X013345Y006791D01*
X013345Y003188D01*
X007155Y003188D01*
X006501Y003741D02*
X005399Y003741D01*
X005399Y005237D01*
X006501Y005237D01*
X006501Y004883D01*
X006501Y004096D01*
X006501Y003741D01*
X003134Y003619D02*
X003134Y003589D01*
X003134Y006089D01*
X001166Y006089D01*
X001166Y003589D01*
X003134Y003589D01*
X001166Y003589D01*
X001166Y003619D01*
X001166Y004050D02*
X001166Y004129D01*
X001166Y004550D02*
X001166Y004629D01*
X001166Y005050D02*
X001166Y005129D01*
X001166Y005550D02*
X001166Y005629D01*
X001166Y006060D02*
X001166Y006089D01*
X003134Y006089D01*
X003134Y006060D01*
X003134Y005629D02*
X003134Y005550D01*
X003134Y005129D02*
X003134Y005089D01*
X002288Y005089D01*
X002288Y004589D01*
X003134Y004589D01*
X002288Y004589D01*
X002288Y005089D01*
X003134Y005089D01*
X003134Y005050D01*
X003134Y004629D02*
X003134Y004589D01*
X003134Y004550D01*
X003134Y004129D02*
X003134Y004050D01*
D15*
X005511Y003999D02*
X005513Y004007D01*
X005518Y004014D01*
X005525Y004018D01*
X005533Y004019D01*
X005541Y004016D01*
X005547Y004011D01*
X005551Y004003D01*
X005551Y003995D01*
X005547Y003987D01*
X005541Y003982D01*
X005533Y003979D01*
X005525Y003980D01*
X005518Y003984D01*
X005513Y003991D01*
X005511Y003999D01*
D16*
X005348Y002968D03*
X005348Y002508D03*
X006348Y002508D03*
X006348Y002968D03*
X004348Y002968D03*
X004348Y002508D03*
X001648Y002508D03*
X001648Y002968D03*
D17*
X001650Y002739D03*
D18*
X001390Y002899D02*
X001170Y002899D01*
X001170Y003010D01*
X001207Y003046D01*
X001280Y003046D01*
X001317Y003010D01*
X001317Y002899D01*
X001317Y002973D02*
X001390Y003046D01*
X001390Y003120D02*
X001390Y003267D01*
X001390Y003194D02*
X001170Y003194D01*
X001243Y003120D01*
X001028Y003274D02*
X000881Y003274D01*
X000954Y003274D02*
X000954Y003495D01*
X000881Y003421D01*
X000807Y003495D02*
X000660Y003495D01*
X000660Y003274D01*
X000660Y003385D02*
X000733Y003385D01*
X003310Y002889D02*
X003310Y002815D01*
X003347Y002778D01*
X003310Y002704D02*
X003493Y002704D01*
X003530Y002668D01*
X003530Y002594D01*
X003493Y002557D01*
X003310Y002557D01*
X003530Y002778D02*
X003383Y002925D01*
X003347Y002925D01*
X003310Y002889D01*
X003530Y002925D02*
X003530Y002778D01*
X003870Y002936D02*
X003907Y002899D01*
X004053Y002899D01*
X004090Y002936D01*
X004090Y003010D01*
X004053Y003046D01*
X003980Y003120D02*
X003980Y003267D01*
X004090Y003231D02*
X003870Y003231D01*
X003980Y003120D01*
X003907Y003046D02*
X003870Y003010D01*
X003870Y002936D01*
X004870Y002936D02*
X004907Y002899D01*
X005053Y002899D01*
X005090Y002936D01*
X005090Y003010D01*
X005053Y003046D01*
X005053Y003120D02*
X005090Y003157D01*
X005090Y003231D01*
X005053Y003267D01*
X004980Y003267D01*
X004943Y003231D01*
X004943Y003194D01*
X004980Y003120D01*
X004870Y003120D01*
X004870Y003267D01*
X004907Y003046D02*
X004870Y003010D01*
X004870Y002936D01*
X005870Y002936D02*
X005907Y002899D01*
X006053Y002899D01*
X006090Y002936D01*
X006090Y003010D01*
X006053Y003046D01*
X006053Y003120D02*
X006090Y003157D01*
X006090Y003231D01*
X006053Y003267D01*
X006017Y003267D01*
X005980Y003231D01*
X005980Y003120D01*
X006053Y003120D01*
X005980Y003120D02*
X005907Y003194D01*
X005870Y003267D01*
X005907Y003046D02*
X005870Y003010D01*
X005870Y002936D01*
X007288Y003467D02*
X007288Y003541D01*
X007324Y003577D01*
X007398Y003577D02*
X007434Y003504D01*
X007434Y003467D01*
X007398Y003431D01*
X007324Y003431D01*
X007288Y003467D01*
X007398Y003577D02*
X007508Y003577D01*
X007508Y003431D01*
X007471Y003652D02*
X007434Y003652D01*
X007288Y003798D01*
X007288Y003652D01*
X007471Y003652D02*
X007508Y003688D01*
X007508Y003762D01*
X007471Y003798D01*
X005078Y004036D02*
X005041Y003999D01*
X004968Y003999D01*
X004931Y004036D01*
X004857Y004036D02*
X004820Y003999D01*
X004747Y003999D01*
X004710Y004036D01*
X004710Y004183D01*
X004747Y004220D01*
X004820Y004220D01*
X004857Y004183D01*
X004931Y004183D02*
X004968Y004220D01*
X005041Y004220D01*
X005078Y004183D01*
X005078Y004146D01*
X005041Y004110D01*
X005078Y004073D01*
X005078Y004036D01*
X005041Y004110D02*
X005004Y004110D01*
X004931Y004799D02*
X005078Y004946D01*
X005078Y004983D01*
X005041Y005020D01*
X004968Y005020D01*
X004931Y004983D01*
X004857Y004983D02*
X004820Y005020D01*
X004747Y005020D01*
X004710Y004983D01*
X004710Y004836D01*
X004747Y004799D01*
X004820Y004799D01*
X004857Y004836D01*
X004931Y004799D02*
X005078Y004799D01*
X005078Y005599D02*
X004931Y005599D01*
X005004Y005599D02*
X005004Y005820D01*
X004931Y005746D01*
X004857Y005783D02*
X004820Y005820D01*
X004747Y005820D01*
X004710Y005783D01*
X004710Y005636D01*
X004747Y005599D01*
X004820Y005599D01*
X004857Y005636D01*
X005510Y006249D02*
X005510Y006470D01*
X005620Y006470D01*
X005657Y006433D01*
X005657Y006360D01*
X005620Y006323D01*
X005510Y006323D01*
X005583Y006323D02*
X005657Y006249D01*
X005731Y006286D02*
X005768Y006249D01*
X005841Y006249D01*
X005878Y006286D01*
X005878Y006323D01*
X005841Y006360D01*
X005804Y006360D01*
X005841Y006360D02*
X005878Y006396D01*
X005878Y006433D01*
X005841Y006470D01*
X005768Y006470D01*
X005731Y006433D01*
X007288Y006407D02*
X007288Y006554D01*
X007288Y006481D02*
X007508Y006481D01*
X007434Y006554D01*
X007434Y006333D02*
X007471Y006333D01*
X007508Y006297D01*
X007508Y006223D01*
X007471Y006186D01*
X007434Y006186D01*
X007398Y006223D01*
X007398Y006297D01*
X007434Y006333D01*
X007398Y006297D02*
X007361Y006333D01*
X007324Y006333D01*
X007288Y006297D01*
X007288Y006223D01*
X007324Y006186D01*
X007361Y006186D01*
X007398Y006223D01*
X011067Y004411D02*
X011067Y004338D01*
X011104Y004301D01*
X011140Y004301D01*
X011177Y004338D01*
X011177Y004375D01*
X011177Y004338D02*
X011214Y004301D01*
X011251Y004301D01*
X011287Y004338D01*
X011287Y004411D01*
X011251Y004448D01*
X011104Y004448D02*
X011067Y004411D01*
X011104Y004227D02*
X011067Y004190D01*
X011067Y004117D01*
X011104Y004080D01*
X011140Y004080D01*
X011177Y004117D01*
X011177Y004227D01*
X011104Y004227D01*
X011177Y004227D02*
X011251Y004154D01*
X011287Y004080D01*
X012957Y005738D02*
X012957Y005885D01*
X012957Y005812D02*
X013177Y005812D01*
X013104Y005885D01*
X001440Y006599D02*
X001220Y006599D01*
X001220Y006710D01*
X001257Y006746D01*
X001330Y006746D01*
X001367Y006710D01*
X001367Y006599D01*
X001367Y006673D02*
X001440Y006746D01*
X001440Y006820D02*
X001293Y006967D01*
X001257Y006967D01*
X001220Y006931D01*
X001220Y006857D01*
X001257Y006820D01*
X001440Y006820D02*
X001440Y006967D01*
D19*
X003055Y006922D03*
X003055Y006557D03*
X003645Y006557D03*
X004455Y006922D03*
X005045Y006922D03*
X005045Y006557D03*
D20*
X004996Y006641D03*
X004996Y006838D03*
X004504Y006838D03*
X004504Y006641D03*
X003596Y006641D03*
X003596Y006838D03*
X003104Y006838D03*
X003104Y006641D03*
D21*
X003119Y006739D03*
X003581Y006739D03*
X004519Y006739D03*
X004981Y006739D03*
D22*
X004711Y006739D03*
X003389Y006739D03*
D23*
X003606Y006917D03*
X004494Y006562D03*
D24*
X004371Y006557D03*
X003729Y006922D03*
D25*
X002300Y006739D03*
X001800Y006739D03*
X005800Y006739D03*
X006300Y006739D03*
D26*
X004550Y005351D02*
X004550Y005327D01*
X004550Y004551D02*
X004550Y004527D01*
X004550Y003751D02*
X004550Y003727D01*
X004362Y002739D02*
X004338Y002739D01*
X005338Y002739D02*
X005362Y002739D01*
X006338Y002739D02*
X006362Y002739D01*
D27*
X004778Y003741D03*
X004318Y003741D03*
X004318Y004541D03*
X004778Y004541D03*
X004778Y005341D03*
X004318Y005341D03*
D28*
X003313Y003113D03*
X002387Y002739D03*
X003313Y002365D03*
D29*
X002850Y001139D03*
X003850Y001139D03*
X004850Y001139D03*
X005850Y001139D03*
X006850Y001139D03*
X007850Y001139D03*
X008850Y001139D03*
X009850Y001139D03*
X010850Y001139D03*
X011850Y001139D03*
X001850Y001139D03*
X000850Y001139D03*
X000850Y008139D03*
X001850Y008139D03*
X002850Y008139D03*
X003850Y008139D03*
X004850Y008139D03*
X005850Y008139D03*
X006850Y008139D03*
X007850Y008139D03*
X008850Y008139D03*
X009850Y008139D03*
X010850Y008139D03*
X011850Y008139D03*
X012850Y008139D03*
D30*
X012809Y004005D03*
M02*
