G75*
%MOIN*%
%OFA0B0*%
%FSLAX24Y24*%
%IPPOS*%
%LPD*%
%AMOC8*
5,1,8,0,0,1.08239X$1,22.5*
%
%ADD10C,0.0074*%
%ADD11R,0.1182X0.0371*%
%ADD12R,0.0474X0.0434*%
%ADD13R,0.0395X0.0749*%
%ADD14R,0.0474X0.0513*%
%ADD15R,0.0552X0.0552*%
%ADD16R,0.0513X0.0474*%
%ADD17R,0.0552X0.0395*%
%ADD18R,0.0552X0.0297*%
%ADD19OC8,0.0780*%
%ADD20C,0.0277*%
D10*
X002395Y003987D02*
X003503Y003987D01*
X003503Y003691D01*
X002395Y003691D01*
X002395Y003987D01*
X002395Y003764D02*
X003503Y003764D01*
X003503Y003837D02*
X002395Y003837D01*
X002395Y003910D02*
X003503Y003910D01*
X003503Y003983D02*
X002395Y003983D01*
D11*
X002949Y004339D03*
X002949Y004839D03*
X002949Y005339D03*
X002949Y005839D03*
X001351Y005839D03*
X001351Y005339D03*
X001351Y004839D03*
X001351Y004339D03*
X001351Y003839D03*
D12*
X005635Y003682D03*
X006265Y003682D03*
X006265Y005297D03*
X005635Y005297D03*
D13*
X005478Y004489D03*
D14*
X005350Y003074D03*
X005350Y002405D03*
X004350Y002405D03*
X004350Y003074D03*
X006350Y003074D03*
X006350Y002405D03*
X001650Y002405D03*
X001650Y003074D03*
X001715Y006739D03*
X002385Y006739D03*
X005715Y006739D03*
X006385Y006739D03*
D15*
X005163Y006739D03*
X004337Y006739D03*
X003763Y006739D03*
X002937Y006739D03*
D16*
X004215Y005339D03*
X004885Y005339D03*
X004885Y004539D03*
X004215Y004539D03*
X004215Y003739D03*
X004885Y003739D03*
D17*
X000850Y003094D03*
X000850Y002385D03*
D18*
X002338Y002739D03*
X003362Y002365D03*
X003362Y003113D03*
D19*
X000850Y001139D03*
X001850Y001139D03*
X002850Y001139D03*
X003850Y001139D03*
X004850Y001139D03*
X005850Y001139D03*
X006850Y001139D03*
X007850Y001139D03*
X008850Y001139D03*
X009850Y001139D03*
X010850Y001139D03*
X011850Y001139D03*
X011850Y008139D03*
X010850Y008139D03*
X009850Y008139D03*
X008850Y008139D03*
X007850Y008139D03*
X006850Y008139D03*
X005850Y008139D03*
X004850Y008139D03*
X003850Y008139D03*
X002850Y008139D03*
X001850Y008139D03*
X000850Y008139D03*
X012850Y008139D03*
D20*
X012745Y006161D02*
X012745Y006161D01*
X012745Y006751D01*
X012745Y006751D01*
X012745Y006161D01*
X012745Y006437D02*
X012745Y006437D01*
X012745Y006713D02*
X012745Y006713D01*
X012430Y006161D02*
X012430Y006161D01*
X012430Y006751D01*
X012430Y006751D01*
X012430Y006161D01*
X012430Y006437D02*
X012430Y006437D01*
X012430Y006713D02*
X012430Y006713D01*
X012115Y006161D02*
X012115Y006161D01*
X012115Y006751D01*
X012115Y006751D01*
X012115Y006161D01*
X012115Y006437D02*
X012115Y006437D01*
X012115Y006713D02*
X012115Y006713D01*
X011800Y006161D02*
X011800Y006161D01*
X011800Y006751D01*
X011800Y006751D01*
X011800Y006161D01*
X011800Y006437D02*
X011800Y006437D01*
X011800Y006713D02*
X011800Y006713D01*
X011485Y006161D02*
X011485Y006161D01*
X011485Y006751D01*
X011485Y006751D01*
X011485Y006161D01*
X011485Y006437D02*
X011485Y006437D01*
X011485Y006713D02*
X011485Y006713D01*
X011170Y006161D02*
X011170Y006161D01*
X011170Y006751D01*
X011170Y006751D01*
X011170Y006161D01*
X011170Y006437D02*
X011170Y006437D01*
X011170Y006713D02*
X011170Y006713D01*
X010855Y006161D02*
X010855Y006161D01*
X010855Y006751D01*
X010855Y006751D01*
X010855Y006161D01*
X010855Y006437D02*
X010855Y006437D01*
X010855Y006713D02*
X010855Y006713D01*
X010540Y006161D02*
X010540Y006161D01*
X010540Y006751D01*
X010540Y006751D01*
X010540Y006161D01*
X010540Y006437D02*
X010540Y006437D01*
X010540Y006713D02*
X010540Y006713D01*
X010225Y006161D02*
X010225Y006161D01*
X010225Y006751D01*
X010225Y006751D01*
X010225Y006161D01*
X010225Y006437D02*
X010225Y006437D01*
X010225Y006713D02*
X010225Y006713D01*
X009910Y006161D02*
X009910Y006161D01*
X009910Y006751D01*
X009910Y006751D01*
X009910Y006161D01*
X009910Y006437D02*
X009910Y006437D01*
X009910Y006713D02*
X009910Y006713D01*
X009595Y006161D02*
X009595Y006161D01*
X009595Y006751D01*
X009595Y006751D01*
X009595Y006161D01*
X009595Y006437D02*
X009595Y006437D01*
X009595Y006713D02*
X009595Y006713D01*
X009281Y006161D02*
X009281Y006161D01*
X009281Y006751D01*
X009281Y006751D01*
X009281Y006161D01*
X009281Y006437D02*
X009281Y006437D01*
X009281Y006713D02*
X009281Y006713D01*
X008966Y006161D02*
X008966Y006161D01*
X008966Y006751D01*
X008966Y006751D01*
X008966Y006161D01*
X008966Y006437D02*
X008966Y006437D01*
X008966Y006713D02*
X008966Y006713D01*
X008651Y006161D02*
X008651Y006161D01*
X008651Y006751D01*
X008651Y006751D01*
X008651Y006161D01*
X008651Y006437D02*
X008651Y006437D01*
X008651Y006713D02*
X008651Y006713D01*
X008336Y006161D02*
X008336Y006161D01*
X008336Y006751D01*
X008336Y006751D01*
X008336Y006161D01*
X008336Y006437D02*
X008336Y006437D01*
X008336Y006713D02*
X008336Y006713D01*
X008021Y006161D02*
X008021Y006161D01*
X008021Y006751D01*
X008021Y006751D01*
X008021Y006161D01*
X008021Y006437D02*
X008021Y006437D01*
X008021Y006713D02*
X008021Y006713D01*
X007706Y006161D02*
X007706Y006161D01*
X007706Y006751D01*
X007706Y006751D01*
X007706Y006161D01*
X007706Y006437D02*
X007706Y006437D01*
X007706Y006713D02*
X007706Y006713D01*
X007784Y005777D02*
X007784Y005777D01*
X007194Y005777D01*
X007194Y005777D01*
X007784Y005777D01*
X007784Y005462D02*
X007784Y005462D01*
X007194Y005462D01*
X007194Y005462D01*
X007784Y005462D01*
X007784Y005147D02*
X007784Y005147D01*
X007194Y005147D01*
X007194Y005147D01*
X007784Y005147D01*
X007194Y004832D02*
X007194Y004832D01*
X007784Y004832D01*
X007784Y004832D01*
X007194Y004832D01*
X007194Y004517D02*
X007194Y004517D01*
X007784Y004517D01*
X007784Y004517D01*
X007194Y004517D01*
X007194Y004202D02*
X007194Y004202D01*
X007784Y004202D01*
X007784Y004202D01*
X007194Y004202D01*
X007706Y003228D02*
X007706Y003228D01*
X007706Y003818D01*
X007706Y003818D01*
X007706Y003228D01*
X007706Y003504D02*
X007706Y003504D01*
X007706Y003780D02*
X007706Y003780D01*
X008021Y003228D02*
X008021Y003228D01*
X008021Y003818D01*
X008021Y003818D01*
X008021Y003228D01*
X008021Y003504D02*
X008021Y003504D01*
X008021Y003780D02*
X008021Y003780D01*
X008336Y003228D02*
X008336Y003228D01*
X008336Y003818D01*
X008336Y003818D01*
X008336Y003228D01*
X008336Y003504D02*
X008336Y003504D01*
X008336Y003780D02*
X008336Y003780D01*
X008651Y003228D02*
X008651Y003228D01*
X008651Y003818D01*
X008651Y003818D01*
X008651Y003228D01*
X008651Y003504D02*
X008651Y003504D01*
X008651Y003780D02*
X008651Y003780D01*
X008966Y003228D02*
X008966Y003228D01*
X008966Y003818D01*
X008966Y003818D01*
X008966Y003228D01*
X008966Y003504D02*
X008966Y003504D01*
X008966Y003780D02*
X008966Y003780D01*
X009281Y003228D02*
X009281Y003228D01*
X009281Y003818D01*
X009281Y003818D01*
X009281Y003228D01*
X009281Y003504D02*
X009281Y003504D01*
X009281Y003780D02*
X009281Y003780D01*
X009595Y003228D02*
X009595Y003228D01*
X009595Y003818D01*
X009595Y003818D01*
X009595Y003228D01*
X009595Y003504D02*
X009595Y003504D01*
X009595Y003780D02*
X009595Y003780D01*
X009910Y003228D02*
X009910Y003228D01*
X009910Y003818D01*
X009910Y003818D01*
X009910Y003228D01*
X009910Y003504D02*
X009910Y003504D01*
X009910Y003780D02*
X009910Y003780D01*
X010225Y003228D02*
X010225Y003228D01*
X010225Y003818D01*
X010225Y003818D01*
X010225Y003228D01*
X010225Y003504D02*
X010225Y003504D01*
X010225Y003780D02*
X010225Y003780D01*
X010540Y003228D02*
X010540Y003228D01*
X010540Y003818D01*
X010540Y003818D01*
X010540Y003228D01*
X010540Y003504D02*
X010540Y003504D01*
X010540Y003780D02*
X010540Y003780D01*
X010855Y003228D02*
X010855Y003228D01*
X010855Y003818D01*
X010855Y003818D01*
X010855Y003228D01*
X010855Y003504D02*
X010855Y003504D01*
X010855Y003780D02*
X010855Y003780D01*
X011170Y003228D02*
X011170Y003228D01*
X011170Y003818D01*
X011170Y003818D01*
X011170Y003228D01*
X011170Y003504D02*
X011170Y003504D01*
X011170Y003780D02*
X011170Y003780D01*
X013060Y006161D02*
X013060Y006161D01*
X013060Y006751D01*
X013060Y006751D01*
X013060Y006161D01*
X013060Y006437D02*
X013060Y006437D01*
X013060Y006713D02*
X013060Y006713D01*
M02*
