%
M48
M72
T01C0.0130
T02C0.0400
%
T01
X2050Y2339
X2850Y2439
X2850Y2839
X3750Y3739
X4550Y4139
X3750Y4539
X3750Y4939
X4550Y4939
X5850Y4739
X6250Y4839
X5850Y4139
X6950Y3589
X5950Y3339
X5850Y2939
X4950Y3239
X4950Y2239
X5250Y1539
X4250Y1539
X7050Y2539
X7650Y2339
X8050Y2739
X8350Y2914
X8650Y2689
X8350Y2539
X8950Y2839
X9250Y2689
X9850Y2939
X10150Y2689
X10450Y2839
X10750Y2439
X10350Y4139
X9875Y4164
X10350Y4539
X9950Y4739
X10350Y4939
X10750Y5139
X10850Y5489
X11450Y5564
X11650Y5864
X11850Y5564
X12050Y5864
X12250Y5564
X12450Y5864
X12650Y5564
X12850Y5864
X13050Y5564
X10550Y7064
X9750Y7039
X9550Y5739
X9250Y5539
X8650Y5739
X8150Y4839
X8250Y4139
X8950Y4139
X10150Y5739
X7400Y6989
X6850Y6939
X7150Y6089
X6750Y5889
X6350Y5939
X5450Y6239
X4050Y6239
X3850Y5939
X2250Y6139
X2150Y5639
X2150Y4339
X1250Y3439
X3250Y7739
T02
X850Y1139
X1850Y1139
X2850Y1139
X3850Y1139
X4850Y1139
X5850Y1139
X6850Y1139
X7850Y1139
X8850Y1139
X9850Y1139
X10850Y1139
X11850Y1139
X11850Y8139
X10850Y8139
X9850Y8139
X8850Y8139
X7850Y8139
X6850Y8139
X5850Y8139
X4850Y8139
X3850Y8139
X2850Y8139
X1850Y8139
X850Y8139
X12850Y8139
M30
