G75*
G70*
%OFA0B0*%
%FSLAX24Y24*%
%IPPOS*%
%LPD*%
%AMOC8*
5,1,8,0,0,1.08239X$1,22.5*
%
%ADD10OC8,0.0700*%
%ADD11OC8,0.0480*%
%ADD12R,0.0630X0.0460*%
%ADD13C,0.0100*%
%ADD14C,0.0340*%
%ADD15C,0.0160*%
%ADD16OC8,0.0340*%
D10*
X001498Y001204D03*
X003748Y001554D03*
X001498Y002204D03*
X001498Y003204D03*
X001498Y004204D03*
X001498Y005204D03*
X001498Y006204D03*
D11*
X003648Y006004D03*
X004848Y006004D03*
X004848Y005004D03*
X003648Y005004D03*
X004948Y004104D03*
X004948Y001104D03*
D12*
X010548Y003454D03*
X010548Y004054D03*
D13*
X011198Y004054D01*
X010548Y004054D02*
X006398Y004054D01*
X004898Y005554D01*
X004698Y005554D01*
X003798Y006454D01*
X001698Y006454D01*
X001498Y006254D01*
X001498Y006204D01*
X003648Y006004D02*
X003698Y005954D01*
X003698Y005554D01*
X004898Y004354D01*
X004898Y004154D01*
X004948Y004104D01*
X006398Y002654D01*
X006298Y002054D02*
X002298Y002054D01*
X001498Y001254D01*
X001498Y001204D01*
X003748Y001554D02*
X003798Y001554D01*
X003998Y001754D01*
X006998Y001754D01*
X006298Y002054D02*
X007698Y003454D01*
X008298Y003454D01*
X010548Y003454D01*
X012398Y003354D02*
X010198Y005554D01*
X005398Y005554D01*
X005398Y006054D02*
X009998Y006054D01*
X010398Y005654D01*
X010598Y005654D01*
X011098Y005654D02*
X010298Y006454D01*
X005298Y006454D01*
X004848Y006004D01*
X011098Y005654D02*
X012898Y005654D01*
D14*
X012898Y005654D03*
X010598Y005654D03*
X011198Y004054D03*
X012398Y003354D03*
X008298Y003454D03*
X006398Y002654D03*
X006998Y001754D03*
X005398Y005554D03*
X005398Y006054D03*
D15*
X002028Y000985D02*
X001827Y000784D01*
X004674Y000784D01*
X004528Y000930D01*
X004528Y001278D01*
X004774Y001524D01*
X005122Y001524D01*
X005368Y001278D01*
X005368Y000930D01*
X005222Y000784D01*
X015768Y000784D01*
X015768Y004354D01*
X013548Y004354D01*
X013548Y006620D01*
X010457Y006620D01*
X010528Y006550D01*
X011193Y005884D01*
X012633Y005884D01*
X012700Y005951D01*
X012828Y006004D01*
X012967Y006004D01*
X013096Y005951D01*
X013194Y005853D01*
X013248Y005724D01*
X013248Y005585D01*
X013194Y005456D01*
X013096Y005358D01*
X012967Y005304D01*
X012828Y005304D01*
X012700Y005358D01*
X012633Y005424D01*
X011193Y005424D01*
X011003Y005424D01*
X010917Y005510D01*
X010894Y005456D01*
X010796Y005358D01*
X010742Y005335D01*
X012373Y003704D01*
X012467Y003704D01*
X012596Y003651D01*
X012694Y003553D01*
X012748Y003424D01*
X012748Y003285D01*
X012694Y003156D01*
X012596Y003058D01*
X012467Y003004D01*
X012328Y003004D01*
X012200Y003058D01*
X012101Y003156D01*
X012048Y003285D01*
X012048Y003379D01*
X011517Y003910D01*
X011494Y003856D01*
X011396Y003758D01*
X011267Y003704D01*
X011128Y003704D01*
X011043Y003740D01*
X011043Y003150D01*
X010937Y003044D01*
X010158Y003044D01*
X010053Y003150D01*
X010053Y003224D01*
X008563Y003224D01*
X008496Y003158D01*
X008367Y003104D01*
X008228Y003104D01*
X008100Y003158D01*
X008033Y003224D01*
X007793Y003224D01*
X006553Y001984D01*
X006733Y001984D01*
X006800Y002051D01*
X006928Y002104D01*
X007067Y002104D01*
X007196Y002051D01*
X007294Y001953D01*
X007348Y001824D01*
X007348Y001685D01*
X007294Y001556D01*
X007196Y001458D01*
X007067Y001404D01*
X006928Y001404D01*
X006800Y001458D01*
X006733Y001524D01*
X004278Y001524D01*
X004278Y001335D01*
X003967Y001024D01*
X003528Y001024D01*
X003218Y001335D01*
X003218Y001774D01*
X003268Y001824D01*
X002393Y001824D01*
X002010Y001441D01*
X002028Y001424D01*
X002028Y000985D01*
X002028Y001030D02*
X003523Y001030D01*
X003364Y001189D02*
X002028Y001189D01*
X002028Y001347D02*
X003218Y001347D01*
X003218Y001506D02*
X002074Y001506D01*
X002233Y001664D02*
X003218Y001664D01*
X003267Y001823D02*
X002391Y001823D01*
X002028Y002109D02*
X002028Y002424D01*
X001747Y002704D01*
X002028Y002985D01*
X002028Y003184D01*
X001518Y003184D01*
X001518Y003224D01*
X002028Y003224D01*
X002028Y003424D01*
X001747Y003704D01*
X002028Y003985D01*
X002028Y004424D01*
X001747Y004704D01*
X002028Y004985D01*
X002028Y005424D01*
X001747Y005704D01*
X002028Y005985D01*
X002028Y006224D01*
X003274Y006224D01*
X003228Y006178D01*
X003228Y005830D01*
X003468Y005590D01*
X003468Y005459D01*
X003503Y005424D01*
X003474Y005424D01*
X003228Y005178D01*
X003228Y005004D01*
X003228Y004830D01*
X003474Y004584D01*
X003648Y004584D01*
X003822Y004584D01*
X004068Y004830D01*
X004068Y004859D01*
X004588Y004339D01*
X004528Y004278D01*
X004528Y003930D01*
X004774Y003684D01*
X005043Y003684D01*
X006048Y002679D01*
X006048Y002585D01*
X006101Y002456D01*
X006200Y002358D01*
X006254Y002335D01*
X006203Y002284D01*
X002393Y002284D01*
X002203Y002284D01*
X002028Y002109D01*
X002028Y002140D02*
X002058Y002140D01*
X002028Y002298D02*
X006217Y002298D01*
X006101Y002457D02*
X001995Y002457D01*
X001836Y002615D02*
X006048Y002615D01*
X005953Y002774D02*
X001817Y002774D01*
X001975Y002932D02*
X005794Y002932D01*
X005636Y003091D02*
X002028Y003091D01*
X002028Y003250D02*
X005477Y003250D01*
X005319Y003408D02*
X002028Y003408D01*
X001885Y003567D02*
X005160Y003567D01*
X004733Y003725D02*
X001768Y003725D01*
X001927Y003884D02*
X004574Y003884D01*
X004528Y004042D02*
X002028Y004042D01*
X002028Y004201D02*
X004528Y004201D01*
X004568Y004359D02*
X002028Y004359D01*
X001934Y004518D02*
X004409Y004518D01*
X004250Y004676D02*
X003914Y004676D01*
X004068Y004835D02*
X004092Y004835D01*
X003648Y004835D02*
X003648Y004835D01*
X003648Y004676D02*
X003648Y004676D01*
X003648Y004584D02*
X003648Y005004D01*
X003648Y005004D01*
X003648Y004584D01*
X003382Y004676D02*
X001775Y004676D01*
X001878Y004835D02*
X003228Y004835D01*
X003228Y004994D02*
X002028Y004994D01*
X002028Y005152D02*
X003228Y005152D01*
X003228Y005004D02*
X003647Y005004D01*
X003228Y005004D01*
X003647Y005004D02*
X003647Y005004D01*
X003648Y004994D02*
X003648Y004994D01*
X003360Y005311D02*
X002028Y005311D01*
X001982Y005469D02*
X003468Y005469D01*
X003430Y005628D02*
X001824Y005628D01*
X001829Y005786D02*
X003272Y005786D01*
X003228Y005945D02*
X001988Y005945D01*
X002028Y006103D02*
X003228Y006103D01*
X007660Y003091D02*
X010112Y003091D01*
X010984Y003091D02*
X012166Y003091D01*
X012062Y003250D02*
X011043Y003250D01*
X011043Y003408D02*
X012019Y003408D01*
X011860Y003567D02*
X011043Y003567D01*
X011043Y003725D02*
X011078Y003725D01*
X011318Y003725D02*
X011702Y003725D01*
X011543Y003884D02*
X011506Y003884D01*
X012035Y004042D02*
X015768Y004042D01*
X015768Y003884D02*
X012194Y003884D01*
X012352Y003725D02*
X015768Y003725D01*
X015768Y003567D02*
X012680Y003567D01*
X012748Y003408D02*
X015768Y003408D01*
X015768Y003250D02*
X012733Y003250D01*
X012629Y003091D02*
X015768Y003091D01*
X015768Y002932D02*
X007501Y002932D01*
X007343Y002774D02*
X015768Y002774D01*
X015768Y002615D02*
X007184Y002615D01*
X007026Y002457D02*
X015768Y002457D01*
X015768Y002298D02*
X006867Y002298D01*
X006708Y002140D02*
X015768Y002140D01*
X015768Y001981D02*
X007266Y001981D01*
X007348Y001823D02*
X015768Y001823D01*
X015768Y001664D02*
X007339Y001664D01*
X007244Y001506D02*
X015768Y001506D01*
X015768Y001347D02*
X005299Y001347D01*
X005140Y001506D02*
X006752Y001506D01*
X005368Y001189D02*
X015768Y001189D01*
X015768Y001030D02*
X005368Y001030D01*
X005309Y000871D02*
X015768Y000871D01*
X015768Y004201D02*
X011876Y004201D01*
X011718Y004359D02*
X013548Y004359D01*
X013548Y004518D02*
X011559Y004518D01*
X011401Y004676D02*
X013548Y004676D01*
X013548Y004835D02*
X011242Y004835D01*
X011084Y004994D02*
X013548Y004994D01*
X013548Y005152D02*
X010925Y005152D01*
X010767Y005311D02*
X012813Y005311D01*
X012983Y005311D02*
X013548Y005311D01*
X013548Y005469D02*
X013200Y005469D01*
X013248Y005628D02*
X013548Y005628D01*
X013548Y005786D02*
X013222Y005786D01*
X013102Y005945D02*
X013548Y005945D01*
X013548Y006103D02*
X010974Y006103D01*
X011133Y005945D02*
X012693Y005945D01*
X013548Y006262D02*
X010815Y006262D01*
X010657Y006420D02*
X013548Y006420D01*
X013548Y006579D02*
X010498Y006579D01*
X010900Y005469D02*
X010958Y005469D01*
X004755Y001506D02*
X004278Y001506D01*
X004278Y001347D02*
X004597Y001347D01*
X004528Y001189D02*
X004131Y001189D01*
X003973Y001030D02*
X004528Y001030D01*
X004587Y000871D02*
X001914Y000871D01*
D16*
X002498Y002704D03*
X003998Y003054D03*
X003498Y003554D03*
X002498Y003704D03*
X003998Y004054D03*
X002498Y004704D03*
X012498Y004554D03*
X013348Y004554D03*
X013948Y004154D03*
X013348Y003754D03*
X013948Y003304D03*
X013348Y002904D03*
X013948Y002554D03*
X014998Y002554D03*
X015498Y002054D03*
X014498Y002054D03*
X014998Y001554D03*
X013948Y001554D03*
X012948Y002054D03*
X014498Y001054D03*
X015498Y001054D03*
M02*
