G75*
G70*
%OFA0B0*%
%FSLAX24Y24*%
%IPPOS*%
%LPD*%
%AMOC8*
5,1,8,0,0,1.08239X$1,22.5*
%
%ADD10C,0.0108*%
%ADD11C,0.0072*%
%ADD12OC8,0.0700*%
%ADD13OC8,0.0480*%
%ADD14R,0.0630X0.0460*%
%ADD15C,0.0100*%
%ADD16C,0.0340*%
%ADD17C,0.0160*%
%ADD18OC8,0.0340*%
D10*
X006028Y000810D02*
X006028Y001284D01*
X006028Y000810D02*
X005776Y000810D01*
X005776Y001284D01*
X006028Y001284D01*
X006028Y000917D02*
X005776Y000917D01*
X005776Y001024D02*
X006028Y001024D01*
X006028Y001131D02*
X005776Y001131D01*
X005776Y001238D02*
X006028Y001238D01*
X006619Y001402D02*
X006619Y000810D01*
X006367Y000810D01*
X006367Y001402D01*
X006619Y001402D01*
X006619Y000917D02*
X006367Y000917D01*
X006367Y001024D02*
X006619Y001024D01*
X006619Y001131D02*
X006367Y001131D01*
X006367Y001238D02*
X006619Y001238D01*
X006619Y001345D02*
X006367Y001345D01*
X007209Y001402D02*
X007209Y000810D01*
X006957Y000810D01*
X006957Y001402D01*
X007209Y001402D01*
X007209Y000917D02*
X006957Y000917D01*
X006957Y001024D02*
X007209Y001024D01*
X007209Y001131D02*
X006957Y001131D01*
X006957Y001238D02*
X007209Y001238D01*
X007209Y001345D02*
X006957Y001345D01*
X007800Y001402D02*
X007800Y000810D01*
X007548Y000810D01*
X007548Y001402D01*
X007800Y001402D01*
X007800Y000917D02*
X007548Y000917D01*
X007548Y001024D02*
X007800Y001024D01*
X007800Y001131D02*
X007548Y001131D01*
X007548Y001238D02*
X007800Y001238D01*
X007800Y001345D02*
X007548Y001345D01*
X008390Y001402D02*
X008390Y000810D01*
X008138Y000810D01*
X008138Y001402D01*
X008390Y001402D01*
X008390Y000917D02*
X008138Y000917D01*
X008138Y001024D02*
X008390Y001024D01*
X008390Y001131D02*
X008138Y001131D01*
X008138Y001238D02*
X008390Y001238D01*
X008390Y001345D02*
X008138Y001345D01*
X008981Y001402D02*
X008981Y000810D01*
X008729Y000810D01*
X008729Y001402D01*
X008981Y001402D01*
X008981Y000917D02*
X008729Y000917D01*
X008729Y001024D02*
X008981Y001024D01*
X008981Y001131D02*
X008729Y001131D01*
X008729Y001238D02*
X008981Y001238D01*
X008981Y001345D02*
X008729Y001345D01*
X009571Y001402D02*
X009571Y000810D01*
X009319Y000810D01*
X009319Y001402D01*
X009571Y001402D01*
X009571Y000917D02*
X009319Y000917D01*
X009319Y001024D02*
X009571Y001024D01*
X009571Y001131D02*
X009319Y001131D01*
X009319Y001238D02*
X009571Y001238D01*
X009571Y001345D02*
X009319Y001345D01*
X010162Y001402D02*
X010162Y000810D01*
X009910Y000810D01*
X009910Y001402D01*
X010162Y001402D01*
X010162Y000917D02*
X009910Y000917D01*
X009910Y001024D02*
X010162Y001024D01*
X010162Y001131D02*
X009910Y001131D01*
X009910Y001238D02*
X010162Y001238D01*
X010162Y001345D02*
X009910Y001345D01*
X010753Y001402D02*
X010753Y000810D01*
X010501Y000810D01*
X010501Y001402D01*
X010753Y001402D01*
X010753Y000917D02*
X010501Y000917D01*
X010501Y001024D02*
X010753Y001024D01*
X010753Y001131D02*
X010501Y001131D01*
X010501Y001238D02*
X010753Y001238D01*
X010753Y001345D02*
X010501Y001345D01*
X011343Y001402D02*
X011343Y000810D01*
X011091Y000810D01*
X011091Y001402D01*
X011343Y001402D01*
X011343Y000917D02*
X011091Y000917D01*
X011091Y001024D02*
X011343Y001024D01*
X011343Y001131D02*
X011091Y001131D01*
X011091Y001238D02*
X011343Y001238D01*
X011343Y001345D02*
X011091Y001345D01*
X011934Y001402D02*
X011934Y000810D01*
X011682Y000810D01*
X011682Y001402D01*
X011934Y001402D01*
X011934Y000917D02*
X011682Y000917D01*
X011682Y001024D02*
X011934Y001024D01*
X011934Y001131D02*
X011682Y001131D01*
X011682Y001238D02*
X011934Y001238D01*
X011934Y001345D02*
X011682Y001345D01*
X012524Y001402D02*
X012524Y000810D01*
X012272Y000810D01*
X012272Y001402D01*
X012524Y001402D01*
X012524Y000917D02*
X012272Y000917D01*
X012272Y001024D02*
X012524Y001024D01*
X012524Y001131D02*
X012272Y001131D01*
X012272Y001238D02*
X012524Y001238D01*
X012524Y001345D02*
X012272Y001345D01*
X013115Y001402D02*
X013115Y000810D01*
X012863Y000810D01*
X012863Y001402D01*
X013115Y001402D01*
X013115Y000917D02*
X012863Y000917D01*
X012863Y001024D02*
X013115Y001024D01*
X013115Y001131D02*
X012863Y001131D01*
X012863Y001238D02*
X013115Y001238D01*
X013115Y001345D02*
X012863Y001345D01*
X013705Y001284D02*
X013705Y000810D01*
X013453Y000810D01*
X013453Y001284D01*
X013705Y001284D01*
X013705Y000917D02*
X013453Y000917D01*
X013453Y001024D02*
X013705Y001024D01*
X013705Y001131D02*
X013453Y001131D01*
X013453Y001238D02*
X013705Y001238D01*
X015291Y002988D02*
X015765Y002988D01*
X015291Y002988D02*
X015291Y003240D01*
X015765Y003240D01*
X015765Y002988D01*
X015765Y003095D02*
X015291Y003095D01*
X015291Y003202D02*
X015765Y003202D01*
X015765Y003578D02*
X015173Y003578D01*
X015173Y003830D01*
X015765Y003830D01*
X015765Y003578D01*
X015765Y003685D02*
X015173Y003685D01*
X015173Y003792D02*
X015765Y003792D01*
X015765Y004169D02*
X015291Y004169D01*
X015291Y004421D01*
X015765Y004421D01*
X015765Y004169D01*
X015765Y004276D02*
X015291Y004276D01*
X015291Y004383D02*
X015765Y004383D01*
X013115Y006007D02*
X013115Y006599D01*
X013115Y006007D02*
X012863Y006007D01*
X012863Y006599D01*
X013115Y006599D01*
X013115Y006114D02*
X012863Y006114D01*
X012863Y006221D02*
X013115Y006221D01*
X013115Y006328D02*
X012863Y006328D01*
X012863Y006435D02*
X013115Y006435D01*
X013115Y006542D02*
X012863Y006542D01*
X012524Y006599D02*
X012524Y006007D01*
X012272Y006007D01*
X012272Y006599D01*
X012524Y006599D01*
X012524Y006114D02*
X012272Y006114D01*
X012272Y006221D02*
X012524Y006221D01*
X012524Y006328D02*
X012272Y006328D01*
X012272Y006435D02*
X012524Y006435D01*
X012524Y006542D02*
X012272Y006542D01*
X011934Y006599D02*
X011934Y006007D01*
X011682Y006007D01*
X011682Y006599D01*
X011934Y006599D01*
X011934Y006114D02*
X011682Y006114D01*
X011682Y006221D02*
X011934Y006221D01*
X011934Y006328D02*
X011682Y006328D01*
X011682Y006435D02*
X011934Y006435D01*
X011934Y006542D02*
X011682Y006542D01*
X011343Y006599D02*
X011343Y006007D01*
X011091Y006007D01*
X011091Y006599D01*
X011343Y006599D01*
X011343Y006114D02*
X011091Y006114D01*
X011091Y006221D02*
X011343Y006221D01*
X011343Y006328D02*
X011091Y006328D01*
X011091Y006435D02*
X011343Y006435D01*
X011343Y006542D02*
X011091Y006542D01*
X010753Y006599D02*
X010753Y006007D01*
X010501Y006007D01*
X010501Y006599D01*
X010753Y006599D01*
X010753Y006114D02*
X010501Y006114D01*
X010501Y006221D02*
X010753Y006221D01*
X010753Y006328D02*
X010501Y006328D01*
X010501Y006435D02*
X010753Y006435D01*
X010753Y006542D02*
X010501Y006542D01*
X010162Y006599D02*
X010162Y006007D01*
X009910Y006007D01*
X009910Y006599D01*
X010162Y006599D01*
X010162Y006114D02*
X009910Y006114D01*
X009910Y006221D02*
X010162Y006221D01*
X010162Y006328D02*
X009910Y006328D01*
X009910Y006435D02*
X010162Y006435D01*
X010162Y006542D02*
X009910Y006542D01*
X009571Y006599D02*
X009571Y006007D01*
X009319Y006007D01*
X009319Y006599D01*
X009571Y006599D01*
X009571Y006114D02*
X009319Y006114D01*
X009319Y006221D02*
X009571Y006221D01*
X009571Y006328D02*
X009319Y006328D01*
X009319Y006435D02*
X009571Y006435D01*
X009571Y006542D02*
X009319Y006542D01*
X008390Y006599D02*
X008390Y006007D01*
X008138Y006007D01*
X008138Y006599D01*
X008390Y006599D01*
X008390Y006114D02*
X008138Y006114D01*
X008138Y006221D02*
X008390Y006221D01*
X008390Y006328D02*
X008138Y006328D01*
X008138Y006435D02*
X008390Y006435D01*
X008390Y006542D02*
X008138Y006542D01*
X007800Y006599D02*
X007800Y006007D01*
X007548Y006007D01*
X007548Y006599D01*
X007800Y006599D01*
X007800Y006114D02*
X007548Y006114D01*
X007548Y006221D02*
X007800Y006221D01*
X007800Y006328D02*
X007548Y006328D01*
X007548Y006435D02*
X007800Y006435D01*
X007800Y006542D02*
X007548Y006542D01*
X007209Y006599D02*
X007209Y006007D01*
X006957Y006007D01*
X006957Y006599D01*
X007209Y006599D01*
X007209Y006114D02*
X006957Y006114D01*
X006957Y006221D02*
X007209Y006221D01*
X007209Y006328D02*
X006957Y006328D01*
X006957Y006435D02*
X007209Y006435D01*
X007209Y006542D02*
X006957Y006542D01*
X006619Y006599D02*
X006619Y006007D01*
X006367Y006007D01*
X006367Y006599D01*
X006619Y006599D01*
X006619Y006114D02*
X006367Y006114D01*
X006367Y006221D02*
X006619Y006221D01*
X006619Y006328D02*
X006367Y006328D01*
X006367Y006435D02*
X006619Y006435D01*
X006619Y006542D02*
X006367Y006542D01*
X006028Y006599D02*
X006028Y006125D01*
X005776Y006125D01*
X005776Y006599D01*
X006028Y006599D01*
X006028Y006232D02*
X005776Y006232D01*
X005776Y006339D02*
X006028Y006339D01*
X006028Y006446D02*
X005776Y006446D01*
X005776Y006553D02*
X006028Y006553D01*
X013705Y006599D02*
X013705Y006125D01*
X013453Y006125D01*
X013453Y006599D01*
X013705Y006599D01*
X013705Y006232D02*
X013453Y006232D01*
X013453Y006339D02*
X013705Y006339D01*
X013705Y006446D02*
X013453Y006446D01*
X013453Y006553D02*
X013705Y006553D01*
D11*
X008999Y006617D02*
X008999Y005989D01*
X008711Y005989D01*
X008711Y006617D01*
X008999Y006617D01*
X008999Y006060D02*
X008711Y006060D01*
X008711Y006131D02*
X008999Y006131D01*
X008999Y006202D02*
X008711Y006202D01*
X008711Y006273D02*
X008999Y006273D01*
X008999Y006344D02*
X008711Y006344D01*
X008711Y006415D02*
X008999Y006415D01*
X008999Y006486D02*
X008711Y006486D01*
X008711Y006557D02*
X008999Y006557D01*
D12*
X001498Y001204D03*
X003748Y001554D03*
X001498Y002204D03*
X001498Y003204D03*
X001498Y004204D03*
X001498Y005204D03*
X001498Y006204D03*
D13*
X003648Y006004D03*
X004848Y006004D03*
X004848Y005004D03*
X003648Y005004D03*
X004948Y004104D03*
X004948Y001104D03*
D14*
X004948Y002304D03*
X004948Y002904D03*
D15*
X004998Y002954D01*
X004998Y004054D01*
X004948Y004104D01*
X004898Y004954D02*
X004848Y005004D01*
X004798Y005054D01*
X003698Y005054D01*
X003648Y005004D01*
X001898Y003254D01*
X001498Y003254D01*
X001498Y003204D01*
X001498Y002254D02*
X001498Y002204D01*
X001498Y002254D02*
X004898Y002254D01*
X004948Y002304D01*
X004998Y002254D01*
X004998Y001154D01*
X004948Y001104D01*
X005898Y001054D02*
X005902Y001047D01*
X005898Y001054D02*
X005898Y003054D01*
X010698Y003054D01*
X011398Y003754D01*
X013348Y003754D01*
X013498Y003754D01*
X014698Y003754D01*
X015298Y003154D01*
X015498Y003154D01*
X015528Y003114D01*
X015598Y003054D01*
X013598Y001054D01*
X013579Y001047D01*
X012398Y001106D02*
X012398Y001154D01*
X012398Y003354D01*
X013498Y003754D02*
X013498Y004354D01*
X015498Y004354D01*
X015528Y004295D01*
X013498Y004354D02*
X013498Y006354D01*
X013579Y006362D01*
X012989Y006303D02*
X012898Y006254D01*
X012898Y005654D01*
X011217Y006303D02*
X011198Y006254D01*
X011198Y004054D01*
X008298Y003454D02*
X008298Y006254D01*
X008264Y006303D01*
X010598Y006254D02*
X010598Y005654D01*
X010598Y006254D02*
X010627Y006303D01*
X005902Y006362D02*
X005898Y006354D01*
X005898Y004954D01*
X004898Y004954D01*
X005898Y004954D02*
X005898Y003054D01*
X006398Y002654D02*
X006398Y001154D01*
X006493Y001106D01*
X006998Y001154D02*
X007083Y001106D01*
X006998Y001154D02*
X006998Y001754D01*
X001498Y004204D02*
X001498Y004254D01*
X002798Y005554D01*
X005398Y005554D01*
X005398Y006054D02*
X004998Y006454D01*
X002698Y006454D01*
X001498Y005254D01*
X001498Y005204D01*
X003648Y006004D02*
X003698Y006054D01*
X004798Y006054D01*
X004848Y006004D01*
D16*
X005398Y006054D03*
X005398Y005554D03*
X008298Y003454D03*
X006398Y002654D03*
X006998Y001754D03*
X012398Y003354D03*
X011198Y004054D03*
X010598Y005654D03*
X012898Y005654D03*
D17*
X013223Y005784D02*
X013349Y005910D01*
X013349Y005915D01*
X013385Y005900D01*
X013430Y005891D01*
X013548Y005891D01*
X013548Y004354D01*
X015057Y004354D01*
X015057Y004305D01*
X015518Y004305D01*
X015518Y004285D01*
X015057Y004285D01*
X015057Y004146D01*
X015066Y004101D01*
X015081Y004064D01*
X015076Y004064D01*
X014939Y003927D01*
X014939Y003481D01*
X015076Y003344D01*
X015081Y003344D01*
X015066Y003308D01*
X015057Y003263D01*
X015057Y003124D01*
X015518Y003124D01*
X015518Y003104D01*
X015057Y003104D01*
X015057Y002965D01*
X015066Y002919D01*
X015084Y002877D01*
X015109Y002839D01*
X015142Y002806D01*
X015180Y002780D01*
X015223Y002763D01*
X015268Y002754D01*
X015518Y002754D01*
X015518Y003104D01*
X015538Y003104D01*
X015538Y002754D01*
X015768Y002754D01*
X015768Y000784D01*
X013939Y000784D01*
X013939Y000787D01*
X013939Y001037D01*
X013590Y001037D01*
X013590Y001057D01*
X013939Y001057D01*
X013939Y001307D01*
X013930Y001352D01*
X013913Y001395D01*
X013887Y001433D01*
X013854Y001466D01*
X013816Y001491D01*
X013774Y001509D01*
X013728Y001518D01*
X013589Y001518D01*
X013589Y001057D01*
X013569Y001057D01*
X013569Y001518D01*
X013430Y001518D01*
X013385Y001509D01*
X013349Y001494D01*
X013349Y001499D01*
X013212Y001636D01*
X012766Y001636D01*
X012693Y001564D01*
X012628Y001629D01*
X012628Y003089D01*
X012694Y003156D01*
X012748Y003285D01*
X012748Y003424D01*
X012694Y003553D01*
X012596Y003651D01*
X012467Y003704D01*
X012328Y003704D01*
X012200Y003651D01*
X012101Y003553D01*
X012048Y003424D01*
X012048Y003285D01*
X012101Y003156D01*
X012168Y003089D01*
X012168Y001628D01*
X012103Y001564D01*
X012031Y001636D01*
X011585Y001636D01*
X011512Y001564D01*
X011440Y001636D01*
X010994Y001636D01*
X010922Y001564D01*
X010849Y001636D01*
X010404Y001636D01*
X010331Y001564D01*
X010259Y001636D01*
X009813Y001636D01*
X009741Y001564D01*
X009668Y001636D01*
X009222Y001636D01*
X009150Y001564D01*
X009078Y001636D01*
X008632Y001636D01*
X008560Y001564D01*
X008487Y001636D01*
X008041Y001636D01*
X007969Y001564D01*
X007897Y001636D01*
X007451Y001636D01*
X007379Y001564D01*
X007321Y001621D01*
X007348Y001685D01*
X007348Y001824D01*
X007294Y001953D01*
X007196Y002051D01*
X007067Y002104D01*
X006928Y002104D01*
X006800Y002051D01*
X006701Y001953D01*
X006648Y001824D01*
X006648Y001685D01*
X006668Y001636D01*
X006628Y001636D01*
X006628Y002389D01*
X006694Y002456D01*
X006748Y002585D01*
X006748Y002724D01*
X006694Y002853D01*
X006596Y002951D01*
X006467Y003004D01*
X006328Y003004D01*
X006200Y002951D01*
X006101Y002853D01*
X006048Y002724D01*
X006048Y002585D01*
X006101Y002456D01*
X006168Y002389D01*
X006168Y001534D01*
X006133Y001499D01*
X006133Y001494D01*
X006096Y001509D01*
X006051Y001518D01*
X005912Y001518D01*
X005912Y001057D01*
X005892Y001057D01*
X005892Y001518D01*
X005753Y001518D01*
X005708Y001509D01*
X005665Y001491D01*
X005627Y001466D01*
X005594Y001433D01*
X005569Y001395D01*
X005551Y001352D01*
X005542Y001307D01*
X005542Y001057D01*
X005892Y001057D01*
X005892Y001037D01*
X005542Y001037D01*
X005542Y000787D01*
X005543Y000784D01*
X005222Y000784D01*
X005368Y000930D01*
X005368Y001278D01*
X005228Y001418D01*
X005228Y001894D01*
X005337Y001894D01*
X005443Y002000D01*
X005443Y002609D01*
X005443Y003209D01*
X005337Y003314D01*
X005228Y003314D01*
X005228Y003790D01*
X005368Y003930D01*
X005368Y004278D01*
X005122Y004524D01*
X004774Y004524D01*
X004528Y004278D01*
X004528Y003930D01*
X004768Y003690D01*
X004768Y003314D01*
X004558Y003314D01*
X004453Y003209D01*
X004453Y002609D01*
X004453Y002484D01*
X001967Y002484D01*
X001747Y002704D01*
X002028Y002985D01*
X002028Y003184D01*
X001518Y003184D01*
X001518Y003224D01*
X002028Y003224D01*
X002028Y003424D01*
X001747Y003704D01*
X002028Y003985D01*
X002028Y004424D01*
X002010Y004441D01*
X002893Y005324D01*
X003374Y005324D01*
X003228Y005178D01*
X003228Y005004D01*
X003228Y004830D01*
X003474Y004584D01*
X003648Y004584D01*
X003822Y004584D01*
X004068Y004830D01*
X004068Y005004D01*
X003648Y005004D01*
X003648Y004584D01*
X003648Y005004D01*
X003648Y005004D01*
X003648Y005004D01*
X004068Y005004D01*
X004068Y005178D01*
X003922Y005324D01*
X004574Y005324D01*
X004428Y005178D01*
X004428Y005004D01*
X004428Y004830D01*
X004674Y004584D01*
X004848Y004584D01*
X005022Y004584D01*
X005268Y004830D01*
X005268Y005004D01*
X004848Y005004D01*
X004848Y004584D01*
X004848Y005004D01*
X004848Y005004D01*
X004848Y005004D01*
X005268Y005004D01*
X005268Y005178D01*
X005122Y005324D01*
X005133Y005324D01*
X005200Y005258D01*
X005328Y005204D01*
X005467Y005204D01*
X005596Y005258D01*
X005694Y005356D01*
X005748Y005485D01*
X005748Y005624D01*
X005694Y005753D01*
X005643Y005804D01*
X005694Y005856D01*
X005712Y005899D01*
X005753Y005891D01*
X005892Y005891D01*
X005892Y006352D01*
X005912Y006352D01*
X005912Y005891D01*
X006051Y005891D01*
X006096Y005900D01*
X006133Y005915D01*
X006133Y005910D01*
X006270Y005773D01*
X006716Y005773D01*
X006788Y005845D01*
X006860Y005773D01*
X007306Y005773D01*
X007378Y005845D01*
X007451Y005773D01*
X007897Y005773D01*
X007969Y005845D01*
X008041Y005773D01*
X008068Y005773D01*
X008068Y003719D01*
X008001Y003653D01*
X007948Y003524D01*
X007948Y003385D01*
X008001Y003256D01*
X008100Y003158D01*
X008228Y003104D01*
X008367Y003104D01*
X008496Y003158D01*
X008594Y003256D01*
X008648Y003385D01*
X008648Y003524D01*
X008594Y003653D01*
X008528Y003719D01*
X008528Y005813D01*
X008554Y005840D01*
X008621Y005773D01*
X009088Y005773D01*
X009155Y005840D01*
X009222Y005773D01*
X009668Y005773D01*
X009741Y005845D01*
X009813Y005773D01*
X010259Y005773D01*
X010274Y005788D01*
X010248Y005724D01*
X010248Y005585D01*
X010301Y005456D01*
X010400Y005358D01*
X010528Y005304D01*
X010667Y005304D01*
X010796Y005358D01*
X010894Y005456D01*
X010948Y005585D01*
X010948Y005724D01*
X010905Y005828D01*
X010922Y005845D01*
X010968Y005799D01*
X010968Y004319D01*
X010901Y004253D01*
X010848Y004124D01*
X010848Y003985D01*
X010901Y003856D01*
X011000Y003758D01*
X011128Y003704D01*
X011267Y003704D01*
X011396Y003758D01*
X011494Y003856D01*
X011548Y003985D01*
X011548Y004124D01*
X011494Y004253D01*
X011428Y004319D01*
X011428Y005773D01*
X011440Y005773D01*
X011512Y005845D01*
X011585Y005773D01*
X012031Y005773D01*
X012103Y005845D01*
X012175Y005773D01*
X012568Y005773D01*
X012548Y005724D01*
X012548Y005585D01*
X012601Y005456D01*
X012700Y005358D01*
X012828Y005304D01*
X012967Y005304D01*
X013096Y005358D01*
X013194Y005456D01*
X013248Y005585D01*
X013248Y005724D01*
X013223Y005784D01*
X013225Y005786D02*
X013548Y005786D01*
X013548Y005628D02*
X013248Y005628D01*
X013200Y005469D02*
X013548Y005469D01*
X013548Y005311D02*
X012983Y005311D01*
X012813Y005311D02*
X011428Y005311D01*
X011428Y005469D02*
X012596Y005469D01*
X012548Y005628D02*
X011428Y005628D01*
X010968Y005628D02*
X010948Y005628D01*
X010968Y005469D02*
X010900Y005469D01*
X010968Y005311D02*
X010683Y005311D01*
X010513Y005311D02*
X008528Y005311D01*
X008528Y005469D02*
X010296Y005469D01*
X010248Y005628D02*
X008528Y005628D01*
X008528Y005786D02*
X008608Y005786D01*
X009102Y005786D02*
X009209Y005786D01*
X009682Y005786D02*
X009800Y005786D01*
X010272Y005786D02*
X010274Y005786D01*
X010922Y005786D02*
X010968Y005786D01*
X011453Y005786D02*
X011571Y005786D01*
X012044Y005786D02*
X012162Y005786D01*
X013349Y006352D02*
X013349Y006372D01*
X013548Y006372D01*
X013548Y006352D01*
X013349Y006352D01*
X013548Y005152D02*
X011428Y005152D01*
X010968Y005152D02*
X008528Y005152D01*
X008528Y004994D02*
X010968Y004994D01*
X010968Y004835D02*
X008528Y004835D01*
X008528Y004676D02*
X010968Y004676D01*
X010968Y004518D02*
X008528Y004518D01*
X008528Y004359D02*
X010968Y004359D01*
X010880Y004201D02*
X008528Y004201D01*
X008528Y004042D02*
X010848Y004042D01*
X010890Y003884D02*
X008528Y003884D01*
X008528Y003725D02*
X011078Y003725D01*
X011318Y003725D02*
X014939Y003725D01*
X014939Y003567D02*
X012680Y003567D01*
X012748Y003408D02*
X015012Y003408D01*
X015057Y003250D02*
X012733Y003250D01*
X012629Y003091D02*
X015057Y003091D01*
X015064Y002932D02*
X012628Y002932D01*
X012628Y002774D02*
X015196Y002774D01*
X015518Y002774D02*
X015538Y002774D01*
X015538Y002932D02*
X015518Y002932D01*
X015518Y003091D02*
X015538Y003091D01*
X015768Y002615D02*
X012628Y002615D01*
X012628Y002457D02*
X015768Y002457D01*
X015768Y002298D02*
X012628Y002298D01*
X012628Y002140D02*
X015768Y002140D01*
X015768Y001981D02*
X012628Y001981D01*
X012628Y001823D02*
X015768Y001823D01*
X015768Y001664D02*
X012628Y001664D01*
X012168Y001664D02*
X007339Y001664D01*
X007348Y001823D02*
X012168Y001823D01*
X012168Y001981D02*
X007266Y001981D01*
X006730Y001981D02*
X006628Y001981D01*
X006628Y002140D02*
X012168Y002140D01*
X012168Y002298D02*
X006628Y002298D01*
X006695Y002457D02*
X012168Y002457D01*
X012168Y002615D02*
X006748Y002615D01*
X006727Y002774D02*
X012168Y002774D01*
X012168Y002932D02*
X006615Y002932D01*
X006181Y002932D02*
X005443Y002932D01*
X005443Y002774D02*
X006069Y002774D01*
X006048Y002615D02*
X005443Y002615D01*
X005443Y002457D02*
X006101Y002457D01*
X006168Y002298D02*
X005443Y002298D01*
X005443Y002140D02*
X006168Y002140D01*
X006168Y001981D02*
X005424Y001981D01*
X005228Y001823D02*
X006168Y001823D01*
X006168Y001664D02*
X005228Y001664D01*
X005228Y001506D02*
X005700Y001506D01*
X005892Y001506D02*
X005912Y001506D01*
X006104Y001506D02*
X006139Y001506D01*
X005912Y001347D02*
X005892Y001347D01*
X005550Y001347D02*
X005299Y001347D01*
X005368Y001189D02*
X005542Y001189D01*
X005542Y001030D02*
X005368Y001030D01*
X005309Y000871D02*
X005542Y000871D01*
X005892Y001189D02*
X005912Y001189D01*
X006628Y001664D02*
X006656Y001664D01*
X006648Y001823D02*
X006628Y001823D01*
X004453Y002615D02*
X001836Y002615D01*
X001817Y002774D02*
X004453Y002774D01*
X004453Y002932D02*
X001975Y002932D01*
X002028Y003091D02*
X004453Y003091D01*
X004494Y003250D02*
X002028Y003250D01*
X002028Y003408D02*
X004768Y003408D01*
X004768Y003567D02*
X001885Y003567D01*
X001768Y003725D02*
X004733Y003725D01*
X004574Y003884D02*
X001927Y003884D01*
X002028Y004042D02*
X004528Y004042D01*
X004528Y004201D02*
X002028Y004201D01*
X002028Y004359D02*
X004609Y004359D01*
X004767Y004518D02*
X002087Y004518D01*
X002245Y004676D02*
X003382Y004676D01*
X003648Y004676D02*
X003648Y004676D01*
X003648Y004835D02*
X003648Y004835D01*
X003648Y004994D02*
X003648Y004994D01*
X003647Y005004D02*
X003228Y005004D01*
X003647Y005004D01*
X003647Y005004D01*
X003228Y004994D02*
X002562Y004994D01*
X002404Y004835D02*
X003228Y004835D01*
X003914Y004676D02*
X004582Y004676D01*
X004428Y004835D02*
X004068Y004835D01*
X004068Y004994D02*
X004428Y004994D01*
X004428Y005004D02*
X004847Y005004D01*
X004847Y005004D01*
X004428Y005004D01*
X004428Y005152D02*
X004068Y005152D01*
X003935Y005311D02*
X004560Y005311D01*
X005135Y005311D02*
X005146Y005311D01*
X005268Y005152D02*
X008068Y005152D01*
X008068Y005311D02*
X005649Y005311D01*
X005741Y005469D02*
X008068Y005469D01*
X008068Y005628D02*
X005746Y005628D01*
X005661Y005786D02*
X006256Y005786D01*
X005912Y005945D02*
X005892Y005945D01*
X005892Y006103D02*
X005912Y006103D01*
X005912Y006262D02*
X005892Y006262D01*
X006729Y005786D02*
X006847Y005786D01*
X007320Y005786D02*
X007437Y005786D01*
X007910Y005786D02*
X008028Y005786D01*
X008068Y004994D02*
X005268Y004994D01*
X005268Y004835D02*
X008068Y004835D01*
X008068Y004676D02*
X005114Y004676D01*
X004848Y004676D02*
X004848Y004676D01*
X004848Y004835D02*
X004848Y004835D01*
X004848Y004994D02*
X004848Y004994D01*
X005128Y004518D02*
X008068Y004518D01*
X008068Y004359D02*
X005287Y004359D01*
X005368Y004201D02*
X008068Y004201D01*
X008068Y004042D02*
X005368Y004042D01*
X005321Y003884D02*
X008068Y003884D01*
X008068Y003725D02*
X005228Y003725D01*
X005228Y003567D02*
X007966Y003567D01*
X007948Y003408D02*
X005228Y003408D01*
X005402Y003250D02*
X008008Y003250D01*
X008588Y003250D02*
X012062Y003250D01*
X012048Y003408D02*
X008648Y003408D01*
X008630Y003567D02*
X012115Y003567D01*
X011506Y003884D02*
X014939Y003884D01*
X015054Y004042D02*
X011548Y004042D01*
X011516Y004201D02*
X015057Y004201D01*
X013548Y004359D02*
X011428Y004359D01*
X011428Y004518D02*
X013548Y004518D01*
X013548Y004676D02*
X011428Y004676D01*
X011428Y004835D02*
X013548Y004835D01*
X013548Y004994D02*
X011428Y004994D01*
X012166Y003091D02*
X005443Y003091D01*
X001518Y003225D02*
X001518Y003674D01*
X001478Y003674D01*
X001478Y003225D01*
X001518Y003225D01*
X001518Y003250D02*
X001478Y003250D01*
X001478Y003408D02*
X001518Y003408D01*
X001518Y003567D02*
X001478Y003567D01*
X002721Y005152D02*
X003228Y005152D01*
X003360Y005311D02*
X002879Y005311D01*
X013342Y001506D02*
X013377Y001506D01*
X013569Y001506D02*
X013589Y001506D01*
X013589Y001347D02*
X013569Y001347D01*
X013781Y001506D02*
X015768Y001506D01*
X015768Y001347D02*
X013931Y001347D01*
X013939Y001189D02*
X015768Y001189D01*
X015768Y001030D02*
X013939Y001030D01*
X013939Y000871D02*
X015768Y000871D01*
X013589Y001189D02*
X013569Y001189D01*
D18*
X013948Y001554D03*
X014998Y001554D03*
X015498Y002054D03*
X014498Y002054D03*
X014998Y002554D03*
X013948Y002554D03*
X013348Y002904D03*
X013948Y003304D03*
X013348Y003754D03*
X013948Y004154D03*
X013348Y004554D03*
X012498Y004554D03*
X012948Y002054D03*
X014498Y001054D03*
X015498Y001054D03*
X003998Y003054D03*
X003498Y003554D03*
X002498Y003704D03*
X003998Y004054D03*
X002498Y004704D03*
X002498Y002704D03*
M02*
