G75*
G70*
%OFA0B0*%
%FSLAX24Y24*%
%IPPOS*%
%LPD*%
%AMOC8*
5,1,8,0,0,1.08239X$1,22.5*
%
%ADD10C,0.0132*%
%ADD11C,0.0088*%
%ADD12OC8,0.0780*%
%ADD13OC8,0.0560*%
%ADD14R,0.0710X0.0540*%
%ADD15R,0.0720X0.0060*%
%ADD16C,0.0420*%
D10*
X006056Y000782D02*
X006056Y001312D01*
X006056Y000782D02*
X005748Y000782D01*
X005748Y001312D01*
X006056Y001312D01*
X006056Y000913D02*
X005748Y000913D01*
X005748Y001044D02*
X006056Y001044D01*
X006056Y001175D02*
X005748Y001175D01*
X005748Y001306D02*
X006056Y001306D01*
X006647Y001430D02*
X006647Y000782D01*
X006339Y000782D01*
X006339Y001430D01*
X006647Y001430D01*
X006647Y000913D02*
X006339Y000913D01*
X006339Y001044D02*
X006647Y001044D01*
X006647Y001175D02*
X006339Y001175D01*
X006339Y001306D02*
X006647Y001306D01*
X007237Y001430D02*
X007237Y000782D01*
X006929Y000782D01*
X006929Y001430D01*
X007237Y001430D01*
X007237Y000913D02*
X006929Y000913D01*
X006929Y001044D02*
X007237Y001044D01*
X007237Y001175D02*
X006929Y001175D01*
X006929Y001306D02*
X007237Y001306D01*
X007828Y001430D02*
X007828Y000782D01*
X007520Y000782D01*
X007520Y001430D01*
X007828Y001430D01*
X007828Y000913D02*
X007520Y000913D01*
X007520Y001044D02*
X007828Y001044D01*
X007828Y001175D02*
X007520Y001175D01*
X007520Y001306D02*
X007828Y001306D01*
X008418Y001430D02*
X008418Y000782D01*
X008110Y000782D01*
X008110Y001430D01*
X008418Y001430D01*
X008418Y000913D02*
X008110Y000913D01*
X008110Y001044D02*
X008418Y001044D01*
X008418Y001175D02*
X008110Y001175D01*
X008110Y001306D02*
X008418Y001306D01*
X009009Y001430D02*
X009009Y000782D01*
X008701Y000782D01*
X008701Y001430D01*
X009009Y001430D01*
X009009Y000913D02*
X008701Y000913D01*
X008701Y001044D02*
X009009Y001044D01*
X009009Y001175D02*
X008701Y001175D01*
X008701Y001306D02*
X009009Y001306D01*
X009599Y001430D02*
X009599Y000782D01*
X009291Y000782D01*
X009291Y001430D01*
X009599Y001430D01*
X009599Y000913D02*
X009291Y000913D01*
X009291Y001044D02*
X009599Y001044D01*
X009599Y001175D02*
X009291Y001175D01*
X009291Y001306D02*
X009599Y001306D01*
X010190Y001430D02*
X010190Y000782D01*
X009882Y000782D01*
X009882Y001430D01*
X010190Y001430D01*
X010190Y000913D02*
X009882Y000913D01*
X009882Y001044D02*
X010190Y001044D01*
X010190Y001175D02*
X009882Y001175D01*
X009882Y001306D02*
X010190Y001306D01*
X010781Y001430D02*
X010781Y000782D01*
X010473Y000782D01*
X010473Y001430D01*
X010781Y001430D01*
X010781Y000913D02*
X010473Y000913D01*
X010473Y001044D02*
X010781Y001044D01*
X010781Y001175D02*
X010473Y001175D01*
X010473Y001306D02*
X010781Y001306D01*
X011371Y001430D02*
X011371Y000782D01*
X011063Y000782D01*
X011063Y001430D01*
X011371Y001430D01*
X011371Y000913D02*
X011063Y000913D01*
X011063Y001044D02*
X011371Y001044D01*
X011371Y001175D02*
X011063Y001175D01*
X011063Y001306D02*
X011371Y001306D01*
X011962Y001430D02*
X011962Y000782D01*
X011654Y000782D01*
X011654Y001430D01*
X011962Y001430D01*
X011962Y000913D02*
X011654Y000913D01*
X011654Y001044D02*
X011962Y001044D01*
X011962Y001175D02*
X011654Y001175D01*
X011654Y001306D02*
X011962Y001306D01*
X012552Y001430D02*
X012552Y000782D01*
X012244Y000782D01*
X012244Y001430D01*
X012552Y001430D01*
X012552Y000913D02*
X012244Y000913D01*
X012244Y001044D02*
X012552Y001044D01*
X012552Y001175D02*
X012244Y001175D01*
X012244Y001306D02*
X012552Y001306D01*
X013143Y001430D02*
X013143Y000782D01*
X012835Y000782D01*
X012835Y001430D01*
X013143Y001430D01*
X013143Y000913D02*
X012835Y000913D01*
X012835Y001044D02*
X013143Y001044D01*
X013143Y001175D02*
X012835Y001175D01*
X012835Y001306D02*
X013143Y001306D01*
X013733Y001312D02*
X013733Y000782D01*
X013425Y000782D01*
X013425Y001312D01*
X013733Y001312D01*
X013733Y000913D02*
X013425Y000913D01*
X013425Y001044D02*
X013733Y001044D01*
X013733Y001175D02*
X013425Y001175D01*
X013425Y001306D02*
X013733Y001306D01*
X015263Y002960D02*
X015793Y002960D01*
X015263Y002960D02*
X015263Y003268D01*
X015793Y003268D01*
X015793Y002960D01*
X015793Y003091D02*
X015263Y003091D01*
X015263Y003222D02*
X015793Y003222D01*
X015793Y003550D02*
X015145Y003550D01*
X015145Y003858D01*
X015793Y003858D01*
X015793Y003550D01*
X015793Y003681D02*
X015145Y003681D01*
X015145Y003812D02*
X015793Y003812D01*
X015793Y004141D02*
X015263Y004141D01*
X015263Y004449D01*
X015793Y004449D01*
X015793Y004141D01*
X015793Y004272D02*
X015263Y004272D01*
X015263Y004403D02*
X015793Y004403D01*
X013143Y005979D02*
X013143Y006627D01*
X013143Y005979D02*
X012835Y005979D01*
X012835Y006627D01*
X013143Y006627D01*
X013143Y006110D02*
X012835Y006110D01*
X012835Y006241D02*
X013143Y006241D01*
X013143Y006372D02*
X012835Y006372D01*
X012835Y006503D02*
X013143Y006503D01*
X013733Y006627D02*
X013733Y006097D01*
X013425Y006097D01*
X013425Y006627D01*
X013733Y006627D01*
X013733Y006228D02*
X013425Y006228D01*
X013425Y006359D02*
X013733Y006359D01*
X013733Y006490D02*
X013425Y006490D01*
X013425Y006621D02*
X013733Y006621D01*
X012552Y006627D02*
X012552Y005979D01*
X012244Y005979D01*
X012244Y006627D01*
X012552Y006627D01*
X012552Y006110D02*
X012244Y006110D01*
X012244Y006241D02*
X012552Y006241D01*
X012552Y006372D02*
X012244Y006372D01*
X012244Y006503D02*
X012552Y006503D01*
X011962Y006627D02*
X011962Y005979D01*
X011654Y005979D01*
X011654Y006627D01*
X011962Y006627D01*
X011962Y006110D02*
X011654Y006110D01*
X011654Y006241D02*
X011962Y006241D01*
X011962Y006372D02*
X011654Y006372D01*
X011654Y006503D02*
X011962Y006503D01*
X011371Y006627D02*
X011371Y005979D01*
X011063Y005979D01*
X011063Y006627D01*
X011371Y006627D01*
X011371Y006110D02*
X011063Y006110D01*
X011063Y006241D02*
X011371Y006241D01*
X011371Y006372D02*
X011063Y006372D01*
X011063Y006503D02*
X011371Y006503D01*
X010781Y006627D02*
X010781Y005979D01*
X010473Y005979D01*
X010473Y006627D01*
X010781Y006627D01*
X010781Y006110D02*
X010473Y006110D01*
X010473Y006241D02*
X010781Y006241D01*
X010781Y006372D02*
X010473Y006372D01*
X010473Y006503D02*
X010781Y006503D01*
X010190Y006627D02*
X010190Y005979D01*
X009882Y005979D01*
X009882Y006627D01*
X010190Y006627D01*
X010190Y006110D02*
X009882Y006110D01*
X009882Y006241D02*
X010190Y006241D01*
X010190Y006372D02*
X009882Y006372D01*
X009882Y006503D02*
X010190Y006503D01*
X009599Y006627D02*
X009599Y005979D01*
X009291Y005979D01*
X009291Y006627D01*
X009599Y006627D01*
X009599Y006110D02*
X009291Y006110D01*
X009291Y006241D02*
X009599Y006241D01*
X009599Y006372D02*
X009291Y006372D01*
X009291Y006503D02*
X009599Y006503D01*
X008418Y006627D02*
X008418Y005979D01*
X008110Y005979D01*
X008110Y006627D01*
X008418Y006627D01*
X008418Y006110D02*
X008110Y006110D01*
X008110Y006241D02*
X008418Y006241D01*
X008418Y006372D02*
X008110Y006372D01*
X008110Y006503D02*
X008418Y006503D01*
X007828Y006627D02*
X007828Y005979D01*
X007520Y005979D01*
X007520Y006627D01*
X007828Y006627D01*
X007828Y006110D02*
X007520Y006110D01*
X007520Y006241D02*
X007828Y006241D01*
X007828Y006372D02*
X007520Y006372D01*
X007520Y006503D02*
X007828Y006503D01*
X007237Y006627D02*
X007237Y005979D01*
X006929Y005979D01*
X006929Y006627D01*
X007237Y006627D01*
X007237Y006110D02*
X006929Y006110D01*
X006929Y006241D02*
X007237Y006241D01*
X007237Y006372D02*
X006929Y006372D01*
X006929Y006503D02*
X007237Y006503D01*
X006647Y006627D02*
X006647Y005979D01*
X006339Y005979D01*
X006339Y006627D01*
X006647Y006627D01*
X006647Y006110D02*
X006339Y006110D01*
X006339Y006241D02*
X006647Y006241D01*
X006647Y006372D02*
X006339Y006372D01*
X006339Y006503D02*
X006647Y006503D01*
X006056Y006627D02*
X006056Y006097D01*
X005748Y006097D01*
X005748Y006627D01*
X006056Y006627D01*
X006056Y006228D02*
X005748Y006228D01*
X005748Y006359D02*
X006056Y006359D01*
X006056Y006490D02*
X005748Y006490D01*
X005748Y006621D02*
X006056Y006621D01*
D11*
X009031Y006649D02*
X009031Y005957D01*
X008679Y005957D01*
X008679Y006649D01*
X009031Y006649D01*
X009031Y006044D02*
X008679Y006044D01*
X008679Y006131D02*
X009031Y006131D01*
X009031Y006218D02*
X008679Y006218D01*
X008679Y006305D02*
X009031Y006305D01*
X009031Y006392D02*
X008679Y006392D01*
X008679Y006479D02*
X009031Y006479D01*
X009031Y006566D02*
X008679Y006566D01*
D12*
X001498Y001204D03*
X003748Y001554D03*
X001498Y002204D03*
X001498Y003204D03*
X001498Y004204D03*
X001498Y005204D03*
X001498Y006204D03*
D13*
X003648Y006004D03*
X004848Y006004D03*
X004848Y005004D03*
X003648Y005004D03*
X004948Y004104D03*
X004948Y001104D03*
D14*
X004948Y002304D03*
X004948Y002904D03*
D15*
X004948Y002604D03*
D16*
X005398Y005554D03*
X005398Y006054D03*
M02*
