G75*
G70*
%OFA0B0*%
%FSLAX24Y24*%
%IPPOS*%
%LPD*%
%AMOC8*
5,1,8,0,0,1.08239X$1,22.5*
%
%ADD10C,0.0000*%
%ADD11C,0.0030*%
%ADD12C,0.0060*%
D10*
X000998Y000554D02*
X000998Y006850D01*
X015998Y006850D01*
X015998Y000554D01*
X000998Y000554D01*
D11*
X006427Y002219D02*
X006674Y002219D01*
X006796Y002219D02*
X006858Y002219D01*
X006858Y002281D01*
X006796Y002281D01*
X006796Y002219D01*
X006551Y002219D02*
X006551Y002590D01*
X006674Y002466D01*
X007103Y002590D02*
X007103Y002219D01*
X007226Y002219D02*
X006980Y002219D01*
X007348Y002466D02*
X007471Y002219D01*
X007595Y002466D01*
X007226Y002466D02*
X007103Y002590D01*
X008085Y002528D02*
X008085Y002466D01*
X008146Y002404D01*
X008331Y002404D01*
X008453Y002343D02*
X008453Y002281D01*
X008515Y002219D01*
X008700Y002219D01*
X008700Y002590D01*
X008515Y002590D01*
X008453Y002528D01*
X008453Y002466D01*
X008515Y002404D01*
X008700Y002404D01*
X008515Y002404D02*
X008453Y002343D01*
X008146Y002404D02*
X008085Y002343D01*
X008085Y002281D01*
X008146Y002219D01*
X008331Y002219D01*
X008331Y002590D01*
X008146Y002590D01*
X008085Y002528D01*
X009189Y002590D02*
X009436Y002590D01*
X009313Y002590D02*
X009313Y002219D01*
X009558Y002219D02*
X009681Y002343D01*
X009619Y002343D02*
X009558Y002404D01*
X009558Y002528D01*
X009619Y002590D01*
X009805Y002590D01*
X009805Y002219D01*
X009926Y002219D02*
X009926Y002466D01*
X010050Y002590D01*
X010173Y002466D01*
X010173Y002219D01*
X010294Y002281D02*
X010294Y002590D01*
X010541Y002590D02*
X010541Y002281D01*
X010480Y002219D01*
X010356Y002219D01*
X010294Y002281D01*
X010173Y002404D02*
X009926Y002404D01*
X009805Y002343D02*
X009619Y002343D01*
X010174Y002058D02*
X010174Y002010D01*
X010174Y001913D02*
X010174Y001671D01*
X010223Y001623D01*
X010271Y001623D01*
X010421Y001719D02*
X010518Y001719D01*
X010566Y001768D01*
X010566Y001864D01*
X010518Y001913D01*
X010421Y001913D01*
X010372Y001864D01*
X010372Y001816D01*
X010566Y001816D01*
X010666Y001864D02*
X010762Y001864D01*
X010714Y001961D02*
X010666Y002010D01*
X010714Y001961D02*
X010714Y001719D01*
X010911Y001913D02*
X011008Y001816D01*
X011008Y001719D02*
X011008Y001913D01*
X010911Y001913D02*
X010863Y001913D01*
X011109Y001864D02*
X011157Y001913D01*
X011254Y001913D01*
X011302Y001864D01*
X011302Y001768D01*
X011254Y001719D01*
X011157Y001719D01*
X011109Y001768D01*
X011109Y001864D01*
X011402Y001913D02*
X011499Y001913D01*
X011451Y001961D02*
X011451Y001768D01*
X011402Y001719D01*
X011600Y001719D02*
X011745Y001719D01*
X011794Y001768D01*
X011794Y001864D01*
X011745Y001913D01*
X011600Y001913D01*
X011895Y001864D02*
X011895Y001816D01*
X012088Y001816D01*
X012088Y001768D02*
X012088Y001864D01*
X012040Y001913D01*
X011943Y001913D01*
X011895Y001864D01*
X012040Y001719D02*
X012088Y001768D01*
X012040Y001719D02*
X011943Y001719D01*
X012189Y001768D02*
X012238Y001719D01*
X012383Y001719D01*
X012334Y001816D02*
X012238Y001816D01*
X012189Y001768D01*
X012334Y001816D02*
X012383Y001864D01*
X012334Y001913D01*
X012189Y001913D01*
X012136Y002219D02*
X012136Y002590D01*
X012014Y002590D02*
X011768Y002590D01*
X011891Y002590D02*
X011891Y002219D01*
X011646Y002219D02*
X011399Y002219D01*
X011278Y002219D02*
X011031Y002466D01*
X011031Y002528D01*
X011093Y002590D01*
X011216Y002590D01*
X011278Y002528D01*
X011523Y002590D02*
X011523Y002219D01*
X011278Y002219D02*
X011031Y002219D01*
X011523Y002590D02*
X011646Y002466D01*
X012136Y002219D02*
X012259Y002343D01*
X012383Y002219D01*
X012383Y002590D01*
X010075Y001768D02*
X010075Y001719D01*
X010026Y001719D01*
X010026Y001768D01*
X010075Y001768D01*
X009927Y001719D02*
X009927Y001913D01*
X009782Y001913D01*
X009734Y001864D01*
X009734Y001719D01*
X009633Y001768D02*
X009633Y001864D01*
X009584Y001913D01*
X009488Y001913D01*
X009439Y001864D01*
X009439Y001816D01*
X009633Y001816D01*
X009633Y001768D02*
X009584Y001719D01*
X009488Y001719D01*
X009290Y001768D02*
X009241Y001719D01*
X009290Y001768D02*
X009290Y001961D01*
X009338Y001913D02*
X009241Y001913D01*
X009563Y003046D02*
X009933Y003046D01*
X009933Y003293D01*
X009748Y003170D02*
X009748Y003046D01*
X009933Y003414D02*
X009563Y003414D01*
X009563Y003661D01*
X009624Y003783D02*
X009563Y003844D01*
X009563Y003968D01*
X009624Y004030D01*
X009871Y004030D01*
X009933Y003968D01*
X009933Y003844D01*
X009871Y003783D01*
X009624Y003783D01*
X009563Y004151D02*
X009686Y004274D01*
X009563Y004398D01*
X009933Y004398D01*
X009933Y004151D02*
X009563Y004151D01*
D12*
X010148Y004304D02*
X010148Y003204D01*
X010150Y003187D01*
X010154Y003170D01*
X010161Y003154D01*
X010171Y003140D01*
X010184Y003127D01*
X010198Y003117D01*
X010214Y003110D01*
X010231Y003106D01*
X010248Y003104D01*
X010848Y003104D01*
X010865Y003106D01*
X010882Y003110D01*
X010898Y003117D01*
X010912Y003127D01*
X010925Y003140D01*
X010935Y003154D01*
X010942Y003170D01*
X010946Y003187D01*
X010948Y003204D01*
X010948Y004304D01*
X010946Y004321D01*
X010942Y004338D01*
X010935Y004354D01*
X010925Y004368D01*
X010912Y004381D01*
X010898Y004391D01*
X010882Y004398D01*
X010865Y004402D01*
X010848Y004404D01*
X010248Y004404D01*
X010231Y004402D01*
X010214Y004398D01*
X010198Y004391D01*
X010184Y004381D01*
X010171Y004368D01*
X010161Y004354D01*
X010154Y004338D01*
X010150Y004321D01*
X010148Y004304D01*
M02*
