G75*
G70*
%OFA0B0*%
%FSLAX24Y24*%
%IPPOS*%
%LPD*%
%AMOC8*
5,1,8,0,0,1.08239X$1,22.5*
%
%ADD10C,0.0000*%
%ADD11C,0.0030*%
%ADD12C,0.0040*%
%ADD13C,0.0050*%
%ADD14C,0.0060*%
%ADD15C,0.0100*%
%ADD16R,0.0200X0.0150*%
D10*
X000998Y000554D02*
X000998Y006850D01*
X015998Y006850D01*
X015998Y000554D01*
X000998Y000554D01*
D11*
X002113Y001068D02*
X002161Y001019D01*
X002258Y001019D01*
X002306Y001068D01*
X002113Y001068D02*
X002113Y001261D01*
X002161Y001310D01*
X002258Y001310D01*
X002306Y001261D01*
X002407Y001310D02*
X002601Y001310D01*
X002504Y001310D02*
X002504Y001019D01*
X002702Y001068D02*
X002750Y001019D01*
X002847Y001019D01*
X002896Y001068D01*
X002896Y001116D01*
X002847Y001164D01*
X002750Y001164D01*
X002702Y001213D01*
X002702Y001261D01*
X002750Y001310D01*
X002847Y001310D01*
X002896Y001261D01*
X002847Y002019D02*
X002750Y002019D01*
X002702Y002068D01*
X002601Y002116D02*
X002504Y002019D01*
X002407Y002116D01*
X002407Y002310D01*
X002306Y002261D02*
X002306Y002213D01*
X002258Y002164D01*
X002306Y002116D01*
X002306Y002068D01*
X002258Y002019D01*
X002161Y002019D01*
X002113Y002068D01*
X002210Y002164D02*
X002258Y002164D01*
X002306Y002261D02*
X002258Y002310D01*
X002161Y002310D01*
X002113Y002261D01*
X002601Y002310D02*
X002601Y002116D01*
X002799Y002164D02*
X002847Y002164D01*
X002896Y002116D01*
X002896Y002068D01*
X002847Y002019D01*
X002847Y002164D02*
X002896Y002213D01*
X002896Y002261D01*
X002847Y002310D01*
X002750Y002310D01*
X002702Y002261D01*
X003363Y002219D02*
X003363Y002510D01*
X003508Y002510D01*
X003556Y002461D01*
X003556Y002364D01*
X003508Y002316D01*
X003363Y002316D01*
X003460Y002316D02*
X003556Y002219D01*
X003657Y002219D02*
X003851Y002219D01*
X003952Y002268D02*
X004000Y002219D01*
X004097Y002219D01*
X004146Y002268D01*
X004146Y002316D01*
X004097Y002364D01*
X004000Y002364D01*
X003952Y002413D01*
X003952Y002461D01*
X004000Y002510D01*
X004097Y002510D01*
X004146Y002461D01*
X003851Y002510D02*
X003657Y002510D01*
X003657Y002219D01*
X003657Y002364D02*
X003754Y002364D01*
X002896Y003068D02*
X002847Y003019D01*
X002702Y003019D01*
X002702Y003310D01*
X002847Y003310D01*
X002896Y003261D01*
X002896Y003068D01*
X002601Y003019D02*
X002601Y003310D01*
X002407Y003310D02*
X002601Y003019D01*
X002407Y003019D02*
X002407Y003310D01*
X002306Y003261D02*
X002258Y003310D01*
X002161Y003310D01*
X002113Y003261D01*
X002113Y003068D01*
X002161Y003019D01*
X002258Y003019D01*
X002306Y003068D01*
X002306Y003164D01*
X002210Y003164D01*
X004143Y003119D02*
X004433Y003119D01*
X004433Y003313D01*
X004433Y003414D02*
X004433Y003607D01*
X004433Y003511D02*
X004143Y003511D01*
X004239Y003414D01*
X002896Y004068D02*
X002896Y004261D01*
X002847Y004310D01*
X002702Y004310D01*
X002702Y004019D01*
X002847Y004019D01*
X002896Y004068D01*
X003163Y004168D02*
X003211Y004119D01*
X003308Y004119D01*
X003356Y004168D01*
X003457Y004119D02*
X003651Y004313D01*
X003651Y004361D01*
X003603Y004410D01*
X003506Y004410D01*
X003457Y004361D01*
X003356Y004361D02*
X003308Y004410D01*
X003211Y004410D01*
X003163Y004361D01*
X003163Y004168D01*
X003457Y004119D02*
X003651Y004119D01*
X004263Y004168D02*
X004311Y004119D01*
X004408Y004119D01*
X004456Y004168D01*
X004557Y004119D02*
X004751Y004119D01*
X004654Y004119D02*
X004654Y004410D01*
X004557Y004313D01*
X004456Y004361D02*
X004408Y004410D01*
X004311Y004410D01*
X004263Y004361D01*
X004263Y004168D01*
X002601Y004310D02*
X002407Y004019D01*
X002601Y004019D02*
X002407Y004310D01*
X002306Y004310D02*
X002113Y004310D01*
X002210Y004310D02*
X002210Y004019D01*
X002306Y005019D02*
X002210Y005116D01*
X002258Y005116D02*
X002113Y005116D01*
X002113Y005019D02*
X002113Y005310D01*
X002258Y005310D01*
X002306Y005261D01*
X002306Y005164D01*
X002258Y005116D01*
X002407Y005019D02*
X002601Y005310D01*
X002702Y005310D02*
X002847Y005310D01*
X002896Y005261D01*
X002896Y005068D01*
X002847Y005019D01*
X002702Y005019D01*
X002702Y005310D01*
X002407Y005310D02*
X002601Y005019D01*
X002504Y006019D02*
X002504Y006310D01*
X002407Y006310D02*
X002601Y006310D01*
X002702Y006261D02*
X002702Y006213D01*
X002750Y006164D01*
X002847Y006164D01*
X002896Y006116D01*
X002896Y006068D01*
X002847Y006019D01*
X002750Y006019D01*
X002702Y006068D01*
X002702Y006261D02*
X002750Y006310D01*
X002847Y006310D01*
X002896Y006261D01*
X002306Y006261D02*
X002306Y006164D01*
X002258Y006116D01*
X002113Y006116D01*
X002210Y006116D02*
X002306Y006019D01*
X002113Y006019D02*
X002113Y006310D01*
X002258Y006310D01*
X002306Y006261D01*
X005763Y005814D02*
X005763Y005621D01*
X005908Y005520D02*
X005908Y005326D01*
X005763Y005375D02*
X006053Y005375D01*
X005908Y005520D01*
X006053Y005718D02*
X005763Y005718D01*
X005956Y005814D02*
X006053Y005718D01*
X013438Y005718D02*
X013728Y005718D01*
X013631Y005814D01*
X013438Y005814D02*
X013438Y005621D01*
X014486Y004510D02*
X014583Y004510D01*
X014631Y004461D01*
X014631Y004413D01*
X014583Y004364D01*
X014631Y004316D01*
X014631Y004268D01*
X014583Y004219D01*
X014486Y004219D01*
X014438Y004268D01*
X014535Y004364D02*
X014583Y004364D01*
X014732Y004413D02*
X014829Y004510D01*
X014829Y004219D01*
X014732Y004219D02*
X014926Y004219D01*
X014878Y003885D02*
X014926Y003836D01*
X014732Y003643D01*
X014781Y003594D01*
X014878Y003594D01*
X014926Y003643D01*
X014926Y003836D01*
X014878Y003885D02*
X014781Y003885D01*
X014732Y003836D01*
X014732Y003643D01*
X014631Y003643D02*
X014583Y003594D01*
X014486Y003594D01*
X014438Y003643D01*
X014535Y003739D02*
X014583Y003739D01*
X014631Y003691D01*
X014631Y003643D01*
X014583Y003739D02*
X014631Y003788D01*
X014631Y003836D01*
X014583Y003885D01*
X014486Y003885D01*
X014438Y003836D01*
X014176Y003885D02*
X013982Y003885D01*
X013982Y003594D01*
X013881Y003594D02*
X013785Y003691D01*
X013833Y003691D02*
X013688Y003691D01*
X013688Y003594D02*
X013688Y003885D01*
X013833Y003885D01*
X013881Y003836D01*
X013881Y003739D01*
X013833Y003691D01*
X013982Y003739D02*
X014079Y003739D01*
X014486Y003260D02*
X014438Y003211D01*
X014486Y003260D02*
X014583Y003260D01*
X014631Y003211D01*
X014631Y003163D01*
X014438Y002969D01*
X014631Y002969D01*
X014732Y003018D02*
X014781Y002969D01*
X014878Y002969D01*
X014926Y003018D01*
X014926Y003211D01*
X014878Y003260D01*
X014781Y003260D01*
X014732Y003211D01*
X014732Y003163D01*
X014781Y003114D01*
X014926Y003114D01*
X013728Y002141D02*
X013680Y002189D01*
X013728Y002141D02*
X013728Y002044D01*
X013680Y001996D01*
X013631Y001996D01*
X013438Y002189D01*
X013438Y001996D01*
X013486Y001895D02*
X013438Y001846D01*
X013438Y001750D01*
X013486Y001701D01*
X013535Y001701D01*
X013583Y001750D01*
X013583Y001846D01*
X013631Y001895D01*
X013680Y001895D01*
X013728Y001846D01*
X013728Y001750D01*
X013680Y001701D01*
X013631Y001701D01*
X013583Y001750D01*
X013583Y001846D02*
X013535Y001895D01*
X013486Y001895D01*
X014438Y004461D02*
X014486Y004510D01*
X006053Y002093D02*
X005763Y002093D01*
X005763Y002189D02*
X005763Y001996D01*
X005811Y001895D02*
X005763Y001846D01*
X005763Y001750D01*
X005811Y001701D01*
X005908Y001701D01*
X005956Y001750D01*
X005956Y001798D01*
X005908Y001895D01*
X006053Y001895D01*
X006053Y001701D01*
X006053Y002093D02*
X005956Y002189D01*
D12*
X008409Y003371D02*
X008486Y003371D01*
X008563Y003448D01*
X008563Y003831D01*
X008332Y003831D01*
X008256Y003754D01*
X008256Y003601D01*
X008332Y003524D01*
X008563Y003524D01*
X008716Y003524D02*
X008870Y003524D01*
X008793Y003524D02*
X008793Y003831D01*
X008716Y003831D01*
X008793Y003985D02*
X008793Y004061D01*
X009100Y003831D02*
X009023Y003754D01*
X009023Y003601D01*
X009100Y003524D01*
X009330Y003524D01*
X009483Y003601D02*
X009560Y003678D01*
X009790Y003678D01*
X009790Y003754D02*
X009790Y003524D01*
X009560Y003524D01*
X009483Y003601D01*
X009714Y003831D02*
X009790Y003754D01*
X009714Y003831D02*
X009560Y003831D01*
X009330Y003831D02*
X009100Y003831D01*
X009330Y003831D02*
X009330Y003448D01*
X009253Y003371D01*
X009176Y003371D01*
X008102Y003678D02*
X007795Y003678D01*
X007795Y003754D02*
X007795Y003601D01*
X007872Y003524D01*
X008026Y003524D01*
X008102Y003678D02*
X008102Y003754D01*
X008026Y003831D01*
X007872Y003831D01*
X007795Y003754D01*
X007642Y003831D02*
X007642Y003524D01*
X007412Y003524D01*
X007335Y003601D01*
X007335Y003831D01*
X007105Y003985D02*
X007105Y003524D01*
X007028Y003524D02*
X007182Y003524D01*
X006875Y003601D02*
X006875Y003678D01*
X006798Y003754D01*
X006568Y003754D01*
X006798Y003754D02*
X006875Y003831D01*
X006875Y003908D01*
X006798Y003985D01*
X006568Y003985D01*
X006568Y003524D01*
X006798Y003524D01*
X006875Y003601D01*
X007028Y003985D02*
X007105Y003985D01*
X010404Y003985D02*
X010404Y003524D01*
X010557Y003678D01*
X010711Y003524D01*
X010711Y003985D01*
X010864Y003985D02*
X011171Y003985D01*
X011018Y003985D02*
X011018Y003524D01*
X011325Y003524D02*
X011632Y003524D01*
X011785Y003524D02*
X012092Y003831D01*
X012092Y003908D01*
X012015Y003985D01*
X011862Y003985D01*
X011785Y003908D01*
X011478Y003985D02*
X011478Y003524D01*
X011785Y003524D02*
X012092Y003524D01*
X012245Y003754D02*
X012552Y003754D01*
X012706Y003754D02*
X013013Y003754D01*
X013013Y003831D02*
X013013Y003524D01*
X012706Y003524D02*
X012706Y003831D01*
X012859Y003985D01*
X013013Y003831D01*
X011478Y003985D02*
X011325Y003831D01*
D13*
X015017Y006067D02*
X015019Y006093D01*
X015025Y006119D01*
X015034Y006143D01*
X015048Y006166D01*
X015064Y006187D01*
X015083Y006205D01*
X015105Y006219D01*
X015129Y006231D01*
X015154Y006239D01*
X015180Y006243D01*
X015206Y006243D01*
X015232Y006239D01*
X015257Y006231D01*
X015281Y006219D01*
X015303Y006205D01*
X015322Y006187D01*
X015338Y006166D01*
X015352Y006143D01*
X015361Y006119D01*
X015367Y006093D01*
X015369Y006067D01*
X015367Y006041D01*
X015361Y006015D01*
X015352Y005991D01*
X015338Y005968D01*
X015322Y005947D01*
X015303Y005929D01*
X015281Y005915D01*
X015257Y005903D01*
X015232Y005895D01*
X015206Y005891D01*
X015180Y005891D01*
X015154Y005895D01*
X015129Y005903D01*
X015105Y005915D01*
X015083Y005929D01*
X015064Y005947D01*
X015048Y005968D01*
X015034Y005991D01*
X015025Y006015D01*
X015019Y006041D01*
X015017Y006067D01*
X015587Y006460D02*
X015587Y000948D01*
X005508Y000948D01*
X005508Y006460D01*
X015587Y006460D01*
D14*
X005348Y006354D02*
X005348Y004654D01*
X005346Y004637D01*
X005342Y004620D01*
X005335Y004604D01*
X005325Y004590D01*
X005312Y004577D01*
X005298Y004567D01*
X005282Y004560D01*
X005265Y004556D01*
X005248Y004554D01*
X004448Y004554D01*
X004431Y004556D01*
X004414Y004560D01*
X004398Y004567D01*
X004384Y004577D01*
X004371Y004590D01*
X004361Y004604D01*
X004354Y004620D01*
X004350Y004637D01*
X004348Y004654D01*
X004348Y006354D01*
X004350Y006371D01*
X004354Y006388D01*
X004361Y006404D01*
X004371Y006418D01*
X004384Y006431D01*
X004398Y006441D01*
X004414Y006448D01*
X004431Y006452D01*
X004448Y006454D01*
X005248Y006454D01*
X005265Y006452D01*
X005282Y006448D01*
X005298Y006441D01*
X005312Y006431D01*
X005325Y006418D01*
X005335Y006404D01*
X005342Y006388D01*
X005346Y006371D01*
X005348Y006354D01*
X004148Y006354D02*
X004148Y004654D01*
X004146Y004637D01*
X004142Y004620D01*
X004135Y004604D01*
X004125Y004590D01*
X004112Y004577D01*
X004098Y004567D01*
X004082Y004560D01*
X004065Y004556D01*
X004048Y004554D01*
X003248Y004554D01*
X003231Y004556D01*
X003214Y004560D01*
X003198Y004567D01*
X003184Y004577D01*
X003171Y004590D01*
X003161Y004604D01*
X003154Y004620D01*
X003150Y004637D01*
X003148Y004654D01*
X003148Y006354D01*
X003150Y006371D01*
X003154Y006388D01*
X003161Y006404D01*
X003171Y006418D01*
X003184Y006431D01*
X003198Y006441D01*
X003214Y006448D01*
X003231Y006452D01*
X003248Y006454D01*
X004048Y006454D01*
X004065Y006452D01*
X004082Y006448D01*
X004098Y006441D01*
X004112Y006431D01*
X004125Y006418D01*
X004135Y006404D01*
X004142Y006388D01*
X004146Y006371D01*
X004148Y006354D01*
X003648Y005654D02*
X003648Y005604D01*
X003648Y005404D02*
X003648Y005354D01*
X004848Y005354D02*
X004848Y005404D01*
X004848Y005604D02*
X004848Y005654D01*
X001998Y005454D02*
X001998Y004954D01*
X001748Y004704D01*
X001998Y004454D01*
X001998Y003954D01*
X001748Y003704D01*
X001998Y003454D01*
X001998Y002954D01*
X001748Y002704D01*
X001998Y002454D01*
X001998Y001954D01*
X001748Y001704D01*
X001998Y001454D01*
X001998Y000954D01*
X001748Y000704D01*
X001248Y000704D01*
X000998Y000954D01*
X000998Y001454D01*
X001248Y001704D01*
X000998Y001954D01*
X000998Y002454D01*
X001248Y002704D01*
X001748Y002704D01*
X001248Y002704D02*
X000998Y002954D01*
X000998Y003454D01*
X001248Y003704D01*
X000998Y003954D01*
X000998Y004454D01*
X001248Y004704D01*
X000998Y004954D01*
X000998Y005454D01*
X001248Y005704D01*
X000998Y005954D01*
X000998Y006454D01*
X001248Y006704D01*
X001748Y006704D01*
X001998Y006454D01*
X001998Y005954D01*
X001748Y005704D01*
X001998Y005454D01*
X001748Y005704D02*
X001248Y005704D01*
X001248Y004704D02*
X001748Y004704D01*
X001748Y003704D02*
X001248Y003704D01*
X004548Y003504D02*
X004548Y003354D01*
X004598Y003304D01*
X004598Y001904D01*
X004548Y001854D01*
X004548Y001704D01*
X004550Y001687D01*
X004554Y001670D01*
X004561Y001654D01*
X004571Y001640D01*
X004584Y001627D01*
X004598Y001617D01*
X004614Y001610D01*
X004631Y001606D01*
X004648Y001604D01*
X005248Y001604D01*
X005265Y001606D01*
X005282Y001610D01*
X005298Y001617D01*
X005312Y001627D01*
X005325Y001640D01*
X005335Y001654D01*
X005342Y001670D01*
X005346Y001687D01*
X005348Y001704D01*
X005348Y001854D01*
X005298Y001904D01*
X005298Y003304D01*
X005348Y003354D01*
X005348Y003504D01*
X005346Y003521D01*
X005342Y003538D01*
X005335Y003554D01*
X005325Y003568D01*
X005312Y003581D01*
X005298Y003591D01*
X005282Y003598D01*
X005265Y003602D01*
X005248Y003604D01*
X004648Y003604D01*
X004631Y003602D01*
X004614Y003598D01*
X004598Y003591D01*
X004584Y003581D01*
X004571Y003568D01*
X004561Y003554D01*
X004554Y003538D01*
X004550Y003521D01*
X004548Y003504D01*
X004648Y003254D02*
X005248Y003254D01*
X005265Y003252D01*
X005282Y003248D01*
X005298Y003241D01*
X005312Y003231D01*
X005325Y003218D01*
X005335Y003204D01*
X005342Y003188D01*
X005346Y003171D01*
X005348Y003154D01*
X005348Y002054D01*
X005346Y002037D01*
X005342Y002020D01*
X005335Y002004D01*
X005325Y001990D01*
X005312Y001977D01*
X005298Y001967D01*
X005282Y001960D01*
X005265Y001956D01*
X005248Y001954D01*
X004648Y001954D01*
X004631Y001956D01*
X004614Y001960D01*
X004598Y001967D01*
X004584Y001977D01*
X004571Y001990D01*
X004561Y002004D01*
X004554Y002020D01*
X004550Y002037D01*
X004548Y002054D01*
X004548Y003154D01*
X004550Y003171D01*
X004554Y003188D01*
X004561Y003204D01*
X004571Y003218D01*
X004584Y003231D01*
X004598Y003241D01*
X004614Y003248D01*
X004631Y003252D01*
X004648Y003254D01*
X003998Y002054D02*
X003498Y002054D01*
X003248Y001804D01*
X003248Y001304D01*
X003498Y001054D01*
X003998Y001054D01*
X004248Y001304D01*
X004248Y001804D01*
X003998Y002054D01*
X001748Y001704D02*
X001248Y001704D01*
D15*
X003348Y005404D02*
X003648Y005404D01*
X003948Y005404D01*
X003948Y005604D02*
X003648Y005604D01*
X003348Y005604D01*
X004548Y005604D02*
X004848Y005604D01*
X005148Y005604D01*
X005148Y005404D02*
X004848Y005404D01*
X004548Y005404D01*
D16*
X004948Y003679D03*
X004948Y001529D03*
M02*
