%
M48
M72
T01C0.0200
T02C0.0320
T03C0.0400
%
T01
X2498Y2704
X3998Y3054
X3498Y3554
X2498Y3704
X3998Y4054
X2498Y4704
X5398Y5554
X5398Y6054
X10598Y5654
X12898Y5654
X12498Y4554
X13348Y4554
X13948Y4154
X13348Y3754
X12398Y3354
X13348Y2904
X13948Y2554
X14998Y2554
X15498Y2054
X14498Y2054
X14998Y1554
X13948Y1554
X12948Y2054
X14498Y1054
X15498Y1054
X13948Y3304
X11198Y4054
X8298Y3454
X6398Y2654
X6998Y1754
T02
X4948Y1104
X4948Y4104
X4848Y5004
X3648Y5004
X3648Y6004
X4848Y6004
T03
X1498Y1204
X3748Y1554
X1498Y2204
X1498Y3204
X1498Y4204
X1498Y5204
X1498Y6204
M30
