G75*
%MOIN*%
%OFA0B0*%
%FSLAX25Y25*%
%IPPOS*%
%LPD*%
%AMOC8*
5,1,8,0,0,1.08239X$1,22.5*
%
%ADD10R,0.05524X0.05524*%
%ADD11R,0.05131X0.04737*%
%ADD12R,0.04737X0.05131*%
%ADD13R,0.04737X0.04343*%
%ADD14R,0.03950X0.07493*%
%ADD15OC8,0.07800*%
%ADD16OC8,0.08200*%
%ADD17C,0.00949*%
D10*
X0032666Y0026800D03*
X0040934Y0026800D03*
X0040934Y0034800D03*
X0032666Y0034800D03*
X0069666Y0026800D03*
X0077934Y0026800D03*
D11*
X0086454Y0026800D03*
X0093146Y0026800D03*
X0027146Y0026800D03*
X0020454Y0026800D03*
X0020454Y0034800D03*
X0027146Y0034800D03*
X0027146Y0046800D03*
X0020454Y0046800D03*
D12*
X0040800Y0046454D03*
X0040800Y0053146D03*
X0040800Y0071454D03*
X0040800Y0078146D03*
D13*
X0027950Y0076871D03*
X0021650Y0076871D03*
X0021650Y0060729D03*
X0027950Y0060729D03*
D14*
X0020076Y0068800D03*
D15*
X0006800Y0006800D03*
X0016800Y0006800D03*
X0026800Y0006800D03*
X0036800Y0006800D03*
X0046800Y0006800D03*
X0056800Y0006800D03*
X0066800Y0006800D03*
X0076800Y0006800D03*
X0086800Y0006800D03*
X0096800Y0006800D03*
X0106800Y0006800D03*
X0116800Y0006800D03*
X0126800Y0006800D03*
X0136800Y0006800D03*
X0146800Y0006800D03*
X0156800Y0006800D03*
X0166800Y0006800D03*
X0051800Y0026800D03*
X0051800Y0036800D03*
X0051800Y0046800D03*
X0051800Y0056800D03*
X0051800Y0066800D03*
X0051800Y0076800D03*
X0046800Y0096800D03*
X0036800Y0096800D03*
X0026800Y0096800D03*
X0016800Y0096800D03*
X0006800Y0096800D03*
X0006800Y0076800D03*
X0006800Y0066800D03*
X0006800Y0056800D03*
X0006800Y0046800D03*
X0006800Y0036800D03*
X0006800Y0026800D03*
X0056800Y0096800D03*
X0066800Y0096800D03*
X0076800Y0096800D03*
X0086800Y0096800D03*
X0096800Y0096800D03*
X0106800Y0096800D03*
X0116800Y0096800D03*
X0126800Y0096800D03*
X0136800Y0096800D03*
X0146800Y0096800D03*
X0156800Y0096800D03*
X0166800Y0096800D03*
D16*
X0086800Y0066800D03*
X0076800Y0066800D03*
X0076800Y0056800D03*
X0086800Y0056800D03*
X0086800Y0046800D03*
X0076800Y0046800D03*
D17*
X0112600Y0046756D02*
X0112600Y0048970D01*
X0112600Y0046756D02*
X0104874Y0046756D01*
X0104874Y0048970D01*
X0112600Y0048970D01*
X0112600Y0047704D02*
X0104874Y0047704D01*
X0104874Y0048652D02*
X0112600Y0048652D01*
X0112600Y0050693D02*
X0112600Y0052907D01*
X0112600Y0050693D02*
X0104874Y0050693D01*
X0104874Y0052907D01*
X0112600Y0052907D01*
X0112600Y0051641D02*
X0104874Y0051641D01*
X0104874Y0052589D02*
X0112600Y0052589D01*
X0112600Y0054630D02*
X0112600Y0056844D01*
X0112600Y0054630D02*
X0104874Y0054630D01*
X0104874Y0056844D01*
X0112600Y0056844D01*
X0112600Y0055578D02*
X0104874Y0055578D01*
X0104874Y0056526D02*
X0112600Y0056526D01*
X0112600Y0058567D02*
X0112600Y0060781D01*
X0112600Y0058567D02*
X0104874Y0058567D01*
X0104874Y0060781D01*
X0112600Y0060781D01*
X0112600Y0059515D02*
X0104874Y0059515D01*
X0104874Y0060463D02*
X0112600Y0060463D01*
X0112600Y0062504D02*
X0112600Y0064718D01*
X0112600Y0062504D02*
X0104874Y0062504D01*
X0104874Y0064718D01*
X0112600Y0064718D01*
X0112600Y0063452D02*
X0104874Y0063452D01*
X0104874Y0064400D02*
X0112600Y0064400D01*
X0112600Y0066441D02*
X0112600Y0068655D01*
X0112600Y0066441D02*
X0104874Y0066441D01*
X0104874Y0068655D01*
X0112600Y0068655D01*
X0112600Y0067389D02*
X0104874Y0067389D01*
X0104874Y0068337D02*
X0112600Y0068337D01*
X0112600Y0070378D02*
X0112600Y0072592D01*
X0112600Y0070378D02*
X0104874Y0070378D01*
X0104874Y0072592D01*
X0112600Y0072592D01*
X0112600Y0071326D02*
X0104874Y0071326D01*
X0104874Y0072274D02*
X0112600Y0072274D01*
X0111418Y0074315D02*
X0111418Y0076529D01*
X0111418Y0074315D02*
X0104874Y0074315D01*
X0104874Y0076529D01*
X0111418Y0076529D01*
X0111418Y0075263D02*
X0104874Y0075263D01*
X0104874Y0076211D02*
X0111418Y0076211D01*
X0114323Y0079434D02*
X0116537Y0079434D01*
X0114323Y0079434D02*
X0114323Y0085978D01*
X0116537Y0085978D01*
X0116537Y0079434D01*
X0116537Y0080382D02*
X0114323Y0080382D01*
X0114323Y0081330D02*
X0116537Y0081330D01*
X0116537Y0082278D02*
X0114323Y0082278D01*
X0114323Y0083226D02*
X0116537Y0083226D01*
X0116537Y0084174D02*
X0114323Y0084174D01*
X0114323Y0085122D02*
X0116537Y0085122D01*
X0118260Y0078252D02*
X0120474Y0078252D01*
X0118260Y0078252D02*
X0118260Y0085978D01*
X0120474Y0085978D01*
X0120474Y0078252D01*
X0120474Y0079200D02*
X0118260Y0079200D01*
X0118260Y0080148D02*
X0120474Y0080148D01*
X0120474Y0081096D02*
X0118260Y0081096D01*
X0118260Y0082044D02*
X0120474Y0082044D01*
X0120474Y0082992D02*
X0118260Y0082992D01*
X0118260Y0083940D02*
X0120474Y0083940D01*
X0120474Y0084888D02*
X0118260Y0084888D01*
X0118260Y0085836D02*
X0120474Y0085836D01*
X0122197Y0078252D02*
X0124411Y0078252D01*
X0122197Y0078252D02*
X0122197Y0085978D01*
X0124411Y0085978D01*
X0124411Y0078252D01*
X0124411Y0079200D02*
X0122197Y0079200D01*
X0122197Y0080148D02*
X0124411Y0080148D01*
X0124411Y0081096D02*
X0122197Y0081096D01*
X0122197Y0082044D02*
X0124411Y0082044D01*
X0124411Y0082992D02*
X0122197Y0082992D01*
X0122197Y0083940D02*
X0124411Y0083940D01*
X0124411Y0084888D02*
X0122197Y0084888D01*
X0122197Y0085836D02*
X0124411Y0085836D01*
X0126134Y0078252D02*
X0128348Y0078252D01*
X0126134Y0078252D02*
X0126134Y0085978D01*
X0128348Y0085978D01*
X0128348Y0078252D01*
X0128348Y0079200D02*
X0126134Y0079200D01*
X0126134Y0080148D02*
X0128348Y0080148D01*
X0128348Y0081096D02*
X0126134Y0081096D01*
X0126134Y0082044D02*
X0128348Y0082044D01*
X0128348Y0082992D02*
X0126134Y0082992D01*
X0126134Y0083940D02*
X0128348Y0083940D01*
X0128348Y0084888D02*
X0126134Y0084888D01*
X0126134Y0085836D02*
X0128348Y0085836D01*
X0130071Y0078252D02*
X0132285Y0078252D01*
X0130071Y0078252D02*
X0130071Y0085978D01*
X0132285Y0085978D01*
X0132285Y0078252D01*
X0132285Y0079200D02*
X0130071Y0079200D01*
X0130071Y0080148D02*
X0132285Y0080148D01*
X0132285Y0081096D02*
X0130071Y0081096D01*
X0130071Y0082044D02*
X0132285Y0082044D01*
X0132285Y0082992D02*
X0130071Y0082992D01*
X0130071Y0083940D02*
X0132285Y0083940D01*
X0132285Y0084888D02*
X0130071Y0084888D01*
X0130071Y0085836D02*
X0132285Y0085836D01*
X0134008Y0078252D02*
X0136222Y0078252D01*
X0134008Y0078252D02*
X0134008Y0085978D01*
X0136222Y0085978D01*
X0136222Y0078252D01*
X0136222Y0079200D02*
X0134008Y0079200D01*
X0134008Y0080148D02*
X0136222Y0080148D01*
X0136222Y0081096D02*
X0134008Y0081096D01*
X0134008Y0082044D02*
X0136222Y0082044D01*
X0136222Y0082992D02*
X0134008Y0082992D01*
X0134008Y0083940D02*
X0136222Y0083940D01*
X0136222Y0084888D02*
X0134008Y0084888D01*
X0134008Y0085836D02*
X0136222Y0085836D01*
X0137945Y0078252D02*
X0140159Y0078252D01*
X0137945Y0078252D02*
X0137945Y0085978D01*
X0140159Y0085978D01*
X0140159Y0078252D01*
X0140159Y0079200D02*
X0137945Y0079200D01*
X0137945Y0080148D02*
X0140159Y0080148D01*
X0140159Y0081096D02*
X0137945Y0081096D01*
X0137945Y0082044D02*
X0140159Y0082044D01*
X0140159Y0082992D02*
X0137945Y0082992D01*
X0137945Y0083940D02*
X0140159Y0083940D01*
X0140159Y0084888D02*
X0137945Y0084888D01*
X0137945Y0085836D02*
X0140159Y0085836D01*
X0141882Y0078252D02*
X0144096Y0078252D01*
X0141882Y0078252D02*
X0141882Y0085978D01*
X0144096Y0085978D01*
X0144096Y0078252D01*
X0144096Y0079200D02*
X0141882Y0079200D01*
X0141882Y0080148D02*
X0144096Y0080148D01*
X0144096Y0081096D02*
X0141882Y0081096D01*
X0141882Y0082044D02*
X0144096Y0082044D01*
X0144096Y0082992D02*
X0141882Y0082992D01*
X0141882Y0083940D02*
X0144096Y0083940D01*
X0144096Y0084888D02*
X0141882Y0084888D01*
X0141882Y0085836D02*
X0144096Y0085836D01*
X0145819Y0078252D02*
X0148033Y0078252D01*
X0145819Y0078252D02*
X0145819Y0085978D01*
X0148033Y0085978D01*
X0148033Y0078252D01*
X0148033Y0079200D02*
X0145819Y0079200D01*
X0145819Y0080148D02*
X0148033Y0080148D01*
X0148033Y0081096D02*
X0145819Y0081096D01*
X0145819Y0082044D02*
X0148033Y0082044D01*
X0148033Y0082992D02*
X0145819Y0082992D01*
X0145819Y0083940D02*
X0148033Y0083940D01*
X0148033Y0084888D02*
X0145819Y0084888D01*
X0145819Y0085836D02*
X0148033Y0085836D01*
X0149756Y0078252D02*
X0151970Y0078252D01*
X0149756Y0078252D02*
X0149756Y0085978D01*
X0151970Y0085978D01*
X0151970Y0078252D01*
X0151970Y0079200D02*
X0149756Y0079200D01*
X0149756Y0080148D02*
X0151970Y0080148D01*
X0151970Y0081096D02*
X0149756Y0081096D01*
X0149756Y0082044D02*
X0151970Y0082044D01*
X0151970Y0082992D02*
X0149756Y0082992D01*
X0149756Y0083940D02*
X0151970Y0083940D01*
X0151970Y0084888D02*
X0149756Y0084888D01*
X0149756Y0085836D02*
X0151970Y0085836D01*
X0153693Y0078252D02*
X0155907Y0078252D01*
X0153693Y0078252D02*
X0153693Y0085978D01*
X0155907Y0085978D01*
X0155907Y0078252D01*
X0155907Y0079200D02*
X0153693Y0079200D01*
X0153693Y0080148D02*
X0155907Y0080148D01*
X0155907Y0081096D02*
X0153693Y0081096D01*
X0153693Y0082044D02*
X0155907Y0082044D01*
X0155907Y0082992D02*
X0153693Y0082992D01*
X0153693Y0083940D02*
X0155907Y0083940D01*
X0155907Y0084888D02*
X0153693Y0084888D01*
X0153693Y0085836D02*
X0155907Y0085836D01*
X0157630Y0078252D02*
X0159844Y0078252D01*
X0157630Y0078252D02*
X0157630Y0085978D01*
X0159844Y0085978D01*
X0159844Y0078252D01*
X0159844Y0079200D02*
X0157630Y0079200D01*
X0157630Y0080148D02*
X0159844Y0080148D01*
X0159844Y0081096D02*
X0157630Y0081096D01*
X0157630Y0082044D02*
X0159844Y0082044D01*
X0159844Y0082992D02*
X0157630Y0082992D01*
X0157630Y0083940D02*
X0159844Y0083940D01*
X0159844Y0084888D02*
X0157630Y0084888D01*
X0157630Y0085836D02*
X0159844Y0085836D01*
X0161567Y0078252D02*
X0163781Y0078252D01*
X0161567Y0078252D02*
X0161567Y0085978D01*
X0163781Y0085978D01*
X0163781Y0078252D01*
X0163781Y0079200D02*
X0161567Y0079200D01*
X0161567Y0080148D02*
X0163781Y0080148D01*
X0163781Y0081096D02*
X0161567Y0081096D01*
X0161567Y0082044D02*
X0163781Y0082044D01*
X0163781Y0082992D02*
X0161567Y0082992D01*
X0161567Y0083940D02*
X0163781Y0083940D01*
X0163781Y0084888D02*
X0161567Y0084888D01*
X0161567Y0085836D02*
X0163781Y0085836D01*
X0165504Y0078252D02*
X0167718Y0078252D01*
X0165504Y0078252D02*
X0165504Y0085978D01*
X0167718Y0085978D01*
X0167718Y0078252D01*
X0167718Y0079200D02*
X0165504Y0079200D01*
X0165504Y0080148D02*
X0167718Y0080148D01*
X0167718Y0081096D02*
X0165504Y0081096D01*
X0165504Y0082044D02*
X0167718Y0082044D01*
X0167718Y0082992D02*
X0165504Y0082992D01*
X0165504Y0083940D02*
X0167718Y0083940D01*
X0167718Y0084888D02*
X0165504Y0084888D01*
X0165504Y0085836D02*
X0167718Y0085836D01*
X0169441Y0078252D02*
X0171655Y0078252D01*
X0169441Y0078252D02*
X0169441Y0085978D01*
X0171655Y0085978D01*
X0171655Y0078252D01*
X0171655Y0079200D02*
X0169441Y0079200D01*
X0169441Y0080148D02*
X0171655Y0080148D01*
X0171655Y0081096D02*
X0169441Y0081096D01*
X0169441Y0082044D02*
X0171655Y0082044D01*
X0171655Y0082992D02*
X0169441Y0082992D01*
X0169441Y0083940D02*
X0171655Y0083940D01*
X0171655Y0084888D02*
X0169441Y0084888D01*
X0169441Y0085836D02*
X0171655Y0085836D01*
X0173378Y0078252D02*
X0175592Y0078252D01*
X0173378Y0078252D02*
X0173378Y0085978D01*
X0175592Y0085978D01*
X0175592Y0078252D01*
X0175592Y0079200D02*
X0173378Y0079200D01*
X0173378Y0080148D02*
X0175592Y0080148D01*
X0175592Y0081096D02*
X0173378Y0081096D01*
X0173378Y0082044D02*
X0175592Y0082044D01*
X0175592Y0082992D02*
X0173378Y0082992D01*
X0173378Y0083940D02*
X0175592Y0083940D01*
X0175592Y0084888D02*
X0173378Y0084888D01*
X0173378Y0085836D02*
X0175592Y0085836D01*
X0177315Y0078252D02*
X0179529Y0078252D01*
X0177315Y0078252D02*
X0177315Y0085978D01*
X0179529Y0085978D01*
X0179529Y0078252D01*
X0179529Y0079200D02*
X0177315Y0079200D01*
X0177315Y0080148D02*
X0179529Y0080148D01*
X0179529Y0081096D02*
X0177315Y0081096D01*
X0177315Y0082044D02*
X0179529Y0082044D01*
X0179529Y0082992D02*
X0177315Y0082992D01*
X0177315Y0083940D02*
X0179529Y0083940D01*
X0179529Y0084888D02*
X0177315Y0084888D01*
X0177315Y0085836D02*
X0179529Y0085836D01*
X0112600Y0045033D02*
X0112600Y0042819D01*
X0104874Y0042819D01*
X0104874Y0045033D01*
X0112600Y0045033D01*
X0112600Y0043767D02*
X0104874Y0043767D01*
X0104874Y0044715D02*
X0112600Y0044715D01*
X0112600Y0041096D02*
X0112600Y0038882D01*
X0104874Y0038882D01*
X0104874Y0041096D01*
X0112600Y0041096D01*
X0112600Y0039830D02*
X0104874Y0039830D01*
X0104874Y0040778D02*
X0112600Y0040778D01*
X0112600Y0037159D02*
X0112600Y0034945D01*
X0104874Y0034945D01*
X0104874Y0037159D01*
X0112600Y0037159D01*
X0112600Y0035893D02*
X0104874Y0035893D01*
X0104874Y0036841D02*
X0112600Y0036841D01*
X0112600Y0033222D02*
X0112600Y0031008D01*
X0104874Y0031008D01*
X0104874Y0033222D01*
X0112600Y0033222D01*
X0112600Y0031956D02*
X0104874Y0031956D01*
X0104874Y0032904D02*
X0112600Y0032904D01*
X0111418Y0029285D02*
X0111418Y0027071D01*
X0104874Y0027071D01*
X0104874Y0029285D01*
X0111418Y0029285D01*
X0111418Y0028019D02*
X0104874Y0028019D01*
X0104874Y0028967D02*
X0111418Y0028967D01*
X0114323Y0017622D02*
X0116537Y0017622D01*
X0114323Y0017622D02*
X0114323Y0024166D01*
X0116537Y0024166D01*
X0116537Y0017622D01*
X0116537Y0018570D02*
X0114323Y0018570D01*
X0114323Y0019518D02*
X0116537Y0019518D01*
X0116537Y0020466D02*
X0114323Y0020466D01*
X0114323Y0021414D02*
X0116537Y0021414D01*
X0116537Y0022362D02*
X0114323Y0022362D01*
X0114323Y0023310D02*
X0116537Y0023310D01*
X0118260Y0017622D02*
X0120474Y0017622D01*
X0118260Y0017622D02*
X0118260Y0025348D01*
X0120474Y0025348D01*
X0120474Y0017622D01*
X0120474Y0018570D02*
X0118260Y0018570D01*
X0118260Y0019518D02*
X0120474Y0019518D01*
X0120474Y0020466D02*
X0118260Y0020466D01*
X0118260Y0021414D02*
X0120474Y0021414D01*
X0120474Y0022362D02*
X0118260Y0022362D01*
X0118260Y0023310D02*
X0120474Y0023310D01*
X0120474Y0024258D02*
X0118260Y0024258D01*
X0118260Y0025206D02*
X0120474Y0025206D01*
X0122197Y0017622D02*
X0124411Y0017622D01*
X0122197Y0017622D02*
X0122197Y0025348D01*
X0124411Y0025348D01*
X0124411Y0017622D01*
X0124411Y0018570D02*
X0122197Y0018570D01*
X0122197Y0019518D02*
X0124411Y0019518D01*
X0124411Y0020466D02*
X0122197Y0020466D01*
X0122197Y0021414D02*
X0124411Y0021414D01*
X0124411Y0022362D02*
X0122197Y0022362D01*
X0122197Y0023310D02*
X0124411Y0023310D01*
X0124411Y0024258D02*
X0122197Y0024258D01*
X0122197Y0025206D02*
X0124411Y0025206D01*
X0126134Y0017622D02*
X0128348Y0017622D01*
X0126134Y0017622D02*
X0126134Y0025348D01*
X0128348Y0025348D01*
X0128348Y0017622D01*
X0128348Y0018570D02*
X0126134Y0018570D01*
X0126134Y0019518D02*
X0128348Y0019518D01*
X0128348Y0020466D02*
X0126134Y0020466D01*
X0126134Y0021414D02*
X0128348Y0021414D01*
X0128348Y0022362D02*
X0126134Y0022362D01*
X0126134Y0023310D02*
X0128348Y0023310D01*
X0128348Y0024258D02*
X0126134Y0024258D01*
X0126134Y0025206D02*
X0128348Y0025206D01*
X0130071Y0017622D02*
X0132285Y0017622D01*
X0130071Y0017622D02*
X0130071Y0025348D01*
X0132285Y0025348D01*
X0132285Y0017622D01*
X0132285Y0018570D02*
X0130071Y0018570D01*
X0130071Y0019518D02*
X0132285Y0019518D01*
X0132285Y0020466D02*
X0130071Y0020466D01*
X0130071Y0021414D02*
X0132285Y0021414D01*
X0132285Y0022362D02*
X0130071Y0022362D01*
X0130071Y0023310D02*
X0132285Y0023310D01*
X0132285Y0024258D02*
X0130071Y0024258D01*
X0130071Y0025206D02*
X0132285Y0025206D01*
X0134008Y0017622D02*
X0136222Y0017622D01*
X0134008Y0017622D02*
X0134008Y0025348D01*
X0136222Y0025348D01*
X0136222Y0017622D01*
X0136222Y0018570D02*
X0134008Y0018570D01*
X0134008Y0019518D02*
X0136222Y0019518D01*
X0136222Y0020466D02*
X0134008Y0020466D01*
X0134008Y0021414D02*
X0136222Y0021414D01*
X0136222Y0022362D02*
X0134008Y0022362D01*
X0134008Y0023310D02*
X0136222Y0023310D01*
X0136222Y0024258D02*
X0134008Y0024258D01*
X0134008Y0025206D02*
X0136222Y0025206D01*
X0137945Y0017622D02*
X0140159Y0017622D01*
X0137945Y0017622D02*
X0137945Y0025348D01*
X0140159Y0025348D01*
X0140159Y0017622D01*
X0140159Y0018570D02*
X0137945Y0018570D01*
X0137945Y0019518D02*
X0140159Y0019518D01*
X0140159Y0020466D02*
X0137945Y0020466D01*
X0137945Y0021414D02*
X0140159Y0021414D01*
X0140159Y0022362D02*
X0137945Y0022362D01*
X0137945Y0023310D02*
X0140159Y0023310D01*
X0140159Y0024258D02*
X0137945Y0024258D01*
X0137945Y0025206D02*
X0140159Y0025206D01*
X0141882Y0017622D02*
X0144096Y0017622D01*
X0141882Y0017622D02*
X0141882Y0025348D01*
X0144096Y0025348D01*
X0144096Y0017622D01*
X0144096Y0018570D02*
X0141882Y0018570D01*
X0141882Y0019518D02*
X0144096Y0019518D01*
X0144096Y0020466D02*
X0141882Y0020466D01*
X0141882Y0021414D02*
X0144096Y0021414D01*
X0144096Y0022362D02*
X0141882Y0022362D01*
X0141882Y0023310D02*
X0144096Y0023310D01*
X0144096Y0024258D02*
X0141882Y0024258D01*
X0141882Y0025206D02*
X0144096Y0025206D01*
X0145819Y0017622D02*
X0148033Y0017622D01*
X0145819Y0017622D02*
X0145819Y0025348D01*
X0148033Y0025348D01*
X0148033Y0017622D01*
X0148033Y0018570D02*
X0145819Y0018570D01*
X0145819Y0019518D02*
X0148033Y0019518D01*
X0148033Y0020466D02*
X0145819Y0020466D01*
X0145819Y0021414D02*
X0148033Y0021414D01*
X0148033Y0022362D02*
X0145819Y0022362D01*
X0145819Y0023310D02*
X0148033Y0023310D01*
X0148033Y0024258D02*
X0145819Y0024258D01*
X0145819Y0025206D02*
X0148033Y0025206D01*
X0149756Y0017622D02*
X0151970Y0017622D01*
X0149756Y0017622D02*
X0149756Y0025348D01*
X0151970Y0025348D01*
X0151970Y0017622D01*
X0151970Y0018570D02*
X0149756Y0018570D01*
X0149756Y0019518D02*
X0151970Y0019518D01*
X0151970Y0020466D02*
X0149756Y0020466D01*
X0149756Y0021414D02*
X0151970Y0021414D01*
X0151970Y0022362D02*
X0149756Y0022362D01*
X0149756Y0023310D02*
X0151970Y0023310D01*
X0151970Y0024258D02*
X0149756Y0024258D01*
X0149756Y0025206D02*
X0151970Y0025206D01*
X0153693Y0017622D02*
X0155907Y0017622D01*
X0153693Y0017622D02*
X0153693Y0025348D01*
X0155907Y0025348D01*
X0155907Y0017622D01*
X0155907Y0018570D02*
X0153693Y0018570D01*
X0153693Y0019518D02*
X0155907Y0019518D01*
X0155907Y0020466D02*
X0153693Y0020466D01*
X0153693Y0021414D02*
X0155907Y0021414D01*
X0155907Y0022362D02*
X0153693Y0022362D01*
X0153693Y0023310D02*
X0155907Y0023310D01*
X0155907Y0024258D02*
X0153693Y0024258D01*
X0153693Y0025206D02*
X0155907Y0025206D01*
X0157630Y0017622D02*
X0159844Y0017622D01*
X0157630Y0017622D02*
X0157630Y0025348D01*
X0159844Y0025348D01*
X0159844Y0017622D01*
X0159844Y0018570D02*
X0157630Y0018570D01*
X0157630Y0019518D02*
X0159844Y0019518D01*
X0159844Y0020466D02*
X0157630Y0020466D01*
X0157630Y0021414D02*
X0159844Y0021414D01*
X0159844Y0022362D02*
X0157630Y0022362D01*
X0157630Y0023310D02*
X0159844Y0023310D01*
X0159844Y0024258D02*
X0157630Y0024258D01*
X0157630Y0025206D02*
X0159844Y0025206D01*
X0161567Y0017622D02*
X0163781Y0017622D01*
X0161567Y0017622D02*
X0161567Y0025348D01*
X0163781Y0025348D01*
X0163781Y0017622D01*
X0163781Y0018570D02*
X0161567Y0018570D01*
X0161567Y0019518D02*
X0163781Y0019518D01*
X0163781Y0020466D02*
X0161567Y0020466D01*
X0161567Y0021414D02*
X0163781Y0021414D01*
X0163781Y0022362D02*
X0161567Y0022362D01*
X0161567Y0023310D02*
X0163781Y0023310D01*
X0163781Y0024258D02*
X0161567Y0024258D01*
X0161567Y0025206D02*
X0163781Y0025206D01*
X0165504Y0017622D02*
X0167718Y0017622D01*
X0165504Y0017622D02*
X0165504Y0025348D01*
X0167718Y0025348D01*
X0167718Y0017622D01*
X0167718Y0018570D02*
X0165504Y0018570D01*
X0165504Y0019518D02*
X0167718Y0019518D01*
X0167718Y0020466D02*
X0165504Y0020466D01*
X0165504Y0021414D02*
X0167718Y0021414D01*
X0167718Y0022362D02*
X0165504Y0022362D01*
X0165504Y0023310D02*
X0167718Y0023310D01*
X0167718Y0024258D02*
X0165504Y0024258D01*
X0165504Y0025206D02*
X0167718Y0025206D01*
X0169441Y0017622D02*
X0171655Y0017622D01*
X0169441Y0017622D02*
X0169441Y0025348D01*
X0171655Y0025348D01*
X0171655Y0017622D01*
X0171655Y0018570D02*
X0169441Y0018570D01*
X0169441Y0019518D02*
X0171655Y0019518D01*
X0171655Y0020466D02*
X0169441Y0020466D01*
X0169441Y0021414D02*
X0171655Y0021414D01*
X0171655Y0022362D02*
X0169441Y0022362D01*
X0169441Y0023310D02*
X0171655Y0023310D01*
X0171655Y0024258D02*
X0169441Y0024258D01*
X0169441Y0025206D02*
X0171655Y0025206D01*
X0173378Y0017622D02*
X0175592Y0017622D01*
X0173378Y0017622D02*
X0173378Y0025348D01*
X0175592Y0025348D01*
X0175592Y0017622D01*
X0175592Y0018570D02*
X0173378Y0018570D01*
X0173378Y0019518D02*
X0175592Y0019518D01*
X0175592Y0020466D02*
X0173378Y0020466D01*
X0173378Y0021414D02*
X0175592Y0021414D01*
X0175592Y0022362D02*
X0173378Y0022362D01*
X0173378Y0023310D02*
X0175592Y0023310D01*
X0175592Y0024258D02*
X0173378Y0024258D01*
X0173378Y0025206D02*
X0175592Y0025206D01*
X0177315Y0017622D02*
X0179529Y0017622D01*
X0177315Y0017622D02*
X0177315Y0025348D01*
X0179529Y0025348D01*
X0179529Y0017622D01*
X0179529Y0018570D02*
X0177315Y0018570D01*
X0177315Y0019518D02*
X0179529Y0019518D01*
X0179529Y0020466D02*
X0177315Y0020466D01*
X0177315Y0021414D02*
X0179529Y0021414D01*
X0179529Y0022362D02*
X0177315Y0022362D01*
X0177315Y0023310D02*
X0179529Y0023310D01*
X0179529Y0024258D02*
X0177315Y0024258D01*
X0177315Y0025206D02*
X0179529Y0025206D01*
X0181252Y0017622D02*
X0183466Y0017622D01*
X0181252Y0017622D02*
X0181252Y0025348D01*
X0183466Y0025348D01*
X0183466Y0017622D01*
X0183466Y0018570D02*
X0181252Y0018570D01*
X0181252Y0019518D02*
X0183466Y0019518D01*
X0183466Y0020466D02*
X0181252Y0020466D01*
X0181252Y0021414D02*
X0183466Y0021414D01*
X0183466Y0022362D02*
X0181252Y0022362D01*
X0181252Y0023310D02*
X0183466Y0023310D01*
X0183466Y0024258D02*
X0181252Y0024258D01*
X0181252Y0025206D02*
X0183466Y0025206D01*
X0185189Y0017622D02*
X0187403Y0017622D01*
X0185189Y0017622D02*
X0185189Y0025348D01*
X0187403Y0025348D01*
X0187403Y0017622D01*
X0187403Y0018570D02*
X0185189Y0018570D01*
X0185189Y0019518D02*
X0187403Y0019518D01*
X0187403Y0020466D02*
X0185189Y0020466D01*
X0185189Y0021414D02*
X0187403Y0021414D01*
X0187403Y0022362D02*
X0185189Y0022362D01*
X0185189Y0023310D02*
X0187403Y0023310D01*
X0187403Y0024258D02*
X0185189Y0024258D01*
X0185189Y0025206D02*
X0187403Y0025206D01*
X0189126Y0017622D02*
X0191340Y0017622D01*
X0189126Y0017622D02*
X0189126Y0025348D01*
X0191340Y0025348D01*
X0191340Y0017622D01*
X0191340Y0018570D02*
X0189126Y0018570D01*
X0189126Y0019518D02*
X0191340Y0019518D01*
X0191340Y0020466D02*
X0189126Y0020466D01*
X0189126Y0021414D02*
X0191340Y0021414D01*
X0191340Y0022362D02*
X0189126Y0022362D01*
X0189126Y0023310D02*
X0191340Y0023310D01*
X0191340Y0024258D02*
X0189126Y0024258D01*
X0189126Y0025206D02*
X0191340Y0025206D01*
M02*
