G75*
%MOIN*%
%OFA0B0*%
%FSLAX25Y25*%
%IPPOS*%
%LPD*%
%AMOC8*
5,1,8,0,0,1.08239X$1,22.5*
%
%ADD10R,0.03300X0.05800*%
%ADD11OC8,0.07800*%
%ADD12OC8,0.08200*%
D10*
X0037178Y0025800D03*
X0040422Y0025800D03*
X0040422Y0035800D03*
X0037178Y0035800D03*
X0087178Y0026800D03*
X0090422Y0026800D03*
D11*
X0006800Y0006800D03*
X0016800Y0006800D03*
X0026800Y0006800D03*
X0036800Y0006800D03*
X0046800Y0006800D03*
X0056800Y0006800D03*
X0066800Y0006800D03*
X0076800Y0006800D03*
X0086800Y0006800D03*
X0096800Y0006800D03*
X0106800Y0006800D03*
X0116800Y0006800D03*
X0126800Y0006800D03*
X0136800Y0006800D03*
X0146800Y0006800D03*
X0156800Y0006800D03*
X0166800Y0006800D03*
X0051800Y0026800D03*
X0051800Y0036800D03*
X0051800Y0046800D03*
X0051800Y0056800D03*
X0051800Y0066800D03*
X0051800Y0076800D03*
X0046800Y0096800D03*
X0036800Y0096800D03*
X0026800Y0096800D03*
X0016800Y0096800D03*
X0006800Y0096800D03*
X0006800Y0076800D03*
X0006800Y0066800D03*
X0006800Y0056800D03*
X0006800Y0046800D03*
X0006800Y0036800D03*
X0006800Y0026800D03*
X0056800Y0096800D03*
X0066800Y0096800D03*
X0076800Y0096800D03*
X0086800Y0096800D03*
X0096800Y0096800D03*
X0106800Y0096800D03*
X0116800Y0096800D03*
X0126800Y0096800D03*
X0136800Y0096800D03*
X0146800Y0096800D03*
X0156800Y0096800D03*
X0166800Y0096800D03*
D12*
X0086800Y0066800D03*
X0076800Y0066800D03*
X0076800Y0056800D03*
X0086800Y0056800D03*
X0086800Y0046800D03*
X0076800Y0046800D03*
M02*
