G75*
%MOIN*%
%OFA0B0*%
%FSLAX25Y25*%
%IPPOS*%
%LPD*%
%AMOC8*
5,1,8,0,0,1.08239X$1,22.5*
%
%ADD10C,0.00000*%
%ADD11C,0.00400*%
%ADD12C,0.00300*%
%ADD13C,0.00500*%
%ADD14C,0.00600*%
%ADD15R,0.04000X0.03000*%
%ADD16R,0.04000X0.00200*%
%ADD17R,0.00200X0.02800*%
%ADD18C,0.00250*%
D10*
X0001800Y0001800D02*
X0001800Y0101800D01*
X0201800Y0101800D01*
X0201800Y0001800D01*
X0001800Y0001800D01*
D11*
X0031000Y0022300D02*
X0033322Y0022300D01*
X0033322Y0023461D01*
X0032935Y0023848D01*
X0032161Y0023848D01*
X0031774Y0023461D01*
X0031774Y0022300D01*
X0031000Y0024805D02*
X0031000Y0025579D01*
X0031000Y0025192D02*
X0033322Y0025192D01*
X0033322Y0024805D02*
X0033322Y0025579D01*
X0032935Y0026474D02*
X0031387Y0026474D01*
X0031000Y0026861D01*
X0031000Y0027635D01*
X0031387Y0028022D01*
X0032935Y0028022D01*
X0033322Y0027635D01*
X0033322Y0026861D01*
X0032935Y0026474D01*
X0033322Y0028979D02*
X0032161Y0028979D01*
X0032548Y0029753D01*
X0032548Y0030140D01*
X0032161Y0030527D01*
X0031387Y0030527D01*
X0031000Y0030140D01*
X0031000Y0029366D01*
X0031387Y0028979D01*
X0033322Y0028979D02*
X0033322Y0030527D01*
X0033322Y0033300D02*
X0031000Y0033300D01*
X0031774Y0033300D02*
X0031774Y0034461D01*
X0032161Y0034848D01*
X0032935Y0034848D01*
X0033322Y0034461D01*
X0033322Y0033300D01*
X0033322Y0035805D02*
X0031000Y0035805D01*
X0031774Y0036579D01*
X0031000Y0037353D01*
X0033322Y0037353D01*
X0033322Y0038309D02*
X0033322Y0039470D01*
X0032935Y0039857D01*
X0032161Y0039857D01*
X0031774Y0039470D01*
X0031774Y0038309D01*
X0031000Y0038309D02*
X0033322Y0038309D01*
X0031774Y0039083D02*
X0031000Y0039857D01*
X0015600Y0039453D02*
X0014826Y0038679D01*
X0013278Y0038679D01*
X0013278Y0037723D02*
X0013278Y0036949D01*
X0013278Y0037336D02*
X0015600Y0037336D01*
X0015600Y0037723D02*
X0015600Y0036949D01*
X0015213Y0036053D02*
X0013665Y0036053D01*
X0013278Y0035666D01*
X0013278Y0034892D01*
X0013665Y0034505D01*
X0015213Y0034505D01*
X0015600Y0034892D01*
X0015600Y0035666D01*
X0015213Y0036053D01*
X0015600Y0039453D02*
X0014826Y0040227D01*
X0013278Y0040227D01*
X0013665Y0043688D02*
X0013278Y0044075D01*
X0013278Y0045236D01*
X0015600Y0045236D01*
X0015600Y0044075D01*
X0015213Y0043688D01*
X0013665Y0043688D01*
X0013278Y0046193D02*
X0015600Y0046193D01*
X0013278Y0047741D01*
X0015600Y0047741D01*
X0015213Y0048698D02*
X0014439Y0048698D01*
X0014439Y0049472D01*
X0013665Y0050246D02*
X0015213Y0050246D01*
X0015600Y0049859D01*
X0015600Y0049085D01*
X0015213Y0048698D01*
X0013665Y0048698D02*
X0013278Y0049085D01*
X0013278Y0049859D01*
X0013665Y0050246D01*
X0013665Y0053707D02*
X0013278Y0054094D01*
X0013278Y0055255D01*
X0015600Y0055255D01*
X0015600Y0054094D01*
X0015213Y0053707D01*
X0013665Y0053707D01*
X0013278Y0056211D02*
X0015600Y0057759D01*
X0015600Y0056211D02*
X0013278Y0057759D01*
X0013278Y0058716D02*
X0013278Y0060264D01*
X0013278Y0059490D02*
X0015600Y0059490D01*
X0015213Y0063725D02*
X0013665Y0063725D01*
X0013278Y0064112D01*
X0013278Y0065273D01*
X0015600Y0065273D01*
X0015600Y0064112D01*
X0015213Y0063725D01*
X0015600Y0066229D02*
X0013278Y0067777D01*
X0013665Y0068734D02*
X0014439Y0068734D01*
X0014826Y0069121D01*
X0014826Y0070282D01*
X0015600Y0070282D02*
X0013278Y0070282D01*
X0013278Y0069121D01*
X0013665Y0068734D01*
X0014826Y0069508D02*
X0015600Y0068734D01*
X0015600Y0067777D02*
X0013278Y0066229D01*
X0013665Y0073743D02*
X0013278Y0074130D01*
X0013278Y0074904D01*
X0013665Y0075291D01*
X0014052Y0075291D01*
X0014439Y0074904D01*
X0014439Y0074130D01*
X0014826Y0073743D01*
X0015213Y0073743D01*
X0015600Y0074130D01*
X0015600Y0074904D01*
X0015213Y0075291D01*
X0013278Y0076247D02*
X0013278Y0077795D01*
X0013278Y0077021D02*
X0015600Y0077021D01*
X0015600Y0078752D02*
X0014826Y0079526D01*
X0014826Y0079139D02*
X0014826Y0080300D01*
X0015600Y0080300D02*
X0013278Y0080300D01*
X0013278Y0079139D01*
X0013665Y0078752D01*
X0014439Y0078752D01*
X0014826Y0079139D01*
X0015213Y0031044D02*
X0013665Y0031044D01*
X0013278Y0030657D01*
X0013278Y0029883D01*
X0013665Y0029496D01*
X0013278Y0028540D02*
X0013278Y0026992D01*
X0013278Y0027766D02*
X0015600Y0027766D01*
X0015213Y0026035D02*
X0015600Y0025648D01*
X0015600Y0024874D01*
X0015213Y0024487D01*
X0014826Y0024487D01*
X0014439Y0024874D01*
X0014439Y0025648D01*
X0014052Y0026035D01*
X0013665Y0026035D01*
X0013278Y0025648D01*
X0013278Y0024874D01*
X0013665Y0024487D01*
X0015213Y0029496D02*
X0015600Y0029883D01*
X0015600Y0030657D01*
X0015213Y0031044D01*
X0081280Y0029356D02*
X0081280Y0028582D01*
X0081667Y0028195D01*
X0083215Y0028195D01*
X0083602Y0028582D01*
X0083602Y0029356D01*
X0083215Y0029743D01*
X0082441Y0029743D02*
X0082441Y0028969D01*
X0082441Y0029743D02*
X0081667Y0029743D01*
X0081280Y0029356D01*
X0081280Y0027239D02*
X0083602Y0027239D01*
X0082441Y0027239D02*
X0082441Y0025691D01*
X0081280Y0025691D02*
X0083602Y0025691D01*
X0083215Y0024734D02*
X0083602Y0024347D01*
X0083602Y0023573D01*
X0083215Y0023186D01*
X0081667Y0023186D01*
X0081280Y0023573D01*
X0081280Y0024347D01*
X0081667Y0024734D01*
D12*
X0126838Y0081216D02*
X0127455Y0081216D01*
X0126838Y0081216D02*
X0126221Y0081833D01*
X0126221Y0084919D01*
X0125007Y0083067D02*
X0124389Y0083067D01*
X0124389Y0082450D01*
X0125007Y0082450D01*
X0125007Y0083067D01*
X0126221Y0082450D02*
X0128073Y0082450D01*
X0128690Y0083067D01*
X0128690Y0084919D01*
X0129904Y0084302D02*
X0129904Y0083684D01*
X0132373Y0083684D01*
X0132373Y0083067D02*
X0132373Y0084302D01*
X0131756Y0084919D01*
X0130521Y0084919D01*
X0129904Y0084302D01*
X0131756Y0082450D02*
X0132373Y0083067D01*
X0131756Y0082450D02*
X0130521Y0082450D01*
X0133587Y0082450D02*
X0133587Y0084302D01*
X0134204Y0084919D01*
X0136056Y0084919D01*
X0136056Y0082450D01*
X0137277Y0082450D02*
X0137894Y0083067D01*
X0137894Y0085536D01*
X0138511Y0084919D02*
X0137277Y0084919D01*
X0139726Y0084302D02*
X0139726Y0083684D01*
X0142195Y0083684D01*
X0142195Y0083067D02*
X0142195Y0084302D01*
X0141577Y0084919D01*
X0140343Y0084919D01*
X0139726Y0084302D01*
X0141577Y0082450D02*
X0142195Y0083067D01*
X0141577Y0082450D02*
X0140343Y0082450D01*
X0143416Y0081833D02*
X0143416Y0084919D01*
X0143416Y0086153D02*
X0143416Y0086770D01*
X0143416Y0081833D02*
X0144033Y0081216D01*
X0144650Y0081216D01*
X0156053Y0083067D02*
X0156670Y0082450D01*
X0157904Y0082450D01*
X0158522Y0083067D01*
X0156053Y0085536D01*
X0156053Y0083067D01*
X0158522Y0083067D02*
X0158522Y0085536D01*
X0157904Y0086153D01*
X0156670Y0086153D01*
X0156053Y0085536D01*
X0159746Y0083067D02*
X0159746Y0082450D01*
X0160363Y0082450D01*
X0160363Y0083067D01*
X0159746Y0083067D01*
X0161577Y0083067D02*
X0162195Y0082450D01*
X0163429Y0082450D01*
X0164046Y0083067D01*
X0162812Y0084302D02*
X0162195Y0084302D01*
X0161577Y0083684D01*
X0161577Y0083067D01*
X0162195Y0084302D02*
X0161577Y0084919D01*
X0161577Y0085536D01*
X0162195Y0086153D01*
X0163429Y0086153D01*
X0164046Y0085536D01*
X0165261Y0084919D02*
X0166495Y0082450D01*
X0167729Y0084919D01*
X0172627Y0084919D02*
X0173244Y0084302D01*
X0175096Y0084302D01*
X0176310Y0084919D02*
X0176927Y0084302D01*
X0178779Y0084302D01*
X0176927Y0084302D02*
X0176310Y0083684D01*
X0176310Y0083067D01*
X0176927Y0082450D01*
X0178779Y0082450D01*
X0178779Y0086153D01*
X0176927Y0086153D01*
X0176310Y0085536D01*
X0176310Y0084919D01*
X0173244Y0084302D02*
X0172627Y0083684D01*
X0172627Y0083067D01*
X0173244Y0082450D01*
X0175096Y0082450D01*
X0175096Y0086153D01*
X0173244Y0086153D01*
X0172627Y0085536D01*
X0172627Y0084919D01*
X0183683Y0082450D02*
X0184917Y0082450D01*
X0184300Y0082450D02*
X0184300Y0084919D01*
X0184917Y0084919D01*
X0186132Y0084919D02*
X0186132Y0085536D01*
X0186749Y0086153D01*
X0187983Y0086153D01*
X0188601Y0085536D01*
X0189815Y0085536D02*
X0189815Y0084919D01*
X0190432Y0084302D01*
X0189815Y0083684D01*
X0189815Y0083067D01*
X0190432Y0082450D01*
X0191667Y0082450D01*
X0192284Y0083067D01*
X0191049Y0084302D02*
X0190432Y0084302D01*
X0189815Y0085536D02*
X0190432Y0086153D01*
X0191667Y0086153D01*
X0192284Y0085536D01*
X0193498Y0086153D02*
X0195967Y0086153D01*
X0197181Y0086153D02*
X0197181Y0082450D01*
X0198416Y0083684D01*
X0199650Y0082450D01*
X0199650Y0086153D01*
X0194732Y0086153D02*
X0194732Y0082450D01*
X0188601Y0082450D02*
X0186132Y0084919D01*
X0184300Y0086153D02*
X0184300Y0086770D01*
X0186132Y0082450D02*
X0188601Y0082450D01*
X0123165Y0083067D02*
X0122548Y0082450D01*
X0120696Y0082450D01*
X0119482Y0083067D02*
X0118865Y0082450D01*
X0117630Y0082450D01*
X0117013Y0083067D01*
X0117013Y0084302D01*
X0117630Y0084919D01*
X0118865Y0084919D01*
X0119482Y0084302D01*
X0119482Y0083067D01*
X0120696Y0084919D02*
X0122548Y0084919D01*
X0123165Y0084302D01*
X0123165Y0083067D01*
X0115799Y0082450D02*
X0115799Y0084919D01*
X0115182Y0084919D01*
X0114564Y0084302D01*
X0113947Y0084919D01*
X0113330Y0084302D01*
X0113330Y0082450D01*
X0114564Y0082450D02*
X0114564Y0084302D01*
D13*
X0012300Y0080300D02*
X0012300Y0073800D01*
X0012300Y0030300D02*
X0012300Y0023800D01*
D14*
X0034469Y0022847D02*
X0034469Y0028753D01*
X0034469Y0028752D02*
X0034477Y0028815D01*
X0034488Y0028877D01*
X0034503Y0028939D01*
X0034521Y0028999D01*
X0034543Y0029059D01*
X0034568Y0029117D01*
X0034597Y0029173D01*
X0034629Y0029228D01*
X0034664Y0029280D01*
X0034702Y0029331D01*
X0034742Y0029379D01*
X0034786Y0029425D01*
X0034832Y0029468D01*
X0034881Y0029509D01*
X0034932Y0029547D01*
X0034984Y0029581D01*
X0035039Y0029613D01*
X0035096Y0029641D01*
X0035154Y0029666D01*
X0035214Y0029687D01*
X0035274Y0029705D01*
X0035336Y0029719D01*
X0035398Y0029730D01*
X0035461Y0029737D01*
X0035524Y0029741D01*
X0035587Y0029740D01*
X0035650Y0029737D01*
X0041950Y0029737D01*
X0042013Y0029740D01*
X0042076Y0029741D01*
X0042139Y0029737D01*
X0042202Y0029730D01*
X0042264Y0029719D01*
X0042326Y0029705D01*
X0042386Y0029687D01*
X0042446Y0029666D01*
X0042504Y0029641D01*
X0042561Y0029613D01*
X0042616Y0029581D01*
X0042668Y0029547D01*
X0042719Y0029509D01*
X0042768Y0029468D01*
X0042814Y0029425D01*
X0042858Y0029379D01*
X0042898Y0029331D01*
X0042936Y0029280D01*
X0042971Y0029228D01*
X0043003Y0029173D01*
X0043032Y0029117D01*
X0043057Y0029059D01*
X0043079Y0028999D01*
X0043097Y0028939D01*
X0043112Y0028877D01*
X0043123Y0028815D01*
X0043131Y0028752D01*
X0043131Y0028753D02*
X0043131Y0022847D01*
X0043123Y0022784D01*
X0043112Y0022722D01*
X0043097Y0022660D01*
X0043079Y0022600D01*
X0043057Y0022540D01*
X0043032Y0022482D01*
X0043003Y0022426D01*
X0042972Y0022371D01*
X0042937Y0022318D01*
X0042899Y0022268D01*
X0042858Y0022219D01*
X0042814Y0022174D01*
X0042768Y0022130D01*
X0042720Y0022090D01*
X0042669Y0022052D01*
X0042616Y0022018D01*
X0042561Y0021986D01*
X0042504Y0021958D01*
X0042446Y0021933D01*
X0042387Y0021912D01*
X0042326Y0021894D01*
X0042264Y0021880D01*
X0042202Y0021869D01*
X0042139Y0021862D01*
X0042076Y0021858D01*
X0042013Y0021859D01*
X0041950Y0021863D01*
X0035650Y0021863D01*
X0035587Y0021860D01*
X0035524Y0021859D01*
X0035461Y0021863D01*
X0035398Y0021870D01*
X0035336Y0021881D01*
X0035274Y0021895D01*
X0035214Y0021913D01*
X0035154Y0021934D01*
X0035096Y0021959D01*
X0035039Y0021987D01*
X0034984Y0022019D01*
X0034932Y0022053D01*
X0034881Y0022091D01*
X0034832Y0022132D01*
X0034786Y0022175D01*
X0034742Y0022221D01*
X0034702Y0022269D01*
X0034664Y0022320D01*
X0034629Y0022372D01*
X0034597Y0022427D01*
X0034568Y0022483D01*
X0034543Y0022541D01*
X0034521Y0022601D01*
X0034503Y0022661D01*
X0034488Y0022723D01*
X0034477Y0022785D01*
X0034469Y0022848D01*
X0035650Y0031863D02*
X0041950Y0031863D01*
X0042013Y0031859D01*
X0042076Y0031858D01*
X0042139Y0031862D01*
X0042202Y0031869D01*
X0042264Y0031880D01*
X0042326Y0031894D01*
X0042387Y0031912D01*
X0042446Y0031933D01*
X0042504Y0031958D01*
X0042561Y0031986D01*
X0042616Y0032018D01*
X0042669Y0032052D01*
X0042720Y0032090D01*
X0042768Y0032130D01*
X0042814Y0032174D01*
X0042858Y0032219D01*
X0042899Y0032268D01*
X0042937Y0032318D01*
X0042972Y0032371D01*
X0043003Y0032426D01*
X0043032Y0032482D01*
X0043057Y0032540D01*
X0043079Y0032600D01*
X0043097Y0032660D01*
X0043112Y0032722D01*
X0043123Y0032784D01*
X0043131Y0032847D01*
X0043131Y0038753D01*
X0043131Y0038752D02*
X0043123Y0038815D01*
X0043112Y0038877D01*
X0043097Y0038939D01*
X0043079Y0038999D01*
X0043057Y0039059D01*
X0043032Y0039117D01*
X0043003Y0039173D01*
X0042971Y0039228D01*
X0042936Y0039280D01*
X0042898Y0039331D01*
X0042858Y0039379D01*
X0042814Y0039425D01*
X0042768Y0039468D01*
X0042719Y0039509D01*
X0042668Y0039547D01*
X0042616Y0039581D01*
X0042561Y0039613D01*
X0042504Y0039641D01*
X0042446Y0039666D01*
X0042386Y0039687D01*
X0042326Y0039705D01*
X0042264Y0039719D01*
X0042202Y0039730D01*
X0042139Y0039737D01*
X0042076Y0039741D01*
X0042013Y0039740D01*
X0041950Y0039737D01*
X0035650Y0039737D01*
X0035587Y0039740D01*
X0035524Y0039741D01*
X0035461Y0039737D01*
X0035398Y0039730D01*
X0035336Y0039719D01*
X0035274Y0039705D01*
X0035214Y0039687D01*
X0035154Y0039666D01*
X0035096Y0039641D01*
X0035039Y0039613D01*
X0034984Y0039581D01*
X0034932Y0039547D01*
X0034881Y0039509D01*
X0034832Y0039468D01*
X0034786Y0039425D01*
X0034742Y0039379D01*
X0034702Y0039331D01*
X0034664Y0039280D01*
X0034629Y0039228D01*
X0034597Y0039173D01*
X0034568Y0039117D01*
X0034543Y0039059D01*
X0034521Y0038999D01*
X0034503Y0038939D01*
X0034488Y0038877D01*
X0034477Y0038815D01*
X0034469Y0038752D01*
X0034469Y0038753D02*
X0034469Y0032847D01*
X0034469Y0032848D02*
X0034477Y0032785D01*
X0034488Y0032723D01*
X0034503Y0032661D01*
X0034521Y0032601D01*
X0034543Y0032541D01*
X0034568Y0032483D01*
X0034597Y0032427D01*
X0034629Y0032372D01*
X0034664Y0032320D01*
X0034702Y0032269D01*
X0034742Y0032221D01*
X0034786Y0032175D01*
X0034832Y0032132D01*
X0034881Y0032091D01*
X0034932Y0032053D01*
X0034984Y0032019D01*
X0035039Y0031987D01*
X0035096Y0031959D01*
X0035154Y0031934D01*
X0035214Y0031913D01*
X0035274Y0031895D01*
X0035336Y0031881D01*
X0035398Y0031870D01*
X0035461Y0031863D01*
X0035524Y0031859D01*
X0035587Y0031860D01*
X0035650Y0031863D01*
X0084469Y0029753D02*
X0084469Y0023847D01*
X0084469Y0023848D02*
X0084477Y0023785D01*
X0084488Y0023723D01*
X0084503Y0023661D01*
X0084521Y0023601D01*
X0084543Y0023541D01*
X0084568Y0023483D01*
X0084597Y0023427D01*
X0084629Y0023372D01*
X0084664Y0023320D01*
X0084702Y0023269D01*
X0084742Y0023221D01*
X0084786Y0023175D01*
X0084832Y0023132D01*
X0084881Y0023091D01*
X0084932Y0023053D01*
X0084984Y0023019D01*
X0085039Y0022987D01*
X0085096Y0022959D01*
X0085154Y0022934D01*
X0085214Y0022913D01*
X0085274Y0022895D01*
X0085336Y0022881D01*
X0085398Y0022870D01*
X0085461Y0022863D01*
X0085524Y0022859D01*
X0085587Y0022860D01*
X0085650Y0022863D01*
X0091950Y0022863D01*
X0092013Y0022860D01*
X0092076Y0022859D01*
X0092139Y0022863D01*
X0092202Y0022870D01*
X0092264Y0022881D01*
X0092326Y0022895D01*
X0092386Y0022913D01*
X0092446Y0022934D01*
X0092504Y0022959D01*
X0092561Y0022987D01*
X0092616Y0023019D01*
X0092668Y0023053D01*
X0092719Y0023091D01*
X0092768Y0023132D01*
X0092814Y0023175D01*
X0092858Y0023221D01*
X0092898Y0023269D01*
X0092936Y0023320D01*
X0092971Y0023372D01*
X0093003Y0023427D01*
X0093032Y0023483D01*
X0093057Y0023541D01*
X0093079Y0023601D01*
X0093097Y0023661D01*
X0093112Y0023723D01*
X0093123Y0023785D01*
X0093131Y0023848D01*
X0093131Y0023847D02*
X0093131Y0029753D01*
X0093131Y0029752D02*
X0093123Y0029815D01*
X0093112Y0029877D01*
X0093097Y0029939D01*
X0093079Y0029999D01*
X0093057Y0030059D01*
X0093032Y0030117D01*
X0093003Y0030173D01*
X0092971Y0030228D01*
X0092936Y0030280D01*
X0092898Y0030331D01*
X0092858Y0030379D01*
X0092814Y0030425D01*
X0092768Y0030468D01*
X0092719Y0030509D01*
X0092668Y0030547D01*
X0092616Y0030581D01*
X0092561Y0030613D01*
X0092504Y0030641D01*
X0092446Y0030666D01*
X0092386Y0030687D01*
X0092326Y0030705D01*
X0092264Y0030719D01*
X0092202Y0030730D01*
X0092139Y0030737D01*
X0092076Y0030741D01*
X0092013Y0030740D01*
X0091950Y0030737D01*
X0085650Y0030737D01*
X0085650Y0030736D02*
X0085587Y0030740D01*
X0085524Y0030741D01*
X0085461Y0030737D01*
X0085398Y0030730D01*
X0085336Y0030719D01*
X0085274Y0030705D01*
X0085213Y0030687D01*
X0085154Y0030666D01*
X0085096Y0030641D01*
X0085039Y0030613D01*
X0084984Y0030581D01*
X0084931Y0030547D01*
X0084880Y0030509D01*
X0084832Y0030469D01*
X0084786Y0030425D01*
X0084742Y0030380D01*
X0084701Y0030331D01*
X0084663Y0030281D01*
X0084628Y0030228D01*
X0084597Y0030173D01*
X0084568Y0030117D01*
X0084543Y0030059D01*
X0084521Y0029999D01*
X0084503Y0029939D01*
X0084488Y0029877D01*
X0084477Y0029815D01*
X0084469Y0029752D01*
X0181800Y0088400D02*
X0182500Y0087800D01*
X0183300Y0088400D01*
X0183700Y0088200D01*
X0184300Y0089800D01*
X0183800Y0089700D02*
X0183200Y0090700D01*
X0183600Y0091800D01*
X0184700Y0092400D01*
X0186000Y0092000D01*
X0186400Y0090700D01*
X0186000Y0089600D01*
X0186300Y0088600D01*
X0187200Y0088100D01*
X0187700Y0088400D01*
X0187100Y0089400D01*
X0187600Y0090500D01*
X0188600Y0090700D01*
X0188600Y0091000D01*
X0187600Y0091400D01*
X0187200Y0092500D01*
X0187700Y0093400D01*
X0187300Y0093700D01*
X0186500Y0093100D01*
X0185400Y0093700D01*
X0185100Y0094600D01*
X0184600Y0094600D01*
X0184300Y0093500D01*
X0183400Y0093100D01*
X0182600Y0093700D01*
X0182100Y0093300D01*
X0182600Y0092500D01*
X0182100Y0091300D01*
X0181300Y0091100D01*
X0181200Y0090600D01*
X0182100Y0090400D01*
X0182600Y0089300D01*
X0182200Y0088500D01*
X0182600Y0088200D01*
X0183500Y0088700D01*
X0183800Y0089700D01*
X0183751Y0089781D02*
X0182381Y0089781D01*
X0182400Y0089300D02*
X0181800Y0088400D01*
X0182242Y0088584D02*
X0183291Y0088584D01*
X0183645Y0089183D02*
X0182541Y0089183D01*
X0182400Y0089300D02*
X0182000Y0090200D01*
X0181000Y0090400D01*
X0181000Y0091300D01*
X0182000Y0091500D01*
X0182400Y0092400D01*
X0181800Y0093300D01*
X0182500Y0094000D01*
X0183400Y0093300D01*
X0184200Y0093700D01*
X0184400Y0094800D01*
X0185300Y0094800D01*
X0185600Y0093700D01*
X0186400Y0093300D01*
X0187300Y0094000D01*
X0188000Y0093300D01*
X0187400Y0092400D01*
X0187700Y0091500D01*
X0188800Y0091300D01*
X0188800Y0090400D01*
X0187800Y0090200D01*
X0187400Y0089300D01*
X0188000Y0088400D01*
X0187300Y0087800D01*
X0186500Y0088400D01*
X0186100Y0088200D01*
X0185500Y0089800D01*
X0186066Y0089781D02*
X0187273Y0089781D01*
X0187230Y0089183D02*
X0186125Y0089183D01*
X0186329Y0088584D02*
X0187590Y0088584D01*
X0187545Y0090380D02*
X0186284Y0090380D01*
X0186314Y0090978D02*
X0188600Y0090978D01*
X0187536Y0091577D02*
X0186130Y0091577D01*
X0185431Y0092175D02*
X0187318Y0092175D01*
X0187352Y0092774D02*
X0182429Y0092774D01*
X0182465Y0092175D02*
X0184288Y0092175D01*
X0183519Y0091577D02*
X0182215Y0091577D01*
X0181276Y0090978D02*
X0183301Y0090978D01*
X0183392Y0090380D02*
X0182109Y0090380D01*
X0184300Y0089800D02*
X0184241Y0089836D01*
X0184185Y0089875D01*
X0184130Y0089918D01*
X0184078Y0089963D01*
X0184029Y0090011D01*
X0183983Y0090062D01*
X0183939Y0090116D01*
X0183899Y0090172D01*
X0183862Y0090230D01*
X0183828Y0090290D01*
X0183798Y0090352D01*
X0183772Y0090416D01*
X0183749Y0090481D01*
X0183730Y0090547D01*
X0183714Y0090614D01*
X0183703Y0090682D01*
X0183695Y0090750D01*
X0183691Y0090819D01*
X0183692Y0090888D01*
X0183696Y0090957D01*
X0183704Y0091025D01*
X0183716Y0091093D01*
X0183732Y0091160D01*
X0183751Y0091226D01*
X0183774Y0091291D01*
X0183801Y0091355D01*
X0183832Y0091416D01*
X0183866Y0091476D01*
X0183903Y0091534D01*
X0183944Y0091590D01*
X0183988Y0091643D01*
X0184034Y0091694D01*
X0184084Y0091742D01*
X0184136Y0091787D01*
X0184191Y0091829D01*
X0184247Y0091868D01*
X0184307Y0091903D01*
X0184368Y0091935D01*
X0184430Y0091964D01*
X0184494Y0091989D01*
X0184560Y0092010D01*
X0184627Y0092028D01*
X0184694Y0092041D01*
X0184762Y0092051D01*
X0184831Y0092057D01*
X0184900Y0092059D01*
X0184969Y0092057D01*
X0185038Y0092051D01*
X0185106Y0092041D01*
X0185173Y0092028D01*
X0185240Y0092010D01*
X0185306Y0091989D01*
X0185370Y0091964D01*
X0185432Y0091935D01*
X0185493Y0091903D01*
X0185553Y0091868D01*
X0185609Y0091829D01*
X0185664Y0091787D01*
X0185716Y0091742D01*
X0185766Y0091694D01*
X0185812Y0091643D01*
X0185856Y0091590D01*
X0185897Y0091534D01*
X0185934Y0091476D01*
X0185968Y0091416D01*
X0185999Y0091355D01*
X0186026Y0091291D01*
X0186049Y0091226D01*
X0186068Y0091160D01*
X0186084Y0091093D01*
X0186096Y0091025D01*
X0186104Y0090957D01*
X0186108Y0090888D01*
X0186109Y0090819D01*
X0186105Y0090750D01*
X0186097Y0090682D01*
X0186086Y0090614D01*
X0186070Y0090547D01*
X0186051Y0090481D01*
X0186028Y0090416D01*
X0186002Y0090352D01*
X0185972Y0090290D01*
X0185938Y0090230D01*
X0185901Y0090172D01*
X0185861Y0090116D01*
X0185817Y0090062D01*
X0185771Y0090011D01*
X0185722Y0089963D01*
X0185670Y0089918D01*
X0185615Y0089875D01*
X0185559Y0089836D01*
X0185500Y0089800D01*
X0186001Y0093372D02*
X0184013Y0093372D01*
X0184428Y0093971D02*
X0185310Y0093971D01*
X0185110Y0094569D02*
X0184592Y0094569D01*
X0183037Y0093372D02*
X0182190Y0093372D01*
X0186863Y0093372D02*
X0187685Y0093372D01*
D15*
X0192800Y0093300D03*
X0192800Y0089300D03*
X0197800Y0089300D03*
D16*
X0192800Y0095900D03*
D17*
X0190900Y0097400D03*
D18*
X0191300Y0096300D02*
X0191300Y0099300D01*
X0191800Y0099300D01*
X0191300Y0096300D01*
X0192300Y0096300D01*
X0191800Y0099300D01*
X0192800Y0099300D01*
X0192300Y0096300D01*
X0193300Y0096300D01*
X0192800Y0099300D01*
X0193800Y0099300D01*
X0193300Y0096300D01*
X0194300Y0096300D01*
X0193800Y0099300D01*
X0194800Y0099300D01*
X0194300Y0096300D01*
X0195300Y0096300D01*
X0194800Y0099300D01*
X0195300Y0099300D01*
X0195300Y0096300D01*
M02*
