G75*
%MOIN*%
%OFA0B0*%
%FSLAX25Y25*%
%IPPOS*%
%LPD*%
%AMOC8*
5,1,8,0,0,1.08239X$1,22.5*
%
%ADD10C,0.00000*%
%ADD11C,0.01000*%
%ADD12C,0.00400*%
%ADD13C,0.00500*%
%ADD14C,0.00040*%
%ADD15R,0.01969X0.01280*%
%ADD16R,0.00984X0.00591*%
%ADD17R,0.00689X0.01575*%
%ADD18R,0.00787X0.00787*%
%ADD19R,0.01181X0.01181*%
%ADD20R,0.00295X0.00886*%
%ADD21R,0.01969X0.03740*%
%ADD22R,0.01800X0.03000*%
%ADD23C,0.00200*%
%ADD24C,0.02200*%
%ADD25R,0.03740X0.01969*%
%ADD26C,0.00800*%
%ADD27C,0.00600*%
%ADD28R,0.02000X0.02000*%
%ADD29C,0.00300*%
%ADD30R,0.07874X0.15748*%
D10*
X0001800Y0001800D02*
X0001800Y0101800D01*
X0201800Y0101800D01*
X0201800Y0001800D01*
X0001800Y0001800D01*
D11*
X0001800Y0011800D01*
X0011800Y0011800D01*
X0011800Y0001800D01*
X0001800Y0001800D01*
X0071800Y0001800D02*
X0071800Y0011800D01*
X0161800Y0011800D02*
X0161800Y0001800D01*
X0171800Y0001800D01*
X0171800Y0011800D01*
X0161800Y0011800D01*
X0056800Y0061800D02*
X0046800Y0061800D01*
X0041800Y0091800D02*
X0041800Y0101800D01*
D12*
X0043373Y0090322D02*
X0044534Y0090322D01*
X0044921Y0089935D01*
X0044921Y0089161D01*
X0044534Y0088774D01*
X0043373Y0088774D01*
X0043373Y0088000D02*
X0043373Y0090322D01*
X0045877Y0089548D02*
X0046651Y0090322D01*
X0046651Y0088000D01*
X0045877Y0088000D02*
X0047425Y0088000D01*
X0048382Y0088387D02*
X0049930Y0089935D01*
X0049930Y0088387D01*
X0049543Y0088000D01*
X0048769Y0088000D01*
X0048382Y0088387D01*
X0048382Y0089935D01*
X0048769Y0090322D01*
X0049543Y0090322D01*
X0049930Y0089935D01*
X0055300Y0090322D02*
X0055300Y0088000D01*
X0055300Y0088774D02*
X0056461Y0088774D01*
X0056848Y0089161D01*
X0056848Y0089935D01*
X0056461Y0090322D01*
X0055300Y0090322D01*
X0057805Y0089935D02*
X0057805Y0089548D01*
X0058192Y0089161D01*
X0059353Y0089161D01*
X0059353Y0089935D02*
X0058966Y0090322D01*
X0058192Y0090322D01*
X0057805Y0089935D01*
X0059353Y0089935D02*
X0059353Y0088387D01*
X0058966Y0088000D01*
X0058192Y0088000D01*
X0057805Y0088387D01*
X0065318Y0088000D02*
X0065318Y0090322D01*
X0066479Y0090322D01*
X0066866Y0089935D01*
X0066866Y0089161D01*
X0066479Y0088774D01*
X0065318Y0088774D01*
X0067823Y0088774D02*
X0068210Y0089161D01*
X0068984Y0089161D01*
X0069371Y0088774D01*
X0069371Y0088387D01*
X0068984Y0088000D01*
X0068210Y0088000D01*
X0067823Y0088387D01*
X0067823Y0088774D01*
X0068210Y0089161D02*
X0067823Y0089548D01*
X0067823Y0089935D01*
X0068210Y0090322D01*
X0068984Y0090322D01*
X0069371Y0089935D01*
X0069371Y0089548D01*
X0068984Y0089161D01*
X0075336Y0088774D02*
X0076497Y0088774D01*
X0076884Y0089161D01*
X0076884Y0089935D01*
X0076497Y0090322D01*
X0075336Y0090322D01*
X0075336Y0088000D01*
X0077841Y0088000D02*
X0077841Y0088387D01*
X0079389Y0089935D01*
X0079389Y0090322D01*
X0077841Y0090322D01*
X0085354Y0090322D02*
X0085354Y0088000D01*
X0085354Y0088774D02*
X0086515Y0088774D01*
X0086902Y0089161D01*
X0086902Y0089935D01*
X0086515Y0090322D01*
X0085354Y0090322D01*
X0087859Y0089161D02*
X0089020Y0089161D01*
X0089407Y0088774D01*
X0089407Y0088387D01*
X0089020Y0088000D01*
X0088246Y0088000D01*
X0087859Y0088387D01*
X0087859Y0089161D01*
X0088633Y0089935D01*
X0089407Y0090322D01*
X0095373Y0090322D02*
X0095373Y0088000D01*
X0095373Y0088774D02*
X0096534Y0088774D01*
X0096921Y0089161D01*
X0096921Y0089935D01*
X0096534Y0090322D01*
X0095373Y0090322D01*
X0097877Y0090322D02*
X0097877Y0089161D01*
X0098651Y0089548D01*
X0099038Y0089548D01*
X0099425Y0089161D01*
X0099425Y0088387D01*
X0099038Y0088000D01*
X0098264Y0088000D01*
X0097877Y0088387D01*
X0097877Y0090322D02*
X0099425Y0090322D01*
X0105391Y0090322D02*
X0105391Y0088000D01*
X0105391Y0088774D02*
X0106552Y0088774D01*
X0106939Y0089161D01*
X0106939Y0089935D01*
X0106552Y0090322D01*
X0105391Y0090322D01*
X0107895Y0089161D02*
X0109443Y0089161D01*
X0109056Y0090322D02*
X0107895Y0089161D01*
X0109056Y0088000D02*
X0109056Y0090322D01*
X0115409Y0090322D02*
X0115409Y0088000D01*
X0115409Y0088774D02*
X0116570Y0088774D01*
X0116957Y0089161D01*
X0116957Y0089935D01*
X0116570Y0090322D01*
X0115409Y0090322D01*
X0117913Y0089935D02*
X0118300Y0090322D01*
X0119074Y0090322D01*
X0119461Y0089935D01*
X0119461Y0089548D01*
X0119074Y0089161D01*
X0119461Y0088774D01*
X0119461Y0088387D01*
X0119074Y0088000D01*
X0118300Y0088000D01*
X0117913Y0088387D01*
X0118687Y0089161D02*
X0119074Y0089161D01*
X0125427Y0088774D02*
X0126588Y0088774D01*
X0126975Y0089161D01*
X0126975Y0089935D01*
X0126588Y0090322D01*
X0125427Y0090322D01*
X0125427Y0088000D01*
X0127932Y0088000D02*
X0129480Y0089548D01*
X0129480Y0089935D01*
X0129093Y0090322D01*
X0128319Y0090322D01*
X0127932Y0089935D01*
X0127932Y0088000D02*
X0129480Y0088000D01*
X0135445Y0088000D02*
X0135445Y0090322D01*
X0136606Y0090322D01*
X0136993Y0089935D01*
X0136993Y0089161D01*
X0136606Y0088774D01*
X0135445Y0088774D01*
X0137950Y0089548D02*
X0138724Y0090322D01*
X0138724Y0088000D01*
X0137950Y0088000D02*
X0139498Y0088000D01*
X0145463Y0088000D02*
X0145463Y0090322D01*
X0146624Y0090322D01*
X0147011Y0089935D01*
X0147011Y0089161D01*
X0146624Y0088774D01*
X0145463Y0088774D01*
X0147968Y0088387D02*
X0148355Y0088000D01*
X0149129Y0088000D01*
X0149516Y0088387D01*
X0149516Y0089935D01*
X0147968Y0088387D01*
X0147968Y0089935D01*
X0148355Y0090322D01*
X0149129Y0090322D01*
X0149516Y0089935D01*
X0155482Y0089548D02*
X0155482Y0088000D01*
X0157030Y0088000D02*
X0157030Y0089548D01*
X0156256Y0090322D01*
X0155482Y0089548D01*
X0155482Y0089161D02*
X0157030Y0089161D01*
X0157986Y0089548D02*
X0158760Y0090322D01*
X0158760Y0088000D01*
X0157986Y0088000D02*
X0159534Y0088000D01*
X0165500Y0088000D02*
X0165500Y0089548D01*
X0166274Y0090322D01*
X0167048Y0089548D01*
X0167048Y0088000D01*
X0168004Y0088387D02*
X0169552Y0089935D01*
X0169552Y0088387D01*
X0169165Y0088000D01*
X0168391Y0088000D01*
X0168004Y0088387D01*
X0168004Y0089935D01*
X0168391Y0090322D01*
X0169165Y0090322D01*
X0169552Y0089935D01*
X0167048Y0089161D02*
X0165500Y0089161D01*
X0095320Y0069356D02*
X0095320Y0068195D01*
X0092998Y0068195D01*
X0092998Y0069356D01*
X0093385Y0069743D01*
X0093772Y0069743D01*
X0094159Y0069356D01*
X0094159Y0068195D01*
X0094546Y0067239D02*
X0094933Y0067239D01*
X0095320Y0066852D01*
X0095320Y0066078D01*
X0094933Y0065691D01*
X0094159Y0066078D02*
X0094159Y0066852D01*
X0094546Y0067239D01*
X0093385Y0067239D02*
X0092998Y0066852D01*
X0092998Y0066078D01*
X0093385Y0065691D01*
X0093772Y0065691D01*
X0094159Y0066078D01*
X0093385Y0064734D02*
X0092998Y0064347D01*
X0092998Y0063573D01*
X0093385Y0063186D01*
X0094933Y0063186D01*
X0095320Y0063573D01*
X0095320Y0064347D01*
X0094933Y0064734D01*
X0095320Y0069356D02*
X0094933Y0069743D01*
X0094546Y0069743D01*
X0094159Y0069356D01*
X0092998Y0059743D02*
X0094546Y0058195D01*
X0094159Y0058582D02*
X0095320Y0059743D01*
X0095320Y0058195D02*
X0092998Y0058195D01*
X0093385Y0057239D02*
X0092998Y0056852D01*
X0092998Y0056078D01*
X0093385Y0055691D01*
X0094933Y0055691D01*
X0095320Y0056078D01*
X0095320Y0056852D01*
X0094933Y0057239D01*
X0094933Y0054734D02*
X0094546Y0054734D01*
X0094159Y0054347D01*
X0094159Y0053573D01*
X0093772Y0053186D01*
X0093385Y0053186D01*
X0092998Y0053573D01*
X0092998Y0054347D01*
X0093385Y0054734D01*
X0094933Y0054734D02*
X0095320Y0054347D01*
X0095320Y0053573D01*
X0094933Y0053186D01*
X0094933Y0050443D02*
X0093385Y0050443D01*
X0092998Y0050056D01*
X0092998Y0049282D01*
X0093385Y0048895D01*
X0094933Y0048895D01*
X0095320Y0049282D01*
X0095320Y0050056D01*
X0094933Y0050443D01*
X0094933Y0047939D02*
X0094546Y0047939D01*
X0094159Y0047552D01*
X0094159Y0046778D01*
X0093772Y0046391D01*
X0093385Y0046391D01*
X0092998Y0046778D01*
X0092998Y0047552D01*
X0093385Y0047939D01*
X0094933Y0047939D02*
X0095320Y0047552D01*
X0095320Y0046778D01*
X0094933Y0046391D01*
X0095320Y0045495D02*
X0095320Y0044721D01*
X0095320Y0045108D02*
X0092998Y0045108D01*
X0092998Y0044721D02*
X0092998Y0045495D01*
X0092998Y0043765D02*
X0095320Y0043765D01*
X0093772Y0042991D02*
X0092998Y0043765D01*
X0093772Y0042991D02*
X0092998Y0042217D01*
X0095320Y0042217D01*
X0084194Y0040102D02*
X0083527Y0040102D01*
X0083860Y0040102D02*
X0083860Y0038100D01*
X0083527Y0038100D02*
X0084194Y0038100D01*
X0082651Y0039101D02*
X0082318Y0038767D01*
X0081317Y0038767D01*
X0081317Y0038100D02*
X0081317Y0040102D01*
X0082318Y0040102D01*
X0082651Y0039768D01*
X0082651Y0039101D01*
X0080441Y0038767D02*
X0080441Y0038434D01*
X0080108Y0038100D01*
X0079441Y0038100D01*
X0079107Y0038434D01*
X0079441Y0039101D02*
X0080108Y0039101D01*
X0080441Y0038767D01*
X0080441Y0039768D02*
X0080108Y0040102D01*
X0079441Y0040102D01*
X0079107Y0039768D01*
X0079107Y0039434D01*
X0079441Y0039101D01*
X0070600Y0045074D02*
X0069826Y0044300D01*
X0068278Y0044300D01*
X0069826Y0045848D02*
X0070600Y0045074D01*
X0069826Y0045848D02*
X0068278Y0045848D01*
X0068278Y0046805D02*
X0068278Y0047579D01*
X0068278Y0047192D02*
X0070600Y0047192D01*
X0070600Y0046805D02*
X0070600Y0047579D01*
X0070213Y0048474D02*
X0068665Y0048474D01*
X0068278Y0048861D01*
X0068278Y0049635D01*
X0068665Y0050022D01*
X0070213Y0050022D01*
X0070600Y0049635D01*
X0070600Y0048861D01*
X0070213Y0048474D01*
X0070320Y0052217D02*
X0067998Y0052217D01*
X0068772Y0052991D01*
X0067998Y0053765D01*
X0070320Y0053765D01*
X0069933Y0054721D02*
X0068385Y0054721D01*
X0067998Y0055108D01*
X0067998Y0055882D01*
X0068385Y0056269D01*
X0069933Y0056269D01*
X0070320Y0055882D01*
X0070320Y0055108D01*
X0069933Y0054721D01*
X0069933Y0057226D02*
X0070320Y0057613D01*
X0070320Y0058387D01*
X0069933Y0058774D01*
X0069546Y0058774D01*
X0069159Y0058387D01*
X0069159Y0057613D01*
X0068772Y0057226D01*
X0068385Y0057226D01*
X0067998Y0057613D01*
X0067998Y0058387D01*
X0068385Y0058774D01*
X0067998Y0059730D02*
X0067998Y0060504D01*
X0067998Y0060117D02*
X0070320Y0060117D01*
X0070320Y0059730D02*
X0070320Y0060504D01*
X0070213Y0063501D02*
X0068665Y0063501D01*
X0068278Y0063888D01*
X0068278Y0064662D01*
X0068665Y0065049D01*
X0069439Y0065049D02*
X0069439Y0064275D01*
X0069439Y0065049D02*
X0070213Y0065049D01*
X0070600Y0064662D01*
X0070600Y0063888D01*
X0070213Y0063501D01*
X0070600Y0066006D02*
X0068278Y0066006D01*
X0070600Y0067554D01*
X0068278Y0067554D01*
X0068278Y0068511D02*
X0068278Y0069672D01*
X0068665Y0070059D01*
X0070213Y0070059D01*
X0070600Y0069672D01*
X0070600Y0068511D01*
X0068278Y0068511D01*
X0060600Y0066461D02*
X0060600Y0065300D01*
X0058278Y0065300D01*
X0058278Y0066461D01*
X0058665Y0066848D01*
X0060213Y0066848D01*
X0060600Y0066461D01*
X0059439Y0067805D02*
X0059439Y0069353D01*
X0058278Y0075318D02*
X0058278Y0076479D01*
X0058665Y0076866D01*
X0060213Y0076866D01*
X0060600Y0076479D01*
X0060600Y0075318D01*
X0058278Y0075318D01*
X0059439Y0077823D02*
X0059439Y0079371D01*
X0058665Y0078597D02*
X0060213Y0078597D01*
X0042450Y0076202D02*
X0042450Y0073398D01*
X0039099Y0073398D02*
X0039099Y0076202D01*
X0033969Y0072827D02*
X0031967Y0072827D01*
X0031967Y0072160D02*
X0031967Y0073495D01*
X0031967Y0071285D02*
X0031967Y0069950D01*
X0033969Y0069950D01*
X0033969Y0071285D01*
X0032968Y0070618D02*
X0032968Y0069950D01*
X0033301Y0069075D02*
X0033635Y0069075D01*
X0033969Y0068741D01*
X0033969Y0068074D01*
X0033635Y0067740D01*
X0032968Y0068074D02*
X0032968Y0068741D01*
X0033301Y0069075D01*
X0032300Y0069075D02*
X0031967Y0068741D01*
X0031967Y0068074D01*
X0032300Y0067740D01*
X0032634Y0067740D01*
X0032968Y0068074D01*
X0033969Y0066865D02*
X0033969Y0065531D01*
X0031967Y0065531D01*
X0031967Y0066865D01*
X0032968Y0066198D02*
X0032968Y0065531D01*
X0032968Y0064655D02*
X0033301Y0064321D01*
X0033301Y0063321D01*
X0033301Y0063988D02*
X0033969Y0064655D01*
X0032968Y0064655D02*
X0032300Y0064655D01*
X0031967Y0064321D01*
X0031967Y0063321D01*
X0033969Y0063321D01*
X0015322Y0064112D02*
X0015322Y0065273D01*
X0013000Y0065273D01*
X0013000Y0064112D01*
X0013387Y0063725D01*
X0014935Y0063725D01*
X0015322Y0064112D01*
X0015322Y0066229D02*
X0013000Y0067777D01*
X0013000Y0068734D02*
X0013774Y0069508D01*
X0013774Y0069121D02*
X0013774Y0070282D01*
X0013000Y0070282D02*
X0015322Y0070282D01*
X0015322Y0069121D01*
X0014935Y0068734D01*
X0014161Y0068734D01*
X0013774Y0069121D01*
X0015322Y0067777D02*
X0013000Y0066229D01*
X0015322Y0060264D02*
X0015322Y0058716D01*
X0015322Y0059490D02*
X0013000Y0059490D01*
X0013000Y0057759D02*
X0015322Y0056211D01*
X0015322Y0055255D02*
X0013000Y0055255D01*
X0013000Y0054094D01*
X0013387Y0053707D01*
X0014935Y0053707D01*
X0015322Y0054094D01*
X0015322Y0055255D01*
X0015322Y0057759D02*
X0013000Y0056211D01*
X0013387Y0050246D02*
X0013000Y0049859D01*
X0013000Y0049085D01*
X0013387Y0048698D01*
X0014161Y0048698D01*
X0014161Y0049472D01*
X0014935Y0050246D02*
X0013387Y0050246D01*
X0014935Y0050246D02*
X0015322Y0049859D01*
X0015322Y0049085D01*
X0014935Y0048698D01*
X0015322Y0047741D02*
X0013000Y0047741D01*
X0013000Y0046193D02*
X0015322Y0047741D01*
X0015322Y0046193D02*
X0013000Y0046193D01*
X0013000Y0045236D02*
X0013000Y0044075D01*
X0013387Y0043688D01*
X0014935Y0043688D01*
X0015322Y0044075D01*
X0015322Y0045236D01*
X0013000Y0045236D01*
X0022398Y0045099D02*
X0025202Y0045099D01*
X0025202Y0048450D02*
X0022398Y0048450D01*
X0015322Y0040227D02*
X0013774Y0040227D01*
X0013000Y0039453D01*
X0013774Y0038679D01*
X0015322Y0038679D01*
X0015322Y0037723D02*
X0015322Y0036949D01*
X0015322Y0037336D02*
X0013000Y0037336D01*
X0013000Y0037723D02*
X0013000Y0036949D01*
X0013387Y0036053D02*
X0013000Y0035666D01*
X0013000Y0034892D01*
X0013387Y0034505D01*
X0014935Y0034505D01*
X0015322Y0034892D01*
X0015322Y0035666D01*
X0014935Y0036053D01*
X0013387Y0036053D01*
X0022398Y0036501D02*
X0025202Y0036501D01*
X0025202Y0033150D02*
X0022398Y0033150D01*
X0015322Y0030657D02*
X0015322Y0029883D01*
X0014935Y0029496D01*
X0015322Y0028540D02*
X0015322Y0026992D01*
X0015322Y0027766D02*
X0013000Y0027766D01*
X0013387Y0026035D02*
X0013000Y0025648D01*
X0013000Y0024874D01*
X0013387Y0024487D01*
X0013774Y0024487D01*
X0014161Y0024874D01*
X0014161Y0025648D01*
X0014548Y0026035D01*
X0014935Y0026035D01*
X0015322Y0025648D01*
X0015322Y0024874D01*
X0014935Y0024487D01*
X0022398Y0025150D02*
X0025202Y0025150D01*
X0025202Y0028501D02*
X0022398Y0028501D01*
X0015322Y0030657D02*
X0014935Y0031044D01*
X0013387Y0031044D01*
X0013000Y0030657D01*
X0013000Y0029883D01*
X0013387Y0029496D01*
X0033000Y0030334D02*
X0033334Y0030000D01*
X0034001Y0030000D01*
X0034334Y0030334D01*
X0034334Y0032002D01*
X0034733Y0032536D02*
X0038867Y0032536D01*
X0038421Y0032002D02*
X0037420Y0032002D01*
X0037420Y0030000D01*
X0037420Y0030667D02*
X0038421Y0030667D01*
X0038754Y0031001D01*
X0038754Y0031668D01*
X0038421Y0032002D01*
X0038087Y0030667D02*
X0038754Y0030000D01*
X0040442Y0029064D02*
X0034831Y0029064D01*
X0035543Y0030000D02*
X0035210Y0030334D01*
X0035543Y0030000D02*
X0036211Y0030000D01*
X0036544Y0030334D01*
X0036544Y0030667D01*
X0036211Y0031001D01*
X0035543Y0031001D01*
X0035210Y0031334D01*
X0035210Y0031668D01*
X0035543Y0032002D01*
X0036211Y0032002D01*
X0036544Y0031668D01*
X0033000Y0032002D02*
X0033000Y0030334D01*
X0039740Y0028572D02*
X0039742Y0028612D01*
X0039748Y0028651D01*
X0039757Y0028690D01*
X0039771Y0028727D01*
X0039788Y0028763D01*
X0039808Y0028798D01*
X0039832Y0028830D01*
X0039859Y0028859D01*
X0039888Y0028886D01*
X0039920Y0028910D01*
X0039955Y0028930D01*
X0039991Y0028947D01*
X0040028Y0028961D01*
X0040067Y0028970D01*
X0040106Y0028976D01*
X0040146Y0028978D01*
X0040186Y0028976D01*
X0040225Y0028970D01*
X0040264Y0028961D01*
X0040301Y0028947D01*
X0040337Y0028930D01*
X0040372Y0028910D01*
X0040404Y0028886D01*
X0040433Y0028859D01*
X0040460Y0028830D01*
X0040484Y0028798D01*
X0040504Y0028763D01*
X0040521Y0028727D01*
X0040535Y0028690D01*
X0040544Y0028651D01*
X0040550Y0028612D01*
X0040552Y0028572D01*
X0040550Y0028532D01*
X0040544Y0028493D01*
X0040535Y0028454D01*
X0040521Y0028417D01*
X0040504Y0028381D01*
X0040484Y0028346D01*
X0040460Y0028314D01*
X0040433Y0028285D01*
X0040404Y0028258D01*
X0040372Y0028234D01*
X0040337Y0028214D01*
X0040301Y0028197D01*
X0040264Y0028183D01*
X0040225Y0028174D01*
X0040186Y0028168D01*
X0040146Y0028166D01*
X0040106Y0028168D01*
X0040067Y0028174D01*
X0040028Y0028183D01*
X0039991Y0028197D01*
X0039955Y0028214D01*
X0039920Y0028234D01*
X0039888Y0028258D01*
X0039859Y0028285D01*
X0039832Y0028314D01*
X0039808Y0028346D01*
X0039788Y0028381D01*
X0039771Y0028417D01*
X0039757Y0028454D01*
X0039748Y0028493D01*
X0039742Y0028532D01*
X0039740Y0028572D01*
X0038867Y0024536D02*
X0034733Y0024536D01*
X0034515Y0015322D02*
X0033354Y0015322D01*
X0033354Y0013000D01*
X0034515Y0013000D01*
X0034902Y0013387D01*
X0034902Y0013774D01*
X0034515Y0014161D01*
X0033354Y0014161D01*
X0034515Y0014161D02*
X0034902Y0014548D01*
X0034902Y0014935D01*
X0034515Y0015322D01*
X0035859Y0014548D02*
X0036633Y0015322D01*
X0037407Y0014548D01*
X0037407Y0013000D01*
X0037407Y0014161D02*
X0035859Y0014161D01*
X0035859Y0014548D02*
X0035859Y0013000D01*
X0039138Y0013000D02*
X0039138Y0015322D01*
X0038364Y0015322D02*
X0039912Y0015322D01*
X0043373Y0014935D02*
X0043373Y0013387D01*
X0043760Y0013000D01*
X0044534Y0013000D01*
X0044921Y0013387D01*
X0045877Y0013000D02*
X0045877Y0015322D01*
X0044921Y0014935D02*
X0044534Y0015322D01*
X0043760Y0015322D01*
X0043373Y0014935D01*
X0045877Y0014161D02*
X0047425Y0014161D01*
X0047425Y0015322D02*
X0047425Y0013000D01*
X0048382Y0013387D02*
X0048769Y0013000D01*
X0049543Y0013000D01*
X0049930Y0013387D01*
X0049930Y0014161D01*
X0049156Y0014161D01*
X0049930Y0014935D02*
X0049543Y0015322D01*
X0048769Y0015322D01*
X0048382Y0014935D01*
X0048382Y0013387D01*
X0053391Y0013000D02*
X0053391Y0015322D01*
X0055895Y0015322D02*
X0055895Y0013000D01*
X0057443Y0013000D01*
X0058400Y0013000D02*
X0059561Y0013000D01*
X0059948Y0013387D01*
X0059948Y0014935D01*
X0059561Y0015322D01*
X0058400Y0015322D01*
X0058400Y0013000D01*
X0056669Y0014161D02*
X0055895Y0014161D01*
X0055895Y0015322D02*
X0057443Y0015322D01*
X0054939Y0013000D02*
X0053391Y0013000D01*
X0063409Y0013000D02*
X0063409Y0015322D01*
X0064570Y0015322D01*
X0064957Y0014935D01*
X0064957Y0014161D01*
X0064570Y0013774D01*
X0063409Y0013774D01*
X0064183Y0013774D02*
X0064957Y0013000D01*
X0065913Y0013000D02*
X0067461Y0013000D01*
X0068418Y0013387D02*
X0068805Y0013000D01*
X0069579Y0013000D01*
X0069966Y0013387D01*
X0069966Y0013774D01*
X0069579Y0014161D01*
X0068805Y0014161D01*
X0068418Y0014548D01*
X0068418Y0014935D01*
X0068805Y0015322D01*
X0069579Y0015322D01*
X0069966Y0014935D01*
X0067461Y0015322D02*
X0065913Y0015322D01*
X0065913Y0013000D01*
X0065913Y0014161D02*
X0066687Y0014161D01*
X0074300Y0013000D02*
X0074300Y0015322D01*
X0075074Y0014548D01*
X0075848Y0015322D01*
X0075848Y0013000D01*
X0076805Y0013000D02*
X0077966Y0013000D01*
X0078353Y0013387D01*
X0078353Y0013774D01*
X0077966Y0014161D01*
X0076805Y0014161D01*
X0077966Y0014161D02*
X0078353Y0014548D01*
X0078353Y0014935D01*
X0077966Y0015322D01*
X0076805Y0015322D01*
X0076805Y0013000D01*
X0079309Y0013000D02*
X0080083Y0013000D01*
X0079696Y0013000D02*
X0079696Y0015322D01*
X0079309Y0015322D02*
X0080083Y0015322D01*
X0084300Y0015322D02*
X0085074Y0015322D01*
X0084687Y0015322D02*
X0084687Y0013000D01*
X0084300Y0013000D02*
X0085074Y0013000D01*
X0085970Y0013000D02*
X0085970Y0015322D01*
X0087131Y0015322D01*
X0087518Y0014935D01*
X0087518Y0014161D01*
X0087131Y0013774D01*
X0085970Y0013774D01*
X0086744Y0013774D02*
X0087518Y0013000D01*
X0088474Y0013000D02*
X0088474Y0015322D01*
X0089635Y0015322D01*
X0090022Y0014935D01*
X0090022Y0014161D01*
X0089635Y0013774D01*
X0088474Y0013774D01*
X0094300Y0013000D02*
X0095074Y0013000D01*
X0094687Y0013000D02*
X0094687Y0015322D01*
X0094300Y0015322D02*
X0095074Y0015322D01*
X0095970Y0015322D02*
X0097131Y0015322D01*
X0097518Y0014935D01*
X0097518Y0014161D01*
X0097131Y0013774D01*
X0095970Y0013774D01*
X0096744Y0013774D02*
X0097518Y0013000D01*
X0098474Y0013000D02*
X0098474Y0015322D01*
X0100022Y0013000D01*
X0100022Y0015322D01*
X0095970Y0015322D02*
X0095970Y0013000D01*
X0104300Y0013000D02*
X0105074Y0013000D01*
X0104687Y0013000D02*
X0104687Y0015322D01*
X0104300Y0015322D02*
X0105074Y0015322D01*
X0105970Y0015322D02*
X0105970Y0013000D01*
X0107518Y0013000D01*
X0108474Y0013000D02*
X0108474Y0015322D01*
X0109635Y0015322D01*
X0110022Y0014935D01*
X0110022Y0014161D01*
X0109635Y0013774D01*
X0108474Y0013774D01*
X0114300Y0013000D02*
X0115074Y0013000D01*
X0114687Y0013000D02*
X0114687Y0015322D01*
X0114300Y0015322D02*
X0115074Y0015322D01*
X0115970Y0015322D02*
X0115970Y0013000D01*
X0117518Y0013000D01*
X0118474Y0013000D02*
X0118474Y0015322D01*
X0120022Y0013000D01*
X0120022Y0015322D01*
X0123518Y0014935D02*
X0123518Y0013387D01*
X0123905Y0013000D01*
X0124679Y0013000D01*
X0125066Y0013387D01*
X0125066Y0014935D01*
X0124679Y0015322D01*
X0123905Y0015322D01*
X0123518Y0014935D01*
X0126022Y0015322D02*
X0127183Y0015322D01*
X0127570Y0014935D01*
X0127570Y0014161D01*
X0127183Y0013774D01*
X0126022Y0013774D01*
X0126022Y0013000D02*
X0126022Y0015322D01*
X0126796Y0013774D02*
X0127570Y0013000D01*
X0128527Y0013000D02*
X0128527Y0015322D01*
X0129688Y0015322D01*
X0130075Y0014935D01*
X0130075Y0014161D01*
X0129688Y0013774D01*
X0128527Y0013774D01*
X0133536Y0013387D02*
X0133923Y0013000D01*
X0134697Y0013000D01*
X0135084Y0013387D01*
X0135084Y0014935D01*
X0134697Y0015322D01*
X0133923Y0015322D01*
X0133536Y0014935D01*
X0133536Y0013387D01*
X0136041Y0013774D02*
X0137202Y0013774D01*
X0137589Y0014161D01*
X0137589Y0014935D01*
X0137202Y0015322D01*
X0136041Y0015322D01*
X0136041Y0013000D01*
X0136815Y0013774D02*
X0137589Y0013000D01*
X0138545Y0013000D02*
X0138545Y0015322D01*
X0140093Y0013000D01*
X0140093Y0015322D01*
X0143554Y0014935D02*
X0143554Y0013387D01*
X0143941Y0013000D01*
X0144715Y0013000D01*
X0145102Y0013387D01*
X0145102Y0014935D01*
X0144715Y0015322D01*
X0143941Y0015322D01*
X0143554Y0014935D01*
X0146059Y0015322D02*
X0146059Y0013000D01*
X0147607Y0013000D01*
X0148563Y0013000D02*
X0148563Y0015322D01*
X0149724Y0015322D01*
X0150111Y0014935D01*
X0150111Y0014161D01*
X0149724Y0013774D01*
X0148563Y0013774D01*
X0153572Y0013387D02*
X0153959Y0013000D01*
X0154733Y0013000D01*
X0155120Y0013387D01*
X0155120Y0014935D01*
X0154733Y0015322D01*
X0153959Y0015322D01*
X0153572Y0014935D01*
X0153572Y0013387D01*
X0156077Y0013000D02*
X0157625Y0013000D01*
X0158581Y0013000D02*
X0158581Y0015322D01*
X0160129Y0013000D01*
X0160129Y0015322D01*
X0162300Y0014548D02*
X0163074Y0015322D01*
X0163848Y0014548D01*
X0163848Y0013000D01*
X0164805Y0013387D02*
X0165192Y0013000D01*
X0165966Y0013000D01*
X0166353Y0013387D01*
X0166353Y0014161D01*
X0165579Y0014161D01*
X0166353Y0014935D02*
X0165966Y0015322D01*
X0165192Y0015322D01*
X0164805Y0014935D01*
X0164805Y0013387D01*
X0163848Y0014161D02*
X0162300Y0014161D01*
X0162300Y0014548D02*
X0162300Y0013000D01*
X0167309Y0013000D02*
X0167309Y0015322D01*
X0168857Y0013000D01*
X0168857Y0015322D01*
X0169814Y0015322D02*
X0170975Y0015322D01*
X0171362Y0014935D01*
X0171362Y0013387D01*
X0170975Y0013000D01*
X0169814Y0013000D01*
X0169814Y0015322D01*
X0156077Y0015322D02*
X0156077Y0013000D01*
X0091202Y0025099D02*
X0088398Y0025099D01*
X0088398Y0028450D02*
X0091202Y0028450D01*
X0077442Y0029064D02*
X0071831Y0029064D01*
X0076740Y0028572D02*
X0076742Y0028612D01*
X0076748Y0028651D01*
X0076757Y0028690D01*
X0076771Y0028727D01*
X0076788Y0028763D01*
X0076808Y0028798D01*
X0076832Y0028830D01*
X0076859Y0028859D01*
X0076888Y0028886D01*
X0076920Y0028910D01*
X0076955Y0028930D01*
X0076991Y0028947D01*
X0077028Y0028961D01*
X0077067Y0028970D01*
X0077106Y0028976D01*
X0077146Y0028978D01*
X0077186Y0028976D01*
X0077225Y0028970D01*
X0077264Y0028961D01*
X0077301Y0028947D01*
X0077337Y0028930D01*
X0077372Y0028910D01*
X0077404Y0028886D01*
X0077433Y0028859D01*
X0077460Y0028830D01*
X0077484Y0028798D01*
X0077504Y0028763D01*
X0077521Y0028727D01*
X0077535Y0028690D01*
X0077544Y0028651D01*
X0077550Y0028612D01*
X0077552Y0028572D01*
X0077550Y0028532D01*
X0077544Y0028493D01*
X0077535Y0028454D01*
X0077521Y0028417D01*
X0077504Y0028381D01*
X0077484Y0028346D01*
X0077460Y0028314D01*
X0077433Y0028285D01*
X0077404Y0028258D01*
X0077372Y0028234D01*
X0077337Y0028214D01*
X0077301Y0028197D01*
X0077264Y0028183D01*
X0077225Y0028174D01*
X0077186Y0028168D01*
X0077146Y0028166D01*
X0077106Y0028168D01*
X0077067Y0028174D01*
X0077028Y0028183D01*
X0076991Y0028197D01*
X0076955Y0028214D01*
X0076920Y0028234D01*
X0076888Y0028258D01*
X0076859Y0028285D01*
X0076832Y0028314D01*
X0076808Y0028346D01*
X0076788Y0028381D01*
X0076771Y0028417D01*
X0076757Y0028454D01*
X0076748Y0028493D01*
X0076742Y0028532D01*
X0076740Y0028572D01*
X0075867Y0024536D02*
X0071733Y0024536D01*
X0071371Y0023602D02*
X0070704Y0023602D01*
X0070370Y0023268D01*
X0070370Y0021934D01*
X0070704Y0021600D01*
X0071371Y0021600D01*
X0071705Y0021934D01*
X0072580Y0021600D02*
X0072580Y0023602D01*
X0071705Y0023268D02*
X0071371Y0023602D01*
X0072580Y0022601D02*
X0073915Y0022601D01*
X0073915Y0023602D02*
X0073915Y0021600D01*
X0074790Y0021934D02*
X0075124Y0021600D01*
X0075791Y0021600D01*
X0076125Y0021934D01*
X0076125Y0022601D01*
X0075457Y0022601D01*
X0074790Y0023268D02*
X0074790Y0021934D01*
X0074790Y0023268D02*
X0075124Y0023602D01*
X0075791Y0023602D01*
X0076125Y0023268D01*
X0060600Y0025300D02*
X0060600Y0026074D01*
X0060600Y0025687D02*
X0058278Y0025687D01*
X0058278Y0025300D02*
X0058278Y0026074D01*
X0058278Y0026970D02*
X0060600Y0028518D01*
X0058278Y0028518D01*
X0058278Y0026970D02*
X0060600Y0026970D01*
X0060213Y0033300D02*
X0058665Y0033300D01*
X0058278Y0033687D01*
X0058278Y0034461D01*
X0058665Y0034848D01*
X0060213Y0034848D01*
X0060600Y0034461D01*
X0060600Y0033687D01*
X0060213Y0033300D01*
X0060213Y0035805D02*
X0058278Y0035805D01*
X0060213Y0035805D02*
X0060600Y0036192D01*
X0060600Y0036966D01*
X0060213Y0037353D01*
X0058278Y0037353D01*
X0058278Y0038309D02*
X0058278Y0039857D01*
X0058278Y0039083D02*
X0060600Y0039083D01*
X0060213Y0043318D02*
X0058665Y0043318D01*
X0058278Y0043705D01*
X0058278Y0044479D01*
X0058665Y0044866D01*
X0058278Y0045823D02*
X0060600Y0045823D01*
X0060600Y0047371D01*
X0060600Y0048327D02*
X0058278Y0048327D01*
X0059439Y0048714D02*
X0060600Y0049875D01*
X0059826Y0048327D02*
X0058278Y0049875D01*
X0058665Y0053336D02*
X0059052Y0053336D01*
X0059439Y0053723D01*
X0059439Y0054497D01*
X0059826Y0054884D01*
X0060213Y0054884D01*
X0060600Y0054497D01*
X0060600Y0053723D01*
X0060213Y0053336D01*
X0058665Y0053336D02*
X0058278Y0053723D01*
X0058278Y0054497D01*
X0058665Y0054884D01*
X0058665Y0055841D02*
X0059439Y0056615D01*
X0060600Y0056615D01*
X0059439Y0056615D02*
X0058665Y0057389D01*
X0058278Y0057389D01*
X0058278Y0058345D02*
X0060600Y0059893D01*
X0058278Y0059893D01*
X0058278Y0058345D02*
X0060600Y0058345D01*
X0058665Y0055841D02*
X0058278Y0055841D01*
X0042450Y0051202D02*
X0042450Y0048398D01*
X0039099Y0048398D02*
X0039099Y0051202D01*
X0060213Y0044866D02*
X0060600Y0044479D01*
X0060600Y0043705D01*
X0060213Y0043318D01*
X0040442Y0037064D02*
X0034831Y0037064D01*
X0035210Y0038000D02*
X0035877Y0038667D01*
X0036544Y0038000D01*
X0036544Y0040002D01*
X0037420Y0040002D02*
X0038421Y0040002D01*
X0038754Y0039668D01*
X0038754Y0039001D01*
X0038421Y0038667D01*
X0037420Y0038667D01*
X0038087Y0038667D02*
X0038754Y0038000D01*
X0037420Y0038000D02*
X0037420Y0040002D01*
X0035210Y0040002D02*
X0035210Y0038000D01*
X0034334Y0039001D02*
X0034001Y0038667D01*
X0033000Y0038667D01*
X0033000Y0038000D02*
X0033000Y0040002D01*
X0034001Y0040002D01*
X0034334Y0039668D01*
X0034334Y0039001D01*
X0039740Y0036572D02*
X0039742Y0036612D01*
X0039748Y0036651D01*
X0039757Y0036690D01*
X0039771Y0036727D01*
X0039788Y0036763D01*
X0039808Y0036798D01*
X0039832Y0036830D01*
X0039859Y0036859D01*
X0039888Y0036886D01*
X0039920Y0036910D01*
X0039955Y0036930D01*
X0039991Y0036947D01*
X0040028Y0036961D01*
X0040067Y0036970D01*
X0040106Y0036976D01*
X0040146Y0036978D01*
X0040186Y0036976D01*
X0040225Y0036970D01*
X0040264Y0036961D01*
X0040301Y0036947D01*
X0040337Y0036930D01*
X0040372Y0036910D01*
X0040404Y0036886D01*
X0040433Y0036859D01*
X0040460Y0036830D01*
X0040484Y0036798D01*
X0040504Y0036763D01*
X0040521Y0036727D01*
X0040535Y0036690D01*
X0040544Y0036651D01*
X0040550Y0036612D01*
X0040552Y0036572D01*
X0040550Y0036532D01*
X0040544Y0036493D01*
X0040535Y0036454D01*
X0040521Y0036417D01*
X0040504Y0036381D01*
X0040484Y0036346D01*
X0040460Y0036314D01*
X0040433Y0036285D01*
X0040404Y0036258D01*
X0040372Y0036234D01*
X0040337Y0036214D01*
X0040301Y0036197D01*
X0040264Y0036183D01*
X0040225Y0036174D01*
X0040186Y0036168D01*
X0040146Y0036166D01*
X0040106Y0036168D01*
X0040067Y0036174D01*
X0040028Y0036183D01*
X0039991Y0036197D01*
X0039955Y0036214D01*
X0039920Y0036234D01*
X0039888Y0036258D01*
X0039859Y0036285D01*
X0039832Y0036314D01*
X0039808Y0036346D01*
X0039788Y0036381D01*
X0039771Y0036417D01*
X0039757Y0036454D01*
X0039748Y0036493D01*
X0039742Y0036532D01*
X0039740Y0036572D01*
X0029635Y0015322D02*
X0028861Y0015322D01*
X0028474Y0014935D01*
X0028474Y0013387D01*
X0028861Y0013000D01*
X0029635Y0013000D01*
X0030022Y0013387D01*
X0030022Y0014935D01*
X0029635Y0015322D01*
X0027579Y0015322D02*
X0026805Y0015322D01*
X0027192Y0015322D02*
X0027192Y0013000D01*
X0026805Y0013000D02*
X0027579Y0013000D01*
X0025848Y0013774D02*
X0025848Y0015322D01*
X0024300Y0015322D02*
X0024300Y0013774D01*
X0025074Y0013000D01*
X0025848Y0013774D01*
X0019875Y0014161D02*
X0018327Y0014161D01*
X0018327Y0014548D02*
X0018327Y0013000D01*
X0017371Y0013000D02*
X0017371Y0015322D01*
X0018327Y0014548D02*
X0019101Y0015322D01*
X0019875Y0014548D01*
X0019875Y0013000D01*
X0017371Y0013000D02*
X0015823Y0015322D01*
X0015823Y0013000D01*
X0014866Y0013000D02*
X0013318Y0013000D01*
X0013318Y0015322D01*
X0014866Y0015322D01*
X0014092Y0014161D02*
X0013318Y0014161D01*
X0009857Y0013387D02*
X0009857Y0014935D01*
X0009470Y0015322D01*
X0008309Y0015322D01*
X0008309Y0013000D01*
X0009470Y0013000D01*
X0009857Y0013387D01*
X0007353Y0013000D02*
X0007353Y0015322D01*
X0005805Y0015322D02*
X0007353Y0013000D01*
X0005805Y0013000D02*
X0005805Y0015322D01*
X0004848Y0014935D02*
X0004461Y0015322D01*
X0003687Y0015322D01*
X0003300Y0014935D01*
X0003300Y0013387D01*
X0003687Y0013000D01*
X0004461Y0013000D01*
X0004848Y0013387D01*
X0004848Y0014161D01*
X0004074Y0014161D01*
X0013387Y0073743D02*
X0013000Y0074130D01*
X0013000Y0074904D01*
X0013387Y0075291D01*
X0014161Y0074904D02*
X0014161Y0074130D01*
X0013774Y0073743D01*
X0013387Y0073743D01*
X0014161Y0074904D02*
X0014548Y0075291D01*
X0014935Y0075291D01*
X0015322Y0074904D01*
X0015322Y0074130D01*
X0014935Y0073743D01*
X0015322Y0076247D02*
X0015322Y0077795D01*
X0015322Y0077021D02*
X0013000Y0077021D01*
X0013000Y0078752D02*
X0013774Y0079526D01*
X0013774Y0079139D02*
X0013774Y0080300D01*
X0013000Y0080300D02*
X0015322Y0080300D01*
X0015322Y0079139D01*
X0014935Y0078752D01*
X0014161Y0078752D01*
X0013774Y0079139D01*
X0013705Y0088000D02*
X0014479Y0088000D01*
X0014866Y0088387D01*
X0013705Y0088000D02*
X0013318Y0088387D01*
X0013318Y0089935D01*
X0013705Y0090322D01*
X0014479Y0090322D01*
X0014866Y0089935D01*
X0015823Y0090322D02*
X0017371Y0090322D01*
X0016597Y0090322D02*
X0016597Y0088000D01*
X0018327Y0088387D02*
X0018714Y0088000D01*
X0019488Y0088000D01*
X0019875Y0088387D01*
X0019875Y0088774D01*
X0019488Y0089161D01*
X0018714Y0089161D01*
X0018327Y0089548D01*
X0018327Y0089935D01*
X0018714Y0090322D01*
X0019488Y0090322D01*
X0019875Y0089935D01*
X0023336Y0090322D02*
X0023336Y0088000D01*
X0023336Y0088774D02*
X0024497Y0088774D01*
X0024884Y0089161D01*
X0024884Y0089935D01*
X0024497Y0090322D01*
X0023336Y0090322D01*
X0025841Y0090322D02*
X0027389Y0090322D01*
X0026615Y0090322D02*
X0026615Y0088000D01*
X0024884Y0088000D02*
X0024110Y0088774D01*
X0028345Y0088387D02*
X0028732Y0088000D01*
X0029506Y0088000D01*
X0029893Y0088387D01*
X0029893Y0088774D01*
X0029506Y0089161D01*
X0028732Y0089161D01*
X0028345Y0089548D01*
X0028345Y0089935D01*
X0028732Y0090322D01*
X0029506Y0090322D01*
X0029893Y0089935D01*
X0033354Y0090322D02*
X0034902Y0090322D01*
X0034128Y0090322D02*
X0034128Y0088000D01*
X0035859Y0088000D02*
X0037407Y0090322D01*
X0038364Y0090322D02*
X0039525Y0090322D01*
X0039912Y0089935D01*
X0039912Y0088387D01*
X0039525Y0088000D01*
X0038364Y0088000D01*
X0038364Y0090322D01*
X0035859Y0090322D02*
X0037407Y0088000D01*
X0009857Y0088387D02*
X0009470Y0088000D01*
X0008309Y0088000D01*
X0008309Y0090322D01*
X0009470Y0090322D01*
X0009857Y0089935D01*
X0009857Y0088387D01*
X0007353Y0088000D02*
X0005805Y0090322D01*
X0004848Y0089935D02*
X0004461Y0090322D01*
X0003300Y0090322D01*
X0003300Y0088000D01*
X0003300Y0088774D02*
X0004461Y0088774D01*
X0004848Y0089161D01*
X0004848Y0089935D01*
X0004074Y0088774D02*
X0004848Y0088000D01*
X0005805Y0088000D02*
X0007353Y0090322D01*
D13*
X0016300Y0080300D02*
X0016300Y0073800D01*
X0019288Y0076280D02*
X0030312Y0076280D01*
X0030312Y0072737D01*
X0030312Y0064863D01*
X0030312Y0061320D01*
X0019288Y0061320D01*
X0019288Y0076280D01*
X0091497Y0041068D02*
X0093264Y0035764D01*
X0096800Y0039300D01*
X0091497Y0041068D01*
X0091625Y0040684D02*
X0092648Y0040684D01*
X0091791Y0040185D02*
X0094144Y0040185D01*
X0095639Y0039687D02*
X0091957Y0039687D01*
X0092123Y0039188D02*
X0096688Y0039188D01*
X0096190Y0038690D02*
X0092289Y0038690D01*
X0092455Y0038191D02*
X0095691Y0038191D01*
X0095193Y0037693D02*
X0092622Y0037693D01*
X0092788Y0037194D02*
X0094694Y0037194D01*
X0094196Y0036696D02*
X0092954Y0036696D01*
X0093120Y0036197D02*
X0093697Y0036197D01*
X0107753Y0020501D02*
X0107753Y0083099D01*
X0201847Y0083099D01*
X0201847Y0020501D01*
X0107753Y0020501D01*
X0069800Y0016100D02*
X0063300Y0016100D01*
X0016300Y0024800D02*
X0016300Y0031300D01*
X0096300Y0062800D02*
X0096300Y0069300D01*
X0128169Y0057804D02*
X0128169Y0053300D01*
X0130421Y0053300D01*
X0131171Y0054051D01*
X0131171Y0054801D01*
X0130421Y0055552D01*
X0128169Y0055552D01*
X0128169Y0057804D02*
X0130421Y0057804D01*
X0131171Y0057053D01*
X0131171Y0056303D01*
X0130421Y0055552D01*
X0132773Y0057804D02*
X0133523Y0057804D01*
X0133523Y0053300D01*
X0132773Y0053300D02*
X0134274Y0053300D01*
X0135842Y0054051D02*
X0136593Y0053300D01*
X0138845Y0053300D01*
X0138845Y0056303D01*
X0140446Y0055552D02*
X0141197Y0056303D01*
X0142698Y0056303D01*
X0143449Y0055552D01*
X0143449Y0054801D01*
X0140446Y0054801D01*
X0140446Y0054051D02*
X0140446Y0055552D01*
X0140446Y0054051D02*
X0141197Y0053300D01*
X0142698Y0053300D01*
X0145050Y0054051D02*
X0145801Y0053300D01*
X0148053Y0053300D01*
X0148053Y0052549D02*
X0148053Y0056303D01*
X0145801Y0056303D01*
X0145050Y0055552D01*
X0145050Y0054051D01*
X0147302Y0051799D02*
X0148053Y0052549D01*
X0147302Y0051799D02*
X0146551Y0051799D01*
X0145767Y0050304D02*
X0144266Y0050304D01*
X0143515Y0049553D01*
X0141914Y0049553D02*
X0141163Y0050304D01*
X0139662Y0050304D01*
X0138911Y0049553D01*
X0137310Y0050304D02*
X0134307Y0050304D01*
X0135809Y0050304D02*
X0135809Y0045800D01*
X0132706Y0045800D02*
X0132706Y0050304D01*
X0129704Y0050304D02*
X0129704Y0045800D01*
X0131205Y0047301D01*
X0132706Y0045800D01*
X0138911Y0046551D02*
X0139662Y0045800D01*
X0141163Y0045800D01*
X0141914Y0046551D01*
X0141914Y0047301D01*
X0141163Y0048052D01*
X0140413Y0048052D01*
X0141163Y0048052D02*
X0141914Y0048803D01*
X0141914Y0049553D01*
X0145767Y0050304D02*
X0146518Y0049553D01*
X0146518Y0048803D01*
X0143515Y0045800D01*
X0146518Y0045800D01*
X0148119Y0045800D02*
X0149621Y0045800D01*
X0148870Y0045800D02*
X0148870Y0048803D01*
X0148119Y0048803D01*
X0148870Y0050304D02*
X0148870Y0051054D01*
X0149654Y0053300D02*
X0151155Y0053300D01*
X0150405Y0053300D02*
X0150405Y0056303D01*
X0149654Y0056303D01*
X0150405Y0057804D02*
X0150405Y0058554D01*
X0152723Y0055552D02*
X0153474Y0056303D01*
X0155726Y0056303D01*
X0155726Y0052549D01*
X0154975Y0051799D01*
X0154224Y0051799D01*
X0155792Y0048803D02*
X0157294Y0050304D01*
X0158795Y0048803D01*
X0158795Y0045800D01*
X0155792Y0045800D02*
X0155792Y0048803D01*
X0155792Y0048052D02*
X0158795Y0048052D01*
X0154191Y0048052D02*
X0151189Y0048052D01*
X0153474Y0053300D02*
X0155726Y0053300D01*
X0157327Y0054051D02*
X0158078Y0054801D01*
X0160330Y0054801D01*
X0160330Y0055552D02*
X0160330Y0053300D01*
X0158078Y0053300D01*
X0157327Y0054051D01*
X0158078Y0056303D02*
X0159579Y0056303D01*
X0160330Y0055552D01*
X0153474Y0053300D02*
X0152723Y0054051D01*
X0152723Y0055552D01*
X0135842Y0056303D02*
X0135842Y0054051D01*
D14*
X0077718Y0028357D02*
X0077718Y0027997D01*
X0077717Y0027998D02*
X0077648Y0027995D01*
X0077580Y0027988D01*
X0077511Y0027977D01*
X0077444Y0027962D01*
X0077378Y0027943D01*
X0077313Y0027920D01*
X0077249Y0027894D01*
X0077187Y0027864D01*
X0077126Y0027831D01*
X0077068Y0027794D01*
X0077012Y0027754D01*
X0076958Y0027711D01*
X0076907Y0027664D01*
X0076859Y0027615D01*
X0076814Y0027563D01*
X0076771Y0027509D01*
X0076732Y0027452D01*
X0076696Y0027393D01*
X0076664Y0027332D01*
X0076635Y0027270D01*
X0076610Y0027206D01*
X0076588Y0027140D01*
X0076571Y0027073D01*
X0076557Y0027006D01*
X0076547Y0026938D01*
X0076541Y0026869D01*
X0076539Y0026800D01*
X0076541Y0026731D01*
X0076547Y0026662D01*
X0076557Y0026594D01*
X0076571Y0026527D01*
X0076588Y0026460D01*
X0076610Y0026394D01*
X0076635Y0026330D01*
X0076664Y0026268D01*
X0076696Y0026207D01*
X0076732Y0026148D01*
X0076771Y0026091D01*
X0076814Y0026037D01*
X0076859Y0025985D01*
X0076907Y0025936D01*
X0076958Y0025889D01*
X0077012Y0025846D01*
X0077068Y0025806D01*
X0077126Y0025769D01*
X0077187Y0025736D01*
X0077249Y0025706D01*
X0077313Y0025680D01*
X0077378Y0025657D01*
X0077444Y0025638D01*
X0077511Y0025623D01*
X0077580Y0025612D01*
X0077648Y0025605D01*
X0077717Y0025602D01*
X0077718Y0025243D01*
X0077717Y0025242D01*
X0077639Y0025245D01*
X0077561Y0025252D01*
X0077483Y0025263D01*
X0077406Y0025277D01*
X0077330Y0025296D01*
X0077255Y0025318D01*
X0077181Y0025344D01*
X0077109Y0025374D01*
X0077038Y0025408D01*
X0076969Y0025444D01*
X0076902Y0025485D01*
X0076837Y0025528D01*
X0076774Y0025575D01*
X0076714Y0025625D01*
X0076656Y0025678D01*
X0076601Y0025734D01*
X0076549Y0025792D01*
X0076500Y0025853D01*
X0076454Y0025916D01*
X0076411Y0025982D01*
X0076372Y0026050D01*
X0076336Y0026119D01*
X0076303Y0026190D01*
X0076274Y0026263D01*
X0076249Y0026337D01*
X0076228Y0026413D01*
X0076210Y0026489D01*
X0076197Y0026566D01*
X0076187Y0026644D01*
X0076181Y0026722D01*
X0076179Y0026800D01*
X0076181Y0026878D01*
X0076187Y0026956D01*
X0076197Y0027034D01*
X0076210Y0027111D01*
X0076228Y0027187D01*
X0076249Y0027263D01*
X0076274Y0027337D01*
X0076303Y0027410D01*
X0076336Y0027481D01*
X0076372Y0027550D01*
X0076411Y0027618D01*
X0076454Y0027684D01*
X0076500Y0027747D01*
X0076549Y0027808D01*
X0076601Y0027866D01*
X0076656Y0027922D01*
X0076714Y0027975D01*
X0076774Y0028025D01*
X0076837Y0028072D01*
X0076902Y0028115D01*
X0076969Y0028156D01*
X0077038Y0028192D01*
X0077109Y0028226D01*
X0077181Y0028256D01*
X0077255Y0028282D01*
X0077330Y0028304D01*
X0077406Y0028323D01*
X0077483Y0028337D01*
X0077561Y0028348D01*
X0077639Y0028355D01*
X0077717Y0028358D01*
X0077717Y0028321D01*
X0077639Y0028318D01*
X0077562Y0028311D01*
X0077485Y0028300D01*
X0077409Y0028285D01*
X0077333Y0028267D01*
X0077259Y0028244D01*
X0077186Y0028218D01*
X0077114Y0028188D01*
X0077044Y0028154D01*
X0076976Y0028117D01*
X0076910Y0028076D01*
X0076846Y0028033D01*
X0076784Y0027985D01*
X0076725Y0027935D01*
X0076668Y0027882D01*
X0076614Y0027826D01*
X0076563Y0027768D01*
X0076516Y0027706D01*
X0076471Y0027643D01*
X0076429Y0027577D01*
X0076392Y0027509D01*
X0076357Y0027440D01*
X0076326Y0027368D01*
X0076299Y0027296D01*
X0076276Y0027222D01*
X0076256Y0027146D01*
X0076240Y0027070D01*
X0076228Y0026994D01*
X0076220Y0026916D01*
X0076216Y0026839D01*
X0076216Y0026761D01*
X0076220Y0026684D01*
X0076228Y0026606D01*
X0076240Y0026530D01*
X0076256Y0026454D01*
X0076276Y0026378D01*
X0076299Y0026304D01*
X0076326Y0026232D01*
X0076357Y0026160D01*
X0076392Y0026091D01*
X0076429Y0026023D01*
X0076471Y0025957D01*
X0076516Y0025894D01*
X0076563Y0025832D01*
X0076614Y0025774D01*
X0076668Y0025718D01*
X0076725Y0025665D01*
X0076784Y0025615D01*
X0076846Y0025567D01*
X0076910Y0025524D01*
X0076976Y0025483D01*
X0077044Y0025446D01*
X0077114Y0025412D01*
X0077186Y0025382D01*
X0077259Y0025356D01*
X0077333Y0025333D01*
X0077409Y0025315D01*
X0077485Y0025300D01*
X0077562Y0025289D01*
X0077639Y0025282D01*
X0077717Y0025279D01*
X0077717Y0025316D01*
X0077641Y0025319D01*
X0077566Y0025326D01*
X0077491Y0025337D01*
X0077416Y0025351D01*
X0077343Y0025369D01*
X0077270Y0025391D01*
X0077199Y0025417D01*
X0077129Y0025446D01*
X0077061Y0025479D01*
X0076994Y0025515D01*
X0076930Y0025555D01*
X0076867Y0025598D01*
X0076807Y0025644D01*
X0076749Y0025692D01*
X0076694Y0025744D01*
X0076641Y0025799D01*
X0076592Y0025856D01*
X0076545Y0025916D01*
X0076502Y0025978D01*
X0076461Y0026042D01*
X0076424Y0026108D01*
X0076391Y0026176D01*
X0076360Y0026245D01*
X0076334Y0026316D01*
X0076311Y0026389D01*
X0076292Y0026462D01*
X0076277Y0026536D01*
X0076265Y0026611D01*
X0076257Y0026686D01*
X0076253Y0026762D01*
X0076253Y0026838D01*
X0076257Y0026914D01*
X0076265Y0026989D01*
X0076277Y0027064D01*
X0076292Y0027138D01*
X0076311Y0027211D01*
X0076334Y0027284D01*
X0076360Y0027355D01*
X0076391Y0027424D01*
X0076424Y0027492D01*
X0076461Y0027558D01*
X0076502Y0027622D01*
X0076545Y0027684D01*
X0076592Y0027744D01*
X0076641Y0027801D01*
X0076694Y0027856D01*
X0076749Y0027908D01*
X0076807Y0027956D01*
X0076867Y0028002D01*
X0076930Y0028045D01*
X0076994Y0028085D01*
X0077061Y0028121D01*
X0077129Y0028154D01*
X0077199Y0028183D01*
X0077270Y0028209D01*
X0077343Y0028231D01*
X0077416Y0028249D01*
X0077491Y0028263D01*
X0077566Y0028274D01*
X0077641Y0028281D01*
X0077717Y0028284D01*
X0077717Y0028247D01*
X0077642Y0028244D01*
X0077567Y0028237D01*
X0077493Y0028226D01*
X0077419Y0028212D01*
X0077346Y0028193D01*
X0077275Y0028171D01*
X0077204Y0028145D01*
X0077135Y0028116D01*
X0077068Y0028083D01*
X0077002Y0028046D01*
X0076938Y0028007D01*
X0076877Y0027964D01*
X0076818Y0027917D01*
X0076761Y0027868D01*
X0076707Y0027816D01*
X0076655Y0027761D01*
X0076607Y0027704D01*
X0076562Y0027644D01*
X0076519Y0027582D01*
X0076481Y0027518D01*
X0076445Y0027452D01*
X0076413Y0027384D01*
X0076384Y0027314D01*
X0076360Y0027243D01*
X0076338Y0027171D01*
X0076321Y0027098D01*
X0076308Y0027024D01*
X0076298Y0026950D01*
X0076292Y0026875D01*
X0076290Y0026800D01*
X0076292Y0026725D01*
X0076298Y0026650D01*
X0076308Y0026576D01*
X0076321Y0026502D01*
X0076338Y0026429D01*
X0076360Y0026357D01*
X0076384Y0026286D01*
X0076413Y0026216D01*
X0076445Y0026148D01*
X0076481Y0026082D01*
X0076519Y0026018D01*
X0076562Y0025956D01*
X0076607Y0025896D01*
X0076655Y0025839D01*
X0076707Y0025784D01*
X0076761Y0025732D01*
X0076818Y0025683D01*
X0076877Y0025636D01*
X0076938Y0025593D01*
X0077002Y0025554D01*
X0077068Y0025517D01*
X0077135Y0025484D01*
X0077204Y0025455D01*
X0077275Y0025429D01*
X0077346Y0025407D01*
X0077419Y0025388D01*
X0077493Y0025374D01*
X0077567Y0025363D01*
X0077642Y0025356D01*
X0077717Y0025353D01*
X0077717Y0025390D01*
X0077643Y0025393D01*
X0077569Y0025400D01*
X0077495Y0025411D01*
X0077422Y0025426D01*
X0077350Y0025444D01*
X0077279Y0025466D01*
X0077209Y0025492D01*
X0077141Y0025522D01*
X0077075Y0025555D01*
X0077010Y0025592D01*
X0076947Y0025632D01*
X0076887Y0025675D01*
X0076828Y0025722D01*
X0076773Y0025771D01*
X0076720Y0025823D01*
X0076670Y0025878D01*
X0076623Y0025936D01*
X0076579Y0025996D01*
X0076538Y0026058D01*
X0076500Y0026122D01*
X0076466Y0026189D01*
X0076436Y0026256D01*
X0076409Y0026326D01*
X0076386Y0026397D01*
X0076367Y0026468D01*
X0076351Y0026541D01*
X0076339Y0026615D01*
X0076331Y0026689D01*
X0076327Y0026763D01*
X0076327Y0026837D01*
X0076331Y0026911D01*
X0076339Y0026985D01*
X0076351Y0027059D01*
X0076367Y0027132D01*
X0076386Y0027203D01*
X0076409Y0027274D01*
X0076436Y0027344D01*
X0076466Y0027411D01*
X0076500Y0027478D01*
X0076538Y0027542D01*
X0076579Y0027604D01*
X0076623Y0027664D01*
X0076670Y0027722D01*
X0076720Y0027777D01*
X0076773Y0027829D01*
X0076828Y0027878D01*
X0076887Y0027925D01*
X0076947Y0027968D01*
X0077010Y0028008D01*
X0077075Y0028045D01*
X0077141Y0028078D01*
X0077209Y0028108D01*
X0077279Y0028134D01*
X0077350Y0028156D01*
X0077422Y0028174D01*
X0077495Y0028189D01*
X0077569Y0028200D01*
X0077643Y0028207D01*
X0077717Y0028210D01*
X0077717Y0028173D01*
X0077643Y0028170D01*
X0077570Y0028163D01*
X0077497Y0028152D01*
X0077425Y0028137D01*
X0077354Y0028118D01*
X0077284Y0028096D01*
X0077215Y0028070D01*
X0077147Y0028040D01*
X0077082Y0028007D01*
X0077018Y0027970D01*
X0076956Y0027929D01*
X0076897Y0027886D01*
X0076840Y0027839D01*
X0076785Y0027790D01*
X0076734Y0027737D01*
X0076685Y0027682D01*
X0076639Y0027624D01*
X0076596Y0027564D01*
X0076557Y0027502D01*
X0076521Y0027438D01*
X0076489Y0027371D01*
X0076460Y0027304D01*
X0076435Y0027234D01*
X0076413Y0027164D01*
X0076396Y0027092D01*
X0076382Y0027020D01*
X0076372Y0026947D01*
X0076366Y0026874D01*
X0076364Y0026800D01*
X0076366Y0026726D01*
X0076372Y0026653D01*
X0076382Y0026580D01*
X0076396Y0026508D01*
X0076413Y0026436D01*
X0076435Y0026366D01*
X0076460Y0026296D01*
X0076489Y0026229D01*
X0076521Y0026162D01*
X0076557Y0026098D01*
X0076596Y0026036D01*
X0076639Y0025976D01*
X0076685Y0025918D01*
X0076734Y0025863D01*
X0076785Y0025810D01*
X0076840Y0025761D01*
X0076897Y0025714D01*
X0076956Y0025671D01*
X0077018Y0025630D01*
X0077082Y0025593D01*
X0077147Y0025560D01*
X0077215Y0025530D01*
X0077284Y0025504D01*
X0077354Y0025482D01*
X0077425Y0025463D01*
X0077497Y0025448D01*
X0077570Y0025437D01*
X0077643Y0025430D01*
X0077717Y0025427D01*
X0077717Y0025464D01*
X0077644Y0025467D01*
X0077572Y0025474D01*
X0077499Y0025485D01*
X0077428Y0025500D01*
X0077358Y0025519D01*
X0077288Y0025542D01*
X0077220Y0025568D01*
X0077154Y0025598D01*
X0077089Y0025632D01*
X0077026Y0025669D01*
X0076966Y0025709D01*
X0076907Y0025753D01*
X0076851Y0025800D01*
X0076798Y0025850D01*
X0076748Y0025902D01*
X0076700Y0025957D01*
X0076656Y0026015D01*
X0076615Y0026075D01*
X0076577Y0026138D01*
X0076542Y0026202D01*
X0076511Y0026268D01*
X0076484Y0026336D01*
X0076461Y0026405D01*
X0076441Y0026475D01*
X0076425Y0026546D01*
X0076413Y0026618D01*
X0076405Y0026691D01*
X0076401Y0026764D01*
X0076401Y0026836D01*
X0076405Y0026909D01*
X0076413Y0026982D01*
X0076425Y0027054D01*
X0076441Y0027125D01*
X0076461Y0027195D01*
X0076484Y0027264D01*
X0076511Y0027332D01*
X0076542Y0027398D01*
X0076577Y0027462D01*
X0076615Y0027525D01*
X0076656Y0027585D01*
X0076700Y0027643D01*
X0076748Y0027698D01*
X0076798Y0027750D01*
X0076851Y0027800D01*
X0076907Y0027847D01*
X0076966Y0027891D01*
X0077026Y0027931D01*
X0077089Y0027968D01*
X0077154Y0028002D01*
X0077220Y0028032D01*
X0077288Y0028058D01*
X0077358Y0028081D01*
X0077428Y0028100D01*
X0077499Y0028115D01*
X0077572Y0028126D01*
X0077644Y0028133D01*
X0077717Y0028136D01*
X0077717Y0028099D01*
X0077646Y0028096D01*
X0077576Y0028089D01*
X0077506Y0028078D01*
X0077436Y0028064D01*
X0077368Y0028045D01*
X0077300Y0028023D01*
X0077234Y0027998D01*
X0077170Y0027969D01*
X0077107Y0027936D01*
X0077046Y0027900D01*
X0076987Y0027860D01*
X0076930Y0027818D01*
X0076876Y0027772D01*
X0076824Y0027724D01*
X0076775Y0027673D01*
X0076729Y0027619D01*
X0076686Y0027563D01*
X0076646Y0027504D01*
X0076609Y0027444D01*
X0076575Y0027381D01*
X0076545Y0027317D01*
X0076519Y0027251D01*
X0076496Y0027184D01*
X0076477Y0027116D01*
X0076462Y0027047D01*
X0076450Y0026977D01*
X0076442Y0026906D01*
X0076438Y0026835D01*
X0076438Y0026765D01*
X0076442Y0026694D01*
X0076450Y0026623D01*
X0076462Y0026553D01*
X0076477Y0026484D01*
X0076496Y0026416D01*
X0076519Y0026349D01*
X0076545Y0026283D01*
X0076575Y0026219D01*
X0076609Y0026156D01*
X0076646Y0026096D01*
X0076686Y0026037D01*
X0076729Y0025981D01*
X0076775Y0025927D01*
X0076824Y0025876D01*
X0076876Y0025828D01*
X0076930Y0025782D01*
X0076987Y0025740D01*
X0077046Y0025700D01*
X0077107Y0025664D01*
X0077170Y0025631D01*
X0077234Y0025602D01*
X0077300Y0025577D01*
X0077368Y0025555D01*
X0077436Y0025536D01*
X0077506Y0025522D01*
X0077576Y0025511D01*
X0077646Y0025504D01*
X0077717Y0025501D01*
X0077717Y0025538D01*
X0077647Y0025541D01*
X0077577Y0025548D01*
X0077508Y0025559D01*
X0077439Y0025574D01*
X0077372Y0025592D01*
X0077305Y0025614D01*
X0077240Y0025640D01*
X0077177Y0025669D01*
X0077115Y0025702D01*
X0077055Y0025738D01*
X0076997Y0025778D01*
X0076941Y0025820D01*
X0076888Y0025866D01*
X0076838Y0025915D01*
X0076790Y0025966D01*
X0076745Y0026020D01*
X0076703Y0026076D01*
X0076665Y0026135D01*
X0076629Y0026195D01*
X0076598Y0026258D01*
X0076569Y0026322D01*
X0076544Y0026387D01*
X0076523Y0026454D01*
X0076506Y0026522D01*
X0076492Y0026591D01*
X0076483Y0026660D01*
X0076477Y0026730D01*
X0076475Y0026800D01*
X0076477Y0026870D01*
X0076483Y0026940D01*
X0076492Y0027009D01*
X0076506Y0027078D01*
X0076523Y0027146D01*
X0076544Y0027213D01*
X0076569Y0027278D01*
X0076598Y0027342D01*
X0076629Y0027405D01*
X0076665Y0027465D01*
X0076703Y0027524D01*
X0076745Y0027580D01*
X0076790Y0027634D01*
X0076838Y0027685D01*
X0076888Y0027734D01*
X0076941Y0027780D01*
X0076997Y0027822D01*
X0077055Y0027862D01*
X0077115Y0027898D01*
X0077177Y0027931D01*
X0077240Y0027960D01*
X0077305Y0027986D01*
X0077372Y0028008D01*
X0077439Y0028026D01*
X0077508Y0028041D01*
X0077577Y0028052D01*
X0077647Y0028059D01*
X0077717Y0028062D01*
X0077717Y0028025D01*
X0077648Y0028022D01*
X0077579Y0028015D01*
X0077511Y0028004D01*
X0077443Y0027989D01*
X0077376Y0027971D01*
X0077311Y0027948D01*
X0077246Y0027922D01*
X0077184Y0027893D01*
X0077123Y0027860D01*
X0077064Y0027824D01*
X0077007Y0027784D01*
X0076953Y0027741D01*
X0076901Y0027695D01*
X0076852Y0027647D01*
X0076805Y0027595D01*
X0076762Y0027541D01*
X0076722Y0027485D01*
X0076684Y0027427D01*
X0076651Y0027366D01*
X0076620Y0027304D01*
X0076594Y0027240D01*
X0076571Y0027175D01*
X0076551Y0027108D01*
X0076536Y0027041D01*
X0076524Y0026973D01*
X0076516Y0026904D01*
X0076512Y0026835D01*
X0076512Y0026765D01*
X0076516Y0026696D01*
X0076524Y0026627D01*
X0076536Y0026559D01*
X0076551Y0026492D01*
X0076571Y0026425D01*
X0076594Y0026360D01*
X0076620Y0026296D01*
X0076651Y0026234D01*
X0076684Y0026173D01*
X0076722Y0026115D01*
X0076762Y0026059D01*
X0076805Y0026005D01*
X0076852Y0025953D01*
X0076901Y0025905D01*
X0076953Y0025859D01*
X0077007Y0025816D01*
X0077064Y0025776D01*
X0077123Y0025740D01*
X0077184Y0025707D01*
X0077246Y0025678D01*
X0077311Y0025652D01*
X0077376Y0025629D01*
X0077443Y0025611D01*
X0077511Y0025596D01*
X0077579Y0025585D01*
X0077648Y0025578D01*
X0077717Y0025575D01*
X0069882Y0025243D02*
X0069882Y0025603D01*
X0069883Y0025602D02*
X0069952Y0025605D01*
X0070020Y0025612D01*
X0070089Y0025623D01*
X0070156Y0025638D01*
X0070222Y0025657D01*
X0070287Y0025680D01*
X0070351Y0025706D01*
X0070413Y0025736D01*
X0070474Y0025769D01*
X0070532Y0025806D01*
X0070588Y0025846D01*
X0070642Y0025889D01*
X0070693Y0025936D01*
X0070741Y0025985D01*
X0070786Y0026037D01*
X0070829Y0026091D01*
X0070868Y0026148D01*
X0070904Y0026207D01*
X0070936Y0026268D01*
X0070965Y0026330D01*
X0070990Y0026394D01*
X0071012Y0026460D01*
X0071029Y0026527D01*
X0071043Y0026594D01*
X0071053Y0026662D01*
X0071059Y0026731D01*
X0071061Y0026800D01*
X0071059Y0026869D01*
X0071053Y0026938D01*
X0071043Y0027006D01*
X0071029Y0027073D01*
X0071012Y0027140D01*
X0070990Y0027206D01*
X0070965Y0027270D01*
X0070936Y0027332D01*
X0070904Y0027393D01*
X0070868Y0027452D01*
X0070829Y0027509D01*
X0070786Y0027563D01*
X0070741Y0027615D01*
X0070693Y0027664D01*
X0070642Y0027711D01*
X0070588Y0027754D01*
X0070532Y0027794D01*
X0070474Y0027831D01*
X0070413Y0027864D01*
X0070351Y0027894D01*
X0070287Y0027920D01*
X0070222Y0027943D01*
X0070156Y0027962D01*
X0070089Y0027977D01*
X0070020Y0027988D01*
X0069952Y0027995D01*
X0069883Y0027998D01*
X0069882Y0028357D01*
X0069883Y0028358D01*
X0069961Y0028355D01*
X0070039Y0028348D01*
X0070117Y0028337D01*
X0070194Y0028323D01*
X0070270Y0028304D01*
X0070345Y0028282D01*
X0070419Y0028256D01*
X0070491Y0028226D01*
X0070562Y0028192D01*
X0070631Y0028156D01*
X0070698Y0028115D01*
X0070763Y0028072D01*
X0070826Y0028025D01*
X0070886Y0027975D01*
X0070944Y0027922D01*
X0070999Y0027866D01*
X0071051Y0027808D01*
X0071100Y0027747D01*
X0071146Y0027684D01*
X0071189Y0027618D01*
X0071228Y0027550D01*
X0071264Y0027481D01*
X0071297Y0027410D01*
X0071326Y0027337D01*
X0071351Y0027263D01*
X0071372Y0027187D01*
X0071390Y0027111D01*
X0071403Y0027034D01*
X0071413Y0026956D01*
X0071419Y0026878D01*
X0071421Y0026800D01*
X0071419Y0026722D01*
X0071413Y0026644D01*
X0071403Y0026566D01*
X0071390Y0026489D01*
X0071372Y0026413D01*
X0071351Y0026337D01*
X0071326Y0026263D01*
X0071297Y0026190D01*
X0071264Y0026119D01*
X0071228Y0026050D01*
X0071189Y0025982D01*
X0071146Y0025916D01*
X0071100Y0025853D01*
X0071051Y0025792D01*
X0070999Y0025734D01*
X0070944Y0025678D01*
X0070886Y0025625D01*
X0070826Y0025575D01*
X0070763Y0025528D01*
X0070698Y0025485D01*
X0070631Y0025444D01*
X0070562Y0025408D01*
X0070491Y0025374D01*
X0070419Y0025344D01*
X0070345Y0025318D01*
X0070270Y0025296D01*
X0070194Y0025277D01*
X0070117Y0025263D01*
X0070039Y0025252D01*
X0069961Y0025245D01*
X0069883Y0025242D01*
X0069883Y0025279D01*
X0069961Y0025282D01*
X0070038Y0025289D01*
X0070115Y0025300D01*
X0070191Y0025315D01*
X0070267Y0025333D01*
X0070341Y0025356D01*
X0070414Y0025382D01*
X0070486Y0025412D01*
X0070556Y0025446D01*
X0070624Y0025483D01*
X0070690Y0025524D01*
X0070754Y0025567D01*
X0070816Y0025615D01*
X0070875Y0025665D01*
X0070932Y0025718D01*
X0070986Y0025774D01*
X0071037Y0025832D01*
X0071084Y0025894D01*
X0071129Y0025957D01*
X0071171Y0026023D01*
X0071208Y0026091D01*
X0071243Y0026160D01*
X0071274Y0026232D01*
X0071301Y0026304D01*
X0071324Y0026378D01*
X0071344Y0026454D01*
X0071360Y0026530D01*
X0071372Y0026606D01*
X0071380Y0026684D01*
X0071384Y0026761D01*
X0071384Y0026839D01*
X0071380Y0026916D01*
X0071372Y0026994D01*
X0071360Y0027070D01*
X0071344Y0027146D01*
X0071324Y0027222D01*
X0071301Y0027296D01*
X0071274Y0027368D01*
X0071243Y0027440D01*
X0071208Y0027509D01*
X0071171Y0027577D01*
X0071129Y0027643D01*
X0071084Y0027706D01*
X0071037Y0027768D01*
X0070986Y0027826D01*
X0070932Y0027882D01*
X0070875Y0027935D01*
X0070816Y0027985D01*
X0070754Y0028033D01*
X0070690Y0028076D01*
X0070624Y0028117D01*
X0070556Y0028154D01*
X0070486Y0028188D01*
X0070414Y0028218D01*
X0070341Y0028244D01*
X0070267Y0028267D01*
X0070191Y0028285D01*
X0070115Y0028300D01*
X0070038Y0028311D01*
X0069961Y0028318D01*
X0069883Y0028321D01*
X0069883Y0028284D01*
X0069959Y0028281D01*
X0070034Y0028274D01*
X0070109Y0028263D01*
X0070184Y0028249D01*
X0070257Y0028231D01*
X0070330Y0028209D01*
X0070401Y0028183D01*
X0070471Y0028154D01*
X0070539Y0028121D01*
X0070606Y0028085D01*
X0070670Y0028045D01*
X0070733Y0028002D01*
X0070793Y0027956D01*
X0070851Y0027908D01*
X0070906Y0027856D01*
X0070959Y0027801D01*
X0071008Y0027744D01*
X0071055Y0027684D01*
X0071098Y0027622D01*
X0071139Y0027558D01*
X0071176Y0027492D01*
X0071209Y0027424D01*
X0071240Y0027355D01*
X0071266Y0027284D01*
X0071289Y0027211D01*
X0071308Y0027138D01*
X0071323Y0027064D01*
X0071335Y0026989D01*
X0071343Y0026914D01*
X0071347Y0026838D01*
X0071347Y0026762D01*
X0071343Y0026686D01*
X0071335Y0026611D01*
X0071323Y0026536D01*
X0071308Y0026462D01*
X0071289Y0026389D01*
X0071266Y0026316D01*
X0071240Y0026245D01*
X0071209Y0026176D01*
X0071176Y0026108D01*
X0071139Y0026042D01*
X0071098Y0025978D01*
X0071055Y0025916D01*
X0071008Y0025856D01*
X0070959Y0025799D01*
X0070906Y0025744D01*
X0070851Y0025692D01*
X0070793Y0025644D01*
X0070733Y0025598D01*
X0070670Y0025555D01*
X0070606Y0025515D01*
X0070539Y0025479D01*
X0070471Y0025446D01*
X0070401Y0025417D01*
X0070330Y0025391D01*
X0070257Y0025369D01*
X0070184Y0025351D01*
X0070109Y0025337D01*
X0070034Y0025326D01*
X0069959Y0025319D01*
X0069883Y0025316D01*
X0069883Y0025353D01*
X0069958Y0025356D01*
X0070033Y0025363D01*
X0070107Y0025374D01*
X0070181Y0025388D01*
X0070254Y0025407D01*
X0070325Y0025429D01*
X0070396Y0025455D01*
X0070465Y0025484D01*
X0070532Y0025517D01*
X0070598Y0025554D01*
X0070662Y0025593D01*
X0070723Y0025636D01*
X0070782Y0025683D01*
X0070839Y0025732D01*
X0070893Y0025784D01*
X0070945Y0025839D01*
X0070993Y0025896D01*
X0071038Y0025956D01*
X0071081Y0026018D01*
X0071119Y0026082D01*
X0071155Y0026148D01*
X0071187Y0026216D01*
X0071216Y0026286D01*
X0071240Y0026357D01*
X0071262Y0026429D01*
X0071279Y0026502D01*
X0071292Y0026576D01*
X0071302Y0026650D01*
X0071308Y0026725D01*
X0071310Y0026800D01*
X0071308Y0026875D01*
X0071302Y0026950D01*
X0071292Y0027024D01*
X0071279Y0027098D01*
X0071262Y0027171D01*
X0071240Y0027243D01*
X0071216Y0027314D01*
X0071187Y0027384D01*
X0071155Y0027452D01*
X0071119Y0027518D01*
X0071081Y0027582D01*
X0071038Y0027644D01*
X0070993Y0027704D01*
X0070945Y0027761D01*
X0070893Y0027816D01*
X0070839Y0027868D01*
X0070782Y0027917D01*
X0070723Y0027964D01*
X0070662Y0028007D01*
X0070598Y0028046D01*
X0070532Y0028083D01*
X0070465Y0028116D01*
X0070396Y0028145D01*
X0070325Y0028171D01*
X0070254Y0028193D01*
X0070181Y0028212D01*
X0070107Y0028226D01*
X0070033Y0028237D01*
X0069958Y0028244D01*
X0069883Y0028247D01*
X0069883Y0028210D01*
X0069957Y0028207D01*
X0070031Y0028200D01*
X0070105Y0028189D01*
X0070178Y0028174D01*
X0070250Y0028156D01*
X0070321Y0028134D01*
X0070391Y0028108D01*
X0070459Y0028078D01*
X0070525Y0028045D01*
X0070590Y0028008D01*
X0070653Y0027968D01*
X0070713Y0027925D01*
X0070772Y0027878D01*
X0070827Y0027829D01*
X0070880Y0027777D01*
X0070930Y0027722D01*
X0070977Y0027664D01*
X0071021Y0027604D01*
X0071062Y0027542D01*
X0071100Y0027478D01*
X0071134Y0027411D01*
X0071164Y0027344D01*
X0071191Y0027274D01*
X0071214Y0027203D01*
X0071233Y0027132D01*
X0071249Y0027059D01*
X0071261Y0026985D01*
X0071269Y0026911D01*
X0071273Y0026837D01*
X0071273Y0026763D01*
X0071269Y0026689D01*
X0071261Y0026615D01*
X0071249Y0026541D01*
X0071233Y0026468D01*
X0071214Y0026397D01*
X0071191Y0026326D01*
X0071164Y0026256D01*
X0071134Y0026189D01*
X0071100Y0026122D01*
X0071062Y0026058D01*
X0071021Y0025996D01*
X0070977Y0025936D01*
X0070930Y0025878D01*
X0070880Y0025823D01*
X0070827Y0025771D01*
X0070772Y0025722D01*
X0070713Y0025675D01*
X0070653Y0025632D01*
X0070590Y0025592D01*
X0070525Y0025555D01*
X0070459Y0025522D01*
X0070391Y0025492D01*
X0070321Y0025466D01*
X0070250Y0025444D01*
X0070178Y0025426D01*
X0070105Y0025411D01*
X0070031Y0025400D01*
X0069957Y0025393D01*
X0069883Y0025390D01*
X0069883Y0025427D01*
X0069957Y0025430D01*
X0070030Y0025437D01*
X0070103Y0025448D01*
X0070175Y0025463D01*
X0070246Y0025482D01*
X0070316Y0025504D01*
X0070385Y0025530D01*
X0070453Y0025560D01*
X0070518Y0025593D01*
X0070582Y0025630D01*
X0070644Y0025671D01*
X0070703Y0025714D01*
X0070760Y0025761D01*
X0070815Y0025810D01*
X0070866Y0025863D01*
X0070915Y0025918D01*
X0070961Y0025976D01*
X0071004Y0026036D01*
X0071043Y0026098D01*
X0071079Y0026162D01*
X0071111Y0026229D01*
X0071140Y0026296D01*
X0071165Y0026366D01*
X0071187Y0026436D01*
X0071204Y0026508D01*
X0071218Y0026580D01*
X0071228Y0026653D01*
X0071234Y0026726D01*
X0071236Y0026800D01*
X0071234Y0026874D01*
X0071228Y0026947D01*
X0071218Y0027020D01*
X0071204Y0027092D01*
X0071187Y0027164D01*
X0071165Y0027234D01*
X0071140Y0027304D01*
X0071111Y0027371D01*
X0071079Y0027438D01*
X0071043Y0027502D01*
X0071004Y0027564D01*
X0070961Y0027624D01*
X0070915Y0027682D01*
X0070866Y0027737D01*
X0070815Y0027790D01*
X0070760Y0027839D01*
X0070703Y0027886D01*
X0070644Y0027929D01*
X0070582Y0027970D01*
X0070518Y0028007D01*
X0070453Y0028040D01*
X0070385Y0028070D01*
X0070316Y0028096D01*
X0070246Y0028118D01*
X0070175Y0028137D01*
X0070103Y0028152D01*
X0070030Y0028163D01*
X0069957Y0028170D01*
X0069883Y0028173D01*
X0069883Y0028136D01*
X0069956Y0028133D01*
X0070028Y0028126D01*
X0070101Y0028115D01*
X0070172Y0028100D01*
X0070242Y0028081D01*
X0070312Y0028058D01*
X0070380Y0028032D01*
X0070446Y0028002D01*
X0070511Y0027968D01*
X0070574Y0027931D01*
X0070634Y0027891D01*
X0070693Y0027847D01*
X0070749Y0027800D01*
X0070802Y0027750D01*
X0070852Y0027698D01*
X0070900Y0027643D01*
X0070944Y0027585D01*
X0070985Y0027525D01*
X0071023Y0027462D01*
X0071058Y0027398D01*
X0071089Y0027332D01*
X0071116Y0027264D01*
X0071139Y0027195D01*
X0071159Y0027125D01*
X0071175Y0027054D01*
X0071187Y0026982D01*
X0071195Y0026909D01*
X0071199Y0026836D01*
X0071199Y0026764D01*
X0071195Y0026691D01*
X0071187Y0026618D01*
X0071175Y0026546D01*
X0071159Y0026475D01*
X0071139Y0026405D01*
X0071116Y0026336D01*
X0071089Y0026268D01*
X0071058Y0026202D01*
X0071023Y0026138D01*
X0070985Y0026075D01*
X0070944Y0026015D01*
X0070900Y0025957D01*
X0070852Y0025902D01*
X0070802Y0025850D01*
X0070749Y0025800D01*
X0070693Y0025753D01*
X0070634Y0025709D01*
X0070574Y0025669D01*
X0070511Y0025632D01*
X0070446Y0025598D01*
X0070380Y0025568D01*
X0070312Y0025542D01*
X0070242Y0025519D01*
X0070172Y0025500D01*
X0070101Y0025485D01*
X0070028Y0025474D01*
X0069956Y0025467D01*
X0069883Y0025464D01*
X0069883Y0025501D01*
X0069954Y0025504D01*
X0070024Y0025511D01*
X0070094Y0025522D01*
X0070164Y0025536D01*
X0070232Y0025555D01*
X0070300Y0025577D01*
X0070366Y0025602D01*
X0070430Y0025631D01*
X0070493Y0025664D01*
X0070554Y0025700D01*
X0070613Y0025740D01*
X0070670Y0025782D01*
X0070724Y0025828D01*
X0070776Y0025876D01*
X0070825Y0025927D01*
X0070871Y0025981D01*
X0070914Y0026037D01*
X0070954Y0026096D01*
X0070991Y0026156D01*
X0071025Y0026219D01*
X0071055Y0026283D01*
X0071081Y0026349D01*
X0071104Y0026416D01*
X0071123Y0026484D01*
X0071138Y0026553D01*
X0071150Y0026623D01*
X0071158Y0026694D01*
X0071162Y0026765D01*
X0071162Y0026835D01*
X0071158Y0026906D01*
X0071150Y0026977D01*
X0071138Y0027047D01*
X0071123Y0027116D01*
X0071104Y0027184D01*
X0071081Y0027251D01*
X0071055Y0027317D01*
X0071025Y0027381D01*
X0070991Y0027444D01*
X0070954Y0027504D01*
X0070914Y0027563D01*
X0070871Y0027619D01*
X0070825Y0027673D01*
X0070776Y0027724D01*
X0070724Y0027772D01*
X0070670Y0027818D01*
X0070613Y0027860D01*
X0070554Y0027900D01*
X0070493Y0027936D01*
X0070430Y0027969D01*
X0070366Y0027998D01*
X0070300Y0028023D01*
X0070232Y0028045D01*
X0070164Y0028064D01*
X0070094Y0028078D01*
X0070024Y0028089D01*
X0069954Y0028096D01*
X0069883Y0028099D01*
X0069883Y0028062D01*
X0069953Y0028059D01*
X0070023Y0028052D01*
X0070092Y0028041D01*
X0070161Y0028026D01*
X0070228Y0028008D01*
X0070295Y0027986D01*
X0070360Y0027960D01*
X0070423Y0027931D01*
X0070485Y0027898D01*
X0070545Y0027862D01*
X0070603Y0027822D01*
X0070659Y0027780D01*
X0070712Y0027734D01*
X0070762Y0027685D01*
X0070810Y0027634D01*
X0070855Y0027580D01*
X0070897Y0027524D01*
X0070935Y0027465D01*
X0070971Y0027405D01*
X0071002Y0027342D01*
X0071031Y0027278D01*
X0071056Y0027213D01*
X0071077Y0027146D01*
X0071094Y0027078D01*
X0071108Y0027009D01*
X0071117Y0026940D01*
X0071123Y0026870D01*
X0071125Y0026800D01*
X0071123Y0026730D01*
X0071117Y0026660D01*
X0071108Y0026591D01*
X0071094Y0026522D01*
X0071077Y0026454D01*
X0071056Y0026387D01*
X0071031Y0026322D01*
X0071002Y0026258D01*
X0070971Y0026195D01*
X0070935Y0026135D01*
X0070897Y0026076D01*
X0070855Y0026020D01*
X0070810Y0025966D01*
X0070762Y0025915D01*
X0070712Y0025866D01*
X0070659Y0025820D01*
X0070603Y0025778D01*
X0070545Y0025738D01*
X0070485Y0025702D01*
X0070423Y0025669D01*
X0070360Y0025640D01*
X0070295Y0025614D01*
X0070228Y0025592D01*
X0070161Y0025574D01*
X0070092Y0025559D01*
X0070023Y0025548D01*
X0069953Y0025541D01*
X0069883Y0025538D01*
X0069883Y0025575D01*
X0069952Y0025578D01*
X0070021Y0025585D01*
X0070089Y0025596D01*
X0070157Y0025611D01*
X0070224Y0025629D01*
X0070289Y0025652D01*
X0070354Y0025678D01*
X0070416Y0025707D01*
X0070477Y0025740D01*
X0070536Y0025776D01*
X0070593Y0025816D01*
X0070647Y0025859D01*
X0070699Y0025905D01*
X0070748Y0025953D01*
X0070795Y0026005D01*
X0070838Y0026059D01*
X0070878Y0026115D01*
X0070916Y0026173D01*
X0070949Y0026234D01*
X0070980Y0026296D01*
X0071006Y0026360D01*
X0071029Y0026425D01*
X0071049Y0026492D01*
X0071064Y0026559D01*
X0071076Y0026627D01*
X0071084Y0026696D01*
X0071088Y0026765D01*
X0071088Y0026835D01*
X0071084Y0026904D01*
X0071076Y0026973D01*
X0071064Y0027041D01*
X0071049Y0027108D01*
X0071029Y0027175D01*
X0071006Y0027240D01*
X0070980Y0027304D01*
X0070949Y0027366D01*
X0070916Y0027427D01*
X0070878Y0027485D01*
X0070838Y0027541D01*
X0070795Y0027595D01*
X0070748Y0027647D01*
X0070699Y0027695D01*
X0070647Y0027741D01*
X0070593Y0027784D01*
X0070536Y0027824D01*
X0070477Y0027860D01*
X0070416Y0027893D01*
X0070354Y0027922D01*
X0070289Y0027948D01*
X0070224Y0027971D01*
X0070157Y0027989D01*
X0070089Y0028004D01*
X0070021Y0028015D01*
X0069952Y0028022D01*
X0069883Y0028025D01*
X0040718Y0028357D02*
X0040718Y0027997D01*
X0040717Y0027998D02*
X0040648Y0027995D01*
X0040580Y0027988D01*
X0040511Y0027977D01*
X0040444Y0027962D01*
X0040378Y0027943D01*
X0040313Y0027920D01*
X0040249Y0027894D01*
X0040187Y0027864D01*
X0040126Y0027831D01*
X0040068Y0027794D01*
X0040012Y0027754D01*
X0039958Y0027711D01*
X0039907Y0027664D01*
X0039859Y0027615D01*
X0039814Y0027563D01*
X0039771Y0027509D01*
X0039732Y0027452D01*
X0039696Y0027393D01*
X0039664Y0027332D01*
X0039635Y0027270D01*
X0039610Y0027206D01*
X0039588Y0027140D01*
X0039571Y0027073D01*
X0039557Y0027006D01*
X0039547Y0026938D01*
X0039541Y0026869D01*
X0039539Y0026800D01*
X0039541Y0026731D01*
X0039547Y0026662D01*
X0039557Y0026594D01*
X0039571Y0026527D01*
X0039588Y0026460D01*
X0039610Y0026394D01*
X0039635Y0026330D01*
X0039664Y0026268D01*
X0039696Y0026207D01*
X0039732Y0026148D01*
X0039771Y0026091D01*
X0039814Y0026037D01*
X0039859Y0025985D01*
X0039907Y0025936D01*
X0039958Y0025889D01*
X0040012Y0025846D01*
X0040068Y0025806D01*
X0040126Y0025769D01*
X0040187Y0025736D01*
X0040249Y0025706D01*
X0040313Y0025680D01*
X0040378Y0025657D01*
X0040444Y0025638D01*
X0040511Y0025623D01*
X0040580Y0025612D01*
X0040648Y0025605D01*
X0040717Y0025602D01*
X0040718Y0025243D01*
X0040717Y0025242D01*
X0040639Y0025245D01*
X0040561Y0025252D01*
X0040483Y0025263D01*
X0040406Y0025277D01*
X0040330Y0025296D01*
X0040255Y0025318D01*
X0040181Y0025344D01*
X0040109Y0025374D01*
X0040038Y0025408D01*
X0039969Y0025444D01*
X0039902Y0025485D01*
X0039837Y0025528D01*
X0039774Y0025575D01*
X0039714Y0025625D01*
X0039656Y0025678D01*
X0039601Y0025734D01*
X0039549Y0025792D01*
X0039500Y0025853D01*
X0039454Y0025916D01*
X0039411Y0025982D01*
X0039372Y0026050D01*
X0039336Y0026119D01*
X0039303Y0026190D01*
X0039274Y0026263D01*
X0039249Y0026337D01*
X0039228Y0026413D01*
X0039210Y0026489D01*
X0039197Y0026566D01*
X0039187Y0026644D01*
X0039181Y0026722D01*
X0039179Y0026800D01*
X0039181Y0026878D01*
X0039187Y0026956D01*
X0039197Y0027034D01*
X0039210Y0027111D01*
X0039228Y0027187D01*
X0039249Y0027263D01*
X0039274Y0027337D01*
X0039303Y0027410D01*
X0039336Y0027481D01*
X0039372Y0027550D01*
X0039411Y0027618D01*
X0039454Y0027684D01*
X0039500Y0027747D01*
X0039549Y0027808D01*
X0039601Y0027866D01*
X0039656Y0027922D01*
X0039714Y0027975D01*
X0039774Y0028025D01*
X0039837Y0028072D01*
X0039902Y0028115D01*
X0039969Y0028156D01*
X0040038Y0028192D01*
X0040109Y0028226D01*
X0040181Y0028256D01*
X0040255Y0028282D01*
X0040330Y0028304D01*
X0040406Y0028323D01*
X0040483Y0028337D01*
X0040561Y0028348D01*
X0040639Y0028355D01*
X0040717Y0028358D01*
X0040717Y0028321D01*
X0040639Y0028318D01*
X0040562Y0028311D01*
X0040485Y0028300D01*
X0040409Y0028285D01*
X0040333Y0028267D01*
X0040259Y0028244D01*
X0040186Y0028218D01*
X0040114Y0028188D01*
X0040044Y0028154D01*
X0039976Y0028117D01*
X0039910Y0028076D01*
X0039846Y0028033D01*
X0039784Y0027985D01*
X0039725Y0027935D01*
X0039668Y0027882D01*
X0039614Y0027826D01*
X0039563Y0027768D01*
X0039516Y0027706D01*
X0039471Y0027643D01*
X0039429Y0027577D01*
X0039392Y0027509D01*
X0039357Y0027440D01*
X0039326Y0027368D01*
X0039299Y0027296D01*
X0039276Y0027222D01*
X0039256Y0027146D01*
X0039240Y0027070D01*
X0039228Y0026994D01*
X0039220Y0026916D01*
X0039216Y0026839D01*
X0039216Y0026761D01*
X0039220Y0026684D01*
X0039228Y0026606D01*
X0039240Y0026530D01*
X0039256Y0026454D01*
X0039276Y0026378D01*
X0039299Y0026304D01*
X0039326Y0026232D01*
X0039357Y0026160D01*
X0039392Y0026091D01*
X0039429Y0026023D01*
X0039471Y0025957D01*
X0039516Y0025894D01*
X0039563Y0025832D01*
X0039614Y0025774D01*
X0039668Y0025718D01*
X0039725Y0025665D01*
X0039784Y0025615D01*
X0039846Y0025567D01*
X0039910Y0025524D01*
X0039976Y0025483D01*
X0040044Y0025446D01*
X0040114Y0025412D01*
X0040186Y0025382D01*
X0040259Y0025356D01*
X0040333Y0025333D01*
X0040409Y0025315D01*
X0040485Y0025300D01*
X0040562Y0025289D01*
X0040639Y0025282D01*
X0040717Y0025279D01*
X0040717Y0025316D01*
X0040641Y0025319D01*
X0040566Y0025326D01*
X0040491Y0025337D01*
X0040416Y0025351D01*
X0040343Y0025369D01*
X0040270Y0025391D01*
X0040199Y0025417D01*
X0040129Y0025446D01*
X0040061Y0025479D01*
X0039994Y0025515D01*
X0039930Y0025555D01*
X0039867Y0025598D01*
X0039807Y0025644D01*
X0039749Y0025692D01*
X0039694Y0025744D01*
X0039641Y0025799D01*
X0039592Y0025856D01*
X0039545Y0025916D01*
X0039502Y0025978D01*
X0039461Y0026042D01*
X0039424Y0026108D01*
X0039391Y0026176D01*
X0039360Y0026245D01*
X0039334Y0026316D01*
X0039311Y0026389D01*
X0039292Y0026462D01*
X0039277Y0026536D01*
X0039265Y0026611D01*
X0039257Y0026686D01*
X0039253Y0026762D01*
X0039253Y0026838D01*
X0039257Y0026914D01*
X0039265Y0026989D01*
X0039277Y0027064D01*
X0039292Y0027138D01*
X0039311Y0027211D01*
X0039334Y0027284D01*
X0039360Y0027355D01*
X0039391Y0027424D01*
X0039424Y0027492D01*
X0039461Y0027558D01*
X0039502Y0027622D01*
X0039545Y0027684D01*
X0039592Y0027744D01*
X0039641Y0027801D01*
X0039694Y0027856D01*
X0039749Y0027908D01*
X0039807Y0027956D01*
X0039867Y0028002D01*
X0039930Y0028045D01*
X0039994Y0028085D01*
X0040061Y0028121D01*
X0040129Y0028154D01*
X0040199Y0028183D01*
X0040270Y0028209D01*
X0040343Y0028231D01*
X0040416Y0028249D01*
X0040491Y0028263D01*
X0040566Y0028274D01*
X0040641Y0028281D01*
X0040717Y0028284D01*
X0040717Y0028247D01*
X0040642Y0028244D01*
X0040567Y0028237D01*
X0040493Y0028226D01*
X0040419Y0028212D01*
X0040346Y0028193D01*
X0040275Y0028171D01*
X0040204Y0028145D01*
X0040135Y0028116D01*
X0040068Y0028083D01*
X0040002Y0028046D01*
X0039938Y0028007D01*
X0039877Y0027964D01*
X0039818Y0027917D01*
X0039761Y0027868D01*
X0039707Y0027816D01*
X0039655Y0027761D01*
X0039607Y0027704D01*
X0039562Y0027644D01*
X0039519Y0027582D01*
X0039481Y0027518D01*
X0039445Y0027452D01*
X0039413Y0027384D01*
X0039384Y0027314D01*
X0039360Y0027243D01*
X0039338Y0027171D01*
X0039321Y0027098D01*
X0039308Y0027024D01*
X0039298Y0026950D01*
X0039292Y0026875D01*
X0039290Y0026800D01*
X0039292Y0026725D01*
X0039298Y0026650D01*
X0039308Y0026576D01*
X0039321Y0026502D01*
X0039338Y0026429D01*
X0039360Y0026357D01*
X0039384Y0026286D01*
X0039413Y0026216D01*
X0039445Y0026148D01*
X0039481Y0026082D01*
X0039519Y0026018D01*
X0039562Y0025956D01*
X0039607Y0025896D01*
X0039655Y0025839D01*
X0039707Y0025784D01*
X0039761Y0025732D01*
X0039818Y0025683D01*
X0039877Y0025636D01*
X0039938Y0025593D01*
X0040002Y0025554D01*
X0040068Y0025517D01*
X0040135Y0025484D01*
X0040204Y0025455D01*
X0040275Y0025429D01*
X0040346Y0025407D01*
X0040419Y0025388D01*
X0040493Y0025374D01*
X0040567Y0025363D01*
X0040642Y0025356D01*
X0040717Y0025353D01*
X0040717Y0025390D01*
X0040643Y0025393D01*
X0040569Y0025400D01*
X0040495Y0025411D01*
X0040422Y0025426D01*
X0040350Y0025444D01*
X0040279Y0025466D01*
X0040209Y0025492D01*
X0040141Y0025522D01*
X0040075Y0025555D01*
X0040010Y0025592D01*
X0039947Y0025632D01*
X0039887Y0025675D01*
X0039828Y0025722D01*
X0039773Y0025771D01*
X0039720Y0025823D01*
X0039670Y0025878D01*
X0039623Y0025936D01*
X0039579Y0025996D01*
X0039538Y0026058D01*
X0039500Y0026122D01*
X0039466Y0026189D01*
X0039436Y0026256D01*
X0039409Y0026326D01*
X0039386Y0026397D01*
X0039367Y0026468D01*
X0039351Y0026541D01*
X0039339Y0026615D01*
X0039331Y0026689D01*
X0039327Y0026763D01*
X0039327Y0026837D01*
X0039331Y0026911D01*
X0039339Y0026985D01*
X0039351Y0027059D01*
X0039367Y0027132D01*
X0039386Y0027203D01*
X0039409Y0027274D01*
X0039436Y0027344D01*
X0039466Y0027411D01*
X0039500Y0027478D01*
X0039538Y0027542D01*
X0039579Y0027604D01*
X0039623Y0027664D01*
X0039670Y0027722D01*
X0039720Y0027777D01*
X0039773Y0027829D01*
X0039828Y0027878D01*
X0039887Y0027925D01*
X0039947Y0027968D01*
X0040010Y0028008D01*
X0040075Y0028045D01*
X0040141Y0028078D01*
X0040209Y0028108D01*
X0040279Y0028134D01*
X0040350Y0028156D01*
X0040422Y0028174D01*
X0040495Y0028189D01*
X0040569Y0028200D01*
X0040643Y0028207D01*
X0040717Y0028210D01*
X0040717Y0028173D01*
X0040643Y0028170D01*
X0040570Y0028163D01*
X0040497Y0028152D01*
X0040425Y0028137D01*
X0040354Y0028118D01*
X0040284Y0028096D01*
X0040215Y0028070D01*
X0040147Y0028040D01*
X0040082Y0028007D01*
X0040018Y0027970D01*
X0039956Y0027929D01*
X0039897Y0027886D01*
X0039840Y0027839D01*
X0039785Y0027790D01*
X0039734Y0027737D01*
X0039685Y0027682D01*
X0039639Y0027624D01*
X0039596Y0027564D01*
X0039557Y0027502D01*
X0039521Y0027438D01*
X0039489Y0027371D01*
X0039460Y0027304D01*
X0039435Y0027234D01*
X0039413Y0027164D01*
X0039396Y0027092D01*
X0039382Y0027020D01*
X0039372Y0026947D01*
X0039366Y0026874D01*
X0039364Y0026800D01*
X0039366Y0026726D01*
X0039372Y0026653D01*
X0039382Y0026580D01*
X0039396Y0026508D01*
X0039413Y0026436D01*
X0039435Y0026366D01*
X0039460Y0026296D01*
X0039489Y0026229D01*
X0039521Y0026162D01*
X0039557Y0026098D01*
X0039596Y0026036D01*
X0039639Y0025976D01*
X0039685Y0025918D01*
X0039734Y0025863D01*
X0039785Y0025810D01*
X0039840Y0025761D01*
X0039897Y0025714D01*
X0039956Y0025671D01*
X0040018Y0025630D01*
X0040082Y0025593D01*
X0040147Y0025560D01*
X0040215Y0025530D01*
X0040284Y0025504D01*
X0040354Y0025482D01*
X0040425Y0025463D01*
X0040497Y0025448D01*
X0040570Y0025437D01*
X0040643Y0025430D01*
X0040717Y0025427D01*
X0040717Y0025464D01*
X0040644Y0025467D01*
X0040572Y0025474D01*
X0040499Y0025485D01*
X0040428Y0025500D01*
X0040358Y0025519D01*
X0040288Y0025542D01*
X0040220Y0025568D01*
X0040154Y0025598D01*
X0040089Y0025632D01*
X0040026Y0025669D01*
X0039966Y0025709D01*
X0039907Y0025753D01*
X0039851Y0025800D01*
X0039798Y0025850D01*
X0039748Y0025902D01*
X0039700Y0025957D01*
X0039656Y0026015D01*
X0039615Y0026075D01*
X0039577Y0026138D01*
X0039542Y0026202D01*
X0039511Y0026268D01*
X0039484Y0026336D01*
X0039461Y0026405D01*
X0039441Y0026475D01*
X0039425Y0026546D01*
X0039413Y0026618D01*
X0039405Y0026691D01*
X0039401Y0026764D01*
X0039401Y0026836D01*
X0039405Y0026909D01*
X0039413Y0026982D01*
X0039425Y0027054D01*
X0039441Y0027125D01*
X0039461Y0027195D01*
X0039484Y0027264D01*
X0039511Y0027332D01*
X0039542Y0027398D01*
X0039577Y0027462D01*
X0039615Y0027525D01*
X0039656Y0027585D01*
X0039700Y0027643D01*
X0039748Y0027698D01*
X0039798Y0027750D01*
X0039851Y0027800D01*
X0039907Y0027847D01*
X0039966Y0027891D01*
X0040026Y0027931D01*
X0040089Y0027968D01*
X0040154Y0028002D01*
X0040220Y0028032D01*
X0040288Y0028058D01*
X0040358Y0028081D01*
X0040428Y0028100D01*
X0040499Y0028115D01*
X0040572Y0028126D01*
X0040644Y0028133D01*
X0040717Y0028136D01*
X0040717Y0028099D01*
X0040646Y0028096D01*
X0040576Y0028089D01*
X0040506Y0028078D01*
X0040436Y0028064D01*
X0040368Y0028045D01*
X0040300Y0028023D01*
X0040234Y0027998D01*
X0040170Y0027969D01*
X0040107Y0027936D01*
X0040046Y0027900D01*
X0039987Y0027860D01*
X0039930Y0027818D01*
X0039876Y0027772D01*
X0039824Y0027724D01*
X0039775Y0027673D01*
X0039729Y0027619D01*
X0039686Y0027563D01*
X0039646Y0027504D01*
X0039609Y0027444D01*
X0039575Y0027381D01*
X0039545Y0027317D01*
X0039519Y0027251D01*
X0039496Y0027184D01*
X0039477Y0027116D01*
X0039462Y0027047D01*
X0039450Y0026977D01*
X0039442Y0026906D01*
X0039438Y0026835D01*
X0039438Y0026765D01*
X0039442Y0026694D01*
X0039450Y0026623D01*
X0039462Y0026553D01*
X0039477Y0026484D01*
X0039496Y0026416D01*
X0039519Y0026349D01*
X0039545Y0026283D01*
X0039575Y0026219D01*
X0039609Y0026156D01*
X0039646Y0026096D01*
X0039686Y0026037D01*
X0039729Y0025981D01*
X0039775Y0025927D01*
X0039824Y0025876D01*
X0039876Y0025828D01*
X0039930Y0025782D01*
X0039987Y0025740D01*
X0040046Y0025700D01*
X0040107Y0025664D01*
X0040170Y0025631D01*
X0040234Y0025602D01*
X0040300Y0025577D01*
X0040368Y0025555D01*
X0040436Y0025536D01*
X0040506Y0025522D01*
X0040576Y0025511D01*
X0040646Y0025504D01*
X0040717Y0025501D01*
X0040717Y0025538D01*
X0040647Y0025541D01*
X0040577Y0025548D01*
X0040508Y0025559D01*
X0040439Y0025574D01*
X0040372Y0025592D01*
X0040305Y0025614D01*
X0040240Y0025640D01*
X0040177Y0025669D01*
X0040115Y0025702D01*
X0040055Y0025738D01*
X0039997Y0025778D01*
X0039941Y0025820D01*
X0039888Y0025866D01*
X0039838Y0025915D01*
X0039790Y0025966D01*
X0039745Y0026020D01*
X0039703Y0026076D01*
X0039665Y0026135D01*
X0039629Y0026195D01*
X0039598Y0026258D01*
X0039569Y0026322D01*
X0039544Y0026387D01*
X0039523Y0026454D01*
X0039506Y0026522D01*
X0039492Y0026591D01*
X0039483Y0026660D01*
X0039477Y0026730D01*
X0039475Y0026800D01*
X0039477Y0026870D01*
X0039483Y0026940D01*
X0039492Y0027009D01*
X0039506Y0027078D01*
X0039523Y0027146D01*
X0039544Y0027213D01*
X0039569Y0027278D01*
X0039598Y0027342D01*
X0039629Y0027405D01*
X0039665Y0027465D01*
X0039703Y0027524D01*
X0039745Y0027580D01*
X0039790Y0027634D01*
X0039838Y0027685D01*
X0039888Y0027734D01*
X0039941Y0027780D01*
X0039997Y0027822D01*
X0040055Y0027862D01*
X0040115Y0027898D01*
X0040177Y0027931D01*
X0040240Y0027960D01*
X0040305Y0027986D01*
X0040372Y0028008D01*
X0040439Y0028026D01*
X0040508Y0028041D01*
X0040577Y0028052D01*
X0040647Y0028059D01*
X0040717Y0028062D01*
X0040717Y0028025D01*
X0040648Y0028022D01*
X0040579Y0028015D01*
X0040511Y0028004D01*
X0040443Y0027989D01*
X0040376Y0027971D01*
X0040311Y0027948D01*
X0040246Y0027922D01*
X0040184Y0027893D01*
X0040123Y0027860D01*
X0040064Y0027824D01*
X0040007Y0027784D01*
X0039953Y0027741D01*
X0039901Y0027695D01*
X0039852Y0027647D01*
X0039805Y0027595D01*
X0039762Y0027541D01*
X0039722Y0027485D01*
X0039684Y0027427D01*
X0039651Y0027366D01*
X0039620Y0027304D01*
X0039594Y0027240D01*
X0039571Y0027175D01*
X0039551Y0027108D01*
X0039536Y0027041D01*
X0039524Y0026973D01*
X0039516Y0026904D01*
X0039512Y0026835D01*
X0039512Y0026765D01*
X0039516Y0026696D01*
X0039524Y0026627D01*
X0039536Y0026559D01*
X0039551Y0026492D01*
X0039571Y0026425D01*
X0039594Y0026360D01*
X0039620Y0026296D01*
X0039651Y0026234D01*
X0039684Y0026173D01*
X0039722Y0026115D01*
X0039762Y0026059D01*
X0039805Y0026005D01*
X0039852Y0025953D01*
X0039901Y0025905D01*
X0039953Y0025859D01*
X0040007Y0025816D01*
X0040064Y0025776D01*
X0040123Y0025740D01*
X0040184Y0025707D01*
X0040246Y0025678D01*
X0040311Y0025652D01*
X0040376Y0025629D01*
X0040443Y0025611D01*
X0040511Y0025596D01*
X0040579Y0025585D01*
X0040648Y0025578D01*
X0040717Y0025575D01*
X0032882Y0025243D02*
X0032882Y0025603D01*
X0032883Y0025602D02*
X0032952Y0025605D01*
X0033020Y0025612D01*
X0033089Y0025623D01*
X0033156Y0025638D01*
X0033222Y0025657D01*
X0033287Y0025680D01*
X0033351Y0025706D01*
X0033413Y0025736D01*
X0033474Y0025769D01*
X0033532Y0025806D01*
X0033588Y0025846D01*
X0033642Y0025889D01*
X0033693Y0025936D01*
X0033741Y0025985D01*
X0033786Y0026037D01*
X0033829Y0026091D01*
X0033868Y0026148D01*
X0033904Y0026207D01*
X0033936Y0026268D01*
X0033965Y0026330D01*
X0033990Y0026394D01*
X0034012Y0026460D01*
X0034029Y0026527D01*
X0034043Y0026594D01*
X0034053Y0026662D01*
X0034059Y0026731D01*
X0034061Y0026800D01*
X0034059Y0026869D01*
X0034053Y0026938D01*
X0034043Y0027006D01*
X0034029Y0027073D01*
X0034012Y0027140D01*
X0033990Y0027206D01*
X0033965Y0027270D01*
X0033936Y0027332D01*
X0033904Y0027393D01*
X0033868Y0027452D01*
X0033829Y0027509D01*
X0033786Y0027563D01*
X0033741Y0027615D01*
X0033693Y0027664D01*
X0033642Y0027711D01*
X0033588Y0027754D01*
X0033532Y0027794D01*
X0033474Y0027831D01*
X0033413Y0027864D01*
X0033351Y0027894D01*
X0033287Y0027920D01*
X0033222Y0027943D01*
X0033156Y0027962D01*
X0033089Y0027977D01*
X0033020Y0027988D01*
X0032952Y0027995D01*
X0032883Y0027998D01*
X0032882Y0028357D01*
X0032883Y0028358D01*
X0032961Y0028355D01*
X0033039Y0028348D01*
X0033117Y0028337D01*
X0033194Y0028323D01*
X0033270Y0028304D01*
X0033345Y0028282D01*
X0033419Y0028256D01*
X0033491Y0028226D01*
X0033562Y0028192D01*
X0033631Y0028156D01*
X0033698Y0028115D01*
X0033763Y0028072D01*
X0033826Y0028025D01*
X0033886Y0027975D01*
X0033944Y0027922D01*
X0033999Y0027866D01*
X0034051Y0027808D01*
X0034100Y0027747D01*
X0034146Y0027684D01*
X0034189Y0027618D01*
X0034228Y0027550D01*
X0034264Y0027481D01*
X0034297Y0027410D01*
X0034326Y0027337D01*
X0034351Y0027263D01*
X0034372Y0027187D01*
X0034390Y0027111D01*
X0034403Y0027034D01*
X0034413Y0026956D01*
X0034419Y0026878D01*
X0034421Y0026800D01*
X0034419Y0026722D01*
X0034413Y0026644D01*
X0034403Y0026566D01*
X0034390Y0026489D01*
X0034372Y0026413D01*
X0034351Y0026337D01*
X0034326Y0026263D01*
X0034297Y0026190D01*
X0034264Y0026119D01*
X0034228Y0026050D01*
X0034189Y0025982D01*
X0034146Y0025916D01*
X0034100Y0025853D01*
X0034051Y0025792D01*
X0033999Y0025734D01*
X0033944Y0025678D01*
X0033886Y0025625D01*
X0033826Y0025575D01*
X0033763Y0025528D01*
X0033698Y0025485D01*
X0033631Y0025444D01*
X0033562Y0025408D01*
X0033491Y0025374D01*
X0033419Y0025344D01*
X0033345Y0025318D01*
X0033270Y0025296D01*
X0033194Y0025277D01*
X0033117Y0025263D01*
X0033039Y0025252D01*
X0032961Y0025245D01*
X0032883Y0025242D01*
X0032883Y0025279D01*
X0032961Y0025282D01*
X0033038Y0025289D01*
X0033115Y0025300D01*
X0033191Y0025315D01*
X0033267Y0025333D01*
X0033341Y0025356D01*
X0033414Y0025382D01*
X0033486Y0025412D01*
X0033556Y0025446D01*
X0033624Y0025483D01*
X0033690Y0025524D01*
X0033754Y0025567D01*
X0033816Y0025615D01*
X0033875Y0025665D01*
X0033932Y0025718D01*
X0033986Y0025774D01*
X0034037Y0025832D01*
X0034084Y0025894D01*
X0034129Y0025957D01*
X0034171Y0026023D01*
X0034208Y0026091D01*
X0034243Y0026160D01*
X0034274Y0026232D01*
X0034301Y0026304D01*
X0034324Y0026378D01*
X0034344Y0026454D01*
X0034360Y0026530D01*
X0034372Y0026606D01*
X0034380Y0026684D01*
X0034384Y0026761D01*
X0034384Y0026839D01*
X0034380Y0026916D01*
X0034372Y0026994D01*
X0034360Y0027070D01*
X0034344Y0027146D01*
X0034324Y0027222D01*
X0034301Y0027296D01*
X0034274Y0027368D01*
X0034243Y0027440D01*
X0034208Y0027509D01*
X0034171Y0027577D01*
X0034129Y0027643D01*
X0034084Y0027706D01*
X0034037Y0027768D01*
X0033986Y0027826D01*
X0033932Y0027882D01*
X0033875Y0027935D01*
X0033816Y0027985D01*
X0033754Y0028033D01*
X0033690Y0028076D01*
X0033624Y0028117D01*
X0033556Y0028154D01*
X0033486Y0028188D01*
X0033414Y0028218D01*
X0033341Y0028244D01*
X0033267Y0028267D01*
X0033191Y0028285D01*
X0033115Y0028300D01*
X0033038Y0028311D01*
X0032961Y0028318D01*
X0032883Y0028321D01*
X0032883Y0028284D01*
X0032959Y0028281D01*
X0033034Y0028274D01*
X0033109Y0028263D01*
X0033184Y0028249D01*
X0033257Y0028231D01*
X0033330Y0028209D01*
X0033401Y0028183D01*
X0033471Y0028154D01*
X0033539Y0028121D01*
X0033606Y0028085D01*
X0033670Y0028045D01*
X0033733Y0028002D01*
X0033793Y0027956D01*
X0033851Y0027908D01*
X0033906Y0027856D01*
X0033959Y0027801D01*
X0034008Y0027744D01*
X0034055Y0027684D01*
X0034098Y0027622D01*
X0034139Y0027558D01*
X0034176Y0027492D01*
X0034209Y0027424D01*
X0034240Y0027355D01*
X0034266Y0027284D01*
X0034289Y0027211D01*
X0034308Y0027138D01*
X0034323Y0027064D01*
X0034335Y0026989D01*
X0034343Y0026914D01*
X0034347Y0026838D01*
X0034347Y0026762D01*
X0034343Y0026686D01*
X0034335Y0026611D01*
X0034323Y0026536D01*
X0034308Y0026462D01*
X0034289Y0026389D01*
X0034266Y0026316D01*
X0034240Y0026245D01*
X0034209Y0026176D01*
X0034176Y0026108D01*
X0034139Y0026042D01*
X0034098Y0025978D01*
X0034055Y0025916D01*
X0034008Y0025856D01*
X0033959Y0025799D01*
X0033906Y0025744D01*
X0033851Y0025692D01*
X0033793Y0025644D01*
X0033733Y0025598D01*
X0033670Y0025555D01*
X0033606Y0025515D01*
X0033539Y0025479D01*
X0033471Y0025446D01*
X0033401Y0025417D01*
X0033330Y0025391D01*
X0033257Y0025369D01*
X0033184Y0025351D01*
X0033109Y0025337D01*
X0033034Y0025326D01*
X0032959Y0025319D01*
X0032883Y0025316D01*
X0032883Y0025353D01*
X0032958Y0025356D01*
X0033033Y0025363D01*
X0033107Y0025374D01*
X0033181Y0025388D01*
X0033254Y0025407D01*
X0033325Y0025429D01*
X0033396Y0025455D01*
X0033465Y0025484D01*
X0033532Y0025517D01*
X0033598Y0025554D01*
X0033662Y0025593D01*
X0033723Y0025636D01*
X0033782Y0025683D01*
X0033839Y0025732D01*
X0033893Y0025784D01*
X0033945Y0025839D01*
X0033993Y0025896D01*
X0034038Y0025956D01*
X0034081Y0026018D01*
X0034119Y0026082D01*
X0034155Y0026148D01*
X0034187Y0026216D01*
X0034216Y0026286D01*
X0034240Y0026357D01*
X0034262Y0026429D01*
X0034279Y0026502D01*
X0034292Y0026576D01*
X0034302Y0026650D01*
X0034308Y0026725D01*
X0034310Y0026800D01*
X0034308Y0026875D01*
X0034302Y0026950D01*
X0034292Y0027024D01*
X0034279Y0027098D01*
X0034262Y0027171D01*
X0034240Y0027243D01*
X0034216Y0027314D01*
X0034187Y0027384D01*
X0034155Y0027452D01*
X0034119Y0027518D01*
X0034081Y0027582D01*
X0034038Y0027644D01*
X0033993Y0027704D01*
X0033945Y0027761D01*
X0033893Y0027816D01*
X0033839Y0027868D01*
X0033782Y0027917D01*
X0033723Y0027964D01*
X0033662Y0028007D01*
X0033598Y0028046D01*
X0033532Y0028083D01*
X0033465Y0028116D01*
X0033396Y0028145D01*
X0033325Y0028171D01*
X0033254Y0028193D01*
X0033181Y0028212D01*
X0033107Y0028226D01*
X0033033Y0028237D01*
X0032958Y0028244D01*
X0032883Y0028247D01*
X0032883Y0028210D01*
X0032957Y0028207D01*
X0033031Y0028200D01*
X0033105Y0028189D01*
X0033178Y0028174D01*
X0033250Y0028156D01*
X0033321Y0028134D01*
X0033391Y0028108D01*
X0033459Y0028078D01*
X0033525Y0028045D01*
X0033590Y0028008D01*
X0033653Y0027968D01*
X0033713Y0027925D01*
X0033772Y0027878D01*
X0033827Y0027829D01*
X0033880Y0027777D01*
X0033930Y0027722D01*
X0033977Y0027664D01*
X0034021Y0027604D01*
X0034062Y0027542D01*
X0034100Y0027478D01*
X0034134Y0027411D01*
X0034164Y0027344D01*
X0034191Y0027274D01*
X0034214Y0027203D01*
X0034233Y0027132D01*
X0034249Y0027059D01*
X0034261Y0026985D01*
X0034269Y0026911D01*
X0034273Y0026837D01*
X0034273Y0026763D01*
X0034269Y0026689D01*
X0034261Y0026615D01*
X0034249Y0026541D01*
X0034233Y0026468D01*
X0034214Y0026397D01*
X0034191Y0026326D01*
X0034164Y0026256D01*
X0034134Y0026189D01*
X0034100Y0026122D01*
X0034062Y0026058D01*
X0034021Y0025996D01*
X0033977Y0025936D01*
X0033930Y0025878D01*
X0033880Y0025823D01*
X0033827Y0025771D01*
X0033772Y0025722D01*
X0033713Y0025675D01*
X0033653Y0025632D01*
X0033590Y0025592D01*
X0033525Y0025555D01*
X0033459Y0025522D01*
X0033391Y0025492D01*
X0033321Y0025466D01*
X0033250Y0025444D01*
X0033178Y0025426D01*
X0033105Y0025411D01*
X0033031Y0025400D01*
X0032957Y0025393D01*
X0032883Y0025390D01*
X0032883Y0025427D01*
X0032957Y0025430D01*
X0033030Y0025437D01*
X0033103Y0025448D01*
X0033175Y0025463D01*
X0033246Y0025482D01*
X0033316Y0025504D01*
X0033385Y0025530D01*
X0033453Y0025560D01*
X0033518Y0025593D01*
X0033582Y0025630D01*
X0033644Y0025671D01*
X0033703Y0025714D01*
X0033760Y0025761D01*
X0033815Y0025810D01*
X0033866Y0025863D01*
X0033915Y0025918D01*
X0033961Y0025976D01*
X0034004Y0026036D01*
X0034043Y0026098D01*
X0034079Y0026162D01*
X0034111Y0026229D01*
X0034140Y0026296D01*
X0034165Y0026366D01*
X0034187Y0026436D01*
X0034204Y0026508D01*
X0034218Y0026580D01*
X0034228Y0026653D01*
X0034234Y0026726D01*
X0034236Y0026800D01*
X0034234Y0026874D01*
X0034228Y0026947D01*
X0034218Y0027020D01*
X0034204Y0027092D01*
X0034187Y0027164D01*
X0034165Y0027234D01*
X0034140Y0027304D01*
X0034111Y0027371D01*
X0034079Y0027438D01*
X0034043Y0027502D01*
X0034004Y0027564D01*
X0033961Y0027624D01*
X0033915Y0027682D01*
X0033866Y0027737D01*
X0033815Y0027790D01*
X0033760Y0027839D01*
X0033703Y0027886D01*
X0033644Y0027929D01*
X0033582Y0027970D01*
X0033518Y0028007D01*
X0033453Y0028040D01*
X0033385Y0028070D01*
X0033316Y0028096D01*
X0033246Y0028118D01*
X0033175Y0028137D01*
X0033103Y0028152D01*
X0033030Y0028163D01*
X0032957Y0028170D01*
X0032883Y0028173D01*
X0032883Y0028136D01*
X0032956Y0028133D01*
X0033028Y0028126D01*
X0033101Y0028115D01*
X0033172Y0028100D01*
X0033242Y0028081D01*
X0033312Y0028058D01*
X0033380Y0028032D01*
X0033446Y0028002D01*
X0033511Y0027968D01*
X0033574Y0027931D01*
X0033634Y0027891D01*
X0033693Y0027847D01*
X0033749Y0027800D01*
X0033802Y0027750D01*
X0033852Y0027698D01*
X0033900Y0027643D01*
X0033944Y0027585D01*
X0033985Y0027525D01*
X0034023Y0027462D01*
X0034058Y0027398D01*
X0034089Y0027332D01*
X0034116Y0027264D01*
X0034139Y0027195D01*
X0034159Y0027125D01*
X0034175Y0027054D01*
X0034187Y0026982D01*
X0034195Y0026909D01*
X0034199Y0026836D01*
X0034199Y0026764D01*
X0034195Y0026691D01*
X0034187Y0026618D01*
X0034175Y0026546D01*
X0034159Y0026475D01*
X0034139Y0026405D01*
X0034116Y0026336D01*
X0034089Y0026268D01*
X0034058Y0026202D01*
X0034023Y0026138D01*
X0033985Y0026075D01*
X0033944Y0026015D01*
X0033900Y0025957D01*
X0033852Y0025902D01*
X0033802Y0025850D01*
X0033749Y0025800D01*
X0033693Y0025753D01*
X0033634Y0025709D01*
X0033574Y0025669D01*
X0033511Y0025632D01*
X0033446Y0025598D01*
X0033380Y0025568D01*
X0033312Y0025542D01*
X0033242Y0025519D01*
X0033172Y0025500D01*
X0033101Y0025485D01*
X0033028Y0025474D01*
X0032956Y0025467D01*
X0032883Y0025464D01*
X0032883Y0025501D01*
X0032954Y0025504D01*
X0033024Y0025511D01*
X0033094Y0025522D01*
X0033164Y0025536D01*
X0033232Y0025555D01*
X0033300Y0025577D01*
X0033366Y0025602D01*
X0033430Y0025631D01*
X0033493Y0025664D01*
X0033554Y0025700D01*
X0033613Y0025740D01*
X0033670Y0025782D01*
X0033724Y0025828D01*
X0033776Y0025876D01*
X0033825Y0025927D01*
X0033871Y0025981D01*
X0033914Y0026037D01*
X0033954Y0026096D01*
X0033991Y0026156D01*
X0034025Y0026219D01*
X0034055Y0026283D01*
X0034081Y0026349D01*
X0034104Y0026416D01*
X0034123Y0026484D01*
X0034138Y0026553D01*
X0034150Y0026623D01*
X0034158Y0026694D01*
X0034162Y0026765D01*
X0034162Y0026835D01*
X0034158Y0026906D01*
X0034150Y0026977D01*
X0034138Y0027047D01*
X0034123Y0027116D01*
X0034104Y0027184D01*
X0034081Y0027251D01*
X0034055Y0027317D01*
X0034025Y0027381D01*
X0033991Y0027444D01*
X0033954Y0027504D01*
X0033914Y0027563D01*
X0033871Y0027619D01*
X0033825Y0027673D01*
X0033776Y0027724D01*
X0033724Y0027772D01*
X0033670Y0027818D01*
X0033613Y0027860D01*
X0033554Y0027900D01*
X0033493Y0027936D01*
X0033430Y0027969D01*
X0033366Y0027998D01*
X0033300Y0028023D01*
X0033232Y0028045D01*
X0033164Y0028064D01*
X0033094Y0028078D01*
X0033024Y0028089D01*
X0032954Y0028096D01*
X0032883Y0028099D01*
X0032883Y0028062D01*
X0032953Y0028059D01*
X0033023Y0028052D01*
X0033092Y0028041D01*
X0033161Y0028026D01*
X0033228Y0028008D01*
X0033295Y0027986D01*
X0033360Y0027960D01*
X0033423Y0027931D01*
X0033485Y0027898D01*
X0033545Y0027862D01*
X0033603Y0027822D01*
X0033659Y0027780D01*
X0033712Y0027734D01*
X0033762Y0027685D01*
X0033810Y0027634D01*
X0033855Y0027580D01*
X0033897Y0027524D01*
X0033935Y0027465D01*
X0033971Y0027405D01*
X0034002Y0027342D01*
X0034031Y0027278D01*
X0034056Y0027213D01*
X0034077Y0027146D01*
X0034094Y0027078D01*
X0034108Y0027009D01*
X0034117Y0026940D01*
X0034123Y0026870D01*
X0034125Y0026800D01*
X0034123Y0026730D01*
X0034117Y0026660D01*
X0034108Y0026591D01*
X0034094Y0026522D01*
X0034077Y0026454D01*
X0034056Y0026387D01*
X0034031Y0026322D01*
X0034002Y0026258D01*
X0033971Y0026195D01*
X0033935Y0026135D01*
X0033897Y0026076D01*
X0033855Y0026020D01*
X0033810Y0025966D01*
X0033762Y0025915D01*
X0033712Y0025866D01*
X0033659Y0025820D01*
X0033603Y0025778D01*
X0033545Y0025738D01*
X0033485Y0025702D01*
X0033423Y0025669D01*
X0033360Y0025640D01*
X0033295Y0025614D01*
X0033228Y0025592D01*
X0033161Y0025574D01*
X0033092Y0025559D01*
X0033023Y0025548D01*
X0032953Y0025541D01*
X0032883Y0025538D01*
X0032883Y0025575D01*
X0032952Y0025578D01*
X0033021Y0025585D01*
X0033089Y0025596D01*
X0033157Y0025611D01*
X0033224Y0025629D01*
X0033289Y0025652D01*
X0033354Y0025678D01*
X0033416Y0025707D01*
X0033477Y0025740D01*
X0033536Y0025776D01*
X0033593Y0025816D01*
X0033647Y0025859D01*
X0033699Y0025905D01*
X0033748Y0025953D01*
X0033795Y0026005D01*
X0033838Y0026059D01*
X0033878Y0026115D01*
X0033916Y0026173D01*
X0033949Y0026234D01*
X0033980Y0026296D01*
X0034006Y0026360D01*
X0034029Y0026425D01*
X0034049Y0026492D01*
X0034064Y0026559D01*
X0034076Y0026627D01*
X0034084Y0026696D01*
X0034088Y0026765D01*
X0034088Y0026835D01*
X0034084Y0026904D01*
X0034076Y0026973D01*
X0034064Y0027041D01*
X0034049Y0027108D01*
X0034029Y0027175D01*
X0034006Y0027240D01*
X0033980Y0027304D01*
X0033949Y0027366D01*
X0033916Y0027427D01*
X0033878Y0027485D01*
X0033838Y0027541D01*
X0033795Y0027595D01*
X0033748Y0027647D01*
X0033699Y0027695D01*
X0033647Y0027741D01*
X0033593Y0027784D01*
X0033536Y0027824D01*
X0033477Y0027860D01*
X0033416Y0027893D01*
X0033354Y0027922D01*
X0033289Y0027948D01*
X0033224Y0027971D01*
X0033157Y0027989D01*
X0033089Y0028004D01*
X0033021Y0028015D01*
X0032952Y0028022D01*
X0032883Y0028025D01*
X0032882Y0033243D02*
X0032882Y0033603D01*
X0032883Y0033602D02*
X0032952Y0033605D01*
X0033020Y0033612D01*
X0033089Y0033623D01*
X0033156Y0033638D01*
X0033222Y0033657D01*
X0033287Y0033680D01*
X0033351Y0033706D01*
X0033413Y0033736D01*
X0033474Y0033769D01*
X0033532Y0033806D01*
X0033588Y0033846D01*
X0033642Y0033889D01*
X0033693Y0033936D01*
X0033741Y0033985D01*
X0033786Y0034037D01*
X0033829Y0034091D01*
X0033868Y0034148D01*
X0033904Y0034207D01*
X0033936Y0034268D01*
X0033965Y0034330D01*
X0033990Y0034394D01*
X0034012Y0034460D01*
X0034029Y0034527D01*
X0034043Y0034594D01*
X0034053Y0034662D01*
X0034059Y0034731D01*
X0034061Y0034800D01*
X0034059Y0034869D01*
X0034053Y0034938D01*
X0034043Y0035006D01*
X0034029Y0035073D01*
X0034012Y0035140D01*
X0033990Y0035206D01*
X0033965Y0035270D01*
X0033936Y0035332D01*
X0033904Y0035393D01*
X0033868Y0035452D01*
X0033829Y0035509D01*
X0033786Y0035563D01*
X0033741Y0035615D01*
X0033693Y0035664D01*
X0033642Y0035711D01*
X0033588Y0035754D01*
X0033532Y0035794D01*
X0033474Y0035831D01*
X0033413Y0035864D01*
X0033351Y0035894D01*
X0033287Y0035920D01*
X0033222Y0035943D01*
X0033156Y0035962D01*
X0033089Y0035977D01*
X0033020Y0035988D01*
X0032952Y0035995D01*
X0032883Y0035998D01*
X0032882Y0036357D01*
X0032883Y0036358D01*
X0032961Y0036355D01*
X0033039Y0036348D01*
X0033117Y0036337D01*
X0033194Y0036323D01*
X0033270Y0036304D01*
X0033345Y0036282D01*
X0033419Y0036256D01*
X0033491Y0036226D01*
X0033562Y0036192D01*
X0033631Y0036156D01*
X0033698Y0036115D01*
X0033763Y0036072D01*
X0033826Y0036025D01*
X0033886Y0035975D01*
X0033944Y0035922D01*
X0033999Y0035866D01*
X0034051Y0035808D01*
X0034100Y0035747D01*
X0034146Y0035684D01*
X0034189Y0035618D01*
X0034228Y0035550D01*
X0034264Y0035481D01*
X0034297Y0035410D01*
X0034326Y0035337D01*
X0034351Y0035263D01*
X0034372Y0035187D01*
X0034390Y0035111D01*
X0034403Y0035034D01*
X0034413Y0034956D01*
X0034419Y0034878D01*
X0034421Y0034800D01*
X0034419Y0034722D01*
X0034413Y0034644D01*
X0034403Y0034566D01*
X0034390Y0034489D01*
X0034372Y0034413D01*
X0034351Y0034337D01*
X0034326Y0034263D01*
X0034297Y0034190D01*
X0034264Y0034119D01*
X0034228Y0034050D01*
X0034189Y0033982D01*
X0034146Y0033916D01*
X0034100Y0033853D01*
X0034051Y0033792D01*
X0033999Y0033734D01*
X0033944Y0033678D01*
X0033886Y0033625D01*
X0033826Y0033575D01*
X0033763Y0033528D01*
X0033698Y0033485D01*
X0033631Y0033444D01*
X0033562Y0033408D01*
X0033491Y0033374D01*
X0033419Y0033344D01*
X0033345Y0033318D01*
X0033270Y0033296D01*
X0033194Y0033277D01*
X0033117Y0033263D01*
X0033039Y0033252D01*
X0032961Y0033245D01*
X0032883Y0033242D01*
X0032883Y0033279D01*
X0032961Y0033282D01*
X0033038Y0033289D01*
X0033115Y0033300D01*
X0033191Y0033315D01*
X0033267Y0033333D01*
X0033341Y0033356D01*
X0033414Y0033382D01*
X0033486Y0033412D01*
X0033556Y0033446D01*
X0033624Y0033483D01*
X0033690Y0033524D01*
X0033754Y0033567D01*
X0033816Y0033615D01*
X0033875Y0033665D01*
X0033932Y0033718D01*
X0033986Y0033774D01*
X0034037Y0033832D01*
X0034084Y0033894D01*
X0034129Y0033957D01*
X0034171Y0034023D01*
X0034208Y0034091D01*
X0034243Y0034160D01*
X0034274Y0034232D01*
X0034301Y0034304D01*
X0034324Y0034378D01*
X0034344Y0034454D01*
X0034360Y0034530D01*
X0034372Y0034606D01*
X0034380Y0034684D01*
X0034384Y0034761D01*
X0034384Y0034839D01*
X0034380Y0034916D01*
X0034372Y0034994D01*
X0034360Y0035070D01*
X0034344Y0035146D01*
X0034324Y0035222D01*
X0034301Y0035296D01*
X0034274Y0035368D01*
X0034243Y0035440D01*
X0034208Y0035509D01*
X0034171Y0035577D01*
X0034129Y0035643D01*
X0034084Y0035706D01*
X0034037Y0035768D01*
X0033986Y0035826D01*
X0033932Y0035882D01*
X0033875Y0035935D01*
X0033816Y0035985D01*
X0033754Y0036033D01*
X0033690Y0036076D01*
X0033624Y0036117D01*
X0033556Y0036154D01*
X0033486Y0036188D01*
X0033414Y0036218D01*
X0033341Y0036244D01*
X0033267Y0036267D01*
X0033191Y0036285D01*
X0033115Y0036300D01*
X0033038Y0036311D01*
X0032961Y0036318D01*
X0032883Y0036321D01*
X0032883Y0036284D01*
X0032959Y0036281D01*
X0033034Y0036274D01*
X0033109Y0036263D01*
X0033184Y0036249D01*
X0033257Y0036231D01*
X0033330Y0036209D01*
X0033401Y0036183D01*
X0033471Y0036154D01*
X0033539Y0036121D01*
X0033606Y0036085D01*
X0033670Y0036045D01*
X0033733Y0036002D01*
X0033793Y0035956D01*
X0033851Y0035908D01*
X0033906Y0035856D01*
X0033959Y0035801D01*
X0034008Y0035744D01*
X0034055Y0035684D01*
X0034098Y0035622D01*
X0034139Y0035558D01*
X0034176Y0035492D01*
X0034209Y0035424D01*
X0034240Y0035355D01*
X0034266Y0035284D01*
X0034289Y0035211D01*
X0034308Y0035138D01*
X0034323Y0035064D01*
X0034335Y0034989D01*
X0034343Y0034914D01*
X0034347Y0034838D01*
X0034347Y0034762D01*
X0034343Y0034686D01*
X0034335Y0034611D01*
X0034323Y0034536D01*
X0034308Y0034462D01*
X0034289Y0034389D01*
X0034266Y0034316D01*
X0034240Y0034245D01*
X0034209Y0034176D01*
X0034176Y0034108D01*
X0034139Y0034042D01*
X0034098Y0033978D01*
X0034055Y0033916D01*
X0034008Y0033856D01*
X0033959Y0033799D01*
X0033906Y0033744D01*
X0033851Y0033692D01*
X0033793Y0033644D01*
X0033733Y0033598D01*
X0033670Y0033555D01*
X0033606Y0033515D01*
X0033539Y0033479D01*
X0033471Y0033446D01*
X0033401Y0033417D01*
X0033330Y0033391D01*
X0033257Y0033369D01*
X0033184Y0033351D01*
X0033109Y0033337D01*
X0033034Y0033326D01*
X0032959Y0033319D01*
X0032883Y0033316D01*
X0032883Y0033353D01*
X0032958Y0033356D01*
X0033033Y0033363D01*
X0033107Y0033374D01*
X0033181Y0033388D01*
X0033254Y0033407D01*
X0033325Y0033429D01*
X0033396Y0033455D01*
X0033465Y0033484D01*
X0033532Y0033517D01*
X0033598Y0033554D01*
X0033662Y0033593D01*
X0033723Y0033636D01*
X0033782Y0033683D01*
X0033839Y0033732D01*
X0033893Y0033784D01*
X0033945Y0033839D01*
X0033993Y0033896D01*
X0034038Y0033956D01*
X0034081Y0034018D01*
X0034119Y0034082D01*
X0034155Y0034148D01*
X0034187Y0034216D01*
X0034216Y0034286D01*
X0034240Y0034357D01*
X0034262Y0034429D01*
X0034279Y0034502D01*
X0034292Y0034576D01*
X0034302Y0034650D01*
X0034308Y0034725D01*
X0034310Y0034800D01*
X0034308Y0034875D01*
X0034302Y0034950D01*
X0034292Y0035024D01*
X0034279Y0035098D01*
X0034262Y0035171D01*
X0034240Y0035243D01*
X0034216Y0035314D01*
X0034187Y0035384D01*
X0034155Y0035452D01*
X0034119Y0035518D01*
X0034081Y0035582D01*
X0034038Y0035644D01*
X0033993Y0035704D01*
X0033945Y0035761D01*
X0033893Y0035816D01*
X0033839Y0035868D01*
X0033782Y0035917D01*
X0033723Y0035964D01*
X0033662Y0036007D01*
X0033598Y0036046D01*
X0033532Y0036083D01*
X0033465Y0036116D01*
X0033396Y0036145D01*
X0033325Y0036171D01*
X0033254Y0036193D01*
X0033181Y0036212D01*
X0033107Y0036226D01*
X0033033Y0036237D01*
X0032958Y0036244D01*
X0032883Y0036247D01*
X0032883Y0036210D01*
X0032957Y0036207D01*
X0033031Y0036200D01*
X0033105Y0036189D01*
X0033178Y0036174D01*
X0033250Y0036156D01*
X0033321Y0036134D01*
X0033391Y0036108D01*
X0033459Y0036078D01*
X0033525Y0036045D01*
X0033590Y0036008D01*
X0033653Y0035968D01*
X0033713Y0035925D01*
X0033772Y0035878D01*
X0033827Y0035829D01*
X0033880Y0035777D01*
X0033930Y0035722D01*
X0033977Y0035664D01*
X0034021Y0035604D01*
X0034062Y0035542D01*
X0034100Y0035478D01*
X0034134Y0035411D01*
X0034164Y0035344D01*
X0034191Y0035274D01*
X0034214Y0035203D01*
X0034233Y0035132D01*
X0034249Y0035059D01*
X0034261Y0034985D01*
X0034269Y0034911D01*
X0034273Y0034837D01*
X0034273Y0034763D01*
X0034269Y0034689D01*
X0034261Y0034615D01*
X0034249Y0034541D01*
X0034233Y0034468D01*
X0034214Y0034397D01*
X0034191Y0034326D01*
X0034164Y0034256D01*
X0034134Y0034189D01*
X0034100Y0034122D01*
X0034062Y0034058D01*
X0034021Y0033996D01*
X0033977Y0033936D01*
X0033930Y0033878D01*
X0033880Y0033823D01*
X0033827Y0033771D01*
X0033772Y0033722D01*
X0033713Y0033675D01*
X0033653Y0033632D01*
X0033590Y0033592D01*
X0033525Y0033555D01*
X0033459Y0033522D01*
X0033391Y0033492D01*
X0033321Y0033466D01*
X0033250Y0033444D01*
X0033178Y0033426D01*
X0033105Y0033411D01*
X0033031Y0033400D01*
X0032957Y0033393D01*
X0032883Y0033390D01*
X0032883Y0033427D01*
X0032957Y0033430D01*
X0033030Y0033437D01*
X0033103Y0033448D01*
X0033175Y0033463D01*
X0033246Y0033482D01*
X0033316Y0033504D01*
X0033385Y0033530D01*
X0033453Y0033560D01*
X0033518Y0033593D01*
X0033582Y0033630D01*
X0033644Y0033671D01*
X0033703Y0033714D01*
X0033760Y0033761D01*
X0033815Y0033810D01*
X0033866Y0033863D01*
X0033915Y0033918D01*
X0033961Y0033976D01*
X0034004Y0034036D01*
X0034043Y0034098D01*
X0034079Y0034162D01*
X0034111Y0034229D01*
X0034140Y0034296D01*
X0034165Y0034366D01*
X0034187Y0034436D01*
X0034204Y0034508D01*
X0034218Y0034580D01*
X0034228Y0034653D01*
X0034234Y0034726D01*
X0034236Y0034800D01*
X0034234Y0034874D01*
X0034228Y0034947D01*
X0034218Y0035020D01*
X0034204Y0035092D01*
X0034187Y0035164D01*
X0034165Y0035234D01*
X0034140Y0035304D01*
X0034111Y0035371D01*
X0034079Y0035438D01*
X0034043Y0035502D01*
X0034004Y0035564D01*
X0033961Y0035624D01*
X0033915Y0035682D01*
X0033866Y0035737D01*
X0033815Y0035790D01*
X0033760Y0035839D01*
X0033703Y0035886D01*
X0033644Y0035929D01*
X0033582Y0035970D01*
X0033518Y0036007D01*
X0033453Y0036040D01*
X0033385Y0036070D01*
X0033316Y0036096D01*
X0033246Y0036118D01*
X0033175Y0036137D01*
X0033103Y0036152D01*
X0033030Y0036163D01*
X0032957Y0036170D01*
X0032883Y0036173D01*
X0032883Y0036136D01*
X0032956Y0036133D01*
X0033028Y0036126D01*
X0033101Y0036115D01*
X0033172Y0036100D01*
X0033242Y0036081D01*
X0033312Y0036058D01*
X0033380Y0036032D01*
X0033446Y0036002D01*
X0033511Y0035968D01*
X0033574Y0035931D01*
X0033634Y0035891D01*
X0033693Y0035847D01*
X0033749Y0035800D01*
X0033802Y0035750D01*
X0033852Y0035698D01*
X0033900Y0035643D01*
X0033944Y0035585D01*
X0033985Y0035525D01*
X0034023Y0035462D01*
X0034058Y0035398D01*
X0034089Y0035332D01*
X0034116Y0035264D01*
X0034139Y0035195D01*
X0034159Y0035125D01*
X0034175Y0035054D01*
X0034187Y0034982D01*
X0034195Y0034909D01*
X0034199Y0034836D01*
X0034199Y0034764D01*
X0034195Y0034691D01*
X0034187Y0034618D01*
X0034175Y0034546D01*
X0034159Y0034475D01*
X0034139Y0034405D01*
X0034116Y0034336D01*
X0034089Y0034268D01*
X0034058Y0034202D01*
X0034023Y0034138D01*
X0033985Y0034075D01*
X0033944Y0034015D01*
X0033900Y0033957D01*
X0033852Y0033902D01*
X0033802Y0033850D01*
X0033749Y0033800D01*
X0033693Y0033753D01*
X0033634Y0033709D01*
X0033574Y0033669D01*
X0033511Y0033632D01*
X0033446Y0033598D01*
X0033380Y0033568D01*
X0033312Y0033542D01*
X0033242Y0033519D01*
X0033172Y0033500D01*
X0033101Y0033485D01*
X0033028Y0033474D01*
X0032956Y0033467D01*
X0032883Y0033464D01*
X0032883Y0033501D01*
X0032954Y0033504D01*
X0033024Y0033511D01*
X0033094Y0033522D01*
X0033164Y0033536D01*
X0033232Y0033555D01*
X0033300Y0033577D01*
X0033366Y0033602D01*
X0033430Y0033631D01*
X0033493Y0033664D01*
X0033554Y0033700D01*
X0033613Y0033740D01*
X0033670Y0033782D01*
X0033724Y0033828D01*
X0033776Y0033876D01*
X0033825Y0033927D01*
X0033871Y0033981D01*
X0033914Y0034037D01*
X0033954Y0034096D01*
X0033991Y0034156D01*
X0034025Y0034219D01*
X0034055Y0034283D01*
X0034081Y0034349D01*
X0034104Y0034416D01*
X0034123Y0034484D01*
X0034138Y0034553D01*
X0034150Y0034623D01*
X0034158Y0034694D01*
X0034162Y0034765D01*
X0034162Y0034835D01*
X0034158Y0034906D01*
X0034150Y0034977D01*
X0034138Y0035047D01*
X0034123Y0035116D01*
X0034104Y0035184D01*
X0034081Y0035251D01*
X0034055Y0035317D01*
X0034025Y0035381D01*
X0033991Y0035444D01*
X0033954Y0035504D01*
X0033914Y0035563D01*
X0033871Y0035619D01*
X0033825Y0035673D01*
X0033776Y0035724D01*
X0033724Y0035772D01*
X0033670Y0035818D01*
X0033613Y0035860D01*
X0033554Y0035900D01*
X0033493Y0035936D01*
X0033430Y0035969D01*
X0033366Y0035998D01*
X0033300Y0036023D01*
X0033232Y0036045D01*
X0033164Y0036064D01*
X0033094Y0036078D01*
X0033024Y0036089D01*
X0032954Y0036096D01*
X0032883Y0036099D01*
X0032883Y0036062D01*
X0032953Y0036059D01*
X0033023Y0036052D01*
X0033092Y0036041D01*
X0033161Y0036026D01*
X0033228Y0036008D01*
X0033295Y0035986D01*
X0033360Y0035960D01*
X0033423Y0035931D01*
X0033485Y0035898D01*
X0033545Y0035862D01*
X0033603Y0035822D01*
X0033659Y0035780D01*
X0033712Y0035734D01*
X0033762Y0035685D01*
X0033810Y0035634D01*
X0033855Y0035580D01*
X0033897Y0035524D01*
X0033935Y0035465D01*
X0033971Y0035405D01*
X0034002Y0035342D01*
X0034031Y0035278D01*
X0034056Y0035213D01*
X0034077Y0035146D01*
X0034094Y0035078D01*
X0034108Y0035009D01*
X0034117Y0034940D01*
X0034123Y0034870D01*
X0034125Y0034800D01*
X0034123Y0034730D01*
X0034117Y0034660D01*
X0034108Y0034591D01*
X0034094Y0034522D01*
X0034077Y0034454D01*
X0034056Y0034387D01*
X0034031Y0034322D01*
X0034002Y0034258D01*
X0033971Y0034195D01*
X0033935Y0034135D01*
X0033897Y0034076D01*
X0033855Y0034020D01*
X0033810Y0033966D01*
X0033762Y0033915D01*
X0033712Y0033866D01*
X0033659Y0033820D01*
X0033603Y0033778D01*
X0033545Y0033738D01*
X0033485Y0033702D01*
X0033423Y0033669D01*
X0033360Y0033640D01*
X0033295Y0033614D01*
X0033228Y0033592D01*
X0033161Y0033574D01*
X0033092Y0033559D01*
X0033023Y0033548D01*
X0032953Y0033541D01*
X0032883Y0033538D01*
X0032883Y0033575D01*
X0032952Y0033578D01*
X0033021Y0033585D01*
X0033089Y0033596D01*
X0033157Y0033611D01*
X0033224Y0033629D01*
X0033289Y0033652D01*
X0033354Y0033678D01*
X0033416Y0033707D01*
X0033477Y0033740D01*
X0033536Y0033776D01*
X0033593Y0033816D01*
X0033647Y0033859D01*
X0033699Y0033905D01*
X0033748Y0033953D01*
X0033795Y0034005D01*
X0033838Y0034059D01*
X0033878Y0034115D01*
X0033916Y0034173D01*
X0033949Y0034234D01*
X0033980Y0034296D01*
X0034006Y0034360D01*
X0034029Y0034425D01*
X0034049Y0034492D01*
X0034064Y0034559D01*
X0034076Y0034627D01*
X0034084Y0034696D01*
X0034088Y0034765D01*
X0034088Y0034835D01*
X0034084Y0034904D01*
X0034076Y0034973D01*
X0034064Y0035041D01*
X0034049Y0035108D01*
X0034029Y0035175D01*
X0034006Y0035240D01*
X0033980Y0035304D01*
X0033949Y0035366D01*
X0033916Y0035427D01*
X0033878Y0035485D01*
X0033838Y0035541D01*
X0033795Y0035595D01*
X0033748Y0035647D01*
X0033699Y0035695D01*
X0033647Y0035741D01*
X0033593Y0035784D01*
X0033536Y0035824D01*
X0033477Y0035860D01*
X0033416Y0035893D01*
X0033354Y0035922D01*
X0033289Y0035948D01*
X0033224Y0035971D01*
X0033157Y0035989D01*
X0033089Y0036004D01*
X0033021Y0036015D01*
X0032952Y0036022D01*
X0032883Y0036025D01*
X0040718Y0036357D02*
X0040718Y0035997D01*
X0040717Y0035998D02*
X0040648Y0035995D01*
X0040580Y0035988D01*
X0040511Y0035977D01*
X0040444Y0035962D01*
X0040378Y0035943D01*
X0040313Y0035920D01*
X0040249Y0035894D01*
X0040187Y0035864D01*
X0040126Y0035831D01*
X0040068Y0035794D01*
X0040012Y0035754D01*
X0039958Y0035711D01*
X0039907Y0035664D01*
X0039859Y0035615D01*
X0039814Y0035563D01*
X0039771Y0035509D01*
X0039732Y0035452D01*
X0039696Y0035393D01*
X0039664Y0035332D01*
X0039635Y0035270D01*
X0039610Y0035206D01*
X0039588Y0035140D01*
X0039571Y0035073D01*
X0039557Y0035006D01*
X0039547Y0034938D01*
X0039541Y0034869D01*
X0039539Y0034800D01*
X0039541Y0034731D01*
X0039547Y0034662D01*
X0039557Y0034594D01*
X0039571Y0034527D01*
X0039588Y0034460D01*
X0039610Y0034394D01*
X0039635Y0034330D01*
X0039664Y0034268D01*
X0039696Y0034207D01*
X0039732Y0034148D01*
X0039771Y0034091D01*
X0039814Y0034037D01*
X0039859Y0033985D01*
X0039907Y0033936D01*
X0039958Y0033889D01*
X0040012Y0033846D01*
X0040068Y0033806D01*
X0040126Y0033769D01*
X0040187Y0033736D01*
X0040249Y0033706D01*
X0040313Y0033680D01*
X0040378Y0033657D01*
X0040444Y0033638D01*
X0040511Y0033623D01*
X0040580Y0033612D01*
X0040648Y0033605D01*
X0040717Y0033602D01*
X0040718Y0033243D01*
X0040717Y0033242D01*
X0040639Y0033245D01*
X0040561Y0033252D01*
X0040483Y0033263D01*
X0040406Y0033277D01*
X0040330Y0033296D01*
X0040255Y0033318D01*
X0040181Y0033344D01*
X0040109Y0033374D01*
X0040038Y0033408D01*
X0039969Y0033444D01*
X0039902Y0033485D01*
X0039837Y0033528D01*
X0039774Y0033575D01*
X0039714Y0033625D01*
X0039656Y0033678D01*
X0039601Y0033734D01*
X0039549Y0033792D01*
X0039500Y0033853D01*
X0039454Y0033916D01*
X0039411Y0033982D01*
X0039372Y0034050D01*
X0039336Y0034119D01*
X0039303Y0034190D01*
X0039274Y0034263D01*
X0039249Y0034337D01*
X0039228Y0034413D01*
X0039210Y0034489D01*
X0039197Y0034566D01*
X0039187Y0034644D01*
X0039181Y0034722D01*
X0039179Y0034800D01*
X0039181Y0034878D01*
X0039187Y0034956D01*
X0039197Y0035034D01*
X0039210Y0035111D01*
X0039228Y0035187D01*
X0039249Y0035263D01*
X0039274Y0035337D01*
X0039303Y0035410D01*
X0039336Y0035481D01*
X0039372Y0035550D01*
X0039411Y0035618D01*
X0039454Y0035684D01*
X0039500Y0035747D01*
X0039549Y0035808D01*
X0039601Y0035866D01*
X0039656Y0035922D01*
X0039714Y0035975D01*
X0039774Y0036025D01*
X0039837Y0036072D01*
X0039902Y0036115D01*
X0039969Y0036156D01*
X0040038Y0036192D01*
X0040109Y0036226D01*
X0040181Y0036256D01*
X0040255Y0036282D01*
X0040330Y0036304D01*
X0040406Y0036323D01*
X0040483Y0036337D01*
X0040561Y0036348D01*
X0040639Y0036355D01*
X0040717Y0036358D01*
X0040717Y0036321D01*
X0040639Y0036318D01*
X0040562Y0036311D01*
X0040485Y0036300D01*
X0040409Y0036285D01*
X0040333Y0036267D01*
X0040259Y0036244D01*
X0040186Y0036218D01*
X0040114Y0036188D01*
X0040044Y0036154D01*
X0039976Y0036117D01*
X0039910Y0036076D01*
X0039846Y0036033D01*
X0039784Y0035985D01*
X0039725Y0035935D01*
X0039668Y0035882D01*
X0039614Y0035826D01*
X0039563Y0035768D01*
X0039516Y0035706D01*
X0039471Y0035643D01*
X0039429Y0035577D01*
X0039392Y0035509D01*
X0039357Y0035440D01*
X0039326Y0035368D01*
X0039299Y0035296D01*
X0039276Y0035222D01*
X0039256Y0035146D01*
X0039240Y0035070D01*
X0039228Y0034994D01*
X0039220Y0034916D01*
X0039216Y0034839D01*
X0039216Y0034761D01*
X0039220Y0034684D01*
X0039228Y0034606D01*
X0039240Y0034530D01*
X0039256Y0034454D01*
X0039276Y0034378D01*
X0039299Y0034304D01*
X0039326Y0034232D01*
X0039357Y0034160D01*
X0039392Y0034091D01*
X0039429Y0034023D01*
X0039471Y0033957D01*
X0039516Y0033894D01*
X0039563Y0033832D01*
X0039614Y0033774D01*
X0039668Y0033718D01*
X0039725Y0033665D01*
X0039784Y0033615D01*
X0039846Y0033567D01*
X0039910Y0033524D01*
X0039976Y0033483D01*
X0040044Y0033446D01*
X0040114Y0033412D01*
X0040186Y0033382D01*
X0040259Y0033356D01*
X0040333Y0033333D01*
X0040409Y0033315D01*
X0040485Y0033300D01*
X0040562Y0033289D01*
X0040639Y0033282D01*
X0040717Y0033279D01*
X0040717Y0033316D01*
X0040641Y0033319D01*
X0040566Y0033326D01*
X0040491Y0033337D01*
X0040416Y0033351D01*
X0040343Y0033369D01*
X0040270Y0033391D01*
X0040199Y0033417D01*
X0040129Y0033446D01*
X0040061Y0033479D01*
X0039994Y0033515D01*
X0039930Y0033555D01*
X0039867Y0033598D01*
X0039807Y0033644D01*
X0039749Y0033692D01*
X0039694Y0033744D01*
X0039641Y0033799D01*
X0039592Y0033856D01*
X0039545Y0033916D01*
X0039502Y0033978D01*
X0039461Y0034042D01*
X0039424Y0034108D01*
X0039391Y0034176D01*
X0039360Y0034245D01*
X0039334Y0034316D01*
X0039311Y0034389D01*
X0039292Y0034462D01*
X0039277Y0034536D01*
X0039265Y0034611D01*
X0039257Y0034686D01*
X0039253Y0034762D01*
X0039253Y0034838D01*
X0039257Y0034914D01*
X0039265Y0034989D01*
X0039277Y0035064D01*
X0039292Y0035138D01*
X0039311Y0035211D01*
X0039334Y0035284D01*
X0039360Y0035355D01*
X0039391Y0035424D01*
X0039424Y0035492D01*
X0039461Y0035558D01*
X0039502Y0035622D01*
X0039545Y0035684D01*
X0039592Y0035744D01*
X0039641Y0035801D01*
X0039694Y0035856D01*
X0039749Y0035908D01*
X0039807Y0035956D01*
X0039867Y0036002D01*
X0039930Y0036045D01*
X0039994Y0036085D01*
X0040061Y0036121D01*
X0040129Y0036154D01*
X0040199Y0036183D01*
X0040270Y0036209D01*
X0040343Y0036231D01*
X0040416Y0036249D01*
X0040491Y0036263D01*
X0040566Y0036274D01*
X0040641Y0036281D01*
X0040717Y0036284D01*
X0040717Y0036247D01*
X0040642Y0036244D01*
X0040567Y0036237D01*
X0040493Y0036226D01*
X0040419Y0036212D01*
X0040346Y0036193D01*
X0040275Y0036171D01*
X0040204Y0036145D01*
X0040135Y0036116D01*
X0040068Y0036083D01*
X0040002Y0036046D01*
X0039938Y0036007D01*
X0039877Y0035964D01*
X0039818Y0035917D01*
X0039761Y0035868D01*
X0039707Y0035816D01*
X0039655Y0035761D01*
X0039607Y0035704D01*
X0039562Y0035644D01*
X0039519Y0035582D01*
X0039481Y0035518D01*
X0039445Y0035452D01*
X0039413Y0035384D01*
X0039384Y0035314D01*
X0039360Y0035243D01*
X0039338Y0035171D01*
X0039321Y0035098D01*
X0039308Y0035024D01*
X0039298Y0034950D01*
X0039292Y0034875D01*
X0039290Y0034800D01*
X0039292Y0034725D01*
X0039298Y0034650D01*
X0039308Y0034576D01*
X0039321Y0034502D01*
X0039338Y0034429D01*
X0039360Y0034357D01*
X0039384Y0034286D01*
X0039413Y0034216D01*
X0039445Y0034148D01*
X0039481Y0034082D01*
X0039519Y0034018D01*
X0039562Y0033956D01*
X0039607Y0033896D01*
X0039655Y0033839D01*
X0039707Y0033784D01*
X0039761Y0033732D01*
X0039818Y0033683D01*
X0039877Y0033636D01*
X0039938Y0033593D01*
X0040002Y0033554D01*
X0040068Y0033517D01*
X0040135Y0033484D01*
X0040204Y0033455D01*
X0040275Y0033429D01*
X0040346Y0033407D01*
X0040419Y0033388D01*
X0040493Y0033374D01*
X0040567Y0033363D01*
X0040642Y0033356D01*
X0040717Y0033353D01*
X0040717Y0033390D01*
X0040643Y0033393D01*
X0040569Y0033400D01*
X0040495Y0033411D01*
X0040422Y0033426D01*
X0040350Y0033444D01*
X0040279Y0033466D01*
X0040209Y0033492D01*
X0040141Y0033522D01*
X0040075Y0033555D01*
X0040010Y0033592D01*
X0039947Y0033632D01*
X0039887Y0033675D01*
X0039828Y0033722D01*
X0039773Y0033771D01*
X0039720Y0033823D01*
X0039670Y0033878D01*
X0039623Y0033936D01*
X0039579Y0033996D01*
X0039538Y0034058D01*
X0039500Y0034122D01*
X0039466Y0034189D01*
X0039436Y0034256D01*
X0039409Y0034326D01*
X0039386Y0034397D01*
X0039367Y0034468D01*
X0039351Y0034541D01*
X0039339Y0034615D01*
X0039331Y0034689D01*
X0039327Y0034763D01*
X0039327Y0034837D01*
X0039331Y0034911D01*
X0039339Y0034985D01*
X0039351Y0035059D01*
X0039367Y0035132D01*
X0039386Y0035203D01*
X0039409Y0035274D01*
X0039436Y0035344D01*
X0039466Y0035411D01*
X0039500Y0035478D01*
X0039538Y0035542D01*
X0039579Y0035604D01*
X0039623Y0035664D01*
X0039670Y0035722D01*
X0039720Y0035777D01*
X0039773Y0035829D01*
X0039828Y0035878D01*
X0039887Y0035925D01*
X0039947Y0035968D01*
X0040010Y0036008D01*
X0040075Y0036045D01*
X0040141Y0036078D01*
X0040209Y0036108D01*
X0040279Y0036134D01*
X0040350Y0036156D01*
X0040422Y0036174D01*
X0040495Y0036189D01*
X0040569Y0036200D01*
X0040643Y0036207D01*
X0040717Y0036210D01*
X0040717Y0036173D01*
X0040643Y0036170D01*
X0040570Y0036163D01*
X0040497Y0036152D01*
X0040425Y0036137D01*
X0040354Y0036118D01*
X0040284Y0036096D01*
X0040215Y0036070D01*
X0040147Y0036040D01*
X0040082Y0036007D01*
X0040018Y0035970D01*
X0039956Y0035929D01*
X0039897Y0035886D01*
X0039840Y0035839D01*
X0039785Y0035790D01*
X0039734Y0035737D01*
X0039685Y0035682D01*
X0039639Y0035624D01*
X0039596Y0035564D01*
X0039557Y0035502D01*
X0039521Y0035438D01*
X0039489Y0035371D01*
X0039460Y0035304D01*
X0039435Y0035234D01*
X0039413Y0035164D01*
X0039396Y0035092D01*
X0039382Y0035020D01*
X0039372Y0034947D01*
X0039366Y0034874D01*
X0039364Y0034800D01*
X0039366Y0034726D01*
X0039372Y0034653D01*
X0039382Y0034580D01*
X0039396Y0034508D01*
X0039413Y0034436D01*
X0039435Y0034366D01*
X0039460Y0034296D01*
X0039489Y0034229D01*
X0039521Y0034162D01*
X0039557Y0034098D01*
X0039596Y0034036D01*
X0039639Y0033976D01*
X0039685Y0033918D01*
X0039734Y0033863D01*
X0039785Y0033810D01*
X0039840Y0033761D01*
X0039897Y0033714D01*
X0039956Y0033671D01*
X0040018Y0033630D01*
X0040082Y0033593D01*
X0040147Y0033560D01*
X0040215Y0033530D01*
X0040284Y0033504D01*
X0040354Y0033482D01*
X0040425Y0033463D01*
X0040497Y0033448D01*
X0040570Y0033437D01*
X0040643Y0033430D01*
X0040717Y0033427D01*
X0040717Y0033464D01*
X0040644Y0033467D01*
X0040572Y0033474D01*
X0040499Y0033485D01*
X0040428Y0033500D01*
X0040358Y0033519D01*
X0040288Y0033542D01*
X0040220Y0033568D01*
X0040154Y0033598D01*
X0040089Y0033632D01*
X0040026Y0033669D01*
X0039966Y0033709D01*
X0039907Y0033753D01*
X0039851Y0033800D01*
X0039798Y0033850D01*
X0039748Y0033902D01*
X0039700Y0033957D01*
X0039656Y0034015D01*
X0039615Y0034075D01*
X0039577Y0034138D01*
X0039542Y0034202D01*
X0039511Y0034268D01*
X0039484Y0034336D01*
X0039461Y0034405D01*
X0039441Y0034475D01*
X0039425Y0034546D01*
X0039413Y0034618D01*
X0039405Y0034691D01*
X0039401Y0034764D01*
X0039401Y0034836D01*
X0039405Y0034909D01*
X0039413Y0034982D01*
X0039425Y0035054D01*
X0039441Y0035125D01*
X0039461Y0035195D01*
X0039484Y0035264D01*
X0039511Y0035332D01*
X0039542Y0035398D01*
X0039577Y0035462D01*
X0039615Y0035525D01*
X0039656Y0035585D01*
X0039700Y0035643D01*
X0039748Y0035698D01*
X0039798Y0035750D01*
X0039851Y0035800D01*
X0039907Y0035847D01*
X0039966Y0035891D01*
X0040026Y0035931D01*
X0040089Y0035968D01*
X0040154Y0036002D01*
X0040220Y0036032D01*
X0040288Y0036058D01*
X0040358Y0036081D01*
X0040428Y0036100D01*
X0040499Y0036115D01*
X0040572Y0036126D01*
X0040644Y0036133D01*
X0040717Y0036136D01*
X0040717Y0036099D01*
X0040646Y0036096D01*
X0040576Y0036089D01*
X0040506Y0036078D01*
X0040436Y0036064D01*
X0040368Y0036045D01*
X0040300Y0036023D01*
X0040234Y0035998D01*
X0040170Y0035969D01*
X0040107Y0035936D01*
X0040046Y0035900D01*
X0039987Y0035860D01*
X0039930Y0035818D01*
X0039876Y0035772D01*
X0039824Y0035724D01*
X0039775Y0035673D01*
X0039729Y0035619D01*
X0039686Y0035563D01*
X0039646Y0035504D01*
X0039609Y0035444D01*
X0039575Y0035381D01*
X0039545Y0035317D01*
X0039519Y0035251D01*
X0039496Y0035184D01*
X0039477Y0035116D01*
X0039462Y0035047D01*
X0039450Y0034977D01*
X0039442Y0034906D01*
X0039438Y0034835D01*
X0039438Y0034765D01*
X0039442Y0034694D01*
X0039450Y0034623D01*
X0039462Y0034553D01*
X0039477Y0034484D01*
X0039496Y0034416D01*
X0039519Y0034349D01*
X0039545Y0034283D01*
X0039575Y0034219D01*
X0039609Y0034156D01*
X0039646Y0034096D01*
X0039686Y0034037D01*
X0039729Y0033981D01*
X0039775Y0033927D01*
X0039824Y0033876D01*
X0039876Y0033828D01*
X0039930Y0033782D01*
X0039987Y0033740D01*
X0040046Y0033700D01*
X0040107Y0033664D01*
X0040170Y0033631D01*
X0040234Y0033602D01*
X0040300Y0033577D01*
X0040368Y0033555D01*
X0040436Y0033536D01*
X0040506Y0033522D01*
X0040576Y0033511D01*
X0040646Y0033504D01*
X0040717Y0033501D01*
X0040717Y0033538D01*
X0040647Y0033541D01*
X0040577Y0033548D01*
X0040508Y0033559D01*
X0040439Y0033574D01*
X0040372Y0033592D01*
X0040305Y0033614D01*
X0040240Y0033640D01*
X0040177Y0033669D01*
X0040115Y0033702D01*
X0040055Y0033738D01*
X0039997Y0033778D01*
X0039941Y0033820D01*
X0039888Y0033866D01*
X0039838Y0033915D01*
X0039790Y0033966D01*
X0039745Y0034020D01*
X0039703Y0034076D01*
X0039665Y0034135D01*
X0039629Y0034195D01*
X0039598Y0034258D01*
X0039569Y0034322D01*
X0039544Y0034387D01*
X0039523Y0034454D01*
X0039506Y0034522D01*
X0039492Y0034591D01*
X0039483Y0034660D01*
X0039477Y0034730D01*
X0039475Y0034800D01*
X0039477Y0034870D01*
X0039483Y0034940D01*
X0039492Y0035009D01*
X0039506Y0035078D01*
X0039523Y0035146D01*
X0039544Y0035213D01*
X0039569Y0035278D01*
X0039598Y0035342D01*
X0039629Y0035405D01*
X0039665Y0035465D01*
X0039703Y0035524D01*
X0039745Y0035580D01*
X0039790Y0035634D01*
X0039838Y0035685D01*
X0039888Y0035734D01*
X0039941Y0035780D01*
X0039997Y0035822D01*
X0040055Y0035862D01*
X0040115Y0035898D01*
X0040177Y0035931D01*
X0040240Y0035960D01*
X0040305Y0035986D01*
X0040372Y0036008D01*
X0040439Y0036026D01*
X0040508Y0036041D01*
X0040577Y0036052D01*
X0040647Y0036059D01*
X0040717Y0036062D01*
X0040717Y0036025D01*
X0040648Y0036022D01*
X0040579Y0036015D01*
X0040511Y0036004D01*
X0040443Y0035989D01*
X0040376Y0035971D01*
X0040311Y0035948D01*
X0040246Y0035922D01*
X0040184Y0035893D01*
X0040123Y0035860D01*
X0040064Y0035824D01*
X0040007Y0035784D01*
X0039953Y0035741D01*
X0039901Y0035695D01*
X0039852Y0035647D01*
X0039805Y0035595D01*
X0039762Y0035541D01*
X0039722Y0035485D01*
X0039684Y0035427D01*
X0039651Y0035366D01*
X0039620Y0035304D01*
X0039594Y0035240D01*
X0039571Y0035175D01*
X0039551Y0035108D01*
X0039536Y0035041D01*
X0039524Y0034973D01*
X0039516Y0034904D01*
X0039512Y0034835D01*
X0039512Y0034765D01*
X0039516Y0034696D01*
X0039524Y0034627D01*
X0039536Y0034559D01*
X0039551Y0034492D01*
X0039571Y0034425D01*
X0039594Y0034360D01*
X0039620Y0034296D01*
X0039651Y0034234D01*
X0039684Y0034173D01*
X0039722Y0034115D01*
X0039762Y0034059D01*
X0039805Y0034005D01*
X0039852Y0033953D01*
X0039901Y0033905D01*
X0039953Y0033859D01*
X0040007Y0033816D01*
X0040064Y0033776D01*
X0040123Y0033740D01*
X0040184Y0033707D01*
X0040246Y0033678D01*
X0040311Y0033652D01*
X0040376Y0033629D01*
X0040443Y0033611D01*
X0040511Y0033596D01*
X0040579Y0033585D01*
X0040648Y0033578D01*
X0040717Y0033575D01*
D15*
X0039753Y0032979D03*
X0033847Y0032979D03*
X0033847Y0036621D03*
X0033847Y0028621D03*
X0033847Y0024979D03*
X0039753Y0024979D03*
X0070847Y0024979D03*
X0070847Y0028621D03*
X0076753Y0024979D03*
D16*
X0076261Y0025816D03*
X0076261Y0027784D03*
X0071339Y0027784D03*
X0071339Y0025816D03*
X0039261Y0025816D03*
X0039261Y0027784D03*
X0034339Y0027784D03*
X0034339Y0025816D03*
X0034339Y0033816D03*
X0034339Y0035784D03*
X0039261Y0035784D03*
X0039261Y0033816D03*
D17*
X0039113Y0034800D03*
X0034487Y0034800D03*
X0034487Y0026800D03*
X0039113Y0026800D03*
X0071487Y0026800D03*
X0076113Y0026800D03*
D18*
X0074194Y0026800D03*
X0037194Y0026800D03*
X0037194Y0034800D03*
D19*
X0039359Y0036572D03*
X0039359Y0028572D03*
X0076359Y0028572D03*
D20*
X0077589Y0028818D03*
X0040589Y0028818D03*
X0040589Y0036818D03*
D21*
X0026084Y0034820D03*
X0021484Y0034820D03*
X0021484Y0026820D03*
X0026084Y0026820D03*
X0026116Y0046780D03*
X0021516Y0046780D03*
X0087516Y0026780D03*
X0092116Y0026780D03*
D22*
X0089800Y0026800D03*
X0023800Y0026800D03*
X0023800Y0034800D03*
D23*
X0025400Y0032102D02*
X0026501Y0032102D01*
X0026868Y0031735D01*
X0026868Y0031001D01*
X0026501Y0030634D01*
X0025400Y0030634D01*
X0026134Y0030634D02*
X0026868Y0029900D01*
X0027610Y0029900D02*
X0029078Y0031368D01*
X0029078Y0031735D01*
X0028711Y0032102D01*
X0027977Y0032102D01*
X0027610Y0031735D01*
X0025400Y0032102D02*
X0025400Y0029900D01*
X0027610Y0029900D02*
X0029078Y0029900D01*
X0029078Y0037900D02*
X0027610Y0037900D01*
X0028344Y0037900D02*
X0028344Y0040102D01*
X0027610Y0039368D01*
X0026868Y0039735D02*
X0026868Y0039001D01*
X0026501Y0038634D01*
X0025400Y0038634D01*
X0026134Y0038634D02*
X0026868Y0037900D01*
X0025400Y0037900D02*
X0025400Y0040102D01*
X0026501Y0040102D01*
X0026868Y0039735D01*
X0036265Y0048980D02*
X0037733Y0048980D01*
X0038100Y0049347D01*
X0038100Y0050081D01*
X0037733Y0050448D01*
X0038100Y0051190D02*
X0038100Y0052658D01*
X0038100Y0051924D02*
X0035898Y0051924D01*
X0036632Y0051190D01*
X0036265Y0050448D02*
X0035898Y0050081D01*
X0035898Y0049347D01*
X0036265Y0048980D01*
X0029078Y0049900D02*
X0027610Y0049900D01*
X0028344Y0049900D02*
X0028344Y0052102D01*
X0027610Y0051368D01*
X0026868Y0049900D02*
X0025400Y0049900D01*
X0025400Y0052102D01*
X0036265Y0073980D02*
X0037733Y0073980D01*
X0038100Y0074347D01*
X0038100Y0075081D01*
X0037733Y0075448D01*
X0038100Y0076190D02*
X0036632Y0077658D01*
X0036265Y0077658D01*
X0035898Y0077291D01*
X0035898Y0076557D01*
X0036265Y0076190D01*
X0036265Y0075448D02*
X0035898Y0075081D01*
X0035898Y0074347D01*
X0036265Y0073980D01*
X0038100Y0076190D02*
X0038100Y0077658D01*
X0088980Y0023702D02*
X0090081Y0023702D01*
X0090448Y0023335D01*
X0090448Y0022601D01*
X0090081Y0022234D01*
X0088980Y0022234D01*
X0088980Y0021500D02*
X0088980Y0023702D01*
X0089714Y0022234D02*
X0090448Y0021500D01*
X0091190Y0021867D02*
X0091557Y0021500D01*
X0092291Y0021500D01*
X0092658Y0021867D01*
X0092658Y0022234D01*
X0092291Y0022601D01*
X0091924Y0022601D01*
X0092291Y0022601D02*
X0092658Y0022968D01*
X0092658Y0023335D01*
X0092291Y0023702D01*
X0091557Y0023702D01*
X0091190Y0023335D01*
D24*
X0040920Y0049800D02*
X0040680Y0049800D01*
X0040680Y0074800D02*
X0040920Y0074800D01*
D25*
X0040780Y0077084D03*
X0040780Y0072484D03*
X0040780Y0052084D03*
X0040780Y0047484D03*
D26*
X0071800Y0049300D02*
X0071800Y0044300D01*
X0074300Y0041800D01*
X0089300Y0041800D01*
X0091800Y0044300D01*
X0091800Y0049300D01*
X0089300Y0051800D01*
X0074300Y0051800D01*
X0071800Y0054300D01*
X0071800Y0059300D01*
X0074300Y0061800D01*
X0089300Y0061800D01*
X0091800Y0064300D01*
X0091800Y0069300D01*
X0089300Y0071800D01*
X0074300Y0071800D01*
X0071800Y0069300D01*
X0071800Y0064300D01*
X0074300Y0061800D01*
X0089300Y0061800D02*
X0091800Y0059300D01*
X0091800Y0054300D01*
X0089300Y0051800D01*
X0074300Y0051800D02*
X0071800Y0049300D01*
X0020407Y0063900D02*
X0020409Y0063928D01*
X0020415Y0063955D01*
X0020424Y0063981D01*
X0020437Y0064006D01*
X0020454Y0064029D01*
X0020473Y0064049D01*
X0020495Y0064066D01*
X0020519Y0064080D01*
X0020545Y0064090D01*
X0020572Y0064097D01*
X0020600Y0064100D01*
X0020628Y0064099D01*
X0020655Y0064094D01*
X0020682Y0064085D01*
X0020707Y0064073D01*
X0020730Y0064058D01*
X0020751Y0064039D01*
X0020769Y0064018D01*
X0020784Y0063994D01*
X0020795Y0063968D01*
X0020803Y0063942D01*
X0020807Y0063914D01*
X0020807Y0063886D01*
X0020803Y0063858D01*
X0020795Y0063832D01*
X0020784Y0063806D01*
X0020769Y0063782D01*
X0020751Y0063761D01*
X0020730Y0063742D01*
X0020707Y0063727D01*
X0020682Y0063715D01*
X0020655Y0063706D01*
X0020628Y0063701D01*
X0020600Y0063700D01*
X0020572Y0063703D01*
X0020545Y0063710D01*
X0020519Y0063720D01*
X0020495Y0063734D01*
X0020473Y0063751D01*
X0020454Y0063771D01*
X0020437Y0063794D01*
X0020424Y0063819D01*
X0020415Y0063845D01*
X0020409Y0063872D01*
X0020407Y0063900D01*
D27*
X0011800Y0064300D02*
X0009300Y0061800D01*
X0004300Y0061800D01*
X0001800Y0064300D01*
X0001800Y0069300D01*
X0004300Y0071800D01*
X0001800Y0074300D01*
X0001800Y0079300D01*
X0004300Y0081800D01*
X0009300Y0081800D01*
X0011800Y0079300D01*
X0011800Y0074300D01*
X0009300Y0071800D01*
X0011800Y0069300D01*
X0011800Y0064300D01*
X0009300Y0061800D02*
X0011800Y0059300D01*
X0011800Y0054300D01*
X0009300Y0051800D01*
X0011800Y0049300D01*
X0011800Y0044300D01*
X0009300Y0041800D01*
X0011800Y0039300D01*
X0011800Y0034300D01*
X0009300Y0031800D01*
X0011800Y0029300D01*
X0011800Y0024300D01*
X0009300Y0021800D01*
X0004300Y0021800D01*
X0001800Y0024300D01*
X0001800Y0029300D01*
X0004300Y0031800D01*
X0001800Y0034300D01*
X0001800Y0039300D01*
X0004300Y0041800D01*
X0001800Y0044300D01*
X0001800Y0049300D01*
X0004300Y0051800D01*
X0001800Y0054300D01*
X0001800Y0059300D01*
X0004300Y0061800D01*
X0004300Y0051800D02*
X0009300Y0051800D01*
X0009300Y0041800D02*
X0004300Y0041800D01*
X0004300Y0031800D02*
X0009300Y0031800D01*
X0046800Y0029300D02*
X0046800Y0024300D01*
X0049300Y0021800D01*
X0054300Y0021800D01*
X0056800Y0024300D01*
X0056800Y0029300D01*
X0054300Y0031800D01*
X0056800Y0034300D01*
X0056800Y0039300D01*
X0054300Y0041800D01*
X0049300Y0041800D01*
X0046800Y0039300D01*
X0046800Y0034300D01*
X0049300Y0031800D01*
X0054300Y0031800D01*
X0049300Y0031800D02*
X0046800Y0029300D01*
X0049300Y0041800D02*
X0046800Y0044300D01*
X0046800Y0049300D01*
X0049300Y0051800D01*
X0046800Y0054300D01*
X0046800Y0059300D01*
X0049300Y0061800D01*
X0046800Y0064300D01*
X0046800Y0069300D01*
X0049300Y0071800D01*
X0046800Y0074300D01*
X0046800Y0079300D01*
X0049300Y0081800D01*
X0054300Y0081800D01*
X0056800Y0079300D01*
X0056800Y0074300D01*
X0054300Y0071800D01*
X0056800Y0069300D01*
X0056800Y0064300D01*
X0054300Y0061800D01*
X0049300Y0061800D01*
X0054300Y0061800D01*
X0056800Y0059300D01*
X0056800Y0054300D01*
X0054300Y0051800D01*
X0056800Y0049300D01*
X0056800Y0044300D01*
X0054300Y0041800D01*
X0054300Y0051800D02*
X0049300Y0051800D01*
X0049300Y0071800D02*
X0054300Y0071800D01*
X0054300Y0091800D02*
X0051800Y0094300D01*
X0049300Y0091800D01*
X0044300Y0091800D01*
X0041800Y0094300D01*
X0041800Y0099300D01*
X0044300Y0101800D01*
X0049300Y0101800D01*
X0051800Y0099300D01*
X0054300Y0101800D01*
X0059300Y0101800D01*
X0061800Y0099300D01*
X0064300Y0101800D01*
X0069300Y0101800D01*
X0071800Y0099300D01*
X0074300Y0101800D01*
X0079300Y0101800D01*
X0081800Y0099300D01*
X0084300Y0101800D01*
X0089300Y0101800D01*
X0091800Y0099300D01*
X0094300Y0101800D01*
X0099300Y0101800D01*
X0101800Y0099300D01*
X0104300Y0101800D01*
X0109300Y0101800D01*
X0111800Y0099300D01*
X0114300Y0101800D01*
X0119300Y0101800D01*
X0121800Y0099300D01*
X0124300Y0101800D01*
X0129300Y0101800D01*
X0131800Y0099300D01*
X0134300Y0101800D01*
X0139300Y0101800D01*
X0141800Y0099300D01*
X0144300Y0101800D01*
X0149300Y0101800D01*
X0151800Y0099300D01*
X0154300Y0101800D01*
X0159300Y0101800D01*
X0161800Y0099300D01*
X0164300Y0101800D01*
X0169300Y0101800D01*
X0171800Y0099300D01*
X0171800Y0094300D01*
X0169300Y0091800D01*
X0164300Y0091800D01*
X0161800Y0094300D01*
X0159300Y0091800D01*
X0154300Y0091800D01*
X0151800Y0094300D01*
X0151800Y0099300D01*
X0151800Y0094300D02*
X0149300Y0091800D01*
X0144300Y0091800D01*
X0141800Y0094300D01*
X0139300Y0091800D01*
X0134300Y0091800D01*
X0131800Y0094300D01*
X0129300Y0091800D01*
X0124300Y0091800D01*
X0121800Y0094300D01*
X0121800Y0099300D01*
X0121800Y0094300D02*
X0119300Y0091800D01*
X0114300Y0091800D01*
X0111800Y0094300D01*
X0109300Y0091800D01*
X0104300Y0091800D01*
X0101800Y0094300D01*
X0099300Y0091800D01*
X0094300Y0091800D01*
X0091800Y0094300D01*
X0091800Y0099300D01*
X0091800Y0094300D02*
X0089300Y0091800D01*
X0084300Y0091800D01*
X0081800Y0094300D01*
X0079300Y0091800D01*
X0074300Y0091800D01*
X0071800Y0094300D01*
X0069300Y0091800D01*
X0064300Y0091800D01*
X0061800Y0094300D01*
X0061800Y0099300D01*
X0061800Y0094300D02*
X0059300Y0091800D01*
X0054300Y0091800D01*
X0051800Y0094300D02*
X0051800Y0099300D01*
X0041800Y0099300D02*
X0041800Y0094300D01*
X0039300Y0091800D01*
X0034300Y0091800D01*
X0031800Y0094300D01*
X0029300Y0091800D01*
X0024300Y0091800D01*
X0021800Y0094300D01*
X0019300Y0091800D01*
X0014300Y0091800D01*
X0011800Y0094300D01*
X0009300Y0091800D01*
X0004300Y0091800D01*
X0001800Y0094300D01*
X0001800Y0099300D01*
X0004300Y0101800D01*
X0009300Y0101800D01*
X0011800Y0099300D01*
X0014300Y0101800D01*
X0019300Y0101800D01*
X0021800Y0099300D01*
X0021800Y0094300D01*
X0021800Y0099300D02*
X0024300Y0101800D01*
X0029300Y0101800D01*
X0031800Y0099300D01*
X0034300Y0101800D01*
X0039300Y0101800D01*
X0041800Y0099300D01*
X0031800Y0099300D02*
X0031800Y0094300D01*
X0011800Y0094300D02*
X0011800Y0099300D01*
X0009300Y0071800D02*
X0004300Y0071800D01*
X0071800Y0094300D02*
X0071800Y0099300D01*
X0081800Y0099300D02*
X0081800Y0094300D01*
X0101800Y0094300D02*
X0101800Y0099300D01*
X0111800Y0099300D02*
X0111800Y0094300D01*
X0131800Y0094300D02*
X0131800Y0099300D01*
X0141800Y0099300D02*
X0141800Y0094300D01*
X0161800Y0094300D02*
X0161800Y0099300D01*
X0190800Y0095300D02*
X0191900Y0095500D01*
X0192200Y0096400D01*
X0191600Y0097300D01*
X0192300Y0098000D01*
X0193200Y0097300D01*
X0194000Y0097700D01*
X0194300Y0098800D01*
X0195200Y0098800D01*
X0195400Y0097700D01*
X0196200Y0097300D01*
X0197100Y0098000D01*
X0197800Y0097300D01*
X0197200Y0096400D01*
X0197600Y0095500D01*
X0198600Y0095300D01*
X0198600Y0094400D01*
X0197600Y0094200D01*
X0197200Y0093300D01*
X0197800Y0092400D01*
X0197100Y0091800D01*
X0196300Y0092400D01*
X0195900Y0092200D01*
X0195300Y0093800D01*
X0195800Y0093700D02*
X0196100Y0092700D01*
X0197000Y0092200D01*
X0197400Y0092500D01*
X0197000Y0093300D01*
X0197500Y0094400D01*
X0198400Y0094600D01*
X0198300Y0095100D01*
X0197500Y0095300D01*
X0197000Y0096500D01*
X0197500Y0097300D01*
X0197000Y0097700D01*
X0196200Y0097100D01*
X0195300Y0097500D01*
X0195000Y0098600D01*
X0194500Y0098600D01*
X0194200Y0097700D01*
X0193100Y0097100D01*
X0192300Y0097700D01*
X0191900Y0097400D01*
X0192400Y0096500D01*
X0192000Y0095400D01*
X0191000Y0095000D01*
X0191000Y0094700D01*
X0192000Y0094500D01*
X0192500Y0093400D01*
X0191900Y0092400D01*
X0192400Y0092100D01*
X0193300Y0092600D01*
X0193600Y0093600D01*
X0193200Y0094700D01*
X0193600Y0096000D01*
X0194900Y0096400D01*
X0196000Y0095800D01*
X0196400Y0094700D01*
X0195800Y0093700D01*
X0195962Y0093971D02*
X0197305Y0093971D01*
X0197033Y0093372D02*
X0195898Y0093372D01*
X0196078Y0092774D02*
X0197263Y0092774D01*
X0194100Y0093800D02*
X0193500Y0092200D01*
X0193100Y0092400D01*
X0192300Y0091800D01*
X0191600Y0092400D01*
X0192200Y0093300D01*
X0191800Y0094200D01*
X0190800Y0094400D01*
X0190800Y0095300D01*
X0191419Y0095168D02*
X0193344Y0095168D01*
X0193248Y0094569D02*
X0191654Y0094569D01*
X0192241Y0093971D02*
X0193465Y0093971D01*
X0193532Y0093372D02*
X0192483Y0093372D01*
X0192124Y0092774D02*
X0193352Y0092774D01*
X0192535Y0092175D02*
X0192275Y0092175D01*
X0194100Y0093800D02*
X0194041Y0093836D01*
X0193985Y0093875D01*
X0193930Y0093918D01*
X0193878Y0093963D01*
X0193829Y0094011D01*
X0193783Y0094062D01*
X0193739Y0094116D01*
X0193699Y0094172D01*
X0193662Y0094230D01*
X0193628Y0094290D01*
X0193598Y0094352D01*
X0193572Y0094416D01*
X0193549Y0094481D01*
X0193530Y0094547D01*
X0193514Y0094614D01*
X0193503Y0094682D01*
X0193495Y0094750D01*
X0193491Y0094819D01*
X0193492Y0094888D01*
X0193496Y0094957D01*
X0193504Y0095025D01*
X0193516Y0095093D01*
X0193532Y0095160D01*
X0193551Y0095226D01*
X0193574Y0095291D01*
X0193601Y0095355D01*
X0193632Y0095416D01*
X0193666Y0095476D01*
X0193703Y0095534D01*
X0193744Y0095590D01*
X0193788Y0095643D01*
X0193834Y0095694D01*
X0193884Y0095742D01*
X0193936Y0095787D01*
X0193991Y0095829D01*
X0194047Y0095868D01*
X0194107Y0095903D01*
X0194168Y0095935D01*
X0194230Y0095964D01*
X0194294Y0095989D01*
X0194360Y0096010D01*
X0194427Y0096028D01*
X0194494Y0096041D01*
X0194562Y0096051D01*
X0194631Y0096057D01*
X0194700Y0096059D01*
X0194769Y0096057D01*
X0194838Y0096051D01*
X0194906Y0096041D01*
X0194973Y0096028D01*
X0195040Y0096010D01*
X0195106Y0095989D01*
X0195170Y0095964D01*
X0195232Y0095935D01*
X0195293Y0095903D01*
X0195353Y0095868D01*
X0195409Y0095829D01*
X0195464Y0095787D01*
X0195516Y0095742D01*
X0195566Y0095694D01*
X0195612Y0095643D01*
X0195656Y0095590D01*
X0195697Y0095534D01*
X0195734Y0095476D01*
X0195768Y0095416D01*
X0195799Y0095355D01*
X0195826Y0095291D01*
X0195849Y0095226D01*
X0195868Y0095160D01*
X0195884Y0095093D01*
X0195896Y0095025D01*
X0195904Y0094957D01*
X0195908Y0094888D01*
X0195909Y0094819D01*
X0195905Y0094750D01*
X0195897Y0094682D01*
X0195886Y0094614D01*
X0195870Y0094547D01*
X0195851Y0094481D01*
X0195828Y0094416D01*
X0195802Y0094352D01*
X0195772Y0094290D01*
X0195738Y0094230D01*
X0195701Y0094172D01*
X0195661Y0094116D01*
X0195617Y0094062D01*
X0195571Y0094011D01*
X0195522Y0093963D01*
X0195470Y0093918D01*
X0195415Y0093875D01*
X0195359Y0093836D01*
X0195300Y0093800D01*
X0196322Y0094569D02*
X0198262Y0094569D01*
X0198029Y0095168D02*
X0196230Y0095168D01*
X0196012Y0095766D02*
X0197306Y0095766D01*
X0197056Y0096365D02*
X0194965Y0096365D01*
X0194786Y0096365D02*
X0192351Y0096365D01*
X0192143Y0096963D02*
X0197290Y0096963D01*
X0197173Y0097562D02*
X0196816Y0097562D01*
X0195283Y0097562D02*
X0193947Y0097562D01*
X0194353Y0098160D02*
X0195120Y0098160D01*
X0192484Y0097562D02*
X0192116Y0097562D01*
X0192133Y0095766D02*
X0193528Y0095766D01*
X0169300Y0011800D02*
X0164300Y0011800D01*
X0161800Y0009300D01*
X0159300Y0011800D01*
X0154300Y0011800D01*
X0151800Y0009300D01*
X0151800Y0004300D01*
X0154300Y0001800D01*
X0159300Y0001800D01*
X0161800Y0004300D01*
X0161800Y0009300D01*
X0161800Y0004300D02*
X0164300Y0001800D01*
X0169300Y0001800D01*
X0171800Y0004300D01*
X0171800Y0009300D01*
X0169300Y0011800D01*
X0151800Y0009300D02*
X0149300Y0011800D01*
X0144300Y0011800D01*
X0141800Y0009300D01*
X0139300Y0011800D01*
X0134300Y0011800D01*
X0131800Y0009300D01*
X0129300Y0011800D01*
X0124300Y0011800D01*
X0121800Y0009300D01*
X0121800Y0004300D01*
X0124300Y0001800D01*
X0129300Y0001800D01*
X0131800Y0004300D01*
X0131800Y0009300D01*
X0131800Y0004300D02*
X0134300Y0001800D01*
X0139300Y0001800D01*
X0141800Y0004300D01*
X0141800Y0009300D01*
X0141800Y0004300D02*
X0144300Y0001800D01*
X0149300Y0001800D01*
X0151800Y0004300D01*
X0121800Y0004300D02*
X0119300Y0001800D01*
X0114300Y0001800D01*
X0111800Y0004300D01*
X0109300Y0001800D01*
X0104300Y0001800D01*
X0101800Y0004300D01*
X0099300Y0001800D01*
X0094300Y0001800D01*
X0091800Y0004300D01*
X0091800Y0009300D01*
X0094300Y0011800D01*
X0099300Y0011800D01*
X0101800Y0009300D01*
X0104300Y0011800D01*
X0109300Y0011800D01*
X0111800Y0009300D01*
X0114300Y0011800D01*
X0119300Y0011800D01*
X0121800Y0009300D01*
X0111800Y0009300D02*
X0111800Y0004300D01*
X0101800Y0004300D02*
X0101800Y0009300D01*
X0091800Y0009300D02*
X0089300Y0011800D01*
X0084300Y0011800D01*
X0081800Y0009300D01*
X0079300Y0011800D01*
X0074300Y0011800D01*
X0071800Y0009300D01*
X0071800Y0004300D01*
X0069300Y0001800D01*
X0064300Y0001800D01*
X0061800Y0004300D01*
X0059300Y0001800D01*
X0054300Y0001800D01*
X0051800Y0004300D01*
X0049300Y0001800D01*
X0044300Y0001800D01*
X0041800Y0004300D01*
X0039300Y0001800D01*
X0034300Y0001800D01*
X0031800Y0004300D01*
X0029300Y0001800D01*
X0024300Y0001800D01*
X0021800Y0004300D01*
X0019300Y0001800D01*
X0014300Y0001800D01*
X0011800Y0004300D01*
X0009300Y0001800D01*
X0004300Y0001800D01*
X0001800Y0004300D01*
X0001800Y0009300D01*
X0004300Y0011800D01*
X0009300Y0011800D01*
X0011800Y0009300D01*
X0014300Y0011800D01*
X0019300Y0011800D01*
X0021800Y0009300D01*
X0021800Y0004300D01*
X0021800Y0009300D02*
X0024300Y0011800D01*
X0029300Y0011800D01*
X0031800Y0009300D01*
X0034300Y0011800D01*
X0039300Y0011800D01*
X0041800Y0009300D01*
X0044300Y0011800D01*
X0049300Y0011800D01*
X0051800Y0009300D01*
X0051800Y0004300D01*
X0051800Y0009300D02*
X0054300Y0011800D01*
X0059300Y0011800D01*
X0061800Y0009300D01*
X0064300Y0011800D01*
X0069300Y0011800D01*
X0071800Y0009300D01*
X0071800Y0004300D01*
X0074300Y0001800D01*
X0079300Y0001800D01*
X0081800Y0004300D01*
X0081800Y0009300D01*
X0081800Y0004300D02*
X0084300Y0001800D01*
X0089300Y0001800D01*
X0091800Y0004300D01*
X0061800Y0004300D02*
X0061800Y0009300D01*
X0041800Y0009300D02*
X0041800Y0004300D01*
X0031800Y0004300D02*
X0031800Y0009300D01*
X0011800Y0009300D02*
X0011800Y0004300D01*
D28*
X0006800Y0006800D03*
X0016800Y0006800D03*
X0026800Y0006800D03*
X0036800Y0006800D03*
X0046800Y0006800D03*
X0056800Y0006800D03*
X0066800Y0006800D03*
X0076800Y0006800D03*
X0086800Y0006800D03*
X0096800Y0006800D03*
X0106800Y0006800D03*
X0116800Y0006800D03*
X0126800Y0006800D03*
X0136800Y0006800D03*
X0146800Y0006800D03*
X0156800Y0006800D03*
X0166800Y0006800D03*
X0086800Y0046800D03*
X0076800Y0046800D03*
X0076800Y0056800D03*
X0086800Y0056800D03*
X0086800Y0066800D03*
X0076800Y0066800D03*
X0051800Y0066800D03*
X0051800Y0056800D03*
X0051800Y0046800D03*
X0051800Y0036800D03*
X0051800Y0026800D03*
X0006800Y0026800D03*
X0006800Y0036800D03*
X0006800Y0046800D03*
X0006800Y0056800D03*
X0006800Y0066800D03*
X0006800Y0076800D03*
X0006800Y0096800D03*
X0016800Y0096800D03*
X0026800Y0096800D03*
X0036800Y0096800D03*
X0046800Y0096800D03*
X0056800Y0096800D03*
X0066800Y0096800D03*
X0076800Y0096800D03*
X0086800Y0096800D03*
X0096800Y0096800D03*
X0106800Y0096800D03*
X0116800Y0096800D03*
X0126800Y0096800D03*
X0136800Y0096800D03*
X0146800Y0096800D03*
X0156800Y0096800D03*
X0166800Y0096800D03*
X0051800Y0076800D03*
D29*
X0114202Y0076256D02*
X0114202Y0074321D01*
X0114202Y0075289D02*
X0117104Y0075289D01*
X0116137Y0076256D01*
X0117104Y0073310D02*
X0117104Y0071375D01*
X0116621Y0071375D01*
X0114686Y0073310D01*
X0114202Y0073310D01*
X0177391Y0074124D02*
X0177391Y0076059D01*
X0177391Y0075092D02*
X0180293Y0075092D01*
X0179326Y0076059D01*
X0189292Y0031768D02*
X0188808Y0031284D01*
X0188808Y0030317D01*
X0189292Y0029833D01*
X0190259Y0029833D01*
X0190743Y0030317D01*
X0190743Y0030801D01*
X0190259Y0031768D01*
X0191711Y0031768D01*
X0191711Y0029833D01*
X0191227Y0028822D02*
X0191711Y0028338D01*
X0191711Y0027370D01*
X0191227Y0026887D01*
X0189292Y0028822D01*
X0188808Y0028338D01*
X0188808Y0027370D01*
X0189292Y0026887D01*
X0191227Y0026887D01*
X0191227Y0028822D02*
X0189292Y0028822D01*
X0117104Y0027854D02*
X0114202Y0027854D01*
X0114202Y0026887D02*
X0114202Y0028822D01*
X0114686Y0029833D02*
X0114202Y0030317D01*
X0114202Y0031284D01*
X0114686Y0031768D01*
X0115653Y0030801D02*
X0115653Y0030317D01*
X0115169Y0029833D01*
X0114686Y0029833D01*
X0115653Y0030317D02*
X0116137Y0029833D01*
X0116621Y0029833D01*
X0117104Y0030317D01*
X0117104Y0031284D01*
X0116621Y0031768D01*
X0116137Y0028822D02*
X0117104Y0027854D01*
D30*
X0194170Y0063611D03*
M02*
