G75*
%MOIN*%
%OFA0B0*%
%FSLAX25Y25*%
%IPPOS*%
%LPD*%
%AMOC8*
5,1,8,0,0,1.08239X$1,22.5*
%
%ADD10R,0.04724X0.04724*%
%ADD11R,0.04331X0.03937*%
%ADD12R,0.03937X0.04331*%
%ADD13R,0.03937X0.03543*%
%ADD14R,0.03150X0.06693*%
%ADD15OC8,0.07000*%
%ADD16OC8,0.07400*%
%ADD17C,0.00709*%
%ADD18C,0.00600*%
%ADD19C,0.02700*%
%ADD20C,0.01000*%
%ADD21C,0.01600*%
D10*
X0032666Y0026800D03*
X0040934Y0026800D03*
X0040934Y0034800D03*
X0032666Y0034800D03*
X0069666Y0026800D03*
X0077934Y0026800D03*
D11*
X0086454Y0026800D03*
X0093146Y0026800D03*
X0027146Y0026800D03*
X0020454Y0026800D03*
X0020454Y0034800D03*
X0027146Y0034800D03*
X0027146Y0046800D03*
X0020454Y0046800D03*
D12*
X0040800Y0046454D03*
X0040800Y0053146D03*
X0040800Y0071454D03*
X0040800Y0078146D03*
D13*
X0027950Y0076871D03*
X0021650Y0076871D03*
X0021650Y0060729D03*
X0027950Y0060729D03*
D14*
X0020076Y0068800D03*
D15*
X0006800Y0006800D03*
X0016800Y0006800D03*
X0026800Y0006800D03*
X0036800Y0006800D03*
X0046800Y0006800D03*
X0056800Y0006800D03*
X0066800Y0006800D03*
X0076800Y0006800D03*
X0086800Y0006800D03*
X0096800Y0006800D03*
X0106800Y0006800D03*
X0116800Y0006800D03*
X0126800Y0006800D03*
X0136800Y0006800D03*
X0146800Y0006800D03*
X0156800Y0006800D03*
X0166800Y0006800D03*
X0051800Y0026800D03*
X0051800Y0036800D03*
X0051800Y0046800D03*
X0051800Y0056800D03*
X0051800Y0066800D03*
X0051800Y0076800D03*
X0046800Y0096800D03*
X0036800Y0096800D03*
X0026800Y0096800D03*
X0016800Y0096800D03*
X0006800Y0096800D03*
X0006800Y0076800D03*
X0006800Y0066800D03*
X0006800Y0056800D03*
X0006800Y0046800D03*
X0006800Y0036800D03*
X0006800Y0026800D03*
X0056800Y0096800D03*
X0066800Y0096800D03*
X0076800Y0096800D03*
X0086800Y0096800D03*
X0096800Y0096800D03*
X0106800Y0096800D03*
X0116800Y0096800D03*
X0126800Y0096800D03*
X0136800Y0096800D03*
X0146800Y0096800D03*
X0156800Y0096800D03*
X0166800Y0096800D03*
D16*
X0086800Y0066800D03*
X0076800Y0066800D03*
X0076800Y0056800D03*
X0086800Y0056800D03*
X0086800Y0046800D03*
X0076800Y0046800D03*
D17*
X0112320Y0047036D02*
X0112320Y0048690D01*
X0112320Y0047036D02*
X0105154Y0047036D01*
X0105154Y0048690D01*
X0112320Y0048690D01*
X0112320Y0047744D02*
X0105154Y0047744D01*
X0105154Y0048452D02*
X0112320Y0048452D01*
X0112320Y0050973D02*
X0112320Y0052627D01*
X0112320Y0050973D02*
X0105154Y0050973D01*
X0105154Y0052627D01*
X0112320Y0052627D01*
X0112320Y0051681D02*
X0105154Y0051681D01*
X0105154Y0052389D02*
X0112320Y0052389D01*
X0112320Y0054910D02*
X0112320Y0056564D01*
X0112320Y0054910D02*
X0105154Y0054910D01*
X0105154Y0056564D01*
X0112320Y0056564D01*
X0112320Y0055618D02*
X0105154Y0055618D01*
X0105154Y0056326D02*
X0112320Y0056326D01*
X0112320Y0058847D02*
X0112320Y0060501D01*
X0112320Y0058847D02*
X0105154Y0058847D01*
X0105154Y0060501D01*
X0112320Y0060501D01*
X0112320Y0059555D02*
X0105154Y0059555D01*
X0105154Y0060263D02*
X0112320Y0060263D01*
X0112320Y0062784D02*
X0112320Y0064438D01*
X0112320Y0062784D02*
X0105154Y0062784D01*
X0105154Y0064438D01*
X0112320Y0064438D01*
X0112320Y0063492D02*
X0105154Y0063492D01*
X0105154Y0064200D02*
X0112320Y0064200D01*
X0112320Y0066721D02*
X0112320Y0068375D01*
X0112320Y0066721D02*
X0105154Y0066721D01*
X0105154Y0068375D01*
X0112320Y0068375D01*
X0112320Y0067429D02*
X0105154Y0067429D01*
X0105154Y0068137D02*
X0112320Y0068137D01*
X0112320Y0070658D02*
X0112320Y0072312D01*
X0112320Y0070658D02*
X0105154Y0070658D01*
X0105154Y0072312D01*
X0112320Y0072312D01*
X0112320Y0071366D02*
X0105154Y0071366D01*
X0105154Y0072074D02*
X0112320Y0072074D01*
X0111138Y0074595D02*
X0111138Y0076249D01*
X0111138Y0074595D02*
X0105154Y0074595D01*
X0105154Y0076249D01*
X0111138Y0076249D01*
X0111138Y0075303D02*
X0105154Y0075303D01*
X0105154Y0076011D02*
X0111138Y0076011D01*
X0114603Y0079714D02*
X0116257Y0079714D01*
X0114603Y0079714D02*
X0114603Y0085698D01*
X0116257Y0085698D01*
X0116257Y0079714D01*
X0116257Y0080422D02*
X0114603Y0080422D01*
X0114603Y0081130D02*
X0116257Y0081130D01*
X0116257Y0081838D02*
X0114603Y0081838D01*
X0114603Y0082546D02*
X0116257Y0082546D01*
X0116257Y0083254D02*
X0114603Y0083254D01*
X0114603Y0083962D02*
X0116257Y0083962D01*
X0116257Y0084670D02*
X0114603Y0084670D01*
X0114603Y0085378D02*
X0116257Y0085378D01*
X0118540Y0078532D02*
X0120194Y0078532D01*
X0118540Y0078532D02*
X0118540Y0085698D01*
X0120194Y0085698D01*
X0120194Y0078532D01*
X0120194Y0079240D02*
X0118540Y0079240D01*
X0118540Y0079948D02*
X0120194Y0079948D01*
X0120194Y0080656D02*
X0118540Y0080656D01*
X0118540Y0081364D02*
X0120194Y0081364D01*
X0120194Y0082072D02*
X0118540Y0082072D01*
X0118540Y0082780D02*
X0120194Y0082780D01*
X0120194Y0083488D02*
X0118540Y0083488D01*
X0118540Y0084196D02*
X0120194Y0084196D01*
X0120194Y0084904D02*
X0118540Y0084904D01*
X0118540Y0085612D02*
X0120194Y0085612D01*
X0122477Y0078532D02*
X0124131Y0078532D01*
X0122477Y0078532D02*
X0122477Y0085698D01*
X0124131Y0085698D01*
X0124131Y0078532D01*
X0124131Y0079240D02*
X0122477Y0079240D01*
X0122477Y0079948D02*
X0124131Y0079948D01*
X0124131Y0080656D02*
X0122477Y0080656D01*
X0122477Y0081364D02*
X0124131Y0081364D01*
X0124131Y0082072D02*
X0122477Y0082072D01*
X0122477Y0082780D02*
X0124131Y0082780D01*
X0124131Y0083488D02*
X0122477Y0083488D01*
X0122477Y0084196D02*
X0124131Y0084196D01*
X0124131Y0084904D02*
X0122477Y0084904D01*
X0122477Y0085612D02*
X0124131Y0085612D01*
X0126414Y0078532D02*
X0128068Y0078532D01*
X0126414Y0078532D02*
X0126414Y0085698D01*
X0128068Y0085698D01*
X0128068Y0078532D01*
X0128068Y0079240D02*
X0126414Y0079240D01*
X0126414Y0079948D02*
X0128068Y0079948D01*
X0128068Y0080656D02*
X0126414Y0080656D01*
X0126414Y0081364D02*
X0128068Y0081364D01*
X0128068Y0082072D02*
X0126414Y0082072D01*
X0126414Y0082780D02*
X0128068Y0082780D01*
X0128068Y0083488D02*
X0126414Y0083488D01*
X0126414Y0084196D02*
X0128068Y0084196D01*
X0128068Y0084904D02*
X0126414Y0084904D01*
X0126414Y0085612D02*
X0128068Y0085612D01*
X0130351Y0078532D02*
X0132005Y0078532D01*
X0130351Y0078532D02*
X0130351Y0085698D01*
X0132005Y0085698D01*
X0132005Y0078532D01*
X0132005Y0079240D02*
X0130351Y0079240D01*
X0130351Y0079948D02*
X0132005Y0079948D01*
X0132005Y0080656D02*
X0130351Y0080656D01*
X0130351Y0081364D02*
X0132005Y0081364D01*
X0132005Y0082072D02*
X0130351Y0082072D01*
X0130351Y0082780D02*
X0132005Y0082780D01*
X0132005Y0083488D02*
X0130351Y0083488D01*
X0130351Y0084196D02*
X0132005Y0084196D01*
X0132005Y0084904D02*
X0130351Y0084904D01*
X0130351Y0085612D02*
X0132005Y0085612D01*
X0134288Y0078532D02*
X0135942Y0078532D01*
X0134288Y0078532D02*
X0134288Y0085698D01*
X0135942Y0085698D01*
X0135942Y0078532D01*
X0135942Y0079240D02*
X0134288Y0079240D01*
X0134288Y0079948D02*
X0135942Y0079948D01*
X0135942Y0080656D02*
X0134288Y0080656D01*
X0134288Y0081364D02*
X0135942Y0081364D01*
X0135942Y0082072D02*
X0134288Y0082072D01*
X0134288Y0082780D02*
X0135942Y0082780D01*
X0135942Y0083488D02*
X0134288Y0083488D01*
X0134288Y0084196D02*
X0135942Y0084196D01*
X0135942Y0084904D02*
X0134288Y0084904D01*
X0134288Y0085612D02*
X0135942Y0085612D01*
X0138225Y0078532D02*
X0139879Y0078532D01*
X0138225Y0078532D02*
X0138225Y0085698D01*
X0139879Y0085698D01*
X0139879Y0078532D01*
X0139879Y0079240D02*
X0138225Y0079240D01*
X0138225Y0079948D02*
X0139879Y0079948D01*
X0139879Y0080656D02*
X0138225Y0080656D01*
X0138225Y0081364D02*
X0139879Y0081364D01*
X0139879Y0082072D02*
X0138225Y0082072D01*
X0138225Y0082780D02*
X0139879Y0082780D01*
X0139879Y0083488D02*
X0138225Y0083488D01*
X0138225Y0084196D02*
X0139879Y0084196D01*
X0139879Y0084904D02*
X0138225Y0084904D01*
X0138225Y0085612D02*
X0139879Y0085612D01*
X0142162Y0078532D02*
X0143816Y0078532D01*
X0142162Y0078532D02*
X0142162Y0085698D01*
X0143816Y0085698D01*
X0143816Y0078532D01*
X0143816Y0079240D02*
X0142162Y0079240D01*
X0142162Y0079948D02*
X0143816Y0079948D01*
X0143816Y0080656D02*
X0142162Y0080656D01*
X0142162Y0081364D02*
X0143816Y0081364D01*
X0143816Y0082072D02*
X0142162Y0082072D01*
X0142162Y0082780D02*
X0143816Y0082780D01*
X0143816Y0083488D02*
X0142162Y0083488D01*
X0142162Y0084196D02*
X0143816Y0084196D01*
X0143816Y0084904D02*
X0142162Y0084904D01*
X0142162Y0085612D02*
X0143816Y0085612D01*
X0146099Y0078532D02*
X0147753Y0078532D01*
X0146099Y0078532D02*
X0146099Y0085698D01*
X0147753Y0085698D01*
X0147753Y0078532D01*
X0147753Y0079240D02*
X0146099Y0079240D01*
X0146099Y0079948D02*
X0147753Y0079948D01*
X0147753Y0080656D02*
X0146099Y0080656D01*
X0146099Y0081364D02*
X0147753Y0081364D01*
X0147753Y0082072D02*
X0146099Y0082072D01*
X0146099Y0082780D02*
X0147753Y0082780D01*
X0147753Y0083488D02*
X0146099Y0083488D01*
X0146099Y0084196D02*
X0147753Y0084196D01*
X0147753Y0084904D02*
X0146099Y0084904D01*
X0146099Y0085612D02*
X0147753Y0085612D01*
X0150036Y0078532D02*
X0151690Y0078532D01*
X0150036Y0078532D02*
X0150036Y0085698D01*
X0151690Y0085698D01*
X0151690Y0078532D01*
X0151690Y0079240D02*
X0150036Y0079240D01*
X0150036Y0079948D02*
X0151690Y0079948D01*
X0151690Y0080656D02*
X0150036Y0080656D01*
X0150036Y0081364D02*
X0151690Y0081364D01*
X0151690Y0082072D02*
X0150036Y0082072D01*
X0150036Y0082780D02*
X0151690Y0082780D01*
X0151690Y0083488D02*
X0150036Y0083488D01*
X0150036Y0084196D02*
X0151690Y0084196D01*
X0151690Y0084904D02*
X0150036Y0084904D01*
X0150036Y0085612D02*
X0151690Y0085612D01*
X0153973Y0078532D02*
X0155627Y0078532D01*
X0153973Y0078532D02*
X0153973Y0085698D01*
X0155627Y0085698D01*
X0155627Y0078532D01*
X0155627Y0079240D02*
X0153973Y0079240D01*
X0153973Y0079948D02*
X0155627Y0079948D01*
X0155627Y0080656D02*
X0153973Y0080656D01*
X0153973Y0081364D02*
X0155627Y0081364D01*
X0155627Y0082072D02*
X0153973Y0082072D01*
X0153973Y0082780D02*
X0155627Y0082780D01*
X0155627Y0083488D02*
X0153973Y0083488D01*
X0153973Y0084196D02*
X0155627Y0084196D01*
X0155627Y0084904D02*
X0153973Y0084904D01*
X0153973Y0085612D02*
X0155627Y0085612D01*
X0157910Y0078532D02*
X0159564Y0078532D01*
X0157910Y0078532D02*
X0157910Y0085698D01*
X0159564Y0085698D01*
X0159564Y0078532D01*
X0159564Y0079240D02*
X0157910Y0079240D01*
X0157910Y0079948D02*
X0159564Y0079948D01*
X0159564Y0080656D02*
X0157910Y0080656D01*
X0157910Y0081364D02*
X0159564Y0081364D01*
X0159564Y0082072D02*
X0157910Y0082072D01*
X0157910Y0082780D02*
X0159564Y0082780D01*
X0159564Y0083488D02*
X0157910Y0083488D01*
X0157910Y0084196D02*
X0159564Y0084196D01*
X0159564Y0084904D02*
X0157910Y0084904D01*
X0157910Y0085612D02*
X0159564Y0085612D01*
X0161847Y0078532D02*
X0163501Y0078532D01*
X0161847Y0078532D02*
X0161847Y0085698D01*
X0163501Y0085698D01*
X0163501Y0078532D01*
X0163501Y0079240D02*
X0161847Y0079240D01*
X0161847Y0079948D02*
X0163501Y0079948D01*
X0163501Y0080656D02*
X0161847Y0080656D01*
X0161847Y0081364D02*
X0163501Y0081364D01*
X0163501Y0082072D02*
X0161847Y0082072D01*
X0161847Y0082780D02*
X0163501Y0082780D01*
X0163501Y0083488D02*
X0161847Y0083488D01*
X0161847Y0084196D02*
X0163501Y0084196D01*
X0163501Y0084904D02*
X0161847Y0084904D01*
X0161847Y0085612D02*
X0163501Y0085612D01*
X0165784Y0078532D02*
X0167438Y0078532D01*
X0165784Y0078532D02*
X0165784Y0085698D01*
X0167438Y0085698D01*
X0167438Y0078532D01*
X0167438Y0079240D02*
X0165784Y0079240D01*
X0165784Y0079948D02*
X0167438Y0079948D01*
X0167438Y0080656D02*
X0165784Y0080656D01*
X0165784Y0081364D02*
X0167438Y0081364D01*
X0167438Y0082072D02*
X0165784Y0082072D01*
X0165784Y0082780D02*
X0167438Y0082780D01*
X0167438Y0083488D02*
X0165784Y0083488D01*
X0165784Y0084196D02*
X0167438Y0084196D01*
X0167438Y0084904D02*
X0165784Y0084904D01*
X0165784Y0085612D02*
X0167438Y0085612D01*
X0169721Y0078532D02*
X0171375Y0078532D01*
X0169721Y0078532D02*
X0169721Y0085698D01*
X0171375Y0085698D01*
X0171375Y0078532D01*
X0171375Y0079240D02*
X0169721Y0079240D01*
X0169721Y0079948D02*
X0171375Y0079948D01*
X0171375Y0080656D02*
X0169721Y0080656D01*
X0169721Y0081364D02*
X0171375Y0081364D01*
X0171375Y0082072D02*
X0169721Y0082072D01*
X0169721Y0082780D02*
X0171375Y0082780D01*
X0171375Y0083488D02*
X0169721Y0083488D01*
X0169721Y0084196D02*
X0171375Y0084196D01*
X0171375Y0084904D02*
X0169721Y0084904D01*
X0169721Y0085612D02*
X0171375Y0085612D01*
X0173658Y0078532D02*
X0175312Y0078532D01*
X0173658Y0078532D02*
X0173658Y0085698D01*
X0175312Y0085698D01*
X0175312Y0078532D01*
X0175312Y0079240D02*
X0173658Y0079240D01*
X0173658Y0079948D02*
X0175312Y0079948D01*
X0175312Y0080656D02*
X0173658Y0080656D01*
X0173658Y0081364D02*
X0175312Y0081364D01*
X0175312Y0082072D02*
X0173658Y0082072D01*
X0173658Y0082780D02*
X0175312Y0082780D01*
X0175312Y0083488D02*
X0173658Y0083488D01*
X0173658Y0084196D02*
X0175312Y0084196D01*
X0175312Y0084904D02*
X0173658Y0084904D01*
X0173658Y0085612D02*
X0175312Y0085612D01*
X0177595Y0078532D02*
X0179249Y0078532D01*
X0177595Y0078532D02*
X0177595Y0085698D01*
X0179249Y0085698D01*
X0179249Y0078532D01*
X0179249Y0079240D02*
X0177595Y0079240D01*
X0177595Y0079948D02*
X0179249Y0079948D01*
X0179249Y0080656D02*
X0177595Y0080656D01*
X0177595Y0081364D02*
X0179249Y0081364D01*
X0179249Y0082072D02*
X0177595Y0082072D01*
X0177595Y0082780D02*
X0179249Y0082780D01*
X0179249Y0083488D02*
X0177595Y0083488D01*
X0177595Y0084196D02*
X0179249Y0084196D01*
X0179249Y0084904D02*
X0177595Y0084904D01*
X0177595Y0085612D02*
X0179249Y0085612D01*
X0112320Y0044753D02*
X0112320Y0043099D01*
X0105154Y0043099D01*
X0105154Y0044753D01*
X0112320Y0044753D01*
X0112320Y0043807D02*
X0105154Y0043807D01*
X0105154Y0044515D02*
X0112320Y0044515D01*
X0112320Y0040816D02*
X0112320Y0039162D01*
X0105154Y0039162D01*
X0105154Y0040816D01*
X0112320Y0040816D01*
X0112320Y0039870D02*
X0105154Y0039870D01*
X0105154Y0040578D02*
X0112320Y0040578D01*
X0112320Y0036879D02*
X0112320Y0035225D01*
X0105154Y0035225D01*
X0105154Y0036879D01*
X0112320Y0036879D01*
X0112320Y0035933D02*
X0105154Y0035933D01*
X0105154Y0036641D02*
X0112320Y0036641D01*
X0112320Y0032942D02*
X0112320Y0031288D01*
X0105154Y0031288D01*
X0105154Y0032942D01*
X0112320Y0032942D01*
X0112320Y0031996D02*
X0105154Y0031996D01*
X0105154Y0032704D02*
X0112320Y0032704D01*
X0111138Y0029005D02*
X0111138Y0027351D01*
X0105154Y0027351D01*
X0105154Y0029005D01*
X0111138Y0029005D01*
X0111138Y0028059D02*
X0105154Y0028059D01*
X0105154Y0028767D02*
X0111138Y0028767D01*
X0114603Y0017902D02*
X0116257Y0017902D01*
X0114603Y0017902D02*
X0114603Y0023886D01*
X0116257Y0023886D01*
X0116257Y0017902D01*
X0116257Y0018610D02*
X0114603Y0018610D01*
X0114603Y0019318D02*
X0116257Y0019318D01*
X0116257Y0020026D02*
X0114603Y0020026D01*
X0114603Y0020734D02*
X0116257Y0020734D01*
X0116257Y0021442D02*
X0114603Y0021442D01*
X0114603Y0022150D02*
X0116257Y0022150D01*
X0116257Y0022858D02*
X0114603Y0022858D01*
X0114603Y0023566D02*
X0116257Y0023566D01*
X0118540Y0017902D02*
X0120194Y0017902D01*
X0118540Y0017902D02*
X0118540Y0025068D01*
X0120194Y0025068D01*
X0120194Y0017902D01*
X0120194Y0018610D02*
X0118540Y0018610D01*
X0118540Y0019318D02*
X0120194Y0019318D01*
X0120194Y0020026D02*
X0118540Y0020026D01*
X0118540Y0020734D02*
X0120194Y0020734D01*
X0120194Y0021442D02*
X0118540Y0021442D01*
X0118540Y0022150D02*
X0120194Y0022150D01*
X0120194Y0022858D02*
X0118540Y0022858D01*
X0118540Y0023566D02*
X0120194Y0023566D01*
X0120194Y0024274D02*
X0118540Y0024274D01*
X0118540Y0024982D02*
X0120194Y0024982D01*
X0122477Y0017902D02*
X0124131Y0017902D01*
X0122477Y0017902D02*
X0122477Y0025068D01*
X0124131Y0025068D01*
X0124131Y0017902D01*
X0124131Y0018610D02*
X0122477Y0018610D01*
X0122477Y0019318D02*
X0124131Y0019318D01*
X0124131Y0020026D02*
X0122477Y0020026D01*
X0122477Y0020734D02*
X0124131Y0020734D01*
X0124131Y0021442D02*
X0122477Y0021442D01*
X0122477Y0022150D02*
X0124131Y0022150D01*
X0124131Y0022858D02*
X0122477Y0022858D01*
X0122477Y0023566D02*
X0124131Y0023566D01*
X0124131Y0024274D02*
X0122477Y0024274D01*
X0122477Y0024982D02*
X0124131Y0024982D01*
X0126414Y0017902D02*
X0128068Y0017902D01*
X0126414Y0017902D02*
X0126414Y0025068D01*
X0128068Y0025068D01*
X0128068Y0017902D01*
X0128068Y0018610D02*
X0126414Y0018610D01*
X0126414Y0019318D02*
X0128068Y0019318D01*
X0128068Y0020026D02*
X0126414Y0020026D01*
X0126414Y0020734D02*
X0128068Y0020734D01*
X0128068Y0021442D02*
X0126414Y0021442D01*
X0126414Y0022150D02*
X0128068Y0022150D01*
X0128068Y0022858D02*
X0126414Y0022858D01*
X0126414Y0023566D02*
X0128068Y0023566D01*
X0128068Y0024274D02*
X0126414Y0024274D01*
X0126414Y0024982D02*
X0128068Y0024982D01*
X0130351Y0017902D02*
X0132005Y0017902D01*
X0130351Y0017902D02*
X0130351Y0025068D01*
X0132005Y0025068D01*
X0132005Y0017902D01*
X0132005Y0018610D02*
X0130351Y0018610D01*
X0130351Y0019318D02*
X0132005Y0019318D01*
X0132005Y0020026D02*
X0130351Y0020026D01*
X0130351Y0020734D02*
X0132005Y0020734D01*
X0132005Y0021442D02*
X0130351Y0021442D01*
X0130351Y0022150D02*
X0132005Y0022150D01*
X0132005Y0022858D02*
X0130351Y0022858D01*
X0130351Y0023566D02*
X0132005Y0023566D01*
X0132005Y0024274D02*
X0130351Y0024274D01*
X0130351Y0024982D02*
X0132005Y0024982D01*
X0134288Y0017902D02*
X0135942Y0017902D01*
X0134288Y0017902D02*
X0134288Y0025068D01*
X0135942Y0025068D01*
X0135942Y0017902D01*
X0135942Y0018610D02*
X0134288Y0018610D01*
X0134288Y0019318D02*
X0135942Y0019318D01*
X0135942Y0020026D02*
X0134288Y0020026D01*
X0134288Y0020734D02*
X0135942Y0020734D01*
X0135942Y0021442D02*
X0134288Y0021442D01*
X0134288Y0022150D02*
X0135942Y0022150D01*
X0135942Y0022858D02*
X0134288Y0022858D01*
X0134288Y0023566D02*
X0135942Y0023566D01*
X0135942Y0024274D02*
X0134288Y0024274D01*
X0134288Y0024982D02*
X0135942Y0024982D01*
X0138225Y0017902D02*
X0139879Y0017902D01*
X0138225Y0017902D02*
X0138225Y0025068D01*
X0139879Y0025068D01*
X0139879Y0017902D01*
X0139879Y0018610D02*
X0138225Y0018610D01*
X0138225Y0019318D02*
X0139879Y0019318D01*
X0139879Y0020026D02*
X0138225Y0020026D01*
X0138225Y0020734D02*
X0139879Y0020734D01*
X0139879Y0021442D02*
X0138225Y0021442D01*
X0138225Y0022150D02*
X0139879Y0022150D01*
X0139879Y0022858D02*
X0138225Y0022858D01*
X0138225Y0023566D02*
X0139879Y0023566D01*
X0139879Y0024274D02*
X0138225Y0024274D01*
X0138225Y0024982D02*
X0139879Y0024982D01*
X0142162Y0017902D02*
X0143816Y0017902D01*
X0142162Y0017902D02*
X0142162Y0025068D01*
X0143816Y0025068D01*
X0143816Y0017902D01*
X0143816Y0018610D02*
X0142162Y0018610D01*
X0142162Y0019318D02*
X0143816Y0019318D01*
X0143816Y0020026D02*
X0142162Y0020026D01*
X0142162Y0020734D02*
X0143816Y0020734D01*
X0143816Y0021442D02*
X0142162Y0021442D01*
X0142162Y0022150D02*
X0143816Y0022150D01*
X0143816Y0022858D02*
X0142162Y0022858D01*
X0142162Y0023566D02*
X0143816Y0023566D01*
X0143816Y0024274D02*
X0142162Y0024274D01*
X0142162Y0024982D02*
X0143816Y0024982D01*
X0146099Y0017902D02*
X0147753Y0017902D01*
X0146099Y0017902D02*
X0146099Y0025068D01*
X0147753Y0025068D01*
X0147753Y0017902D01*
X0147753Y0018610D02*
X0146099Y0018610D01*
X0146099Y0019318D02*
X0147753Y0019318D01*
X0147753Y0020026D02*
X0146099Y0020026D01*
X0146099Y0020734D02*
X0147753Y0020734D01*
X0147753Y0021442D02*
X0146099Y0021442D01*
X0146099Y0022150D02*
X0147753Y0022150D01*
X0147753Y0022858D02*
X0146099Y0022858D01*
X0146099Y0023566D02*
X0147753Y0023566D01*
X0147753Y0024274D02*
X0146099Y0024274D01*
X0146099Y0024982D02*
X0147753Y0024982D01*
X0150036Y0017902D02*
X0151690Y0017902D01*
X0150036Y0017902D02*
X0150036Y0025068D01*
X0151690Y0025068D01*
X0151690Y0017902D01*
X0151690Y0018610D02*
X0150036Y0018610D01*
X0150036Y0019318D02*
X0151690Y0019318D01*
X0151690Y0020026D02*
X0150036Y0020026D01*
X0150036Y0020734D02*
X0151690Y0020734D01*
X0151690Y0021442D02*
X0150036Y0021442D01*
X0150036Y0022150D02*
X0151690Y0022150D01*
X0151690Y0022858D02*
X0150036Y0022858D01*
X0150036Y0023566D02*
X0151690Y0023566D01*
X0151690Y0024274D02*
X0150036Y0024274D01*
X0150036Y0024982D02*
X0151690Y0024982D01*
X0153973Y0017902D02*
X0155627Y0017902D01*
X0153973Y0017902D02*
X0153973Y0025068D01*
X0155627Y0025068D01*
X0155627Y0017902D01*
X0155627Y0018610D02*
X0153973Y0018610D01*
X0153973Y0019318D02*
X0155627Y0019318D01*
X0155627Y0020026D02*
X0153973Y0020026D01*
X0153973Y0020734D02*
X0155627Y0020734D01*
X0155627Y0021442D02*
X0153973Y0021442D01*
X0153973Y0022150D02*
X0155627Y0022150D01*
X0155627Y0022858D02*
X0153973Y0022858D01*
X0153973Y0023566D02*
X0155627Y0023566D01*
X0155627Y0024274D02*
X0153973Y0024274D01*
X0153973Y0024982D02*
X0155627Y0024982D01*
X0157910Y0017902D02*
X0159564Y0017902D01*
X0157910Y0017902D02*
X0157910Y0025068D01*
X0159564Y0025068D01*
X0159564Y0017902D01*
X0159564Y0018610D02*
X0157910Y0018610D01*
X0157910Y0019318D02*
X0159564Y0019318D01*
X0159564Y0020026D02*
X0157910Y0020026D01*
X0157910Y0020734D02*
X0159564Y0020734D01*
X0159564Y0021442D02*
X0157910Y0021442D01*
X0157910Y0022150D02*
X0159564Y0022150D01*
X0159564Y0022858D02*
X0157910Y0022858D01*
X0157910Y0023566D02*
X0159564Y0023566D01*
X0159564Y0024274D02*
X0157910Y0024274D01*
X0157910Y0024982D02*
X0159564Y0024982D01*
X0161847Y0017902D02*
X0163501Y0017902D01*
X0161847Y0017902D02*
X0161847Y0025068D01*
X0163501Y0025068D01*
X0163501Y0017902D01*
X0163501Y0018610D02*
X0161847Y0018610D01*
X0161847Y0019318D02*
X0163501Y0019318D01*
X0163501Y0020026D02*
X0161847Y0020026D01*
X0161847Y0020734D02*
X0163501Y0020734D01*
X0163501Y0021442D02*
X0161847Y0021442D01*
X0161847Y0022150D02*
X0163501Y0022150D01*
X0163501Y0022858D02*
X0161847Y0022858D01*
X0161847Y0023566D02*
X0163501Y0023566D01*
X0163501Y0024274D02*
X0161847Y0024274D01*
X0161847Y0024982D02*
X0163501Y0024982D01*
X0165784Y0017902D02*
X0167438Y0017902D01*
X0165784Y0017902D02*
X0165784Y0025068D01*
X0167438Y0025068D01*
X0167438Y0017902D01*
X0167438Y0018610D02*
X0165784Y0018610D01*
X0165784Y0019318D02*
X0167438Y0019318D01*
X0167438Y0020026D02*
X0165784Y0020026D01*
X0165784Y0020734D02*
X0167438Y0020734D01*
X0167438Y0021442D02*
X0165784Y0021442D01*
X0165784Y0022150D02*
X0167438Y0022150D01*
X0167438Y0022858D02*
X0165784Y0022858D01*
X0165784Y0023566D02*
X0167438Y0023566D01*
X0167438Y0024274D02*
X0165784Y0024274D01*
X0165784Y0024982D02*
X0167438Y0024982D01*
X0169721Y0017902D02*
X0171375Y0017902D01*
X0169721Y0017902D02*
X0169721Y0025068D01*
X0171375Y0025068D01*
X0171375Y0017902D01*
X0171375Y0018610D02*
X0169721Y0018610D01*
X0169721Y0019318D02*
X0171375Y0019318D01*
X0171375Y0020026D02*
X0169721Y0020026D01*
X0169721Y0020734D02*
X0171375Y0020734D01*
X0171375Y0021442D02*
X0169721Y0021442D01*
X0169721Y0022150D02*
X0171375Y0022150D01*
X0171375Y0022858D02*
X0169721Y0022858D01*
X0169721Y0023566D02*
X0171375Y0023566D01*
X0171375Y0024274D02*
X0169721Y0024274D01*
X0169721Y0024982D02*
X0171375Y0024982D01*
X0173658Y0017902D02*
X0175312Y0017902D01*
X0173658Y0017902D02*
X0173658Y0025068D01*
X0175312Y0025068D01*
X0175312Y0017902D01*
X0175312Y0018610D02*
X0173658Y0018610D01*
X0173658Y0019318D02*
X0175312Y0019318D01*
X0175312Y0020026D02*
X0173658Y0020026D01*
X0173658Y0020734D02*
X0175312Y0020734D01*
X0175312Y0021442D02*
X0173658Y0021442D01*
X0173658Y0022150D02*
X0175312Y0022150D01*
X0175312Y0022858D02*
X0173658Y0022858D01*
X0173658Y0023566D02*
X0175312Y0023566D01*
X0175312Y0024274D02*
X0173658Y0024274D01*
X0173658Y0024982D02*
X0175312Y0024982D01*
X0177595Y0017902D02*
X0179249Y0017902D01*
X0177595Y0017902D02*
X0177595Y0025068D01*
X0179249Y0025068D01*
X0179249Y0017902D01*
X0179249Y0018610D02*
X0177595Y0018610D01*
X0177595Y0019318D02*
X0179249Y0019318D01*
X0179249Y0020026D02*
X0177595Y0020026D01*
X0177595Y0020734D02*
X0179249Y0020734D01*
X0179249Y0021442D02*
X0177595Y0021442D01*
X0177595Y0022150D02*
X0179249Y0022150D01*
X0179249Y0022858D02*
X0177595Y0022858D01*
X0177595Y0023566D02*
X0179249Y0023566D01*
X0179249Y0024274D02*
X0177595Y0024274D01*
X0177595Y0024982D02*
X0179249Y0024982D01*
X0181532Y0017902D02*
X0183186Y0017902D01*
X0181532Y0017902D02*
X0181532Y0025068D01*
X0183186Y0025068D01*
X0183186Y0017902D01*
X0183186Y0018610D02*
X0181532Y0018610D01*
X0181532Y0019318D02*
X0183186Y0019318D01*
X0183186Y0020026D02*
X0181532Y0020026D01*
X0181532Y0020734D02*
X0183186Y0020734D01*
X0183186Y0021442D02*
X0181532Y0021442D01*
X0181532Y0022150D02*
X0183186Y0022150D01*
X0183186Y0022858D02*
X0181532Y0022858D01*
X0181532Y0023566D02*
X0183186Y0023566D01*
X0183186Y0024274D02*
X0181532Y0024274D01*
X0181532Y0024982D02*
X0183186Y0024982D01*
X0185469Y0017902D02*
X0187123Y0017902D01*
X0185469Y0017902D02*
X0185469Y0025068D01*
X0187123Y0025068D01*
X0187123Y0017902D01*
X0187123Y0018610D02*
X0185469Y0018610D01*
X0185469Y0019318D02*
X0187123Y0019318D01*
X0187123Y0020026D02*
X0185469Y0020026D01*
X0185469Y0020734D02*
X0187123Y0020734D01*
X0187123Y0021442D02*
X0185469Y0021442D01*
X0185469Y0022150D02*
X0187123Y0022150D01*
X0187123Y0022858D02*
X0185469Y0022858D01*
X0185469Y0023566D02*
X0187123Y0023566D01*
X0187123Y0024274D02*
X0185469Y0024274D01*
X0185469Y0024982D02*
X0187123Y0024982D01*
X0189406Y0017902D02*
X0191060Y0017902D01*
X0189406Y0017902D02*
X0189406Y0025068D01*
X0191060Y0025068D01*
X0191060Y0017902D01*
X0191060Y0018610D02*
X0189406Y0018610D01*
X0189406Y0019318D02*
X0191060Y0019318D01*
X0191060Y0020026D02*
X0189406Y0020026D01*
X0189406Y0020734D02*
X0191060Y0020734D01*
X0191060Y0021442D02*
X0189406Y0021442D01*
X0189406Y0022150D02*
X0191060Y0022150D01*
X0191060Y0022858D02*
X0189406Y0022858D01*
X0189406Y0023566D02*
X0191060Y0023566D01*
X0191060Y0024274D02*
X0189406Y0024274D01*
X0189406Y0024982D02*
X0191060Y0024982D01*
D18*
X0190233Y0021485D02*
X0190200Y0021300D01*
X0190200Y0021000D01*
X0188400Y0019200D01*
X0188400Y0015600D01*
X0184800Y0012600D02*
X0184800Y0019800D01*
X0186000Y0021000D01*
X0186000Y0021300D01*
X0186296Y0021485D01*
X0182359Y0021485D02*
X0182100Y0021300D01*
X0180600Y0019800D01*
X0180600Y0012600D01*
X0175200Y0007200D01*
X0166800Y0007200D01*
X0166800Y0006800D01*
X0166800Y0007200D02*
X0164400Y0009600D01*
X0164400Y0019800D01*
X0162900Y0021300D01*
X0162674Y0021485D01*
X0162600Y0021600D01*
X0162600Y0024000D01*
X0160200Y0026400D01*
X0149400Y0026400D01*
X0147000Y0024000D01*
X0147000Y0021600D01*
X0146926Y0021485D01*
X0149400Y0019800D02*
X0149400Y0017400D01*
X0148200Y0016200D01*
X0076800Y0016200D01*
X0076800Y0006800D01*
X0086800Y0006800D02*
X0087000Y0007200D01*
X0087000Y0015000D01*
X0150600Y0015000D01*
X0153000Y0017400D01*
X0153000Y0019200D01*
X0154800Y0021000D01*
X0154800Y0021485D01*
X0157200Y0019800D02*
X0157200Y0017400D01*
X0152400Y0012600D01*
X0097200Y0012600D01*
X0097200Y0007200D01*
X0096800Y0006800D01*
X0119367Y0021485D02*
X0119400Y0021600D01*
X0119400Y0064200D01*
X0121800Y0061800D02*
X0121800Y0066600D01*
X0118200Y0066600D01*
X0112800Y0061200D01*
X0112800Y0060000D01*
X0109200Y0060000D01*
X0108900Y0059700D01*
X0108737Y0059674D01*
X0115200Y0059400D02*
X0115200Y0055800D01*
X0108900Y0055800D01*
X0108737Y0055737D01*
X0109200Y0052200D02*
X0108900Y0051900D01*
X0108737Y0051800D01*
X0109200Y0052200D02*
X0115200Y0052200D01*
X0109200Y0047400D02*
X0108737Y0047863D01*
X0108600Y0048000D01*
X0106200Y0048000D01*
X0102000Y0052200D01*
X0102000Y0078600D01*
X0100800Y0079800D01*
X0100800Y0093000D01*
X0097200Y0096600D01*
X0096800Y0096800D01*
X0093000Y0092400D02*
X0094800Y0090600D01*
X0094800Y0044400D01*
X0108600Y0044400D01*
X0108600Y0044100D01*
X0108737Y0043926D01*
X0109200Y0047400D02*
X0111600Y0047400D01*
X0114000Y0045000D01*
X0114000Y0028200D01*
X0108600Y0022800D01*
X0099600Y0025800D02*
X0099600Y0028200D01*
X0108000Y0028200D01*
X0108146Y0028178D01*
X0108737Y0032115D02*
X0108600Y0032400D01*
X0069000Y0032400D01*
X0069000Y0034200D01*
X0072000Y0036000D02*
X0108600Y0036000D01*
X0108737Y0036052D01*
X0108737Y0039989D02*
X0108600Y0040200D01*
X0097200Y0040200D01*
X0097200Y0041400D01*
X0091800Y0045000D02*
X0087600Y0040800D01*
X0072600Y0040800D01*
X0072600Y0042000D01*
X0081600Y0043800D02*
X0081600Y0051600D01*
X0076800Y0056400D01*
X0076800Y0056800D01*
X0072600Y0063000D02*
X0068400Y0067200D01*
X0068400Y0095400D01*
X0067200Y0096600D01*
X0066800Y0096800D01*
X0057000Y0096600D02*
X0056800Y0096800D01*
X0057000Y0096600D02*
X0057000Y0088200D01*
X0066000Y0079200D01*
X0052200Y0076800D02*
X0052200Y0074400D01*
X0063000Y0063600D01*
X0051800Y0056800D02*
X0056400Y0052200D01*
X0056400Y0035400D01*
X0057600Y0034200D01*
X0060000Y0033000D02*
X0060000Y0036000D01*
X0063000Y0039000D01*
X0060000Y0033000D02*
X0054000Y0027000D01*
X0052200Y0027000D01*
X0051800Y0026800D01*
X0047400Y0024600D02*
X0047400Y0042600D01*
X0051600Y0046800D01*
X0051800Y0046800D01*
X0037200Y0036600D02*
X0034200Y0039600D01*
X0034200Y0054600D01*
X0031200Y0057600D01*
X0031200Y0090600D01*
X0033000Y0092400D01*
X0036800Y0096800D02*
X0037200Y0096600D01*
X0045000Y0088800D01*
X0035400Y0079200D01*
X0035400Y0064800D01*
X0034200Y0063600D01*
X0028200Y0060600D02*
X0027950Y0060729D01*
X0028200Y0060600D02*
X0031200Y0057600D01*
X0011400Y0071400D02*
X0006800Y0066800D01*
X0011400Y0071400D02*
X0011400Y0092400D01*
X0007200Y0096600D01*
X0006800Y0096800D01*
X0016800Y0096800D02*
X0016800Y0092400D01*
X0015000Y0090600D01*
X0015000Y0034800D01*
X0007200Y0027000D01*
X0006800Y0026800D01*
X0020454Y0026800D02*
X0021000Y0026400D01*
X0024600Y0022800D01*
X0027146Y0026800D02*
X0027600Y0027000D01*
X0032400Y0027000D01*
X0032666Y0026800D01*
X0047400Y0024600D02*
X0052800Y0019200D01*
X0057000Y0016800D02*
X0057000Y0007200D01*
X0056800Y0006800D01*
X0046800Y0006800D02*
X0046800Y0021600D01*
X0037200Y0017400D02*
X0043200Y0011400D01*
X0037200Y0017400D02*
X0037200Y0036600D01*
X0032666Y0034800D02*
X0027146Y0034800D01*
X0057000Y0016800D02*
X0061800Y0021600D01*
X0077934Y0026800D02*
X0078000Y0027000D01*
X0086400Y0027000D01*
X0086454Y0026800D01*
X0093000Y0026400D02*
X0093000Y0022800D01*
X0093000Y0026400D02*
X0093146Y0026800D01*
X0121800Y0022800D02*
X0121800Y0057000D01*
X0124200Y0052200D02*
X0124200Y0081000D01*
X0123600Y0081600D01*
X0123600Y0081900D01*
X0123304Y0082115D01*
X0125400Y0084000D02*
X0125400Y0087600D01*
X0120600Y0092400D01*
X0123600Y0093000D02*
X0123600Y0091200D01*
X0136200Y0091200D01*
X0141600Y0085800D01*
X0141600Y0083400D01*
X0142800Y0082200D01*
X0142989Y0082115D01*
X0139052Y0082115D02*
X0138900Y0081900D01*
X0137400Y0080400D01*
X0137400Y0076200D01*
X0133800Y0080400D02*
X0133800Y0065400D01*
X0115200Y0067800D02*
X0115200Y0068400D01*
X0115200Y0067800D02*
X0108900Y0067800D01*
X0108737Y0067548D01*
X0108600Y0064200D02*
X0103200Y0064200D01*
X0103200Y0086400D01*
X0108600Y0086400D02*
X0112800Y0082200D01*
X0112800Y0072000D01*
X0109200Y0072000D01*
X0108900Y0071700D01*
X0108737Y0071485D01*
X0099600Y0077400D02*
X0099600Y0052200D01*
X0091800Y0049800D02*
X0091800Y0045000D01*
X0082200Y0043200D02*
X0081600Y0043800D01*
X0091200Y0050400D02*
X0091800Y0049800D01*
X0091200Y0060600D02*
X0091800Y0061200D01*
X0091800Y0075000D01*
X0076800Y0090000D01*
X0076800Y0096800D01*
X0086800Y0096800D02*
X0087000Y0096600D01*
X0087000Y0083400D01*
X0092400Y0078000D01*
X0097200Y0080400D02*
X0097200Y0070200D01*
X0108600Y0064200D02*
X0108600Y0063900D01*
X0108737Y0063611D01*
X0118800Y0076200D02*
X0118800Y0081600D01*
X0119100Y0081900D01*
X0119367Y0082115D01*
X0125400Y0084000D02*
X0127200Y0082200D01*
X0127241Y0082115D01*
X0129600Y0080400D02*
X0129600Y0076200D01*
X0129600Y0080400D02*
X0131100Y0081900D01*
X0131178Y0082115D01*
X0133800Y0080400D02*
X0135000Y0081600D01*
X0135000Y0081900D01*
X0135115Y0082115D01*
X0145200Y0083400D02*
X0146400Y0082200D01*
X0146700Y0082200D01*
X0146926Y0082115D01*
X0145200Y0083400D02*
X0145200Y0086400D01*
X0139200Y0092400D01*
X0127200Y0092400D01*
X0127200Y0096600D01*
X0126800Y0096800D01*
X0123600Y0093000D02*
X0120000Y0096600D01*
X0117000Y0096600D01*
X0116800Y0096800D01*
X0136800Y0096600D02*
X0136800Y0096800D01*
X0136800Y0096600D02*
X0139200Y0096600D01*
X0149400Y0086400D01*
X0149400Y0083400D01*
X0150600Y0082200D01*
X0150863Y0082115D01*
X0153000Y0084000D02*
X0153000Y0090600D01*
X0146800Y0096800D01*
X0156800Y0096800D02*
X0157200Y0096600D01*
X0157200Y0083400D01*
X0158400Y0082200D01*
X0158700Y0082200D01*
X0158737Y0082115D01*
X0154800Y0082200D02*
X0154800Y0082115D01*
X0154800Y0082200D02*
X0153000Y0084000D01*
X0162674Y0082115D02*
X0162900Y0082200D01*
X0163200Y0082200D01*
X0164400Y0083400D01*
X0164400Y0094200D01*
X0166800Y0096600D01*
X0166800Y0096800D01*
X0177000Y0088200D02*
X0177000Y0083400D01*
X0178200Y0082200D01*
X0178422Y0082115D01*
X0125400Y0046200D02*
X0125400Y0023400D01*
X0127200Y0021600D01*
X0127241Y0021485D01*
X0129600Y0022800D02*
X0129600Y0042600D01*
X0141600Y0030000D02*
X0141600Y0022800D01*
X0142800Y0021600D01*
X0142989Y0021485D01*
X0135115Y0021485D02*
X0133800Y0022800D01*
X0133800Y0028800D01*
X0129600Y0022800D02*
X0130800Y0021600D01*
X0131100Y0021600D01*
X0131178Y0021485D01*
X0123304Y0021485D02*
X0123300Y0021600D01*
X0123000Y0021600D01*
X0121800Y0022800D01*
X0127200Y0011400D02*
X0127200Y0007200D01*
X0126800Y0006800D01*
X0127200Y0011400D02*
X0160200Y0011400D01*
X0157200Y0019800D02*
X0158700Y0021300D01*
X0158737Y0021485D01*
X0165000Y0022800D02*
X0165000Y0027600D01*
X0169200Y0027600D02*
X0169200Y0022800D01*
X0170400Y0021600D01*
X0170548Y0021485D01*
X0172800Y0022800D02*
X0174000Y0021600D01*
X0174300Y0021600D01*
X0174485Y0021485D01*
X0172800Y0022800D02*
X0172800Y0027600D01*
X0166200Y0021600D02*
X0165000Y0022800D01*
X0166200Y0021600D02*
X0166500Y0021600D01*
X0166611Y0021485D01*
X0177000Y0019800D02*
X0177000Y0012600D01*
X0177000Y0019800D02*
X0178200Y0021000D01*
X0178200Y0021300D01*
X0178422Y0021485D01*
X0150863Y0021485D02*
X0150600Y0021300D01*
X0150600Y0021000D01*
X0149400Y0019800D01*
X0052200Y0076800D02*
X0051800Y0076800D01*
X0049800Y0084000D02*
X0045000Y0088800D01*
X0025800Y0086400D02*
X0016200Y0076800D01*
X0016200Y0007800D01*
X0016800Y0007200D01*
X0016800Y0006800D01*
X0016800Y0092400D02*
X0022800Y0092400D01*
D19*
X0022800Y0092400D03*
X0033000Y0092400D03*
X0025800Y0086400D03*
X0049800Y0084000D03*
X0066000Y0079200D03*
X0066000Y0073200D03*
X0063000Y0063600D03*
X0072600Y0063000D03*
X0091200Y0060600D03*
X0099600Y0052200D03*
X0091200Y0050400D03*
X0082200Y0043200D03*
X0076200Y0038400D03*
X0072000Y0036000D03*
X0069000Y0034200D03*
X0063000Y0039000D03*
X0066000Y0041400D03*
X0072600Y0042000D03*
X0057600Y0034200D03*
X0042000Y0042000D03*
X0031800Y0046800D03*
X0037200Y0049800D03*
X0018600Y0042600D03*
X0025200Y0039000D03*
X0024600Y0022800D03*
X0043200Y0011400D03*
X0052800Y0019200D03*
X0046800Y0021600D03*
X0061800Y0021600D03*
X0093000Y0022800D03*
X0099600Y0025800D03*
X0108600Y0022800D03*
X0117000Y0034200D03*
X0129600Y0042600D03*
X0125400Y0046200D03*
X0124200Y0052200D03*
X0121800Y0057000D03*
X0115200Y0059400D03*
X0121800Y0061800D03*
X0119400Y0064200D03*
X0115200Y0068400D03*
X0115200Y0072600D03*
X0118800Y0076200D03*
X0110400Y0081000D03*
X0108600Y0086400D03*
X0103200Y0086400D03*
X0097200Y0080400D03*
X0099600Y0077400D03*
X0092400Y0078000D03*
X0097200Y0070200D03*
X0129600Y0076200D03*
X0137400Y0076200D03*
X0133800Y0065400D03*
X0115200Y0052200D03*
X0097200Y0041400D03*
X0066000Y0052200D03*
X0044400Y0061800D03*
X0034200Y0063600D03*
X0018600Y0057000D03*
X0093000Y0092400D03*
X0120600Y0092400D03*
X0177000Y0088200D03*
X0181800Y0078800D03*
X0185800Y0078800D03*
X0189800Y0078800D03*
X0193800Y0078800D03*
X0197800Y0078800D03*
X0176800Y0072800D03*
X0176800Y0068800D03*
X0176800Y0064800D03*
X0176800Y0060800D03*
X0176800Y0056800D03*
X0176800Y0052800D03*
X0176800Y0048800D03*
X0176800Y0044800D03*
X0176800Y0040800D03*
X0176800Y0036800D03*
X0176800Y0032800D03*
X0172800Y0032800D03*
X0168800Y0032800D03*
X0164800Y0032800D03*
X0160800Y0032800D03*
X0156800Y0032800D03*
X0152800Y0032800D03*
X0148800Y0032800D03*
X0141600Y0030000D03*
X0137400Y0027600D03*
X0133800Y0028800D03*
X0165000Y0027600D03*
X0169200Y0027600D03*
X0172800Y0027600D03*
X0188400Y0015600D03*
X0184800Y0012600D03*
X0177000Y0012600D03*
X0160200Y0011400D03*
D20*
X0139052Y0021485D02*
X0138900Y0021600D01*
X0138600Y0021600D01*
X0137400Y0022800D01*
X0137400Y0027600D01*
X0152800Y0032800D02*
X0153000Y0033000D01*
X0156600Y0033000D01*
X0156800Y0032800D01*
X0157200Y0033000D01*
X0160800Y0033000D01*
X0160800Y0032800D01*
X0160800Y0033000D02*
X0164400Y0033000D01*
X0164800Y0032800D01*
X0165000Y0033000D01*
X0168600Y0033000D01*
X0168800Y0032800D01*
X0169200Y0033000D01*
X0172800Y0033000D01*
X0172800Y0032800D01*
X0172800Y0033000D02*
X0176400Y0033000D01*
X0176800Y0032800D01*
X0177000Y0033000D01*
X0177000Y0036600D01*
X0176800Y0036800D01*
X0177000Y0037200D01*
X0177000Y0040800D01*
X0176800Y0040800D01*
X0177000Y0040800D02*
X0177000Y0044400D01*
X0176800Y0044800D01*
X0177000Y0045000D01*
X0177000Y0048600D01*
X0176800Y0048800D01*
X0177000Y0049200D01*
X0177000Y0052800D01*
X0176800Y0052800D01*
X0177000Y0052800D02*
X0177000Y0056400D01*
X0176800Y0056800D01*
X0177000Y0057000D01*
X0177000Y0060600D01*
X0176800Y0060800D01*
X0177000Y0061200D01*
X0177000Y0064800D01*
X0176800Y0064800D01*
X0177000Y0064800D02*
X0177000Y0068400D01*
X0176800Y0068800D01*
X0177000Y0069000D01*
X0177000Y0072600D01*
X0176800Y0072800D01*
X0175800Y0073800D01*
X0175800Y0080400D01*
X0174600Y0081600D01*
X0181800Y0078800D02*
X0181800Y0078600D01*
X0185400Y0078600D01*
X0185800Y0078800D01*
X0186000Y0078600D01*
X0189600Y0078600D01*
X0189800Y0078800D01*
X0190200Y0078600D01*
X0193800Y0078600D01*
X0193800Y0078800D01*
X0193800Y0078600D02*
X0197400Y0078600D01*
X0197800Y0078800D01*
X0115500Y0082500D02*
X0115200Y0082200D01*
X0115200Y0072600D01*
X0110400Y0077400D02*
X0108600Y0075600D01*
X0110400Y0077400D02*
X0110400Y0081000D01*
X0115430Y0082706D02*
X0115500Y0082500D01*
X0076800Y0066800D02*
X0076800Y0063600D01*
X0069600Y0056400D01*
X0069600Y0039000D01*
X0072600Y0039000D01*
X0073200Y0038400D01*
X0076200Y0038400D01*
X0066000Y0041400D02*
X0066000Y0052200D01*
X0066000Y0073200D01*
X0044400Y0074400D02*
X0044400Y0061800D01*
X0044400Y0049800D01*
X0044100Y0049500D01*
X0040800Y0052800D01*
X0040800Y0053146D01*
X0037500Y0050100D02*
X0037200Y0049800D01*
X0037500Y0050100D02*
X0040800Y0046800D01*
X0040800Y0046454D01*
X0044100Y0049500D02*
X0044400Y0049200D01*
X0044400Y0042000D01*
X0042000Y0042000D01*
X0044400Y0042000D02*
X0044400Y0037800D01*
X0041400Y0034800D01*
X0040934Y0034800D01*
X0041400Y0034800D02*
X0041400Y0027000D01*
X0040934Y0026800D01*
X0025200Y0039000D02*
X0021000Y0034800D01*
X0020454Y0034800D01*
X0018600Y0042600D02*
X0018600Y0045000D01*
X0020400Y0046800D01*
X0020454Y0046800D01*
X0021000Y0046800D01*
X0021600Y0047400D01*
X0027146Y0046800D02*
X0027146Y0055233D01*
X0021650Y0060729D01*
X0018000Y0057600D02*
X0018600Y0057000D01*
X0018000Y0057600D02*
X0018000Y0066600D01*
X0019800Y0068400D01*
X0020076Y0068800D01*
X0037200Y0067800D02*
X0040800Y0071400D01*
X0040800Y0071454D01*
X0044400Y0074400D02*
X0040800Y0078000D01*
X0040800Y0078146D01*
X0037200Y0067800D02*
X0037200Y0050400D01*
X0037500Y0050100D01*
X0031800Y0046800D02*
X0027146Y0046800D01*
X0066000Y0041400D02*
X0066000Y0030600D01*
X0069600Y0027000D01*
X0069666Y0026800D01*
X0115800Y0021000D02*
X0117000Y0022200D01*
X0117000Y0034200D01*
D21*
X0117700Y0033770D02*
X0115700Y0033770D01*
X0115700Y0032172D02*
X0117700Y0032172D01*
X0117700Y0030573D02*
X0115700Y0030573D01*
X0115700Y0028975D02*
X0117700Y0028975D01*
X0117700Y0027376D02*
X0115580Y0027376D01*
X0115700Y0027496D02*
X0114704Y0026500D01*
X0114704Y0026500D01*
X0114218Y0026014D01*
X0114320Y0026041D01*
X0115430Y0026041D01*
X0115430Y0020895D01*
X0115430Y0020895D01*
X0115430Y0026041D01*
X0116540Y0026041D01*
X0116928Y0025937D01*
X0117700Y0026709D01*
X0117700Y0051049D01*
X0117531Y0050642D01*
X0116758Y0049869D01*
X0115747Y0049450D01*
X0114653Y0049450D01*
X0113680Y0049853D01*
X0113659Y0049831D01*
X0114074Y0049416D01*
X0114074Y0047330D01*
X0115700Y0045704D01*
X0115700Y0027496D01*
X0115430Y0025778D02*
X0115430Y0025778D01*
X0115430Y0024179D02*
X0115430Y0024179D01*
X0112476Y0024272D02*
X0112449Y0024170D01*
X0112449Y0020895D01*
X0115430Y0020895D01*
X0115430Y0020894D01*
X0112449Y0020894D01*
X0112449Y0017900D01*
X0076096Y0017900D01*
X0075100Y0016904D01*
X0075100Y0011700D01*
X0074770Y0011700D01*
X0071900Y0008830D01*
X0071900Y0004770D01*
X0072570Y0004100D01*
X0071030Y0004100D01*
X0071700Y0004770D01*
X0071700Y0008830D01*
X0068830Y0011700D01*
X0064770Y0011700D01*
X0061900Y0008830D01*
X0061900Y0004770D01*
X0062570Y0004100D01*
X0061030Y0004100D01*
X0061700Y0004770D01*
X0061700Y0008830D01*
X0058830Y0011700D01*
X0058700Y0011700D01*
X0058700Y0016096D01*
X0061454Y0018850D01*
X0062347Y0018850D01*
X0063358Y0019269D01*
X0064131Y0020042D01*
X0064550Y0021053D01*
X0064550Y0022147D01*
X0064131Y0023158D01*
X0063358Y0023931D01*
X0062347Y0024350D01*
X0061253Y0024350D01*
X0060242Y0023931D01*
X0059469Y0023158D01*
X0059050Y0022147D01*
X0059050Y0021254D01*
X0056296Y0018500D01*
X0055300Y0017504D01*
X0055300Y0011700D01*
X0054770Y0011700D01*
X0051900Y0008830D01*
X0051900Y0004770D01*
X0052570Y0004100D01*
X0051030Y0004100D01*
X0051700Y0004770D01*
X0051700Y0008830D01*
X0048830Y0011700D01*
X0048500Y0011700D01*
X0048500Y0019411D01*
X0049131Y0020042D01*
X0049255Y0020341D01*
X0050050Y0019546D01*
X0050050Y0018653D01*
X0050469Y0017642D01*
X0051242Y0016869D01*
X0052253Y0016450D01*
X0053347Y0016450D01*
X0054358Y0016869D01*
X0055131Y0017642D01*
X0055550Y0018653D01*
X0055550Y0019747D01*
X0055131Y0020758D01*
X0054358Y0021531D01*
X0053468Y0021900D01*
X0053830Y0021900D01*
X0056700Y0024770D01*
X0056700Y0027296D01*
X0061700Y0032296D01*
X0061700Y0035296D01*
X0062654Y0036250D01*
X0063547Y0036250D01*
X0064100Y0036479D01*
X0064100Y0029813D01*
X0065213Y0028700D01*
X0065904Y0028009D01*
X0065904Y0023858D01*
X0066724Y0023038D01*
X0072608Y0023038D01*
X0073428Y0023858D01*
X0073428Y0029742D01*
X0072608Y0030562D01*
X0068725Y0030562D01*
X0068587Y0030700D01*
X0103400Y0030700D01*
X0103400Y0030562D01*
X0103815Y0030146D01*
X0103569Y0029900D01*
X0098896Y0029900D01*
X0097900Y0028904D01*
X0097900Y0027989D01*
X0097269Y0027358D01*
X0096850Y0026347D01*
X0096850Y0025253D01*
X0097269Y0024242D01*
X0098042Y0023469D01*
X0099053Y0023050D01*
X0100147Y0023050D01*
X0101158Y0023469D01*
X0101931Y0024242D01*
X0102350Y0025253D01*
X0102350Y0026347D01*
X0102287Y0026500D01*
X0103525Y0026500D01*
X0104428Y0025597D01*
X0108993Y0025597D01*
X0108946Y0025550D01*
X0108053Y0025550D01*
X0107042Y0025131D01*
X0106269Y0024358D01*
X0105850Y0023347D01*
X0105850Y0022253D01*
X0106269Y0021242D01*
X0107042Y0020469D01*
X0108053Y0020050D01*
X0109147Y0020050D01*
X0110158Y0020469D01*
X0110931Y0021242D01*
X0111350Y0022253D01*
X0111350Y0023146D01*
X0112476Y0024272D01*
X0112451Y0024179D02*
X0112383Y0024179D01*
X0112449Y0022581D02*
X0111350Y0022581D01*
X0110671Y0020982D02*
X0112449Y0020982D01*
X0115430Y0020982D02*
X0115430Y0020982D01*
X0115430Y0022581D02*
X0115430Y0022581D01*
X0112449Y0019384D02*
X0063473Y0019384D01*
X0064521Y0020982D02*
X0090929Y0020982D01*
X0090669Y0021242D02*
X0091442Y0020469D01*
X0092453Y0020050D01*
X0093547Y0020050D01*
X0094558Y0020469D01*
X0095331Y0021242D01*
X0095750Y0022253D01*
X0095750Y0023347D01*
X0095715Y0023431D01*
X0095892Y0023431D01*
X0096712Y0024252D01*
X0096712Y0029348D01*
X0095892Y0030168D01*
X0090401Y0030168D01*
X0089800Y0029567D01*
X0089199Y0030168D01*
X0083708Y0030168D01*
X0082888Y0029348D01*
X0082888Y0028700D01*
X0081696Y0028700D01*
X0081696Y0029742D01*
X0080876Y0030562D01*
X0074992Y0030562D01*
X0074172Y0029742D01*
X0074172Y0023858D01*
X0074992Y0023038D01*
X0080876Y0023038D01*
X0081696Y0023858D01*
X0081696Y0025300D01*
X0082888Y0025300D01*
X0082888Y0024252D01*
X0083708Y0023431D01*
X0089199Y0023431D01*
X0089800Y0024033D01*
X0090319Y0023514D01*
X0090250Y0023347D01*
X0090250Y0022253D01*
X0090669Y0021242D01*
X0090250Y0022581D02*
X0064370Y0022581D01*
X0065904Y0024179D02*
X0062759Y0024179D01*
X0060841Y0024179D02*
X0056109Y0024179D01*
X0056700Y0025778D02*
X0065904Y0025778D01*
X0065904Y0027376D02*
X0056780Y0027376D01*
X0058379Y0028975D02*
X0064938Y0028975D01*
X0064100Y0030573D02*
X0059977Y0030573D01*
X0061576Y0032172D02*
X0064100Y0032172D01*
X0064100Y0033770D02*
X0061700Y0033770D01*
X0061773Y0035369D02*
X0064100Y0035369D01*
X0067900Y0036721D02*
X0067900Y0039411D01*
X0068331Y0039842D01*
X0068750Y0040853D01*
X0068750Y0041947D01*
X0068331Y0042958D01*
X0067900Y0043389D01*
X0067900Y0050211D01*
X0068331Y0050642D01*
X0068750Y0051653D01*
X0068750Y0052747D01*
X0068331Y0053758D01*
X0067900Y0054189D01*
X0067900Y0065296D01*
X0069850Y0063346D01*
X0069850Y0062453D01*
X0070269Y0061442D01*
X0071042Y0060669D01*
X0072053Y0060250D01*
X0073038Y0060250D01*
X0071700Y0058912D01*
X0071700Y0054688D01*
X0074588Y0051800D01*
X0071700Y0048912D01*
X0071700Y0044688D01*
X0071759Y0044628D01*
X0071042Y0044331D01*
X0070269Y0043558D01*
X0069850Y0042547D01*
X0069850Y0041453D01*
X0070269Y0040442D01*
X0071042Y0039669D01*
X0071529Y0039467D01*
X0071896Y0039100D01*
X0088304Y0039100D01*
X0089300Y0040096D01*
X0093100Y0043896D01*
X0093100Y0043696D01*
X0094096Y0042700D01*
X0094762Y0042700D01*
X0094450Y0041947D01*
X0094450Y0040853D01*
X0094869Y0039842D01*
X0095642Y0039069D01*
X0096129Y0038867D01*
X0096496Y0038500D01*
X0103400Y0038500D01*
X0103400Y0038436D01*
X0103815Y0038020D01*
X0103495Y0037700D01*
X0074189Y0037700D01*
X0073558Y0038331D01*
X0072547Y0038750D01*
X0071453Y0038750D01*
X0070442Y0038331D01*
X0069669Y0037558D01*
X0069417Y0036950D01*
X0068453Y0036950D01*
X0067900Y0036721D01*
X0067900Y0036967D02*
X0069424Y0036967D01*
X0067900Y0038566D02*
X0071008Y0038566D01*
X0070547Y0040164D02*
X0068465Y0040164D01*
X0068750Y0041763D02*
X0069850Y0041763D01*
X0070187Y0043361D02*
X0067928Y0043361D01*
X0067900Y0044960D02*
X0071700Y0044960D01*
X0071700Y0046558D02*
X0067900Y0046558D01*
X0067900Y0048157D02*
X0071700Y0048157D01*
X0072543Y0049755D02*
X0067900Y0049755D01*
X0068626Y0051354D02*
X0074141Y0051354D01*
X0073435Y0052952D02*
X0068665Y0052952D01*
X0067900Y0054551D02*
X0071837Y0054551D01*
X0071700Y0056149D02*
X0067900Y0056149D01*
X0067900Y0057748D02*
X0071700Y0057748D01*
X0072134Y0059346D02*
X0067900Y0059346D01*
X0067900Y0060945D02*
X0070766Y0060945D01*
X0069850Y0062543D02*
X0067900Y0062543D01*
X0067900Y0064142D02*
X0069054Y0064142D01*
X0071404Y0066600D02*
X0070100Y0067904D01*
X0070100Y0093170D01*
X0071700Y0094770D01*
X0071700Y0098830D01*
X0071030Y0099500D01*
X0072570Y0099500D01*
X0071900Y0098830D01*
X0071900Y0094770D01*
X0074770Y0091900D01*
X0075100Y0091900D01*
X0075100Y0089296D01*
X0076096Y0088300D01*
X0090100Y0074296D01*
X0090100Y0070712D01*
X0088912Y0071900D01*
X0084688Y0071900D01*
X0082083Y0069295D01*
X0079078Y0072300D01*
X0077000Y0072300D01*
X0077000Y0067000D01*
X0076600Y0067000D01*
X0076600Y0072300D01*
X0074522Y0072300D01*
X0071300Y0069078D01*
X0071300Y0067000D01*
X0076600Y0067000D01*
X0076600Y0066600D01*
X0077000Y0066600D01*
X0077000Y0061900D01*
X0076600Y0061900D01*
X0076600Y0066600D01*
X0071404Y0066600D01*
X0071300Y0067339D02*
X0070665Y0067339D01*
X0070100Y0068937D02*
X0071300Y0068937D01*
X0070100Y0070536D02*
X0072758Y0070536D01*
X0074356Y0072134D02*
X0070100Y0072134D01*
X0070100Y0073733D02*
X0090100Y0073733D01*
X0089064Y0075332D02*
X0070100Y0075332D01*
X0070100Y0076930D02*
X0087466Y0076930D01*
X0085867Y0078529D02*
X0070100Y0078529D01*
X0070100Y0080127D02*
X0084269Y0080127D01*
X0082670Y0081726D02*
X0070100Y0081726D01*
X0070100Y0083324D02*
X0081072Y0083324D01*
X0079473Y0084923D02*
X0070100Y0084923D01*
X0070100Y0086521D02*
X0077875Y0086521D01*
X0076276Y0088120D02*
X0070100Y0088120D01*
X0070100Y0089718D02*
X0075100Y0089718D01*
X0075100Y0091317D02*
X0070100Y0091317D01*
X0070100Y0092915D02*
X0073755Y0092915D01*
X0072157Y0094514D02*
X0071443Y0094514D01*
X0071700Y0096112D02*
X0071900Y0096112D01*
X0071900Y0097711D02*
X0071700Y0097711D01*
X0071220Y0099309D02*
X0072380Y0099309D01*
X0047050Y0084346D02*
X0045000Y0086396D01*
X0040616Y0082012D01*
X0040616Y0078331D01*
X0040984Y0078331D01*
X0040984Y0082112D01*
X0043005Y0082112D01*
X0043463Y0081989D01*
X0043874Y0081752D01*
X0044209Y0081417D01*
X0044446Y0081007D01*
X0044568Y0080549D01*
X0044568Y0078331D01*
X0040984Y0078331D01*
X0040984Y0077962D01*
X0044568Y0077962D01*
X0044568Y0075744D01*
X0044446Y0075286D01*
X0044209Y0074876D01*
X0043874Y0074541D01*
X0043844Y0074523D01*
X0044168Y0074199D01*
X0044168Y0068708D01*
X0043348Y0067888D01*
X0039975Y0067888D01*
X0039100Y0067013D01*
X0039100Y0057112D01*
X0040616Y0057112D01*
X0040616Y0053331D01*
X0040984Y0053331D01*
X0040984Y0057112D01*
X0043005Y0057112D01*
X0043463Y0056989D01*
X0043874Y0056752D01*
X0044209Y0056417D01*
X0044446Y0056007D01*
X0044568Y0055549D01*
X0044568Y0053331D01*
X0040984Y0053331D01*
X0040984Y0052962D01*
X0040984Y0050019D01*
X0040616Y0050019D01*
X0040616Y0052962D01*
X0040984Y0052962D01*
X0044568Y0052962D01*
X0044568Y0050744D01*
X0044446Y0050286D01*
X0044209Y0049876D01*
X0043874Y0049541D01*
X0043844Y0049523D01*
X0044168Y0049199D01*
X0044168Y0043708D01*
X0043348Y0042888D01*
X0038252Y0042888D01*
X0037431Y0043708D01*
X0037431Y0047050D01*
X0036653Y0047050D01*
X0035900Y0047362D01*
X0035900Y0040304D01*
X0037552Y0038652D01*
X0037877Y0038840D01*
X0038335Y0038962D01*
X0040553Y0038962D01*
X0040553Y0035181D01*
X0041315Y0035181D01*
X0045096Y0035181D01*
X0045096Y0037399D01*
X0044973Y0037857D01*
X0044736Y0038267D01*
X0044401Y0038603D01*
X0043991Y0038840D01*
X0043533Y0038962D01*
X0041315Y0038962D01*
X0041315Y0035181D01*
X0041315Y0034419D01*
X0045096Y0034419D01*
X0045096Y0032201D01*
X0044973Y0031743D01*
X0044736Y0031333D01*
X0044401Y0030997D01*
X0044059Y0030800D01*
X0044401Y0030603D01*
X0044736Y0030267D01*
X0044973Y0029857D01*
X0045096Y0029399D01*
X0045096Y0027181D01*
X0041315Y0027181D01*
X0041315Y0026419D01*
X0045096Y0026419D01*
X0045096Y0024201D01*
X0044973Y0023743D01*
X0044863Y0023552D01*
X0045242Y0023931D01*
X0045700Y0024121D01*
X0045700Y0043304D01*
X0047033Y0044637D01*
X0046900Y0044770D01*
X0046900Y0048830D01*
X0049770Y0051700D01*
X0053830Y0051700D01*
X0054700Y0050830D01*
X0054700Y0051496D01*
X0054063Y0052133D01*
X0053830Y0051900D01*
X0049770Y0051900D01*
X0046900Y0054770D01*
X0046900Y0058830D01*
X0049770Y0061700D01*
X0053830Y0061700D01*
X0056700Y0058830D01*
X0056700Y0054770D01*
X0056467Y0054537D01*
X0058100Y0052904D01*
X0058100Y0036950D01*
X0058147Y0036950D01*
X0058429Y0036833D01*
X0059296Y0037700D01*
X0060250Y0038654D01*
X0060250Y0039547D01*
X0060669Y0040558D01*
X0061442Y0041331D01*
X0062453Y0041750D01*
X0063250Y0041750D01*
X0063250Y0041947D01*
X0063669Y0042958D01*
X0064100Y0043389D01*
X0064100Y0050211D01*
X0063669Y0050642D01*
X0063250Y0051653D01*
X0063250Y0052747D01*
X0063669Y0053758D01*
X0064100Y0054189D01*
X0064100Y0061079D01*
X0063547Y0060850D01*
X0062453Y0060850D01*
X0061442Y0061269D01*
X0060669Y0062042D01*
X0060250Y0063053D01*
X0060250Y0063946D01*
X0056700Y0067496D01*
X0056700Y0064770D01*
X0053830Y0061900D01*
X0049770Y0061900D01*
X0046900Y0064770D01*
X0046900Y0068830D01*
X0049770Y0071700D01*
X0052496Y0071700D01*
X0052296Y0071900D01*
X0049770Y0071900D01*
X0046900Y0074770D01*
X0046900Y0078830D01*
X0049320Y0081250D01*
X0049253Y0081250D01*
X0048242Y0081669D01*
X0047469Y0082442D01*
X0047050Y0083453D01*
X0047050Y0084346D01*
X0046473Y0084923D02*
X0043527Y0084923D01*
X0041928Y0083324D02*
X0047103Y0083324D01*
X0048185Y0081726D02*
X0043900Y0081726D01*
X0044568Y0080127D02*
X0048197Y0080127D01*
X0046900Y0078529D02*
X0044568Y0078529D01*
X0044568Y0076930D02*
X0046900Y0076930D01*
X0046900Y0075332D02*
X0044458Y0075332D01*
X0044168Y0073733D02*
X0047937Y0073733D01*
X0049536Y0072134D02*
X0044168Y0072134D01*
X0044168Y0070536D02*
X0048606Y0070536D01*
X0047008Y0068937D02*
X0044168Y0068937D01*
X0046900Y0067339D02*
X0039426Y0067339D01*
X0039100Y0065740D02*
X0046900Y0065740D01*
X0047528Y0064142D02*
X0039100Y0064142D01*
X0039100Y0062543D02*
X0049127Y0062543D01*
X0049015Y0060945D02*
X0039100Y0060945D01*
X0039100Y0059346D02*
X0047417Y0059346D01*
X0046900Y0057748D02*
X0039100Y0057748D01*
X0040616Y0056149D02*
X0040984Y0056149D01*
X0040984Y0054551D02*
X0040616Y0054551D01*
X0040616Y0052952D02*
X0040984Y0052952D01*
X0040984Y0051354D02*
X0040616Y0051354D01*
X0044088Y0049755D02*
X0047826Y0049755D01*
X0049424Y0051354D02*
X0044568Y0051354D01*
X0044568Y0052952D02*
X0048718Y0052952D01*
X0047119Y0054551D02*
X0044568Y0054551D01*
X0044363Y0056149D02*
X0046900Y0056149D01*
X0054585Y0060945D02*
X0062224Y0060945D01*
X0063776Y0060945D02*
X0064100Y0060945D01*
X0064100Y0059346D02*
X0056183Y0059346D01*
X0056700Y0057748D02*
X0064100Y0057748D01*
X0064100Y0056149D02*
X0056700Y0056149D01*
X0056480Y0054551D02*
X0064100Y0054551D01*
X0063335Y0052952D02*
X0058052Y0052952D01*
X0058100Y0051354D02*
X0063374Y0051354D01*
X0064100Y0049755D02*
X0058100Y0049755D01*
X0054700Y0051354D02*
X0054176Y0051354D01*
X0058100Y0048157D02*
X0064100Y0048157D01*
X0064100Y0046558D02*
X0058100Y0046558D01*
X0058100Y0044960D02*
X0064100Y0044960D01*
X0064072Y0043361D02*
X0058100Y0043361D01*
X0058100Y0041763D02*
X0063250Y0041763D01*
X0060506Y0040164D02*
X0058100Y0040164D01*
X0058100Y0038566D02*
X0060162Y0038566D01*
X0058563Y0036967D02*
X0058100Y0036967D01*
X0068714Y0030573D02*
X0103400Y0030573D01*
X0097971Y0028975D02*
X0096712Y0028975D01*
X0096712Y0027376D02*
X0097287Y0027376D01*
X0096850Y0025778D02*
X0096712Y0025778D01*
X0096639Y0024179D02*
X0097332Y0024179D01*
X0095750Y0022581D02*
X0105850Y0022581D01*
X0106529Y0020982D02*
X0095071Y0020982D01*
X0101868Y0024179D02*
X0106195Y0024179D01*
X0104247Y0025778D02*
X0102350Y0025778D01*
X0082961Y0024179D02*
X0081696Y0024179D01*
X0074172Y0024179D02*
X0073428Y0024179D01*
X0073428Y0025778D02*
X0074172Y0025778D01*
X0074172Y0027376D02*
X0073428Y0027376D01*
X0073428Y0028975D02*
X0074172Y0028975D01*
X0081696Y0028975D02*
X0082888Y0028975D01*
X0075981Y0017785D02*
X0060389Y0017785D01*
X0057179Y0019384D02*
X0055550Y0019384D01*
X0055581Y0017785D02*
X0055190Y0017785D01*
X0055300Y0016187D02*
X0048500Y0016187D01*
X0048500Y0014588D02*
X0055300Y0014588D01*
X0058700Y0014588D02*
X0075100Y0014588D01*
X0075100Y0016187D02*
X0058791Y0016187D01*
X0058700Y0012990D02*
X0075100Y0012990D01*
X0074461Y0011391D02*
X0069139Y0011391D01*
X0070737Y0009793D02*
X0072863Y0009793D01*
X0071900Y0008194D02*
X0071700Y0008194D01*
X0071700Y0006596D02*
X0071900Y0006596D01*
X0071900Y0004997D02*
X0071700Y0004997D01*
X0061900Y0004997D02*
X0061700Y0004997D01*
X0061700Y0006596D02*
X0061900Y0006596D01*
X0061900Y0008194D02*
X0061700Y0008194D01*
X0060737Y0009793D02*
X0062863Y0009793D01*
X0064461Y0011391D02*
X0059139Y0011391D01*
X0055300Y0012990D02*
X0048500Y0012990D01*
X0049139Y0011391D02*
X0054461Y0011391D01*
X0052863Y0009793D02*
X0050737Y0009793D01*
X0051700Y0008194D02*
X0051900Y0008194D01*
X0051900Y0006596D02*
X0051700Y0006596D01*
X0051700Y0004997D02*
X0051900Y0004997D01*
X0045100Y0013389D02*
X0045100Y0019411D01*
X0044469Y0020042D01*
X0044050Y0021053D01*
X0044050Y0022147D01*
X0044403Y0022999D01*
X0044401Y0022997D01*
X0043991Y0022760D01*
X0043533Y0022638D01*
X0041315Y0022638D01*
X0041315Y0026419D01*
X0040553Y0026419D01*
X0040553Y0022638D01*
X0038900Y0022638D01*
X0038900Y0018104D01*
X0042854Y0014150D01*
X0043747Y0014150D01*
X0044758Y0013731D01*
X0045100Y0013389D01*
X0045100Y0014588D02*
X0042416Y0014588D01*
X0040818Y0016187D02*
X0045100Y0016187D01*
X0045100Y0017785D02*
X0039219Y0017785D01*
X0038900Y0019384D02*
X0045100Y0019384D01*
X0044079Y0020982D02*
X0038900Y0020982D01*
X0038900Y0022581D02*
X0044230Y0022581D01*
X0045090Y0024179D02*
X0045700Y0024179D01*
X0045700Y0025778D02*
X0045096Y0025778D01*
X0045096Y0027376D02*
X0045700Y0027376D01*
X0045700Y0028975D02*
X0045096Y0028975D01*
X0045700Y0030573D02*
X0044431Y0030573D01*
X0045088Y0032172D02*
X0045700Y0032172D01*
X0045700Y0033770D02*
X0045096Y0033770D01*
X0045096Y0035369D02*
X0045700Y0035369D01*
X0045700Y0036967D02*
X0045096Y0036967D01*
X0045700Y0038566D02*
X0044438Y0038566D01*
X0045700Y0040164D02*
X0036040Y0040164D01*
X0035900Y0041763D02*
X0045700Y0041763D01*
X0045757Y0043361D02*
X0043822Y0043361D01*
X0044168Y0044960D02*
X0046900Y0044960D01*
X0046900Y0046558D02*
X0044168Y0046558D01*
X0044168Y0048157D02*
X0046900Y0048157D01*
X0037431Y0046558D02*
X0035900Y0046558D01*
X0035900Y0044960D02*
X0037431Y0044960D01*
X0037778Y0043361D02*
X0035900Y0043361D01*
X0040553Y0038566D02*
X0041315Y0038566D01*
X0041315Y0036967D02*
X0040553Y0036967D01*
X0040553Y0035369D02*
X0041315Y0035369D01*
X0041315Y0034419D02*
X0041315Y0027181D01*
X0040553Y0027181D01*
X0040553Y0030962D01*
X0040553Y0034419D01*
X0041315Y0034419D01*
X0041315Y0033770D02*
X0040553Y0033770D01*
X0040553Y0032172D02*
X0041315Y0032172D01*
X0041315Y0030573D02*
X0040553Y0030573D01*
X0040553Y0028975D02*
X0041315Y0028975D01*
X0041315Y0027376D02*
X0040553Y0027376D01*
X0040553Y0025778D02*
X0041315Y0025778D01*
X0041315Y0024179D02*
X0040553Y0024179D01*
X0048500Y0019384D02*
X0050050Y0019384D01*
X0050409Y0017785D02*
X0048500Y0017785D01*
X0054907Y0020982D02*
X0058778Y0020982D01*
X0059230Y0022581D02*
X0054510Y0022581D01*
X0072992Y0038566D02*
X0096430Y0038566D01*
X0094735Y0040164D02*
X0089368Y0040164D01*
X0090967Y0041763D02*
X0094450Y0041763D01*
X0093435Y0043361D02*
X0092565Y0043361D01*
X0114074Y0048157D02*
X0117700Y0048157D01*
X0117700Y0049755D02*
X0116484Y0049755D01*
X0113916Y0049755D02*
X0113735Y0049755D01*
X0114846Y0046558D02*
X0117700Y0046558D01*
X0117700Y0044960D02*
X0115700Y0044960D01*
X0115700Y0043361D02*
X0117700Y0043361D01*
X0117700Y0041763D02*
X0115700Y0041763D01*
X0115700Y0040164D02*
X0117700Y0040164D01*
X0117700Y0038566D02*
X0115700Y0038566D01*
X0115700Y0036967D02*
X0117700Y0036967D01*
X0117700Y0035369D02*
X0115700Y0035369D01*
X0131300Y0035369D02*
X0177622Y0035369D01*
X0177622Y0036967D02*
X0131300Y0036967D01*
X0131300Y0038566D02*
X0177622Y0038566D01*
X0177622Y0040164D02*
X0131300Y0040164D01*
X0131300Y0040411D02*
X0131931Y0041042D01*
X0132350Y0042053D01*
X0132350Y0043147D01*
X0131931Y0044158D01*
X0131158Y0044931D01*
X0130147Y0045350D01*
X0129053Y0045350D01*
X0128042Y0044931D01*
X0127269Y0044158D01*
X0127100Y0043750D01*
X0127100Y0044011D01*
X0127731Y0044642D01*
X0128150Y0045653D01*
X0128150Y0046747D01*
X0127731Y0047758D01*
X0126958Y0048531D01*
X0125947Y0048950D01*
X0124853Y0048950D01*
X0123842Y0048531D01*
X0123500Y0048189D01*
X0123500Y0049513D01*
X0123653Y0049450D01*
X0124747Y0049450D01*
X0125758Y0049869D01*
X0126531Y0050642D01*
X0126950Y0051653D01*
X0126950Y0052747D01*
X0126531Y0053758D01*
X0125900Y0054389D01*
X0125900Y0076778D01*
X0126863Y0076778D01*
X0126850Y0076747D01*
X0126850Y0075653D01*
X0127269Y0074642D01*
X0128042Y0073869D01*
X0129053Y0073450D01*
X0130147Y0073450D01*
X0131158Y0073869D01*
X0131931Y0074642D01*
X0132100Y0075049D01*
X0132100Y0067589D01*
X0131469Y0066958D01*
X0131050Y0065947D01*
X0131050Y0064853D01*
X0131469Y0063842D01*
X0132242Y0063069D01*
X0133253Y0062650D01*
X0134347Y0062650D01*
X0135358Y0063069D01*
X0136131Y0063842D01*
X0136550Y0064853D01*
X0136550Y0065947D01*
X0136131Y0066958D01*
X0135500Y0067589D01*
X0135500Y0074211D01*
X0135842Y0073869D01*
X0136853Y0073450D01*
X0137947Y0073450D01*
X0138958Y0073869D01*
X0139731Y0074642D01*
X0140150Y0075653D01*
X0140150Y0076747D01*
X0140137Y0076778D01*
X0140605Y0076778D01*
X0141020Y0077193D01*
X0141436Y0076778D01*
X0144542Y0076778D01*
X0144957Y0077193D01*
X0145373Y0076778D01*
X0148479Y0076778D01*
X0148894Y0077193D01*
X0149310Y0076778D01*
X0152416Y0076778D01*
X0152831Y0077193D01*
X0153247Y0076778D01*
X0156353Y0076778D01*
X0156768Y0077193D01*
X0157184Y0076778D01*
X0160290Y0076778D01*
X0160705Y0077193D01*
X0161121Y0076778D01*
X0164227Y0076778D01*
X0164360Y0076910D01*
X0164461Y0076808D01*
X0164953Y0076525D01*
X0165501Y0076378D01*
X0166611Y0076378D01*
X0166611Y0082115D01*
X0166611Y0087852D01*
X0166100Y0087852D01*
X0166100Y0091900D01*
X0168830Y0091900D01*
X0171700Y0094770D01*
X0171700Y0098830D01*
X0171030Y0099500D01*
X0199500Y0099500D01*
X0199500Y0078191D01*
X0181003Y0078191D01*
X0181003Y0086424D01*
X0179975Y0087452D01*
X0179667Y0087452D01*
X0179750Y0087653D01*
X0179750Y0088747D01*
X0179331Y0089758D01*
X0178558Y0090531D01*
X0177547Y0090950D01*
X0176453Y0090950D01*
X0175442Y0090531D01*
X0174669Y0089758D01*
X0174250Y0088747D01*
X0174250Y0087852D01*
X0173375Y0087852D01*
X0172827Y0087705D01*
X0172517Y0087526D01*
X0172206Y0087705D01*
X0171658Y0087852D01*
X0170548Y0087852D01*
X0169438Y0087852D01*
X0168890Y0087705D01*
X0168580Y0087526D01*
X0168269Y0087705D01*
X0167721Y0087852D01*
X0166611Y0087852D01*
X0166611Y0082115D01*
X0166611Y0082115D01*
X0170548Y0082115D01*
X0170548Y0087852D01*
X0170548Y0082115D01*
X0170548Y0082115D01*
X0170548Y0082115D01*
X0167567Y0082115D01*
X0166611Y0082115D01*
X0166611Y0082115D01*
X0166611Y0082115D01*
X0166611Y0076378D01*
X0167721Y0076378D01*
X0168269Y0076525D01*
X0168580Y0076704D01*
X0168890Y0076525D01*
X0169438Y0076378D01*
X0170548Y0076378D01*
X0170548Y0082115D01*
X0174485Y0082115D01*
X0174485Y0082115D01*
X0171504Y0082115D01*
X0170548Y0082115D01*
X0170548Y0082115D01*
X0170548Y0082115D01*
X0170548Y0076378D01*
X0171658Y0076378D01*
X0172206Y0076525D01*
X0172517Y0076704D01*
X0172827Y0076525D01*
X0173375Y0076378D01*
X0174485Y0076378D01*
X0174485Y0082115D01*
X0174485Y0082115D01*
X0174485Y0076378D01*
X0175595Y0076378D01*
X0176143Y0076525D01*
X0176635Y0076808D01*
X0176736Y0076910D01*
X0176869Y0076778D01*
X0177622Y0076778D01*
X0177622Y0031800D01*
X0146800Y0031800D01*
X0146800Y0026822D01*
X0145373Y0026822D01*
X0144957Y0026407D01*
X0144542Y0026822D01*
X0143300Y0026822D01*
X0143300Y0027811D01*
X0143931Y0028442D01*
X0144350Y0029453D01*
X0144350Y0030547D01*
X0143931Y0031558D01*
X0143158Y0032331D01*
X0142147Y0032750D01*
X0141053Y0032750D01*
X0140042Y0032331D01*
X0139269Y0031558D01*
X0138850Y0030547D01*
X0138850Y0029976D01*
X0137947Y0030350D01*
X0136853Y0030350D01*
X0136240Y0030096D01*
X0136131Y0030358D01*
X0135358Y0031131D01*
X0134347Y0031550D01*
X0133253Y0031550D01*
X0132242Y0031131D01*
X0131469Y0030358D01*
X0131300Y0029951D01*
X0131300Y0040411D01*
X0132230Y0041763D02*
X0177622Y0041763D01*
X0177622Y0043361D02*
X0132261Y0043361D01*
X0131089Y0044960D02*
X0177622Y0044960D01*
X0177622Y0046558D02*
X0128150Y0046558D01*
X0128111Y0044960D02*
X0127863Y0044960D01*
X0127332Y0048157D02*
X0177622Y0048157D01*
X0177622Y0049755D02*
X0125484Y0049755D01*
X0126826Y0051354D02*
X0177622Y0051354D01*
X0177622Y0052952D02*
X0126865Y0052952D01*
X0125900Y0054551D02*
X0177622Y0054551D01*
X0177622Y0056149D02*
X0125900Y0056149D01*
X0125900Y0057748D02*
X0177622Y0057748D01*
X0177622Y0059346D02*
X0125900Y0059346D01*
X0125900Y0060945D02*
X0177622Y0060945D01*
X0177622Y0062543D02*
X0125900Y0062543D01*
X0125900Y0064142D02*
X0131345Y0064142D01*
X0131050Y0065740D02*
X0125900Y0065740D01*
X0125900Y0067339D02*
X0131850Y0067339D01*
X0132100Y0068937D02*
X0125900Y0068937D01*
X0125900Y0070536D02*
X0132100Y0070536D01*
X0132100Y0072134D02*
X0125900Y0072134D01*
X0125900Y0073733D02*
X0128370Y0073733D01*
X0126983Y0075332D02*
X0125900Y0075332D01*
X0130830Y0073733D02*
X0132100Y0073733D01*
X0135500Y0073733D02*
X0136170Y0073733D01*
X0138630Y0073733D02*
X0177622Y0073733D01*
X0177622Y0075332D02*
X0140017Y0075332D01*
X0140757Y0076930D02*
X0141283Y0076930D01*
X0144694Y0076930D02*
X0145220Y0076930D01*
X0148631Y0076930D02*
X0149157Y0076930D01*
X0152569Y0076930D02*
X0153094Y0076930D01*
X0156505Y0076930D02*
X0157031Y0076930D01*
X0160443Y0076930D02*
X0160968Y0076930D01*
X0166611Y0076930D02*
X0166611Y0076930D01*
X0166611Y0078529D02*
X0166611Y0078529D01*
X0166611Y0080127D02*
X0166611Y0080127D01*
X0166611Y0081726D02*
X0166611Y0081726D01*
X0166611Y0083324D02*
X0166611Y0083324D01*
X0166611Y0084923D02*
X0166611Y0084923D01*
X0166611Y0086521D02*
X0166611Y0086521D01*
X0166100Y0088120D02*
X0174250Y0088120D01*
X0174652Y0089718D02*
X0166100Y0089718D01*
X0166100Y0091317D02*
X0199500Y0091317D01*
X0199500Y0092915D02*
X0169845Y0092915D01*
X0171443Y0094514D02*
X0199500Y0094514D01*
X0199500Y0096112D02*
X0171700Y0096112D01*
X0171700Y0097711D02*
X0199500Y0097711D01*
X0199500Y0099309D02*
X0171220Y0099309D01*
X0179348Y0089718D02*
X0199500Y0089718D01*
X0199500Y0088120D02*
X0179750Y0088120D01*
X0180906Y0086521D02*
X0199500Y0086521D01*
X0199500Y0084923D02*
X0181003Y0084923D01*
X0181003Y0083324D02*
X0199500Y0083324D01*
X0199500Y0081726D02*
X0181003Y0081726D01*
X0181003Y0080127D02*
X0199500Y0080127D01*
X0199500Y0078529D02*
X0181003Y0078529D01*
X0174485Y0078529D02*
X0174485Y0078529D01*
X0174485Y0076930D02*
X0174485Y0076930D01*
X0170548Y0076930D02*
X0170548Y0076930D01*
X0170548Y0078529D02*
X0170548Y0078529D01*
X0170548Y0080127D02*
X0170548Y0080127D01*
X0170548Y0081726D02*
X0170548Y0081726D01*
X0174485Y0081726D02*
X0174485Y0081726D01*
X0174485Y0080127D02*
X0174485Y0080127D01*
X0170548Y0083324D02*
X0170548Y0083324D01*
X0170548Y0084923D02*
X0170548Y0084923D01*
X0170548Y0086521D02*
X0170548Y0086521D01*
X0177622Y0072134D02*
X0135500Y0072134D01*
X0135500Y0070536D02*
X0177622Y0070536D01*
X0177622Y0068937D02*
X0135500Y0068937D01*
X0135750Y0067339D02*
X0177622Y0067339D01*
X0177622Y0065740D02*
X0136550Y0065740D01*
X0136255Y0064142D02*
X0177622Y0064142D01*
X0177622Y0033770D02*
X0131300Y0033770D01*
X0131300Y0032172D02*
X0139883Y0032172D01*
X0138861Y0030573D02*
X0135916Y0030573D01*
X0131684Y0030573D02*
X0131300Y0030573D01*
X0143317Y0032172D02*
X0177622Y0032172D01*
X0146800Y0030573D02*
X0144339Y0030573D01*
X0144152Y0028975D02*
X0146800Y0028975D01*
X0146800Y0027376D02*
X0143300Y0027376D01*
X0077000Y0062543D02*
X0076600Y0062543D01*
X0076600Y0064142D02*
X0077000Y0064142D01*
X0077000Y0065740D02*
X0076600Y0065740D01*
X0076600Y0067339D02*
X0077000Y0067339D01*
X0077000Y0068937D02*
X0076600Y0068937D01*
X0076600Y0070536D02*
X0077000Y0070536D01*
X0077000Y0072134D02*
X0076600Y0072134D01*
X0079244Y0072134D02*
X0090100Y0072134D01*
X0083324Y0070536D02*
X0080842Y0070536D01*
X0060054Y0064142D02*
X0056072Y0064142D01*
X0054473Y0062543D02*
X0060461Y0062543D01*
X0058455Y0065740D02*
X0056700Y0065740D01*
X0056700Y0067339D02*
X0056857Y0067339D01*
X0040984Y0078529D02*
X0040616Y0078529D01*
X0040616Y0080127D02*
X0040984Y0080127D01*
X0040984Y0081726D02*
X0040616Y0081726D01*
X0029500Y0073699D02*
X0025401Y0073699D01*
X0024800Y0074300D01*
X0024199Y0073699D01*
X0022561Y0073699D01*
X0022756Y0073587D01*
X0023091Y0073252D01*
X0023328Y0072841D01*
X0023450Y0072383D01*
X0023450Y0068800D01*
X0020076Y0068800D01*
X0020076Y0068800D01*
X0023450Y0068800D01*
X0023450Y0065217D01*
X0023328Y0064759D01*
X0023091Y0064348D01*
X0022756Y0064013D01*
X0022561Y0063901D01*
X0024199Y0063901D01*
X0024800Y0063300D01*
X0025401Y0063901D01*
X0029500Y0063901D01*
X0029500Y0073699D01*
X0029500Y0072134D02*
X0023450Y0072134D01*
X0023450Y0070536D02*
X0029500Y0070536D01*
X0029500Y0068937D02*
X0023450Y0068937D01*
X0023450Y0067339D02*
X0029500Y0067339D01*
X0029500Y0065740D02*
X0023450Y0065740D01*
X0022884Y0064142D02*
X0029500Y0064142D01*
X0022135Y0057557D02*
X0019102Y0057557D01*
X0018282Y0058378D01*
X0018282Y0063081D01*
X0018855Y0063654D01*
X0018264Y0063654D01*
X0017900Y0063751D01*
X0017900Y0050168D01*
X0023199Y0050168D01*
X0023800Y0049567D01*
X0024401Y0050168D01*
X0025246Y0050168D01*
X0025246Y0054446D01*
X0022135Y0057557D01*
X0023543Y0056149D02*
X0017900Y0056149D01*
X0017900Y0057748D02*
X0018912Y0057748D01*
X0018282Y0059346D02*
X0017900Y0059346D01*
X0017900Y0060945D02*
X0018282Y0060945D01*
X0018282Y0062543D02*
X0017900Y0062543D01*
X0013300Y0062543D02*
X0009473Y0062543D01*
X0008830Y0061900D02*
X0011700Y0064770D01*
X0011700Y0068830D01*
X0011467Y0069063D01*
X0013100Y0070696D01*
X0013100Y0093104D01*
X0012104Y0094100D01*
X0011567Y0094637D01*
X0011700Y0094770D01*
X0011700Y0098830D01*
X0011030Y0099500D01*
X0012570Y0099500D01*
X0011900Y0098830D01*
X0011900Y0094770D01*
X0014333Y0092337D01*
X0013300Y0091304D01*
X0013300Y0035504D01*
X0009163Y0031367D01*
X0008830Y0031700D01*
X0004770Y0031700D01*
X0004100Y0031030D01*
X0004100Y0032570D01*
X0004770Y0031900D01*
X0008830Y0031900D01*
X0011700Y0034770D01*
X0011700Y0038830D01*
X0009012Y0041517D01*
X0012100Y0044605D01*
X0012100Y0046600D01*
X0007000Y0046600D01*
X0007000Y0047000D01*
X0012100Y0047000D01*
X0012100Y0048995D01*
X0009012Y0052083D01*
X0011700Y0054770D01*
X0011700Y0058830D01*
X0008830Y0061700D01*
X0004770Y0061700D01*
X0004100Y0061030D01*
X0004100Y0062570D01*
X0004770Y0061900D01*
X0008830Y0061900D01*
X0009585Y0060945D02*
X0013300Y0060945D01*
X0013300Y0059346D02*
X0011183Y0059346D01*
X0011700Y0057748D02*
X0013300Y0057748D01*
X0013300Y0056149D02*
X0011700Y0056149D01*
X0011480Y0054551D02*
X0013300Y0054551D01*
X0013300Y0052952D02*
X0009882Y0052952D01*
X0009741Y0051354D02*
X0013300Y0051354D01*
X0013300Y0049755D02*
X0011340Y0049755D01*
X0012100Y0048157D02*
X0013300Y0048157D01*
X0013300Y0046558D02*
X0012100Y0046558D01*
X0012100Y0044960D02*
X0013300Y0044960D01*
X0013300Y0043361D02*
X0010857Y0043361D01*
X0009258Y0041763D02*
X0013300Y0041763D01*
X0013300Y0040164D02*
X0010365Y0040164D01*
X0011700Y0038566D02*
X0013300Y0038566D01*
X0013300Y0036967D02*
X0011700Y0036967D01*
X0011700Y0035369D02*
X0013165Y0035369D01*
X0011566Y0033770D02*
X0010700Y0033770D01*
X0009968Y0032172D02*
X0009101Y0032172D01*
X0011567Y0028963D02*
X0014500Y0031896D01*
X0014500Y0011430D01*
X0012083Y0009012D01*
X0008995Y0012100D01*
X0007000Y0012100D01*
X0007000Y0007000D01*
X0006600Y0007000D01*
X0006600Y0012100D01*
X0004605Y0012100D01*
X0004100Y0011595D01*
X0004100Y0022570D01*
X0004770Y0021900D01*
X0008830Y0021900D01*
X0011700Y0024770D01*
X0011700Y0028830D01*
X0011567Y0028963D01*
X0011579Y0028975D02*
X0014500Y0028975D01*
X0014500Y0027376D02*
X0011700Y0027376D01*
X0011700Y0025778D02*
X0014500Y0025778D01*
X0014500Y0024179D02*
X0011109Y0024179D01*
X0009510Y0022581D02*
X0014500Y0022581D01*
X0014500Y0020982D02*
X0004100Y0020982D01*
X0004100Y0019384D02*
X0014500Y0019384D01*
X0014500Y0017785D02*
X0004100Y0017785D01*
X0004100Y0016187D02*
X0014500Y0016187D01*
X0014500Y0014588D02*
X0004100Y0014588D01*
X0004100Y0012990D02*
X0014500Y0012990D01*
X0014461Y0011391D02*
X0009704Y0011391D01*
X0011303Y0009793D02*
X0012863Y0009793D01*
X0007000Y0009793D02*
X0006600Y0009793D01*
X0006600Y0011391D02*
X0007000Y0011391D01*
X0007000Y0008194D02*
X0006600Y0008194D01*
X0013177Y0030573D02*
X0014500Y0030573D01*
X0004499Y0032172D02*
X0004100Y0032172D01*
X0023612Y0049755D02*
X0023988Y0049755D01*
X0025246Y0051354D02*
X0017900Y0051354D01*
X0017900Y0052952D02*
X0025246Y0052952D01*
X0025142Y0054551D02*
X0017900Y0054551D01*
X0004127Y0062543D02*
X0004100Y0062543D01*
X0011072Y0064142D02*
X0013300Y0064142D01*
X0013300Y0065740D02*
X0011700Y0065740D01*
X0011700Y0067339D02*
X0013300Y0067339D01*
X0013300Y0068937D02*
X0011592Y0068937D01*
X0012940Y0070536D02*
X0013300Y0070536D01*
X0013300Y0072134D02*
X0013100Y0072134D01*
X0013100Y0073733D02*
X0013300Y0073733D01*
X0013300Y0075332D02*
X0013100Y0075332D01*
X0013100Y0076930D02*
X0013300Y0076930D01*
X0013300Y0078529D02*
X0013100Y0078529D01*
X0013100Y0080127D02*
X0013300Y0080127D01*
X0013300Y0081726D02*
X0013100Y0081726D01*
X0013100Y0083324D02*
X0013300Y0083324D01*
X0013300Y0084923D02*
X0013100Y0084923D01*
X0013100Y0086521D02*
X0013300Y0086521D01*
X0013300Y0088120D02*
X0013100Y0088120D01*
X0013100Y0089718D02*
X0013300Y0089718D01*
X0013312Y0091317D02*
X0013100Y0091317D01*
X0013100Y0092915D02*
X0013755Y0092915D01*
X0012157Y0094514D02*
X0011690Y0094514D01*
X0011700Y0096112D02*
X0011900Y0096112D01*
X0011900Y0097711D02*
X0011700Y0097711D01*
X0011220Y0099309D02*
X0012380Y0099309D01*
X0024233Y0073733D02*
X0025367Y0073733D01*
X0104900Y0078403D02*
X0104900Y0084211D01*
X0105531Y0084842D01*
X0105900Y0085732D01*
X0106269Y0084842D01*
X0107042Y0084069D01*
X0108053Y0083650D01*
X0108946Y0083650D01*
X0111100Y0081496D01*
X0111100Y0078403D01*
X0108147Y0078403D01*
X0108147Y0075422D01*
X0108146Y0075422D01*
X0108146Y0078403D01*
X0104900Y0078403D01*
X0104900Y0078529D02*
X0111100Y0078529D01*
X0108147Y0076930D02*
X0108146Y0076930D01*
X0111100Y0080127D02*
X0104900Y0080127D01*
X0104900Y0081726D02*
X0110870Y0081726D01*
X0109272Y0083324D02*
X0104900Y0083324D01*
X0105565Y0084923D02*
X0106235Y0084923D01*
M02*
