G75*
%MOIN*%
%OFA0B0*%
%FSLAX25Y25*%
%IPPOS*%
%LPD*%
%AMOC8*
5,1,8,0,0,1.08239X$1,22.5*
%
%ADD10R,0.04724X0.04724*%
%ADD11R,0.04331X0.03937*%
%ADD12R,0.03937X0.04331*%
%ADD13R,0.03937X0.03543*%
%ADD14R,0.03150X0.06693*%
%ADD15C,0.00709*%
D10*
X0032666Y0026800D03*
X0040934Y0026800D03*
X0040934Y0034800D03*
X0032666Y0034800D03*
X0069666Y0026800D03*
X0077934Y0026800D03*
D11*
X0020454Y0026800D03*
X0027146Y0026800D03*
X0027146Y0034800D03*
X0020454Y0034800D03*
X0020454Y0046800D03*
X0027146Y0046800D03*
X0086454Y0026800D03*
X0093146Y0026800D03*
D12*
X0040800Y0046454D03*
X0040800Y0053146D03*
X0040800Y0071454D03*
X0040800Y0078146D03*
D13*
X0027950Y0076871D03*
X0021650Y0076871D03*
X0021650Y0060729D03*
X0027950Y0060729D03*
D14*
X0020076Y0068800D03*
D15*
X0111138Y0074595D02*
X0111138Y0076249D01*
X0111138Y0074595D02*
X0105154Y0074595D01*
X0105154Y0076249D01*
X0111138Y0076249D01*
X0111138Y0075303D02*
X0105154Y0075303D01*
X0105154Y0076011D02*
X0111138Y0076011D01*
X0112320Y0072312D02*
X0112320Y0070658D01*
X0105154Y0070658D01*
X0105154Y0072312D01*
X0112320Y0072312D01*
X0112320Y0071366D02*
X0105154Y0071366D01*
X0105154Y0072074D02*
X0112320Y0072074D01*
X0112320Y0068375D02*
X0112320Y0066721D01*
X0105154Y0066721D01*
X0105154Y0068375D01*
X0112320Y0068375D01*
X0112320Y0067429D02*
X0105154Y0067429D01*
X0105154Y0068137D02*
X0112320Y0068137D01*
X0112320Y0064438D02*
X0112320Y0062784D01*
X0105154Y0062784D01*
X0105154Y0064438D01*
X0112320Y0064438D01*
X0112320Y0063492D02*
X0105154Y0063492D01*
X0105154Y0064200D02*
X0112320Y0064200D01*
X0112320Y0060501D02*
X0112320Y0058847D01*
X0105154Y0058847D01*
X0105154Y0060501D01*
X0112320Y0060501D01*
X0112320Y0059555D02*
X0105154Y0059555D01*
X0105154Y0060263D02*
X0112320Y0060263D01*
X0112320Y0056564D02*
X0112320Y0054910D01*
X0105154Y0054910D01*
X0105154Y0056564D01*
X0112320Y0056564D01*
X0112320Y0055618D02*
X0105154Y0055618D01*
X0105154Y0056326D02*
X0112320Y0056326D01*
X0112320Y0052627D02*
X0112320Y0050973D01*
X0105154Y0050973D01*
X0105154Y0052627D01*
X0112320Y0052627D01*
X0112320Y0051681D02*
X0105154Y0051681D01*
X0105154Y0052389D02*
X0112320Y0052389D01*
X0112320Y0048690D02*
X0112320Y0047036D01*
X0105154Y0047036D01*
X0105154Y0048690D01*
X0112320Y0048690D01*
X0112320Y0047744D02*
X0105154Y0047744D01*
X0105154Y0048452D02*
X0112320Y0048452D01*
X0112320Y0044753D02*
X0112320Y0043099D01*
X0105154Y0043099D01*
X0105154Y0044753D01*
X0112320Y0044753D01*
X0112320Y0043807D02*
X0105154Y0043807D01*
X0105154Y0044515D02*
X0112320Y0044515D01*
X0112320Y0040816D02*
X0112320Y0039162D01*
X0105154Y0039162D01*
X0105154Y0040816D01*
X0112320Y0040816D01*
X0112320Y0039870D02*
X0105154Y0039870D01*
X0105154Y0040578D02*
X0112320Y0040578D01*
X0112320Y0036879D02*
X0112320Y0035225D01*
X0105154Y0035225D01*
X0105154Y0036879D01*
X0112320Y0036879D01*
X0112320Y0035933D02*
X0105154Y0035933D01*
X0105154Y0036641D02*
X0112320Y0036641D01*
X0112320Y0032942D02*
X0112320Y0031288D01*
X0105154Y0031288D01*
X0105154Y0032942D01*
X0112320Y0032942D01*
X0112320Y0031996D02*
X0105154Y0031996D01*
X0105154Y0032704D02*
X0112320Y0032704D01*
X0111138Y0029005D02*
X0111138Y0027351D01*
X0105154Y0027351D01*
X0105154Y0029005D01*
X0111138Y0029005D01*
X0111138Y0028059D02*
X0105154Y0028059D01*
X0105154Y0028767D02*
X0111138Y0028767D01*
X0114603Y0017902D02*
X0116257Y0017902D01*
X0114603Y0017902D02*
X0114603Y0023886D01*
X0116257Y0023886D01*
X0116257Y0017902D01*
X0116257Y0018610D02*
X0114603Y0018610D01*
X0114603Y0019318D02*
X0116257Y0019318D01*
X0116257Y0020026D02*
X0114603Y0020026D01*
X0114603Y0020734D02*
X0116257Y0020734D01*
X0116257Y0021442D02*
X0114603Y0021442D01*
X0114603Y0022150D02*
X0116257Y0022150D01*
X0116257Y0022858D02*
X0114603Y0022858D01*
X0114603Y0023566D02*
X0116257Y0023566D01*
X0118540Y0017902D02*
X0120194Y0017902D01*
X0118540Y0017902D02*
X0118540Y0025068D01*
X0120194Y0025068D01*
X0120194Y0017902D01*
X0120194Y0018610D02*
X0118540Y0018610D01*
X0118540Y0019318D02*
X0120194Y0019318D01*
X0120194Y0020026D02*
X0118540Y0020026D01*
X0118540Y0020734D02*
X0120194Y0020734D01*
X0120194Y0021442D02*
X0118540Y0021442D01*
X0118540Y0022150D02*
X0120194Y0022150D01*
X0120194Y0022858D02*
X0118540Y0022858D01*
X0118540Y0023566D02*
X0120194Y0023566D01*
X0120194Y0024274D02*
X0118540Y0024274D01*
X0118540Y0024982D02*
X0120194Y0024982D01*
X0122477Y0017902D02*
X0124131Y0017902D01*
X0122477Y0017902D02*
X0122477Y0025068D01*
X0124131Y0025068D01*
X0124131Y0017902D01*
X0124131Y0018610D02*
X0122477Y0018610D01*
X0122477Y0019318D02*
X0124131Y0019318D01*
X0124131Y0020026D02*
X0122477Y0020026D01*
X0122477Y0020734D02*
X0124131Y0020734D01*
X0124131Y0021442D02*
X0122477Y0021442D01*
X0122477Y0022150D02*
X0124131Y0022150D01*
X0124131Y0022858D02*
X0122477Y0022858D01*
X0122477Y0023566D02*
X0124131Y0023566D01*
X0124131Y0024274D02*
X0122477Y0024274D01*
X0122477Y0024982D02*
X0124131Y0024982D01*
X0126414Y0017902D02*
X0128068Y0017902D01*
X0126414Y0017902D02*
X0126414Y0025068D01*
X0128068Y0025068D01*
X0128068Y0017902D01*
X0128068Y0018610D02*
X0126414Y0018610D01*
X0126414Y0019318D02*
X0128068Y0019318D01*
X0128068Y0020026D02*
X0126414Y0020026D01*
X0126414Y0020734D02*
X0128068Y0020734D01*
X0128068Y0021442D02*
X0126414Y0021442D01*
X0126414Y0022150D02*
X0128068Y0022150D01*
X0128068Y0022858D02*
X0126414Y0022858D01*
X0126414Y0023566D02*
X0128068Y0023566D01*
X0128068Y0024274D02*
X0126414Y0024274D01*
X0126414Y0024982D02*
X0128068Y0024982D01*
X0130351Y0017902D02*
X0132005Y0017902D01*
X0130351Y0017902D02*
X0130351Y0025068D01*
X0132005Y0025068D01*
X0132005Y0017902D01*
X0132005Y0018610D02*
X0130351Y0018610D01*
X0130351Y0019318D02*
X0132005Y0019318D01*
X0132005Y0020026D02*
X0130351Y0020026D01*
X0130351Y0020734D02*
X0132005Y0020734D01*
X0132005Y0021442D02*
X0130351Y0021442D01*
X0130351Y0022150D02*
X0132005Y0022150D01*
X0132005Y0022858D02*
X0130351Y0022858D01*
X0130351Y0023566D02*
X0132005Y0023566D01*
X0132005Y0024274D02*
X0130351Y0024274D01*
X0130351Y0024982D02*
X0132005Y0024982D01*
X0134288Y0017902D02*
X0135942Y0017902D01*
X0134288Y0017902D02*
X0134288Y0025068D01*
X0135942Y0025068D01*
X0135942Y0017902D01*
X0135942Y0018610D02*
X0134288Y0018610D01*
X0134288Y0019318D02*
X0135942Y0019318D01*
X0135942Y0020026D02*
X0134288Y0020026D01*
X0134288Y0020734D02*
X0135942Y0020734D01*
X0135942Y0021442D02*
X0134288Y0021442D01*
X0134288Y0022150D02*
X0135942Y0022150D01*
X0135942Y0022858D02*
X0134288Y0022858D01*
X0134288Y0023566D02*
X0135942Y0023566D01*
X0135942Y0024274D02*
X0134288Y0024274D01*
X0134288Y0024982D02*
X0135942Y0024982D01*
X0138225Y0017902D02*
X0139879Y0017902D01*
X0138225Y0017902D02*
X0138225Y0025068D01*
X0139879Y0025068D01*
X0139879Y0017902D01*
X0139879Y0018610D02*
X0138225Y0018610D01*
X0138225Y0019318D02*
X0139879Y0019318D01*
X0139879Y0020026D02*
X0138225Y0020026D01*
X0138225Y0020734D02*
X0139879Y0020734D01*
X0139879Y0021442D02*
X0138225Y0021442D01*
X0138225Y0022150D02*
X0139879Y0022150D01*
X0139879Y0022858D02*
X0138225Y0022858D01*
X0138225Y0023566D02*
X0139879Y0023566D01*
X0139879Y0024274D02*
X0138225Y0024274D01*
X0138225Y0024982D02*
X0139879Y0024982D01*
X0142162Y0017902D02*
X0143816Y0017902D01*
X0142162Y0017902D02*
X0142162Y0025068D01*
X0143816Y0025068D01*
X0143816Y0017902D01*
X0143816Y0018610D02*
X0142162Y0018610D01*
X0142162Y0019318D02*
X0143816Y0019318D01*
X0143816Y0020026D02*
X0142162Y0020026D01*
X0142162Y0020734D02*
X0143816Y0020734D01*
X0143816Y0021442D02*
X0142162Y0021442D01*
X0142162Y0022150D02*
X0143816Y0022150D01*
X0143816Y0022858D02*
X0142162Y0022858D01*
X0142162Y0023566D02*
X0143816Y0023566D01*
X0143816Y0024274D02*
X0142162Y0024274D01*
X0142162Y0024982D02*
X0143816Y0024982D01*
X0146099Y0017902D02*
X0147753Y0017902D01*
X0146099Y0017902D02*
X0146099Y0025068D01*
X0147753Y0025068D01*
X0147753Y0017902D01*
X0147753Y0018610D02*
X0146099Y0018610D01*
X0146099Y0019318D02*
X0147753Y0019318D01*
X0147753Y0020026D02*
X0146099Y0020026D01*
X0146099Y0020734D02*
X0147753Y0020734D01*
X0147753Y0021442D02*
X0146099Y0021442D01*
X0146099Y0022150D02*
X0147753Y0022150D01*
X0147753Y0022858D02*
X0146099Y0022858D01*
X0146099Y0023566D02*
X0147753Y0023566D01*
X0147753Y0024274D02*
X0146099Y0024274D01*
X0146099Y0024982D02*
X0147753Y0024982D01*
X0150036Y0017902D02*
X0151690Y0017902D01*
X0150036Y0017902D02*
X0150036Y0025068D01*
X0151690Y0025068D01*
X0151690Y0017902D01*
X0151690Y0018610D02*
X0150036Y0018610D01*
X0150036Y0019318D02*
X0151690Y0019318D01*
X0151690Y0020026D02*
X0150036Y0020026D01*
X0150036Y0020734D02*
X0151690Y0020734D01*
X0151690Y0021442D02*
X0150036Y0021442D01*
X0150036Y0022150D02*
X0151690Y0022150D01*
X0151690Y0022858D02*
X0150036Y0022858D01*
X0150036Y0023566D02*
X0151690Y0023566D01*
X0151690Y0024274D02*
X0150036Y0024274D01*
X0150036Y0024982D02*
X0151690Y0024982D01*
X0153973Y0017902D02*
X0155627Y0017902D01*
X0153973Y0017902D02*
X0153973Y0025068D01*
X0155627Y0025068D01*
X0155627Y0017902D01*
X0155627Y0018610D02*
X0153973Y0018610D01*
X0153973Y0019318D02*
X0155627Y0019318D01*
X0155627Y0020026D02*
X0153973Y0020026D01*
X0153973Y0020734D02*
X0155627Y0020734D01*
X0155627Y0021442D02*
X0153973Y0021442D01*
X0153973Y0022150D02*
X0155627Y0022150D01*
X0155627Y0022858D02*
X0153973Y0022858D01*
X0153973Y0023566D02*
X0155627Y0023566D01*
X0155627Y0024274D02*
X0153973Y0024274D01*
X0153973Y0024982D02*
X0155627Y0024982D01*
X0157910Y0017902D02*
X0159564Y0017902D01*
X0157910Y0017902D02*
X0157910Y0025068D01*
X0159564Y0025068D01*
X0159564Y0017902D01*
X0159564Y0018610D02*
X0157910Y0018610D01*
X0157910Y0019318D02*
X0159564Y0019318D01*
X0159564Y0020026D02*
X0157910Y0020026D01*
X0157910Y0020734D02*
X0159564Y0020734D01*
X0159564Y0021442D02*
X0157910Y0021442D01*
X0157910Y0022150D02*
X0159564Y0022150D01*
X0159564Y0022858D02*
X0157910Y0022858D01*
X0157910Y0023566D02*
X0159564Y0023566D01*
X0159564Y0024274D02*
X0157910Y0024274D01*
X0157910Y0024982D02*
X0159564Y0024982D01*
X0161847Y0017902D02*
X0163501Y0017902D01*
X0161847Y0017902D02*
X0161847Y0025068D01*
X0163501Y0025068D01*
X0163501Y0017902D01*
X0163501Y0018610D02*
X0161847Y0018610D01*
X0161847Y0019318D02*
X0163501Y0019318D01*
X0163501Y0020026D02*
X0161847Y0020026D01*
X0161847Y0020734D02*
X0163501Y0020734D01*
X0163501Y0021442D02*
X0161847Y0021442D01*
X0161847Y0022150D02*
X0163501Y0022150D01*
X0163501Y0022858D02*
X0161847Y0022858D01*
X0161847Y0023566D02*
X0163501Y0023566D01*
X0163501Y0024274D02*
X0161847Y0024274D01*
X0161847Y0024982D02*
X0163501Y0024982D01*
X0165784Y0017902D02*
X0167438Y0017902D01*
X0165784Y0017902D02*
X0165784Y0025068D01*
X0167438Y0025068D01*
X0167438Y0017902D01*
X0167438Y0018610D02*
X0165784Y0018610D01*
X0165784Y0019318D02*
X0167438Y0019318D01*
X0167438Y0020026D02*
X0165784Y0020026D01*
X0165784Y0020734D02*
X0167438Y0020734D01*
X0167438Y0021442D02*
X0165784Y0021442D01*
X0165784Y0022150D02*
X0167438Y0022150D01*
X0167438Y0022858D02*
X0165784Y0022858D01*
X0165784Y0023566D02*
X0167438Y0023566D01*
X0167438Y0024274D02*
X0165784Y0024274D01*
X0165784Y0024982D02*
X0167438Y0024982D01*
X0169721Y0017902D02*
X0171375Y0017902D01*
X0169721Y0017902D02*
X0169721Y0025068D01*
X0171375Y0025068D01*
X0171375Y0017902D01*
X0171375Y0018610D02*
X0169721Y0018610D01*
X0169721Y0019318D02*
X0171375Y0019318D01*
X0171375Y0020026D02*
X0169721Y0020026D01*
X0169721Y0020734D02*
X0171375Y0020734D01*
X0171375Y0021442D02*
X0169721Y0021442D01*
X0169721Y0022150D02*
X0171375Y0022150D01*
X0171375Y0022858D02*
X0169721Y0022858D01*
X0169721Y0023566D02*
X0171375Y0023566D01*
X0171375Y0024274D02*
X0169721Y0024274D01*
X0169721Y0024982D02*
X0171375Y0024982D01*
X0173658Y0017902D02*
X0175312Y0017902D01*
X0173658Y0017902D02*
X0173658Y0025068D01*
X0175312Y0025068D01*
X0175312Y0017902D01*
X0175312Y0018610D02*
X0173658Y0018610D01*
X0173658Y0019318D02*
X0175312Y0019318D01*
X0175312Y0020026D02*
X0173658Y0020026D01*
X0173658Y0020734D02*
X0175312Y0020734D01*
X0175312Y0021442D02*
X0173658Y0021442D01*
X0173658Y0022150D02*
X0175312Y0022150D01*
X0175312Y0022858D02*
X0173658Y0022858D01*
X0173658Y0023566D02*
X0175312Y0023566D01*
X0175312Y0024274D02*
X0173658Y0024274D01*
X0173658Y0024982D02*
X0175312Y0024982D01*
X0177595Y0017902D02*
X0179249Y0017902D01*
X0177595Y0017902D02*
X0177595Y0025068D01*
X0179249Y0025068D01*
X0179249Y0017902D01*
X0179249Y0018610D02*
X0177595Y0018610D01*
X0177595Y0019318D02*
X0179249Y0019318D01*
X0179249Y0020026D02*
X0177595Y0020026D01*
X0177595Y0020734D02*
X0179249Y0020734D01*
X0179249Y0021442D02*
X0177595Y0021442D01*
X0177595Y0022150D02*
X0179249Y0022150D01*
X0179249Y0022858D02*
X0177595Y0022858D01*
X0177595Y0023566D02*
X0179249Y0023566D01*
X0179249Y0024274D02*
X0177595Y0024274D01*
X0177595Y0024982D02*
X0179249Y0024982D01*
X0181532Y0017902D02*
X0183186Y0017902D01*
X0181532Y0017902D02*
X0181532Y0025068D01*
X0183186Y0025068D01*
X0183186Y0017902D01*
X0183186Y0018610D02*
X0181532Y0018610D01*
X0181532Y0019318D02*
X0183186Y0019318D01*
X0183186Y0020026D02*
X0181532Y0020026D01*
X0181532Y0020734D02*
X0183186Y0020734D01*
X0183186Y0021442D02*
X0181532Y0021442D01*
X0181532Y0022150D02*
X0183186Y0022150D01*
X0183186Y0022858D02*
X0181532Y0022858D01*
X0181532Y0023566D02*
X0183186Y0023566D01*
X0183186Y0024274D02*
X0181532Y0024274D01*
X0181532Y0024982D02*
X0183186Y0024982D01*
X0185469Y0017902D02*
X0187123Y0017902D01*
X0185469Y0017902D02*
X0185469Y0025068D01*
X0187123Y0025068D01*
X0187123Y0017902D01*
X0187123Y0018610D02*
X0185469Y0018610D01*
X0185469Y0019318D02*
X0187123Y0019318D01*
X0187123Y0020026D02*
X0185469Y0020026D01*
X0185469Y0020734D02*
X0187123Y0020734D01*
X0187123Y0021442D02*
X0185469Y0021442D01*
X0185469Y0022150D02*
X0187123Y0022150D01*
X0187123Y0022858D02*
X0185469Y0022858D01*
X0185469Y0023566D02*
X0187123Y0023566D01*
X0187123Y0024274D02*
X0185469Y0024274D01*
X0185469Y0024982D02*
X0187123Y0024982D01*
X0189406Y0017902D02*
X0191060Y0017902D01*
X0189406Y0017902D02*
X0189406Y0025068D01*
X0191060Y0025068D01*
X0191060Y0017902D01*
X0191060Y0018610D02*
X0189406Y0018610D01*
X0189406Y0019318D02*
X0191060Y0019318D01*
X0191060Y0020026D02*
X0189406Y0020026D01*
X0189406Y0020734D02*
X0191060Y0020734D01*
X0191060Y0021442D02*
X0189406Y0021442D01*
X0189406Y0022150D02*
X0191060Y0022150D01*
X0191060Y0022858D02*
X0189406Y0022858D01*
X0189406Y0023566D02*
X0191060Y0023566D01*
X0191060Y0024274D02*
X0189406Y0024274D01*
X0189406Y0024982D02*
X0191060Y0024982D01*
X0179249Y0078532D02*
X0177595Y0078532D01*
X0177595Y0085698D01*
X0179249Y0085698D01*
X0179249Y0078532D01*
X0179249Y0079240D02*
X0177595Y0079240D01*
X0177595Y0079948D02*
X0179249Y0079948D01*
X0179249Y0080656D02*
X0177595Y0080656D01*
X0177595Y0081364D02*
X0179249Y0081364D01*
X0179249Y0082072D02*
X0177595Y0082072D01*
X0177595Y0082780D02*
X0179249Y0082780D01*
X0179249Y0083488D02*
X0177595Y0083488D01*
X0177595Y0084196D02*
X0179249Y0084196D01*
X0179249Y0084904D02*
X0177595Y0084904D01*
X0177595Y0085612D02*
X0179249Y0085612D01*
X0175312Y0078532D02*
X0173658Y0078532D01*
X0173658Y0085698D01*
X0175312Y0085698D01*
X0175312Y0078532D01*
X0175312Y0079240D02*
X0173658Y0079240D01*
X0173658Y0079948D02*
X0175312Y0079948D01*
X0175312Y0080656D02*
X0173658Y0080656D01*
X0173658Y0081364D02*
X0175312Y0081364D01*
X0175312Y0082072D02*
X0173658Y0082072D01*
X0173658Y0082780D02*
X0175312Y0082780D01*
X0175312Y0083488D02*
X0173658Y0083488D01*
X0173658Y0084196D02*
X0175312Y0084196D01*
X0175312Y0084904D02*
X0173658Y0084904D01*
X0173658Y0085612D02*
X0175312Y0085612D01*
X0171375Y0078532D02*
X0169721Y0078532D01*
X0169721Y0085698D01*
X0171375Y0085698D01*
X0171375Y0078532D01*
X0171375Y0079240D02*
X0169721Y0079240D01*
X0169721Y0079948D02*
X0171375Y0079948D01*
X0171375Y0080656D02*
X0169721Y0080656D01*
X0169721Y0081364D02*
X0171375Y0081364D01*
X0171375Y0082072D02*
X0169721Y0082072D01*
X0169721Y0082780D02*
X0171375Y0082780D01*
X0171375Y0083488D02*
X0169721Y0083488D01*
X0169721Y0084196D02*
X0171375Y0084196D01*
X0171375Y0084904D02*
X0169721Y0084904D01*
X0169721Y0085612D02*
X0171375Y0085612D01*
X0167438Y0078532D02*
X0165784Y0078532D01*
X0165784Y0085698D01*
X0167438Y0085698D01*
X0167438Y0078532D01*
X0167438Y0079240D02*
X0165784Y0079240D01*
X0165784Y0079948D02*
X0167438Y0079948D01*
X0167438Y0080656D02*
X0165784Y0080656D01*
X0165784Y0081364D02*
X0167438Y0081364D01*
X0167438Y0082072D02*
X0165784Y0082072D01*
X0165784Y0082780D02*
X0167438Y0082780D01*
X0167438Y0083488D02*
X0165784Y0083488D01*
X0165784Y0084196D02*
X0167438Y0084196D01*
X0167438Y0084904D02*
X0165784Y0084904D01*
X0165784Y0085612D02*
X0167438Y0085612D01*
X0163501Y0078532D02*
X0161847Y0078532D01*
X0161847Y0085698D01*
X0163501Y0085698D01*
X0163501Y0078532D01*
X0163501Y0079240D02*
X0161847Y0079240D01*
X0161847Y0079948D02*
X0163501Y0079948D01*
X0163501Y0080656D02*
X0161847Y0080656D01*
X0161847Y0081364D02*
X0163501Y0081364D01*
X0163501Y0082072D02*
X0161847Y0082072D01*
X0161847Y0082780D02*
X0163501Y0082780D01*
X0163501Y0083488D02*
X0161847Y0083488D01*
X0161847Y0084196D02*
X0163501Y0084196D01*
X0163501Y0084904D02*
X0161847Y0084904D01*
X0161847Y0085612D02*
X0163501Y0085612D01*
X0159564Y0078532D02*
X0157910Y0078532D01*
X0157910Y0085698D01*
X0159564Y0085698D01*
X0159564Y0078532D01*
X0159564Y0079240D02*
X0157910Y0079240D01*
X0157910Y0079948D02*
X0159564Y0079948D01*
X0159564Y0080656D02*
X0157910Y0080656D01*
X0157910Y0081364D02*
X0159564Y0081364D01*
X0159564Y0082072D02*
X0157910Y0082072D01*
X0157910Y0082780D02*
X0159564Y0082780D01*
X0159564Y0083488D02*
X0157910Y0083488D01*
X0157910Y0084196D02*
X0159564Y0084196D01*
X0159564Y0084904D02*
X0157910Y0084904D01*
X0157910Y0085612D02*
X0159564Y0085612D01*
X0155627Y0078532D02*
X0153973Y0078532D01*
X0153973Y0085698D01*
X0155627Y0085698D01*
X0155627Y0078532D01*
X0155627Y0079240D02*
X0153973Y0079240D01*
X0153973Y0079948D02*
X0155627Y0079948D01*
X0155627Y0080656D02*
X0153973Y0080656D01*
X0153973Y0081364D02*
X0155627Y0081364D01*
X0155627Y0082072D02*
X0153973Y0082072D01*
X0153973Y0082780D02*
X0155627Y0082780D01*
X0155627Y0083488D02*
X0153973Y0083488D01*
X0153973Y0084196D02*
X0155627Y0084196D01*
X0155627Y0084904D02*
X0153973Y0084904D01*
X0153973Y0085612D02*
X0155627Y0085612D01*
X0151690Y0078532D02*
X0150036Y0078532D01*
X0150036Y0085698D01*
X0151690Y0085698D01*
X0151690Y0078532D01*
X0151690Y0079240D02*
X0150036Y0079240D01*
X0150036Y0079948D02*
X0151690Y0079948D01*
X0151690Y0080656D02*
X0150036Y0080656D01*
X0150036Y0081364D02*
X0151690Y0081364D01*
X0151690Y0082072D02*
X0150036Y0082072D01*
X0150036Y0082780D02*
X0151690Y0082780D01*
X0151690Y0083488D02*
X0150036Y0083488D01*
X0150036Y0084196D02*
X0151690Y0084196D01*
X0151690Y0084904D02*
X0150036Y0084904D01*
X0150036Y0085612D02*
X0151690Y0085612D01*
X0147753Y0078532D02*
X0146099Y0078532D01*
X0146099Y0085698D01*
X0147753Y0085698D01*
X0147753Y0078532D01*
X0147753Y0079240D02*
X0146099Y0079240D01*
X0146099Y0079948D02*
X0147753Y0079948D01*
X0147753Y0080656D02*
X0146099Y0080656D01*
X0146099Y0081364D02*
X0147753Y0081364D01*
X0147753Y0082072D02*
X0146099Y0082072D01*
X0146099Y0082780D02*
X0147753Y0082780D01*
X0147753Y0083488D02*
X0146099Y0083488D01*
X0146099Y0084196D02*
X0147753Y0084196D01*
X0147753Y0084904D02*
X0146099Y0084904D01*
X0146099Y0085612D02*
X0147753Y0085612D01*
X0143816Y0078532D02*
X0142162Y0078532D01*
X0142162Y0085698D01*
X0143816Y0085698D01*
X0143816Y0078532D01*
X0143816Y0079240D02*
X0142162Y0079240D01*
X0142162Y0079948D02*
X0143816Y0079948D01*
X0143816Y0080656D02*
X0142162Y0080656D01*
X0142162Y0081364D02*
X0143816Y0081364D01*
X0143816Y0082072D02*
X0142162Y0082072D01*
X0142162Y0082780D02*
X0143816Y0082780D01*
X0143816Y0083488D02*
X0142162Y0083488D01*
X0142162Y0084196D02*
X0143816Y0084196D01*
X0143816Y0084904D02*
X0142162Y0084904D01*
X0142162Y0085612D02*
X0143816Y0085612D01*
X0139879Y0078532D02*
X0138225Y0078532D01*
X0138225Y0085698D01*
X0139879Y0085698D01*
X0139879Y0078532D01*
X0139879Y0079240D02*
X0138225Y0079240D01*
X0138225Y0079948D02*
X0139879Y0079948D01*
X0139879Y0080656D02*
X0138225Y0080656D01*
X0138225Y0081364D02*
X0139879Y0081364D01*
X0139879Y0082072D02*
X0138225Y0082072D01*
X0138225Y0082780D02*
X0139879Y0082780D01*
X0139879Y0083488D02*
X0138225Y0083488D01*
X0138225Y0084196D02*
X0139879Y0084196D01*
X0139879Y0084904D02*
X0138225Y0084904D01*
X0138225Y0085612D02*
X0139879Y0085612D01*
X0135942Y0078532D02*
X0134288Y0078532D01*
X0134288Y0085698D01*
X0135942Y0085698D01*
X0135942Y0078532D01*
X0135942Y0079240D02*
X0134288Y0079240D01*
X0134288Y0079948D02*
X0135942Y0079948D01*
X0135942Y0080656D02*
X0134288Y0080656D01*
X0134288Y0081364D02*
X0135942Y0081364D01*
X0135942Y0082072D02*
X0134288Y0082072D01*
X0134288Y0082780D02*
X0135942Y0082780D01*
X0135942Y0083488D02*
X0134288Y0083488D01*
X0134288Y0084196D02*
X0135942Y0084196D01*
X0135942Y0084904D02*
X0134288Y0084904D01*
X0134288Y0085612D02*
X0135942Y0085612D01*
X0132005Y0078532D02*
X0130351Y0078532D01*
X0130351Y0085698D01*
X0132005Y0085698D01*
X0132005Y0078532D01*
X0132005Y0079240D02*
X0130351Y0079240D01*
X0130351Y0079948D02*
X0132005Y0079948D01*
X0132005Y0080656D02*
X0130351Y0080656D01*
X0130351Y0081364D02*
X0132005Y0081364D01*
X0132005Y0082072D02*
X0130351Y0082072D01*
X0130351Y0082780D02*
X0132005Y0082780D01*
X0132005Y0083488D02*
X0130351Y0083488D01*
X0130351Y0084196D02*
X0132005Y0084196D01*
X0132005Y0084904D02*
X0130351Y0084904D01*
X0130351Y0085612D02*
X0132005Y0085612D01*
X0128068Y0078532D02*
X0126414Y0078532D01*
X0126414Y0085698D01*
X0128068Y0085698D01*
X0128068Y0078532D01*
X0128068Y0079240D02*
X0126414Y0079240D01*
X0126414Y0079948D02*
X0128068Y0079948D01*
X0128068Y0080656D02*
X0126414Y0080656D01*
X0126414Y0081364D02*
X0128068Y0081364D01*
X0128068Y0082072D02*
X0126414Y0082072D01*
X0126414Y0082780D02*
X0128068Y0082780D01*
X0128068Y0083488D02*
X0126414Y0083488D01*
X0126414Y0084196D02*
X0128068Y0084196D01*
X0128068Y0084904D02*
X0126414Y0084904D01*
X0126414Y0085612D02*
X0128068Y0085612D01*
X0124131Y0078532D02*
X0122477Y0078532D01*
X0122477Y0085698D01*
X0124131Y0085698D01*
X0124131Y0078532D01*
X0124131Y0079240D02*
X0122477Y0079240D01*
X0122477Y0079948D02*
X0124131Y0079948D01*
X0124131Y0080656D02*
X0122477Y0080656D01*
X0122477Y0081364D02*
X0124131Y0081364D01*
X0124131Y0082072D02*
X0122477Y0082072D01*
X0122477Y0082780D02*
X0124131Y0082780D01*
X0124131Y0083488D02*
X0122477Y0083488D01*
X0122477Y0084196D02*
X0124131Y0084196D01*
X0124131Y0084904D02*
X0122477Y0084904D01*
X0122477Y0085612D02*
X0124131Y0085612D01*
X0120194Y0078532D02*
X0118540Y0078532D01*
X0118540Y0085698D01*
X0120194Y0085698D01*
X0120194Y0078532D01*
X0120194Y0079240D02*
X0118540Y0079240D01*
X0118540Y0079948D02*
X0120194Y0079948D01*
X0120194Y0080656D02*
X0118540Y0080656D01*
X0118540Y0081364D02*
X0120194Y0081364D01*
X0120194Y0082072D02*
X0118540Y0082072D01*
X0118540Y0082780D02*
X0120194Y0082780D01*
X0120194Y0083488D02*
X0118540Y0083488D01*
X0118540Y0084196D02*
X0120194Y0084196D01*
X0120194Y0084904D02*
X0118540Y0084904D01*
X0118540Y0085612D02*
X0120194Y0085612D01*
X0116257Y0079714D02*
X0114603Y0079714D01*
X0114603Y0085698D01*
X0116257Y0085698D01*
X0116257Y0079714D01*
X0116257Y0080422D02*
X0114603Y0080422D01*
X0114603Y0081130D02*
X0116257Y0081130D01*
X0116257Y0081838D02*
X0114603Y0081838D01*
X0114603Y0082546D02*
X0116257Y0082546D01*
X0116257Y0083254D02*
X0114603Y0083254D01*
X0114603Y0083962D02*
X0116257Y0083962D01*
X0116257Y0084670D02*
X0114603Y0084670D01*
X0114603Y0085378D02*
X0116257Y0085378D01*
M02*
