%
M48
M72
T01C0.01300
T02C0.04000
%
T01
X43200Y11400
X52800Y19200
X46800Y21600
X61800Y21600
X57600Y34200
X63000Y39000
X66000Y41400
X72600Y42000
X76200Y38400
X72000Y36000
X69000Y34200
X82200Y43200
X91200Y50400
X99600Y52200
X115200Y52200
X121800Y57000
X115200Y59400
X121800Y61800
X119400Y64200
X115200Y68400
X115200Y72600
X118800Y76200
X110400Y81000
X108600Y86400
X103200Y86400
X97200Y80400
X99600Y77400
X92400Y78000
X97200Y70200
X91200Y60600
X72600Y63000
X63000Y63600
X44400Y61800
X34200Y63600
X18600Y57000
X37200Y49800
X31800Y46800
X42000Y42000
X25200Y39000
X18600Y42600
X24600Y22800
X66000Y52200
X97200Y41400
X117000Y34200
X129600Y42600
X125400Y46200
X124200Y52200
X133800Y65400
X137400Y76200
X129600Y76200
X120600Y92400
X93000Y92400
X66000Y79200
X66000Y73200
X49800Y84000
X33000Y92400
X22800Y92400
X25800Y86400
X141600Y30000
X137400Y27600
X133800Y28800
X148800Y32800
X152800Y32800
X156800Y32800
X160800Y32800
X164800Y32800
X168800Y32800
X172800Y32800
X176800Y32800
X176800Y36800
X176800Y40800
X176800Y44800
X176800Y48800
X176800Y52800
X176800Y56800
X176800Y60800
X176800Y64800
X176800Y68800
X176800Y72800
X181800Y78800
X185800Y78800
X189800Y78800
X193800Y78800
X197800Y78800
X177000Y88200
X172800Y27600
X169200Y27600
X165000Y27600
X188400Y15600
X184800Y12600
X177000Y12600
X160200Y11400
X108600Y22800
X99600Y25800
X93000Y22800
T02
X6800Y6800
X16800Y6800
X26800Y6800
X36800Y6800
X46800Y6800
X56800Y6800
X66800Y6800
X76800Y6800
X86800Y6800
X96800Y6800
X106800Y6800
X116800Y6800
X126800Y6800
X136800Y6800
X146800Y6800
X156800Y6800
X166800Y6800
X86800Y46800
X76800Y46800
X76800Y56800
X86800Y56800
X86800Y66800
X76800Y66800
X51800Y66800
X51800Y56800
X51800Y46800
X51800Y36800
X51800Y26800
X6800Y26800
X6800Y36800
X6800Y46800
X6800Y56800
X6800Y66800
X6800Y76800
X6800Y96800
X16800Y96800
X26800Y96800
X36800Y96800
X46800Y96800
X56800Y96800
X66800Y96800
X76800Y96800
X86800Y96800
X96800Y96800
X106800Y96800
X116800Y96800
X126800Y96800
X136800Y96800
X146800Y96800
X156800Y96800
X166800Y96800
X51800Y76800
M30
