%
M48
M72
T01C0.01300
T02C0.04000
%
T01
X51600Y64038
X71400Y64038
X55800Y82038
X68400Y85638
X70800Y97638
X76800Y104838
X84000Y120438
X70800Y121038
X61200Y137238
X46200Y130038
X36600Y123438
X30000Y118638
X53400Y102438
X45000Y95238
X24000Y87438
X18600Y91638
X24000Y71838
X94800Y79638
X97200Y94038
X97200Y97638
X112200Y103638
X100800Y121038
X97200Y121038
X112200Y121638
X111600Y137238
X159800Y138638
X159800Y134638
X159800Y130638
X159800Y122638
X159800Y118638
X159800Y114638
X159800Y110638
X159800Y106638
X159800Y102638
X159800Y98638
X159800Y94638
X159800Y90638
X159800Y86638
X159800Y82638
X159800Y78638
X159800Y70638
X159800Y66638
X159800Y62638
X159800Y58638
X159800Y142638
T02
X6800Y60638
X16800Y60638
X26800Y60638
X36800Y60638
X46800Y60638
X56800Y60638
X66800Y60638
X76800Y60638
X86800Y60638
X96800Y60638
X106800Y60638
X6800Y75638
X6800Y85638
X6800Y95638
X6800Y105638
X6800Y115638
X6800Y125638
X6800Y140638
X16800Y140638
X26800Y140638
X36800Y140638
X46800Y140638
X56800Y140638
X66800Y140638
X76800Y140638
X86800Y140638
X96800Y140638
X106800Y140638
X116800Y140638
X126800Y140638
M30
