G75*
%MOIN*%
%OFA0B0*%
%FSLAX25Y25*%
%IPPOS*%
%LPD*%
%AMOC8*
5,1,8,0,0,1.08239X$1,22.5*
%
%ADD10R,0.04724X0.04724*%
%ADD11R,0.04331X0.03937*%
%ADD12R,0.03937X0.04331*%
%ADD13R,0.03937X0.03543*%
%ADD14R,0.03150X0.06693*%
%ADD15C,0.01080*%
%ADD16C,0.00720*%
D10*
X0032666Y0075638D03*
X0032666Y0083638D03*
X0040934Y0083638D03*
X0040934Y0075638D03*
D11*
X0027146Y0075638D03*
X0020454Y0075638D03*
X0020454Y0083638D03*
X0027146Y0083638D03*
X0027146Y0095638D03*
X0020454Y0095638D03*
D12*
X0040800Y0095291D03*
X0040800Y0101984D03*
X0040800Y0120291D03*
X0040800Y0126984D03*
D13*
X0027950Y0125709D03*
X0021650Y0125709D03*
X0021650Y0109567D03*
X0027950Y0109567D03*
D14*
X0020076Y0117638D03*
D15*
X0051603Y0076432D02*
X0051603Y0071694D01*
X0049083Y0071694D01*
X0049083Y0076432D01*
X0051603Y0076432D01*
X0051603Y0072773D02*
X0049083Y0072773D01*
X0049083Y0073852D02*
X0051603Y0073852D01*
X0051603Y0074931D02*
X0049083Y0074931D01*
X0049083Y0076010D02*
X0051603Y0076010D01*
X0057509Y0077614D02*
X0057509Y0071694D01*
X0054989Y0071694D01*
X0054989Y0077614D01*
X0057509Y0077614D01*
X0057509Y0072773D02*
X0054989Y0072773D01*
X0054989Y0073852D02*
X0057509Y0073852D01*
X0057509Y0074931D02*
X0054989Y0074931D01*
X0054989Y0076010D02*
X0057509Y0076010D01*
X0057509Y0077089D02*
X0054989Y0077089D01*
X0063414Y0077614D02*
X0063414Y0071694D01*
X0060894Y0071694D01*
X0060894Y0077614D01*
X0063414Y0077614D01*
X0063414Y0072773D02*
X0060894Y0072773D01*
X0060894Y0073852D02*
X0063414Y0073852D01*
X0063414Y0074931D02*
X0060894Y0074931D01*
X0060894Y0076010D02*
X0063414Y0076010D01*
X0063414Y0077089D02*
X0060894Y0077089D01*
X0069320Y0077614D02*
X0069320Y0071694D01*
X0066800Y0071694D01*
X0066800Y0077614D01*
X0069320Y0077614D01*
X0069320Y0072773D02*
X0066800Y0072773D01*
X0066800Y0073852D02*
X0069320Y0073852D01*
X0069320Y0074931D02*
X0066800Y0074931D01*
X0066800Y0076010D02*
X0069320Y0076010D01*
X0069320Y0077089D02*
X0066800Y0077089D01*
X0075225Y0077614D02*
X0075225Y0071694D01*
X0072705Y0071694D01*
X0072705Y0077614D01*
X0075225Y0077614D01*
X0075225Y0072773D02*
X0072705Y0072773D01*
X0072705Y0073852D02*
X0075225Y0073852D01*
X0075225Y0074931D02*
X0072705Y0074931D01*
X0072705Y0076010D02*
X0075225Y0076010D01*
X0075225Y0077089D02*
X0072705Y0077089D01*
X0081131Y0077614D02*
X0081131Y0071694D01*
X0078611Y0071694D01*
X0078611Y0077614D01*
X0081131Y0077614D01*
X0081131Y0072773D02*
X0078611Y0072773D01*
X0078611Y0073852D02*
X0081131Y0073852D01*
X0081131Y0074931D02*
X0078611Y0074931D01*
X0078611Y0076010D02*
X0081131Y0076010D01*
X0081131Y0077089D02*
X0078611Y0077089D01*
X0087036Y0077614D02*
X0087036Y0071694D01*
X0084516Y0071694D01*
X0084516Y0077614D01*
X0087036Y0077614D01*
X0087036Y0072773D02*
X0084516Y0072773D01*
X0084516Y0073852D02*
X0087036Y0073852D01*
X0087036Y0074931D02*
X0084516Y0074931D01*
X0084516Y0076010D02*
X0087036Y0076010D01*
X0087036Y0077089D02*
X0084516Y0077089D01*
X0092942Y0077614D02*
X0092942Y0071694D01*
X0090422Y0071694D01*
X0090422Y0077614D01*
X0092942Y0077614D01*
X0092942Y0072773D02*
X0090422Y0072773D01*
X0090422Y0073852D02*
X0092942Y0073852D01*
X0092942Y0074931D02*
X0090422Y0074931D01*
X0090422Y0076010D02*
X0092942Y0076010D01*
X0092942Y0077089D02*
X0090422Y0077089D01*
X0098847Y0077614D02*
X0098847Y0071694D01*
X0096327Y0071694D01*
X0096327Y0077614D01*
X0098847Y0077614D01*
X0098847Y0072773D02*
X0096327Y0072773D01*
X0096327Y0073852D02*
X0098847Y0073852D01*
X0098847Y0074931D02*
X0096327Y0074931D01*
X0096327Y0076010D02*
X0098847Y0076010D01*
X0098847Y0077089D02*
X0096327Y0077089D01*
X0104753Y0077614D02*
X0104753Y0071694D01*
X0102233Y0071694D01*
X0102233Y0077614D01*
X0104753Y0077614D01*
X0104753Y0072773D02*
X0102233Y0072773D01*
X0102233Y0073852D02*
X0104753Y0073852D01*
X0104753Y0074931D02*
X0102233Y0074931D01*
X0102233Y0076010D02*
X0104753Y0076010D01*
X0104753Y0077089D02*
X0102233Y0077089D01*
X0110658Y0077614D02*
X0110658Y0071694D01*
X0108138Y0071694D01*
X0108138Y0077614D01*
X0110658Y0077614D01*
X0110658Y0072773D02*
X0108138Y0072773D01*
X0108138Y0073852D02*
X0110658Y0073852D01*
X0110658Y0074931D02*
X0108138Y0074931D01*
X0108138Y0076010D02*
X0110658Y0076010D01*
X0110658Y0077089D02*
X0108138Y0077089D01*
X0116564Y0077614D02*
X0116564Y0071694D01*
X0114044Y0071694D01*
X0114044Y0077614D01*
X0116564Y0077614D01*
X0116564Y0072773D02*
X0114044Y0072773D01*
X0114044Y0073852D02*
X0116564Y0073852D01*
X0116564Y0074931D02*
X0114044Y0074931D01*
X0114044Y0076010D02*
X0116564Y0076010D01*
X0116564Y0077089D02*
X0114044Y0077089D01*
X0122469Y0077614D02*
X0122469Y0071694D01*
X0119949Y0071694D01*
X0119949Y0077614D01*
X0122469Y0077614D01*
X0122469Y0072773D02*
X0119949Y0072773D01*
X0119949Y0073852D02*
X0122469Y0073852D01*
X0122469Y0074931D02*
X0119949Y0074931D01*
X0119949Y0076010D02*
X0122469Y0076010D01*
X0122469Y0077089D02*
X0119949Y0077089D01*
X0128375Y0076432D02*
X0128375Y0071694D01*
X0125855Y0071694D01*
X0125855Y0076432D01*
X0128375Y0076432D01*
X0128375Y0072773D02*
X0125855Y0072773D01*
X0125855Y0073852D02*
X0128375Y0073852D01*
X0128375Y0074931D02*
X0125855Y0074931D01*
X0125855Y0076010D02*
X0128375Y0076010D01*
X0122469Y0123662D02*
X0122469Y0129582D01*
X0122469Y0123662D02*
X0119949Y0123662D01*
X0119949Y0129582D01*
X0122469Y0129582D01*
X0122469Y0124741D02*
X0119949Y0124741D01*
X0119949Y0125820D02*
X0122469Y0125820D01*
X0122469Y0126899D02*
X0119949Y0126899D01*
X0119949Y0127978D02*
X0122469Y0127978D01*
X0122469Y0129057D02*
X0119949Y0129057D01*
X0116564Y0129582D02*
X0116564Y0123662D01*
X0114044Y0123662D01*
X0114044Y0129582D01*
X0116564Y0129582D01*
X0116564Y0124741D02*
X0114044Y0124741D01*
X0114044Y0125820D02*
X0116564Y0125820D01*
X0116564Y0126899D02*
X0114044Y0126899D01*
X0114044Y0127978D02*
X0116564Y0127978D01*
X0116564Y0129057D02*
X0114044Y0129057D01*
X0110658Y0129582D02*
X0110658Y0123662D01*
X0108138Y0123662D01*
X0108138Y0129582D01*
X0110658Y0129582D01*
X0110658Y0124741D02*
X0108138Y0124741D01*
X0108138Y0125820D02*
X0110658Y0125820D01*
X0110658Y0126899D02*
X0108138Y0126899D01*
X0108138Y0127978D02*
X0110658Y0127978D01*
X0110658Y0129057D02*
X0108138Y0129057D01*
X0104753Y0129582D02*
X0104753Y0123662D01*
X0102233Y0123662D01*
X0102233Y0129582D01*
X0104753Y0129582D01*
X0104753Y0124741D02*
X0102233Y0124741D01*
X0102233Y0125820D02*
X0104753Y0125820D01*
X0104753Y0126899D02*
X0102233Y0126899D01*
X0102233Y0127978D02*
X0104753Y0127978D01*
X0104753Y0129057D02*
X0102233Y0129057D01*
X0098847Y0129582D02*
X0098847Y0123662D01*
X0096327Y0123662D01*
X0096327Y0129582D01*
X0098847Y0129582D01*
X0098847Y0124741D02*
X0096327Y0124741D01*
X0096327Y0125820D02*
X0098847Y0125820D01*
X0098847Y0126899D02*
X0096327Y0126899D01*
X0096327Y0127978D02*
X0098847Y0127978D01*
X0098847Y0129057D02*
X0096327Y0129057D01*
X0092942Y0129582D02*
X0092942Y0123662D01*
X0090422Y0123662D01*
X0090422Y0129582D01*
X0092942Y0129582D01*
X0092942Y0124741D02*
X0090422Y0124741D01*
X0090422Y0125820D02*
X0092942Y0125820D01*
X0092942Y0126899D02*
X0090422Y0126899D01*
X0090422Y0127978D02*
X0092942Y0127978D01*
X0092942Y0129057D02*
X0090422Y0129057D01*
X0087036Y0129582D02*
X0087036Y0123662D01*
X0084516Y0123662D01*
X0084516Y0129582D01*
X0087036Y0129582D01*
X0087036Y0124741D02*
X0084516Y0124741D01*
X0084516Y0125820D02*
X0087036Y0125820D01*
X0087036Y0126899D02*
X0084516Y0126899D01*
X0084516Y0127978D02*
X0087036Y0127978D01*
X0087036Y0129057D02*
X0084516Y0129057D01*
X0075225Y0129582D02*
X0075225Y0123662D01*
X0072705Y0123662D01*
X0072705Y0129582D01*
X0075225Y0129582D01*
X0075225Y0124741D02*
X0072705Y0124741D01*
X0072705Y0125820D02*
X0075225Y0125820D01*
X0075225Y0126899D02*
X0072705Y0126899D01*
X0072705Y0127978D02*
X0075225Y0127978D01*
X0075225Y0129057D02*
X0072705Y0129057D01*
X0069320Y0129582D02*
X0069320Y0123662D01*
X0066800Y0123662D01*
X0066800Y0129582D01*
X0069320Y0129582D01*
X0069320Y0124741D02*
X0066800Y0124741D01*
X0066800Y0125820D02*
X0069320Y0125820D01*
X0069320Y0126899D02*
X0066800Y0126899D01*
X0066800Y0127978D02*
X0069320Y0127978D01*
X0069320Y0129057D02*
X0066800Y0129057D01*
X0063414Y0129582D02*
X0063414Y0123662D01*
X0060894Y0123662D01*
X0060894Y0129582D01*
X0063414Y0129582D01*
X0063414Y0124741D02*
X0060894Y0124741D01*
X0060894Y0125820D02*
X0063414Y0125820D01*
X0063414Y0126899D02*
X0060894Y0126899D01*
X0060894Y0127978D02*
X0063414Y0127978D01*
X0063414Y0129057D02*
X0060894Y0129057D01*
X0057509Y0129582D02*
X0057509Y0123662D01*
X0054989Y0123662D01*
X0054989Y0129582D01*
X0057509Y0129582D01*
X0057509Y0124741D02*
X0054989Y0124741D01*
X0054989Y0125820D02*
X0057509Y0125820D01*
X0057509Y0126899D02*
X0054989Y0126899D01*
X0054989Y0127978D02*
X0057509Y0127978D01*
X0057509Y0129057D02*
X0054989Y0129057D01*
X0051603Y0129582D02*
X0051603Y0124844D01*
X0049083Y0124844D01*
X0049083Y0129582D01*
X0051603Y0129582D01*
X0051603Y0125923D02*
X0049083Y0125923D01*
X0049083Y0127002D02*
X0051603Y0127002D01*
X0051603Y0128081D02*
X0049083Y0128081D01*
X0049083Y0129160D02*
X0051603Y0129160D01*
X0128375Y0129582D02*
X0128375Y0124844D01*
X0125855Y0124844D01*
X0125855Y0129582D01*
X0128375Y0129582D01*
X0128375Y0125923D02*
X0125855Y0125923D01*
X0125855Y0127002D02*
X0128375Y0127002D01*
X0128375Y0128081D02*
X0125855Y0128081D01*
X0125855Y0129160D02*
X0128375Y0129160D01*
D16*
X0081311Y0129762D02*
X0081311Y0123482D01*
X0078431Y0123482D01*
X0078431Y0129762D01*
X0081311Y0129762D01*
X0081311Y0124201D02*
X0078431Y0124201D01*
X0078431Y0124920D02*
X0081311Y0124920D01*
X0081311Y0125639D02*
X0078431Y0125639D01*
X0078431Y0126358D02*
X0081311Y0126358D01*
X0081311Y0127077D02*
X0078431Y0127077D01*
X0078431Y0127796D02*
X0081311Y0127796D01*
X0081311Y0128515D02*
X0078431Y0128515D01*
X0078431Y0129234D02*
X0081311Y0129234D01*
M02*
