G75*
%MOIN*%
%OFA0B0*%
%FSLAX25Y25*%
%IPPOS*%
%LPD*%
%AMOC8*
5,1,8,0,0,1.08239X$1,22.5*
%
%ADD10OC8,0.07000*%
%ADD11R,0.02500X0.05000*%
%ADD12C,0.00600*%
%ADD13C,0.02700*%
%ADD14C,0.01600*%
%ADD15C,0.01000*%
D10*
X0006800Y0060638D03*
X0016800Y0060638D03*
X0026800Y0060638D03*
X0036800Y0060638D03*
X0046800Y0060638D03*
X0056800Y0060638D03*
X0066800Y0060638D03*
X0076800Y0060638D03*
X0086800Y0060638D03*
X0096800Y0060638D03*
X0106800Y0060638D03*
X0006800Y0075638D03*
X0006800Y0085638D03*
X0006800Y0095638D03*
X0006800Y0105638D03*
X0006800Y0115638D03*
X0006800Y0125638D03*
X0006800Y0140638D03*
X0016800Y0140638D03*
X0026800Y0140638D03*
X0036800Y0140638D03*
X0046800Y0140638D03*
X0056800Y0140638D03*
X0066800Y0140638D03*
X0076800Y0140638D03*
X0086800Y0140638D03*
X0096800Y0140638D03*
X0106800Y0140638D03*
X0116800Y0140638D03*
X0126800Y0140638D03*
D11*
X0040422Y0084638D03*
X0037178Y0084638D03*
X0037178Y0074638D03*
X0040422Y0074638D03*
D12*
X0040800Y0074838D01*
X0045600Y0079638D01*
X0094800Y0079638D01*
X0071400Y0064038D02*
X0070200Y0065238D01*
X0061200Y0065238D01*
X0057000Y0061038D01*
X0056800Y0060638D01*
X0051600Y0064038D02*
X0050400Y0065238D01*
X0031200Y0065238D01*
X0027000Y0061038D01*
X0026800Y0060638D01*
X0024000Y0071838D02*
X0026400Y0074238D01*
X0036600Y0074238D01*
X0037178Y0074638D01*
X0037800Y0074638D02*
X0039800Y0074638D01*
X0039800Y0084638D02*
X0037800Y0084638D01*
X0021000Y0089838D02*
X0006800Y0075638D01*
X0021000Y0089838D02*
X0063000Y0089838D01*
X0070800Y0097638D01*
X0076800Y0104838D02*
X0086400Y0114438D01*
X0108600Y0114438D01*
X0116400Y0122238D01*
X0116400Y0140238D01*
X0116800Y0140638D01*
X0111600Y0137238D02*
X0110400Y0136038D01*
X0081000Y0136038D01*
X0076800Y0140238D01*
X0076800Y0140638D01*
X0072600Y0134838D02*
X0066800Y0140638D01*
X0061200Y0137238D02*
X0060000Y0136038D01*
X0011400Y0136038D01*
X0006800Y0140638D01*
X0007200Y0125838D02*
X0006800Y0125638D01*
X0007200Y0125838D02*
X0046200Y0125838D01*
X0046200Y0130038D01*
X0046200Y0125838D02*
X0096000Y0125838D01*
X0100800Y0121038D01*
X0097200Y0121038D02*
X0091800Y0115638D01*
X0006800Y0115638D01*
X0006800Y0105638D02*
X0007200Y0105438D01*
X0010200Y0102438D01*
X0053400Y0102438D01*
X0111000Y0102438D01*
X0112200Y0103638D01*
X0097200Y0097638D02*
X0080400Y0097638D01*
X0068400Y0085638D01*
X0082200Y0118638D02*
X0030000Y0118638D01*
X0036600Y0123438D02*
X0039000Y0121038D01*
X0070800Y0121038D01*
X0082200Y0118638D02*
X0084000Y0120438D01*
X0072600Y0134838D02*
X0099000Y0134838D01*
X0112200Y0121638D01*
D13*
X0112200Y0121638D03*
X0100800Y0121038D03*
X0097200Y0121038D03*
X0084000Y0120438D03*
X0070800Y0121038D03*
X0076800Y0104838D03*
X0070800Y0097638D03*
X0068400Y0085638D03*
X0055800Y0082038D03*
X0045000Y0095238D03*
X0053400Y0102438D03*
X0030000Y0118638D03*
X0036600Y0123438D03*
X0046200Y0130038D03*
X0061200Y0137238D03*
X0111600Y0137238D03*
X0112200Y0103638D03*
X0097200Y0097638D03*
X0097200Y0094038D03*
X0094800Y0079638D03*
X0071400Y0064038D03*
X0051600Y0064038D03*
X0024000Y0071838D03*
X0024000Y0087438D03*
X0018600Y0091638D03*
X0159800Y0090638D03*
X0159800Y0094638D03*
X0159800Y0098638D03*
X0159800Y0102638D03*
X0159800Y0106638D03*
X0159800Y0110638D03*
X0159800Y0114638D03*
X0159800Y0118638D03*
X0159800Y0122638D03*
X0159800Y0130638D03*
X0159800Y0134638D03*
X0159800Y0138638D03*
X0159800Y0142638D03*
X0159800Y0086638D03*
X0159800Y0082638D03*
X0159800Y0078638D03*
X0159800Y0070638D03*
X0159800Y0066638D03*
X0159800Y0062638D03*
X0159800Y0058638D03*
D14*
X0021700Y0058608D02*
X0021030Y0057938D01*
X0022570Y0057938D01*
X0021900Y0058608D01*
X0021900Y0062667D01*
X0024770Y0065538D01*
X0028830Y0065538D01*
X0028963Y0065405D01*
X0030496Y0066938D01*
X0051104Y0066938D01*
X0051254Y0066788D01*
X0052147Y0066788D01*
X0053158Y0066369D01*
X0053931Y0065596D01*
X0054194Y0064961D01*
X0054770Y0065538D01*
X0058830Y0065538D01*
X0058963Y0065405D01*
X0060496Y0066938D01*
X0070904Y0066938D01*
X0071054Y0066788D01*
X0071947Y0066788D01*
X0072958Y0066369D01*
X0073731Y0065596D01*
X0074053Y0064820D01*
X0074770Y0065538D01*
X0078830Y0065538D01*
X0081700Y0062667D01*
X0081700Y0058608D01*
X0081030Y0057938D01*
X0082570Y0057938D01*
X0081900Y0058608D01*
X0081900Y0062667D01*
X0084770Y0065538D01*
X0088830Y0065538D01*
X0091700Y0062667D01*
X0091700Y0058608D01*
X0091030Y0057938D01*
X0092570Y0057938D01*
X0091900Y0058608D01*
X0091900Y0062667D01*
X0094770Y0065538D01*
X0098830Y0065538D01*
X0101700Y0062667D01*
X0101700Y0058608D01*
X0101030Y0057938D01*
X0102570Y0057938D01*
X0101900Y0058608D01*
X0101900Y0062667D01*
X0104770Y0065538D01*
X0108830Y0065538D01*
X0111700Y0062667D01*
X0111700Y0058608D01*
X0111030Y0057938D01*
X0160300Y0057938D01*
X0160300Y0143338D01*
X0131030Y0143338D01*
X0131700Y0142667D01*
X0131700Y0138608D01*
X0128830Y0135738D01*
X0124770Y0135738D01*
X0121900Y0138608D01*
X0121900Y0142667D01*
X0122570Y0143338D01*
X0121030Y0143338D01*
X0121700Y0142667D01*
X0121700Y0138608D01*
X0118830Y0135738D01*
X0118100Y0135738D01*
X0118100Y0121534D01*
X0117104Y0120538D01*
X0109304Y0112738D01*
X0087104Y0112738D01*
X0079550Y0105184D01*
X0079550Y0104291D01*
X0079487Y0104138D01*
X0109450Y0104138D01*
X0109450Y0104185D01*
X0109869Y0105196D01*
X0110642Y0105969D01*
X0111653Y0106388D01*
X0112747Y0106388D01*
X0113758Y0105969D01*
X0114531Y0105196D01*
X0114950Y0104185D01*
X0114950Y0103091D01*
X0114531Y0102080D01*
X0113758Y0101306D01*
X0112747Y0100888D01*
X0111854Y0100888D01*
X0111704Y0100738D01*
X0055589Y0100738D01*
X0054958Y0100106D01*
X0053947Y0099688D01*
X0052853Y0099688D01*
X0051842Y0100106D01*
X0051211Y0100738D01*
X0009496Y0100738D01*
X0009163Y0101071D01*
X0009012Y0100921D01*
X0012100Y0097833D01*
X0012100Y0095838D01*
X0007000Y0095838D01*
X0007000Y0095438D01*
X0012100Y0095438D01*
X0012100Y0093442D01*
X0009012Y0090355D01*
X0011700Y0087667D01*
X0011700Y0087538D01*
X0011813Y0087538D01*
X0015850Y0091575D01*
X0015850Y0092185D01*
X0016269Y0093196D01*
X0017042Y0093969D01*
X0018053Y0094388D01*
X0019147Y0094388D01*
X0020158Y0093969D01*
X0020931Y0093196D01*
X0021350Y0092185D01*
X0021350Y0091538D01*
X0062296Y0091538D01*
X0068050Y0097292D01*
X0068050Y0098185D01*
X0068469Y0099196D01*
X0069242Y0099969D01*
X0070253Y0100388D01*
X0071347Y0100388D01*
X0072358Y0099969D01*
X0073131Y0099196D01*
X0073550Y0098185D01*
X0073550Y0097091D01*
X0073131Y0096080D01*
X0072358Y0095306D01*
X0071347Y0094888D01*
X0070454Y0094888D01*
X0064700Y0089134D01*
X0063704Y0088138D01*
X0042652Y0088138D01*
X0043072Y0087718D01*
X0043072Y0083938D01*
X0053811Y0083938D01*
X0054242Y0084369D01*
X0055253Y0084788D01*
X0056347Y0084788D01*
X0057358Y0084369D01*
X0057789Y0083938D01*
X0066211Y0083938D01*
X0066069Y0084080D01*
X0065650Y0085091D01*
X0065650Y0086185D01*
X0066069Y0087196D01*
X0066842Y0087969D01*
X0067853Y0088388D01*
X0068746Y0088388D01*
X0078700Y0098342D01*
X0079696Y0099338D01*
X0095011Y0099338D01*
X0095642Y0099969D01*
X0096653Y0100388D01*
X0097747Y0100388D01*
X0098758Y0099969D01*
X0099531Y0099196D01*
X0099950Y0098185D01*
X0099950Y0097091D01*
X0099531Y0096080D01*
X0099289Y0095838D01*
X0099531Y0095596D01*
X0099950Y0094585D01*
X0099950Y0093491D01*
X0099531Y0092480D01*
X0098758Y0091706D01*
X0097747Y0091288D01*
X0097137Y0091288D01*
X0087187Y0081338D01*
X0092611Y0081338D01*
X0093242Y0081969D01*
X0094253Y0082388D01*
X0095347Y0082388D01*
X0096358Y0081969D01*
X0097131Y0081196D01*
X0097550Y0080185D01*
X0097550Y0079091D01*
X0097131Y0078080D01*
X0096358Y0077306D01*
X0095347Y0076888D01*
X0094253Y0076888D01*
X0093242Y0077306D01*
X0092611Y0077938D01*
X0046304Y0077938D01*
X0043072Y0074705D01*
X0043072Y0071558D01*
X0042252Y0070738D01*
X0035348Y0070738D01*
X0034528Y0071558D01*
X0034528Y0072538D01*
X0027104Y0072538D01*
X0026750Y0072184D01*
X0026750Y0071291D01*
X0026331Y0070280D01*
X0025558Y0069506D01*
X0024547Y0069088D01*
X0023453Y0069088D01*
X0022442Y0069506D01*
X0021669Y0070280D01*
X0021628Y0070379D01*
X0018700Y0067451D01*
X0018700Y0065538D01*
X0018830Y0065538D01*
X0021700Y0062667D01*
X0021700Y0058608D01*
X0021700Y0058835D02*
X0021900Y0058835D01*
X0021900Y0060433D02*
X0021700Y0060433D01*
X0021700Y0062032D02*
X0021900Y0062032D01*
X0022863Y0063630D02*
X0020737Y0063630D01*
X0019139Y0065229D02*
X0024461Y0065229D01*
X0019675Y0068426D02*
X0160300Y0068426D01*
X0160300Y0070024D02*
X0026076Y0070024D01*
X0026750Y0071623D02*
X0034528Y0071623D01*
X0030385Y0066827D02*
X0018700Y0066827D01*
X0014900Y0066827D02*
X0004100Y0066827D01*
X0004605Y0065938D02*
X0004100Y0065433D01*
X0004100Y0071408D01*
X0004770Y0070738D01*
X0008830Y0070738D01*
X0011700Y0073608D01*
X0011700Y0077667D01*
X0011467Y0077901D01*
X0021250Y0087684D01*
X0021250Y0086891D01*
X0021669Y0085880D01*
X0022442Y0085106D01*
X0023453Y0084688D01*
X0024063Y0084688D01*
X0024500Y0084251D01*
X0025613Y0083138D01*
X0034528Y0083138D01*
X0034528Y0081558D01*
X0035348Y0080738D01*
X0038300Y0080738D01*
X0038300Y0080338D01*
X0026213Y0080338D01*
X0016013Y0070138D01*
X0014900Y0069025D01*
X0014900Y0065538D01*
X0014770Y0065538D01*
X0012083Y0062850D01*
X0008995Y0065938D01*
X0007000Y0065938D01*
X0007000Y0060838D01*
X0006600Y0060838D01*
X0006600Y0065938D01*
X0004605Y0065938D01*
X0006600Y0065229D02*
X0007000Y0065229D01*
X0007000Y0063630D02*
X0006600Y0063630D01*
X0006600Y0062032D02*
X0007000Y0062032D01*
X0009704Y0065229D02*
X0014461Y0065229D01*
X0012863Y0063630D02*
X0011303Y0063630D01*
X0014900Y0068426D02*
X0004100Y0068426D01*
X0004100Y0070024D02*
X0015900Y0070024D01*
X0017498Y0071623D02*
X0009715Y0071623D01*
X0011313Y0073221D02*
X0019097Y0073221D01*
X0020695Y0074820D02*
X0011700Y0074820D01*
X0011700Y0076418D02*
X0022294Y0076418D01*
X0023892Y0078017D02*
X0011583Y0078017D01*
X0013182Y0079615D02*
X0025491Y0079615D01*
X0024340Y0084411D02*
X0017977Y0084411D01*
X0016379Y0082812D02*
X0034528Y0082812D01*
X0034872Y0081214D02*
X0014780Y0081214D01*
X0019576Y0086010D02*
X0021615Y0086010D01*
X0021250Y0087608D02*
X0021174Y0087608D01*
X0021259Y0092404D02*
X0063162Y0092404D01*
X0064760Y0094002D02*
X0020078Y0094002D01*
X0017122Y0094002D02*
X0012100Y0094002D01*
X0011061Y0092404D02*
X0015941Y0092404D01*
X0015080Y0090805D02*
X0009463Y0090805D01*
X0010161Y0089207D02*
X0013482Y0089207D01*
X0011883Y0087608D02*
X0011700Y0087608D01*
X0007000Y0095601D02*
X0066359Y0095601D01*
X0067957Y0097199D02*
X0012100Y0097199D01*
X0011136Y0098798D02*
X0068304Y0098798D01*
X0073296Y0098798D02*
X0079156Y0098798D01*
X0077557Y0097199D02*
X0073550Y0097199D01*
X0072652Y0095601D02*
X0075959Y0095601D01*
X0074360Y0094002D02*
X0069568Y0094002D01*
X0067970Y0092404D02*
X0072762Y0092404D01*
X0071163Y0090805D02*
X0066371Y0090805D01*
X0064773Y0089207D02*
X0069565Y0089207D01*
X0066481Y0087608D02*
X0043072Y0087608D01*
X0043072Y0086010D02*
X0065650Y0086010D01*
X0065932Y0084411D02*
X0057257Y0084411D01*
X0054343Y0084411D02*
X0043072Y0084411D01*
X0044785Y0076418D02*
X0160300Y0076418D01*
X0160300Y0074820D02*
X0043186Y0074820D01*
X0043072Y0073221D02*
X0160300Y0073221D01*
X0160300Y0071623D02*
X0043072Y0071623D01*
X0051215Y0066827D02*
X0060385Y0066827D01*
X0054461Y0065229D02*
X0054083Y0065229D01*
X0071015Y0066827D02*
X0160300Y0066827D01*
X0160300Y0065229D02*
X0109139Y0065229D01*
X0110737Y0063630D02*
X0160300Y0063630D01*
X0160300Y0062032D02*
X0111700Y0062032D01*
X0111700Y0060433D02*
X0160300Y0060433D01*
X0160300Y0058835D02*
X0111700Y0058835D01*
X0104461Y0065229D02*
X0099139Y0065229D01*
X0100737Y0063630D02*
X0102863Y0063630D01*
X0101900Y0062032D02*
X0101700Y0062032D01*
X0101700Y0060433D02*
X0101900Y0060433D01*
X0101900Y0058835D02*
X0101700Y0058835D01*
X0094461Y0065229D02*
X0089139Y0065229D01*
X0090737Y0063630D02*
X0092863Y0063630D01*
X0091900Y0062032D02*
X0091700Y0062032D01*
X0091700Y0060433D02*
X0091900Y0060433D01*
X0091900Y0058835D02*
X0091700Y0058835D01*
X0084461Y0065229D02*
X0079139Y0065229D01*
X0080737Y0063630D02*
X0082863Y0063630D01*
X0081900Y0062032D02*
X0081700Y0062032D01*
X0081700Y0060433D02*
X0081900Y0060433D01*
X0081900Y0058835D02*
X0081700Y0058835D01*
X0074461Y0065229D02*
X0073883Y0065229D01*
X0097068Y0078017D02*
X0160300Y0078017D01*
X0160300Y0079615D02*
X0097550Y0079615D01*
X0097113Y0081214D02*
X0160300Y0081214D01*
X0160300Y0082812D02*
X0088662Y0082812D01*
X0090260Y0084411D02*
X0160300Y0084411D01*
X0160300Y0086010D02*
X0091859Y0086010D01*
X0093457Y0087608D02*
X0160300Y0087608D01*
X0160300Y0089207D02*
X0095056Y0089207D01*
X0096654Y0090805D02*
X0160300Y0090805D01*
X0160300Y0092404D02*
X0099455Y0092404D01*
X0099950Y0094002D02*
X0160300Y0094002D01*
X0160300Y0095601D02*
X0099526Y0095601D01*
X0099950Y0097199D02*
X0160300Y0097199D01*
X0160300Y0098798D02*
X0099696Y0098798D01*
X0109867Y0105192D02*
X0079558Y0105192D01*
X0081157Y0106790D02*
X0160300Y0106790D01*
X0160300Y0105192D02*
X0114533Y0105192D01*
X0114950Y0103593D02*
X0160300Y0103593D01*
X0160300Y0101995D02*
X0114446Y0101995D01*
X0109751Y0113184D02*
X0160300Y0113184D01*
X0160300Y0111586D02*
X0085952Y0111586D01*
X0084354Y0109987D02*
X0160300Y0109987D01*
X0160300Y0108389D02*
X0082755Y0108389D01*
X0055247Y0100396D02*
X0160300Y0100396D01*
X0160300Y0114783D02*
X0111349Y0114783D01*
X0112948Y0116381D02*
X0160300Y0116381D01*
X0160300Y0117980D02*
X0114546Y0117980D01*
X0116145Y0119578D02*
X0160300Y0119578D01*
X0160300Y0121177D02*
X0117743Y0121177D01*
X0118100Y0122775D02*
X0160300Y0122775D01*
X0160300Y0124374D02*
X0118100Y0124374D01*
X0118100Y0125972D02*
X0160300Y0125972D01*
X0160300Y0127571D02*
X0118100Y0127571D01*
X0118100Y0129169D02*
X0160300Y0129169D01*
X0160300Y0130768D02*
X0118100Y0130768D01*
X0118100Y0132366D02*
X0160300Y0132366D01*
X0160300Y0133965D02*
X0118100Y0133965D01*
X0118100Y0135563D02*
X0160300Y0135563D01*
X0160300Y0137162D02*
X0130254Y0137162D01*
X0131700Y0138760D02*
X0160300Y0138760D01*
X0160300Y0140359D02*
X0131700Y0140359D01*
X0131700Y0141957D02*
X0160300Y0141957D01*
X0123346Y0137162D02*
X0120254Y0137162D01*
X0121700Y0138760D02*
X0121900Y0138760D01*
X0121900Y0140359D02*
X0121700Y0140359D01*
X0121700Y0141957D02*
X0121900Y0141957D01*
X0051553Y0100396D02*
X0009537Y0100396D01*
X0021274Y0070024D02*
X0021924Y0070024D01*
D15*
X0016800Y0068238D02*
X0016800Y0060638D01*
X0016800Y0068238D02*
X0027000Y0078438D01*
X0040200Y0078438D01*
X0040200Y0082038D01*
X0055800Y0082038D01*
X0085200Y0082038D01*
X0097200Y0094038D01*
X0055200Y0100638D02*
X0049800Y0095238D01*
X0045000Y0095238D01*
X0007200Y0095238D01*
X0006800Y0095638D01*
X0012600Y0085638D02*
X0018600Y0091638D01*
X0024000Y0087438D02*
X0026400Y0085038D01*
X0036600Y0085038D01*
X0037178Y0084638D01*
X0040200Y0084438D02*
X0040422Y0084638D01*
X0040200Y0084438D02*
X0040200Y0082038D01*
X0055200Y0100638D02*
X0160300Y0100638D01*
X0012600Y0085638D02*
X0006800Y0085638D01*
M02*
