%
M48
M72
T01C0.0130
T02C0.0400
%
T01
X1705Y7300
X2065Y7300
X2305Y7600
X3565Y8860
X3865Y8680
X4585Y8440
X3685Y9700
X2975Y10740
X2005Y10300
X2005Y9520
X2005Y11280
X1505Y11280
X1825Y12340
X2005Y12780
X2505Y12780
X3005Y12780
X4345Y12700
X5125Y12340
X5485Y12400
X5125Y13120
X6745Y13120
X7645Y13120
X9685Y13120
X10045Y12760
X9805Y12520
X9805Y11860
X9745Y10720
X9805Y10360
X9805Y10000
X9805Y9640
X9805Y9280
X9805Y8680
X10465Y7900
X10705Y7300
X11505Y6280
X11505Y5780
X11505Y5280
X11505Y4780
X11505Y4280
X11505Y3780
X11505Y3280
X11505Y2780
X11505Y2280
X12005Y1780
X12505Y1280
X13005Y780
X13505Y780
X14005Y780
X14505Y780
X14905Y930
X14905Y1430
X14905Y1930
X14905Y2430
X14905Y2930
X14905Y3430
X14905Y3930
X14905Y4430
X14905Y4930
X14905Y5430
X14905Y5930
X14905Y6430
X14905Y6930
X14905Y8480
X14405Y8480
X13905Y8480
X13655Y9030
X13655Y9530
X13655Y10030
X13655Y10530
X13655Y11030
X13655Y11530
X13905Y11880
X14405Y11880
X14905Y11880
X14905Y13380
X14905Y13880
X14905Y14380
X14905Y14880
X14905Y15380
X14905Y15880
X14905Y16380
X14905Y16880
X14905Y17380
X14905Y17880
X14905Y18380
X14905Y18880
X14905Y19380
X14505Y19580
X14005Y19580
X13505Y19580
X13005Y19580
X12505Y19080
X12005Y18580
X11505Y18080
X11505Y17580
X11505Y17080
X11505Y16580
X11505Y16080
X11505Y15580
X11505Y15080
X11505Y14580
X11505Y14080
X10345Y13720
X12325Y11440
X12085Y11200
X11725Y10960
X11365Y10240
X12685Y11680
X12745Y8260
X8545Y7480
X7505Y9280
X7505Y9780
X7505Y10280
X7005Y9780
X8005Y9780
X7045Y7780
X6685Y7780
X6025Y8680
X1505Y12780
X505Y12780
X505Y12280
X505Y11780
X505Y11280
T02
X705Y6180
X1705Y6180
X2705Y6180
X3705Y6180
X4705Y6180
X5705Y6180
X6705Y6180
X7705Y6180
X8705Y6180
X9705Y6180
X10705Y6180
X10705Y14180
X9705Y14180
X8705Y14180
X7705Y14180
X6705Y14180
X5705Y14180
X4705Y14180
X3705Y14180
X2705Y14180
X1705Y14180
X705Y14180
M30
