G75*
%MOIN*%
%OFA0B0*%
%FSLAX24Y24*%
%IPPOS*%
%LPD*%
%AMOC8*
5,1,8,0,0,1.08239X$1,22.5*
%
%ADD10C,0.0000*%
%ADD11C,0.0050*%
%ADD12C,0.0040*%
%ADD13C,0.0160*%
%ADD14C,0.0060*%
%ADD15C,0.0080*%
%ADD16R,0.0374X0.0197*%
%ADD17R,0.0300X0.0180*%
%ADD18C,0.0020*%
%ADD19R,0.0197X0.0128*%
%ADD20R,0.0098X0.0059*%
%ADD21R,0.0069X0.0157*%
%ADD22R,0.0079X0.0079*%
%ADD23R,0.0118X0.0118*%
%ADD24R,0.0030X0.0128*%
%ADD25R,0.0160X0.0340*%
%ADD26C,0.0220*%
%ADD27R,0.0200X0.0200*%
%ADD28R,0.0394X0.1181*%
D10*
X000205Y005680D02*
X000205Y014680D01*
X011205Y014680D01*
X011205Y018380D01*
X012705Y019880D01*
X015205Y019880D01*
X015205Y000480D01*
X012705Y000480D01*
X011205Y001980D01*
X011205Y005680D01*
X000205Y005680D01*
D11*
X001021Y008130D02*
X001021Y010630D01*
X002989Y010630D01*
X002989Y008130D01*
X001021Y008130D01*
X001021Y008160D01*
X001021Y008130D02*
X002989Y008130D01*
X002989Y008160D01*
X002989Y008591D02*
X002989Y008669D01*
X002989Y009091D02*
X002989Y009130D01*
X002143Y009130D01*
X002143Y009630D01*
X002989Y009630D01*
X002143Y009630D01*
X002143Y009130D01*
X002989Y009130D01*
X002989Y009169D01*
X002989Y009591D02*
X002989Y009630D01*
X002989Y009669D01*
X002989Y010091D02*
X002989Y010169D01*
X002989Y010600D02*
X002989Y010630D01*
X001021Y010630D01*
X001021Y010600D01*
X001021Y010169D02*
X001021Y010091D01*
X001021Y009669D02*
X001021Y009591D01*
X001021Y009169D02*
X001021Y009091D01*
X001021Y008669D02*
X001021Y008591D01*
X004754Y008582D02*
X005856Y008582D01*
X005856Y008936D01*
X005856Y009724D01*
X005856Y010078D01*
X004754Y010078D01*
X004754Y008582D01*
X008305Y013610D02*
X009005Y013610D01*
X010066Y013074D02*
X010066Y007286D01*
X015184Y007286D01*
X015184Y013074D01*
X010066Y013074D01*
X011605Y011421D02*
X011546Y011363D01*
X011546Y011246D01*
X011663Y011246D02*
X011663Y011421D01*
X011605Y011421D02*
X011780Y011421D01*
X011780Y011246D01*
X011722Y011188D01*
X011663Y011246D01*
X011546Y011053D02*
X011546Y010878D01*
X011605Y010819D01*
X011722Y010819D01*
X011780Y010878D01*
X011780Y011053D01*
X011838Y011053D02*
X011546Y011053D01*
X011838Y011053D02*
X011897Y010994D01*
X011897Y010936D01*
X012030Y011008D02*
X012088Y011067D01*
X012205Y011067D01*
X012263Y011008D01*
X012263Y010833D01*
X012263Y010950D02*
X012380Y011067D01*
X012205Y011202D02*
X012205Y011435D01*
X012205Y011570D02*
X012205Y011803D01*
X012146Y011803D02*
X012380Y011803D01*
X012380Y011570D02*
X012146Y011570D01*
X012030Y011687D01*
X012146Y011803D01*
X012030Y011008D02*
X012030Y010833D01*
X012380Y010833D01*
X012380Y010698D02*
X012380Y010465D01*
X012030Y010465D01*
X011897Y010381D02*
X011838Y010439D01*
X011546Y010439D01*
X011546Y010264D01*
X011605Y010205D01*
X011722Y010205D01*
X011780Y010264D01*
X011780Y010439D01*
X011897Y010381D02*
X011897Y010322D01*
X012030Y010213D02*
X012146Y010097D01*
X012146Y009962D02*
X012088Y009962D01*
X012030Y009903D01*
X012030Y009787D01*
X012088Y009728D01*
X012146Y009962D02*
X012380Y009728D01*
X012380Y009962D01*
X012380Y010097D02*
X012380Y010330D01*
X012380Y010213D02*
X012030Y010213D01*
X011780Y010012D02*
X011780Y009896D01*
X011722Y009837D01*
X011605Y009837D01*
X011546Y009896D01*
X011546Y010012D01*
X011605Y010071D01*
X011663Y010071D01*
X011663Y009837D01*
X011780Y009702D02*
X011546Y009702D01*
X011546Y009469D02*
X011722Y009469D01*
X011780Y009527D01*
X011780Y009702D01*
X012030Y009477D02*
X012146Y009360D01*
X012030Y009477D02*
X012380Y009477D01*
X012380Y009593D02*
X012380Y009360D01*
X012380Y009225D02*
X012380Y008992D01*
X012030Y008992D01*
X012030Y009225D01*
X012205Y009108D02*
X012205Y008992D01*
X012380Y008857D02*
X012380Y008623D01*
X012030Y008623D01*
X012088Y008489D02*
X012146Y008489D01*
X012205Y008430D01*
X012205Y008255D01*
X012380Y008255D02*
X012380Y008430D01*
X012322Y008489D01*
X012263Y008489D01*
X012205Y008430D01*
X012088Y008489D02*
X012030Y008430D01*
X012030Y008255D01*
X012380Y008255D01*
X011780Y008855D02*
X011780Y009030D01*
X011722Y009089D01*
X011663Y009089D01*
X011605Y009030D01*
X011605Y008855D01*
X011780Y008855D02*
X011430Y008855D01*
X011430Y009030D01*
X011488Y009089D01*
X011546Y009089D01*
X011605Y009030D01*
X011780Y009223D02*
X011780Y009340D01*
X011780Y009282D02*
X011430Y009282D01*
X011430Y009223D01*
X011546Y010574D02*
X011546Y010632D01*
X011780Y010632D01*
X011780Y010574D02*
X011780Y010691D01*
X011430Y010632D02*
X011371Y010632D01*
D12*
X009575Y011840D02*
X009575Y012120D01*
X009240Y012120D02*
X009240Y011840D01*
X009380Y013300D02*
X009341Y013339D01*
X009380Y013300D02*
X009457Y013300D01*
X009496Y013339D01*
X009496Y013377D01*
X009457Y013416D01*
X009419Y013416D01*
X009457Y013416D02*
X009496Y013455D01*
X009496Y013493D01*
X009457Y013532D01*
X009380Y013532D01*
X009341Y013493D01*
X009592Y013532D02*
X009592Y013377D01*
X009669Y013300D01*
X009747Y013377D01*
X009747Y013532D01*
X009842Y013493D02*
X009881Y013532D01*
X009958Y013532D01*
X009997Y013493D01*
X009997Y013455D01*
X009958Y013416D01*
X009997Y013377D01*
X009997Y013339D01*
X009958Y013300D01*
X009881Y013300D01*
X009842Y013339D01*
X009920Y013416D02*
X009958Y013416D01*
X010343Y013339D02*
X010382Y013300D01*
X010459Y013300D01*
X010498Y013339D01*
X010498Y013416D01*
X010421Y013416D01*
X010498Y013493D02*
X010459Y013532D01*
X010382Y013532D01*
X010343Y013493D01*
X010343Y013339D01*
X010594Y013300D02*
X010594Y013532D01*
X010748Y013300D01*
X010748Y013532D01*
X010844Y013532D02*
X010844Y013300D01*
X010960Y013300D01*
X010999Y013339D01*
X010999Y013493D01*
X010960Y013532D01*
X010844Y013532D01*
X008995Y013493D02*
X008957Y013532D01*
X008879Y013532D01*
X008840Y013493D01*
X008840Y013455D01*
X008879Y013416D01*
X008957Y013416D01*
X008995Y013377D01*
X008995Y013339D01*
X008957Y013300D01*
X008879Y013300D01*
X008840Y013339D01*
X008745Y013300D02*
X008590Y013300D01*
X008590Y013532D01*
X008745Y013532D01*
X008667Y013416D02*
X008590Y013416D01*
X008494Y013416D02*
X008456Y013377D01*
X008340Y013377D01*
X008417Y013377D02*
X008494Y013300D01*
X008494Y013416D02*
X008494Y013493D01*
X008456Y013532D01*
X008340Y013532D01*
X008340Y013300D01*
X007993Y013339D02*
X007955Y013300D01*
X007877Y013300D01*
X007839Y013339D01*
X007993Y013493D01*
X007993Y013339D01*
X007839Y013339D02*
X007839Y013493D01*
X007877Y013532D01*
X007955Y013532D01*
X007993Y013493D01*
X007743Y013493D02*
X007743Y013339D01*
X007704Y013300D01*
X007627Y013300D01*
X007588Y013339D01*
X007743Y013493D01*
X007704Y013532D01*
X007627Y013532D01*
X007588Y013493D01*
X007588Y013339D01*
X007493Y013416D02*
X007493Y013493D01*
X007454Y013532D01*
X007338Y013532D01*
X007338Y013300D01*
X007338Y013377D02*
X007454Y013377D01*
X007493Y013416D01*
X006992Y013300D02*
X006837Y013300D01*
X006914Y013300D02*
X006914Y013532D01*
X006837Y013455D01*
X006741Y013493D02*
X006741Y013339D01*
X006702Y013300D01*
X006625Y013300D01*
X006586Y013339D01*
X006741Y013493D01*
X006702Y013532D01*
X006625Y013532D01*
X006586Y013493D01*
X006586Y013339D01*
X006491Y013416D02*
X006452Y013377D01*
X006336Y013377D01*
X006336Y013300D02*
X006336Y013532D01*
X006452Y013532D01*
X006491Y013493D01*
X006491Y013416D01*
X005990Y013455D02*
X005990Y013493D01*
X005951Y013532D01*
X005874Y013532D01*
X005835Y013493D01*
X005739Y013493D02*
X005585Y013339D01*
X005623Y013300D01*
X005701Y013300D01*
X005739Y013339D01*
X005739Y013493D01*
X005701Y013532D01*
X005623Y013532D01*
X005585Y013493D01*
X005585Y013339D01*
X005489Y013416D02*
X005489Y013493D01*
X005450Y013532D01*
X005334Y013532D01*
X005334Y013300D01*
X005334Y013377D02*
X005450Y013377D01*
X005489Y013416D01*
X005835Y013300D02*
X005990Y013455D01*
X005990Y013300D02*
X005835Y013300D01*
X004988Y013339D02*
X004949Y013300D01*
X004872Y013300D01*
X004833Y013339D01*
X004738Y013339D02*
X004738Y013493D01*
X004583Y013339D01*
X004621Y013300D01*
X004699Y013300D01*
X004738Y013339D01*
X004738Y013493D02*
X004699Y013532D01*
X004621Y013532D01*
X004583Y013493D01*
X004583Y013339D01*
X004487Y013416D02*
X004448Y013377D01*
X004332Y013377D01*
X004332Y013300D02*
X004332Y013532D01*
X004448Y013532D01*
X004487Y013493D01*
X004487Y013416D01*
X004833Y013493D02*
X004872Y013532D01*
X004949Y013532D01*
X004988Y013493D01*
X004988Y013455D01*
X004949Y013416D01*
X004988Y013377D01*
X004988Y013339D01*
X004949Y013416D02*
X004911Y013416D01*
X004667Y012400D02*
X004567Y012400D01*
X004567Y012200D01*
X004567Y012267D02*
X004667Y012267D01*
X004700Y012300D01*
X004700Y012367D01*
X004667Y012400D01*
X004634Y012267D02*
X004700Y012200D01*
X004612Y012106D02*
X004198Y012106D01*
X004225Y012200D02*
X004258Y012233D01*
X004258Y012400D01*
X004346Y012367D02*
X004346Y012333D01*
X004379Y012300D01*
X004446Y012300D01*
X004479Y012267D01*
X004479Y012233D01*
X004446Y012200D01*
X004379Y012200D01*
X004346Y012233D01*
X004225Y012200D02*
X004158Y012200D01*
X004125Y012233D01*
X004125Y012400D01*
X004346Y012367D02*
X004379Y012400D01*
X004446Y012400D01*
X004479Y012367D01*
X004770Y012017D02*
X004748Y012012D01*
X004728Y012004D01*
X004710Y011993D01*
X004693Y011978D01*
X004679Y011962D01*
X004667Y011943D01*
X004659Y011923D01*
X004654Y011902D01*
X004652Y011880D01*
X004654Y011858D01*
X004659Y011837D01*
X004667Y011817D01*
X004679Y011798D01*
X004693Y011782D01*
X004710Y011767D01*
X004728Y011756D01*
X004748Y011748D01*
X004770Y011743D01*
X004602Y011654D02*
X004041Y011654D01*
X004029Y011703D02*
X004031Y011715D01*
X004036Y011726D01*
X004044Y011735D01*
X004055Y011741D01*
X004067Y011744D01*
X004079Y011743D01*
X004091Y011739D01*
X004100Y011731D01*
X004107Y011721D01*
X004111Y011709D01*
X004111Y011697D01*
X004107Y011685D01*
X004100Y011675D01*
X004090Y011667D01*
X004079Y011663D01*
X004067Y011662D01*
X004055Y011665D01*
X004044Y011671D01*
X004036Y011680D01*
X004031Y011691D01*
X004029Y011703D01*
X004040Y011743D02*
X004062Y011748D01*
X004082Y011756D01*
X004100Y011767D01*
X004117Y011782D01*
X004131Y011798D01*
X004143Y011817D01*
X004151Y011837D01*
X004156Y011858D01*
X004158Y011880D01*
X004156Y011902D01*
X004151Y011923D01*
X004143Y011943D01*
X004131Y011962D01*
X004117Y011978D01*
X004100Y011993D01*
X004082Y012004D01*
X004062Y012012D01*
X004040Y012017D01*
X003370Y012017D02*
X003348Y012012D01*
X003328Y012004D01*
X003310Y011993D01*
X003293Y011978D01*
X003279Y011962D01*
X003267Y011943D01*
X003259Y011923D01*
X003254Y011902D01*
X003252Y011880D01*
X003254Y011858D01*
X003259Y011837D01*
X003267Y011817D01*
X003279Y011798D01*
X003293Y011782D01*
X003310Y011767D01*
X003328Y011756D01*
X003348Y011748D01*
X003370Y011743D01*
X003212Y011654D02*
X002798Y011654D01*
X002640Y011743D02*
X002662Y011748D01*
X002682Y011756D01*
X002700Y011767D01*
X002717Y011782D01*
X002731Y011798D01*
X002743Y011817D01*
X002751Y011837D01*
X002756Y011858D01*
X002758Y011880D01*
X002756Y011902D01*
X002751Y011923D01*
X002743Y011943D01*
X002731Y011962D01*
X002717Y011978D01*
X002700Y011993D01*
X002682Y012004D01*
X002662Y012012D01*
X002640Y012017D01*
X002808Y012106D02*
X003369Y012106D01*
X003299Y012057D02*
X003301Y012069D01*
X003306Y012080D01*
X003314Y012089D01*
X003325Y012095D01*
X003337Y012098D01*
X003349Y012097D01*
X003361Y012093D01*
X003370Y012085D01*
X003377Y012075D01*
X003381Y012063D01*
X003381Y012051D01*
X003377Y012039D01*
X003370Y012029D01*
X003360Y012021D01*
X003349Y012017D01*
X003337Y012016D01*
X003325Y012019D01*
X003314Y012025D01*
X003306Y012034D01*
X003301Y012045D01*
X003299Y012057D01*
X003300Y012200D02*
X003234Y012267D01*
X003267Y012267D02*
X003167Y012267D01*
X003167Y012200D02*
X003167Y012400D01*
X003267Y012400D01*
X003300Y012367D01*
X003300Y012300D01*
X003267Y012267D01*
X003079Y012200D02*
X003079Y012400D01*
X002946Y012400D02*
X002946Y012200D01*
X003013Y012267D01*
X003079Y012200D01*
X002858Y012300D02*
X002825Y012267D01*
X002725Y012267D01*
X002725Y012200D02*
X002725Y012400D01*
X002825Y012400D01*
X002858Y012367D01*
X002858Y012300D01*
X002868Y013300D02*
X002830Y013339D01*
X002868Y013300D02*
X002946Y013300D01*
X002984Y013339D01*
X002984Y013416D01*
X002946Y013455D01*
X002907Y013455D01*
X002830Y013416D01*
X002830Y013532D01*
X002984Y013532D01*
X002734Y013493D02*
X002734Y013339D01*
X002695Y013300D01*
X002618Y013300D01*
X002579Y013339D01*
X002734Y013493D01*
X002695Y013532D01*
X002618Y013532D01*
X002579Y013493D01*
X002579Y013339D01*
X002483Y013416D02*
X002445Y013377D01*
X002329Y013377D01*
X002329Y013300D02*
X002329Y013532D01*
X002445Y013532D01*
X002483Y013493D01*
X002483Y013416D01*
X001983Y013377D02*
X001944Y013416D01*
X001828Y013416D01*
X001828Y013339D01*
X001866Y013300D01*
X001944Y013300D01*
X001983Y013339D01*
X001983Y013377D01*
X001905Y013493D02*
X001828Y013416D01*
X001905Y013493D02*
X001983Y013532D01*
X001732Y013493D02*
X001732Y013339D01*
X001693Y013300D01*
X001616Y013300D01*
X001577Y013339D01*
X001732Y013493D01*
X001693Y013532D01*
X001616Y013532D01*
X001577Y013493D01*
X001577Y013339D01*
X001482Y013416D02*
X001482Y013493D01*
X001443Y013532D01*
X001327Y013532D01*
X001327Y013300D01*
X001327Y013377D02*
X001443Y013377D01*
X001482Y013416D01*
X000981Y013493D02*
X000826Y013339D01*
X000826Y013300D01*
X000730Y013339D02*
X000730Y013493D01*
X000575Y013339D01*
X000614Y013300D01*
X000692Y013300D01*
X000730Y013339D01*
X000730Y013493D02*
X000692Y013532D01*
X000614Y013532D01*
X000575Y013493D01*
X000575Y013339D01*
X000480Y013416D02*
X000441Y013377D01*
X000325Y013377D01*
X000325Y013300D02*
X000325Y013532D01*
X000441Y013532D01*
X000480Y013493D01*
X000480Y013416D01*
X000826Y013532D02*
X000981Y013532D01*
X000981Y013493D01*
X001625Y010950D02*
X001725Y010950D01*
X001758Y010917D01*
X001758Y010850D01*
X001725Y010817D01*
X001625Y010817D01*
X001625Y010750D02*
X001625Y010950D01*
X001846Y010950D02*
X001846Y010750D01*
X001846Y010817D02*
X001946Y010817D01*
X001979Y010850D01*
X001979Y010917D01*
X001946Y010950D01*
X001846Y010950D01*
X001913Y010817D02*
X001979Y010750D01*
X002067Y010783D02*
X002067Y010917D01*
X002100Y010950D01*
X002167Y010950D01*
X002200Y010917D01*
X002200Y010783D01*
X002167Y010750D01*
X002100Y010750D01*
X002067Y010783D01*
X002288Y010783D02*
X002288Y010917D01*
X002321Y010950D01*
X002388Y010950D01*
X002421Y010917D01*
X002421Y010850D02*
X002355Y010850D01*
X002421Y010850D02*
X002421Y010783D01*
X002388Y010750D01*
X002321Y010750D01*
X002288Y010783D01*
X004035Y009520D02*
X004035Y009240D01*
X004370Y009240D02*
X004370Y009520D01*
X005985Y009513D02*
X006185Y009513D01*
X006185Y009646D01*
X006085Y009580D02*
X006085Y009513D01*
X006118Y009425D02*
X006152Y009425D01*
X006185Y009392D01*
X006185Y009325D01*
X006152Y009292D01*
X006085Y009325D02*
X006085Y009392D01*
X006118Y009425D01*
X006018Y009425D02*
X005985Y009392D01*
X005985Y009325D01*
X006018Y009292D01*
X006052Y009292D01*
X006085Y009325D01*
X006185Y009204D02*
X006185Y009071D01*
X005985Y009071D01*
X005985Y009204D01*
X006085Y009138D02*
X006085Y009071D01*
X006085Y008983D02*
X006118Y008950D01*
X006118Y008850D01*
X006118Y008917D02*
X006185Y008983D01*
X006085Y008983D02*
X006018Y008983D01*
X005985Y008950D01*
X005985Y008850D01*
X006185Y008850D01*
X005985Y009513D02*
X005985Y009646D01*
X005985Y009734D02*
X005985Y009867D01*
X005985Y009801D02*
X006185Y009801D01*
X006092Y007032D02*
X006015Y007032D01*
X005976Y006993D01*
X005976Y006839D01*
X006015Y006800D01*
X006092Y006800D01*
X006131Y006839D01*
X006131Y006993D02*
X006092Y007032D01*
X005881Y006993D02*
X005881Y006839D01*
X005842Y006800D01*
X005726Y006800D01*
X005726Y007032D01*
X005842Y007032D01*
X005881Y006993D01*
X005630Y006993D02*
X005592Y007032D01*
X005514Y007032D01*
X005475Y006993D01*
X005475Y006839D01*
X005514Y006800D01*
X005592Y006800D01*
X005630Y006839D01*
X005380Y006839D02*
X005380Y006993D01*
X005341Y007032D01*
X005225Y007032D01*
X005225Y006800D01*
X005341Y006800D01*
X005380Y006839D01*
X004988Y006839D02*
X004988Y006877D01*
X004949Y006916D01*
X004833Y006916D01*
X004833Y006839D01*
X004872Y006800D01*
X004949Y006800D01*
X004988Y006839D01*
X004911Y006993D02*
X004833Y006916D01*
X004911Y006993D02*
X004988Y007032D01*
X004660Y007032D02*
X004660Y006800D01*
X004583Y006800D02*
X004738Y006800D01*
X004583Y006955D02*
X004660Y007032D01*
X004487Y006993D02*
X004487Y006916D01*
X004448Y006877D01*
X004332Y006877D01*
X004332Y006800D02*
X004332Y007032D01*
X004448Y007032D01*
X004487Y006993D01*
X003986Y007032D02*
X003831Y007032D01*
X003831Y006916D01*
X003909Y006955D01*
X003947Y006955D01*
X003986Y006916D01*
X003986Y006839D01*
X003947Y006800D01*
X003870Y006800D01*
X003831Y006839D01*
X003736Y006800D02*
X003581Y006800D01*
X003658Y006800D02*
X003658Y007032D01*
X003581Y006955D01*
X003485Y006993D02*
X003485Y006916D01*
X003447Y006877D01*
X003330Y006877D01*
X003330Y006800D02*
X003330Y007032D01*
X003447Y007032D01*
X003485Y006993D01*
X002984Y006916D02*
X002830Y006916D01*
X002946Y007032D01*
X002946Y006800D01*
X002734Y006800D02*
X002579Y006800D01*
X002656Y006800D02*
X002656Y007032D01*
X002579Y006955D01*
X002483Y006993D02*
X002483Y006916D01*
X002445Y006877D01*
X002329Y006877D01*
X002329Y006800D02*
X002329Y007032D01*
X002445Y007032D01*
X002483Y006993D01*
X001983Y006993D02*
X001983Y006955D01*
X001944Y006916D01*
X001983Y006877D01*
X001983Y006839D01*
X001944Y006800D01*
X001866Y006800D01*
X001828Y006839D01*
X001732Y006800D02*
X001577Y006800D01*
X001655Y006800D02*
X001655Y007032D01*
X001577Y006955D01*
X001482Y006993D02*
X001482Y006916D01*
X001443Y006877D01*
X001327Y006877D01*
X001327Y006800D02*
X001327Y007032D01*
X001443Y007032D01*
X001482Y006993D01*
X001828Y006993D02*
X001866Y007032D01*
X001944Y007032D01*
X001983Y006993D01*
X001944Y006916D02*
X001905Y006916D01*
X000981Y006955D02*
X000981Y006993D01*
X000942Y007032D01*
X000865Y007032D01*
X000826Y006993D01*
X000981Y006955D02*
X000826Y006800D01*
X000981Y006800D01*
X000730Y006800D02*
X000575Y006800D01*
X000653Y006800D02*
X000653Y007032D01*
X000575Y006955D01*
X000480Y006993D02*
X000480Y006916D01*
X000441Y006877D01*
X000325Y006877D01*
X000325Y006800D02*
X000325Y007032D01*
X000441Y007032D01*
X000480Y006993D01*
X003330Y013300D02*
X003330Y013532D01*
X003447Y013532D01*
X003485Y013493D01*
X003485Y013416D01*
X003447Y013377D01*
X003330Y013377D01*
X003581Y013339D02*
X003736Y013493D01*
X003736Y013339D01*
X003697Y013300D01*
X003620Y013300D01*
X003581Y013339D01*
X003581Y013493D01*
X003620Y013532D01*
X003697Y013532D01*
X003736Y013493D01*
X003831Y013416D02*
X003986Y013416D01*
X003947Y013300D02*
X003947Y013532D01*
X003831Y013416D01*
X006336Y007032D02*
X006452Y007032D01*
X006491Y006993D01*
X006491Y006916D01*
X006452Y006877D01*
X006336Y006877D01*
X006336Y006800D02*
X006336Y007032D01*
X006586Y006993D02*
X006625Y007032D01*
X006702Y007032D01*
X006741Y006993D01*
X006741Y006955D01*
X006586Y006800D01*
X006741Y006800D01*
X006837Y006839D02*
X006837Y006993D01*
X006876Y007032D01*
X006953Y007032D01*
X006992Y006993D01*
X006837Y006839D01*
X006876Y006800D01*
X006953Y006800D01*
X006992Y006839D01*
X006992Y006993D01*
X007338Y007032D02*
X007338Y006800D01*
X007338Y006877D02*
X007454Y006877D01*
X007493Y006916D01*
X007493Y006993D01*
X007454Y007032D01*
X007338Y007032D01*
X007588Y006993D02*
X007627Y007032D01*
X007704Y007032D01*
X007743Y006993D01*
X007743Y006955D01*
X007588Y006800D01*
X007743Y006800D01*
X007839Y006800D02*
X007993Y006800D01*
X007916Y006800D02*
X007916Y007032D01*
X007839Y006955D01*
X008340Y007032D02*
X008340Y006800D01*
X008340Y006877D02*
X008456Y006877D01*
X008494Y006916D01*
X008494Y006993D01*
X008456Y007032D01*
X008340Y007032D01*
X008590Y006993D02*
X008629Y007032D01*
X008706Y007032D01*
X008745Y006993D01*
X008745Y006955D01*
X008590Y006800D01*
X008745Y006800D01*
X008840Y006800D02*
X008995Y006955D01*
X008995Y006993D01*
X008957Y007032D01*
X008879Y007032D01*
X008840Y006993D01*
X008840Y006800D02*
X008995Y006800D01*
X009341Y006839D02*
X009380Y006800D01*
X009457Y006800D01*
X009496Y006839D01*
X009496Y006877D01*
X009457Y006916D01*
X009380Y006916D01*
X009341Y006955D01*
X009341Y006993D01*
X009380Y007032D01*
X009457Y007032D01*
X009496Y006993D01*
X009592Y007032D02*
X009592Y006800D01*
X009708Y006800D01*
X009747Y006839D01*
X009747Y006993D01*
X009708Y007032D01*
X009592Y007032D01*
X009842Y006955D02*
X009842Y006800D01*
X009842Y006916D02*
X009997Y006916D01*
X009997Y006955D02*
X009997Y006800D01*
X009997Y006955D02*
X009920Y007032D01*
X009842Y006955D01*
X010343Y006955D02*
X010382Y006916D01*
X010459Y006916D01*
X010498Y006877D01*
X010498Y006839D01*
X010459Y006800D01*
X010382Y006800D01*
X010343Y006839D01*
X010343Y006955D02*
X010343Y006993D01*
X010382Y007032D01*
X010459Y007032D01*
X010498Y006993D01*
X010594Y006993D02*
X010594Y006839D01*
X010632Y006800D01*
X010710Y006800D01*
X010748Y006839D01*
X010844Y006800D02*
X010844Y007032D01*
X010748Y006993D02*
X010710Y007032D01*
X010632Y007032D01*
X010594Y006993D01*
X010844Y006800D02*
X010999Y006800D01*
X009570Y008540D02*
X009570Y008820D01*
X009235Y008820D02*
X009235Y008540D01*
D13*
X010205Y013680D02*
X010205Y014680D01*
X011205Y014680D01*
X011205Y013680D01*
X010205Y013680D01*
D14*
X010205Y013930D02*
X009955Y013680D01*
X009455Y013680D01*
X009205Y013930D01*
X009205Y014430D01*
X009455Y014680D01*
X009955Y014680D01*
X010205Y014430D01*
X010455Y014680D01*
X010955Y014680D01*
X011205Y014430D01*
X011205Y013930D01*
X010955Y013680D01*
X010455Y013680D01*
X010205Y013930D01*
X010205Y014430D01*
X009205Y014430D02*
X008955Y014680D01*
X008455Y014680D01*
X008205Y014430D01*
X007955Y014680D01*
X007455Y014680D01*
X007205Y014430D01*
X006955Y014680D01*
X006455Y014680D01*
X006205Y014430D01*
X006205Y013930D01*
X006455Y013680D01*
X006955Y013680D01*
X007205Y013930D01*
X007205Y014430D01*
X007205Y013930D02*
X007455Y013680D01*
X007955Y013680D01*
X008205Y013930D01*
X008205Y014430D01*
X008205Y013930D02*
X008455Y013680D01*
X008955Y013680D01*
X009205Y013930D01*
X006205Y013930D02*
X005955Y013680D01*
X005455Y013680D01*
X005205Y013930D01*
X004955Y013680D01*
X004455Y013680D01*
X004205Y013930D01*
X003955Y013680D01*
X003455Y013680D01*
X003205Y013930D01*
X003205Y014430D01*
X003455Y014680D01*
X003955Y014680D01*
X004205Y014430D01*
X004455Y014680D01*
X004955Y014680D01*
X005205Y014430D01*
X005455Y014680D01*
X005955Y014680D01*
X006205Y014430D01*
X005205Y014430D02*
X005205Y013930D01*
X004205Y013930D02*
X004205Y014430D01*
X003205Y014430D02*
X002955Y014680D01*
X002455Y014680D01*
X002205Y014430D01*
X001955Y014680D01*
X001455Y014680D01*
X001205Y014430D01*
X000955Y014680D01*
X000455Y014680D01*
X000205Y014430D01*
X000205Y013930D01*
X000455Y013680D01*
X000955Y013680D01*
X001205Y013930D01*
X001205Y014430D01*
X001205Y013930D02*
X001455Y013680D01*
X001955Y013680D01*
X002205Y013930D01*
X002205Y014430D01*
X002205Y013930D02*
X002455Y013680D01*
X002955Y013680D01*
X003205Y013930D01*
X001875Y012020D02*
X001535Y012020D01*
X001535Y011740D02*
X001875Y011740D01*
X003505Y008380D02*
X003705Y008280D01*
X003705Y008480D01*
X003505Y008380D01*
X003523Y008371D02*
X003705Y008371D01*
X003705Y008313D02*
X003640Y008313D01*
X003604Y008430D02*
X003705Y008430D01*
X003455Y006680D02*
X003955Y006680D01*
X004205Y006430D01*
X004455Y006680D01*
X004955Y006680D01*
X005205Y006430D01*
X005455Y006680D01*
X005955Y006680D01*
X006205Y006430D01*
X006455Y006680D01*
X006955Y006680D01*
X007205Y006430D01*
X007455Y006680D01*
X007955Y006680D01*
X008205Y006430D01*
X008455Y006680D01*
X008955Y006680D01*
X009205Y006430D01*
X009455Y006680D01*
X009955Y006680D01*
X010205Y006430D01*
X010455Y006680D01*
X010955Y006680D01*
X011205Y006430D01*
X011205Y005930D01*
X010955Y005680D01*
X010455Y005680D01*
X010205Y005930D01*
X009955Y005680D01*
X009455Y005680D01*
X009205Y005930D01*
X009205Y006430D01*
X009205Y005930D02*
X008955Y005680D01*
X008455Y005680D01*
X008205Y005930D01*
X007955Y005680D01*
X007455Y005680D01*
X007205Y005930D01*
X006955Y005680D01*
X006455Y005680D01*
X006205Y005930D01*
X006205Y006430D01*
X006205Y005930D02*
X005955Y005680D01*
X005455Y005680D01*
X005205Y005930D01*
X004955Y005680D01*
X004455Y005680D01*
X004205Y005930D01*
X003955Y005680D01*
X003455Y005680D01*
X003205Y005930D01*
X003205Y006430D01*
X003455Y006680D01*
X003205Y006430D02*
X002955Y006680D01*
X002455Y006680D01*
X002205Y006430D01*
X001955Y006680D01*
X001455Y006680D01*
X001205Y006430D01*
X000955Y006680D01*
X000455Y006680D01*
X000205Y006430D01*
X000205Y005930D01*
X000455Y005680D01*
X000955Y005680D01*
X001205Y005930D01*
X001205Y006430D01*
X001205Y005930D02*
X001455Y005680D01*
X001955Y005680D01*
X002205Y005930D01*
X002205Y006430D01*
X002205Y005930D02*
X002455Y005680D01*
X002955Y005680D01*
X003205Y005930D01*
X004205Y005930D02*
X004205Y006430D01*
X005205Y006430D02*
X005205Y005930D01*
X007205Y005930D02*
X007205Y006430D01*
X008205Y006430D02*
X008205Y005930D01*
X010205Y005930D02*
X010205Y006430D01*
X011855Y006430D02*
X011915Y006500D01*
X012005Y006440D01*
X012095Y006480D01*
X012115Y006580D01*
X012205Y006580D01*
X012225Y006470D01*
X012315Y006440D01*
X012405Y006500D01*
X012475Y006430D01*
X012405Y006340D01*
X012445Y006260D01*
X012555Y006230D01*
X012555Y006140D01*
X012445Y006120D01*
X012405Y006040D01*
X012475Y005950D01*
X012405Y005880D01*
X012315Y005940D01*
X012225Y005900D01*
X012205Y005800D01*
X012115Y005800D01*
X012095Y005900D01*
X012005Y005940D01*
X011915Y005880D01*
X011855Y005950D01*
X011915Y006030D01*
X011895Y006070D01*
X012055Y006130D01*
X012045Y006080D02*
X011945Y006050D01*
X011895Y005960D01*
X011925Y005920D01*
X012005Y005960D01*
X012115Y005910D01*
X012135Y005820D01*
X012185Y005830D01*
X012205Y005910D01*
X012325Y005960D01*
X012405Y005910D01*
X012445Y005960D01*
X012385Y006040D01*
X012425Y006130D01*
X012535Y006160D01*
X012535Y006210D01*
X012445Y006240D01*
X012385Y006350D01*
X012445Y006430D01*
X012415Y006470D01*
X012325Y006420D01*
X012215Y006460D01*
X012175Y006560D01*
X012145Y006560D01*
X012125Y006460D01*
X012015Y006410D01*
X011915Y006470D01*
X011885Y006420D01*
X011935Y006330D01*
X012035Y006300D01*
X012145Y006340D01*
X012275Y006300D01*
X012315Y006170D01*
X012255Y006060D01*
X012145Y006020D01*
X012045Y006080D01*
X012127Y006031D02*
X011934Y006031D01*
X011902Y005973D02*
X012436Y005973D01*
X012408Y005914D02*
X012399Y005914D01*
X012392Y006031D02*
X012175Y006031D01*
X012271Y006090D02*
X012407Y006090D01*
X012491Y006148D02*
X012303Y006148D01*
X012304Y006207D02*
X012535Y006207D01*
X012431Y006265D02*
X012286Y006265D01*
X012199Y006324D02*
X012399Y006324D01*
X012409Y006382D02*
X011906Y006382D01*
X011915Y006350D02*
X011855Y006430D01*
X011897Y006441D02*
X011964Y006441D01*
X011915Y006350D02*
X011895Y006310D01*
X012055Y006250D01*
X012100Y006324D02*
X011957Y006324D01*
X012082Y006441D02*
X012269Y006441D01*
X012199Y006499D02*
X012133Y006499D01*
X012145Y006558D02*
X012176Y006558D01*
X012362Y006441D02*
X012437Y006441D01*
X012055Y006250D02*
X012067Y006267D01*
X012082Y006282D01*
X012099Y006295D01*
X012118Y006304D01*
X012139Y006309D01*
X012160Y006311D01*
X012181Y006309D01*
X012201Y006304D01*
X012220Y006295D01*
X012238Y006283D01*
X012253Y006268D01*
X012265Y006251D01*
X012274Y006231D01*
X012279Y006211D01*
X012281Y006190D01*
X012279Y006169D01*
X012274Y006149D01*
X012265Y006129D01*
X012253Y006112D01*
X012238Y006097D01*
X012220Y006085D01*
X012201Y006076D01*
X012181Y006071D01*
X012160Y006069D01*
X012139Y006071D01*
X012118Y006076D01*
X012099Y006085D01*
X012082Y006098D01*
X012067Y006113D01*
X012055Y006130D01*
X012106Y005914D02*
X012215Y005914D01*
X012191Y005856D02*
X012127Y005856D01*
X005875Y011740D02*
X005535Y011740D01*
X005535Y012020D02*
X005875Y012020D01*
D15*
X004866Y008840D02*
X004868Y008848D01*
X004873Y008855D01*
X004880Y008859D01*
X004888Y008860D01*
X004896Y008857D01*
X004902Y008852D01*
X004906Y008844D01*
X004906Y008836D01*
X004902Y008828D01*
X004896Y008823D01*
X004888Y008820D01*
X004880Y008821D01*
X004873Y008825D01*
X004868Y008832D01*
X004866Y008840D01*
D16*
X004203Y009148D03*
X004203Y009608D03*
X009403Y008908D03*
X009403Y008448D03*
X009407Y011752D03*
X009407Y012212D03*
D17*
X004205Y009380D03*
D18*
X004133Y008770D02*
X004170Y008733D01*
X004170Y008660D01*
X004133Y008623D01*
X004023Y008623D01*
X004023Y008550D02*
X004023Y008770D01*
X004133Y008770D01*
X004244Y008697D02*
X004317Y008770D01*
X004317Y008550D01*
X004244Y008550D02*
X004391Y008550D01*
X004170Y008550D02*
X004096Y008623D01*
X005865Y012190D02*
X005865Y012410D01*
X005975Y012410D01*
X006012Y012373D01*
X006012Y012300D01*
X005975Y012263D01*
X005865Y012263D01*
X005938Y012263D02*
X006012Y012190D01*
X006086Y012227D02*
X006123Y012190D01*
X006196Y012190D01*
X006233Y012227D01*
X006233Y012263D01*
X006196Y012300D01*
X006159Y012300D01*
X006196Y012300D02*
X006233Y012337D01*
X006233Y012373D01*
X006196Y012410D01*
X006123Y012410D01*
X006086Y012373D01*
X009165Y012677D02*
X009202Y012640D01*
X009275Y012640D01*
X009312Y012677D01*
X009386Y012640D02*
X009533Y012787D01*
X009533Y012823D01*
X009496Y012860D01*
X009423Y012860D01*
X009386Y012823D01*
X009312Y012823D02*
X009275Y012860D01*
X009202Y012860D01*
X009165Y012823D01*
X009165Y012677D01*
X009386Y012640D02*
X009533Y012640D01*
X010922Y012139D02*
X010922Y011992D01*
X010922Y012065D02*
X011143Y012065D01*
X011069Y012139D01*
X011106Y011918D02*
X011143Y011881D01*
X011143Y011807D01*
X011106Y011771D01*
X011069Y011771D01*
X010922Y011918D01*
X010922Y011771D01*
X010922Y008595D02*
X011069Y008448D01*
X011106Y008448D01*
X011143Y008485D01*
X011143Y008558D01*
X011106Y008595D01*
X011143Y008374D02*
X011032Y008374D01*
X011069Y008301D01*
X011069Y008264D01*
X011032Y008227D01*
X010959Y008227D01*
X010922Y008264D01*
X010922Y008338D01*
X010959Y008374D01*
X010922Y008448D02*
X010922Y008595D01*
X011143Y008374D02*
X011143Y008227D01*
X009533Y007840D02*
X009386Y007840D01*
X009459Y007840D02*
X009459Y008060D01*
X009386Y007987D01*
X009312Y008023D02*
X009275Y008060D01*
X009202Y008060D01*
X009165Y008023D01*
X009165Y007877D01*
X009202Y007840D01*
X009275Y007840D01*
X009312Y007877D01*
X014820Y008264D02*
X014857Y008227D01*
X014893Y008227D01*
X014930Y008264D01*
X014930Y008374D01*
X014857Y008374D01*
X014820Y008338D01*
X014820Y008264D01*
X014930Y008374D02*
X015004Y008301D01*
X015040Y008227D01*
X015004Y008448D02*
X014967Y008448D01*
X014930Y008485D01*
X014893Y008448D01*
X014857Y008448D01*
X014820Y008485D01*
X014820Y008558D01*
X014857Y008595D01*
X014930Y008522D02*
X014930Y008485D01*
X015004Y008448D02*
X015040Y008485D01*
X015040Y008558D01*
X015004Y008595D01*
X014820Y011992D02*
X014820Y012139D01*
X014820Y012065D02*
X015040Y012065D01*
X014967Y012139D01*
X001533Y012190D02*
X001386Y012190D01*
X001533Y012337D01*
X001533Y012373D01*
X001496Y012410D01*
X001423Y012410D01*
X001386Y012373D01*
X001312Y012373D02*
X001312Y012300D01*
X001275Y012263D01*
X001165Y012263D01*
X001165Y012190D02*
X001165Y012410D01*
X001275Y012410D01*
X001312Y012373D01*
X001238Y012263D02*
X001312Y012190D01*
D19*
X002710Y012062D03*
X002710Y011698D03*
X003300Y011698D03*
X004110Y012062D03*
X004700Y012062D03*
X004700Y011698D03*
D20*
X004651Y011782D03*
X004651Y011978D03*
X004159Y011978D03*
X004159Y011782D03*
X003251Y011782D03*
X003251Y011978D03*
X002759Y011978D03*
X002759Y011782D03*
D21*
X002774Y011880D03*
X003236Y011880D03*
X004174Y011880D03*
X004636Y011880D03*
D22*
X004366Y011880D03*
X003044Y011880D03*
D23*
X003261Y012057D03*
X004149Y011703D03*
D24*
X004026Y011698D03*
X003384Y012062D03*
D25*
X001955Y011880D03*
X001455Y011880D03*
X005455Y011880D03*
X005955Y011880D03*
D26*
X009393Y011980D02*
X009417Y011980D01*
X009393Y008680D02*
X009417Y008680D01*
D27*
X009705Y006180D03*
X008705Y006180D03*
X007705Y006180D03*
X006705Y006180D03*
X005705Y006180D03*
X004705Y006180D03*
X003705Y006180D03*
X002705Y006180D03*
X001705Y006180D03*
X000705Y006180D03*
X000705Y014180D03*
X001705Y014180D03*
X002705Y014180D03*
X003705Y014180D03*
X004705Y014180D03*
X005705Y014180D03*
X006705Y014180D03*
X007705Y014180D03*
X008705Y014180D03*
X009705Y014180D03*
X010705Y014180D03*
X010705Y006180D03*
D28*
X014790Y010377D03*
M02*
