G75*
%MOIN*%
%OFA0B0*%
%FSLAX24Y24*%
%IPPOS*%
%LPD*%
%AMOC8*
5,1,8,0,0,1.08239X$1,22.5*
%
%ADD10C,0.0058*%
%ADD11R,0.1102X0.0291*%
%ADD12R,0.0394X0.0354*%
%ADD13R,0.0315X0.0669*%
%ADD14R,0.0394X0.0433*%
%ADD15R,0.0472X0.0472*%
%ADD16C,0.0197*%
D10*
X002282Y008496D02*
X003326Y008496D01*
X003326Y008264D01*
X002282Y008264D01*
X002282Y008496D01*
X002282Y008321D02*
X003326Y008321D01*
X003326Y008378D02*
X002282Y008378D01*
X002282Y008435D02*
X003326Y008435D01*
X003326Y008492D02*
X002282Y008492D01*
D11*
X001206Y008380D03*
X001206Y008880D03*
X001206Y009380D03*
X001206Y009880D03*
X001206Y010380D03*
X002804Y010380D03*
X002804Y009880D03*
X002804Y009380D03*
X002804Y008880D03*
D12*
X004990Y008523D03*
X005620Y008523D03*
X005620Y010137D03*
X004990Y010137D03*
D13*
X004833Y009330D03*
D14*
X004205Y009045D03*
X004205Y009715D03*
X005370Y011880D03*
X006040Y011880D03*
X009405Y011645D03*
X009405Y012315D03*
X009405Y009015D03*
X009405Y008345D03*
X002040Y011880D03*
X001370Y011880D03*
D15*
X002592Y011880D03*
X003418Y011880D03*
X003992Y011880D03*
X004818Y011880D03*
D16*
X010715Y011774D02*
X010715Y011774D01*
X010125Y011774D01*
X010125Y011774D01*
X010715Y011774D01*
X010715Y011420D02*
X010715Y011420D01*
X010125Y011420D01*
X010125Y011420D01*
X010715Y011420D01*
X010715Y011066D02*
X010715Y011066D01*
X010125Y011066D01*
X010125Y011066D01*
X010715Y011066D01*
X010715Y010711D02*
X010715Y010711D01*
X010125Y010711D01*
X010125Y010711D01*
X010715Y010711D01*
X010125Y010357D02*
X010125Y010357D01*
X010715Y010357D01*
X010715Y010357D01*
X010125Y010357D01*
X010125Y010003D02*
X010125Y010003D01*
X010715Y010003D01*
X010715Y010003D01*
X010125Y010003D01*
X010125Y009649D02*
X010125Y009649D01*
X010715Y009649D01*
X010715Y009649D01*
X010125Y009649D01*
X010125Y009294D02*
X010125Y009294D01*
X010715Y009294D01*
X010715Y009294D01*
X010125Y009294D01*
X010125Y008940D02*
X010125Y008940D01*
X010715Y008940D01*
X010715Y008940D01*
X010125Y008940D01*
X010125Y008586D02*
X010125Y008586D01*
X010715Y008586D01*
X010715Y008586D01*
X010125Y008586D01*
X010125Y008231D02*
X010125Y008231D01*
X010715Y008231D01*
X010715Y008231D01*
X010125Y008231D01*
X011031Y007346D02*
X011031Y007346D01*
X011031Y007936D01*
X011031Y007936D01*
X011031Y007346D01*
X011031Y007542D02*
X011031Y007542D01*
X011031Y007738D02*
X011031Y007738D01*
X011031Y007934D02*
X011031Y007934D01*
X011385Y007346D02*
X011385Y007346D01*
X011385Y007936D01*
X011385Y007936D01*
X011385Y007346D01*
X011385Y007542D02*
X011385Y007542D01*
X011385Y007738D02*
X011385Y007738D01*
X011385Y007934D02*
X011385Y007934D01*
X011739Y007346D02*
X011739Y007346D01*
X011739Y007936D01*
X011739Y007936D01*
X011739Y007346D01*
X011739Y007542D02*
X011739Y007542D01*
X011739Y007738D02*
X011739Y007738D01*
X011739Y007934D02*
X011739Y007934D01*
X012094Y007346D02*
X012094Y007346D01*
X012094Y007936D01*
X012094Y007936D01*
X012094Y007346D01*
X012094Y007542D02*
X012094Y007542D01*
X012094Y007738D02*
X012094Y007738D01*
X012094Y007934D02*
X012094Y007934D01*
X012448Y007346D02*
X012448Y007346D01*
X012448Y007936D01*
X012448Y007936D01*
X012448Y007346D01*
X012448Y007542D02*
X012448Y007542D01*
X012448Y007738D02*
X012448Y007738D01*
X012448Y007934D02*
X012448Y007934D01*
X012802Y007346D02*
X012802Y007346D01*
X012802Y007936D01*
X012802Y007936D01*
X012802Y007346D01*
X012802Y007542D02*
X012802Y007542D01*
X012802Y007738D02*
X012802Y007738D01*
X012802Y007934D02*
X012802Y007934D01*
X013156Y007346D02*
X013156Y007346D01*
X013156Y007936D01*
X013156Y007936D01*
X013156Y007346D01*
X013156Y007542D02*
X013156Y007542D01*
X013156Y007738D02*
X013156Y007738D01*
X013156Y007934D02*
X013156Y007934D01*
X013511Y007346D02*
X013511Y007346D01*
X013511Y007936D01*
X013511Y007936D01*
X013511Y007346D01*
X013511Y007542D02*
X013511Y007542D01*
X013511Y007738D02*
X013511Y007738D01*
X013511Y007934D02*
X013511Y007934D01*
X013865Y007346D02*
X013865Y007346D01*
X013865Y007936D01*
X013865Y007936D01*
X013865Y007346D01*
X013865Y007542D02*
X013865Y007542D01*
X013865Y007738D02*
X013865Y007738D01*
X013865Y007934D02*
X013865Y007934D01*
X014219Y007346D02*
X014219Y007346D01*
X014219Y007936D01*
X014219Y007936D01*
X014219Y007346D01*
X014219Y007542D02*
X014219Y007542D01*
X014219Y007738D02*
X014219Y007738D01*
X014219Y007934D02*
X014219Y007934D01*
X014574Y007346D02*
X014574Y007346D01*
X014574Y007936D01*
X014574Y007936D01*
X014574Y007346D01*
X014574Y007542D02*
X014574Y007542D01*
X014574Y007738D02*
X014574Y007738D01*
X014574Y007934D02*
X014574Y007934D01*
X014928Y007346D02*
X014928Y007346D01*
X014928Y007936D01*
X014928Y007936D01*
X014928Y007346D01*
X014928Y007542D02*
X014928Y007542D01*
X014928Y007738D02*
X014928Y007738D01*
X014928Y007934D02*
X014928Y007934D01*
X014928Y012424D02*
X014928Y012424D01*
X014928Y013014D01*
X014928Y013014D01*
X014928Y012424D01*
X014928Y012620D02*
X014928Y012620D01*
X014928Y012816D02*
X014928Y012816D01*
X014928Y013012D02*
X014928Y013012D01*
X014574Y012424D02*
X014574Y012424D01*
X014574Y013014D01*
X014574Y013014D01*
X014574Y012424D01*
X014574Y012620D02*
X014574Y012620D01*
X014574Y012816D02*
X014574Y012816D01*
X014574Y013012D02*
X014574Y013012D01*
X014219Y012424D02*
X014219Y012424D01*
X014219Y013014D01*
X014219Y013014D01*
X014219Y012424D01*
X014219Y012620D02*
X014219Y012620D01*
X014219Y012816D02*
X014219Y012816D01*
X014219Y013012D02*
X014219Y013012D01*
X013865Y012424D02*
X013865Y012424D01*
X013865Y013014D01*
X013865Y013014D01*
X013865Y012424D01*
X013865Y012620D02*
X013865Y012620D01*
X013865Y012816D02*
X013865Y012816D01*
X013865Y013012D02*
X013865Y013012D01*
X013511Y012424D02*
X013511Y012424D01*
X013511Y013014D01*
X013511Y013014D01*
X013511Y012424D01*
X013511Y012620D02*
X013511Y012620D01*
X013511Y012816D02*
X013511Y012816D01*
X013511Y013012D02*
X013511Y013012D01*
X013156Y012424D02*
X013156Y012424D01*
X013156Y013014D01*
X013156Y013014D01*
X013156Y012424D01*
X013156Y012620D02*
X013156Y012620D01*
X013156Y012816D02*
X013156Y012816D01*
X013156Y013012D02*
X013156Y013012D01*
X012802Y012424D02*
X012802Y012424D01*
X012802Y013014D01*
X012802Y013014D01*
X012802Y012424D01*
X012802Y012620D02*
X012802Y012620D01*
X012802Y012816D02*
X012802Y012816D01*
X012802Y013012D02*
X012802Y013012D01*
X012448Y012424D02*
X012448Y012424D01*
X012448Y013014D01*
X012448Y013014D01*
X012448Y012424D01*
X012448Y012620D02*
X012448Y012620D01*
X012448Y012816D02*
X012448Y012816D01*
X012448Y013012D02*
X012448Y013012D01*
X012094Y012424D02*
X012094Y012424D01*
X012094Y013014D01*
X012094Y013014D01*
X012094Y012424D01*
X012094Y012620D02*
X012094Y012620D01*
X012094Y012816D02*
X012094Y012816D01*
X012094Y013012D02*
X012094Y013012D01*
X011739Y012424D02*
X011739Y012424D01*
X011739Y013014D01*
X011739Y013014D01*
X011739Y012424D01*
X011739Y012620D02*
X011739Y012620D01*
X011739Y012816D02*
X011739Y012816D01*
X011739Y013012D02*
X011739Y013012D01*
X011385Y012424D02*
X011385Y012424D01*
X011385Y013014D01*
X011385Y013014D01*
X011385Y012424D01*
X011385Y012620D02*
X011385Y012620D01*
X011385Y012816D02*
X011385Y012816D01*
X011385Y013012D02*
X011385Y013012D01*
X011031Y012424D02*
X011031Y012424D01*
X011031Y013014D01*
X011031Y013014D01*
X011031Y012424D01*
X011031Y012620D02*
X011031Y012620D01*
X011031Y012816D02*
X011031Y012816D01*
X011031Y013012D02*
X011031Y013012D01*
X010715Y012129D02*
X010715Y012129D01*
X010125Y012129D01*
X010125Y012129D01*
X010715Y012129D01*
M02*
