G75*
%MOIN*%
%OFA0B0*%
%FSLAX24Y24*%
%IPPOS*%
%LPD*%
%AMOC8*
5,1,8,0,0,1.08239X$1,22.5*
%
%ADD10R,0.0630X0.0460*%
%ADD11R,0.0460X0.0630*%
%ADD12OC8,0.0700*%
%ADD13C,0.0160*%
%ADD14C,0.0100*%
%ADD15C,0.0270*%
%ADD16C,0.0060*%
D10*
X001405Y009680D03*
X001405Y010280D03*
D11*
X002705Y011880D03*
X003305Y011880D03*
X004105Y011880D03*
X004705Y011880D03*
D12*
X004705Y014180D03*
X003705Y014180D03*
X002705Y014180D03*
X001705Y014180D03*
X000705Y014180D03*
X005705Y014180D03*
X006705Y014180D03*
X007705Y014180D03*
X008705Y014180D03*
X009705Y014180D03*
X010705Y014180D03*
X010705Y006180D03*
X009705Y006180D03*
X008705Y006180D03*
X007705Y006180D03*
X006705Y006180D03*
X005705Y006180D03*
X004705Y006180D03*
X003705Y006180D03*
X002705Y006180D03*
X001705Y006180D03*
X000705Y006180D03*
D13*
X002128Y005910D02*
X002195Y005977D01*
X002195Y006383D01*
X001908Y006670D01*
X001875Y006670D01*
X001875Y007081D01*
X001885Y007091D01*
X001909Y007067D01*
X002010Y007025D01*
X002120Y007025D01*
X002221Y007067D01*
X002298Y007144D01*
X002340Y007245D01*
X002340Y007325D01*
X002360Y007325D01*
X002461Y007367D01*
X002538Y007444D01*
X002580Y007545D01*
X002580Y007635D01*
X003530Y008585D01*
X003607Y008585D01*
X003632Y008524D01*
X003709Y008447D01*
X003810Y008405D01*
X003900Y008405D01*
X004035Y008270D01*
X004366Y008270D01*
X004429Y008207D01*
X004530Y008165D01*
X004640Y008165D01*
X004741Y008207D01*
X004818Y008284D01*
X004860Y008385D01*
X004860Y008495D01*
X004818Y008596D01*
X004741Y008673D01*
X004640Y008715D01*
X004530Y008715D01*
X004429Y008673D01*
X004366Y008610D01*
X004175Y008610D01*
X004140Y008645D01*
X004140Y008735D01*
X004098Y008836D01*
X004021Y008913D01*
X003920Y008955D01*
X003823Y008955D01*
X003798Y009016D01*
X003721Y009093D01*
X003680Y009110D01*
X004935Y009110D01*
X005535Y008510D01*
X005806Y008510D01*
X005869Y008447D01*
X005970Y008405D01*
X006080Y008405D01*
X006181Y008447D01*
X006258Y008524D01*
X006300Y008625D01*
X006300Y008735D01*
X006258Y008836D01*
X006181Y008913D01*
X006080Y008955D01*
X005970Y008955D01*
X005869Y008913D01*
X005806Y008850D01*
X005675Y008850D01*
X005806Y008850D01*
X005675Y008850D02*
X005175Y009350D01*
X005075Y009450D01*
X003800Y009450D01*
X003841Y009467D01*
X003918Y009544D01*
X003960Y009645D01*
X003960Y009755D01*
X003918Y009856D01*
X003841Y009933D01*
X003740Y009975D01*
X003630Y009975D01*
X003529Y009933D01*
X003486Y009890D01*
X002915Y009890D01*
X002915Y011425D01*
X002993Y011425D01*
X003005Y011437D01*
X003017Y011425D01*
X003593Y011425D01*
X003616Y011448D01*
X004275Y010790D01*
X009476Y010790D01*
X009470Y010775D01*
X009470Y010685D01*
X007275Y008490D01*
X007175Y008390D01*
X007175Y008024D01*
X007100Y008055D01*
X006990Y008055D01*
X006889Y008013D01*
X006865Y007989D01*
X006841Y008013D01*
X006740Y008055D01*
X006630Y008055D01*
X006529Y008013D01*
X006452Y007936D01*
X006410Y007835D01*
X006410Y007745D01*
X005715Y007050D01*
X003315Y007050D01*
X002921Y006657D01*
X002908Y006670D01*
X002502Y006670D01*
X002215Y006383D01*
X002215Y005977D01*
X002282Y005910D01*
X002128Y005910D01*
X002195Y005997D02*
X002215Y005997D01*
X002215Y006156D02*
X002195Y006156D01*
X002195Y006314D02*
X002215Y006314D01*
X002305Y006473D02*
X002105Y006473D01*
X001947Y006631D02*
X002463Y006631D01*
X002260Y007107D02*
X005771Y007107D01*
X005930Y007265D02*
X002340Y007265D01*
X002517Y007424D02*
X006088Y007424D01*
X006247Y007582D02*
X002580Y007582D01*
X002686Y007741D02*
X006405Y007741D01*
X006437Y007899D02*
X002844Y007899D01*
X003003Y008058D02*
X007175Y008058D01*
X007175Y008216D02*
X004750Y008216D01*
X004856Y008375D02*
X007175Y008375D01*
X007318Y008533D02*
X006262Y008533D01*
X006300Y008692D02*
X007476Y008692D01*
X007635Y008850D02*
X006244Y008850D01*
X005517Y009009D02*
X007793Y009009D01*
X007952Y009167D02*
X005358Y009167D01*
X005200Y009326D02*
X008110Y009326D01*
X008269Y009484D02*
X003858Y009484D01*
X003959Y009643D02*
X008427Y009643D01*
X008586Y009801D02*
X003941Y009801D01*
X003777Y009960D02*
X008744Y009960D01*
X008903Y010118D02*
X002915Y010118D01*
X002915Y009960D02*
X003593Y009960D01*
X003450Y009110D02*
X003409Y009093D01*
X003332Y009016D01*
X003290Y008915D01*
X003290Y008825D01*
X002340Y007875D01*
X002250Y007875D01*
X002149Y007833D01*
X002072Y007756D01*
X002030Y007655D01*
X002030Y007575D01*
X001995Y007610D01*
X001895Y007710D01*
X001515Y007710D01*
X000675Y006870D01*
X000575Y006770D01*
X000575Y006670D01*
X000502Y006670D01*
X000435Y006603D01*
X000435Y013757D01*
X000502Y013690D01*
X000908Y013690D01*
X001195Y013977D01*
X001195Y014383D01*
X001128Y014450D01*
X001282Y014450D01*
X001215Y014383D01*
X001215Y013977D01*
X001258Y013934D01*
X000815Y013490D01*
X000815Y009330D01*
X000915Y009230D01*
X001035Y009110D01*
X003450Y009110D01*
X003329Y009009D02*
X000435Y009009D01*
X000435Y009167D02*
X000978Y009167D01*
X000819Y009326D02*
X000435Y009326D01*
X000435Y009484D02*
X000815Y009484D01*
X000815Y009643D02*
X000435Y009643D01*
X000435Y009801D02*
X000815Y009801D01*
X000815Y009960D02*
X000435Y009960D01*
X000435Y010118D02*
X000815Y010118D01*
X000815Y010277D02*
X000435Y010277D01*
X000435Y010435D02*
X000815Y010435D01*
X000815Y010594D02*
X000435Y010594D01*
X000435Y010752D02*
X000815Y010752D01*
X000815Y010911D02*
X000435Y010911D01*
X000435Y011069D02*
X000815Y011069D01*
X000815Y011228D02*
X000435Y011228D01*
X000435Y011386D02*
X000815Y011386D01*
X000815Y011545D02*
X000435Y011545D01*
X000435Y011703D02*
X000815Y011703D01*
X000815Y011862D02*
X000435Y011862D01*
X000435Y012020D02*
X000815Y012020D01*
X000815Y012179D02*
X000435Y012179D01*
X000435Y012337D02*
X000815Y012337D01*
X000815Y012496D02*
X000435Y012496D01*
X000435Y012654D02*
X000815Y012654D01*
X000815Y012813D02*
X000435Y012813D01*
X000435Y012971D02*
X000815Y012971D01*
X000815Y013130D02*
X000435Y013130D01*
X000435Y013288D02*
X000815Y013288D01*
X000815Y013447D02*
X000435Y013447D01*
X000435Y013605D02*
X000930Y013605D01*
X000981Y013764D02*
X001088Y013764D01*
X001140Y013922D02*
X001247Y013922D01*
X001215Y014081D02*
X001195Y014081D01*
X001195Y014239D02*
X001215Y014239D01*
X001230Y014398D02*
X001180Y014398D01*
X001499Y013693D02*
X001502Y013690D01*
X001908Y013690D01*
X002195Y013977D01*
X002195Y014383D01*
X002128Y014450D01*
X002282Y014450D01*
X002215Y014383D01*
X002215Y013977D01*
X002502Y013690D01*
X002908Y013690D01*
X002921Y013703D01*
X003455Y013170D01*
X003455Y012335D01*
X003239Y012335D01*
X003044Y012530D01*
X002024Y012530D01*
X001981Y012573D01*
X001880Y012615D01*
X001770Y012615D01*
X001669Y012573D01*
X001592Y012496D01*
X001550Y012395D01*
X001550Y012285D01*
X001592Y012184D01*
X001669Y012107D01*
X001770Y012065D01*
X001880Y012065D01*
X001981Y012107D01*
X002024Y012150D01*
X002335Y012150D01*
X002335Y011507D01*
X002417Y011425D01*
X002535Y011425D01*
X002535Y009890D01*
X001860Y009890D01*
X001860Y009968D01*
X001848Y009980D01*
X001860Y009992D01*
X001860Y010062D01*
X001950Y010025D01*
X002060Y010025D01*
X002161Y010067D01*
X002238Y010144D01*
X002280Y010245D01*
X002280Y010355D01*
X002238Y010456D01*
X002161Y010533D01*
X002060Y010575D01*
X001950Y010575D01*
X001860Y010538D01*
X001860Y010568D01*
X001778Y010650D01*
X001155Y010650D01*
X001155Y013350D01*
X001499Y013693D01*
X001410Y013605D02*
X003020Y013605D01*
X003178Y013447D02*
X001252Y013447D01*
X001155Y013288D02*
X003337Y013288D01*
X003455Y013130D02*
X001155Y013130D01*
X001155Y012971D02*
X003455Y012971D01*
X003455Y012813D02*
X001155Y012813D01*
X001155Y012654D02*
X003455Y012654D01*
X003455Y012496D02*
X003078Y012496D01*
X003237Y012337D02*
X003455Y012337D01*
X003679Y011386D02*
X002915Y011386D01*
X002915Y011228D02*
X003837Y011228D01*
X003996Y011069D02*
X002915Y011069D01*
X002915Y010911D02*
X004154Y010911D01*
X002915Y010752D02*
X009470Y010752D01*
X009378Y010594D02*
X002915Y010594D01*
X002915Y010435D02*
X009220Y010435D01*
X009061Y010277D02*
X002915Y010277D01*
X002535Y010277D02*
X002280Y010277D01*
X002247Y010435D02*
X002535Y010435D01*
X002535Y010594D02*
X001834Y010594D01*
X002212Y010118D02*
X002535Y010118D01*
X002535Y009960D02*
X001860Y009960D01*
X002535Y010752D02*
X001155Y010752D01*
X001155Y010911D02*
X002535Y010911D01*
X002535Y011069D02*
X001155Y011069D01*
X001155Y011228D02*
X002535Y011228D01*
X002535Y011386D02*
X001155Y011386D01*
X001155Y011545D02*
X002335Y011545D01*
X002335Y011703D02*
X001155Y011703D01*
X001155Y011862D02*
X002335Y011862D01*
X002335Y012020D02*
X001155Y012020D01*
X001155Y012179D02*
X001598Y012179D01*
X001550Y012337D02*
X001155Y012337D01*
X001155Y012496D02*
X001592Y012496D01*
X001981Y013764D02*
X002429Y013764D01*
X002270Y013922D02*
X002140Y013922D01*
X002195Y014081D02*
X002215Y014081D01*
X002215Y014239D02*
X002195Y014239D01*
X002180Y014398D02*
X002230Y014398D01*
X003801Y009009D02*
X005036Y009009D01*
X005195Y008850D02*
X004084Y008850D01*
X004140Y008692D02*
X004474Y008692D01*
X004696Y008692D02*
X005353Y008692D01*
X005512Y008533D02*
X004844Y008533D01*
X004420Y008216D02*
X003161Y008216D01*
X003320Y008375D02*
X003930Y008375D01*
X003628Y008533D02*
X003478Y008533D01*
X003156Y008692D02*
X000435Y008692D01*
X000435Y008850D02*
X003290Y008850D01*
X002998Y008533D02*
X000435Y008533D01*
X000435Y008375D02*
X002839Y008375D01*
X002681Y008216D02*
X000435Y008216D01*
X000435Y008058D02*
X002522Y008058D01*
X002364Y007899D02*
X000435Y007899D01*
X000435Y007741D02*
X002066Y007741D01*
X002030Y007582D02*
X002023Y007582D01*
X001875Y006948D02*
X003213Y006948D01*
X003054Y006790D02*
X001875Y006790D01*
X001387Y007582D02*
X000435Y007582D01*
X000435Y007424D02*
X001228Y007424D01*
X001070Y007265D02*
X000435Y007265D01*
X000435Y007107D02*
X000911Y007107D01*
X000753Y006948D02*
X000435Y006948D01*
X000435Y006790D02*
X000594Y006790D01*
X000463Y006631D02*
X000435Y006631D01*
X008655Y012350D02*
X009586Y012350D01*
X009649Y012287D01*
X009750Y012245D01*
X009860Y012245D01*
X009961Y012287D01*
X010038Y012364D01*
X010080Y012465D01*
X010080Y012485D01*
X010100Y012485D01*
X010201Y012527D01*
X010278Y012604D01*
X010320Y012705D01*
X010320Y012815D01*
X010278Y012916D01*
X010201Y012993D01*
X010171Y013005D01*
X010515Y013350D01*
X010515Y013501D01*
X010578Y013564D01*
X010614Y013650D01*
X010685Y013650D01*
X010685Y014160D01*
X010725Y014160D01*
X010725Y014200D01*
X011235Y014200D01*
X011235Y014400D01*
X011185Y014450D01*
X011300Y014450D01*
X011435Y014585D01*
X011435Y018285D01*
X012800Y019650D01*
X014975Y019650D01*
X014975Y011736D01*
X013793Y011736D01*
X013746Y011690D01*
X013746Y008670D01*
X013793Y008624D01*
X014975Y008624D01*
X014975Y000710D01*
X012800Y000710D01*
X011435Y002075D01*
X011435Y005775D01*
X011300Y005910D01*
X011128Y005910D01*
X011195Y005977D01*
X011195Y006383D01*
X011115Y006463D01*
X011115Y007490D01*
X011015Y007590D01*
X010740Y007865D01*
X010740Y007955D01*
X010698Y008056D01*
X010664Y008090D01*
X012526Y008090D01*
X012589Y008027D01*
X012690Y007985D01*
X012800Y007985D01*
X012901Y008027D01*
X012978Y008104D01*
X013020Y008205D01*
X013020Y008315D01*
X012978Y008416D01*
X012901Y008493D01*
X012800Y008535D01*
X012690Y008535D01*
X012589Y008493D01*
X012526Y008430D01*
X009920Y008430D01*
X009961Y008447D01*
X010038Y008524D01*
X010080Y008625D01*
X010080Y008715D01*
X011330Y009965D01*
X011420Y009965D01*
X011521Y010007D01*
X011598Y010084D01*
X011640Y010185D01*
X011640Y010295D01*
X011598Y010396D01*
X011521Y010473D01*
X011420Y010515D01*
X011310Y010515D01*
X011209Y010473D01*
X011132Y010396D01*
X011090Y010295D01*
X011090Y010205D01*
X010059Y009174D01*
X010080Y009225D01*
X010080Y009335D01*
X010038Y009436D01*
X010014Y009460D01*
X010038Y009484D01*
X010369Y009484D01*
X010527Y009643D02*
X010080Y009643D01*
X010080Y009695D02*
X010038Y009796D01*
X010014Y009820D01*
X010038Y009844D01*
X010080Y009945D01*
X010080Y010055D01*
X010038Y010156D01*
X010014Y010180D01*
X010038Y010204D01*
X010080Y010305D01*
X010080Y010415D01*
X010038Y010516D01*
X009982Y010572D01*
X010020Y010665D01*
X010020Y010775D01*
X010014Y010790D01*
X011506Y010790D01*
X011569Y010727D01*
X011670Y010685D01*
X011780Y010685D01*
X011881Y010727D01*
X011958Y010804D01*
X012000Y010905D01*
X012000Y010938D01*
X012030Y010925D01*
X012140Y010925D01*
X012241Y010967D01*
X012318Y011044D01*
X012360Y011145D01*
X012360Y011165D01*
X012380Y011165D01*
X012481Y011207D01*
X012558Y011284D01*
X012600Y011385D01*
X012600Y011418D01*
X012630Y011405D01*
X012740Y011405D01*
X012841Y011447D01*
X012918Y011524D01*
X012960Y011625D01*
X012960Y011735D01*
X012918Y011836D01*
X012841Y011913D01*
X012740Y011955D01*
X012630Y011955D01*
X012529Y011913D01*
X012466Y011850D01*
X010055Y011850D01*
X009915Y011850D01*
X009855Y011790D01*
X009215Y011790D01*
X008655Y012350D01*
X008668Y012337D02*
X009599Y012337D01*
X010011Y012337D02*
X014975Y012337D01*
X014975Y012179D02*
X008827Y012179D01*
X008985Y012020D02*
X014975Y012020D01*
X014975Y011862D02*
X012892Y011862D01*
X012960Y011703D02*
X013759Y011703D01*
X013746Y011545D02*
X012927Y011545D01*
X012600Y011386D02*
X013746Y011386D01*
X013746Y011228D02*
X012501Y011228D01*
X012328Y011069D02*
X013746Y011069D01*
X013746Y010911D02*
X012000Y010911D01*
X011906Y010752D02*
X013746Y010752D01*
X013746Y010594D02*
X009990Y010594D01*
X010020Y010752D02*
X011544Y010752D01*
X011559Y010435D02*
X013746Y010435D01*
X013746Y010277D02*
X011640Y010277D01*
X011612Y010118D02*
X013746Y010118D01*
X013746Y009960D02*
X011325Y009960D01*
X011166Y009801D02*
X013746Y009801D01*
X013746Y009643D02*
X011008Y009643D01*
X010849Y009484D02*
X013746Y009484D01*
X013746Y009326D02*
X010691Y009326D01*
X010532Y009167D02*
X013746Y009167D01*
X013746Y009009D02*
X010374Y009009D01*
X010215Y008850D02*
X013746Y008850D01*
X013746Y008692D02*
X010080Y008692D01*
X010042Y008533D02*
X012685Y008533D01*
X012805Y008533D02*
X014975Y008533D01*
X014975Y008375D02*
X012995Y008375D01*
X013020Y008216D02*
X014975Y008216D01*
X014975Y008058D02*
X012931Y008058D01*
X012559Y008058D02*
X010696Y008058D01*
X010740Y007899D02*
X014975Y007899D01*
X014975Y007741D02*
X010865Y007741D01*
X011023Y007582D02*
X014975Y007582D01*
X014975Y007424D02*
X011115Y007424D01*
X011115Y007265D02*
X014975Y007265D01*
X014975Y007107D02*
X011115Y007107D01*
X011115Y006948D02*
X014975Y006948D01*
X014975Y006790D02*
X011115Y006790D01*
X011115Y006631D02*
X014975Y006631D01*
X014975Y006473D02*
X011115Y006473D01*
X011195Y006314D02*
X014975Y006314D01*
X014975Y006156D02*
X011195Y006156D01*
X011195Y005997D02*
X014975Y005997D01*
X014975Y005839D02*
X011372Y005839D01*
X011435Y005680D02*
X014975Y005680D01*
X014975Y005521D02*
X011435Y005521D01*
X011435Y005363D02*
X014975Y005363D01*
X014975Y005204D02*
X011435Y005204D01*
X011435Y005046D02*
X014975Y005046D01*
X014975Y004887D02*
X011435Y004887D01*
X011435Y004729D02*
X014975Y004729D01*
X014975Y004570D02*
X011435Y004570D01*
X011435Y004412D02*
X014975Y004412D01*
X014975Y004253D02*
X011435Y004253D01*
X011435Y004095D02*
X014975Y004095D01*
X014975Y003936D02*
X011435Y003936D01*
X011435Y003778D02*
X014975Y003778D01*
X014975Y003619D02*
X011435Y003619D01*
X011435Y003461D02*
X014975Y003461D01*
X014975Y003302D02*
X011435Y003302D01*
X011435Y003144D02*
X014975Y003144D01*
X014975Y002985D02*
X011435Y002985D01*
X011435Y002827D02*
X014975Y002827D01*
X014975Y002668D02*
X011435Y002668D01*
X011435Y002510D02*
X014975Y002510D01*
X014975Y002351D02*
X011435Y002351D01*
X011435Y002193D02*
X014975Y002193D01*
X014975Y002034D02*
X011476Y002034D01*
X011634Y001876D02*
X014975Y001876D01*
X014975Y001717D02*
X011793Y001717D01*
X011951Y001559D02*
X014975Y001559D01*
X014975Y001400D02*
X012110Y001400D01*
X012268Y001242D02*
X014975Y001242D01*
X014975Y001083D02*
X012427Y001083D01*
X012585Y000925D02*
X014975Y000925D01*
X014975Y000766D02*
X012744Y000766D01*
X010210Y009326D02*
X010080Y009326D01*
X010038Y009484D02*
X010080Y009585D01*
X010080Y009695D01*
X010033Y009801D02*
X010686Y009801D01*
X010844Y009960D02*
X010080Y009960D01*
X010054Y010118D02*
X011003Y010118D01*
X011090Y010277D02*
X010068Y010277D01*
X010072Y010435D02*
X011171Y010435D01*
X012478Y011862D02*
X009144Y011862D01*
X010125Y012496D02*
X014975Y012496D01*
X014975Y012654D02*
X010299Y012654D01*
X010320Y012813D02*
X014975Y012813D01*
X014975Y012971D02*
X010223Y012971D01*
X010295Y013130D02*
X014975Y013130D01*
X014975Y013288D02*
X010453Y013288D01*
X010515Y013447D02*
X014975Y013447D01*
X014975Y013605D02*
X010595Y013605D01*
X010725Y013650D02*
X010925Y013650D01*
X011235Y013960D01*
X011235Y014160D01*
X010725Y014160D01*
X010725Y013650D01*
X010725Y013764D02*
X010685Y013764D01*
X010685Y013922D02*
X010725Y013922D01*
X010725Y014081D02*
X010685Y014081D01*
X011038Y013764D02*
X014975Y013764D01*
X014975Y013922D02*
X011197Y013922D01*
X011235Y014081D02*
X014975Y014081D01*
X014975Y014239D02*
X011235Y014239D01*
X011235Y014398D02*
X014975Y014398D01*
X014975Y014556D02*
X011406Y014556D01*
X011435Y014715D02*
X014975Y014715D01*
X014975Y014873D02*
X011435Y014873D01*
X011435Y015032D02*
X014975Y015032D01*
X014975Y015190D02*
X011435Y015190D01*
X011435Y015349D02*
X014975Y015349D01*
X014975Y015507D02*
X011435Y015507D01*
X011435Y015666D02*
X014975Y015666D01*
X014975Y015824D02*
X011435Y015824D01*
X011435Y015983D02*
X014975Y015983D01*
X014975Y016141D02*
X011435Y016141D01*
X011435Y016300D02*
X014975Y016300D01*
X014975Y016458D02*
X011435Y016458D01*
X011435Y016617D02*
X014975Y016617D01*
X014975Y016775D02*
X011435Y016775D01*
X011435Y016934D02*
X014975Y016934D01*
X014975Y017092D02*
X011435Y017092D01*
X011435Y017251D02*
X014975Y017251D01*
X014975Y017409D02*
X011435Y017409D01*
X011435Y017568D02*
X014975Y017568D01*
X014975Y017726D02*
X011435Y017726D01*
X011435Y017885D02*
X014975Y017885D01*
X014975Y018043D02*
X011435Y018043D01*
X011435Y018202D02*
X014975Y018202D01*
X014975Y018360D02*
X011510Y018360D01*
X011669Y018519D02*
X014975Y018519D01*
X014975Y018677D02*
X011827Y018677D01*
X011986Y018836D02*
X014975Y018836D01*
X014975Y018994D02*
X012144Y018994D01*
X012303Y019153D02*
X014975Y019153D01*
X014975Y019311D02*
X012461Y019311D01*
X012620Y019470D02*
X014975Y019470D01*
X014975Y019628D02*
X012778Y019628D01*
D14*
X010705Y014180D02*
X010705Y013060D01*
X009805Y012160D01*
X009805Y011860D01*
X003685Y009700D02*
X002725Y009700D01*
X002725Y011860D01*
X002705Y011880D01*
X002965Y012340D02*
X003265Y012040D01*
X003265Y011920D01*
X003305Y011880D01*
X002965Y012340D02*
X001825Y012340D01*
X002005Y010300D02*
X001405Y010300D01*
X001405Y010280D01*
X001405Y009700D02*
X001405Y009680D01*
X001405Y009700D02*
X002005Y009700D01*
X002005Y009520D01*
X002005Y009700D02*
X002725Y009700D01*
D15*
X002005Y009520D03*
X002005Y010300D03*
X002005Y011280D03*
X001505Y011280D03*
X001825Y012340D03*
X002005Y012780D03*
X002505Y012780D03*
X003005Y012780D03*
X004345Y012700D03*
X005125Y012340D03*
X005485Y012400D03*
X005125Y013120D03*
X006745Y013120D03*
X007645Y013120D03*
X009685Y013120D03*
X010045Y012760D03*
X009805Y012520D03*
X009805Y011860D03*
X009745Y010720D03*
X009805Y010360D03*
X009805Y010000D03*
X009805Y009640D03*
X009805Y009280D03*
X009805Y008680D03*
X010465Y007900D03*
X010705Y007300D03*
X011505Y006280D03*
X011505Y005780D03*
X011505Y005280D03*
X011505Y004780D03*
X011505Y004280D03*
X011505Y003780D03*
X011505Y003280D03*
X011505Y002780D03*
X011505Y002280D03*
X012005Y001780D03*
X012505Y001280D03*
X013005Y000780D03*
X013505Y000780D03*
X014005Y000780D03*
X014505Y000780D03*
X014905Y000930D03*
X014905Y001430D03*
X014905Y001930D03*
X014905Y002430D03*
X014905Y002930D03*
X014905Y003430D03*
X014905Y003930D03*
X014905Y004430D03*
X014905Y004930D03*
X014905Y005430D03*
X014905Y005930D03*
X014905Y006430D03*
X014905Y006930D03*
X014905Y008480D03*
X014405Y008480D03*
X013905Y008480D03*
X013655Y009030D03*
X013655Y009530D03*
X013655Y010030D03*
X013655Y010530D03*
X013655Y011030D03*
X013655Y011530D03*
X013905Y011880D03*
X014405Y011880D03*
X014905Y011880D03*
X014905Y013380D03*
X014905Y013880D03*
X014905Y014380D03*
X014905Y014880D03*
X014905Y015380D03*
X014905Y015880D03*
X014905Y016380D03*
X014905Y016880D03*
X014905Y017380D03*
X014905Y017880D03*
X014905Y018380D03*
X014905Y018880D03*
X014905Y019380D03*
X014505Y019580D03*
X014005Y019580D03*
X013505Y019580D03*
X013005Y019580D03*
X012505Y019080D03*
X012005Y018580D03*
X011505Y018080D03*
X011505Y017580D03*
X011505Y017080D03*
X011505Y016580D03*
X011505Y016080D03*
X011505Y015580D03*
X011505Y015080D03*
X011505Y014580D03*
X011505Y014080D03*
X010345Y013720D03*
X012325Y011440D03*
X012085Y011200D03*
X011725Y010960D03*
X011365Y010240D03*
X012685Y011680D03*
X012745Y008260D03*
X008545Y007480D03*
X007505Y009280D03*
X007505Y009780D03*
X007505Y010280D03*
X007005Y009780D03*
X008005Y009780D03*
X007045Y007780D03*
X006685Y007780D03*
X006025Y008680D03*
X004585Y008440D03*
X003865Y008680D03*
X003565Y008860D03*
X003685Y009700D03*
X002975Y010740D03*
X001505Y012780D03*
X000505Y012780D03*
X000505Y012280D03*
X000505Y011780D03*
X000505Y011280D03*
X002305Y007600D03*
X002065Y007300D03*
X001705Y007300D03*
D16*
X001705Y006180D01*
X002065Y007300D02*
X001825Y007540D01*
X001585Y007540D01*
X000745Y006700D01*
X000745Y006220D01*
X000705Y006180D01*
X002305Y007600D02*
X003565Y008860D01*
X003865Y008680D02*
X004105Y008440D01*
X004585Y008440D01*
X005005Y009280D02*
X001105Y009280D01*
X000985Y009400D01*
X000985Y013420D01*
X001705Y014140D01*
X001705Y014180D01*
X002705Y014180D02*
X002725Y014140D01*
X003625Y013240D01*
X003625Y011680D01*
X004345Y010960D01*
X011725Y010960D01*
X012085Y011200D02*
X006685Y011200D01*
X005485Y012400D01*
X005125Y012340D02*
X004705Y011920D01*
X004705Y011880D01*
X004605Y011880D02*
X004205Y011880D01*
X004105Y011880D02*
X004105Y012820D01*
X005005Y013720D01*
X007285Y013720D01*
X007705Y014140D01*
X007705Y014180D01*
X007705Y014140D02*
X008965Y012880D01*
X009805Y012880D01*
X010345Y013420D01*
X010345Y013720D01*
X009685Y013120D02*
X008665Y014140D01*
X008705Y014180D01*
X007825Y013480D02*
X005485Y013480D01*
X005125Y013120D01*
X005065Y012700D02*
X004345Y012700D01*
X005065Y012700D02*
X005725Y013360D01*
X007765Y013360D01*
X008605Y012520D01*
X009805Y012520D01*
X010045Y012760D02*
X008545Y012760D01*
X007825Y013480D01*
X007645Y013120D02*
X009145Y011620D01*
X009925Y011620D01*
X009985Y011680D01*
X012685Y011680D01*
X012325Y011440D02*
X008425Y011440D01*
X006745Y013120D01*
X005005Y009280D02*
X005605Y008680D01*
X006025Y008680D01*
X006685Y007780D02*
X005785Y006880D01*
X003385Y006880D01*
X002725Y006220D01*
X002705Y006180D01*
X003705Y006180D02*
X004285Y006760D01*
X006145Y006760D01*
X007045Y007660D01*
X007045Y007780D01*
X007345Y007720D02*
X007345Y008320D01*
X009745Y010720D01*
X009805Y010360D02*
X007465Y008020D01*
X007465Y007660D01*
X006025Y006220D01*
X005725Y006220D01*
X005705Y006180D01*
X006265Y006640D02*
X005125Y006640D01*
X004705Y006220D01*
X004705Y006180D01*
X006265Y006640D02*
X007345Y007720D01*
X007585Y007780D02*
X007585Y007060D01*
X006705Y006180D01*
X007705Y006180D02*
X007705Y007540D01*
X009805Y009640D01*
X009805Y009280D02*
X009805Y009100D01*
X008305Y007600D01*
X008305Y006580D01*
X008705Y006180D01*
X009705Y006180D02*
X010705Y007180D01*
X010705Y007300D01*
X010945Y007420D02*
X010945Y006460D01*
X010705Y006220D01*
X010705Y006180D01*
X010945Y007420D02*
X010465Y007900D01*
X009805Y008680D02*
X011365Y010240D01*
X009805Y010000D02*
X007585Y007780D01*
X008545Y007480D02*
X009325Y008260D01*
X012745Y008260D01*
X003205Y011880D02*
X002805Y011880D01*
X001405Y010180D02*
X001405Y009780D01*
M02*
