G75*
%MOIN*%
%OFA0B0*%
%FSLAX24Y24*%
%IPPOS*%
%LPD*%
%AMOC8*
5,1,8,0,0,1.08239X$1,22.5*
%
%ADD10C,0.0074*%
%ADD11R,0.1182X0.0371*%
%ADD12R,0.0474X0.0434*%
%ADD13R,0.0395X0.0749*%
%ADD14R,0.0474X0.0513*%
%ADD15R,0.0552X0.0552*%
%ADD16OC8,0.0780*%
%ADD17C,0.0277*%
D10*
X002250Y008528D02*
X003358Y008528D01*
X003358Y008232D01*
X002250Y008232D01*
X002250Y008528D01*
X002250Y008305D02*
X003358Y008305D01*
X003358Y008378D02*
X002250Y008378D01*
X002250Y008451D02*
X003358Y008451D01*
X003358Y008524D02*
X002250Y008524D01*
D11*
X002804Y008880D03*
X002804Y009380D03*
X002804Y009880D03*
X002804Y010380D03*
X001206Y010380D03*
X001206Y009880D03*
X001206Y009380D03*
X001206Y008880D03*
X001206Y008380D03*
D12*
X004990Y008523D03*
X005620Y008523D03*
X005620Y010137D03*
X004990Y010137D03*
D13*
X004833Y009330D03*
D14*
X004205Y009045D03*
X004205Y009715D03*
X005370Y011880D03*
X006040Y011880D03*
X009405Y011645D03*
X009405Y012315D03*
X009405Y009015D03*
X009405Y008345D03*
X002040Y011880D03*
X001370Y011880D03*
D15*
X002592Y011880D03*
X003418Y011880D03*
X003992Y011880D03*
X004818Y011880D03*
D16*
X000705Y006180D03*
X001705Y006180D03*
X002705Y006180D03*
X003705Y006180D03*
X004705Y006180D03*
X005705Y006180D03*
X006705Y006180D03*
X007705Y006180D03*
X008705Y006180D03*
X009705Y006180D03*
X010705Y006180D03*
X010705Y014180D03*
X009705Y014180D03*
X008705Y014180D03*
X007705Y014180D03*
X006705Y014180D03*
X005705Y014180D03*
X004705Y014180D03*
X003705Y014180D03*
X002705Y014180D03*
X001705Y014180D03*
X000705Y014180D03*
D17*
X010715Y012129D02*
X010715Y012129D01*
X010125Y012129D01*
X010125Y012129D01*
X010715Y012129D01*
X010715Y011774D02*
X010715Y011774D01*
X010125Y011774D01*
X010125Y011774D01*
X010715Y011774D01*
X010715Y011420D02*
X010715Y011420D01*
X010125Y011420D01*
X010125Y011420D01*
X010715Y011420D01*
X010715Y011066D02*
X010715Y011066D01*
X010125Y011066D01*
X010125Y011066D01*
X010715Y011066D01*
X010715Y010711D02*
X010715Y010711D01*
X010125Y010711D01*
X010125Y010711D01*
X010715Y010711D01*
X010125Y010357D02*
X010125Y010357D01*
X010715Y010357D01*
X010715Y010357D01*
X010125Y010357D01*
X010125Y010003D02*
X010125Y010003D01*
X010715Y010003D01*
X010715Y010003D01*
X010125Y010003D01*
X010125Y009649D02*
X010125Y009649D01*
X010715Y009649D01*
X010715Y009649D01*
X010125Y009649D01*
X010125Y009294D02*
X010125Y009294D01*
X010715Y009294D01*
X010715Y009294D01*
X010125Y009294D01*
X010125Y008940D02*
X010125Y008940D01*
X010715Y008940D01*
X010715Y008940D01*
X010125Y008940D01*
X010125Y008586D02*
X010125Y008586D01*
X010715Y008586D01*
X010715Y008586D01*
X010125Y008586D01*
X010125Y008231D02*
X010125Y008231D01*
X010715Y008231D01*
X010715Y008231D01*
X010125Y008231D01*
X011031Y007346D02*
X011031Y007346D01*
X011031Y007936D01*
X011031Y007936D01*
X011031Y007346D01*
X011031Y007622D02*
X011031Y007622D01*
X011031Y007898D02*
X011031Y007898D01*
X011385Y007346D02*
X011385Y007346D01*
X011385Y007936D01*
X011385Y007936D01*
X011385Y007346D01*
X011385Y007622D02*
X011385Y007622D01*
X011385Y007898D02*
X011385Y007898D01*
X011739Y007346D02*
X011739Y007346D01*
X011739Y007936D01*
X011739Y007936D01*
X011739Y007346D01*
X011739Y007622D02*
X011739Y007622D01*
X011739Y007898D02*
X011739Y007898D01*
X012094Y007346D02*
X012094Y007346D01*
X012094Y007936D01*
X012094Y007936D01*
X012094Y007346D01*
X012094Y007622D02*
X012094Y007622D01*
X012094Y007898D02*
X012094Y007898D01*
X012448Y007346D02*
X012448Y007346D01*
X012448Y007936D01*
X012448Y007936D01*
X012448Y007346D01*
X012448Y007622D02*
X012448Y007622D01*
X012448Y007898D02*
X012448Y007898D01*
X012802Y007346D02*
X012802Y007346D01*
X012802Y007936D01*
X012802Y007936D01*
X012802Y007346D01*
X012802Y007622D02*
X012802Y007622D01*
X012802Y007898D02*
X012802Y007898D01*
X013156Y007346D02*
X013156Y007346D01*
X013156Y007936D01*
X013156Y007936D01*
X013156Y007346D01*
X013156Y007622D02*
X013156Y007622D01*
X013156Y007898D02*
X013156Y007898D01*
X013511Y007346D02*
X013511Y007346D01*
X013511Y007936D01*
X013511Y007936D01*
X013511Y007346D01*
X013511Y007622D02*
X013511Y007622D01*
X013511Y007898D02*
X013511Y007898D01*
X013865Y007346D02*
X013865Y007346D01*
X013865Y007936D01*
X013865Y007936D01*
X013865Y007346D01*
X013865Y007622D02*
X013865Y007622D01*
X013865Y007898D02*
X013865Y007898D01*
X014219Y007346D02*
X014219Y007346D01*
X014219Y007936D01*
X014219Y007936D01*
X014219Y007346D01*
X014219Y007622D02*
X014219Y007622D01*
X014219Y007898D02*
X014219Y007898D01*
X014574Y007346D02*
X014574Y007346D01*
X014574Y007936D01*
X014574Y007936D01*
X014574Y007346D01*
X014574Y007622D02*
X014574Y007622D01*
X014574Y007898D02*
X014574Y007898D01*
X014928Y007346D02*
X014928Y007346D01*
X014928Y007936D01*
X014928Y007936D01*
X014928Y007346D01*
X014928Y007622D02*
X014928Y007622D01*
X014928Y007898D02*
X014928Y007898D01*
X014928Y012424D02*
X014928Y012424D01*
X014928Y013014D01*
X014928Y013014D01*
X014928Y012424D01*
X014928Y012700D02*
X014928Y012700D01*
X014928Y012976D02*
X014928Y012976D01*
X014574Y012424D02*
X014574Y012424D01*
X014574Y013014D01*
X014574Y013014D01*
X014574Y012424D01*
X014574Y012700D02*
X014574Y012700D01*
X014574Y012976D02*
X014574Y012976D01*
X014219Y012424D02*
X014219Y012424D01*
X014219Y013014D01*
X014219Y013014D01*
X014219Y012424D01*
X014219Y012700D02*
X014219Y012700D01*
X014219Y012976D02*
X014219Y012976D01*
X013865Y012424D02*
X013865Y012424D01*
X013865Y013014D01*
X013865Y013014D01*
X013865Y012424D01*
X013865Y012700D02*
X013865Y012700D01*
X013865Y012976D02*
X013865Y012976D01*
X013511Y012424D02*
X013511Y012424D01*
X013511Y013014D01*
X013511Y013014D01*
X013511Y012424D01*
X013511Y012700D02*
X013511Y012700D01*
X013511Y012976D02*
X013511Y012976D01*
X013156Y012424D02*
X013156Y012424D01*
X013156Y013014D01*
X013156Y013014D01*
X013156Y012424D01*
X013156Y012700D02*
X013156Y012700D01*
X013156Y012976D02*
X013156Y012976D01*
X012802Y012424D02*
X012802Y012424D01*
X012802Y013014D01*
X012802Y013014D01*
X012802Y012424D01*
X012802Y012700D02*
X012802Y012700D01*
X012802Y012976D02*
X012802Y012976D01*
X012448Y012424D02*
X012448Y012424D01*
X012448Y013014D01*
X012448Y013014D01*
X012448Y012424D01*
X012448Y012700D02*
X012448Y012700D01*
X012448Y012976D02*
X012448Y012976D01*
X012094Y012424D02*
X012094Y012424D01*
X012094Y013014D01*
X012094Y013014D01*
X012094Y012424D01*
X012094Y012700D02*
X012094Y012700D01*
X012094Y012976D02*
X012094Y012976D01*
X011739Y012424D02*
X011739Y012424D01*
X011739Y013014D01*
X011739Y013014D01*
X011739Y012424D01*
X011739Y012700D02*
X011739Y012700D01*
X011739Y012976D02*
X011739Y012976D01*
X011385Y012424D02*
X011385Y012424D01*
X011385Y013014D01*
X011385Y013014D01*
X011385Y012424D01*
X011385Y012700D02*
X011385Y012700D01*
X011385Y012976D02*
X011385Y012976D01*
X011031Y012424D02*
X011031Y012424D01*
X011031Y013014D01*
X011031Y013014D01*
X011031Y012424D01*
X011031Y012700D02*
X011031Y012700D01*
X011031Y012976D02*
X011031Y012976D01*
M02*
