G75*
G70*
%OFA0B0*%
%FSLAX24Y24*%
%IPPOS*%
%LPD*%
%AMOC8*
5,1,8,0,0,1.08239X$1,22.5*
%
%ADD10R,0.0217X0.0472*%
%ADD11R,0.0472X0.0472*%
%ADD12R,0.0394X0.0433*%
%ADD13R,0.0433X0.0394*%
%ADD14C,0.0108*%
%ADD15C,0.0072*%
%ADD16R,0.0354X0.0315*%
D10*
X003826Y004918D03*
X004574Y004918D03*
X004200Y005942D03*
D11*
X005900Y003093D03*
X005900Y002267D03*
X005900Y001393D03*
X005900Y000567D03*
D12*
X002600Y000555D03*
X003400Y000555D03*
X003400Y001225D03*
X002600Y001225D03*
X005200Y001225D03*
X005200Y000555D03*
X005200Y002345D03*
X005200Y003015D03*
D13*
X003235Y003180D03*
X002565Y003180D03*
X002565Y003980D03*
X003235Y003980D03*
X005165Y004280D03*
X005835Y004280D03*
X005835Y005130D03*
X005165Y005130D03*
X005165Y005980D03*
X005835Y005980D03*
X003235Y005980D03*
X002565Y005980D03*
X003865Y001880D03*
X004535Y001880D03*
D14*
X007446Y000978D02*
X007446Y000386D01*
X007194Y000386D01*
X007194Y000978D01*
X007446Y000978D01*
X007446Y000493D02*
X007194Y000493D01*
X007194Y000600D02*
X007446Y000600D01*
X007446Y000707D02*
X007194Y000707D01*
X007194Y000814D02*
X007446Y000814D01*
X007446Y000921D02*
X007194Y000921D01*
X008036Y000978D02*
X008036Y000386D01*
X007784Y000386D01*
X007784Y000978D01*
X008036Y000978D01*
X008036Y000493D02*
X007784Y000493D01*
X007784Y000600D02*
X008036Y000600D01*
X008036Y000707D02*
X007784Y000707D01*
X007784Y000814D02*
X008036Y000814D01*
X008036Y000921D02*
X007784Y000921D01*
X008627Y000978D02*
X008627Y000386D01*
X008375Y000386D01*
X008375Y000978D01*
X008627Y000978D01*
X008627Y000493D02*
X008375Y000493D01*
X008375Y000600D02*
X008627Y000600D01*
X008627Y000707D02*
X008375Y000707D01*
X008375Y000814D02*
X008627Y000814D01*
X008627Y000921D02*
X008375Y000921D01*
X009218Y000978D02*
X009218Y000386D01*
X008966Y000386D01*
X008966Y000978D01*
X009218Y000978D01*
X009218Y000493D02*
X008966Y000493D01*
X008966Y000600D02*
X009218Y000600D01*
X009218Y000707D02*
X008966Y000707D01*
X008966Y000814D02*
X009218Y000814D01*
X009218Y000921D02*
X008966Y000921D01*
X009808Y000978D02*
X009808Y000386D01*
X009556Y000386D01*
X009556Y000978D01*
X009808Y000978D01*
X009808Y000493D02*
X009556Y000493D01*
X009556Y000600D02*
X009808Y000600D01*
X009808Y000707D02*
X009556Y000707D01*
X009556Y000814D02*
X009808Y000814D01*
X009808Y000921D02*
X009556Y000921D01*
X010399Y000978D02*
X010399Y000386D01*
X010147Y000386D01*
X010147Y000978D01*
X010399Y000978D01*
X010399Y000493D02*
X010147Y000493D01*
X010147Y000600D02*
X010399Y000600D01*
X010399Y000707D02*
X010147Y000707D01*
X010147Y000814D02*
X010399Y000814D01*
X010399Y000921D02*
X010147Y000921D01*
X010989Y000978D02*
X010989Y000386D01*
X010737Y000386D01*
X010737Y000978D01*
X010989Y000978D01*
X010989Y000493D02*
X010737Y000493D01*
X010737Y000600D02*
X010989Y000600D01*
X010989Y000707D02*
X010737Y000707D01*
X010737Y000814D02*
X010989Y000814D01*
X010989Y000921D02*
X010737Y000921D01*
X011580Y000978D02*
X011580Y000386D01*
X011328Y000386D01*
X011328Y000978D01*
X011580Y000978D01*
X011580Y000493D02*
X011328Y000493D01*
X011328Y000600D02*
X011580Y000600D01*
X011580Y000707D02*
X011328Y000707D01*
X011328Y000814D02*
X011580Y000814D01*
X011580Y000921D02*
X011328Y000921D01*
X012170Y000978D02*
X012170Y000386D01*
X011918Y000386D01*
X011918Y000978D01*
X012170Y000978D01*
X012170Y000493D02*
X011918Y000493D01*
X011918Y000600D02*
X012170Y000600D01*
X012170Y000707D02*
X011918Y000707D01*
X011918Y000814D02*
X012170Y000814D01*
X012170Y000921D02*
X011918Y000921D01*
X012761Y000978D02*
X012761Y000386D01*
X012509Y000386D01*
X012509Y000978D01*
X012761Y000978D01*
X012761Y000493D02*
X012509Y000493D01*
X012509Y000600D02*
X012761Y000600D01*
X012761Y000707D02*
X012509Y000707D01*
X012509Y000814D02*
X012761Y000814D01*
X012761Y000921D02*
X012509Y000921D01*
X013351Y000978D02*
X013351Y000386D01*
X013099Y000386D01*
X013099Y000978D01*
X013351Y000978D01*
X013351Y000493D02*
X013099Y000493D01*
X013099Y000600D02*
X013351Y000600D01*
X013351Y000707D02*
X013099Y000707D01*
X013099Y000814D02*
X013351Y000814D01*
X013351Y000921D02*
X013099Y000921D01*
X013942Y000978D02*
X013942Y000386D01*
X013690Y000386D01*
X013690Y000978D01*
X013942Y000978D01*
X013942Y000493D02*
X013690Y000493D01*
X013690Y000600D02*
X013942Y000600D01*
X013942Y000707D02*
X013690Y000707D01*
X013690Y000814D02*
X013942Y000814D01*
X013942Y000921D02*
X013690Y000921D01*
X014532Y000860D02*
X014532Y000386D01*
X014280Y000386D01*
X014280Y000860D01*
X014532Y000860D01*
X014532Y000493D02*
X014280Y000493D01*
X014280Y000600D02*
X014532Y000600D01*
X014532Y000707D02*
X014280Y000707D01*
X014280Y000814D02*
X014532Y000814D01*
X016118Y002563D02*
X016592Y002563D01*
X016118Y002563D02*
X016118Y002815D01*
X016592Y002815D01*
X016592Y002563D01*
X016592Y002670D02*
X016118Y002670D01*
X016118Y002777D02*
X016592Y002777D01*
X016592Y003154D02*
X016000Y003154D01*
X016000Y003406D01*
X016592Y003406D01*
X016592Y003154D01*
X016592Y003261D02*
X016000Y003261D01*
X016000Y003368D02*
X016592Y003368D01*
X016592Y003745D02*
X016118Y003745D01*
X016118Y003997D01*
X016592Y003997D01*
X016592Y003745D01*
X016592Y003852D02*
X016118Y003852D01*
X016118Y003959D02*
X016592Y003959D01*
X014532Y005700D02*
X014532Y006174D01*
X014532Y005700D02*
X014280Y005700D01*
X014280Y006174D01*
X014532Y006174D01*
X014532Y005807D02*
X014280Y005807D01*
X014280Y005914D02*
X014532Y005914D01*
X014532Y006021D02*
X014280Y006021D01*
X014280Y006128D02*
X014532Y006128D01*
X013942Y006174D02*
X013942Y005582D01*
X013690Y005582D01*
X013690Y006174D01*
X013942Y006174D01*
X013942Y005689D02*
X013690Y005689D01*
X013690Y005796D02*
X013942Y005796D01*
X013942Y005903D02*
X013690Y005903D01*
X013690Y006010D02*
X013942Y006010D01*
X013942Y006117D02*
X013690Y006117D01*
X013351Y006174D02*
X013351Y005582D01*
X013099Y005582D01*
X013099Y006174D01*
X013351Y006174D01*
X013351Y005689D02*
X013099Y005689D01*
X013099Y005796D02*
X013351Y005796D01*
X013351Y005903D02*
X013099Y005903D01*
X013099Y006010D02*
X013351Y006010D01*
X013351Y006117D02*
X013099Y006117D01*
X012761Y006174D02*
X012761Y005582D01*
X012509Y005582D01*
X012509Y006174D01*
X012761Y006174D01*
X012761Y005689D02*
X012509Y005689D01*
X012509Y005796D02*
X012761Y005796D01*
X012761Y005903D02*
X012509Y005903D01*
X012509Y006010D02*
X012761Y006010D01*
X012761Y006117D02*
X012509Y006117D01*
X012170Y006174D02*
X012170Y005582D01*
X011918Y005582D01*
X011918Y006174D01*
X012170Y006174D01*
X012170Y005689D02*
X011918Y005689D01*
X011918Y005796D02*
X012170Y005796D01*
X012170Y005903D02*
X011918Y005903D01*
X011918Y006010D02*
X012170Y006010D01*
X012170Y006117D02*
X011918Y006117D01*
X011580Y006174D02*
X011580Y005582D01*
X011328Y005582D01*
X011328Y006174D01*
X011580Y006174D01*
X011580Y005689D02*
X011328Y005689D01*
X011328Y005796D02*
X011580Y005796D01*
X011580Y005903D02*
X011328Y005903D01*
X011328Y006010D02*
X011580Y006010D01*
X011580Y006117D02*
X011328Y006117D01*
X010989Y006174D02*
X010989Y005582D01*
X010737Y005582D01*
X010737Y006174D01*
X010989Y006174D01*
X010989Y005689D02*
X010737Y005689D01*
X010737Y005796D02*
X010989Y005796D01*
X010989Y005903D02*
X010737Y005903D01*
X010737Y006010D02*
X010989Y006010D01*
X010989Y006117D02*
X010737Y006117D01*
X010399Y006174D02*
X010399Y005582D01*
X010147Y005582D01*
X010147Y006174D01*
X010399Y006174D01*
X010399Y005689D02*
X010147Y005689D01*
X010147Y005796D02*
X010399Y005796D01*
X010399Y005903D02*
X010147Y005903D01*
X010147Y006010D02*
X010399Y006010D01*
X010399Y006117D02*
X010147Y006117D01*
X009218Y006174D02*
X009218Y005582D01*
X008966Y005582D01*
X008966Y006174D01*
X009218Y006174D01*
X009218Y005689D02*
X008966Y005689D01*
X008966Y005796D02*
X009218Y005796D01*
X009218Y005903D02*
X008966Y005903D01*
X008966Y006010D02*
X009218Y006010D01*
X009218Y006117D02*
X008966Y006117D01*
X008627Y006174D02*
X008627Y005582D01*
X008375Y005582D01*
X008375Y006174D01*
X008627Y006174D01*
X008627Y005689D02*
X008375Y005689D01*
X008375Y005796D02*
X008627Y005796D01*
X008627Y005903D02*
X008375Y005903D01*
X008375Y006010D02*
X008627Y006010D01*
X008627Y006117D02*
X008375Y006117D01*
X008036Y006174D02*
X008036Y005582D01*
X007784Y005582D01*
X007784Y006174D01*
X008036Y006174D01*
X008036Y005689D02*
X007784Y005689D01*
X007784Y005796D02*
X008036Y005796D01*
X008036Y005903D02*
X007784Y005903D01*
X007784Y006010D02*
X008036Y006010D01*
X008036Y006117D02*
X007784Y006117D01*
X007446Y006174D02*
X007446Y005582D01*
X007194Y005582D01*
X007194Y006174D01*
X007446Y006174D01*
X007446Y005689D02*
X007194Y005689D01*
X007194Y005796D02*
X007446Y005796D01*
X007446Y005903D02*
X007194Y005903D01*
X007194Y006010D02*
X007446Y006010D01*
X007446Y006117D02*
X007194Y006117D01*
X006855Y006174D02*
X006855Y005700D01*
X006603Y005700D01*
X006603Y006174D01*
X006855Y006174D01*
X006855Y005807D02*
X006603Y005807D01*
X006603Y005914D02*
X006855Y005914D01*
X006855Y006021D02*
X006603Y006021D01*
X006603Y006128D02*
X006855Y006128D01*
X006855Y000860D02*
X006855Y000386D01*
X006603Y000386D01*
X006603Y000860D01*
X006855Y000860D01*
X006855Y000493D02*
X006603Y000493D01*
X006603Y000600D02*
X006855Y000600D01*
X006855Y000707D02*
X006603Y000707D01*
X006603Y000814D02*
X006855Y000814D01*
D15*
X009826Y005564D02*
X009826Y006192D01*
X009826Y005564D02*
X009538Y005564D01*
X009538Y006192D01*
X009826Y006192D01*
X009826Y005635D02*
X009538Y005635D01*
X009538Y005706D02*
X009826Y005706D01*
X009826Y005777D02*
X009538Y005777D01*
X009538Y005848D02*
X009826Y005848D01*
X009826Y005919D02*
X009538Y005919D01*
X009538Y005990D02*
X009826Y005990D01*
X009826Y006061D02*
X009538Y006061D01*
X009538Y006132D02*
X009826Y006132D01*
D16*
X003333Y004980D03*
X002506Y004606D03*
X002506Y005354D03*
X002506Y002554D03*
X003333Y002180D03*
X002506Y001806D03*
M02*
