G75*
G70*
%OFA0B0*%
%FSLAX24Y24*%
%IPPOS*%
%LPD*%
%AMOC8*
5,1,8,0,0,1.08239X$1,22.5*
%
%ADD10R,0.0217X0.0472*%
%ADD11R,0.0472X0.0472*%
%ADD12R,0.0394X0.0433*%
%ADD13OC8,0.0700*%
%ADD14R,0.0433X0.0394*%
%ADD15C,0.0108*%
%ADD16C,0.0072*%
%ADD17R,0.0354X0.0315*%
%ADD18C,0.0060*%
%ADD19C,0.0270*%
%ADD20C,0.0160*%
%ADD21C,0.0100*%
D10*
X003826Y004918D03*
X004574Y004918D03*
X004200Y005942D03*
D11*
X005900Y003093D03*
X005900Y002267D03*
X005900Y001393D03*
X005900Y000567D03*
D12*
X005200Y000555D03*
X005200Y001225D03*
X003400Y001225D03*
X002600Y001225D03*
X002600Y000555D03*
X003400Y000555D03*
X005200Y002345D03*
X005200Y003015D03*
D13*
X001300Y000780D03*
X001300Y001780D03*
X001300Y002780D03*
X001300Y003780D03*
X001300Y004780D03*
X001300Y005780D03*
X004300Y003780D03*
X004300Y002780D03*
X004300Y000780D03*
D14*
X004535Y001880D03*
X003865Y001880D03*
X003235Y003180D03*
X002565Y003180D03*
X002565Y003980D03*
X003235Y003980D03*
X005165Y004280D03*
X005835Y004280D03*
X005835Y005130D03*
X005165Y005130D03*
X005165Y005980D03*
X005835Y005980D03*
X003235Y005980D03*
X002565Y005980D03*
D15*
X006855Y006174D02*
X006855Y005700D01*
X006603Y005700D01*
X006603Y006174D01*
X006855Y006174D01*
X006855Y005807D02*
X006603Y005807D01*
X006603Y005914D02*
X006855Y005914D01*
X006855Y006021D02*
X006603Y006021D01*
X006603Y006128D02*
X006855Y006128D01*
X007446Y006174D02*
X007446Y005582D01*
X007194Y005582D01*
X007194Y006174D01*
X007446Y006174D01*
X007446Y005689D02*
X007194Y005689D01*
X007194Y005796D02*
X007446Y005796D01*
X007446Y005903D02*
X007194Y005903D01*
X007194Y006010D02*
X007446Y006010D01*
X007446Y006117D02*
X007194Y006117D01*
X008036Y006174D02*
X008036Y005582D01*
X007784Y005582D01*
X007784Y006174D01*
X008036Y006174D01*
X008036Y005689D02*
X007784Y005689D01*
X007784Y005796D02*
X008036Y005796D01*
X008036Y005903D02*
X007784Y005903D01*
X007784Y006010D02*
X008036Y006010D01*
X008036Y006117D02*
X007784Y006117D01*
X008627Y006174D02*
X008627Y005582D01*
X008375Y005582D01*
X008375Y006174D01*
X008627Y006174D01*
X008627Y005689D02*
X008375Y005689D01*
X008375Y005796D02*
X008627Y005796D01*
X008627Y005903D02*
X008375Y005903D01*
X008375Y006010D02*
X008627Y006010D01*
X008627Y006117D02*
X008375Y006117D01*
X009218Y006174D02*
X009218Y005582D01*
X008966Y005582D01*
X008966Y006174D01*
X009218Y006174D01*
X009218Y005689D02*
X008966Y005689D01*
X008966Y005796D02*
X009218Y005796D01*
X009218Y005903D02*
X008966Y005903D01*
X008966Y006010D02*
X009218Y006010D01*
X009218Y006117D02*
X008966Y006117D01*
X010399Y006174D02*
X010399Y005582D01*
X010147Y005582D01*
X010147Y006174D01*
X010399Y006174D01*
X010399Y005689D02*
X010147Y005689D01*
X010147Y005796D02*
X010399Y005796D01*
X010399Y005903D02*
X010147Y005903D01*
X010147Y006010D02*
X010399Y006010D01*
X010399Y006117D02*
X010147Y006117D01*
X010989Y006174D02*
X010989Y005582D01*
X010737Y005582D01*
X010737Y006174D01*
X010989Y006174D01*
X010989Y005689D02*
X010737Y005689D01*
X010737Y005796D02*
X010989Y005796D01*
X010989Y005903D02*
X010737Y005903D01*
X010737Y006010D02*
X010989Y006010D01*
X010989Y006117D02*
X010737Y006117D01*
X011580Y006174D02*
X011580Y005582D01*
X011328Y005582D01*
X011328Y006174D01*
X011580Y006174D01*
X011580Y005689D02*
X011328Y005689D01*
X011328Y005796D02*
X011580Y005796D01*
X011580Y005903D02*
X011328Y005903D01*
X011328Y006010D02*
X011580Y006010D01*
X011580Y006117D02*
X011328Y006117D01*
X012170Y006174D02*
X012170Y005582D01*
X011918Y005582D01*
X011918Y006174D01*
X012170Y006174D01*
X012170Y005689D02*
X011918Y005689D01*
X011918Y005796D02*
X012170Y005796D01*
X012170Y005903D02*
X011918Y005903D01*
X011918Y006010D02*
X012170Y006010D01*
X012170Y006117D02*
X011918Y006117D01*
X012761Y006174D02*
X012761Y005582D01*
X012509Y005582D01*
X012509Y006174D01*
X012761Y006174D01*
X012761Y005689D02*
X012509Y005689D01*
X012509Y005796D02*
X012761Y005796D01*
X012761Y005903D02*
X012509Y005903D01*
X012509Y006010D02*
X012761Y006010D01*
X012761Y006117D02*
X012509Y006117D01*
X013351Y006174D02*
X013351Y005582D01*
X013099Y005582D01*
X013099Y006174D01*
X013351Y006174D01*
X013351Y005689D02*
X013099Y005689D01*
X013099Y005796D02*
X013351Y005796D01*
X013351Y005903D02*
X013099Y005903D01*
X013099Y006010D02*
X013351Y006010D01*
X013351Y006117D02*
X013099Y006117D01*
X013942Y006174D02*
X013942Y005582D01*
X013690Y005582D01*
X013690Y006174D01*
X013942Y006174D01*
X013942Y005689D02*
X013690Y005689D01*
X013690Y005796D02*
X013942Y005796D01*
X013942Y005903D02*
X013690Y005903D01*
X013690Y006010D02*
X013942Y006010D01*
X013942Y006117D02*
X013690Y006117D01*
X014532Y006174D02*
X014532Y005700D01*
X014280Y005700D01*
X014280Y006174D01*
X014532Y006174D01*
X014532Y005807D02*
X014280Y005807D01*
X014280Y005914D02*
X014532Y005914D01*
X014532Y006021D02*
X014280Y006021D01*
X014280Y006128D02*
X014532Y006128D01*
X016118Y003745D02*
X016592Y003745D01*
X016118Y003745D02*
X016118Y003997D01*
X016592Y003997D01*
X016592Y003745D01*
X016592Y003852D02*
X016118Y003852D01*
X016118Y003959D02*
X016592Y003959D01*
X016592Y003154D02*
X016000Y003154D01*
X016000Y003406D01*
X016592Y003406D01*
X016592Y003154D01*
X016592Y003261D02*
X016000Y003261D01*
X016000Y003368D02*
X016592Y003368D01*
X016592Y002563D02*
X016118Y002563D01*
X016118Y002815D01*
X016592Y002815D01*
X016592Y002563D01*
X016592Y002670D02*
X016118Y002670D01*
X016118Y002777D02*
X016592Y002777D01*
X013942Y000978D02*
X013942Y000386D01*
X013690Y000386D01*
X013690Y000978D01*
X013942Y000978D01*
X013942Y000493D02*
X013690Y000493D01*
X013690Y000600D02*
X013942Y000600D01*
X013942Y000707D02*
X013690Y000707D01*
X013690Y000814D02*
X013942Y000814D01*
X013942Y000921D02*
X013690Y000921D01*
X013351Y000978D02*
X013351Y000386D01*
X013099Y000386D01*
X013099Y000978D01*
X013351Y000978D01*
X013351Y000493D02*
X013099Y000493D01*
X013099Y000600D02*
X013351Y000600D01*
X013351Y000707D02*
X013099Y000707D01*
X013099Y000814D02*
X013351Y000814D01*
X013351Y000921D02*
X013099Y000921D01*
X012761Y000978D02*
X012761Y000386D01*
X012509Y000386D01*
X012509Y000978D01*
X012761Y000978D01*
X012761Y000493D02*
X012509Y000493D01*
X012509Y000600D02*
X012761Y000600D01*
X012761Y000707D02*
X012509Y000707D01*
X012509Y000814D02*
X012761Y000814D01*
X012761Y000921D02*
X012509Y000921D01*
X012170Y000978D02*
X012170Y000386D01*
X011918Y000386D01*
X011918Y000978D01*
X012170Y000978D01*
X012170Y000493D02*
X011918Y000493D01*
X011918Y000600D02*
X012170Y000600D01*
X012170Y000707D02*
X011918Y000707D01*
X011918Y000814D02*
X012170Y000814D01*
X012170Y000921D02*
X011918Y000921D01*
X011580Y000978D02*
X011580Y000386D01*
X011328Y000386D01*
X011328Y000978D01*
X011580Y000978D01*
X011580Y000493D02*
X011328Y000493D01*
X011328Y000600D02*
X011580Y000600D01*
X011580Y000707D02*
X011328Y000707D01*
X011328Y000814D02*
X011580Y000814D01*
X011580Y000921D02*
X011328Y000921D01*
X010989Y000978D02*
X010989Y000386D01*
X010737Y000386D01*
X010737Y000978D01*
X010989Y000978D01*
X010989Y000493D02*
X010737Y000493D01*
X010737Y000600D02*
X010989Y000600D01*
X010989Y000707D02*
X010737Y000707D01*
X010737Y000814D02*
X010989Y000814D01*
X010989Y000921D02*
X010737Y000921D01*
X010399Y000978D02*
X010399Y000386D01*
X010147Y000386D01*
X010147Y000978D01*
X010399Y000978D01*
X010399Y000493D02*
X010147Y000493D01*
X010147Y000600D02*
X010399Y000600D01*
X010399Y000707D02*
X010147Y000707D01*
X010147Y000814D02*
X010399Y000814D01*
X010399Y000921D02*
X010147Y000921D01*
X009808Y000978D02*
X009808Y000386D01*
X009556Y000386D01*
X009556Y000978D01*
X009808Y000978D01*
X009808Y000493D02*
X009556Y000493D01*
X009556Y000600D02*
X009808Y000600D01*
X009808Y000707D02*
X009556Y000707D01*
X009556Y000814D02*
X009808Y000814D01*
X009808Y000921D02*
X009556Y000921D01*
X009218Y000978D02*
X009218Y000386D01*
X008966Y000386D01*
X008966Y000978D01*
X009218Y000978D01*
X009218Y000493D02*
X008966Y000493D01*
X008966Y000600D02*
X009218Y000600D01*
X009218Y000707D02*
X008966Y000707D01*
X008966Y000814D02*
X009218Y000814D01*
X009218Y000921D02*
X008966Y000921D01*
X008627Y000978D02*
X008627Y000386D01*
X008375Y000386D01*
X008375Y000978D01*
X008627Y000978D01*
X008627Y000493D02*
X008375Y000493D01*
X008375Y000600D02*
X008627Y000600D01*
X008627Y000707D02*
X008375Y000707D01*
X008375Y000814D02*
X008627Y000814D01*
X008627Y000921D02*
X008375Y000921D01*
X008036Y000978D02*
X008036Y000386D01*
X007784Y000386D01*
X007784Y000978D01*
X008036Y000978D01*
X008036Y000493D02*
X007784Y000493D01*
X007784Y000600D02*
X008036Y000600D01*
X008036Y000707D02*
X007784Y000707D01*
X007784Y000814D02*
X008036Y000814D01*
X008036Y000921D02*
X007784Y000921D01*
X007446Y000978D02*
X007446Y000386D01*
X007194Y000386D01*
X007194Y000978D01*
X007446Y000978D01*
X007446Y000493D02*
X007194Y000493D01*
X007194Y000600D02*
X007446Y000600D01*
X007446Y000707D02*
X007194Y000707D01*
X007194Y000814D02*
X007446Y000814D01*
X007446Y000921D02*
X007194Y000921D01*
X006855Y000860D02*
X006855Y000386D01*
X006603Y000386D01*
X006603Y000860D01*
X006855Y000860D01*
X006855Y000493D02*
X006603Y000493D01*
X006603Y000600D02*
X006855Y000600D01*
X006855Y000707D02*
X006603Y000707D01*
X006603Y000814D02*
X006855Y000814D01*
X014532Y000860D02*
X014532Y000386D01*
X014280Y000386D01*
X014280Y000860D01*
X014532Y000860D01*
X014532Y000493D02*
X014280Y000493D01*
X014280Y000600D02*
X014532Y000600D01*
X014532Y000707D02*
X014280Y000707D01*
X014280Y000814D02*
X014532Y000814D01*
D16*
X009826Y005564D02*
X009826Y006192D01*
X009826Y005564D02*
X009538Y005564D01*
X009538Y006192D01*
X009826Y006192D01*
X009826Y005635D02*
X009538Y005635D01*
X009538Y005706D02*
X009826Y005706D01*
X009826Y005777D02*
X009538Y005777D01*
X009538Y005848D02*
X009826Y005848D01*
X009826Y005919D02*
X009538Y005919D01*
X009538Y005990D02*
X009826Y005990D01*
X009826Y006061D02*
X009538Y006061D01*
X009538Y006132D02*
X009826Y006132D01*
D17*
X003333Y004980D03*
X002506Y004606D03*
X002506Y005354D03*
X002506Y002554D03*
X003333Y002180D03*
X002506Y001806D03*
D18*
X002540Y001860D01*
X003200Y002520D01*
X003200Y003180D01*
X003235Y003180D01*
X003260Y003180D01*
X003260Y003300D01*
X003620Y003660D01*
X003620Y005460D01*
X003860Y005700D01*
X003680Y006000D02*
X003440Y005760D01*
X003260Y005940D01*
X003235Y005980D01*
X003440Y005760D02*
X003440Y005040D01*
X003380Y004980D01*
X003333Y004980D01*
X004220Y004920D02*
X004220Y004800D01*
X004760Y004260D01*
X004760Y002340D01*
X004340Y002340D01*
X003920Y001920D01*
X003865Y001880D01*
X003333Y002180D02*
X003320Y002160D01*
X002780Y001620D01*
X002780Y001440D01*
X002600Y001260D01*
X002600Y001225D01*
X002600Y001260D02*
X002180Y001260D01*
X002180Y003300D01*
X001880Y003600D01*
X001880Y005340D01*
X001460Y005760D01*
X001340Y005760D01*
X001300Y005780D01*
X001640Y005220D02*
X001760Y005100D01*
X001760Y004200D01*
X001340Y003780D01*
X001300Y003780D01*
X002540Y004020D02*
X002565Y003980D01*
X002600Y003960D01*
X002900Y003660D01*
X002900Y003600D01*
X002540Y004020D02*
X002540Y004560D01*
X002506Y004606D01*
X005240Y003480D02*
X005240Y003060D01*
X005200Y003015D01*
X006440Y002520D02*
X006440Y001920D01*
X004580Y001920D01*
X004535Y001880D01*
X005200Y002345D02*
X005240Y002340D01*
X005900Y002340D01*
X005900Y002267D01*
X007220Y001920D02*
X009080Y003780D01*
X009080Y005820D01*
X009092Y005878D01*
X011420Y005820D02*
X011420Y005760D01*
X008360Y002700D01*
X008780Y002640D02*
X008780Y001020D01*
X009080Y000720D01*
X009092Y000682D01*
X008501Y000682D02*
X008480Y000720D01*
X008240Y000960D01*
X008240Y001440D01*
X007640Y001260D02*
X007640Y000960D01*
X007880Y000720D01*
X007910Y000682D01*
X005900Y001260D02*
X005900Y001393D01*
X005900Y001260D02*
X005240Y001260D01*
X005200Y001225D01*
X003980Y001260D02*
X003440Y001260D01*
X003400Y001225D01*
X003020Y000900D02*
X003020Y000600D01*
X003380Y000600D01*
X003400Y000555D01*
X011120Y002280D02*
X012620Y000780D01*
X012620Y000720D01*
X012635Y000682D01*
X013220Y000720D02*
X013225Y000682D01*
X013220Y000720D02*
X013220Y000780D01*
X010100Y003900D01*
X011780Y005340D02*
X011780Y005580D01*
X012020Y005820D01*
X012044Y005878D01*
X011454Y005878D02*
X011420Y005820D01*
D19*
X011780Y005340D03*
X011060Y005040D03*
X008700Y005180D03*
X008300Y005180D03*
X007900Y005180D03*
X007500Y005180D03*
X007100Y005180D03*
X006700Y005180D03*
X006260Y005460D03*
X005240Y004680D03*
X004880Y004680D03*
X004220Y004920D03*
X004160Y005280D03*
X003200Y005340D03*
X003860Y005700D03*
X003680Y006000D03*
X001640Y005220D03*
X003080Y004380D03*
X002900Y003600D03*
X003800Y003280D03*
X005240Y003480D03*
X006440Y002520D03*
X007220Y001920D03*
X008240Y001440D03*
X007640Y001260D03*
X004760Y001140D03*
X003980Y001260D03*
X003020Y000900D03*
X008360Y002700D03*
X008780Y002640D03*
X011120Y002280D03*
X014000Y003480D03*
X014400Y003480D03*
X014800Y003480D03*
X015200Y003480D03*
X015600Y003480D03*
X015600Y003880D03*
X015200Y003880D03*
X014800Y003880D03*
X014400Y003880D03*
X014000Y003880D03*
X014000Y004280D03*
X014400Y004280D03*
X014400Y004680D03*
X014000Y004680D03*
X014000Y005080D03*
X014400Y005080D03*
X013520Y005340D03*
X010100Y003900D03*
X008300Y004620D03*
X001640Y003240D03*
X014800Y001080D03*
X015200Y001080D03*
X015600Y001080D03*
X016000Y001080D03*
X016400Y001080D03*
X016400Y001480D03*
X016000Y001480D03*
X016000Y001880D03*
X015600Y001880D03*
X015200Y001880D03*
X015200Y002280D03*
X015600Y002280D03*
X016000Y002280D03*
X016400Y002280D03*
X015600Y002680D03*
X015200Y002680D03*
X015200Y003080D03*
X015600Y003080D03*
X016400Y001880D03*
X016400Y000680D03*
X016000Y000680D03*
X015600Y000680D03*
X015200Y000680D03*
X014800Y000680D03*
D20*
X014766Y000656D02*
X016570Y000656D01*
X016570Y000814D02*
X014766Y000814D01*
X014766Y000883D02*
X014758Y000928D01*
X014740Y000970D01*
X014714Y001009D01*
X014682Y001041D01*
X014643Y001067D01*
X014601Y001084D01*
X014556Y001093D01*
X014416Y001093D01*
X014416Y000633D01*
X014396Y000633D01*
X014136Y000633D01*
X014136Y000613D01*
X014396Y000613D01*
X014396Y000633D01*
X014396Y001093D01*
X014257Y001093D01*
X014212Y001084D01*
X014170Y001067D01*
X014136Y001044D01*
X014136Y001058D01*
X014022Y001172D01*
X013610Y001172D01*
X013521Y001083D01*
X013432Y001172D01*
X013069Y001172D01*
X010375Y003865D01*
X010375Y003955D01*
X010333Y004056D01*
X010256Y004133D01*
X010155Y004175D01*
X010075Y004175D01*
X011289Y005388D01*
X011505Y005388D01*
X011505Y005285D01*
X011547Y005184D01*
X011624Y005107D01*
X011725Y005065D01*
X011835Y005065D01*
X011936Y005107D01*
X012013Y005184D01*
X012055Y005285D01*
X012055Y005388D01*
X012251Y005388D01*
X012340Y005477D01*
X012428Y005388D01*
X012841Y005388D01*
X012930Y005477D01*
X013019Y005388D01*
X013245Y005388D01*
X013245Y005285D01*
X013287Y005184D01*
X013364Y005107D01*
X013465Y005065D01*
X013575Y005065D01*
X013676Y005107D01*
X013753Y005184D01*
X013795Y005285D01*
X013795Y005388D01*
X014022Y005388D01*
X014136Y005502D01*
X014136Y005516D01*
X014170Y005493D01*
X014212Y005476D01*
X014257Y005467D01*
X014396Y005467D01*
X014396Y005927D01*
X014136Y005927D01*
X014136Y005947D01*
X014396Y005947D01*
X014396Y005927D01*
X014416Y005927D01*
X014416Y005467D01*
X014520Y005467D01*
X014520Y004047D01*
X014567Y004000D01*
X015924Y004000D01*
X015924Y003664D01*
X015989Y003600D01*
X015920Y003600D01*
X015806Y003486D01*
X015806Y003074D01*
X015920Y002960D01*
X015989Y002960D01*
X015924Y002896D01*
X015924Y002483D01*
X016038Y002369D01*
X016570Y002369D01*
X016570Y000410D01*
X014766Y000410D01*
X014766Y000613D01*
X014417Y000613D01*
X014417Y000633D01*
X014766Y000633D01*
X014766Y000883D01*
X014738Y000973D02*
X016570Y000973D01*
X016570Y001131D02*
X014063Y001131D01*
X014396Y000973D02*
X014416Y000973D01*
X014416Y000814D02*
X014396Y000814D01*
X014396Y000656D02*
X014416Y000656D01*
X014416Y000613D02*
X014416Y000410D01*
X014396Y000410D01*
X014396Y000613D01*
X014416Y000613D01*
X014416Y000497D02*
X014396Y000497D01*
X014766Y000497D02*
X016570Y000497D01*
X016570Y001290D02*
X012951Y001290D01*
X012792Y001448D02*
X016570Y001448D01*
X016570Y001607D02*
X012634Y001607D01*
X012475Y001765D02*
X016570Y001765D01*
X016570Y001924D02*
X012317Y001924D01*
X012158Y002082D02*
X016570Y002082D01*
X016570Y002241D02*
X012000Y002241D01*
X011841Y002399D02*
X016008Y002399D01*
X015924Y002558D02*
X011683Y002558D01*
X011524Y002716D02*
X015924Y002716D01*
X015924Y002875D02*
X011366Y002875D01*
X011207Y003033D02*
X015847Y003033D01*
X015806Y003192D02*
X011049Y003192D01*
X010890Y003350D02*
X015806Y003350D01*
X015828Y003509D02*
X010732Y003509D01*
X010573Y003667D02*
X015924Y003667D01*
X015924Y003826D02*
X010415Y003826D01*
X010363Y003984D02*
X015924Y003984D01*
X014520Y004143D02*
X010233Y004143D01*
X010201Y004301D02*
X014520Y004301D01*
X014520Y004460D02*
X010360Y004460D01*
X010518Y004618D02*
X014520Y004618D01*
X014520Y004777D02*
X010677Y004777D01*
X010835Y004935D02*
X014520Y004935D01*
X014520Y005094D02*
X013644Y005094D01*
X013396Y005094D02*
X011904Y005094D01*
X011656Y005094D02*
X010994Y005094D01*
X011152Y005252D02*
X011519Y005252D01*
X012041Y005252D02*
X013259Y005252D01*
X012997Y005411D02*
X012863Y005411D01*
X012406Y005411D02*
X012273Y005411D01*
X013781Y005252D02*
X014520Y005252D01*
X014520Y005411D02*
X014044Y005411D01*
X014396Y005569D02*
X014416Y005569D01*
X014416Y005728D02*
X014396Y005728D01*
X014396Y005886D02*
X014416Y005886D01*
X014417Y005927D02*
X014417Y005947D01*
X014520Y005947D01*
X014520Y005927D01*
X014417Y005927D01*
X014416Y005947D02*
X014396Y005947D01*
X014396Y006150D01*
X014416Y006150D01*
X014416Y005947D01*
X014416Y006045D02*
X014396Y006045D01*
X008910Y005388D02*
X008910Y003850D01*
X007255Y002195D01*
X007165Y002195D01*
X007110Y002172D01*
X007110Y003161D01*
X008294Y004345D01*
X008355Y004345D01*
X008456Y004387D01*
X008533Y004464D01*
X008575Y004565D01*
X008575Y004675D01*
X008533Y004776D01*
X008456Y004853D01*
X008355Y004895D01*
X008245Y004895D01*
X008144Y004853D01*
X008067Y004776D01*
X008025Y004675D01*
X008025Y004614D01*
X006890Y003479D01*
X006191Y004178D01*
X006191Y004535D01*
X006109Y004617D01*
X006030Y004617D01*
X006030Y004793D01*
X006109Y004793D01*
X006191Y004875D01*
X006191Y005385D01*
X006109Y005467D01*
X006030Y005467D01*
X006030Y005643D01*
X006109Y005643D01*
X006191Y005725D01*
X006191Y006150D01*
X006369Y006150D01*
X006369Y005947D01*
X006719Y005947D01*
X006719Y005927D01*
X006739Y005927D01*
X006739Y005467D01*
X006878Y005467D01*
X006924Y005476D01*
X006966Y005493D01*
X007000Y005516D01*
X007000Y005502D01*
X007114Y005388D01*
X007526Y005388D01*
X007615Y005477D01*
X007704Y005388D01*
X008117Y005388D01*
X008206Y005477D01*
X008295Y005388D01*
X008707Y005388D01*
X008796Y005477D01*
X008885Y005388D01*
X008910Y005388D01*
X008863Y005411D02*
X008729Y005411D01*
X008910Y005252D02*
X006191Y005252D01*
X006166Y005411D02*
X007091Y005411D01*
X006719Y005467D02*
X006719Y005927D01*
X006369Y005927D01*
X006369Y005677D01*
X006378Y005632D01*
X006396Y005590D01*
X006422Y005551D01*
X006454Y005519D01*
X006492Y005493D01*
X006535Y005476D01*
X006580Y005467D01*
X006719Y005467D01*
X006719Y005569D02*
X006739Y005569D01*
X006739Y005728D02*
X006719Y005728D01*
X006410Y005569D02*
X006030Y005569D01*
X006191Y005728D02*
X006369Y005728D01*
X006369Y005886D02*
X006191Y005886D01*
X006191Y006045D02*
X006369Y006045D01*
X006719Y006045D02*
X006739Y006045D01*
X006739Y005947D02*
X006719Y005947D01*
X006719Y006150D01*
X006739Y006150D01*
X006739Y005947D01*
X006739Y005927D01*
X007000Y005927D01*
X007000Y005947D01*
X006739Y005947D01*
X006739Y005886D02*
X006719Y005886D01*
X005650Y005643D02*
X005650Y005467D01*
X005560Y005467D01*
X005528Y005434D01*
X005526Y005437D01*
X005492Y005471D01*
X005451Y005495D01*
X005406Y005507D01*
X005184Y005507D01*
X005184Y005148D01*
X005147Y005148D01*
X005147Y005507D01*
X004956Y005507D01*
X005092Y005643D01*
X005440Y005643D01*
X005500Y005703D01*
X005560Y005643D01*
X005650Y005643D01*
X005650Y005569D02*
X005018Y005569D01*
X005147Y005411D02*
X005184Y005411D01*
X005184Y005252D02*
X005147Y005252D01*
X005147Y005112D02*
X005184Y005112D01*
X005184Y004753D01*
X005406Y004753D01*
X005451Y004765D01*
X005492Y004789D01*
X005526Y004823D01*
X005528Y004826D01*
X005560Y004793D01*
X005650Y004793D01*
X005650Y004617D01*
X005560Y004617D01*
X005528Y004584D01*
X005526Y004587D01*
X005492Y004621D01*
X005451Y004645D01*
X005406Y004657D01*
X005184Y004657D01*
X005184Y004298D01*
X005147Y004298D01*
X005147Y004606D01*
X005155Y004625D01*
X005155Y004735D01*
X005147Y004754D01*
X005147Y005112D01*
X005147Y005094D02*
X005184Y005094D01*
X005184Y004935D02*
X005147Y004935D01*
X005147Y004777D02*
X005184Y004777D01*
X005184Y004618D02*
X005152Y004618D01*
X005495Y004618D02*
X005650Y004618D01*
X005650Y004777D02*
X005471Y004777D01*
X006030Y004777D02*
X008068Y004777D01*
X008025Y004618D02*
X006030Y004618D01*
X006191Y004460D02*
X007871Y004460D01*
X007712Y004301D02*
X006191Y004301D01*
X006226Y004143D02*
X007554Y004143D01*
X007395Y003984D02*
X006385Y003984D01*
X006543Y003826D02*
X007237Y003826D01*
X007078Y003667D02*
X006702Y003667D01*
X006860Y003509D02*
X006920Y003509D01*
X007299Y003350D02*
X008410Y003350D01*
X008568Y003509D02*
X007457Y003509D01*
X007616Y003667D02*
X008727Y003667D01*
X008885Y003826D02*
X007774Y003826D01*
X007933Y003984D02*
X008910Y003984D01*
X008910Y004143D02*
X008091Y004143D01*
X008250Y004301D02*
X008910Y004301D01*
X008910Y004460D02*
X008528Y004460D01*
X008575Y004618D02*
X008910Y004618D01*
X008910Y004777D02*
X008532Y004777D01*
X008910Y004935D02*
X006191Y004935D01*
X006191Y005094D02*
X008910Y005094D01*
X008273Y005411D02*
X008139Y005411D01*
X007682Y005411D02*
X007548Y005411D01*
X005184Y004460D02*
X005147Y004460D01*
X005147Y004301D02*
X005184Y004301D01*
X005184Y004262D02*
X005184Y003903D01*
X005406Y003903D01*
X005451Y003915D01*
X005492Y003939D01*
X005526Y003973D01*
X005528Y003976D01*
X005560Y003943D01*
X005888Y003943D01*
X006700Y003131D01*
X006730Y003101D01*
X006730Y001001D01*
X006739Y000992D01*
X006739Y000633D01*
X006719Y000633D01*
X006719Y001093D01*
X006580Y001093D01*
X006535Y001084D01*
X006492Y001067D01*
X006454Y001041D01*
X006422Y001009D01*
X006396Y000970D01*
X006378Y000928D01*
X006369Y000883D01*
X006369Y000633D01*
X006719Y000633D01*
X006719Y000613D01*
X006369Y000613D01*
X006369Y000410D01*
X006316Y000410D01*
X006316Y000529D01*
X005938Y000529D01*
X005938Y000605D01*
X005862Y000605D01*
X005862Y000983D01*
X005640Y000983D01*
X005594Y000971D01*
X005553Y000947D01*
X005520Y000913D01*
X005496Y000872D01*
X005496Y000871D01*
X005477Y000890D01*
X005537Y000950D01*
X005537Y001086D01*
X005606Y001017D01*
X006194Y001017D01*
X006276Y001099D01*
X006276Y001688D01*
X006214Y001750D01*
X006510Y001750D01*
X006610Y001850D01*
X006610Y002301D01*
X006673Y002364D01*
X006715Y002465D01*
X006715Y002575D01*
X006673Y002676D01*
X006596Y002753D01*
X006495Y002795D01*
X006385Y002795D01*
X006284Y002753D01*
X006284Y002753D01*
X006304Y002788D01*
X006316Y002833D01*
X006316Y003055D01*
X005938Y003055D01*
X005938Y002677D01*
X006160Y002677D01*
X006206Y002689D01*
X006241Y002710D01*
X006207Y002676D01*
X006193Y002643D01*
X005606Y002643D01*
X005537Y002574D01*
X005537Y002620D01*
X005477Y002680D01*
X005532Y002735D01*
X005553Y002713D01*
X005594Y002689D01*
X005640Y002677D01*
X005862Y002677D01*
X005862Y003055D01*
X005938Y003055D01*
X005938Y003131D01*
X006316Y003131D01*
X006316Y003353D01*
X006304Y003399D01*
X006280Y003440D01*
X006247Y003474D01*
X006206Y003497D01*
X006160Y003510D01*
X005938Y003510D01*
X005938Y003132D01*
X005862Y003132D01*
X005862Y003510D01*
X005640Y003510D01*
X005594Y003497D01*
X005553Y003474D01*
X005520Y003440D01*
X005515Y003432D01*
X005515Y003535D01*
X005473Y003636D01*
X005396Y003713D01*
X005295Y003755D01*
X005185Y003755D01*
X005084Y003713D01*
X005007Y003636D01*
X004965Y003535D01*
X004965Y003425D01*
X004987Y003371D01*
X004945Y003371D01*
X004930Y003356D01*
X004930Y003903D01*
X005147Y003903D01*
X005147Y004262D01*
X005184Y004262D01*
X005184Y004143D02*
X005147Y004143D01*
X005147Y003984D02*
X005184Y003984D01*
X004930Y003826D02*
X006006Y003826D01*
X006164Y003667D02*
X005442Y003667D01*
X005515Y003509D02*
X005636Y003509D01*
X005862Y003509D02*
X005938Y003509D01*
X006164Y003509D02*
X006323Y003509D01*
X006316Y003350D02*
X006481Y003350D01*
X006640Y003192D02*
X006316Y003192D01*
X005938Y003192D02*
X005862Y003192D01*
X005862Y003350D02*
X005938Y003350D01*
X005938Y003033D02*
X005862Y003033D01*
X005862Y002875D02*
X005938Y002875D01*
X005938Y002716D02*
X005862Y002716D01*
X005550Y002716D02*
X005513Y002716D01*
X006316Y002875D02*
X006730Y002875D01*
X006730Y003033D02*
X006316Y003033D01*
X006633Y002716D02*
X006730Y002716D01*
X006715Y002558D02*
X006730Y002558D01*
X007110Y002558D02*
X007617Y002558D01*
X007776Y002716D02*
X007110Y002716D01*
X007110Y002875D02*
X007934Y002875D01*
X008093Y003033D02*
X007110Y003033D01*
X007140Y003192D02*
X008251Y003192D01*
X007459Y002399D02*
X007110Y002399D01*
X007110Y002241D02*
X007300Y002241D01*
X006730Y002241D02*
X006610Y002241D01*
X006610Y002082D02*
X006730Y002082D01*
X006730Y001924D02*
X006610Y001924D01*
X006525Y001765D02*
X006730Y001765D01*
X006730Y001607D02*
X006276Y001607D01*
X006276Y001448D02*
X006730Y001448D01*
X006730Y001290D02*
X006276Y001290D01*
X006276Y001131D02*
X006730Y001131D01*
X006719Y000973D02*
X006739Y000973D01*
X006739Y000814D02*
X006719Y000814D01*
X006719Y000656D02*
X006739Y000656D01*
X006739Y000633D02*
X007000Y000633D01*
X007000Y000613D01*
X006739Y000613D01*
X006739Y000633D01*
X006739Y000613D02*
X006739Y000410D01*
X006719Y000410D01*
X006719Y000613D01*
X006739Y000613D01*
X006739Y000497D02*
X006719Y000497D01*
X006369Y000497D02*
X006316Y000497D01*
X006316Y000605D02*
X006316Y000827D01*
X006304Y000872D01*
X006280Y000913D01*
X006247Y000947D01*
X006206Y000971D01*
X006160Y000983D01*
X005938Y000983D01*
X005938Y000605D01*
X006316Y000605D01*
X006316Y000656D02*
X006369Y000656D01*
X006369Y000814D02*
X006316Y000814D01*
X006397Y000973D02*
X006198Y000973D01*
X005938Y000973D02*
X005862Y000973D01*
X005602Y000973D02*
X005537Y000973D01*
X005862Y000814D02*
X005938Y000814D01*
X005938Y000656D02*
X005862Y000656D01*
X004073Y002314D02*
X003976Y002217D01*
X003650Y002217D01*
X003650Y002395D01*
X003568Y002477D01*
X003370Y002477D01*
X003370Y002843D01*
X003509Y002843D01*
X003591Y002925D01*
X003591Y003391D01*
X003790Y003590D01*
X003790Y004502D01*
X003826Y004502D01*
X003958Y004502D01*
X004004Y004514D01*
X004045Y004538D01*
X004078Y004571D01*
X004102Y004612D01*
X004114Y004658D01*
X004114Y004665D01*
X004150Y004630D01*
X004590Y004190D01*
X004590Y004183D01*
X004503Y004270D01*
X004097Y004270D01*
X003810Y003983D01*
X003810Y003577D01*
X004097Y003290D01*
X004503Y003290D01*
X004590Y003377D01*
X004590Y003183D01*
X004503Y003270D01*
X004097Y003270D01*
X003810Y002983D01*
X003810Y002577D01*
X004073Y002314D01*
X004000Y002241D02*
X003650Y002241D01*
X003647Y002399D02*
X003988Y002399D01*
X003830Y002558D02*
X003370Y002558D01*
X003370Y002716D02*
X003810Y002716D01*
X003810Y002875D02*
X003541Y002875D01*
X003591Y003033D02*
X003860Y003033D01*
X004019Y003192D02*
X003591Y003192D01*
X003591Y003350D02*
X004037Y003350D01*
X003879Y003509D02*
X003709Y003509D01*
X003790Y003667D02*
X003810Y003667D01*
X003810Y003826D02*
X003790Y003826D01*
X003790Y003984D02*
X003811Y003984D01*
X003790Y004143D02*
X003970Y004143D01*
X003790Y004301D02*
X004479Y004301D01*
X004320Y004460D02*
X003790Y004460D01*
X003826Y004502D02*
X003826Y004918D01*
X003826Y004502D01*
X003826Y004618D02*
X003826Y004618D01*
X003826Y004777D02*
X003826Y004777D01*
X003826Y004918D02*
X003826Y004918D01*
X003945Y004918D01*
X003945Y004918D01*
X003826Y004918D01*
X003826Y004918D01*
X003790Y004918D01*
X003790Y004918D01*
X003826Y004918D01*
X003826Y004918D01*
X003826Y004918D01*
X003826Y005334D01*
X003885Y005334D01*
X003885Y005335D01*
X003924Y005429D01*
X003915Y005425D01*
X003825Y005425D01*
X003790Y005390D01*
X003790Y005334D01*
X003826Y005334D01*
X003826Y004918D01*
X003826Y004935D02*
X003826Y004935D01*
X003826Y005094D02*
X003826Y005094D01*
X003826Y005252D02*
X003826Y005252D01*
X003811Y005411D02*
X003916Y005411D01*
X004103Y004618D02*
X004162Y004618D01*
X004930Y003667D02*
X005038Y003667D01*
X004965Y003509D02*
X004930Y003509D01*
X004590Y003350D02*
X004563Y003350D01*
X004581Y003192D02*
X004590Y003192D01*
X006688Y002399D02*
X006730Y002399D01*
X013472Y001131D02*
X013569Y001131D01*
D21*
X014420Y000660D02*
X014406Y000623D01*
X014420Y000660D02*
X014420Y005040D01*
X011060Y005040D01*
X013520Y005340D02*
X013520Y005580D01*
X013760Y005820D01*
X013816Y005878D01*
X014406Y005937D02*
X014420Y005940D01*
X014406Y005937D02*
X014420Y005880D01*
X014420Y005040D01*
X008300Y004620D02*
X006890Y003210D01*
X006920Y003180D01*
X006920Y001080D01*
X007280Y000720D01*
X007320Y000682D01*
X006740Y000660D02*
X006729Y000623D01*
X006680Y000600D01*
X005900Y000600D01*
X005900Y000567D01*
X005200Y000555D02*
X005180Y000600D01*
X004760Y001020D01*
X004760Y001140D01*
X006740Y000660D02*
X006740Y002580D01*
X005540Y003780D01*
X005540Y003480D01*
X005900Y003120D01*
X005900Y003093D01*
X006890Y003210D02*
X005840Y004260D01*
X005835Y004280D01*
X005840Y004320D01*
X005840Y005100D01*
X005835Y005130D01*
X005840Y005160D01*
X005840Y005940D01*
X005835Y005980D01*
X005165Y005980D02*
X005120Y005940D01*
X004580Y005400D01*
X004580Y004980D01*
X004574Y004918D01*
X004580Y004920D01*
X004580Y004980D01*
X004880Y004680D01*
X005180Y004680D02*
X005240Y004680D01*
X005180Y004680D02*
X005180Y004320D01*
X005165Y004280D01*
X005180Y004260D01*
X005540Y003900D01*
X005540Y003780D01*
X003800Y003280D02*
X003800Y004860D01*
X003826Y004918D01*
X003860Y004920D01*
X004160Y005280D02*
X004160Y005940D01*
X004200Y005942D01*
X003200Y005340D02*
X002600Y005940D01*
X002565Y005980D01*
X002506Y005354D02*
X002600Y005220D01*
X002180Y004800D01*
X002180Y003540D01*
X002540Y003180D01*
X002565Y003180D01*
X002540Y003180D02*
X002540Y002580D01*
X002506Y002554D01*
X001760Y003120D02*
X001760Y001500D01*
X001730Y001470D01*
X002600Y000600D01*
X002600Y000555D01*
X001730Y001470D02*
X001460Y001740D01*
X001340Y001740D01*
X001300Y001780D01*
X001760Y003120D02*
X001640Y003240D01*
X003020Y004200D02*
X003200Y004020D01*
X003235Y003980D01*
X003020Y004200D02*
X003020Y004380D01*
X003080Y004380D01*
X003020Y004380D02*
X003020Y004860D01*
X002540Y005340D01*
X002506Y005354D01*
X005165Y005130D02*
X005180Y005100D01*
X005180Y004680D01*
X006260Y005460D02*
X006680Y005880D01*
X006729Y005937D01*
X006740Y005940D01*
M02*
