G75*
G70*
%OFA0B0*%
%FSLAX24Y24*%
%IPPOS*%
%LPD*%
%AMOC8*
5,1,8,0,0,1.08239X$1,22.5*
%
%ADD10R,0.0500X0.0250*%
%ADD11OC8,0.0700*%
%ADD12C,0.0060*%
%ADD13C,0.0270*%
%ADD14C,0.0160*%
%ADD15C,0.0100*%
D10*
X005900Y000718D03*
X005900Y001042D03*
X005900Y002418D03*
X005900Y002742D03*
D11*
X004300Y002780D03*
X004300Y003780D03*
X001300Y003780D03*
X001300Y002780D03*
X001300Y001780D03*
X001300Y000780D03*
X004300Y000780D03*
X001300Y004780D03*
X001300Y005780D03*
D12*
X001640Y005220D02*
X002120Y005700D01*
X003380Y005700D01*
X003680Y006000D01*
X003860Y005700D02*
X011420Y005700D01*
X011780Y005340D01*
X010100Y003900D02*
X005420Y003900D01*
X005060Y004260D01*
X003560Y004260D01*
X002900Y003600D01*
X004300Y003780D02*
X007640Y003780D01*
X008780Y002640D01*
X008360Y002700D02*
X006620Y002700D01*
X006440Y002520D01*
X006020Y002280D02*
X011120Y002280D01*
X008240Y001440D02*
X007520Y002160D01*
X004940Y002160D01*
X004340Y002760D01*
X004300Y002780D01*
X005240Y002760D02*
X005900Y002760D01*
X005900Y002742D01*
X005900Y002680D02*
X005900Y002480D01*
X005900Y002418D02*
X005900Y002400D01*
X006020Y002280D01*
X005240Y002760D02*
X005240Y003480D01*
X004220Y004920D02*
X004400Y005100D01*
X004400Y005520D01*
X004040Y005520D01*
X003980Y005460D01*
X003440Y005460D01*
X003320Y005580D01*
X002360Y005580D01*
X001580Y004800D01*
X001340Y004800D01*
X001300Y004780D01*
X004640Y001920D02*
X007220Y001920D01*
X007520Y001380D02*
X004640Y001380D01*
X004340Y001080D01*
X004340Y000780D01*
X004300Y000780D01*
X003980Y001260D02*
X004640Y001920D01*
X005900Y000980D02*
X005900Y000780D01*
X007520Y001380D02*
X007640Y001260D01*
X003020Y000900D02*
X002900Y000780D01*
X001300Y000780D01*
D13*
X003020Y000900D03*
X003980Y001260D03*
X004760Y001140D03*
X007220Y001920D03*
X008240Y001440D03*
X007640Y001260D03*
X006440Y002520D03*
X008360Y002700D03*
X008780Y002640D03*
X011120Y002280D03*
X014000Y003480D03*
X014400Y003480D03*
X014800Y003480D03*
X015200Y003480D03*
X015600Y003480D03*
X015600Y003880D03*
X015200Y003880D03*
X014800Y003880D03*
X014400Y003880D03*
X014000Y003880D03*
X014000Y004280D03*
X014400Y004280D03*
X014400Y004680D03*
X014000Y004680D03*
X014000Y005080D03*
X014400Y005080D03*
X013520Y005340D03*
X011780Y005340D03*
X011060Y005040D03*
X008700Y005180D03*
X008300Y005180D03*
X007900Y005180D03*
X007500Y005180D03*
X007100Y005180D03*
X006700Y005180D03*
X006260Y005460D03*
X005240Y004680D03*
X004880Y004680D03*
X004220Y004920D03*
X004160Y005280D03*
X003200Y005340D03*
X003860Y005700D03*
X003680Y006000D03*
X001640Y005220D03*
X003080Y004380D03*
X002900Y003600D03*
X003800Y003280D03*
X005240Y003480D03*
X008300Y004620D03*
X010100Y003900D03*
X015200Y003080D03*
X015600Y003080D03*
X015600Y002680D03*
X015200Y002680D03*
X015200Y002280D03*
X015600Y002280D03*
X016000Y002280D03*
X016400Y002280D03*
X016400Y001880D03*
X016000Y001880D03*
X015600Y001880D03*
X015200Y001880D03*
X016000Y001480D03*
X016400Y001480D03*
X016400Y001080D03*
X016000Y001080D03*
X015600Y001080D03*
X015200Y001080D03*
X014800Y001080D03*
X014800Y000680D03*
X015200Y000680D03*
X015600Y000680D03*
X016000Y000680D03*
X016400Y000680D03*
X001640Y003240D03*
D14*
X001790Y000577D02*
X001623Y000410D01*
X003977Y000410D01*
X003810Y000577D01*
X003810Y000983D01*
X003845Y001018D01*
X003824Y001027D01*
X003747Y001104D01*
X003705Y001205D01*
X003705Y001315D01*
X003747Y001416D01*
X003824Y001493D01*
X003925Y001535D01*
X004015Y001535D01*
X004470Y001990D01*
X004570Y002090D01*
X004770Y002090D01*
X004536Y002323D01*
X004503Y002290D01*
X004097Y002290D01*
X003810Y002577D01*
X003810Y002983D01*
X004097Y003270D01*
X004503Y003270D01*
X004790Y002983D01*
X004790Y002577D01*
X004777Y002564D01*
X005010Y002330D01*
X005510Y002330D01*
X005510Y002590D01*
X005170Y002590D01*
X005070Y002690D01*
X005070Y003261D01*
X005007Y003324D01*
X004965Y003425D01*
X004965Y003535D01*
X004996Y003610D01*
X004790Y003610D01*
X004790Y003577D01*
X004503Y003290D01*
X004097Y003290D01*
X003810Y003577D01*
X003810Y003983D01*
X003917Y004090D01*
X003630Y004090D01*
X003175Y003635D01*
X003175Y003545D01*
X003133Y003444D01*
X003056Y003367D01*
X002955Y003325D01*
X002845Y003325D01*
X002744Y003367D01*
X002667Y003444D01*
X002625Y003545D01*
X002625Y003655D01*
X002667Y003756D01*
X002744Y003833D01*
X002845Y003875D01*
X002935Y003875D01*
X003186Y004126D01*
X003135Y004105D01*
X003025Y004105D01*
X002924Y004147D01*
X002847Y004224D01*
X002805Y004325D01*
X002805Y004435D01*
X002847Y004536D01*
X002924Y004613D01*
X003025Y004655D01*
X003135Y004655D01*
X003195Y004630D01*
X004605Y004630D01*
X004605Y004735D01*
X004647Y004836D01*
X004724Y004913D01*
X004825Y004955D01*
X004935Y004955D01*
X005036Y004913D01*
X005113Y004836D01*
X005155Y004735D01*
X005155Y004674D01*
X005169Y004660D01*
X005280Y004549D01*
X005319Y004510D01*
X008048Y004510D01*
X008025Y004565D01*
X008025Y004675D01*
X008067Y004776D01*
X008144Y004853D01*
X008245Y004895D01*
X008355Y004895D01*
X008456Y004853D01*
X008499Y004810D01*
X012721Y004810D01*
X013245Y005334D01*
X013245Y005395D01*
X013287Y005496D01*
X013364Y005573D01*
X013465Y005615D01*
X013575Y005615D01*
X013676Y005573D01*
X013753Y005496D01*
X013795Y005395D01*
X013795Y005285D01*
X013753Y005184D01*
X013676Y005107D01*
X013575Y005065D01*
X013514Y005065D01*
X012990Y004541D01*
X012879Y004430D01*
X011579Y004430D01*
X011610Y004399D01*
X011610Y002141D01*
X011499Y002030D01*
X010239Y000770D01*
X006290Y000770D01*
X006290Y000535D01*
X006208Y000453D01*
X005592Y000453D01*
X005515Y000530D01*
X005101Y000530D01*
X004990Y000641D01*
X004790Y000841D01*
X004790Y000577D01*
X004623Y000410D01*
X016570Y000410D01*
X016570Y004000D01*
X014567Y004000D01*
X014520Y004047D01*
X014520Y006150D01*
X003916Y006150D01*
X003955Y006055D01*
X003955Y005958D01*
X004016Y005933D01*
X004079Y005870D01*
X011490Y005870D01*
X011590Y005770D01*
X011745Y005615D01*
X011835Y005615D01*
X011936Y005573D01*
X012013Y005496D01*
X012055Y005395D01*
X012055Y005285D01*
X012013Y005184D01*
X011936Y005107D01*
X011835Y005065D01*
X011725Y005065D01*
X011624Y005107D01*
X011547Y005184D01*
X011505Y005285D01*
X011505Y005375D01*
X011350Y005530D01*
X004570Y005530D01*
X004570Y005030D01*
X004495Y004955D01*
X004495Y004865D01*
X004453Y004764D01*
X004376Y004687D01*
X004275Y004645D01*
X004165Y004645D01*
X004064Y004687D01*
X003987Y004764D01*
X003945Y004865D01*
X003945Y004975D01*
X003983Y005068D01*
X003961Y005090D01*
X003315Y005090D01*
X003255Y005065D01*
X003254Y005065D01*
X001950Y003761D01*
X001950Y003161D01*
X001873Y003085D01*
X001873Y003084D01*
X001809Y003020D01*
X001830Y003000D01*
X001830Y002800D01*
X001320Y002800D01*
X001320Y002760D01*
X001830Y002760D01*
X001830Y002560D01*
X001521Y002252D01*
X001790Y001983D01*
X001790Y001577D01*
X001503Y001290D01*
X001097Y001290D01*
X001030Y001357D01*
X001030Y001203D01*
X001097Y001270D01*
X001503Y001270D01*
X001790Y000983D01*
X001790Y000950D01*
X002745Y000950D01*
X002745Y000955D01*
X002787Y001056D01*
X002864Y001133D01*
X002965Y001175D01*
X003075Y001175D01*
X003176Y001133D01*
X003253Y001056D01*
X003295Y000955D01*
X003295Y000845D01*
X003253Y000744D01*
X003176Y000667D01*
X003075Y000625D01*
X002985Y000625D01*
X002970Y000610D01*
X001790Y000610D01*
X001790Y000577D01*
X001710Y000497D02*
X003890Y000497D01*
X003810Y000656D02*
X003148Y000656D01*
X003282Y000814D02*
X003810Y000814D01*
X003810Y000973D02*
X003288Y000973D01*
X003178Y001131D02*
X003736Y001131D01*
X003705Y001290D02*
X001030Y001290D01*
X001642Y001131D02*
X002862Y001131D01*
X002752Y000973D02*
X001790Y000973D01*
X001661Y001448D02*
X003779Y001448D01*
X004086Y001607D02*
X001790Y001607D01*
X001790Y001765D02*
X004245Y001765D01*
X004403Y001924D02*
X001790Y001924D01*
X001691Y002082D02*
X004562Y002082D01*
X004619Y002241D02*
X001532Y002241D01*
X001669Y002399D02*
X003988Y002399D01*
X003830Y002558D02*
X001827Y002558D01*
X001830Y002716D02*
X003810Y002716D01*
X003810Y002875D02*
X001830Y002875D01*
X001822Y003033D02*
X003860Y003033D01*
X004019Y003192D02*
X001950Y003192D01*
X001950Y003350D02*
X002785Y003350D01*
X002640Y003509D02*
X001950Y003509D01*
X001950Y003667D02*
X002630Y003667D01*
X002737Y003826D02*
X002014Y003826D01*
X002173Y003984D02*
X003044Y003984D01*
X002935Y004143D02*
X002331Y004143D01*
X002490Y004301D02*
X002815Y004301D01*
X002815Y004460D02*
X002648Y004460D01*
X002807Y004618D02*
X002936Y004618D01*
X002965Y004777D02*
X003982Y004777D01*
X003945Y004935D02*
X003124Y004935D01*
X004458Y004777D02*
X004622Y004777D01*
X004495Y004935D02*
X004777Y004935D01*
X004983Y004935D02*
X012846Y004935D01*
X013005Y005094D02*
X011904Y005094D01*
X011656Y005094D02*
X004570Y005094D01*
X004570Y005252D02*
X011519Y005252D01*
X011469Y005411D02*
X004570Y005411D01*
X004063Y005886D02*
X014520Y005886D01*
X014520Y006045D02*
X003955Y006045D01*
X005138Y004777D02*
X008068Y004777D01*
X008025Y004618D02*
X005211Y004618D01*
X003811Y003984D02*
X003524Y003984D01*
X003366Y003826D02*
X003810Y003826D01*
X003810Y003667D02*
X003207Y003667D01*
X003160Y003509D02*
X003879Y003509D01*
X004037Y003350D02*
X003015Y003350D01*
X004563Y003350D02*
X004996Y003350D01*
X004965Y003509D02*
X004721Y003509D01*
X004581Y003192D02*
X005070Y003192D01*
X005070Y003033D02*
X004740Y003033D01*
X004790Y002875D02*
X005070Y002875D01*
X005070Y002716D02*
X004790Y002716D01*
X004783Y002558D02*
X005510Y002558D01*
X005510Y002399D02*
X004941Y002399D01*
X004817Y000814D02*
X004790Y000814D01*
X004790Y000656D02*
X004976Y000656D01*
X004710Y000497D02*
X005548Y000497D01*
X006252Y000497D02*
X016570Y000497D01*
X016570Y000656D02*
X006290Y000656D01*
X010283Y000814D02*
X016570Y000814D01*
X016570Y000973D02*
X010441Y000973D01*
X010600Y001131D02*
X016570Y001131D01*
X016570Y001290D02*
X010758Y001290D01*
X010917Y001448D02*
X016570Y001448D01*
X016570Y001607D02*
X011075Y001607D01*
X011234Y001765D02*
X016570Y001765D01*
X016570Y001924D02*
X011392Y001924D01*
X011551Y002082D02*
X016570Y002082D01*
X016570Y002241D02*
X011610Y002241D01*
X011610Y002399D02*
X016570Y002399D01*
X016570Y002558D02*
X011610Y002558D01*
X011610Y002716D02*
X016570Y002716D01*
X016570Y002875D02*
X011610Y002875D01*
X011610Y003033D02*
X016570Y003033D01*
X016570Y003192D02*
X011610Y003192D01*
X011610Y003350D02*
X016570Y003350D01*
X016570Y003509D02*
X011610Y003509D01*
X011610Y003667D02*
X016570Y003667D01*
X016570Y003826D02*
X011610Y003826D01*
X011610Y003984D02*
X016570Y003984D01*
X014520Y004143D02*
X011610Y004143D01*
X011610Y004301D02*
X014520Y004301D01*
X014520Y004460D02*
X012908Y004460D01*
X013067Y004618D02*
X014520Y004618D01*
X014520Y004777D02*
X013225Y004777D01*
X013384Y004935D02*
X014520Y004935D01*
X014520Y005094D02*
X013644Y005094D01*
X013781Y005252D02*
X014520Y005252D01*
X014520Y005411D02*
X013788Y005411D01*
X013680Y005569D02*
X014520Y005569D01*
X014520Y005728D02*
X011633Y005728D01*
X011940Y005569D02*
X013360Y005569D01*
X013252Y005411D02*
X012048Y005411D01*
X012041Y005252D02*
X013163Y005252D01*
D15*
X013520Y005340D02*
X012800Y004620D01*
X008300Y004620D01*
X006260Y005400D02*
X006260Y005460D01*
X005780Y004980D01*
X005240Y004980D01*
X005240Y004680D01*
X005090Y004470D02*
X004880Y004680D01*
X005090Y004470D02*
X005060Y004440D01*
X003140Y004440D01*
X003080Y004380D01*
X003020Y004680D02*
X002600Y004260D01*
X002600Y002820D01*
X003340Y002820D01*
X003800Y003280D01*
X002600Y002820D02*
X001340Y002820D01*
X001300Y002780D01*
X001640Y003240D02*
X001760Y003240D01*
X001760Y003840D01*
X003200Y005280D01*
X003200Y005340D01*
X003260Y005280D01*
X004160Y005280D01*
X004640Y004980D02*
X004280Y004620D01*
X003200Y004620D01*
X003140Y004680D01*
X003020Y004680D01*
X004640Y004980D02*
X005240Y004980D01*
X006260Y005400D02*
X010700Y005400D01*
X011060Y005040D01*
X011420Y004320D02*
X005240Y004320D01*
X005090Y004470D01*
X010160Y000960D02*
X011420Y002220D01*
X011420Y004320D01*
X005180Y000720D02*
X004760Y001140D01*
X005180Y000720D02*
X005900Y000720D01*
X005900Y000718D01*
X005960Y000960D02*
X010160Y000960D01*
X005960Y000960D02*
X005900Y001020D01*
X005900Y001042D01*
M02*
