G75*
G70*
%OFA0B0*%
%FSLAX24Y24*%
%IPPOS*%
%LPD*%
%AMOC8*
5,1,8,0,0,1.08239X$1,22.5*
%
%ADD10C,0.0000*%
%ADD11C,0.0040*%
%ADD12C,0.0100*%
%ADD13C,0.0050*%
%ADD14C,0.0060*%
%ADD15R,0.0200X0.0200*%
%ADD16C,0.0030*%
%ADD17R,0.0197X0.0256*%
%ADD18C,0.0020*%
%ADD19C,0.0001*%
%ADD20R,0.0197X0.0128*%
%ADD21R,0.0098X0.0059*%
%ADD22R,0.0069X0.0157*%
%ADD23R,0.0079X0.0079*%
%ADD24R,0.0118X0.0118*%
%ADD25R,0.0030X0.0089*%
%ADD26R,0.0197X0.0374*%
%ADD27R,0.0180X0.0300*%
%ADD28C,0.0220*%
%ADD29C,0.0080*%
%ADD30R,0.0374X0.0197*%
%ADD31R,0.0300X0.0180*%
D10*
X000800Y000800D02*
X000800Y009800D01*
X016800Y009800D01*
X016800Y000800D01*
X000800Y000800D01*
D11*
X000989Y001920D02*
X001066Y001920D01*
X001105Y001959D01*
X001105Y002036D01*
X001027Y002036D01*
X000950Y001959D02*
X000989Y001920D01*
X000950Y001959D02*
X000950Y002113D01*
X000989Y002152D01*
X001066Y002152D01*
X001105Y002113D01*
X001200Y002152D02*
X001355Y001920D01*
X001355Y002152D01*
X001451Y002152D02*
X001567Y002152D01*
X001606Y002113D01*
X001606Y001959D01*
X001567Y001920D01*
X001451Y001920D01*
X001451Y002152D01*
X001200Y002152D02*
X001200Y001920D01*
X001920Y002524D02*
X001920Y002601D01*
X001959Y002640D01*
X002036Y002601D02*
X002075Y002640D01*
X002113Y002640D01*
X002152Y002601D01*
X002152Y002524D01*
X002113Y002485D01*
X002036Y002524D02*
X002036Y002601D01*
X002036Y002524D02*
X001997Y002485D01*
X001959Y002485D01*
X001920Y002524D01*
X002152Y002736D02*
X002152Y002890D01*
X002152Y002813D02*
X001920Y002813D01*
X001959Y002986D02*
X001920Y003025D01*
X001920Y003102D01*
X001959Y003141D01*
X002113Y003141D01*
X002152Y003102D01*
X002152Y003025D01*
X002113Y002986D01*
X002760Y003135D02*
X003040Y003135D01*
X003040Y003470D02*
X002760Y003470D01*
X002152Y003526D02*
X002152Y003603D01*
X002113Y003642D01*
X001959Y003642D01*
X001920Y003603D01*
X001920Y003526D01*
X001959Y003487D01*
X002113Y003487D02*
X002152Y003526D01*
X002113Y003737D02*
X002152Y003776D01*
X002152Y003854D01*
X002113Y003892D01*
X001959Y003892D01*
X001920Y003854D01*
X001920Y003776D01*
X001959Y003737D01*
X001997Y003988D02*
X002152Y003988D01*
X001997Y003988D02*
X001920Y004065D01*
X001997Y004143D01*
X002152Y004143D01*
X002113Y004489D02*
X001959Y004489D01*
X001920Y004528D01*
X001920Y004644D01*
X002152Y004644D01*
X002152Y004528D01*
X002113Y004489D01*
X002152Y004739D02*
X001920Y004739D01*
X002152Y004894D01*
X001920Y004894D01*
X001959Y004990D02*
X002036Y004990D01*
X002036Y005067D01*
X001959Y004990D02*
X001920Y005028D01*
X001920Y005106D01*
X001959Y005145D01*
X002113Y005145D01*
X002152Y005106D01*
X002152Y005028D01*
X002113Y004990D01*
X002760Y005135D02*
X003040Y005135D01*
X003040Y005470D02*
X002760Y005470D01*
X002152Y005529D02*
X002152Y005645D01*
X001920Y005645D01*
X001920Y005529D01*
X001959Y005491D01*
X002113Y005491D01*
X002152Y005529D01*
X002152Y005741D02*
X001920Y005896D01*
X001920Y005741D02*
X002152Y005896D01*
X002152Y005992D02*
X002152Y006146D01*
X002152Y006069D02*
X001920Y006069D01*
X001959Y006492D02*
X002113Y006492D01*
X002152Y006531D01*
X002152Y006647D01*
X001920Y006647D01*
X001920Y006531D01*
X001959Y006492D01*
X001920Y006743D02*
X002152Y006898D01*
X002113Y006993D02*
X002036Y006993D01*
X001997Y007032D01*
X001997Y007148D01*
X001920Y007148D02*
X002152Y007148D01*
X002152Y007032D01*
X002113Y006993D01*
X001997Y007071D02*
X001920Y006993D01*
X001920Y006898D02*
X002152Y006743D01*
X002760Y006265D02*
X003040Y006265D01*
X003040Y005930D02*
X002760Y005930D01*
X003830Y005860D02*
X003830Y006140D01*
X004165Y006140D02*
X004165Y005860D01*
X004483Y005500D02*
X004483Y005367D01*
X004483Y005434D02*
X004683Y005434D01*
X004683Y005279D02*
X004683Y005146D01*
X004483Y005146D01*
X004483Y005279D01*
X004583Y005213D02*
X004583Y005146D01*
X004616Y005058D02*
X004650Y005058D01*
X004683Y005025D01*
X004683Y004958D01*
X004650Y004925D01*
X004583Y004958D02*
X004550Y004925D01*
X004516Y004925D01*
X004483Y004958D01*
X004483Y005025D01*
X004516Y005058D01*
X004583Y005025D02*
X004616Y005058D01*
X004583Y005025D02*
X004583Y004958D01*
X004483Y004837D02*
X004483Y004704D01*
X004683Y004704D01*
X004683Y004837D01*
X004583Y004771D02*
X004583Y004704D01*
X004583Y004616D02*
X004516Y004616D01*
X004483Y004583D01*
X004483Y004483D01*
X004683Y004483D01*
X004616Y004483D02*
X004616Y004583D01*
X004583Y004616D01*
X004616Y004550D02*
X004683Y004616D01*
X004170Y004560D02*
X004170Y004840D01*
X003835Y004840D02*
X003835Y004560D01*
X005120Y003920D02*
X005220Y003920D01*
X005253Y003887D01*
X005253Y003820D01*
X005220Y003787D01*
X005120Y003787D01*
X005120Y003720D02*
X005120Y003920D01*
X005341Y003920D02*
X005341Y003720D01*
X005408Y003787D01*
X005474Y003720D01*
X005474Y003920D01*
X005562Y003920D02*
X005662Y003920D01*
X005695Y003887D01*
X005695Y003820D01*
X005662Y003787D01*
X005562Y003787D01*
X005629Y003787D02*
X005695Y003720D01*
X005562Y003720D02*
X005562Y003920D01*
X005303Y003626D02*
X005864Y003626D01*
X005794Y003577D02*
X005796Y003589D01*
X005801Y003600D01*
X005809Y003609D01*
X005820Y003615D01*
X005832Y003618D01*
X005844Y003617D01*
X005856Y003613D01*
X005865Y003605D01*
X005872Y003595D01*
X005876Y003583D01*
X005876Y003571D01*
X005872Y003559D01*
X005865Y003549D01*
X005855Y003541D01*
X005844Y003537D01*
X005832Y003536D01*
X005820Y003539D01*
X005809Y003545D01*
X005801Y003554D01*
X005796Y003565D01*
X005794Y003577D01*
X005707Y003174D02*
X005293Y003174D01*
X005253Y003120D02*
X005253Y002953D01*
X005220Y002920D01*
X005153Y002920D01*
X005120Y002953D01*
X005120Y003120D01*
X005341Y003087D02*
X005341Y003053D01*
X005374Y003020D01*
X005441Y003020D01*
X005474Y002987D01*
X005474Y002953D01*
X005441Y002920D01*
X005374Y002920D01*
X005341Y002953D01*
X005341Y003087D02*
X005374Y003120D01*
X005441Y003120D01*
X005474Y003087D01*
X005562Y003120D02*
X005662Y003120D01*
X005695Y003087D01*
X005695Y003020D01*
X005662Y002987D01*
X005562Y002987D01*
X005629Y002987D02*
X005695Y002920D01*
X005562Y002920D02*
X005562Y003120D01*
X005303Y002826D02*
X005864Y002826D01*
X005794Y002777D02*
X005796Y002789D01*
X005801Y002800D01*
X005809Y002809D01*
X005820Y002815D01*
X005832Y002818D01*
X005844Y002817D01*
X005856Y002813D01*
X005865Y002805D01*
X005872Y002795D01*
X005876Y002783D01*
X005876Y002771D01*
X005872Y002759D01*
X005865Y002749D01*
X005855Y002741D01*
X005844Y002737D01*
X005832Y002736D01*
X005820Y002739D01*
X005809Y002745D01*
X005801Y002754D01*
X005796Y002765D01*
X005794Y002777D01*
X005707Y002374D02*
X005293Y002374D01*
X005363Y002152D02*
X005363Y002113D01*
X005285Y002036D01*
X005285Y001920D01*
X005285Y002036D02*
X005208Y002113D01*
X005208Y002152D01*
X005112Y002113D02*
X005073Y002152D01*
X004996Y002152D01*
X004957Y002113D01*
X004957Y002075D01*
X004996Y002036D01*
X005073Y002036D01*
X005112Y001997D01*
X005112Y001959D01*
X005073Y001920D01*
X004996Y001920D01*
X004957Y001959D01*
X004611Y001959D02*
X004572Y001920D01*
X004495Y001920D01*
X004456Y001959D01*
X004495Y002036D02*
X004572Y002036D01*
X004611Y001997D01*
X004611Y001959D01*
X004495Y002036D02*
X004456Y002075D01*
X004456Y002113D01*
X004495Y002152D01*
X004572Y002152D01*
X004611Y002113D01*
X004361Y002152D02*
X004206Y002152D01*
X004206Y001920D01*
X004361Y001920D01*
X004283Y002036D02*
X004206Y002036D01*
X004110Y002036D02*
X004072Y001997D01*
X003955Y001997D01*
X003955Y001920D02*
X003955Y002152D01*
X004072Y002152D01*
X004110Y002113D01*
X004110Y002036D01*
X004033Y001997D02*
X004110Y001920D01*
X003609Y001959D02*
X003571Y001920D01*
X003493Y001920D01*
X003455Y001959D01*
X003359Y001997D02*
X003359Y002152D01*
X003455Y002113D02*
X003493Y002152D01*
X003571Y002152D01*
X003609Y002113D01*
X003609Y002075D01*
X003571Y002036D01*
X003609Y001997D01*
X003609Y001959D01*
X003571Y002036D02*
X003532Y002036D01*
X003359Y001997D02*
X003281Y001920D01*
X003204Y001997D01*
X003204Y002152D01*
X003108Y002113D02*
X003108Y002075D01*
X003070Y002036D01*
X003108Y001997D01*
X003108Y001959D01*
X003070Y001920D01*
X002992Y001920D01*
X002954Y001959D01*
X003031Y002036D02*
X003070Y002036D01*
X003108Y002113D02*
X003070Y002152D01*
X002992Y002152D01*
X002954Y002113D01*
X002525Y002152D02*
X002525Y001997D01*
X002448Y001920D01*
X002370Y001997D01*
X002370Y002152D01*
X002275Y002152D02*
X002120Y002152D01*
X002120Y002036D01*
X002197Y002075D01*
X002236Y002075D01*
X002275Y002036D01*
X002275Y001959D01*
X002236Y001920D01*
X002159Y001920D01*
X002120Y001959D01*
X004060Y002435D02*
X004340Y002435D01*
X004340Y002770D02*
X004060Y002770D01*
X004060Y003235D02*
X004340Y003235D01*
X004340Y003570D02*
X004060Y003570D01*
X005458Y002152D02*
X005613Y001920D01*
X005613Y002152D01*
X005458Y002152D02*
X005458Y001920D01*
X005959Y001959D02*
X005998Y001920D01*
X006075Y001920D01*
X006114Y001959D01*
X006210Y001920D02*
X006364Y001920D01*
X006460Y001920D02*
X006460Y002152D01*
X006499Y002036D02*
X006615Y001920D01*
X006460Y001997D02*
X006615Y002152D01*
X006961Y002113D02*
X006961Y001959D01*
X007000Y001920D01*
X007077Y001920D01*
X007116Y001959D01*
X007116Y002113D01*
X007077Y002152D01*
X007000Y002152D01*
X006961Y002113D01*
X007211Y002152D02*
X007211Y001959D01*
X007250Y001920D01*
X007327Y001920D01*
X007366Y001959D01*
X007366Y002152D01*
X007462Y002152D02*
X007617Y002152D01*
X007539Y002152D02*
X007539Y001920D01*
X008150Y001920D02*
X008227Y001920D01*
X008189Y001920D02*
X008189Y002152D01*
X008227Y002152D02*
X008150Y002152D01*
X008317Y002152D02*
X008472Y001920D01*
X008472Y002152D01*
X008317Y002152D02*
X008317Y001920D01*
X008965Y001959D02*
X009003Y001920D01*
X009081Y001920D01*
X009119Y001959D01*
X009215Y001959D02*
X009254Y001920D01*
X009331Y001920D01*
X009370Y001959D01*
X009370Y001997D01*
X009331Y002036D01*
X009254Y002036D01*
X009215Y002075D01*
X009215Y002113D01*
X009254Y002152D01*
X009331Y002152D01*
X009370Y002113D01*
X009465Y002152D02*
X009582Y002152D01*
X009620Y002113D01*
X009620Y002075D01*
X009582Y002036D01*
X009465Y002036D01*
X009465Y001920D02*
X009582Y001920D01*
X009620Y001959D01*
X009620Y001997D01*
X009582Y002036D01*
X009465Y001920D02*
X009465Y002152D01*
X009119Y002113D02*
X009081Y002152D01*
X009003Y002152D01*
X008965Y002113D01*
X008965Y001959D01*
X009966Y001959D02*
X010005Y001920D01*
X010082Y001920D01*
X010121Y001959D01*
X010121Y001997D01*
X010082Y002036D01*
X010005Y002036D01*
X009966Y002075D01*
X009966Y002113D01*
X010005Y002152D01*
X010082Y002152D01*
X010121Y002113D01*
X010217Y002113D02*
X010217Y001959D01*
X010255Y001920D01*
X010333Y001920D01*
X010372Y001959D01*
X010467Y001997D02*
X010622Y002152D01*
X010467Y002152D02*
X010467Y001920D01*
X010506Y002036D02*
X010622Y001920D01*
X010880Y001920D02*
X010880Y002152D01*
X010957Y002075D01*
X011035Y002152D01*
X011035Y001920D01*
X011130Y001920D02*
X011208Y001920D01*
X011169Y001920D02*
X011169Y002152D01*
X011130Y002152D02*
X011208Y002152D01*
X011297Y002113D02*
X011297Y002075D01*
X011336Y002036D01*
X011414Y002036D01*
X011452Y001997D01*
X011452Y001959D01*
X011414Y001920D01*
X011336Y001920D01*
X011297Y001959D01*
X011297Y002113D02*
X011336Y002152D01*
X011414Y002152D01*
X011452Y002113D01*
X011548Y002113D02*
X011548Y001959D01*
X011587Y001920D01*
X011664Y001920D01*
X011703Y001959D01*
X011703Y002113D01*
X011664Y002152D01*
X011587Y002152D01*
X011548Y002113D01*
X011890Y002152D02*
X011890Y001920D01*
X012045Y001920D02*
X012045Y002152D01*
X011967Y002075D01*
X011890Y002152D01*
X012140Y002113D02*
X012140Y001959D01*
X012179Y001920D01*
X012257Y001920D01*
X012295Y001959D01*
X012295Y002113D01*
X012257Y002152D01*
X012179Y002152D01*
X012140Y002113D01*
X012391Y002113D02*
X012391Y002075D01*
X012430Y002036D01*
X012507Y002036D01*
X012546Y001997D01*
X012546Y001959D01*
X012507Y001920D01*
X012430Y001920D01*
X012391Y001959D01*
X012641Y001920D02*
X012719Y001920D01*
X012680Y001920D02*
X012680Y002152D01*
X012641Y002152D02*
X012719Y002152D01*
X012546Y002113D02*
X012507Y002152D01*
X012430Y002152D01*
X012391Y002113D01*
X010372Y002113D02*
X010333Y002152D01*
X010255Y002152D01*
X010217Y002113D01*
X006210Y002152D02*
X006210Y001920D01*
X005959Y001959D02*
X005959Y002113D01*
X005998Y002152D01*
X006075Y002152D01*
X006114Y002113D01*
X005640Y006230D02*
X005360Y006230D01*
X005360Y006565D02*
X005640Y006565D01*
X005640Y007080D02*
X005360Y007080D01*
X005360Y007415D02*
X005640Y007415D01*
X005640Y007930D02*
X005360Y007930D01*
X005360Y008265D02*
X005640Y008265D01*
X005571Y008420D02*
X005493Y008420D01*
X005455Y008459D01*
X005493Y008536D02*
X005571Y008536D01*
X005609Y008497D01*
X005609Y008459D01*
X005571Y008420D01*
X005281Y008420D02*
X005281Y008652D01*
X005204Y008652D02*
X005359Y008652D01*
X005455Y008613D02*
X005455Y008575D01*
X005493Y008536D01*
X005455Y008613D02*
X005493Y008652D01*
X005571Y008652D01*
X005609Y008613D01*
X005955Y008652D02*
X006110Y008652D01*
X006033Y008652D02*
X006033Y008420D01*
X006206Y008420D02*
X006361Y008652D01*
X006456Y008652D02*
X006572Y008652D01*
X006611Y008613D01*
X006611Y008459D01*
X006572Y008420D01*
X006456Y008420D01*
X006456Y008652D01*
X006206Y008652D02*
X006361Y008420D01*
X007120Y008420D02*
X007120Y008652D01*
X007236Y008652D01*
X007275Y008613D01*
X007275Y008536D01*
X007236Y008497D01*
X007120Y008497D01*
X007370Y008420D02*
X007525Y008575D01*
X007525Y008613D01*
X007487Y008652D01*
X007409Y008652D01*
X007370Y008613D01*
X007370Y008420D02*
X007525Y008420D01*
X008122Y008420D02*
X008122Y008652D01*
X008238Y008652D01*
X008277Y008613D01*
X008277Y008536D01*
X008238Y008497D01*
X008122Y008497D01*
X008372Y008459D02*
X008411Y008420D01*
X008488Y008420D01*
X008527Y008459D01*
X008527Y008497D01*
X008488Y008536D01*
X008450Y008536D01*
X008488Y008536D02*
X008527Y008575D01*
X008527Y008613D01*
X008488Y008652D01*
X008411Y008652D01*
X008372Y008613D01*
X009124Y008652D02*
X009124Y008420D01*
X009124Y008497D02*
X009240Y008497D01*
X009278Y008536D01*
X009278Y008613D01*
X009240Y008652D01*
X009124Y008652D01*
X009374Y008536D02*
X009529Y008536D01*
X009490Y008420D02*
X009490Y008652D01*
X009374Y008536D01*
X010125Y008497D02*
X010242Y008497D01*
X010280Y008536D01*
X010280Y008613D01*
X010242Y008652D01*
X010125Y008652D01*
X010125Y008420D01*
X010376Y008459D02*
X010415Y008420D01*
X010492Y008420D01*
X010531Y008459D01*
X010531Y008536D01*
X010492Y008575D01*
X010453Y008575D01*
X010376Y008536D01*
X010376Y008652D01*
X010531Y008652D01*
X011127Y008652D02*
X011127Y008420D01*
X011127Y008497D02*
X011243Y008497D01*
X011282Y008536D01*
X011282Y008613D01*
X011243Y008652D01*
X011127Y008652D01*
X011378Y008536D02*
X011378Y008459D01*
X011416Y008420D01*
X011494Y008420D01*
X011533Y008459D01*
X011533Y008497D01*
X011494Y008536D01*
X011378Y008536D01*
X011455Y008613D01*
X011533Y008652D01*
X012129Y008652D02*
X012129Y008420D01*
X012129Y008497D02*
X012245Y008497D01*
X012284Y008536D01*
X012284Y008613D01*
X012245Y008652D01*
X012129Y008652D01*
X012380Y008652D02*
X012534Y008652D01*
X012534Y008613D01*
X012380Y008459D01*
X012380Y008420D01*
X005108Y008420D02*
X005031Y008497D01*
X005070Y008497D02*
X004954Y008497D01*
X004954Y008420D02*
X004954Y008652D01*
X005070Y008652D01*
X005108Y008613D01*
X005108Y008536D01*
X005070Y008497D01*
X004608Y008497D02*
X004608Y008459D01*
X004569Y008420D01*
X004491Y008420D01*
X004453Y008459D01*
X004491Y008536D02*
X004569Y008536D01*
X004608Y008497D01*
X004608Y008613D02*
X004569Y008652D01*
X004491Y008652D01*
X004453Y008613D01*
X004453Y008575D01*
X004491Y008536D01*
X004357Y008652D02*
X004202Y008652D01*
X004280Y008652D02*
X004280Y008420D01*
X004107Y008459D02*
X004068Y008420D01*
X003991Y008420D01*
X003952Y008459D01*
X003952Y008613D01*
X003991Y008652D01*
X004068Y008652D01*
X004107Y008613D01*
X003606Y008613D02*
X003606Y008459D01*
X003567Y008420D01*
X003451Y008420D01*
X003451Y008652D01*
X003567Y008652D01*
X003606Y008613D01*
X003355Y008652D02*
X003200Y008420D01*
X003105Y008420D02*
X003027Y008497D01*
X003066Y008497D02*
X002950Y008497D01*
X002950Y008420D02*
X002950Y008652D01*
X003066Y008652D01*
X003105Y008613D01*
X003105Y008536D01*
X003066Y008497D01*
X003200Y008652D02*
X003355Y008420D01*
X003040Y008270D02*
X002760Y008270D01*
X002380Y008459D02*
X002380Y008613D01*
X002457Y008536D02*
X002302Y008536D01*
X002207Y008459D02*
X002207Y008613D01*
X002168Y008652D01*
X002052Y008652D01*
X002052Y008420D01*
X002168Y008420D01*
X002207Y008459D01*
X002152Y008150D02*
X001920Y008150D01*
X001997Y008150D02*
X001997Y008034D01*
X002036Y007995D01*
X002113Y007995D01*
X002152Y008034D01*
X002152Y008150D01*
X001997Y008073D02*
X001920Y007995D01*
X001920Y007822D02*
X002152Y007822D01*
X002152Y007745D02*
X002152Y007900D01*
X002113Y007649D02*
X002075Y007649D01*
X002036Y007610D01*
X002036Y007533D01*
X001997Y007494D01*
X001959Y007494D01*
X001920Y007533D01*
X001920Y007610D01*
X001959Y007649D01*
X002113Y007649D02*
X002152Y007610D01*
X002152Y007533D01*
X002113Y007494D01*
X002760Y007935D02*
X003040Y007935D01*
X001455Y008536D02*
X001300Y008536D01*
X001205Y008459D02*
X001205Y008613D01*
X001166Y008652D01*
X001050Y008652D01*
X001050Y008420D01*
X001166Y008420D01*
X001205Y008459D01*
D12*
X002800Y008800D02*
X002800Y009800D01*
X006800Y009800D02*
X006800Y008800D01*
X004800Y001800D02*
X004800Y000800D01*
X001800Y000800D02*
X001800Y001800D01*
X000800Y001800D01*
X000800Y000800D01*
X001800Y000800D01*
X008800Y000800D02*
X008800Y001800D01*
D13*
X008950Y002250D02*
X009600Y002250D01*
X006336Y002544D02*
X006336Y008056D01*
X016414Y008056D01*
X016414Y002544D01*
X006336Y002544D01*
X005951Y004252D02*
X004849Y004252D01*
X004849Y004606D01*
X004849Y005394D01*
X004849Y005748D01*
X005951Y005748D01*
X005951Y004252D01*
X002250Y003150D02*
X002250Y002500D01*
X002250Y007500D02*
X002250Y008150D01*
X003950Y008725D02*
X004600Y008725D01*
X004950Y008725D02*
X005600Y008725D01*
X015845Y007662D02*
X015847Y007688D01*
X015853Y007714D01*
X015862Y007738D01*
X015876Y007761D01*
X015892Y007782D01*
X015911Y007800D01*
X015933Y007814D01*
X015957Y007826D01*
X015982Y007834D01*
X016008Y007838D01*
X016034Y007838D01*
X016060Y007834D01*
X016085Y007826D01*
X016109Y007814D01*
X016131Y007800D01*
X016150Y007782D01*
X016166Y007761D01*
X016180Y007738D01*
X016189Y007714D01*
X016195Y007688D01*
X016197Y007662D01*
X016195Y007636D01*
X016189Y007610D01*
X016180Y007586D01*
X016166Y007563D01*
X016150Y007542D01*
X016131Y007524D01*
X016109Y007510D01*
X016085Y007498D01*
X016060Y007490D01*
X016034Y007486D01*
X016008Y007486D01*
X015982Y007490D01*
X015957Y007498D01*
X015933Y007510D01*
X015911Y007524D01*
X015892Y007542D01*
X015876Y007563D01*
X015862Y007586D01*
X015853Y007610D01*
X015847Y007636D01*
X015845Y007662D01*
D14*
X015650Y008800D02*
X015580Y008860D01*
X015640Y008950D01*
X015600Y009040D01*
X015500Y009060D01*
X015500Y009150D01*
X015610Y009170D01*
X015640Y009260D01*
X015580Y009350D01*
X015650Y009420D01*
X015740Y009350D01*
X015820Y009390D01*
X015850Y009500D01*
X015940Y009500D01*
X015960Y009390D01*
X016040Y009350D01*
X016130Y009420D01*
X016200Y009350D01*
X016140Y009260D01*
X016180Y009170D01*
X016280Y009150D01*
X016280Y009060D01*
X016180Y009040D01*
X016140Y008950D01*
X016200Y008860D01*
X016130Y008800D01*
X016050Y008860D01*
X016010Y008840D01*
X015950Y009000D01*
X016000Y008990D02*
X016060Y009090D01*
X016020Y009200D01*
X015910Y009260D01*
X015780Y009220D01*
X015740Y009090D01*
X015780Y008980D01*
X015750Y008880D01*
X015660Y008830D01*
X015610Y008860D01*
X015670Y008960D01*
X015620Y009070D01*
X015520Y009090D01*
X015520Y009120D01*
X015620Y009160D01*
X015660Y009270D01*
X015610Y009360D01*
X015650Y009390D01*
X015730Y009330D01*
X015840Y009390D01*
X015870Y009480D01*
X015920Y009480D01*
X015950Y009370D01*
X016040Y009330D01*
X016120Y009390D01*
X016170Y009350D01*
X016120Y009270D01*
X016170Y009150D01*
X016250Y009130D01*
X016260Y009080D01*
X016170Y009060D01*
X016120Y008950D01*
X016160Y008870D01*
X016120Y008840D01*
X016030Y008890D01*
X016000Y008990D01*
X016138Y008990D01*
X016129Y008932D02*
X016018Y008932D01*
X016061Y008873D02*
X016158Y008873D01*
X016165Y009049D02*
X016035Y009049D01*
X016054Y009107D02*
X016255Y009107D01*
X016164Y009166D02*
X016033Y009166D01*
X015976Y009224D02*
X016139Y009224D01*
X016128Y009283D02*
X015653Y009283D01*
X015643Y009224D02*
X015793Y009224D01*
X015763Y009166D02*
X015622Y009166D01*
X015520Y009107D02*
X015745Y009107D01*
X015755Y009049D02*
X015630Y009049D01*
X015656Y008990D02*
X015776Y008990D01*
X015830Y009000D02*
X015770Y008840D01*
X015730Y008860D01*
X015650Y008800D01*
X015618Y008873D02*
X015737Y008873D01*
X015765Y008932D02*
X015653Y008932D01*
X015830Y009000D02*
X015813Y009012D01*
X015798Y009027D01*
X015785Y009044D01*
X015776Y009063D01*
X015771Y009084D01*
X015769Y009105D01*
X015771Y009126D01*
X015776Y009146D01*
X015785Y009165D01*
X015797Y009183D01*
X015812Y009198D01*
X015829Y009210D01*
X015849Y009219D01*
X015869Y009224D01*
X015890Y009226D01*
X015911Y009224D01*
X015931Y009219D01*
X015951Y009210D01*
X015968Y009198D01*
X015983Y009183D01*
X015995Y009165D01*
X016004Y009146D01*
X016009Y009126D01*
X016011Y009105D01*
X016009Y009084D01*
X016004Y009063D01*
X015995Y009044D01*
X015982Y009027D01*
X015967Y009012D01*
X015950Y009000D01*
X016015Y009341D02*
X015750Y009341D01*
X015715Y009341D02*
X015621Y009341D01*
X015843Y009400D02*
X015942Y009400D01*
X015926Y009458D02*
X015863Y009458D01*
X016055Y009341D02*
X016164Y009341D01*
X012800Y009550D02*
X012800Y009050D01*
X012550Y008800D01*
X012050Y008800D01*
X011800Y009050D01*
X011550Y008800D01*
X011050Y008800D01*
X010800Y009050D01*
X010550Y008800D01*
X010050Y008800D01*
X009800Y009050D01*
X009550Y008800D01*
X009050Y008800D01*
X008800Y009050D01*
X008550Y008800D01*
X008050Y008800D01*
X007800Y009050D01*
X007550Y008800D01*
X007050Y008800D01*
X006800Y009050D01*
X006800Y009550D01*
X007050Y009800D01*
X007550Y009800D01*
X007800Y009550D01*
X008050Y009800D01*
X008550Y009800D01*
X008800Y009550D01*
X008800Y009050D01*
X008800Y009550D02*
X009050Y009800D01*
X009550Y009800D01*
X009800Y009550D01*
X010050Y009800D01*
X010550Y009800D01*
X010800Y009550D01*
X011050Y009800D01*
X011550Y009800D01*
X011800Y009550D01*
X012050Y009800D01*
X012550Y009800D01*
X012800Y009550D01*
X011800Y009550D02*
X011800Y009050D01*
X010800Y009050D02*
X010800Y009550D01*
X009800Y009550D02*
X009800Y009050D01*
X007800Y009050D02*
X007800Y009550D01*
X006800Y009550D02*
X006800Y009050D01*
X006550Y008800D01*
X006050Y008800D01*
X005800Y009050D01*
X005550Y008800D01*
X005050Y008800D01*
X004800Y009050D01*
X004550Y008800D01*
X004050Y008800D01*
X003800Y009050D01*
X003550Y008800D01*
X003050Y008800D01*
X002800Y009050D01*
X002550Y008800D01*
X002050Y008800D01*
X001800Y009050D01*
X001550Y008800D01*
X001050Y008800D01*
X000800Y009050D01*
X000800Y009550D01*
X001050Y009800D01*
X001550Y009800D01*
X001800Y009550D01*
X002050Y009800D01*
X002550Y009800D01*
X002800Y009550D01*
X002800Y009050D01*
X002800Y009550D01*
X003050Y009800D01*
X003550Y009800D01*
X003800Y009550D01*
X004050Y009800D01*
X004550Y009800D01*
X004800Y009550D01*
X004800Y009050D01*
X004800Y009550D02*
X005050Y009800D01*
X005550Y009800D01*
X005800Y009550D01*
X006050Y009800D01*
X006550Y009800D01*
X006800Y009550D01*
X005800Y009550D02*
X005800Y009050D01*
X004760Y007769D02*
X004723Y007769D01*
X004760Y007769D02*
X004760Y007131D01*
X004723Y007131D01*
X004760Y007131D02*
X003640Y007131D01*
X003677Y007131D01*
X003640Y007131D02*
X003640Y007769D01*
X003677Y007769D01*
X003640Y007769D02*
X004760Y007769D01*
X004406Y007769D02*
X004369Y007769D01*
X004031Y007769D02*
X003994Y007769D01*
X003160Y007660D02*
X003160Y006540D01*
X002640Y006540D01*
X002640Y007660D01*
X003160Y007660D01*
X003994Y007131D02*
X004406Y007131D01*
X001800Y007050D02*
X001800Y006550D01*
X001550Y006300D01*
X001050Y006300D01*
X000800Y006550D01*
X000800Y007050D01*
X001050Y007300D01*
X000800Y007550D01*
X000800Y008050D01*
X001050Y008300D01*
X001550Y008300D01*
X001800Y008050D01*
X001800Y007550D01*
X001550Y007300D01*
X001800Y007050D01*
X001550Y007300D02*
X001050Y007300D01*
X001050Y006300D02*
X000800Y006050D01*
X000800Y005550D01*
X001050Y005300D01*
X000800Y005050D01*
X000800Y004550D01*
X001050Y004300D01*
X000800Y004050D01*
X000800Y003550D01*
X001050Y003300D01*
X000800Y003050D01*
X000800Y002550D01*
X001050Y002300D01*
X001550Y002300D01*
X001800Y002550D01*
X001800Y003050D01*
X001550Y003300D01*
X001050Y003300D01*
X001550Y003300D02*
X001800Y003550D01*
X001800Y004050D01*
X001550Y004300D01*
X001050Y004300D01*
X001550Y004300D02*
X001800Y004550D01*
X001800Y005050D01*
X001550Y005300D01*
X001050Y005300D01*
X001550Y005300D02*
X001800Y005550D01*
X001800Y006050D01*
X001550Y006300D01*
X002640Y004860D02*
X003160Y004860D01*
X003160Y003740D01*
X002640Y003740D01*
X002640Y004860D01*
X002550Y001800D02*
X002050Y001800D01*
X001800Y001550D01*
X001800Y001050D01*
X002050Y000800D01*
X002550Y000800D01*
X002800Y001050D01*
X002800Y001550D01*
X002550Y001800D01*
X002800Y001550D02*
X003050Y001800D01*
X003550Y001800D01*
X003800Y001550D01*
X004050Y001800D01*
X004550Y001800D01*
X004800Y001550D01*
X004800Y001050D01*
X004550Y000800D01*
X004050Y000800D01*
X003800Y001050D01*
X003550Y000800D01*
X003050Y000800D01*
X002800Y001050D01*
X003800Y001050D02*
X003800Y001550D01*
X004800Y001550D02*
X004800Y001050D01*
X005050Y000800D01*
X005550Y000800D01*
X005800Y001050D01*
X005800Y001550D01*
X005550Y001800D01*
X005050Y001800D01*
X004800Y001550D01*
X005800Y001550D02*
X006050Y001800D01*
X006550Y001800D01*
X006800Y001550D01*
X007050Y001800D01*
X007550Y001800D01*
X007800Y001550D01*
X008050Y001800D01*
X008550Y001800D01*
X008800Y001550D01*
X009050Y001800D01*
X009550Y001800D01*
X009800Y001550D01*
X010050Y001800D01*
X010550Y001800D01*
X010800Y001550D01*
X011050Y001800D01*
X011550Y001800D01*
X011800Y001550D01*
X012050Y001800D01*
X012550Y001800D01*
X012800Y001550D01*
X012800Y001050D01*
X012550Y000800D01*
X012050Y000800D01*
X011800Y001050D01*
X011550Y000800D01*
X011050Y000800D01*
X010800Y001050D01*
X010800Y001550D01*
X010800Y001050D02*
X010550Y000800D01*
X010050Y000800D01*
X009800Y001050D01*
X009550Y000800D01*
X009050Y000800D01*
X008800Y001050D01*
X008800Y001550D01*
X008800Y001050D01*
X008550Y000800D01*
X008050Y000800D01*
X007800Y001050D01*
X007550Y000800D01*
X007050Y000800D01*
X006800Y001050D01*
X006800Y001550D01*
X006800Y001050D02*
X006550Y000800D01*
X006050Y000800D01*
X005800Y001050D01*
X007800Y001050D02*
X007800Y001550D01*
X009800Y001550D02*
X009800Y001050D01*
X011800Y001050D02*
X011800Y001550D01*
X011491Y004430D02*
X011064Y004430D01*
X011491Y004857D01*
X011491Y004964D01*
X011384Y005071D01*
X011170Y005071D01*
X011064Y004964D01*
X010633Y005071D02*
X010633Y004430D01*
X010846Y004430D02*
X010419Y004430D01*
X009988Y004430D02*
X009988Y005071D01*
X009775Y005071D02*
X010202Y005071D01*
X010419Y004857D02*
X010633Y005071D01*
X010631Y005480D02*
X010311Y005480D01*
X010204Y005587D01*
X010204Y005907D01*
X009881Y006121D02*
X009881Y005480D01*
X009775Y005480D02*
X009988Y005480D01*
X009557Y005587D02*
X009450Y005480D01*
X009130Y005480D01*
X009130Y006121D01*
X009450Y006121D01*
X009557Y006014D01*
X009557Y005907D01*
X009450Y005800D01*
X009130Y005800D01*
X009450Y005800D02*
X009557Y005694D01*
X009557Y005587D01*
X009557Y005071D02*
X009557Y004430D01*
X009344Y004644D01*
X009130Y004430D01*
X009130Y005071D01*
X010631Y005480D02*
X010631Y005907D01*
X010849Y005800D02*
X010956Y005907D01*
X011169Y005907D01*
X011276Y005800D01*
X011276Y005694D01*
X010849Y005694D01*
X010849Y005800D02*
X010849Y005587D01*
X010956Y005480D01*
X011169Y005480D01*
X011493Y005587D02*
X011600Y005480D01*
X011920Y005480D01*
X011920Y005373D02*
X011920Y005907D01*
X011600Y005907D01*
X011493Y005800D01*
X011493Y005587D01*
X011707Y005266D02*
X011814Y005266D01*
X011920Y005373D01*
X012138Y005480D02*
X012351Y005480D01*
X012245Y005480D02*
X012245Y005907D01*
X012138Y005907D01*
X012245Y006121D02*
X012245Y006227D01*
X012674Y005907D02*
X012568Y005800D01*
X012568Y005587D01*
X012674Y005480D01*
X012995Y005480D01*
X012995Y005373D02*
X012995Y005907D01*
X012674Y005907D01*
X013212Y005587D02*
X013319Y005694D01*
X013639Y005694D01*
X013639Y005800D02*
X013639Y005480D01*
X013319Y005480D01*
X013212Y005587D01*
X012995Y005373D02*
X012888Y005266D01*
X012781Y005266D01*
X012566Y005071D02*
X012780Y004857D01*
X012780Y004430D01*
X012780Y004750D02*
X012353Y004750D01*
X012353Y004857D02*
X012566Y005071D01*
X012353Y004857D02*
X012353Y004430D01*
X012135Y004750D02*
X011708Y004750D01*
X013319Y005907D02*
X013532Y005907D01*
X013639Y005800D01*
X009881Y006121D02*
X009775Y006121D01*
X003800Y009050D02*
X003800Y009550D01*
X001800Y009550D02*
X001800Y009050D01*
X001550Y001800D02*
X001050Y001800D01*
X000800Y001550D01*
X000800Y001050D01*
X001050Y000800D01*
X001550Y000800D01*
X001800Y001050D01*
X001800Y001550D02*
X001550Y001800D01*
D15*
X001300Y001300D03*
X002300Y001300D03*
X003300Y001300D03*
X004300Y001300D03*
X005300Y001300D03*
X006300Y001300D03*
X007300Y001300D03*
X008300Y001300D03*
X009300Y001300D03*
X010300Y001300D03*
X011300Y001300D03*
X012300Y001300D03*
X001300Y002800D03*
X001300Y003800D03*
X001300Y004800D03*
X001300Y005800D03*
X001300Y006800D03*
X001300Y007800D03*
X001300Y009300D03*
X002300Y009300D03*
X003300Y009300D03*
X004300Y009300D03*
X005300Y009300D03*
X006300Y009300D03*
X007300Y009300D03*
X008300Y009300D03*
X009300Y009300D03*
X010300Y009300D03*
X011300Y009300D03*
X012300Y009300D03*
D16*
X000815Y000605D02*
X000815Y000315D01*
X000815Y000412D02*
X000960Y000412D01*
X001008Y000460D01*
X001008Y000557D01*
X000960Y000605D01*
X000815Y000605D01*
X001110Y000557D02*
X001110Y000363D01*
X001158Y000315D01*
X001255Y000315D01*
X001303Y000363D01*
X001303Y000557D01*
X001255Y000605D01*
X001158Y000605D01*
X001110Y000557D01*
X001404Y000605D02*
X001404Y000315D01*
X001501Y000412D01*
X001598Y000315D01*
X001598Y000605D01*
X001699Y000605D02*
X001699Y000315D01*
X001892Y000315D01*
X001994Y000315D02*
X001994Y000605D01*
X002139Y000605D01*
X002187Y000557D01*
X002187Y000460D01*
X002139Y000412D01*
X001994Y000412D01*
X002090Y000412D02*
X002187Y000315D01*
X001796Y000460D02*
X001699Y000460D01*
X001699Y000605D02*
X001892Y000605D01*
X000557Y002270D02*
X000605Y002318D01*
X000605Y002415D01*
X000557Y002463D01*
X000508Y002463D01*
X000460Y002415D01*
X000460Y002318D01*
X000412Y002270D01*
X000363Y002270D01*
X000315Y002318D01*
X000315Y002415D01*
X000363Y002463D01*
X000315Y002565D02*
X000412Y002661D01*
X000315Y002758D01*
X000605Y002758D01*
X000605Y002859D02*
X000605Y002956D01*
X000605Y002908D02*
X000315Y002908D01*
X000315Y002956D02*
X000315Y002859D01*
X000315Y003056D02*
X000315Y003201D01*
X000363Y003249D01*
X000460Y003249D01*
X000508Y003201D01*
X000508Y003056D01*
X000508Y003152D02*
X000605Y003249D01*
X000605Y003350D02*
X000315Y003350D01*
X000315Y003544D01*
X000460Y003447D02*
X000460Y003350D01*
X000605Y003056D02*
X000315Y003056D01*
X000315Y002565D02*
X000605Y002565D01*
X004815Y000605D02*
X004815Y000315D01*
X004815Y000412D02*
X004960Y000412D01*
X005008Y000460D01*
X005008Y000557D01*
X004960Y000605D01*
X004815Y000605D01*
X005110Y000557D02*
X005110Y000363D01*
X005158Y000315D01*
X005255Y000315D01*
X005303Y000363D01*
X005404Y000315D02*
X005404Y000605D01*
X005501Y000508D01*
X005598Y000605D01*
X005598Y000315D01*
X005303Y000557D02*
X005255Y000605D01*
X005158Y000605D01*
X005110Y000557D01*
X008815Y000557D02*
X008815Y000508D01*
X008863Y000460D01*
X008960Y000460D01*
X009008Y000412D01*
X009008Y000363D01*
X008960Y000315D01*
X008863Y000315D01*
X008815Y000363D01*
X008815Y000557D02*
X008863Y000605D01*
X008960Y000605D01*
X009008Y000557D01*
X009110Y000605D02*
X009255Y000605D01*
X009303Y000557D01*
X009303Y000460D01*
X009255Y000412D01*
X009110Y000412D01*
X009110Y000315D02*
X009110Y000605D01*
X009404Y000605D02*
X009501Y000605D01*
X009453Y000605D02*
X009453Y000315D01*
X009501Y000315D02*
X009404Y000315D01*
X006880Y003297D02*
X006880Y003490D01*
X006735Y003490D01*
X006783Y003394D01*
X006783Y003345D01*
X006735Y003297D01*
X006638Y003297D01*
X006590Y003345D01*
X006590Y003442D01*
X006638Y003490D01*
X006590Y003592D02*
X006590Y003785D01*
X006590Y003688D02*
X006880Y003688D01*
X006783Y003785D01*
X006735Y006922D02*
X006735Y007115D01*
X006880Y006970D01*
X006590Y006970D01*
X006590Y007217D02*
X006590Y007410D01*
X006590Y007313D02*
X006880Y007313D01*
X006783Y007410D01*
X006815Y010015D02*
X006912Y010015D01*
X006863Y010015D02*
X006863Y010305D01*
X006815Y010305D02*
X006912Y010305D01*
X007011Y010257D02*
X007011Y010063D01*
X007060Y010015D01*
X007157Y010015D01*
X007205Y010063D01*
X007205Y010257D01*
X007157Y010305D01*
X007060Y010305D01*
X007011Y010257D01*
X003892Y010305D02*
X003699Y010305D01*
X003796Y010305D02*
X003796Y010015D01*
X003598Y010015D02*
X003501Y010112D01*
X003549Y010112D02*
X003404Y010112D01*
X003404Y010015D02*
X003404Y010305D01*
X003549Y010305D01*
X003598Y010257D01*
X003598Y010160D01*
X003549Y010112D01*
X003303Y010160D02*
X003110Y010160D01*
X003110Y010208D02*
X003206Y010305D01*
X003303Y010208D01*
X003303Y010015D01*
X003110Y010015D02*
X003110Y010208D01*
X003008Y010305D02*
X003008Y010063D01*
X002960Y010015D01*
X002863Y010015D01*
X002815Y010063D01*
X002815Y010305D01*
X001598Y010257D02*
X001598Y010208D01*
X001549Y010160D01*
X001404Y010160D01*
X001303Y010112D02*
X001303Y010063D01*
X001255Y010015D01*
X001158Y010015D01*
X001110Y010063D01*
X001008Y010063D02*
X001008Y010305D01*
X001110Y010257D02*
X001110Y010208D01*
X001158Y010160D01*
X001255Y010160D01*
X001303Y010112D01*
X001404Y010015D02*
X001549Y010015D01*
X001598Y010063D01*
X001598Y010112D01*
X001549Y010160D01*
X001598Y010257D02*
X001549Y010305D01*
X001404Y010305D01*
X001404Y010015D01*
X001303Y010257D02*
X001255Y010305D01*
X001158Y010305D01*
X001110Y010257D01*
X001008Y010063D02*
X000960Y010015D01*
X000863Y010015D01*
X000815Y010063D01*
X000815Y010305D01*
X014265Y007410D02*
X014265Y007217D01*
X014265Y007313D02*
X014555Y007313D01*
X014458Y007410D01*
X015313Y006105D02*
X015410Y006105D01*
X015458Y006057D01*
X015458Y006008D01*
X015410Y005960D01*
X015458Y005912D01*
X015458Y005863D01*
X015410Y005815D01*
X015313Y005815D01*
X015265Y005863D01*
X015362Y005960D02*
X015410Y005960D01*
X015560Y006008D02*
X015656Y006105D01*
X015656Y005815D01*
X015560Y005815D02*
X015753Y005815D01*
X015705Y005480D02*
X015608Y005480D01*
X015560Y005432D01*
X015560Y005238D01*
X015753Y005432D01*
X015753Y005238D01*
X015705Y005190D01*
X015608Y005190D01*
X015560Y005238D01*
X015458Y005238D02*
X015458Y005287D01*
X015410Y005335D01*
X015362Y005335D01*
X015410Y005335D02*
X015458Y005383D01*
X015458Y005432D01*
X015410Y005480D01*
X015313Y005480D01*
X015265Y005432D01*
X015003Y005480D02*
X014810Y005480D01*
X014810Y005190D01*
X014708Y005190D02*
X014612Y005287D01*
X014660Y005287D02*
X014515Y005287D01*
X014515Y005190D02*
X014515Y005480D01*
X014660Y005480D01*
X014708Y005432D01*
X014708Y005335D01*
X014660Y005287D01*
X014810Y005335D02*
X014906Y005335D01*
X015265Y005238D02*
X015313Y005190D01*
X015410Y005190D01*
X015458Y005238D01*
X015705Y005480D02*
X015753Y005432D01*
X015705Y004855D02*
X015608Y004855D01*
X015560Y004807D01*
X015560Y004758D01*
X015608Y004710D01*
X015753Y004710D01*
X015753Y004613D02*
X015753Y004807D01*
X015705Y004855D01*
X015458Y004807D02*
X015410Y004855D01*
X015313Y004855D01*
X015265Y004807D01*
X015458Y004807D02*
X015458Y004758D01*
X015265Y004565D01*
X015458Y004565D01*
X015560Y004613D02*
X015608Y004565D01*
X015705Y004565D01*
X015753Y004613D01*
X014555Y003737D02*
X014507Y003785D01*
X014555Y003737D02*
X014555Y003640D01*
X014507Y003592D01*
X014458Y003592D01*
X014265Y003785D01*
X014265Y003592D01*
X014313Y003490D02*
X014362Y003490D01*
X014410Y003442D01*
X014410Y003345D01*
X014362Y003297D01*
X014313Y003297D01*
X014265Y003345D01*
X014265Y003442D01*
X014313Y003490D01*
X014410Y003442D02*
X014458Y003490D01*
X014507Y003490D01*
X014555Y003442D01*
X014555Y003345D01*
X014507Y003297D01*
X014458Y003297D01*
X014410Y003345D01*
X015265Y006057D02*
X015313Y006105D01*
D17*
X004574Y006987D03*
X003826Y006987D03*
X004200Y007913D03*
D18*
X004418Y007907D02*
X004455Y007870D01*
X004528Y007870D01*
X004565Y007907D01*
X004565Y008090D01*
X004639Y008053D02*
X004676Y008090D01*
X004749Y008090D01*
X004786Y008053D01*
X004786Y008017D01*
X004639Y007870D01*
X004786Y007870D01*
X004418Y007907D02*
X004418Y008090D01*
X003790Y008107D02*
X003717Y008033D01*
X003717Y008070D02*
X003717Y007960D01*
X003790Y007960D02*
X003570Y007960D01*
X003570Y008070D01*
X003607Y008107D01*
X003680Y008107D01*
X003717Y008070D01*
X003680Y008181D02*
X003680Y008328D01*
X003790Y008291D02*
X003570Y008291D01*
X003680Y008181D01*
X003530Y007761D02*
X003530Y007614D01*
X003530Y007687D02*
X003310Y007687D01*
X003383Y007614D01*
X003347Y007540D02*
X003493Y007540D01*
X003530Y007503D01*
X003530Y007430D01*
X003493Y007393D01*
X003347Y007393D01*
X003310Y007430D01*
X003310Y007503D01*
X003347Y007540D01*
X003457Y007466D02*
X003530Y007540D01*
X004270Y006528D02*
X004270Y006381D01*
X004380Y006381D01*
X004343Y006454D01*
X004343Y006491D01*
X004380Y006528D01*
X004453Y006528D01*
X004490Y006491D01*
X004490Y006418D01*
X004453Y006381D01*
X004490Y006307D02*
X004417Y006233D01*
X004417Y006270D02*
X004417Y006160D01*
X004490Y006160D02*
X004270Y006160D01*
X004270Y006270D01*
X004307Y006307D01*
X004380Y006307D01*
X004417Y006270D01*
X005160Y006093D02*
X005160Y005947D01*
X005197Y005910D01*
X005270Y005910D01*
X005307Y005947D01*
X005381Y005910D02*
X005528Y005910D01*
X005454Y005910D02*
X005454Y006130D01*
X005381Y006057D01*
X005307Y006093D02*
X005270Y006130D01*
X005197Y006130D01*
X005160Y006093D01*
X005197Y006760D02*
X005270Y006760D01*
X005307Y006797D01*
X005381Y006760D02*
X005528Y006907D01*
X005528Y006943D01*
X005491Y006980D01*
X005418Y006980D01*
X005381Y006943D01*
X005307Y006943D02*
X005270Y006980D01*
X005197Y006980D01*
X005160Y006943D01*
X005160Y006797D01*
X005197Y006760D01*
X005381Y006760D02*
X005528Y006760D01*
X005528Y007610D02*
X005381Y007610D01*
X005454Y007610D02*
X005454Y007830D01*
X005381Y007757D01*
X005307Y007610D02*
X005160Y007610D01*
X005160Y007830D01*
X003391Y005830D02*
X003428Y005793D01*
X003428Y005757D01*
X003391Y005720D01*
X003428Y005683D01*
X003428Y005647D01*
X003391Y005610D01*
X003318Y005610D01*
X003281Y005647D01*
X003207Y005610D02*
X003133Y005683D01*
X003170Y005683D02*
X003060Y005683D01*
X003060Y005610D02*
X003060Y005830D01*
X003170Y005830D01*
X003207Y005793D01*
X003207Y005720D01*
X003170Y005683D01*
X003354Y005720D02*
X003391Y005720D01*
X003391Y005830D02*
X003318Y005830D01*
X003281Y005793D01*
X002786Y005790D02*
X002712Y005753D01*
X002639Y005680D01*
X002749Y005680D01*
X002786Y005643D01*
X002786Y005607D01*
X002749Y005570D01*
X002676Y005570D01*
X002639Y005607D01*
X002639Y005680D01*
X002565Y005680D02*
X002565Y005753D01*
X002528Y005790D01*
X002418Y005790D01*
X002418Y005570D01*
X002418Y005643D02*
X002528Y005643D01*
X002565Y005680D01*
X002491Y005643D02*
X002565Y005570D01*
X003310Y004924D02*
X003347Y004961D01*
X003383Y004961D01*
X003530Y004814D01*
X003530Y004961D01*
X003310Y004924D02*
X003310Y004851D01*
X003347Y004814D01*
X003347Y004740D02*
X003493Y004740D01*
X003530Y004703D01*
X003530Y004630D01*
X003493Y004593D01*
X003347Y004593D01*
X003310Y004630D01*
X003310Y004703D01*
X003347Y004740D01*
X003457Y004666D02*
X003530Y004740D01*
X004270Y004491D02*
X004270Y004418D01*
X004307Y004381D01*
X004343Y004381D01*
X004380Y004418D01*
X004380Y004491D01*
X004417Y004528D01*
X004453Y004528D01*
X004490Y004491D01*
X004490Y004418D01*
X004453Y004381D01*
X004417Y004381D01*
X004380Y004418D01*
X004380Y004491D02*
X004343Y004528D01*
X004307Y004528D01*
X004270Y004491D01*
X004307Y004307D02*
X004380Y004307D01*
X004417Y004270D01*
X004417Y004160D01*
X004490Y004160D02*
X004270Y004160D01*
X004270Y004270D01*
X004307Y004307D01*
X004417Y004233D02*
X004490Y004307D01*
X004154Y003930D02*
X004154Y003710D01*
X004081Y003710D02*
X004228Y003710D01*
X004081Y003857D02*
X004154Y003930D01*
X004007Y003893D02*
X004007Y003820D01*
X003970Y003783D01*
X003860Y003783D01*
X003860Y003710D02*
X003860Y003930D01*
X003970Y003930D01*
X004007Y003893D01*
X003933Y003783D02*
X004007Y003710D01*
X003970Y003130D02*
X004007Y003093D01*
X004007Y003020D01*
X003970Y002983D01*
X003860Y002983D01*
X003860Y002910D02*
X003860Y003130D01*
X003970Y003130D01*
X004081Y003093D02*
X004118Y003130D01*
X004191Y003130D01*
X004228Y003093D01*
X004228Y003057D01*
X004081Y002910D01*
X004228Y002910D01*
X004007Y002910D02*
X003933Y002983D01*
X002828Y002993D02*
X002681Y002847D01*
X002681Y002810D01*
X002607Y002810D02*
X002533Y002883D01*
X002570Y002883D02*
X002460Y002883D01*
X002460Y002810D02*
X002460Y003030D01*
X002570Y003030D01*
X002607Y002993D01*
X002607Y002920D01*
X002570Y002883D01*
X002681Y003030D02*
X002828Y003030D01*
X002828Y002993D01*
D19*
X005106Y002443D02*
X005106Y002482D01*
X005106Y002481D02*
X005127Y002483D01*
X005147Y002488D01*
X005166Y002497D01*
X005183Y002509D01*
X005197Y002524D01*
X005209Y002541D01*
X005218Y002559D01*
X005223Y002579D01*
X005225Y002600D01*
X005223Y002621D01*
X005218Y002641D01*
X005209Y002659D01*
X005197Y002676D01*
X005183Y002691D01*
X005166Y002703D01*
X005147Y002712D01*
X005127Y002717D01*
X005106Y002719D01*
X005106Y002757D01*
X005106Y002758D01*
X005131Y002756D01*
X005155Y002750D01*
X005178Y002741D01*
X005199Y002728D01*
X005218Y002712D01*
X005234Y002693D01*
X005247Y002672D01*
X005256Y002649D01*
X005262Y002625D01*
X005264Y002600D01*
X005262Y002575D01*
X005256Y002551D01*
X005247Y002528D01*
X005234Y002507D01*
X005218Y002488D01*
X005199Y002472D01*
X005178Y002459D01*
X005155Y002450D01*
X005131Y002444D01*
X005106Y002442D01*
X005106Y002443D01*
X005131Y002445D01*
X005155Y002451D01*
X005178Y002460D01*
X005199Y002473D01*
X005217Y002489D01*
X005233Y002508D01*
X005246Y002529D01*
X005255Y002552D01*
X005261Y002575D01*
X005263Y002600D01*
X005261Y002625D01*
X005255Y002648D01*
X005246Y002671D01*
X005233Y002692D01*
X005217Y002711D01*
X005199Y002727D01*
X005178Y002740D01*
X005155Y002749D01*
X005131Y002755D01*
X005106Y002757D01*
X005106Y002756D01*
X005131Y002754D01*
X005155Y002748D01*
X005177Y002739D01*
X005198Y002726D01*
X005216Y002710D01*
X005232Y002692D01*
X005245Y002671D01*
X005254Y002648D01*
X005260Y002624D01*
X005262Y002600D01*
X005260Y002576D01*
X005254Y002552D01*
X005245Y002529D01*
X005232Y002508D01*
X005216Y002490D01*
X005198Y002474D01*
X005177Y002461D01*
X005155Y002452D01*
X005131Y002446D01*
X005106Y002444D01*
X005106Y002445D01*
X005131Y002447D01*
X005154Y002453D01*
X005177Y002462D01*
X005197Y002475D01*
X005216Y002491D01*
X005232Y002509D01*
X005244Y002530D01*
X005253Y002552D01*
X005259Y002576D01*
X005261Y002600D01*
X005259Y002624D01*
X005253Y002648D01*
X005244Y002670D01*
X005232Y002691D01*
X005216Y002709D01*
X005197Y002725D01*
X005177Y002738D01*
X005154Y002747D01*
X005131Y002753D01*
X005106Y002755D01*
X005106Y002754D01*
X005131Y002752D01*
X005154Y002746D01*
X005176Y002737D01*
X005197Y002724D01*
X005215Y002709D01*
X005231Y002690D01*
X005243Y002670D01*
X005252Y002647D01*
X005258Y002624D01*
X005260Y002600D01*
X005258Y002576D01*
X005252Y002553D01*
X005243Y002530D01*
X005231Y002510D01*
X005215Y002491D01*
X005197Y002476D01*
X005176Y002463D01*
X005154Y002454D01*
X005131Y002448D01*
X005106Y002446D01*
X005106Y002447D01*
X005130Y002449D01*
X005154Y002455D01*
X005176Y002464D01*
X005196Y002476D01*
X005214Y002492D01*
X005230Y002510D01*
X005242Y002531D01*
X005252Y002553D01*
X005257Y002576D01*
X005259Y002600D01*
X005257Y002624D01*
X005252Y002647D01*
X005242Y002669D01*
X005230Y002690D01*
X005214Y002708D01*
X005196Y002724D01*
X005176Y002736D01*
X005154Y002745D01*
X005130Y002751D01*
X005106Y002753D01*
X005106Y002752D01*
X005130Y002750D01*
X005153Y002744D01*
X005175Y002735D01*
X005196Y002723D01*
X005214Y002707D01*
X005229Y002689D01*
X005242Y002669D01*
X005251Y002647D01*
X005256Y002624D01*
X005258Y002600D01*
X005256Y002576D01*
X005251Y002553D01*
X005242Y002531D01*
X005229Y002511D01*
X005214Y002493D01*
X005196Y002477D01*
X005175Y002465D01*
X005153Y002456D01*
X005130Y002450D01*
X005106Y002448D01*
X005106Y002449D01*
X005130Y002451D01*
X005153Y002457D01*
X005175Y002466D01*
X005195Y002478D01*
X005213Y002493D01*
X005228Y002511D01*
X005241Y002532D01*
X005250Y002553D01*
X005255Y002576D01*
X005257Y002600D01*
X005255Y002624D01*
X005250Y002647D01*
X005241Y002668D01*
X005228Y002689D01*
X005213Y002707D01*
X005195Y002722D01*
X005175Y002734D01*
X005153Y002743D01*
X005130Y002749D01*
X005106Y002751D01*
X005106Y002750D01*
X005130Y002748D01*
X005153Y002743D01*
X005174Y002733D01*
X005194Y002721D01*
X005212Y002706D01*
X005227Y002688D01*
X005240Y002668D01*
X005249Y002646D01*
X005254Y002623D01*
X005256Y002600D01*
X005254Y002577D01*
X005249Y002554D01*
X005240Y002532D01*
X005227Y002512D01*
X005212Y002494D01*
X005194Y002479D01*
X005174Y002467D01*
X005153Y002457D01*
X005130Y002452D01*
X005106Y002450D01*
X005106Y002451D01*
X005130Y002453D01*
X005152Y002458D01*
X005174Y002467D01*
X005194Y002480D01*
X005212Y002495D01*
X005227Y002513D01*
X005239Y002532D01*
X005248Y002554D01*
X005253Y002577D01*
X005255Y002600D01*
X005253Y002623D01*
X005248Y002646D01*
X005239Y002668D01*
X005227Y002687D01*
X005212Y002705D01*
X005194Y002720D01*
X005174Y002733D01*
X005152Y002742D01*
X005130Y002747D01*
X005106Y002749D01*
X005106Y002748D01*
X005130Y002746D01*
X005152Y002741D01*
X005174Y002732D01*
X005193Y002720D01*
X005211Y002704D01*
X005226Y002687D01*
X005238Y002667D01*
X005247Y002646D01*
X005252Y002623D01*
X005254Y002600D01*
X005252Y002577D01*
X005247Y002554D01*
X005238Y002533D01*
X005226Y002513D01*
X005211Y002496D01*
X005193Y002480D01*
X005174Y002468D01*
X005152Y002459D01*
X005130Y002454D01*
X005106Y002452D01*
X005106Y002453D01*
X005129Y002455D01*
X005152Y002460D01*
X005173Y002469D01*
X005193Y002481D01*
X005210Y002496D01*
X005225Y002514D01*
X005237Y002533D01*
X005246Y002555D01*
X005251Y002577D01*
X005253Y002600D01*
X005251Y002623D01*
X005246Y002645D01*
X005237Y002667D01*
X005225Y002686D01*
X005210Y002704D01*
X005193Y002719D01*
X005173Y002731D01*
X005152Y002740D01*
X005129Y002745D01*
X005106Y002747D01*
X005106Y002746D01*
X005129Y002744D01*
X005151Y002739D01*
X005173Y002730D01*
X005192Y002718D01*
X005209Y002703D01*
X005224Y002686D01*
X005236Y002666D01*
X005245Y002645D01*
X005250Y002623D01*
X005252Y002600D01*
X005250Y002577D01*
X005245Y002555D01*
X005236Y002534D01*
X005224Y002514D01*
X005209Y002497D01*
X005192Y002482D01*
X005173Y002470D01*
X005151Y002461D01*
X005129Y002456D01*
X005106Y002454D01*
X005106Y002455D01*
X005130Y002457D01*
X005153Y002463D01*
X005175Y002473D01*
X005195Y002486D01*
X005213Y002502D01*
X005227Y002521D01*
X005239Y002542D01*
X005247Y002564D01*
X005251Y002588D01*
X005251Y002612D01*
X005247Y002636D01*
X005239Y002658D01*
X005227Y002679D01*
X005213Y002698D01*
X005195Y002714D01*
X005175Y002727D01*
X005153Y002737D01*
X005130Y002743D01*
X005106Y002745D01*
X005106Y002744D01*
X005130Y002742D01*
X005153Y002736D01*
X005175Y002726D01*
X005195Y002713D01*
X005212Y002697D01*
X005227Y002679D01*
X005238Y002658D01*
X005246Y002635D01*
X005250Y002612D01*
X005250Y002588D01*
X005246Y002565D01*
X005238Y002542D01*
X005227Y002521D01*
X005212Y002503D01*
X005195Y002487D01*
X005175Y002474D01*
X005153Y002464D01*
X005130Y002458D01*
X005106Y002456D01*
X005106Y002457D01*
X005130Y002459D01*
X005153Y002465D01*
X005174Y002474D01*
X005194Y002487D01*
X005211Y002503D01*
X005226Y002522D01*
X005237Y002543D01*
X005245Y002565D01*
X005249Y002588D01*
X005249Y002612D01*
X005245Y002635D01*
X005237Y002657D01*
X005226Y002678D01*
X005211Y002697D01*
X005194Y002713D01*
X005174Y002726D01*
X005153Y002735D01*
X005130Y002741D01*
X005106Y002743D01*
X005106Y002742D01*
X005130Y002740D01*
X005152Y002734D01*
X005174Y002725D01*
X005193Y002712D01*
X005211Y002696D01*
X005225Y002678D01*
X005236Y002657D01*
X005244Y002635D01*
X005248Y002612D01*
X005248Y002588D01*
X005244Y002565D01*
X005236Y002543D01*
X005225Y002522D01*
X005211Y002504D01*
X005193Y002488D01*
X005174Y002475D01*
X005152Y002466D01*
X005130Y002460D01*
X005106Y002458D01*
X005106Y002459D01*
X005130Y002461D01*
X005152Y002467D01*
X005173Y002476D01*
X005193Y002489D01*
X005210Y002505D01*
X005224Y002523D01*
X005235Y002543D01*
X005243Y002565D01*
X005247Y002588D01*
X005247Y002612D01*
X005243Y002635D01*
X005235Y002657D01*
X005224Y002677D01*
X005210Y002695D01*
X005193Y002711D01*
X005173Y002724D01*
X005152Y002733D01*
X005130Y002739D01*
X005106Y002741D01*
X005106Y002740D01*
X005129Y002738D01*
X005152Y002732D01*
X005173Y002723D01*
X005192Y002710D01*
X005209Y002695D01*
X005223Y002676D01*
X005234Y002656D01*
X005242Y002634D01*
X005246Y002612D01*
X005246Y002588D01*
X005242Y002566D01*
X005234Y002544D01*
X005223Y002524D01*
X005209Y002505D01*
X005192Y002490D01*
X005173Y002477D01*
X005152Y002468D01*
X005129Y002462D01*
X005106Y002460D01*
X005106Y002461D01*
X005129Y002463D01*
X005152Y002469D01*
X005172Y002478D01*
X005192Y002490D01*
X005208Y002506D01*
X005222Y002524D01*
X005233Y002544D01*
X005241Y002566D01*
X005245Y002589D01*
X005245Y002611D01*
X005241Y002634D01*
X005233Y002656D01*
X005222Y002676D01*
X005208Y002694D01*
X005192Y002710D01*
X005172Y002722D01*
X005152Y002731D01*
X005129Y002737D01*
X005106Y002739D01*
X005106Y002738D01*
X005129Y002736D01*
X005151Y002730D01*
X005172Y002721D01*
X005191Y002709D01*
X005208Y002693D01*
X005222Y002675D01*
X005232Y002655D01*
X005240Y002634D01*
X005244Y002611D01*
X005244Y002589D01*
X005240Y002566D01*
X005232Y002545D01*
X005222Y002525D01*
X005208Y002507D01*
X005191Y002491D01*
X005172Y002479D01*
X005151Y002470D01*
X005129Y002464D01*
X005106Y002462D01*
X005106Y002463D01*
X005129Y002465D01*
X005151Y002471D01*
X005172Y002480D01*
X005190Y002492D01*
X005207Y002507D01*
X005221Y002525D01*
X005232Y002545D01*
X005239Y002566D01*
X005243Y002589D01*
X005243Y002611D01*
X005239Y002634D01*
X005232Y002655D01*
X005221Y002675D01*
X005207Y002693D01*
X005190Y002708D01*
X005172Y002720D01*
X005151Y002729D01*
X005129Y002735D01*
X005106Y002737D01*
X005106Y002736D01*
X005129Y002734D01*
X005151Y002729D01*
X005171Y002719D01*
X005190Y002707D01*
X005206Y002692D01*
X005220Y002674D01*
X005231Y002655D01*
X005238Y002633D01*
X005242Y002611D01*
X005242Y002589D01*
X005238Y002567D01*
X005231Y002545D01*
X005220Y002526D01*
X005206Y002508D01*
X005190Y002493D01*
X005171Y002481D01*
X005151Y002471D01*
X005129Y002466D01*
X005106Y002464D01*
X005106Y002465D01*
X005129Y002467D01*
X005150Y002472D01*
X005171Y002481D01*
X005189Y002494D01*
X005205Y002509D01*
X005219Y002526D01*
X005230Y002546D01*
X005237Y002567D01*
X005241Y002589D01*
X005241Y002611D01*
X005237Y002633D01*
X005230Y002654D01*
X005219Y002674D01*
X005205Y002691D01*
X005189Y002706D01*
X005171Y002719D01*
X005150Y002728D01*
X005129Y002733D01*
X005106Y002735D01*
X005106Y002734D01*
X005128Y002732D01*
X005150Y002727D01*
X005170Y002718D01*
X005189Y002706D01*
X005205Y002691D01*
X005218Y002673D01*
X005229Y002654D01*
X005236Y002633D01*
X005240Y002611D01*
X005240Y002589D01*
X005236Y002567D01*
X005229Y002546D01*
X005218Y002527D01*
X005205Y002509D01*
X005189Y002494D01*
X005170Y002482D01*
X005150Y002473D01*
X005128Y002468D01*
X005106Y002466D01*
X005106Y002467D01*
X005128Y002469D01*
X005150Y002474D01*
X005170Y002483D01*
X005188Y002495D01*
X005204Y002510D01*
X005217Y002527D01*
X005228Y002547D01*
X005235Y002567D01*
X005239Y002589D01*
X005239Y002611D01*
X005235Y002633D01*
X005228Y002653D01*
X005217Y002673D01*
X005204Y002690D01*
X005188Y002705D01*
X005170Y002717D01*
X005150Y002726D01*
X005128Y002731D01*
X005106Y002733D01*
X005106Y002732D01*
X005128Y002730D01*
X005149Y002725D01*
X005169Y002716D01*
X005187Y002704D01*
X005203Y002689D01*
X005217Y002672D01*
X005227Y002653D01*
X005234Y002632D01*
X005238Y002611D01*
X005238Y002589D01*
X005234Y002568D01*
X005227Y002547D01*
X005217Y002528D01*
X005203Y002511D01*
X005187Y002496D01*
X005169Y002484D01*
X005149Y002475D01*
X005128Y002470D01*
X005106Y002468D01*
X005106Y002469D01*
X005128Y002471D01*
X005149Y002476D01*
X005169Y002485D01*
X005187Y002497D01*
X005203Y002511D01*
X005216Y002529D01*
X005226Y002547D01*
X005233Y002568D01*
X005237Y002589D01*
X005237Y002611D01*
X005233Y002632D01*
X005226Y002653D01*
X005216Y002671D01*
X005203Y002689D01*
X005187Y002703D01*
X005169Y002715D01*
X005149Y002724D01*
X005128Y002729D01*
X005106Y002731D01*
X005106Y002730D01*
X005129Y002728D01*
X005151Y002722D01*
X005171Y002712D01*
X005190Y002699D01*
X005206Y002683D01*
X005219Y002665D01*
X005228Y002644D01*
X005234Y002623D01*
X005236Y002600D01*
X005234Y002577D01*
X005228Y002556D01*
X005219Y002535D01*
X005206Y002517D01*
X005190Y002501D01*
X005171Y002488D01*
X005151Y002478D01*
X005129Y002472D01*
X005106Y002470D01*
X005106Y002471D01*
X005129Y002473D01*
X005150Y002479D01*
X005171Y002488D01*
X005189Y002501D01*
X005205Y002517D01*
X005218Y002536D01*
X005227Y002556D01*
X005233Y002578D01*
X005235Y002600D01*
X005233Y002622D01*
X005227Y002644D01*
X005218Y002664D01*
X005205Y002683D01*
X005189Y002699D01*
X005171Y002712D01*
X005150Y002721D01*
X005129Y002727D01*
X005106Y002729D01*
X005106Y002728D01*
X005129Y002726D01*
X005150Y002720D01*
X005170Y002711D01*
X005188Y002698D01*
X005204Y002682D01*
X005217Y002664D01*
X005226Y002644D01*
X005232Y002622D01*
X005234Y002600D01*
X005232Y002578D01*
X005226Y002556D01*
X005217Y002536D01*
X005204Y002518D01*
X005188Y002502D01*
X005170Y002489D01*
X005150Y002480D01*
X005129Y002474D01*
X005106Y002472D01*
X005106Y002473D01*
X005128Y002475D01*
X005150Y002481D01*
X005170Y002490D01*
X005188Y002503D01*
X005203Y002519D01*
X005216Y002537D01*
X005225Y002557D01*
X005231Y002578D01*
X005233Y002600D01*
X005231Y002622D01*
X005225Y002643D01*
X005216Y002663D01*
X005203Y002681D01*
X005188Y002697D01*
X005170Y002710D01*
X005150Y002719D01*
X005128Y002725D01*
X005106Y002727D01*
X005106Y002726D01*
X005128Y002724D01*
X005149Y002718D01*
X005169Y002709D01*
X005187Y002696D01*
X005203Y002681D01*
X005215Y002663D01*
X005224Y002643D01*
X005230Y002622D01*
X005232Y002600D01*
X005230Y002578D01*
X005224Y002557D01*
X005215Y002537D01*
X005203Y002519D01*
X005187Y002504D01*
X005169Y002491D01*
X005149Y002482D01*
X005128Y002476D01*
X005106Y002474D01*
X005106Y002475D01*
X005128Y002477D01*
X005149Y002483D01*
X005169Y002492D01*
X005187Y002504D01*
X005202Y002520D01*
X005214Y002538D01*
X005223Y002557D01*
X005229Y002578D01*
X005231Y002600D01*
X005229Y002622D01*
X005223Y002643D01*
X005214Y002662D01*
X005202Y002680D01*
X005187Y002696D01*
X005169Y002708D01*
X005149Y002717D01*
X005128Y002723D01*
X005106Y002725D01*
X005106Y002724D01*
X005128Y002722D01*
X005149Y002716D01*
X005168Y002707D01*
X005186Y002695D01*
X005201Y002680D01*
X005213Y002662D01*
X005223Y002642D01*
X005228Y002621D01*
X005230Y002600D01*
X005228Y002579D01*
X005223Y002558D01*
X005213Y002538D01*
X005201Y002520D01*
X005186Y002505D01*
X005168Y002493D01*
X005149Y002484D01*
X005128Y002478D01*
X005106Y002476D01*
X005106Y002477D01*
X005128Y002479D01*
X005148Y002485D01*
X005168Y002494D01*
X005185Y002506D01*
X005200Y002521D01*
X005213Y002539D01*
X005222Y002558D01*
X005227Y002579D01*
X005229Y002600D01*
X005227Y002621D01*
X005222Y002642D01*
X005213Y002661D01*
X005200Y002679D01*
X005185Y002694D01*
X005168Y002706D01*
X005148Y002715D01*
X005128Y002721D01*
X005106Y002723D01*
X005106Y002722D01*
X005128Y002720D01*
X005148Y002715D01*
X005167Y002705D01*
X005185Y002693D01*
X005200Y002678D01*
X005212Y002661D01*
X005221Y002642D01*
X005226Y002621D01*
X005228Y002600D01*
X005226Y002579D01*
X005221Y002558D01*
X005212Y002539D01*
X005200Y002522D01*
X005185Y002507D01*
X005167Y002495D01*
X005148Y002485D01*
X005128Y002480D01*
X005106Y002478D01*
X005106Y002479D01*
X005127Y002481D01*
X005148Y002486D01*
X005167Y002495D01*
X005184Y002507D01*
X005199Y002522D01*
X005211Y002540D01*
X005220Y002559D01*
X005225Y002579D01*
X005227Y002600D01*
X005225Y002621D01*
X005220Y002641D01*
X005211Y002660D01*
X005199Y002678D01*
X005184Y002693D01*
X005167Y002705D01*
X005148Y002714D01*
X005127Y002719D01*
X005106Y002721D01*
X005106Y002720D01*
X005127Y002718D01*
X005147Y002713D01*
X005166Y002704D01*
X005183Y002692D01*
X005198Y002677D01*
X005210Y002660D01*
X005219Y002641D01*
X005224Y002621D01*
X005226Y002600D01*
X005224Y002579D01*
X005219Y002559D01*
X005210Y002540D01*
X005198Y002523D01*
X005183Y002508D01*
X005166Y002496D01*
X005147Y002487D01*
X005127Y002482D01*
X005106Y002480D01*
X005894Y002757D02*
X005894Y002718D01*
X005894Y002719D02*
X005873Y002717D01*
X005853Y002712D01*
X005834Y002703D01*
X005817Y002691D01*
X005803Y002676D01*
X005791Y002659D01*
X005782Y002641D01*
X005777Y002621D01*
X005775Y002600D01*
X005777Y002579D01*
X005782Y002559D01*
X005791Y002541D01*
X005803Y002524D01*
X005817Y002509D01*
X005834Y002497D01*
X005853Y002488D01*
X005873Y002483D01*
X005894Y002481D01*
X005894Y002443D01*
X005894Y002442D01*
X005869Y002444D01*
X005845Y002450D01*
X005822Y002459D01*
X005801Y002472D01*
X005782Y002488D01*
X005766Y002507D01*
X005753Y002528D01*
X005744Y002551D01*
X005738Y002575D01*
X005736Y002600D01*
X005738Y002625D01*
X005744Y002649D01*
X005753Y002672D01*
X005766Y002693D01*
X005782Y002712D01*
X005801Y002728D01*
X005822Y002741D01*
X005845Y002750D01*
X005869Y002756D01*
X005894Y002758D01*
X005894Y002757D01*
X005869Y002755D01*
X005845Y002749D01*
X005822Y002740D01*
X005801Y002727D01*
X005783Y002711D01*
X005767Y002692D01*
X005754Y002671D01*
X005745Y002648D01*
X005739Y002625D01*
X005737Y002600D01*
X005739Y002575D01*
X005745Y002552D01*
X005754Y002529D01*
X005767Y002508D01*
X005783Y002489D01*
X005801Y002473D01*
X005822Y002460D01*
X005845Y002451D01*
X005869Y002445D01*
X005894Y002443D01*
X005894Y002444D01*
X005869Y002446D01*
X005845Y002452D01*
X005823Y002461D01*
X005802Y002474D01*
X005784Y002490D01*
X005768Y002508D01*
X005755Y002529D01*
X005746Y002552D01*
X005740Y002576D01*
X005738Y002600D01*
X005740Y002624D01*
X005746Y002648D01*
X005755Y002671D01*
X005768Y002692D01*
X005784Y002710D01*
X005802Y002726D01*
X005823Y002739D01*
X005845Y002748D01*
X005869Y002754D01*
X005894Y002756D01*
X005894Y002755D01*
X005869Y002753D01*
X005846Y002747D01*
X005823Y002738D01*
X005803Y002725D01*
X005784Y002709D01*
X005768Y002691D01*
X005756Y002670D01*
X005747Y002648D01*
X005741Y002624D01*
X005739Y002600D01*
X005741Y002576D01*
X005747Y002552D01*
X005756Y002530D01*
X005768Y002509D01*
X005784Y002491D01*
X005803Y002475D01*
X005823Y002462D01*
X005846Y002453D01*
X005869Y002447D01*
X005894Y002445D01*
X005894Y002446D01*
X005869Y002448D01*
X005846Y002454D01*
X005824Y002463D01*
X005803Y002476D01*
X005785Y002491D01*
X005769Y002510D01*
X005757Y002530D01*
X005748Y002553D01*
X005742Y002576D01*
X005740Y002600D01*
X005742Y002624D01*
X005748Y002647D01*
X005757Y002670D01*
X005769Y002690D01*
X005785Y002709D01*
X005803Y002724D01*
X005824Y002737D01*
X005846Y002746D01*
X005869Y002752D01*
X005894Y002754D01*
X005894Y002753D01*
X005870Y002751D01*
X005846Y002745D01*
X005824Y002736D01*
X005804Y002724D01*
X005786Y002708D01*
X005770Y002690D01*
X005758Y002669D01*
X005748Y002647D01*
X005743Y002624D01*
X005741Y002600D01*
X005743Y002576D01*
X005748Y002553D01*
X005758Y002531D01*
X005770Y002510D01*
X005786Y002492D01*
X005804Y002476D01*
X005824Y002464D01*
X005846Y002455D01*
X005870Y002449D01*
X005894Y002447D01*
X005894Y002448D01*
X005870Y002450D01*
X005847Y002456D01*
X005825Y002465D01*
X005804Y002477D01*
X005786Y002493D01*
X005771Y002511D01*
X005758Y002531D01*
X005749Y002553D01*
X005744Y002576D01*
X005742Y002600D01*
X005744Y002624D01*
X005749Y002647D01*
X005758Y002669D01*
X005771Y002689D01*
X005786Y002707D01*
X005804Y002723D01*
X005825Y002735D01*
X005847Y002744D01*
X005870Y002750D01*
X005894Y002752D01*
X005894Y002751D01*
X005870Y002749D01*
X005847Y002743D01*
X005825Y002734D01*
X005805Y002722D01*
X005787Y002707D01*
X005772Y002689D01*
X005759Y002668D01*
X005750Y002647D01*
X005745Y002624D01*
X005743Y002600D01*
X005745Y002576D01*
X005750Y002553D01*
X005759Y002532D01*
X005772Y002511D01*
X005787Y002493D01*
X005805Y002478D01*
X005825Y002466D01*
X005847Y002457D01*
X005870Y002451D01*
X005894Y002449D01*
X005894Y002450D01*
X005870Y002452D01*
X005847Y002457D01*
X005826Y002467D01*
X005806Y002479D01*
X005788Y002494D01*
X005773Y002512D01*
X005760Y002532D01*
X005751Y002554D01*
X005746Y002577D01*
X005744Y002600D01*
X005746Y002623D01*
X005751Y002646D01*
X005760Y002668D01*
X005773Y002688D01*
X005788Y002706D01*
X005806Y002721D01*
X005826Y002733D01*
X005847Y002743D01*
X005870Y002748D01*
X005894Y002750D01*
X005894Y002749D01*
X005870Y002747D01*
X005848Y002742D01*
X005826Y002733D01*
X005806Y002720D01*
X005788Y002705D01*
X005773Y002687D01*
X005761Y002668D01*
X005752Y002646D01*
X005747Y002623D01*
X005745Y002600D01*
X005747Y002577D01*
X005752Y002554D01*
X005761Y002532D01*
X005773Y002513D01*
X005788Y002495D01*
X005806Y002480D01*
X005826Y002467D01*
X005848Y002458D01*
X005870Y002453D01*
X005894Y002451D01*
X005894Y002452D01*
X005870Y002454D01*
X005848Y002459D01*
X005826Y002468D01*
X005807Y002480D01*
X005789Y002496D01*
X005774Y002513D01*
X005762Y002533D01*
X005753Y002554D01*
X005748Y002577D01*
X005746Y002600D01*
X005748Y002623D01*
X005753Y002646D01*
X005762Y002667D01*
X005774Y002687D01*
X005789Y002704D01*
X005807Y002720D01*
X005826Y002732D01*
X005848Y002741D01*
X005870Y002746D01*
X005894Y002748D01*
X005894Y002747D01*
X005871Y002745D01*
X005848Y002740D01*
X005827Y002731D01*
X005807Y002719D01*
X005790Y002704D01*
X005775Y002686D01*
X005763Y002667D01*
X005754Y002645D01*
X005749Y002623D01*
X005747Y002600D01*
X005749Y002577D01*
X005754Y002555D01*
X005763Y002533D01*
X005775Y002514D01*
X005790Y002496D01*
X005807Y002481D01*
X005827Y002469D01*
X005848Y002460D01*
X005871Y002455D01*
X005894Y002453D01*
X005894Y002454D01*
X005871Y002456D01*
X005849Y002461D01*
X005827Y002470D01*
X005808Y002482D01*
X005791Y002497D01*
X005776Y002514D01*
X005764Y002534D01*
X005755Y002555D01*
X005750Y002577D01*
X005748Y002600D01*
X005750Y002623D01*
X005755Y002645D01*
X005764Y002666D01*
X005776Y002686D01*
X005791Y002703D01*
X005808Y002718D01*
X005827Y002730D01*
X005849Y002739D01*
X005871Y002744D01*
X005894Y002746D01*
X005894Y002745D01*
X005870Y002743D01*
X005847Y002737D01*
X005825Y002727D01*
X005805Y002714D01*
X005787Y002698D01*
X005773Y002679D01*
X005761Y002658D01*
X005753Y002636D01*
X005749Y002612D01*
X005749Y002588D01*
X005753Y002564D01*
X005761Y002542D01*
X005773Y002521D01*
X005787Y002502D01*
X005805Y002486D01*
X005825Y002473D01*
X005847Y002463D01*
X005870Y002457D01*
X005894Y002455D01*
X005894Y002456D01*
X005870Y002458D01*
X005847Y002464D01*
X005825Y002474D01*
X005805Y002487D01*
X005788Y002503D01*
X005773Y002521D01*
X005762Y002542D01*
X005754Y002565D01*
X005750Y002588D01*
X005750Y002612D01*
X005754Y002635D01*
X005762Y002658D01*
X005773Y002679D01*
X005788Y002697D01*
X005805Y002713D01*
X005825Y002726D01*
X005847Y002736D01*
X005870Y002742D01*
X005894Y002744D01*
X005894Y002743D01*
X005870Y002741D01*
X005847Y002735D01*
X005826Y002726D01*
X005806Y002713D01*
X005789Y002697D01*
X005774Y002678D01*
X005763Y002657D01*
X005755Y002635D01*
X005751Y002612D01*
X005751Y002588D01*
X005755Y002565D01*
X005763Y002543D01*
X005774Y002522D01*
X005789Y002503D01*
X005806Y002487D01*
X005826Y002474D01*
X005847Y002465D01*
X005870Y002459D01*
X005894Y002457D01*
X005894Y002458D01*
X005870Y002460D01*
X005848Y002466D01*
X005826Y002475D01*
X005807Y002488D01*
X005789Y002504D01*
X005775Y002522D01*
X005764Y002543D01*
X005756Y002565D01*
X005752Y002588D01*
X005752Y002612D01*
X005756Y002635D01*
X005764Y002657D01*
X005775Y002678D01*
X005789Y002696D01*
X005807Y002712D01*
X005826Y002725D01*
X005848Y002734D01*
X005870Y002740D01*
X005894Y002742D01*
X005894Y002741D01*
X005870Y002739D01*
X005848Y002733D01*
X005827Y002724D01*
X005807Y002711D01*
X005790Y002695D01*
X005776Y002677D01*
X005765Y002657D01*
X005757Y002635D01*
X005753Y002612D01*
X005753Y002588D01*
X005757Y002565D01*
X005765Y002543D01*
X005776Y002523D01*
X005790Y002505D01*
X005807Y002489D01*
X005827Y002476D01*
X005848Y002467D01*
X005870Y002461D01*
X005894Y002459D01*
X005894Y002460D01*
X005871Y002462D01*
X005848Y002468D01*
X005827Y002477D01*
X005808Y002490D01*
X005791Y002505D01*
X005777Y002524D01*
X005766Y002544D01*
X005758Y002566D01*
X005754Y002588D01*
X005754Y002612D01*
X005758Y002634D01*
X005766Y002656D01*
X005777Y002676D01*
X005791Y002695D01*
X005808Y002710D01*
X005827Y002723D01*
X005848Y002732D01*
X005871Y002738D01*
X005894Y002740D01*
X005894Y002739D01*
X005871Y002737D01*
X005848Y002731D01*
X005828Y002722D01*
X005808Y002710D01*
X005792Y002694D01*
X005778Y002676D01*
X005767Y002656D01*
X005759Y002634D01*
X005755Y002611D01*
X005755Y002589D01*
X005759Y002566D01*
X005767Y002544D01*
X005778Y002524D01*
X005792Y002506D01*
X005808Y002490D01*
X005828Y002478D01*
X005848Y002469D01*
X005871Y002463D01*
X005894Y002461D01*
X005894Y002462D01*
X005871Y002464D01*
X005849Y002470D01*
X005828Y002479D01*
X005809Y002491D01*
X005792Y002507D01*
X005778Y002525D01*
X005768Y002545D01*
X005760Y002566D01*
X005756Y002589D01*
X005756Y002611D01*
X005760Y002634D01*
X005768Y002655D01*
X005778Y002675D01*
X005792Y002693D01*
X005809Y002709D01*
X005828Y002721D01*
X005849Y002730D01*
X005871Y002736D01*
X005894Y002738D01*
X005894Y002737D01*
X005871Y002735D01*
X005849Y002729D01*
X005828Y002720D01*
X005810Y002708D01*
X005793Y002693D01*
X005779Y002675D01*
X005768Y002655D01*
X005761Y002634D01*
X005757Y002611D01*
X005757Y002589D01*
X005761Y002566D01*
X005768Y002545D01*
X005779Y002525D01*
X005793Y002507D01*
X005810Y002492D01*
X005828Y002480D01*
X005849Y002471D01*
X005871Y002465D01*
X005894Y002463D01*
X005894Y002464D01*
X005871Y002466D01*
X005849Y002471D01*
X005829Y002481D01*
X005810Y002493D01*
X005794Y002508D01*
X005780Y002526D01*
X005769Y002545D01*
X005762Y002567D01*
X005758Y002589D01*
X005758Y002611D01*
X005762Y002633D01*
X005769Y002655D01*
X005780Y002674D01*
X005794Y002692D01*
X005810Y002707D01*
X005829Y002719D01*
X005849Y002729D01*
X005871Y002734D01*
X005894Y002736D01*
X005894Y002735D01*
X005871Y002733D01*
X005850Y002728D01*
X005829Y002719D01*
X005811Y002706D01*
X005795Y002691D01*
X005781Y002674D01*
X005770Y002654D01*
X005763Y002633D01*
X005759Y002611D01*
X005759Y002589D01*
X005763Y002567D01*
X005770Y002546D01*
X005781Y002526D01*
X005795Y002509D01*
X005811Y002494D01*
X005829Y002481D01*
X005850Y002472D01*
X005871Y002467D01*
X005894Y002465D01*
X005894Y002466D01*
X005872Y002468D01*
X005850Y002473D01*
X005830Y002482D01*
X005811Y002494D01*
X005795Y002509D01*
X005782Y002527D01*
X005771Y002546D01*
X005764Y002567D01*
X005760Y002589D01*
X005760Y002611D01*
X005764Y002633D01*
X005771Y002654D01*
X005782Y002673D01*
X005795Y002691D01*
X005811Y002706D01*
X005830Y002718D01*
X005850Y002727D01*
X005872Y002732D01*
X005894Y002734D01*
X005894Y002733D01*
X005872Y002731D01*
X005850Y002726D01*
X005830Y002717D01*
X005812Y002705D01*
X005796Y002690D01*
X005783Y002673D01*
X005772Y002653D01*
X005765Y002633D01*
X005761Y002611D01*
X005761Y002589D01*
X005765Y002567D01*
X005772Y002547D01*
X005783Y002527D01*
X005796Y002510D01*
X005812Y002495D01*
X005830Y002483D01*
X005850Y002474D01*
X005872Y002469D01*
X005894Y002467D01*
X005894Y002468D01*
X005872Y002470D01*
X005851Y002475D01*
X005831Y002484D01*
X005813Y002496D01*
X005797Y002511D01*
X005783Y002528D01*
X005773Y002547D01*
X005766Y002568D01*
X005762Y002589D01*
X005762Y002611D01*
X005766Y002632D01*
X005773Y002653D01*
X005783Y002672D01*
X005797Y002689D01*
X005813Y002704D01*
X005831Y002716D01*
X005851Y002725D01*
X005872Y002730D01*
X005894Y002732D01*
X005894Y002731D01*
X005872Y002729D01*
X005851Y002724D01*
X005831Y002715D01*
X005813Y002703D01*
X005797Y002689D01*
X005784Y002671D01*
X005774Y002653D01*
X005767Y002632D01*
X005763Y002611D01*
X005763Y002589D01*
X005767Y002568D01*
X005774Y002547D01*
X005784Y002529D01*
X005797Y002511D01*
X005813Y002497D01*
X005831Y002485D01*
X005851Y002476D01*
X005872Y002471D01*
X005894Y002469D01*
X005894Y002470D01*
X005871Y002472D01*
X005849Y002478D01*
X005829Y002488D01*
X005810Y002501D01*
X005794Y002517D01*
X005781Y002535D01*
X005772Y002556D01*
X005766Y002577D01*
X005764Y002600D01*
X005766Y002623D01*
X005772Y002644D01*
X005781Y002665D01*
X005794Y002683D01*
X005810Y002699D01*
X005829Y002712D01*
X005849Y002722D01*
X005871Y002728D01*
X005894Y002730D01*
X005894Y002729D01*
X005871Y002727D01*
X005850Y002721D01*
X005829Y002712D01*
X005811Y002699D01*
X005795Y002683D01*
X005782Y002664D01*
X005773Y002644D01*
X005767Y002622D01*
X005765Y002600D01*
X005767Y002578D01*
X005773Y002556D01*
X005782Y002536D01*
X005795Y002517D01*
X005811Y002501D01*
X005829Y002488D01*
X005850Y002479D01*
X005871Y002473D01*
X005894Y002471D01*
X005894Y002472D01*
X005871Y002474D01*
X005850Y002480D01*
X005830Y002489D01*
X005812Y002502D01*
X005796Y002518D01*
X005783Y002536D01*
X005774Y002556D01*
X005768Y002578D01*
X005766Y002600D01*
X005768Y002622D01*
X005774Y002644D01*
X005783Y002664D01*
X005796Y002682D01*
X005812Y002698D01*
X005830Y002711D01*
X005850Y002720D01*
X005871Y002726D01*
X005894Y002728D01*
X005894Y002727D01*
X005872Y002725D01*
X005850Y002719D01*
X005830Y002710D01*
X005812Y002697D01*
X005797Y002681D01*
X005784Y002663D01*
X005775Y002643D01*
X005769Y002622D01*
X005767Y002600D01*
X005769Y002578D01*
X005775Y002557D01*
X005784Y002537D01*
X005797Y002519D01*
X005812Y002503D01*
X005830Y002490D01*
X005850Y002481D01*
X005872Y002475D01*
X005894Y002473D01*
X005894Y002474D01*
X005872Y002476D01*
X005851Y002482D01*
X005831Y002491D01*
X005813Y002504D01*
X005797Y002519D01*
X005785Y002537D01*
X005776Y002557D01*
X005770Y002578D01*
X005768Y002600D01*
X005770Y002622D01*
X005776Y002643D01*
X005785Y002663D01*
X005797Y002681D01*
X005813Y002696D01*
X005831Y002709D01*
X005851Y002718D01*
X005872Y002724D01*
X005894Y002726D01*
X005894Y002725D01*
X005872Y002723D01*
X005851Y002717D01*
X005831Y002708D01*
X005813Y002696D01*
X005798Y002680D01*
X005786Y002662D01*
X005777Y002643D01*
X005771Y002622D01*
X005769Y002600D01*
X005771Y002578D01*
X005777Y002557D01*
X005786Y002538D01*
X005798Y002520D01*
X005813Y002504D01*
X005831Y002492D01*
X005851Y002483D01*
X005872Y002477D01*
X005894Y002475D01*
X005894Y002476D01*
X005872Y002478D01*
X005851Y002484D01*
X005832Y002493D01*
X005814Y002505D01*
X005799Y002520D01*
X005787Y002538D01*
X005777Y002558D01*
X005772Y002579D01*
X005770Y002600D01*
X005772Y002621D01*
X005777Y002642D01*
X005787Y002662D01*
X005799Y002680D01*
X005814Y002695D01*
X005832Y002707D01*
X005851Y002716D01*
X005872Y002722D01*
X005894Y002724D01*
X005894Y002723D01*
X005872Y002721D01*
X005852Y002715D01*
X005832Y002706D01*
X005815Y002694D01*
X005800Y002679D01*
X005787Y002661D01*
X005778Y002642D01*
X005773Y002621D01*
X005771Y002600D01*
X005773Y002579D01*
X005778Y002558D01*
X005787Y002539D01*
X005800Y002521D01*
X005815Y002506D01*
X005832Y002494D01*
X005852Y002485D01*
X005872Y002479D01*
X005894Y002477D01*
X005894Y002478D01*
X005872Y002480D01*
X005852Y002485D01*
X005833Y002495D01*
X005815Y002507D01*
X005800Y002522D01*
X005788Y002539D01*
X005779Y002558D01*
X005774Y002579D01*
X005772Y002600D01*
X005774Y002621D01*
X005779Y002642D01*
X005788Y002661D01*
X005800Y002678D01*
X005815Y002693D01*
X005833Y002705D01*
X005852Y002715D01*
X005872Y002720D01*
X005894Y002722D01*
X005894Y002721D01*
X005873Y002719D01*
X005852Y002714D01*
X005833Y002705D01*
X005816Y002693D01*
X005801Y002678D01*
X005789Y002660D01*
X005780Y002641D01*
X005775Y002621D01*
X005773Y002600D01*
X005775Y002579D01*
X005780Y002559D01*
X005789Y002540D01*
X005801Y002522D01*
X005816Y002507D01*
X005833Y002495D01*
X005852Y002486D01*
X005873Y002481D01*
X005894Y002479D01*
X005894Y002480D01*
X005873Y002482D01*
X005853Y002487D01*
X005834Y002496D01*
X005817Y002508D01*
X005802Y002523D01*
X005790Y002540D01*
X005781Y002559D01*
X005776Y002579D01*
X005774Y002600D01*
X005776Y002621D01*
X005781Y002641D01*
X005790Y002660D01*
X005802Y002677D01*
X005817Y002692D01*
X005834Y002704D01*
X005853Y002713D01*
X005873Y002718D01*
X005894Y002720D01*
X005894Y003557D02*
X005894Y003518D01*
X005894Y003519D02*
X005873Y003517D01*
X005853Y003512D01*
X005834Y003503D01*
X005817Y003491D01*
X005803Y003476D01*
X005791Y003459D01*
X005782Y003441D01*
X005777Y003421D01*
X005775Y003400D01*
X005777Y003379D01*
X005782Y003359D01*
X005791Y003341D01*
X005803Y003324D01*
X005817Y003309D01*
X005834Y003297D01*
X005853Y003288D01*
X005873Y003283D01*
X005894Y003281D01*
X005894Y003243D01*
X005894Y003242D01*
X005869Y003244D01*
X005845Y003250D01*
X005822Y003259D01*
X005801Y003272D01*
X005782Y003288D01*
X005766Y003307D01*
X005753Y003328D01*
X005744Y003351D01*
X005738Y003375D01*
X005736Y003400D01*
X005738Y003425D01*
X005744Y003449D01*
X005753Y003472D01*
X005766Y003493D01*
X005782Y003512D01*
X005801Y003528D01*
X005822Y003541D01*
X005845Y003550D01*
X005869Y003556D01*
X005894Y003558D01*
X005894Y003557D01*
X005869Y003555D01*
X005845Y003549D01*
X005822Y003540D01*
X005801Y003527D01*
X005783Y003511D01*
X005767Y003492D01*
X005754Y003471D01*
X005745Y003448D01*
X005739Y003425D01*
X005737Y003400D01*
X005739Y003375D01*
X005745Y003352D01*
X005754Y003329D01*
X005767Y003308D01*
X005783Y003289D01*
X005801Y003273D01*
X005822Y003260D01*
X005845Y003251D01*
X005869Y003245D01*
X005894Y003243D01*
X005894Y003244D01*
X005869Y003246D01*
X005845Y003252D01*
X005823Y003261D01*
X005802Y003274D01*
X005784Y003290D01*
X005768Y003308D01*
X005755Y003329D01*
X005746Y003352D01*
X005740Y003376D01*
X005738Y003400D01*
X005740Y003424D01*
X005746Y003448D01*
X005755Y003471D01*
X005768Y003492D01*
X005784Y003510D01*
X005802Y003526D01*
X005823Y003539D01*
X005845Y003548D01*
X005869Y003554D01*
X005894Y003556D01*
X005894Y003555D01*
X005869Y003553D01*
X005846Y003547D01*
X005823Y003538D01*
X005803Y003525D01*
X005784Y003509D01*
X005768Y003491D01*
X005756Y003470D01*
X005747Y003448D01*
X005741Y003424D01*
X005739Y003400D01*
X005741Y003376D01*
X005747Y003352D01*
X005756Y003330D01*
X005768Y003309D01*
X005784Y003291D01*
X005803Y003275D01*
X005823Y003262D01*
X005846Y003253D01*
X005869Y003247D01*
X005894Y003245D01*
X005894Y003246D01*
X005869Y003248D01*
X005846Y003254D01*
X005824Y003263D01*
X005803Y003276D01*
X005785Y003291D01*
X005769Y003310D01*
X005757Y003330D01*
X005748Y003353D01*
X005742Y003376D01*
X005740Y003400D01*
X005742Y003424D01*
X005748Y003447D01*
X005757Y003470D01*
X005769Y003490D01*
X005785Y003509D01*
X005803Y003524D01*
X005824Y003537D01*
X005846Y003546D01*
X005869Y003552D01*
X005894Y003554D01*
X005894Y003553D01*
X005870Y003551D01*
X005846Y003545D01*
X005824Y003536D01*
X005804Y003524D01*
X005786Y003508D01*
X005770Y003490D01*
X005758Y003469D01*
X005748Y003447D01*
X005743Y003424D01*
X005741Y003400D01*
X005743Y003376D01*
X005748Y003353D01*
X005758Y003331D01*
X005770Y003310D01*
X005786Y003292D01*
X005804Y003276D01*
X005824Y003264D01*
X005846Y003255D01*
X005870Y003249D01*
X005894Y003247D01*
X005894Y003248D01*
X005870Y003250D01*
X005847Y003256D01*
X005825Y003265D01*
X005804Y003277D01*
X005786Y003293D01*
X005771Y003311D01*
X005758Y003331D01*
X005749Y003353D01*
X005744Y003376D01*
X005742Y003400D01*
X005744Y003424D01*
X005749Y003447D01*
X005758Y003469D01*
X005771Y003489D01*
X005786Y003507D01*
X005804Y003523D01*
X005825Y003535D01*
X005847Y003544D01*
X005870Y003550D01*
X005894Y003552D01*
X005894Y003551D01*
X005870Y003549D01*
X005847Y003543D01*
X005825Y003534D01*
X005805Y003522D01*
X005787Y003507D01*
X005772Y003489D01*
X005759Y003468D01*
X005750Y003447D01*
X005745Y003424D01*
X005743Y003400D01*
X005745Y003376D01*
X005750Y003353D01*
X005759Y003332D01*
X005772Y003311D01*
X005787Y003293D01*
X005805Y003278D01*
X005825Y003266D01*
X005847Y003257D01*
X005870Y003251D01*
X005894Y003249D01*
X005894Y003250D01*
X005870Y003252D01*
X005847Y003257D01*
X005826Y003267D01*
X005806Y003279D01*
X005788Y003294D01*
X005773Y003312D01*
X005760Y003332D01*
X005751Y003354D01*
X005746Y003377D01*
X005744Y003400D01*
X005746Y003423D01*
X005751Y003446D01*
X005760Y003468D01*
X005773Y003488D01*
X005788Y003506D01*
X005806Y003521D01*
X005826Y003533D01*
X005847Y003543D01*
X005870Y003548D01*
X005894Y003550D01*
X005894Y003549D01*
X005870Y003547D01*
X005848Y003542D01*
X005826Y003533D01*
X005806Y003520D01*
X005788Y003505D01*
X005773Y003487D01*
X005761Y003468D01*
X005752Y003446D01*
X005747Y003423D01*
X005745Y003400D01*
X005747Y003377D01*
X005752Y003354D01*
X005761Y003332D01*
X005773Y003313D01*
X005788Y003295D01*
X005806Y003280D01*
X005826Y003267D01*
X005848Y003258D01*
X005870Y003253D01*
X005894Y003251D01*
X005894Y003252D01*
X005870Y003254D01*
X005848Y003259D01*
X005826Y003268D01*
X005807Y003280D01*
X005789Y003296D01*
X005774Y003313D01*
X005762Y003333D01*
X005753Y003354D01*
X005748Y003377D01*
X005746Y003400D01*
X005748Y003423D01*
X005753Y003446D01*
X005762Y003467D01*
X005774Y003487D01*
X005789Y003504D01*
X005807Y003520D01*
X005826Y003532D01*
X005848Y003541D01*
X005870Y003546D01*
X005894Y003548D01*
X005894Y003547D01*
X005871Y003545D01*
X005848Y003540D01*
X005827Y003531D01*
X005807Y003519D01*
X005790Y003504D01*
X005775Y003486D01*
X005763Y003467D01*
X005754Y003445D01*
X005749Y003423D01*
X005747Y003400D01*
X005749Y003377D01*
X005754Y003355D01*
X005763Y003333D01*
X005775Y003314D01*
X005790Y003296D01*
X005807Y003281D01*
X005827Y003269D01*
X005848Y003260D01*
X005871Y003255D01*
X005894Y003253D01*
X005894Y003254D01*
X005871Y003256D01*
X005849Y003261D01*
X005827Y003270D01*
X005808Y003282D01*
X005791Y003297D01*
X005776Y003314D01*
X005764Y003334D01*
X005755Y003355D01*
X005750Y003377D01*
X005748Y003400D01*
X005750Y003423D01*
X005755Y003445D01*
X005764Y003466D01*
X005776Y003486D01*
X005791Y003503D01*
X005808Y003518D01*
X005827Y003530D01*
X005849Y003539D01*
X005871Y003544D01*
X005894Y003546D01*
X005894Y003545D01*
X005870Y003543D01*
X005847Y003537D01*
X005825Y003527D01*
X005805Y003514D01*
X005787Y003498D01*
X005773Y003479D01*
X005761Y003458D01*
X005753Y003436D01*
X005749Y003412D01*
X005749Y003388D01*
X005753Y003364D01*
X005761Y003342D01*
X005773Y003321D01*
X005787Y003302D01*
X005805Y003286D01*
X005825Y003273D01*
X005847Y003263D01*
X005870Y003257D01*
X005894Y003255D01*
X005894Y003256D01*
X005870Y003258D01*
X005847Y003264D01*
X005825Y003274D01*
X005805Y003287D01*
X005788Y003303D01*
X005773Y003321D01*
X005762Y003342D01*
X005754Y003365D01*
X005750Y003388D01*
X005750Y003412D01*
X005754Y003435D01*
X005762Y003458D01*
X005773Y003479D01*
X005788Y003497D01*
X005805Y003513D01*
X005825Y003526D01*
X005847Y003536D01*
X005870Y003542D01*
X005894Y003544D01*
X005894Y003543D01*
X005870Y003541D01*
X005847Y003535D01*
X005826Y003526D01*
X005806Y003513D01*
X005789Y003497D01*
X005774Y003478D01*
X005763Y003457D01*
X005755Y003435D01*
X005751Y003412D01*
X005751Y003388D01*
X005755Y003365D01*
X005763Y003343D01*
X005774Y003322D01*
X005789Y003303D01*
X005806Y003287D01*
X005826Y003274D01*
X005847Y003265D01*
X005870Y003259D01*
X005894Y003257D01*
X005894Y003258D01*
X005870Y003260D01*
X005848Y003266D01*
X005826Y003275D01*
X005807Y003288D01*
X005789Y003304D01*
X005775Y003322D01*
X005764Y003343D01*
X005756Y003365D01*
X005752Y003388D01*
X005752Y003412D01*
X005756Y003435D01*
X005764Y003457D01*
X005775Y003478D01*
X005789Y003496D01*
X005807Y003512D01*
X005826Y003525D01*
X005848Y003534D01*
X005870Y003540D01*
X005894Y003542D01*
X005894Y003541D01*
X005870Y003539D01*
X005848Y003533D01*
X005827Y003524D01*
X005807Y003511D01*
X005790Y003495D01*
X005776Y003477D01*
X005765Y003457D01*
X005757Y003435D01*
X005753Y003412D01*
X005753Y003388D01*
X005757Y003365D01*
X005765Y003343D01*
X005776Y003323D01*
X005790Y003305D01*
X005807Y003289D01*
X005827Y003276D01*
X005848Y003267D01*
X005870Y003261D01*
X005894Y003259D01*
X005894Y003260D01*
X005871Y003262D01*
X005848Y003268D01*
X005827Y003277D01*
X005808Y003290D01*
X005791Y003305D01*
X005777Y003324D01*
X005766Y003344D01*
X005758Y003366D01*
X005754Y003388D01*
X005754Y003412D01*
X005758Y003434D01*
X005766Y003456D01*
X005777Y003476D01*
X005791Y003495D01*
X005808Y003510D01*
X005827Y003523D01*
X005848Y003532D01*
X005871Y003538D01*
X005894Y003540D01*
X005894Y003539D01*
X005871Y003537D01*
X005848Y003531D01*
X005828Y003522D01*
X005808Y003510D01*
X005792Y003494D01*
X005778Y003476D01*
X005767Y003456D01*
X005759Y003434D01*
X005755Y003411D01*
X005755Y003389D01*
X005759Y003366D01*
X005767Y003344D01*
X005778Y003324D01*
X005792Y003306D01*
X005808Y003290D01*
X005828Y003278D01*
X005848Y003269D01*
X005871Y003263D01*
X005894Y003261D01*
X005894Y003262D01*
X005871Y003264D01*
X005849Y003270D01*
X005828Y003279D01*
X005809Y003291D01*
X005792Y003307D01*
X005778Y003325D01*
X005768Y003345D01*
X005760Y003366D01*
X005756Y003389D01*
X005756Y003411D01*
X005760Y003434D01*
X005768Y003455D01*
X005778Y003475D01*
X005792Y003493D01*
X005809Y003509D01*
X005828Y003521D01*
X005849Y003530D01*
X005871Y003536D01*
X005894Y003538D01*
X005894Y003537D01*
X005871Y003535D01*
X005849Y003529D01*
X005828Y003520D01*
X005810Y003508D01*
X005793Y003493D01*
X005779Y003475D01*
X005768Y003455D01*
X005761Y003434D01*
X005757Y003411D01*
X005757Y003389D01*
X005761Y003366D01*
X005768Y003345D01*
X005779Y003325D01*
X005793Y003307D01*
X005810Y003292D01*
X005828Y003280D01*
X005849Y003271D01*
X005871Y003265D01*
X005894Y003263D01*
X005894Y003264D01*
X005871Y003266D01*
X005849Y003271D01*
X005829Y003281D01*
X005810Y003293D01*
X005794Y003308D01*
X005780Y003326D01*
X005769Y003345D01*
X005762Y003367D01*
X005758Y003389D01*
X005758Y003411D01*
X005762Y003433D01*
X005769Y003455D01*
X005780Y003474D01*
X005794Y003492D01*
X005810Y003507D01*
X005829Y003519D01*
X005849Y003529D01*
X005871Y003534D01*
X005894Y003536D01*
X005894Y003535D01*
X005871Y003533D01*
X005850Y003528D01*
X005829Y003519D01*
X005811Y003506D01*
X005795Y003491D01*
X005781Y003474D01*
X005770Y003454D01*
X005763Y003433D01*
X005759Y003411D01*
X005759Y003389D01*
X005763Y003367D01*
X005770Y003346D01*
X005781Y003326D01*
X005795Y003309D01*
X005811Y003294D01*
X005829Y003281D01*
X005850Y003272D01*
X005871Y003267D01*
X005894Y003265D01*
X005894Y003266D01*
X005872Y003268D01*
X005850Y003273D01*
X005830Y003282D01*
X005811Y003294D01*
X005795Y003309D01*
X005782Y003327D01*
X005771Y003346D01*
X005764Y003367D01*
X005760Y003389D01*
X005760Y003411D01*
X005764Y003433D01*
X005771Y003454D01*
X005782Y003473D01*
X005795Y003491D01*
X005811Y003506D01*
X005830Y003518D01*
X005850Y003527D01*
X005872Y003532D01*
X005894Y003534D01*
X005894Y003533D01*
X005872Y003531D01*
X005850Y003526D01*
X005830Y003517D01*
X005812Y003505D01*
X005796Y003490D01*
X005783Y003473D01*
X005772Y003453D01*
X005765Y003433D01*
X005761Y003411D01*
X005761Y003389D01*
X005765Y003367D01*
X005772Y003347D01*
X005783Y003327D01*
X005796Y003310D01*
X005812Y003295D01*
X005830Y003283D01*
X005850Y003274D01*
X005872Y003269D01*
X005894Y003267D01*
X005894Y003268D01*
X005872Y003270D01*
X005851Y003275D01*
X005831Y003284D01*
X005813Y003296D01*
X005797Y003311D01*
X005783Y003328D01*
X005773Y003347D01*
X005766Y003368D01*
X005762Y003389D01*
X005762Y003411D01*
X005766Y003432D01*
X005773Y003453D01*
X005783Y003472D01*
X005797Y003489D01*
X005813Y003504D01*
X005831Y003516D01*
X005851Y003525D01*
X005872Y003530D01*
X005894Y003532D01*
X005894Y003531D01*
X005872Y003529D01*
X005851Y003524D01*
X005831Y003515D01*
X005813Y003503D01*
X005797Y003489D01*
X005784Y003471D01*
X005774Y003453D01*
X005767Y003432D01*
X005763Y003411D01*
X005763Y003389D01*
X005767Y003368D01*
X005774Y003347D01*
X005784Y003329D01*
X005797Y003311D01*
X005813Y003297D01*
X005831Y003285D01*
X005851Y003276D01*
X005872Y003271D01*
X005894Y003269D01*
X005894Y003270D01*
X005871Y003272D01*
X005849Y003278D01*
X005829Y003288D01*
X005810Y003301D01*
X005794Y003317D01*
X005781Y003335D01*
X005772Y003356D01*
X005766Y003377D01*
X005764Y003400D01*
X005766Y003423D01*
X005772Y003444D01*
X005781Y003465D01*
X005794Y003483D01*
X005810Y003499D01*
X005829Y003512D01*
X005849Y003522D01*
X005871Y003528D01*
X005894Y003530D01*
X005894Y003529D01*
X005871Y003527D01*
X005850Y003521D01*
X005829Y003512D01*
X005811Y003499D01*
X005795Y003483D01*
X005782Y003464D01*
X005773Y003444D01*
X005767Y003422D01*
X005765Y003400D01*
X005767Y003378D01*
X005773Y003356D01*
X005782Y003336D01*
X005795Y003317D01*
X005811Y003301D01*
X005829Y003288D01*
X005850Y003279D01*
X005871Y003273D01*
X005894Y003271D01*
X005894Y003272D01*
X005871Y003274D01*
X005850Y003280D01*
X005830Y003289D01*
X005812Y003302D01*
X005796Y003318D01*
X005783Y003336D01*
X005774Y003356D01*
X005768Y003378D01*
X005766Y003400D01*
X005768Y003422D01*
X005774Y003444D01*
X005783Y003464D01*
X005796Y003482D01*
X005812Y003498D01*
X005830Y003511D01*
X005850Y003520D01*
X005871Y003526D01*
X005894Y003528D01*
X005894Y003527D01*
X005872Y003525D01*
X005850Y003519D01*
X005830Y003510D01*
X005812Y003497D01*
X005797Y003481D01*
X005784Y003463D01*
X005775Y003443D01*
X005769Y003422D01*
X005767Y003400D01*
X005769Y003378D01*
X005775Y003357D01*
X005784Y003337D01*
X005797Y003319D01*
X005812Y003303D01*
X005830Y003290D01*
X005850Y003281D01*
X005872Y003275D01*
X005894Y003273D01*
X005894Y003274D01*
X005872Y003276D01*
X005851Y003282D01*
X005831Y003291D01*
X005813Y003304D01*
X005797Y003319D01*
X005785Y003337D01*
X005776Y003357D01*
X005770Y003378D01*
X005768Y003400D01*
X005770Y003422D01*
X005776Y003443D01*
X005785Y003463D01*
X005797Y003481D01*
X005813Y003496D01*
X005831Y003509D01*
X005851Y003518D01*
X005872Y003524D01*
X005894Y003526D01*
X005894Y003525D01*
X005872Y003523D01*
X005851Y003517D01*
X005831Y003508D01*
X005813Y003496D01*
X005798Y003480D01*
X005786Y003462D01*
X005777Y003443D01*
X005771Y003422D01*
X005769Y003400D01*
X005771Y003378D01*
X005777Y003357D01*
X005786Y003338D01*
X005798Y003320D01*
X005813Y003304D01*
X005831Y003292D01*
X005851Y003283D01*
X005872Y003277D01*
X005894Y003275D01*
X005894Y003276D01*
X005872Y003278D01*
X005851Y003284D01*
X005832Y003293D01*
X005814Y003305D01*
X005799Y003320D01*
X005787Y003338D01*
X005777Y003358D01*
X005772Y003379D01*
X005770Y003400D01*
X005772Y003421D01*
X005777Y003442D01*
X005787Y003462D01*
X005799Y003480D01*
X005814Y003495D01*
X005832Y003507D01*
X005851Y003516D01*
X005872Y003522D01*
X005894Y003524D01*
X005894Y003523D01*
X005872Y003521D01*
X005852Y003515D01*
X005832Y003506D01*
X005815Y003494D01*
X005800Y003479D01*
X005787Y003461D01*
X005778Y003442D01*
X005773Y003421D01*
X005771Y003400D01*
X005773Y003379D01*
X005778Y003358D01*
X005787Y003339D01*
X005800Y003321D01*
X005815Y003306D01*
X005832Y003294D01*
X005852Y003285D01*
X005872Y003279D01*
X005894Y003277D01*
X005894Y003278D01*
X005872Y003280D01*
X005852Y003285D01*
X005833Y003295D01*
X005815Y003307D01*
X005800Y003322D01*
X005788Y003339D01*
X005779Y003358D01*
X005774Y003379D01*
X005772Y003400D01*
X005774Y003421D01*
X005779Y003442D01*
X005788Y003461D01*
X005800Y003478D01*
X005815Y003493D01*
X005833Y003505D01*
X005852Y003515D01*
X005872Y003520D01*
X005894Y003522D01*
X005894Y003521D01*
X005873Y003519D01*
X005852Y003514D01*
X005833Y003505D01*
X005816Y003493D01*
X005801Y003478D01*
X005789Y003460D01*
X005780Y003441D01*
X005775Y003421D01*
X005773Y003400D01*
X005775Y003379D01*
X005780Y003359D01*
X005789Y003340D01*
X005801Y003322D01*
X005816Y003307D01*
X005833Y003295D01*
X005852Y003286D01*
X005873Y003281D01*
X005894Y003279D01*
X005894Y003280D01*
X005873Y003282D01*
X005853Y003287D01*
X005834Y003296D01*
X005817Y003308D01*
X005802Y003323D01*
X005790Y003340D01*
X005781Y003359D01*
X005776Y003379D01*
X005774Y003400D01*
X005776Y003421D01*
X005781Y003441D01*
X005790Y003460D01*
X005802Y003477D01*
X005817Y003492D01*
X005834Y003504D01*
X005853Y003513D01*
X005873Y003518D01*
X005894Y003520D01*
X005106Y003243D02*
X005106Y003282D01*
X005106Y003281D02*
X005127Y003283D01*
X005147Y003288D01*
X005166Y003297D01*
X005183Y003309D01*
X005197Y003324D01*
X005209Y003341D01*
X005218Y003359D01*
X005223Y003379D01*
X005225Y003400D01*
X005223Y003421D01*
X005218Y003441D01*
X005209Y003459D01*
X005197Y003476D01*
X005183Y003491D01*
X005166Y003503D01*
X005147Y003512D01*
X005127Y003517D01*
X005106Y003519D01*
X005106Y003557D01*
X005106Y003558D01*
X005131Y003556D01*
X005155Y003550D01*
X005178Y003541D01*
X005199Y003528D01*
X005218Y003512D01*
X005234Y003493D01*
X005247Y003472D01*
X005256Y003449D01*
X005262Y003425D01*
X005264Y003400D01*
X005262Y003375D01*
X005256Y003351D01*
X005247Y003328D01*
X005234Y003307D01*
X005218Y003288D01*
X005199Y003272D01*
X005178Y003259D01*
X005155Y003250D01*
X005131Y003244D01*
X005106Y003242D01*
X005106Y003243D01*
X005131Y003245D01*
X005155Y003251D01*
X005178Y003260D01*
X005199Y003273D01*
X005217Y003289D01*
X005233Y003308D01*
X005246Y003329D01*
X005255Y003352D01*
X005261Y003375D01*
X005263Y003400D01*
X005261Y003425D01*
X005255Y003448D01*
X005246Y003471D01*
X005233Y003492D01*
X005217Y003511D01*
X005199Y003527D01*
X005178Y003540D01*
X005155Y003549D01*
X005131Y003555D01*
X005106Y003557D01*
X005106Y003556D01*
X005131Y003554D01*
X005155Y003548D01*
X005177Y003539D01*
X005198Y003526D01*
X005216Y003510D01*
X005232Y003492D01*
X005245Y003471D01*
X005254Y003448D01*
X005260Y003424D01*
X005262Y003400D01*
X005260Y003376D01*
X005254Y003352D01*
X005245Y003329D01*
X005232Y003308D01*
X005216Y003290D01*
X005198Y003274D01*
X005177Y003261D01*
X005155Y003252D01*
X005131Y003246D01*
X005106Y003244D01*
X005106Y003245D01*
X005131Y003247D01*
X005154Y003253D01*
X005177Y003262D01*
X005197Y003275D01*
X005216Y003291D01*
X005232Y003309D01*
X005244Y003330D01*
X005253Y003352D01*
X005259Y003376D01*
X005261Y003400D01*
X005259Y003424D01*
X005253Y003448D01*
X005244Y003470D01*
X005232Y003491D01*
X005216Y003509D01*
X005197Y003525D01*
X005177Y003538D01*
X005154Y003547D01*
X005131Y003553D01*
X005106Y003555D01*
X005106Y003554D01*
X005131Y003552D01*
X005154Y003546D01*
X005176Y003537D01*
X005197Y003524D01*
X005215Y003509D01*
X005231Y003490D01*
X005243Y003470D01*
X005252Y003447D01*
X005258Y003424D01*
X005260Y003400D01*
X005258Y003376D01*
X005252Y003353D01*
X005243Y003330D01*
X005231Y003310D01*
X005215Y003291D01*
X005197Y003276D01*
X005176Y003263D01*
X005154Y003254D01*
X005131Y003248D01*
X005106Y003246D01*
X005106Y003247D01*
X005130Y003249D01*
X005154Y003255D01*
X005176Y003264D01*
X005196Y003276D01*
X005214Y003292D01*
X005230Y003310D01*
X005242Y003331D01*
X005252Y003353D01*
X005257Y003376D01*
X005259Y003400D01*
X005257Y003424D01*
X005252Y003447D01*
X005242Y003469D01*
X005230Y003490D01*
X005214Y003508D01*
X005196Y003524D01*
X005176Y003536D01*
X005154Y003545D01*
X005130Y003551D01*
X005106Y003553D01*
X005106Y003552D01*
X005130Y003550D01*
X005153Y003544D01*
X005175Y003535D01*
X005196Y003523D01*
X005214Y003507D01*
X005229Y003489D01*
X005242Y003469D01*
X005251Y003447D01*
X005256Y003424D01*
X005258Y003400D01*
X005256Y003376D01*
X005251Y003353D01*
X005242Y003331D01*
X005229Y003311D01*
X005214Y003293D01*
X005196Y003277D01*
X005175Y003265D01*
X005153Y003256D01*
X005130Y003250D01*
X005106Y003248D01*
X005106Y003249D01*
X005130Y003251D01*
X005153Y003257D01*
X005175Y003266D01*
X005195Y003278D01*
X005213Y003293D01*
X005228Y003311D01*
X005241Y003332D01*
X005250Y003353D01*
X005255Y003376D01*
X005257Y003400D01*
X005255Y003424D01*
X005250Y003447D01*
X005241Y003468D01*
X005228Y003489D01*
X005213Y003507D01*
X005195Y003522D01*
X005175Y003534D01*
X005153Y003543D01*
X005130Y003549D01*
X005106Y003551D01*
X005106Y003550D01*
X005130Y003548D01*
X005153Y003543D01*
X005174Y003533D01*
X005194Y003521D01*
X005212Y003506D01*
X005227Y003488D01*
X005240Y003468D01*
X005249Y003446D01*
X005254Y003423D01*
X005256Y003400D01*
X005254Y003377D01*
X005249Y003354D01*
X005240Y003332D01*
X005227Y003312D01*
X005212Y003294D01*
X005194Y003279D01*
X005174Y003267D01*
X005153Y003257D01*
X005130Y003252D01*
X005106Y003250D01*
X005106Y003251D01*
X005130Y003253D01*
X005152Y003258D01*
X005174Y003267D01*
X005194Y003280D01*
X005212Y003295D01*
X005227Y003313D01*
X005239Y003332D01*
X005248Y003354D01*
X005253Y003377D01*
X005255Y003400D01*
X005253Y003423D01*
X005248Y003446D01*
X005239Y003468D01*
X005227Y003487D01*
X005212Y003505D01*
X005194Y003520D01*
X005174Y003533D01*
X005152Y003542D01*
X005130Y003547D01*
X005106Y003549D01*
X005106Y003548D01*
X005130Y003546D01*
X005152Y003541D01*
X005174Y003532D01*
X005193Y003520D01*
X005211Y003504D01*
X005226Y003487D01*
X005238Y003467D01*
X005247Y003446D01*
X005252Y003423D01*
X005254Y003400D01*
X005252Y003377D01*
X005247Y003354D01*
X005238Y003333D01*
X005226Y003313D01*
X005211Y003296D01*
X005193Y003280D01*
X005174Y003268D01*
X005152Y003259D01*
X005130Y003254D01*
X005106Y003252D01*
X005106Y003253D01*
X005129Y003255D01*
X005152Y003260D01*
X005173Y003269D01*
X005193Y003281D01*
X005210Y003296D01*
X005225Y003314D01*
X005237Y003333D01*
X005246Y003355D01*
X005251Y003377D01*
X005253Y003400D01*
X005251Y003423D01*
X005246Y003445D01*
X005237Y003467D01*
X005225Y003486D01*
X005210Y003504D01*
X005193Y003519D01*
X005173Y003531D01*
X005152Y003540D01*
X005129Y003545D01*
X005106Y003547D01*
X005106Y003546D01*
X005129Y003544D01*
X005151Y003539D01*
X005173Y003530D01*
X005192Y003518D01*
X005209Y003503D01*
X005224Y003486D01*
X005236Y003466D01*
X005245Y003445D01*
X005250Y003423D01*
X005252Y003400D01*
X005250Y003377D01*
X005245Y003355D01*
X005236Y003334D01*
X005224Y003314D01*
X005209Y003297D01*
X005192Y003282D01*
X005173Y003270D01*
X005151Y003261D01*
X005129Y003256D01*
X005106Y003254D01*
X005106Y003255D01*
X005130Y003257D01*
X005153Y003263D01*
X005175Y003273D01*
X005195Y003286D01*
X005213Y003302D01*
X005227Y003321D01*
X005239Y003342D01*
X005247Y003364D01*
X005251Y003388D01*
X005251Y003412D01*
X005247Y003436D01*
X005239Y003458D01*
X005227Y003479D01*
X005213Y003498D01*
X005195Y003514D01*
X005175Y003527D01*
X005153Y003537D01*
X005130Y003543D01*
X005106Y003545D01*
X005106Y003544D01*
X005130Y003542D01*
X005153Y003536D01*
X005175Y003526D01*
X005195Y003513D01*
X005212Y003497D01*
X005227Y003479D01*
X005238Y003458D01*
X005246Y003435D01*
X005250Y003412D01*
X005250Y003388D01*
X005246Y003365D01*
X005238Y003342D01*
X005227Y003321D01*
X005212Y003303D01*
X005195Y003287D01*
X005175Y003274D01*
X005153Y003264D01*
X005130Y003258D01*
X005106Y003256D01*
X005106Y003257D01*
X005130Y003259D01*
X005153Y003265D01*
X005174Y003274D01*
X005194Y003287D01*
X005211Y003303D01*
X005226Y003322D01*
X005237Y003343D01*
X005245Y003365D01*
X005249Y003388D01*
X005249Y003412D01*
X005245Y003435D01*
X005237Y003457D01*
X005226Y003478D01*
X005211Y003497D01*
X005194Y003513D01*
X005174Y003526D01*
X005153Y003535D01*
X005130Y003541D01*
X005106Y003543D01*
X005106Y003542D01*
X005130Y003540D01*
X005152Y003534D01*
X005174Y003525D01*
X005193Y003512D01*
X005211Y003496D01*
X005225Y003478D01*
X005236Y003457D01*
X005244Y003435D01*
X005248Y003412D01*
X005248Y003388D01*
X005244Y003365D01*
X005236Y003343D01*
X005225Y003322D01*
X005211Y003304D01*
X005193Y003288D01*
X005174Y003275D01*
X005152Y003266D01*
X005130Y003260D01*
X005106Y003258D01*
X005106Y003259D01*
X005130Y003261D01*
X005152Y003267D01*
X005173Y003276D01*
X005193Y003289D01*
X005210Y003305D01*
X005224Y003323D01*
X005235Y003343D01*
X005243Y003365D01*
X005247Y003388D01*
X005247Y003412D01*
X005243Y003435D01*
X005235Y003457D01*
X005224Y003477D01*
X005210Y003495D01*
X005193Y003511D01*
X005173Y003524D01*
X005152Y003533D01*
X005130Y003539D01*
X005106Y003541D01*
X005106Y003540D01*
X005129Y003538D01*
X005152Y003532D01*
X005173Y003523D01*
X005192Y003510D01*
X005209Y003495D01*
X005223Y003476D01*
X005234Y003456D01*
X005242Y003434D01*
X005246Y003412D01*
X005246Y003388D01*
X005242Y003366D01*
X005234Y003344D01*
X005223Y003324D01*
X005209Y003305D01*
X005192Y003290D01*
X005173Y003277D01*
X005152Y003268D01*
X005129Y003262D01*
X005106Y003260D01*
X005106Y003261D01*
X005129Y003263D01*
X005152Y003269D01*
X005172Y003278D01*
X005192Y003290D01*
X005208Y003306D01*
X005222Y003324D01*
X005233Y003344D01*
X005241Y003366D01*
X005245Y003389D01*
X005245Y003411D01*
X005241Y003434D01*
X005233Y003456D01*
X005222Y003476D01*
X005208Y003494D01*
X005192Y003510D01*
X005172Y003522D01*
X005152Y003531D01*
X005129Y003537D01*
X005106Y003539D01*
X005106Y003538D01*
X005129Y003536D01*
X005151Y003530D01*
X005172Y003521D01*
X005191Y003509D01*
X005208Y003493D01*
X005222Y003475D01*
X005232Y003455D01*
X005240Y003434D01*
X005244Y003411D01*
X005244Y003389D01*
X005240Y003366D01*
X005232Y003345D01*
X005222Y003325D01*
X005208Y003307D01*
X005191Y003291D01*
X005172Y003279D01*
X005151Y003270D01*
X005129Y003264D01*
X005106Y003262D01*
X005106Y003263D01*
X005129Y003265D01*
X005151Y003271D01*
X005172Y003280D01*
X005190Y003292D01*
X005207Y003307D01*
X005221Y003325D01*
X005232Y003345D01*
X005239Y003366D01*
X005243Y003389D01*
X005243Y003411D01*
X005239Y003434D01*
X005232Y003455D01*
X005221Y003475D01*
X005207Y003493D01*
X005190Y003508D01*
X005172Y003520D01*
X005151Y003529D01*
X005129Y003535D01*
X005106Y003537D01*
X005106Y003536D01*
X005129Y003534D01*
X005151Y003529D01*
X005171Y003519D01*
X005190Y003507D01*
X005206Y003492D01*
X005220Y003474D01*
X005231Y003455D01*
X005238Y003433D01*
X005242Y003411D01*
X005242Y003389D01*
X005238Y003367D01*
X005231Y003345D01*
X005220Y003326D01*
X005206Y003308D01*
X005190Y003293D01*
X005171Y003281D01*
X005151Y003271D01*
X005129Y003266D01*
X005106Y003264D01*
X005106Y003265D01*
X005129Y003267D01*
X005150Y003272D01*
X005171Y003281D01*
X005189Y003294D01*
X005205Y003309D01*
X005219Y003326D01*
X005230Y003346D01*
X005237Y003367D01*
X005241Y003389D01*
X005241Y003411D01*
X005237Y003433D01*
X005230Y003454D01*
X005219Y003474D01*
X005205Y003491D01*
X005189Y003506D01*
X005171Y003519D01*
X005150Y003528D01*
X005129Y003533D01*
X005106Y003535D01*
X005106Y003534D01*
X005128Y003532D01*
X005150Y003527D01*
X005170Y003518D01*
X005189Y003506D01*
X005205Y003491D01*
X005218Y003473D01*
X005229Y003454D01*
X005236Y003433D01*
X005240Y003411D01*
X005240Y003389D01*
X005236Y003367D01*
X005229Y003346D01*
X005218Y003327D01*
X005205Y003309D01*
X005189Y003294D01*
X005170Y003282D01*
X005150Y003273D01*
X005128Y003268D01*
X005106Y003266D01*
X005106Y003267D01*
X005128Y003269D01*
X005150Y003274D01*
X005170Y003283D01*
X005188Y003295D01*
X005204Y003310D01*
X005217Y003327D01*
X005228Y003347D01*
X005235Y003367D01*
X005239Y003389D01*
X005239Y003411D01*
X005235Y003433D01*
X005228Y003453D01*
X005217Y003473D01*
X005204Y003490D01*
X005188Y003505D01*
X005170Y003517D01*
X005150Y003526D01*
X005128Y003531D01*
X005106Y003533D01*
X005106Y003532D01*
X005128Y003530D01*
X005149Y003525D01*
X005169Y003516D01*
X005187Y003504D01*
X005203Y003489D01*
X005217Y003472D01*
X005227Y003453D01*
X005234Y003432D01*
X005238Y003411D01*
X005238Y003389D01*
X005234Y003368D01*
X005227Y003347D01*
X005217Y003328D01*
X005203Y003311D01*
X005187Y003296D01*
X005169Y003284D01*
X005149Y003275D01*
X005128Y003270D01*
X005106Y003268D01*
X005106Y003269D01*
X005128Y003271D01*
X005149Y003276D01*
X005169Y003285D01*
X005187Y003297D01*
X005203Y003311D01*
X005216Y003329D01*
X005226Y003347D01*
X005233Y003368D01*
X005237Y003389D01*
X005237Y003411D01*
X005233Y003432D01*
X005226Y003453D01*
X005216Y003471D01*
X005203Y003489D01*
X005187Y003503D01*
X005169Y003515D01*
X005149Y003524D01*
X005128Y003529D01*
X005106Y003531D01*
X005106Y003530D01*
X005129Y003528D01*
X005151Y003522D01*
X005171Y003512D01*
X005190Y003499D01*
X005206Y003483D01*
X005219Y003465D01*
X005228Y003444D01*
X005234Y003423D01*
X005236Y003400D01*
X005234Y003377D01*
X005228Y003356D01*
X005219Y003335D01*
X005206Y003317D01*
X005190Y003301D01*
X005171Y003288D01*
X005151Y003278D01*
X005129Y003272D01*
X005106Y003270D01*
X005106Y003271D01*
X005129Y003273D01*
X005150Y003279D01*
X005171Y003288D01*
X005189Y003301D01*
X005205Y003317D01*
X005218Y003336D01*
X005227Y003356D01*
X005233Y003378D01*
X005235Y003400D01*
X005233Y003422D01*
X005227Y003444D01*
X005218Y003464D01*
X005205Y003483D01*
X005189Y003499D01*
X005171Y003512D01*
X005150Y003521D01*
X005129Y003527D01*
X005106Y003529D01*
X005106Y003528D01*
X005129Y003526D01*
X005150Y003520D01*
X005170Y003511D01*
X005188Y003498D01*
X005204Y003482D01*
X005217Y003464D01*
X005226Y003444D01*
X005232Y003422D01*
X005234Y003400D01*
X005232Y003378D01*
X005226Y003356D01*
X005217Y003336D01*
X005204Y003318D01*
X005188Y003302D01*
X005170Y003289D01*
X005150Y003280D01*
X005129Y003274D01*
X005106Y003272D01*
X005106Y003273D01*
X005128Y003275D01*
X005150Y003281D01*
X005170Y003290D01*
X005188Y003303D01*
X005203Y003319D01*
X005216Y003337D01*
X005225Y003357D01*
X005231Y003378D01*
X005233Y003400D01*
X005231Y003422D01*
X005225Y003443D01*
X005216Y003463D01*
X005203Y003481D01*
X005188Y003497D01*
X005170Y003510D01*
X005150Y003519D01*
X005128Y003525D01*
X005106Y003527D01*
X005106Y003526D01*
X005128Y003524D01*
X005149Y003518D01*
X005169Y003509D01*
X005187Y003496D01*
X005203Y003481D01*
X005215Y003463D01*
X005224Y003443D01*
X005230Y003422D01*
X005232Y003400D01*
X005230Y003378D01*
X005224Y003357D01*
X005215Y003337D01*
X005203Y003319D01*
X005187Y003304D01*
X005169Y003291D01*
X005149Y003282D01*
X005128Y003276D01*
X005106Y003274D01*
X005106Y003275D01*
X005128Y003277D01*
X005149Y003283D01*
X005169Y003292D01*
X005187Y003304D01*
X005202Y003320D01*
X005214Y003338D01*
X005223Y003357D01*
X005229Y003378D01*
X005231Y003400D01*
X005229Y003422D01*
X005223Y003443D01*
X005214Y003462D01*
X005202Y003480D01*
X005187Y003496D01*
X005169Y003508D01*
X005149Y003517D01*
X005128Y003523D01*
X005106Y003525D01*
X005106Y003524D01*
X005128Y003522D01*
X005149Y003516D01*
X005168Y003507D01*
X005186Y003495D01*
X005201Y003480D01*
X005213Y003462D01*
X005223Y003442D01*
X005228Y003421D01*
X005230Y003400D01*
X005228Y003379D01*
X005223Y003358D01*
X005213Y003338D01*
X005201Y003320D01*
X005186Y003305D01*
X005168Y003293D01*
X005149Y003284D01*
X005128Y003278D01*
X005106Y003276D01*
X005106Y003277D01*
X005128Y003279D01*
X005148Y003285D01*
X005168Y003294D01*
X005185Y003306D01*
X005200Y003321D01*
X005213Y003339D01*
X005222Y003358D01*
X005227Y003379D01*
X005229Y003400D01*
X005227Y003421D01*
X005222Y003442D01*
X005213Y003461D01*
X005200Y003479D01*
X005185Y003494D01*
X005168Y003506D01*
X005148Y003515D01*
X005128Y003521D01*
X005106Y003523D01*
X005106Y003522D01*
X005128Y003520D01*
X005148Y003515D01*
X005167Y003505D01*
X005185Y003493D01*
X005200Y003478D01*
X005212Y003461D01*
X005221Y003442D01*
X005226Y003421D01*
X005228Y003400D01*
X005226Y003379D01*
X005221Y003358D01*
X005212Y003339D01*
X005200Y003322D01*
X005185Y003307D01*
X005167Y003295D01*
X005148Y003285D01*
X005128Y003280D01*
X005106Y003278D01*
X005106Y003279D01*
X005127Y003281D01*
X005148Y003286D01*
X005167Y003295D01*
X005184Y003307D01*
X005199Y003322D01*
X005211Y003340D01*
X005220Y003359D01*
X005225Y003379D01*
X005227Y003400D01*
X005225Y003421D01*
X005220Y003441D01*
X005211Y003460D01*
X005199Y003478D01*
X005184Y003493D01*
X005167Y003505D01*
X005148Y003514D01*
X005127Y003519D01*
X005106Y003521D01*
X005106Y003520D01*
X005127Y003518D01*
X005147Y003513D01*
X005166Y003504D01*
X005183Y003492D01*
X005198Y003477D01*
X005210Y003460D01*
X005219Y003441D01*
X005224Y003421D01*
X005226Y003400D01*
X005224Y003379D01*
X005219Y003359D01*
X005210Y003340D01*
X005198Y003323D01*
X005183Y003308D01*
X005166Y003296D01*
X005147Y003287D01*
X005127Y003282D01*
X005106Y003280D01*
D20*
X005205Y003218D03*
X005205Y003582D03*
X005795Y003218D03*
X005205Y002782D03*
X005205Y002418D03*
X005795Y002418D03*
D21*
X005746Y002502D03*
X005746Y002698D03*
X005254Y002698D03*
X005254Y002502D03*
X005254Y003302D03*
X005254Y003498D03*
X005746Y003498D03*
X005746Y003302D03*
D22*
X005731Y003400D03*
X005269Y003400D03*
X005269Y002600D03*
X005731Y002600D03*
D23*
X005539Y002600D03*
X005539Y003400D03*
D24*
X005756Y003577D03*
X005756Y002777D03*
D25*
X005879Y002802D03*
X005879Y003602D03*
D26*
X004428Y003402D03*
X003968Y003402D03*
X003128Y003302D03*
X002668Y003302D03*
X003968Y002602D03*
X004428Y002602D03*
X003128Y005302D03*
X002668Y005302D03*
X002672Y006098D03*
X003132Y006098D03*
X005272Y006398D03*
X005732Y006398D03*
X005732Y007248D03*
X005272Y007248D03*
X005272Y008098D03*
X005732Y008098D03*
X003128Y008102D03*
X002668Y008102D03*
D27*
X002900Y008100D03*
X002900Y006100D03*
X002900Y005300D03*
X004200Y003400D03*
X004200Y002600D03*
X002900Y003300D03*
D28*
X005500Y006388D02*
X005500Y006412D01*
X005500Y007238D02*
X005500Y007262D01*
D29*
X003176Y007415D02*
X003176Y007651D01*
X002861Y007651D01*
X003176Y006785D02*
X003176Y006549D01*
X002861Y006549D01*
X002861Y004851D02*
X003176Y004851D01*
X003176Y004615D01*
X003176Y003985D02*
X003176Y003749D01*
X002861Y003749D01*
X005799Y005490D02*
X005801Y005498D01*
X005806Y005505D01*
X005813Y005509D01*
X005821Y005510D01*
X005829Y005507D01*
X005835Y005502D01*
X005839Y005494D01*
X005839Y005486D01*
X005835Y005478D01*
X005829Y005473D01*
X005821Y005470D01*
X005813Y005471D01*
X005806Y005475D01*
X005801Y005482D01*
X005799Y005490D01*
D30*
X003998Y005768D03*
X003998Y006228D03*
X004002Y004932D03*
X004002Y004472D03*
D31*
X004000Y004700D03*
X004000Y006000D03*
M02*
