%
M48
M72
T01C0.0130
T02C0.0400
%
T01
X3740Y1640
X3440Y2900
X3560Y3800
X3920Y3800
X3020Y3980
X2780Y4280
X1640Y3320
X4640Y4400
X5180Y5180
X6260Y4880
X7040Y4880
X6980Y5300
X7820Y5600
X7340Y6080
X6140Y5780
X5540Y6800
X4880Y6800
X4160Y6800
X4100Y7340
X3620Y7460
X3860Y7760
X3860Y8120
X3020Y7700
X1640Y7280
X3260Y6500
X3560Y5720
X1640Y5240
X4700Y7400
X5540Y7700
X6260Y7100
X6740Y7400
X7580Y7340
X8000Y7340
X7820Y6860
X8780Y6680
X9080Y7100
X11420Y7340
X11780Y7340
X12320Y6740
X12920Y6680
X14050Y6750
X14450Y6750
X14450Y7150
X14050Y7150
X14050Y6350
X14450Y6350
X14450Y5950
X14050Y5950
X13760Y5600
X13160Y5300
X14450Y5550
X14850Y5550
X15250Y5550
X15650Y5550
X15650Y5150
X15250Y5150
X15250Y4750
X15650Y4750
X15650Y4350
X15250Y4350
X15850Y3850
X16250Y3850
X16250Y3450
X15850Y3450
X15850Y3050
X15450Y3050
X15050Y3050
X14650Y3250
X14250Y3250
X13850Y3250
X13450Y3250
X15050Y2650
X15450Y2650
X15850Y2650
X16250Y2650
X16250Y3050
X16050Y4250
X15650Y5950
X15250Y5950
X14850Y5950
X11660Y3740
X10160Y3260
X9920Y3500
X9980Y3920
X8720Y4640
X9380Y5600
X7280Y3980
X7880Y3500
X7580Y3320
X8240Y3260
X6500Y4100
X7820Y1640
X13220Y8600
X14050Y8550
X14450Y8550
X14450Y8950
X14050Y8950
X14050Y9350
X14450Y9350
X10820Y8960
X9860Y8960
X3740Y8960
X1820Y8960
T02
X1300Y1300
X2300Y1300
X3300Y1300
X4300Y1300
X5300Y1300
X6300Y1300
X7300Y1300
X8300Y1300
X9300Y1300
X10300Y1300
X11300Y1300
X12300Y1300
X1300Y2800
X1300Y3800
X1300Y4800
X1300Y5800
X1300Y6800
X1300Y7800
X1300Y9300
X2300Y9300
X3300Y9300
X4300Y9300
X5300Y9300
X6300Y9300
X7300Y9300
X8300Y9300
X9300Y9300
X10300Y9300
X11300Y9300
X12300Y9300
M30
